G04 #@! TF.GenerationSoftware,KiCad,Pcbnew,(5.1.10)-1*
G04 #@! TF.CreationDate,2021-08-23T21:03:34+01:00*
G04 #@! TF.ProjectId,EnvOpenPico,456e764f-7065-46e5-9069-636f2e6b6963,REV1*
G04 #@! TF.SameCoordinates,Original*
G04 #@! TF.FileFunction,Legend,Bot*
G04 #@! TF.FilePolarity,Positive*
%FSLAX46Y46*%
G04 Gerber Fmt 4.6, Leading zero omitted, Abs format (unit mm)*
G04 Created by KiCad (PCBNEW (5.1.10)-1) date 2021-08-23 21:03:34*
%MOMM*%
%LPD*%
G01*
G04 APERTURE LIST*
%ADD10C,0.153000*%
%ADD11C,0.120000*%
%ADD12C,0.010000*%
%ADD13C,1.102000*%
%ADD14C,0.752000*%
%ADD15O,1.102000X2.202000*%
%ADD16O,1.102000X1.702000*%
%ADD17O,1.802000X1.802000*%
%ADD18C,1.802000*%
G04 APERTURE END LIST*
D10*
X107695514Y-84002904D02*
X108152657Y-84002904D01*
X107924085Y-84002904D02*
X107924085Y-83202904D01*
X108000276Y-83317190D01*
X108076466Y-83393380D01*
X108152657Y-83431476D01*
X107352657Y-83926714D02*
X107314561Y-83964809D01*
X107352657Y-84002904D01*
X107390752Y-83964809D01*
X107352657Y-83926714D01*
X107352657Y-84002904D01*
X106552657Y-84002904D02*
X107009800Y-84002904D01*
X106781228Y-84002904D02*
X106781228Y-83202904D01*
X106857419Y-83317190D01*
X106933609Y-83393380D01*
X107009800Y-83431476D01*
X106324085Y-83202904D02*
X106057419Y-84002904D01*
X105790752Y-83202904D01*
X100519952Y-82974304D02*
X100024714Y-82974304D01*
X100291380Y-83279066D01*
X100177095Y-83279066D01*
X100100904Y-83317161D01*
X100062809Y-83355257D01*
X100024714Y-83431447D01*
X100024714Y-83621923D01*
X100062809Y-83698114D01*
X100100904Y-83736209D01*
X100177095Y-83774304D01*
X100405666Y-83774304D01*
X100481857Y-83736209D01*
X100519952Y-83698114D01*
X99681857Y-83698114D02*
X99643761Y-83736209D01*
X99681857Y-83774304D01*
X99719952Y-83736209D01*
X99681857Y-83698114D01*
X99681857Y-83774304D01*
X99377095Y-82974304D02*
X98881857Y-82974304D01*
X99148523Y-83279066D01*
X99034238Y-83279066D01*
X98958047Y-83317161D01*
X98919952Y-83355257D01*
X98881857Y-83431447D01*
X98881857Y-83621923D01*
X98919952Y-83698114D01*
X98958047Y-83736209D01*
X99034238Y-83774304D01*
X99262809Y-83774304D01*
X99339000Y-83736209D01*
X99377095Y-83698114D01*
X98653285Y-82974304D02*
X98386619Y-83774304D01*
X98119952Y-82974304D01*
X106876361Y-68026304D02*
X106876361Y-67226304D01*
X106685885Y-67226304D01*
X106571600Y-67264400D01*
X106495409Y-67340590D01*
X106457314Y-67416780D01*
X106419219Y-67569161D01*
X106419219Y-67683447D01*
X106457314Y-67835828D01*
X106495409Y-67912019D01*
X106571600Y-67988209D01*
X106685885Y-68026304D01*
X106876361Y-68026304D01*
X106076361Y-67721542D02*
X105466838Y-67721542D01*
X101618561Y-68000904D02*
X101618561Y-67200904D01*
X101428085Y-67200904D01*
X101313800Y-67239000D01*
X101237609Y-67315190D01*
X101199514Y-67391380D01*
X101161419Y-67543761D01*
X101161419Y-67658047D01*
X101199514Y-67810428D01*
X101237609Y-67886619D01*
X101313800Y-67962809D01*
X101428085Y-68000904D01*
X101618561Y-68000904D01*
X100818561Y-67696142D02*
X100209038Y-67696142D01*
X100513800Y-68000904D02*
X100513800Y-67391380D01*
X101339295Y-78491028D02*
X102139295Y-78491028D01*
X102139295Y-78300552D01*
X102101200Y-78186266D01*
X102025009Y-78110076D01*
X101948819Y-78071980D01*
X101796438Y-78033885D01*
X101682152Y-78033885D01*
X101529771Y-78071980D01*
X101453580Y-78110076D01*
X101377390Y-78186266D01*
X101339295Y-78300552D01*
X101339295Y-78491028D01*
X101339295Y-77691028D02*
X102139295Y-77691028D01*
X101339295Y-77233885D01*
X102139295Y-77233885D01*
X101758342Y-76586266D02*
X101758342Y-76852933D01*
X101339295Y-76852933D02*
X102139295Y-76852933D01*
X102139295Y-76471980D01*
X110121228Y-63428600D02*
X110192657Y-63392885D01*
X110299800Y-63392885D01*
X110406942Y-63428600D01*
X110478371Y-63500028D01*
X110514085Y-63571457D01*
X110549800Y-63714314D01*
X110549800Y-63821457D01*
X110514085Y-63964314D01*
X110478371Y-64035742D01*
X110406942Y-64107171D01*
X110299800Y-64142885D01*
X110228371Y-64142885D01*
X110121228Y-64107171D01*
X110085514Y-64071457D01*
X110085514Y-63821457D01*
X110228371Y-63821457D01*
X109764085Y-64142885D02*
X109764085Y-63392885D01*
X109335514Y-64142885D01*
X109335514Y-63392885D01*
X108978371Y-64142885D02*
X108978371Y-63392885D01*
X108799800Y-63392885D01*
X108692657Y-63428600D01*
X108621228Y-63500028D01*
X108585514Y-63571457D01*
X108549800Y-63714314D01*
X108549800Y-63821457D01*
X108585514Y-63964314D01*
X108621228Y-64035742D01*
X108692657Y-64107171D01*
X108799800Y-64142885D01*
X108978371Y-64142885D01*
X110060237Y-76103600D02*
X110136428Y-76065504D01*
X110250714Y-76065504D01*
X110364999Y-76103600D01*
X110441190Y-76179790D01*
X110479285Y-76255980D01*
X110517380Y-76408361D01*
X110517380Y-76522647D01*
X110479285Y-76675028D01*
X110441190Y-76751219D01*
X110364999Y-76827409D01*
X110250714Y-76865504D01*
X110174523Y-76865504D01*
X110060237Y-76827409D01*
X110022142Y-76789314D01*
X110022142Y-76522647D01*
X110174523Y-76522647D01*
X109679285Y-76865504D02*
X109679285Y-76065504D01*
X109222142Y-76865504D01*
X109222142Y-76065504D01*
X108841190Y-76865504D02*
X108841190Y-76065504D01*
X108650714Y-76065504D01*
X108536428Y-76103600D01*
X108460237Y-76179790D01*
X108422142Y-76255980D01*
X108384047Y-76408361D01*
X108384047Y-76522647D01*
X108422142Y-76675028D01*
X108460237Y-76751219D01*
X108536428Y-76827409D01*
X108650714Y-76865504D01*
X108841190Y-76865504D01*
X110060237Y-86263600D02*
X110136428Y-86225504D01*
X110250714Y-86225504D01*
X110364999Y-86263600D01*
X110441190Y-86339790D01*
X110479285Y-86415980D01*
X110517380Y-86568361D01*
X110517380Y-86682647D01*
X110479285Y-86835028D01*
X110441190Y-86911219D01*
X110364999Y-86987409D01*
X110250714Y-87025504D01*
X110174523Y-87025504D01*
X110060237Y-86987409D01*
X110022142Y-86949314D01*
X110022142Y-86682647D01*
X110174523Y-86682647D01*
X109679285Y-87025504D02*
X109679285Y-86225504D01*
X109374523Y-86225504D01*
X109298333Y-86263600D01*
X109260237Y-86301695D01*
X109222142Y-86377885D01*
X109222142Y-86492171D01*
X109260237Y-86568361D01*
X109298333Y-86606457D01*
X109374523Y-86644552D01*
X109679285Y-86644552D01*
X108917380Y-86301695D02*
X108879285Y-86263600D01*
X108803095Y-86225504D01*
X108612618Y-86225504D01*
X108536428Y-86263600D01*
X108498333Y-86301695D01*
X108460237Y-86377885D01*
X108460237Y-86454076D01*
X108498333Y-86568361D01*
X108955476Y-87025504D01*
X108460237Y-87025504D01*
X108155476Y-86301695D02*
X108117380Y-86263600D01*
X108041190Y-86225504D01*
X107850714Y-86225504D01*
X107774523Y-86263600D01*
X107736428Y-86301695D01*
X107698333Y-86377885D01*
X107698333Y-86454076D01*
X107736428Y-86568361D01*
X108193571Y-87025504D01*
X107698333Y-87025504D01*
X110060237Y-81183600D02*
X110136428Y-81145504D01*
X110250714Y-81145504D01*
X110364999Y-81183600D01*
X110441190Y-81259790D01*
X110479285Y-81335980D01*
X110517380Y-81488361D01*
X110517380Y-81602647D01*
X110479285Y-81755028D01*
X110441190Y-81831219D01*
X110364999Y-81907409D01*
X110250714Y-81945504D01*
X110174523Y-81945504D01*
X110060237Y-81907409D01*
X110022142Y-81869314D01*
X110022142Y-81602647D01*
X110174523Y-81602647D01*
X109679285Y-81945504D02*
X109679285Y-81145504D01*
X109374523Y-81145504D01*
X109298333Y-81183600D01*
X109260237Y-81221695D01*
X109222142Y-81297885D01*
X109222142Y-81412171D01*
X109260237Y-81488361D01*
X109298333Y-81526457D01*
X109374523Y-81564552D01*
X109679285Y-81564552D01*
X108460237Y-81945504D02*
X108917380Y-81945504D01*
X108688809Y-81945504D02*
X108688809Y-81145504D01*
X108764999Y-81259790D01*
X108841190Y-81335980D01*
X108917380Y-81374076D01*
X107774523Y-81145504D02*
X107926904Y-81145504D01*
X108003095Y-81183600D01*
X108041190Y-81221695D01*
X108117380Y-81335980D01*
X108155476Y-81488361D01*
X108155476Y-81793123D01*
X108117380Y-81869314D01*
X108079285Y-81907409D01*
X108003095Y-81945504D01*
X107850714Y-81945504D01*
X107774523Y-81907409D01*
X107736428Y-81869314D01*
X107698333Y-81793123D01*
X107698333Y-81602647D01*
X107736428Y-81526457D01*
X107774523Y-81488361D01*
X107850714Y-81450266D01*
X108003095Y-81450266D01*
X108079285Y-81488361D01*
X108117380Y-81526457D01*
X108155476Y-81602647D01*
X110060237Y-78643600D02*
X110136428Y-78605504D01*
X110250714Y-78605504D01*
X110364999Y-78643600D01*
X110441190Y-78719790D01*
X110479285Y-78795980D01*
X110517380Y-78948361D01*
X110517380Y-79062647D01*
X110479285Y-79215028D01*
X110441190Y-79291219D01*
X110364999Y-79367409D01*
X110250714Y-79405504D01*
X110174523Y-79405504D01*
X110060237Y-79367409D01*
X110022142Y-79329314D01*
X110022142Y-79062647D01*
X110174523Y-79062647D01*
X109679285Y-79405504D02*
X109679285Y-78605504D01*
X109374523Y-78605504D01*
X109298333Y-78643600D01*
X109260237Y-78681695D01*
X109222142Y-78757885D01*
X109222142Y-78872171D01*
X109260237Y-78948361D01*
X109298333Y-78986457D01*
X109374523Y-79024552D01*
X109679285Y-79024552D01*
X108917380Y-78681695D02*
X108879285Y-78643600D01*
X108803095Y-78605504D01*
X108612618Y-78605504D01*
X108536428Y-78643600D01*
X108498333Y-78681695D01*
X108460237Y-78757885D01*
X108460237Y-78834076D01*
X108498333Y-78948361D01*
X108955476Y-79405504D01*
X108460237Y-79405504D01*
X108193571Y-78605504D02*
X107660237Y-78605504D01*
X108003095Y-79405504D01*
X110060237Y-73563600D02*
X110136428Y-73525504D01*
X110250714Y-73525504D01*
X110364999Y-73563600D01*
X110441190Y-73639790D01*
X110479285Y-73715980D01*
X110517380Y-73868361D01*
X110517380Y-73982647D01*
X110479285Y-74135028D01*
X110441190Y-74211219D01*
X110364999Y-74287409D01*
X110250714Y-74325504D01*
X110174523Y-74325504D01*
X110060237Y-74287409D01*
X110022142Y-74249314D01*
X110022142Y-73982647D01*
X110174523Y-73982647D01*
X109679285Y-74325504D02*
X109679285Y-73525504D01*
X109374523Y-73525504D01*
X109298333Y-73563600D01*
X109260237Y-73601695D01*
X109222142Y-73677885D01*
X109222142Y-73792171D01*
X109260237Y-73868361D01*
X109298333Y-73906457D01*
X109374523Y-73944552D01*
X109679285Y-73944552D01*
X108917380Y-73601695D02*
X108879285Y-73563600D01*
X108803095Y-73525504D01*
X108612618Y-73525504D01*
X108536428Y-73563600D01*
X108498333Y-73601695D01*
X108460237Y-73677885D01*
X108460237Y-73754076D01*
X108498333Y-73868361D01*
X108955476Y-74325504D01*
X108460237Y-74325504D01*
X108003095Y-73868361D02*
X108079285Y-73830266D01*
X108117380Y-73792171D01*
X108155476Y-73715980D01*
X108155476Y-73677885D01*
X108117380Y-73601695D01*
X108079285Y-73563600D01*
X108003095Y-73525504D01*
X107850714Y-73525504D01*
X107774523Y-73563600D01*
X107736428Y-73601695D01*
X107698333Y-73677885D01*
X107698333Y-73715980D01*
X107736428Y-73792171D01*
X107774523Y-73830266D01*
X107850714Y-73868361D01*
X108003095Y-73868361D01*
X108079285Y-73906457D01*
X108117380Y-73944552D01*
X108155476Y-74020742D01*
X108155476Y-74173123D01*
X108117380Y-74249314D01*
X108079285Y-74287409D01*
X108003095Y-74325504D01*
X107850714Y-74325504D01*
X107774523Y-74287409D01*
X107736428Y-74249314D01*
X107698333Y-74173123D01*
X107698333Y-74020742D01*
X107736428Y-73944552D01*
X107774523Y-73906457D01*
X107850714Y-73868361D01*
X110517381Y-71558333D02*
X110136428Y-71558333D01*
X110593571Y-71786904D02*
X110326904Y-70986904D01*
X110060238Y-71786904D01*
X109793571Y-71786904D02*
X109793571Y-70986904D01*
X109603095Y-70986904D01*
X109488809Y-71025000D01*
X109412619Y-71101190D01*
X109374524Y-71177380D01*
X109336428Y-71329761D01*
X109336428Y-71444047D01*
X109374524Y-71596428D01*
X109412619Y-71672619D01*
X109488809Y-71748809D01*
X109603095Y-71786904D01*
X109793571Y-71786904D01*
X108536428Y-71710714D02*
X108574524Y-71748809D01*
X108688809Y-71786904D01*
X108765000Y-71786904D01*
X108879285Y-71748809D01*
X108955476Y-71672619D01*
X108993571Y-71596428D01*
X109031666Y-71444047D01*
X109031666Y-71329761D01*
X108993571Y-71177380D01*
X108955476Y-71101190D01*
X108879285Y-71025000D01*
X108765000Y-70986904D01*
X108688809Y-70986904D01*
X108574524Y-71025000D01*
X108536428Y-71063095D01*
X108384047Y-71863095D02*
X107774524Y-71863095D01*
X107698333Y-70986904D02*
X107431666Y-71786904D01*
X107165000Y-70986904D01*
X106441190Y-71786904D02*
X106707857Y-71405952D01*
X106898333Y-71786904D02*
X106898333Y-70986904D01*
X106593571Y-70986904D01*
X106517381Y-71025000D01*
X106479285Y-71063095D01*
X106441190Y-71139285D01*
X106441190Y-71253571D01*
X106479285Y-71329761D01*
X106517381Y-71367857D01*
X106593571Y-71405952D01*
X106898333Y-71405952D01*
X106098333Y-71367857D02*
X105831666Y-71367857D01*
X105717381Y-71786904D02*
X106098333Y-71786904D01*
X106098333Y-70986904D01*
X105717381Y-70986904D01*
X105107857Y-71367857D02*
X105374524Y-71367857D01*
X105374524Y-71786904D02*
X105374524Y-70986904D01*
X104993571Y-70986904D01*
X110555475Y-65911904D02*
X110060237Y-65911904D01*
X110326904Y-66216666D01*
X110212618Y-66216666D01*
X110136428Y-66254761D01*
X110098333Y-66292857D01*
X110060237Y-66369047D01*
X110060237Y-66559523D01*
X110098333Y-66635714D01*
X110136428Y-66673809D01*
X110212618Y-66711904D01*
X110441190Y-66711904D01*
X110517380Y-66673809D01*
X110555475Y-66635714D01*
X109717380Y-66635714D02*
X109679285Y-66673809D01*
X109717380Y-66711904D01*
X109755475Y-66673809D01*
X109717380Y-66635714D01*
X109717380Y-66711904D01*
X109412618Y-65911904D02*
X108917380Y-65911904D01*
X109184047Y-66216666D01*
X109069761Y-66216666D01*
X108993571Y-66254761D01*
X108955475Y-66292857D01*
X108917380Y-66369047D01*
X108917380Y-66559523D01*
X108955475Y-66635714D01*
X108993571Y-66673809D01*
X109069761Y-66711904D01*
X109298333Y-66711904D01*
X109374523Y-66673809D01*
X109412618Y-66635714D01*
X108688809Y-65911904D02*
X108422142Y-66711904D01*
X108155475Y-65911904D01*
X107888809Y-66407142D02*
X107279285Y-66407142D01*
X106898333Y-66292857D02*
X106631666Y-66292857D01*
X106517380Y-66711904D02*
X106898333Y-66711904D01*
X106898333Y-65911904D01*
X106517380Y-65911904D01*
X106174523Y-66711904D02*
X106174523Y-65911904D01*
X105717380Y-66711904D01*
X105717380Y-65911904D01*
X110555476Y-68436904D02*
X110060238Y-68436904D01*
X110326904Y-68741666D01*
X110212619Y-68741666D01*
X110136428Y-68779761D01*
X110098333Y-68817857D01*
X110060238Y-68894047D01*
X110060238Y-69084523D01*
X110098333Y-69160714D01*
X110136428Y-69198809D01*
X110212619Y-69236904D01*
X110441190Y-69236904D01*
X110517380Y-69198809D01*
X110555476Y-69160714D01*
X109831666Y-68436904D02*
X109565000Y-69236904D01*
X109298333Y-68436904D01*
X109107857Y-68436904D02*
X108612619Y-68436904D01*
X108879285Y-68741666D01*
X108765000Y-68741666D01*
X108688809Y-68779761D01*
X108650714Y-68817857D01*
X108612619Y-68894047D01*
X108612619Y-69084523D01*
X108650714Y-69160714D01*
X108688809Y-69198809D01*
X108765000Y-69236904D01*
X108993571Y-69236904D01*
X109069761Y-69198809D01*
X109107857Y-69160714D01*
D11*
X102045600Y-83412400D02*
G75*
G03*
X102045600Y-83412400I-700000J0D01*
G01*
D12*
G36*
X100442793Y-101472347D02*
G01*
X100433310Y-101475204D01*
X100379101Y-101504523D01*
X100335889Y-101543602D01*
X100312696Y-101583565D01*
X100310974Y-101595541D01*
X100320750Y-101643286D01*
X100351023Y-101703260D01*
X100403212Y-101777386D01*
X100478734Y-101867588D01*
X100579008Y-101975790D01*
X100629445Y-102027676D01*
X100727129Y-102127781D01*
X100819519Y-102223898D01*
X100903792Y-102312966D01*
X100977120Y-102391924D01*
X101036680Y-102457711D01*
X101079645Y-102507267D01*
X101103190Y-102537529D01*
X101106840Y-102544906D01*
X101103215Y-102548649D01*
X101089870Y-102547507D01*
X101063096Y-102540254D01*
X101019187Y-102525665D01*
X100954435Y-102502514D01*
X100865133Y-102469576D01*
X100759707Y-102430176D01*
X100621127Y-102378789D01*
X100474979Y-102325598D01*
X100330920Y-102274057D01*
X100198605Y-102227620D01*
X100087691Y-102189740D01*
X100082374Y-102187963D01*
X100033127Y-102172299D01*
X99962184Y-102150667D01*
X99880437Y-102126311D01*
X99798780Y-102102475D01*
X99728104Y-102082402D01*
X99725037Y-102081551D01*
X99668623Y-102073161D01*
X99623879Y-102078912D01*
X99595228Y-102094649D01*
X99587089Y-102116216D01*
X99603883Y-102139456D01*
X99643491Y-102158215D01*
X99681726Y-102171407D01*
X99740964Y-102192877D01*
X99810592Y-102218758D01*
X99836840Y-102228670D01*
X99917703Y-102256806D01*
X100002360Y-102282193D01*
X100075044Y-102300183D01*
X100087969Y-102302706D01*
X100188375Y-102326559D01*
X100309729Y-102364456D01*
X100443755Y-102413328D01*
X100582177Y-102470108D01*
X100716719Y-102531725D01*
X100750407Y-102548342D01*
X100940903Y-102643879D01*
X100928065Y-102706386D01*
X100923607Y-102746360D01*
X100920439Y-102811809D01*
X100918807Y-102894355D01*
X100918957Y-102985623D01*
X100919252Y-103005960D01*
X100917915Y-103159398D01*
X100907278Y-103300360D01*
X100885666Y-103436323D01*
X100851404Y-103574762D01*
X100802814Y-103723152D01*
X100738221Y-103888968D01*
X100702109Y-103974465D01*
X100677053Y-104035865D01*
X100658506Y-104087443D01*
X100649877Y-104119576D01*
X100649640Y-104122632D01*
X100659382Y-104146481D01*
X100684540Y-104146630D01*
X100719016Y-104125530D01*
X100756710Y-104085636D01*
X100763120Y-104076993D01*
X100830876Y-103967490D01*
X100897400Y-103832594D01*
X100959338Y-103680714D01*
X101013337Y-103520257D01*
X101056041Y-103359631D01*
X101064161Y-103322353D01*
X101076241Y-103242525D01*
X101084963Y-103140262D01*
X101089473Y-103026900D01*
X101089907Y-102980452D01*
X101091125Y-102895470D01*
X101094478Y-102825007D01*
X101099515Y-102775336D01*
X101105783Y-102752730D01*
X101106343Y-102752267D01*
X101122685Y-102750067D01*
X101150936Y-102758853D01*
X101194401Y-102780399D01*
X101256383Y-102816480D01*
X101340188Y-102868871D01*
X101423005Y-102922311D01*
X101492915Y-102969609D01*
X101560340Y-103019513D01*
X101629013Y-103075419D01*
X101702673Y-103140726D01*
X101785054Y-103218829D01*
X101879894Y-103313127D01*
X101990929Y-103427017D01*
X102078359Y-103518193D01*
X102145961Y-103586198D01*
X102197904Y-103632568D01*
X102232730Y-103656438D01*
X102248982Y-103656941D01*
X102245204Y-103633211D01*
X102235006Y-103611326D01*
X102215940Y-103580516D01*
X102181037Y-103529465D01*
X102134994Y-103464862D01*
X102082509Y-103393399D01*
X102073705Y-103381611D01*
X102014636Y-103300875D01*
X101974415Y-103240784D01*
X101950053Y-103196098D01*
X101938562Y-103161577D01*
X101936573Y-103141144D01*
X101934342Y-103115306D01*
X101924764Y-103091298D01*
X101903510Y-103064104D01*
X101866253Y-103028705D01*
X101808665Y-102980082D01*
X101771473Y-102949714D01*
X101703505Y-102890994D01*
X101617606Y-102811308D01*
X101518172Y-102715154D01*
X101409602Y-102607027D01*
X101296293Y-102491427D01*
X101182641Y-102372849D01*
X101073044Y-102255793D01*
X100971899Y-102144754D01*
X100883604Y-102044231D01*
X100866216Y-102023827D01*
X100773032Y-101910699D01*
X100704036Y-101819805D01*
X100658714Y-101750211D01*
X100636546Y-101700986D01*
X100637018Y-101671198D01*
X100659611Y-101659916D01*
X100664277Y-101659760D01*
X100699709Y-101666470D01*
X100758790Y-101684750D01*
X100834490Y-101711827D01*
X100919779Y-101744929D01*
X101007628Y-101781282D01*
X101091005Y-101818112D01*
X101162883Y-101852647D01*
X101191507Y-101867744D01*
X101437286Y-102010211D01*
X101665183Y-102158501D01*
X101881880Y-102315927D01*
X101943255Y-102359604D01*
X101988117Y-102381480D01*
X102024518Y-102383064D01*
X102060509Y-102365870D01*
X102078223Y-102352797D01*
X102110516Y-102321604D01*
X102120907Y-102292322D01*
X102107374Y-102260947D01*
X102067892Y-102223474D01*
X102000440Y-102175896D01*
X101983211Y-102164684D01*
X101907219Y-102115279D01*
X101827348Y-102062722D01*
X101757575Y-102016226D01*
X101739663Y-102004132D01*
X101623106Y-101929798D01*
X101494048Y-101855709D01*
X101356566Y-101783516D01*
X101214738Y-101714870D01*
X101072642Y-101651421D01*
X100934355Y-101594822D01*
X100803956Y-101546722D01*
X100685523Y-101508774D01*
X100583133Y-101482628D01*
X100500864Y-101469935D01*
X100442793Y-101472347D01*
G37*
X100442793Y-101472347D02*
X100433310Y-101475204D01*
X100379101Y-101504523D01*
X100335889Y-101543602D01*
X100312696Y-101583565D01*
X100310974Y-101595541D01*
X100320750Y-101643286D01*
X100351023Y-101703260D01*
X100403212Y-101777386D01*
X100478734Y-101867588D01*
X100579008Y-101975790D01*
X100629445Y-102027676D01*
X100727129Y-102127781D01*
X100819519Y-102223898D01*
X100903792Y-102312966D01*
X100977120Y-102391924D01*
X101036680Y-102457711D01*
X101079645Y-102507267D01*
X101103190Y-102537529D01*
X101106840Y-102544906D01*
X101103215Y-102548649D01*
X101089870Y-102547507D01*
X101063096Y-102540254D01*
X101019187Y-102525665D01*
X100954435Y-102502514D01*
X100865133Y-102469576D01*
X100759707Y-102430176D01*
X100621127Y-102378789D01*
X100474979Y-102325598D01*
X100330920Y-102274057D01*
X100198605Y-102227620D01*
X100087691Y-102189740D01*
X100082374Y-102187963D01*
X100033127Y-102172299D01*
X99962184Y-102150667D01*
X99880437Y-102126311D01*
X99798780Y-102102475D01*
X99728104Y-102082402D01*
X99725037Y-102081551D01*
X99668623Y-102073161D01*
X99623879Y-102078912D01*
X99595228Y-102094649D01*
X99587089Y-102116216D01*
X99603883Y-102139456D01*
X99643491Y-102158215D01*
X99681726Y-102171407D01*
X99740964Y-102192877D01*
X99810592Y-102218758D01*
X99836840Y-102228670D01*
X99917703Y-102256806D01*
X100002360Y-102282193D01*
X100075044Y-102300183D01*
X100087969Y-102302706D01*
X100188375Y-102326559D01*
X100309729Y-102364456D01*
X100443755Y-102413328D01*
X100582177Y-102470108D01*
X100716719Y-102531725D01*
X100750407Y-102548342D01*
X100940903Y-102643879D01*
X100928065Y-102706386D01*
X100923607Y-102746360D01*
X100920439Y-102811809D01*
X100918807Y-102894355D01*
X100918957Y-102985623D01*
X100919252Y-103005960D01*
X100917915Y-103159398D01*
X100907278Y-103300360D01*
X100885666Y-103436323D01*
X100851404Y-103574762D01*
X100802814Y-103723152D01*
X100738221Y-103888968D01*
X100702109Y-103974465D01*
X100677053Y-104035865D01*
X100658506Y-104087443D01*
X100649877Y-104119576D01*
X100649640Y-104122632D01*
X100659382Y-104146481D01*
X100684540Y-104146630D01*
X100719016Y-104125530D01*
X100756710Y-104085636D01*
X100763120Y-104076993D01*
X100830876Y-103967490D01*
X100897400Y-103832594D01*
X100959338Y-103680714D01*
X101013337Y-103520257D01*
X101056041Y-103359631D01*
X101064161Y-103322353D01*
X101076241Y-103242525D01*
X101084963Y-103140262D01*
X101089473Y-103026900D01*
X101089907Y-102980452D01*
X101091125Y-102895470D01*
X101094478Y-102825007D01*
X101099515Y-102775336D01*
X101105783Y-102752730D01*
X101106343Y-102752267D01*
X101122685Y-102750067D01*
X101150936Y-102758853D01*
X101194401Y-102780399D01*
X101256383Y-102816480D01*
X101340188Y-102868871D01*
X101423005Y-102922311D01*
X101492915Y-102969609D01*
X101560340Y-103019513D01*
X101629013Y-103075419D01*
X101702673Y-103140726D01*
X101785054Y-103218829D01*
X101879894Y-103313127D01*
X101990929Y-103427017D01*
X102078359Y-103518193D01*
X102145961Y-103586198D01*
X102197904Y-103632568D01*
X102232730Y-103656438D01*
X102248982Y-103656941D01*
X102245204Y-103633211D01*
X102235006Y-103611326D01*
X102215940Y-103580516D01*
X102181037Y-103529465D01*
X102134994Y-103464862D01*
X102082509Y-103393399D01*
X102073705Y-103381611D01*
X102014636Y-103300875D01*
X101974415Y-103240784D01*
X101950053Y-103196098D01*
X101938562Y-103161577D01*
X101936573Y-103141144D01*
X101934342Y-103115306D01*
X101924764Y-103091298D01*
X101903510Y-103064104D01*
X101866253Y-103028705D01*
X101808665Y-102980082D01*
X101771473Y-102949714D01*
X101703505Y-102890994D01*
X101617606Y-102811308D01*
X101518172Y-102715154D01*
X101409602Y-102607027D01*
X101296293Y-102491427D01*
X101182641Y-102372849D01*
X101073044Y-102255793D01*
X100971899Y-102144754D01*
X100883604Y-102044231D01*
X100866216Y-102023827D01*
X100773032Y-101910699D01*
X100704036Y-101819805D01*
X100658714Y-101750211D01*
X100636546Y-101700986D01*
X100637018Y-101671198D01*
X100659611Y-101659916D01*
X100664277Y-101659760D01*
X100699709Y-101666470D01*
X100758790Y-101684750D01*
X100834490Y-101711827D01*
X100919779Y-101744929D01*
X101007628Y-101781282D01*
X101091005Y-101818112D01*
X101162883Y-101852647D01*
X101191507Y-101867744D01*
X101437286Y-102010211D01*
X101665183Y-102158501D01*
X101881880Y-102315927D01*
X101943255Y-102359604D01*
X101988117Y-102381480D01*
X102024518Y-102383064D01*
X102060509Y-102365870D01*
X102078223Y-102352797D01*
X102110516Y-102321604D01*
X102120907Y-102292322D01*
X102107374Y-102260947D01*
X102067892Y-102223474D01*
X102000440Y-102175896D01*
X101983211Y-102164684D01*
X101907219Y-102115279D01*
X101827348Y-102062722D01*
X101757575Y-102016226D01*
X101739663Y-102004132D01*
X101623106Y-101929798D01*
X101494048Y-101855709D01*
X101356566Y-101783516D01*
X101214738Y-101714870D01*
X101072642Y-101651421D01*
X100934355Y-101594822D01*
X100803956Y-101546722D01*
X100685523Y-101508774D01*
X100583133Y-101482628D01*
X100500864Y-101469935D01*
X100442793Y-101472347D01*
G36*
X107839536Y-98227968D02*
G01*
X107753689Y-98250979D01*
X107636440Y-98286327D01*
X107581263Y-98303755D01*
X107482443Y-98335270D01*
X107358658Y-98374711D01*
X107217221Y-98419752D01*
X107065445Y-98468062D01*
X106910643Y-98517315D01*
X106760128Y-98565183D01*
X106720240Y-98577863D01*
X106576561Y-98623576D01*
X106430458Y-98670128D01*
X106288392Y-98715457D01*
X106156823Y-98757499D01*
X106042211Y-98794191D01*
X105951016Y-98823470D01*
X105924373Y-98832053D01*
X105870400Y-98849384D01*
X105787446Y-98875913D01*
X105678810Y-98910592D01*
X105547789Y-98952370D01*
X105397682Y-99000200D01*
X105231788Y-99053031D01*
X105053404Y-99109815D01*
X104865830Y-99169503D01*
X104672362Y-99231045D01*
X104476300Y-99293392D01*
X104280942Y-99355496D01*
X104089587Y-99416306D01*
X103905531Y-99474775D01*
X103732075Y-99529852D01*
X103572515Y-99580489D01*
X103430151Y-99625636D01*
X103308280Y-99664245D01*
X103274307Y-99674998D01*
X103187453Y-99704114D01*
X103119396Y-99730235D01*
X103074821Y-99751400D01*
X103058463Y-99765298D01*
X103068842Y-99787631D01*
X103099955Y-99819073D01*
X103124943Y-99838433D01*
X103161770Y-99867169D01*
X103180476Y-99887481D01*
X103179920Y-99893295D01*
X103158931Y-99899943D01*
X103111799Y-99914812D01*
X103044688Y-99935958D01*
X102963762Y-99961439D01*
X102927831Y-99972748D01*
X102843832Y-100000229D01*
X102772139Y-100025670D01*
X102718633Y-100046829D01*
X102689199Y-100061462D01*
X102685423Y-100065144D01*
X102694521Y-100084470D01*
X102724359Y-100114175D01*
X102749140Y-100133644D01*
X102789082Y-100165007D01*
X102814504Y-100189631D01*
X102819267Y-100197875D01*
X102804151Y-100207495D01*
X102762227Y-100224883D01*
X102699088Y-100247946D01*
X102620325Y-100274593D01*
X102577093Y-100288522D01*
X102469694Y-100324045D01*
X102394200Y-100352464D01*
X102349508Y-100374241D01*
X102334512Y-100389840D01*
X102334507Y-100390068D01*
X102334804Y-100401606D01*
X102337209Y-100410833D01*
X102343995Y-100417143D01*
X102357431Y-100419934D01*
X102379791Y-100418600D01*
X102413344Y-100412538D01*
X102460363Y-100401143D01*
X102523119Y-100383812D01*
X102603883Y-100359939D01*
X102704927Y-100328921D01*
X102828522Y-100290154D01*
X102976940Y-100243032D01*
X103152451Y-100186953D01*
X103357328Y-100121312D01*
X103418240Y-100101785D01*
X103650843Y-100027339D01*
X103369574Y-100027339D01*
X103369428Y-100029350D01*
X103350687Y-100037839D01*
X103307267Y-100053905D01*
X103246810Y-100075010D01*
X103176956Y-100098615D01*
X103105348Y-100122181D01*
X103039626Y-100143170D01*
X102987433Y-100159042D01*
X102956408Y-100167259D01*
X102952573Y-100167842D01*
X102923580Y-100158898D01*
X102884446Y-100134759D01*
X102876373Y-100128513D01*
X102845744Y-100100258D01*
X102841714Y-100084373D01*
X102850973Y-100078743D01*
X102876390Y-100070416D01*
X102926815Y-100054268D01*
X102994947Y-100032627D01*
X103073478Y-100007822D01*
X103270583Y-99945726D01*
X103323037Y-99984507D01*
X103354962Y-100010525D01*
X103369574Y-100027339D01*
X103650843Y-100027339D01*
X103747542Y-99996390D01*
X104101776Y-99883340D01*
X104482798Y-99762044D01*
X104892463Y-99631912D01*
X105331707Y-99492645D01*
X105412510Y-99467001D01*
X105519117Y-99433098D01*
X105645075Y-99392994D01*
X105783931Y-99348743D01*
X105929232Y-99302401D01*
X106074523Y-99256026D01*
X106127574Y-99239082D01*
X106329277Y-99174669D01*
X106501144Y-99119852D01*
X106645589Y-99073896D01*
X106765029Y-99036065D01*
X106861880Y-99005626D01*
X106938556Y-98981843D01*
X106997474Y-98963982D01*
X107041050Y-98951306D01*
X107071699Y-98943083D01*
X107091836Y-98938576D01*
X107103879Y-98937052D01*
X107110242Y-98937774D01*
X107112773Y-98939382D01*
X107114491Y-98957926D01*
X107115319Y-99006970D01*
X107115294Y-99083161D01*
X107114452Y-99183145D01*
X107112832Y-99303568D01*
X107110471Y-99441077D01*
X107107405Y-99592317D01*
X107103762Y-99750265D01*
X107092318Y-100224566D01*
X107081774Y-100672730D01*
X107072137Y-101094253D01*
X107063416Y-101488627D01*
X107055620Y-101855345D01*
X107048756Y-102193902D01*
X107042834Y-102503791D01*
X107037861Y-102784505D01*
X107033847Y-103035537D01*
X107030799Y-103256382D01*
X107028726Y-103446533D01*
X107027637Y-103605483D01*
X107027541Y-103732725D01*
X107028444Y-103827754D01*
X107030357Y-103890063D01*
X107033287Y-103919145D01*
X107034116Y-103921093D01*
X107063109Y-103944216D01*
X107088446Y-103935926D01*
X107089951Y-103934471D01*
X107093857Y-103914446D01*
X107097178Y-103866686D01*
X107099657Y-103797319D01*
X107101039Y-103712476D01*
X107101240Y-103663538D01*
X107101797Y-103574104D01*
X107103334Y-103497986D01*
X107105649Y-103440972D01*
X107108539Y-103408851D01*
X107110301Y-103403893D01*
X107126692Y-103413480D01*
X107164067Y-103439437D01*
X107216508Y-103477562D01*
X107265789Y-103514342D01*
X107326981Y-103558787D01*
X107379169Y-103593520D01*
X107416050Y-103614539D01*
X107430295Y-103618795D01*
X107438156Y-103599639D01*
X107445279Y-103549462D01*
X107451386Y-103471106D01*
X107456198Y-103367413D01*
X107456840Y-103348298D01*
X107465307Y-103083795D01*
X107623617Y-103203221D01*
X107702285Y-103260266D01*
X107757412Y-103294819D01*
X107790161Y-103307556D01*
X107799298Y-103305276D01*
X107803447Y-103284534D01*
X107807869Y-103231065D01*
X107812522Y-103146005D01*
X107817364Y-103030494D01*
X107822353Y-102885667D01*
X107827447Y-102712664D01*
X107832605Y-102512620D01*
X107837785Y-102286675D01*
X107839125Y-102224066D01*
X107847364Y-101834858D01*
X107854984Y-101477361D01*
X107862034Y-101149427D01*
X107868563Y-100848906D01*
X107874622Y-100573649D01*
X107880259Y-100321508D01*
X107885523Y-100090334D01*
X107890465Y-99877977D01*
X107895133Y-99682289D01*
X107899578Y-99501122D01*
X107903847Y-99332325D01*
X107907992Y-99173750D01*
X107912061Y-99023249D01*
X107915918Y-98885229D01*
X107920992Y-98690198D01*
X107924185Y-98528916D01*
X107925497Y-98401317D01*
X107925349Y-98376859D01*
X107843336Y-98376859D01*
X107842041Y-98439595D01*
X107838562Y-98530857D01*
X107838284Y-98537595D01*
X107836375Y-98592804D01*
X107833911Y-98678632D01*
X107830966Y-98791838D01*
X107827615Y-98929182D01*
X107823930Y-99087421D01*
X107819987Y-99263315D01*
X107815859Y-99453623D01*
X107811621Y-99655102D01*
X107807345Y-99864513D01*
X107803148Y-100076493D01*
X107798662Y-100303577D01*
X107793960Y-100535691D01*
X107789142Y-100768338D01*
X107784304Y-100997018D01*
X107779545Y-101217232D01*
X107774963Y-101424481D01*
X107770655Y-101614265D01*
X107766720Y-101782087D01*
X107763256Y-101923447D01*
X107761318Y-101998427D01*
X107757382Y-102154403D01*
X107753778Y-102312270D01*
X107750624Y-102465722D01*
X107748038Y-102608455D01*
X107746135Y-102734162D01*
X107745032Y-102836537D01*
X107744800Y-102888838D01*
X107744147Y-102981562D01*
X107742402Y-103062065D01*
X107739788Y-103124402D01*
X107736528Y-103162624D01*
X107734206Y-103171683D01*
X107717222Y-103166568D01*
X107679910Y-103144344D01*
X107628480Y-103108943D01*
X107590471Y-103080762D01*
X107504812Y-103015555D01*
X107372173Y-103015555D01*
X107372173Y-103489781D01*
X107316598Y-103451070D01*
X107270353Y-103418086D01*
X107213540Y-103376538D01*
X107182036Y-103353093D01*
X107103049Y-103293827D01*
X107112967Y-103065227D01*
X107116750Y-102981356D01*
X107120208Y-102910836D01*
X107123011Y-102859941D01*
X107124830Y-102834948D01*
X107125105Y-102833462D01*
X107138580Y-102841530D01*
X107172836Y-102865798D01*
X107221763Y-102901878D01*
X107249750Y-102922926D01*
X107372173Y-103015555D01*
X107504812Y-103015555D01*
X107457237Y-102979340D01*
X107466124Y-102806383D01*
X107467731Y-102764724D01*
X107469928Y-102691831D01*
X107472653Y-102590332D01*
X107475846Y-102462853D01*
X107479448Y-102312022D01*
X107483398Y-102140465D01*
X107487635Y-101950809D01*
X107492101Y-101745681D01*
X107496735Y-101527708D01*
X107501476Y-101299518D01*
X107506264Y-101063736D01*
X107507890Y-100982426D01*
X107512785Y-100738204D01*
X107517699Y-100496153D01*
X107522563Y-100259395D01*
X107527311Y-100031051D01*
X107531877Y-99814243D01*
X107536193Y-99612091D01*
X107540193Y-99427719D01*
X107543811Y-99264245D01*
X107546979Y-99124793D01*
X107549631Y-99012483D01*
X107551701Y-98930436D01*
X107551960Y-98920793D01*
X107555250Y-98788314D01*
X107556940Y-98686720D01*
X107470423Y-98686720D01*
X107470111Y-98767372D01*
X107468996Y-98876357D01*
X107467112Y-99011835D01*
X107464494Y-99171964D01*
X107461176Y-99354905D01*
X107457194Y-99558816D01*
X107452580Y-99781857D01*
X107447370Y-100022188D01*
X107441598Y-100277968D01*
X107435298Y-100547356D01*
X107428506Y-100828512D01*
X107423004Y-101050160D01*
X107418590Y-101231168D01*
X107413860Y-101434301D01*
X107409045Y-101648987D01*
X107404377Y-101864657D01*
X107400089Y-102070740D01*
X107396410Y-102256664D01*
X107395473Y-102306234D01*
X107383886Y-102927307D01*
X107251030Y-102826173D01*
X107184139Y-102772848D01*
X107142365Y-102733073D01*
X107121886Y-102702798D01*
X107118174Y-102685401D01*
X107118590Y-102660147D01*
X107119776Y-102604912D01*
X107121642Y-102523572D01*
X107124094Y-102420002D01*
X107127040Y-102298077D01*
X107130389Y-102161672D01*
X107134049Y-102014663D01*
X107135152Y-101970729D01*
X107137751Y-101865112D01*
X107140824Y-101736472D01*
X107144304Y-101587782D01*
X107148127Y-101422018D01*
X107152227Y-101242155D01*
X107156540Y-101051168D01*
X107161001Y-100852031D01*
X107165544Y-100647720D01*
X107170104Y-100441210D01*
X107174617Y-100235475D01*
X107179018Y-100033490D01*
X107183241Y-99838231D01*
X107187222Y-99652673D01*
X107190895Y-99479789D01*
X107194195Y-99322556D01*
X107197058Y-99183949D01*
X107199419Y-99066941D01*
X107201212Y-98974509D01*
X107202372Y-98909627D01*
X107202835Y-98875270D01*
X107202840Y-98873335D01*
X107193383Y-98839392D01*
X107175557Y-98831893D01*
X107154691Y-98836905D01*
X107104774Y-98851271D01*
X107028999Y-98873992D01*
X106930559Y-98904066D01*
X106812649Y-98940490D01*
X106678461Y-98982264D01*
X106531189Y-99028387D01*
X106374025Y-99077856D01*
X106210163Y-99129672D01*
X106042797Y-99182831D01*
X105875119Y-99236333D01*
X105710324Y-99289177D01*
X105551603Y-99340360D01*
X105475640Y-99364977D01*
X105400114Y-99389359D01*
X105298734Y-99421882D01*
X105177942Y-99460492D01*
X105044177Y-99503133D01*
X104903882Y-99547749D01*
X104763497Y-99592287D01*
X104730574Y-99602714D01*
X104581261Y-99650054D01*
X104421649Y-99700772D01*
X104260208Y-99752169D01*
X104105408Y-99801547D01*
X103965716Y-99846207D01*
X103849604Y-99883449D01*
X103846654Y-99884397D01*
X103479200Y-100002559D01*
X103427437Y-99964289D01*
X103397439Y-99937140D01*
X103386981Y-99917048D01*
X103388491Y-99913907D01*
X103406849Y-99906398D01*
X103454156Y-99889833D01*
X103527051Y-99865313D01*
X103622176Y-99833942D01*
X103736172Y-99796823D01*
X103865680Y-99755057D01*
X104007340Y-99709748D01*
X104104040Y-99679016D01*
X104270649Y-99626166D01*
X104443283Y-99571348D01*
X104615739Y-99516534D01*
X104781817Y-99463698D01*
X104935316Y-99414812D01*
X105070035Y-99371850D01*
X105179773Y-99336785D01*
X105196240Y-99331513D01*
X105312418Y-99294359D01*
X105452999Y-99249485D01*
X105610101Y-99199401D01*
X105775842Y-99146618D01*
X105942341Y-99093648D01*
X106101717Y-99043000D01*
X106152974Y-99026725D01*
X106306765Y-98977861D01*
X106469157Y-98926178D01*
X106632536Y-98874106D01*
X106789287Y-98824075D01*
X106931794Y-98778514D01*
X107052442Y-98739853D01*
X107089955Y-98727803D01*
X107195786Y-98694267D01*
X107290565Y-98665161D01*
X107369654Y-98641835D01*
X107428418Y-98625636D01*
X107462218Y-98617911D01*
X107468501Y-98617776D01*
X107469898Y-98636241D01*
X107470423Y-98686720D01*
X107556940Y-98686720D01*
X107556949Y-98686219D01*
X107556966Y-98611058D01*
X107555212Y-98559382D01*
X107551597Y-98527741D01*
X107546030Y-98512686D01*
X107541248Y-98510160D01*
X107537075Y-98510312D01*
X107531204Y-98511129D01*
X107521915Y-98513154D01*
X107507487Y-98516927D01*
X107486198Y-98522991D01*
X107456329Y-98531887D01*
X107416159Y-98544157D01*
X107363966Y-98560343D01*
X107298031Y-98580987D01*
X107216632Y-98606630D01*
X107118050Y-98637813D01*
X107000562Y-98675080D01*
X106862448Y-98718971D01*
X106701989Y-98770028D01*
X106517462Y-98828793D01*
X106307148Y-98895809D01*
X106069325Y-98971615D01*
X105802273Y-99056755D01*
X105577240Y-99128504D01*
X105256594Y-99230724D01*
X104966710Y-99323100D01*
X104706091Y-99406105D01*
X104473242Y-99480208D01*
X104266665Y-99545882D01*
X104084865Y-99603596D01*
X103926346Y-99653823D01*
X103789611Y-99697032D01*
X103673164Y-99733696D01*
X103575509Y-99764286D01*
X103495150Y-99789272D01*
X103430590Y-99809125D01*
X103380334Y-99824317D01*
X103342884Y-99835319D01*
X103316746Y-99842601D01*
X103300422Y-99846636D01*
X103292417Y-99847893D01*
X103292369Y-99847893D01*
X103264831Y-99838127D01*
X103229978Y-99815482D01*
X103188775Y-99783072D01*
X103244241Y-99765658D01*
X103273115Y-99756516D01*
X103330122Y-99738398D01*
X103411129Y-99712622D01*
X103512004Y-99680503D01*
X103628615Y-99643356D01*
X103756828Y-99602497D01*
X103866974Y-99567385D01*
X104011567Y-99521309D01*
X104156685Y-99475110D01*
X104296444Y-99430658D01*
X104424963Y-99389822D01*
X104536361Y-99354471D01*
X104624756Y-99326474D01*
X104662840Y-99314446D01*
X104736785Y-99291068D01*
X104836851Y-99259342D01*
X104956896Y-99221218D01*
X105090780Y-99178649D01*
X105232361Y-99133587D01*
X105375497Y-99087983D01*
X105433307Y-99069551D01*
X105671144Y-98993700D01*
X105879960Y-98927108D01*
X106063002Y-98868741D01*
X106223513Y-98817566D01*
X106364740Y-98772548D01*
X106489926Y-98732655D01*
X106602316Y-98696853D01*
X106705157Y-98664108D01*
X106801691Y-98633387D01*
X106895165Y-98603656D01*
X106988823Y-98573881D01*
X107085911Y-98543030D01*
X107189672Y-98510068D01*
X107253640Y-98489751D01*
X107382865Y-98448733D01*
X107502644Y-98410757D01*
X107608928Y-98377104D01*
X107697667Y-98349055D01*
X107764812Y-98327891D01*
X107806314Y-98314891D01*
X107817527Y-98311453D01*
X107829544Y-98309947D01*
X107837545Y-98317022D01*
X107841990Y-98337664D01*
X107843336Y-98376859D01*
X107925349Y-98376859D01*
X107924927Y-98307337D01*
X107922475Y-98246909D01*
X107918143Y-98219969D01*
X107917385Y-98218865D01*
X107894072Y-98217271D01*
X107839536Y-98227968D01*
G37*
X107839536Y-98227968D02*
X107753689Y-98250979D01*
X107636440Y-98286327D01*
X107581263Y-98303755D01*
X107482443Y-98335270D01*
X107358658Y-98374711D01*
X107217221Y-98419752D01*
X107065445Y-98468062D01*
X106910643Y-98517315D01*
X106760128Y-98565183D01*
X106720240Y-98577863D01*
X106576561Y-98623576D01*
X106430458Y-98670128D01*
X106288392Y-98715457D01*
X106156823Y-98757499D01*
X106042211Y-98794191D01*
X105951016Y-98823470D01*
X105924373Y-98832053D01*
X105870400Y-98849384D01*
X105787446Y-98875913D01*
X105678810Y-98910592D01*
X105547789Y-98952370D01*
X105397682Y-99000200D01*
X105231788Y-99053031D01*
X105053404Y-99109815D01*
X104865830Y-99169503D01*
X104672362Y-99231045D01*
X104476300Y-99293392D01*
X104280942Y-99355496D01*
X104089587Y-99416306D01*
X103905531Y-99474775D01*
X103732075Y-99529852D01*
X103572515Y-99580489D01*
X103430151Y-99625636D01*
X103308280Y-99664245D01*
X103274307Y-99674998D01*
X103187453Y-99704114D01*
X103119396Y-99730235D01*
X103074821Y-99751400D01*
X103058463Y-99765298D01*
X103068842Y-99787631D01*
X103099955Y-99819073D01*
X103124943Y-99838433D01*
X103161770Y-99867169D01*
X103180476Y-99887481D01*
X103179920Y-99893295D01*
X103158931Y-99899943D01*
X103111799Y-99914812D01*
X103044688Y-99935958D01*
X102963762Y-99961439D01*
X102927831Y-99972748D01*
X102843832Y-100000229D01*
X102772139Y-100025670D01*
X102718633Y-100046829D01*
X102689199Y-100061462D01*
X102685423Y-100065144D01*
X102694521Y-100084470D01*
X102724359Y-100114175D01*
X102749140Y-100133644D01*
X102789082Y-100165007D01*
X102814504Y-100189631D01*
X102819267Y-100197875D01*
X102804151Y-100207495D01*
X102762227Y-100224883D01*
X102699088Y-100247946D01*
X102620325Y-100274593D01*
X102577093Y-100288522D01*
X102469694Y-100324045D01*
X102394200Y-100352464D01*
X102349508Y-100374241D01*
X102334512Y-100389840D01*
X102334507Y-100390068D01*
X102334804Y-100401606D01*
X102337209Y-100410833D01*
X102343995Y-100417143D01*
X102357431Y-100419934D01*
X102379791Y-100418600D01*
X102413344Y-100412538D01*
X102460363Y-100401143D01*
X102523119Y-100383812D01*
X102603883Y-100359939D01*
X102704927Y-100328921D01*
X102828522Y-100290154D01*
X102976940Y-100243032D01*
X103152451Y-100186953D01*
X103357328Y-100121312D01*
X103418240Y-100101785D01*
X103650843Y-100027339D01*
X103369574Y-100027339D01*
X103369428Y-100029350D01*
X103350687Y-100037839D01*
X103307267Y-100053905D01*
X103246810Y-100075010D01*
X103176956Y-100098615D01*
X103105348Y-100122181D01*
X103039626Y-100143170D01*
X102987433Y-100159042D01*
X102956408Y-100167259D01*
X102952573Y-100167842D01*
X102923580Y-100158898D01*
X102884446Y-100134759D01*
X102876373Y-100128513D01*
X102845744Y-100100258D01*
X102841714Y-100084373D01*
X102850973Y-100078743D01*
X102876390Y-100070416D01*
X102926815Y-100054268D01*
X102994947Y-100032627D01*
X103073478Y-100007822D01*
X103270583Y-99945726D01*
X103323037Y-99984507D01*
X103354962Y-100010525D01*
X103369574Y-100027339D01*
X103650843Y-100027339D01*
X103747542Y-99996390D01*
X104101776Y-99883340D01*
X104482798Y-99762044D01*
X104892463Y-99631912D01*
X105331707Y-99492645D01*
X105412510Y-99467001D01*
X105519117Y-99433098D01*
X105645075Y-99392994D01*
X105783931Y-99348743D01*
X105929232Y-99302401D01*
X106074523Y-99256026D01*
X106127574Y-99239082D01*
X106329277Y-99174669D01*
X106501144Y-99119852D01*
X106645589Y-99073896D01*
X106765029Y-99036065D01*
X106861880Y-99005626D01*
X106938556Y-98981843D01*
X106997474Y-98963982D01*
X107041050Y-98951306D01*
X107071699Y-98943083D01*
X107091836Y-98938576D01*
X107103879Y-98937052D01*
X107110242Y-98937774D01*
X107112773Y-98939382D01*
X107114491Y-98957926D01*
X107115319Y-99006970D01*
X107115294Y-99083161D01*
X107114452Y-99183145D01*
X107112832Y-99303568D01*
X107110471Y-99441077D01*
X107107405Y-99592317D01*
X107103762Y-99750265D01*
X107092318Y-100224566D01*
X107081774Y-100672730D01*
X107072137Y-101094253D01*
X107063416Y-101488627D01*
X107055620Y-101855345D01*
X107048756Y-102193902D01*
X107042834Y-102503791D01*
X107037861Y-102784505D01*
X107033847Y-103035537D01*
X107030799Y-103256382D01*
X107028726Y-103446533D01*
X107027637Y-103605483D01*
X107027541Y-103732725D01*
X107028444Y-103827754D01*
X107030357Y-103890063D01*
X107033287Y-103919145D01*
X107034116Y-103921093D01*
X107063109Y-103944216D01*
X107088446Y-103935926D01*
X107089951Y-103934471D01*
X107093857Y-103914446D01*
X107097178Y-103866686D01*
X107099657Y-103797319D01*
X107101039Y-103712476D01*
X107101240Y-103663538D01*
X107101797Y-103574104D01*
X107103334Y-103497986D01*
X107105649Y-103440972D01*
X107108539Y-103408851D01*
X107110301Y-103403893D01*
X107126692Y-103413480D01*
X107164067Y-103439437D01*
X107216508Y-103477562D01*
X107265789Y-103514342D01*
X107326981Y-103558787D01*
X107379169Y-103593520D01*
X107416050Y-103614539D01*
X107430295Y-103618795D01*
X107438156Y-103599639D01*
X107445279Y-103549462D01*
X107451386Y-103471106D01*
X107456198Y-103367413D01*
X107456840Y-103348298D01*
X107465307Y-103083795D01*
X107623617Y-103203221D01*
X107702285Y-103260266D01*
X107757412Y-103294819D01*
X107790161Y-103307556D01*
X107799298Y-103305276D01*
X107803447Y-103284534D01*
X107807869Y-103231065D01*
X107812522Y-103146005D01*
X107817364Y-103030494D01*
X107822353Y-102885667D01*
X107827447Y-102712664D01*
X107832605Y-102512620D01*
X107837785Y-102286675D01*
X107839125Y-102224066D01*
X107847364Y-101834858D01*
X107854984Y-101477361D01*
X107862034Y-101149427D01*
X107868563Y-100848906D01*
X107874622Y-100573649D01*
X107880259Y-100321508D01*
X107885523Y-100090334D01*
X107890465Y-99877977D01*
X107895133Y-99682289D01*
X107899578Y-99501122D01*
X107903847Y-99332325D01*
X107907992Y-99173750D01*
X107912061Y-99023249D01*
X107915918Y-98885229D01*
X107920992Y-98690198D01*
X107924185Y-98528916D01*
X107925497Y-98401317D01*
X107925349Y-98376859D01*
X107843336Y-98376859D01*
X107842041Y-98439595D01*
X107838562Y-98530857D01*
X107838284Y-98537595D01*
X107836375Y-98592804D01*
X107833911Y-98678632D01*
X107830966Y-98791838D01*
X107827615Y-98929182D01*
X107823930Y-99087421D01*
X107819987Y-99263315D01*
X107815859Y-99453623D01*
X107811621Y-99655102D01*
X107807345Y-99864513D01*
X107803148Y-100076493D01*
X107798662Y-100303577D01*
X107793960Y-100535691D01*
X107789142Y-100768338D01*
X107784304Y-100997018D01*
X107779545Y-101217232D01*
X107774963Y-101424481D01*
X107770655Y-101614265D01*
X107766720Y-101782087D01*
X107763256Y-101923447D01*
X107761318Y-101998427D01*
X107757382Y-102154403D01*
X107753778Y-102312270D01*
X107750624Y-102465722D01*
X107748038Y-102608455D01*
X107746135Y-102734162D01*
X107745032Y-102836537D01*
X107744800Y-102888838D01*
X107744147Y-102981562D01*
X107742402Y-103062065D01*
X107739788Y-103124402D01*
X107736528Y-103162624D01*
X107734206Y-103171683D01*
X107717222Y-103166568D01*
X107679910Y-103144344D01*
X107628480Y-103108943D01*
X107590471Y-103080762D01*
X107504812Y-103015555D01*
X107372173Y-103015555D01*
X107372173Y-103489781D01*
X107316598Y-103451070D01*
X107270353Y-103418086D01*
X107213540Y-103376538D01*
X107182036Y-103353093D01*
X107103049Y-103293827D01*
X107112967Y-103065227D01*
X107116750Y-102981356D01*
X107120208Y-102910836D01*
X107123011Y-102859941D01*
X107124830Y-102834948D01*
X107125105Y-102833462D01*
X107138580Y-102841530D01*
X107172836Y-102865798D01*
X107221763Y-102901878D01*
X107249750Y-102922926D01*
X107372173Y-103015555D01*
X107504812Y-103015555D01*
X107457237Y-102979340D01*
X107466124Y-102806383D01*
X107467731Y-102764724D01*
X107469928Y-102691831D01*
X107472653Y-102590332D01*
X107475846Y-102462853D01*
X107479448Y-102312022D01*
X107483398Y-102140465D01*
X107487635Y-101950809D01*
X107492101Y-101745681D01*
X107496735Y-101527708D01*
X107501476Y-101299518D01*
X107506264Y-101063736D01*
X107507890Y-100982426D01*
X107512785Y-100738204D01*
X107517699Y-100496153D01*
X107522563Y-100259395D01*
X107527311Y-100031051D01*
X107531877Y-99814243D01*
X107536193Y-99612091D01*
X107540193Y-99427719D01*
X107543811Y-99264245D01*
X107546979Y-99124793D01*
X107549631Y-99012483D01*
X107551701Y-98930436D01*
X107551960Y-98920793D01*
X107555250Y-98788314D01*
X107556940Y-98686720D01*
X107470423Y-98686720D01*
X107470111Y-98767372D01*
X107468996Y-98876357D01*
X107467112Y-99011835D01*
X107464494Y-99171964D01*
X107461176Y-99354905D01*
X107457194Y-99558816D01*
X107452580Y-99781857D01*
X107447370Y-100022188D01*
X107441598Y-100277968D01*
X107435298Y-100547356D01*
X107428506Y-100828512D01*
X107423004Y-101050160D01*
X107418590Y-101231168D01*
X107413860Y-101434301D01*
X107409045Y-101648987D01*
X107404377Y-101864657D01*
X107400089Y-102070740D01*
X107396410Y-102256664D01*
X107395473Y-102306234D01*
X107383886Y-102927307D01*
X107251030Y-102826173D01*
X107184139Y-102772848D01*
X107142365Y-102733073D01*
X107121886Y-102702798D01*
X107118174Y-102685401D01*
X107118590Y-102660147D01*
X107119776Y-102604912D01*
X107121642Y-102523572D01*
X107124094Y-102420002D01*
X107127040Y-102298077D01*
X107130389Y-102161672D01*
X107134049Y-102014663D01*
X107135152Y-101970729D01*
X107137751Y-101865112D01*
X107140824Y-101736472D01*
X107144304Y-101587782D01*
X107148127Y-101422018D01*
X107152227Y-101242155D01*
X107156540Y-101051168D01*
X107161001Y-100852031D01*
X107165544Y-100647720D01*
X107170104Y-100441210D01*
X107174617Y-100235475D01*
X107179018Y-100033490D01*
X107183241Y-99838231D01*
X107187222Y-99652673D01*
X107190895Y-99479789D01*
X107194195Y-99322556D01*
X107197058Y-99183949D01*
X107199419Y-99066941D01*
X107201212Y-98974509D01*
X107202372Y-98909627D01*
X107202835Y-98875270D01*
X107202840Y-98873335D01*
X107193383Y-98839392D01*
X107175557Y-98831893D01*
X107154691Y-98836905D01*
X107104774Y-98851271D01*
X107028999Y-98873992D01*
X106930559Y-98904066D01*
X106812649Y-98940490D01*
X106678461Y-98982264D01*
X106531189Y-99028387D01*
X106374025Y-99077856D01*
X106210163Y-99129672D01*
X106042797Y-99182831D01*
X105875119Y-99236333D01*
X105710324Y-99289177D01*
X105551603Y-99340360D01*
X105475640Y-99364977D01*
X105400114Y-99389359D01*
X105298734Y-99421882D01*
X105177942Y-99460492D01*
X105044177Y-99503133D01*
X104903882Y-99547749D01*
X104763497Y-99592287D01*
X104730574Y-99602714D01*
X104581261Y-99650054D01*
X104421649Y-99700772D01*
X104260208Y-99752169D01*
X104105408Y-99801547D01*
X103965716Y-99846207D01*
X103849604Y-99883449D01*
X103846654Y-99884397D01*
X103479200Y-100002559D01*
X103427437Y-99964289D01*
X103397439Y-99937140D01*
X103386981Y-99917048D01*
X103388491Y-99913907D01*
X103406849Y-99906398D01*
X103454156Y-99889833D01*
X103527051Y-99865313D01*
X103622176Y-99833942D01*
X103736172Y-99796823D01*
X103865680Y-99755057D01*
X104007340Y-99709748D01*
X104104040Y-99679016D01*
X104270649Y-99626166D01*
X104443283Y-99571348D01*
X104615739Y-99516534D01*
X104781817Y-99463698D01*
X104935316Y-99414812D01*
X105070035Y-99371850D01*
X105179773Y-99336785D01*
X105196240Y-99331513D01*
X105312418Y-99294359D01*
X105452999Y-99249485D01*
X105610101Y-99199401D01*
X105775842Y-99146618D01*
X105942341Y-99093648D01*
X106101717Y-99043000D01*
X106152974Y-99026725D01*
X106306765Y-98977861D01*
X106469157Y-98926178D01*
X106632536Y-98874106D01*
X106789287Y-98824075D01*
X106931794Y-98778514D01*
X107052442Y-98739853D01*
X107089955Y-98727803D01*
X107195786Y-98694267D01*
X107290565Y-98665161D01*
X107369654Y-98641835D01*
X107428418Y-98625636D01*
X107462218Y-98617911D01*
X107468501Y-98617776D01*
X107469898Y-98636241D01*
X107470423Y-98686720D01*
X107556940Y-98686720D01*
X107556949Y-98686219D01*
X107556966Y-98611058D01*
X107555212Y-98559382D01*
X107551597Y-98527741D01*
X107546030Y-98512686D01*
X107541248Y-98510160D01*
X107537075Y-98510312D01*
X107531204Y-98511129D01*
X107521915Y-98513154D01*
X107507487Y-98516927D01*
X107486198Y-98522991D01*
X107456329Y-98531887D01*
X107416159Y-98544157D01*
X107363966Y-98560343D01*
X107298031Y-98580987D01*
X107216632Y-98606630D01*
X107118050Y-98637813D01*
X107000562Y-98675080D01*
X106862448Y-98718971D01*
X106701989Y-98770028D01*
X106517462Y-98828793D01*
X106307148Y-98895809D01*
X106069325Y-98971615D01*
X105802273Y-99056755D01*
X105577240Y-99128504D01*
X105256594Y-99230724D01*
X104966710Y-99323100D01*
X104706091Y-99406105D01*
X104473242Y-99480208D01*
X104266665Y-99545882D01*
X104084865Y-99603596D01*
X103926346Y-99653823D01*
X103789611Y-99697032D01*
X103673164Y-99733696D01*
X103575509Y-99764286D01*
X103495150Y-99789272D01*
X103430590Y-99809125D01*
X103380334Y-99824317D01*
X103342884Y-99835319D01*
X103316746Y-99842601D01*
X103300422Y-99846636D01*
X103292417Y-99847893D01*
X103292369Y-99847893D01*
X103264831Y-99838127D01*
X103229978Y-99815482D01*
X103188775Y-99783072D01*
X103244241Y-99765658D01*
X103273115Y-99756516D01*
X103330122Y-99738398D01*
X103411129Y-99712622D01*
X103512004Y-99680503D01*
X103628615Y-99643356D01*
X103756828Y-99602497D01*
X103866974Y-99567385D01*
X104011567Y-99521309D01*
X104156685Y-99475110D01*
X104296444Y-99430658D01*
X104424963Y-99389822D01*
X104536361Y-99354471D01*
X104624756Y-99326474D01*
X104662840Y-99314446D01*
X104736785Y-99291068D01*
X104836851Y-99259342D01*
X104956896Y-99221218D01*
X105090780Y-99178649D01*
X105232361Y-99133587D01*
X105375497Y-99087983D01*
X105433307Y-99069551D01*
X105671144Y-98993700D01*
X105879960Y-98927108D01*
X106063002Y-98868741D01*
X106223513Y-98817566D01*
X106364740Y-98772548D01*
X106489926Y-98732655D01*
X106602316Y-98696853D01*
X106705157Y-98664108D01*
X106801691Y-98633387D01*
X106895165Y-98603656D01*
X106988823Y-98573881D01*
X107085911Y-98543030D01*
X107189672Y-98510068D01*
X107253640Y-98489751D01*
X107382865Y-98448733D01*
X107502644Y-98410757D01*
X107608928Y-98377104D01*
X107697667Y-98349055D01*
X107764812Y-98327891D01*
X107806314Y-98314891D01*
X107817527Y-98311453D01*
X107829544Y-98309947D01*
X107837545Y-98317022D01*
X107841990Y-98337664D01*
X107843336Y-98376859D01*
X107925349Y-98376859D01*
X107924927Y-98307337D01*
X107922475Y-98246909D01*
X107918143Y-98219969D01*
X107917385Y-98218865D01*
X107894072Y-98217271D01*
X107839536Y-98227968D01*
G36*
X103840422Y-100684455D02*
G01*
X103828873Y-100686739D01*
X103787342Y-100696969D01*
X103761800Y-100705651D01*
X103761140Y-100706017D01*
X103748457Y-100726244D01*
X103758761Y-100760395D01*
X103793260Y-100810651D01*
X103853164Y-100879193D01*
X103862740Y-100889413D01*
X103917680Y-100948554D01*
X103986726Y-101024176D01*
X104061698Y-101107257D01*
X104134418Y-101188776D01*
X104146374Y-101202288D01*
X104250623Y-101320055D01*
X104337626Y-101417751D01*
X104412360Y-101500857D01*
X104479803Y-101574858D01*
X104544931Y-101645236D01*
X104612722Y-101717474D01*
X104645111Y-101751721D01*
X104698179Y-101809660D01*
X104739320Y-101858359D01*
X104764713Y-101893000D01*
X104770537Y-101908765D01*
X104769944Y-101909103D01*
X104754993Y-101907988D01*
X104725729Y-101897918D01*
X104679303Y-101877549D01*
X104612866Y-101845535D01*
X104523571Y-101800532D01*
X104408570Y-101741194D01*
X104353271Y-101712381D01*
X104275653Y-101672991D01*
X104218197Y-101647613D01*
X104171758Y-101633286D01*
X104127192Y-101627049D01*
X104086234Y-101625893D01*
X104014419Y-101630199D01*
X103959139Y-101645919D01*
X103916543Y-101669004D01*
X103882134Y-101693281D01*
X103863154Y-101716859D01*
X103860879Y-101744823D01*
X103876586Y-101782259D01*
X103911551Y-101834254D01*
X103967051Y-101905893D01*
X103980087Y-101922227D01*
X104088465Y-102057693D01*
X104029373Y-102062898D01*
X103982811Y-102060653D01*
X103918505Y-102049717D01*
X103853302Y-102033264D01*
X103790437Y-102015863D01*
X103736858Y-102003374D01*
X103703898Y-101998431D01*
X103703370Y-101998427D01*
X103672633Y-101986844D01*
X103632360Y-101957488D01*
X103612973Y-101939160D01*
X103573560Y-101904192D01*
X103538927Y-101882908D01*
X103527058Y-101879893D01*
X103489017Y-101894275D01*
X103467490Y-101928823D01*
X103468348Y-101962379D01*
X103472334Y-101983731D01*
X103459683Y-101988215D01*
X103423180Y-101978755D01*
X103363678Y-101971765D01*
X103309786Y-101984180D01*
X103272033Y-102012486D01*
X103262227Y-102032497D01*
X103252412Y-102055942D01*
X103235005Y-102063543D01*
X103203643Y-102054557D01*
X103151967Y-102028242D01*
X103132435Y-102017355D01*
X103052752Y-101978327D01*
X102976020Y-101951047D01*
X102909489Y-101937287D01*
X102860409Y-101938818D01*
X102843545Y-101946765D01*
X102821279Y-101979145D01*
X102817107Y-101998762D01*
X102827977Y-102020205D01*
X102858266Y-102062226D01*
X102904491Y-102120455D01*
X102963168Y-102190520D01*
X103030816Y-102268051D01*
X103038961Y-102277190D01*
X103106521Y-102353719D01*
X103164904Y-102421571D01*
X103210836Y-102476798D01*
X103241044Y-102515450D01*
X103252254Y-102533578D01*
X103252090Y-102534288D01*
X103234158Y-102531308D01*
X103191155Y-102517027D01*
X103129078Y-102493624D01*
X103053923Y-102463279D01*
X103034807Y-102455290D01*
X102951664Y-102421459D01*
X102874481Y-102392109D01*
X102811280Y-102370157D01*
X102770086Y-102358517D01*
X102766915Y-102357938D01*
X102707580Y-102348309D01*
X102734331Y-102389268D01*
X102757008Y-102408760D01*
X102804290Y-102439508D01*
X102870143Y-102478335D01*
X102948534Y-102522065D01*
X103033429Y-102567522D01*
X103118796Y-102611530D01*
X103198600Y-102650912D01*
X103266809Y-102682492D01*
X103317389Y-102703095D01*
X103342880Y-102709627D01*
X103375619Y-102697801D01*
X103397154Y-102679993D01*
X103422459Y-102639313D01*
X103429472Y-102587238D01*
X103428713Y-102567857D01*
X103416661Y-102543363D01*
X103385528Y-102501268D01*
X103340269Y-102447832D01*
X103294729Y-102398524D01*
X103226151Y-102325400D01*
X103162657Y-102254743D01*
X103108201Y-102191249D01*
X103066737Y-102139613D01*
X103042219Y-102104533D01*
X103037240Y-102092700D01*
X103050729Y-102093060D01*
X103087629Y-102108435D01*
X103142590Y-102135958D01*
X103210262Y-102172764D01*
X103285296Y-102215983D01*
X103362342Y-102262750D01*
X103404572Y-102289550D01*
X103475311Y-102334242D01*
X103524262Y-102361986D01*
X103557334Y-102375322D01*
X103580436Y-102376792D01*
X103595072Y-102371478D01*
X103623602Y-102339260D01*
X103627460Y-102291354D01*
X103606655Y-102235258D01*
X103594887Y-102216941D01*
X103575561Y-102182116D01*
X103578643Y-102167519D01*
X103599553Y-102172914D01*
X103633715Y-102198066D01*
X103656372Y-102220107D01*
X103700797Y-102262985D01*
X103745893Y-102300900D01*
X103752662Y-102305919D01*
X103802066Y-102330004D01*
X103839206Y-102327539D01*
X103861581Y-102304401D01*
X103866692Y-102266468D01*
X103852037Y-102219618D01*
X103815117Y-102169728D01*
X103811940Y-102166573D01*
X103782209Y-102134989D01*
X103778354Y-102123078D01*
X103790773Y-102125767D01*
X103904309Y-102164424D01*
X104002225Y-102188549D01*
X104079271Y-102197014D01*
X104111246Y-102194514D01*
X104163111Y-102176478D01*
X104209123Y-102146642D01*
X104241157Y-102112095D01*
X104251086Y-102079929D01*
X104249496Y-102073873D01*
X104233636Y-102034735D01*
X104229433Y-102024360D01*
X104231627Y-102013746D01*
X104254772Y-102016571D01*
X104302945Y-102033581D01*
X104322230Y-102041293D01*
X104421380Y-102072799D01*
X104507626Y-102082704D01*
X104576294Y-102070921D01*
X104614548Y-102046719D01*
X104644994Y-102022779D01*
X104670669Y-102023664D01*
X104682651Y-102030160D01*
X104719325Y-102044986D01*
X104771538Y-102057481D01*
X104787124Y-102059947D01*
X104835202Y-102063769D01*
X104866689Y-102054164D01*
X104897600Y-102024903D01*
X104907772Y-102013005D01*
X104936048Y-101982182D01*
X104962664Y-101965123D01*
X104998920Y-101957780D01*
X105056114Y-101956106D01*
X105066633Y-101956093D01*
X105127483Y-101954908D01*
X105164031Y-101949283D01*
X105185816Y-101936116D01*
X105188552Y-101932181D01*
X104442305Y-101932181D01*
X104420966Y-101928917D01*
X104371290Y-101909937D01*
X104292694Y-101875197D01*
X104214332Y-101838734D01*
X104119842Y-101792208D01*
X104056861Y-101756529D01*
X104024944Y-101731334D01*
X104023643Y-101716258D01*
X104052512Y-101710937D01*
X104057474Y-101710932D01*
X104112111Y-101722278D01*
X104185474Y-101753459D01*
X104271295Y-101801455D01*
X104342106Y-101848100D01*
X104402294Y-101891730D01*
X104435887Y-101919771D01*
X104442305Y-101932181D01*
X105188552Y-101932181D01*
X105202376Y-101912303D01*
X105202632Y-101911850D01*
X105215970Y-101869909D01*
X105211303Y-101839880D01*
X105064247Y-101839880D01*
X105052198Y-101844420D01*
X105024497Y-101838560D01*
X104982467Y-101823152D01*
X104926989Y-101796670D01*
X104891440Y-101777146D01*
X104812442Y-101721664D01*
X104762264Y-101662282D01*
X104738082Y-101602705D01*
X104735217Y-101567520D01*
X104748306Y-101558160D01*
X104776586Y-101569314D01*
X104821593Y-101598881D01*
X104876416Y-101641020D01*
X104934146Y-101689891D01*
X104987872Y-101739651D01*
X105030687Y-101784459D01*
X105055232Y-101817626D01*
X105064247Y-101839880D01*
X105211303Y-101839880D01*
X105208644Y-101822776D01*
X105178763Y-101766373D01*
X105124439Y-101696621D01*
X105080128Y-101647525D01*
X104983984Y-101554341D01*
X104897311Y-101491697D01*
X104817391Y-101458535D01*
X104741510Y-101453796D01*
X104666951Y-101476423D01*
X104655685Y-101482127D01*
X104578288Y-101523279D01*
X104286131Y-101191269D01*
X104177925Y-101068006D01*
X104090339Y-100967455D01*
X104021355Y-100887137D01*
X103968956Y-100824575D01*
X103931127Y-100777289D01*
X103905850Y-100742801D01*
X103891108Y-100718633D01*
X103884886Y-100702305D01*
X103884331Y-100697448D01*
X103874141Y-100683280D01*
X103840422Y-100684455D01*
G37*
X103840422Y-100684455D02*
X103828873Y-100686739D01*
X103787342Y-100696969D01*
X103761800Y-100705651D01*
X103761140Y-100706017D01*
X103748457Y-100726244D01*
X103758761Y-100760395D01*
X103793260Y-100810651D01*
X103853164Y-100879193D01*
X103862740Y-100889413D01*
X103917680Y-100948554D01*
X103986726Y-101024176D01*
X104061698Y-101107257D01*
X104134418Y-101188776D01*
X104146374Y-101202288D01*
X104250623Y-101320055D01*
X104337626Y-101417751D01*
X104412360Y-101500857D01*
X104479803Y-101574858D01*
X104544931Y-101645236D01*
X104612722Y-101717474D01*
X104645111Y-101751721D01*
X104698179Y-101809660D01*
X104739320Y-101858359D01*
X104764713Y-101893000D01*
X104770537Y-101908765D01*
X104769944Y-101909103D01*
X104754993Y-101907988D01*
X104725729Y-101897918D01*
X104679303Y-101877549D01*
X104612866Y-101845535D01*
X104523571Y-101800532D01*
X104408570Y-101741194D01*
X104353271Y-101712381D01*
X104275653Y-101672991D01*
X104218197Y-101647613D01*
X104171758Y-101633286D01*
X104127192Y-101627049D01*
X104086234Y-101625893D01*
X104014419Y-101630199D01*
X103959139Y-101645919D01*
X103916543Y-101669004D01*
X103882134Y-101693281D01*
X103863154Y-101716859D01*
X103860879Y-101744823D01*
X103876586Y-101782259D01*
X103911551Y-101834254D01*
X103967051Y-101905893D01*
X103980087Y-101922227D01*
X104088465Y-102057693D01*
X104029373Y-102062898D01*
X103982811Y-102060653D01*
X103918505Y-102049717D01*
X103853302Y-102033264D01*
X103790437Y-102015863D01*
X103736858Y-102003374D01*
X103703898Y-101998431D01*
X103703370Y-101998427D01*
X103672633Y-101986844D01*
X103632360Y-101957488D01*
X103612973Y-101939160D01*
X103573560Y-101904192D01*
X103538927Y-101882908D01*
X103527058Y-101879893D01*
X103489017Y-101894275D01*
X103467490Y-101928823D01*
X103468348Y-101962379D01*
X103472334Y-101983731D01*
X103459683Y-101988215D01*
X103423180Y-101978755D01*
X103363678Y-101971765D01*
X103309786Y-101984180D01*
X103272033Y-102012486D01*
X103262227Y-102032497D01*
X103252412Y-102055942D01*
X103235005Y-102063543D01*
X103203643Y-102054557D01*
X103151967Y-102028242D01*
X103132435Y-102017355D01*
X103052752Y-101978327D01*
X102976020Y-101951047D01*
X102909489Y-101937287D01*
X102860409Y-101938818D01*
X102843545Y-101946765D01*
X102821279Y-101979145D01*
X102817107Y-101998762D01*
X102827977Y-102020205D01*
X102858266Y-102062226D01*
X102904491Y-102120455D01*
X102963168Y-102190520D01*
X103030816Y-102268051D01*
X103038961Y-102277190D01*
X103106521Y-102353719D01*
X103164904Y-102421571D01*
X103210836Y-102476798D01*
X103241044Y-102515450D01*
X103252254Y-102533578D01*
X103252090Y-102534288D01*
X103234158Y-102531308D01*
X103191155Y-102517027D01*
X103129078Y-102493624D01*
X103053923Y-102463279D01*
X103034807Y-102455290D01*
X102951664Y-102421459D01*
X102874481Y-102392109D01*
X102811280Y-102370157D01*
X102770086Y-102358517D01*
X102766915Y-102357938D01*
X102707580Y-102348309D01*
X102734331Y-102389268D01*
X102757008Y-102408760D01*
X102804290Y-102439508D01*
X102870143Y-102478335D01*
X102948534Y-102522065D01*
X103033429Y-102567522D01*
X103118796Y-102611530D01*
X103198600Y-102650912D01*
X103266809Y-102682492D01*
X103317389Y-102703095D01*
X103342880Y-102709627D01*
X103375619Y-102697801D01*
X103397154Y-102679993D01*
X103422459Y-102639313D01*
X103429472Y-102587238D01*
X103428713Y-102567857D01*
X103416661Y-102543363D01*
X103385528Y-102501268D01*
X103340269Y-102447832D01*
X103294729Y-102398524D01*
X103226151Y-102325400D01*
X103162657Y-102254743D01*
X103108201Y-102191249D01*
X103066737Y-102139613D01*
X103042219Y-102104533D01*
X103037240Y-102092700D01*
X103050729Y-102093060D01*
X103087629Y-102108435D01*
X103142590Y-102135958D01*
X103210262Y-102172764D01*
X103285296Y-102215983D01*
X103362342Y-102262750D01*
X103404572Y-102289550D01*
X103475311Y-102334242D01*
X103524262Y-102361986D01*
X103557334Y-102375322D01*
X103580436Y-102376792D01*
X103595072Y-102371478D01*
X103623602Y-102339260D01*
X103627460Y-102291354D01*
X103606655Y-102235258D01*
X103594887Y-102216941D01*
X103575561Y-102182116D01*
X103578643Y-102167519D01*
X103599553Y-102172914D01*
X103633715Y-102198066D01*
X103656372Y-102220107D01*
X103700797Y-102262985D01*
X103745893Y-102300900D01*
X103752662Y-102305919D01*
X103802066Y-102330004D01*
X103839206Y-102327539D01*
X103861581Y-102304401D01*
X103866692Y-102266468D01*
X103852037Y-102219618D01*
X103815117Y-102169728D01*
X103811940Y-102166573D01*
X103782209Y-102134989D01*
X103778354Y-102123078D01*
X103790773Y-102125767D01*
X103904309Y-102164424D01*
X104002225Y-102188549D01*
X104079271Y-102197014D01*
X104111246Y-102194514D01*
X104163111Y-102176478D01*
X104209123Y-102146642D01*
X104241157Y-102112095D01*
X104251086Y-102079929D01*
X104249496Y-102073873D01*
X104233636Y-102034735D01*
X104229433Y-102024360D01*
X104231627Y-102013746D01*
X104254772Y-102016571D01*
X104302945Y-102033581D01*
X104322230Y-102041293D01*
X104421380Y-102072799D01*
X104507626Y-102082704D01*
X104576294Y-102070921D01*
X104614548Y-102046719D01*
X104644994Y-102022779D01*
X104670669Y-102023664D01*
X104682651Y-102030160D01*
X104719325Y-102044986D01*
X104771538Y-102057481D01*
X104787124Y-102059947D01*
X104835202Y-102063769D01*
X104866689Y-102054164D01*
X104897600Y-102024903D01*
X104907772Y-102013005D01*
X104936048Y-101982182D01*
X104962664Y-101965123D01*
X104998920Y-101957780D01*
X105056114Y-101956106D01*
X105066633Y-101956093D01*
X105127483Y-101954908D01*
X105164031Y-101949283D01*
X105185816Y-101936116D01*
X105188552Y-101932181D01*
X104442305Y-101932181D01*
X104420966Y-101928917D01*
X104371290Y-101909937D01*
X104292694Y-101875197D01*
X104214332Y-101838734D01*
X104119842Y-101792208D01*
X104056861Y-101756529D01*
X104024944Y-101731334D01*
X104023643Y-101716258D01*
X104052512Y-101710937D01*
X104057474Y-101710932D01*
X104112111Y-101722278D01*
X104185474Y-101753459D01*
X104271295Y-101801455D01*
X104342106Y-101848100D01*
X104402294Y-101891730D01*
X104435887Y-101919771D01*
X104442305Y-101932181D01*
X105188552Y-101932181D01*
X105202376Y-101912303D01*
X105202632Y-101911850D01*
X105215970Y-101869909D01*
X105211303Y-101839880D01*
X105064247Y-101839880D01*
X105052198Y-101844420D01*
X105024497Y-101838560D01*
X104982467Y-101823152D01*
X104926989Y-101796670D01*
X104891440Y-101777146D01*
X104812442Y-101721664D01*
X104762264Y-101662282D01*
X104738082Y-101602705D01*
X104735217Y-101567520D01*
X104748306Y-101558160D01*
X104776586Y-101569314D01*
X104821593Y-101598881D01*
X104876416Y-101641020D01*
X104934146Y-101689891D01*
X104987872Y-101739651D01*
X105030687Y-101784459D01*
X105055232Y-101817626D01*
X105064247Y-101839880D01*
X105211303Y-101839880D01*
X105208644Y-101822776D01*
X105178763Y-101766373D01*
X105124439Y-101696621D01*
X105080128Y-101647525D01*
X104983984Y-101554341D01*
X104897311Y-101491697D01*
X104817391Y-101458535D01*
X104741510Y-101453796D01*
X104666951Y-101476423D01*
X104655685Y-101482127D01*
X104578288Y-101523279D01*
X104286131Y-101191269D01*
X104177925Y-101068006D01*
X104090339Y-100967455D01*
X104021355Y-100887137D01*
X103968956Y-100824575D01*
X103931127Y-100777289D01*
X103905850Y-100742801D01*
X103891108Y-100718633D01*
X103884886Y-100702305D01*
X103884331Y-100697448D01*
X103874141Y-100683280D01*
X103840422Y-100684455D01*
G36*
X104721826Y-100312495D02*
G01*
X104678342Y-100325829D01*
X104654871Y-100348175D01*
X104651818Y-100383078D01*
X104669583Y-100434083D01*
X104708572Y-100504734D01*
X104751288Y-100571696D01*
X104802546Y-100649992D01*
X104854259Y-100730019D01*
X104899290Y-100800685D01*
X104922925Y-100838493D01*
X104958659Y-100895770D01*
X105005898Y-100970534D01*
X105057716Y-101051861D01*
X105094668Y-101109426D01*
X105137400Y-101177427D01*
X105172364Y-101236266D01*
X105195873Y-101279514D01*
X105204243Y-101300458D01*
X105200772Y-101316053D01*
X105184226Y-101327357D01*
X105146631Y-101338396D01*
X105114682Y-101345684D01*
X105078623Y-101361806D01*
X105072437Y-101384456D01*
X105094847Y-101412462D01*
X105148795Y-101430397D01*
X105232344Y-101437939D01*
X105302314Y-101439627D01*
X105459914Y-101680927D01*
X105591829Y-101882658D01*
X105706043Y-102056788D01*
X105803151Y-102204211D01*
X105883753Y-102325823D01*
X105948446Y-102422520D01*
X105997826Y-102495195D01*
X106032493Y-102544745D01*
X106053042Y-102572065D01*
X106058808Y-102578134D01*
X106090293Y-102589752D01*
X106110981Y-102570099D01*
X106114110Y-102562758D01*
X106111542Y-102533342D01*
X106093309Y-102481678D01*
X106062355Y-102413812D01*
X106021623Y-102335792D01*
X105974057Y-102253665D01*
X105929925Y-102184356D01*
X105897539Y-102134581D01*
X105874300Y-102096430D01*
X105865114Y-102077966D01*
X105865107Y-102077813D01*
X105856006Y-102061064D01*
X105831164Y-102022195D01*
X105794266Y-101966823D01*
X105749001Y-101900565D01*
X105744243Y-101893681D01*
X105688408Y-101810698D01*
X105631432Y-101722142D01*
X105580840Y-101639906D01*
X105550643Y-101587782D01*
X105516378Y-101524985D01*
X105497150Y-101485115D01*
X105491240Y-101461668D01*
X105496928Y-101448141D01*
X105511231Y-101438704D01*
X105541461Y-101432346D01*
X105603598Y-101427915D01*
X105695731Y-101425470D01*
X105815954Y-101425071D01*
X105913865Y-101426015D01*
X106283175Y-101431160D01*
X106365127Y-101498350D01*
X106407766Y-101535022D01*
X106467582Y-101588762D01*
X106537445Y-101653057D01*
X106610221Y-101721397D01*
X106629395Y-101739650D01*
X106708428Y-101813460D01*
X106768058Y-101864974D01*
X106811760Y-101896864D01*
X106843013Y-101911802D01*
X106855989Y-101913760D01*
X106923733Y-101899799D01*
X106973384Y-101860334D01*
X106983710Y-101844152D01*
X106989125Y-101827500D01*
X106984896Y-101808526D01*
X106967623Y-101782671D01*
X106933906Y-101745376D01*
X106880345Y-101692083D01*
X106844398Y-101657376D01*
X106783704Y-101597031D01*
X106738268Y-101547711D01*
X106711322Y-101513184D01*
X106706100Y-101497219D01*
X106706690Y-101496868D01*
X106746869Y-101472875D01*
X106784553Y-101440052D01*
X106809198Y-101408450D01*
X106813373Y-101395200D01*
X106796734Y-101368880D01*
X106747929Y-101344606D01*
X106668629Y-101322976D01*
X106560504Y-101304585D01*
X106558823Y-101304358D01*
X106506743Y-101296870D01*
X106464213Y-101288412D01*
X106425117Y-101276136D01*
X106383341Y-101257193D01*
X106378568Y-101254507D01*
X106034440Y-101254507D01*
X106018736Y-101260914D01*
X105976453Y-101267966D01*
X105914840Y-101274625D01*
X105869340Y-101278153D01*
X105795672Y-101283447D01*
X105733197Y-101288630D01*
X105690719Y-101292936D01*
X105678840Y-101294702D01*
X105650434Y-101297591D01*
X105598488Y-101300186D01*
X105533331Y-101301995D01*
X105521252Y-101302196D01*
X105453974Y-101302442D01*
X105410829Y-101298909D01*
X105382097Y-101288869D01*
X105358060Y-101269596D01*
X105341095Y-101251640D01*
X105312988Y-101214389D01*
X105275544Y-101155925D01*
X105234422Y-101085398D01*
X105207520Y-101035740D01*
X105161477Y-100949136D01*
X105110577Y-100855393D01*
X105063091Y-100769676D01*
X105044777Y-100737303D01*
X105010893Y-100676772D01*
X104984588Y-100627491D01*
X104969656Y-100596678D01*
X104967640Y-100590478D01*
X104981092Y-100590679D01*
X105018051Y-100606367D01*
X105073423Y-100634897D01*
X105142110Y-100673622D01*
X105219019Y-100719896D01*
X105230107Y-100726797D01*
X105300669Y-100770214D01*
X105381114Y-100818705D01*
X105441773Y-100854580D01*
X105500792Y-100890266D01*
X105572766Y-100935666D01*
X105652831Y-100987497D01*
X105736122Y-101042475D01*
X105817772Y-101097318D01*
X105892915Y-101148741D01*
X105956687Y-101193462D01*
X106004221Y-101228197D01*
X106030651Y-101249663D01*
X106034440Y-101254507D01*
X106378568Y-101254507D01*
X106332771Y-101228735D01*
X106267292Y-101187914D01*
X106180791Y-101131883D01*
X106161440Y-101119260D01*
X106020657Y-101029016D01*
X105873422Y-100937565D01*
X105724009Y-100847343D01*
X105576695Y-100760785D01*
X105435756Y-100680327D01*
X105305466Y-100608406D01*
X105190103Y-100547457D01*
X105093940Y-100499917D01*
X105021255Y-100468222D01*
X105013801Y-100465410D01*
X104953673Y-100436191D01*
X104889094Y-100394325D01*
X104856751Y-100368565D01*
X104810819Y-100330701D01*
X104777402Y-100312439D01*
X104745356Y-100309149D01*
X104721826Y-100312495D01*
G37*
X104721826Y-100312495D02*
X104678342Y-100325829D01*
X104654871Y-100348175D01*
X104651818Y-100383078D01*
X104669583Y-100434083D01*
X104708572Y-100504734D01*
X104751288Y-100571696D01*
X104802546Y-100649992D01*
X104854259Y-100730019D01*
X104899290Y-100800685D01*
X104922925Y-100838493D01*
X104958659Y-100895770D01*
X105005898Y-100970534D01*
X105057716Y-101051861D01*
X105094668Y-101109426D01*
X105137400Y-101177427D01*
X105172364Y-101236266D01*
X105195873Y-101279514D01*
X105204243Y-101300458D01*
X105200772Y-101316053D01*
X105184226Y-101327357D01*
X105146631Y-101338396D01*
X105114682Y-101345684D01*
X105078623Y-101361806D01*
X105072437Y-101384456D01*
X105094847Y-101412462D01*
X105148795Y-101430397D01*
X105232344Y-101437939D01*
X105302314Y-101439627D01*
X105459914Y-101680927D01*
X105591829Y-101882658D01*
X105706043Y-102056788D01*
X105803151Y-102204211D01*
X105883753Y-102325823D01*
X105948446Y-102422520D01*
X105997826Y-102495195D01*
X106032493Y-102544745D01*
X106053042Y-102572065D01*
X106058808Y-102578134D01*
X106090293Y-102589752D01*
X106110981Y-102570099D01*
X106114110Y-102562758D01*
X106111542Y-102533342D01*
X106093309Y-102481678D01*
X106062355Y-102413812D01*
X106021623Y-102335792D01*
X105974057Y-102253665D01*
X105929925Y-102184356D01*
X105897539Y-102134581D01*
X105874300Y-102096430D01*
X105865114Y-102077966D01*
X105865107Y-102077813D01*
X105856006Y-102061064D01*
X105831164Y-102022195D01*
X105794266Y-101966823D01*
X105749001Y-101900565D01*
X105744243Y-101893681D01*
X105688408Y-101810698D01*
X105631432Y-101722142D01*
X105580840Y-101639906D01*
X105550643Y-101587782D01*
X105516378Y-101524985D01*
X105497150Y-101485115D01*
X105491240Y-101461668D01*
X105496928Y-101448141D01*
X105511231Y-101438704D01*
X105541461Y-101432346D01*
X105603598Y-101427915D01*
X105695731Y-101425470D01*
X105815954Y-101425071D01*
X105913865Y-101426015D01*
X106283175Y-101431160D01*
X106365127Y-101498350D01*
X106407766Y-101535022D01*
X106467582Y-101588762D01*
X106537445Y-101653057D01*
X106610221Y-101721397D01*
X106629395Y-101739650D01*
X106708428Y-101813460D01*
X106768058Y-101864974D01*
X106811760Y-101896864D01*
X106843013Y-101911802D01*
X106855989Y-101913760D01*
X106923733Y-101899799D01*
X106973384Y-101860334D01*
X106983710Y-101844152D01*
X106989125Y-101827500D01*
X106984896Y-101808526D01*
X106967623Y-101782671D01*
X106933906Y-101745376D01*
X106880345Y-101692083D01*
X106844398Y-101657376D01*
X106783704Y-101597031D01*
X106738268Y-101547711D01*
X106711322Y-101513184D01*
X106706100Y-101497219D01*
X106706690Y-101496868D01*
X106746869Y-101472875D01*
X106784553Y-101440052D01*
X106809198Y-101408450D01*
X106813373Y-101395200D01*
X106796734Y-101368880D01*
X106747929Y-101344606D01*
X106668629Y-101322976D01*
X106560504Y-101304585D01*
X106558823Y-101304358D01*
X106506743Y-101296870D01*
X106464213Y-101288412D01*
X106425117Y-101276136D01*
X106383341Y-101257193D01*
X106378568Y-101254507D01*
X106034440Y-101254507D01*
X106018736Y-101260914D01*
X105976453Y-101267966D01*
X105914840Y-101274625D01*
X105869340Y-101278153D01*
X105795672Y-101283447D01*
X105733197Y-101288630D01*
X105690719Y-101292936D01*
X105678840Y-101294702D01*
X105650434Y-101297591D01*
X105598488Y-101300186D01*
X105533331Y-101301995D01*
X105521252Y-101302196D01*
X105453974Y-101302442D01*
X105410829Y-101298909D01*
X105382097Y-101288869D01*
X105358060Y-101269596D01*
X105341095Y-101251640D01*
X105312988Y-101214389D01*
X105275544Y-101155925D01*
X105234422Y-101085398D01*
X105207520Y-101035740D01*
X105161477Y-100949136D01*
X105110577Y-100855393D01*
X105063091Y-100769676D01*
X105044777Y-100737303D01*
X105010893Y-100676772D01*
X104984588Y-100627491D01*
X104969656Y-100596678D01*
X104967640Y-100590478D01*
X104981092Y-100590679D01*
X105018051Y-100606367D01*
X105073423Y-100634897D01*
X105142110Y-100673622D01*
X105219019Y-100719896D01*
X105230107Y-100726797D01*
X105300669Y-100770214D01*
X105381114Y-100818705D01*
X105441773Y-100854580D01*
X105500792Y-100890266D01*
X105572766Y-100935666D01*
X105652831Y-100987497D01*
X105736122Y-101042475D01*
X105817772Y-101097318D01*
X105892915Y-101148741D01*
X105956687Y-101193462D01*
X106004221Y-101228197D01*
X106030651Y-101249663D01*
X106034440Y-101254507D01*
X106378568Y-101254507D01*
X106332771Y-101228735D01*
X106267292Y-101187914D01*
X106180791Y-101131883D01*
X106161440Y-101119260D01*
X106020657Y-101029016D01*
X105873422Y-100937565D01*
X105724009Y-100847343D01*
X105576695Y-100760785D01*
X105435756Y-100680327D01*
X105305466Y-100608406D01*
X105190103Y-100547457D01*
X105093940Y-100499917D01*
X105021255Y-100468222D01*
X105013801Y-100465410D01*
X104953673Y-100436191D01*
X104889094Y-100394325D01*
X104856751Y-100368565D01*
X104810819Y-100330701D01*
X104777402Y-100312439D01*
X104745356Y-100309149D01*
X104721826Y-100312495D01*
D11*
X105728600Y-83641000D02*
G75*
G03*
X105728600Y-83641000I-700000J0D01*
G01*
X105322200Y-67664400D02*
G75*
G03*
X105322200Y-67664400I-700000J0D01*
G01*
X103239400Y-67639000D02*
G75*
G03*
X103239400Y-67639000I-700000J0D01*
G01*
X101104400Y-77413164D02*
X101104400Y-77628836D01*
X100384400Y-77413164D02*
X100384400Y-77628836D01*
X113860000Y-57395000D02*
X112530000Y-57395000D01*
X113860000Y-58725000D02*
X113860000Y-57395000D01*
X113860000Y-59995000D02*
X111200000Y-59995000D01*
X111200000Y-59995000D02*
X111200000Y-108315000D01*
X113860000Y-59995000D02*
X113860000Y-108315000D01*
X113860000Y-108315000D02*
X111200000Y-108315000D01*
X93420000Y-108315000D02*
X94750000Y-108315000D01*
X93420000Y-106985000D02*
X93420000Y-108315000D01*
X93420000Y-105715000D02*
X96080000Y-105715000D01*
X93420000Y-105715000D02*
X93420000Y-57395000D01*
X93420000Y-105715000D02*
X93420000Y-57395000D01*
X93420000Y-57395000D02*
X96080000Y-57395000D01*
%LPC*%
D13*
X101345600Y-83412400D03*
D14*
X100760000Y-63175000D03*
X106540000Y-63175000D03*
D15*
X107970000Y-63705000D03*
X99330000Y-63705000D03*
D16*
X107970000Y-59525000D03*
X99330000Y-59525000D03*
D13*
X105028600Y-83641000D03*
X104622200Y-67664400D03*
X102539400Y-67639000D03*
G36*
G01*
X100548900Y-76710000D02*
X100939900Y-76710000D01*
G75*
G02*
X101105400Y-76875500I0J-165500D01*
G01*
X101105400Y-77206500D01*
G75*
G02*
X100939900Y-77372000I-165500J0D01*
G01*
X100548900Y-77372000D01*
G75*
G02*
X100383400Y-77206500I0J165500D01*
G01*
X100383400Y-76875500D01*
G75*
G02*
X100548900Y-76710000I165500J0D01*
G01*
G37*
G36*
G01*
X100548900Y-77670000D02*
X100939900Y-77670000D01*
G75*
G02*
X101105400Y-77835500I0J-165500D01*
G01*
X101105400Y-78166500D01*
G75*
G02*
X100939900Y-78332000I-165500J0D01*
G01*
X100548900Y-78332000D01*
G75*
G02*
X100383400Y-78166500I0J165500D01*
G01*
X100383400Y-77835500D01*
G75*
G02*
X100548900Y-77670000I165500J0D01*
G01*
G37*
D17*
X112550000Y-106985000D03*
X112550000Y-104445000D03*
G36*
G01*
X113451000Y-101055000D02*
X113451000Y-102755000D01*
G75*
G02*
X113400000Y-102806000I-51000J0D01*
G01*
X111700000Y-102806000D01*
G75*
G02*
X111649000Y-102755000I0J51000D01*
G01*
X111649000Y-101055000D01*
G75*
G02*
X111700000Y-101004000I51000J0D01*
G01*
X113400000Y-101004000D01*
G75*
G02*
X113451000Y-101055000I0J-51000D01*
G01*
G37*
X112550000Y-99365000D03*
X112550000Y-96825000D03*
X112550000Y-94285000D03*
X112550000Y-91745000D03*
G36*
G01*
X113451000Y-88355000D02*
X113451000Y-90055000D01*
G75*
G02*
X113400000Y-90106000I-51000J0D01*
G01*
X111700000Y-90106000D01*
G75*
G02*
X111649000Y-90055000I0J51000D01*
G01*
X111649000Y-88355000D01*
G75*
G02*
X111700000Y-88304000I51000J0D01*
G01*
X113400000Y-88304000D01*
G75*
G02*
X113451000Y-88355000I0J-51000D01*
G01*
G37*
X112550000Y-86665000D03*
X112550000Y-84125000D03*
X112550000Y-81585000D03*
X112550000Y-79045000D03*
G36*
G01*
X113451000Y-75655000D02*
X113451000Y-77355000D01*
G75*
G02*
X113400000Y-77406000I-51000J0D01*
G01*
X111700000Y-77406000D01*
G75*
G02*
X111649000Y-77355000I0J51000D01*
G01*
X111649000Y-75655000D01*
G75*
G02*
X111700000Y-75604000I51000J0D01*
G01*
X113400000Y-75604000D01*
G75*
G02*
X113451000Y-75655000I0J-51000D01*
G01*
G37*
X112550000Y-73965000D03*
X112550000Y-71425000D03*
X112550000Y-68885000D03*
X112550000Y-66345000D03*
G36*
G01*
X113451000Y-62955000D02*
X113451000Y-64655000D01*
G75*
G02*
X113400000Y-64706000I-51000J0D01*
G01*
X111700000Y-64706000D01*
G75*
G02*
X111649000Y-64655000I0J51000D01*
G01*
X111649000Y-62955000D01*
G75*
G02*
X111700000Y-62904000I51000J0D01*
G01*
X113400000Y-62904000D01*
G75*
G02*
X113451000Y-62955000I0J-51000D01*
G01*
G37*
X112550000Y-61265000D03*
G36*
G01*
X113451000Y-57875000D02*
X113451000Y-59575000D01*
G75*
G02*
X113400000Y-59626000I-51000J0D01*
G01*
X111700000Y-59626000D01*
G75*
G02*
X111649000Y-59575000I0J51000D01*
G01*
X111649000Y-57875000D01*
G75*
G02*
X111700000Y-57824000I51000J0D01*
G01*
X113400000Y-57824000D01*
G75*
G02*
X113451000Y-57875000I0J-51000D01*
G01*
G37*
G36*
G01*
X116051000Y-98515000D02*
X116051000Y-100215000D01*
G75*
G02*
X116000000Y-100266000I-51000J0D01*
G01*
X112500000Y-100266000D01*
G75*
G02*
X112449000Y-100215000I0J51000D01*
G01*
X112449000Y-98515000D01*
G75*
G02*
X112500000Y-98464000I51000J0D01*
G01*
X116000000Y-98464000D01*
G75*
G02*
X116051000Y-98515000I0J-51000D01*
G01*
G37*
G36*
G01*
X116051000Y-101055000D02*
X116051000Y-102755000D01*
G75*
G02*
X116000000Y-102806000I-51000J0D01*
G01*
X112500000Y-102806000D01*
G75*
G02*
X112449000Y-102755000I0J51000D01*
G01*
X112449000Y-101055000D01*
G75*
G02*
X112500000Y-101004000I51000J0D01*
G01*
X116000000Y-101004000D01*
G75*
G02*
X116051000Y-101055000I0J-51000D01*
G01*
G37*
G36*
G01*
X116051000Y-95975000D02*
X116051000Y-97675000D01*
G75*
G02*
X116000000Y-97726000I-51000J0D01*
G01*
X112500000Y-97726000D01*
G75*
G02*
X112449000Y-97675000I0J51000D01*
G01*
X112449000Y-95975000D01*
G75*
G02*
X112500000Y-95924000I51000J0D01*
G01*
X116000000Y-95924000D01*
G75*
G02*
X116051000Y-95975000I0J-51000D01*
G01*
G37*
G36*
G01*
X116051000Y-103595000D02*
X116051000Y-105295000D01*
G75*
G02*
X116000000Y-105346000I-51000J0D01*
G01*
X112500000Y-105346000D01*
G75*
G02*
X112449000Y-105295000I0J51000D01*
G01*
X112449000Y-103595000D01*
G75*
G02*
X112500000Y-103544000I51000J0D01*
G01*
X116000000Y-103544000D01*
G75*
G02*
X116051000Y-103595000I0J-51000D01*
G01*
G37*
G36*
G01*
X116051000Y-93435000D02*
X116051000Y-95135000D01*
G75*
G02*
X116000000Y-95186000I-51000J0D01*
G01*
X112500000Y-95186000D01*
G75*
G02*
X112449000Y-95135000I0J51000D01*
G01*
X112449000Y-93435000D01*
G75*
G02*
X112500000Y-93384000I51000J0D01*
G01*
X116000000Y-93384000D01*
G75*
G02*
X116051000Y-93435000I0J-51000D01*
G01*
G37*
G36*
G01*
X116051000Y-106135000D02*
X116051000Y-107835000D01*
G75*
G02*
X116000000Y-107886000I-51000J0D01*
G01*
X112500000Y-107886000D01*
G75*
G02*
X112449000Y-107835000I0J51000D01*
G01*
X112449000Y-106135000D01*
G75*
G02*
X112500000Y-106084000I51000J0D01*
G01*
X116000000Y-106084000D01*
G75*
G02*
X116051000Y-106135000I0J-51000D01*
G01*
G37*
G36*
G01*
X116051000Y-85815000D02*
X116051000Y-87515000D01*
G75*
G02*
X116000000Y-87566000I-51000J0D01*
G01*
X112500000Y-87566000D01*
G75*
G02*
X112449000Y-87515000I0J51000D01*
G01*
X112449000Y-85815000D01*
G75*
G02*
X112500000Y-85764000I51000J0D01*
G01*
X116000000Y-85764000D01*
G75*
G02*
X116051000Y-85815000I0J-51000D01*
G01*
G37*
G36*
G01*
X116051000Y-90895000D02*
X116051000Y-92595000D01*
G75*
G02*
X116000000Y-92646000I-51000J0D01*
G01*
X112500000Y-92646000D01*
G75*
G02*
X112449000Y-92595000I0J51000D01*
G01*
X112449000Y-90895000D01*
G75*
G02*
X112500000Y-90844000I51000J0D01*
G01*
X116000000Y-90844000D01*
G75*
G02*
X116051000Y-90895000I0J-51000D01*
G01*
G37*
G36*
G01*
X116051000Y-83275000D02*
X116051000Y-84975000D01*
G75*
G02*
X116000000Y-85026000I-51000J0D01*
G01*
X112500000Y-85026000D01*
G75*
G02*
X112449000Y-84975000I0J51000D01*
G01*
X112449000Y-83275000D01*
G75*
G02*
X112500000Y-83224000I51000J0D01*
G01*
X116000000Y-83224000D01*
G75*
G02*
X116051000Y-83275000I0J-51000D01*
G01*
G37*
G36*
G01*
X116051000Y-73115000D02*
X116051000Y-74815000D01*
G75*
G02*
X116000000Y-74866000I-51000J0D01*
G01*
X112500000Y-74866000D01*
G75*
G02*
X112449000Y-74815000I0J51000D01*
G01*
X112449000Y-73115000D01*
G75*
G02*
X112500000Y-73064000I51000J0D01*
G01*
X116000000Y-73064000D01*
G75*
G02*
X116051000Y-73115000I0J-51000D01*
G01*
G37*
G36*
G01*
X116051000Y-70575000D02*
X116051000Y-72275000D01*
G75*
G02*
X116000000Y-72326000I-51000J0D01*
G01*
X112500000Y-72326000D01*
G75*
G02*
X112449000Y-72275000I0J51000D01*
G01*
X112449000Y-70575000D01*
G75*
G02*
X112500000Y-70524000I51000J0D01*
G01*
X116000000Y-70524000D01*
G75*
G02*
X116051000Y-70575000I0J-51000D01*
G01*
G37*
G36*
G01*
X116051000Y-68035000D02*
X116051000Y-69735000D01*
G75*
G02*
X116000000Y-69786000I-51000J0D01*
G01*
X112500000Y-69786000D01*
G75*
G02*
X112449000Y-69735000I0J51000D01*
G01*
X112449000Y-68035000D01*
G75*
G02*
X112500000Y-67984000I51000J0D01*
G01*
X116000000Y-67984000D01*
G75*
G02*
X116051000Y-68035000I0J-51000D01*
G01*
G37*
G36*
G01*
X116051000Y-60415000D02*
X116051000Y-62115000D01*
G75*
G02*
X116000000Y-62166000I-51000J0D01*
G01*
X112500000Y-62166000D01*
G75*
G02*
X112449000Y-62115000I0J51000D01*
G01*
X112449000Y-60415000D01*
G75*
G02*
X112500000Y-60364000I51000J0D01*
G01*
X116000000Y-60364000D01*
G75*
G02*
X116051000Y-60415000I0J-51000D01*
G01*
G37*
G36*
G01*
X116051000Y-88355000D02*
X116051000Y-90055000D01*
G75*
G02*
X116000000Y-90106000I-51000J0D01*
G01*
X112500000Y-90106000D01*
G75*
G02*
X112449000Y-90055000I0J51000D01*
G01*
X112449000Y-88355000D01*
G75*
G02*
X112500000Y-88304000I51000J0D01*
G01*
X116000000Y-88304000D01*
G75*
G02*
X116051000Y-88355000I0J-51000D01*
G01*
G37*
G36*
G01*
X116051000Y-75655000D02*
X116051000Y-77355000D01*
G75*
G02*
X116000000Y-77406000I-51000J0D01*
G01*
X112500000Y-77406000D01*
G75*
G02*
X112449000Y-77355000I0J51000D01*
G01*
X112449000Y-75655000D01*
G75*
G02*
X112500000Y-75604000I51000J0D01*
G01*
X116000000Y-75604000D01*
G75*
G02*
X116051000Y-75655000I0J-51000D01*
G01*
G37*
G36*
G01*
X116051000Y-62955000D02*
X116051000Y-64655000D01*
G75*
G02*
X116000000Y-64706000I-51000J0D01*
G01*
X112500000Y-64706000D01*
G75*
G02*
X112449000Y-64655000I0J51000D01*
G01*
X112449000Y-62955000D01*
G75*
G02*
X112500000Y-62904000I51000J0D01*
G01*
X116000000Y-62904000D01*
G75*
G02*
X116051000Y-62955000I0J-51000D01*
G01*
G37*
G36*
G01*
X116051000Y-57875000D02*
X116051000Y-59575000D01*
G75*
G02*
X116000000Y-59626000I-51000J0D01*
G01*
X112500000Y-59626000D01*
G75*
G02*
X112449000Y-59575000I0J51000D01*
G01*
X112449000Y-57875000D01*
G75*
G02*
X112500000Y-57824000I51000J0D01*
G01*
X116000000Y-57824000D01*
G75*
G02*
X116051000Y-57875000I0J-51000D01*
G01*
G37*
G36*
G01*
X116051000Y-78195000D02*
X116051000Y-79895000D01*
G75*
G02*
X116000000Y-79946000I-51000J0D01*
G01*
X112500000Y-79946000D01*
G75*
G02*
X112449000Y-79895000I0J51000D01*
G01*
X112449000Y-78195000D01*
G75*
G02*
X112500000Y-78144000I51000J0D01*
G01*
X116000000Y-78144000D01*
G75*
G02*
X116051000Y-78195000I0J-51000D01*
G01*
G37*
G36*
G01*
X116051000Y-65495000D02*
X116051000Y-67195000D01*
G75*
G02*
X116000000Y-67246000I-51000J0D01*
G01*
X112500000Y-67246000D01*
G75*
G02*
X112449000Y-67195000I0J51000D01*
G01*
X112449000Y-65495000D01*
G75*
G02*
X112500000Y-65444000I51000J0D01*
G01*
X116000000Y-65444000D01*
G75*
G02*
X116051000Y-65495000I0J-51000D01*
G01*
G37*
G36*
G01*
X116051000Y-80735000D02*
X116051000Y-82435000D01*
G75*
G02*
X116000000Y-82486000I-51000J0D01*
G01*
X112500000Y-82486000D01*
G75*
G02*
X112449000Y-82435000I0J51000D01*
G01*
X112449000Y-80735000D01*
G75*
G02*
X112500000Y-80684000I51000J0D01*
G01*
X116000000Y-80684000D01*
G75*
G02*
X116051000Y-80735000I0J-51000D01*
G01*
G37*
X94750000Y-58725000D03*
X94750000Y-61265000D03*
G36*
G01*
X93849000Y-64655000D02*
X93849000Y-62955000D01*
G75*
G02*
X93900000Y-62904000I51000J0D01*
G01*
X95600000Y-62904000D01*
G75*
G02*
X95651000Y-62955000I0J-51000D01*
G01*
X95651000Y-64655000D01*
G75*
G02*
X95600000Y-64706000I-51000J0D01*
G01*
X93900000Y-64706000D01*
G75*
G02*
X93849000Y-64655000I0J51000D01*
G01*
G37*
X94750000Y-66345000D03*
X94750000Y-68885000D03*
X94750000Y-71425000D03*
X94750000Y-73965000D03*
G36*
G01*
X93849000Y-77355000D02*
X93849000Y-75655000D01*
G75*
G02*
X93900000Y-75604000I51000J0D01*
G01*
X95600000Y-75604000D01*
G75*
G02*
X95651000Y-75655000I0J-51000D01*
G01*
X95651000Y-77355000D01*
G75*
G02*
X95600000Y-77406000I-51000J0D01*
G01*
X93900000Y-77406000D01*
G75*
G02*
X93849000Y-77355000I0J51000D01*
G01*
G37*
X94750000Y-79045000D03*
X94750000Y-81585000D03*
X94750000Y-84125000D03*
X94750000Y-86665000D03*
G36*
G01*
X93849000Y-90055000D02*
X93849000Y-88355000D01*
G75*
G02*
X93900000Y-88304000I51000J0D01*
G01*
X95600000Y-88304000D01*
G75*
G02*
X95651000Y-88355000I0J-51000D01*
G01*
X95651000Y-90055000D01*
G75*
G02*
X95600000Y-90106000I-51000J0D01*
G01*
X93900000Y-90106000D01*
G75*
G02*
X93849000Y-90055000I0J51000D01*
G01*
G37*
X94750000Y-91745000D03*
X94750000Y-94285000D03*
X94750000Y-96825000D03*
X94750000Y-99365000D03*
G36*
G01*
X93849000Y-102755000D02*
X93849000Y-101055000D01*
G75*
G02*
X93900000Y-101004000I51000J0D01*
G01*
X95600000Y-101004000D01*
G75*
G02*
X95651000Y-101055000I0J-51000D01*
G01*
X95651000Y-102755000D01*
G75*
G02*
X95600000Y-102806000I-51000J0D01*
G01*
X93900000Y-102806000D01*
G75*
G02*
X93849000Y-102755000I0J51000D01*
G01*
G37*
X94750000Y-104445000D03*
D18*
X94750000Y-106985000D03*
G36*
G01*
X91249000Y-105295000D02*
X91249000Y-103595000D01*
G75*
G02*
X91300000Y-103544000I51000J0D01*
G01*
X94800000Y-103544000D01*
G75*
G02*
X94851000Y-103595000I0J-51000D01*
G01*
X94851000Y-105295000D01*
G75*
G02*
X94800000Y-105346000I-51000J0D01*
G01*
X91300000Y-105346000D01*
G75*
G02*
X91249000Y-105295000I0J51000D01*
G01*
G37*
G36*
G01*
X91249000Y-74815000D02*
X91249000Y-73115000D01*
G75*
G02*
X91300000Y-73064000I51000J0D01*
G01*
X94800000Y-73064000D01*
G75*
G02*
X94851000Y-73115000I0J-51000D01*
G01*
X94851000Y-74815000D01*
G75*
G02*
X94800000Y-74866000I-51000J0D01*
G01*
X91300000Y-74866000D01*
G75*
G02*
X91249000Y-74815000I0J51000D01*
G01*
G37*
G36*
G01*
X91249000Y-100215000D02*
X91249000Y-98515000D01*
G75*
G02*
X91300000Y-98464000I51000J0D01*
G01*
X94800000Y-98464000D01*
G75*
G02*
X94851000Y-98515000I0J-51000D01*
G01*
X94851000Y-100215000D01*
G75*
G02*
X94800000Y-100266000I-51000J0D01*
G01*
X91300000Y-100266000D01*
G75*
G02*
X91249000Y-100215000I0J51000D01*
G01*
G37*
G36*
G01*
X91249000Y-95135000D02*
X91249000Y-93435000D01*
G75*
G02*
X91300000Y-93384000I51000J0D01*
G01*
X94800000Y-93384000D01*
G75*
G02*
X94851000Y-93435000I0J-51000D01*
G01*
X94851000Y-95135000D01*
G75*
G02*
X94800000Y-95186000I-51000J0D01*
G01*
X91300000Y-95186000D01*
G75*
G02*
X91249000Y-95135000I0J51000D01*
G01*
G37*
G36*
G01*
X91249000Y-90055000D02*
X91249000Y-88355000D01*
G75*
G02*
X91300000Y-88304000I51000J0D01*
G01*
X94800000Y-88304000D01*
G75*
G02*
X94851000Y-88355000I0J-51000D01*
G01*
X94851000Y-90055000D01*
G75*
G02*
X94800000Y-90106000I-51000J0D01*
G01*
X91300000Y-90106000D01*
G75*
G02*
X91249000Y-90055000I0J51000D01*
G01*
G37*
G36*
G01*
X91249000Y-87515000D02*
X91249000Y-85815000D01*
G75*
G02*
X91300000Y-85764000I51000J0D01*
G01*
X94800000Y-85764000D01*
G75*
G02*
X94851000Y-85815000I0J-51000D01*
G01*
X94851000Y-87515000D01*
G75*
G02*
X94800000Y-87566000I-51000J0D01*
G01*
X91300000Y-87566000D01*
G75*
G02*
X91249000Y-87515000I0J51000D01*
G01*
G37*
G36*
G01*
X91249000Y-72275000D02*
X91249000Y-70575000D01*
G75*
G02*
X91300000Y-70524000I51000J0D01*
G01*
X94800000Y-70524000D01*
G75*
G02*
X94851000Y-70575000I0J-51000D01*
G01*
X94851000Y-72275000D01*
G75*
G02*
X94800000Y-72326000I-51000J0D01*
G01*
X91300000Y-72326000D01*
G75*
G02*
X91249000Y-72275000I0J51000D01*
G01*
G37*
G36*
G01*
X91259000Y-79895000D02*
X91259000Y-78195000D01*
G75*
G02*
X91310000Y-78144000I51000J0D01*
G01*
X94810000Y-78144000D01*
G75*
G02*
X94861000Y-78195000I0J-51000D01*
G01*
X94861000Y-79895000D01*
G75*
G02*
X94810000Y-79946000I-51000J0D01*
G01*
X91310000Y-79946000D01*
G75*
G02*
X91259000Y-79895000I0J51000D01*
G01*
G37*
G36*
G01*
X91249000Y-69735000D02*
X91249000Y-68035000D01*
G75*
G02*
X91300000Y-67984000I51000J0D01*
G01*
X94800000Y-67984000D01*
G75*
G02*
X94851000Y-68035000I0J-51000D01*
G01*
X94851000Y-69735000D01*
G75*
G02*
X94800000Y-69786000I-51000J0D01*
G01*
X91300000Y-69786000D01*
G75*
G02*
X91249000Y-69735000I0J51000D01*
G01*
G37*
G36*
G01*
X91249000Y-62105000D02*
X91249000Y-60405000D01*
G75*
G02*
X91300000Y-60354000I51000J0D01*
G01*
X94800000Y-60354000D01*
G75*
G02*
X94851000Y-60405000I0J-51000D01*
G01*
X94851000Y-62105000D01*
G75*
G02*
X94800000Y-62156000I-51000J0D01*
G01*
X91300000Y-62156000D01*
G75*
G02*
X91249000Y-62105000I0J51000D01*
G01*
G37*
G36*
G01*
X91249000Y-67185000D02*
X91249000Y-65485000D01*
G75*
G02*
X91300000Y-65434000I51000J0D01*
G01*
X94800000Y-65434000D01*
G75*
G02*
X94851000Y-65485000I0J-51000D01*
G01*
X94851000Y-67185000D01*
G75*
G02*
X94800000Y-67236000I-51000J0D01*
G01*
X91300000Y-67236000D01*
G75*
G02*
X91249000Y-67185000I0J51000D01*
G01*
G37*
G36*
G01*
X91239000Y-92595000D02*
X91239000Y-90895000D01*
G75*
G02*
X91290000Y-90844000I51000J0D01*
G01*
X94790000Y-90844000D01*
G75*
G02*
X94841000Y-90895000I0J-51000D01*
G01*
X94841000Y-92595000D01*
G75*
G02*
X94790000Y-92646000I-51000J0D01*
G01*
X91290000Y-92646000D01*
G75*
G02*
X91239000Y-92595000I0J51000D01*
G01*
G37*
G36*
G01*
X91249000Y-97675000D02*
X91249000Y-95975000D01*
G75*
G02*
X91300000Y-95924000I51000J0D01*
G01*
X94800000Y-95924000D01*
G75*
G02*
X94851000Y-95975000I0J-51000D01*
G01*
X94851000Y-97675000D01*
G75*
G02*
X94800000Y-97726000I-51000J0D01*
G01*
X91300000Y-97726000D01*
G75*
G02*
X91249000Y-97675000I0J51000D01*
G01*
G37*
G36*
G01*
X91249000Y-82435000D02*
X91249000Y-80735000D01*
G75*
G02*
X91300000Y-80684000I51000J0D01*
G01*
X94800000Y-80684000D01*
G75*
G02*
X94851000Y-80735000I0J-51000D01*
G01*
X94851000Y-82435000D01*
G75*
G02*
X94800000Y-82486000I-51000J0D01*
G01*
X91300000Y-82486000D01*
G75*
G02*
X91249000Y-82435000I0J51000D01*
G01*
G37*
G36*
G01*
X91249000Y-77355000D02*
X91249000Y-75655000D01*
G75*
G02*
X91300000Y-75604000I51000J0D01*
G01*
X94800000Y-75604000D01*
G75*
G02*
X94851000Y-75655000I0J-51000D01*
G01*
X94851000Y-77355000D01*
G75*
G02*
X94800000Y-77406000I-51000J0D01*
G01*
X91300000Y-77406000D01*
G75*
G02*
X91249000Y-77355000I0J51000D01*
G01*
G37*
G36*
G01*
X91249000Y-107835000D02*
X91249000Y-106135000D01*
G75*
G02*
X91300000Y-106084000I51000J0D01*
G01*
X94800000Y-106084000D01*
G75*
G02*
X94851000Y-106135000I0J-51000D01*
G01*
X94851000Y-107835000D01*
G75*
G02*
X94800000Y-107886000I-51000J0D01*
G01*
X91300000Y-107886000D01*
G75*
G02*
X91249000Y-107835000I0J51000D01*
G01*
G37*
G36*
G01*
X91249000Y-84975000D02*
X91249000Y-83275000D01*
G75*
G02*
X91300000Y-83224000I51000J0D01*
G01*
X94800000Y-83224000D01*
G75*
G02*
X94851000Y-83275000I0J-51000D01*
G01*
X94851000Y-84975000D01*
G75*
G02*
X94800000Y-85026000I-51000J0D01*
G01*
X91300000Y-85026000D01*
G75*
G02*
X91249000Y-84975000I0J51000D01*
G01*
G37*
G36*
G01*
X91249000Y-64655000D02*
X91249000Y-62955000D01*
G75*
G02*
X91300000Y-62904000I51000J0D01*
G01*
X94800000Y-62904000D01*
G75*
G02*
X94851000Y-62955000I0J-51000D01*
G01*
X94851000Y-64655000D01*
G75*
G02*
X94800000Y-64706000I-51000J0D01*
G01*
X91300000Y-64706000D01*
G75*
G02*
X91249000Y-64655000I0J51000D01*
G01*
G37*
G36*
G01*
X91249000Y-102755000D02*
X91249000Y-101055000D01*
G75*
G02*
X91300000Y-101004000I51000J0D01*
G01*
X94800000Y-101004000D01*
G75*
G02*
X94851000Y-101055000I0J-51000D01*
G01*
X94851000Y-102755000D01*
G75*
G02*
X94800000Y-102806000I-51000J0D01*
G01*
X91300000Y-102806000D01*
G75*
G02*
X91249000Y-102755000I0J51000D01*
G01*
G37*
G36*
G01*
X91249000Y-59575000D02*
X91249000Y-57875000D01*
G75*
G02*
X91300000Y-57824000I51000J0D01*
G01*
X94800000Y-57824000D01*
G75*
G02*
X94851000Y-57875000I0J-51000D01*
G01*
X94851000Y-59575000D01*
G75*
G02*
X94800000Y-59626000I-51000J0D01*
G01*
X91300000Y-59626000D01*
G75*
G02*
X91249000Y-59575000I0J51000D01*
G01*
G37*
D17*
X106230000Y-106925000D03*
G36*
G01*
X104140500Y-107826000D02*
X103239500Y-107826000D01*
G75*
G02*
X102789000Y-107375500I0J450500D01*
G01*
X102789000Y-106474500D01*
G75*
G02*
X103239500Y-106024000I450500J0D01*
G01*
X104140500Y-106024000D01*
G75*
G02*
X104591000Y-106474500I0J-450500D01*
G01*
X104591000Y-107375500D01*
G75*
G02*
X104140500Y-107826000I-450500J0D01*
G01*
G37*
X101150000Y-106925000D03*
M02*
