%FSLAX45Y45*%
G04 Gerber Fmt 4.5, Leading zero omitted, Abs format (unit mm)*
G04 Created by KiCad (PCBNEW (5.1.10)-1) date 2021-06-30 21:37:17*
%MOMM*%
%LPD*%
G01*
G04 APERTURE LIST*
%TA.AperFunction,Profile*%
%ADD10C,0.050000*%
%TD*%
%ADD11C,0.200000*%
%ADD12C,0.300000*%
G04 APERTURE END LIST*
D10*
X11419000Y-10802500D02*
G75*
G02*
X11369000Y-10852500I-50000J0D01*
G01*
X9360000Y-10852500D02*
G75*
G02*
X9310000Y-10802500I0J50000D01*
G01*
X9310000Y-5772500D02*
G75*
G02*
X9360000Y-5722500I50000J0D01*
G01*
X11369000Y-5722500D02*
G75*
G02*
X11419000Y-5772500I0J-50000D01*
G01*
X11419000Y-10802500D02*
X11419000Y-5772500D01*
X9360000Y-5722500D02*
X11369000Y-5722500D01*
X9310000Y-10802500D02*
X9310000Y-5772500D01*
X9360000Y-10852500D02*
X11369000Y-10852500D01*
D11*
X10275000Y-6455000D02*
X10295000Y-6475000D01*
X10295000Y-6455000D02*
X10275000Y-6475000D01*
X10325000Y-6455000D02*
X10345000Y-6475000D01*
X10345000Y-6455000D02*
X10325000Y-6475000D01*
X10376000Y-6455000D02*
X10396000Y-6475000D01*
X10396000Y-6455000D02*
X10376000Y-6475000D01*
X10426000Y-6455000D02*
X10446000Y-6475000D01*
X10446000Y-6455000D02*
X10426000Y-6475000D01*
X10662500Y-7007500D02*
X10682500Y-7027500D01*
X10682500Y-7007500D02*
X10662500Y-7027500D01*
X10720000Y-6912500D02*
X10740000Y-6932500D01*
X10740000Y-6912500D02*
X10720000Y-6932500D01*
X10720000Y-7102500D02*
X10740000Y-7122500D01*
X10740000Y-7102500D02*
X10720000Y-7122500D01*
X10777500Y-7007500D02*
X10797500Y-7027500D01*
X10797500Y-7007500D02*
X10777500Y-7027500D01*
X9662500Y-6192500D02*
G75*
G03*
X9662500Y-6192500I-17500J0D01*
G01*
X9677500Y-8732500D02*
G75*
G03*
X9677500Y-8732500I-17500J0D01*
G01*
X9687500Y-8533500D02*
G75*
G03*
X9687500Y-8533500I-17500J0D01*
G01*
X9746693Y-8472500D02*
G75*
G03*
X9746693Y-8472500I-17500J0D01*
G01*
X9790000Y-8187500D02*
G75*
G03*
X9790000Y-8187500I-17500J0D01*
G01*
X9799194Y-8571999D02*
G75*
G03*
X9799194Y-8571999I-17500J0D01*
G01*
X9807500Y-6465000D02*
G75*
G03*
X9807500Y-6465000I-17500J0D01*
G01*
X9858593Y-8526207D02*
G75*
G03*
X9858593Y-8526207I-17500J0D01*
G01*
X9883500Y-8452500D02*
G75*
G03*
X9883500Y-8452500I-17500J0D01*
G01*
X9887500Y-9292500D02*
G75*
G03*
X9887500Y-9292500I-17500J0D01*
G01*
X9976876Y-7103876D02*
G75*
G03*
X9976876Y-7103876I-17500J0D01*
G01*
X10037500Y-8957500D02*
G75*
G03*
X10037500Y-8957500I-17500J0D01*
G01*
X10043750Y-8236250D02*
G75*
G03*
X10043750Y-8236250I-17500J0D01*
G01*
X10055000Y-6462000D02*
G75*
G03*
X10055000Y-6462000I-17500J0D01*
G01*
X10055001Y-6595001D02*
G75*
G03*
X10055001Y-6595001I-17500J0D01*
G01*
X10134500Y-7449999D02*
G75*
G03*
X10134500Y-7449999I-17500J0D01*
G01*
X10150497Y-7011500D02*
G75*
G03*
X10150497Y-7011500I-17500J0D01*
G01*
X10175000Y-8015000D02*
G75*
G03*
X10175000Y-8015000I-17500J0D01*
G01*
X10202500Y-9210000D02*
G75*
G03*
X10202500Y-9210000I-17500J0D01*
G01*
X10221500Y-6618500D02*
G75*
G03*
X10221500Y-6618500I-17500J0D01*
G01*
X10259000Y-8475000D02*
G75*
G03*
X10259000Y-8475000I-17500J0D01*
G01*
X10259000Y-8602500D02*
G75*
G03*
X10259000Y-8602500I-17500J0D01*
G01*
X10259000Y-8730000D02*
G75*
G03*
X10259000Y-8730000I-17500J0D01*
G01*
X10343500Y-7615500D02*
G75*
G03*
X10343500Y-7615500I-17500J0D01*
G01*
X10360000Y-7740000D02*
G75*
G03*
X10360000Y-7740000I-17500J0D01*
G01*
X10360500Y-7930500D02*
G75*
G03*
X10360500Y-7930500I-17500J0D01*
G01*
X10366500Y-6291500D02*
G75*
G03*
X10366500Y-6291500I-17500J0D01*
G01*
X10377500Y-6610500D02*
G75*
G03*
X10377500Y-6610500I-17500J0D01*
G01*
X10386500Y-8475000D02*
G75*
G03*
X10386500Y-8475000I-17500J0D01*
G01*
X10386500Y-8602500D02*
G75*
G03*
X10386500Y-8602500I-17500J0D01*
G01*
X10386500Y-8730000D02*
G75*
G03*
X10386500Y-8730000I-17500J0D01*
G01*
X10387500Y-9352500D02*
G75*
G03*
X10387500Y-9352500I-17500J0D01*
G01*
X10390500Y-8155500D02*
G75*
G03*
X10390500Y-8155500I-17500J0D01*
G01*
X10445927Y-9088028D02*
G75*
G03*
X10445927Y-9088028I-17500J0D01*
G01*
X10451500Y-8812500D02*
G75*
G03*
X10451500Y-8812500I-17500J0D01*
G01*
X10472500Y-6257500D02*
G75*
G03*
X10472500Y-6257500I-17500J0D01*
G01*
X10502500Y-9370000D02*
G75*
G03*
X10502500Y-9370000I-17500J0D01*
G01*
X10514000Y-8475000D02*
G75*
G03*
X10514000Y-8475000I-17500J0D01*
G01*
X10514000Y-8602500D02*
G75*
G03*
X10514000Y-8602500I-17500J0D01*
G01*
X10514000Y-8730000D02*
G75*
G03*
X10514000Y-8730000I-17500J0D01*
G01*
X10524000Y-8372500D02*
G75*
G03*
X10524000Y-8372500I-17500J0D01*
G01*
X10567500Y-10462500D02*
G75*
G03*
X10567500Y-10462500I-17500J0D01*
G01*
X10585500Y-6653500D02*
G75*
G03*
X10585500Y-6653500I-17500J0D01*
G01*
X10607500Y-6917500D02*
G75*
G03*
X10607500Y-6917500I-17500J0D01*
G01*
X10642500Y-8065500D02*
G75*
G03*
X10642500Y-8065500I-17500J0D01*
G01*
X10710000Y-8135000D02*
G75*
G03*
X10710000Y-8135000I-17500J0D01*
G01*
X10750000Y-7560000D02*
G75*
G03*
X10750000Y-7560000I-17500J0D01*
G01*
X10777500Y-9222500D02*
G75*
G03*
X10777500Y-9222500I-17500J0D01*
G01*
X10792500Y-6777500D02*
G75*
G03*
X10792500Y-6777500I-17500J0D01*
G01*
X10807500Y-7362500D02*
G75*
G03*
X10807500Y-7362500I-17500J0D01*
G01*
X10867500Y-9012500D02*
G75*
G03*
X10867500Y-9012500I-17500J0D01*
G01*
X10897500Y-9317500D02*
G75*
G03*
X10897500Y-9317500I-17500J0D01*
G01*
X10982500Y-8542500D02*
G75*
G03*
X10982500Y-8542500I-17500J0D01*
G01*
X10992500Y-6777500D02*
G75*
G03*
X10992500Y-6777500I-17500J0D01*
G01*
X11027500Y-8717500D02*
G75*
G03*
X11027500Y-8717500I-17500J0D01*
G01*
X11037500Y-6497500D02*
G75*
G03*
X11037500Y-6497500I-17500J0D01*
G01*
X11056500Y-8454500D02*
G75*
G03*
X11056500Y-8454500I-17500J0D01*
G01*
X11057500Y-7323500D02*
G75*
G03*
X11057500Y-7323500I-17500J0D01*
G01*
X11075000Y-6115000D02*
G75*
G03*
X11075000Y-6115000I-17500J0D01*
G01*
X9928000Y-5922500D02*
X9928000Y-5982500D01*
X9898000Y-5952500D02*
X9958000Y-5952500D01*
X9948000Y-5982500D02*
X9948000Y-5922500D01*
X9908000Y-5982500D02*
X9908000Y-5922500D01*
X9948000Y-5922500D02*
G75*
G03*
X9908000Y-5922500I-20000J0D01*
G01*
X9908000Y-5982500D02*
G75*
G03*
X9948000Y-5982500I20000J0D01*
G01*
X9928000Y-6340500D02*
X9928000Y-6400500D01*
X9898000Y-6370500D02*
X9958000Y-6370500D01*
X9948000Y-6425500D02*
X9948000Y-6315500D01*
X9908000Y-6425500D02*
X9908000Y-6315500D01*
X9948000Y-6315500D02*
G75*
G03*
X9908000Y-6315500I-20000J0D01*
G01*
X9908000Y-6425500D02*
G75*
G03*
X9948000Y-6425500I20000J0D01*
G01*
X10792000Y-5922500D02*
X10792000Y-5982500D01*
X10762000Y-5952500D02*
X10822000Y-5952500D01*
X10812000Y-5982500D02*
X10812000Y-5922500D01*
X10772000Y-5982500D02*
X10772000Y-5922500D01*
X10812000Y-5922500D02*
G75*
G03*
X10772000Y-5922500I-20000J0D01*
G01*
X10772000Y-5982500D02*
G75*
G03*
X10812000Y-5982500I20000J0D01*
G01*
X10792000Y-6340500D02*
X10792000Y-6400500D01*
X10762000Y-6370500D02*
X10822000Y-6370500D01*
X10812000Y-6425500D02*
X10812000Y-6315500D01*
X10772000Y-6425500D02*
X10772000Y-6315500D01*
X10812000Y-6315500D02*
G75*
G03*
X10772000Y-6315500I-20000J0D01*
G01*
X10772000Y-6425500D02*
G75*
G03*
X10812000Y-6425500I20000J0D01*
G01*
X9339356Y-9209856D02*
X9339356Y-9139144D01*
X9268644Y-9139144D01*
X9268644Y-9209856D01*
X9339356Y-9209856D01*
X9340356Y-5907856D02*
X9340356Y-5837144D01*
X9269644Y-5837144D01*
X9269644Y-5907856D01*
X9340356Y-5907856D01*
X9340356Y-6160856D02*
X9340356Y-6090144D01*
X9269644Y-6090144D01*
X9269644Y-6160856D01*
X9340356Y-6160856D01*
X9340356Y-6415856D02*
X9340356Y-6345144D01*
X9269644Y-6345144D01*
X9269644Y-6415856D01*
X9340356Y-6415856D01*
X9340356Y-6668856D02*
X9340356Y-6598144D01*
X9269644Y-6598144D01*
X9269644Y-6668856D01*
X9340356Y-6668856D01*
X9340356Y-6923856D02*
X9340356Y-6853144D01*
X9269644Y-6853144D01*
X9269644Y-6923856D01*
X9340356Y-6923856D01*
X9340356Y-7177856D02*
X9340356Y-7107144D01*
X9269644Y-7107144D01*
X9269644Y-7177856D01*
X9340356Y-7177856D01*
X9340356Y-7431856D02*
X9340356Y-7361144D01*
X9269644Y-7361144D01*
X9269644Y-7431856D01*
X9340356Y-7431856D01*
X9340356Y-7685856D02*
X9340356Y-7615144D01*
X9269644Y-7615144D01*
X9269644Y-7685856D01*
X9340356Y-7685856D01*
X9340356Y-8193856D02*
X9340356Y-8123144D01*
X9269644Y-8123144D01*
X9269644Y-8193856D01*
X9340356Y-8193856D01*
X9340356Y-8447856D02*
X9340356Y-8377144D01*
X9269644Y-8377144D01*
X9269644Y-8447856D01*
X9340356Y-8447856D01*
X9340356Y-8701856D02*
X9340356Y-8631144D01*
X9269644Y-8631144D01*
X9269644Y-8701856D01*
X9340356Y-8701856D01*
X9340356Y-8955856D02*
X9340356Y-8885144D01*
X9269644Y-8885144D01*
X9269644Y-8955856D01*
X9340356Y-8955856D01*
X9340356Y-9463856D02*
X9340356Y-9393144D01*
X9269644Y-9393144D01*
X9269644Y-9463856D01*
X9340356Y-9463856D01*
X9340356Y-9717856D02*
X9340356Y-9647144D01*
X9269644Y-9647144D01*
X9269644Y-9717856D01*
X9340356Y-9717856D01*
X9340356Y-9971856D02*
X9340356Y-9901144D01*
X9269644Y-9901144D01*
X9269644Y-9971856D01*
X9340356Y-9971856D01*
X9340356Y-10225856D02*
X9340356Y-10155144D01*
X9269644Y-10155144D01*
X9269644Y-10225856D01*
X9340356Y-10225856D01*
X9340356Y-10479856D02*
X9340356Y-10409144D01*
X9269644Y-10409144D01*
X9269644Y-10479856D01*
X9340356Y-10479856D01*
X9340356Y-10733856D02*
X9340356Y-10663144D01*
X9269644Y-10663144D01*
X9269644Y-10733856D01*
X9340356Y-10733856D01*
X9341356Y-7939856D02*
X9341356Y-7869144D01*
X9270644Y-7869144D01*
X9270644Y-7939856D01*
X9341356Y-7939856D01*
X9510356Y-5907856D02*
X9510356Y-5837144D01*
X9439644Y-5837144D01*
X9439644Y-5907856D01*
X9510356Y-5907856D01*
X9510356Y-6161856D02*
X9510356Y-6091144D01*
X9439644Y-6091144D01*
X9439644Y-6161856D01*
X9510356Y-6161856D01*
X9510356Y-6415856D02*
X9510356Y-6345144D01*
X9439644Y-6345144D01*
X9439644Y-6415856D01*
X9510356Y-6415856D01*
X9510356Y-6669856D02*
X9510356Y-6599144D01*
X9439644Y-6599144D01*
X9439644Y-6669856D01*
X9510356Y-6669856D01*
X9510356Y-6923856D02*
X9510356Y-6853144D01*
X9439644Y-6853144D01*
X9439644Y-6923856D01*
X9510356Y-6923856D01*
X9510356Y-7177856D02*
X9510356Y-7107144D01*
X9439644Y-7107144D01*
X9439644Y-7177856D01*
X9510356Y-7177856D01*
X9510356Y-7431856D02*
X9510356Y-7361144D01*
X9439644Y-7361144D01*
X9439644Y-7431856D01*
X9510356Y-7431856D01*
X9510356Y-7685856D02*
X9510356Y-7615144D01*
X9439644Y-7615144D01*
X9439644Y-7685856D01*
X9510356Y-7685856D01*
X9510356Y-7939856D02*
X9510356Y-7869144D01*
X9439644Y-7869144D01*
X9439644Y-7939856D01*
X9510356Y-7939856D01*
X9510356Y-8193856D02*
X9510356Y-8123144D01*
X9439644Y-8123144D01*
X9439644Y-8193856D01*
X9510356Y-8193856D01*
X9510356Y-8447856D02*
X9510356Y-8377144D01*
X9439644Y-8377144D01*
X9439644Y-8447856D01*
X9510356Y-8447856D01*
X9510356Y-8701856D02*
X9510356Y-8631144D01*
X9439644Y-8631144D01*
X9439644Y-8701856D01*
X9510356Y-8701856D01*
X9510356Y-8955856D02*
X9510356Y-8885144D01*
X9439644Y-8885144D01*
X9439644Y-8955856D01*
X9510356Y-8955856D01*
X9510356Y-9209856D02*
X9510356Y-9139144D01*
X9439644Y-9139144D01*
X9439644Y-9209856D01*
X9510356Y-9209856D01*
X9510356Y-9463856D02*
X9510356Y-9393144D01*
X9439644Y-9393144D01*
X9439644Y-9463856D01*
X9510356Y-9463856D01*
X9510356Y-9717856D02*
X9510356Y-9647144D01*
X9439644Y-9647144D01*
X9439644Y-9717856D01*
X9510356Y-9717856D01*
X9510356Y-9971856D02*
X9510356Y-9901144D01*
X9439644Y-9901144D01*
X9439644Y-9971856D01*
X9510356Y-9971856D01*
X9510356Y-10225856D02*
X9510356Y-10155144D01*
X9439644Y-10155144D01*
X9439644Y-10225856D01*
X9510356Y-10225856D01*
X9510356Y-10479856D02*
X9510356Y-10409144D01*
X9439644Y-10409144D01*
X9439644Y-10479856D01*
X9510356Y-10479856D01*
X9510356Y-10733856D02*
X9510356Y-10663144D01*
X9439644Y-10663144D01*
X9439644Y-10733856D01*
X9510356Y-10733856D01*
X10150356Y-10727856D02*
X10150356Y-10657144D01*
X10079644Y-10657144D01*
X10079644Y-10727856D01*
X10150356Y-10727856D01*
X10404356Y-10727856D02*
X10404356Y-10657144D01*
X10333644Y-10657144D01*
X10333644Y-10727856D01*
X10404356Y-10727856D01*
X10658356Y-10727856D02*
X10658356Y-10657144D01*
X10587644Y-10657144D01*
X10587644Y-10727856D01*
X10658356Y-10727856D01*
X11290356Y-5907856D02*
X11290356Y-5837144D01*
X11219644Y-5837144D01*
X11219644Y-5907856D01*
X11290356Y-5907856D01*
X11290356Y-6161856D02*
X11290356Y-6091144D01*
X11219644Y-6091144D01*
X11219644Y-6161856D01*
X11290356Y-6161856D01*
X11290356Y-6415856D02*
X11290356Y-6345144D01*
X11219644Y-6345144D01*
X11219644Y-6415856D01*
X11290356Y-6415856D01*
X11290356Y-6669856D02*
X11290356Y-6599144D01*
X11219644Y-6599144D01*
X11219644Y-6669856D01*
X11290356Y-6669856D01*
X11290356Y-6923856D02*
X11290356Y-6853144D01*
X11219644Y-6853144D01*
X11219644Y-6923856D01*
X11290356Y-6923856D01*
X11290356Y-7177856D02*
X11290356Y-7107144D01*
X11219644Y-7107144D01*
X11219644Y-7177856D01*
X11290356Y-7177856D01*
X11290356Y-7431856D02*
X11290356Y-7361144D01*
X11219644Y-7361144D01*
X11219644Y-7431856D01*
X11290356Y-7431856D01*
X11290356Y-7685856D02*
X11290356Y-7615144D01*
X11219644Y-7615144D01*
X11219644Y-7685856D01*
X11290356Y-7685856D01*
X11290356Y-7939856D02*
X11290356Y-7869144D01*
X11219644Y-7869144D01*
X11219644Y-7939856D01*
X11290356Y-7939856D01*
X11290356Y-8193856D02*
X11290356Y-8123144D01*
X11219644Y-8123144D01*
X11219644Y-8193856D01*
X11290356Y-8193856D01*
X11290356Y-8447856D02*
X11290356Y-8377144D01*
X11219644Y-8377144D01*
X11219644Y-8447856D01*
X11290356Y-8447856D01*
X11290356Y-8701856D02*
X11290356Y-8631144D01*
X11219644Y-8631144D01*
X11219644Y-8701856D01*
X11290356Y-8701856D01*
X11290356Y-8955856D02*
X11290356Y-8885144D01*
X11219644Y-8885144D01*
X11219644Y-8955856D01*
X11290356Y-8955856D01*
X11290356Y-9209856D02*
X11290356Y-9139144D01*
X11219644Y-9139144D01*
X11219644Y-9209856D01*
X11290356Y-9209856D01*
X11290356Y-9463856D02*
X11290356Y-9393144D01*
X11219644Y-9393144D01*
X11219644Y-9463856D01*
X11290356Y-9463856D01*
X11290356Y-9717856D02*
X11290356Y-9647144D01*
X11219644Y-9647144D01*
X11219644Y-9717856D01*
X11290356Y-9717856D01*
X11290356Y-9971856D02*
X11290356Y-9901144D01*
X11219644Y-9901144D01*
X11219644Y-9971856D01*
X11290356Y-9971856D01*
X11290356Y-10225856D02*
X11290356Y-10155144D01*
X11219644Y-10155144D01*
X11219644Y-10225856D01*
X11290356Y-10225856D01*
X11290356Y-10479856D02*
X11290356Y-10409144D01*
X11219644Y-10409144D01*
X11219644Y-10479856D01*
X11290356Y-10479856D01*
X11290356Y-10733856D02*
X11290356Y-10663144D01*
X11219644Y-10663144D01*
X11219644Y-10733856D01*
X11290356Y-10733856D01*
X11460356Y-5907856D02*
X11460356Y-5837144D01*
X11389644Y-5837144D01*
X11389644Y-5907856D01*
X11460356Y-5907856D01*
X11460356Y-6161856D02*
X11460356Y-6091144D01*
X11389644Y-6091144D01*
X11389644Y-6161856D01*
X11460356Y-6161856D01*
X11460356Y-6415856D02*
X11460356Y-6345144D01*
X11389644Y-6345144D01*
X11389644Y-6415856D01*
X11460356Y-6415856D01*
X11460356Y-6669856D02*
X11460356Y-6599144D01*
X11389644Y-6599144D01*
X11389644Y-6669856D01*
X11460356Y-6669856D01*
X11460356Y-6923856D02*
X11460356Y-6853144D01*
X11389644Y-6853144D01*
X11389644Y-6923856D01*
X11460356Y-6923856D01*
X11460356Y-7177856D02*
X11460356Y-7107144D01*
X11389644Y-7107144D01*
X11389644Y-7177856D01*
X11460356Y-7177856D01*
X11460356Y-7431856D02*
X11460356Y-7361144D01*
X11389644Y-7361144D01*
X11389644Y-7431856D01*
X11460356Y-7431856D01*
X11460356Y-7685856D02*
X11460356Y-7615144D01*
X11389644Y-7615144D01*
X11389644Y-7685856D01*
X11460356Y-7685856D01*
X11460356Y-7939856D02*
X11460356Y-7869144D01*
X11389644Y-7869144D01*
X11389644Y-7939856D01*
X11460356Y-7939856D01*
X11460356Y-8193856D02*
X11460356Y-8123144D01*
X11389644Y-8123144D01*
X11389644Y-8193856D01*
X11460356Y-8193856D01*
X11460356Y-8447856D02*
X11460356Y-8377144D01*
X11389644Y-8377144D01*
X11389644Y-8447856D01*
X11460356Y-8447856D01*
X11460356Y-8701856D02*
X11460356Y-8631144D01*
X11389644Y-8631144D01*
X11389644Y-8701856D01*
X11460356Y-8701856D01*
X11460356Y-8955856D02*
X11460356Y-8885144D01*
X11389644Y-8885144D01*
X11389644Y-8955856D01*
X11460356Y-8955856D01*
X11460356Y-9209856D02*
X11460356Y-9139144D01*
X11389644Y-9139144D01*
X11389644Y-9209856D01*
X11460356Y-9209856D01*
X11460356Y-9463856D02*
X11460356Y-9393144D01*
X11389644Y-9393144D01*
X11389644Y-9463856D01*
X11460356Y-9463856D01*
X11460356Y-9717856D02*
X11460356Y-9647144D01*
X11389644Y-9647144D01*
X11389644Y-9717856D01*
X11460356Y-9717856D01*
X11460356Y-9971856D02*
X11460356Y-9901144D01*
X11389644Y-9901144D01*
X11389644Y-9971856D01*
X11460356Y-9971856D01*
X11460356Y-10225856D02*
X11460356Y-10155144D01*
X11389644Y-10155144D01*
X11389644Y-10225856D01*
X11460356Y-10225856D01*
X11460356Y-10479856D02*
X11460356Y-10409144D01*
X11389644Y-10409144D01*
X11389644Y-10479856D01*
X11460356Y-10479856D01*
X11460356Y-10733856D02*
X11460356Y-10663144D01*
X11389644Y-10663144D01*
X11389644Y-10733856D01*
X11460356Y-10733856D01*
D12*
X9593928Y-11320714D02*
X9593928Y-11020714D01*
X9665357Y-11020714D01*
X9708214Y-11035000D01*
X9736786Y-11063572D01*
X9751071Y-11092143D01*
X9765357Y-11149286D01*
X9765357Y-11192143D01*
X9751071Y-11249286D01*
X9736786Y-11277857D01*
X9708214Y-11306429D01*
X9665357Y-11320714D01*
X9593928Y-11320714D01*
X9893928Y-11320714D02*
X9893928Y-11120714D01*
X9893928Y-11177857D02*
X9908214Y-11149286D01*
X9922500Y-11135000D01*
X9951071Y-11120714D01*
X9979643Y-11120714D01*
X10079643Y-11320714D02*
X10079643Y-11120714D01*
X10079643Y-11020714D02*
X10065357Y-11035000D01*
X10079643Y-11049286D01*
X10093928Y-11035000D01*
X10079643Y-11020714D01*
X10079643Y-11049286D01*
X10265357Y-11320714D02*
X10236786Y-11306429D01*
X10222500Y-11277857D01*
X10222500Y-11020714D01*
X10422500Y-11320714D02*
X10393928Y-11306429D01*
X10379643Y-11277857D01*
X10379643Y-11020714D01*
X10765357Y-11320714D02*
X10765357Y-11020714D01*
X10865357Y-11235000D01*
X10965357Y-11020714D01*
X10965357Y-11320714D01*
X11236786Y-11320714D02*
X11236786Y-11163572D01*
X11222500Y-11135000D01*
X11193928Y-11120714D01*
X11136786Y-11120714D01*
X11108214Y-11135000D01*
X11236786Y-11306429D02*
X11208214Y-11320714D01*
X11136786Y-11320714D01*
X11108214Y-11306429D01*
X11093928Y-11277857D01*
X11093928Y-11249286D01*
X11108214Y-11220714D01*
X11136786Y-11206429D01*
X11208214Y-11206429D01*
X11236786Y-11192143D01*
X11379643Y-11120714D02*
X11379643Y-11420714D01*
X11379643Y-11135000D02*
X11408214Y-11120714D01*
X11465357Y-11120714D01*
X11493928Y-11135000D01*
X11508214Y-11149286D01*
X11522500Y-11177857D01*
X11522500Y-11263571D01*
X11508214Y-11292143D01*
X11493928Y-11306429D01*
X11465357Y-11320714D01*
X11408214Y-11320714D01*
X11379643Y-11306429D01*
X11651071Y-11292143D02*
X11665357Y-11306429D01*
X11651071Y-11320714D01*
X11636786Y-11306429D01*
X11651071Y-11292143D01*
X11651071Y-11320714D01*
X11651071Y-11135000D02*
X11665357Y-11149286D01*
X11651071Y-11163572D01*
X11636786Y-11149286D01*
X11651071Y-11135000D01*
X11651071Y-11163572D01*
X9287500Y-11805000D02*
X9307500Y-11825000D01*
X9307500Y-11805000D02*
X9287500Y-11825000D01*
X9651071Y-11650714D02*
X9679643Y-11650714D01*
X9708214Y-11665000D01*
X9722500Y-11679286D01*
X9736786Y-11707857D01*
X9751071Y-11765000D01*
X9751071Y-11836429D01*
X9736786Y-11893571D01*
X9722500Y-11922143D01*
X9708214Y-11936429D01*
X9679643Y-11950714D01*
X9651071Y-11950714D01*
X9622500Y-11936429D01*
X9608214Y-11922143D01*
X9593928Y-11893571D01*
X9579643Y-11836429D01*
X9579643Y-11765000D01*
X9593928Y-11707857D01*
X9608214Y-11679286D01*
X9622500Y-11665000D01*
X9651071Y-11650714D01*
X9879643Y-11922143D02*
X9893928Y-11936429D01*
X9879643Y-11950714D01*
X9865357Y-11936429D01*
X9879643Y-11922143D01*
X9879643Y-11950714D01*
X10008214Y-11679286D02*
X10022500Y-11665000D01*
X10051071Y-11650714D01*
X10122500Y-11650714D01*
X10151071Y-11665000D01*
X10165357Y-11679286D01*
X10179643Y-11707857D01*
X10179643Y-11736429D01*
X10165357Y-11779286D01*
X9993928Y-11950714D01*
X10179643Y-11950714D01*
X10365357Y-11650714D02*
X10393928Y-11650714D01*
X10422500Y-11665000D01*
X10436786Y-11679286D01*
X10451071Y-11707857D01*
X10465357Y-11765000D01*
X10465357Y-11836429D01*
X10451071Y-11893571D01*
X10436786Y-11922143D01*
X10422500Y-11936429D01*
X10393928Y-11950714D01*
X10365357Y-11950714D01*
X10336786Y-11936429D01*
X10322500Y-11922143D01*
X10308214Y-11893571D01*
X10293928Y-11836429D01*
X10293928Y-11765000D01*
X10308214Y-11707857D01*
X10322500Y-11679286D01*
X10336786Y-11665000D01*
X10365357Y-11650714D01*
X10651071Y-11650714D02*
X10679643Y-11650714D01*
X10708214Y-11665000D01*
X10722500Y-11679286D01*
X10736786Y-11707857D01*
X10751071Y-11765000D01*
X10751071Y-11836429D01*
X10736786Y-11893571D01*
X10722500Y-11922143D01*
X10708214Y-11936429D01*
X10679643Y-11950714D01*
X10651071Y-11950714D01*
X10622500Y-11936429D01*
X10608214Y-11922143D01*
X10593928Y-11893571D01*
X10579643Y-11836429D01*
X10579643Y-11765000D01*
X10593928Y-11707857D01*
X10608214Y-11679286D01*
X10622500Y-11665000D01*
X10651071Y-11650714D01*
X10879643Y-11950714D02*
X10879643Y-11750714D01*
X10879643Y-11779286D02*
X10893928Y-11765000D01*
X10922500Y-11750714D01*
X10965357Y-11750714D01*
X10993928Y-11765000D01*
X11008214Y-11793571D01*
X11008214Y-11950714D01*
X11008214Y-11793571D02*
X11022500Y-11765000D01*
X11051071Y-11750714D01*
X11093928Y-11750714D01*
X11122500Y-11765000D01*
X11136786Y-11793571D01*
X11136786Y-11950714D01*
X11279643Y-11950714D02*
X11279643Y-11750714D01*
X11279643Y-11779286D02*
X11293928Y-11765000D01*
X11322500Y-11750714D01*
X11365357Y-11750714D01*
X11393928Y-11765000D01*
X11408214Y-11793571D01*
X11408214Y-11950714D01*
X11408214Y-11793571D02*
X11422500Y-11765000D01*
X11451071Y-11750714D01*
X11493928Y-11750714D01*
X11522500Y-11765000D01*
X11536786Y-11793571D01*
X11536786Y-11950714D01*
X12122500Y-11636429D02*
X11865357Y-12022143D01*
X12508214Y-11650714D02*
X12536786Y-11650714D01*
X12565357Y-11665000D01*
X12579643Y-11679286D01*
X12593928Y-11707857D01*
X12608214Y-11765000D01*
X12608214Y-11836429D01*
X12593928Y-11893571D01*
X12579643Y-11922143D01*
X12565357Y-11936429D01*
X12536786Y-11950714D01*
X12508214Y-11950714D01*
X12479643Y-11936429D01*
X12465357Y-11922143D01*
X12451071Y-11893571D01*
X12436786Y-11836429D01*
X12436786Y-11765000D01*
X12451071Y-11707857D01*
X12465357Y-11679286D01*
X12479643Y-11665000D01*
X12508214Y-11650714D01*
X12736786Y-11922143D02*
X12751071Y-11936429D01*
X12736786Y-11950714D01*
X12722500Y-11936429D01*
X12736786Y-11922143D01*
X12736786Y-11950714D01*
X12936786Y-11650714D02*
X12965357Y-11650714D01*
X12993928Y-11665000D01*
X13008214Y-11679286D01*
X13022500Y-11707857D01*
X13036786Y-11765000D01*
X13036786Y-11836429D01*
X13022500Y-11893571D01*
X13008214Y-11922143D01*
X12993928Y-11936429D01*
X12965357Y-11950714D01*
X12936786Y-11950714D01*
X12908214Y-11936429D01*
X12893928Y-11922143D01*
X12879643Y-11893571D01*
X12865357Y-11836429D01*
X12865357Y-11765000D01*
X12879643Y-11707857D01*
X12893928Y-11679286D01*
X12908214Y-11665000D01*
X12936786Y-11650714D01*
X13222500Y-11650714D02*
X13251071Y-11650714D01*
X13279643Y-11665000D01*
X13293928Y-11679286D01*
X13308214Y-11707857D01*
X13322500Y-11765000D01*
X13322500Y-11836429D01*
X13308214Y-11893571D01*
X13293928Y-11922143D01*
X13279643Y-11936429D01*
X13251071Y-11950714D01*
X13222500Y-11950714D01*
X13193928Y-11936429D01*
X13179643Y-11922143D01*
X13165357Y-11893571D01*
X13151071Y-11836429D01*
X13151071Y-11765000D01*
X13165357Y-11707857D01*
X13179643Y-11679286D01*
X13193928Y-11665000D01*
X13222500Y-11650714D01*
X13422500Y-11650714D02*
X13622500Y-11650714D01*
X13493928Y-11950714D01*
X13751071Y-11950714D02*
X13808214Y-11950714D01*
X13836786Y-11936429D01*
X13851071Y-11922143D01*
X13879643Y-11879286D01*
X13893928Y-11822143D01*
X13893928Y-11707857D01*
X13879643Y-11679286D01*
X13865357Y-11665000D01*
X13836786Y-11650714D01*
X13779643Y-11650714D01*
X13751071Y-11665000D01*
X13736786Y-11679286D01*
X13722500Y-11707857D01*
X13722500Y-11779286D01*
X13736786Y-11807857D01*
X13751071Y-11822143D01*
X13779643Y-11836429D01*
X13836786Y-11836429D01*
X13865357Y-11822143D01*
X13879643Y-11807857D01*
X13893928Y-11779286D01*
X14008214Y-11650714D02*
X14008214Y-11707857D01*
X14122500Y-11650714D02*
X14122500Y-11707857D01*
X14565357Y-12065000D02*
X14551071Y-12050714D01*
X14522500Y-12007857D01*
X14508214Y-11979286D01*
X14493928Y-11936429D01*
X14479643Y-11865000D01*
X14479643Y-11807857D01*
X14493928Y-11736429D01*
X14508214Y-11693571D01*
X14522500Y-11665000D01*
X14551071Y-11622143D01*
X14565357Y-11607857D01*
X14722500Y-11779286D02*
X14693928Y-11765000D01*
X14679643Y-11750714D01*
X14665357Y-11722143D01*
X14665357Y-11707857D01*
X14679643Y-11679286D01*
X14693928Y-11665000D01*
X14722500Y-11650714D01*
X14779643Y-11650714D01*
X14808214Y-11665000D01*
X14822500Y-11679286D01*
X14836786Y-11707857D01*
X14836786Y-11722143D01*
X14822500Y-11750714D01*
X14808214Y-11765000D01*
X14779643Y-11779286D01*
X14722500Y-11779286D01*
X14693928Y-11793571D01*
X14679643Y-11807857D01*
X14665357Y-11836429D01*
X14665357Y-11893571D01*
X14679643Y-11922143D01*
X14693928Y-11936429D01*
X14722500Y-11950714D01*
X14779643Y-11950714D01*
X14808214Y-11936429D01*
X14822500Y-11922143D01*
X14836786Y-11893571D01*
X14836786Y-11836429D01*
X14822500Y-11807857D01*
X14808214Y-11793571D01*
X14779643Y-11779286D01*
X15193928Y-11950714D02*
X15193928Y-11650714D01*
X15322500Y-11950714D02*
X15322500Y-11793571D01*
X15308214Y-11765000D01*
X15279643Y-11750714D01*
X15236786Y-11750714D01*
X15208214Y-11765000D01*
X15193928Y-11779286D01*
X15508214Y-11950714D02*
X15479643Y-11936429D01*
X15465357Y-11922143D01*
X15451071Y-11893571D01*
X15451071Y-11807857D01*
X15465357Y-11779286D01*
X15479643Y-11765000D01*
X15508214Y-11750714D01*
X15551071Y-11750714D01*
X15579643Y-11765000D01*
X15593928Y-11779286D01*
X15608214Y-11807857D01*
X15608214Y-11893571D01*
X15593928Y-11922143D01*
X15579643Y-11936429D01*
X15551071Y-11950714D01*
X15508214Y-11950714D01*
X15779643Y-11950714D02*
X15751071Y-11936429D01*
X15736786Y-11907857D01*
X15736786Y-11650714D01*
X16008214Y-11936429D02*
X15979643Y-11950714D01*
X15922500Y-11950714D01*
X15893928Y-11936429D01*
X15879643Y-11907857D01*
X15879643Y-11793571D01*
X15893928Y-11765000D01*
X15922500Y-11750714D01*
X15979643Y-11750714D01*
X16008214Y-11765000D01*
X16022500Y-11793571D01*
X16022500Y-11822143D01*
X15879643Y-11850714D01*
X16136786Y-11936429D02*
X16165357Y-11950714D01*
X16222500Y-11950714D01*
X16251071Y-11936429D01*
X16265357Y-11907857D01*
X16265357Y-11893571D01*
X16251071Y-11865000D01*
X16222500Y-11850714D01*
X16179643Y-11850714D01*
X16151071Y-11836429D01*
X16136786Y-11807857D01*
X16136786Y-11793571D01*
X16151071Y-11765000D01*
X16179643Y-11750714D01*
X16222500Y-11750714D01*
X16251071Y-11765000D01*
X16365357Y-12065000D02*
X16379643Y-12050714D01*
X16408214Y-12007857D01*
X16422500Y-11979286D01*
X16436786Y-11936429D01*
X16451071Y-11865000D01*
X16451071Y-11807857D01*
X16436786Y-11736429D01*
X16422500Y-11693571D01*
X16408214Y-11665000D01*
X16379643Y-11622143D01*
X16365357Y-11607857D01*
X9307500Y-12211000D02*
G75*
G03*
X9307500Y-12211000I-17500J0D01*
G01*
X9651071Y-12046714D02*
X9679643Y-12046714D01*
X9708214Y-12061000D01*
X9722500Y-12075286D01*
X9736786Y-12103857D01*
X9751071Y-12161000D01*
X9751071Y-12232429D01*
X9736786Y-12289571D01*
X9722500Y-12318143D01*
X9708214Y-12332429D01*
X9679643Y-12346714D01*
X9651071Y-12346714D01*
X9622500Y-12332429D01*
X9608214Y-12318143D01*
X9593928Y-12289571D01*
X9579643Y-12232429D01*
X9579643Y-12161000D01*
X9593928Y-12103857D01*
X9608214Y-12075286D01*
X9622500Y-12061000D01*
X9651071Y-12046714D01*
X9879643Y-12318143D02*
X9893928Y-12332429D01*
X9879643Y-12346714D01*
X9865357Y-12332429D01*
X9879643Y-12318143D01*
X9879643Y-12346714D01*
X9993928Y-12046714D02*
X10179643Y-12046714D01*
X10079643Y-12161000D01*
X10122500Y-12161000D01*
X10151071Y-12175286D01*
X10165357Y-12189571D01*
X10179643Y-12218143D01*
X10179643Y-12289571D01*
X10165357Y-12318143D01*
X10151071Y-12332429D01*
X10122500Y-12346714D01*
X10036786Y-12346714D01*
X10008214Y-12332429D01*
X9993928Y-12318143D01*
X10451071Y-12046714D02*
X10308214Y-12046714D01*
X10293928Y-12189571D01*
X10308214Y-12175286D01*
X10336786Y-12161000D01*
X10408214Y-12161000D01*
X10436786Y-12175286D01*
X10451071Y-12189571D01*
X10465357Y-12218143D01*
X10465357Y-12289571D01*
X10451071Y-12318143D01*
X10436786Y-12332429D01*
X10408214Y-12346714D01*
X10336786Y-12346714D01*
X10308214Y-12332429D01*
X10293928Y-12318143D01*
X10651071Y-12046714D02*
X10679643Y-12046714D01*
X10708214Y-12061000D01*
X10722500Y-12075286D01*
X10736786Y-12103857D01*
X10751071Y-12161000D01*
X10751071Y-12232429D01*
X10736786Y-12289571D01*
X10722500Y-12318143D01*
X10708214Y-12332429D01*
X10679643Y-12346714D01*
X10651071Y-12346714D01*
X10622500Y-12332429D01*
X10608214Y-12318143D01*
X10593928Y-12289571D01*
X10579643Y-12232429D01*
X10579643Y-12161000D01*
X10593928Y-12103857D01*
X10608214Y-12075286D01*
X10622500Y-12061000D01*
X10651071Y-12046714D01*
X10879643Y-12346714D02*
X10879643Y-12146714D01*
X10879643Y-12175286D02*
X10893928Y-12161000D01*
X10922500Y-12146714D01*
X10965357Y-12146714D01*
X10993928Y-12161000D01*
X11008214Y-12189571D01*
X11008214Y-12346714D01*
X11008214Y-12189571D02*
X11022500Y-12161000D01*
X11051071Y-12146714D01*
X11093928Y-12146714D01*
X11122500Y-12161000D01*
X11136786Y-12189571D01*
X11136786Y-12346714D01*
X11279643Y-12346714D02*
X11279643Y-12146714D01*
X11279643Y-12175286D02*
X11293928Y-12161000D01*
X11322500Y-12146714D01*
X11365357Y-12146714D01*
X11393928Y-12161000D01*
X11408214Y-12189571D01*
X11408214Y-12346714D01*
X11408214Y-12189571D02*
X11422500Y-12161000D01*
X11451071Y-12146714D01*
X11493928Y-12146714D01*
X11522500Y-12161000D01*
X11536786Y-12189571D01*
X11536786Y-12346714D01*
X12122500Y-12032429D02*
X11865357Y-12418143D01*
X12508214Y-12046714D02*
X12536786Y-12046714D01*
X12565357Y-12061000D01*
X12579643Y-12075286D01*
X12593928Y-12103857D01*
X12608214Y-12161000D01*
X12608214Y-12232429D01*
X12593928Y-12289571D01*
X12579643Y-12318143D01*
X12565357Y-12332429D01*
X12536786Y-12346714D01*
X12508214Y-12346714D01*
X12479643Y-12332429D01*
X12465357Y-12318143D01*
X12451071Y-12289571D01*
X12436786Y-12232429D01*
X12436786Y-12161000D01*
X12451071Y-12103857D01*
X12465357Y-12075286D01*
X12479643Y-12061000D01*
X12508214Y-12046714D01*
X12736786Y-12318143D02*
X12751071Y-12332429D01*
X12736786Y-12346714D01*
X12722500Y-12332429D01*
X12736786Y-12318143D01*
X12736786Y-12346714D01*
X12936786Y-12046714D02*
X12965357Y-12046714D01*
X12993928Y-12061000D01*
X13008214Y-12075286D01*
X13022500Y-12103857D01*
X13036786Y-12161000D01*
X13036786Y-12232429D01*
X13022500Y-12289571D01*
X13008214Y-12318143D01*
X12993928Y-12332429D01*
X12965357Y-12346714D01*
X12936786Y-12346714D01*
X12908214Y-12332429D01*
X12893928Y-12318143D01*
X12879643Y-12289571D01*
X12865357Y-12232429D01*
X12865357Y-12161000D01*
X12879643Y-12103857D01*
X12893928Y-12075286D01*
X12908214Y-12061000D01*
X12936786Y-12046714D01*
X13322500Y-12346714D02*
X13151071Y-12346714D01*
X13236786Y-12346714D02*
X13236786Y-12046714D01*
X13208214Y-12089571D01*
X13179643Y-12118143D01*
X13151071Y-12132429D01*
X13422500Y-12046714D02*
X13608214Y-12046714D01*
X13508214Y-12161000D01*
X13551071Y-12161000D01*
X13579643Y-12175286D01*
X13593928Y-12189571D01*
X13608214Y-12218143D01*
X13608214Y-12289571D01*
X13593928Y-12318143D01*
X13579643Y-12332429D01*
X13551071Y-12346714D01*
X13465357Y-12346714D01*
X13436786Y-12332429D01*
X13422500Y-12318143D01*
X13779643Y-12175286D02*
X13751071Y-12161000D01*
X13736786Y-12146714D01*
X13722500Y-12118143D01*
X13722500Y-12103857D01*
X13736786Y-12075286D01*
X13751071Y-12061000D01*
X13779643Y-12046714D01*
X13836786Y-12046714D01*
X13865357Y-12061000D01*
X13879643Y-12075286D01*
X13893928Y-12103857D01*
X13893928Y-12118143D01*
X13879643Y-12146714D01*
X13865357Y-12161000D01*
X13836786Y-12175286D01*
X13779643Y-12175286D01*
X13751071Y-12189571D01*
X13736786Y-12203857D01*
X13722500Y-12232429D01*
X13722500Y-12289571D01*
X13736786Y-12318143D01*
X13751071Y-12332429D01*
X13779643Y-12346714D01*
X13836786Y-12346714D01*
X13865357Y-12332429D01*
X13879643Y-12318143D01*
X13893928Y-12289571D01*
X13893928Y-12232429D01*
X13879643Y-12203857D01*
X13865357Y-12189571D01*
X13836786Y-12175286D01*
X14008214Y-12046714D02*
X14008214Y-12103857D01*
X14122500Y-12046714D02*
X14122500Y-12103857D01*
X14565357Y-12461000D02*
X14551071Y-12446714D01*
X14522500Y-12403857D01*
X14508214Y-12375286D01*
X14493928Y-12332429D01*
X14479643Y-12261000D01*
X14479643Y-12203857D01*
X14493928Y-12132429D01*
X14508214Y-12089571D01*
X14522500Y-12061000D01*
X14551071Y-12018143D01*
X14565357Y-12003857D01*
X14822500Y-12046714D02*
X14679643Y-12046714D01*
X14665357Y-12189571D01*
X14679643Y-12175286D01*
X14708214Y-12161000D01*
X14779643Y-12161000D01*
X14808214Y-12175286D01*
X14822500Y-12189571D01*
X14836786Y-12218143D01*
X14836786Y-12289571D01*
X14822500Y-12318143D01*
X14808214Y-12332429D01*
X14779643Y-12346714D01*
X14708214Y-12346714D01*
X14679643Y-12332429D01*
X14665357Y-12318143D01*
X14979643Y-12346714D02*
X15036786Y-12346714D01*
X15065357Y-12332429D01*
X15079643Y-12318143D01*
X15108214Y-12275286D01*
X15122500Y-12218143D01*
X15122500Y-12103857D01*
X15108214Y-12075286D01*
X15093928Y-12061000D01*
X15065357Y-12046714D01*
X15008214Y-12046714D01*
X14979643Y-12061000D01*
X14965357Y-12075286D01*
X14951071Y-12103857D01*
X14951071Y-12175286D01*
X14965357Y-12203857D01*
X14979643Y-12218143D01*
X15008214Y-12232429D01*
X15065357Y-12232429D01*
X15093928Y-12218143D01*
X15108214Y-12203857D01*
X15122500Y-12175286D01*
X15479643Y-12346714D02*
X15479643Y-12046714D01*
X15608214Y-12346714D02*
X15608214Y-12189571D01*
X15593928Y-12161000D01*
X15565357Y-12146714D01*
X15522500Y-12146714D01*
X15493928Y-12161000D01*
X15479643Y-12175286D01*
X15793928Y-12346714D02*
X15765357Y-12332429D01*
X15751071Y-12318143D01*
X15736786Y-12289571D01*
X15736786Y-12203857D01*
X15751071Y-12175286D01*
X15765357Y-12161000D01*
X15793928Y-12146714D01*
X15836786Y-12146714D01*
X15865357Y-12161000D01*
X15879643Y-12175286D01*
X15893928Y-12203857D01*
X15893928Y-12289571D01*
X15879643Y-12318143D01*
X15865357Y-12332429D01*
X15836786Y-12346714D01*
X15793928Y-12346714D01*
X16065357Y-12346714D02*
X16036786Y-12332429D01*
X16022500Y-12303857D01*
X16022500Y-12046714D01*
X16293928Y-12332429D02*
X16265357Y-12346714D01*
X16208214Y-12346714D01*
X16179643Y-12332429D01*
X16165357Y-12303857D01*
X16165357Y-12189571D01*
X16179643Y-12161000D01*
X16208214Y-12146714D01*
X16265357Y-12146714D01*
X16293928Y-12161000D01*
X16308214Y-12189571D01*
X16308214Y-12218143D01*
X16165357Y-12246714D01*
X16422500Y-12332429D02*
X16451071Y-12346714D01*
X16508214Y-12346714D01*
X16536786Y-12332429D01*
X16551071Y-12303857D01*
X16551071Y-12289571D01*
X16536786Y-12261000D01*
X16508214Y-12246714D01*
X16465357Y-12246714D01*
X16436786Y-12232429D01*
X16422500Y-12203857D01*
X16422500Y-12189571D01*
X16436786Y-12161000D01*
X16465357Y-12146714D01*
X16508214Y-12146714D01*
X16536786Y-12161000D01*
X16651071Y-12461000D02*
X16665357Y-12446714D01*
X16693928Y-12403857D01*
X16708214Y-12375286D01*
X16722500Y-12332429D01*
X16736786Y-12261000D01*
X16736786Y-12203857D01*
X16722500Y-12132429D01*
X16708214Y-12089571D01*
X16693928Y-12061000D01*
X16665357Y-12018143D01*
X16651071Y-12003857D01*
X9277500Y-12577000D02*
X9277500Y-12637000D01*
X9247500Y-12607000D02*
X9307500Y-12607000D01*
X9651071Y-12442714D02*
X9679643Y-12442714D01*
X9708214Y-12457000D01*
X9722500Y-12471286D01*
X9736786Y-12499857D01*
X9751071Y-12557000D01*
X9751071Y-12628429D01*
X9736786Y-12685571D01*
X9722500Y-12714143D01*
X9708214Y-12728429D01*
X9679643Y-12742714D01*
X9651071Y-12742714D01*
X9622500Y-12728429D01*
X9608214Y-12714143D01*
X9593928Y-12685571D01*
X9579643Y-12628429D01*
X9579643Y-12557000D01*
X9593928Y-12499857D01*
X9608214Y-12471286D01*
X9622500Y-12457000D01*
X9651071Y-12442714D01*
X9879643Y-12714143D02*
X9893928Y-12728429D01*
X9879643Y-12742714D01*
X9865357Y-12728429D01*
X9879643Y-12714143D01*
X9879643Y-12742714D01*
X10151071Y-12442714D02*
X10093928Y-12442714D01*
X10065357Y-12457000D01*
X10051071Y-12471286D01*
X10022500Y-12514143D01*
X10008214Y-12571286D01*
X10008214Y-12685571D01*
X10022500Y-12714143D01*
X10036786Y-12728429D01*
X10065357Y-12742714D01*
X10122500Y-12742714D01*
X10151071Y-12728429D01*
X10165357Y-12714143D01*
X10179643Y-12685571D01*
X10179643Y-12614143D01*
X10165357Y-12585571D01*
X10151071Y-12571286D01*
X10122500Y-12557000D01*
X10065357Y-12557000D01*
X10036786Y-12571286D01*
X10022500Y-12585571D01*
X10008214Y-12614143D01*
X10365357Y-12442714D02*
X10393928Y-12442714D01*
X10422500Y-12457000D01*
X10436786Y-12471286D01*
X10451071Y-12499857D01*
X10465357Y-12557000D01*
X10465357Y-12628429D01*
X10451071Y-12685571D01*
X10436786Y-12714143D01*
X10422500Y-12728429D01*
X10393928Y-12742714D01*
X10365357Y-12742714D01*
X10336786Y-12728429D01*
X10322500Y-12714143D01*
X10308214Y-12685571D01*
X10293928Y-12628429D01*
X10293928Y-12557000D01*
X10308214Y-12499857D01*
X10322500Y-12471286D01*
X10336786Y-12457000D01*
X10365357Y-12442714D01*
X10651071Y-12442714D02*
X10679643Y-12442714D01*
X10708214Y-12457000D01*
X10722500Y-12471286D01*
X10736786Y-12499857D01*
X10751071Y-12557000D01*
X10751071Y-12628429D01*
X10736786Y-12685571D01*
X10722500Y-12714143D01*
X10708214Y-12728429D01*
X10679643Y-12742714D01*
X10651071Y-12742714D01*
X10622500Y-12728429D01*
X10608214Y-12714143D01*
X10593928Y-12685571D01*
X10579643Y-12628429D01*
X10579643Y-12557000D01*
X10593928Y-12499857D01*
X10608214Y-12471286D01*
X10622500Y-12457000D01*
X10651071Y-12442714D01*
X10879643Y-12742714D02*
X10879643Y-12542714D01*
X10879643Y-12571286D02*
X10893928Y-12557000D01*
X10922500Y-12542714D01*
X10965357Y-12542714D01*
X10993928Y-12557000D01*
X11008214Y-12585571D01*
X11008214Y-12742714D01*
X11008214Y-12585571D02*
X11022500Y-12557000D01*
X11051071Y-12542714D01*
X11093928Y-12542714D01*
X11122500Y-12557000D01*
X11136786Y-12585571D01*
X11136786Y-12742714D01*
X11279643Y-12742714D02*
X11279643Y-12542714D01*
X11279643Y-12571286D02*
X11293928Y-12557000D01*
X11322500Y-12542714D01*
X11365357Y-12542714D01*
X11393928Y-12557000D01*
X11408214Y-12585571D01*
X11408214Y-12742714D01*
X11408214Y-12585571D02*
X11422500Y-12557000D01*
X11451071Y-12542714D01*
X11493928Y-12542714D01*
X11522500Y-12557000D01*
X11536786Y-12585571D01*
X11536786Y-12742714D01*
X12122500Y-12428429D02*
X11865357Y-12814143D01*
X12508214Y-12442714D02*
X12536786Y-12442714D01*
X12565357Y-12457000D01*
X12579643Y-12471286D01*
X12593928Y-12499857D01*
X12608214Y-12557000D01*
X12608214Y-12628429D01*
X12593928Y-12685571D01*
X12579643Y-12714143D01*
X12565357Y-12728429D01*
X12536786Y-12742714D01*
X12508214Y-12742714D01*
X12479643Y-12728429D01*
X12465357Y-12714143D01*
X12451071Y-12685571D01*
X12436786Y-12628429D01*
X12436786Y-12557000D01*
X12451071Y-12499857D01*
X12465357Y-12471286D01*
X12479643Y-12457000D01*
X12508214Y-12442714D01*
X12736786Y-12714143D02*
X12751071Y-12728429D01*
X12736786Y-12742714D01*
X12722500Y-12728429D01*
X12736786Y-12714143D01*
X12736786Y-12742714D01*
X12936786Y-12442714D02*
X12965357Y-12442714D01*
X12993928Y-12457000D01*
X13008214Y-12471286D01*
X13022500Y-12499857D01*
X13036786Y-12557000D01*
X13036786Y-12628429D01*
X13022500Y-12685571D01*
X13008214Y-12714143D01*
X12993928Y-12728429D01*
X12965357Y-12742714D01*
X12936786Y-12742714D01*
X12908214Y-12728429D01*
X12893928Y-12714143D01*
X12879643Y-12685571D01*
X12865357Y-12628429D01*
X12865357Y-12557000D01*
X12879643Y-12499857D01*
X12893928Y-12471286D01*
X12908214Y-12457000D01*
X12936786Y-12442714D01*
X13151071Y-12471286D02*
X13165357Y-12457000D01*
X13193928Y-12442714D01*
X13265357Y-12442714D01*
X13293928Y-12457000D01*
X13308214Y-12471286D01*
X13322500Y-12499857D01*
X13322500Y-12528429D01*
X13308214Y-12571286D01*
X13136786Y-12742714D01*
X13322500Y-12742714D01*
X13422500Y-12442714D02*
X13608214Y-12442714D01*
X13508214Y-12557000D01*
X13551071Y-12557000D01*
X13579643Y-12571286D01*
X13593928Y-12585571D01*
X13608214Y-12614143D01*
X13608214Y-12685571D01*
X13593928Y-12714143D01*
X13579643Y-12728429D01*
X13551071Y-12742714D01*
X13465357Y-12742714D01*
X13436786Y-12728429D01*
X13422500Y-12714143D01*
X13865357Y-12442714D02*
X13808214Y-12442714D01*
X13779643Y-12457000D01*
X13765357Y-12471286D01*
X13736786Y-12514143D01*
X13722500Y-12571286D01*
X13722500Y-12685571D01*
X13736786Y-12714143D01*
X13751071Y-12728429D01*
X13779643Y-12742714D01*
X13836786Y-12742714D01*
X13865357Y-12728429D01*
X13879643Y-12714143D01*
X13893928Y-12685571D01*
X13893928Y-12614143D01*
X13879643Y-12585571D01*
X13865357Y-12571286D01*
X13836786Y-12557000D01*
X13779643Y-12557000D01*
X13751071Y-12571286D01*
X13736786Y-12585571D01*
X13722500Y-12614143D01*
X14008214Y-12442714D02*
X14008214Y-12499857D01*
X14122500Y-12442714D02*
X14122500Y-12499857D01*
X14565357Y-12857000D02*
X14551071Y-12842714D01*
X14522500Y-12799857D01*
X14508214Y-12771286D01*
X14493928Y-12728429D01*
X14479643Y-12657000D01*
X14479643Y-12599857D01*
X14493928Y-12528429D01*
X14508214Y-12485571D01*
X14522500Y-12457000D01*
X14551071Y-12414143D01*
X14565357Y-12399857D01*
X14736786Y-12442714D02*
X14765357Y-12442714D01*
X14793928Y-12457000D01*
X14808214Y-12471286D01*
X14822500Y-12499857D01*
X14836786Y-12557000D01*
X14836786Y-12628429D01*
X14822500Y-12685571D01*
X14808214Y-12714143D01*
X14793928Y-12728429D01*
X14765357Y-12742714D01*
X14736786Y-12742714D01*
X14708214Y-12728429D01*
X14693928Y-12714143D01*
X14679643Y-12685571D01*
X14665357Y-12628429D01*
X14665357Y-12557000D01*
X14679643Y-12499857D01*
X14693928Y-12471286D01*
X14708214Y-12457000D01*
X14736786Y-12442714D01*
X15193928Y-12742714D02*
X15193928Y-12442714D01*
X15322500Y-12742714D02*
X15322500Y-12585571D01*
X15308214Y-12557000D01*
X15279643Y-12542714D01*
X15236786Y-12542714D01*
X15208214Y-12557000D01*
X15193928Y-12571286D01*
X15508214Y-12742714D02*
X15479643Y-12728429D01*
X15465357Y-12714143D01*
X15451071Y-12685571D01*
X15451071Y-12599857D01*
X15465357Y-12571286D01*
X15479643Y-12557000D01*
X15508214Y-12542714D01*
X15551071Y-12542714D01*
X15579643Y-12557000D01*
X15593928Y-12571286D01*
X15608214Y-12599857D01*
X15608214Y-12685571D01*
X15593928Y-12714143D01*
X15579643Y-12728429D01*
X15551071Y-12742714D01*
X15508214Y-12742714D01*
X15779643Y-12742714D02*
X15751071Y-12728429D01*
X15736786Y-12699857D01*
X15736786Y-12442714D01*
X16008214Y-12728429D02*
X15979643Y-12742714D01*
X15922500Y-12742714D01*
X15893928Y-12728429D01*
X15879643Y-12699857D01*
X15879643Y-12585571D01*
X15893928Y-12557000D01*
X15922500Y-12542714D01*
X15979643Y-12542714D01*
X16008214Y-12557000D01*
X16022500Y-12585571D01*
X16022500Y-12614143D01*
X15879643Y-12642714D01*
X16136786Y-12728429D02*
X16165357Y-12742714D01*
X16222500Y-12742714D01*
X16251071Y-12728429D01*
X16265357Y-12699857D01*
X16265357Y-12685571D01*
X16251071Y-12657000D01*
X16222500Y-12642714D01*
X16179643Y-12642714D01*
X16151071Y-12628429D01*
X16136786Y-12599857D01*
X16136786Y-12585571D01*
X16151071Y-12557000D01*
X16179643Y-12542714D01*
X16222500Y-12542714D01*
X16251071Y-12557000D01*
X16622500Y-12628429D02*
X16851071Y-12628429D01*
X16736786Y-12742714D02*
X16736786Y-12514143D01*
X17351071Y-12542714D02*
X17351071Y-12742714D01*
X17279643Y-12428429D02*
X17208214Y-12642714D01*
X17393928Y-12642714D01*
X17722500Y-12728429D02*
X17751071Y-12742714D01*
X17808214Y-12742714D01*
X17836786Y-12728429D01*
X17851071Y-12699857D01*
X17851071Y-12685571D01*
X17836786Y-12657000D01*
X17808214Y-12642714D01*
X17765357Y-12642714D01*
X17736786Y-12628429D01*
X17722500Y-12599857D01*
X17722500Y-12585571D01*
X17736786Y-12557000D01*
X17765357Y-12542714D01*
X17808214Y-12542714D01*
X17836786Y-12557000D01*
X18022500Y-12742714D02*
X17993928Y-12728429D01*
X17979643Y-12699857D01*
X17979643Y-12442714D01*
X18179643Y-12742714D02*
X18151071Y-12728429D01*
X18136786Y-12714143D01*
X18122500Y-12685571D01*
X18122500Y-12599857D01*
X18136786Y-12571286D01*
X18151071Y-12557000D01*
X18179643Y-12542714D01*
X18222500Y-12542714D01*
X18251071Y-12557000D01*
X18265357Y-12571286D01*
X18279643Y-12599857D01*
X18279643Y-12685571D01*
X18265357Y-12714143D01*
X18251071Y-12728429D01*
X18222500Y-12742714D01*
X18179643Y-12742714D01*
X18365357Y-12542714D02*
X18479643Y-12542714D01*
X18408214Y-12442714D02*
X18408214Y-12699857D01*
X18422500Y-12728429D01*
X18451071Y-12742714D01*
X18479643Y-12742714D01*
X18565357Y-12728429D02*
X18593928Y-12742714D01*
X18651071Y-12742714D01*
X18679643Y-12728429D01*
X18693928Y-12699857D01*
X18693928Y-12685571D01*
X18679643Y-12657000D01*
X18651071Y-12642714D01*
X18608214Y-12642714D01*
X18579643Y-12628429D01*
X18565357Y-12599857D01*
X18565357Y-12585571D01*
X18579643Y-12557000D01*
X18608214Y-12542714D01*
X18651071Y-12542714D01*
X18679643Y-12557000D01*
X18793928Y-12857000D02*
X18808214Y-12842714D01*
X18836786Y-12799857D01*
X18851071Y-12771286D01*
X18865357Y-12728429D01*
X18879643Y-12657000D01*
X18879643Y-12599857D01*
X18865357Y-12528429D01*
X18851071Y-12485571D01*
X18836786Y-12457000D01*
X18808214Y-12414143D01*
X18793928Y-12399857D01*
X9292856Y-13038356D02*
X9292856Y-12967644D01*
X9222144Y-12967644D01*
X9222144Y-13038356D01*
X9292856Y-13038356D01*
X9751071Y-13138714D02*
X9579643Y-13138714D01*
X9665357Y-13138714D02*
X9665357Y-12838714D01*
X9636786Y-12881571D01*
X9608214Y-12910143D01*
X9579643Y-12924429D01*
X9879643Y-13110143D02*
X9893928Y-13124429D01*
X9879643Y-13138714D01*
X9865357Y-13124429D01*
X9879643Y-13110143D01*
X9879643Y-13138714D01*
X10079643Y-12838714D02*
X10108214Y-12838714D01*
X10136786Y-12853000D01*
X10151071Y-12867286D01*
X10165357Y-12895857D01*
X10179643Y-12953000D01*
X10179643Y-13024429D01*
X10165357Y-13081571D01*
X10151071Y-13110143D01*
X10136786Y-13124429D01*
X10108214Y-13138714D01*
X10079643Y-13138714D01*
X10051071Y-13124429D01*
X10036786Y-13110143D01*
X10022500Y-13081571D01*
X10008214Y-13024429D01*
X10008214Y-12953000D01*
X10022500Y-12895857D01*
X10036786Y-12867286D01*
X10051071Y-12853000D01*
X10079643Y-12838714D01*
X10365357Y-12838714D02*
X10393928Y-12838714D01*
X10422500Y-12853000D01*
X10436786Y-12867286D01*
X10451071Y-12895857D01*
X10465357Y-12953000D01*
X10465357Y-13024429D01*
X10451071Y-13081571D01*
X10436786Y-13110143D01*
X10422500Y-13124429D01*
X10393928Y-13138714D01*
X10365357Y-13138714D01*
X10336786Y-13124429D01*
X10322500Y-13110143D01*
X10308214Y-13081571D01*
X10293928Y-13024429D01*
X10293928Y-12953000D01*
X10308214Y-12895857D01*
X10322500Y-12867286D01*
X10336786Y-12853000D01*
X10365357Y-12838714D01*
X10651071Y-12838714D02*
X10679643Y-12838714D01*
X10708214Y-12853000D01*
X10722500Y-12867286D01*
X10736786Y-12895857D01*
X10751071Y-12953000D01*
X10751071Y-13024429D01*
X10736786Y-13081571D01*
X10722500Y-13110143D01*
X10708214Y-13124429D01*
X10679643Y-13138714D01*
X10651071Y-13138714D01*
X10622500Y-13124429D01*
X10608214Y-13110143D01*
X10593928Y-13081571D01*
X10579643Y-13024429D01*
X10579643Y-12953000D01*
X10593928Y-12895857D01*
X10608214Y-12867286D01*
X10622500Y-12853000D01*
X10651071Y-12838714D01*
X10879643Y-13138714D02*
X10879643Y-12938714D01*
X10879643Y-12967286D02*
X10893928Y-12953000D01*
X10922500Y-12938714D01*
X10965357Y-12938714D01*
X10993928Y-12953000D01*
X11008214Y-12981571D01*
X11008214Y-13138714D01*
X11008214Y-12981571D02*
X11022500Y-12953000D01*
X11051071Y-12938714D01*
X11093928Y-12938714D01*
X11122500Y-12953000D01*
X11136786Y-12981571D01*
X11136786Y-13138714D01*
X11279643Y-13138714D02*
X11279643Y-12938714D01*
X11279643Y-12967286D02*
X11293928Y-12953000D01*
X11322500Y-12938714D01*
X11365357Y-12938714D01*
X11393928Y-12953000D01*
X11408214Y-12981571D01*
X11408214Y-13138714D01*
X11408214Y-12981571D02*
X11422500Y-12953000D01*
X11451071Y-12938714D01*
X11493928Y-12938714D01*
X11522500Y-12953000D01*
X11536786Y-12981571D01*
X11536786Y-13138714D01*
X12122500Y-12824429D02*
X11865357Y-13210143D01*
X12508214Y-12838714D02*
X12536786Y-12838714D01*
X12565357Y-12853000D01*
X12579643Y-12867286D01*
X12593928Y-12895857D01*
X12608214Y-12953000D01*
X12608214Y-13024429D01*
X12593928Y-13081571D01*
X12579643Y-13110143D01*
X12565357Y-13124429D01*
X12536786Y-13138714D01*
X12508214Y-13138714D01*
X12479643Y-13124429D01*
X12465357Y-13110143D01*
X12451071Y-13081571D01*
X12436786Y-13024429D01*
X12436786Y-12953000D01*
X12451071Y-12895857D01*
X12465357Y-12867286D01*
X12479643Y-12853000D01*
X12508214Y-12838714D01*
X12736786Y-13110143D02*
X12751071Y-13124429D01*
X12736786Y-13138714D01*
X12722500Y-13124429D01*
X12736786Y-13110143D01*
X12736786Y-13138714D01*
X12936786Y-12838714D02*
X12965357Y-12838714D01*
X12993928Y-12853000D01*
X13008214Y-12867286D01*
X13022500Y-12895857D01*
X13036786Y-12953000D01*
X13036786Y-13024429D01*
X13022500Y-13081571D01*
X13008214Y-13110143D01*
X12993928Y-13124429D01*
X12965357Y-13138714D01*
X12936786Y-13138714D01*
X12908214Y-13124429D01*
X12893928Y-13110143D01*
X12879643Y-13081571D01*
X12865357Y-13024429D01*
X12865357Y-12953000D01*
X12879643Y-12895857D01*
X12893928Y-12867286D01*
X12908214Y-12853000D01*
X12936786Y-12838714D01*
X13136786Y-12838714D02*
X13322500Y-12838714D01*
X13222500Y-12953000D01*
X13265357Y-12953000D01*
X13293928Y-12967286D01*
X13308214Y-12981571D01*
X13322500Y-13010143D01*
X13322500Y-13081571D01*
X13308214Y-13110143D01*
X13293928Y-13124429D01*
X13265357Y-13138714D01*
X13179643Y-13138714D01*
X13151071Y-13124429D01*
X13136786Y-13110143D01*
X13465357Y-13138714D02*
X13522500Y-13138714D01*
X13551071Y-13124429D01*
X13565357Y-13110143D01*
X13593928Y-13067286D01*
X13608214Y-13010143D01*
X13608214Y-12895857D01*
X13593928Y-12867286D01*
X13579643Y-12853000D01*
X13551071Y-12838714D01*
X13493928Y-12838714D01*
X13465357Y-12853000D01*
X13451071Y-12867286D01*
X13436786Y-12895857D01*
X13436786Y-12967286D01*
X13451071Y-12995857D01*
X13465357Y-13010143D01*
X13493928Y-13024429D01*
X13551071Y-13024429D01*
X13579643Y-13010143D01*
X13593928Y-12995857D01*
X13608214Y-12967286D01*
X13865357Y-12938714D02*
X13865357Y-13138714D01*
X13793928Y-12824429D02*
X13722500Y-13038714D01*
X13908214Y-13038714D01*
X14008214Y-12838714D02*
X14008214Y-12895857D01*
X14122500Y-12838714D02*
X14122500Y-12895857D01*
X14565357Y-13253000D02*
X14551071Y-13238714D01*
X14522500Y-13195857D01*
X14508214Y-13167286D01*
X14493928Y-13124429D01*
X14479643Y-13053000D01*
X14479643Y-12995857D01*
X14493928Y-12924429D01*
X14508214Y-12881571D01*
X14522500Y-12853000D01*
X14551071Y-12810143D01*
X14565357Y-12795857D01*
X14722500Y-12967286D02*
X14693928Y-12953000D01*
X14679643Y-12938714D01*
X14665357Y-12910143D01*
X14665357Y-12895857D01*
X14679643Y-12867286D01*
X14693928Y-12853000D01*
X14722500Y-12838714D01*
X14779643Y-12838714D01*
X14808214Y-12853000D01*
X14822500Y-12867286D01*
X14836786Y-12895857D01*
X14836786Y-12910143D01*
X14822500Y-12938714D01*
X14808214Y-12953000D01*
X14779643Y-12967286D01*
X14722500Y-12967286D01*
X14693928Y-12981571D01*
X14679643Y-12995857D01*
X14665357Y-13024429D01*
X14665357Y-13081571D01*
X14679643Y-13110143D01*
X14693928Y-13124429D01*
X14722500Y-13138714D01*
X14779643Y-13138714D01*
X14808214Y-13124429D01*
X14822500Y-13110143D01*
X14836786Y-13081571D01*
X14836786Y-13024429D01*
X14822500Y-12995857D01*
X14808214Y-12981571D01*
X14779643Y-12967286D01*
X14936786Y-12838714D02*
X15122500Y-12838714D01*
X15022500Y-12953000D01*
X15065357Y-12953000D01*
X15093928Y-12967286D01*
X15108214Y-12981571D01*
X15122500Y-13010143D01*
X15122500Y-13081571D01*
X15108214Y-13110143D01*
X15093928Y-13124429D01*
X15065357Y-13138714D01*
X14979643Y-13138714D01*
X14951071Y-13124429D01*
X14936786Y-13110143D01*
X15479643Y-13138714D02*
X15479643Y-12838714D01*
X15608214Y-13138714D02*
X15608214Y-12981571D01*
X15593928Y-12953000D01*
X15565357Y-12938714D01*
X15522500Y-12938714D01*
X15493928Y-12953000D01*
X15479643Y-12967286D01*
X15793928Y-13138714D02*
X15765357Y-13124429D01*
X15751071Y-13110143D01*
X15736786Y-13081571D01*
X15736786Y-12995857D01*
X15751071Y-12967286D01*
X15765357Y-12953000D01*
X15793928Y-12938714D01*
X15836786Y-12938714D01*
X15865357Y-12953000D01*
X15879643Y-12967286D01*
X15893928Y-12995857D01*
X15893928Y-13081571D01*
X15879643Y-13110143D01*
X15865357Y-13124429D01*
X15836786Y-13138714D01*
X15793928Y-13138714D01*
X16065357Y-13138714D02*
X16036786Y-13124429D01*
X16022500Y-13095857D01*
X16022500Y-12838714D01*
X16293928Y-13124429D02*
X16265357Y-13138714D01*
X16208214Y-13138714D01*
X16179643Y-13124429D01*
X16165357Y-13095857D01*
X16165357Y-12981571D01*
X16179643Y-12953000D01*
X16208214Y-12938714D01*
X16265357Y-12938714D01*
X16293928Y-12953000D01*
X16308214Y-12981571D01*
X16308214Y-13010143D01*
X16165357Y-13038714D01*
X16422500Y-13124429D02*
X16451071Y-13138714D01*
X16508214Y-13138714D01*
X16536786Y-13124429D01*
X16551071Y-13095857D01*
X16551071Y-13081571D01*
X16536786Y-13053000D01*
X16508214Y-13038714D01*
X16465357Y-13038714D01*
X16436786Y-13024429D01*
X16422500Y-12995857D01*
X16422500Y-12981571D01*
X16436786Y-12953000D01*
X16465357Y-12938714D01*
X16508214Y-12938714D01*
X16536786Y-12953000D01*
X16651071Y-13253000D02*
X16665357Y-13238714D01*
X16693928Y-13195857D01*
X16708214Y-13167286D01*
X16722500Y-13124429D01*
X16736786Y-13053000D01*
X16736786Y-12995857D01*
X16722500Y-12924429D01*
X16708214Y-12881571D01*
X16693928Y-12853000D01*
X16665357Y-12810143D01*
X16651071Y-12795857D01*
M02*
