%FSLAX45Y45*%
G04 Gerber Fmt 4.5, Leading zero omitted, Abs format (unit mm)*
G04 Created by KiCad (PCBNEW (5.1.10)-1) date 2021-08-23 21:03:32*
%MOMM*%
%LPD*%
G01*
G04 APERTURE LIST*
%TA.AperFunction,Profile*%
%ADD10C,0.050000*%
%TD*%
%ADD11C,0.200000*%
%ADD12C,0.300000*%
G04 APERTURE END LIST*
D10*
X11440000Y-10802500D02*
G75*
G02*
X11390000Y-10852500I-50000J0D01*
G01*
X9340000Y-10852500D02*
G75*
G02*
X9290000Y-10802500I0J50000D01*
G01*
X9290000Y-5772500D02*
G75*
G02*
X9340000Y-5722500I50000J0D01*
G01*
X11390000Y-5722500D02*
G75*
G02*
X11440000Y-5772500I0J-50000D01*
G01*
X11440000Y-10802500D02*
X11440000Y-5772500D01*
X9340000Y-5722500D02*
X11390000Y-5722500D01*
X9290000Y-10802500D02*
X9290000Y-5772500D01*
X9340000Y-10852500D02*
X11390000Y-10852500D01*
D11*
X9614000Y-6502500D02*
X9634000Y-6522500D01*
X9634000Y-6502500D02*
X9614000Y-6522500D01*
X9686000Y-9016500D02*
X9706000Y-9036500D01*
X9706000Y-9016500D02*
X9686000Y-9036500D01*
X9758000Y-10132500D02*
X9778000Y-10152500D01*
X9778000Y-10132500D02*
X9758000Y-10152500D01*
X9767000Y-7564500D02*
X9787000Y-7584500D01*
X9787000Y-7564500D02*
X9767000Y-7584500D01*
X9789000Y-7413500D02*
X9809000Y-7433500D01*
X9809000Y-7413500D02*
X9789000Y-7433500D01*
X9822000Y-7281500D02*
X9842000Y-7301500D01*
X9842000Y-7281500D02*
X9822000Y-7301500D01*
X9961000Y-7608500D02*
X9981000Y-7628500D01*
X9981000Y-7608500D02*
X9961000Y-7628500D01*
X10096620Y-7980720D02*
X10116620Y-8000720D01*
X10116620Y-7980720D02*
X10096620Y-8000720D01*
X10102540Y-8339000D02*
X10122540Y-8359000D01*
X10122540Y-8339000D02*
X10102540Y-8359000D01*
X10274420Y-6334800D02*
X10294420Y-6354800D01*
X10294420Y-6334800D02*
X10274420Y-6354800D01*
X10320137Y-8072040D02*
X10340137Y-8092040D01*
X10340137Y-8072040D02*
X10320137Y-8092040D01*
X10324999Y-6286539D02*
X10344999Y-6306539D01*
X10344999Y-6286539D02*
X10324999Y-6306539D01*
X10350000Y-6614500D02*
X10370000Y-6634500D01*
X10370000Y-6614500D02*
X10350000Y-6634500D01*
X10375000Y-6334619D02*
X10395000Y-6354619D01*
X10395000Y-6334619D02*
X10375000Y-6354619D01*
X10424280Y-6286541D02*
X10444280Y-6306541D01*
X10444280Y-6286541D02*
X10424280Y-6306541D01*
X10426390Y-7788582D02*
X10446390Y-7808582D01*
X10446390Y-7788582D02*
X10426390Y-7808582D01*
X10523473Y-7788396D02*
X10543473Y-7808396D01*
X10543473Y-7788396D02*
X10523473Y-7808396D01*
X10563296Y-8129699D02*
X10583296Y-8149699D01*
X10583296Y-8129699D02*
X10563296Y-8149699D01*
X10662500Y-7007500D02*
X10682500Y-7027500D01*
X10682500Y-7007500D02*
X10662500Y-7027500D01*
X10672500Y-6452000D02*
X10692500Y-6472000D01*
X10692500Y-6452000D02*
X10672500Y-6472000D01*
X10720000Y-6912500D02*
X10740000Y-6932500D01*
X10740000Y-6912500D02*
X10720000Y-6932500D01*
X10720000Y-7102500D02*
X10740000Y-7122500D01*
X10740000Y-7102500D02*
X10720000Y-7122500D01*
X10763756Y-6738800D02*
X10783756Y-6758800D01*
X10783756Y-6738800D02*
X10763756Y-6758800D01*
X10777500Y-7007500D02*
X10797500Y-7027500D01*
X10797500Y-7007500D02*
X10777500Y-7027500D01*
X11008480Y-8059460D02*
X11028480Y-8079460D01*
X11028480Y-8059460D02*
X11008480Y-8079460D01*
X11009000Y-10180500D02*
X11029000Y-10200500D01*
X11029000Y-10180500D02*
X11009000Y-10200500D01*
X11034000Y-8484000D02*
X11054000Y-8504000D01*
X11054000Y-8484000D02*
X11034000Y-8504000D01*
X9662500Y-6192500D02*
G75*
G03*
X9662500Y-6192500I-17500J0D01*
G01*
X9677500Y-8732500D02*
G75*
G03*
X9677500Y-8732500I-17500J0D01*
G01*
X9687500Y-8533500D02*
G75*
G03*
X9687500Y-8533500I-17500J0D01*
G01*
X9746693Y-8472500D02*
G75*
G03*
X9746693Y-8472500I-17500J0D01*
G01*
X9790000Y-8187500D02*
G75*
G03*
X9790000Y-8187500I-17500J0D01*
G01*
X9799194Y-8571999D02*
G75*
G03*
X9799194Y-8571999I-17500J0D01*
G01*
X9858593Y-8526207D02*
G75*
G03*
X9858593Y-8526207I-17500J0D01*
G01*
X9883500Y-8452500D02*
G75*
G03*
X9883500Y-8452500I-17500J0D01*
G01*
X10037500Y-8957500D02*
G75*
G03*
X10037500Y-8957500I-17500J0D01*
G01*
X10043750Y-8236250D02*
G75*
G03*
X10043750Y-8236250I-17500J0D01*
G01*
X10055000Y-6462000D02*
G75*
G03*
X10055000Y-6462000I-17500J0D01*
G01*
X10134500Y-7620640D02*
G75*
G03*
X10134500Y-7620640I-17500J0D01*
G01*
X10202500Y-9210000D02*
G75*
G03*
X10202500Y-9210000I-17500J0D01*
G01*
X10254000Y-8475000D02*
G75*
G03*
X10254000Y-8475000I-17500J0D01*
G01*
X10254000Y-8602500D02*
G75*
G03*
X10254000Y-8602500I-17500J0D01*
G01*
X10254000Y-8730000D02*
G75*
G03*
X10254000Y-8730000I-17500J0D01*
G01*
X10381500Y-8475000D02*
G75*
G03*
X10381500Y-8475000I-17500J0D01*
G01*
X10381500Y-8602500D02*
G75*
G03*
X10381500Y-8602500I-17500J0D01*
G01*
X10381500Y-8730000D02*
G75*
G03*
X10381500Y-8730000I-17500J0D01*
G01*
X10445927Y-9088028D02*
G75*
G03*
X10445927Y-9088028I-17500J0D01*
G01*
X10451500Y-8812500D02*
G75*
G03*
X10451500Y-8812500I-17500J0D01*
G01*
X10509000Y-8475000D02*
G75*
G03*
X10509000Y-8475000I-17500J0D01*
G01*
X10509000Y-8602500D02*
G75*
G03*
X10509000Y-8602500I-17500J0D01*
G01*
X10509000Y-8730000D02*
G75*
G03*
X10509000Y-8730000I-17500J0D01*
G01*
X10524000Y-8372500D02*
G75*
G03*
X10524000Y-8372500I-17500J0D01*
G01*
X10527804Y-9363984D02*
G75*
G03*
X10527804Y-9363984I-17500J0D01*
G01*
X10777500Y-9222500D02*
G75*
G03*
X10777500Y-9222500I-17500J0D01*
G01*
X10867500Y-9012500D02*
G75*
G03*
X10867500Y-9012500I-17500J0D01*
G01*
X10897500Y-9317500D02*
G75*
G03*
X10897500Y-9317500I-17500J0D01*
G01*
X10936920Y-7368420D02*
G75*
G03*
X10936920Y-7368420I-17500J0D01*
G01*
X11048504Y-7358908D02*
G75*
G03*
X11048504Y-7358908I-17500J0D01*
G01*
X11054600Y-7777500D02*
G75*
G03*
X11054600Y-7777500I-17500J0D01*
G01*
X9933000Y-5922500D02*
X9933000Y-5982500D01*
X9903000Y-5952500D02*
X9963000Y-5952500D01*
X9953000Y-5982500D02*
X9953000Y-5922500D01*
X9913000Y-5982500D02*
X9913000Y-5922500D01*
X9953000Y-5922500D02*
G75*
G03*
X9913000Y-5922500I-20000J0D01*
G01*
X9913000Y-5982500D02*
G75*
G03*
X9953000Y-5982500I20000J0D01*
G01*
X9933000Y-6340500D02*
X9933000Y-6400500D01*
X9903000Y-6370500D02*
X9963000Y-6370500D01*
X9953000Y-6425500D02*
X9953000Y-6315500D01*
X9913000Y-6425500D02*
X9913000Y-6315500D01*
X9953000Y-6315500D02*
G75*
G03*
X9913000Y-6315500I-20000J0D01*
G01*
X9913000Y-6425500D02*
G75*
G03*
X9953000Y-6425500I20000J0D01*
G01*
X10797000Y-5922500D02*
X10797000Y-5982500D01*
X10767000Y-5952500D02*
X10827000Y-5952500D01*
X10817000Y-5982500D02*
X10817000Y-5922500D01*
X10777000Y-5982500D02*
X10777000Y-5922500D01*
X10817000Y-5922500D02*
G75*
G03*
X10777000Y-5922500I-20000J0D01*
G01*
X10777000Y-5982500D02*
G75*
G03*
X10817000Y-5982500I20000J0D01*
G01*
X10797000Y-6340500D02*
X10797000Y-6400500D01*
X10767000Y-6370500D02*
X10827000Y-6370500D01*
X10817000Y-6425500D02*
X10817000Y-6315500D01*
X10777000Y-6425500D02*
X10777000Y-6315500D01*
X10817000Y-6315500D02*
G75*
G03*
X10777000Y-6315500I-20000J0D01*
G01*
X10777000Y-6425500D02*
G75*
G03*
X10817000Y-6425500I20000J0D01*
G01*
X9339356Y-9209856D02*
X9339356Y-9139144D01*
X9268644Y-9139144D01*
X9268644Y-9209856D01*
X9339356Y-9209856D01*
X9340356Y-5907856D02*
X9340356Y-5837144D01*
X9269644Y-5837144D01*
X9269644Y-5907856D01*
X9340356Y-5907856D01*
X9340356Y-6160856D02*
X9340356Y-6090144D01*
X9269644Y-6090144D01*
X9269644Y-6160856D01*
X9340356Y-6160856D01*
X9340356Y-6415856D02*
X9340356Y-6345144D01*
X9269644Y-6345144D01*
X9269644Y-6415856D01*
X9340356Y-6415856D01*
X9340356Y-6668856D02*
X9340356Y-6598144D01*
X9269644Y-6598144D01*
X9269644Y-6668856D01*
X9340356Y-6668856D01*
X9340356Y-6923856D02*
X9340356Y-6853144D01*
X9269644Y-6853144D01*
X9269644Y-6923856D01*
X9340356Y-6923856D01*
X9340356Y-7177856D02*
X9340356Y-7107144D01*
X9269644Y-7107144D01*
X9269644Y-7177856D01*
X9340356Y-7177856D01*
X9340356Y-7431856D02*
X9340356Y-7361144D01*
X9269644Y-7361144D01*
X9269644Y-7431856D01*
X9340356Y-7431856D01*
X9340356Y-7685856D02*
X9340356Y-7615144D01*
X9269644Y-7615144D01*
X9269644Y-7685856D01*
X9340356Y-7685856D01*
X9340356Y-8193856D02*
X9340356Y-8123144D01*
X9269644Y-8123144D01*
X9269644Y-8193856D01*
X9340356Y-8193856D01*
X9340356Y-8447856D02*
X9340356Y-8377144D01*
X9269644Y-8377144D01*
X9269644Y-8447856D01*
X9340356Y-8447856D01*
X9340356Y-8701856D02*
X9340356Y-8631144D01*
X9269644Y-8631144D01*
X9269644Y-8701856D01*
X9340356Y-8701856D01*
X9340356Y-8955856D02*
X9340356Y-8885144D01*
X9269644Y-8885144D01*
X9269644Y-8955856D01*
X9340356Y-8955856D01*
X9340356Y-9463856D02*
X9340356Y-9393144D01*
X9269644Y-9393144D01*
X9269644Y-9463856D01*
X9340356Y-9463856D01*
X9340356Y-9717856D02*
X9340356Y-9647144D01*
X9269644Y-9647144D01*
X9269644Y-9717856D01*
X9340356Y-9717856D01*
X9340356Y-9971856D02*
X9340356Y-9901144D01*
X9269644Y-9901144D01*
X9269644Y-9971856D01*
X9340356Y-9971856D01*
X9340356Y-10225856D02*
X9340356Y-10155144D01*
X9269644Y-10155144D01*
X9269644Y-10225856D01*
X9340356Y-10225856D01*
X9340356Y-10479856D02*
X9340356Y-10409144D01*
X9269644Y-10409144D01*
X9269644Y-10479856D01*
X9340356Y-10479856D01*
X9340356Y-10733856D02*
X9340356Y-10663144D01*
X9269644Y-10663144D01*
X9269644Y-10733856D01*
X9340356Y-10733856D01*
X9341356Y-7939856D02*
X9341356Y-7869144D01*
X9270644Y-7869144D01*
X9270644Y-7939856D01*
X9341356Y-7939856D01*
X9510356Y-5907856D02*
X9510356Y-5837144D01*
X9439644Y-5837144D01*
X9439644Y-5907856D01*
X9510356Y-5907856D01*
X9510356Y-6161856D02*
X9510356Y-6091144D01*
X9439644Y-6091144D01*
X9439644Y-6161856D01*
X9510356Y-6161856D01*
X9510356Y-6415856D02*
X9510356Y-6345144D01*
X9439644Y-6345144D01*
X9439644Y-6415856D01*
X9510356Y-6415856D01*
X9510356Y-6669856D02*
X9510356Y-6599144D01*
X9439644Y-6599144D01*
X9439644Y-6669856D01*
X9510356Y-6669856D01*
X9510356Y-6923856D02*
X9510356Y-6853144D01*
X9439644Y-6853144D01*
X9439644Y-6923856D01*
X9510356Y-6923856D01*
X9510356Y-7177856D02*
X9510356Y-7107144D01*
X9439644Y-7107144D01*
X9439644Y-7177856D01*
X9510356Y-7177856D01*
X9510356Y-7431856D02*
X9510356Y-7361144D01*
X9439644Y-7361144D01*
X9439644Y-7431856D01*
X9510356Y-7431856D01*
X9510356Y-7685856D02*
X9510356Y-7615144D01*
X9439644Y-7615144D01*
X9439644Y-7685856D01*
X9510356Y-7685856D01*
X9510356Y-7939856D02*
X9510356Y-7869144D01*
X9439644Y-7869144D01*
X9439644Y-7939856D01*
X9510356Y-7939856D01*
X9510356Y-8193856D02*
X9510356Y-8123144D01*
X9439644Y-8123144D01*
X9439644Y-8193856D01*
X9510356Y-8193856D01*
X9510356Y-8447856D02*
X9510356Y-8377144D01*
X9439644Y-8377144D01*
X9439644Y-8447856D01*
X9510356Y-8447856D01*
X9510356Y-8701856D02*
X9510356Y-8631144D01*
X9439644Y-8631144D01*
X9439644Y-8701856D01*
X9510356Y-8701856D01*
X9510356Y-8955856D02*
X9510356Y-8885144D01*
X9439644Y-8885144D01*
X9439644Y-8955856D01*
X9510356Y-8955856D01*
X9510356Y-9209856D02*
X9510356Y-9139144D01*
X9439644Y-9139144D01*
X9439644Y-9209856D01*
X9510356Y-9209856D01*
X9510356Y-9463856D02*
X9510356Y-9393144D01*
X9439644Y-9393144D01*
X9439644Y-9463856D01*
X9510356Y-9463856D01*
X9510356Y-9717856D02*
X9510356Y-9647144D01*
X9439644Y-9647144D01*
X9439644Y-9717856D01*
X9510356Y-9717856D01*
X9510356Y-9971856D02*
X9510356Y-9901144D01*
X9439644Y-9901144D01*
X9439644Y-9971856D01*
X9510356Y-9971856D01*
X9510356Y-10225856D02*
X9510356Y-10155144D01*
X9439644Y-10155144D01*
X9439644Y-10225856D01*
X9510356Y-10225856D01*
X9510356Y-10479856D02*
X9510356Y-10409144D01*
X9439644Y-10409144D01*
X9439644Y-10479856D01*
X9510356Y-10479856D01*
X9510356Y-10733856D02*
X9510356Y-10663144D01*
X9439644Y-10663144D01*
X9439644Y-10733856D01*
X9510356Y-10733856D01*
X10150356Y-10727856D02*
X10150356Y-10657144D01*
X10079644Y-10657144D01*
X10079644Y-10727856D01*
X10150356Y-10727856D01*
X10404356Y-10727856D02*
X10404356Y-10657144D01*
X10333644Y-10657144D01*
X10333644Y-10727856D01*
X10404356Y-10727856D01*
X10658356Y-10727856D02*
X10658356Y-10657144D01*
X10587644Y-10657144D01*
X10587644Y-10727856D01*
X10658356Y-10727856D01*
X11290356Y-5907856D02*
X11290356Y-5837144D01*
X11219644Y-5837144D01*
X11219644Y-5907856D01*
X11290356Y-5907856D01*
X11290356Y-6161856D02*
X11290356Y-6091144D01*
X11219644Y-6091144D01*
X11219644Y-6161856D01*
X11290356Y-6161856D01*
X11290356Y-6415856D02*
X11290356Y-6345144D01*
X11219644Y-6345144D01*
X11219644Y-6415856D01*
X11290356Y-6415856D01*
X11290356Y-6669856D02*
X11290356Y-6599144D01*
X11219644Y-6599144D01*
X11219644Y-6669856D01*
X11290356Y-6669856D01*
X11290356Y-6923856D02*
X11290356Y-6853144D01*
X11219644Y-6853144D01*
X11219644Y-6923856D01*
X11290356Y-6923856D01*
X11290356Y-7177856D02*
X11290356Y-7107144D01*
X11219644Y-7107144D01*
X11219644Y-7177856D01*
X11290356Y-7177856D01*
X11290356Y-7431856D02*
X11290356Y-7361144D01*
X11219644Y-7361144D01*
X11219644Y-7431856D01*
X11290356Y-7431856D01*
X11290356Y-7685856D02*
X11290356Y-7615144D01*
X11219644Y-7615144D01*
X11219644Y-7685856D01*
X11290356Y-7685856D01*
X11290356Y-7939856D02*
X11290356Y-7869144D01*
X11219644Y-7869144D01*
X11219644Y-7939856D01*
X11290356Y-7939856D01*
X11290356Y-8193856D02*
X11290356Y-8123144D01*
X11219644Y-8123144D01*
X11219644Y-8193856D01*
X11290356Y-8193856D01*
X11290356Y-8447856D02*
X11290356Y-8377144D01*
X11219644Y-8377144D01*
X11219644Y-8447856D01*
X11290356Y-8447856D01*
X11290356Y-8701856D02*
X11290356Y-8631144D01*
X11219644Y-8631144D01*
X11219644Y-8701856D01*
X11290356Y-8701856D01*
X11290356Y-8955856D02*
X11290356Y-8885144D01*
X11219644Y-8885144D01*
X11219644Y-8955856D01*
X11290356Y-8955856D01*
X11290356Y-9209856D02*
X11290356Y-9139144D01*
X11219644Y-9139144D01*
X11219644Y-9209856D01*
X11290356Y-9209856D01*
X11290356Y-9463856D02*
X11290356Y-9393144D01*
X11219644Y-9393144D01*
X11219644Y-9463856D01*
X11290356Y-9463856D01*
X11290356Y-9717856D02*
X11290356Y-9647144D01*
X11219644Y-9647144D01*
X11219644Y-9717856D01*
X11290356Y-9717856D01*
X11290356Y-9971856D02*
X11290356Y-9901144D01*
X11219644Y-9901144D01*
X11219644Y-9971856D01*
X11290356Y-9971856D01*
X11290356Y-10225856D02*
X11290356Y-10155144D01*
X11219644Y-10155144D01*
X11219644Y-10225856D01*
X11290356Y-10225856D01*
X11290356Y-10479856D02*
X11290356Y-10409144D01*
X11219644Y-10409144D01*
X11219644Y-10479856D01*
X11290356Y-10479856D01*
X11290356Y-10733856D02*
X11290356Y-10663144D01*
X11219644Y-10663144D01*
X11219644Y-10733856D01*
X11290356Y-10733856D01*
X11460356Y-5907856D02*
X11460356Y-5837144D01*
X11389644Y-5837144D01*
X11389644Y-5907856D01*
X11460356Y-5907856D01*
X11460356Y-6161856D02*
X11460356Y-6091144D01*
X11389644Y-6091144D01*
X11389644Y-6161856D01*
X11460356Y-6161856D01*
X11460356Y-6415856D02*
X11460356Y-6345144D01*
X11389644Y-6345144D01*
X11389644Y-6415856D01*
X11460356Y-6415856D01*
X11460356Y-6669856D02*
X11460356Y-6599144D01*
X11389644Y-6599144D01*
X11389644Y-6669856D01*
X11460356Y-6669856D01*
X11460356Y-6923856D02*
X11460356Y-6853144D01*
X11389644Y-6853144D01*
X11389644Y-6923856D01*
X11460356Y-6923856D01*
X11460356Y-7177856D02*
X11460356Y-7107144D01*
X11389644Y-7107144D01*
X11389644Y-7177856D01*
X11460356Y-7177856D01*
X11460356Y-7431856D02*
X11460356Y-7361144D01*
X11389644Y-7361144D01*
X11389644Y-7431856D01*
X11460356Y-7431856D01*
X11460356Y-7685856D02*
X11460356Y-7615144D01*
X11389644Y-7615144D01*
X11389644Y-7685856D01*
X11460356Y-7685856D01*
X11460356Y-7939856D02*
X11460356Y-7869144D01*
X11389644Y-7869144D01*
X11389644Y-7939856D01*
X11460356Y-7939856D01*
X11460356Y-8193856D02*
X11460356Y-8123144D01*
X11389644Y-8123144D01*
X11389644Y-8193856D01*
X11460356Y-8193856D01*
X11460356Y-8447856D02*
X11460356Y-8377144D01*
X11389644Y-8377144D01*
X11389644Y-8447856D01*
X11460356Y-8447856D01*
X11460356Y-8701856D02*
X11460356Y-8631144D01*
X11389644Y-8631144D01*
X11389644Y-8701856D01*
X11460356Y-8701856D01*
X11460356Y-8955856D02*
X11460356Y-8885144D01*
X11389644Y-8885144D01*
X11389644Y-8955856D01*
X11460356Y-8955856D01*
X11460356Y-9209856D02*
X11460356Y-9139144D01*
X11389644Y-9139144D01*
X11389644Y-9209856D01*
X11460356Y-9209856D01*
X11460356Y-9463856D02*
X11460356Y-9393144D01*
X11389644Y-9393144D01*
X11389644Y-9463856D01*
X11460356Y-9463856D01*
X11460356Y-9717856D02*
X11460356Y-9647144D01*
X11389644Y-9647144D01*
X11389644Y-9717856D01*
X11460356Y-9717856D01*
X11460356Y-9971856D02*
X11460356Y-9901144D01*
X11389644Y-9901144D01*
X11389644Y-9971856D01*
X11460356Y-9971856D01*
X11460356Y-10225856D02*
X11460356Y-10155144D01*
X11389644Y-10155144D01*
X11389644Y-10225856D01*
X11460356Y-10225856D01*
X11460356Y-10479856D02*
X11460356Y-10409144D01*
X11389644Y-10409144D01*
X11389644Y-10479856D01*
X11460356Y-10479856D01*
X11460356Y-10733856D02*
X11460356Y-10663144D01*
X11389644Y-10663144D01*
X11389644Y-10733856D01*
X11460356Y-10733856D01*
D12*
X9573928Y-11320714D02*
X9573928Y-11020714D01*
X9645357Y-11020714D01*
X9688214Y-11035000D01*
X9716786Y-11063572D01*
X9731071Y-11092143D01*
X9745357Y-11149286D01*
X9745357Y-11192143D01*
X9731071Y-11249286D01*
X9716786Y-11277857D01*
X9688214Y-11306429D01*
X9645357Y-11320714D01*
X9573928Y-11320714D01*
X9873928Y-11320714D02*
X9873928Y-11120714D01*
X9873928Y-11177857D02*
X9888214Y-11149286D01*
X9902500Y-11135000D01*
X9931071Y-11120714D01*
X9959643Y-11120714D01*
X10059643Y-11320714D02*
X10059643Y-11120714D01*
X10059643Y-11020714D02*
X10045357Y-11035000D01*
X10059643Y-11049286D01*
X10073928Y-11035000D01*
X10059643Y-11020714D01*
X10059643Y-11049286D01*
X10245357Y-11320714D02*
X10216786Y-11306429D01*
X10202500Y-11277857D01*
X10202500Y-11020714D01*
X10402500Y-11320714D02*
X10373928Y-11306429D01*
X10359643Y-11277857D01*
X10359643Y-11020714D01*
X10745357Y-11320714D02*
X10745357Y-11020714D01*
X10845357Y-11235000D01*
X10945357Y-11020714D01*
X10945357Y-11320714D01*
X11216786Y-11320714D02*
X11216786Y-11163572D01*
X11202500Y-11135000D01*
X11173928Y-11120714D01*
X11116786Y-11120714D01*
X11088214Y-11135000D01*
X11216786Y-11306429D02*
X11188214Y-11320714D01*
X11116786Y-11320714D01*
X11088214Y-11306429D01*
X11073928Y-11277857D01*
X11073928Y-11249286D01*
X11088214Y-11220714D01*
X11116786Y-11206429D01*
X11188214Y-11206429D01*
X11216786Y-11192143D01*
X11359643Y-11120714D02*
X11359643Y-11420714D01*
X11359643Y-11135000D02*
X11388214Y-11120714D01*
X11445357Y-11120714D01*
X11473928Y-11135000D01*
X11488214Y-11149286D01*
X11502500Y-11177857D01*
X11502500Y-11263571D01*
X11488214Y-11292143D01*
X11473928Y-11306429D01*
X11445357Y-11320714D01*
X11388214Y-11320714D01*
X11359643Y-11306429D01*
X11631071Y-11292143D02*
X11645357Y-11306429D01*
X11631071Y-11320714D01*
X11616786Y-11306429D01*
X11631071Y-11292143D01*
X11631071Y-11320714D01*
X11631071Y-11135000D02*
X11645357Y-11149286D01*
X11631071Y-11163572D01*
X11616786Y-11149286D01*
X11631071Y-11135000D01*
X11631071Y-11163572D01*
X9267500Y-11805000D02*
X9287500Y-11825000D01*
X9287500Y-11805000D02*
X9267500Y-11825000D01*
X9631071Y-11650714D02*
X9659643Y-11650714D01*
X9688214Y-11665000D01*
X9702500Y-11679286D01*
X9716786Y-11707857D01*
X9731071Y-11765000D01*
X9731071Y-11836429D01*
X9716786Y-11893571D01*
X9702500Y-11922143D01*
X9688214Y-11936429D01*
X9659643Y-11950714D01*
X9631071Y-11950714D01*
X9602500Y-11936429D01*
X9588214Y-11922143D01*
X9573928Y-11893571D01*
X9559643Y-11836429D01*
X9559643Y-11765000D01*
X9573928Y-11707857D01*
X9588214Y-11679286D01*
X9602500Y-11665000D01*
X9631071Y-11650714D01*
X9859643Y-11922143D02*
X9873928Y-11936429D01*
X9859643Y-11950714D01*
X9845357Y-11936429D01*
X9859643Y-11922143D01*
X9859643Y-11950714D01*
X9988214Y-11679286D02*
X10002500Y-11665000D01*
X10031071Y-11650714D01*
X10102500Y-11650714D01*
X10131071Y-11665000D01*
X10145357Y-11679286D01*
X10159643Y-11707857D01*
X10159643Y-11736429D01*
X10145357Y-11779286D01*
X9973928Y-11950714D01*
X10159643Y-11950714D01*
X10345357Y-11650714D02*
X10373928Y-11650714D01*
X10402500Y-11665000D01*
X10416786Y-11679286D01*
X10431071Y-11707857D01*
X10445357Y-11765000D01*
X10445357Y-11836429D01*
X10431071Y-11893571D01*
X10416786Y-11922143D01*
X10402500Y-11936429D01*
X10373928Y-11950714D01*
X10345357Y-11950714D01*
X10316786Y-11936429D01*
X10302500Y-11922143D01*
X10288214Y-11893571D01*
X10273928Y-11836429D01*
X10273928Y-11765000D01*
X10288214Y-11707857D01*
X10302500Y-11679286D01*
X10316786Y-11665000D01*
X10345357Y-11650714D01*
X10631071Y-11650714D02*
X10659643Y-11650714D01*
X10688214Y-11665000D01*
X10702500Y-11679286D01*
X10716786Y-11707857D01*
X10731071Y-11765000D01*
X10731071Y-11836429D01*
X10716786Y-11893571D01*
X10702500Y-11922143D01*
X10688214Y-11936429D01*
X10659643Y-11950714D01*
X10631071Y-11950714D01*
X10602500Y-11936429D01*
X10588214Y-11922143D01*
X10573928Y-11893571D01*
X10559643Y-11836429D01*
X10559643Y-11765000D01*
X10573928Y-11707857D01*
X10588214Y-11679286D01*
X10602500Y-11665000D01*
X10631071Y-11650714D01*
X10859643Y-11950714D02*
X10859643Y-11750714D01*
X10859643Y-11779286D02*
X10873928Y-11765000D01*
X10902500Y-11750714D01*
X10945357Y-11750714D01*
X10973928Y-11765000D01*
X10988214Y-11793571D01*
X10988214Y-11950714D01*
X10988214Y-11793571D02*
X11002500Y-11765000D01*
X11031071Y-11750714D01*
X11073928Y-11750714D01*
X11102500Y-11765000D01*
X11116786Y-11793571D01*
X11116786Y-11950714D01*
X11259643Y-11950714D02*
X11259643Y-11750714D01*
X11259643Y-11779286D02*
X11273928Y-11765000D01*
X11302500Y-11750714D01*
X11345357Y-11750714D01*
X11373928Y-11765000D01*
X11388214Y-11793571D01*
X11388214Y-11950714D01*
X11388214Y-11793571D02*
X11402500Y-11765000D01*
X11431071Y-11750714D01*
X11473928Y-11750714D01*
X11502500Y-11765000D01*
X11516786Y-11793571D01*
X11516786Y-11950714D01*
X12102500Y-11636429D02*
X11845357Y-12022143D01*
X12488214Y-11650714D02*
X12516786Y-11650714D01*
X12545357Y-11665000D01*
X12559643Y-11679286D01*
X12573928Y-11707857D01*
X12588214Y-11765000D01*
X12588214Y-11836429D01*
X12573928Y-11893571D01*
X12559643Y-11922143D01*
X12545357Y-11936429D01*
X12516786Y-11950714D01*
X12488214Y-11950714D01*
X12459643Y-11936429D01*
X12445357Y-11922143D01*
X12431071Y-11893571D01*
X12416786Y-11836429D01*
X12416786Y-11765000D01*
X12431071Y-11707857D01*
X12445357Y-11679286D01*
X12459643Y-11665000D01*
X12488214Y-11650714D01*
X12716786Y-11922143D02*
X12731071Y-11936429D01*
X12716786Y-11950714D01*
X12702500Y-11936429D01*
X12716786Y-11922143D01*
X12716786Y-11950714D01*
X12916786Y-11650714D02*
X12945357Y-11650714D01*
X12973928Y-11665000D01*
X12988214Y-11679286D01*
X13002500Y-11707857D01*
X13016786Y-11765000D01*
X13016786Y-11836429D01*
X13002500Y-11893571D01*
X12988214Y-11922143D01*
X12973928Y-11936429D01*
X12945357Y-11950714D01*
X12916786Y-11950714D01*
X12888214Y-11936429D01*
X12873928Y-11922143D01*
X12859643Y-11893571D01*
X12845357Y-11836429D01*
X12845357Y-11765000D01*
X12859643Y-11707857D01*
X12873928Y-11679286D01*
X12888214Y-11665000D01*
X12916786Y-11650714D01*
X13202500Y-11650714D02*
X13231071Y-11650714D01*
X13259643Y-11665000D01*
X13273928Y-11679286D01*
X13288214Y-11707857D01*
X13302500Y-11765000D01*
X13302500Y-11836429D01*
X13288214Y-11893571D01*
X13273928Y-11922143D01*
X13259643Y-11936429D01*
X13231071Y-11950714D01*
X13202500Y-11950714D01*
X13173928Y-11936429D01*
X13159643Y-11922143D01*
X13145357Y-11893571D01*
X13131071Y-11836429D01*
X13131071Y-11765000D01*
X13145357Y-11707857D01*
X13159643Y-11679286D01*
X13173928Y-11665000D01*
X13202500Y-11650714D01*
X13402500Y-11650714D02*
X13602500Y-11650714D01*
X13473928Y-11950714D01*
X13731071Y-11950714D02*
X13788214Y-11950714D01*
X13816786Y-11936429D01*
X13831071Y-11922143D01*
X13859643Y-11879286D01*
X13873928Y-11822143D01*
X13873928Y-11707857D01*
X13859643Y-11679286D01*
X13845357Y-11665000D01*
X13816786Y-11650714D01*
X13759643Y-11650714D01*
X13731071Y-11665000D01*
X13716786Y-11679286D01*
X13702500Y-11707857D01*
X13702500Y-11779286D01*
X13716786Y-11807857D01*
X13731071Y-11822143D01*
X13759643Y-11836429D01*
X13816786Y-11836429D01*
X13845357Y-11822143D01*
X13859643Y-11807857D01*
X13873928Y-11779286D01*
X13988214Y-11650714D02*
X13988214Y-11707857D01*
X14102500Y-11650714D02*
X14102500Y-11707857D01*
X14545357Y-12065000D02*
X14531071Y-12050714D01*
X14502500Y-12007857D01*
X14488214Y-11979286D01*
X14473928Y-11936429D01*
X14459643Y-11865000D01*
X14459643Y-11807857D01*
X14473928Y-11736429D01*
X14488214Y-11693571D01*
X14502500Y-11665000D01*
X14531071Y-11622143D01*
X14545357Y-11607857D01*
X14645357Y-11679286D02*
X14659643Y-11665000D01*
X14688214Y-11650714D01*
X14759643Y-11650714D01*
X14788214Y-11665000D01*
X14802500Y-11679286D01*
X14816786Y-11707857D01*
X14816786Y-11736429D01*
X14802500Y-11779286D01*
X14631071Y-11950714D01*
X14816786Y-11950714D01*
X14916786Y-11650714D02*
X15116786Y-11650714D01*
X14988214Y-11950714D01*
X15459643Y-11950714D02*
X15459643Y-11650714D01*
X15588214Y-11950714D02*
X15588214Y-11793571D01*
X15573928Y-11765000D01*
X15545357Y-11750714D01*
X15502500Y-11750714D01*
X15473928Y-11765000D01*
X15459643Y-11779286D01*
X15773928Y-11950714D02*
X15745357Y-11936429D01*
X15731071Y-11922143D01*
X15716786Y-11893571D01*
X15716786Y-11807857D01*
X15731071Y-11779286D01*
X15745357Y-11765000D01*
X15773928Y-11750714D01*
X15816786Y-11750714D01*
X15845357Y-11765000D01*
X15859643Y-11779286D01*
X15873928Y-11807857D01*
X15873928Y-11893571D01*
X15859643Y-11922143D01*
X15845357Y-11936429D01*
X15816786Y-11950714D01*
X15773928Y-11950714D01*
X16045357Y-11950714D02*
X16016786Y-11936429D01*
X16002500Y-11907857D01*
X16002500Y-11650714D01*
X16273928Y-11936429D02*
X16245357Y-11950714D01*
X16188214Y-11950714D01*
X16159643Y-11936429D01*
X16145357Y-11907857D01*
X16145357Y-11793571D01*
X16159643Y-11765000D01*
X16188214Y-11750714D01*
X16245357Y-11750714D01*
X16273928Y-11765000D01*
X16288214Y-11793571D01*
X16288214Y-11822143D01*
X16145357Y-11850714D01*
X16402500Y-11936429D02*
X16431071Y-11950714D01*
X16488214Y-11950714D01*
X16516786Y-11936429D01*
X16531071Y-11907857D01*
X16531071Y-11893571D01*
X16516786Y-11865000D01*
X16488214Y-11850714D01*
X16445357Y-11850714D01*
X16416786Y-11836429D01*
X16402500Y-11807857D01*
X16402500Y-11793571D01*
X16416786Y-11765000D01*
X16445357Y-11750714D01*
X16488214Y-11750714D01*
X16516786Y-11765000D01*
X16631071Y-12065000D02*
X16645357Y-12050714D01*
X16673928Y-12007857D01*
X16688214Y-11979286D01*
X16702500Y-11936429D01*
X16716786Y-11865000D01*
X16716786Y-11807857D01*
X16702500Y-11736429D01*
X16688214Y-11693571D01*
X16673928Y-11665000D01*
X16645357Y-11622143D01*
X16631071Y-11607857D01*
X9287500Y-12211000D02*
G75*
G03*
X9287500Y-12211000I-17500J0D01*
G01*
X9631071Y-12046714D02*
X9659643Y-12046714D01*
X9688214Y-12061000D01*
X9702500Y-12075286D01*
X9716786Y-12103857D01*
X9731071Y-12161000D01*
X9731071Y-12232429D01*
X9716786Y-12289571D01*
X9702500Y-12318143D01*
X9688214Y-12332429D01*
X9659643Y-12346714D01*
X9631071Y-12346714D01*
X9602500Y-12332429D01*
X9588214Y-12318143D01*
X9573928Y-12289571D01*
X9559643Y-12232429D01*
X9559643Y-12161000D01*
X9573928Y-12103857D01*
X9588214Y-12075286D01*
X9602500Y-12061000D01*
X9631071Y-12046714D01*
X9859643Y-12318143D02*
X9873928Y-12332429D01*
X9859643Y-12346714D01*
X9845357Y-12332429D01*
X9859643Y-12318143D01*
X9859643Y-12346714D01*
X9973928Y-12046714D02*
X10159643Y-12046714D01*
X10059643Y-12161000D01*
X10102500Y-12161000D01*
X10131071Y-12175286D01*
X10145357Y-12189571D01*
X10159643Y-12218143D01*
X10159643Y-12289571D01*
X10145357Y-12318143D01*
X10131071Y-12332429D01*
X10102500Y-12346714D01*
X10016786Y-12346714D01*
X9988214Y-12332429D01*
X9973928Y-12318143D01*
X10431071Y-12046714D02*
X10288214Y-12046714D01*
X10273928Y-12189571D01*
X10288214Y-12175286D01*
X10316786Y-12161000D01*
X10388214Y-12161000D01*
X10416786Y-12175286D01*
X10431071Y-12189571D01*
X10445357Y-12218143D01*
X10445357Y-12289571D01*
X10431071Y-12318143D01*
X10416786Y-12332429D01*
X10388214Y-12346714D01*
X10316786Y-12346714D01*
X10288214Y-12332429D01*
X10273928Y-12318143D01*
X10631071Y-12046714D02*
X10659643Y-12046714D01*
X10688214Y-12061000D01*
X10702500Y-12075286D01*
X10716786Y-12103857D01*
X10731071Y-12161000D01*
X10731071Y-12232429D01*
X10716786Y-12289571D01*
X10702500Y-12318143D01*
X10688214Y-12332429D01*
X10659643Y-12346714D01*
X10631071Y-12346714D01*
X10602500Y-12332429D01*
X10588214Y-12318143D01*
X10573928Y-12289571D01*
X10559643Y-12232429D01*
X10559643Y-12161000D01*
X10573928Y-12103857D01*
X10588214Y-12075286D01*
X10602500Y-12061000D01*
X10631071Y-12046714D01*
X10859643Y-12346714D02*
X10859643Y-12146714D01*
X10859643Y-12175286D02*
X10873928Y-12161000D01*
X10902500Y-12146714D01*
X10945357Y-12146714D01*
X10973928Y-12161000D01*
X10988214Y-12189571D01*
X10988214Y-12346714D01*
X10988214Y-12189571D02*
X11002500Y-12161000D01*
X11031071Y-12146714D01*
X11073928Y-12146714D01*
X11102500Y-12161000D01*
X11116786Y-12189571D01*
X11116786Y-12346714D01*
X11259643Y-12346714D02*
X11259643Y-12146714D01*
X11259643Y-12175286D02*
X11273928Y-12161000D01*
X11302500Y-12146714D01*
X11345357Y-12146714D01*
X11373928Y-12161000D01*
X11388214Y-12189571D01*
X11388214Y-12346714D01*
X11388214Y-12189571D02*
X11402500Y-12161000D01*
X11431071Y-12146714D01*
X11473928Y-12146714D01*
X11502500Y-12161000D01*
X11516786Y-12189571D01*
X11516786Y-12346714D01*
X12102500Y-12032429D02*
X11845357Y-12418143D01*
X12488214Y-12046714D02*
X12516786Y-12046714D01*
X12545357Y-12061000D01*
X12559643Y-12075286D01*
X12573928Y-12103857D01*
X12588214Y-12161000D01*
X12588214Y-12232429D01*
X12573928Y-12289571D01*
X12559643Y-12318143D01*
X12545357Y-12332429D01*
X12516786Y-12346714D01*
X12488214Y-12346714D01*
X12459643Y-12332429D01*
X12445357Y-12318143D01*
X12431071Y-12289571D01*
X12416786Y-12232429D01*
X12416786Y-12161000D01*
X12431071Y-12103857D01*
X12445357Y-12075286D01*
X12459643Y-12061000D01*
X12488214Y-12046714D01*
X12716786Y-12318143D02*
X12731071Y-12332429D01*
X12716786Y-12346714D01*
X12702500Y-12332429D01*
X12716786Y-12318143D01*
X12716786Y-12346714D01*
X12916786Y-12046714D02*
X12945357Y-12046714D01*
X12973928Y-12061000D01*
X12988214Y-12075286D01*
X13002500Y-12103857D01*
X13016786Y-12161000D01*
X13016786Y-12232429D01*
X13002500Y-12289571D01*
X12988214Y-12318143D01*
X12973928Y-12332429D01*
X12945357Y-12346714D01*
X12916786Y-12346714D01*
X12888214Y-12332429D01*
X12873928Y-12318143D01*
X12859643Y-12289571D01*
X12845357Y-12232429D01*
X12845357Y-12161000D01*
X12859643Y-12103857D01*
X12873928Y-12075286D01*
X12888214Y-12061000D01*
X12916786Y-12046714D01*
X13302500Y-12346714D02*
X13131071Y-12346714D01*
X13216786Y-12346714D02*
X13216786Y-12046714D01*
X13188214Y-12089571D01*
X13159643Y-12118143D01*
X13131071Y-12132429D01*
X13402500Y-12046714D02*
X13588214Y-12046714D01*
X13488214Y-12161000D01*
X13531071Y-12161000D01*
X13559643Y-12175286D01*
X13573928Y-12189571D01*
X13588214Y-12218143D01*
X13588214Y-12289571D01*
X13573928Y-12318143D01*
X13559643Y-12332429D01*
X13531071Y-12346714D01*
X13445357Y-12346714D01*
X13416786Y-12332429D01*
X13402500Y-12318143D01*
X13759643Y-12175286D02*
X13731071Y-12161000D01*
X13716786Y-12146714D01*
X13702500Y-12118143D01*
X13702500Y-12103857D01*
X13716786Y-12075286D01*
X13731071Y-12061000D01*
X13759643Y-12046714D01*
X13816786Y-12046714D01*
X13845357Y-12061000D01*
X13859643Y-12075286D01*
X13873928Y-12103857D01*
X13873928Y-12118143D01*
X13859643Y-12146714D01*
X13845357Y-12161000D01*
X13816786Y-12175286D01*
X13759643Y-12175286D01*
X13731071Y-12189571D01*
X13716786Y-12203857D01*
X13702500Y-12232429D01*
X13702500Y-12289571D01*
X13716786Y-12318143D01*
X13731071Y-12332429D01*
X13759643Y-12346714D01*
X13816786Y-12346714D01*
X13845357Y-12332429D01*
X13859643Y-12318143D01*
X13873928Y-12289571D01*
X13873928Y-12232429D01*
X13859643Y-12203857D01*
X13845357Y-12189571D01*
X13816786Y-12175286D01*
X13988214Y-12046714D02*
X13988214Y-12103857D01*
X14102500Y-12046714D02*
X14102500Y-12103857D01*
X14545357Y-12461000D02*
X14531071Y-12446714D01*
X14502500Y-12403857D01*
X14488214Y-12375286D01*
X14473928Y-12332429D01*
X14459643Y-12261000D01*
X14459643Y-12203857D01*
X14473928Y-12132429D01*
X14488214Y-12089571D01*
X14502500Y-12061000D01*
X14531071Y-12018143D01*
X14545357Y-12003857D01*
X14631071Y-12046714D02*
X14816786Y-12046714D01*
X14716786Y-12161000D01*
X14759643Y-12161000D01*
X14788214Y-12175286D01*
X14802500Y-12189571D01*
X14816786Y-12218143D01*
X14816786Y-12289571D01*
X14802500Y-12318143D01*
X14788214Y-12332429D01*
X14759643Y-12346714D01*
X14673928Y-12346714D01*
X14645357Y-12332429D01*
X14631071Y-12318143D01*
X14931071Y-12075286D02*
X14945357Y-12061000D01*
X14973928Y-12046714D01*
X15045357Y-12046714D01*
X15073928Y-12061000D01*
X15088214Y-12075286D01*
X15102500Y-12103857D01*
X15102500Y-12132429D01*
X15088214Y-12175286D01*
X14916786Y-12346714D01*
X15102500Y-12346714D01*
X15459643Y-12346714D02*
X15459643Y-12046714D01*
X15588214Y-12346714D02*
X15588214Y-12189571D01*
X15573928Y-12161000D01*
X15545357Y-12146714D01*
X15502500Y-12146714D01*
X15473928Y-12161000D01*
X15459643Y-12175286D01*
X15773928Y-12346714D02*
X15745357Y-12332429D01*
X15731071Y-12318143D01*
X15716786Y-12289571D01*
X15716786Y-12203857D01*
X15731071Y-12175286D01*
X15745357Y-12161000D01*
X15773928Y-12146714D01*
X15816786Y-12146714D01*
X15845357Y-12161000D01*
X15859643Y-12175286D01*
X15873928Y-12203857D01*
X15873928Y-12289571D01*
X15859643Y-12318143D01*
X15845357Y-12332429D01*
X15816786Y-12346714D01*
X15773928Y-12346714D01*
X16045357Y-12346714D02*
X16016786Y-12332429D01*
X16002500Y-12303857D01*
X16002500Y-12046714D01*
X16273928Y-12332429D02*
X16245357Y-12346714D01*
X16188214Y-12346714D01*
X16159643Y-12332429D01*
X16145357Y-12303857D01*
X16145357Y-12189571D01*
X16159643Y-12161000D01*
X16188214Y-12146714D01*
X16245357Y-12146714D01*
X16273928Y-12161000D01*
X16288214Y-12189571D01*
X16288214Y-12218143D01*
X16145357Y-12246714D01*
X16402500Y-12332429D02*
X16431071Y-12346714D01*
X16488214Y-12346714D01*
X16516786Y-12332429D01*
X16531071Y-12303857D01*
X16531071Y-12289571D01*
X16516786Y-12261000D01*
X16488214Y-12246714D01*
X16445357Y-12246714D01*
X16416786Y-12232429D01*
X16402500Y-12203857D01*
X16402500Y-12189571D01*
X16416786Y-12161000D01*
X16445357Y-12146714D01*
X16488214Y-12146714D01*
X16516786Y-12161000D01*
X16631071Y-12461000D02*
X16645357Y-12446714D01*
X16673928Y-12403857D01*
X16688214Y-12375286D01*
X16702500Y-12332429D01*
X16716786Y-12261000D01*
X16716786Y-12203857D01*
X16702500Y-12132429D01*
X16688214Y-12089571D01*
X16673928Y-12061000D01*
X16645357Y-12018143D01*
X16631071Y-12003857D01*
X9257500Y-12577000D02*
X9257500Y-12637000D01*
X9227500Y-12607000D02*
X9287500Y-12607000D01*
X9631071Y-12442714D02*
X9659643Y-12442714D01*
X9688214Y-12457000D01*
X9702500Y-12471286D01*
X9716786Y-12499857D01*
X9731071Y-12557000D01*
X9731071Y-12628429D01*
X9716786Y-12685571D01*
X9702500Y-12714143D01*
X9688214Y-12728429D01*
X9659643Y-12742714D01*
X9631071Y-12742714D01*
X9602500Y-12728429D01*
X9588214Y-12714143D01*
X9573928Y-12685571D01*
X9559643Y-12628429D01*
X9559643Y-12557000D01*
X9573928Y-12499857D01*
X9588214Y-12471286D01*
X9602500Y-12457000D01*
X9631071Y-12442714D01*
X9859643Y-12714143D02*
X9873928Y-12728429D01*
X9859643Y-12742714D01*
X9845357Y-12728429D01*
X9859643Y-12714143D01*
X9859643Y-12742714D01*
X10131071Y-12442714D02*
X10073928Y-12442714D01*
X10045357Y-12457000D01*
X10031071Y-12471286D01*
X10002500Y-12514143D01*
X9988214Y-12571286D01*
X9988214Y-12685571D01*
X10002500Y-12714143D01*
X10016786Y-12728429D01*
X10045357Y-12742714D01*
X10102500Y-12742714D01*
X10131071Y-12728429D01*
X10145357Y-12714143D01*
X10159643Y-12685571D01*
X10159643Y-12614143D01*
X10145357Y-12585571D01*
X10131071Y-12571286D01*
X10102500Y-12557000D01*
X10045357Y-12557000D01*
X10016786Y-12571286D01*
X10002500Y-12585571D01*
X9988214Y-12614143D01*
X10345357Y-12442714D02*
X10373928Y-12442714D01*
X10402500Y-12457000D01*
X10416786Y-12471286D01*
X10431071Y-12499857D01*
X10445357Y-12557000D01*
X10445357Y-12628429D01*
X10431071Y-12685571D01*
X10416786Y-12714143D01*
X10402500Y-12728429D01*
X10373928Y-12742714D01*
X10345357Y-12742714D01*
X10316786Y-12728429D01*
X10302500Y-12714143D01*
X10288214Y-12685571D01*
X10273928Y-12628429D01*
X10273928Y-12557000D01*
X10288214Y-12499857D01*
X10302500Y-12471286D01*
X10316786Y-12457000D01*
X10345357Y-12442714D01*
X10631071Y-12442714D02*
X10659643Y-12442714D01*
X10688214Y-12457000D01*
X10702500Y-12471286D01*
X10716786Y-12499857D01*
X10731071Y-12557000D01*
X10731071Y-12628429D01*
X10716786Y-12685571D01*
X10702500Y-12714143D01*
X10688214Y-12728429D01*
X10659643Y-12742714D01*
X10631071Y-12742714D01*
X10602500Y-12728429D01*
X10588214Y-12714143D01*
X10573928Y-12685571D01*
X10559643Y-12628429D01*
X10559643Y-12557000D01*
X10573928Y-12499857D01*
X10588214Y-12471286D01*
X10602500Y-12457000D01*
X10631071Y-12442714D01*
X10859643Y-12742714D02*
X10859643Y-12542714D01*
X10859643Y-12571286D02*
X10873928Y-12557000D01*
X10902500Y-12542714D01*
X10945357Y-12542714D01*
X10973928Y-12557000D01*
X10988214Y-12585571D01*
X10988214Y-12742714D01*
X10988214Y-12585571D02*
X11002500Y-12557000D01*
X11031071Y-12542714D01*
X11073928Y-12542714D01*
X11102500Y-12557000D01*
X11116786Y-12585571D01*
X11116786Y-12742714D01*
X11259643Y-12742714D02*
X11259643Y-12542714D01*
X11259643Y-12571286D02*
X11273928Y-12557000D01*
X11302500Y-12542714D01*
X11345357Y-12542714D01*
X11373928Y-12557000D01*
X11388214Y-12585571D01*
X11388214Y-12742714D01*
X11388214Y-12585571D02*
X11402500Y-12557000D01*
X11431071Y-12542714D01*
X11473928Y-12542714D01*
X11502500Y-12557000D01*
X11516786Y-12585571D01*
X11516786Y-12742714D01*
X12102500Y-12428429D02*
X11845357Y-12814143D01*
X12488214Y-12442714D02*
X12516786Y-12442714D01*
X12545357Y-12457000D01*
X12559643Y-12471286D01*
X12573928Y-12499857D01*
X12588214Y-12557000D01*
X12588214Y-12628429D01*
X12573928Y-12685571D01*
X12559643Y-12714143D01*
X12545357Y-12728429D01*
X12516786Y-12742714D01*
X12488214Y-12742714D01*
X12459643Y-12728429D01*
X12445357Y-12714143D01*
X12431071Y-12685571D01*
X12416786Y-12628429D01*
X12416786Y-12557000D01*
X12431071Y-12499857D01*
X12445357Y-12471286D01*
X12459643Y-12457000D01*
X12488214Y-12442714D01*
X12716786Y-12714143D02*
X12731071Y-12728429D01*
X12716786Y-12742714D01*
X12702500Y-12728429D01*
X12716786Y-12714143D01*
X12716786Y-12742714D01*
X12916786Y-12442714D02*
X12945357Y-12442714D01*
X12973928Y-12457000D01*
X12988214Y-12471286D01*
X13002500Y-12499857D01*
X13016786Y-12557000D01*
X13016786Y-12628429D01*
X13002500Y-12685571D01*
X12988214Y-12714143D01*
X12973928Y-12728429D01*
X12945357Y-12742714D01*
X12916786Y-12742714D01*
X12888214Y-12728429D01*
X12873928Y-12714143D01*
X12859643Y-12685571D01*
X12845357Y-12628429D01*
X12845357Y-12557000D01*
X12859643Y-12499857D01*
X12873928Y-12471286D01*
X12888214Y-12457000D01*
X12916786Y-12442714D01*
X13131071Y-12471286D02*
X13145357Y-12457000D01*
X13173928Y-12442714D01*
X13245357Y-12442714D01*
X13273928Y-12457000D01*
X13288214Y-12471286D01*
X13302500Y-12499857D01*
X13302500Y-12528429D01*
X13288214Y-12571286D01*
X13116786Y-12742714D01*
X13302500Y-12742714D01*
X13402500Y-12442714D02*
X13588214Y-12442714D01*
X13488214Y-12557000D01*
X13531071Y-12557000D01*
X13559643Y-12571286D01*
X13573928Y-12585571D01*
X13588214Y-12614143D01*
X13588214Y-12685571D01*
X13573928Y-12714143D01*
X13559643Y-12728429D01*
X13531071Y-12742714D01*
X13445357Y-12742714D01*
X13416786Y-12728429D01*
X13402500Y-12714143D01*
X13845357Y-12442714D02*
X13788214Y-12442714D01*
X13759643Y-12457000D01*
X13745357Y-12471286D01*
X13716786Y-12514143D01*
X13702500Y-12571286D01*
X13702500Y-12685571D01*
X13716786Y-12714143D01*
X13731071Y-12728429D01*
X13759643Y-12742714D01*
X13816786Y-12742714D01*
X13845357Y-12728429D01*
X13859643Y-12714143D01*
X13873928Y-12685571D01*
X13873928Y-12614143D01*
X13859643Y-12585571D01*
X13845357Y-12571286D01*
X13816786Y-12557000D01*
X13759643Y-12557000D01*
X13731071Y-12571286D01*
X13716786Y-12585571D01*
X13702500Y-12614143D01*
X13988214Y-12442714D02*
X13988214Y-12499857D01*
X14102500Y-12442714D02*
X14102500Y-12499857D01*
X14545357Y-12857000D02*
X14531071Y-12842714D01*
X14502500Y-12799857D01*
X14488214Y-12771286D01*
X14473928Y-12728429D01*
X14459643Y-12657000D01*
X14459643Y-12599857D01*
X14473928Y-12528429D01*
X14488214Y-12485571D01*
X14502500Y-12457000D01*
X14531071Y-12414143D01*
X14545357Y-12399857D01*
X14716786Y-12442714D02*
X14745357Y-12442714D01*
X14773928Y-12457000D01*
X14788214Y-12471286D01*
X14802500Y-12499857D01*
X14816786Y-12557000D01*
X14816786Y-12628429D01*
X14802500Y-12685571D01*
X14788214Y-12714143D01*
X14773928Y-12728429D01*
X14745357Y-12742714D01*
X14716786Y-12742714D01*
X14688214Y-12728429D01*
X14673928Y-12714143D01*
X14659643Y-12685571D01*
X14645357Y-12628429D01*
X14645357Y-12557000D01*
X14659643Y-12499857D01*
X14673928Y-12471286D01*
X14688214Y-12457000D01*
X14716786Y-12442714D01*
X15173928Y-12742714D02*
X15173928Y-12442714D01*
X15302500Y-12742714D02*
X15302500Y-12585571D01*
X15288214Y-12557000D01*
X15259643Y-12542714D01*
X15216786Y-12542714D01*
X15188214Y-12557000D01*
X15173928Y-12571286D01*
X15488214Y-12742714D02*
X15459643Y-12728429D01*
X15445357Y-12714143D01*
X15431071Y-12685571D01*
X15431071Y-12599857D01*
X15445357Y-12571286D01*
X15459643Y-12557000D01*
X15488214Y-12542714D01*
X15531071Y-12542714D01*
X15559643Y-12557000D01*
X15573928Y-12571286D01*
X15588214Y-12599857D01*
X15588214Y-12685571D01*
X15573928Y-12714143D01*
X15559643Y-12728429D01*
X15531071Y-12742714D01*
X15488214Y-12742714D01*
X15759643Y-12742714D02*
X15731071Y-12728429D01*
X15716786Y-12699857D01*
X15716786Y-12442714D01*
X15988214Y-12728429D02*
X15959643Y-12742714D01*
X15902500Y-12742714D01*
X15873928Y-12728429D01*
X15859643Y-12699857D01*
X15859643Y-12585571D01*
X15873928Y-12557000D01*
X15902500Y-12542714D01*
X15959643Y-12542714D01*
X15988214Y-12557000D01*
X16002500Y-12585571D01*
X16002500Y-12614143D01*
X15859643Y-12642714D01*
X16116786Y-12728429D02*
X16145357Y-12742714D01*
X16202500Y-12742714D01*
X16231071Y-12728429D01*
X16245357Y-12699857D01*
X16245357Y-12685571D01*
X16231071Y-12657000D01*
X16202500Y-12642714D01*
X16159643Y-12642714D01*
X16131071Y-12628429D01*
X16116786Y-12599857D01*
X16116786Y-12585571D01*
X16131071Y-12557000D01*
X16159643Y-12542714D01*
X16202500Y-12542714D01*
X16231071Y-12557000D01*
X16602500Y-12628429D02*
X16831071Y-12628429D01*
X16716786Y-12742714D02*
X16716786Y-12514143D01*
X17331071Y-12542714D02*
X17331071Y-12742714D01*
X17259643Y-12428429D02*
X17188214Y-12642714D01*
X17373928Y-12642714D01*
X17702500Y-12728429D02*
X17731071Y-12742714D01*
X17788214Y-12742714D01*
X17816786Y-12728429D01*
X17831071Y-12699857D01*
X17831071Y-12685571D01*
X17816786Y-12657000D01*
X17788214Y-12642714D01*
X17745357Y-12642714D01*
X17716786Y-12628429D01*
X17702500Y-12599857D01*
X17702500Y-12585571D01*
X17716786Y-12557000D01*
X17745357Y-12542714D01*
X17788214Y-12542714D01*
X17816786Y-12557000D01*
X18002500Y-12742714D02*
X17973928Y-12728429D01*
X17959643Y-12699857D01*
X17959643Y-12442714D01*
X18159643Y-12742714D02*
X18131071Y-12728429D01*
X18116786Y-12714143D01*
X18102500Y-12685571D01*
X18102500Y-12599857D01*
X18116786Y-12571286D01*
X18131071Y-12557000D01*
X18159643Y-12542714D01*
X18202500Y-12542714D01*
X18231071Y-12557000D01*
X18245357Y-12571286D01*
X18259643Y-12599857D01*
X18259643Y-12685571D01*
X18245357Y-12714143D01*
X18231071Y-12728429D01*
X18202500Y-12742714D01*
X18159643Y-12742714D01*
X18345357Y-12542714D02*
X18459643Y-12542714D01*
X18388214Y-12442714D02*
X18388214Y-12699857D01*
X18402500Y-12728429D01*
X18431071Y-12742714D01*
X18459643Y-12742714D01*
X18545357Y-12728429D02*
X18573928Y-12742714D01*
X18631071Y-12742714D01*
X18659643Y-12728429D01*
X18673928Y-12699857D01*
X18673928Y-12685571D01*
X18659643Y-12657000D01*
X18631071Y-12642714D01*
X18588214Y-12642714D01*
X18559643Y-12628429D01*
X18545357Y-12599857D01*
X18545357Y-12585571D01*
X18559643Y-12557000D01*
X18588214Y-12542714D01*
X18631071Y-12542714D01*
X18659643Y-12557000D01*
X18773928Y-12857000D02*
X18788214Y-12842714D01*
X18816786Y-12799857D01*
X18831071Y-12771286D01*
X18845357Y-12728429D01*
X18859643Y-12657000D01*
X18859643Y-12599857D01*
X18845357Y-12528429D01*
X18831071Y-12485571D01*
X18816786Y-12457000D01*
X18788214Y-12414143D01*
X18773928Y-12399857D01*
X9272856Y-13038356D02*
X9272856Y-12967644D01*
X9202144Y-12967644D01*
X9202144Y-13038356D01*
X9272856Y-13038356D01*
X9731071Y-13138714D02*
X9559643Y-13138714D01*
X9645357Y-13138714D02*
X9645357Y-12838714D01*
X9616786Y-12881571D01*
X9588214Y-12910143D01*
X9559643Y-12924429D01*
X9859643Y-13110143D02*
X9873928Y-13124429D01*
X9859643Y-13138714D01*
X9845357Y-13124429D01*
X9859643Y-13110143D01*
X9859643Y-13138714D01*
X10059643Y-12838714D02*
X10088214Y-12838714D01*
X10116786Y-12853000D01*
X10131071Y-12867286D01*
X10145357Y-12895857D01*
X10159643Y-12953000D01*
X10159643Y-13024429D01*
X10145357Y-13081571D01*
X10131071Y-13110143D01*
X10116786Y-13124429D01*
X10088214Y-13138714D01*
X10059643Y-13138714D01*
X10031071Y-13124429D01*
X10016786Y-13110143D01*
X10002500Y-13081571D01*
X9988214Y-13024429D01*
X9988214Y-12953000D01*
X10002500Y-12895857D01*
X10016786Y-12867286D01*
X10031071Y-12853000D01*
X10059643Y-12838714D01*
X10345357Y-12838714D02*
X10373928Y-12838714D01*
X10402500Y-12853000D01*
X10416786Y-12867286D01*
X10431071Y-12895857D01*
X10445357Y-12953000D01*
X10445357Y-13024429D01*
X10431071Y-13081571D01*
X10416786Y-13110143D01*
X10402500Y-13124429D01*
X10373928Y-13138714D01*
X10345357Y-13138714D01*
X10316786Y-13124429D01*
X10302500Y-13110143D01*
X10288214Y-13081571D01*
X10273928Y-13024429D01*
X10273928Y-12953000D01*
X10288214Y-12895857D01*
X10302500Y-12867286D01*
X10316786Y-12853000D01*
X10345357Y-12838714D01*
X10631071Y-12838714D02*
X10659643Y-12838714D01*
X10688214Y-12853000D01*
X10702500Y-12867286D01*
X10716786Y-12895857D01*
X10731071Y-12953000D01*
X10731071Y-13024429D01*
X10716786Y-13081571D01*
X10702500Y-13110143D01*
X10688214Y-13124429D01*
X10659643Y-13138714D01*
X10631071Y-13138714D01*
X10602500Y-13124429D01*
X10588214Y-13110143D01*
X10573928Y-13081571D01*
X10559643Y-13024429D01*
X10559643Y-12953000D01*
X10573928Y-12895857D01*
X10588214Y-12867286D01*
X10602500Y-12853000D01*
X10631071Y-12838714D01*
X10859643Y-13138714D02*
X10859643Y-12938714D01*
X10859643Y-12967286D02*
X10873928Y-12953000D01*
X10902500Y-12938714D01*
X10945357Y-12938714D01*
X10973928Y-12953000D01*
X10988214Y-12981571D01*
X10988214Y-13138714D01*
X10988214Y-12981571D02*
X11002500Y-12953000D01*
X11031071Y-12938714D01*
X11073928Y-12938714D01*
X11102500Y-12953000D01*
X11116786Y-12981571D01*
X11116786Y-13138714D01*
X11259643Y-13138714D02*
X11259643Y-12938714D01*
X11259643Y-12967286D02*
X11273928Y-12953000D01*
X11302500Y-12938714D01*
X11345357Y-12938714D01*
X11373928Y-12953000D01*
X11388214Y-12981571D01*
X11388214Y-13138714D01*
X11388214Y-12981571D02*
X11402500Y-12953000D01*
X11431071Y-12938714D01*
X11473928Y-12938714D01*
X11502500Y-12953000D01*
X11516786Y-12981571D01*
X11516786Y-13138714D01*
X12102500Y-12824429D02*
X11845357Y-13210143D01*
X12488214Y-12838714D02*
X12516786Y-12838714D01*
X12545357Y-12853000D01*
X12559643Y-12867286D01*
X12573928Y-12895857D01*
X12588214Y-12953000D01*
X12588214Y-13024429D01*
X12573928Y-13081571D01*
X12559643Y-13110143D01*
X12545357Y-13124429D01*
X12516786Y-13138714D01*
X12488214Y-13138714D01*
X12459643Y-13124429D01*
X12445357Y-13110143D01*
X12431071Y-13081571D01*
X12416786Y-13024429D01*
X12416786Y-12953000D01*
X12431071Y-12895857D01*
X12445357Y-12867286D01*
X12459643Y-12853000D01*
X12488214Y-12838714D01*
X12716786Y-13110143D02*
X12731071Y-13124429D01*
X12716786Y-13138714D01*
X12702500Y-13124429D01*
X12716786Y-13110143D01*
X12716786Y-13138714D01*
X12916786Y-12838714D02*
X12945357Y-12838714D01*
X12973928Y-12853000D01*
X12988214Y-12867286D01*
X13002500Y-12895857D01*
X13016786Y-12953000D01*
X13016786Y-13024429D01*
X13002500Y-13081571D01*
X12988214Y-13110143D01*
X12973928Y-13124429D01*
X12945357Y-13138714D01*
X12916786Y-13138714D01*
X12888214Y-13124429D01*
X12873928Y-13110143D01*
X12859643Y-13081571D01*
X12845357Y-13024429D01*
X12845357Y-12953000D01*
X12859643Y-12895857D01*
X12873928Y-12867286D01*
X12888214Y-12853000D01*
X12916786Y-12838714D01*
X13116786Y-12838714D02*
X13302500Y-12838714D01*
X13202500Y-12953000D01*
X13245357Y-12953000D01*
X13273928Y-12967286D01*
X13288214Y-12981571D01*
X13302500Y-13010143D01*
X13302500Y-13081571D01*
X13288214Y-13110143D01*
X13273928Y-13124429D01*
X13245357Y-13138714D01*
X13159643Y-13138714D01*
X13131071Y-13124429D01*
X13116786Y-13110143D01*
X13445357Y-13138714D02*
X13502500Y-13138714D01*
X13531071Y-13124429D01*
X13545357Y-13110143D01*
X13573928Y-13067286D01*
X13588214Y-13010143D01*
X13588214Y-12895857D01*
X13573928Y-12867286D01*
X13559643Y-12853000D01*
X13531071Y-12838714D01*
X13473928Y-12838714D01*
X13445357Y-12853000D01*
X13431071Y-12867286D01*
X13416786Y-12895857D01*
X13416786Y-12967286D01*
X13431071Y-12995857D01*
X13445357Y-13010143D01*
X13473928Y-13024429D01*
X13531071Y-13024429D01*
X13559643Y-13010143D01*
X13573928Y-12995857D01*
X13588214Y-12967286D01*
X13845357Y-12938714D02*
X13845357Y-13138714D01*
X13773928Y-12824429D02*
X13702500Y-13038714D01*
X13888214Y-13038714D01*
X13988214Y-12838714D02*
X13988214Y-12895857D01*
X14102500Y-12838714D02*
X14102500Y-12895857D01*
X14545357Y-13253000D02*
X14531071Y-13238714D01*
X14502500Y-13195857D01*
X14488214Y-13167286D01*
X14473928Y-13124429D01*
X14459643Y-13053000D01*
X14459643Y-12995857D01*
X14473928Y-12924429D01*
X14488214Y-12881571D01*
X14502500Y-12853000D01*
X14531071Y-12810143D01*
X14545357Y-12795857D01*
X14702500Y-12967286D02*
X14673928Y-12953000D01*
X14659643Y-12938714D01*
X14645357Y-12910143D01*
X14645357Y-12895857D01*
X14659643Y-12867286D01*
X14673928Y-12853000D01*
X14702500Y-12838714D01*
X14759643Y-12838714D01*
X14788214Y-12853000D01*
X14802500Y-12867286D01*
X14816786Y-12895857D01*
X14816786Y-12910143D01*
X14802500Y-12938714D01*
X14788214Y-12953000D01*
X14759643Y-12967286D01*
X14702500Y-12967286D01*
X14673928Y-12981571D01*
X14659643Y-12995857D01*
X14645357Y-13024429D01*
X14645357Y-13081571D01*
X14659643Y-13110143D01*
X14673928Y-13124429D01*
X14702500Y-13138714D01*
X14759643Y-13138714D01*
X14788214Y-13124429D01*
X14802500Y-13110143D01*
X14816786Y-13081571D01*
X14816786Y-13024429D01*
X14802500Y-12995857D01*
X14788214Y-12981571D01*
X14759643Y-12967286D01*
X14916786Y-12838714D02*
X15102500Y-12838714D01*
X15002500Y-12953000D01*
X15045357Y-12953000D01*
X15073928Y-12967286D01*
X15088214Y-12981571D01*
X15102500Y-13010143D01*
X15102500Y-13081571D01*
X15088214Y-13110143D01*
X15073928Y-13124429D01*
X15045357Y-13138714D01*
X14959643Y-13138714D01*
X14931071Y-13124429D01*
X14916786Y-13110143D01*
X15459643Y-13138714D02*
X15459643Y-12838714D01*
X15588214Y-13138714D02*
X15588214Y-12981571D01*
X15573928Y-12953000D01*
X15545357Y-12938714D01*
X15502500Y-12938714D01*
X15473928Y-12953000D01*
X15459643Y-12967286D01*
X15773928Y-13138714D02*
X15745357Y-13124429D01*
X15731071Y-13110143D01*
X15716786Y-13081571D01*
X15716786Y-12995857D01*
X15731071Y-12967286D01*
X15745357Y-12953000D01*
X15773928Y-12938714D01*
X15816786Y-12938714D01*
X15845357Y-12953000D01*
X15859643Y-12967286D01*
X15873928Y-12995857D01*
X15873928Y-13081571D01*
X15859643Y-13110143D01*
X15845357Y-13124429D01*
X15816786Y-13138714D01*
X15773928Y-13138714D01*
X16045357Y-13138714D02*
X16016786Y-13124429D01*
X16002500Y-13095857D01*
X16002500Y-12838714D01*
X16273928Y-13124429D02*
X16245357Y-13138714D01*
X16188214Y-13138714D01*
X16159643Y-13124429D01*
X16145357Y-13095857D01*
X16145357Y-12981571D01*
X16159643Y-12953000D01*
X16188214Y-12938714D01*
X16245357Y-12938714D01*
X16273928Y-12953000D01*
X16288214Y-12981571D01*
X16288214Y-13010143D01*
X16145357Y-13038714D01*
X16402500Y-13124429D02*
X16431071Y-13138714D01*
X16488214Y-13138714D01*
X16516786Y-13124429D01*
X16531071Y-13095857D01*
X16531071Y-13081571D01*
X16516786Y-13053000D01*
X16488214Y-13038714D01*
X16445357Y-13038714D01*
X16416786Y-13024429D01*
X16402500Y-12995857D01*
X16402500Y-12981571D01*
X16416786Y-12953000D01*
X16445357Y-12938714D01*
X16488214Y-12938714D01*
X16516786Y-12953000D01*
X16631071Y-13253000D02*
X16645357Y-13238714D01*
X16673928Y-13195857D01*
X16688214Y-13167286D01*
X16702500Y-13124429D01*
X16716786Y-13053000D01*
X16716786Y-12995857D01*
X16702500Y-12924429D01*
X16688214Y-12881571D01*
X16673928Y-12853000D01*
X16645357Y-12810143D01*
X16631071Y-12795857D01*
M02*
