G04 #@! TF.GenerationSoftware,KiCad,Pcbnew,(5.1.10)-1*
G04 #@! TF.CreationDate,2021-08-13T11:53:03+01:00*
G04 #@! TF.ProjectId,EnvOpenPico,456e764f-7065-46e5-9069-636f2e6b6963,REV1*
G04 #@! TF.SameCoordinates,Original*
G04 #@! TF.FileFunction,Paste,Top*
G04 #@! TF.FilePolarity,Positive*
%FSLAX46Y46*%
G04 Gerber Fmt 4.6, Leading zero omitted, Abs format (unit mm)*
G04 Created by KiCad (PCBNEW (5.1.10)-1) date 2021-08-13 11:53:03*
%MOMM*%
%LPD*%
G01*
G04 APERTURE LIST*
%ADD10R,0.600000X0.240000*%
%ADD11R,0.600000X1.450000*%
%ADD12R,0.300000X1.450000*%
%ADD13R,1.400000X1.150000*%
G04 APERTURE END LIST*
G36*
G01*
X110373250Y-60203800D02*
X109860750Y-60203800D01*
G75*
G02*
X109642000Y-59985050I0J218750D01*
G01*
X109642000Y-59547550D01*
G75*
G02*
X109860750Y-59328800I218750J0D01*
G01*
X110373250Y-59328800D01*
G75*
G02*
X110592000Y-59547550I0J-218750D01*
G01*
X110592000Y-59985050D01*
G75*
G02*
X110373250Y-60203800I-218750J0D01*
G01*
G37*
G36*
G01*
X110373250Y-61778800D02*
X109860750Y-61778800D01*
G75*
G02*
X109642000Y-61560050I0J218750D01*
G01*
X109642000Y-61122550D01*
G75*
G02*
X109860750Y-60903800I218750J0D01*
G01*
X110373250Y-60903800D01*
G75*
G02*
X110592000Y-61122550I0J-218750D01*
G01*
X110592000Y-61560050D01*
G75*
G02*
X110373250Y-61778800I-218750J0D01*
G01*
G37*
G36*
G01*
X102034300Y-66359000D02*
X101664300Y-66359000D01*
G75*
G02*
X101529300Y-66224000I0J135000D01*
G01*
X101529300Y-65954000D01*
G75*
G02*
X101664300Y-65819000I135000J0D01*
G01*
X102034300Y-65819000D01*
G75*
G02*
X102169300Y-65954000I0J-135000D01*
G01*
X102169300Y-66224000D01*
G75*
G02*
X102034300Y-66359000I-135000J0D01*
G01*
G37*
G36*
G01*
X102034300Y-67379000D02*
X101664300Y-67379000D01*
G75*
G02*
X101529300Y-67244000I0J135000D01*
G01*
X101529300Y-66974000D01*
G75*
G02*
X101664300Y-66839000I135000J0D01*
G01*
X102034300Y-66839000D01*
G75*
G02*
X102169300Y-66974000I0J-135000D01*
G01*
X102169300Y-67244000D01*
G75*
G02*
X102034300Y-67379000I-135000J0D01*
G01*
G37*
G36*
G01*
X109880120Y-80845680D02*
X109880120Y-80505680D01*
G75*
G02*
X110020120Y-80365680I140000J0D01*
G01*
X110300120Y-80365680D01*
G75*
G02*
X110440120Y-80505680I0J-140000D01*
G01*
X110440120Y-80845680D01*
G75*
G02*
X110300120Y-80985680I-140000J0D01*
G01*
X110020120Y-80985680D01*
G75*
G02*
X109880120Y-80845680I0J140000D01*
G01*
G37*
G36*
G01*
X108920120Y-80845680D02*
X108920120Y-80505680D01*
G75*
G02*
X109060120Y-80365680I140000J0D01*
G01*
X109340120Y-80365680D01*
G75*
G02*
X109480120Y-80505680I0J-140000D01*
G01*
X109480120Y-80845680D01*
G75*
G02*
X109340120Y-80985680I-140000J0D01*
G01*
X109060120Y-80985680D01*
G75*
G02*
X108920120Y-80845680I0J140000D01*
G01*
G37*
G36*
G01*
X109877580Y-82072500D02*
X109877580Y-81732500D01*
G75*
G02*
X110017580Y-81592500I140000J0D01*
G01*
X110297580Y-81592500D01*
G75*
G02*
X110437580Y-81732500I0J-140000D01*
G01*
X110437580Y-82072500D01*
G75*
G02*
X110297580Y-82212500I-140000J0D01*
G01*
X110017580Y-82212500D01*
G75*
G02*
X109877580Y-82072500I0J140000D01*
G01*
G37*
G36*
G01*
X108917580Y-82072500D02*
X108917580Y-81732500D01*
G75*
G02*
X109057580Y-81592500I140000J0D01*
G01*
X109337580Y-81592500D01*
G75*
G02*
X109477580Y-81732500I0J-140000D01*
G01*
X109477580Y-82072500D01*
G75*
G02*
X109337580Y-82212500I-140000J0D01*
G01*
X109057580Y-82212500D01*
G75*
G02*
X108917580Y-82072500I0J140000D01*
G01*
G37*
G36*
G01*
X101080560Y-79378860D02*
X100720560Y-79378860D01*
G75*
G02*
X100580560Y-79238860I0J140000D01*
G01*
X100580560Y-78958860D01*
G75*
G02*
X100720560Y-78818860I140000J0D01*
G01*
X101080560Y-78818860D01*
G75*
G02*
X101220560Y-78958860I0J-140000D01*
G01*
X101220560Y-79238860D01*
G75*
G02*
X101080560Y-79378860I-140000J0D01*
G01*
G37*
G36*
G01*
X100280560Y-79378860D02*
X99920560Y-79378860D01*
G75*
G02*
X99780560Y-79238860I0J140000D01*
G01*
X99780560Y-78958860D01*
G75*
G02*
X99920560Y-78818860I140000J0D01*
G01*
X100280560Y-78818860D01*
G75*
G02*
X100420560Y-78958860I0J-140000D01*
G01*
X100420560Y-79238860D01*
G75*
G02*
X100280560Y-79378860I-140000J0D01*
G01*
G37*
G36*
G01*
X101080560Y-80078860D02*
X100720560Y-80078860D01*
G75*
G02*
X100580560Y-79938860I0J140000D01*
G01*
X100580560Y-79658860D01*
G75*
G02*
X100720560Y-79518860I140000J0D01*
G01*
X101080560Y-79518860D01*
G75*
G02*
X101220560Y-79658860I0J-140000D01*
G01*
X101220560Y-79938860D01*
G75*
G02*
X101080560Y-80078860I-140000J0D01*
G01*
G37*
G36*
G01*
X100280560Y-80078860D02*
X99920560Y-80078860D01*
G75*
G02*
X99780560Y-79938860I0J140000D01*
G01*
X99780560Y-79658860D01*
G75*
G02*
X99920560Y-79518860I140000J0D01*
G01*
X100280560Y-79518860D01*
G75*
G02*
X100420560Y-79658860I0J-140000D01*
G01*
X100420560Y-79938860D01*
G75*
G02*
X100280560Y-80078860I-140000J0D01*
G01*
G37*
G36*
G01*
X99838060Y-78423860D02*
X99663060Y-78423860D01*
G75*
G02*
X99575560Y-78336360I0J87500D01*
G01*
X99575560Y-77986360D01*
G75*
G02*
X99663060Y-77898860I87500J0D01*
G01*
X99838060Y-77898860D01*
G75*
G02*
X99925560Y-77986360I0J-87500D01*
G01*
X99925560Y-78336360D01*
G75*
G02*
X99838060Y-78423860I-87500J0D01*
G01*
G37*
G36*
G01*
X100338060Y-78423860D02*
X100163060Y-78423860D01*
G75*
G02*
X100075560Y-78336360I0J87500D01*
G01*
X100075560Y-77986360D01*
G75*
G02*
X100163060Y-77898860I87500J0D01*
G01*
X100338060Y-77898860D01*
G75*
G02*
X100425560Y-77986360I0J-87500D01*
G01*
X100425560Y-78336360D01*
G75*
G02*
X100338060Y-78423860I-87500J0D01*
G01*
G37*
G36*
G01*
X100838060Y-78423860D02*
X100663060Y-78423860D01*
G75*
G02*
X100575560Y-78336360I0J87500D01*
G01*
X100575560Y-77986360D01*
G75*
G02*
X100663060Y-77898860I87500J0D01*
G01*
X100838060Y-77898860D01*
G75*
G02*
X100925560Y-77986360I0J-87500D01*
G01*
X100925560Y-78336360D01*
G75*
G02*
X100838060Y-78423860I-87500J0D01*
G01*
G37*
G36*
G01*
X101338060Y-78423860D02*
X101163060Y-78423860D01*
G75*
G02*
X101075560Y-78336360I0J87500D01*
G01*
X101075560Y-77986360D01*
G75*
G02*
X101163060Y-77898860I87500J0D01*
G01*
X101338060Y-77898860D01*
G75*
G02*
X101425560Y-77986360I0J-87500D01*
G01*
X101425560Y-78336360D01*
G75*
G02*
X101338060Y-78423860I-87500J0D01*
G01*
G37*
G36*
G01*
X101338060Y-80998860D02*
X101163060Y-80998860D01*
G75*
G02*
X101075560Y-80911360I0J87500D01*
G01*
X101075560Y-80561360D01*
G75*
G02*
X101163060Y-80473860I87500J0D01*
G01*
X101338060Y-80473860D01*
G75*
G02*
X101425560Y-80561360I0J-87500D01*
G01*
X101425560Y-80911360D01*
G75*
G02*
X101338060Y-80998860I-87500J0D01*
G01*
G37*
G36*
G01*
X100838060Y-80998860D02*
X100663060Y-80998860D01*
G75*
G02*
X100575560Y-80911360I0J87500D01*
G01*
X100575560Y-80561360D01*
G75*
G02*
X100663060Y-80473860I87500J0D01*
G01*
X100838060Y-80473860D01*
G75*
G02*
X100925560Y-80561360I0J-87500D01*
G01*
X100925560Y-80911360D01*
G75*
G02*
X100838060Y-80998860I-87500J0D01*
G01*
G37*
G36*
G01*
X100338060Y-80998860D02*
X100163060Y-80998860D01*
G75*
G02*
X100075560Y-80911360I0J87500D01*
G01*
X100075560Y-80561360D01*
G75*
G02*
X100163060Y-80473860I87500J0D01*
G01*
X100338060Y-80473860D01*
G75*
G02*
X100425560Y-80561360I0J-87500D01*
G01*
X100425560Y-80911360D01*
G75*
G02*
X100338060Y-80998860I-87500J0D01*
G01*
G37*
G36*
G01*
X99838060Y-80998860D02*
X99663060Y-80998860D01*
G75*
G02*
X99575560Y-80911360I0J87500D01*
G01*
X99575560Y-80561360D01*
G75*
G02*
X99663060Y-80473860I87500J0D01*
G01*
X99838060Y-80473860D01*
G75*
G02*
X99925560Y-80561360I0J-87500D01*
G01*
X99925560Y-80911360D01*
G75*
G02*
X99838060Y-80998860I-87500J0D01*
G01*
G37*
G36*
G01*
X109758140Y-72811660D02*
X109758140Y-72471660D01*
G75*
G02*
X109898140Y-72331660I140000J0D01*
G01*
X110178140Y-72331660D01*
G75*
G02*
X110318140Y-72471660I0J-140000D01*
G01*
X110318140Y-72811660D01*
G75*
G02*
X110178140Y-72951660I-140000J0D01*
G01*
X109898140Y-72951660D01*
G75*
G02*
X109758140Y-72811660I0J140000D01*
G01*
G37*
G36*
G01*
X108798140Y-72811660D02*
X108798140Y-72471660D01*
G75*
G02*
X108938140Y-72331660I140000J0D01*
G01*
X109218140Y-72331660D01*
G75*
G02*
X109358140Y-72471660I0J-140000D01*
G01*
X109358140Y-72811660D01*
G75*
G02*
X109218140Y-72951660I-140000J0D01*
G01*
X108938140Y-72951660D01*
G75*
G02*
X108798140Y-72811660I0J140000D01*
G01*
G37*
G36*
G01*
X108640600Y-65484000D02*
X108640600Y-65984000D01*
G75*
G02*
X108415600Y-66209000I-225000J0D01*
G01*
X107965600Y-66209000D01*
G75*
G02*
X107740600Y-65984000I0J225000D01*
G01*
X107740600Y-65484000D01*
G75*
G02*
X107965600Y-65259000I225000J0D01*
G01*
X108415600Y-65259000D01*
G75*
G02*
X108640600Y-65484000I0J-225000D01*
G01*
G37*
G36*
G01*
X110190600Y-65484000D02*
X110190600Y-65984000D01*
G75*
G02*
X109965600Y-66209000I-225000J0D01*
G01*
X109515600Y-66209000D01*
G75*
G02*
X109290600Y-65984000I0J225000D01*
G01*
X109290600Y-65484000D01*
G75*
G02*
X109515600Y-65259000I225000J0D01*
G01*
X109965600Y-65259000D01*
G75*
G02*
X110190600Y-65484000I0J-225000D01*
G01*
G37*
G36*
G01*
X110186000Y-79257600D02*
X110556000Y-79257600D01*
G75*
G02*
X110691000Y-79392600I0J-135000D01*
G01*
X110691000Y-79662600D01*
G75*
G02*
X110556000Y-79797600I-135000J0D01*
G01*
X110186000Y-79797600D01*
G75*
G02*
X110051000Y-79662600I0J135000D01*
G01*
X110051000Y-79392600D01*
G75*
G02*
X110186000Y-79257600I135000J0D01*
G01*
G37*
G36*
G01*
X110186000Y-78237600D02*
X110556000Y-78237600D01*
G75*
G02*
X110691000Y-78372600I0J-135000D01*
G01*
X110691000Y-78642600D01*
G75*
G02*
X110556000Y-78777600I-135000J0D01*
G01*
X110186000Y-78777600D01*
G75*
G02*
X110051000Y-78642600I0J135000D01*
G01*
X110051000Y-78372600D01*
G75*
G02*
X110186000Y-78237600I135000J0D01*
G01*
G37*
G36*
G01*
X110096000Y-76447400D02*
X110646000Y-76447400D01*
G75*
G02*
X110846000Y-76647400I0J-200000D01*
G01*
X110846000Y-77047400D01*
G75*
G02*
X110646000Y-77247400I-200000J0D01*
G01*
X110096000Y-77247400D01*
G75*
G02*
X109896000Y-77047400I0J200000D01*
G01*
X109896000Y-76647400D01*
G75*
G02*
X110096000Y-76447400I200000J0D01*
G01*
G37*
G36*
G01*
X110096000Y-74797400D02*
X110646000Y-74797400D01*
G75*
G02*
X110846000Y-74997400I0J-200000D01*
G01*
X110846000Y-75397400D01*
G75*
G02*
X110646000Y-75597400I-200000J0D01*
G01*
X110096000Y-75597400D01*
G75*
G02*
X109896000Y-75397400I0J200000D01*
G01*
X109896000Y-74997400D01*
G75*
G02*
X110096000Y-74797400I200000J0D01*
G01*
G37*
G36*
G01*
X100122000Y-75423600D02*
X98522000Y-75423600D01*
G75*
G02*
X98322000Y-75223600I0J200000D01*
G01*
X98322000Y-74823600D01*
G75*
G02*
X98522000Y-74623600I200000J0D01*
G01*
X100122000Y-74623600D01*
G75*
G02*
X100322000Y-74823600I0J-200000D01*
G01*
X100322000Y-75223600D01*
G75*
G02*
X100122000Y-75423600I-200000J0D01*
G01*
G37*
G36*
G01*
X100122000Y-71223600D02*
X98522000Y-71223600D01*
G75*
G02*
X98322000Y-71023600I0J200000D01*
G01*
X98322000Y-70623600D01*
G75*
G02*
X98522000Y-70423600I200000J0D01*
G01*
X100122000Y-70423600D01*
G75*
G02*
X100322000Y-70623600I0J-200000D01*
G01*
X100322000Y-71023600D01*
G75*
G02*
X100122000Y-71223600I-200000J0D01*
G01*
G37*
G36*
G01*
X99890780Y-76467560D02*
X99550780Y-76467560D01*
G75*
G02*
X99410780Y-76327560I0J140000D01*
G01*
X99410780Y-76047560D01*
G75*
G02*
X99550780Y-75907560I140000J0D01*
G01*
X99890780Y-75907560D01*
G75*
G02*
X100030780Y-76047560I0J-140000D01*
G01*
X100030780Y-76327560D01*
G75*
G02*
X99890780Y-76467560I-140000J0D01*
G01*
G37*
G36*
G01*
X99890780Y-77427560D02*
X99550780Y-77427560D01*
G75*
G02*
X99410780Y-77287560I0J140000D01*
G01*
X99410780Y-77007560D01*
G75*
G02*
X99550780Y-76867560I140000J0D01*
G01*
X99890780Y-76867560D01*
G75*
G02*
X100030780Y-77007560I0J-140000D01*
G01*
X100030780Y-77287560D01*
G75*
G02*
X99890780Y-77427560I-140000J0D01*
G01*
G37*
G36*
G01*
X108007560Y-67303000D02*
X108007560Y-67673000D01*
G75*
G02*
X107872560Y-67808000I-135000J0D01*
G01*
X107602560Y-67808000D01*
G75*
G02*
X107467560Y-67673000I0J135000D01*
G01*
X107467560Y-67303000D01*
G75*
G02*
X107602560Y-67168000I135000J0D01*
G01*
X107872560Y-67168000D01*
G75*
G02*
X108007560Y-67303000I0J-135000D01*
G01*
G37*
G36*
G01*
X109027560Y-67303000D02*
X109027560Y-67673000D01*
G75*
G02*
X108892560Y-67808000I-135000J0D01*
G01*
X108622560Y-67808000D01*
G75*
G02*
X108487560Y-67673000I0J135000D01*
G01*
X108487560Y-67303000D01*
G75*
G02*
X108622560Y-67168000I135000J0D01*
G01*
X108892560Y-67168000D01*
G75*
G02*
X109027560Y-67303000I0J-135000D01*
G01*
G37*
G36*
G01*
X109793750Y-71000000D02*
X110556250Y-71000000D01*
G75*
G02*
X110775000Y-71218750I0J-218750D01*
G01*
X110775000Y-71656250D01*
G75*
G02*
X110556250Y-71875000I-218750J0D01*
G01*
X109793750Y-71875000D01*
G75*
G02*
X109575000Y-71656250I0J218750D01*
G01*
X109575000Y-71218750D01*
G75*
G02*
X109793750Y-71000000I218750J0D01*
G01*
G37*
G36*
G01*
X109793750Y-68875000D02*
X110556250Y-68875000D01*
G75*
G02*
X110775000Y-69093750I0J-218750D01*
G01*
X110775000Y-69531250D01*
G75*
G02*
X110556250Y-69750000I-218750J0D01*
G01*
X109793750Y-69750000D01*
G75*
G02*
X109575000Y-69531250I0J218750D01*
G01*
X109575000Y-69093750D01*
G75*
G02*
X109793750Y-68875000I218750J0D01*
G01*
G37*
D10*
X105900000Y-71175000D03*
X105900000Y-70675000D03*
X105900000Y-70175000D03*
X105900000Y-69675000D03*
X105900000Y-69175000D03*
X108700000Y-69175000D03*
X108700000Y-69675000D03*
X108700000Y-70175000D03*
X108700000Y-70675000D03*
X108700000Y-71175000D03*
G36*
G01*
X107175000Y-68500000D02*
X107175000Y-68790000D01*
G75*
G02*
X107150000Y-68815000I-25000J0D01*
G01*
X106950000Y-68815000D01*
G75*
G02*
X106925000Y-68790000I0J25000D01*
G01*
X106925000Y-68500000D01*
G75*
G02*
X106950000Y-68475000I25000J0D01*
G01*
X107150000Y-68475000D01*
G75*
G02*
X107175000Y-68500000I0J-25000D01*
G01*
G37*
G36*
G01*
X107675000Y-68500000D02*
X107675000Y-68790000D01*
G75*
G02*
X107650000Y-68815000I-25000J0D01*
G01*
X107450000Y-68815000D01*
G75*
G02*
X107425000Y-68790000I0J25000D01*
G01*
X107425000Y-68500000D01*
G75*
G02*
X107450000Y-68475000I25000J0D01*
G01*
X107650000Y-68475000D01*
G75*
G02*
X107675000Y-68500000I0J-25000D01*
G01*
G37*
G36*
G01*
X107175000Y-71560000D02*
X107175000Y-71850000D01*
G75*
G02*
X107150000Y-71875000I-25000J0D01*
G01*
X106950000Y-71875000D01*
G75*
G02*
X106925000Y-71850000I0J25000D01*
G01*
X106925000Y-71560000D01*
G75*
G02*
X106950000Y-71535000I25000J0D01*
G01*
X107150000Y-71535000D01*
G75*
G02*
X107175000Y-71560000I0J-25000D01*
G01*
G37*
G36*
G01*
X107675000Y-71560000D02*
X107675000Y-71850000D01*
G75*
G02*
X107650000Y-71875000I-25000J0D01*
G01*
X107450000Y-71875000D01*
G75*
G02*
X107425000Y-71850000I0J25000D01*
G01*
X107425000Y-71560000D01*
G75*
G02*
X107450000Y-71535000I25000J0D01*
G01*
X107650000Y-71535000D01*
G75*
G02*
X107675000Y-71560000I0J-25000D01*
G01*
G37*
G36*
G01*
X108050000Y-70381000D02*
X108050000Y-71229000D01*
G75*
G02*
X107944000Y-71335000I-106000J0D01*
G01*
X106656000Y-71335000D01*
G75*
G02*
X106550000Y-71229000I0J106000D01*
G01*
X106550000Y-70381000D01*
G75*
G02*
X106656000Y-70275000I106000J0D01*
G01*
X107944000Y-70275000D01*
G75*
G02*
X108050000Y-70381000I0J-106000D01*
G01*
G37*
G36*
G01*
X108050000Y-69121000D02*
X108050000Y-69969000D01*
G75*
G02*
X107944000Y-70075000I-106000J0D01*
G01*
X106656000Y-70075000D01*
G75*
G02*
X106550000Y-69969000I0J106000D01*
G01*
X106550000Y-69121000D01*
G75*
G02*
X106656000Y-69015000I106000J0D01*
G01*
X107944000Y-69015000D01*
G75*
G02*
X108050000Y-69121000I0J-106000D01*
G01*
G37*
G36*
G01*
X104155800Y-71193200D02*
X104495800Y-71193200D01*
G75*
G02*
X104635800Y-71333200I0J-140000D01*
G01*
X104635800Y-71613200D01*
G75*
G02*
X104495800Y-71753200I-140000J0D01*
G01*
X104155800Y-71753200D01*
G75*
G02*
X104015800Y-71613200I0J140000D01*
G01*
X104015800Y-71333200D01*
G75*
G02*
X104155800Y-71193200I140000J0D01*
G01*
G37*
G36*
G01*
X104155800Y-70233200D02*
X104495800Y-70233200D01*
G75*
G02*
X104635800Y-70373200I0J-140000D01*
G01*
X104635800Y-70653200D01*
G75*
G02*
X104495800Y-70793200I-140000J0D01*
G01*
X104155800Y-70793200D01*
G75*
G02*
X104015800Y-70653200I0J140000D01*
G01*
X104015800Y-70373200D01*
G75*
G02*
X104155800Y-70233200I140000J0D01*
G01*
G37*
G36*
G01*
X107011240Y-73129520D02*
X107011240Y-73469520D01*
G75*
G02*
X106871240Y-73609520I-140000J0D01*
G01*
X106591240Y-73609520D01*
G75*
G02*
X106451240Y-73469520I0J140000D01*
G01*
X106451240Y-73129520D01*
G75*
G02*
X106591240Y-72989520I140000J0D01*
G01*
X106871240Y-72989520D01*
G75*
G02*
X107011240Y-73129520I0J-140000D01*
G01*
G37*
G36*
G01*
X107971240Y-73129520D02*
X107971240Y-73469520D01*
G75*
G02*
X107831240Y-73609520I-140000J0D01*
G01*
X107551240Y-73609520D01*
G75*
G02*
X107411240Y-73469520I0J140000D01*
G01*
X107411240Y-73129520D01*
G75*
G02*
X107551240Y-72989520I140000J0D01*
G01*
X107831240Y-72989520D01*
G75*
G02*
X107971240Y-73129520I0J-140000D01*
G01*
G37*
G36*
G01*
X105164760Y-78663960D02*
X105504760Y-78663960D01*
G75*
G02*
X105644760Y-78803960I0J-140000D01*
G01*
X105644760Y-79083960D01*
G75*
G02*
X105504760Y-79223960I-140000J0D01*
G01*
X105164760Y-79223960D01*
G75*
G02*
X105024760Y-79083960I0J140000D01*
G01*
X105024760Y-78803960D01*
G75*
G02*
X105164760Y-78663960I140000J0D01*
G01*
G37*
G36*
G01*
X105164760Y-77703960D02*
X105504760Y-77703960D01*
G75*
G02*
X105644760Y-77843960I0J-140000D01*
G01*
X105644760Y-78123960D01*
G75*
G02*
X105504760Y-78263960I-140000J0D01*
G01*
X105164760Y-78263960D01*
G75*
G02*
X105024760Y-78123960I0J140000D01*
G01*
X105024760Y-77843960D01*
G75*
G02*
X105164760Y-77703960I140000J0D01*
G01*
G37*
G36*
G01*
X104373880Y-81100400D02*
X104033880Y-81100400D01*
G75*
G02*
X103893880Y-80960400I0J140000D01*
G01*
X103893880Y-80680400D01*
G75*
G02*
X104033880Y-80540400I140000J0D01*
G01*
X104373880Y-80540400D01*
G75*
G02*
X104513880Y-80680400I0J-140000D01*
G01*
X104513880Y-80960400D01*
G75*
G02*
X104373880Y-81100400I-140000J0D01*
G01*
G37*
G36*
G01*
X104373880Y-80140400D02*
X104033880Y-80140400D01*
G75*
G02*
X103893880Y-80000400I0J140000D01*
G01*
X103893880Y-79720400D01*
G75*
G02*
X104033880Y-79580400I140000J0D01*
G01*
X104373880Y-79580400D01*
G75*
G02*
X104513880Y-79720400I0J-140000D01*
G01*
X104513880Y-80000400D01*
G75*
G02*
X104373880Y-80140400I-140000J0D01*
G01*
G37*
G36*
G01*
X105902960Y-80716980D02*
X105562960Y-80716980D01*
G75*
G02*
X105422960Y-80576980I0J140000D01*
G01*
X105422960Y-80296980D01*
G75*
G02*
X105562960Y-80156980I140000J0D01*
G01*
X105902960Y-80156980D01*
G75*
G02*
X106042960Y-80296980I0J-140000D01*
G01*
X106042960Y-80576980D01*
G75*
G02*
X105902960Y-80716980I-140000J0D01*
G01*
G37*
G36*
G01*
X105902960Y-81676980D02*
X105562960Y-81676980D01*
G75*
G02*
X105422960Y-81536980I0J140000D01*
G01*
X105422960Y-81256980D01*
G75*
G02*
X105562960Y-81116980I140000J0D01*
G01*
X105902960Y-81116980D01*
G75*
G02*
X106042960Y-81256980I0J-140000D01*
G01*
X106042960Y-81536980D01*
G75*
G02*
X105902960Y-81676980I-140000J0D01*
G01*
G37*
G36*
G01*
X103375660Y-80140400D02*
X103035660Y-80140400D01*
G75*
G02*
X102895660Y-80000400I0J140000D01*
G01*
X102895660Y-79720400D01*
G75*
G02*
X103035660Y-79580400I140000J0D01*
G01*
X103375660Y-79580400D01*
G75*
G02*
X103515660Y-79720400I0J-140000D01*
G01*
X103515660Y-80000400D01*
G75*
G02*
X103375660Y-80140400I-140000J0D01*
G01*
G37*
G36*
G01*
X103375660Y-81100400D02*
X103035660Y-81100400D01*
G75*
G02*
X102895660Y-80960400I0J140000D01*
G01*
X102895660Y-80680400D01*
G75*
G02*
X103035660Y-80540400I140000J0D01*
G01*
X103375660Y-80540400D01*
G75*
G02*
X103515660Y-80680400I0J-140000D01*
G01*
X103515660Y-80960400D01*
G75*
G02*
X103375660Y-81100400I-140000J0D01*
G01*
G37*
D11*
X100375000Y-64620000D03*
X106825000Y-64620000D03*
X101150000Y-64620000D03*
X106050000Y-64620000D03*
D12*
X105350000Y-64620000D03*
X101850000Y-64620000D03*
X104850000Y-64620000D03*
X102350000Y-64620000D03*
X104350000Y-64620000D03*
X102850000Y-64620000D03*
X103350000Y-64620000D03*
X103850000Y-64620000D03*
G36*
G01*
X105247400Y-66359000D02*
X104877400Y-66359000D01*
G75*
G02*
X104742400Y-66224000I0J135000D01*
G01*
X104742400Y-65954000D01*
G75*
G02*
X104877400Y-65819000I135000J0D01*
G01*
X105247400Y-65819000D01*
G75*
G02*
X105382400Y-65954000I0J-135000D01*
G01*
X105382400Y-66224000D01*
G75*
G02*
X105247400Y-66359000I-135000J0D01*
G01*
G37*
G36*
G01*
X105247400Y-67379000D02*
X104877400Y-67379000D01*
G75*
G02*
X104742400Y-67244000I0J135000D01*
G01*
X104742400Y-66974000D01*
G75*
G02*
X104877400Y-66839000I135000J0D01*
G01*
X105247400Y-66839000D01*
G75*
G02*
X105382400Y-66974000I0J-135000D01*
G01*
X105382400Y-67244000D01*
G75*
G02*
X105247400Y-67379000I-135000J0D01*
G01*
G37*
D13*
X103419200Y-97421800D03*
X101219200Y-97421800D03*
X101219200Y-95821800D03*
X103419200Y-95821800D03*
G36*
G01*
X97638640Y-87084280D02*
X97638640Y-87424280D01*
G75*
G02*
X97498640Y-87564280I-140000J0D01*
G01*
X97218640Y-87564280D01*
G75*
G02*
X97078640Y-87424280I0J140000D01*
G01*
X97078640Y-87084280D01*
G75*
G02*
X97218640Y-86944280I140000J0D01*
G01*
X97498640Y-86944280D01*
G75*
G02*
X97638640Y-87084280I0J-140000D01*
G01*
G37*
G36*
G01*
X98598640Y-87084280D02*
X98598640Y-87424280D01*
G75*
G02*
X98458640Y-87564280I-140000J0D01*
G01*
X98178640Y-87564280D01*
G75*
G02*
X98038640Y-87424280I0J140000D01*
G01*
X98038640Y-87084280D01*
G75*
G02*
X98178640Y-86944280I140000J0D01*
G01*
X98458640Y-86944280D01*
G75*
G02*
X98598640Y-87084280I0J-140000D01*
G01*
G37*
G36*
G01*
X103554300Y-94229300D02*
X103554300Y-94569300D01*
G75*
G02*
X103414300Y-94709300I-140000J0D01*
G01*
X103134300Y-94709300D01*
G75*
G02*
X102994300Y-94569300I0J140000D01*
G01*
X102994300Y-94229300D01*
G75*
G02*
X103134300Y-94089300I140000J0D01*
G01*
X103414300Y-94089300D01*
G75*
G02*
X103554300Y-94229300I0J-140000D01*
G01*
G37*
G36*
G01*
X104514300Y-94229300D02*
X104514300Y-94569300D01*
G75*
G02*
X104374300Y-94709300I-140000J0D01*
G01*
X104094300Y-94709300D01*
G75*
G02*
X103954300Y-94569300I0J140000D01*
G01*
X103954300Y-94229300D01*
G75*
G02*
X104094300Y-94089300I140000J0D01*
G01*
X104374300Y-94089300D01*
G75*
G02*
X104514300Y-94229300I0J-140000D01*
G01*
G37*
G36*
G01*
X106896100Y-80714440D02*
X106556100Y-80714440D01*
G75*
G02*
X106416100Y-80574440I0J140000D01*
G01*
X106416100Y-80294440D01*
G75*
G02*
X106556100Y-80154440I140000J0D01*
G01*
X106896100Y-80154440D01*
G75*
G02*
X107036100Y-80294440I0J-140000D01*
G01*
X107036100Y-80574440D01*
G75*
G02*
X106896100Y-80714440I-140000J0D01*
G01*
G37*
G36*
G01*
X106896100Y-81674440D02*
X106556100Y-81674440D01*
G75*
G02*
X106416100Y-81534440I0J140000D01*
G01*
X106416100Y-81254440D01*
G75*
G02*
X106556100Y-81114440I140000J0D01*
G01*
X106896100Y-81114440D01*
G75*
G02*
X107036100Y-81254440I0J-140000D01*
G01*
X107036100Y-81534440D01*
G75*
G02*
X106896100Y-81674440I-140000J0D01*
G01*
G37*
G36*
G01*
X103165200Y-91767200D02*
X103505200Y-91767200D01*
G75*
G02*
X103645200Y-91907200I0J-140000D01*
G01*
X103645200Y-92187200D01*
G75*
G02*
X103505200Y-92327200I-140000J0D01*
G01*
X103165200Y-92327200D01*
G75*
G02*
X103025200Y-92187200I0J140000D01*
G01*
X103025200Y-91907200D01*
G75*
G02*
X103165200Y-91767200I140000J0D01*
G01*
G37*
G36*
G01*
X103165200Y-90807200D02*
X103505200Y-90807200D01*
G75*
G02*
X103645200Y-90947200I0J-140000D01*
G01*
X103645200Y-91227200D01*
G75*
G02*
X103505200Y-91367200I-140000J0D01*
G01*
X103165200Y-91367200D01*
G75*
G02*
X103025200Y-91227200I0J140000D01*
G01*
X103025200Y-90947200D01*
G75*
G02*
X103165200Y-90807200I140000J0D01*
G01*
G37*
G36*
G01*
X110334840Y-87195680D02*
X110334840Y-86855680D01*
G75*
G02*
X110474840Y-86715680I140000J0D01*
G01*
X110754840Y-86715680D01*
G75*
G02*
X110894840Y-86855680I0J-140000D01*
G01*
X110894840Y-87195680D01*
G75*
G02*
X110754840Y-87335680I-140000J0D01*
G01*
X110474840Y-87335680D01*
G75*
G02*
X110334840Y-87195680I0J140000D01*
G01*
G37*
G36*
G01*
X109374840Y-87195680D02*
X109374840Y-86855680D01*
G75*
G02*
X109514840Y-86715680I140000J0D01*
G01*
X109794840Y-86715680D01*
G75*
G02*
X109934840Y-86855680I0J-140000D01*
G01*
X109934840Y-87195680D01*
G75*
G02*
X109794840Y-87335680I-140000J0D01*
G01*
X109514840Y-87335680D01*
G75*
G02*
X109374840Y-87195680I0J140000D01*
G01*
G37*
G36*
G01*
X104214760Y-78663960D02*
X104554760Y-78663960D01*
G75*
G02*
X104694760Y-78803960I0J-140000D01*
G01*
X104694760Y-79083960D01*
G75*
G02*
X104554760Y-79223960I-140000J0D01*
G01*
X104214760Y-79223960D01*
G75*
G02*
X104074760Y-79083960I0J140000D01*
G01*
X104074760Y-78803960D01*
G75*
G02*
X104214760Y-78663960I140000J0D01*
G01*
G37*
G36*
G01*
X104214760Y-77703960D02*
X104554760Y-77703960D01*
G75*
G02*
X104694760Y-77843960I0J-140000D01*
G01*
X104694760Y-78123960D01*
G75*
G02*
X104554760Y-78263960I-140000J0D01*
G01*
X104214760Y-78263960D01*
G75*
G02*
X104074760Y-78123960I0J140000D01*
G01*
X104074760Y-77843960D01*
G75*
G02*
X104214760Y-77703960I140000J0D01*
G01*
G37*
G36*
G01*
X98857000Y-76470100D02*
X98517000Y-76470100D01*
G75*
G02*
X98377000Y-76330100I0J140000D01*
G01*
X98377000Y-76050100D01*
G75*
G02*
X98517000Y-75910100I140000J0D01*
G01*
X98857000Y-75910100D01*
G75*
G02*
X98997000Y-76050100I0J-140000D01*
G01*
X98997000Y-76330100D01*
G75*
G02*
X98857000Y-76470100I-140000J0D01*
G01*
G37*
G36*
G01*
X98857000Y-77430100D02*
X98517000Y-77430100D01*
G75*
G02*
X98377000Y-77290100I0J140000D01*
G01*
X98377000Y-77010100D01*
G75*
G02*
X98517000Y-76870100I140000J0D01*
G01*
X98857000Y-76870100D01*
G75*
G02*
X98997000Y-77010100I0J-140000D01*
G01*
X98997000Y-77290100D01*
G75*
G02*
X98857000Y-77430100I-140000J0D01*
G01*
G37*
G36*
G01*
X98400000Y-82480000D02*
X98400000Y-82820000D01*
G75*
G02*
X98260000Y-82960000I-140000J0D01*
G01*
X97980000Y-82960000D01*
G75*
G02*
X97840000Y-82820000I0J140000D01*
G01*
X97840000Y-82480000D01*
G75*
G02*
X97980000Y-82340000I140000J0D01*
G01*
X98260000Y-82340000D01*
G75*
G02*
X98400000Y-82480000I0J-140000D01*
G01*
G37*
G36*
G01*
X99360000Y-82480000D02*
X99360000Y-82820000D01*
G75*
G02*
X99220000Y-82960000I-140000J0D01*
G01*
X98940000Y-82960000D01*
G75*
G02*
X98800000Y-82820000I0J140000D01*
G01*
X98800000Y-82480000D01*
G75*
G02*
X98940000Y-82340000I140000J0D01*
G01*
X99220000Y-82340000D01*
G75*
G02*
X99360000Y-82480000I0J-140000D01*
G01*
G37*
G36*
G01*
X104830000Y-92375000D02*
X105170000Y-92375000D01*
G75*
G02*
X105310000Y-92515000I0J-140000D01*
G01*
X105310000Y-92795000D01*
G75*
G02*
X105170000Y-92935000I-140000J0D01*
G01*
X104830000Y-92935000D01*
G75*
G02*
X104690000Y-92795000I0J140000D01*
G01*
X104690000Y-92515000D01*
G75*
G02*
X104830000Y-92375000I140000J0D01*
G01*
G37*
G36*
G01*
X104830000Y-91415000D02*
X105170000Y-91415000D01*
G75*
G02*
X105310000Y-91555000I0J-140000D01*
G01*
X105310000Y-91835000D01*
G75*
G02*
X105170000Y-91975000I-140000J0D01*
G01*
X104830000Y-91975000D01*
G75*
G02*
X104690000Y-91835000I0J140000D01*
G01*
X104690000Y-91555000D01*
G75*
G02*
X104830000Y-91415000I140000J0D01*
G01*
G37*
G36*
G01*
X100935560Y-94216600D02*
X100935560Y-94556600D01*
G75*
G02*
X100795560Y-94696600I-140000J0D01*
G01*
X100515560Y-94696600D01*
G75*
G02*
X100375560Y-94556600I0J140000D01*
G01*
X100375560Y-94216600D01*
G75*
G02*
X100515560Y-94076600I140000J0D01*
G01*
X100795560Y-94076600D01*
G75*
G02*
X100935560Y-94216600I0J-140000D01*
G01*
G37*
G36*
G01*
X101895560Y-94216600D02*
X101895560Y-94556600D01*
G75*
G02*
X101755560Y-94696600I-140000J0D01*
G01*
X101475560Y-94696600D01*
G75*
G02*
X101335560Y-94556600I0J140000D01*
G01*
X101335560Y-94216600D01*
G75*
G02*
X101475560Y-94076600I140000J0D01*
G01*
X101755560Y-94076600D01*
G75*
G02*
X101895560Y-94216600I0J-140000D01*
G01*
G37*
G36*
G01*
X108942280Y-85245560D02*
X108942280Y-85615560D01*
G75*
G02*
X108807280Y-85750560I-135000J0D01*
G01*
X108537280Y-85750560D01*
G75*
G02*
X108402280Y-85615560I0J135000D01*
G01*
X108402280Y-85245560D01*
G75*
G02*
X108537280Y-85110560I135000J0D01*
G01*
X108807280Y-85110560D01*
G75*
G02*
X108942280Y-85245560I0J-135000D01*
G01*
G37*
G36*
G01*
X109962280Y-85245560D02*
X109962280Y-85615560D01*
G75*
G02*
X109827280Y-85750560I-135000J0D01*
G01*
X109557280Y-85750560D01*
G75*
G02*
X109422280Y-85615560I0J135000D01*
G01*
X109422280Y-85245560D01*
G75*
G02*
X109557280Y-85110560I135000J0D01*
G01*
X109827280Y-85110560D01*
G75*
G02*
X109962280Y-85245560I0J-135000D01*
G01*
G37*
G36*
G01*
X110482980Y-85463080D02*
X110827980Y-85463080D01*
G75*
G02*
X110975480Y-85610580I0J-147500D01*
G01*
X110975480Y-85905580D01*
G75*
G02*
X110827980Y-86053080I-147500J0D01*
G01*
X110482980Y-86053080D01*
G75*
G02*
X110335480Y-85905580I0J147500D01*
G01*
X110335480Y-85610580D01*
G75*
G02*
X110482980Y-85463080I147500J0D01*
G01*
G37*
G36*
G01*
X110482980Y-84493080D02*
X110827980Y-84493080D01*
G75*
G02*
X110975480Y-84640580I0J-147500D01*
G01*
X110975480Y-84935580D01*
G75*
G02*
X110827980Y-85083080I-147500J0D01*
G01*
X110482980Y-85083080D01*
G75*
G02*
X110335480Y-84935580I0J147500D01*
G01*
X110335480Y-84640580D01*
G75*
G02*
X110482980Y-84493080I147500J0D01*
G01*
G37*
G36*
G01*
X100990000Y-82975000D02*
X100990000Y-82200000D01*
G75*
G02*
X101040000Y-82150000I50000J0D01*
G01*
X101140000Y-82150000D01*
G75*
G02*
X101190000Y-82200000I0J-50000D01*
G01*
X101190000Y-82975000D01*
G75*
G02*
X101140000Y-83025000I-50000J0D01*
G01*
X101040000Y-83025000D01*
G75*
G02*
X100990000Y-82975000I0J50000D01*
G01*
G37*
G36*
G01*
X101390000Y-82975000D02*
X101390000Y-82200000D01*
G75*
G02*
X101440000Y-82150000I50000J0D01*
G01*
X101540000Y-82150000D01*
G75*
G02*
X101590000Y-82200000I0J-50000D01*
G01*
X101590000Y-82975000D01*
G75*
G02*
X101540000Y-83025000I-50000J0D01*
G01*
X101440000Y-83025000D01*
G75*
G02*
X101390000Y-82975000I0J50000D01*
G01*
G37*
G36*
G01*
X101790000Y-82975000D02*
X101790000Y-82200000D01*
G75*
G02*
X101840000Y-82150000I50000J0D01*
G01*
X101940000Y-82150000D01*
G75*
G02*
X101990000Y-82200000I0J-50000D01*
G01*
X101990000Y-82975000D01*
G75*
G02*
X101940000Y-83025000I-50000J0D01*
G01*
X101840000Y-83025000D01*
G75*
G02*
X101790000Y-82975000I0J50000D01*
G01*
G37*
G36*
G01*
X102190000Y-82975000D02*
X102190000Y-82200000D01*
G75*
G02*
X102240000Y-82150000I50000J0D01*
G01*
X102340000Y-82150000D01*
G75*
G02*
X102390000Y-82200000I0J-50000D01*
G01*
X102390000Y-82975000D01*
G75*
G02*
X102340000Y-83025000I-50000J0D01*
G01*
X102240000Y-83025000D01*
G75*
G02*
X102190000Y-82975000I0J50000D01*
G01*
G37*
G36*
G01*
X102590000Y-82975000D02*
X102590000Y-82200000D01*
G75*
G02*
X102640000Y-82150000I50000J0D01*
G01*
X102740000Y-82150000D01*
G75*
G02*
X102790000Y-82200000I0J-50000D01*
G01*
X102790000Y-82975000D01*
G75*
G02*
X102740000Y-83025000I-50000J0D01*
G01*
X102640000Y-83025000D01*
G75*
G02*
X102590000Y-82975000I0J50000D01*
G01*
G37*
G36*
G01*
X102990000Y-82975000D02*
X102990000Y-82200000D01*
G75*
G02*
X103040000Y-82150000I50000J0D01*
G01*
X103140000Y-82150000D01*
G75*
G02*
X103190000Y-82200000I0J-50000D01*
G01*
X103190000Y-82975000D01*
G75*
G02*
X103140000Y-83025000I-50000J0D01*
G01*
X103040000Y-83025000D01*
G75*
G02*
X102990000Y-82975000I0J50000D01*
G01*
G37*
G36*
G01*
X103390000Y-82975000D02*
X103390000Y-82200000D01*
G75*
G02*
X103440000Y-82150000I50000J0D01*
G01*
X103540000Y-82150000D01*
G75*
G02*
X103590000Y-82200000I0J-50000D01*
G01*
X103590000Y-82975000D01*
G75*
G02*
X103540000Y-83025000I-50000J0D01*
G01*
X103440000Y-83025000D01*
G75*
G02*
X103390000Y-82975000I0J50000D01*
G01*
G37*
G36*
G01*
X103790000Y-82975000D02*
X103790000Y-82200000D01*
G75*
G02*
X103840000Y-82150000I50000J0D01*
G01*
X103940000Y-82150000D01*
G75*
G02*
X103990000Y-82200000I0J-50000D01*
G01*
X103990000Y-82975000D01*
G75*
G02*
X103940000Y-83025000I-50000J0D01*
G01*
X103840000Y-83025000D01*
G75*
G02*
X103790000Y-82975000I0J50000D01*
G01*
G37*
G36*
G01*
X104190000Y-82975000D02*
X104190000Y-82200000D01*
G75*
G02*
X104240000Y-82150000I50000J0D01*
G01*
X104340000Y-82150000D01*
G75*
G02*
X104390000Y-82200000I0J-50000D01*
G01*
X104390000Y-82975000D01*
G75*
G02*
X104340000Y-83025000I-50000J0D01*
G01*
X104240000Y-83025000D01*
G75*
G02*
X104190000Y-82975000I0J50000D01*
G01*
G37*
G36*
G01*
X104590000Y-82975000D02*
X104590000Y-82200000D01*
G75*
G02*
X104640000Y-82150000I50000J0D01*
G01*
X104740000Y-82150000D01*
G75*
G02*
X104790000Y-82200000I0J-50000D01*
G01*
X104790000Y-82975000D01*
G75*
G02*
X104740000Y-83025000I-50000J0D01*
G01*
X104640000Y-83025000D01*
G75*
G02*
X104590000Y-82975000I0J50000D01*
G01*
G37*
G36*
G01*
X104990000Y-82975000D02*
X104990000Y-82200000D01*
G75*
G02*
X105040000Y-82150000I50000J0D01*
G01*
X105140000Y-82150000D01*
G75*
G02*
X105190000Y-82200000I0J-50000D01*
G01*
X105190000Y-82975000D01*
G75*
G02*
X105140000Y-83025000I-50000J0D01*
G01*
X105040000Y-83025000D01*
G75*
G02*
X104990000Y-82975000I0J50000D01*
G01*
G37*
G36*
G01*
X105390000Y-82975000D02*
X105390000Y-82200000D01*
G75*
G02*
X105440000Y-82150000I50000J0D01*
G01*
X105540000Y-82150000D01*
G75*
G02*
X105590000Y-82200000I0J-50000D01*
G01*
X105590000Y-82975000D01*
G75*
G02*
X105540000Y-83025000I-50000J0D01*
G01*
X105440000Y-83025000D01*
G75*
G02*
X105390000Y-82975000I0J50000D01*
G01*
G37*
G36*
G01*
X105790000Y-82975000D02*
X105790000Y-82200000D01*
G75*
G02*
X105840000Y-82150000I50000J0D01*
G01*
X105940000Y-82150000D01*
G75*
G02*
X105990000Y-82200000I0J-50000D01*
G01*
X105990000Y-82975000D01*
G75*
G02*
X105940000Y-83025000I-50000J0D01*
G01*
X105840000Y-83025000D01*
G75*
G02*
X105790000Y-82975000I0J50000D01*
G01*
G37*
G36*
G01*
X106190000Y-82975000D02*
X106190000Y-82200000D01*
G75*
G02*
X106240000Y-82150000I50000J0D01*
G01*
X106340000Y-82150000D01*
G75*
G02*
X106390000Y-82200000I0J-50000D01*
G01*
X106390000Y-82975000D01*
G75*
G02*
X106340000Y-83025000I-50000J0D01*
G01*
X106240000Y-83025000D01*
G75*
G02*
X106190000Y-82975000I0J50000D01*
G01*
G37*
G36*
G01*
X106690000Y-83475000D02*
X106690000Y-83375000D01*
G75*
G02*
X106740000Y-83325000I50000J0D01*
G01*
X107515000Y-83325000D01*
G75*
G02*
X107565000Y-83375000I0J-50000D01*
G01*
X107565000Y-83475000D01*
G75*
G02*
X107515000Y-83525000I-50000J0D01*
G01*
X106740000Y-83525000D01*
G75*
G02*
X106690000Y-83475000I0J50000D01*
G01*
G37*
G36*
G01*
X106690000Y-83875000D02*
X106690000Y-83775000D01*
G75*
G02*
X106740000Y-83725000I50000J0D01*
G01*
X107515000Y-83725000D01*
G75*
G02*
X107565000Y-83775000I0J-50000D01*
G01*
X107565000Y-83875000D01*
G75*
G02*
X107515000Y-83925000I-50000J0D01*
G01*
X106740000Y-83925000D01*
G75*
G02*
X106690000Y-83875000I0J50000D01*
G01*
G37*
G36*
G01*
X106690000Y-84275000D02*
X106690000Y-84175000D01*
G75*
G02*
X106740000Y-84125000I50000J0D01*
G01*
X107515000Y-84125000D01*
G75*
G02*
X107565000Y-84175000I0J-50000D01*
G01*
X107565000Y-84275000D01*
G75*
G02*
X107515000Y-84325000I-50000J0D01*
G01*
X106740000Y-84325000D01*
G75*
G02*
X106690000Y-84275000I0J50000D01*
G01*
G37*
G36*
G01*
X106690000Y-84675000D02*
X106690000Y-84575000D01*
G75*
G02*
X106740000Y-84525000I50000J0D01*
G01*
X107515000Y-84525000D01*
G75*
G02*
X107565000Y-84575000I0J-50000D01*
G01*
X107565000Y-84675000D01*
G75*
G02*
X107515000Y-84725000I-50000J0D01*
G01*
X106740000Y-84725000D01*
G75*
G02*
X106690000Y-84675000I0J50000D01*
G01*
G37*
G36*
G01*
X106690000Y-85075000D02*
X106690000Y-84975000D01*
G75*
G02*
X106740000Y-84925000I50000J0D01*
G01*
X107515000Y-84925000D01*
G75*
G02*
X107565000Y-84975000I0J-50000D01*
G01*
X107565000Y-85075000D01*
G75*
G02*
X107515000Y-85125000I-50000J0D01*
G01*
X106740000Y-85125000D01*
G75*
G02*
X106690000Y-85075000I0J50000D01*
G01*
G37*
G36*
G01*
X106690000Y-85475000D02*
X106690000Y-85375000D01*
G75*
G02*
X106740000Y-85325000I50000J0D01*
G01*
X107515000Y-85325000D01*
G75*
G02*
X107565000Y-85375000I0J-50000D01*
G01*
X107565000Y-85475000D01*
G75*
G02*
X107515000Y-85525000I-50000J0D01*
G01*
X106740000Y-85525000D01*
G75*
G02*
X106690000Y-85475000I0J50000D01*
G01*
G37*
G36*
G01*
X106690000Y-85875000D02*
X106690000Y-85775000D01*
G75*
G02*
X106740000Y-85725000I50000J0D01*
G01*
X107515000Y-85725000D01*
G75*
G02*
X107565000Y-85775000I0J-50000D01*
G01*
X107565000Y-85875000D01*
G75*
G02*
X107515000Y-85925000I-50000J0D01*
G01*
X106740000Y-85925000D01*
G75*
G02*
X106690000Y-85875000I0J50000D01*
G01*
G37*
G36*
G01*
X106690000Y-86275000D02*
X106690000Y-86175000D01*
G75*
G02*
X106740000Y-86125000I50000J0D01*
G01*
X107515000Y-86125000D01*
G75*
G02*
X107565000Y-86175000I0J-50000D01*
G01*
X107565000Y-86275000D01*
G75*
G02*
X107515000Y-86325000I-50000J0D01*
G01*
X106740000Y-86325000D01*
G75*
G02*
X106690000Y-86275000I0J50000D01*
G01*
G37*
G36*
G01*
X106690000Y-86675000D02*
X106690000Y-86575000D01*
G75*
G02*
X106740000Y-86525000I50000J0D01*
G01*
X107515000Y-86525000D01*
G75*
G02*
X107565000Y-86575000I0J-50000D01*
G01*
X107565000Y-86675000D01*
G75*
G02*
X107515000Y-86725000I-50000J0D01*
G01*
X106740000Y-86725000D01*
G75*
G02*
X106690000Y-86675000I0J50000D01*
G01*
G37*
G36*
G01*
X106690000Y-87075000D02*
X106690000Y-86975000D01*
G75*
G02*
X106740000Y-86925000I50000J0D01*
G01*
X107515000Y-86925000D01*
G75*
G02*
X107565000Y-86975000I0J-50000D01*
G01*
X107565000Y-87075000D01*
G75*
G02*
X107515000Y-87125000I-50000J0D01*
G01*
X106740000Y-87125000D01*
G75*
G02*
X106690000Y-87075000I0J50000D01*
G01*
G37*
G36*
G01*
X106690000Y-87475000D02*
X106690000Y-87375000D01*
G75*
G02*
X106740000Y-87325000I50000J0D01*
G01*
X107515000Y-87325000D01*
G75*
G02*
X107565000Y-87375000I0J-50000D01*
G01*
X107565000Y-87475000D01*
G75*
G02*
X107515000Y-87525000I-50000J0D01*
G01*
X106740000Y-87525000D01*
G75*
G02*
X106690000Y-87475000I0J50000D01*
G01*
G37*
G36*
G01*
X106690000Y-87875000D02*
X106690000Y-87775000D01*
G75*
G02*
X106740000Y-87725000I50000J0D01*
G01*
X107515000Y-87725000D01*
G75*
G02*
X107565000Y-87775000I0J-50000D01*
G01*
X107565000Y-87875000D01*
G75*
G02*
X107515000Y-87925000I-50000J0D01*
G01*
X106740000Y-87925000D01*
G75*
G02*
X106690000Y-87875000I0J50000D01*
G01*
G37*
G36*
G01*
X106690000Y-88275000D02*
X106690000Y-88175000D01*
G75*
G02*
X106740000Y-88125000I50000J0D01*
G01*
X107515000Y-88125000D01*
G75*
G02*
X107565000Y-88175000I0J-50000D01*
G01*
X107565000Y-88275000D01*
G75*
G02*
X107515000Y-88325000I-50000J0D01*
G01*
X106740000Y-88325000D01*
G75*
G02*
X106690000Y-88275000I0J50000D01*
G01*
G37*
G36*
G01*
X106690000Y-88675000D02*
X106690000Y-88575000D01*
G75*
G02*
X106740000Y-88525000I50000J0D01*
G01*
X107515000Y-88525000D01*
G75*
G02*
X107565000Y-88575000I0J-50000D01*
G01*
X107565000Y-88675000D01*
G75*
G02*
X107515000Y-88725000I-50000J0D01*
G01*
X106740000Y-88725000D01*
G75*
G02*
X106690000Y-88675000I0J50000D01*
G01*
G37*
G36*
G01*
X106190000Y-89850000D02*
X106190000Y-89075000D01*
G75*
G02*
X106240000Y-89025000I50000J0D01*
G01*
X106340000Y-89025000D01*
G75*
G02*
X106390000Y-89075000I0J-50000D01*
G01*
X106390000Y-89850000D01*
G75*
G02*
X106340000Y-89900000I-50000J0D01*
G01*
X106240000Y-89900000D01*
G75*
G02*
X106190000Y-89850000I0J50000D01*
G01*
G37*
G36*
G01*
X105790000Y-89850000D02*
X105790000Y-89075000D01*
G75*
G02*
X105840000Y-89025000I50000J0D01*
G01*
X105940000Y-89025000D01*
G75*
G02*
X105990000Y-89075000I0J-50000D01*
G01*
X105990000Y-89850000D01*
G75*
G02*
X105940000Y-89900000I-50000J0D01*
G01*
X105840000Y-89900000D01*
G75*
G02*
X105790000Y-89850000I0J50000D01*
G01*
G37*
G36*
G01*
X105390000Y-89850000D02*
X105390000Y-89075000D01*
G75*
G02*
X105440000Y-89025000I50000J0D01*
G01*
X105540000Y-89025000D01*
G75*
G02*
X105590000Y-89075000I0J-50000D01*
G01*
X105590000Y-89850000D01*
G75*
G02*
X105540000Y-89900000I-50000J0D01*
G01*
X105440000Y-89900000D01*
G75*
G02*
X105390000Y-89850000I0J50000D01*
G01*
G37*
G36*
G01*
X104990000Y-89850000D02*
X104990000Y-89075000D01*
G75*
G02*
X105040000Y-89025000I50000J0D01*
G01*
X105140000Y-89025000D01*
G75*
G02*
X105190000Y-89075000I0J-50000D01*
G01*
X105190000Y-89850000D01*
G75*
G02*
X105140000Y-89900000I-50000J0D01*
G01*
X105040000Y-89900000D01*
G75*
G02*
X104990000Y-89850000I0J50000D01*
G01*
G37*
G36*
G01*
X104590000Y-89850000D02*
X104590000Y-89075000D01*
G75*
G02*
X104640000Y-89025000I50000J0D01*
G01*
X104740000Y-89025000D01*
G75*
G02*
X104790000Y-89075000I0J-50000D01*
G01*
X104790000Y-89850000D01*
G75*
G02*
X104740000Y-89900000I-50000J0D01*
G01*
X104640000Y-89900000D01*
G75*
G02*
X104590000Y-89850000I0J50000D01*
G01*
G37*
G36*
G01*
X104190000Y-89850000D02*
X104190000Y-89075000D01*
G75*
G02*
X104240000Y-89025000I50000J0D01*
G01*
X104340000Y-89025000D01*
G75*
G02*
X104390000Y-89075000I0J-50000D01*
G01*
X104390000Y-89850000D01*
G75*
G02*
X104340000Y-89900000I-50000J0D01*
G01*
X104240000Y-89900000D01*
G75*
G02*
X104190000Y-89850000I0J50000D01*
G01*
G37*
G36*
G01*
X103790000Y-89850000D02*
X103790000Y-89075000D01*
G75*
G02*
X103840000Y-89025000I50000J0D01*
G01*
X103940000Y-89025000D01*
G75*
G02*
X103990000Y-89075000I0J-50000D01*
G01*
X103990000Y-89850000D01*
G75*
G02*
X103940000Y-89900000I-50000J0D01*
G01*
X103840000Y-89900000D01*
G75*
G02*
X103790000Y-89850000I0J50000D01*
G01*
G37*
G36*
G01*
X103390000Y-89850000D02*
X103390000Y-89075000D01*
G75*
G02*
X103440000Y-89025000I50000J0D01*
G01*
X103540000Y-89025000D01*
G75*
G02*
X103590000Y-89075000I0J-50000D01*
G01*
X103590000Y-89850000D01*
G75*
G02*
X103540000Y-89900000I-50000J0D01*
G01*
X103440000Y-89900000D01*
G75*
G02*
X103390000Y-89850000I0J50000D01*
G01*
G37*
G36*
G01*
X102990000Y-89850000D02*
X102990000Y-89075000D01*
G75*
G02*
X103040000Y-89025000I50000J0D01*
G01*
X103140000Y-89025000D01*
G75*
G02*
X103190000Y-89075000I0J-50000D01*
G01*
X103190000Y-89850000D01*
G75*
G02*
X103140000Y-89900000I-50000J0D01*
G01*
X103040000Y-89900000D01*
G75*
G02*
X102990000Y-89850000I0J50000D01*
G01*
G37*
G36*
G01*
X102590000Y-89850000D02*
X102590000Y-89075000D01*
G75*
G02*
X102640000Y-89025000I50000J0D01*
G01*
X102740000Y-89025000D01*
G75*
G02*
X102790000Y-89075000I0J-50000D01*
G01*
X102790000Y-89850000D01*
G75*
G02*
X102740000Y-89900000I-50000J0D01*
G01*
X102640000Y-89900000D01*
G75*
G02*
X102590000Y-89850000I0J50000D01*
G01*
G37*
G36*
G01*
X102190000Y-89850000D02*
X102190000Y-89075000D01*
G75*
G02*
X102240000Y-89025000I50000J0D01*
G01*
X102340000Y-89025000D01*
G75*
G02*
X102390000Y-89075000I0J-50000D01*
G01*
X102390000Y-89850000D01*
G75*
G02*
X102340000Y-89900000I-50000J0D01*
G01*
X102240000Y-89900000D01*
G75*
G02*
X102190000Y-89850000I0J50000D01*
G01*
G37*
G36*
G01*
X101790000Y-89850000D02*
X101790000Y-89075000D01*
G75*
G02*
X101840000Y-89025000I50000J0D01*
G01*
X101940000Y-89025000D01*
G75*
G02*
X101990000Y-89075000I0J-50000D01*
G01*
X101990000Y-89850000D01*
G75*
G02*
X101940000Y-89900000I-50000J0D01*
G01*
X101840000Y-89900000D01*
G75*
G02*
X101790000Y-89850000I0J50000D01*
G01*
G37*
G36*
G01*
X101390000Y-89850000D02*
X101390000Y-89075000D01*
G75*
G02*
X101440000Y-89025000I50000J0D01*
G01*
X101540000Y-89025000D01*
G75*
G02*
X101590000Y-89075000I0J-50000D01*
G01*
X101590000Y-89850000D01*
G75*
G02*
X101540000Y-89900000I-50000J0D01*
G01*
X101440000Y-89900000D01*
G75*
G02*
X101390000Y-89850000I0J50000D01*
G01*
G37*
G36*
G01*
X100990000Y-89850000D02*
X100990000Y-89075000D01*
G75*
G02*
X101040000Y-89025000I50000J0D01*
G01*
X101140000Y-89025000D01*
G75*
G02*
X101190000Y-89075000I0J-50000D01*
G01*
X101190000Y-89850000D01*
G75*
G02*
X101140000Y-89900000I-50000J0D01*
G01*
X101040000Y-89900000D01*
G75*
G02*
X100990000Y-89850000I0J50000D01*
G01*
G37*
G36*
G01*
X99815000Y-88675000D02*
X99815000Y-88575000D01*
G75*
G02*
X99865000Y-88525000I50000J0D01*
G01*
X100640000Y-88525000D01*
G75*
G02*
X100690000Y-88575000I0J-50000D01*
G01*
X100690000Y-88675000D01*
G75*
G02*
X100640000Y-88725000I-50000J0D01*
G01*
X99865000Y-88725000D01*
G75*
G02*
X99815000Y-88675000I0J50000D01*
G01*
G37*
G36*
G01*
X99815000Y-88275000D02*
X99815000Y-88175000D01*
G75*
G02*
X99865000Y-88125000I50000J0D01*
G01*
X100640000Y-88125000D01*
G75*
G02*
X100690000Y-88175000I0J-50000D01*
G01*
X100690000Y-88275000D01*
G75*
G02*
X100640000Y-88325000I-50000J0D01*
G01*
X99865000Y-88325000D01*
G75*
G02*
X99815000Y-88275000I0J50000D01*
G01*
G37*
G36*
G01*
X99815000Y-87875000D02*
X99815000Y-87775000D01*
G75*
G02*
X99865000Y-87725000I50000J0D01*
G01*
X100640000Y-87725000D01*
G75*
G02*
X100690000Y-87775000I0J-50000D01*
G01*
X100690000Y-87875000D01*
G75*
G02*
X100640000Y-87925000I-50000J0D01*
G01*
X99865000Y-87925000D01*
G75*
G02*
X99815000Y-87875000I0J50000D01*
G01*
G37*
G36*
G01*
X99815000Y-87475000D02*
X99815000Y-87375000D01*
G75*
G02*
X99865000Y-87325000I50000J0D01*
G01*
X100640000Y-87325000D01*
G75*
G02*
X100690000Y-87375000I0J-50000D01*
G01*
X100690000Y-87475000D01*
G75*
G02*
X100640000Y-87525000I-50000J0D01*
G01*
X99865000Y-87525000D01*
G75*
G02*
X99815000Y-87475000I0J50000D01*
G01*
G37*
G36*
G01*
X99815000Y-87075000D02*
X99815000Y-86975000D01*
G75*
G02*
X99865000Y-86925000I50000J0D01*
G01*
X100640000Y-86925000D01*
G75*
G02*
X100690000Y-86975000I0J-50000D01*
G01*
X100690000Y-87075000D01*
G75*
G02*
X100640000Y-87125000I-50000J0D01*
G01*
X99865000Y-87125000D01*
G75*
G02*
X99815000Y-87075000I0J50000D01*
G01*
G37*
G36*
G01*
X99815000Y-86675000D02*
X99815000Y-86575000D01*
G75*
G02*
X99865000Y-86525000I50000J0D01*
G01*
X100640000Y-86525000D01*
G75*
G02*
X100690000Y-86575000I0J-50000D01*
G01*
X100690000Y-86675000D01*
G75*
G02*
X100640000Y-86725000I-50000J0D01*
G01*
X99865000Y-86725000D01*
G75*
G02*
X99815000Y-86675000I0J50000D01*
G01*
G37*
G36*
G01*
X99815000Y-86275000D02*
X99815000Y-86175000D01*
G75*
G02*
X99865000Y-86125000I50000J0D01*
G01*
X100640000Y-86125000D01*
G75*
G02*
X100690000Y-86175000I0J-50000D01*
G01*
X100690000Y-86275000D01*
G75*
G02*
X100640000Y-86325000I-50000J0D01*
G01*
X99865000Y-86325000D01*
G75*
G02*
X99815000Y-86275000I0J50000D01*
G01*
G37*
G36*
G01*
X99815000Y-85875000D02*
X99815000Y-85775000D01*
G75*
G02*
X99865000Y-85725000I50000J0D01*
G01*
X100640000Y-85725000D01*
G75*
G02*
X100690000Y-85775000I0J-50000D01*
G01*
X100690000Y-85875000D01*
G75*
G02*
X100640000Y-85925000I-50000J0D01*
G01*
X99865000Y-85925000D01*
G75*
G02*
X99815000Y-85875000I0J50000D01*
G01*
G37*
G36*
G01*
X99815000Y-85475000D02*
X99815000Y-85375000D01*
G75*
G02*
X99865000Y-85325000I50000J0D01*
G01*
X100640000Y-85325000D01*
G75*
G02*
X100690000Y-85375000I0J-50000D01*
G01*
X100690000Y-85475000D01*
G75*
G02*
X100640000Y-85525000I-50000J0D01*
G01*
X99865000Y-85525000D01*
G75*
G02*
X99815000Y-85475000I0J50000D01*
G01*
G37*
G36*
G01*
X99815000Y-85075000D02*
X99815000Y-84975000D01*
G75*
G02*
X99865000Y-84925000I50000J0D01*
G01*
X100640000Y-84925000D01*
G75*
G02*
X100690000Y-84975000I0J-50000D01*
G01*
X100690000Y-85075000D01*
G75*
G02*
X100640000Y-85125000I-50000J0D01*
G01*
X99865000Y-85125000D01*
G75*
G02*
X99815000Y-85075000I0J50000D01*
G01*
G37*
G36*
G01*
X99815000Y-84675000D02*
X99815000Y-84575000D01*
G75*
G02*
X99865000Y-84525000I50000J0D01*
G01*
X100640000Y-84525000D01*
G75*
G02*
X100690000Y-84575000I0J-50000D01*
G01*
X100690000Y-84675000D01*
G75*
G02*
X100640000Y-84725000I-50000J0D01*
G01*
X99865000Y-84725000D01*
G75*
G02*
X99815000Y-84675000I0J50000D01*
G01*
G37*
G36*
G01*
X99815000Y-84275000D02*
X99815000Y-84175000D01*
G75*
G02*
X99865000Y-84125000I50000J0D01*
G01*
X100640000Y-84125000D01*
G75*
G02*
X100690000Y-84175000I0J-50000D01*
G01*
X100690000Y-84275000D01*
G75*
G02*
X100640000Y-84325000I-50000J0D01*
G01*
X99865000Y-84325000D01*
G75*
G02*
X99815000Y-84275000I0J50000D01*
G01*
G37*
G36*
G01*
X99815000Y-83875000D02*
X99815000Y-83775000D01*
G75*
G02*
X99865000Y-83725000I50000J0D01*
G01*
X100640000Y-83725000D01*
G75*
G02*
X100690000Y-83775000I0J-50000D01*
G01*
X100690000Y-83875000D01*
G75*
G02*
X100640000Y-83925000I-50000J0D01*
G01*
X99865000Y-83925000D01*
G75*
G02*
X99815000Y-83875000I0J50000D01*
G01*
G37*
G36*
G01*
X99815000Y-83475000D02*
X99815000Y-83375000D01*
G75*
G02*
X99865000Y-83325000I50000J0D01*
G01*
X100640000Y-83325000D01*
G75*
G02*
X100690000Y-83375000I0J-50000D01*
G01*
X100690000Y-83475000D01*
G75*
G02*
X100640000Y-83525000I-50000J0D01*
G01*
X99865000Y-83525000D01*
G75*
G02*
X99815000Y-83475000I0J50000D01*
G01*
G37*
G36*
G01*
X103785283Y-86954717D02*
X103785283Y-86370283D01*
G75*
G02*
X104035283Y-86120283I250000J0D01*
G01*
X104619717Y-86120283D01*
G75*
G02*
X104869717Y-86370283I0J-250000D01*
G01*
X104869717Y-86954717D01*
G75*
G02*
X104619717Y-87204717I-250000J0D01*
G01*
X104035283Y-87204717D01*
G75*
G02*
X103785283Y-86954717I0J250000D01*
G01*
G37*
G36*
G01*
X103785283Y-85679717D02*
X103785283Y-85095283D01*
G75*
G02*
X104035283Y-84845283I250000J0D01*
G01*
X104619717Y-84845283D01*
G75*
G02*
X104869717Y-85095283I0J-250000D01*
G01*
X104869717Y-85679717D01*
G75*
G02*
X104619717Y-85929717I-250000J0D01*
G01*
X104035283Y-85929717D01*
G75*
G02*
X103785283Y-85679717I0J250000D01*
G01*
G37*
G36*
G01*
X102510283Y-86954717D02*
X102510283Y-86370283D01*
G75*
G02*
X102760283Y-86120283I250000J0D01*
G01*
X103344717Y-86120283D01*
G75*
G02*
X103594717Y-86370283I0J-250000D01*
G01*
X103594717Y-86954717D01*
G75*
G02*
X103344717Y-87204717I-250000J0D01*
G01*
X102760283Y-87204717D01*
G75*
G02*
X102510283Y-86954717I0J250000D01*
G01*
G37*
G36*
G01*
X102510283Y-85679717D02*
X102510283Y-85095283D01*
G75*
G02*
X102760283Y-84845283I250000J0D01*
G01*
X103344717Y-84845283D01*
G75*
G02*
X103594717Y-85095283I0J-250000D01*
G01*
X103594717Y-85679717D01*
G75*
G02*
X103344717Y-85929717I-250000J0D01*
G01*
X102760283Y-85929717D01*
G75*
G02*
X102510283Y-85679717I0J250000D01*
G01*
G37*
M02*
