G04 #@! TF.GenerationSoftware,KiCad,Pcbnew,(5.1.10)-1*
G04 #@! TF.CreationDate,2021-11-11T08:54:42+00:00*
G04 #@! TF.ProjectId,EnvOpenPico,456e764f-7065-46e5-9069-636f2e6b6963,REV1*
G04 #@! TF.SameCoordinates,Original*
G04 #@! TF.FileFunction,Copper,L2,Bot*
G04 #@! TF.FilePolarity,Positive*
%FSLAX46Y46*%
G04 Gerber Fmt 4.6, Leading zero omitted, Abs format (unit mm)*
G04 Created by KiCad (PCBNEW (5.1.10)-1) date 2021-11-11 08:54:42*
%MOMM*%
%LPD*%
G01*
G04 APERTURE LIST*
G04 #@! TA.AperFunction,SMDPad,CuDef*
%ADD10R,1.750000X1.750000*%
G04 #@! TD*
G04 #@! TA.AperFunction,ComponentPad*
%ADD11O,1.700000X1.700000*%
G04 #@! TD*
G04 #@! TA.AperFunction,SMDPad,CuDef*
%ADD12R,2.000000X2.000000*%
G04 #@! TD*
G04 #@! TA.AperFunction,ComponentPad*
%ADD13R,3.500000X1.700000*%
G04 #@! TD*
G04 #@! TA.AperFunction,ComponentPad*
%ADD14R,1.700000X1.700000*%
G04 #@! TD*
G04 #@! TA.AperFunction,ComponentPad*
%ADD15C,1.700000*%
G04 #@! TD*
G04 #@! TA.AperFunction,ComponentPad*
%ADD16O,1.000000X2.100000*%
G04 #@! TD*
G04 #@! TA.AperFunction,ComponentPad*
%ADD17O,1.000000X1.600000*%
G04 #@! TD*
G04 #@! TA.AperFunction,ComponentPad*
%ADD18C,0.600000*%
G04 #@! TD*
G04 #@! TA.AperFunction,ViaPad*
%ADD19C,0.400000*%
G04 #@! TD*
G04 #@! TA.AperFunction,ViaPad*
%ADD20C,0.600000*%
G04 #@! TD*
G04 #@! TA.AperFunction,Conductor*
%ADD21C,0.150000*%
G04 #@! TD*
G04 #@! TA.AperFunction,Conductor*
%ADD22C,0.127000*%
G04 #@! TD*
G04 #@! TA.AperFunction,Conductor*
%ADD23C,0.600000*%
G04 #@! TD*
G04 #@! TA.AperFunction,Conductor*
%ADD24C,0.400000*%
G04 #@! TD*
G04 #@! TA.AperFunction,Conductor*
%ADD25C,0.300000*%
G04 #@! TD*
G04 #@! TA.AperFunction,Conductor*
%ADD26C,0.800000*%
G04 #@! TD*
G04 #@! TA.AperFunction,Conductor*
%ADD27C,0.500000*%
G04 #@! TD*
G04 #@! TA.AperFunction,Conductor*
%ADD28C,0.100000*%
G04 #@! TD*
G04 #@! TA.AperFunction,Conductor*
%ADD29C,0.254000*%
G04 #@! TD*
G04 APERTURE END LIST*
D10*
X108625000Y-73700000D03*
D11*
X101100000Y-106900000D03*
G04 #@! TA.AperFunction,ComponentPad*
G36*
G01*
X104065000Y-107750000D02*
X103215000Y-107750000D01*
G75*
G02*
X102790000Y-107325000I0J425000D01*
G01*
X102790000Y-106475000D01*
G75*
G02*
X103215000Y-106050000I425000J0D01*
G01*
X104065000Y-106050000D01*
G75*
G02*
X104490000Y-106475000I0J-425000D01*
G01*
X104490000Y-107325000D01*
G75*
G02*
X104065000Y-107750000I-425000J0D01*
G01*
G37*
G04 #@! TD.AperFunction*
X106180000Y-106900000D03*
D10*
X106600000Y-83700000D03*
X100800000Y-84925000D03*
D12*
X104800000Y-58625000D03*
X102500000Y-58625000D03*
D13*
X114220000Y-81560000D03*
X114220000Y-66320000D03*
X114220000Y-79020000D03*
X114220000Y-58700000D03*
X114220000Y-63780000D03*
X114220000Y-76480000D03*
X114220000Y-89180000D03*
X114220000Y-61240000D03*
X114220000Y-68860000D03*
X114220000Y-71400000D03*
X114220000Y-73940000D03*
X114220000Y-84100000D03*
X114220000Y-91720000D03*
X114220000Y-86640000D03*
X114220000Y-106960000D03*
X114220000Y-94260000D03*
X114220000Y-104420000D03*
X114220000Y-96800000D03*
X114220000Y-101880000D03*
X114220000Y-99340000D03*
D14*
X112520000Y-58700000D03*
D11*
X112520000Y-61240000D03*
D14*
X112520000Y-63780000D03*
D11*
X112520000Y-66320000D03*
X112520000Y-68860000D03*
X112520000Y-71400000D03*
X112520000Y-73940000D03*
D14*
X112520000Y-76480000D03*
D11*
X112520000Y-79020000D03*
X112520000Y-81560000D03*
X112520000Y-84100000D03*
X112520000Y-86640000D03*
D14*
X112520000Y-89180000D03*
D11*
X112520000Y-91720000D03*
X112520000Y-94260000D03*
X112520000Y-96800000D03*
X112520000Y-99340000D03*
D14*
X112520000Y-101880000D03*
D11*
X112520000Y-104420000D03*
X112520000Y-106960000D03*
D13*
X93000000Y-58640000D03*
X93000000Y-101820000D03*
X93000000Y-63720000D03*
X93000000Y-84040000D03*
X93000000Y-106900000D03*
X93000000Y-76420000D03*
X93000000Y-81500000D03*
X93000000Y-96740000D03*
X92990000Y-91660000D03*
X93000000Y-66250000D03*
X93000000Y-61170000D03*
X93000000Y-68800000D03*
X93010000Y-78960000D03*
X93000000Y-71340000D03*
X93000000Y-86580000D03*
X93000000Y-89120000D03*
X93000000Y-94200000D03*
X93000000Y-99280000D03*
X93000000Y-73880000D03*
X93000000Y-104360000D03*
D15*
X94700000Y-106900000D03*
D11*
X94700000Y-104360000D03*
D14*
X94700000Y-101820000D03*
D11*
X94700000Y-99280000D03*
X94700000Y-96740000D03*
X94700000Y-94200000D03*
X94700000Y-91660000D03*
D14*
X94700000Y-89120000D03*
D11*
X94700000Y-86580000D03*
X94700000Y-84040000D03*
X94700000Y-81500000D03*
X94700000Y-78960000D03*
D14*
X94700000Y-76420000D03*
D11*
X94700000Y-73880000D03*
X94700000Y-71340000D03*
X94700000Y-68800000D03*
X94700000Y-66260000D03*
D14*
X94700000Y-63720000D03*
D11*
X94700000Y-61180000D03*
X94700000Y-58640000D03*
D16*
X107970000Y-64005000D03*
X99330000Y-64005000D03*
D17*
X107970000Y-59825000D03*
X99330000Y-59825000D03*
D18*
X102375000Y-84750000D03*
X103650000Y-84750000D03*
X104925000Y-84750000D03*
X102375000Y-86025000D03*
X103650000Y-86025000D03*
X104925000Y-86025000D03*
X102375000Y-87300000D03*
X103650000Y-87300000D03*
X104925000Y-87300000D03*
D19*
X103330000Y-79125000D03*
X99057000Y-95000000D03*
X100450000Y-75625000D03*
D20*
X108500000Y-90125000D03*
X96600000Y-87325000D03*
X97291928Y-84725000D03*
X105103040Y-93639840D03*
X100200000Y-89575000D03*
X97725000Y-81875000D03*
D19*
X109990000Y-80895000D03*
X96960000Y-90265000D03*
X96240000Y-65125000D03*
X97680000Y-101425000D03*
X110190000Y-101905000D03*
X110310000Y-73665000D03*
X105750000Y-79725000D03*
X100800000Y-92225000D03*
X110800000Y-84785000D03*
X97625000Y-75675000D03*
D20*
X105065000Y-83725000D03*
X104270000Y-88125000D03*
X104284269Y-90880277D03*
D19*
X103440000Y-81440000D03*
X105450000Y-81900000D03*
D20*
X96700000Y-85335000D03*
X97816938Y-85719993D03*
X98410926Y-85262067D03*
X98660000Y-84525000D03*
X107600000Y-92225000D03*
D19*
X97902010Y-78075000D03*
X99850000Y-82574998D03*
X100800000Y-69099998D03*
X108375000Y-86150000D03*
X107040000Y-69035000D03*
X106150000Y-69300000D03*
X102900000Y-63860002D03*
X104400000Y-63860002D03*
X106600000Y-77175000D03*
X101125400Y-83490000D03*
X109060000Y-73685000D03*
X101125400Y-76725000D03*
D21*
X112590000Y-89205000D02*
X112244000Y-89205000D01*
X112244000Y-89205000D02*
X110628000Y-90821000D01*
X112590000Y-88719000D02*
X111390000Y-87519000D01*
X112590000Y-89205000D02*
X112590000Y-88719000D01*
X97290000Y-84726928D02*
X97290000Y-86655000D01*
X97291928Y-84725000D02*
X97290000Y-84726928D01*
D22*
X97200000Y-101905000D02*
X94750000Y-101905000D01*
X97680000Y-101425000D02*
X97200000Y-101905000D01*
X110190000Y-101905000D02*
X112550000Y-101905000D01*
X110184800Y-80694600D02*
X110184800Y-79220200D01*
X110184800Y-79220200D02*
X111370000Y-78035000D01*
X111370000Y-77685000D02*
X112550000Y-76505000D01*
X111370000Y-78035000D02*
X111370000Y-77685000D01*
X94850000Y-63705000D02*
X94750000Y-63805000D01*
X99280000Y-63705000D02*
X94850000Y-63705000D01*
X94750000Y-76505000D02*
X96795000Y-76505000D01*
X96795000Y-76505000D02*
X97575000Y-75725000D01*
D23*
X106190000Y-83725000D02*
X105065000Y-83725000D01*
D24*
X104240000Y-88100000D02*
X104240000Y-90836008D01*
D21*
X104240000Y-90836008D02*
X104284269Y-90880277D01*
X104340000Y-88000000D02*
X104240000Y-88100000D01*
D23*
X104284269Y-88139269D02*
X104270000Y-88125000D01*
X104284269Y-90880277D02*
X104284269Y-88139269D01*
X105065000Y-83725000D02*
X103440000Y-81440000D01*
X105065000Y-83725000D02*
X105450000Y-81900000D01*
D21*
X95710000Y-79085000D02*
X96700000Y-80075000D01*
X96700000Y-80075000D02*
X96700000Y-85335000D01*
X94690000Y-79085000D02*
X95710000Y-79085000D01*
X94690000Y-74005000D02*
X96945000Y-74005000D01*
X98417178Y-81192178D02*
X98417178Y-83556541D01*
X96945000Y-74005000D02*
X98417178Y-75477178D01*
X96725000Y-79500000D02*
X98417178Y-81192178D01*
X98417178Y-75477178D02*
X98417178Y-75707822D01*
X98417178Y-75707822D02*
X96725000Y-77400000D01*
X96725000Y-77400000D02*
X96725000Y-79500000D01*
X98417178Y-83556541D02*
X97816938Y-84156781D01*
X97816938Y-84156781D02*
X97816938Y-85719993D01*
X98717189Y-81100438D02*
X97002010Y-79385259D01*
X98134999Y-84262999D02*
X98717189Y-83680809D01*
X95952081Y-71425000D02*
X94750000Y-71425000D01*
X98410926Y-85262067D02*
X98134999Y-84986140D01*
X98717189Y-74190108D02*
X95952081Y-71425000D01*
X98717189Y-75799561D02*
X98717189Y-74190108D01*
X97002010Y-79385259D02*
X97002010Y-77514740D01*
X97002010Y-77514740D02*
X98717189Y-75799561D01*
X98717189Y-83680809D02*
X98717189Y-81100438D01*
X98134999Y-84986140D02*
X98134999Y-84262999D01*
X99017200Y-84167800D02*
X98660000Y-84525000D01*
X95580000Y-68885000D02*
X99017200Y-72322200D01*
X99017200Y-81008699D02*
X99017200Y-84167800D01*
X97279020Y-79270519D02*
X99017200Y-81008699D01*
X97279020Y-77629480D02*
X97279020Y-79270519D01*
X99017200Y-75891300D02*
X97279020Y-77629480D01*
X99017200Y-72322200D02*
X99017200Y-75891300D01*
X94750000Y-68885000D02*
X95580000Y-68885000D01*
X111800000Y-84125000D02*
X112590000Y-84125000D01*
X111353200Y-84571800D02*
X111800000Y-84125000D01*
X111353200Y-85821800D02*
X111353200Y-84571800D01*
X109325000Y-87850000D02*
X111353200Y-85821800D01*
X109325000Y-90500000D02*
X109325000Y-87850000D01*
X107600000Y-92225000D02*
X109325000Y-90500000D01*
X99425000Y-82149998D02*
X99850000Y-82574998D01*
X99425000Y-80825000D02*
X99425000Y-82149998D01*
X97650000Y-79050000D02*
X99425000Y-80825000D01*
X97650000Y-78327010D02*
X97650000Y-79050000D01*
X97902010Y-78075000D02*
X97650000Y-78327010D01*
D22*
X108375000Y-81056000D02*
X108375000Y-86150000D01*
X106600000Y-78600000D02*
X108375000Y-81056000D01*
X104465000Y-78600000D02*
X106600000Y-78600000D01*
X103560000Y-76365000D02*
X103560000Y-77695000D01*
X103560000Y-77695000D02*
X104465000Y-78600000D01*
X100800000Y-73605000D02*
X103560000Y-76365000D01*
X100800000Y-69099998D02*
X100800000Y-73605000D01*
D24*
X112520000Y-66320000D02*
X109130000Y-66320000D01*
X109130000Y-66320000D02*
X106150000Y-69300000D01*
X106727500Y-68722500D02*
X106150000Y-69300000D01*
X107040000Y-69035000D02*
X106727500Y-68722500D01*
D25*
X102844200Y-58130800D02*
X102850000Y-58125000D01*
D24*
X102900000Y-58186600D02*
X102844200Y-58130800D01*
X102900000Y-63860002D02*
X102900000Y-58186600D01*
D25*
X104342800Y-58232200D02*
X104450000Y-58125000D01*
D21*
X104342800Y-63794802D02*
X104400000Y-63852002D01*
D24*
X104400000Y-58289400D02*
X104342800Y-58232200D01*
X104400000Y-63860002D02*
X104400000Y-58289400D01*
D22*
X110975000Y-75075000D02*
X108875000Y-77175000D01*
X110975000Y-73000000D02*
X110975000Y-75075000D01*
X108875000Y-77175000D02*
X106600000Y-77175000D01*
X112550000Y-71425000D02*
X110975000Y-73000000D01*
D26*
X109060000Y-70590000D02*
X109060000Y-73685000D01*
X112550000Y-68885000D02*
X110765000Y-68885000D01*
D23*
X101125400Y-84699600D02*
X101000000Y-84825000D01*
D24*
X101125400Y-83490000D02*
X101125400Y-84699600D01*
X101125400Y-83490000D02*
X101125400Y-76725000D01*
D27*
X100997581Y-59625000D02*
X101007235Y-59723017D01*
X101035825Y-59817267D01*
X101082254Y-59904129D01*
X101144736Y-59980264D01*
X101220871Y-60042746D01*
X101307733Y-60089175D01*
X101401983Y-60117765D01*
X101500000Y-60127419D01*
X102200001Y-60127419D01*
X102200000Y-63791058D01*
X102200000Y-63928946D01*
X102206741Y-63962834D01*
X102210128Y-63997225D01*
X102220160Y-64030297D01*
X102226901Y-64064184D01*
X102240123Y-64096105D01*
X102250155Y-64129176D01*
X102266445Y-64159652D01*
X102279668Y-64191576D01*
X102298867Y-64220310D01*
X102315155Y-64250782D01*
X102337072Y-64277489D01*
X102356274Y-64306226D01*
X102380713Y-64330665D01*
X102402630Y-64357371D01*
X102429337Y-64379289D01*
X102453776Y-64403728D01*
X102482510Y-64422927D01*
X102509219Y-64444847D01*
X102539696Y-64461137D01*
X102568426Y-64480334D01*
X102600346Y-64493556D01*
X102630825Y-64509847D01*
X102663900Y-64519880D01*
X102695818Y-64533101D01*
X102729702Y-64539841D01*
X102762776Y-64549874D01*
X102797169Y-64553261D01*
X102831056Y-64560002D01*
X102865610Y-64560002D01*
X102900000Y-64563389D01*
X102934390Y-64560002D01*
X102968944Y-64560002D01*
X103002832Y-64553261D01*
X103037223Y-64549874D01*
X103070295Y-64539842D01*
X103104182Y-64533101D01*
X103136103Y-64519879D01*
X103169174Y-64509847D01*
X103199650Y-64493557D01*
X103231574Y-64480334D01*
X103260308Y-64461135D01*
X103290780Y-64444847D01*
X103317487Y-64422930D01*
X103346224Y-64403728D01*
X103370663Y-64379289D01*
X103397369Y-64357372D01*
X103419287Y-64330665D01*
X103424952Y-64325000D01*
X103875048Y-64325000D01*
X103880713Y-64330665D01*
X103902630Y-64357371D01*
X103929337Y-64379289D01*
X103953776Y-64403728D01*
X103982510Y-64422927D01*
X104009219Y-64444847D01*
X104039696Y-64461137D01*
X104068426Y-64480334D01*
X104100346Y-64493556D01*
X104130825Y-64509847D01*
X104163900Y-64519880D01*
X104195818Y-64533101D01*
X104229702Y-64539841D01*
X104262776Y-64549874D01*
X104297169Y-64553261D01*
X104331056Y-64560002D01*
X104365610Y-64560002D01*
X104400000Y-64563389D01*
X104434390Y-64560002D01*
X104468944Y-64560002D01*
X104502832Y-64553261D01*
X104537223Y-64549874D01*
X104570295Y-64539842D01*
X104604182Y-64533101D01*
X104636103Y-64519879D01*
X104669174Y-64509847D01*
X104699650Y-64493557D01*
X104731574Y-64480334D01*
X104760308Y-64461135D01*
X104790780Y-64444847D01*
X104817487Y-64422930D01*
X104846224Y-64403728D01*
X104870663Y-64379289D01*
X104897369Y-64357372D01*
X104919287Y-64330665D01*
X104943726Y-64306226D01*
X104962925Y-64277492D01*
X104984845Y-64250783D01*
X105001135Y-64220306D01*
X105020332Y-64191576D01*
X105033554Y-64159656D01*
X105049845Y-64129177D01*
X105059878Y-64096102D01*
X105073099Y-64064184D01*
X105079839Y-64030300D01*
X105089872Y-63997226D01*
X105093259Y-63962833D01*
X105100000Y-63928946D01*
X105100000Y-63393745D01*
X105715000Y-63393745D01*
X105715000Y-63556255D01*
X105746704Y-63715644D01*
X105808894Y-63865784D01*
X105899181Y-64000907D01*
X106014093Y-64115819D01*
X106149216Y-64206106D01*
X106299356Y-64268296D01*
X106458745Y-64300000D01*
X106621255Y-64300000D01*
X106780644Y-64268296D01*
X106930784Y-64206106D01*
X107065907Y-64115819D01*
X107180819Y-64000907D01*
X107271106Y-63865784D01*
X107333296Y-63715644D01*
X107365000Y-63556255D01*
X107365000Y-63393745D01*
X107333296Y-63234356D01*
X107271106Y-63084216D01*
X107180819Y-62949093D01*
X107065907Y-62834181D01*
X106930784Y-62743894D01*
X106780644Y-62681704D01*
X106621255Y-62650000D01*
X106458745Y-62650000D01*
X106299356Y-62681704D01*
X106149216Y-62743894D01*
X106014093Y-62834181D01*
X105899181Y-62949093D01*
X105808894Y-63084216D01*
X105746704Y-63234356D01*
X105715000Y-63393745D01*
X105100000Y-63393745D01*
X105100000Y-60127419D01*
X105800000Y-60127419D01*
X105898017Y-60117765D01*
X105992267Y-60089175D01*
X106079129Y-60042746D01*
X106155264Y-59980264D01*
X106217746Y-59904129D01*
X106264175Y-59817267D01*
X106292765Y-59723017D01*
X106302419Y-59625000D01*
X106302419Y-57750000D01*
X111177837Y-57750000D01*
X111177235Y-57751983D01*
X111167581Y-57850000D01*
X111167581Y-59550000D01*
X111177235Y-59648017D01*
X111205825Y-59742267D01*
X111252254Y-59829129D01*
X111314736Y-59905264D01*
X111320000Y-59909584D01*
X111320000Y-60609337D01*
X111221880Y-60846220D01*
X111170000Y-61107037D01*
X111170000Y-61372963D01*
X111221880Y-61633780D01*
X111320000Y-61870663D01*
X111320000Y-65620000D01*
X109164386Y-65620000D01*
X109129999Y-65616613D01*
X109095612Y-65620000D01*
X109095610Y-65620000D01*
X108992776Y-65630128D01*
X108860825Y-65670155D01*
X108739219Y-65735155D01*
X108632630Y-65822630D01*
X108610704Y-65849347D01*
X106256839Y-68203212D01*
X106230131Y-68225131D01*
X106208212Y-68251839D01*
X105703779Y-68756272D01*
X105703776Y-68756274D01*
X105606274Y-68853776D01*
X105587075Y-68882510D01*
X105565155Y-68909219D01*
X105548865Y-68939695D01*
X105529668Y-68968426D01*
X105516445Y-69000349D01*
X105500155Y-69030826D01*
X105490124Y-69063895D01*
X105476901Y-69095818D01*
X105470159Y-69129712D01*
X105460129Y-69162777D01*
X105456742Y-69197161D01*
X105450000Y-69231056D01*
X105450000Y-69265613D01*
X105446613Y-69300000D01*
X105450000Y-69334387D01*
X105450000Y-69368944D01*
X105456742Y-69402839D01*
X105460129Y-69437223D01*
X105470159Y-69470288D01*
X105476901Y-69504182D01*
X105490124Y-69536105D01*
X105500155Y-69569174D01*
X105516445Y-69599651D01*
X105529668Y-69631574D01*
X105548865Y-69660305D01*
X105565155Y-69690781D01*
X105587074Y-69717489D01*
X105606274Y-69746224D01*
X105630716Y-69770666D01*
X105652631Y-69797369D01*
X105679334Y-69819284D01*
X105703776Y-69843726D01*
X105732511Y-69862926D01*
X105759219Y-69884845D01*
X105789695Y-69901135D01*
X105818426Y-69920332D01*
X105850349Y-69933555D01*
X105880826Y-69949845D01*
X105913895Y-69959876D01*
X105945818Y-69973099D01*
X105979712Y-69979841D01*
X106012777Y-69989871D01*
X106047161Y-69993258D01*
X106081056Y-70000000D01*
X106115613Y-70000000D01*
X106150000Y-70003387D01*
X106184387Y-70000000D01*
X106218944Y-70000000D01*
X106252839Y-69993258D01*
X106287223Y-69989871D01*
X106320288Y-69979841D01*
X106354182Y-69973099D01*
X106386105Y-69959876D01*
X106419174Y-69949845D01*
X106449651Y-69933555D01*
X106481574Y-69920332D01*
X106510305Y-69901135D01*
X106540781Y-69884845D01*
X106567490Y-69862925D01*
X106596224Y-69843726D01*
X106693726Y-69746224D01*
X106693728Y-69746221D01*
X106760580Y-69679369D01*
X106770825Y-69684845D01*
X106803897Y-69694877D01*
X106835818Y-69708099D01*
X106869709Y-69714840D01*
X106902776Y-69724871D01*
X106937161Y-69728258D01*
X106971056Y-69735000D01*
X107005613Y-69735000D01*
X107040000Y-69738387D01*
X107074387Y-69735000D01*
X107108944Y-69735000D01*
X107142839Y-69728258D01*
X107177224Y-69724871D01*
X107210290Y-69714841D01*
X107244182Y-69708099D01*
X107276105Y-69694876D01*
X107309174Y-69684845D01*
X107339651Y-69668555D01*
X107371574Y-69655332D01*
X107400305Y-69636135D01*
X107430781Y-69619845D01*
X107457489Y-69597926D01*
X107486224Y-69578726D01*
X107510666Y-69554284D01*
X107537369Y-69532369D01*
X107559284Y-69505666D01*
X107583726Y-69481224D01*
X107602926Y-69452489D01*
X107624845Y-69425781D01*
X107641135Y-69395305D01*
X107660332Y-69366574D01*
X107673555Y-69334651D01*
X107689845Y-69304174D01*
X107699876Y-69271105D01*
X107713099Y-69239182D01*
X107719841Y-69205290D01*
X107729871Y-69172224D01*
X107733258Y-69137839D01*
X107740000Y-69103944D01*
X107740000Y-69069387D01*
X107743387Y-69035000D01*
X107740000Y-69000613D01*
X107740000Y-68966056D01*
X107733258Y-68932161D01*
X107729871Y-68897776D01*
X107719840Y-68864709D01*
X107713099Y-68830818D01*
X107699877Y-68798897D01*
X107689845Y-68765825D01*
X107684369Y-68755580D01*
X109419949Y-67020000D01*
X111320000Y-67020000D01*
X111320000Y-67850000D01*
X109250000Y-67850000D01*
X109194018Y-67853144D01*
X109027127Y-67871948D01*
X108917970Y-67896862D01*
X108759448Y-67952331D01*
X108658570Y-68000911D01*
X108516366Y-68090264D01*
X108428830Y-68160073D01*
X108310073Y-68278830D01*
X108240264Y-68366366D01*
X108150911Y-68508570D01*
X108102331Y-68609448D01*
X108046862Y-68767970D01*
X108021948Y-68877127D01*
X108003144Y-69044018D01*
X108000000Y-69100000D01*
X108000000Y-72322581D01*
X107750000Y-72322581D01*
X107651983Y-72332235D01*
X107557733Y-72360825D01*
X107470871Y-72407254D01*
X107394736Y-72469736D01*
X107332254Y-72545871D01*
X107285825Y-72632733D01*
X107257235Y-72726983D01*
X107247581Y-72825000D01*
X107247581Y-74575000D01*
X107257235Y-74673017D01*
X107285825Y-74767267D01*
X107332254Y-74854129D01*
X107394736Y-74930264D01*
X107470871Y-74992746D01*
X107557733Y-75039175D01*
X107651983Y-75067765D01*
X107750000Y-75077419D01*
X109500000Y-75077419D01*
X109598017Y-75067765D01*
X109692267Y-75039175D01*
X109779129Y-74992746D01*
X109855264Y-74930264D01*
X109917746Y-74854129D01*
X109964175Y-74767267D01*
X109992765Y-74673017D01*
X110002419Y-74575000D01*
X110002419Y-74200957D01*
X110011579Y-74185092D01*
X110067773Y-74049428D01*
X110101555Y-73923350D01*
X110120722Y-73777764D01*
X110125000Y-73712500D01*
X110125000Y-70228078D01*
X110134352Y-70145074D01*
X110152608Y-70092903D01*
X110182018Y-70046097D01*
X110221097Y-70007018D01*
X110267903Y-69977608D01*
X110320074Y-69959352D01*
X110403078Y-69950000D01*
X111320000Y-69950000D01*
X111320000Y-70769337D01*
X111221880Y-71006220D01*
X111170000Y-71267037D01*
X111170000Y-71532963D01*
X111221880Y-71793780D01*
X111269455Y-71908636D01*
X110596116Y-72581975D01*
X110574618Y-72599618D01*
X110504200Y-72685422D01*
X110451875Y-72783316D01*
X110419654Y-72889536D01*
X110411500Y-72972324D01*
X110411500Y-72972330D01*
X110408775Y-73000000D01*
X110411500Y-73027670D01*
X110411501Y-74841590D01*
X108641591Y-76611500D01*
X107016630Y-76611500D01*
X106931574Y-76554668D01*
X106804182Y-76501901D01*
X106668944Y-76475000D01*
X106531056Y-76475000D01*
X106395818Y-76501901D01*
X106268426Y-76554668D01*
X106153776Y-76631274D01*
X106056274Y-76728776D01*
X105979668Y-76843426D01*
X105926901Y-76970818D01*
X105900000Y-77106056D01*
X105900000Y-77243944D01*
X105926901Y-77379182D01*
X105979668Y-77506574D01*
X106056274Y-77621224D01*
X106153776Y-77718726D01*
X106268426Y-77795332D01*
X106395818Y-77848099D01*
X106531056Y-77875000D01*
X106668944Y-77875000D01*
X106804182Y-77848099D01*
X106931574Y-77795332D01*
X107016630Y-77738500D01*
X108847330Y-77738500D01*
X108875000Y-77741225D01*
X108902670Y-77738500D01*
X108902677Y-77738500D01*
X108985465Y-77730346D01*
X109091685Y-77698125D01*
X109189578Y-77645800D01*
X109275382Y-77575382D01*
X109293025Y-77553884D01*
X111320000Y-75526909D01*
X111320000Y-78389337D01*
X111221880Y-78626220D01*
X111170000Y-78887037D01*
X111170000Y-79152963D01*
X111221880Y-79413780D01*
X111320000Y-79650663D01*
X111320000Y-80929337D01*
X111221880Y-81166220D01*
X111170000Y-81427037D01*
X111170000Y-81692963D01*
X111221880Y-81953780D01*
X111320000Y-82190663D01*
X111320000Y-83469337D01*
X111221880Y-83706220D01*
X111176260Y-83935568D01*
X110966589Y-84145239D01*
X110944647Y-84163246D01*
X110926641Y-84185187D01*
X110872792Y-84250802D01*
X110819399Y-84350693D01*
X110806447Y-84393393D01*
X110790490Y-84445998D01*
X110786521Y-84459081D01*
X110775418Y-84571800D01*
X110778201Y-84600053D01*
X110778200Y-85583627D01*
X108938389Y-87423439D01*
X108916447Y-87441446D01*
X108898441Y-87463387D01*
X108844592Y-87529002D01*
X108791199Y-87628893D01*
X108758321Y-87737281D01*
X108747218Y-87850000D01*
X108750001Y-87878253D01*
X108750000Y-90261827D01*
X107586828Y-91425000D01*
X107521207Y-91425000D01*
X107366649Y-91455743D01*
X107221058Y-91516049D01*
X107090030Y-91603599D01*
X106978599Y-91715030D01*
X106891049Y-91846058D01*
X106830743Y-91991649D01*
X106800000Y-92146207D01*
X106800000Y-92303793D01*
X106830743Y-92458351D01*
X106891049Y-92603942D01*
X106978599Y-92734970D01*
X107090030Y-92846401D01*
X107221058Y-92933951D01*
X107366649Y-92994257D01*
X107521207Y-93025000D01*
X107678793Y-93025000D01*
X107833351Y-92994257D01*
X107978942Y-92933951D01*
X108109970Y-92846401D01*
X108221401Y-92734970D01*
X108308951Y-92603942D01*
X108369257Y-92458351D01*
X108400000Y-92303793D01*
X108400000Y-92238172D01*
X109711613Y-90926560D01*
X109733554Y-90908554D01*
X109767782Y-90866847D01*
X109805408Y-90820999D01*
X109824006Y-90786204D01*
X109858801Y-90721108D01*
X109891680Y-90612720D01*
X109900000Y-90528246D01*
X109900000Y-90528244D01*
X109902782Y-90500001D01*
X109900000Y-90471758D01*
X109900000Y-88088172D01*
X111177501Y-86810672D01*
X111221880Y-87033780D01*
X111320000Y-87270663D01*
X111320000Y-91089337D01*
X111221880Y-91326220D01*
X111170000Y-91587037D01*
X111170000Y-91852963D01*
X111221880Y-92113780D01*
X111320000Y-92350663D01*
X111320000Y-93629337D01*
X111221880Y-93866220D01*
X111170000Y-94127037D01*
X111170000Y-94392963D01*
X111221880Y-94653780D01*
X111320000Y-94890663D01*
X111320000Y-96169337D01*
X111221880Y-96406220D01*
X111170000Y-96667037D01*
X111170000Y-96932963D01*
X111221880Y-97193780D01*
X111320000Y-97430663D01*
X111320000Y-98709337D01*
X111221880Y-98946220D01*
X111170000Y-99207037D01*
X111170000Y-99472963D01*
X111221880Y-99733780D01*
X111320000Y-99970663D01*
X111320000Y-103789337D01*
X111221880Y-104026220D01*
X111170000Y-104287037D01*
X111170000Y-104552963D01*
X111221880Y-104813780D01*
X111320000Y-105050663D01*
X111320000Y-106329337D01*
X111221880Y-106566220D01*
X111170000Y-106827037D01*
X111170000Y-107092963D01*
X111221880Y-107353780D01*
X111320000Y-107590663D01*
X111320000Y-108000000D01*
X106963669Y-108000000D01*
X107040575Y-107948613D01*
X107228613Y-107760575D01*
X107376354Y-107539465D01*
X107478120Y-107293780D01*
X107530000Y-107032963D01*
X107530000Y-106767037D01*
X107478120Y-106506220D01*
X107376354Y-106260535D01*
X107228613Y-106039425D01*
X107040575Y-105851387D01*
X106819465Y-105703646D01*
X106573780Y-105601880D01*
X106312963Y-105550000D01*
X106047037Y-105550000D01*
X105786220Y-105601880D01*
X105540535Y-105703646D01*
X105319425Y-105851387D01*
X105131387Y-106039425D01*
X104983646Y-106260535D01*
X104881880Y-106506220D01*
X104830000Y-106767037D01*
X104830000Y-107032963D01*
X104881880Y-107293780D01*
X104983646Y-107539465D01*
X105131387Y-107760575D01*
X105319425Y-107948613D01*
X105396331Y-108000000D01*
X101883669Y-108000000D01*
X101960575Y-107948613D01*
X102148613Y-107760575D01*
X102296354Y-107539465D01*
X102398120Y-107293780D01*
X102450000Y-107032963D01*
X102450000Y-106767037D01*
X102398120Y-106506220D01*
X102296354Y-106260535D01*
X102148613Y-106039425D01*
X101960575Y-105851387D01*
X101739465Y-105703646D01*
X101493780Y-105601880D01*
X101232963Y-105550000D01*
X100967037Y-105550000D01*
X100706220Y-105601880D01*
X100460535Y-105703646D01*
X100239425Y-105851387D01*
X100051387Y-106039425D01*
X99903646Y-106260535D01*
X99801880Y-106506220D01*
X99750000Y-106767037D01*
X99750000Y-107032963D01*
X99801880Y-107293780D01*
X99903646Y-107539465D01*
X100051387Y-107760575D01*
X100239425Y-107948613D01*
X100316331Y-108000000D01*
X95980000Y-108000000D01*
X95980000Y-107337526D01*
X95998120Y-107293780D01*
X96050000Y-107032963D01*
X96050000Y-106767037D01*
X95998120Y-106506220D01*
X95980000Y-106462474D01*
X95980000Y-104797526D01*
X95998120Y-104753780D01*
X96050000Y-104492963D01*
X96050000Y-104227037D01*
X95998120Y-103966220D01*
X95980000Y-103922474D01*
X95980000Y-99717526D01*
X95998120Y-99673780D01*
X96050000Y-99412963D01*
X96050000Y-99147037D01*
X95998120Y-98886220D01*
X95980000Y-98842474D01*
X95980000Y-97177526D01*
X95998120Y-97133780D01*
X96050000Y-96872963D01*
X96050000Y-96607037D01*
X95998120Y-96346220D01*
X95980000Y-96302474D01*
X95980000Y-94637526D01*
X95998120Y-94593780D01*
X96050000Y-94332963D01*
X96050000Y-94067037D01*
X95998120Y-93806220D01*
X95980000Y-93762474D01*
X95980000Y-92097526D01*
X95998120Y-92053780D01*
X96050000Y-91792963D01*
X96050000Y-91527037D01*
X95998120Y-91266220D01*
X95980000Y-91222474D01*
X95980000Y-88125000D01*
X103466130Y-88125000D01*
X103470000Y-88164291D01*
X103470000Y-88203793D01*
X103477708Y-88242542D01*
X103481577Y-88281827D01*
X103484270Y-88290705D01*
X103484269Y-90801484D01*
X103484269Y-90959070D01*
X103491975Y-90997813D01*
X103495845Y-91037103D01*
X103507305Y-91074881D01*
X103515012Y-91113628D01*
X103530131Y-91150127D01*
X103541590Y-91187904D01*
X103560199Y-91222719D01*
X103575318Y-91259219D01*
X103597269Y-91292071D01*
X103615876Y-91326882D01*
X103640917Y-91357395D01*
X103662868Y-91390247D01*
X103690802Y-91418181D01*
X103715847Y-91448699D01*
X103746367Y-91473746D01*
X103774299Y-91501678D01*
X103807147Y-91523626D01*
X103837663Y-91548670D01*
X103872479Y-91567280D01*
X103905327Y-91589228D01*
X103941823Y-91604345D01*
X103976641Y-91622956D01*
X104014421Y-91634417D01*
X104050918Y-91649534D01*
X104089662Y-91657240D01*
X104127442Y-91668701D01*
X104166734Y-91672571D01*
X104205476Y-91680277D01*
X104244976Y-91680277D01*
X104284269Y-91684147D01*
X104323562Y-91680277D01*
X104363062Y-91680277D01*
X104401804Y-91672571D01*
X104441095Y-91668701D01*
X104478873Y-91657241D01*
X104517620Y-91649534D01*
X104554119Y-91634415D01*
X104591896Y-91622956D01*
X104626711Y-91604347D01*
X104663211Y-91589228D01*
X104696063Y-91567277D01*
X104730874Y-91548670D01*
X104761387Y-91523629D01*
X104794239Y-91501678D01*
X104822173Y-91473744D01*
X104852691Y-91448699D01*
X104877738Y-91418179D01*
X104905670Y-91390247D01*
X104927618Y-91357399D01*
X104952662Y-91326883D01*
X104971272Y-91292067D01*
X104993220Y-91259219D01*
X105008337Y-91222723D01*
X105026948Y-91187905D01*
X105038409Y-91150125D01*
X105053526Y-91113628D01*
X105061232Y-91074884D01*
X105072693Y-91037104D01*
X105076563Y-90997812D01*
X105084269Y-90959070D01*
X105084269Y-88178551D01*
X105088138Y-88139268D01*
X105084269Y-88099985D01*
X105084269Y-88099976D01*
X105072693Y-87982442D01*
X105026948Y-87831641D01*
X104952662Y-87692663D01*
X104902137Y-87631098D01*
X104891401Y-87615030D01*
X104877738Y-87601367D01*
X104852691Y-87570847D01*
X104822171Y-87545800D01*
X104779970Y-87503599D01*
X104747121Y-87481650D01*
X104716606Y-87456607D01*
X104681791Y-87437998D01*
X104648942Y-87416049D01*
X104612443Y-87400930D01*
X104577627Y-87382321D01*
X104539852Y-87370862D01*
X104503351Y-87355743D01*
X104464599Y-87348035D01*
X104426827Y-87336577D01*
X104387542Y-87332708D01*
X104348793Y-87325000D01*
X104309291Y-87325000D01*
X104270000Y-87321130D01*
X104230709Y-87325000D01*
X104191207Y-87325000D01*
X104152458Y-87332708D01*
X104113173Y-87336577D01*
X104075401Y-87348035D01*
X104036649Y-87355743D01*
X104000148Y-87370862D01*
X103962373Y-87382321D01*
X103927557Y-87400930D01*
X103891058Y-87416049D01*
X103858209Y-87437998D01*
X103823394Y-87456607D01*
X103792881Y-87481649D01*
X103760030Y-87503599D01*
X103732090Y-87531539D01*
X103701579Y-87556579D01*
X103676539Y-87587090D01*
X103648599Y-87615030D01*
X103626649Y-87647881D01*
X103601607Y-87678394D01*
X103582998Y-87713209D01*
X103561049Y-87746058D01*
X103545930Y-87782557D01*
X103527321Y-87817373D01*
X103515862Y-87855148D01*
X103500743Y-87891649D01*
X103493035Y-87930401D01*
X103481577Y-87968173D01*
X103477708Y-88007458D01*
X103470000Y-88046207D01*
X103470000Y-88085709D01*
X103466130Y-88125000D01*
X95980000Y-88125000D01*
X95980000Y-87017526D01*
X95998120Y-86973780D01*
X96050000Y-86712963D01*
X96050000Y-86447037D01*
X95998120Y-86186220D01*
X95980000Y-86142474D01*
X95980000Y-85687267D01*
X95991049Y-85713942D01*
X96078599Y-85844970D01*
X96190030Y-85956401D01*
X96321058Y-86043951D01*
X96466649Y-86104257D01*
X96621207Y-86135000D01*
X96778793Y-86135000D01*
X96933351Y-86104257D01*
X97078942Y-86043951D01*
X97083853Y-86040670D01*
X97107987Y-86098935D01*
X97195537Y-86229963D01*
X97306968Y-86341394D01*
X97437996Y-86428944D01*
X97583587Y-86489250D01*
X97738145Y-86519993D01*
X97895731Y-86519993D01*
X98050289Y-86489250D01*
X98195880Y-86428944D01*
X98326908Y-86341394D01*
X98438339Y-86229963D01*
X98525889Y-86098935D01*
X98545779Y-86050916D01*
X98644277Y-86031324D01*
X98789868Y-85971018D01*
X98920896Y-85883468D01*
X99032327Y-85772037D01*
X99119877Y-85641009D01*
X99180183Y-85495418D01*
X99210926Y-85340860D01*
X99210926Y-85183274D01*
X99198014Y-85118357D01*
X99281401Y-85034970D01*
X99368951Y-84903942D01*
X99422581Y-84774468D01*
X99422581Y-85800000D01*
X99432235Y-85898017D01*
X99460825Y-85992267D01*
X99507254Y-86079129D01*
X99569736Y-86155264D01*
X99645871Y-86217746D01*
X99732733Y-86264175D01*
X99826983Y-86292765D01*
X99925000Y-86302419D01*
X101675000Y-86302419D01*
X101773017Y-86292765D01*
X101867267Y-86264175D01*
X101954129Y-86217746D01*
X102030264Y-86155264D01*
X102092746Y-86079129D01*
X102139175Y-85992267D01*
X102167765Y-85898017D01*
X102177419Y-85800000D01*
X102177419Y-84050000D01*
X102167765Y-83951983D01*
X102139175Y-83857733D01*
X102092746Y-83770871D01*
X102030264Y-83694736D01*
X101954129Y-83632254D01*
X101867267Y-83585825D01*
X101825400Y-83573125D01*
X101825400Y-76656056D01*
X101818659Y-76622169D01*
X101815272Y-76587776D01*
X101805239Y-76554702D01*
X101798499Y-76520818D01*
X101785278Y-76488900D01*
X101775245Y-76455825D01*
X101758954Y-76425346D01*
X101745732Y-76393426D01*
X101726535Y-76364696D01*
X101710245Y-76334219D01*
X101688324Y-76307508D01*
X101669126Y-76278776D01*
X101644691Y-76254341D01*
X101622770Y-76227630D01*
X101596059Y-76205709D01*
X101571624Y-76181274D01*
X101542892Y-76162076D01*
X101516181Y-76140155D01*
X101485704Y-76123865D01*
X101456974Y-76104668D01*
X101425054Y-76091446D01*
X101394575Y-76075155D01*
X101361500Y-76065122D01*
X101329582Y-76051901D01*
X101295698Y-76045161D01*
X101262624Y-76035128D01*
X101228231Y-76031741D01*
X101194344Y-76025000D01*
X101159790Y-76025000D01*
X101125400Y-76021613D01*
X101091010Y-76025000D01*
X101056456Y-76025000D01*
X101022568Y-76031741D01*
X100988177Y-76035128D01*
X100955105Y-76045160D01*
X100921218Y-76051901D01*
X100889297Y-76065123D01*
X100856226Y-76075155D01*
X100825750Y-76091445D01*
X100793826Y-76104668D01*
X100765092Y-76123867D01*
X100734620Y-76140155D01*
X100707913Y-76162072D01*
X100679176Y-76181274D01*
X100654737Y-76205713D01*
X100628031Y-76227630D01*
X100606114Y-76254336D01*
X100581674Y-76278776D01*
X100562472Y-76307515D01*
X100540556Y-76334219D01*
X100524270Y-76364688D01*
X100505068Y-76393426D01*
X100491843Y-76425354D01*
X100475556Y-76455825D01*
X100465526Y-76488891D01*
X100452301Y-76520818D01*
X100445559Y-76554711D01*
X100435529Y-76587776D01*
X100432143Y-76622159D01*
X100425400Y-76656056D01*
X100425400Y-76793944D01*
X100425401Y-76793949D01*
X100425400Y-82176178D01*
X100393726Y-82128774D01*
X100296224Y-82031272D01*
X100181574Y-81954666D01*
X100054182Y-81901899D01*
X100000000Y-81891121D01*
X100000000Y-80853242D01*
X100002782Y-80824999D01*
X100000000Y-80796754D01*
X99991680Y-80712280D01*
X99958801Y-80603892D01*
X99938888Y-80566637D01*
X99905408Y-80504001D01*
X99851559Y-80438386D01*
X99833554Y-80416446D01*
X99811613Y-80398440D01*
X98225000Y-78811828D01*
X98225000Y-78698888D01*
X98233584Y-78695332D01*
X98348234Y-78618726D01*
X98445736Y-78521224D01*
X98522342Y-78406574D01*
X98575109Y-78279182D01*
X98602010Y-78143944D01*
X98602010Y-78006056D01*
X98575109Y-77870818D01*
X98522342Y-77743426D01*
X98445736Y-77628776D01*
X98348234Y-77531274D01*
X98253618Y-77468054D01*
X99403812Y-76317861D01*
X99425754Y-76299854D01*
X99462946Y-76254535D01*
X99497608Y-76212299D01*
X99551001Y-76112408D01*
X99556453Y-76094436D01*
X99583880Y-76004020D01*
X99592200Y-75919546D01*
X99592200Y-75919543D01*
X99594982Y-75891300D01*
X99592200Y-75863057D01*
X99592200Y-72350443D01*
X99594982Y-72322200D01*
X99588912Y-72260575D01*
X99583880Y-72209480D01*
X99551001Y-72101092D01*
X99497608Y-72001201D01*
X99443759Y-71935586D01*
X99425754Y-71913646D01*
X99403813Y-71895640D01*
X96539227Y-69031054D01*
X100100000Y-69031054D01*
X100100000Y-69168942D01*
X100126901Y-69304180D01*
X100179668Y-69431572D01*
X100236500Y-69516628D01*
X100236501Y-73577320D01*
X100233775Y-73605000D01*
X100244654Y-73715465D01*
X100276876Y-73821685D01*
X100329201Y-73919578D01*
X100381975Y-73983884D01*
X100381980Y-73983889D01*
X100399619Y-74005382D01*
X100421112Y-74023021D01*
X102996500Y-76598409D01*
X102996501Y-77667321D01*
X102993775Y-77695000D01*
X103004654Y-77805465D01*
X103036876Y-77911685D01*
X103089201Y-78009578D01*
X103141975Y-78073884D01*
X103141980Y-78073889D01*
X103159619Y-78095382D01*
X103181112Y-78113021D01*
X104046979Y-78978889D01*
X104064618Y-79000382D01*
X104086111Y-79018021D01*
X104086115Y-79018025D01*
X104124361Y-79049412D01*
X104150422Y-79070800D01*
X104248315Y-79123125D01*
X104354535Y-79155346D01*
X104437323Y-79163500D01*
X104437332Y-79163500D01*
X104464999Y-79166225D01*
X104492666Y-79163500D01*
X106311993Y-79163500D01*
X107811500Y-81238312D01*
X107811500Y-82454337D01*
X107754129Y-82407254D01*
X107667267Y-82360825D01*
X107573017Y-82332235D01*
X107475000Y-82322581D01*
X106178460Y-82322581D01*
X106240882Y-82026686D01*
X106253816Y-81909294D01*
X106240184Y-81752298D01*
X106196185Y-81600979D01*
X106123512Y-81461151D01*
X106024955Y-81338188D01*
X105904303Y-81236814D01*
X105766192Y-81160927D01*
X105615931Y-81113442D01*
X105459293Y-81096184D01*
X105302297Y-81109816D01*
X105150978Y-81153815D01*
X105011151Y-81226488D01*
X104888188Y-81325045D01*
X104786815Y-81445696D01*
X104710927Y-81583807D01*
X104675340Y-81696421D01*
X104659025Y-81773757D01*
X104069177Y-80944339D01*
X103991626Y-80855265D01*
X103866950Y-80758883D01*
X103725867Y-80688678D01*
X103573798Y-80647344D01*
X103416589Y-80636472D01*
X103260278Y-80656478D01*
X103110873Y-80706596D01*
X102974118Y-80784897D01*
X102855265Y-80888374D01*
X102758883Y-81013050D01*
X102688678Y-81154133D01*
X102647344Y-81306202D01*
X102636472Y-81463411D01*
X102656478Y-81619722D01*
X102706596Y-81769127D01*
X102765279Y-81871618D01*
X104380817Y-84143315D01*
X104391489Y-84163849D01*
X104394406Y-84167489D01*
X104396607Y-84171606D01*
X104421651Y-84202122D01*
X104443599Y-84234970D01*
X104468260Y-84259631D01*
X104490046Y-84286812D01*
X104493613Y-84289809D01*
X104496578Y-84293422D01*
X104505658Y-84300874D01*
X104513373Y-84309735D01*
X104535365Y-84326736D01*
X104555030Y-84346401D01*
X104584025Y-84365775D01*
X104610697Y-84388185D01*
X104614785Y-84390431D01*
X104618394Y-84393393D01*
X104628754Y-84398931D01*
X104638049Y-84406116D01*
X104662930Y-84418497D01*
X104686058Y-84433951D01*
X104718273Y-84447295D01*
X104748808Y-84464073D01*
X104753255Y-84465478D01*
X104757372Y-84467679D01*
X104768620Y-84471091D01*
X104779132Y-84476322D01*
X104805945Y-84483610D01*
X104831649Y-84494257D01*
X104865847Y-84501059D01*
X104899069Y-84511558D01*
X104903706Y-84512069D01*
X104908173Y-84513424D01*
X104919870Y-84514576D01*
X104931201Y-84517656D01*
X104958924Y-84519573D01*
X104986207Y-84525000D01*
X105021072Y-84525000D01*
X105055707Y-84528816D01*
X105072052Y-84527397D01*
X105088411Y-84528528D01*
X105115976Y-84525000D01*
X105222581Y-84525000D01*
X105222581Y-84575000D01*
X105232235Y-84673017D01*
X105260825Y-84767267D01*
X105307254Y-84854129D01*
X105369736Y-84930264D01*
X105445871Y-84992746D01*
X105532733Y-85039175D01*
X105626983Y-85067765D01*
X105725000Y-85077419D01*
X107475000Y-85077419D01*
X107573017Y-85067765D01*
X107667267Y-85039175D01*
X107754129Y-84992746D01*
X107811501Y-84945662D01*
X107811501Y-85733369D01*
X107754668Y-85818426D01*
X107701901Y-85945818D01*
X107675000Y-86081056D01*
X107675000Y-86218944D01*
X107701901Y-86354182D01*
X107754668Y-86481574D01*
X107831274Y-86596224D01*
X107928776Y-86693726D01*
X108043426Y-86770332D01*
X108170818Y-86823099D01*
X108306056Y-86850000D01*
X108443944Y-86850000D01*
X108579182Y-86823099D01*
X108706574Y-86770332D01*
X108821224Y-86693726D01*
X108918726Y-86596224D01*
X108995332Y-86481574D01*
X109048099Y-86354182D01*
X109075000Y-86218944D01*
X109075000Y-86081056D01*
X109048099Y-85945818D01*
X108995332Y-85818426D01*
X108938500Y-85733370D01*
X108938500Y-81073288D01*
X108940843Y-81035187D01*
X108934771Y-80990466D01*
X108930346Y-80945535D01*
X108927314Y-80935541D01*
X108925910Y-80925197D01*
X108911233Y-80882528D01*
X108898125Y-80839315D01*
X108893201Y-80830102D01*
X108889806Y-80820233D01*
X108867086Y-80781246D01*
X108845800Y-80741422D01*
X108821574Y-80711903D01*
X107079014Y-78300790D01*
X107070800Y-78285422D01*
X107046569Y-78255897D01*
X107040497Y-78247495D01*
X107029030Y-78234526D01*
X107000382Y-78199618D01*
X106992308Y-78192992D01*
X106985395Y-78185173D01*
X106949491Y-78157853D01*
X106914578Y-78129200D01*
X106905364Y-78124275D01*
X106897061Y-78117957D01*
X106856520Y-78098167D01*
X106816685Y-78076875D01*
X106806689Y-78073843D01*
X106797311Y-78069265D01*
X106753683Y-78057764D01*
X106710465Y-78044654D01*
X106700068Y-78043630D01*
X106689978Y-78040970D01*
X106644943Y-78038201D01*
X106627677Y-78036500D01*
X106617289Y-78036500D01*
X106579188Y-78034157D01*
X106561930Y-78036500D01*
X104698410Y-78036500D01*
X104123500Y-77461591D01*
X104123500Y-76392666D01*
X104126225Y-76364999D01*
X104123500Y-76337332D01*
X104123500Y-76337323D01*
X104115346Y-76254535D01*
X104083125Y-76148315D01*
X104030800Y-76050422D01*
X103960382Y-75964618D01*
X103938884Y-75946975D01*
X101363500Y-73371591D01*
X101363500Y-69516628D01*
X101420332Y-69431572D01*
X101473099Y-69304180D01*
X101500000Y-69168942D01*
X101500000Y-69031054D01*
X101473099Y-68895816D01*
X101420332Y-68768424D01*
X101343726Y-68653774D01*
X101246224Y-68556272D01*
X101131574Y-68479666D01*
X101004182Y-68426899D01*
X100868944Y-68399998D01*
X100731056Y-68399998D01*
X100595818Y-68426899D01*
X100468426Y-68479666D01*
X100353776Y-68556272D01*
X100256274Y-68653774D01*
X100179668Y-68768424D01*
X100126901Y-68895816D01*
X100100000Y-69031054D01*
X96539227Y-69031054D01*
X96018910Y-68510738D01*
X95998120Y-68406220D01*
X95980000Y-68362474D01*
X95980000Y-66697526D01*
X95998120Y-66653780D01*
X96050000Y-66392963D01*
X96050000Y-66127037D01*
X95998120Y-65866220D01*
X95980000Y-65822474D01*
X95980000Y-63393745D01*
X99935000Y-63393745D01*
X99935000Y-63556255D01*
X99966704Y-63715644D01*
X100028894Y-63865784D01*
X100119181Y-64000907D01*
X100234093Y-64115819D01*
X100369216Y-64206106D01*
X100519356Y-64268296D01*
X100678745Y-64300000D01*
X100841255Y-64300000D01*
X101000644Y-64268296D01*
X101150784Y-64206106D01*
X101285907Y-64115819D01*
X101400819Y-64000907D01*
X101491106Y-63865784D01*
X101553296Y-63715644D01*
X101585000Y-63556255D01*
X101585000Y-63393745D01*
X101553296Y-63234356D01*
X101491106Y-63084216D01*
X101400819Y-62949093D01*
X101285907Y-62834181D01*
X101150784Y-62743894D01*
X101000644Y-62681704D01*
X100841255Y-62650000D01*
X100678745Y-62650000D01*
X100519356Y-62681704D01*
X100369216Y-62743894D01*
X100234093Y-62834181D01*
X100119181Y-62949093D01*
X100028894Y-63084216D01*
X99966704Y-63234356D01*
X99935000Y-63393745D01*
X95980000Y-63393745D01*
X95980000Y-61617526D01*
X95998120Y-61573780D01*
X96050000Y-61312963D01*
X96050000Y-61047037D01*
X95998120Y-60786220D01*
X95980000Y-60742474D01*
X95980000Y-59077526D01*
X95998120Y-59033780D01*
X96050000Y-58772963D01*
X96050000Y-58507037D01*
X95998120Y-58246220D01*
X95980000Y-58202474D01*
X95980000Y-57750000D01*
X100997581Y-57750000D01*
X100997581Y-59625000D01*
G04 #@! TA.AperFunction,Conductor*
D28*
G36*
X100997581Y-59625000D02*
G01*
X101007235Y-59723017D01*
X101035825Y-59817267D01*
X101082254Y-59904129D01*
X101144736Y-59980264D01*
X101220871Y-60042746D01*
X101307733Y-60089175D01*
X101401983Y-60117765D01*
X101500000Y-60127419D01*
X102200001Y-60127419D01*
X102200000Y-63791058D01*
X102200000Y-63928946D01*
X102206741Y-63962834D01*
X102210128Y-63997225D01*
X102220160Y-64030297D01*
X102226901Y-64064184D01*
X102240123Y-64096105D01*
X102250155Y-64129176D01*
X102266445Y-64159652D01*
X102279668Y-64191576D01*
X102298867Y-64220310D01*
X102315155Y-64250782D01*
X102337072Y-64277489D01*
X102356274Y-64306226D01*
X102380713Y-64330665D01*
X102402630Y-64357371D01*
X102429337Y-64379289D01*
X102453776Y-64403728D01*
X102482510Y-64422927D01*
X102509219Y-64444847D01*
X102539696Y-64461137D01*
X102568426Y-64480334D01*
X102600346Y-64493556D01*
X102630825Y-64509847D01*
X102663900Y-64519880D01*
X102695818Y-64533101D01*
X102729702Y-64539841D01*
X102762776Y-64549874D01*
X102797169Y-64553261D01*
X102831056Y-64560002D01*
X102865610Y-64560002D01*
X102900000Y-64563389D01*
X102934390Y-64560002D01*
X102968944Y-64560002D01*
X103002832Y-64553261D01*
X103037223Y-64549874D01*
X103070295Y-64539842D01*
X103104182Y-64533101D01*
X103136103Y-64519879D01*
X103169174Y-64509847D01*
X103199650Y-64493557D01*
X103231574Y-64480334D01*
X103260308Y-64461135D01*
X103290780Y-64444847D01*
X103317487Y-64422930D01*
X103346224Y-64403728D01*
X103370663Y-64379289D01*
X103397369Y-64357372D01*
X103419287Y-64330665D01*
X103424952Y-64325000D01*
X103875048Y-64325000D01*
X103880713Y-64330665D01*
X103902630Y-64357371D01*
X103929337Y-64379289D01*
X103953776Y-64403728D01*
X103982510Y-64422927D01*
X104009219Y-64444847D01*
X104039696Y-64461137D01*
X104068426Y-64480334D01*
X104100346Y-64493556D01*
X104130825Y-64509847D01*
X104163900Y-64519880D01*
X104195818Y-64533101D01*
X104229702Y-64539841D01*
X104262776Y-64549874D01*
X104297169Y-64553261D01*
X104331056Y-64560002D01*
X104365610Y-64560002D01*
X104400000Y-64563389D01*
X104434390Y-64560002D01*
X104468944Y-64560002D01*
X104502832Y-64553261D01*
X104537223Y-64549874D01*
X104570295Y-64539842D01*
X104604182Y-64533101D01*
X104636103Y-64519879D01*
X104669174Y-64509847D01*
X104699650Y-64493557D01*
X104731574Y-64480334D01*
X104760308Y-64461135D01*
X104790780Y-64444847D01*
X104817487Y-64422930D01*
X104846224Y-64403728D01*
X104870663Y-64379289D01*
X104897369Y-64357372D01*
X104919287Y-64330665D01*
X104943726Y-64306226D01*
X104962925Y-64277492D01*
X104984845Y-64250783D01*
X105001135Y-64220306D01*
X105020332Y-64191576D01*
X105033554Y-64159656D01*
X105049845Y-64129177D01*
X105059878Y-64096102D01*
X105073099Y-64064184D01*
X105079839Y-64030300D01*
X105089872Y-63997226D01*
X105093259Y-63962833D01*
X105100000Y-63928946D01*
X105100000Y-63393745D01*
X105715000Y-63393745D01*
X105715000Y-63556255D01*
X105746704Y-63715644D01*
X105808894Y-63865784D01*
X105899181Y-64000907D01*
X106014093Y-64115819D01*
X106149216Y-64206106D01*
X106299356Y-64268296D01*
X106458745Y-64300000D01*
X106621255Y-64300000D01*
X106780644Y-64268296D01*
X106930784Y-64206106D01*
X107065907Y-64115819D01*
X107180819Y-64000907D01*
X107271106Y-63865784D01*
X107333296Y-63715644D01*
X107365000Y-63556255D01*
X107365000Y-63393745D01*
X107333296Y-63234356D01*
X107271106Y-63084216D01*
X107180819Y-62949093D01*
X107065907Y-62834181D01*
X106930784Y-62743894D01*
X106780644Y-62681704D01*
X106621255Y-62650000D01*
X106458745Y-62650000D01*
X106299356Y-62681704D01*
X106149216Y-62743894D01*
X106014093Y-62834181D01*
X105899181Y-62949093D01*
X105808894Y-63084216D01*
X105746704Y-63234356D01*
X105715000Y-63393745D01*
X105100000Y-63393745D01*
X105100000Y-60127419D01*
X105800000Y-60127419D01*
X105898017Y-60117765D01*
X105992267Y-60089175D01*
X106079129Y-60042746D01*
X106155264Y-59980264D01*
X106217746Y-59904129D01*
X106264175Y-59817267D01*
X106292765Y-59723017D01*
X106302419Y-59625000D01*
X106302419Y-57750000D01*
X111177837Y-57750000D01*
X111177235Y-57751983D01*
X111167581Y-57850000D01*
X111167581Y-59550000D01*
X111177235Y-59648017D01*
X111205825Y-59742267D01*
X111252254Y-59829129D01*
X111314736Y-59905264D01*
X111320000Y-59909584D01*
X111320000Y-60609337D01*
X111221880Y-60846220D01*
X111170000Y-61107037D01*
X111170000Y-61372963D01*
X111221880Y-61633780D01*
X111320000Y-61870663D01*
X111320000Y-65620000D01*
X109164386Y-65620000D01*
X109129999Y-65616613D01*
X109095612Y-65620000D01*
X109095610Y-65620000D01*
X108992776Y-65630128D01*
X108860825Y-65670155D01*
X108739219Y-65735155D01*
X108632630Y-65822630D01*
X108610704Y-65849347D01*
X106256839Y-68203212D01*
X106230131Y-68225131D01*
X106208212Y-68251839D01*
X105703779Y-68756272D01*
X105703776Y-68756274D01*
X105606274Y-68853776D01*
X105587075Y-68882510D01*
X105565155Y-68909219D01*
X105548865Y-68939695D01*
X105529668Y-68968426D01*
X105516445Y-69000349D01*
X105500155Y-69030826D01*
X105490124Y-69063895D01*
X105476901Y-69095818D01*
X105470159Y-69129712D01*
X105460129Y-69162777D01*
X105456742Y-69197161D01*
X105450000Y-69231056D01*
X105450000Y-69265613D01*
X105446613Y-69300000D01*
X105450000Y-69334387D01*
X105450000Y-69368944D01*
X105456742Y-69402839D01*
X105460129Y-69437223D01*
X105470159Y-69470288D01*
X105476901Y-69504182D01*
X105490124Y-69536105D01*
X105500155Y-69569174D01*
X105516445Y-69599651D01*
X105529668Y-69631574D01*
X105548865Y-69660305D01*
X105565155Y-69690781D01*
X105587074Y-69717489D01*
X105606274Y-69746224D01*
X105630716Y-69770666D01*
X105652631Y-69797369D01*
X105679334Y-69819284D01*
X105703776Y-69843726D01*
X105732511Y-69862926D01*
X105759219Y-69884845D01*
X105789695Y-69901135D01*
X105818426Y-69920332D01*
X105850349Y-69933555D01*
X105880826Y-69949845D01*
X105913895Y-69959876D01*
X105945818Y-69973099D01*
X105979712Y-69979841D01*
X106012777Y-69989871D01*
X106047161Y-69993258D01*
X106081056Y-70000000D01*
X106115613Y-70000000D01*
X106150000Y-70003387D01*
X106184387Y-70000000D01*
X106218944Y-70000000D01*
X106252839Y-69993258D01*
X106287223Y-69989871D01*
X106320288Y-69979841D01*
X106354182Y-69973099D01*
X106386105Y-69959876D01*
X106419174Y-69949845D01*
X106449651Y-69933555D01*
X106481574Y-69920332D01*
X106510305Y-69901135D01*
X106540781Y-69884845D01*
X106567490Y-69862925D01*
X106596224Y-69843726D01*
X106693726Y-69746224D01*
X106693728Y-69746221D01*
X106760580Y-69679369D01*
X106770825Y-69684845D01*
X106803897Y-69694877D01*
X106835818Y-69708099D01*
X106869709Y-69714840D01*
X106902776Y-69724871D01*
X106937161Y-69728258D01*
X106971056Y-69735000D01*
X107005613Y-69735000D01*
X107040000Y-69738387D01*
X107074387Y-69735000D01*
X107108944Y-69735000D01*
X107142839Y-69728258D01*
X107177224Y-69724871D01*
X107210290Y-69714841D01*
X107244182Y-69708099D01*
X107276105Y-69694876D01*
X107309174Y-69684845D01*
X107339651Y-69668555D01*
X107371574Y-69655332D01*
X107400305Y-69636135D01*
X107430781Y-69619845D01*
X107457489Y-69597926D01*
X107486224Y-69578726D01*
X107510666Y-69554284D01*
X107537369Y-69532369D01*
X107559284Y-69505666D01*
X107583726Y-69481224D01*
X107602926Y-69452489D01*
X107624845Y-69425781D01*
X107641135Y-69395305D01*
X107660332Y-69366574D01*
X107673555Y-69334651D01*
X107689845Y-69304174D01*
X107699876Y-69271105D01*
X107713099Y-69239182D01*
X107719841Y-69205290D01*
X107729871Y-69172224D01*
X107733258Y-69137839D01*
X107740000Y-69103944D01*
X107740000Y-69069387D01*
X107743387Y-69035000D01*
X107740000Y-69000613D01*
X107740000Y-68966056D01*
X107733258Y-68932161D01*
X107729871Y-68897776D01*
X107719840Y-68864709D01*
X107713099Y-68830818D01*
X107699877Y-68798897D01*
X107689845Y-68765825D01*
X107684369Y-68755580D01*
X109419949Y-67020000D01*
X111320000Y-67020000D01*
X111320000Y-67850000D01*
X109250000Y-67850000D01*
X109194018Y-67853144D01*
X109027127Y-67871948D01*
X108917970Y-67896862D01*
X108759448Y-67952331D01*
X108658570Y-68000911D01*
X108516366Y-68090264D01*
X108428830Y-68160073D01*
X108310073Y-68278830D01*
X108240264Y-68366366D01*
X108150911Y-68508570D01*
X108102331Y-68609448D01*
X108046862Y-68767970D01*
X108021948Y-68877127D01*
X108003144Y-69044018D01*
X108000000Y-69100000D01*
X108000000Y-72322581D01*
X107750000Y-72322581D01*
X107651983Y-72332235D01*
X107557733Y-72360825D01*
X107470871Y-72407254D01*
X107394736Y-72469736D01*
X107332254Y-72545871D01*
X107285825Y-72632733D01*
X107257235Y-72726983D01*
X107247581Y-72825000D01*
X107247581Y-74575000D01*
X107257235Y-74673017D01*
X107285825Y-74767267D01*
X107332254Y-74854129D01*
X107394736Y-74930264D01*
X107470871Y-74992746D01*
X107557733Y-75039175D01*
X107651983Y-75067765D01*
X107750000Y-75077419D01*
X109500000Y-75077419D01*
X109598017Y-75067765D01*
X109692267Y-75039175D01*
X109779129Y-74992746D01*
X109855264Y-74930264D01*
X109917746Y-74854129D01*
X109964175Y-74767267D01*
X109992765Y-74673017D01*
X110002419Y-74575000D01*
X110002419Y-74200957D01*
X110011579Y-74185092D01*
X110067773Y-74049428D01*
X110101555Y-73923350D01*
X110120722Y-73777764D01*
X110125000Y-73712500D01*
X110125000Y-70228078D01*
X110134352Y-70145074D01*
X110152608Y-70092903D01*
X110182018Y-70046097D01*
X110221097Y-70007018D01*
X110267903Y-69977608D01*
X110320074Y-69959352D01*
X110403078Y-69950000D01*
X111320000Y-69950000D01*
X111320000Y-70769337D01*
X111221880Y-71006220D01*
X111170000Y-71267037D01*
X111170000Y-71532963D01*
X111221880Y-71793780D01*
X111269455Y-71908636D01*
X110596116Y-72581975D01*
X110574618Y-72599618D01*
X110504200Y-72685422D01*
X110451875Y-72783316D01*
X110419654Y-72889536D01*
X110411500Y-72972324D01*
X110411500Y-72972330D01*
X110408775Y-73000000D01*
X110411500Y-73027670D01*
X110411501Y-74841590D01*
X108641591Y-76611500D01*
X107016630Y-76611500D01*
X106931574Y-76554668D01*
X106804182Y-76501901D01*
X106668944Y-76475000D01*
X106531056Y-76475000D01*
X106395818Y-76501901D01*
X106268426Y-76554668D01*
X106153776Y-76631274D01*
X106056274Y-76728776D01*
X105979668Y-76843426D01*
X105926901Y-76970818D01*
X105900000Y-77106056D01*
X105900000Y-77243944D01*
X105926901Y-77379182D01*
X105979668Y-77506574D01*
X106056274Y-77621224D01*
X106153776Y-77718726D01*
X106268426Y-77795332D01*
X106395818Y-77848099D01*
X106531056Y-77875000D01*
X106668944Y-77875000D01*
X106804182Y-77848099D01*
X106931574Y-77795332D01*
X107016630Y-77738500D01*
X108847330Y-77738500D01*
X108875000Y-77741225D01*
X108902670Y-77738500D01*
X108902677Y-77738500D01*
X108985465Y-77730346D01*
X109091685Y-77698125D01*
X109189578Y-77645800D01*
X109275382Y-77575382D01*
X109293025Y-77553884D01*
X111320000Y-75526909D01*
X111320000Y-78389337D01*
X111221880Y-78626220D01*
X111170000Y-78887037D01*
X111170000Y-79152963D01*
X111221880Y-79413780D01*
X111320000Y-79650663D01*
X111320000Y-80929337D01*
X111221880Y-81166220D01*
X111170000Y-81427037D01*
X111170000Y-81692963D01*
X111221880Y-81953780D01*
X111320000Y-82190663D01*
X111320000Y-83469337D01*
X111221880Y-83706220D01*
X111176260Y-83935568D01*
X110966589Y-84145239D01*
X110944647Y-84163246D01*
X110926641Y-84185187D01*
X110872792Y-84250802D01*
X110819399Y-84350693D01*
X110806447Y-84393393D01*
X110790490Y-84445998D01*
X110786521Y-84459081D01*
X110775418Y-84571800D01*
X110778201Y-84600053D01*
X110778200Y-85583627D01*
X108938389Y-87423439D01*
X108916447Y-87441446D01*
X108898441Y-87463387D01*
X108844592Y-87529002D01*
X108791199Y-87628893D01*
X108758321Y-87737281D01*
X108747218Y-87850000D01*
X108750001Y-87878253D01*
X108750000Y-90261827D01*
X107586828Y-91425000D01*
X107521207Y-91425000D01*
X107366649Y-91455743D01*
X107221058Y-91516049D01*
X107090030Y-91603599D01*
X106978599Y-91715030D01*
X106891049Y-91846058D01*
X106830743Y-91991649D01*
X106800000Y-92146207D01*
X106800000Y-92303793D01*
X106830743Y-92458351D01*
X106891049Y-92603942D01*
X106978599Y-92734970D01*
X107090030Y-92846401D01*
X107221058Y-92933951D01*
X107366649Y-92994257D01*
X107521207Y-93025000D01*
X107678793Y-93025000D01*
X107833351Y-92994257D01*
X107978942Y-92933951D01*
X108109970Y-92846401D01*
X108221401Y-92734970D01*
X108308951Y-92603942D01*
X108369257Y-92458351D01*
X108400000Y-92303793D01*
X108400000Y-92238172D01*
X109711613Y-90926560D01*
X109733554Y-90908554D01*
X109767782Y-90866847D01*
X109805408Y-90820999D01*
X109824006Y-90786204D01*
X109858801Y-90721108D01*
X109891680Y-90612720D01*
X109900000Y-90528246D01*
X109900000Y-90528244D01*
X109902782Y-90500001D01*
X109900000Y-90471758D01*
X109900000Y-88088172D01*
X111177501Y-86810672D01*
X111221880Y-87033780D01*
X111320000Y-87270663D01*
X111320000Y-91089337D01*
X111221880Y-91326220D01*
X111170000Y-91587037D01*
X111170000Y-91852963D01*
X111221880Y-92113780D01*
X111320000Y-92350663D01*
X111320000Y-93629337D01*
X111221880Y-93866220D01*
X111170000Y-94127037D01*
X111170000Y-94392963D01*
X111221880Y-94653780D01*
X111320000Y-94890663D01*
X111320000Y-96169337D01*
X111221880Y-96406220D01*
X111170000Y-96667037D01*
X111170000Y-96932963D01*
X111221880Y-97193780D01*
X111320000Y-97430663D01*
X111320000Y-98709337D01*
X111221880Y-98946220D01*
X111170000Y-99207037D01*
X111170000Y-99472963D01*
X111221880Y-99733780D01*
X111320000Y-99970663D01*
X111320000Y-103789337D01*
X111221880Y-104026220D01*
X111170000Y-104287037D01*
X111170000Y-104552963D01*
X111221880Y-104813780D01*
X111320000Y-105050663D01*
X111320000Y-106329337D01*
X111221880Y-106566220D01*
X111170000Y-106827037D01*
X111170000Y-107092963D01*
X111221880Y-107353780D01*
X111320000Y-107590663D01*
X111320000Y-108000000D01*
X106963669Y-108000000D01*
X107040575Y-107948613D01*
X107228613Y-107760575D01*
X107376354Y-107539465D01*
X107478120Y-107293780D01*
X107530000Y-107032963D01*
X107530000Y-106767037D01*
X107478120Y-106506220D01*
X107376354Y-106260535D01*
X107228613Y-106039425D01*
X107040575Y-105851387D01*
X106819465Y-105703646D01*
X106573780Y-105601880D01*
X106312963Y-105550000D01*
X106047037Y-105550000D01*
X105786220Y-105601880D01*
X105540535Y-105703646D01*
X105319425Y-105851387D01*
X105131387Y-106039425D01*
X104983646Y-106260535D01*
X104881880Y-106506220D01*
X104830000Y-106767037D01*
X104830000Y-107032963D01*
X104881880Y-107293780D01*
X104983646Y-107539465D01*
X105131387Y-107760575D01*
X105319425Y-107948613D01*
X105396331Y-108000000D01*
X101883669Y-108000000D01*
X101960575Y-107948613D01*
X102148613Y-107760575D01*
X102296354Y-107539465D01*
X102398120Y-107293780D01*
X102450000Y-107032963D01*
X102450000Y-106767037D01*
X102398120Y-106506220D01*
X102296354Y-106260535D01*
X102148613Y-106039425D01*
X101960575Y-105851387D01*
X101739465Y-105703646D01*
X101493780Y-105601880D01*
X101232963Y-105550000D01*
X100967037Y-105550000D01*
X100706220Y-105601880D01*
X100460535Y-105703646D01*
X100239425Y-105851387D01*
X100051387Y-106039425D01*
X99903646Y-106260535D01*
X99801880Y-106506220D01*
X99750000Y-106767037D01*
X99750000Y-107032963D01*
X99801880Y-107293780D01*
X99903646Y-107539465D01*
X100051387Y-107760575D01*
X100239425Y-107948613D01*
X100316331Y-108000000D01*
X95980000Y-108000000D01*
X95980000Y-107337526D01*
X95998120Y-107293780D01*
X96050000Y-107032963D01*
X96050000Y-106767037D01*
X95998120Y-106506220D01*
X95980000Y-106462474D01*
X95980000Y-104797526D01*
X95998120Y-104753780D01*
X96050000Y-104492963D01*
X96050000Y-104227037D01*
X95998120Y-103966220D01*
X95980000Y-103922474D01*
X95980000Y-99717526D01*
X95998120Y-99673780D01*
X96050000Y-99412963D01*
X96050000Y-99147037D01*
X95998120Y-98886220D01*
X95980000Y-98842474D01*
X95980000Y-97177526D01*
X95998120Y-97133780D01*
X96050000Y-96872963D01*
X96050000Y-96607037D01*
X95998120Y-96346220D01*
X95980000Y-96302474D01*
X95980000Y-94637526D01*
X95998120Y-94593780D01*
X96050000Y-94332963D01*
X96050000Y-94067037D01*
X95998120Y-93806220D01*
X95980000Y-93762474D01*
X95980000Y-92097526D01*
X95998120Y-92053780D01*
X96050000Y-91792963D01*
X96050000Y-91527037D01*
X95998120Y-91266220D01*
X95980000Y-91222474D01*
X95980000Y-88125000D01*
X103466130Y-88125000D01*
X103470000Y-88164291D01*
X103470000Y-88203793D01*
X103477708Y-88242542D01*
X103481577Y-88281827D01*
X103484270Y-88290705D01*
X103484269Y-90801484D01*
X103484269Y-90959070D01*
X103491975Y-90997813D01*
X103495845Y-91037103D01*
X103507305Y-91074881D01*
X103515012Y-91113628D01*
X103530131Y-91150127D01*
X103541590Y-91187904D01*
X103560199Y-91222719D01*
X103575318Y-91259219D01*
X103597269Y-91292071D01*
X103615876Y-91326882D01*
X103640917Y-91357395D01*
X103662868Y-91390247D01*
X103690802Y-91418181D01*
X103715847Y-91448699D01*
X103746367Y-91473746D01*
X103774299Y-91501678D01*
X103807147Y-91523626D01*
X103837663Y-91548670D01*
X103872479Y-91567280D01*
X103905327Y-91589228D01*
X103941823Y-91604345D01*
X103976641Y-91622956D01*
X104014421Y-91634417D01*
X104050918Y-91649534D01*
X104089662Y-91657240D01*
X104127442Y-91668701D01*
X104166734Y-91672571D01*
X104205476Y-91680277D01*
X104244976Y-91680277D01*
X104284269Y-91684147D01*
X104323562Y-91680277D01*
X104363062Y-91680277D01*
X104401804Y-91672571D01*
X104441095Y-91668701D01*
X104478873Y-91657241D01*
X104517620Y-91649534D01*
X104554119Y-91634415D01*
X104591896Y-91622956D01*
X104626711Y-91604347D01*
X104663211Y-91589228D01*
X104696063Y-91567277D01*
X104730874Y-91548670D01*
X104761387Y-91523629D01*
X104794239Y-91501678D01*
X104822173Y-91473744D01*
X104852691Y-91448699D01*
X104877738Y-91418179D01*
X104905670Y-91390247D01*
X104927618Y-91357399D01*
X104952662Y-91326883D01*
X104971272Y-91292067D01*
X104993220Y-91259219D01*
X105008337Y-91222723D01*
X105026948Y-91187905D01*
X105038409Y-91150125D01*
X105053526Y-91113628D01*
X105061232Y-91074884D01*
X105072693Y-91037104D01*
X105076563Y-90997812D01*
X105084269Y-90959070D01*
X105084269Y-88178551D01*
X105088138Y-88139268D01*
X105084269Y-88099985D01*
X105084269Y-88099976D01*
X105072693Y-87982442D01*
X105026948Y-87831641D01*
X104952662Y-87692663D01*
X104902137Y-87631098D01*
X104891401Y-87615030D01*
X104877738Y-87601367D01*
X104852691Y-87570847D01*
X104822171Y-87545800D01*
X104779970Y-87503599D01*
X104747121Y-87481650D01*
X104716606Y-87456607D01*
X104681791Y-87437998D01*
X104648942Y-87416049D01*
X104612443Y-87400930D01*
X104577627Y-87382321D01*
X104539852Y-87370862D01*
X104503351Y-87355743D01*
X104464599Y-87348035D01*
X104426827Y-87336577D01*
X104387542Y-87332708D01*
X104348793Y-87325000D01*
X104309291Y-87325000D01*
X104270000Y-87321130D01*
X104230709Y-87325000D01*
X104191207Y-87325000D01*
X104152458Y-87332708D01*
X104113173Y-87336577D01*
X104075401Y-87348035D01*
X104036649Y-87355743D01*
X104000148Y-87370862D01*
X103962373Y-87382321D01*
X103927557Y-87400930D01*
X103891058Y-87416049D01*
X103858209Y-87437998D01*
X103823394Y-87456607D01*
X103792881Y-87481649D01*
X103760030Y-87503599D01*
X103732090Y-87531539D01*
X103701579Y-87556579D01*
X103676539Y-87587090D01*
X103648599Y-87615030D01*
X103626649Y-87647881D01*
X103601607Y-87678394D01*
X103582998Y-87713209D01*
X103561049Y-87746058D01*
X103545930Y-87782557D01*
X103527321Y-87817373D01*
X103515862Y-87855148D01*
X103500743Y-87891649D01*
X103493035Y-87930401D01*
X103481577Y-87968173D01*
X103477708Y-88007458D01*
X103470000Y-88046207D01*
X103470000Y-88085709D01*
X103466130Y-88125000D01*
X95980000Y-88125000D01*
X95980000Y-87017526D01*
X95998120Y-86973780D01*
X96050000Y-86712963D01*
X96050000Y-86447037D01*
X95998120Y-86186220D01*
X95980000Y-86142474D01*
X95980000Y-85687267D01*
X95991049Y-85713942D01*
X96078599Y-85844970D01*
X96190030Y-85956401D01*
X96321058Y-86043951D01*
X96466649Y-86104257D01*
X96621207Y-86135000D01*
X96778793Y-86135000D01*
X96933351Y-86104257D01*
X97078942Y-86043951D01*
X97083853Y-86040670D01*
X97107987Y-86098935D01*
X97195537Y-86229963D01*
X97306968Y-86341394D01*
X97437996Y-86428944D01*
X97583587Y-86489250D01*
X97738145Y-86519993D01*
X97895731Y-86519993D01*
X98050289Y-86489250D01*
X98195880Y-86428944D01*
X98326908Y-86341394D01*
X98438339Y-86229963D01*
X98525889Y-86098935D01*
X98545779Y-86050916D01*
X98644277Y-86031324D01*
X98789868Y-85971018D01*
X98920896Y-85883468D01*
X99032327Y-85772037D01*
X99119877Y-85641009D01*
X99180183Y-85495418D01*
X99210926Y-85340860D01*
X99210926Y-85183274D01*
X99198014Y-85118357D01*
X99281401Y-85034970D01*
X99368951Y-84903942D01*
X99422581Y-84774468D01*
X99422581Y-85800000D01*
X99432235Y-85898017D01*
X99460825Y-85992267D01*
X99507254Y-86079129D01*
X99569736Y-86155264D01*
X99645871Y-86217746D01*
X99732733Y-86264175D01*
X99826983Y-86292765D01*
X99925000Y-86302419D01*
X101675000Y-86302419D01*
X101773017Y-86292765D01*
X101867267Y-86264175D01*
X101954129Y-86217746D01*
X102030264Y-86155264D01*
X102092746Y-86079129D01*
X102139175Y-85992267D01*
X102167765Y-85898017D01*
X102177419Y-85800000D01*
X102177419Y-84050000D01*
X102167765Y-83951983D01*
X102139175Y-83857733D01*
X102092746Y-83770871D01*
X102030264Y-83694736D01*
X101954129Y-83632254D01*
X101867267Y-83585825D01*
X101825400Y-83573125D01*
X101825400Y-76656056D01*
X101818659Y-76622169D01*
X101815272Y-76587776D01*
X101805239Y-76554702D01*
X101798499Y-76520818D01*
X101785278Y-76488900D01*
X101775245Y-76455825D01*
X101758954Y-76425346D01*
X101745732Y-76393426D01*
X101726535Y-76364696D01*
X101710245Y-76334219D01*
X101688324Y-76307508D01*
X101669126Y-76278776D01*
X101644691Y-76254341D01*
X101622770Y-76227630D01*
X101596059Y-76205709D01*
X101571624Y-76181274D01*
X101542892Y-76162076D01*
X101516181Y-76140155D01*
X101485704Y-76123865D01*
X101456974Y-76104668D01*
X101425054Y-76091446D01*
X101394575Y-76075155D01*
X101361500Y-76065122D01*
X101329582Y-76051901D01*
X101295698Y-76045161D01*
X101262624Y-76035128D01*
X101228231Y-76031741D01*
X101194344Y-76025000D01*
X101159790Y-76025000D01*
X101125400Y-76021613D01*
X101091010Y-76025000D01*
X101056456Y-76025000D01*
X101022568Y-76031741D01*
X100988177Y-76035128D01*
X100955105Y-76045160D01*
X100921218Y-76051901D01*
X100889297Y-76065123D01*
X100856226Y-76075155D01*
X100825750Y-76091445D01*
X100793826Y-76104668D01*
X100765092Y-76123867D01*
X100734620Y-76140155D01*
X100707913Y-76162072D01*
X100679176Y-76181274D01*
X100654737Y-76205713D01*
X100628031Y-76227630D01*
X100606114Y-76254336D01*
X100581674Y-76278776D01*
X100562472Y-76307515D01*
X100540556Y-76334219D01*
X100524270Y-76364688D01*
X100505068Y-76393426D01*
X100491843Y-76425354D01*
X100475556Y-76455825D01*
X100465526Y-76488891D01*
X100452301Y-76520818D01*
X100445559Y-76554711D01*
X100435529Y-76587776D01*
X100432143Y-76622159D01*
X100425400Y-76656056D01*
X100425400Y-76793944D01*
X100425401Y-76793949D01*
X100425400Y-82176178D01*
X100393726Y-82128774D01*
X100296224Y-82031272D01*
X100181574Y-81954666D01*
X100054182Y-81901899D01*
X100000000Y-81891121D01*
X100000000Y-80853242D01*
X100002782Y-80824999D01*
X100000000Y-80796754D01*
X99991680Y-80712280D01*
X99958801Y-80603892D01*
X99938888Y-80566637D01*
X99905408Y-80504001D01*
X99851559Y-80438386D01*
X99833554Y-80416446D01*
X99811613Y-80398440D01*
X98225000Y-78811828D01*
X98225000Y-78698888D01*
X98233584Y-78695332D01*
X98348234Y-78618726D01*
X98445736Y-78521224D01*
X98522342Y-78406574D01*
X98575109Y-78279182D01*
X98602010Y-78143944D01*
X98602010Y-78006056D01*
X98575109Y-77870818D01*
X98522342Y-77743426D01*
X98445736Y-77628776D01*
X98348234Y-77531274D01*
X98253618Y-77468054D01*
X99403812Y-76317861D01*
X99425754Y-76299854D01*
X99462946Y-76254535D01*
X99497608Y-76212299D01*
X99551001Y-76112408D01*
X99556453Y-76094436D01*
X99583880Y-76004020D01*
X99592200Y-75919546D01*
X99592200Y-75919543D01*
X99594982Y-75891300D01*
X99592200Y-75863057D01*
X99592200Y-72350443D01*
X99594982Y-72322200D01*
X99588912Y-72260575D01*
X99583880Y-72209480D01*
X99551001Y-72101092D01*
X99497608Y-72001201D01*
X99443759Y-71935586D01*
X99425754Y-71913646D01*
X99403813Y-71895640D01*
X96539227Y-69031054D01*
X100100000Y-69031054D01*
X100100000Y-69168942D01*
X100126901Y-69304180D01*
X100179668Y-69431572D01*
X100236500Y-69516628D01*
X100236501Y-73577320D01*
X100233775Y-73605000D01*
X100244654Y-73715465D01*
X100276876Y-73821685D01*
X100329201Y-73919578D01*
X100381975Y-73983884D01*
X100381980Y-73983889D01*
X100399619Y-74005382D01*
X100421112Y-74023021D01*
X102996500Y-76598409D01*
X102996501Y-77667321D01*
X102993775Y-77695000D01*
X103004654Y-77805465D01*
X103036876Y-77911685D01*
X103089201Y-78009578D01*
X103141975Y-78073884D01*
X103141980Y-78073889D01*
X103159619Y-78095382D01*
X103181112Y-78113021D01*
X104046979Y-78978889D01*
X104064618Y-79000382D01*
X104086111Y-79018021D01*
X104086115Y-79018025D01*
X104124361Y-79049412D01*
X104150422Y-79070800D01*
X104248315Y-79123125D01*
X104354535Y-79155346D01*
X104437323Y-79163500D01*
X104437332Y-79163500D01*
X104464999Y-79166225D01*
X104492666Y-79163500D01*
X106311993Y-79163500D01*
X107811500Y-81238312D01*
X107811500Y-82454337D01*
X107754129Y-82407254D01*
X107667267Y-82360825D01*
X107573017Y-82332235D01*
X107475000Y-82322581D01*
X106178460Y-82322581D01*
X106240882Y-82026686D01*
X106253816Y-81909294D01*
X106240184Y-81752298D01*
X106196185Y-81600979D01*
X106123512Y-81461151D01*
X106024955Y-81338188D01*
X105904303Y-81236814D01*
X105766192Y-81160927D01*
X105615931Y-81113442D01*
X105459293Y-81096184D01*
X105302297Y-81109816D01*
X105150978Y-81153815D01*
X105011151Y-81226488D01*
X104888188Y-81325045D01*
X104786815Y-81445696D01*
X104710927Y-81583807D01*
X104675340Y-81696421D01*
X104659025Y-81773757D01*
X104069177Y-80944339D01*
X103991626Y-80855265D01*
X103866950Y-80758883D01*
X103725867Y-80688678D01*
X103573798Y-80647344D01*
X103416589Y-80636472D01*
X103260278Y-80656478D01*
X103110873Y-80706596D01*
X102974118Y-80784897D01*
X102855265Y-80888374D01*
X102758883Y-81013050D01*
X102688678Y-81154133D01*
X102647344Y-81306202D01*
X102636472Y-81463411D01*
X102656478Y-81619722D01*
X102706596Y-81769127D01*
X102765279Y-81871618D01*
X104380817Y-84143315D01*
X104391489Y-84163849D01*
X104394406Y-84167489D01*
X104396607Y-84171606D01*
X104421651Y-84202122D01*
X104443599Y-84234970D01*
X104468260Y-84259631D01*
X104490046Y-84286812D01*
X104493613Y-84289809D01*
X104496578Y-84293422D01*
X104505658Y-84300874D01*
X104513373Y-84309735D01*
X104535365Y-84326736D01*
X104555030Y-84346401D01*
X104584025Y-84365775D01*
X104610697Y-84388185D01*
X104614785Y-84390431D01*
X104618394Y-84393393D01*
X104628754Y-84398931D01*
X104638049Y-84406116D01*
X104662930Y-84418497D01*
X104686058Y-84433951D01*
X104718273Y-84447295D01*
X104748808Y-84464073D01*
X104753255Y-84465478D01*
X104757372Y-84467679D01*
X104768620Y-84471091D01*
X104779132Y-84476322D01*
X104805945Y-84483610D01*
X104831649Y-84494257D01*
X104865847Y-84501059D01*
X104899069Y-84511558D01*
X104903706Y-84512069D01*
X104908173Y-84513424D01*
X104919870Y-84514576D01*
X104931201Y-84517656D01*
X104958924Y-84519573D01*
X104986207Y-84525000D01*
X105021072Y-84525000D01*
X105055707Y-84528816D01*
X105072052Y-84527397D01*
X105088411Y-84528528D01*
X105115976Y-84525000D01*
X105222581Y-84525000D01*
X105222581Y-84575000D01*
X105232235Y-84673017D01*
X105260825Y-84767267D01*
X105307254Y-84854129D01*
X105369736Y-84930264D01*
X105445871Y-84992746D01*
X105532733Y-85039175D01*
X105626983Y-85067765D01*
X105725000Y-85077419D01*
X107475000Y-85077419D01*
X107573017Y-85067765D01*
X107667267Y-85039175D01*
X107754129Y-84992746D01*
X107811501Y-84945662D01*
X107811501Y-85733369D01*
X107754668Y-85818426D01*
X107701901Y-85945818D01*
X107675000Y-86081056D01*
X107675000Y-86218944D01*
X107701901Y-86354182D01*
X107754668Y-86481574D01*
X107831274Y-86596224D01*
X107928776Y-86693726D01*
X108043426Y-86770332D01*
X108170818Y-86823099D01*
X108306056Y-86850000D01*
X108443944Y-86850000D01*
X108579182Y-86823099D01*
X108706574Y-86770332D01*
X108821224Y-86693726D01*
X108918726Y-86596224D01*
X108995332Y-86481574D01*
X109048099Y-86354182D01*
X109075000Y-86218944D01*
X109075000Y-86081056D01*
X109048099Y-85945818D01*
X108995332Y-85818426D01*
X108938500Y-85733370D01*
X108938500Y-81073288D01*
X108940843Y-81035187D01*
X108934771Y-80990466D01*
X108930346Y-80945535D01*
X108927314Y-80935541D01*
X108925910Y-80925197D01*
X108911233Y-80882528D01*
X108898125Y-80839315D01*
X108893201Y-80830102D01*
X108889806Y-80820233D01*
X108867086Y-80781246D01*
X108845800Y-80741422D01*
X108821574Y-80711903D01*
X107079014Y-78300790D01*
X107070800Y-78285422D01*
X107046569Y-78255897D01*
X107040497Y-78247495D01*
X107029030Y-78234526D01*
X107000382Y-78199618D01*
X106992308Y-78192992D01*
X106985395Y-78185173D01*
X106949491Y-78157853D01*
X106914578Y-78129200D01*
X106905364Y-78124275D01*
X106897061Y-78117957D01*
X106856520Y-78098167D01*
X106816685Y-78076875D01*
X106806689Y-78073843D01*
X106797311Y-78069265D01*
X106753683Y-78057764D01*
X106710465Y-78044654D01*
X106700068Y-78043630D01*
X106689978Y-78040970D01*
X106644943Y-78038201D01*
X106627677Y-78036500D01*
X106617289Y-78036500D01*
X106579188Y-78034157D01*
X106561930Y-78036500D01*
X104698410Y-78036500D01*
X104123500Y-77461591D01*
X104123500Y-76392666D01*
X104126225Y-76364999D01*
X104123500Y-76337332D01*
X104123500Y-76337323D01*
X104115346Y-76254535D01*
X104083125Y-76148315D01*
X104030800Y-76050422D01*
X103960382Y-75964618D01*
X103938884Y-75946975D01*
X101363500Y-73371591D01*
X101363500Y-69516628D01*
X101420332Y-69431572D01*
X101473099Y-69304180D01*
X101500000Y-69168942D01*
X101500000Y-69031054D01*
X101473099Y-68895816D01*
X101420332Y-68768424D01*
X101343726Y-68653774D01*
X101246224Y-68556272D01*
X101131574Y-68479666D01*
X101004182Y-68426899D01*
X100868944Y-68399998D01*
X100731056Y-68399998D01*
X100595818Y-68426899D01*
X100468426Y-68479666D01*
X100353776Y-68556272D01*
X100256274Y-68653774D01*
X100179668Y-68768424D01*
X100126901Y-68895816D01*
X100100000Y-69031054D01*
X96539227Y-69031054D01*
X96018910Y-68510738D01*
X95998120Y-68406220D01*
X95980000Y-68362474D01*
X95980000Y-66697526D01*
X95998120Y-66653780D01*
X96050000Y-66392963D01*
X96050000Y-66127037D01*
X95998120Y-65866220D01*
X95980000Y-65822474D01*
X95980000Y-63393745D01*
X99935000Y-63393745D01*
X99935000Y-63556255D01*
X99966704Y-63715644D01*
X100028894Y-63865784D01*
X100119181Y-64000907D01*
X100234093Y-64115819D01*
X100369216Y-64206106D01*
X100519356Y-64268296D01*
X100678745Y-64300000D01*
X100841255Y-64300000D01*
X101000644Y-64268296D01*
X101150784Y-64206106D01*
X101285907Y-64115819D01*
X101400819Y-64000907D01*
X101491106Y-63865784D01*
X101553296Y-63715644D01*
X101585000Y-63556255D01*
X101585000Y-63393745D01*
X101553296Y-63234356D01*
X101491106Y-63084216D01*
X101400819Y-62949093D01*
X101285907Y-62834181D01*
X101150784Y-62743894D01*
X101000644Y-62681704D01*
X100841255Y-62650000D01*
X100678745Y-62650000D01*
X100519356Y-62681704D01*
X100369216Y-62743894D01*
X100234093Y-62834181D01*
X100119181Y-62949093D01*
X100028894Y-63084216D01*
X99966704Y-63234356D01*
X99935000Y-63393745D01*
X95980000Y-63393745D01*
X95980000Y-61617526D01*
X95998120Y-61573780D01*
X96050000Y-61312963D01*
X96050000Y-61047037D01*
X95998120Y-60786220D01*
X95980000Y-60742474D01*
X95980000Y-59077526D01*
X95998120Y-59033780D01*
X96050000Y-58772963D01*
X96050000Y-58507037D01*
X95998120Y-58246220D01*
X95980000Y-58202474D01*
X95980000Y-57750000D01*
X100997581Y-57750000D01*
X100997581Y-59625000D01*
G37*
G04 #@! TD.AperFunction*
D27*
X96125000Y-80313173D02*
X96125001Y-84778628D01*
X96078599Y-84825030D01*
X95991049Y-84956058D01*
X95980000Y-84982733D01*
X95980000Y-84477526D01*
X95998120Y-84433780D01*
X96050000Y-84172963D01*
X96050000Y-83907037D01*
X95998120Y-83646220D01*
X95980000Y-83602474D01*
X95980000Y-81937526D01*
X95998120Y-81893780D01*
X96050000Y-81632963D01*
X96050000Y-81367037D01*
X95998120Y-81106220D01*
X95980000Y-81062474D01*
X95980000Y-80168173D01*
X96125000Y-80313173D01*
G04 #@! TA.AperFunction,Conductor*
D28*
G36*
X96125000Y-80313173D02*
G01*
X96125001Y-84778628D01*
X96078599Y-84825030D01*
X95991049Y-84956058D01*
X95980000Y-84982733D01*
X95980000Y-84477526D01*
X95998120Y-84433780D01*
X96050000Y-84172963D01*
X96050000Y-83907037D01*
X95998120Y-83646220D01*
X95980000Y-83602474D01*
X95980000Y-81937526D01*
X95998120Y-81893780D01*
X96050000Y-81632963D01*
X96050000Y-81367037D01*
X95998120Y-81106220D01*
X95980000Y-81062474D01*
X95980000Y-80168173D01*
X96125000Y-80313173D01*
G37*
G04 #@! TD.AperFunction*
D27*
X97842178Y-81430351D02*
X97842179Y-83318367D01*
X97430331Y-83730216D01*
X97408384Y-83748227D01*
X97371208Y-83793528D01*
X97336530Y-83835783D01*
X97298444Y-83907037D01*
X97283137Y-83935674D01*
X97275000Y-83962498D01*
X97275000Y-80863173D01*
X97842178Y-81430351D01*
G04 #@! TA.AperFunction,Conductor*
D28*
G36*
X97842178Y-81430351D02*
G01*
X97842179Y-83318367D01*
X97430331Y-83730216D01*
X97408384Y-83748227D01*
X97371208Y-83793528D01*
X97336530Y-83835783D01*
X97298444Y-83907037D01*
X97283137Y-83935674D01*
X97275000Y-83962498D01*
X97275000Y-80863173D01*
X97842178Y-81430351D01*
G37*
G04 #@! TD.AperFunction*
D27*
X100425400Y-83547581D02*
X99925000Y-83547581D01*
X99826983Y-83557235D01*
X99732733Y-83585825D01*
X99645871Y-83632254D01*
X99592200Y-83676300D01*
X99592200Y-83225888D01*
X99645818Y-83248097D01*
X99781056Y-83274998D01*
X99918944Y-83274998D01*
X100054182Y-83248097D01*
X100181574Y-83195330D01*
X100296224Y-83118724D01*
X100393726Y-83021222D01*
X100425400Y-82973818D01*
X100425400Y-83547581D01*
G04 #@! TA.AperFunction,Conductor*
D28*
G36*
X100425400Y-83547581D02*
G01*
X99925000Y-83547581D01*
X99826983Y-83557235D01*
X99732733Y-83585825D01*
X99645871Y-83632254D01*
X99592200Y-83676300D01*
X99592200Y-83225888D01*
X99645818Y-83248097D01*
X99781056Y-83274998D01*
X99918944Y-83274998D01*
X100054182Y-83248097D01*
X100181574Y-83195330D01*
X100296224Y-83118724D01*
X100393726Y-83021222D01*
X100425400Y-82973818D01*
X100425400Y-83547581D01*
G37*
G04 #@! TD.AperFunction*
D27*
X97719327Y-75592500D02*
X96338393Y-76973435D01*
X96316446Y-76991446D01*
X96269287Y-77048911D01*
X96244592Y-77079002D01*
X96230062Y-77106186D01*
X96191199Y-77178893D01*
X96158320Y-77287281D01*
X96150000Y-77371754D01*
X96147218Y-77400000D01*
X96150000Y-77428243D01*
X96150001Y-78711829D01*
X96136565Y-78698393D01*
X96118554Y-78676446D01*
X96030998Y-78604592D01*
X96002749Y-78589493D01*
X95998120Y-78566220D01*
X95980000Y-78522474D01*
X95980000Y-74580000D01*
X96706828Y-74580000D01*
X97719327Y-75592500D01*
G04 #@! TA.AperFunction,Conductor*
D28*
G36*
X97719327Y-75592500D02*
G01*
X96338393Y-76973435D01*
X96316446Y-76991446D01*
X96269287Y-77048911D01*
X96244592Y-77079002D01*
X96230062Y-77106186D01*
X96191199Y-77178893D01*
X96158320Y-77287281D01*
X96150000Y-77371754D01*
X96147218Y-77400000D01*
X96150000Y-77428243D01*
X96150001Y-78711829D01*
X96136565Y-78698393D01*
X96118554Y-78676446D01*
X96030998Y-78604592D01*
X96002749Y-78589493D01*
X95998120Y-78566220D01*
X95980000Y-78522474D01*
X95980000Y-74580000D01*
X96706828Y-74580000D01*
X97719327Y-75592500D01*
G37*
G04 #@! TD.AperFunction*
D29*
X101121176Y-59625000D02*
X101128455Y-59698905D01*
X101150012Y-59769970D01*
X101185019Y-59835463D01*
X101232131Y-59892869D01*
X101289537Y-59939981D01*
X101355030Y-59974988D01*
X101426095Y-59996545D01*
X101500000Y-60003824D01*
X102323001Y-60003824D01*
X102323000Y-63803172D01*
X102323000Y-63916832D01*
X102328559Y-63944781D01*
X102331350Y-63973113D01*
X102339614Y-64000357D01*
X102345174Y-64028307D01*
X102356079Y-64054635D01*
X102364343Y-64081877D01*
X102377763Y-64106985D01*
X102388669Y-64133314D01*
X102404500Y-64157006D01*
X102417921Y-64182116D01*
X102435985Y-64204127D01*
X102451815Y-64227818D01*
X102471962Y-64247965D01*
X102490026Y-64269976D01*
X102512038Y-64288041D01*
X102532184Y-64308187D01*
X102555871Y-64324014D01*
X102577885Y-64342081D01*
X102603000Y-64355505D01*
X102626688Y-64371333D01*
X102653013Y-64382237D01*
X102678124Y-64395659D01*
X102705370Y-64403924D01*
X102731695Y-64414828D01*
X102759642Y-64420387D01*
X102786888Y-64428652D01*
X102815222Y-64431443D01*
X102843170Y-64437002D01*
X102871664Y-64437002D01*
X102900000Y-64439793D01*
X102928336Y-64437002D01*
X102956830Y-64437002D01*
X102984778Y-64431443D01*
X103013111Y-64428652D01*
X103040355Y-64420388D01*
X103068305Y-64414828D01*
X103094633Y-64403923D01*
X103121875Y-64395659D01*
X103146983Y-64382239D01*
X103173312Y-64371333D01*
X103197004Y-64355502D01*
X103222114Y-64342081D01*
X103244125Y-64324017D01*
X103267816Y-64308187D01*
X103287963Y-64288040D01*
X103309974Y-64269976D01*
X103328039Y-64247964D01*
X103348185Y-64227818D01*
X103364012Y-64204131D01*
X103365761Y-64202000D01*
X103934239Y-64202000D01*
X103935985Y-64204127D01*
X103951815Y-64227818D01*
X103971962Y-64247965D01*
X103990026Y-64269976D01*
X104012038Y-64288041D01*
X104032184Y-64308187D01*
X104055871Y-64324014D01*
X104077885Y-64342081D01*
X104103000Y-64355505D01*
X104126688Y-64371333D01*
X104153013Y-64382237D01*
X104178124Y-64395659D01*
X104205370Y-64403924D01*
X104231695Y-64414828D01*
X104259642Y-64420387D01*
X104286888Y-64428652D01*
X104315222Y-64431443D01*
X104343170Y-64437002D01*
X104371664Y-64437002D01*
X104400000Y-64439793D01*
X104428336Y-64437002D01*
X104456830Y-64437002D01*
X104484778Y-64431443D01*
X104513111Y-64428652D01*
X104540355Y-64420388D01*
X104568305Y-64414828D01*
X104594633Y-64403923D01*
X104621875Y-64395659D01*
X104646983Y-64382239D01*
X104673312Y-64371333D01*
X104697004Y-64355502D01*
X104722114Y-64342081D01*
X104744125Y-64324017D01*
X104767816Y-64308187D01*
X104787963Y-64288040D01*
X104809974Y-64269976D01*
X104828039Y-64247964D01*
X104848185Y-64227818D01*
X104864012Y-64204131D01*
X104882079Y-64182117D01*
X104895503Y-64157002D01*
X104911331Y-64133314D01*
X104922235Y-64106989D01*
X104935657Y-64081878D01*
X104943922Y-64054632D01*
X104954826Y-64028307D01*
X104960385Y-64000360D01*
X104968650Y-63973114D01*
X104971441Y-63944780D01*
X104977000Y-63916832D01*
X104977000Y-63405859D01*
X105838000Y-63405859D01*
X105838000Y-63544141D01*
X105864977Y-63679766D01*
X105917895Y-63807522D01*
X105994721Y-63922499D01*
X106092501Y-64020279D01*
X106207478Y-64097105D01*
X106335234Y-64150023D01*
X106470859Y-64177000D01*
X106609141Y-64177000D01*
X106744766Y-64150023D01*
X106872522Y-64097105D01*
X106987499Y-64020279D01*
X107085279Y-63922499D01*
X107162105Y-63807522D01*
X107215023Y-63679766D01*
X107242000Y-63544141D01*
X107242000Y-63405859D01*
X107215023Y-63270234D01*
X107162105Y-63142478D01*
X107085279Y-63027501D01*
X106987499Y-62929721D01*
X106872522Y-62852895D01*
X106744766Y-62799977D01*
X106609141Y-62773000D01*
X106470859Y-62773000D01*
X106335234Y-62799977D01*
X106207478Y-62852895D01*
X106092501Y-62929721D01*
X105994721Y-63027501D01*
X105917895Y-63142478D01*
X105864977Y-63270234D01*
X105838000Y-63405859D01*
X104977000Y-63405859D01*
X104977000Y-60003824D01*
X105800000Y-60003824D01*
X105873905Y-59996545D01*
X105944970Y-59974988D01*
X106010463Y-59939981D01*
X106067869Y-59892869D01*
X106114981Y-59835463D01*
X106149988Y-59769970D01*
X106171545Y-59698905D01*
X106178824Y-59625000D01*
X106178824Y-57627000D01*
X111365308Y-57627000D01*
X111355019Y-57639537D01*
X111320012Y-57705030D01*
X111298455Y-57776095D01*
X111291176Y-57850000D01*
X111291176Y-59550000D01*
X111298455Y-59623905D01*
X111320012Y-59694970D01*
X111355019Y-59760463D01*
X111402131Y-59817869D01*
X111443000Y-59851409D01*
X111443000Y-60643304D01*
X111432647Y-60658798D01*
X111340153Y-60882097D01*
X111293000Y-61119151D01*
X111293000Y-61360849D01*
X111340153Y-61597903D01*
X111432647Y-61821202D01*
X111443000Y-61836696D01*
X111443000Y-62825000D01*
X111445440Y-62849776D01*
X111452667Y-62873601D01*
X111464403Y-62895557D01*
X111480197Y-62914803D01*
X111499443Y-62930597D01*
X111521399Y-62942333D01*
X111545224Y-62949560D01*
X111570000Y-62952000D01*
X113998001Y-62952000D01*
X113998001Y-64658000D01*
X111570000Y-64658000D01*
X111545224Y-64660440D01*
X111521399Y-64667667D01*
X111499443Y-64679403D01*
X111480197Y-64695197D01*
X111464403Y-64714443D01*
X111452667Y-64736399D01*
X111445440Y-64760224D01*
X111443000Y-64785000D01*
X111443000Y-65723304D01*
X111432647Y-65738798D01*
X111430906Y-65743000D01*
X109158328Y-65743000D01*
X109129999Y-65740210D01*
X109101670Y-65743000D01*
X109101664Y-65743000D01*
X109016888Y-65751350D01*
X108908124Y-65784343D01*
X108807885Y-65837921D01*
X108720026Y-65910026D01*
X108701961Y-65932038D01*
X106339536Y-68294463D01*
X106317526Y-68312526D01*
X106299463Y-68334536D01*
X105701815Y-68932184D01*
X105685982Y-68955879D01*
X105667922Y-68977886D01*
X105654504Y-69002989D01*
X105638669Y-69026688D01*
X105627761Y-69053022D01*
X105614344Y-69078124D01*
X105606080Y-69105365D01*
X105595174Y-69131695D01*
X105589615Y-69159639D01*
X105581349Y-69186889D01*
X105578558Y-69215227D01*
X105573000Y-69243170D01*
X105573000Y-69271669D01*
X105570210Y-69300000D01*
X105573000Y-69328331D01*
X105573000Y-69356830D01*
X105578558Y-69384773D01*
X105581349Y-69413111D01*
X105589615Y-69440361D01*
X105595174Y-69468305D01*
X105606080Y-69494635D01*
X105614344Y-69521876D01*
X105627761Y-69546978D01*
X105638669Y-69573312D01*
X105654504Y-69597011D01*
X105667922Y-69622114D01*
X105685982Y-69644121D01*
X105701815Y-69667816D01*
X105721963Y-69687964D01*
X105740026Y-69709974D01*
X105762036Y-69728037D01*
X105782184Y-69748185D01*
X105805879Y-69764018D01*
X105827886Y-69782078D01*
X105852989Y-69795496D01*
X105876688Y-69811331D01*
X105903022Y-69822239D01*
X105928124Y-69835656D01*
X105955365Y-69843920D01*
X105981695Y-69854826D01*
X106009639Y-69860385D01*
X106036889Y-69868651D01*
X106065227Y-69871442D01*
X106093170Y-69877000D01*
X106121669Y-69877000D01*
X106150000Y-69879790D01*
X106178331Y-69877000D01*
X106206830Y-69877000D01*
X106234773Y-69871442D01*
X106263111Y-69868651D01*
X106290361Y-69860385D01*
X106318305Y-69854826D01*
X106344635Y-69843920D01*
X106371876Y-69835656D01*
X106396978Y-69822239D01*
X106423312Y-69811331D01*
X106447011Y-69795496D01*
X106472114Y-69782078D01*
X106494121Y-69764018D01*
X106517816Y-69748185D01*
X106738112Y-69527889D01*
X106742987Y-69530495D01*
X106766688Y-69546331D01*
X106793020Y-69557238D01*
X106818123Y-69570656D01*
X106845368Y-69578921D01*
X106871695Y-69589826D01*
X106899636Y-69595384D01*
X106926888Y-69603651D01*
X106955227Y-69606442D01*
X106983170Y-69612000D01*
X107011669Y-69612000D01*
X107040000Y-69614790D01*
X107068331Y-69612000D01*
X107096830Y-69612000D01*
X107124773Y-69606442D01*
X107153111Y-69603651D01*
X107180361Y-69595385D01*
X107208305Y-69589826D01*
X107234635Y-69578920D01*
X107261876Y-69570656D01*
X107286978Y-69557239D01*
X107313312Y-69546331D01*
X107337011Y-69530496D01*
X107362114Y-69517078D01*
X107384121Y-69499018D01*
X107407816Y-69483185D01*
X107427964Y-69463037D01*
X107449974Y-69444974D01*
X107468037Y-69422964D01*
X107488185Y-69402816D01*
X107504018Y-69379121D01*
X107522078Y-69357114D01*
X107535496Y-69332011D01*
X107551331Y-69308312D01*
X107562239Y-69281978D01*
X107575656Y-69256876D01*
X107583920Y-69229635D01*
X107594826Y-69203305D01*
X107600385Y-69175361D01*
X107608651Y-69148111D01*
X107611442Y-69119773D01*
X107617000Y-69091830D01*
X107617000Y-69063331D01*
X107619790Y-69035000D01*
X107617000Y-69006669D01*
X107617000Y-68978170D01*
X107611442Y-68950227D01*
X107608651Y-68921888D01*
X107600384Y-68894636D01*
X107594826Y-68866695D01*
X107583921Y-68840368D01*
X107575656Y-68813123D01*
X107562238Y-68788020D01*
X107551331Y-68761688D01*
X107535495Y-68737987D01*
X107532889Y-68733112D01*
X109369001Y-66897000D01*
X111430906Y-66897000D01*
X111432647Y-66901202D01*
X111443000Y-66916696D01*
X111443000Y-67973000D01*
X109250000Y-67973000D01*
X109207790Y-67975370D01*
X109040899Y-67994174D01*
X108958594Y-68012960D01*
X108800072Y-68068429D01*
X108724010Y-68105058D01*
X108581806Y-68194411D01*
X108515804Y-68247047D01*
X108397047Y-68365804D01*
X108344411Y-68431806D01*
X108255058Y-68574010D01*
X108218429Y-68650072D01*
X108162960Y-68808594D01*
X108144174Y-68890899D01*
X108125370Y-69057790D01*
X108123000Y-69100000D01*
X108123000Y-72446176D01*
X107750000Y-72446176D01*
X107676095Y-72453455D01*
X107605030Y-72475012D01*
X107539537Y-72510019D01*
X107482131Y-72557131D01*
X107435019Y-72614537D01*
X107400012Y-72680030D01*
X107378455Y-72751095D01*
X107371176Y-72825000D01*
X107371176Y-74575000D01*
X107378455Y-74648905D01*
X107400012Y-74719970D01*
X107435019Y-74785463D01*
X107482131Y-74842869D01*
X107539537Y-74889981D01*
X107605030Y-74924988D01*
X107676095Y-74946545D01*
X107750000Y-74953824D01*
X109500000Y-74953824D01*
X109573905Y-74946545D01*
X109644970Y-74924988D01*
X109710463Y-74889981D01*
X109767869Y-74842869D01*
X109814981Y-74785463D01*
X109849988Y-74719970D01*
X109871545Y-74648905D01*
X109878824Y-74575000D01*
X109878824Y-74171134D01*
X109897941Y-74138022D01*
X109954135Y-74002358D01*
X109979608Y-73907295D01*
X109998775Y-73761709D01*
X110002000Y-73712500D01*
X110002000Y-70221176D01*
X110013678Y-70117528D01*
X110041087Y-70039199D01*
X110085244Y-69968923D01*
X110143923Y-69910244D01*
X110214199Y-69866087D01*
X110292528Y-69838678D01*
X110396176Y-69827000D01*
X111443000Y-69827000D01*
X111443000Y-70803304D01*
X111432647Y-70818798D01*
X111340153Y-71042097D01*
X111293000Y-71279151D01*
X111293000Y-71520849D01*
X111340153Y-71757903D01*
X111414543Y-71937496D01*
X110678822Y-72673218D01*
X110662013Y-72687013D01*
X110606966Y-72754088D01*
X110566062Y-72830613D01*
X110540874Y-72913648D01*
X110534500Y-72978365D01*
X110534500Y-72978371D01*
X110532370Y-73000000D01*
X110534500Y-73021629D01*
X110534501Y-74892538D01*
X108692540Y-76734500D01*
X106975501Y-76734500D01*
X106967816Y-76726815D01*
X106873312Y-76663669D01*
X106768305Y-76620174D01*
X106656830Y-76598000D01*
X106543170Y-76598000D01*
X106431695Y-76620174D01*
X106326688Y-76663669D01*
X106232184Y-76726815D01*
X106151815Y-76807184D01*
X106088669Y-76901688D01*
X106045174Y-77006695D01*
X106023000Y-77118170D01*
X106023000Y-77231830D01*
X106045174Y-77343305D01*
X106088669Y-77448312D01*
X106151815Y-77542816D01*
X106232184Y-77623185D01*
X106326688Y-77686331D01*
X106431695Y-77729826D01*
X106543170Y-77752000D01*
X106656830Y-77752000D01*
X106768305Y-77729826D01*
X106873312Y-77686331D01*
X106967816Y-77623185D01*
X106975501Y-77615500D01*
X108853371Y-77615500D01*
X108875000Y-77617630D01*
X108896629Y-77615500D01*
X108896636Y-77615500D01*
X108961353Y-77609126D01*
X109044388Y-77583938D01*
X109120913Y-77543034D01*
X109187987Y-77487987D01*
X109201782Y-77471178D01*
X111271184Y-75401777D01*
X111287987Y-75387987D01*
X111343034Y-75320913D01*
X111383938Y-75244388D01*
X111409126Y-75161353D01*
X111415500Y-75096636D01*
X111415500Y-75096627D01*
X111417630Y-75075001D01*
X111415500Y-75053375D01*
X111415500Y-74479806D01*
X111432647Y-74521202D01*
X111443000Y-74536696D01*
X111443000Y-75525000D01*
X111445440Y-75549776D01*
X111452667Y-75573601D01*
X111464403Y-75595557D01*
X111480197Y-75614803D01*
X111499443Y-75630597D01*
X111521399Y-75642333D01*
X111545224Y-75649560D01*
X111570000Y-75652000D01*
X113998001Y-75652000D01*
X113998001Y-77358000D01*
X111570000Y-77358000D01*
X111545224Y-77360440D01*
X111521399Y-77367667D01*
X111499443Y-77379403D01*
X111480197Y-77395197D01*
X111464403Y-77414443D01*
X111452667Y-77436399D01*
X111445440Y-77460224D01*
X111443000Y-77485000D01*
X111443000Y-78423304D01*
X111432647Y-78438798D01*
X111340153Y-78662097D01*
X111293000Y-78899151D01*
X111293000Y-79140849D01*
X111340153Y-79377903D01*
X111432647Y-79601202D01*
X111443000Y-79616696D01*
X111443000Y-80963304D01*
X111432647Y-80978798D01*
X111340153Y-81202097D01*
X111293000Y-81439151D01*
X111293000Y-81680849D01*
X111340153Y-81917903D01*
X111432647Y-82141202D01*
X111443000Y-82156696D01*
X111443000Y-83503304D01*
X111432647Y-83518798D01*
X111340153Y-83742097D01*
X111293000Y-83979151D01*
X111293000Y-83992776D01*
X111049296Y-84236481D01*
X111032042Y-84250641D01*
X110992511Y-84298810D01*
X110975558Y-84319467D01*
X110933586Y-84397991D01*
X110907740Y-84483193D01*
X110899013Y-84571800D01*
X110901201Y-84594015D01*
X110901200Y-85634576D01*
X109021096Y-87514681D01*
X109003842Y-87528841D01*
X108951128Y-87593073D01*
X108947358Y-87597667D01*
X108905386Y-87676191D01*
X108879540Y-87761393D01*
X108870813Y-87850000D01*
X108873001Y-87872215D01*
X108873000Y-90312775D01*
X107637777Y-91548000D01*
X107533321Y-91548000D01*
X107402526Y-91574016D01*
X107279320Y-91625050D01*
X107168437Y-91699140D01*
X107074140Y-91793437D01*
X107000050Y-91904320D01*
X106949016Y-92027526D01*
X106923000Y-92158321D01*
X106923000Y-92291679D01*
X106949016Y-92422474D01*
X107000050Y-92545680D01*
X107074140Y-92656563D01*
X107168437Y-92750860D01*
X107279320Y-92824950D01*
X107402526Y-92875984D01*
X107533321Y-92902000D01*
X107666679Y-92902000D01*
X107797474Y-92875984D01*
X107920680Y-92824950D01*
X108031563Y-92750860D01*
X108125860Y-92656563D01*
X108199950Y-92545680D01*
X108250984Y-92422474D01*
X108277000Y-92291679D01*
X108277000Y-92187223D01*
X109628912Y-90835313D01*
X109646159Y-90821159D01*
X109702643Y-90752333D01*
X109744614Y-90673810D01*
X109766358Y-90602131D01*
X109770460Y-90588608D01*
X109779187Y-90500001D01*
X109777000Y-90477796D01*
X109777000Y-88037223D01*
X111293000Y-86521224D01*
X111293000Y-86760849D01*
X111340153Y-86997903D01*
X111432647Y-87221202D01*
X111443000Y-87236696D01*
X111443000Y-88225000D01*
X111445440Y-88249776D01*
X111452667Y-88273601D01*
X111464403Y-88295557D01*
X111480197Y-88314803D01*
X111499443Y-88330597D01*
X111521399Y-88342333D01*
X111545224Y-88349560D01*
X111570000Y-88352000D01*
X113998000Y-88352000D01*
X113998000Y-90058000D01*
X111570000Y-90058000D01*
X111545224Y-90060440D01*
X111521399Y-90067667D01*
X111499443Y-90079403D01*
X111480197Y-90095197D01*
X111464403Y-90114443D01*
X111452667Y-90136399D01*
X111445440Y-90160224D01*
X111443000Y-90185000D01*
X111443000Y-91123304D01*
X111432647Y-91138798D01*
X111340153Y-91362097D01*
X111293000Y-91599151D01*
X111293000Y-91840849D01*
X111340153Y-92077903D01*
X111432647Y-92301202D01*
X111443000Y-92316696D01*
X111443000Y-93663304D01*
X111432647Y-93678798D01*
X111340153Y-93902097D01*
X111293000Y-94139151D01*
X111293000Y-94380849D01*
X111340153Y-94617903D01*
X111432647Y-94841202D01*
X111443000Y-94856696D01*
X111443000Y-96203304D01*
X111432647Y-96218798D01*
X111340153Y-96442097D01*
X111293000Y-96679151D01*
X111293000Y-96920849D01*
X111340153Y-97157903D01*
X111432647Y-97381202D01*
X111443000Y-97396696D01*
X111443000Y-98743304D01*
X111432647Y-98758798D01*
X111340153Y-98982097D01*
X111293000Y-99219151D01*
X111293000Y-99460849D01*
X111340153Y-99697903D01*
X111432647Y-99921202D01*
X111443000Y-99936696D01*
X111443000Y-100925000D01*
X111445440Y-100949776D01*
X111452667Y-100973601D01*
X111464403Y-100995557D01*
X111480197Y-101014803D01*
X111499443Y-101030597D01*
X111521399Y-101042333D01*
X111545224Y-101049560D01*
X111570000Y-101052000D01*
X113998000Y-101052000D01*
X113998000Y-102758000D01*
X111570000Y-102758000D01*
X111545224Y-102760440D01*
X111521399Y-102767667D01*
X111499443Y-102779403D01*
X111480197Y-102795197D01*
X111464403Y-102814443D01*
X111452667Y-102836399D01*
X111445440Y-102860224D01*
X111443000Y-102885000D01*
X111443000Y-103823304D01*
X111432647Y-103838798D01*
X111340153Y-104062097D01*
X111293000Y-104299151D01*
X111293000Y-104540849D01*
X111340153Y-104777903D01*
X111432647Y-105001202D01*
X111443000Y-105016696D01*
X111443000Y-106363304D01*
X111432647Y-106378798D01*
X111340153Y-106602097D01*
X111293000Y-106839151D01*
X111293000Y-107080849D01*
X111340153Y-107317903D01*
X111432647Y-107541202D01*
X111443000Y-107556696D01*
X111443000Y-108123000D01*
X106320958Y-108123000D01*
X106537903Y-108079847D01*
X106761202Y-107987353D01*
X106962167Y-107853073D01*
X107133073Y-107682167D01*
X107267353Y-107481202D01*
X107359847Y-107257903D01*
X107407000Y-107020849D01*
X107407000Y-106779151D01*
X107359847Y-106542097D01*
X107267353Y-106318798D01*
X107133073Y-106117833D01*
X106962167Y-105946927D01*
X106761202Y-105812647D01*
X106537903Y-105720153D01*
X106300849Y-105673000D01*
X106059151Y-105673000D01*
X105822097Y-105720153D01*
X105598798Y-105812647D01*
X105397833Y-105946927D01*
X105226927Y-106117833D01*
X105092647Y-106318798D01*
X105000153Y-106542097D01*
X104953000Y-106779151D01*
X104953000Y-107020849D01*
X105000153Y-107257903D01*
X105092647Y-107481202D01*
X105226927Y-107682167D01*
X105397833Y-107853073D01*
X105598798Y-107987353D01*
X105822097Y-108079847D01*
X106039042Y-108123000D01*
X101240958Y-108123000D01*
X101457903Y-108079847D01*
X101681202Y-107987353D01*
X101882167Y-107853073D01*
X102053073Y-107682167D01*
X102187353Y-107481202D01*
X102279847Y-107257903D01*
X102327000Y-107020849D01*
X102327000Y-106779151D01*
X102279847Y-106542097D01*
X102187353Y-106318798D01*
X102053073Y-106117833D01*
X101882167Y-105946927D01*
X101681202Y-105812647D01*
X101457903Y-105720153D01*
X101220849Y-105673000D01*
X100979151Y-105673000D01*
X100742097Y-105720153D01*
X100518798Y-105812647D01*
X100317833Y-105946927D01*
X100146927Y-106117833D01*
X100012647Y-106318798D01*
X99920153Y-106542097D01*
X99873000Y-106779151D01*
X99873000Y-107020849D01*
X99920153Y-107257903D01*
X100012647Y-107481202D01*
X100146927Y-107682167D01*
X100317833Y-107853073D01*
X100518798Y-107987353D01*
X100742097Y-108079847D01*
X100959042Y-108123000D01*
X95857000Y-108123000D01*
X95857000Y-107313060D01*
X95879847Y-107257903D01*
X95927000Y-107020849D01*
X95927000Y-106779151D01*
X95879847Y-106542097D01*
X95857000Y-106486940D01*
X95857000Y-104773060D01*
X95879847Y-104717903D01*
X95927000Y-104480849D01*
X95927000Y-104239151D01*
X95879847Y-104002097D01*
X95857000Y-103946940D01*
X95857000Y-102885000D01*
X95854560Y-102860224D01*
X95847333Y-102836399D01*
X95835597Y-102814443D01*
X95819803Y-102795197D01*
X95800557Y-102779403D01*
X95778601Y-102767667D01*
X95754776Y-102760440D01*
X95730000Y-102758000D01*
X93302000Y-102758000D01*
X93302000Y-101052000D01*
X95730000Y-101052000D01*
X95754776Y-101049560D01*
X95778601Y-101042333D01*
X95800557Y-101030597D01*
X95819803Y-101014803D01*
X95835597Y-100995557D01*
X95847333Y-100973601D01*
X95854560Y-100949776D01*
X95857000Y-100925000D01*
X95857000Y-99693060D01*
X95879847Y-99637903D01*
X95927000Y-99400849D01*
X95927000Y-99159151D01*
X95879847Y-98922097D01*
X95857000Y-98866940D01*
X95857000Y-97153060D01*
X95879847Y-97097903D01*
X95927000Y-96860849D01*
X95927000Y-96619151D01*
X95879847Y-96382097D01*
X95857000Y-96326940D01*
X95857000Y-94613060D01*
X95879847Y-94557903D01*
X95927000Y-94320849D01*
X95927000Y-94079151D01*
X95879847Y-93842097D01*
X95857000Y-93786940D01*
X95857000Y-92073060D01*
X95879847Y-92017903D01*
X95927000Y-91780849D01*
X95927000Y-91539151D01*
X95879847Y-91302097D01*
X95857000Y-91246940D01*
X95857000Y-90185000D01*
X95854560Y-90160224D01*
X95847333Y-90136399D01*
X95835597Y-90114443D01*
X95819803Y-90095197D01*
X95800557Y-90079403D01*
X95778601Y-90067667D01*
X95754776Y-90060440D01*
X95730000Y-90058000D01*
X93302000Y-90058000D01*
X93302000Y-88352000D01*
X95730000Y-88352000D01*
X95754776Y-88349560D01*
X95778601Y-88342333D01*
X95800557Y-88330597D01*
X95819803Y-88314803D01*
X95835597Y-88295557D01*
X95847333Y-88273601D01*
X95854560Y-88249776D01*
X95857000Y-88225000D01*
X95857000Y-88125000D01*
X103589726Y-88125000D01*
X103593000Y-88158245D01*
X103593000Y-88191679D01*
X103599522Y-88224467D01*
X103602796Y-88257714D01*
X103607270Y-88272462D01*
X103607269Y-90813598D01*
X103607269Y-90946956D01*
X103613790Y-90979742D01*
X103617065Y-91012991D01*
X103626762Y-91044959D01*
X103633285Y-91077751D01*
X103646081Y-91108643D01*
X103655777Y-91140606D01*
X103671523Y-91170065D01*
X103684319Y-91200957D01*
X103702894Y-91228757D01*
X103718641Y-91258217D01*
X103739834Y-91284040D01*
X103758409Y-91311840D01*
X103782052Y-91335483D01*
X103803242Y-91361303D01*
X103829064Y-91382495D01*
X103852706Y-91406137D01*
X103880502Y-91424710D01*
X103906328Y-91445905D01*
X103935793Y-91461654D01*
X103963589Y-91480227D01*
X103994477Y-91493021D01*
X104023939Y-91508769D01*
X104055905Y-91518466D01*
X104086795Y-91531261D01*
X104119584Y-91537783D01*
X104151554Y-91547481D01*
X104184805Y-91550756D01*
X104217590Y-91557277D01*
X104251017Y-91557277D01*
X104284269Y-91560552D01*
X104317521Y-91557277D01*
X104350948Y-91557277D01*
X104383734Y-91550756D01*
X104416983Y-91547481D01*
X104448951Y-91537784D01*
X104481743Y-91531261D01*
X104512635Y-91518465D01*
X104544598Y-91508769D01*
X104574057Y-91493023D01*
X104604949Y-91480227D01*
X104632749Y-91461652D01*
X104662209Y-91445905D01*
X104688032Y-91424712D01*
X104715832Y-91406137D01*
X104739475Y-91382494D01*
X104765295Y-91361304D01*
X104786487Y-91335482D01*
X104810129Y-91311840D01*
X104828702Y-91284044D01*
X104849897Y-91258218D01*
X104865646Y-91228753D01*
X104884219Y-91200957D01*
X104897013Y-91170069D01*
X104912761Y-91140607D01*
X104922458Y-91108641D01*
X104935253Y-91077751D01*
X104941775Y-91044962D01*
X104951473Y-91012992D01*
X104954748Y-90979741D01*
X104961269Y-90946956D01*
X104961269Y-88172510D01*
X104964543Y-88139268D01*
X104961269Y-88106026D01*
X104961269Y-88106017D01*
X104951473Y-88006554D01*
X104912761Y-87878939D01*
X104849897Y-87761328D01*
X104803221Y-87704453D01*
X104795860Y-87693437D01*
X104786491Y-87684068D01*
X104765296Y-87658242D01*
X104739470Y-87637047D01*
X104701563Y-87599140D01*
X104673764Y-87580565D01*
X104647940Y-87559372D01*
X104618480Y-87543625D01*
X104590680Y-87525050D01*
X104559788Y-87512254D01*
X104530329Y-87496508D01*
X104498366Y-87486812D01*
X104467474Y-87474016D01*
X104434682Y-87467493D01*
X104402714Y-87457796D01*
X104369467Y-87454522D01*
X104336679Y-87448000D01*
X104303245Y-87448000D01*
X104270000Y-87444726D01*
X104236755Y-87448000D01*
X104203321Y-87448000D01*
X104170533Y-87454522D01*
X104137286Y-87457796D01*
X104105318Y-87467493D01*
X104072526Y-87474016D01*
X104041634Y-87486812D01*
X104009671Y-87496508D01*
X103980212Y-87512254D01*
X103949320Y-87525050D01*
X103921520Y-87543625D01*
X103892060Y-87559372D01*
X103866235Y-87580566D01*
X103838437Y-87599140D01*
X103814798Y-87622779D01*
X103788973Y-87643973D01*
X103767779Y-87669798D01*
X103744140Y-87693437D01*
X103725566Y-87721235D01*
X103704372Y-87747060D01*
X103688625Y-87776520D01*
X103670050Y-87804320D01*
X103657254Y-87835212D01*
X103641508Y-87864671D01*
X103631812Y-87896634D01*
X103619016Y-87927526D01*
X103612493Y-87960318D01*
X103602796Y-87992286D01*
X103599522Y-88025533D01*
X103593000Y-88058321D01*
X103593000Y-88091755D01*
X103589726Y-88125000D01*
X95857000Y-88125000D01*
X95857000Y-86993060D01*
X95879847Y-86937903D01*
X95927000Y-86700849D01*
X95927000Y-86459151D01*
X95879847Y-86222097D01*
X95857000Y-86166940D01*
X95857000Y-84453060D01*
X95879847Y-84397903D01*
X95927000Y-84160849D01*
X95927000Y-83919151D01*
X95879847Y-83682097D01*
X95857000Y-83626940D01*
X95857000Y-81913060D01*
X95879847Y-81857903D01*
X95927000Y-81620849D01*
X95927000Y-81379151D01*
X95879847Y-81142097D01*
X95857000Y-81086940D01*
X95857000Y-79871224D01*
X96248000Y-80262225D01*
X96248001Y-84829576D01*
X96174140Y-84903437D01*
X96100050Y-85014320D01*
X96049016Y-85137526D01*
X96023000Y-85268321D01*
X96023000Y-85401679D01*
X96049016Y-85532474D01*
X96100050Y-85655680D01*
X96174140Y-85766563D01*
X96268437Y-85860860D01*
X96379320Y-85934950D01*
X96502526Y-85985984D01*
X96633321Y-86012000D01*
X96766679Y-86012000D01*
X96897474Y-85985984D01*
X97020680Y-85934950D01*
X97131563Y-85860860D01*
X97150857Y-85841566D01*
X97165954Y-85917467D01*
X97216988Y-86040673D01*
X97291078Y-86151556D01*
X97385375Y-86245853D01*
X97496258Y-86319943D01*
X97619464Y-86370977D01*
X97750259Y-86396993D01*
X97883617Y-86396993D01*
X98014412Y-86370977D01*
X98137618Y-86319943D01*
X98248501Y-86245853D01*
X98342798Y-86151556D01*
X98416888Y-86040673D01*
X98458975Y-85939067D01*
X98477605Y-85939067D01*
X98608400Y-85913051D01*
X98731606Y-85862017D01*
X98842489Y-85787927D01*
X98936786Y-85693630D01*
X99010876Y-85582747D01*
X99061910Y-85459541D01*
X99087926Y-85328746D01*
X99087926Y-85195388D01*
X99062978Y-85069960D01*
X99091563Y-85050860D01*
X99185860Y-84956563D01*
X99259950Y-84845680D01*
X99310984Y-84722474D01*
X99337000Y-84591679D01*
X99337000Y-84490074D01*
X99338359Y-84488959D01*
X99394843Y-84420133D01*
X99436814Y-84341610D01*
X99443531Y-84319467D01*
X99462660Y-84256408D01*
X99471387Y-84167801D01*
X99469200Y-84145596D01*
X99469200Y-84050000D01*
X99546176Y-84050000D01*
X99546176Y-85800000D01*
X99553455Y-85873905D01*
X99575012Y-85944970D01*
X99610019Y-86010463D01*
X99657131Y-86067869D01*
X99714537Y-86114981D01*
X99780030Y-86149988D01*
X99851095Y-86171545D01*
X99925000Y-86178824D01*
X101675000Y-86178824D01*
X101748905Y-86171545D01*
X101819970Y-86149988D01*
X101885463Y-86114981D01*
X101942869Y-86067869D01*
X101989981Y-86010463D01*
X102024988Y-85944970D01*
X102046545Y-85873905D01*
X102053824Y-85800000D01*
X102053824Y-84050000D01*
X102046545Y-83976095D01*
X102024988Y-83905030D01*
X101989981Y-83839537D01*
X101942869Y-83782131D01*
X101885463Y-83735019D01*
X101819970Y-83700012D01*
X101748905Y-83678455D01*
X101702400Y-83673875D01*
X101702400Y-81459811D01*
X102760014Y-81459811D01*
X102776945Y-81592090D01*
X102819357Y-81718523D01*
X102869017Y-81805257D01*
X104486006Y-84078993D01*
X104495041Y-84096376D01*
X104497508Y-84099454D01*
X104499372Y-84102941D01*
X104520568Y-84128769D01*
X104539140Y-84156563D01*
X104560006Y-84177429D01*
X104578444Y-84200433D01*
X104581466Y-84202972D01*
X104583973Y-84206027D01*
X104591655Y-84212331D01*
X104598185Y-84219832D01*
X104616796Y-84234219D01*
X104633437Y-84250860D01*
X104657976Y-84267257D01*
X104680546Y-84286220D01*
X104684001Y-84288119D01*
X104687059Y-84290628D01*
X104695832Y-84295317D01*
X104703693Y-84301394D01*
X104724744Y-84311870D01*
X104744320Y-84324950D01*
X104771587Y-84336245D01*
X104797422Y-84350440D01*
X104801185Y-84351629D01*
X104804670Y-84353492D01*
X104814184Y-84356378D01*
X104823084Y-84360807D01*
X104845776Y-84366975D01*
X104867526Y-84375984D01*
X104896475Y-84381742D01*
X104924581Y-84390624D01*
X104928500Y-84391056D01*
X104932285Y-84392204D01*
X104942184Y-84393179D01*
X104951772Y-84395785D01*
X104975232Y-84397408D01*
X104998321Y-84402000D01*
X105027830Y-84402000D01*
X105057136Y-84405229D01*
X105070964Y-84404028D01*
X105084811Y-84404986D01*
X105108140Y-84402000D01*
X105346176Y-84402000D01*
X105346176Y-84575000D01*
X105353455Y-84648905D01*
X105375012Y-84719970D01*
X105410019Y-84785463D01*
X105457131Y-84842869D01*
X105514537Y-84889981D01*
X105580030Y-84924988D01*
X105651095Y-84946545D01*
X105725000Y-84953824D01*
X107475000Y-84953824D01*
X107548905Y-84946545D01*
X107619970Y-84924988D01*
X107685463Y-84889981D01*
X107742869Y-84842869D01*
X107789981Y-84785463D01*
X107824988Y-84719970D01*
X107846545Y-84648905D01*
X107853824Y-84575000D01*
X107853824Y-82825000D01*
X107846545Y-82751095D01*
X107824988Y-82680030D01*
X107789981Y-82614537D01*
X107742869Y-82557131D01*
X107685463Y-82510019D01*
X107619970Y-82475012D01*
X107548905Y-82453455D01*
X107475000Y-82446176D01*
X106026680Y-82446176D01*
X106119284Y-82007208D01*
X106130229Y-81907865D01*
X106118693Y-81775007D01*
X106081459Y-81646953D01*
X106019959Y-81528624D01*
X105936556Y-81424566D01*
X105834454Y-81338779D01*
X105717578Y-81274559D01*
X105590419Y-81234375D01*
X105457864Y-81219770D01*
X105325007Y-81231307D01*
X105196952Y-81268540D01*
X105078623Y-81330041D01*
X104974567Y-81413444D01*
X104888780Y-81515546D01*
X104824560Y-81632422D01*
X104794444Y-81727721D01*
X104721444Y-82073760D01*
X103972440Y-81020547D01*
X103906813Y-80945168D01*
X103801306Y-80863605D01*
X103681915Y-80804193D01*
X103553227Y-80769215D01*
X103420189Y-80760014D01*
X103287910Y-80776945D01*
X103161477Y-80819357D01*
X103045747Y-80885619D01*
X102945168Y-80973187D01*
X102863605Y-81078694D01*
X102804193Y-81198085D01*
X102769215Y-81326773D01*
X102760014Y-81459811D01*
X101702400Y-81459811D01*
X101702400Y-76668170D01*
X101696841Y-76640222D01*
X101694050Y-76611888D01*
X101685785Y-76584642D01*
X101680226Y-76556695D01*
X101669322Y-76530370D01*
X101661057Y-76503124D01*
X101647635Y-76478013D01*
X101636731Y-76451688D01*
X101620903Y-76428000D01*
X101607479Y-76402885D01*
X101589412Y-76380871D01*
X101573585Y-76357184D01*
X101553439Y-76337038D01*
X101535374Y-76315026D01*
X101513362Y-76296961D01*
X101493216Y-76276815D01*
X101469529Y-76260988D01*
X101447515Y-76242921D01*
X101422400Y-76229497D01*
X101398712Y-76213669D01*
X101372387Y-76202765D01*
X101347276Y-76189343D01*
X101320030Y-76181078D01*
X101293705Y-76170174D01*
X101265758Y-76164615D01*
X101238512Y-76156350D01*
X101210178Y-76153559D01*
X101182230Y-76148000D01*
X101153736Y-76148000D01*
X101125400Y-76145209D01*
X101097064Y-76148000D01*
X101068570Y-76148000D01*
X101040622Y-76153559D01*
X101012289Y-76156350D01*
X100985045Y-76164614D01*
X100957095Y-76170174D01*
X100930767Y-76181079D01*
X100903525Y-76189343D01*
X100878417Y-76202763D01*
X100852088Y-76213669D01*
X100828396Y-76229500D01*
X100803286Y-76242921D01*
X100781276Y-76260984D01*
X100757584Y-76276815D01*
X100737434Y-76296965D01*
X100715427Y-76315026D01*
X100697366Y-76337033D01*
X100677215Y-76357184D01*
X100661384Y-76380877D01*
X100643322Y-76402885D01*
X100629902Y-76427992D01*
X100614069Y-76451688D01*
X100603162Y-76478021D01*
X100589744Y-76503124D01*
X100581482Y-76530361D01*
X100570574Y-76556695D01*
X100565013Y-76584652D01*
X100556751Y-76611888D01*
X100553961Y-76640212D01*
X100548400Y-76668170D01*
X100548400Y-76781830D01*
X100548401Y-76781835D01*
X100548400Y-83433170D01*
X100548400Y-83671176D01*
X99925000Y-83671176D01*
X99851095Y-83678455D01*
X99780030Y-83700012D01*
X99714537Y-83735019D01*
X99657131Y-83782131D01*
X99610019Y-83839537D01*
X99575012Y-83905030D01*
X99553455Y-83976095D01*
X99546176Y-84050000D01*
X99469200Y-84050000D01*
X99469200Y-83010199D01*
X99482184Y-83023183D01*
X99576688Y-83086329D01*
X99681695Y-83129824D01*
X99793170Y-83151998D01*
X99906830Y-83151998D01*
X100018305Y-83129824D01*
X100123312Y-83086329D01*
X100217816Y-83023183D01*
X100298185Y-82942814D01*
X100361331Y-82848310D01*
X100404826Y-82743303D01*
X100427000Y-82631828D01*
X100427000Y-82518168D01*
X100404826Y-82406693D01*
X100361331Y-82301686D01*
X100298185Y-82207182D01*
X100217816Y-82126813D01*
X100123312Y-82063667D01*
X100018305Y-82020172D01*
X99913563Y-81999337D01*
X99877000Y-81962775D01*
X99877000Y-80847204D01*
X99879187Y-80824999D01*
X99870460Y-80736392D01*
X99844614Y-80651190D01*
X99820955Y-80606927D01*
X99802643Y-80572667D01*
X99746159Y-80503841D01*
X99728912Y-80489687D01*
X98102000Y-78862777D01*
X98102000Y-78616702D01*
X98175322Y-78586331D01*
X98269826Y-78523185D01*
X98350195Y-78442816D01*
X98413341Y-78348312D01*
X98456836Y-78243305D01*
X98479010Y-78131830D01*
X98479010Y-78018170D01*
X98456836Y-77906695D01*
X98413341Y-77801688D01*
X98350195Y-77707184D01*
X98269826Y-77626815D01*
X98175322Y-77563669D01*
X98070315Y-77520174D01*
X98034645Y-77513079D01*
X99321105Y-76226619D01*
X99338359Y-76212459D01*
X99394843Y-76143633D01*
X99436814Y-76065110D01*
X99447774Y-76028981D01*
X99462660Y-75979908D01*
X99471387Y-75891300D01*
X99469200Y-75869095D01*
X99469200Y-72344405D01*
X99471387Y-72322200D01*
X99462660Y-72233592D01*
X99436814Y-72148390D01*
X99394843Y-72069867D01*
X99338359Y-72001041D01*
X99321106Y-71986882D01*
X96377392Y-69043168D01*
X100223000Y-69043168D01*
X100223000Y-69156828D01*
X100245174Y-69268303D01*
X100288669Y-69373310D01*
X100351815Y-69467814D01*
X100359500Y-69475499D01*
X100359501Y-73583361D01*
X100357370Y-73605000D01*
X100365874Y-73691352D01*
X100391062Y-73774387D01*
X100431966Y-73850912D01*
X100431967Y-73850913D01*
X100487014Y-73917987D01*
X100503817Y-73931777D01*
X103119500Y-76547461D01*
X103119501Y-77673362D01*
X103117370Y-77695000D01*
X103125874Y-77781352D01*
X103151062Y-77864387D01*
X103191966Y-77940912D01*
X103214958Y-77968927D01*
X103247014Y-78007987D01*
X103263817Y-78021777D01*
X104138222Y-78896183D01*
X104152013Y-78912987D01*
X104168816Y-78926777D01*
X104168818Y-78926779D01*
X104184683Y-78939799D01*
X104219087Y-78968034D01*
X104295612Y-79008938D01*
X104378647Y-79034126D01*
X104443364Y-79040500D01*
X104443373Y-79040500D01*
X104464999Y-79042630D01*
X104486625Y-79040500D01*
X106374859Y-79040500D01*
X107934500Y-81198517D01*
X107934501Y-85774498D01*
X107926815Y-85782184D01*
X107863669Y-85876688D01*
X107820174Y-85981695D01*
X107798000Y-86093170D01*
X107798000Y-86206830D01*
X107820174Y-86318305D01*
X107863669Y-86423312D01*
X107926815Y-86517816D01*
X108007184Y-86598185D01*
X108101688Y-86661331D01*
X108206695Y-86704826D01*
X108318170Y-86727000D01*
X108431830Y-86727000D01*
X108543305Y-86704826D01*
X108648312Y-86661331D01*
X108742816Y-86598185D01*
X108823185Y-86517816D01*
X108886331Y-86423312D01*
X108929826Y-86318305D01*
X108952000Y-86206830D01*
X108952000Y-86093170D01*
X108929826Y-85981695D01*
X108886331Y-85876688D01*
X108823185Y-85782184D01*
X108815500Y-85774499D01*
X108815500Y-81069505D01*
X108817331Y-81039731D01*
X108812586Y-81004776D01*
X108809126Y-80969647D01*
X108806757Y-80961837D01*
X108805659Y-80953749D01*
X108794183Y-80920387D01*
X108783938Y-80886612D01*
X108780088Y-80879410D01*
X108777435Y-80871696D01*
X108759673Y-80841216D01*
X108743034Y-80810087D01*
X108724100Y-80787016D01*
X106974455Y-78366100D01*
X106968034Y-78354087D01*
X106949096Y-78331011D01*
X106944346Y-78324439D01*
X106935376Y-78314293D01*
X106912987Y-78287013D01*
X106906678Y-78281835D01*
X106901272Y-78275721D01*
X106873196Y-78254357D01*
X106845913Y-78231966D01*
X106838713Y-78228117D01*
X106832219Y-78223176D01*
X106800522Y-78207704D01*
X106769388Y-78191062D01*
X106761572Y-78188691D01*
X106754242Y-78185113D01*
X106720138Y-78176122D01*
X106686353Y-78165874D01*
X106678227Y-78165074D01*
X106670338Y-78162994D01*
X106635135Y-78160830D01*
X106621636Y-78159500D01*
X106613511Y-78159500D01*
X106583732Y-78157669D01*
X106570244Y-78159500D01*
X104647461Y-78159500D01*
X104000500Y-77512540D01*
X104000500Y-76386625D01*
X104002630Y-76364999D01*
X104000500Y-76343373D01*
X104000500Y-76343364D01*
X103994126Y-76278647D01*
X103968938Y-76195612D01*
X103928034Y-76119087D01*
X103872987Y-76052013D01*
X103856185Y-76038224D01*
X101240500Y-73422540D01*
X101240500Y-69475499D01*
X101248185Y-69467814D01*
X101311331Y-69373310D01*
X101354826Y-69268303D01*
X101377000Y-69156828D01*
X101377000Y-69043168D01*
X101354826Y-68931693D01*
X101311331Y-68826686D01*
X101248185Y-68732182D01*
X101167816Y-68651813D01*
X101073312Y-68588667D01*
X100968305Y-68545172D01*
X100856830Y-68522998D01*
X100743170Y-68522998D01*
X100631695Y-68545172D01*
X100526688Y-68588667D01*
X100432184Y-68651813D01*
X100351815Y-68732182D01*
X100288669Y-68826686D01*
X100245174Y-68931693D01*
X100223000Y-69043168D01*
X96377392Y-69043168D01*
X95915323Y-68581100D01*
X95904993Y-68568512D01*
X95879847Y-68442097D01*
X95857000Y-68386940D01*
X95857000Y-66673060D01*
X95879847Y-66617903D01*
X95927000Y-66380849D01*
X95927000Y-66139151D01*
X95879847Y-65902097D01*
X95857000Y-65846940D01*
X95857000Y-64785000D01*
X95854560Y-64760224D01*
X95847333Y-64736399D01*
X95835597Y-64714443D01*
X95819803Y-64695197D01*
X95800557Y-64679403D01*
X95778601Y-64667667D01*
X95754776Y-64660440D01*
X95730000Y-64658000D01*
X93302000Y-64658000D01*
X93302000Y-63405859D01*
X100058000Y-63405859D01*
X100058000Y-63544141D01*
X100084977Y-63679766D01*
X100137895Y-63807522D01*
X100214721Y-63922499D01*
X100312501Y-64020279D01*
X100427478Y-64097105D01*
X100555234Y-64150023D01*
X100690859Y-64177000D01*
X100829141Y-64177000D01*
X100964766Y-64150023D01*
X101092522Y-64097105D01*
X101207499Y-64020279D01*
X101305279Y-63922499D01*
X101382105Y-63807522D01*
X101435023Y-63679766D01*
X101462000Y-63544141D01*
X101462000Y-63405859D01*
X101435023Y-63270234D01*
X101382105Y-63142478D01*
X101305279Y-63027501D01*
X101207499Y-62929721D01*
X101092522Y-62852895D01*
X100964766Y-62799977D01*
X100829141Y-62773000D01*
X100690859Y-62773000D01*
X100555234Y-62799977D01*
X100427478Y-62852895D01*
X100312501Y-62929721D01*
X100214721Y-63027501D01*
X100137895Y-63142478D01*
X100084977Y-63270234D01*
X100058000Y-63405859D01*
X93302000Y-63405859D01*
X93302000Y-62952000D01*
X95730000Y-62952000D01*
X95754776Y-62949560D01*
X95778601Y-62942333D01*
X95800557Y-62930597D01*
X95819803Y-62914803D01*
X95835597Y-62895557D01*
X95847333Y-62873601D01*
X95854560Y-62849776D01*
X95857000Y-62825000D01*
X95857000Y-61593060D01*
X95879847Y-61537903D01*
X95927000Y-61300849D01*
X95927000Y-61059151D01*
X95879847Y-60822097D01*
X95857000Y-60766940D01*
X95857000Y-59053060D01*
X95879847Y-58997903D01*
X95927000Y-58760849D01*
X95927000Y-58519151D01*
X95879847Y-58282097D01*
X95857000Y-58226940D01*
X95857000Y-57627000D01*
X101121176Y-57627000D01*
X101121176Y-59625000D01*
G04 #@! TA.AperFunction,Conductor*
D28*
G36*
X101121176Y-59625000D02*
G01*
X101128455Y-59698905D01*
X101150012Y-59769970D01*
X101185019Y-59835463D01*
X101232131Y-59892869D01*
X101289537Y-59939981D01*
X101355030Y-59974988D01*
X101426095Y-59996545D01*
X101500000Y-60003824D01*
X102323001Y-60003824D01*
X102323000Y-63803172D01*
X102323000Y-63916832D01*
X102328559Y-63944781D01*
X102331350Y-63973113D01*
X102339614Y-64000357D01*
X102345174Y-64028307D01*
X102356079Y-64054635D01*
X102364343Y-64081877D01*
X102377763Y-64106985D01*
X102388669Y-64133314D01*
X102404500Y-64157006D01*
X102417921Y-64182116D01*
X102435985Y-64204127D01*
X102451815Y-64227818D01*
X102471962Y-64247965D01*
X102490026Y-64269976D01*
X102512038Y-64288041D01*
X102532184Y-64308187D01*
X102555871Y-64324014D01*
X102577885Y-64342081D01*
X102603000Y-64355505D01*
X102626688Y-64371333D01*
X102653013Y-64382237D01*
X102678124Y-64395659D01*
X102705370Y-64403924D01*
X102731695Y-64414828D01*
X102759642Y-64420387D01*
X102786888Y-64428652D01*
X102815222Y-64431443D01*
X102843170Y-64437002D01*
X102871664Y-64437002D01*
X102900000Y-64439793D01*
X102928336Y-64437002D01*
X102956830Y-64437002D01*
X102984778Y-64431443D01*
X103013111Y-64428652D01*
X103040355Y-64420388D01*
X103068305Y-64414828D01*
X103094633Y-64403923D01*
X103121875Y-64395659D01*
X103146983Y-64382239D01*
X103173312Y-64371333D01*
X103197004Y-64355502D01*
X103222114Y-64342081D01*
X103244125Y-64324017D01*
X103267816Y-64308187D01*
X103287963Y-64288040D01*
X103309974Y-64269976D01*
X103328039Y-64247964D01*
X103348185Y-64227818D01*
X103364012Y-64204131D01*
X103365761Y-64202000D01*
X103934239Y-64202000D01*
X103935985Y-64204127D01*
X103951815Y-64227818D01*
X103971962Y-64247965D01*
X103990026Y-64269976D01*
X104012038Y-64288041D01*
X104032184Y-64308187D01*
X104055871Y-64324014D01*
X104077885Y-64342081D01*
X104103000Y-64355505D01*
X104126688Y-64371333D01*
X104153013Y-64382237D01*
X104178124Y-64395659D01*
X104205370Y-64403924D01*
X104231695Y-64414828D01*
X104259642Y-64420387D01*
X104286888Y-64428652D01*
X104315222Y-64431443D01*
X104343170Y-64437002D01*
X104371664Y-64437002D01*
X104400000Y-64439793D01*
X104428336Y-64437002D01*
X104456830Y-64437002D01*
X104484778Y-64431443D01*
X104513111Y-64428652D01*
X104540355Y-64420388D01*
X104568305Y-64414828D01*
X104594633Y-64403923D01*
X104621875Y-64395659D01*
X104646983Y-64382239D01*
X104673312Y-64371333D01*
X104697004Y-64355502D01*
X104722114Y-64342081D01*
X104744125Y-64324017D01*
X104767816Y-64308187D01*
X104787963Y-64288040D01*
X104809974Y-64269976D01*
X104828039Y-64247964D01*
X104848185Y-64227818D01*
X104864012Y-64204131D01*
X104882079Y-64182117D01*
X104895503Y-64157002D01*
X104911331Y-64133314D01*
X104922235Y-64106989D01*
X104935657Y-64081878D01*
X104943922Y-64054632D01*
X104954826Y-64028307D01*
X104960385Y-64000360D01*
X104968650Y-63973114D01*
X104971441Y-63944780D01*
X104977000Y-63916832D01*
X104977000Y-63405859D01*
X105838000Y-63405859D01*
X105838000Y-63544141D01*
X105864977Y-63679766D01*
X105917895Y-63807522D01*
X105994721Y-63922499D01*
X106092501Y-64020279D01*
X106207478Y-64097105D01*
X106335234Y-64150023D01*
X106470859Y-64177000D01*
X106609141Y-64177000D01*
X106744766Y-64150023D01*
X106872522Y-64097105D01*
X106987499Y-64020279D01*
X107085279Y-63922499D01*
X107162105Y-63807522D01*
X107215023Y-63679766D01*
X107242000Y-63544141D01*
X107242000Y-63405859D01*
X107215023Y-63270234D01*
X107162105Y-63142478D01*
X107085279Y-63027501D01*
X106987499Y-62929721D01*
X106872522Y-62852895D01*
X106744766Y-62799977D01*
X106609141Y-62773000D01*
X106470859Y-62773000D01*
X106335234Y-62799977D01*
X106207478Y-62852895D01*
X106092501Y-62929721D01*
X105994721Y-63027501D01*
X105917895Y-63142478D01*
X105864977Y-63270234D01*
X105838000Y-63405859D01*
X104977000Y-63405859D01*
X104977000Y-60003824D01*
X105800000Y-60003824D01*
X105873905Y-59996545D01*
X105944970Y-59974988D01*
X106010463Y-59939981D01*
X106067869Y-59892869D01*
X106114981Y-59835463D01*
X106149988Y-59769970D01*
X106171545Y-59698905D01*
X106178824Y-59625000D01*
X106178824Y-57627000D01*
X111365308Y-57627000D01*
X111355019Y-57639537D01*
X111320012Y-57705030D01*
X111298455Y-57776095D01*
X111291176Y-57850000D01*
X111291176Y-59550000D01*
X111298455Y-59623905D01*
X111320012Y-59694970D01*
X111355019Y-59760463D01*
X111402131Y-59817869D01*
X111443000Y-59851409D01*
X111443000Y-60643304D01*
X111432647Y-60658798D01*
X111340153Y-60882097D01*
X111293000Y-61119151D01*
X111293000Y-61360849D01*
X111340153Y-61597903D01*
X111432647Y-61821202D01*
X111443000Y-61836696D01*
X111443000Y-62825000D01*
X111445440Y-62849776D01*
X111452667Y-62873601D01*
X111464403Y-62895557D01*
X111480197Y-62914803D01*
X111499443Y-62930597D01*
X111521399Y-62942333D01*
X111545224Y-62949560D01*
X111570000Y-62952000D01*
X113998001Y-62952000D01*
X113998001Y-64658000D01*
X111570000Y-64658000D01*
X111545224Y-64660440D01*
X111521399Y-64667667D01*
X111499443Y-64679403D01*
X111480197Y-64695197D01*
X111464403Y-64714443D01*
X111452667Y-64736399D01*
X111445440Y-64760224D01*
X111443000Y-64785000D01*
X111443000Y-65723304D01*
X111432647Y-65738798D01*
X111430906Y-65743000D01*
X109158328Y-65743000D01*
X109129999Y-65740210D01*
X109101670Y-65743000D01*
X109101664Y-65743000D01*
X109016888Y-65751350D01*
X108908124Y-65784343D01*
X108807885Y-65837921D01*
X108720026Y-65910026D01*
X108701961Y-65932038D01*
X106339536Y-68294463D01*
X106317526Y-68312526D01*
X106299463Y-68334536D01*
X105701815Y-68932184D01*
X105685982Y-68955879D01*
X105667922Y-68977886D01*
X105654504Y-69002989D01*
X105638669Y-69026688D01*
X105627761Y-69053022D01*
X105614344Y-69078124D01*
X105606080Y-69105365D01*
X105595174Y-69131695D01*
X105589615Y-69159639D01*
X105581349Y-69186889D01*
X105578558Y-69215227D01*
X105573000Y-69243170D01*
X105573000Y-69271669D01*
X105570210Y-69300000D01*
X105573000Y-69328331D01*
X105573000Y-69356830D01*
X105578558Y-69384773D01*
X105581349Y-69413111D01*
X105589615Y-69440361D01*
X105595174Y-69468305D01*
X105606080Y-69494635D01*
X105614344Y-69521876D01*
X105627761Y-69546978D01*
X105638669Y-69573312D01*
X105654504Y-69597011D01*
X105667922Y-69622114D01*
X105685982Y-69644121D01*
X105701815Y-69667816D01*
X105721963Y-69687964D01*
X105740026Y-69709974D01*
X105762036Y-69728037D01*
X105782184Y-69748185D01*
X105805879Y-69764018D01*
X105827886Y-69782078D01*
X105852989Y-69795496D01*
X105876688Y-69811331D01*
X105903022Y-69822239D01*
X105928124Y-69835656D01*
X105955365Y-69843920D01*
X105981695Y-69854826D01*
X106009639Y-69860385D01*
X106036889Y-69868651D01*
X106065227Y-69871442D01*
X106093170Y-69877000D01*
X106121669Y-69877000D01*
X106150000Y-69879790D01*
X106178331Y-69877000D01*
X106206830Y-69877000D01*
X106234773Y-69871442D01*
X106263111Y-69868651D01*
X106290361Y-69860385D01*
X106318305Y-69854826D01*
X106344635Y-69843920D01*
X106371876Y-69835656D01*
X106396978Y-69822239D01*
X106423312Y-69811331D01*
X106447011Y-69795496D01*
X106472114Y-69782078D01*
X106494121Y-69764018D01*
X106517816Y-69748185D01*
X106738112Y-69527889D01*
X106742987Y-69530495D01*
X106766688Y-69546331D01*
X106793020Y-69557238D01*
X106818123Y-69570656D01*
X106845368Y-69578921D01*
X106871695Y-69589826D01*
X106899636Y-69595384D01*
X106926888Y-69603651D01*
X106955227Y-69606442D01*
X106983170Y-69612000D01*
X107011669Y-69612000D01*
X107040000Y-69614790D01*
X107068331Y-69612000D01*
X107096830Y-69612000D01*
X107124773Y-69606442D01*
X107153111Y-69603651D01*
X107180361Y-69595385D01*
X107208305Y-69589826D01*
X107234635Y-69578920D01*
X107261876Y-69570656D01*
X107286978Y-69557239D01*
X107313312Y-69546331D01*
X107337011Y-69530496D01*
X107362114Y-69517078D01*
X107384121Y-69499018D01*
X107407816Y-69483185D01*
X107427964Y-69463037D01*
X107449974Y-69444974D01*
X107468037Y-69422964D01*
X107488185Y-69402816D01*
X107504018Y-69379121D01*
X107522078Y-69357114D01*
X107535496Y-69332011D01*
X107551331Y-69308312D01*
X107562239Y-69281978D01*
X107575656Y-69256876D01*
X107583920Y-69229635D01*
X107594826Y-69203305D01*
X107600385Y-69175361D01*
X107608651Y-69148111D01*
X107611442Y-69119773D01*
X107617000Y-69091830D01*
X107617000Y-69063331D01*
X107619790Y-69035000D01*
X107617000Y-69006669D01*
X107617000Y-68978170D01*
X107611442Y-68950227D01*
X107608651Y-68921888D01*
X107600384Y-68894636D01*
X107594826Y-68866695D01*
X107583921Y-68840368D01*
X107575656Y-68813123D01*
X107562238Y-68788020D01*
X107551331Y-68761688D01*
X107535495Y-68737987D01*
X107532889Y-68733112D01*
X109369001Y-66897000D01*
X111430906Y-66897000D01*
X111432647Y-66901202D01*
X111443000Y-66916696D01*
X111443000Y-67973000D01*
X109250000Y-67973000D01*
X109207790Y-67975370D01*
X109040899Y-67994174D01*
X108958594Y-68012960D01*
X108800072Y-68068429D01*
X108724010Y-68105058D01*
X108581806Y-68194411D01*
X108515804Y-68247047D01*
X108397047Y-68365804D01*
X108344411Y-68431806D01*
X108255058Y-68574010D01*
X108218429Y-68650072D01*
X108162960Y-68808594D01*
X108144174Y-68890899D01*
X108125370Y-69057790D01*
X108123000Y-69100000D01*
X108123000Y-72446176D01*
X107750000Y-72446176D01*
X107676095Y-72453455D01*
X107605030Y-72475012D01*
X107539537Y-72510019D01*
X107482131Y-72557131D01*
X107435019Y-72614537D01*
X107400012Y-72680030D01*
X107378455Y-72751095D01*
X107371176Y-72825000D01*
X107371176Y-74575000D01*
X107378455Y-74648905D01*
X107400012Y-74719970D01*
X107435019Y-74785463D01*
X107482131Y-74842869D01*
X107539537Y-74889981D01*
X107605030Y-74924988D01*
X107676095Y-74946545D01*
X107750000Y-74953824D01*
X109500000Y-74953824D01*
X109573905Y-74946545D01*
X109644970Y-74924988D01*
X109710463Y-74889981D01*
X109767869Y-74842869D01*
X109814981Y-74785463D01*
X109849988Y-74719970D01*
X109871545Y-74648905D01*
X109878824Y-74575000D01*
X109878824Y-74171134D01*
X109897941Y-74138022D01*
X109954135Y-74002358D01*
X109979608Y-73907295D01*
X109998775Y-73761709D01*
X110002000Y-73712500D01*
X110002000Y-70221176D01*
X110013678Y-70117528D01*
X110041087Y-70039199D01*
X110085244Y-69968923D01*
X110143923Y-69910244D01*
X110214199Y-69866087D01*
X110292528Y-69838678D01*
X110396176Y-69827000D01*
X111443000Y-69827000D01*
X111443000Y-70803304D01*
X111432647Y-70818798D01*
X111340153Y-71042097D01*
X111293000Y-71279151D01*
X111293000Y-71520849D01*
X111340153Y-71757903D01*
X111414543Y-71937496D01*
X110678822Y-72673218D01*
X110662013Y-72687013D01*
X110606966Y-72754088D01*
X110566062Y-72830613D01*
X110540874Y-72913648D01*
X110534500Y-72978365D01*
X110534500Y-72978371D01*
X110532370Y-73000000D01*
X110534500Y-73021629D01*
X110534501Y-74892538D01*
X108692540Y-76734500D01*
X106975501Y-76734500D01*
X106967816Y-76726815D01*
X106873312Y-76663669D01*
X106768305Y-76620174D01*
X106656830Y-76598000D01*
X106543170Y-76598000D01*
X106431695Y-76620174D01*
X106326688Y-76663669D01*
X106232184Y-76726815D01*
X106151815Y-76807184D01*
X106088669Y-76901688D01*
X106045174Y-77006695D01*
X106023000Y-77118170D01*
X106023000Y-77231830D01*
X106045174Y-77343305D01*
X106088669Y-77448312D01*
X106151815Y-77542816D01*
X106232184Y-77623185D01*
X106326688Y-77686331D01*
X106431695Y-77729826D01*
X106543170Y-77752000D01*
X106656830Y-77752000D01*
X106768305Y-77729826D01*
X106873312Y-77686331D01*
X106967816Y-77623185D01*
X106975501Y-77615500D01*
X108853371Y-77615500D01*
X108875000Y-77617630D01*
X108896629Y-77615500D01*
X108896636Y-77615500D01*
X108961353Y-77609126D01*
X109044388Y-77583938D01*
X109120913Y-77543034D01*
X109187987Y-77487987D01*
X109201782Y-77471178D01*
X111271184Y-75401777D01*
X111287987Y-75387987D01*
X111343034Y-75320913D01*
X111383938Y-75244388D01*
X111409126Y-75161353D01*
X111415500Y-75096636D01*
X111415500Y-75096627D01*
X111417630Y-75075001D01*
X111415500Y-75053375D01*
X111415500Y-74479806D01*
X111432647Y-74521202D01*
X111443000Y-74536696D01*
X111443000Y-75525000D01*
X111445440Y-75549776D01*
X111452667Y-75573601D01*
X111464403Y-75595557D01*
X111480197Y-75614803D01*
X111499443Y-75630597D01*
X111521399Y-75642333D01*
X111545224Y-75649560D01*
X111570000Y-75652000D01*
X113998001Y-75652000D01*
X113998001Y-77358000D01*
X111570000Y-77358000D01*
X111545224Y-77360440D01*
X111521399Y-77367667D01*
X111499443Y-77379403D01*
X111480197Y-77395197D01*
X111464403Y-77414443D01*
X111452667Y-77436399D01*
X111445440Y-77460224D01*
X111443000Y-77485000D01*
X111443000Y-78423304D01*
X111432647Y-78438798D01*
X111340153Y-78662097D01*
X111293000Y-78899151D01*
X111293000Y-79140849D01*
X111340153Y-79377903D01*
X111432647Y-79601202D01*
X111443000Y-79616696D01*
X111443000Y-80963304D01*
X111432647Y-80978798D01*
X111340153Y-81202097D01*
X111293000Y-81439151D01*
X111293000Y-81680849D01*
X111340153Y-81917903D01*
X111432647Y-82141202D01*
X111443000Y-82156696D01*
X111443000Y-83503304D01*
X111432647Y-83518798D01*
X111340153Y-83742097D01*
X111293000Y-83979151D01*
X111293000Y-83992776D01*
X111049296Y-84236481D01*
X111032042Y-84250641D01*
X110992511Y-84298810D01*
X110975558Y-84319467D01*
X110933586Y-84397991D01*
X110907740Y-84483193D01*
X110899013Y-84571800D01*
X110901201Y-84594015D01*
X110901200Y-85634576D01*
X109021096Y-87514681D01*
X109003842Y-87528841D01*
X108951128Y-87593073D01*
X108947358Y-87597667D01*
X108905386Y-87676191D01*
X108879540Y-87761393D01*
X108870813Y-87850000D01*
X108873001Y-87872215D01*
X108873000Y-90312775D01*
X107637777Y-91548000D01*
X107533321Y-91548000D01*
X107402526Y-91574016D01*
X107279320Y-91625050D01*
X107168437Y-91699140D01*
X107074140Y-91793437D01*
X107000050Y-91904320D01*
X106949016Y-92027526D01*
X106923000Y-92158321D01*
X106923000Y-92291679D01*
X106949016Y-92422474D01*
X107000050Y-92545680D01*
X107074140Y-92656563D01*
X107168437Y-92750860D01*
X107279320Y-92824950D01*
X107402526Y-92875984D01*
X107533321Y-92902000D01*
X107666679Y-92902000D01*
X107797474Y-92875984D01*
X107920680Y-92824950D01*
X108031563Y-92750860D01*
X108125860Y-92656563D01*
X108199950Y-92545680D01*
X108250984Y-92422474D01*
X108277000Y-92291679D01*
X108277000Y-92187223D01*
X109628912Y-90835313D01*
X109646159Y-90821159D01*
X109702643Y-90752333D01*
X109744614Y-90673810D01*
X109766358Y-90602131D01*
X109770460Y-90588608D01*
X109779187Y-90500001D01*
X109777000Y-90477796D01*
X109777000Y-88037223D01*
X111293000Y-86521224D01*
X111293000Y-86760849D01*
X111340153Y-86997903D01*
X111432647Y-87221202D01*
X111443000Y-87236696D01*
X111443000Y-88225000D01*
X111445440Y-88249776D01*
X111452667Y-88273601D01*
X111464403Y-88295557D01*
X111480197Y-88314803D01*
X111499443Y-88330597D01*
X111521399Y-88342333D01*
X111545224Y-88349560D01*
X111570000Y-88352000D01*
X113998000Y-88352000D01*
X113998000Y-90058000D01*
X111570000Y-90058000D01*
X111545224Y-90060440D01*
X111521399Y-90067667D01*
X111499443Y-90079403D01*
X111480197Y-90095197D01*
X111464403Y-90114443D01*
X111452667Y-90136399D01*
X111445440Y-90160224D01*
X111443000Y-90185000D01*
X111443000Y-91123304D01*
X111432647Y-91138798D01*
X111340153Y-91362097D01*
X111293000Y-91599151D01*
X111293000Y-91840849D01*
X111340153Y-92077903D01*
X111432647Y-92301202D01*
X111443000Y-92316696D01*
X111443000Y-93663304D01*
X111432647Y-93678798D01*
X111340153Y-93902097D01*
X111293000Y-94139151D01*
X111293000Y-94380849D01*
X111340153Y-94617903D01*
X111432647Y-94841202D01*
X111443000Y-94856696D01*
X111443000Y-96203304D01*
X111432647Y-96218798D01*
X111340153Y-96442097D01*
X111293000Y-96679151D01*
X111293000Y-96920849D01*
X111340153Y-97157903D01*
X111432647Y-97381202D01*
X111443000Y-97396696D01*
X111443000Y-98743304D01*
X111432647Y-98758798D01*
X111340153Y-98982097D01*
X111293000Y-99219151D01*
X111293000Y-99460849D01*
X111340153Y-99697903D01*
X111432647Y-99921202D01*
X111443000Y-99936696D01*
X111443000Y-100925000D01*
X111445440Y-100949776D01*
X111452667Y-100973601D01*
X111464403Y-100995557D01*
X111480197Y-101014803D01*
X111499443Y-101030597D01*
X111521399Y-101042333D01*
X111545224Y-101049560D01*
X111570000Y-101052000D01*
X113998000Y-101052000D01*
X113998000Y-102758000D01*
X111570000Y-102758000D01*
X111545224Y-102760440D01*
X111521399Y-102767667D01*
X111499443Y-102779403D01*
X111480197Y-102795197D01*
X111464403Y-102814443D01*
X111452667Y-102836399D01*
X111445440Y-102860224D01*
X111443000Y-102885000D01*
X111443000Y-103823304D01*
X111432647Y-103838798D01*
X111340153Y-104062097D01*
X111293000Y-104299151D01*
X111293000Y-104540849D01*
X111340153Y-104777903D01*
X111432647Y-105001202D01*
X111443000Y-105016696D01*
X111443000Y-106363304D01*
X111432647Y-106378798D01*
X111340153Y-106602097D01*
X111293000Y-106839151D01*
X111293000Y-107080849D01*
X111340153Y-107317903D01*
X111432647Y-107541202D01*
X111443000Y-107556696D01*
X111443000Y-108123000D01*
X106320958Y-108123000D01*
X106537903Y-108079847D01*
X106761202Y-107987353D01*
X106962167Y-107853073D01*
X107133073Y-107682167D01*
X107267353Y-107481202D01*
X107359847Y-107257903D01*
X107407000Y-107020849D01*
X107407000Y-106779151D01*
X107359847Y-106542097D01*
X107267353Y-106318798D01*
X107133073Y-106117833D01*
X106962167Y-105946927D01*
X106761202Y-105812647D01*
X106537903Y-105720153D01*
X106300849Y-105673000D01*
X106059151Y-105673000D01*
X105822097Y-105720153D01*
X105598798Y-105812647D01*
X105397833Y-105946927D01*
X105226927Y-106117833D01*
X105092647Y-106318798D01*
X105000153Y-106542097D01*
X104953000Y-106779151D01*
X104953000Y-107020849D01*
X105000153Y-107257903D01*
X105092647Y-107481202D01*
X105226927Y-107682167D01*
X105397833Y-107853073D01*
X105598798Y-107987353D01*
X105822097Y-108079847D01*
X106039042Y-108123000D01*
X101240958Y-108123000D01*
X101457903Y-108079847D01*
X101681202Y-107987353D01*
X101882167Y-107853073D01*
X102053073Y-107682167D01*
X102187353Y-107481202D01*
X102279847Y-107257903D01*
X102327000Y-107020849D01*
X102327000Y-106779151D01*
X102279847Y-106542097D01*
X102187353Y-106318798D01*
X102053073Y-106117833D01*
X101882167Y-105946927D01*
X101681202Y-105812647D01*
X101457903Y-105720153D01*
X101220849Y-105673000D01*
X100979151Y-105673000D01*
X100742097Y-105720153D01*
X100518798Y-105812647D01*
X100317833Y-105946927D01*
X100146927Y-106117833D01*
X100012647Y-106318798D01*
X99920153Y-106542097D01*
X99873000Y-106779151D01*
X99873000Y-107020849D01*
X99920153Y-107257903D01*
X100012647Y-107481202D01*
X100146927Y-107682167D01*
X100317833Y-107853073D01*
X100518798Y-107987353D01*
X100742097Y-108079847D01*
X100959042Y-108123000D01*
X95857000Y-108123000D01*
X95857000Y-107313060D01*
X95879847Y-107257903D01*
X95927000Y-107020849D01*
X95927000Y-106779151D01*
X95879847Y-106542097D01*
X95857000Y-106486940D01*
X95857000Y-104773060D01*
X95879847Y-104717903D01*
X95927000Y-104480849D01*
X95927000Y-104239151D01*
X95879847Y-104002097D01*
X95857000Y-103946940D01*
X95857000Y-102885000D01*
X95854560Y-102860224D01*
X95847333Y-102836399D01*
X95835597Y-102814443D01*
X95819803Y-102795197D01*
X95800557Y-102779403D01*
X95778601Y-102767667D01*
X95754776Y-102760440D01*
X95730000Y-102758000D01*
X93302000Y-102758000D01*
X93302000Y-101052000D01*
X95730000Y-101052000D01*
X95754776Y-101049560D01*
X95778601Y-101042333D01*
X95800557Y-101030597D01*
X95819803Y-101014803D01*
X95835597Y-100995557D01*
X95847333Y-100973601D01*
X95854560Y-100949776D01*
X95857000Y-100925000D01*
X95857000Y-99693060D01*
X95879847Y-99637903D01*
X95927000Y-99400849D01*
X95927000Y-99159151D01*
X95879847Y-98922097D01*
X95857000Y-98866940D01*
X95857000Y-97153060D01*
X95879847Y-97097903D01*
X95927000Y-96860849D01*
X95927000Y-96619151D01*
X95879847Y-96382097D01*
X95857000Y-96326940D01*
X95857000Y-94613060D01*
X95879847Y-94557903D01*
X95927000Y-94320849D01*
X95927000Y-94079151D01*
X95879847Y-93842097D01*
X95857000Y-93786940D01*
X95857000Y-92073060D01*
X95879847Y-92017903D01*
X95927000Y-91780849D01*
X95927000Y-91539151D01*
X95879847Y-91302097D01*
X95857000Y-91246940D01*
X95857000Y-90185000D01*
X95854560Y-90160224D01*
X95847333Y-90136399D01*
X95835597Y-90114443D01*
X95819803Y-90095197D01*
X95800557Y-90079403D01*
X95778601Y-90067667D01*
X95754776Y-90060440D01*
X95730000Y-90058000D01*
X93302000Y-90058000D01*
X93302000Y-88352000D01*
X95730000Y-88352000D01*
X95754776Y-88349560D01*
X95778601Y-88342333D01*
X95800557Y-88330597D01*
X95819803Y-88314803D01*
X95835597Y-88295557D01*
X95847333Y-88273601D01*
X95854560Y-88249776D01*
X95857000Y-88225000D01*
X95857000Y-88125000D01*
X103589726Y-88125000D01*
X103593000Y-88158245D01*
X103593000Y-88191679D01*
X103599522Y-88224467D01*
X103602796Y-88257714D01*
X103607270Y-88272462D01*
X103607269Y-90813598D01*
X103607269Y-90946956D01*
X103613790Y-90979742D01*
X103617065Y-91012991D01*
X103626762Y-91044959D01*
X103633285Y-91077751D01*
X103646081Y-91108643D01*
X103655777Y-91140606D01*
X103671523Y-91170065D01*
X103684319Y-91200957D01*
X103702894Y-91228757D01*
X103718641Y-91258217D01*
X103739834Y-91284040D01*
X103758409Y-91311840D01*
X103782052Y-91335483D01*
X103803242Y-91361303D01*
X103829064Y-91382495D01*
X103852706Y-91406137D01*
X103880502Y-91424710D01*
X103906328Y-91445905D01*
X103935793Y-91461654D01*
X103963589Y-91480227D01*
X103994477Y-91493021D01*
X104023939Y-91508769D01*
X104055905Y-91518466D01*
X104086795Y-91531261D01*
X104119584Y-91537783D01*
X104151554Y-91547481D01*
X104184805Y-91550756D01*
X104217590Y-91557277D01*
X104251017Y-91557277D01*
X104284269Y-91560552D01*
X104317521Y-91557277D01*
X104350948Y-91557277D01*
X104383734Y-91550756D01*
X104416983Y-91547481D01*
X104448951Y-91537784D01*
X104481743Y-91531261D01*
X104512635Y-91518465D01*
X104544598Y-91508769D01*
X104574057Y-91493023D01*
X104604949Y-91480227D01*
X104632749Y-91461652D01*
X104662209Y-91445905D01*
X104688032Y-91424712D01*
X104715832Y-91406137D01*
X104739475Y-91382494D01*
X104765295Y-91361304D01*
X104786487Y-91335482D01*
X104810129Y-91311840D01*
X104828702Y-91284044D01*
X104849897Y-91258218D01*
X104865646Y-91228753D01*
X104884219Y-91200957D01*
X104897013Y-91170069D01*
X104912761Y-91140607D01*
X104922458Y-91108641D01*
X104935253Y-91077751D01*
X104941775Y-91044962D01*
X104951473Y-91012992D01*
X104954748Y-90979741D01*
X104961269Y-90946956D01*
X104961269Y-88172510D01*
X104964543Y-88139268D01*
X104961269Y-88106026D01*
X104961269Y-88106017D01*
X104951473Y-88006554D01*
X104912761Y-87878939D01*
X104849897Y-87761328D01*
X104803221Y-87704453D01*
X104795860Y-87693437D01*
X104786491Y-87684068D01*
X104765296Y-87658242D01*
X104739470Y-87637047D01*
X104701563Y-87599140D01*
X104673764Y-87580565D01*
X104647940Y-87559372D01*
X104618480Y-87543625D01*
X104590680Y-87525050D01*
X104559788Y-87512254D01*
X104530329Y-87496508D01*
X104498366Y-87486812D01*
X104467474Y-87474016D01*
X104434682Y-87467493D01*
X104402714Y-87457796D01*
X104369467Y-87454522D01*
X104336679Y-87448000D01*
X104303245Y-87448000D01*
X104270000Y-87444726D01*
X104236755Y-87448000D01*
X104203321Y-87448000D01*
X104170533Y-87454522D01*
X104137286Y-87457796D01*
X104105318Y-87467493D01*
X104072526Y-87474016D01*
X104041634Y-87486812D01*
X104009671Y-87496508D01*
X103980212Y-87512254D01*
X103949320Y-87525050D01*
X103921520Y-87543625D01*
X103892060Y-87559372D01*
X103866235Y-87580566D01*
X103838437Y-87599140D01*
X103814798Y-87622779D01*
X103788973Y-87643973D01*
X103767779Y-87669798D01*
X103744140Y-87693437D01*
X103725566Y-87721235D01*
X103704372Y-87747060D01*
X103688625Y-87776520D01*
X103670050Y-87804320D01*
X103657254Y-87835212D01*
X103641508Y-87864671D01*
X103631812Y-87896634D01*
X103619016Y-87927526D01*
X103612493Y-87960318D01*
X103602796Y-87992286D01*
X103599522Y-88025533D01*
X103593000Y-88058321D01*
X103593000Y-88091755D01*
X103589726Y-88125000D01*
X95857000Y-88125000D01*
X95857000Y-86993060D01*
X95879847Y-86937903D01*
X95927000Y-86700849D01*
X95927000Y-86459151D01*
X95879847Y-86222097D01*
X95857000Y-86166940D01*
X95857000Y-84453060D01*
X95879847Y-84397903D01*
X95927000Y-84160849D01*
X95927000Y-83919151D01*
X95879847Y-83682097D01*
X95857000Y-83626940D01*
X95857000Y-81913060D01*
X95879847Y-81857903D01*
X95927000Y-81620849D01*
X95927000Y-81379151D01*
X95879847Y-81142097D01*
X95857000Y-81086940D01*
X95857000Y-79871224D01*
X96248000Y-80262225D01*
X96248001Y-84829576D01*
X96174140Y-84903437D01*
X96100050Y-85014320D01*
X96049016Y-85137526D01*
X96023000Y-85268321D01*
X96023000Y-85401679D01*
X96049016Y-85532474D01*
X96100050Y-85655680D01*
X96174140Y-85766563D01*
X96268437Y-85860860D01*
X96379320Y-85934950D01*
X96502526Y-85985984D01*
X96633321Y-86012000D01*
X96766679Y-86012000D01*
X96897474Y-85985984D01*
X97020680Y-85934950D01*
X97131563Y-85860860D01*
X97150857Y-85841566D01*
X97165954Y-85917467D01*
X97216988Y-86040673D01*
X97291078Y-86151556D01*
X97385375Y-86245853D01*
X97496258Y-86319943D01*
X97619464Y-86370977D01*
X97750259Y-86396993D01*
X97883617Y-86396993D01*
X98014412Y-86370977D01*
X98137618Y-86319943D01*
X98248501Y-86245853D01*
X98342798Y-86151556D01*
X98416888Y-86040673D01*
X98458975Y-85939067D01*
X98477605Y-85939067D01*
X98608400Y-85913051D01*
X98731606Y-85862017D01*
X98842489Y-85787927D01*
X98936786Y-85693630D01*
X99010876Y-85582747D01*
X99061910Y-85459541D01*
X99087926Y-85328746D01*
X99087926Y-85195388D01*
X99062978Y-85069960D01*
X99091563Y-85050860D01*
X99185860Y-84956563D01*
X99259950Y-84845680D01*
X99310984Y-84722474D01*
X99337000Y-84591679D01*
X99337000Y-84490074D01*
X99338359Y-84488959D01*
X99394843Y-84420133D01*
X99436814Y-84341610D01*
X99443531Y-84319467D01*
X99462660Y-84256408D01*
X99471387Y-84167801D01*
X99469200Y-84145596D01*
X99469200Y-84050000D01*
X99546176Y-84050000D01*
X99546176Y-85800000D01*
X99553455Y-85873905D01*
X99575012Y-85944970D01*
X99610019Y-86010463D01*
X99657131Y-86067869D01*
X99714537Y-86114981D01*
X99780030Y-86149988D01*
X99851095Y-86171545D01*
X99925000Y-86178824D01*
X101675000Y-86178824D01*
X101748905Y-86171545D01*
X101819970Y-86149988D01*
X101885463Y-86114981D01*
X101942869Y-86067869D01*
X101989981Y-86010463D01*
X102024988Y-85944970D01*
X102046545Y-85873905D01*
X102053824Y-85800000D01*
X102053824Y-84050000D01*
X102046545Y-83976095D01*
X102024988Y-83905030D01*
X101989981Y-83839537D01*
X101942869Y-83782131D01*
X101885463Y-83735019D01*
X101819970Y-83700012D01*
X101748905Y-83678455D01*
X101702400Y-83673875D01*
X101702400Y-81459811D01*
X102760014Y-81459811D01*
X102776945Y-81592090D01*
X102819357Y-81718523D01*
X102869017Y-81805257D01*
X104486006Y-84078993D01*
X104495041Y-84096376D01*
X104497508Y-84099454D01*
X104499372Y-84102941D01*
X104520568Y-84128769D01*
X104539140Y-84156563D01*
X104560006Y-84177429D01*
X104578444Y-84200433D01*
X104581466Y-84202972D01*
X104583973Y-84206027D01*
X104591655Y-84212331D01*
X104598185Y-84219832D01*
X104616796Y-84234219D01*
X104633437Y-84250860D01*
X104657976Y-84267257D01*
X104680546Y-84286220D01*
X104684001Y-84288119D01*
X104687059Y-84290628D01*
X104695832Y-84295317D01*
X104703693Y-84301394D01*
X104724744Y-84311870D01*
X104744320Y-84324950D01*
X104771587Y-84336245D01*
X104797422Y-84350440D01*
X104801185Y-84351629D01*
X104804670Y-84353492D01*
X104814184Y-84356378D01*
X104823084Y-84360807D01*
X104845776Y-84366975D01*
X104867526Y-84375984D01*
X104896475Y-84381742D01*
X104924581Y-84390624D01*
X104928500Y-84391056D01*
X104932285Y-84392204D01*
X104942184Y-84393179D01*
X104951772Y-84395785D01*
X104975232Y-84397408D01*
X104998321Y-84402000D01*
X105027830Y-84402000D01*
X105057136Y-84405229D01*
X105070964Y-84404028D01*
X105084811Y-84404986D01*
X105108140Y-84402000D01*
X105346176Y-84402000D01*
X105346176Y-84575000D01*
X105353455Y-84648905D01*
X105375012Y-84719970D01*
X105410019Y-84785463D01*
X105457131Y-84842869D01*
X105514537Y-84889981D01*
X105580030Y-84924988D01*
X105651095Y-84946545D01*
X105725000Y-84953824D01*
X107475000Y-84953824D01*
X107548905Y-84946545D01*
X107619970Y-84924988D01*
X107685463Y-84889981D01*
X107742869Y-84842869D01*
X107789981Y-84785463D01*
X107824988Y-84719970D01*
X107846545Y-84648905D01*
X107853824Y-84575000D01*
X107853824Y-82825000D01*
X107846545Y-82751095D01*
X107824988Y-82680030D01*
X107789981Y-82614537D01*
X107742869Y-82557131D01*
X107685463Y-82510019D01*
X107619970Y-82475012D01*
X107548905Y-82453455D01*
X107475000Y-82446176D01*
X106026680Y-82446176D01*
X106119284Y-82007208D01*
X106130229Y-81907865D01*
X106118693Y-81775007D01*
X106081459Y-81646953D01*
X106019959Y-81528624D01*
X105936556Y-81424566D01*
X105834454Y-81338779D01*
X105717578Y-81274559D01*
X105590419Y-81234375D01*
X105457864Y-81219770D01*
X105325007Y-81231307D01*
X105196952Y-81268540D01*
X105078623Y-81330041D01*
X104974567Y-81413444D01*
X104888780Y-81515546D01*
X104824560Y-81632422D01*
X104794444Y-81727721D01*
X104721444Y-82073760D01*
X103972440Y-81020547D01*
X103906813Y-80945168D01*
X103801306Y-80863605D01*
X103681915Y-80804193D01*
X103553227Y-80769215D01*
X103420189Y-80760014D01*
X103287910Y-80776945D01*
X103161477Y-80819357D01*
X103045747Y-80885619D01*
X102945168Y-80973187D01*
X102863605Y-81078694D01*
X102804193Y-81198085D01*
X102769215Y-81326773D01*
X102760014Y-81459811D01*
X101702400Y-81459811D01*
X101702400Y-76668170D01*
X101696841Y-76640222D01*
X101694050Y-76611888D01*
X101685785Y-76584642D01*
X101680226Y-76556695D01*
X101669322Y-76530370D01*
X101661057Y-76503124D01*
X101647635Y-76478013D01*
X101636731Y-76451688D01*
X101620903Y-76428000D01*
X101607479Y-76402885D01*
X101589412Y-76380871D01*
X101573585Y-76357184D01*
X101553439Y-76337038D01*
X101535374Y-76315026D01*
X101513362Y-76296961D01*
X101493216Y-76276815D01*
X101469529Y-76260988D01*
X101447515Y-76242921D01*
X101422400Y-76229497D01*
X101398712Y-76213669D01*
X101372387Y-76202765D01*
X101347276Y-76189343D01*
X101320030Y-76181078D01*
X101293705Y-76170174D01*
X101265758Y-76164615D01*
X101238512Y-76156350D01*
X101210178Y-76153559D01*
X101182230Y-76148000D01*
X101153736Y-76148000D01*
X101125400Y-76145209D01*
X101097064Y-76148000D01*
X101068570Y-76148000D01*
X101040622Y-76153559D01*
X101012289Y-76156350D01*
X100985045Y-76164614D01*
X100957095Y-76170174D01*
X100930767Y-76181079D01*
X100903525Y-76189343D01*
X100878417Y-76202763D01*
X100852088Y-76213669D01*
X100828396Y-76229500D01*
X100803286Y-76242921D01*
X100781276Y-76260984D01*
X100757584Y-76276815D01*
X100737434Y-76296965D01*
X100715427Y-76315026D01*
X100697366Y-76337033D01*
X100677215Y-76357184D01*
X100661384Y-76380877D01*
X100643322Y-76402885D01*
X100629902Y-76427992D01*
X100614069Y-76451688D01*
X100603162Y-76478021D01*
X100589744Y-76503124D01*
X100581482Y-76530361D01*
X100570574Y-76556695D01*
X100565013Y-76584652D01*
X100556751Y-76611888D01*
X100553961Y-76640212D01*
X100548400Y-76668170D01*
X100548400Y-76781830D01*
X100548401Y-76781835D01*
X100548400Y-83433170D01*
X100548400Y-83671176D01*
X99925000Y-83671176D01*
X99851095Y-83678455D01*
X99780030Y-83700012D01*
X99714537Y-83735019D01*
X99657131Y-83782131D01*
X99610019Y-83839537D01*
X99575012Y-83905030D01*
X99553455Y-83976095D01*
X99546176Y-84050000D01*
X99469200Y-84050000D01*
X99469200Y-83010199D01*
X99482184Y-83023183D01*
X99576688Y-83086329D01*
X99681695Y-83129824D01*
X99793170Y-83151998D01*
X99906830Y-83151998D01*
X100018305Y-83129824D01*
X100123312Y-83086329D01*
X100217816Y-83023183D01*
X100298185Y-82942814D01*
X100361331Y-82848310D01*
X100404826Y-82743303D01*
X100427000Y-82631828D01*
X100427000Y-82518168D01*
X100404826Y-82406693D01*
X100361331Y-82301686D01*
X100298185Y-82207182D01*
X100217816Y-82126813D01*
X100123312Y-82063667D01*
X100018305Y-82020172D01*
X99913563Y-81999337D01*
X99877000Y-81962775D01*
X99877000Y-80847204D01*
X99879187Y-80824999D01*
X99870460Y-80736392D01*
X99844614Y-80651190D01*
X99820955Y-80606927D01*
X99802643Y-80572667D01*
X99746159Y-80503841D01*
X99728912Y-80489687D01*
X98102000Y-78862777D01*
X98102000Y-78616702D01*
X98175322Y-78586331D01*
X98269826Y-78523185D01*
X98350195Y-78442816D01*
X98413341Y-78348312D01*
X98456836Y-78243305D01*
X98479010Y-78131830D01*
X98479010Y-78018170D01*
X98456836Y-77906695D01*
X98413341Y-77801688D01*
X98350195Y-77707184D01*
X98269826Y-77626815D01*
X98175322Y-77563669D01*
X98070315Y-77520174D01*
X98034645Y-77513079D01*
X99321105Y-76226619D01*
X99338359Y-76212459D01*
X99394843Y-76143633D01*
X99436814Y-76065110D01*
X99447774Y-76028981D01*
X99462660Y-75979908D01*
X99471387Y-75891300D01*
X99469200Y-75869095D01*
X99469200Y-72344405D01*
X99471387Y-72322200D01*
X99462660Y-72233592D01*
X99436814Y-72148390D01*
X99394843Y-72069867D01*
X99338359Y-72001041D01*
X99321106Y-71986882D01*
X96377392Y-69043168D01*
X100223000Y-69043168D01*
X100223000Y-69156828D01*
X100245174Y-69268303D01*
X100288669Y-69373310D01*
X100351815Y-69467814D01*
X100359500Y-69475499D01*
X100359501Y-73583361D01*
X100357370Y-73605000D01*
X100365874Y-73691352D01*
X100391062Y-73774387D01*
X100431966Y-73850912D01*
X100431967Y-73850913D01*
X100487014Y-73917987D01*
X100503817Y-73931777D01*
X103119500Y-76547461D01*
X103119501Y-77673362D01*
X103117370Y-77695000D01*
X103125874Y-77781352D01*
X103151062Y-77864387D01*
X103191966Y-77940912D01*
X103214958Y-77968927D01*
X103247014Y-78007987D01*
X103263817Y-78021777D01*
X104138222Y-78896183D01*
X104152013Y-78912987D01*
X104168816Y-78926777D01*
X104168818Y-78926779D01*
X104184683Y-78939799D01*
X104219087Y-78968034D01*
X104295612Y-79008938D01*
X104378647Y-79034126D01*
X104443364Y-79040500D01*
X104443373Y-79040500D01*
X104464999Y-79042630D01*
X104486625Y-79040500D01*
X106374859Y-79040500D01*
X107934500Y-81198517D01*
X107934501Y-85774498D01*
X107926815Y-85782184D01*
X107863669Y-85876688D01*
X107820174Y-85981695D01*
X107798000Y-86093170D01*
X107798000Y-86206830D01*
X107820174Y-86318305D01*
X107863669Y-86423312D01*
X107926815Y-86517816D01*
X108007184Y-86598185D01*
X108101688Y-86661331D01*
X108206695Y-86704826D01*
X108318170Y-86727000D01*
X108431830Y-86727000D01*
X108543305Y-86704826D01*
X108648312Y-86661331D01*
X108742816Y-86598185D01*
X108823185Y-86517816D01*
X108886331Y-86423312D01*
X108929826Y-86318305D01*
X108952000Y-86206830D01*
X108952000Y-86093170D01*
X108929826Y-85981695D01*
X108886331Y-85876688D01*
X108823185Y-85782184D01*
X108815500Y-85774499D01*
X108815500Y-81069505D01*
X108817331Y-81039731D01*
X108812586Y-81004776D01*
X108809126Y-80969647D01*
X108806757Y-80961837D01*
X108805659Y-80953749D01*
X108794183Y-80920387D01*
X108783938Y-80886612D01*
X108780088Y-80879410D01*
X108777435Y-80871696D01*
X108759673Y-80841216D01*
X108743034Y-80810087D01*
X108724100Y-80787016D01*
X106974455Y-78366100D01*
X106968034Y-78354087D01*
X106949096Y-78331011D01*
X106944346Y-78324439D01*
X106935376Y-78314293D01*
X106912987Y-78287013D01*
X106906678Y-78281835D01*
X106901272Y-78275721D01*
X106873196Y-78254357D01*
X106845913Y-78231966D01*
X106838713Y-78228117D01*
X106832219Y-78223176D01*
X106800522Y-78207704D01*
X106769388Y-78191062D01*
X106761572Y-78188691D01*
X106754242Y-78185113D01*
X106720138Y-78176122D01*
X106686353Y-78165874D01*
X106678227Y-78165074D01*
X106670338Y-78162994D01*
X106635135Y-78160830D01*
X106621636Y-78159500D01*
X106613511Y-78159500D01*
X106583732Y-78157669D01*
X106570244Y-78159500D01*
X104647461Y-78159500D01*
X104000500Y-77512540D01*
X104000500Y-76386625D01*
X104002630Y-76364999D01*
X104000500Y-76343373D01*
X104000500Y-76343364D01*
X103994126Y-76278647D01*
X103968938Y-76195612D01*
X103928034Y-76119087D01*
X103872987Y-76052013D01*
X103856185Y-76038224D01*
X101240500Y-73422540D01*
X101240500Y-69475499D01*
X101248185Y-69467814D01*
X101311331Y-69373310D01*
X101354826Y-69268303D01*
X101377000Y-69156828D01*
X101377000Y-69043168D01*
X101354826Y-68931693D01*
X101311331Y-68826686D01*
X101248185Y-68732182D01*
X101167816Y-68651813D01*
X101073312Y-68588667D01*
X100968305Y-68545172D01*
X100856830Y-68522998D01*
X100743170Y-68522998D01*
X100631695Y-68545172D01*
X100526688Y-68588667D01*
X100432184Y-68651813D01*
X100351815Y-68732182D01*
X100288669Y-68826686D01*
X100245174Y-68931693D01*
X100223000Y-69043168D01*
X96377392Y-69043168D01*
X95915323Y-68581100D01*
X95904993Y-68568512D01*
X95879847Y-68442097D01*
X95857000Y-68386940D01*
X95857000Y-66673060D01*
X95879847Y-66617903D01*
X95927000Y-66380849D01*
X95927000Y-66139151D01*
X95879847Y-65902097D01*
X95857000Y-65846940D01*
X95857000Y-64785000D01*
X95854560Y-64760224D01*
X95847333Y-64736399D01*
X95835597Y-64714443D01*
X95819803Y-64695197D01*
X95800557Y-64679403D01*
X95778601Y-64667667D01*
X95754776Y-64660440D01*
X95730000Y-64658000D01*
X93302000Y-64658000D01*
X93302000Y-63405859D01*
X100058000Y-63405859D01*
X100058000Y-63544141D01*
X100084977Y-63679766D01*
X100137895Y-63807522D01*
X100214721Y-63922499D01*
X100312501Y-64020279D01*
X100427478Y-64097105D01*
X100555234Y-64150023D01*
X100690859Y-64177000D01*
X100829141Y-64177000D01*
X100964766Y-64150023D01*
X101092522Y-64097105D01*
X101207499Y-64020279D01*
X101305279Y-63922499D01*
X101382105Y-63807522D01*
X101435023Y-63679766D01*
X101462000Y-63544141D01*
X101462000Y-63405859D01*
X101435023Y-63270234D01*
X101382105Y-63142478D01*
X101305279Y-63027501D01*
X101207499Y-62929721D01*
X101092522Y-62852895D01*
X100964766Y-62799977D01*
X100829141Y-62773000D01*
X100690859Y-62773000D01*
X100555234Y-62799977D01*
X100427478Y-62852895D01*
X100312501Y-62929721D01*
X100214721Y-63027501D01*
X100137895Y-63142478D01*
X100084977Y-63270234D01*
X100058000Y-63405859D01*
X93302000Y-63405859D01*
X93302000Y-62952000D01*
X95730000Y-62952000D01*
X95754776Y-62949560D01*
X95778601Y-62942333D01*
X95800557Y-62930597D01*
X95819803Y-62914803D01*
X95835597Y-62895557D01*
X95847333Y-62873601D01*
X95854560Y-62849776D01*
X95857000Y-62825000D01*
X95857000Y-61593060D01*
X95879847Y-61537903D01*
X95927000Y-61300849D01*
X95927000Y-61059151D01*
X95879847Y-60822097D01*
X95857000Y-60766940D01*
X95857000Y-59053060D01*
X95879847Y-58997903D01*
X95927000Y-58760849D01*
X95927000Y-58519151D01*
X95879847Y-58282097D01*
X95857000Y-58226940D01*
X95857000Y-57627000D01*
X101121176Y-57627000D01*
X101121176Y-59625000D01*
G37*
G04 #@! TD.AperFunction*
D29*
X97965178Y-81379403D02*
X97965179Y-83369316D01*
X97513038Y-83821458D01*
X97495779Y-83835622D01*
X97439295Y-83904449D01*
X97414312Y-83951190D01*
X97397324Y-83982972D01*
X97371478Y-84068174D01*
X97362751Y-84156781D01*
X97364938Y-84178986D01*
X97364939Y-85207683D01*
X97350984Y-85137526D01*
X97299950Y-85014320D01*
X97225860Y-84903437D01*
X97152000Y-84829577D01*
X97152000Y-80566224D01*
X97965178Y-81379403D01*
G04 #@! TA.AperFunction,Conductor*
D28*
G36*
X97965178Y-81379403D02*
G01*
X97965179Y-83369316D01*
X97513038Y-83821458D01*
X97495779Y-83835622D01*
X97439295Y-83904449D01*
X97414312Y-83951190D01*
X97397324Y-83982972D01*
X97371478Y-84068174D01*
X97362751Y-84156781D01*
X97364938Y-84178986D01*
X97364939Y-85207683D01*
X97350984Y-85137526D01*
X97299950Y-85014320D01*
X97225860Y-84903437D01*
X97152000Y-84829577D01*
X97152000Y-80566224D01*
X97965178Y-81379403D01*
G37*
G04 #@! TD.AperFunction*
D29*
X97893275Y-75592500D02*
X96421100Y-77064677D01*
X96403841Y-77078841D01*
X96347357Y-77147668D01*
X96327927Y-77184020D01*
X96305386Y-77226191D01*
X96279540Y-77311393D01*
X96270813Y-77400000D01*
X96273000Y-77422205D01*
X96273001Y-79008777D01*
X96045323Y-78781100D01*
X96031159Y-78763841D01*
X95962333Y-78707357D01*
X95893462Y-78670545D01*
X95879847Y-78602097D01*
X95857000Y-78546940D01*
X95857000Y-77485000D01*
X95854560Y-77460224D01*
X95847333Y-77436399D01*
X95835597Y-77414443D01*
X95819803Y-77395197D01*
X95800557Y-77379403D01*
X95778601Y-77367667D01*
X95754776Y-77360440D01*
X95730000Y-77358000D01*
X93302000Y-77358000D01*
X93302000Y-75652000D01*
X95730000Y-75652000D01*
X95754776Y-75649560D01*
X95778601Y-75642333D01*
X95800557Y-75630597D01*
X95819803Y-75614803D01*
X95835597Y-75595557D01*
X95847333Y-75573601D01*
X95854560Y-75549776D01*
X95857000Y-75525000D01*
X95857000Y-74457000D01*
X96757777Y-74457000D01*
X97893275Y-75592500D01*
G04 #@! TA.AperFunction,Conductor*
D28*
G36*
X97893275Y-75592500D02*
G01*
X96421100Y-77064677D01*
X96403841Y-77078841D01*
X96347357Y-77147668D01*
X96327927Y-77184020D01*
X96305386Y-77226191D01*
X96279540Y-77311393D01*
X96270813Y-77400000D01*
X96273000Y-77422205D01*
X96273001Y-79008777D01*
X96045323Y-78781100D01*
X96031159Y-78763841D01*
X95962333Y-78707357D01*
X95893462Y-78670545D01*
X95879847Y-78602097D01*
X95857000Y-78546940D01*
X95857000Y-77485000D01*
X95854560Y-77460224D01*
X95847333Y-77436399D01*
X95835597Y-77414443D01*
X95819803Y-77395197D01*
X95800557Y-77379403D01*
X95778601Y-77367667D01*
X95754776Y-77360440D01*
X95730000Y-77358000D01*
X93302000Y-77358000D01*
X93302000Y-75652000D01*
X95730000Y-75652000D01*
X95754776Y-75649560D01*
X95778601Y-75642333D01*
X95800557Y-75630597D01*
X95819803Y-75614803D01*
X95835597Y-75595557D01*
X95847333Y-75573601D01*
X95854560Y-75549776D01*
X95857000Y-75525000D01*
X95857000Y-74457000D01*
X96757777Y-74457000D01*
X97893275Y-75592500D01*
G37*
G04 #@! TD.AperFunction*
D29*
X113998001Y-69323000D02*
X110375000Y-69323000D01*
X110360781Y-69323799D01*
X110193890Y-69342603D01*
X110166164Y-69348931D01*
X110007642Y-69404400D01*
X109982019Y-69416739D01*
X109839815Y-69506092D01*
X109817580Y-69523823D01*
X109698823Y-69642580D01*
X109681092Y-69664815D01*
X109591739Y-69807019D01*
X109579400Y-69832642D01*
X109523931Y-69991164D01*
X109517603Y-70018890D01*
X109498799Y-70185781D01*
X109498000Y-70200000D01*
X109498000Y-73704179D01*
X109482103Y-73824929D01*
X109438703Y-73929705D01*
X109369671Y-74019671D01*
X109279705Y-74088703D01*
X109174929Y-74132103D01*
X109062500Y-74146905D01*
X108950071Y-74132103D01*
X108845295Y-74088703D01*
X108755329Y-74019671D01*
X108686297Y-73929705D01*
X108642897Y-73824929D01*
X108627000Y-73704179D01*
X108627000Y-69107128D01*
X108643403Y-68961549D01*
X108689419Y-68830040D01*
X108763545Y-68712070D01*
X108862070Y-68613545D01*
X108980040Y-68539419D01*
X109111549Y-68493403D01*
X109257128Y-68477000D01*
X113998001Y-68477000D01*
X113998001Y-69323000D01*
G04 #@! TA.AperFunction,Conductor*
D28*
G36*
X113998001Y-69323000D02*
G01*
X110375000Y-69323000D01*
X110360781Y-69323799D01*
X110193890Y-69342603D01*
X110166164Y-69348931D01*
X110007642Y-69404400D01*
X109982019Y-69416739D01*
X109839815Y-69506092D01*
X109817580Y-69523823D01*
X109698823Y-69642580D01*
X109681092Y-69664815D01*
X109591739Y-69807019D01*
X109579400Y-69832642D01*
X109523931Y-69991164D01*
X109517603Y-70018890D01*
X109498799Y-70185781D01*
X109498000Y-70200000D01*
X109498000Y-73704179D01*
X109482103Y-73824929D01*
X109438703Y-73929705D01*
X109369671Y-74019671D01*
X109279705Y-74088703D01*
X109174929Y-74132103D01*
X109062500Y-74146905D01*
X108950071Y-74132103D01*
X108845295Y-74088703D01*
X108755329Y-74019671D01*
X108686297Y-73929705D01*
X108642897Y-73824929D01*
X108627000Y-73704179D01*
X108627000Y-69107128D01*
X108643403Y-68961549D01*
X108689419Y-68830040D01*
X108763545Y-68712070D01*
X108862070Y-68613545D01*
X108980040Y-68539419D01*
X109111549Y-68493403D01*
X109257128Y-68477000D01*
X113998001Y-68477000D01*
X113998001Y-69323000D01*
G37*
G04 #@! TD.AperFunction*
M02*
