G04 #@! TF.GenerationSoftware,KiCad,Pcbnew,(5.1.10)-1*
G04 #@! TF.CreationDate,2021-08-18T14:37:02+01:00*
G04 #@! TF.ProjectId,EnvOpenPico,456e764f-7065-46e5-9069-636f2e6b6963,REV1*
G04 #@! TF.SameCoordinates,Original*
G04 #@! TF.FileFunction,Copper,L1,Top*
G04 #@! TF.FilePolarity,Positive*
%FSLAX46Y46*%
G04 Gerber Fmt 4.6, Leading zero omitted, Abs format (unit mm)*
G04 Created by KiCad (PCBNEW (5.1.10)-1) date 2021-08-18 14:37:02*
%MOMM*%
%LPD*%
G01*
G04 APERTURE LIST*
G04 #@! TA.AperFunction,SMDPad,CuDef*
%ADD10R,1.400000X1.200000*%
G04 #@! TD*
G04 #@! TA.AperFunction,SMDPad,CuDef*
%ADD11R,0.600000X1.450000*%
G04 #@! TD*
G04 #@! TA.AperFunction,SMDPad,CuDef*
%ADD12R,0.300000X1.450000*%
G04 #@! TD*
G04 #@! TA.AperFunction,ComponentPad*
%ADD13O,1.000000X2.100000*%
G04 #@! TD*
G04 #@! TA.AperFunction,ComponentPad*
%ADD14O,1.000000X1.600000*%
G04 #@! TD*
G04 #@! TA.AperFunction,SMDPad,CuDef*
%ADD15R,1.600000X1.400000*%
G04 #@! TD*
G04 #@! TA.AperFunction,ComponentPad*
%ADD16C,0.500000*%
G04 #@! TD*
G04 #@! TA.AperFunction,SMDPad,CuDef*
%ADD17C,0.100000*%
G04 #@! TD*
G04 #@! TA.AperFunction,SMDPad,CuDef*
%ADD18R,0.600000X0.240000*%
G04 #@! TD*
G04 #@! TA.AperFunction,ComponentPad*
%ADD19O,1.700000X1.700000*%
G04 #@! TD*
G04 #@! TA.AperFunction,ComponentPad*
%ADD20R,1.700000X1.700000*%
G04 #@! TD*
G04 #@! TA.AperFunction,ComponentPad*
%ADD21R,3.500000X1.700000*%
G04 #@! TD*
G04 #@! TA.AperFunction,ComponentPad*
%ADD22C,1.700000*%
G04 #@! TD*
G04 #@! TA.AperFunction,ComponentPad*
%ADD23C,0.600000*%
G04 #@! TD*
G04 #@! TA.AperFunction,ViaPad*
%ADD24C,0.400000*%
G04 #@! TD*
G04 #@! TA.AperFunction,ViaPad*
%ADD25C,0.600000*%
G04 #@! TD*
G04 #@! TA.AperFunction,Conductor*
%ADD26C,0.150000*%
G04 #@! TD*
G04 #@! TA.AperFunction,Conductor*
%ADD27C,0.400000*%
G04 #@! TD*
G04 #@! TA.AperFunction,Conductor*
%ADD28C,0.600000*%
G04 #@! TD*
G04 #@! TA.AperFunction,Conductor*
%ADD29C,0.300000*%
G04 #@! TD*
G04 #@! TA.AperFunction,Conductor*
%ADD30C,0.200000*%
G04 #@! TD*
G04 #@! TA.AperFunction,Conductor*
%ADD31C,1.000000*%
G04 #@! TD*
G04 #@! TA.AperFunction,Conductor*
%ADD32C,0.127000*%
G04 #@! TD*
G04 #@! TA.AperFunction,Conductor*
%ADD33C,0.800000*%
G04 #@! TD*
G04 #@! TA.AperFunction,Conductor*
%ADD34C,0.100000*%
G04 #@! TD*
G04 #@! TA.AperFunction,Conductor*
%ADD35C,0.254000*%
G04 #@! TD*
G04 #@! TA.AperFunction,Conductor*
%ADD36C,0.250000*%
G04 #@! TD*
G04 #@! TA.AperFunction,Conductor*
%ADD37C,0.500000*%
G04 #@! TD*
G04 APERTURE END LIST*
D10*
X100906000Y-94678200D03*
X103106000Y-94678200D03*
X103106000Y-96378200D03*
X100906000Y-96378200D03*
G04 #@! TA.AperFunction,SMDPad,CuDef*
G36*
G01*
X104811000Y-94956000D02*
X104471000Y-94956000D01*
G75*
G02*
X104331000Y-94816000I0J140000D01*
G01*
X104331000Y-94536000D01*
G75*
G02*
X104471000Y-94396000I140000J0D01*
G01*
X104811000Y-94396000D01*
G75*
G02*
X104951000Y-94536000I0J-140000D01*
G01*
X104951000Y-94816000D01*
G75*
G02*
X104811000Y-94956000I-140000J0D01*
G01*
G37*
G04 #@! TD.AperFunction*
G04 #@! TA.AperFunction,SMDPad,CuDef*
G36*
G01*
X104811000Y-95916000D02*
X104471000Y-95916000D01*
G75*
G02*
X104331000Y-95776000I0J140000D01*
G01*
X104331000Y-95496000D01*
G75*
G02*
X104471000Y-95356000I140000J0D01*
G01*
X104811000Y-95356000D01*
G75*
G02*
X104951000Y-95496000I0J-140000D01*
G01*
X104951000Y-95776000D01*
G75*
G02*
X104811000Y-95916000I-140000J0D01*
G01*
G37*
G04 #@! TD.AperFunction*
G04 #@! TA.AperFunction,SMDPad,CuDef*
G36*
G01*
X99505000Y-96659000D02*
X99165000Y-96659000D01*
G75*
G02*
X99025000Y-96519000I0J140000D01*
G01*
X99025000Y-96239000D01*
G75*
G02*
X99165000Y-96099000I140000J0D01*
G01*
X99505000Y-96099000D01*
G75*
G02*
X99645000Y-96239000I0J-140000D01*
G01*
X99645000Y-96519000D01*
G75*
G02*
X99505000Y-96659000I-140000J0D01*
G01*
G37*
G04 #@! TD.AperFunction*
G04 #@! TA.AperFunction,SMDPad,CuDef*
G36*
G01*
X99505000Y-97619000D02*
X99165000Y-97619000D01*
G75*
G02*
X99025000Y-97479000I0J140000D01*
G01*
X99025000Y-97199000D01*
G75*
G02*
X99165000Y-97059000I140000J0D01*
G01*
X99505000Y-97059000D01*
G75*
G02*
X99645000Y-97199000I0J-140000D01*
G01*
X99645000Y-97479000D01*
G75*
G02*
X99505000Y-97619000I-140000J0D01*
G01*
G37*
G04 #@! TD.AperFunction*
D11*
X100375000Y-64620000D03*
X106825000Y-64620000D03*
X101150000Y-64620000D03*
X106050000Y-64620000D03*
D12*
X105350000Y-64620000D03*
X101850000Y-64620000D03*
X104850000Y-64620000D03*
X102350000Y-64620000D03*
X104350000Y-64620000D03*
X102850000Y-64620000D03*
X103350000Y-64620000D03*
X103850000Y-64620000D03*
D13*
X107920000Y-63705000D03*
X99280000Y-63705000D03*
D14*
X107920000Y-59525000D03*
X99280000Y-59525000D03*
G04 #@! TA.AperFunction,SMDPad,CuDef*
G36*
G01*
X110373250Y-60203800D02*
X109860750Y-60203800D01*
G75*
G02*
X109642000Y-59985050I0J218750D01*
G01*
X109642000Y-59547550D01*
G75*
G02*
X109860750Y-59328800I218750J0D01*
G01*
X110373250Y-59328800D01*
G75*
G02*
X110592000Y-59547550I0J-218750D01*
G01*
X110592000Y-59985050D01*
G75*
G02*
X110373250Y-60203800I-218750J0D01*
G01*
G37*
G04 #@! TD.AperFunction*
G04 #@! TA.AperFunction,SMDPad,CuDef*
G36*
G01*
X110373250Y-61778800D02*
X109860750Y-61778800D01*
G75*
G02*
X109642000Y-61560050I0J218750D01*
G01*
X109642000Y-61122550D01*
G75*
G02*
X109860750Y-60903800I218750J0D01*
G01*
X110373250Y-60903800D01*
G75*
G02*
X110592000Y-61122550I0J-218750D01*
G01*
X110592000Y-61560050D01*
G75*
G02*
X110373250Y-61778800I-218750J0D01*
G01*
G37*
G04 #@! TD.AperFunction*
G04 #@! TA.AperFunction,SMDPad,CuDef*
G36*
G01*
X102034300Y-66359000D02*
X101664300Y-66359000D01*
G75*
G02*
X101529300Y-66224000I0J135000D01*
G01*
X101529300Y-65954000D01*
G75*
G02*
X101664300Y-65819000I135000J0D01*
G01*
X102034300Y-65819000D01*
G75*
G02*
X102169300Y-65954000I0J-135000D01*
G01*
X102169300Y-66224000D01*
G75*
G02*
X102034300Y-66359000I-135000J0D01*
G01*
G37*
G04 #@! TD.AperFunction*
G04 #@! TA.AperFunction,SMDPad,CuDef*
G36*
G01*
X102034300Y-67379000D02*
X101664300Y-67379000D01*
G75*
G02*
X101529300Y-67244000I0J135000D01*
G01*
X101529300Y-66974000D01*
G75*
G02*
X101664300Y-66839000I135000J0D01*
G01*
X102034300Y-66839000D01*
G75*
G02*
X102169300Y-66974000I0J-135000D01*
G01*
X102169300Y-67244000D01*
G75*
G02*
X102034300Y-67379000I-135000J0D01*
G01*
G37*
G04 #@! TD.AperFunction*
G04 #@! TA.AperFunction,SMDPad,CuDef*
G36*
G01*
X109880120Y-80845680D02*
X109880120Y-80505680D01*
G75*
G02*
X110020120Y-80365680I140000J0D01*
G01*
X110300120Y-80365680D01*
G75*
G02*
X110440120Y-80505680I0J-140000D01*
G01*
X110440120Y-80845680D01*
G75*
G02*
X110300120Y-80985680I-140000J0D01*
G01*
X110020120Y-80985680D01*
G75*
G02*
X109880120Y-80845680I0J140000D01*
G01*
G37*
G04 #@! TD.AperFunction*
G04 #@! TA.AperFunction,SMDPad,CuDef*
G36*
G01*
X108920120Y-80845680D02*
X108920120Y-80505680D01*
G75*
G02*
X109060120Y-80365680I140000J0D01*
G01*
X109340120Y-80365680D01*
G75*
G02*
X109480120Y-80505680I0J-140000D01*
G01*
X109480120Y-80845680D01*
G75*
G02*
X109340120Y-80985680I-140000J0D01*
G01*
X109060120Y-80985680D01*
G75*
G02*
X108920120Y-80845680I0J140000D01*
G01*
G37*
G04 #@! TD.AperFunction*
G04 #@! TA.AperFunction,SMDPad,CuDef*
G36*
G01*
X109877580Y-82072500D02*
X109877580Y-81732500D01*
G75*
G02*
X110017580Y-81592500I140000J0D01*
G01*
X110297580Y-81592500D01*
G75*
G02*
X110437580Y-81732500I0J-140000D01*
G01*
X110437580Y-82072500D01*
G75*
G02*
X110297580Y-82212500I-140000J0D01*
G01*
X110017580Y-82212500D01*
G75*
G02*
X109877580Y-82072500I0J140000D01*
G01*
G37*
G04 #@! TD.AperFunction*
G04 #@! TA.AperFunction,SMDPad,CuDef*
G36*
G01*
X108917580Y-82072500D02*
X108917580Y-81732500D01*
G75*
G02*
X109057580Y-81592500I140000J0D01*
G01*
X109337580Y-81592500D01*
G75*
G02*
X109477580Y-81732500I0J-140000D01*
G01*
X109477580Y-82072500D01*
G75*
G02*
X109337580Y-82212500I-140000J0D01*
G01*
X109057580Y-82212500D01*
G75*
G02*
X108917580Y-82072500I0J140000D01*
G01*
G37*
G04 #@! TD.AperFunction*
D15*
X100500560Y-79448860D03*
G04 #@! TA.AperFunction,SMDPad,CuDef*
G36*
G01*
X99838060Y-78423860D02*
X99663060Y-78423860D01*
G75*
G02*
X99575560Y-78336360I0J87500D01*
G01*
X99575560Y-77986360D01*
G75*
G02*
X99663060Y-77898860I87500J0D01*
G01*
X99838060Y-77898860D01*
G75*
G02*
X99925560Y-77986360I0J-87500D01*
G01*
X99925560Y-78336360D01*
G75*
G02*
X99838060Y-78423860I-87500J0D01*
G01*
G37*
G04 #@! TD.AperFunction*
G04 #@! TA.AperFunction,SMDPad,CuDef*
G36*
G01*
X100338060Y-78423860D02*
X100163060Y-78423860D01*
G75*
G02*
X100075560Y-78336360I0J87500D01*
G01*
X100075560Y-77986360D01*
G75*
G02*
X100163060Y-77898860I87500J0D01*
G01*
X100338060Y-77898860D01*
G75*
G02*
X100425560Y-77986360I0J-87500D01*
G01*
X100425560Y-78336360D01*
G75*
G02*
X100338060Y-78423860I-87500J0D01*
G01*
G37*
G04 #@! TD.AperFunction*
G04 #@! TA.AperFunction,SMDPad,CuDef*
G36*
G01*
X100838060Y-78423860D02*
X100663060Y-78423860D01*
G75*
G02*
X100575560Y-78336360I0J87500D01*
G01*
X100575560Y-77986360D01*
G75*
G02*
X100663060Y-77898860I87500J0D01*
G01*
X100838060Y-77898860D01*
G75*
G02*
X100925560Y-77986360I0J-87500D01*
G01*
X100925560Y-78336360D01*
G75*
G02*
X100838060Y-78423860I-87500J0D01*
G01*
G37*
G04 #@! TD.AperFunction*
G04 #@! TA.AperFunction,SMDPad,CuDef*
G36*
G01*
X101338060Y-78423860D02*
X101163060Y-78423860D01*
G75*
G02*
X101075560Y-78336360I0J87500D01*
G01*
X101075560Y-77986360D01*
G75*
G02*
X101163060Y-77898860I87500J0D01*
G01*
X101338060Y-77898860D01*
G75*
G02*
X101425560Y-77986360I0J-87500D01*
G01*
X101425560Y-78336360D01*
G75*
G02*
X101338060Y-78423860I-87500J0D01*
G01*
G37*
G04 #@! TD.AperFunction*
G04 #@! TA.AperFunction,SMDPad,CuDef*
G36*
G01*
X101338060Y-80998860D02*
X101163060Y-80998860D01*
G75*
G02*
X101075560Y-80911360I0J87500D01*
G01*
X101075560Y-80561360D01*
G75*
G02*
X101163060Y-80473860I87500J0D01*
G01*
X101338060Y-80473860D01*
G75*
G02*
X101425560Y-80561360I0J-87500D01*
G01*
X101425560Y-80911360D01*
G75*
G02*
X101338060Y-80998860I-87500J0D01*
G01*
G37*
G04 #@! TD.AperFunction*
G04 #@! TA.AperFunction,SMDPad,CuDef*
G36*
G01*
X100838060Y-80998860D02*
X100663060Y-80998860D01*
G75*
G02*
X100575560Y-80911360I0J87500D01*
G01*
X100575560Y-80561360D01*
G75*
G02*
X100663060Y-80473860I87500J0D01*
G01*
X100838060Y-80473860D01*
G75*
G02*
X100925560Y-80561360I0J-87500D01*
G01*
X100925560Y-80911360D01*
G75*
G02*
X100838060Y-80998860I-87500J0D01*
G01*
G37*
G04 #@! TD.AperFunction*
G04 #@! TA.AperFunction,SMDPad,CuDef*
G36*
G01*
X100338060Y-80998860D02*
X100163060Y-80998860D01*
G75*
G02*
X100075560Y-80911360I0J87500D01*
G01*
X100075560Y-80561360D01*
G75*
G02*
X100163060Y-80473860I87500J0D01*
G01*
X100338060Y-80473860D01*
G75*
G02*
X100425560Y-80561360I0J-87500D01*
G01*
X100425560Y-80911360D01*
G75*
G02*
X100338060Y-80998860I-87500J0D01*
G01*
G37*
G04 #@! TD.AperFunction*
G04 #@! TA.AperFunction,SMDPad,CuDef*
G36*
G01*
X99838060Y-80998860D02*
X99663060Y-80998860D01*
G75*
G02*
X99575560Y-80911360I0J87500D01*
G01*
X99575560Y-80561360D01*
G75*
G02*
X99663060Y-80473860I87500J0D01*
G01*
X99838060Y-80473860D01*
G75*
G02*
X99925560Y-80561360I0J-87500D01*
G01*
X99925560Y-80911360D01*
G75*
G02*
X99838060Y-80998860I-87500J0D01*
G01*
G37*
G04 #@! TD.AperFunction*
G04 #@! TA.AperFunction,SMDPad,CuDef*
G36*
G01*
X109758140Y-72811660D02*
X109758140Y-72471660D01*
G75*
G02*
X109898140Y-72331660I140000J0D01*
G01*
X110178140Y-72331660D01*
G75*
G02*
X110318140Y-72471660I0J-140000D01*
G01*
X110318140Y-72811660D01*
G75*
G02*
X110178140Y-72951660I-140000J0D01*
G01*
X109898140Y-72951660D01*
G75*
G02*
X109758140Y-72811660I0J140000D01*
G01*
G37*
G04 #@! TD.AperFunction*
G04 #@! TA.AperFunction,SMDPad,CuDef*
G36*
G01*
X108798140Y-72811660D02*
X108798140Y-72471660D01*
G75*
G02*
X108938140Y-72331660I140000J0D01*
G01*
X109218140Y-72331660D01*
G75*
G02*
X109358140Y-72471660I0J-140000D01*
G01*
X109358140Y-72811660D01*
G75*
G02*
X109218140Y-72951660I-140000J0D01*
G01*
X108938140Y-72951660D01*
G75*
G02*
X108798140Y-72811660I0J140000D01*
G01*
G37*
G04 #@! TD.AperFunction*
G04 #@! TA.AperFunction,SMDPad,CuDef*
G36*
G01*
X108640600Y-65484000D02*
X108640600Y-65984000D01*
G75*
G02*
X108415600Y-66209000I-225000J0D01*
G01*
X107965600Y-66209000D01*
G75*
G02*
X107740600Y-65984000I0J225000D01*
G01*
X107740600Y-65484000D01*
G75*
G02*
X107965600Y-65259000I225000J0D01*
G01*
X108415600Y-65259000D01*
G75*
G02*
X108640600Y-65484000I0J-225000D01*
G01*
G37*
G04 #@! TD.AperFunction*
G04 #@! TA.AperFunction,SMDPad,CuDef*
G36*
G01*
X110190600Y-65484000D02*
X110190600Y-65984000D01*
G75*
G02*
X109965600Y-66209000I-225000J0D01*
G01*
X109515600Y-66209000D01*
G75*
G02*
X109290600Y-65984000I0J225000D01*
G01*
X109290600Y-65484000D01*
G75*
G02*
X109515600Y-65259000I225000J0D01*
G01*
X109965600Y-65259000D01*
G75*
G02*
X110190600Y-65484000I0J-225000D01*
G01*
G37*
G04 #@! TD.AperFunction*
G04 #@! TA.AperFunction,SMDPad,CuDef*
G36*
G01*
X110186000Y-79257600D02*
X110556000Y-79257600D01*
G75*
G02*
X110691000Y-79392600I0J-135000D01*
G01*
X110691000Y-79662600D01*
G75*
G02*
X110556000Y-79797600I-135000J0D01*
G01*
X110186000Y-79797600D01*
G75*
G02*
X110051000Y-79662600I0J135000D01*
G01*
X110051000Y-79392600D01*
G75*
G02*
X110186000Y-79257600I135000J0D01*
G01*
G37*
G04 #@! TD.AperFunction*
G04 #@! TA.AperFunction,SMDPad,CuDef*
G36*
G01*
X110186000Y-78237600D02*
X110556000Y-78237600D01*
G75*
G02*
X110691000Y-78372600I0J-135000D01*
G01*
X110691000Y-78642600D01*
G75*
G02*
X110556000Y-78777600I-135000J0D01*
G01*
X110186000Y-78777600D01*
G75*
G02*
X110051000Y-78642600I0J135000D01*
G01*
X110051000Y-78372600D01*
G75*
G02*
X110186000Y-78237600I135000J0D01*
G01*
G37*
G04 #@! TD.AperFunction*
G04 #@! TA.AperFunction,SMDPad,CuDef*
G36*
G01*
X110096000Y-76447400D02*
X110646000Y-76447400D01*
G75*
G02*
X110846000Y-76647400I0J-200000D01*
G01*
X110846000Y-77047400D01*
G75*
G02*
X110646000Y-77247400I-200000J0D01*
G01*
X110096000Y-77247400D01*
G75*
G02*
X109896000Y-77047400I0J200000D01*
G01*
X109896000Y-76647400D01*
G75*
G02*
X110096000Y-76447400I200000J0D01*
G01*
G37*
G04 #@! TD.AperFunction*
G04 #@! TA.AperFunction,SMDPad,CuDef*
G36*
G01*
X110096000Y-74797400D02*
X110646000Y-74797400D01*
G75*
G02*
X110846000Y-74997400I0J-200000D01*
G01*
X110846000Y-75397400D01*
G75*
G02*
X110646000Y-75597400I-200000J0D01*
G01*
X110096000Y-75597400D01*
G75*
G02*
X109896000Y-75397400I0J200000D01*
G01*
X109896000Y-74997400D01*
G75*
G02*
X110096000Y-74797400I200000J0D01*
G01*
G37*
G04 #@! TD.AperFunction*
G04 #@! TA.AperFunction,SMDPad,CuDef*
G36*
G01*
X100990000Y-75025000D02*
X99390000Y-75025000D01*
G75*
G02*
X99190000Y-74825000I0J200000D01*
G01*
X99190000Y-74425000D01*
G75*
G02*
X99390000Y-74225000I200000J0D01*
G01*
X100990000Y-74225000D01*
G75*
G02*
X101190000Y-74425000I0J-200000D01*
G01*
X101190000Y-74825000D01*
G75*
G02*
X100990000Y-75025000I-200000J0D01*
G01*
G37*
G04 #@! TD.AperFunction*
G04 #@! TA.AperFunction,SMDPad,CuDef*
G36*
G01*
X100990000Y-70825000D02*
X99390000Y-70825000D01*
G75*
G02*
X99190000Y-70625000I0J200000D01*
G01*
X99190000Y-70225000D01*
G75*
G02*
X99390000Y-70025000I200000J0D01*
G01*
X100990000Y-70025000D01*
G75*
G02*
X101190000Y-70225000I0J-200000D01*
G01*
X101190000Y-70625000D01*
G75*
G02*
X100990000Y-70825000I-200000J0D01*
G01*
G37*
G04 #@! TD.AperFunction*
G04 #@! TA.AperFunction,SMDPad,CuDef*
G36*
G01*
X99890780Y-76467560D02*
X99550780Y-76467560D01*
G75*
G02*
X99410780Y-76327560I0J140000D01*
G01*
X99410780Y-76047560D01*
G75*
G02*
X99550780Y-75907560I140000J0D01*
G01*
X99890780Y-75907560D01*
G75*
G02*
X100030780Y-76047560I0J-140000D01*
G01*
X100030780Y-76327560D01*
G75*
G02*
X99890780Y-76467560I-140000J0D01*
G01*
G37*
G04 #@! TD.AperFunction*
G04 #@! TA.AperFunction,SMDPad,CuDef*
G36*
G01*
X99890780Y-77427560D02*
X99550780Y-77427560D01*
G75*
G02*
X99410780Y-77287560I0J140000D01*
G01*
X99410780Y-77007560D01*
G75*
G02*
X99550780Y-76867560I140000J0D01*
G01*
X99890780Y-76867560D01*
G75*
G02*
X100030780Y-77007560I0J-140000D01*
G01*
X100030780Y-77287560D01*
G75*
G02*
X99890780Y-77427560I-140000J0D01*
G01*
G37*
G04 #@! TD.AperFunction*
G04 #@! TA.AperFunction,SMDPad,CuDef*
G36*
G01*
X108007560Y-67303000D02*
X108007560Y-67673000D01*
G75*
G02*
X107872560Y-67808000I-135000J0D01*
G01*
X107602560Y-67808000D01*
G75*
G02*
X107467560Y-67673000I0J135000D01*
G01*
X107467560Y-67303000D01*
G75*
G02*
X107602560Y-67168000I135000J0D01*
G01*
X107872560Y-67168000D01*
G75*
G02*
X108007560Y-67303000I0J-135000D01*
G01*
G37*
G04 #@! TD.AperFunction*
G04 #@! TA.AperFunction,SMDPad,CuDef*
G36*
G01*
X109027560Y-67303000D02*
X109027560Y-67673000D01*
G75*
G02*
X108892560Y-67808000I-135000J0D01*
G01*
X108622560Y-67808000D01*
G75*
G02*
X108487560Y-67673000I0J135000D01*
G01*
X108487560Y-67303000D01*
G75*
G02*
X108622560Y-67168000I135000J0D01*
G01*
X108892560Y-67168000D01*
G75*
G02*
X109027560Y-67303000I0J-135000D01*
G01*
G37*
G04 #@! TD.AperFunction*
G04 #@! TA.AperFunction,SMDPad,CuDef*
G36*
G01*
X109793750Y-71000000D02*
X110556250Y-71000000D01*
G75*
G02*
X110775000Y-71218750I0J-218750D01*
G01*
X110775000Y-71656250D01*
G75*
G02*
X110556250Y-71875000I-218750J0D01*
G01*
X109793750Y-71875000D01*
G75*
G02*
X109575000Y-71656250I0J218750D01*
G01*
X109575000Y-71218750D01*
G75*
G02*
X109793750Y-71000000I218750J0D01*
G01*
G37*
G04 #@! TD.AperFunction*
G04 #@! TA.AperFunction,SMDPad,CuDef*
G36*
G01*
X109793750Y-68875000D02*
X110556250Y-68875000D01*
G75*
G02*
X110775000Y-69093750I0J-218750D01*
G01*
X110775000Y-69531250D01*
G75*
G02*
X110556250Y-69750000I-218750J0D01*
G01*
X109793750Y-69750000D01*
G75*
G02*
X109575000Y-69531250I0J218750D01*
G01*
X109575000Y-69093750D01*
G75*
G02*
X109793750Y-68875000I218750J0D01*
G01*
G37*
G04 #@! TD.AperFunction*
D16*
X107300000Y-71125000D03*
X106725000Y-70175000D03*
X107875000Y-70175000D03*
X107300000Y-69225000D03*
G04 #@! TA.AperFunction,SMDPad,CuDef*
D17*
G36*
X107425000Y-71375000D02*
G01*
X107175000Y-71375000D01*
X107175000Y-71875000D01*
X106925000Y-71875000D01*
X106925000Y-71375000D01*
X106475000Y-71375000D01*
X106475000Y-68975000D01*
X106925000Y-68975000D01*
X106925000Y-68475000D01*
X107175000Y-68475000D01*
X107175000Y-68975000D01*
X107425000Y-68975000D01*
X107425000Y-68475000D01*
X107675000Y-68475000D01*
X107675000Y-68975000D01*
X108125000Y-68975000D01*
X108125000Y-71375000D01*
X107675000Y-71375000D01*
X107675000Y-71875000D01*
X107425000Y-71875000D01*
X107425000Y-71375000D01*
G37*
G04 #@! TD.AperFunction*
D18*
X105900000Y-71175000D03*
X105900000Y-70675000D03*
X105900000Y-70175000D03*
X105900000Y-69675000D03*
X105900000Y-69175000D03*
X108700000Y-69175000D03*
X108700000Y-69675000D03*
X108700000Y-70175000D03*
X108700000Y-70675000D03*
X108700000Y-71175000D03*
G04 #@! TA.AperFunction,SMDPad,CuDef*
G36*
G01*
X104155800Y-71193200D02*
X104495800Y-71193200D01*
G75*
G02*
X104635800Y-71333200I0J-140000D01*
G01*
X104635800Y-71613200D01*
G75*
G02*
X104495800Y-71753200I-140000J0D01*
G01*
X104155800Y-71753200D01*
G75*
G02*
X104015800Y-71613200I0J140000D01*
G01*
X104015800Y-71333200D01*
G75*
G02*
X104155800Y-71193200I140000J0D01*
G01*
G37*
G04 #@! TD.AperFunction*
G04 #@! TA.AperFunction,SMDPad,CuDef*
G36*
G01*
X104155800Y-70233200D02*
X104495800Y-70233200D01*
G75*
G02*
X104635800Y-70373200I0J-140000D01*
G01*
X104635800Y-70653200D01*
G75*
G02*
X104495800Y-70793200I-140000J0D01*
G01*
X104155800Y-70793200D01*
G75*
G02*
X104015800Y-70653200I0J140000D01*
G01*
X104015800Y-70373200D01*
G75*
G02*
X104155800Y-70233200I140000J0D01*
G01*
G37*
G04 #@! TD.AperFunction*
G04 #@! TA.AperFunction,SMDPad,CuDef*
G36*
G01*
X107011240Y-73129520D02*
X107011240Y-73469520D01*
G75*
G02*
X106871240Y-73609520I-140000J0D01*
G01*
X106591240Y-73609520D01*
G75*
G02*
X106451240Y-73469520I0J140000D01*
G01*
X106451240Y-73129520D01*
G75*
G02*
X106591240Y-72989520I140000J0D01*
G01*
X106871240Y-72989520D01*
G75*
G02*
X107011240Y-73129520I0J-140000D01*
G01*
G37*
G04 #@! TD.AperFunction*
G04 #@! TA.AperFunction,SMDPad,CuDef*
G36*
G01*
X107971240Y-73129520D02*
X107971240Y-73469520D01*
G75*
G02*
X107831240Y-73609520I-140000J0D01*
G01*
X107551240Y-73609520D01*
G75*
G02*
X107411240Y-73469520I0J140000D01*
G01*
X107411240Y-73129520D01*
G75*
G02*
X107551240Y-72989520I140000J0D01*
G01*
X107831240Y-72989520D01*
G75*
G02*
X107971240Y-73129520I0J-140000D01*
G01*
G37*
G04 #@! TD.AperFunction*
G04 #@! TA.AperFunction,SMDPad,CuDef*
G36*
G01*
X105164760Y-78663960D02*
X105504760Y-78663960D01*
G75*
G02*
X105644760Y-78803960I0J-140000D01*
G01*
X105644760Y-79083960D01*
G75*
G02*
X105504760Y-79223960I-140000J0D01*
G01*
X105164760Y-79223960D01*
G75*
G02*
X105024760Y-79083960I0J140000D01*
G01*
X105024760Y-78803960D01*
G75*
G02*
X105164760Y-78663960I140000J0D01*
G01*
G37*
G04 #@! TD.AperFunction*
G04 #@! TA.AperFunction,SMDPad,CuDef*
G36*
G01*
X105164760Y-77703960D02*
X105504760Y-77703960D01*
G75*
G02*
X105644760Y-77843960I0J-140000D01*
G01*
X105644760Y-78123960D01*
G75*
G02*
X105504760Y-78263960I-140000J0D01*
G01*
X105164760Y-78263960D01*
G75*
G02*
X105024760Y-78123960I0J140000D01*
G01*
X105024760Y-77843960D01*
G75*
G02*
X105164760Y-77703960I140000J0D01*
G01*
G37*
G04 #@! TD.AperFunction*
G04 #@! TA.AperFunction,SMDPad,CuDef*
G36*
G01*
X104462000Y-81100400D02*
X104122000Y-81100400D01*
G75*
G02*
X103982000Y-80960400I0J140000D01*
G01*
X103982000Y-80680400D01*
G75*
G02*
X104122000Y-80540400I140000J0D01*
G01*
X104462000Y-80540400D01*
G75*
G02*
X104602000Y-80680400I0J-140000D01*
G01*
X104602000Y-80960400D01*
G75*
G02*
X104462000Y-81100400I-140000J0D01*
G01*
G37*
G04 #@! TD.AperFunction*
G04 #@! TA.AperFunction,SMDPad,CuDef*
G36*
G01*
X104462000Y-80140400D02*
X104122000Y-80140400D01*
G75*
G02*
X103982000Y-80000400I0J140000D01*
G01*
X103982000Y-79720400D01*
G75*
G02*
X104122000Y-79580400I140000J0D01*
G01*
X104462000Y-79580400D01*
G75*
G02*
X104602000Y-79720400I0J-140000D01*
G01*
X104602000Y-80000400D01*
G75*
G02*
X104462000Y-80140400I-140000J0D01*
G01*
G37*
G04 #@! TD.AperFunction*
G04 #@! TA.AperFunction,SMDPad,CuDef*
G36*
G01*
X105902960Y-80716980D02*
X105562960Y-80716980D01*
G75*
G02*
X105422960Y-80576980I0J140000D01*
G01*
X105422960Y-80296980D01*
G75*
G02*
X105562960Y-80156980I140000J0D01*
G01*
X105902960Y-80156980D01*
G75*
G02*
X106042960Y-80296980I0J-140000D01*
G01*
X106042960Y-80576980D01*
G75*
G02*
X105902960Y-80716980I-140000J0D01*
G01*
G37*
G04 #@! TD.AperFunction*
G04 #@! TA.AperFunction,SMDPad,CuDef*
G36*
G01*
X105902960Y-81676980D02*
X105562960Y-81676980D01*
G75*
G02*
X105422960Y-81536980I0J140000D01*
G01*
X105422960Y-81256980D01*
G75*
G02*
X105562960Y-81116980I140000J0D01*
G01*
X105902960Y-81116980D01*
G75*
G02*
X106042960Y-81256980I0J-140000D01*
G01*
X106042960Y-81536980D01*
G75*
G02*
X105902960Y-81676980I-140000J0D01*
G01*
G37*
G04 #@! TD.AperFunction*
G04 #@! TA.AperFunction,SMDPad,CuDef*
G36*
G01*
X103471400Y-80140400D02*
X103131400Y-80140400D01*
G75*
G02*
X102991400Y-80000400I0J140000D01*
G01*
X102991400Y-79720400D01*
G75*
G02*
X103131400Y-79580400I140000J0D01*
G01*
X103471400Y-79580400D01*
G75*
G02*
X103611400Y-79720400I0J-140000D01*
G01*
X103611400Y-80000400D01*
G75*
G02*
X103471400Y-80140400I-140000J0D01*
G01*
G37*
G04 #@! TD.AperFunction*
G04 #@! TA.AperFunction,SMDPad,CuDef*
G36*
G01*
X103471400Y-81100400D02*
X103131400Y-81100400D01*
G75*
G02*
X102991400Y-80960400I0J140000D01*
G01*
X102991400Y-80680400D01*
G75*
G02*
X103131400Y-80540400I140000J0D01*
G01*
X103471400Y-80540400D01*
G75*
G02*
X103611400Y-80680400I0J-140000D01*
G01*
X103611400Y-80960400D01*
G75*
G02*
X103471400Y-81100400I-140000J0D01*
G01*
G37*
G04 #@! TD.AperFunction*
D19*
X112550000Y-106985000D03*
X112550000Y-104445000D03*
D20*
X112550000Y-101905000D03*
D19*
X112550000Y-99365000D03*
X112550000Y-96825000D03*
X112550000Y-94285000D03*
X112550000Y-91745000D03*
D20*
X112550000Y-89205000D03*
D19*
X112550000Y-86665000D03*
X112550000Y-84125000D03*
X112550000Y-81585000D03*
X112550000Y-79045000D03*
D20*
X112550000Y-76505000D03*
D19*
X112550000Y-73965000D03*
X112550000Y-71425000D03*
X112550000Y-68885000D03*
X112550000Y-66345000D03*
D20*
X112550000Y-63805000D03*
D19*
X112550000Y-61265000D03*
D20*
X112550000Y-58725000D03*
D21*
X114250000Y-99365000D03*
X114250000Y-101905000D03*
X114250000Y-96825000D03*
X114250000Y-104445000D03*
X114250000Y-94285000D03*
X114250000Y-106985000D03*
X114250000Y-86665000D03*
X114250000Y-91745000D03*
X114250000Y-84125000D03*
X114250000Y-73965000D03*
X114250000Y-71425000D03*
X114250000Y-68885000D03*
X114250000Y-61265000D03*
X114250000Y-89205000D03*
X114250000Y-76505000D03*
X114250000Y-63805000D03*
X114250000Y-58725000D03*
X114250000Y-79045000D03*
X114250000Y-66345000D03*
X114250000Y-81585000D03*
D19*
X94750000Y-58725000D03*
X94750000Y-61265000D03*
D20*
X94750000Y-63805000D03*
D19*
X94750000Y-66345000D03*
X94750000Y-68885000D03*
X94750000Y-71425000D03*
X94750000Y-73965000D03*
D20*
X94750000Y-76505000D03*
D19*
X94750000Y-79045000D03*
X94750000Y-81585000D03*
X94750000Y-84125000D03*
X94750000Y-86665000D03*
D20*
X94750000Y-89205000D03*
D19*
X94750000Y-91745000D03*
X94750000Y-94285000D03*
X94750000Y-96825000D03*
X94750000Y-99365000D03*
D20*
X94750000Y-101905000D03*
D19*
X94750000Y-104445000D03*
D22*
X94750000Y-106985000D03*
D21*
X93050000Y-104445000D03*
X93050000Y-73965000D03*
X93050000Y-99365000D03*
X93050000Y-94285000D03*
X93050000Y-89205000D03*
X93050000Y-86665000D03*
X93050000Y-71425000D03*
X93060000Y-79045000D03*
X93050000Y-68885000D03*
X93050000Y-61255000D03*
X93050000Y-66335000D03*
X93040000Y-91745000D03*
X93050000Y-96825000D03*
X93050000Y-81585000D03*
X93050000Y-76505000D03*
X93050000Y-106985000D03*
X93050000Y-84125000D03*
X93050000Y-63805000D03*
X93050000Y-101905000D03*
X93050000Y-58725000D03*
G04 #@! TA.AperFunction,SMDPad,CuDef*
G36*
G01*
X105247400Y-66359000D02*
X104877400Y-66359000D01*
G75*
G02*
X104742400Y-66224000I0J135000D01*
G01*
X104742400Y-65954000D01*
G75*
G02*
X104877400Y-65819000I135000J0D01*
G01*
X105247400Y-65819000D01*
G75*
G02*
X105382400Y-65954000I0J-135000D01*
G01*
X105382400Y-66224000D01*
G75*
G02*
X105247400Y-66359000I-135000J0D01*
G01*
G37*
G04 #@! TD.AperFunction*
G04 #@! TA.AperFunction,SMDPad,CuDef*
G36*
G01*
X105247400Y-67379000D02*
X104877400Y-67379000D01*
G75*
G02*
X104742400Y-67244000I0J135000D01*
G01*
X104742400Y-66974000D01*
G75*
G02*
X104877400Y-66839000I135000J0D01*
G01*
X105247400Y-66839000D01*
G75*
G02*
X105382400Y-66974000I0J-135000D01*
G01*
X105382400Y-67244000D01*
G75*
G02*
X105247400Y-67379000I-135000J0D01*
G01*
G37*
G04 #@! TD.AperFunction*
G04 #@! TA.AperFunction,SMDPad,CuDef*
G36*
G01*
X97690000Y-87555000D02*
X97690000Y-87895000D01*
G75*
G02*
X97550000Y-88035000I-140000J0D01*
G01*
X97270000Y-88035000D01*
G75*
G02*
X97130000Y-87895000I0J140000D01*
G01*
X97130000Y-87555000D01*
G75*
G02*
X97270000Y-87415000I140000J0D01*
G01*
X97550000Y-87415000D01*
G75*
G02*
X97690000Y-87555000I0J-140000D01*
G01*
G37*
G04 #@! TD.AperFunction*
G04 #@! TA.AperFunction,SMDPad,CuDef*
G36*
G01*
X98650000Y-87555000D02*
X98650000Y-87895000D01*
G75*
G02*
X98510000Y-88035000I-140000J0D01*
G01*
X98230000Y-88035000D01*
G75*
G02*
X98090000Y-87895000I0J140000D01*
G01*
X98090000Y-87555000D01*
G75*
G02*
X98230000Y-87415000I140000J0D01*
G01*
X98510000Y-87415000D01*
G75*
G02*
X98650000Y-87555000I0J-140000D01*
G01*
G37*
G04 #@! TD.AperFunction*
G04 #@! TA.AperFunction,SMDPad,CuDef*
G36*
G01*
X106896100Y-80714440D02*
X106556100Y-80714440D01*
G75*
G02*
X106416100Y-80574440I0J140000D01*
G01*
X106416100Y-80294440D01*
G75*
G02*
X106556100Y-80154440I140000J0D01*
G01*
X106896100Y-80154440D01*
G75*
G02*
X107036100Y-80294440I0J-140000D01*
G01*
X107036100Y-80574440D01*
G75*
G02*
X106896100Y-80714440I-140000J0D01*
G01*
G37*
G04 #@! TD.AperFunction*
G04 #@! TA.AperFunction,SMDPad,CuDef*
G36*
G01*
X106896100Y-81674440D02*
X106556100Y-81674440D01*
G75*
G02*
X106416100Y-81534440I0J140000D01*
G01*
X106416100Y-81254440D01*
G75*
G02*
X106556100Y-81114440I140000J0D01*
G01*
X106896100Y-81114440D01*
G75*
G02*
X107036100Y-81254440I0J-140000D01*
G01*
X107036100Y-81534440D01*
G75*
G02*
X106896100Y-81674440I-140000J0D01*
G01*
G37*
G04 #@! TD.AperFunction*
G04 #@! TA.AperFunction,SMDPad,CuDef*
G36*
G01*
X103741000Y-92375400D02*
X104081000Y-92375400D01*
G75*
G02*
X104221000Y-92515400I0J-140000D01*
G01*
X104221000Y-92795400D01*
G75*
G02*
X104081000Y-92935400I-140000J0D01*
G01*
X103741000Y-92935400D01*
G75*
G02*
X103601000Y-92795400I0J140000D01*
G01*
X103601000Y-92515400D01*
G75*
G02*
X103741000Y-92375400I140000J0D01*
G01*
G37*
G04 #@! TD.AperFunction*
G04 #@! TA.AperFunction,SMDPad,CuDef*
G36*
G01*
X103741000Y-91415400D02*
X104081000Y-91415400D01*
G75*
G02*
X104221000Y-91555400I0J-140000D01*
G01*
X104221000Y-91835400D01*
G75*
G02*
X104081000Y-91975400I-140000J0D01*
G01*
X103741000Y-91975400D01*
G75*
G02*
X103601000Y-91835400I0J140000D01*
G01*
X103601000Y-91555400D01*
G75*
G02*
X103741000Y-91415400I140000J0D01*
G01*
G37*
G04 #@! TD.AperFunction*
G04 #@! TA.AperFunction,SMDPad,CuDef*
G36*
G01*
X110810000Y-87545000D02*
X110810000Y-87205000D01*
G75*
G02*
X110950000Y-87065000I140000J0D01*
G01*
X111230000Y-87065000D01*
G75*
G02*
X111370000Y-87205000I0J-140000D01*
G01*
X111370000Y-87545000D01*
G75*
G02*
X111230000Y-87685000I-140000J0D01*
G01*
X110950000Y-87685000D01*
G75*
G02*
X110810000Y-87545000I0J140000D01*
G01*
G37*
G04 #@! TD.AperFunction*
G04 #@! TA.AperFunction,SMDPad,CuDef*
G36*
G01*
X109850000Y-87545000D02*
X109850000Y-87205000D01*
G75*
G02*
X109990000Y-87065000I140000J0D01*
G01*
X110270000Y-87065000D01*
G75*
G02*
X110410000Y-87205000I0J-140000D01*
G01*
X110410000Y-87545000D01*
G75*
G02*
X110270000Y-87685000I-140000J0D01*
G01*
X109990000Y-87685000D01*
G75*
G02*
X109850000Y-87545000I0J140000D01*
G01*
G37*
G04 #@! TD.AperFunction*
G04 #@! TA.AperFunction,SMDPad,CuDef*
G36*
G01*
X104214760Y-78663960D02*
X104554760Y-78663960D01*
G75*
G02*
X104694760Y-78803960I0J-140000D01*
G01*
X104694760Y-79083960D01*
G75*
G02*
X104554760Y-79223960I-140000J0D01*
G01*
X104214760Y-79223960D01*
G75*
G02*
X104074760Y-79083960I0J140000D01*
G01*
X104074760Y-78803960D01*
G75*
G02*
X104214760Y-78663960I140000J0D01*
G01*
G37*
G04 #@! TD.AperFunction*
G04 #@! TA.AperFunction,SMDPad,CuDef*
G36*
G01*
X104214760Y-77703960D02*
X104554760Y-77703960D01*
G75*
G02*
X104694760Y-77843960I0J-140000D01*
G01*
X104694760Y-78123960D01*
G75*
G02*
X104554760Y-78263960I-140000J0D01*
G01*
X104214760Y-78263960D01*
G75*
G02*
X104074760Y-78123960I0J140000D01*
G01*
X104074760Y-77843960D01*
G75*
G02*
X104214760Y-77703960I140000J0D01*
G01*
G37*
G04 #@! TD.AperFunction*
G04 #@! TA.AperFunction,SMDPad,CuDef*
G36*
G01*
X98857000Y-76470100D02*
X98517000Y-76470100D01*
G75*
G02*
X98377000Y-76330100I0J140000D01*
G01*
X98377000Y-76050100D01*
G75*
G02*
X98517000Y-75910100I140000J0D01*
G01*
X98857000Y-75910100D01*
G75*
G02*
X98997000Y-76050100I0J-140000D01*
G01*
X98997000Y-76330100D01*
G75*
G02*
X98857000Y-76470100I-140000J0D01*
G01*
G37*
G04 #@! TD.AperFunction*
G04 #@! TA.AperFunction,SMDPad,CuDef*
G36*
G01*
X98857000Y-77430100D02*
X98517000Y-77430100D01*
G75*
G02*
X98377000Y-77290100I0J140000D01*
G01*
X98377000Y-77010100D01*
G75*
G02*
X98517000Y-76870100I140000J0D01*
G01*
X98857000Y-76870100D01*
G75*
G02*
X98997000Y-77010100I0J-140000D01*
G01*
X98997000Y-77290100D01*
G75*
G02*
X98857000Y-77430100I-140000J0D01*
G01*
G37*
G04 #@! TD.AperFunction*
G04 #@! TA.AperFunction,SMDPad,CuDef*
G36*
G01*
X98400000Y-82480000D02*
X98400000Y-82820000D01*
G75*
G02*
X98260000Y-82960000I-140000J0D01*
G01*
X97980000Y-82960000D01*
G75*
G02*
X97840000Y-82820000I0J140000D01*
G01*
X97840000Y-82480000D01*
G75*
G02*
X97980000Y-82340000I140000J0D01*
G01*
X98260000Y-82340000D01*
G75*
G02*
X98400000Y-82480000I0J-140000D01*
G01*
G37*
G04 #@! TD.AperFunction*
G04 #@! TA.AperFunction,SMDPad,CuDef*
G36*
G01*
X99360000Y-82480000D02*
X99360000Y-82820000D01*
G75*
G02*
X99220000Y-82960000I-140000J0D01*
G01*
X98940000Y-82960000D01*
G75*
G02*
X98800000Y-82820000I0J140000D01*
G01*
X98800000Y-82480000D01*
G75*
G02*
X98940000Y-82340000I140000J0D01*
G01*
X99220000Y-82340000D01*
G75*
G02*
X99360000Y-82480000I0J-140000D01*
G01*
G37*
G04 #@! TD.AperFunction*
G04 #@! TA.AperFunction,SMDPad,CuDef*
G36*
G01*
X104830000Y-92375000D02*
X105170000Y-92375000D01*
G75*
G02*
X105310000Y-92515000I0J-140000D01*
G01*
X105310000Y-92795000D01*
G75*
G02*
X105170000Y-92935000I-140000J0D01*
G01*
X104830000Y-92935000D01*
G75*
G02*
X104690000Y-92795000I0J140000D01*
G01*
X104690000Y-92515000D01*
G75*
G02*
X104830000Y-92375000I140000J0D01*
G01*
G37*
G04 #@! TD.AperFunction*
G04 #@! TA.AperFunction,SMDPad,CuDef*
G36*
G01*
X104830000Y-91415000D02*
X105170000Y-91415000D01*
G75*
G02*
X105310000Y-91555000I0J-140000D01*
G01*
X105310000Y-91835000D01*
G75*
G02*
X105170000Y-91975000I-140000J0D01*
G01*
X104830000Y-91975000D01*
G75*
G02*
X104690000Y-91835000I0J140000D01*
G01*
X104690000Y-91555000D01*
G75*
G02*
X104830000Y-91415000I140000J0D01*
G01*
G37*
G04 #@! TD.AperFunction*
G04 #@! TA.AperFunction,SMDPad,CuDef*
G36*
G01*
X108720000Y-85240000D02*
X108720000Y-85610000D01*
G75*
G02*
X108585000Y-85745000I-135000J0D01*
G01*
X108315000Y-85745000D01*
G75*
G02*
X108180000Y-85610000I0J135000D01*
G01*
X108180000Y-85240000D01*
G75*
G02*
X108315000Y-85105000I135000J0D01*
G01*
X108585000Y-85105000D01*
G75*
G02*
X108720000Y-85240000I0J-135000D01*
G01*
G37*
G04 #@! TD.AperFunction*
G04 #@! TA.AperFunction,SMDPad,CuDef*
G36*
G01*
X109740000Y-85240000D02*
X109740000Y-85610000D01*
G75*
G02*
X109605000Y-85745000I-135000J0D01*
G01*
X109335000Y-85745000D01*
G75*
G02*
X109200000Y-85610000I0J135000D01*
G01*
X109200000Y-85240000D01*
G75*
G02*
X109335000Y-85105000I135000J0D01*
G01*
X109605000Y-85105000D01*
G75*
G02*
X109740000Y-85240000I0J-135000D01*
G01*
G37*
G04 #@! TD.AperFunction*
G04 #@! TA.AperFunction,SMDPad,CuDef*
G36*
G01*
X110267500Y-85615000D02*
X110612500Y-85615000D01*
G75*
G02*
X110760000Y-85762500I0J-147500D01*
G01*
X110760000Y-86057500D01*
G75*
G02*
X110612500Y-86205000I-147500J0D01*
G01*
X110267500Y-86205000D01*
G75*
G02*
X110120000Y-86057500I0J147500D01*
G01*
X110120000Y-85762500D01*
G75*
G02*
X110267500Y-85615000I147500J0D01*
G01*
G37*
G04 #@! TD.AperFunction*
G04 #@! TA.AperFunction,SMDPad,CuDef*
G36*
G01*
X110267500Y-84645000D02*
X110612500Y-84645000D01*
G75*
G02*
X110760000Y-84792500I0J-147500D01*
G01*
X110760000Y-85087500D01*
G75*
G02*
X110612500Y-85235000I-147500J0D01*
G01*
X110267500Y-85235000D01*
G75*
G02*
X110120000Y-85087500I0J147500D01*
G01*
X110120000Y-84792500D01*
G75*
G02*
X110267500Y-84645000I147500J0D01*
G01*
G37*
G04 #@! TD.AperFunction*
G04 #@! TA.AperFunction,SMDPad,CuDef*
G36*
G01*
X100990000Y-82975000D02*
X100990000Y-82200000D01*
G75*
G02*
X101040000Y-82150000I50000J0D01*
G01*
X101140000Y-82150000D01*
G75*
G02*
X101190000Y-82200000I0J-50000D01*
G01*
X101190000Y-82975000D01*
G75*
G02*
X101140000Y-83025000I-50000J0D01*
G01*
X101040000Y-83025000D01*
G75*
G02*
X100990000Y-82975000I0J50000D01*
G01*
G37*
G04 #@! TD.AperFunction*
G04 #@! TA.AperFunction,SMDPad,CuDef*
G36*
G01*
X101390000Y-82975000D02*
X101390000Y-82200000D01*
G75*
G02*
X101440000Y-82150000I50000J0D01*
G01*
X101540000Y-82150000D01*
G75*
G02*
X101590000Y-82200000I0J-50000D01*
G01*
X101590000Y-82975000D01*
G75*
G02*
X101540000Y-83025000I-50000J0D01*
G01*
X101440000Y-83025000D01*
G75*
G02*
X101390000Y-82975000I0J50000D01*
G01*
G37*
G04 #@! TD.AperFunction*
G04 #@! TA.AperFunction,SMDPad,CuDef*
G36*
G01*
X101790000Y-82975000D02*
X101790000Y-82200000D01*
G75*
G02*
X101840000Y-82150000I50000J0D01*
G01*
X101940000Y-82150000D01*
G75*
G02*
X101990000Y-82200000I0J-50000D01*
G01*
X101990000Y-82975000D01*
G75*
G02*
X101940000Y-83025000I-50000J0D01*
G01*
X101840000Y-83025000D01*
G75*
G02*
X101790000Y-82975000I0J50000D01*
G01*
G37*
G04 #@! TD.AperFunction*
G04 #@! TA.AperFunction,SMDPad,CuDef*
G36*
G01*
X102190000Y-82975000D02*
X102190000Y-82200000D01*
G75*
G02*
X102240000Y-82150000I50000J0D01*
G01*
X102340000Y-82150000D01*
G75*
G02*
X102390000Y-82200000I0J-50000D01*
G01*
X102390000Y-82975000D01*
G75*
G02*
X102340000Y-83025000I-50000J0D01*
G01*
X102240000Y-83025000D01*
G75*
G02*
X102190000Y-82975000I0J50000D01*
G01*
G37*
G04 #@! TD.AperFunction*
G04 #@! TA.AperFunction,SMDPad,CuDef*
G36*
G01*
X102590000Y-82975000D02*
X102590000Y-82200000D01*
G75*
G02*
X102640000Y-82150000I50000J0D01*
G01*
X102740000Y-82150000D01*
G75*
G02*
X102790000Y-82200000I0J-50000D01*
G01*
X102790000Y-82975000D01*
G75*
G02*
X102740000Y-83025000I-50000J0D01*
G01*
X102640000Y-83025000D01*
G75*
G02*
X102590000Y-82975000I0J50000D01*
G01*
G37*
G04 #@! TD.AperFunction*
G04 #@! TA.AperFunction,SMDPad,CuDef*
G36*
G01*
X102990000Y-82975000D02*
X102990000Y-82200000D01*
G75*
G02*
X103040000Y-82150000I50000J0D01*
G01*
X103140000Y-82150000D01*
G75*
G02*
X103190000Y-82200000I0J-50000D01*
G01*
X103190000Y-82975000D01*
G75*
G02*
X103140000Y-83025000I-50000J0D01*
G01*
X103040000Y-83025000D01*
G75*
G02*
X102990000Y-82975000I0J50000D01*
G01*
G37*
G04 #@! TD.AperFunction*
G04 #@! TA.AperFunction,SMDPad,CuDef*
G36*
G01*
X103390000Y-82975000D02*
X103390000Y-82200000D01*
G75*
G02*
X103440000Y-82150000I50000J0D01*
G01*
X103540000Y-82150000D01*
G75*
G02*
X103590000Y-82200000I0J-50000D01*
G01*
X103590000Y-82975000D01*
G75*
G02*
X103540000Y-83025000I-50000J0D01*
G01*
X103440000Y-83025000D01*
G75*
G02*
X103390000Y-82975000I0J50000D01*
G01*
G37*
G04 #@! TD.AperFunction*
G04 #@! TA.AperFunction,SMDPad,CuDef*
G36*
G01*
X103790000Y-82975000D02*
X103790000Y-82200000D01*
G75*
G02*
X103840000Y-82150000I50000J0D01*
G01*
X103940000Y-82150000D01*
G75*
G02*
X103990000Y-82200000I0J-50000D01*
G01*
X103990000Y-82975000D01*
G75*
G02*
X103940000Y-83025000I-50000J0D01*
G01*
X103840000Y-83025000D01*
G75*
G02*
X103790000Y-82975000I0J50000D01*
G01*
G37*
G04 #@! TD.AperFunction*
G04 #@! TA.AperFunction,SMDPad,CuDef*
G36*
G01*
X104190000Y-82975000D02*
X104190000Y-82200000D01*
G75*
G02*
X104240000Y-82150000I50000J0D01*
G01*
X104340000Y-82150000D01*
G75*
G02*
X104390000Y-82200000I0J-50000D01*
G01*
X104390000Y-82975000D01*
G75*
G02*
X104340000Y-83025000I-50000J0D01*
G01*
X104240000Y-83025000D01*
G75*
G02*
X104190000Y-82975000I0J50000D01*
G01*
G37*
G04 #@! TD.AperFunction*
G04 #@! TA.AperFunction,SMDPad,CuDef*
G36*
G01*
X104590000Y-82975000D02*
X104590000Y-82200000D01*
G75*
G02*
X104640000Y-82150000I50000J0D01*
G01*
X104740000Y-82150000D01*
G75*
G02*
X104790000Y-82200000I0J-50000D01*
G01*
X104790000Y-82975000D01*
G75*
G02*
X104740000Y-83025000I-50000J0D01*
G01*
X104640000Y-83025000D01*
G75*
G02*
X104590000Y-82975000I0J50000D01*
G01*
G37*
G04 #@! TD.AperFunction*
G04 #@! TA.AperFunction,SMDPad,CuDef*
G36*
G01*
X104990000Y-82975000D02*
X104990000Y-82200000D01*
G75*
G02*
X105040000Y-82150000I50000J0D01*
G01*
X105140000Y-82150000D01*
G75*
G02*
X105190000Y-82200000I0J-50000D01*
G01*
X105190000Y-82975000D01*
G75*
G02*
X105140000Y-83025000I-50000J0D01*
G01*
X105040000Y-83025000D01*
G75*
G02*
X104990000Y-82975000I0J50000D01*
G01*
G37*
G04 #@! TD.AperFunction*
G04 #@! TA.AperFunction,SMDPad,CuDef*
G36*
G01*
X105390000Y-82975000D02*
X105390000Y-82200000D01*
G75*
G02*
X105440000Y-82150000I50000J0D01*
G01*
X105540000Y-82150000D01*
G75*
G02*
X105590000Y-82200000I0J-50000D01*
G01*
X105590000Y-82975000D01*
G75*
G02*
X105540000Y-83025000I-50000J0D01*
G01*
X105440000Y-83025000D01*
G75*
G02*
X105390000Y-82975000I0J50000D01*
G01*
G37*
G04 #@! TD.AperFunction*
G04 #@! TA.AperFunction,SMDPad,CuDef*
G36*
G01*
X105790000Y-82975000D02*
X105790000Y-82200000D01*
G75*
G02*
X105840000Y-82150000I50000J0D01*
G01*
X105940000Y-82150000D01*
G75*
G02*
X105990000Y-82200000I0J-50000D01*
G01*
X105990000Y-82975000D01*
G75*
G02*
X105940000Y-83025000I-50000J0D01*
G01*
X105840000Y-83025000D01*
G75*
G02*
X105790000Y-82975000I0J50000D01*
G01*
G37*
G04 #@! TD.AperFunction*
G04 #@! TA.AperFunction,SMDPad,CuDef*
G36*
G01*
X106190000Y-82975000D02*
X106190000Y-82200000D01*
G75*
G02*
X106240000Y-82150000I50000J0D01*
G01*
X106340000Y-82150000D01*
G75*
G02*
X106390000Y-82200000I0J-50000D01*
G01*
X106390000Y-82975000D01*
G75*
G02*
X106340000Y-83025000I-50000J0D01*
G01*
X106240000Y-83025000D01*
G75*
G02*
X106190000Y-82975000I0J50000D01*
G01*
G37*
G04 #@! TD.AperFunction*
G04 #@! TA.AperFunction,SMDPad,CuDef*
G36*
G01*
X106690000Y-83475000D02*
X106690000Y-83375000D01*
G75*
G02*
X106740000Y-83325000I50000J0D01*
G01*
X107515000Y-83325000D01*
G75*
G02*
X107565000Y-83375000I0J-50000D01*
G01*
X107565000Y-83475000D01*
G75*
G02*
X107515000Y-83525000I-50000J0D01*
G01*
X106740000Y-83525000D01*
G75*
G02*
X106690000Y-83475000I0J50000D01*
G01*
G37*
G04 #@! TD.AperFunction*
G04 #@! TA.AperFunction,SMDPad,CuDef*
G36*
G01*
X106690000Y-83875000D02*
X106690000Y-83775000D01*
G75*
G02*
X106740000Y-83725000I50000J0D01*
G01*
X107515000Y-83725000D01*
G75*
G02*
X107565000Y-83775000I0J-50000D01*
G01*
X107565000Y-83875000D01*
G75*
G02*
X107515000Y-83925000I-50000J0D01*
G01*
X106740000Y-83925000D01*
G75*
G02*
X106690000Y-83875000I0J50000D01*
G01*
G37*
G04 #@! TD.AperFunction*
G04 #@! TA.AperFunction,SMDPad,CuDef*
G36*
G01*
X106690000Y-84275000D02*
X106690000Y-84175000D01*
G75*
G02*
X106740000Y-84125000I50000J0D01*
G01*
X107515000Y-84125000D01*
G75*
G02*
X107565000Y-84175000I0J-50000D01*
G01*
X107565000Y-84275000D01*
G75*
G02*
X107515000Y-84325000I-50000J0D01*
G01*
X106740000Y-84325000D01*
G75*
G02*
X106690000Y-84275000I0J50000D01*
G01*
G37*
G04 #@! TD.AperFunction*
G04 #@! TA.AperFunction,SMDPad,CuDef*
G36*
G01*
X106690000Y-84675000D02*
X106690000Y-84575000D01*
G75*
G02*
X106740000Y-84525000I50000J0D01*
G01*
X107515000Y-84525000D01*
G75*
G02*
X107565000Y-84575000I0J-50000D01*
G01*
X107565000Y-84675000D01*
G75*
G02*
X107515000Y-84725000I-50000J0D01*
G01*
X106740000Y-84725000D01*
G75*
G02*
X106690000Y-84675000I0J50000D01*
G01*
G37*
G04 #@! TD.AperFunction*
G04 #@! TA.AperFunction,SMDPad,CuDef*
G36*
G01*
X106690000Y-85075000D02*
X106690000Y-84975000D01*
G75*
G02*
X106740000Y-84925000I50000J0D01*
G01*
X107515000Y-84925000D01*
G75*
G02*
X107565000Y-84975000I0J-50000D01*
G01*
X107565000Y-85075000D01*
G75*
G02*
X107515000Y-85125000I-50000J0D01*
G01*
X106740000Y-85125000D01*
G75*
G02*
X106690000Y-85075000I0J50000D01*
G01*
G37*
G04 #@! TD.AperFunction*
G04 #@! TA.AperFunction,SMDPad,CuDef*
G36*
G01*
X106690000Y-85475000D02*
X106690000Y-85375000D01*
G75*
G02*
X106740000Y-85325000I50000J0D01*
G01*
X107515000Y-85325000D01*
G75*
G02*
X107565000Y-85375000I0J-50000D01*
G01*
X107565000Y-85475000D01*
G75*
G02*
X107515000Y-85525000I-50000J0D01*
G01*
X106740000Y-85525000D01*
G75*
G02*
X106690000Y-85475000I0J50000D01*
G01*
G37*
G04 #@! TD.AperFunction*
G04 #@! TA.AperFunction,SMDPad,CuDef*
G36*
G01*
X106690000Y-85875000D02*
X106690000Y-85775000D01*
G75*
G02*
X106740000Y-85725000I50000J0D01*
G01*
X107515000Y-85725000D01*
G75*
G02*
X107565000Y-85775000I0J-50000D01*
G01*
X107565000Y-85875000D01*
G75*
G02*
X107515000Y-85925000I-50000J0D01*
G01*
X106740000Y-85925000D01*
G75*
G02*
X106690000Y-85875000I0J50000D01*
G01*
G37*
G04 #@! TD.AperFunction*
G04 #@! TA.AperFunction,SMDPad,CuDef*
G36*
G01*
X106690000Y-86275000D02*
X106690000Y-86175000D01*
G75*
G02*
X106740000Y-86125000I50000J0D01*
G01*
X107515000Y-86125000D01*
G75*
G02*
X107565000Y-86175000I0J-50000D01*
G01*
X107565000Y-86275000D01*
G75*
G02*
X107515000Y-86325000I-50000J0D01*
G01*
X106740000Y-86325000D01*
G75*
G02*
X106690000Y-86275000I0J50000D01*
G01*
G37*
G04 #@! TD.AperFunction*
G04 #@! TA.AperFunction,SMDPad,CuDef*
G36*
G01*
X106690000Y-86675000D02*
X106690000Y-86575000D01*
G75*
G02*
X106740000Y-86525000I50000J0D01*
G01*
X107515000Y-86525000D01*
G75*
G02*
X107565000Y-86575000I0J-50000D01*
G01*
X107565000Y-86675000D01*
G75*
G02*
X107515000Y-86725000I-50000J0D01*
G01*
X106740000Y-86725000D01*
G75*
G02*
X106690000Y-86675000I0J50000D01*
G01*
G37*
G04 #@! TD.AperFunction*
G04 #@! TA.AperFunction,SMDPad,CuDef*
G36*
G01*
X106690000Y-87075000D02*
X106690000Y-86975000D01*
G75*
G02*
X106740000Y-86925000I50000J0D01*
G01*
X107515000Y-86925000D01*
G75*
G02*
X107565000Y-86975000I0J-50000D01*
G01*
X107565000Y-87075000D01*
G75*
G02*
X107515000Y-87125000I-50000J0D01*
G01*
X106740000Y-87125000D01*
G75*
G02*
X106690000Y-87075000I0J50000D01*
G01*
G37*
G04 #@! TD.AperFunction*
G04 #@! TA.AperFunction,SMDPad,CuDef*
G36*
G01*
X106690000Y-87475000D02*
X106690000Y-87375000D01*
G75*
G02*
X106740000Y-87325000I50000J0D01*
G01*
X107515000Y-87325000D01*
G75*
G02*
X107565000Y-87375000I0J-50000D01*
G01*
X107565000Y-87475000D01*
G75*
G02*
X107515000Y-87525000I-50000J0D01*
G01*
X106740000Y-87525000D01*
G75*
G02*
X106690000Y-87475000I0J50000D01*
G01*
G37*
G04 #@! TD.AperFunction*
G04 #@! TA.AperFunction,SMDPad,CuDef*
G36*
G01*
X106690000Y-87875000D02*
X106690000Y-87775000D01*
G75*
G02*
X106740000Y-87725000I50000J0D01*
G01*
X107515000Y-87725000D01*
G75*
G02*
X107565000Y-87775000I0J-50000D01*
G01*
X107565000Y-87875000D01*
G75*
G02*
X107515000Y-87925000I-50000J0D01*
G01*
X106740000Y-87925000D01*
G75*
G02*
X106690000Y-87875000I0J50000D01*
G01*
G37*
G04 #@! TD.AperFunction*
G04 #@! TA.AperFunction,SMDPad,CuDef*
G36*
G01*
X106690000Y-88275000D02*
X106690000Y-88175000D01*
G75*
G02*
X106740000Y-88125000I50000J0D01*
G01*
X107515000Y-88125000D01*
G75*
G02*
X107565000Y-88175000I0J-50000D01*
G01*
X107565000Y-88275000D01*
G75*
G02*
X107515000Y-88325000I-50000J0D01*
G01*
X106740000Y-88325000D01*
G75*
G02*
X106690000Y-88275000I0J50000D01*
G01*
G37*
G04 #@! TD.AperFunction*
G04 #@! TA.AperFunction,SMDPad,CuDef*
G36*
G01*
X106690000Y-88675000D02*
X106690000Y-88575000D01*
G75*
G02*
X106740000Y-88525000I50000J0D01*
G01*
X107515000Y-88525000D01*
G75*
G02*
X107565000Y-88575000I0J-50000D01*
G01*
X107565000Y-88675000D01*
G75*
G02*
X107515000Y-88725000I-50000J0D01*
G01*
X106740000Y-88725000D01*
G75*
G02*
X106690000Y-88675000I0J50000D01*
G01*
G37*
G04 #@! TD.AperFunction*
G04 #@! TA.AperFunction,SMDPad,CuDef*
G36*
G01*
X106190000Y-89850000D02*
X106190000Y-89075000D01*
G75*
G02*
X106240000Y-89025000I50000J0D01*
G01*
X106340000Y-89025000D01*
G75*
G02*
X106390000Y-89075000I0J-50000D01*
G01*
X106390000Y-89850000D01*
G75*
G02*
X106340000Y-89900000I-50000J0D01*
G01*
X106240000Y-89900000D01*
G75*
G02*
X106190000Y-89850000I0J50000D01*
G01*
G37*
G04 #@! TD.AperFunction*
G04 #@! TA.AperFunction,SMDPad,CuDef*
G36*
G01*
X105790000Y-89850000D02*
X105790000Y-89075000D01*
G75*
G02*
X105840000Y-89025000I50000J0D01*
G01*
X105940000Y-89025000D01*
G75*
G02*
X105990000Y-89075000I0J-50000D01*
G01*
X105990000Y-89850000D01*
G75*
G02*
X105940000Y-89900000I-50000J0D01*
G01*
X105840000Y-89900000D01*
G75*
G02*
X105790000Y-89850000I0J50000D01*
G01*
G37*
G04 #@! TD.AperFunction*
G04 #@! TA.AperFunction,SMDPad,CuDef*
G36*
G01*
X105390000Y-89850000D02*
X105390000Y-89075000D01*
G75*
G02*
X105440000Y-89025000I50000J0D01*
G01*
X105540000Y-89025000D01*
G75*
G02*
X105590000Y-89075000I0J-50000D01*
G01*
X105590000Y-89850000D01*
G75*
G02*
X105540000Y-89900000I-50000J0D01*
G01*
X105440000Y-89900000D01*
G75*
G02*
X105390000Y-89850000I0J50000D01*
G01*
G37*
G04 #@! TD.AperFunction*
G04 #@! TA.AperFunction,SMDPad,CuDef*
G36*
G01*
X104990000Y-89850000D02*
X104990000Y-89075000D01*
G75*
G02*
X105040000Y-89025000I50000J0D01*
G01*
X105140000Y-89025000D01*
G75*
G02*
X105190000Y-89075000I0J-50000D01*
G01*
X105190000Y-89850000D01*
G75*
G02*
X105140000Y-89900000I-50000J0D01*
G01*
X105040000Y-89900000D01*
G75*
G02*
X104990000Y-89850000I0J50000D01*
G01*
G37*
G04 #@! TD.AperFunction*
G04 #@! TA.AperFunction,SMDPad,CuDef*
G36*
G01*
X104590000Y-89850000D02*
X104590000Y-89075000D01*
G75*
G02*
X104640000Y-89025000I50000J0D01*
G01*
X104740000Y-89025000D01*
G75*
G02*
X104790000Y-89075000I0J-50000D01*
G01*
X104790000Y-89850000D01*
G75*
G02*
X104740000Y-89900000I-50000J0D01*
G01*
X104640000Y-89900000D01*
G75*
G02*
X104590000Y-89850000I0J50000D01*
G01*
G37*
G04 #@! TD.AperFunction*
G04 #@! TA.AperFunction,SMDPad,CuDef*
G36*
G01*
X104190000Y-89850000D02*
X104190000Y-89075000D01*
G75*
G02*
X104240000Y-89025000I50000J0D01*
G01*
X104340000Y-89025000D01*
G75*
G02*
X104390000Y-89075000I0J-50000D01*
G01*
X104390000Y-89850000D01*
G75*
G02*
X104340000Y-89900000I-50000J0D01*
G01*
X104240000Y-89900000D01*
G75*
G02*
X104190000Y-89850000I0J50000D01*
G01*
G37*
G04 #@! TD.AperFunction*
G04 #@! TA.AperFunction,SMDPad,CuDef*
G36*
G01*
X103790000Y-89850000D02*
X103790000Y-89075000D01*
G75*
G02*
X103840000Y-89025000I50000J0D01*
G01*
X103940000Y-89025000D01*
G75*
G02*
X103990000Y-89075000I0J-50000D01*
G01*
X103990000Y-89850000D01*
G75*
G02*
X103940000Y-89900000I-50000J0D01*
G01*
X103840000Y-89900000D01*
G75*
G02*
X103790000Y-89850000I0J50000D01*
G01*
G37*
G04 #@! TD.AperFunction*
G04 #@! TA.AperFunction,SMDPad,CuDef*
G36*
G01*
X103390000Y-89850000D02*
X103390000Y-89075000D01*
G75*
G02*
X103440000Y-89025000I50000J0D01*
G01*
X103540000Y-89025000D01*
G75*
G02*
X103590000Y-89075000I0J-50000D01*
G01*
X103590000Y-89850000D01*
G75*
G02*
X103540000Y-89900000I-50000J0D01*
G01*
X103440000Y-89900000D01*
G75*
G02*
X103390000Y-89850000I0J50000D01*
G01*
G37*
G04 #@! TD.AperFunction*
G04 #@! TA.AperFunction,SMDPad,CuDef*
G36*
G01*
X102990000Y-89850000D02*
X102990000Y-89075000D01*
G75*
G02*
X103040000Y-89025000I50000J0D01*
G01*
X103140000Y-89025000D01*
G75*
G02*
X103190000Y-89075000I0J-50000D01*
G01*
X103190000Y-89850000D01*
G75*
G02*
X103140000Y-89900000I-50000J0D01*
G01*
X103040000Y-89900000D01*
G75*
G02*
X102990000Y-89850000I0J50000D01*
G01*
G37*
G04 #@! TD.AperFunction*
G04 #@! TA.AperFunction,SMDPad,CuDef*
G36*
G01*
X102590000Y-89850000D02*
X102590000Y-89075000D01*
G75*
G02*
X102640000Y-89025000I50000J0D01*
G01*
X102740000Y-89025000D01*
G75*
G02*
X102790000Y-89075000I0J-50000D01*
G01*
X102790000Y-89850000D01*
G75*
G02*
X102740000Y-89900000I-50000J0D01*
G01*
X102640000Y-89900000D01*
G75*
G02*
X102590000Y-89850000I0J50000D01*
G01*
G37*
G04 #@! TD.AperFunction*
G04 #@! TA.AperFunction,SMDPad,CuDef*
G36*
G01*
X102190000Y-89850000D02*
X102190000Y-89075000D01*
G75*
G02*
X102240000Y-89025000I50000J0D01*
G01*
X102340000Y-89025000D01*
G75*
G02*
X102390000Y-89075000I0J-50000D01*
G01*
X102390000Y-89850000D01*
G75*
G02*
X102340000Y-89900000I-50000J0D01*
G01*
X102240000Y-89900000D01*
G75*
G02*
X102190000Y-89850000I0J50000D01*
G01*
G37*
G04 #@! TD.AperFunction*
G04 #@! TA.AperFunction,SMDPad,CuDef*
G36*
G01*
X101790000Y-89850000D02*
X101790000Y-89075000D01*
G75*
G02*
X101840000Y-89025000I50000J0D01*
G01*
X101940000Y-89025000D01*
G75*
G02*
X101990000Y-89075000I0J-50000D01*
G01*
X101990000Y-89850000D01*
G75*
G02*
X101940000Y-89900000I-50000J0D01*
G01*
X101840000Y-89900000D01*
G75*
G02*
X101790000Y-89850000I0J50000D01*
G01*
G37*
G04 #@! TD.AperFunction*
G04 #@! TA.AperFunction,SMDPad,CuDef*
G36*
G01*
X101390000Y-89850000D02*
X101390000Y-89075000D01*
G75*
G02*
X101440000Y-89025000I50000J0D01*
G01*
X101540000Y-89025000D01*
G75*
G02*
X101590000Y-89075000I0J-50000D01*
G01*
X101590000Y-89850000D01*
G75*
G02*
X101540000Y-89900000I-50000J0D01*
G01*
X101440000Y-89900000D01*
G75*
G02*
X101390000Y-89850000I0J50000D01*
G01*
G37*
G04 #@! TD.AperFunction*
G04 #@! TA.AperFunction,SMDPad,CuDef*
G36*
G01*
X100990000Y-89850000D02*
X100990000Y-89075000D01*
G75*
G02*
X101040000Y-89025000I50000J0D01*
G01*
X101140000Y-89025000D01*
G75*
G02*
X101190000Y-89075000I0J-50000D01*
G01*
X101190000Y-89850000D01*
G75*
G02*
X101140000Y-89900000I-50000J0D01*
G01*
X101040000Y-89900000D01*
G75*
G02*
X100990000Y-89850000I0J50000D01*
G01*
G37*
G04 #@! TD.AperFunction*
G04 #@! TA.AperFunction,SMDPad,CuDef*
G36*
G01*
X99815000Y-88675000D02*
X99815000Y-88575000D01*
G75*
G02*
X99865000Y-88525000I50000J0D01*
G01*
X100640000Y-88525000D01*
G75*
G02*
X100690000Y-88575000I0J-50000D01*
G01*
X100690000Y-88675000D01*
G75*
G02*
X100640000Y-88725000I-50000J0D01*
G01*
X99865000Y-88725000D01*
G75*
G02*
X99815000Y-88675000I0J50000D01*
G01*
G37*
G04 #@! TD.AperFunction*
G04 #@! TA.AperFunction,SMDPad,CuDef*
G36*
G01*
X99815000Y-88275000D02*
X99815000Y-88175000D01*
G75*
G02*
X99865000Y-88125000I50000J0D01*
G01*
X100640000Y-88125000D01*
G75*
G02*
X100690000Y-88175000I0J-50000D01*
G01*
X100690000Y-88275000D01*
G75*
G02*
X100640000Y-88325000I-50000J0D01*
G01*
X99865000Y-88325000D01*
G75*
G02*
X99815000Y-88275000I0J50000D01*
G01*
G37*
G04 #@! TD.AperFunction*
G04 #@! TA.AperFunction,SMDPad,CuDef*
G36*
G01*
X99815000Y-87875000D02*
X99815000Y-87775000D01*
G75*
G02*
X99865000Y-87725000I50000J0D01*
G01*
X100640000Y-87725000D01*
G75*
G02*
X100690000Y-87775000I0J-50000D01*
G01*
X100690000Y-87875000D01*
G75*
G02*
X100640000Y-87925000I-50000J0D01*
G01*
X99865000Y-87925000D01*
G75*
G02*
X99815000Y-87875000I0J50000D01*
G01*
G37*
G04 #@! TD.AperFunction*
G04 #@! TA.AperFunction,SMDPad,CuDef*
G36*
G01*
X99815000Y-87475000D02*
X99815000Y-87375000D01*
G75*
G02*
X99865000Y-87325000I50000J0D01*
G01*
X100640000Y-87325000D01*
G75*
G02*
X100690000Y-87375000I0J-50000D01*
G01*
X100690000Y-87475000D01*
G75*
G02*
X100640000Y-87525000I-50000J0D01*
G01*
X99865000Y-87525000D01*
G75*
G02*
X99815000Y-87475000I0J50000D01*
G01*
G37*
G04 #@! TD.AperFunction*
G04 #@! TA.AperFunction,SMDPad,CuDef*
G36*
G01*
X99815000Y-87075000D02*
X99815000Y-86975000D01*
G75*
G02*
X99865000Y-86925000I50000J0D01*
G01*
X100640000Y-86925000D01*
G75*
G02*
X100690000Y-86975000I0J-50000D01*
G01*
X100690000Y-87075000D01*
G75*
G02*
X100640000Y-87125000I-50000J0D01*
G01*
X99865000Y-87125000D01*
G75*
G02*
X99815000Y-87075000I0J50000D01*
G01*
G37*
G04 #@! TD.AperFunction*
G04 #@! TA.AperFunction,SMDPad,CuDef*
G36*
G01*
X99815000Y-86675000D02*
X99815000Y-86575000D01*
G75*
G02*
X99865000Y-86525000I50000J0D01*
G01*
X100640000Y-86525000D01*
G75*
G02*
X100690000Y-86575000I0J-50000D01*
G01*
X100690000Y-86675000D01*
G75*
G02*
X100640000Y-86725000I-50000J0D01*
G01*
X99865000Y-86725000D01*
G75*
G02*
X99815000Y-86675000I0J50000D01*
G01*
G37*
G04 #@! TD.AperFunction*
G04 #@! TA.AperFunction,SMDPad,CuDef*
G36*
G01*
X99815000Y-86275000D02*
X99815000Y-86175000D01*
G75*
G02*
X99865000Y-86125000I50000J0D01*
G01*
X100640000Y-86125000D01*
G75*
G02*
X100690000Y-86175000I0J-50000D01*
G01*
X100690000Y-86275000D01*
G75*
G02*
X100640000Y-86325000I-50000J0D01*
G01*
X99865000Y-86325000D01*
G75*
G02*
X99815000Y-86275000I0J50000D01*
G01*
G37*
G04 #@! TD.AperFunction*
G04 #@! TA.AperFunction,SMDPad,CuDef*
G36*
G01*
X99815000Y-85875000D02*
X99815000Y-85775000D01*
G75*
G02*
X99865000Y-85725000I50000J0D01*
G01*
X100640000Y-85725000D01*
G75*
G02*
X100690000Y-85775000I0J-50000D01*
G01*
X100690000Y-85875000D01*
G75*
G02*
X100640000Y-85925000I-50000J0D01*
G01*
X99865000Y-85925000D01*
G75*
G02*
X99815000Y-85875000I0J50000D01*
G01*
G37*
G04 #@! TD.AperFunction*
G04 #@! TA.AperFunction,SMDPad,CuDef*
G36*
G01*
X99815000Y-85475000D02*
X99815000Y-85375000D01*
G75*
G02*
X99865000Y-85325000I50000J0D01*
G01*
X100640000Y-85325000D01*
G75*
G02*
X100690000Y-85375000I0J-50000D01*
G01*
X100690000Y-85475000D01*
G75*
G02*
X100640000Y-85525000I-50000J0D01*
G01*
X99865000Y-85525000D01*
G75*
G02*
X99815000Y-85475000I0J50000D01*
G01*
G37*
G04 #@! TD.AperFunction*
G04 #@! TA.AperFunction,SMDPad,CuDef*
G36*
G01*
X99815000Y-85075000D02*
X99815000Y-84975000D01*
G75*
G02*
X99865000Y-84925000I50000J0D01*
G01*
X100640000Y-84925000D01*
G75*
G02*
X100690000Y-84975000I0J-50000D01*
G01*
X100690000Y-85075000D01*
G75*
G02*
X100640000Y-85125000I-50000J0D01*
G01*
X99865000Y-85125000D01*
G75*
G02*
X99815000Y-85075000I0J50000D01*
G01*
G37*
G04 #@! TD.AperFunction*
G04 #@! TA.AperFunction,SMDPad,CuDef*
G36*
G01*
X99815000Y-84675000D02*
X99815000Y-84575000D01*
G75*
G02*
X99865000Y-84525000I50000J0D01*
G01*
X100640000Y-84525000D01*
G75*
G02*
X100690000Y-84575000I0J-50000D01*
G01*
X100690000Y-84675000D01*
G75*
G02*
X100640000Y-84725000I-50000J0D01*
G01*
X99865000Y-84725000D01*
G75*
G02*
X99815000Y-84675000I0J50000D01*
G01*
G37*
G04 #@! TD.AperFunction*
G04 #@! TA.AperFunction,SMDPad,CuDef*
G36*
G01*
X99815000Y-84275000D02*
X99815000Y-84175000D01*
G75*
G02*
X99865000Y-84125000I50000J0D01*
G01*
X100640000Y-84125000D01*
G75*
G02*
X100690000Y-84175000I0J-50000D01*
G01*
X100690000Y-84275000D01*
G75*
G02*
X100640000Y-84325000I-50000J0D01*
G01*
X99865000Y-84325000D01*
G75*
G02*
X99815000Y-84275000I0J50000D01*
G01*
G37*
G04 #@! TD.AperFunction*
G04 #@! TA.AperFunction,SMDPad,CuDef*
G36*
G01*
X99815000Y-83875000D02*
X99815000Y-83775000D01*
G75*
G02*
X99865000Y-83725000I50000J0D01*
G01*
X100640000Y-83725000D01*
G75*
G02*
X100690000Y-83775000I0J-50000D01*
G01*
X100690000Y-83875000D01*
G75*
G02*
X100640000Y-83925000I-50000J0D01*
G01*
X99865000Y-83925000D01*
G75*
G02*
X99815000Y-83875000I0J50000D01*
G01*
G37*
G04 #@! TD.AperFunction*
G04 #@! TA.AperFunction,SMDPad,CuDef*
G36*
G01*
X99815000Y-83475000D02*
X99815000Y-83375000D01*
G75*
G02*
X99865000Y-83325000I50000J0D01*
G01*
X100640000Y-83325000D01*
G75*
G02*
X100690000Y-83375000I0J-50000D01*
G01*
X100690000Y-83475000D01*
G75*
G02*
X100640000Y-83525000I-50000J0D01*
G01*
X99865000Y-83525000D01*
G75*
G02*
X99815000Y-83475000I0J50000D01*
G01*
G37*
G04 #@! TD.AperFunction*
D23*
X104965000Y-87300000D03*
X103690000Y-87300000D03*
X102415000Y-87300000D03*
X104965000Y-86025000D03*
X103690000Y-86025000D03*
X102415000Y-86025000D03*
X104965000Y-84750000D03*
X103690000Y-84750000D03*
X102415000Y-84750000D03*
G04 #@! TA.AperFunction,SMDPad,CuDef*
G36*
G01*
X102090000Y-87481000D02*
X102090000Y-84569000D01*
G75*
G02*
X102234000Y-84425000I144000J0D01*
G01*
X105146000Y-84425000D01*
G75*
G02*
X105290000Y-84569000I0J-144000D01*
G01*
X105290000Y-87481000D01*
G75*
G02*
X105146000Y-87625000I-144000J0D01*
G01*
X102234000Y-87625000D01*
G75*
G02*
X102090000Y-87481000I0J144000D01*
G01*
G37*
G04 #@! TD.AperFunction*
D19*
X106230000Y-106925000D03*
G04 #@! TA.AperFunction,ComponentPad*
G36*
G01*
X104115000Y-107775000D02*
X103265000Y-107775000D01*
G75*
G02*
X102840000Y-107350000I0J425000D01*
G01*
X102840000Y-106500000D01*
G75*
G02*
X103265000Y-106075000I425000J0D01*
G01*
X104115000Y-106075000D01*
G75*
G02*
X104540000Y-106500000I0J-425000D01*
G01*
X104540000Y-107350000D01*
G75*
G02*
X104115000Y-107775000I-425000J0D01*
G01*
G37*
G04 #@! TD.AperFunction*
X101150000Y-106925000D03*
D24*
X99710000Y-76185000D03*
X101066200Y-79907200D03*
D25*
X108500000Y-90125000D03*
X96450000Y-61925000D03*
X96600000Y-87325000D03*
X97291928Y-84725000D03*
X101850000Y-92100000D03*
X108800000Y-93175000D03*
X105103040Y-93639840D03*
X100375000Y-64620000D03*
X100200000Y-89575000D03*
X97725000Y-81875000D03*
D24*
X110184800Y-80694600D03*
D25*
X110310040Y-73589080D03*
D24*
X106825000Y-64620000D03*
X96960000Y-90265000D03*
X96240000Y-65125000D03*
X97770000Y-75745000D03*
X97680000Y-101425000D03*
X110190000Y-101905000D03*
X103600000Y-66245000D03*
X97990000Y-74235000D03*
X98320000Y-72915000D03*
X110440000Y-84940000D03*
D25*
X105065000Y-83725000D03*
X104340000Y-88125000D03*
X104284269Y-90880277D03*
D24*
X105732960Y-81396992D03*
X103301372Y-80820400D03*
D25*
X96700000Y-85335000D03*
X97816938Y-85719993D03*
X98410926Y-85262067D03*
X98660000Y-84525000D03*
X107600000Y-92225000D03*
X100262500Y-82362500D03*
D24*
X107737560Y-67488000D03*
X104363900Y-77985820D03*
X103849995Y-63446195D03*
X102844200Y-63448000D03*
X105334732Y-77983960D03*
X103349989Y-62965389D03*
X104342800Y-62965406D03*
D25*
X110371000Y-77775000D03*
D24*
X101125400Y-83490000D03*
D25*
X101170000Y-76206400D03*
X109194202Y-73684200D03*
D26*
X105200000Y-92455000D02*
X105200000Y-92700002D01*
X112590000Y-89205000D02*
X112568000Y-89205000D01*
X99625001Y-59575000D02*
X99575001Y-59525000D01*
D27*
X100375000Y-64620000D02*
X100375000Y-64620000D01*
D26*
X96000000Y-82525000D02*
X96000000Y-83008808D01*
X97291928Y-84300736D02*
X97291928Y-84725000D01*
X96000000Y-83008808D02*
X97291928Y-84300736D01*
X102690000Y-90185736D02*
X101850000Y-91025736D01*
X102690000Y-89462500D02*
X102690000Y-90185736D01*
X101850000Y-91025736D02*
X101850000Y-92100000D01*
D28*
X100375000Y-64620000D02*
X100375000Y-65950000D01*
D26*
X98120000Y-82650000D02*
X98120000Y-82270000D01*
X98120000Y-82270000D02*
X97725000Y-81875000D01*
D29*
X106900000Y-64695000D02*
X106825000Y-64620000D01*
D26*
X103690000Y-106925000D02*
X103690000Y-105867400D01*
X105735500Y-80434440D02*
X105732960Y-80436980D01*
X106726100Y-80434440D02*
X105735500Y-80434440D01*
D30*
X108700000Y-70175000D02*
X111305720Y-70175000D01*
X108700000Y-70175000D02*
X107300000Y-70175000D01*
X105900000Y-70675000D02*
X107300000Y-70675000D01*
D31*
X107300000Y-70175000D02*
X107300000Y-68681800D01*
D28*
X106825000Y-64620000D02*
X106825000Y-64620000D01*
D26*
X97000000Y-87725000D02*
X96600000Y-87325000D01*
X97410000Y-87725000D02*
X97000000Y-87725000D01*
D32*
X111964200Y-89205000D02*
X112550000Y-89205000D01*
D28*
X106825000Y-64620000D02*
X106825000Y-66623000D01*
D32*
X95900000Y-89205000D02*
X94750000Y-89205000D01*
X96960000Y-90265000D02*
X95900000Y-89205000D01*
X110440000Y-84935000D02*
X110440000Y-84940000D01*
X110440000Y-84940000D02*
X110440000Y-84940000D01*
D26*
X112590000Y-58725000D02*
X112590000Y-59435000D01*
D27*
X112530000Y-59035000D02*
X112530000Y-58725000D01*
D26*
X106002200Y-64667800D02*
X106050000Y-64620000D01*
D33*
X110955200Y-58725000D02*
X112550000Y-58725000D01*
X110117000Y-59563200D02*
X110955200Y-58725000D01*
X110117000Y-59766300D02*
X110117000Y-59766300D01*
X110117000Y-59766300D02*
X110117000Y-59563200D01*
D30*
X104290000Y-89462500D02*
X104290000Y-90874546D01*
D26*
X105000000Y-91695000D02*
X105000000Y-91596008D01*
D30*
X105000000Y-91596008D02*
X104284269Y-90880277D01*
D26*
X104290000Y-90874546D02*
X104284269Y-90880277D01*
D30*
X105490000Y-82587500D02*
X105490000Y-81639952D01*
X105490000Y-81639952D02*
X105732960Y-81396992D01*
D26*
X103490000Y-82587500D02*
X103490000Y-81009028D01*
X103490000Y-81009028D02*
X103301372Y-80820400D01*
D30*
X98687000Y-76128000D02*
X100190000Y-74625000D01*
X98687000Y-76190100D02*
X98687000Y-76128000D01*
D26*
X94690000Y-107025000D02*
X95925000Y-105790000D01*
X95925000Y-103674278D02*
X96525019Y-103074259D01*
X95925000Y-105790000D02*
X95925000Y-103674278D01*
X96525019Y-103074259D02*
X96525019Y-96302815D01*
X96525019Y-96302815D02*
X96850028Y-95977804D01*
X96850028Y-95977804D02*
X96850028Y-93873528D01*
X102290000Y-89937480D02*
X101002460Y-91225020D01*
X102290000Y-89462500D02*
X102290000Y-89937480D01*
X101002460Y-91225020D02*
X99498536Y-91225020D01*
X99498536Y-91225020D02*
X96850028Y-93873528D01*
X96225010Y-102949990D02*
X94690000Y-104485000D01*
X96225010Y-96178546D02*
X96225010Y-102949990D01*
X96550020Y-93749258D02*
X96550019Y-95853537D01*
X96550019Y-95853537D02*
X96225010Y-96178546D01*
X99374268Y-90925010D02*
X96550020Y-93749258D01*
X100878192Y-90925010D02*
X99374268Y-90925010D01*
X101890000Y-89913202D02*
X100878192Y-90925010D01*
X101890000Y-89462500D02*
X101890000Y-89913202D01*
X94690000Y-99405000D02*
X95925000Y-98170000D01*
X95925000Y-96054278D02*
X96250010Y-95729268D01*
X95925000Y-98170000D02*
X95925000Y-96054278D01*
X96250010Y-95729268D02*
X96250010Y-93624990D01*
X96250010Y-93624990D02*
X99250000Y-90625000D01*
X101490000Y-89888924D02*
X101490000Y-89462500D01*
X100753924Y-90625000D02*
X101490000Y-89888924D01*
X99250000Y-90625000D02*
X100753924Y-90625000D01*
X100227500Y-90325000D02*
X101090000Y-89462500D01*
X95950000Y-95605000D02*
X95950000Y-93489278D01*
X99114278Y-90325000D02*
X100227500Y-90325000D01*
X94690000Y-96865000D02*
X95950000Y-95605000D01*
X95950000Y-93489278D02*
X99114278Y-90325000D01*
X95765001Y-93249999D02*
X94690000Y-94325000D01*
X100252500Y-88625000D02*
X100252500Y-88762500D01*
X100252500Y-88762500D02*
X95765001Y-93249999D01*
X99300000Y-89225000D02*
X96740000Y-91785000D01*
X96740000Y-91785000D02*
X94690000Y-91785000D01*
X99300000Y-88550000D02*
X99300000Y-89225000D01*
X99625000Y-88225000D02*
X99300000Y-88550000D01*
X100252500Y-88225000D02*
X99625000Y-88225000D01*
X95617500Y-87632500D02*
X94690000Y-86705000D01*
X96710000Y-88725000D02*
X95617500Y-87632500D01*
X98692861Y-88725000D02*
X96710000Y-88725000D01*
X99592861Y-87825000D02*
X98692861Y-88725000D01*
X100252500Y-87825000D02*
X99592861Y-87825000D01*
X95874988Y-85349988D02*
X94690000Y-84165000D01*
X95874988Y-87465710D02*
X95874988Y-85349988D01*
X96834278Y-88425000D02*
X95874988Y-87465710D01*
X98560000Y-88425000D02*
X96834278Y-88425000D01*
X99560000Y-87425000D02*
X98560000Y-88425000D01*
X100252500Y-87425000D02*
X99560000Y-87425000D01*
X95539999Y-83137833D02*
X95539999Y-82474999D01*
X95539999Y-82474999D02*
X94690000Y-81625000D01*
X96174999Y-83772833D02*
X95539999Y-83137833D01*
X96174999Y-85919999D02*
X96174999Y-83772833D01*
X96880000Y-86625000D02*
X96174999Y-85919999D01*
X100252500Y-86625000D02*
X96880000Y-86625000D01*
X96700000Y-86020722D02*
X96700000Y-85335000D01*
X96950783Y-86271505D02*
X96700000Y-86020722D01*
X100205995Y-86271505D02*
X96950783Y-86271505D01*
X100252500Y-86225000D02*
X100205995Y-86271505D01*
X100252500Y-85825000D02*
X97921945Y-85825000D01*
X97921945Y-85825000D02*
X97816938Y-85719993D01*
X100252500Y-85425000D02*
X98573859Y-85425000D01*
X98573859Y-85425000D02*
X98410926Y-85262067D01*
X100252500Y-85025000D02*
X99160000Y-85025000D01*
X99160000Y-85025000D02*
X98660000Y-84525000D01*
X99525722Y-84625000D02*
X98830720Y-83929998D01*
X100252500Y-84625000D02*
X99525722Y-84625000D01*
X98830720Y-83929998D02*
X97405720Y-83929998D01*
X97405720Y-83929998D02*
X96474970Y-82999248D01*
X96474970Y-82999248D02*
X96474970Y-68169970D01*
X96474970Y-68169970D02*
X94690000Y-66385000D01*
X96000000Y-62615000D02*
X94690000Y-61305000D01*
X96774980Y-63389980D02*
X96000000Y-62615000D01*
X100252500Y-84225000D02*
X99550000Y-84225000D01*
X98954987Y-83629987D02*
X97555709Y-83629987D01*
X97555709Y-83629987D02*
X96774981Y-82849259D01*
X96774981Y-82849259D02*
X96774980Y-63389980D01*
X99550000Y-84225000D02*
X98954987Y-83629987D01*
X96225000Y-60300000D02*
X94690000Y-58765000D01*
X97074990Y-61149990D02*
X96225000Y-60300000D01*
X97074990Y-82724990D02*
X97074990Y-61149990D01*
X97600000Y-83250000D02*
X97074990Y-82724990D01*
X99015000Y-83250000D02*
X97600000Y-83250000D01*
X99590000Y-83825000D02*
X99015000Y-83250000D01*
X100252500Y-83825000D02*
X99590000Y-83825000D01*
X107127500Y-84225000D02*
X107751444Y-84225000D01*
X107850722Y-84125722D02*
X107951454Y-84024990D01*
X107751444Y-84225000D02*
X107850722Y-84125722D01*
X107951454Y-84024990D02*
X109225732Y-84024990D01*
X112510000Y-73965000D02*
X112530000Y-73965000D01*
X111250000Y-75225000D02*
X112510000Y-73965000D01*
X111250000Y-80650722D02*
X111250000Y-75225000D01*
X109225732Y-84024990D02*
X110157861Y-83092861D01*
X110157861Y-83092861D02*
X110449990Y-82800732D01*
X110979990Y-80920732D02*
X111250000Y-80650722D01*
X110979990Y-82270732D02*
X110979990Y-80920732D01*
X110157861Y-83092861D02*
X110979990Y-82270732D01*
X111605000Y-80030000D02*
X112590000Y-79045000D01*
X111605000Y-80720000D02*
X111605000Y-80030000D01*
X111280000Y-82395000D02*
X111280000Y-81045000D01*
X111280000Y-81045000D02*
X111605000Y-80720000D01*
X108800020Y-84325000D02*
X109350000Y-84325000D01*
X109350000Y-84325000D02*
X111280000Y-82395000D01*
X108800010Y-84324990D02*
X108800020Y-84325000D01*
X108075732Y-84324990D02*
X108800010Y-84324990D01*
X107775722Y-84625000D02*
X108075732Y-84324990D01*
X107127500Y-84625000D02*
X107775722Y-84625000D01*
X107127500Y-85025000D02*
X107800000Y-85025000D01*
X107875000Y-84950000D02*
X108200000Y-84625000D01*
X107800000Y-85025000D02*
X107875000Y-84950000D01*
X109490000Y-84625000D02*
X112530000Y-81585000D01*
X108200000Y-84625000D02*
X109490000Y-84625000D01*
X108450000Y-85425000D02*
X107127500Y-85425000D01*
X112550000Y-86625000D02*
X112590000Y-86665000D01*
D30*
X107127500Y-86625000D02*
X112550000Y-86625000D01*
D26*
X111000000Y-90155000D02*
X112590000Y-91745000D01*
X109104998Y-87425000D02*
X111000000Y-89320002D01*
X111000000Y-89320002D02*
X111000000Y-90155000D01*
X107127500Y-87425000D02*
X109104998Y-87425000D01*
X107702684Y-87825000D02*
X107127500Y-87825000D01*
X110699990Y-89444270D02*
X109080720Y-87825000D01*
X110699990Y-90279268D02*
X110699990Y-89444270D01*
X109080720Y-87825000D02*
X107702684Y-87825000D01*
X111300000Y-90879278D02*
X110699990Y-90279268D01*
X111300000Y-92995000D02*
X111300000Y-90879278D01*
X112590000Y-94285000D02*
X111300000Y-92995000D01*
X107678406Y-88225000D02*
X107127500Y-88225000D01*
X107678426Y-88225020D02*
X107678406Y-88225000D01*
X109056462Y-88225020D02*
X107678426Y-88225020D01*
X110399980Y-89568538D02*
X109056462Y-88225020D01*
X110399981Y-90403537D02*
X110399980Y-89568538D01*
X110999990Y-91003546D02*
X110399981Y-90403537D01*
X110999990Y-94424990D02*
X110999990Y-91003546D01*
X112590000Y-96015000D02*
X110999990Y-94424990D01*
X112590000Y-96825000D02*
X112590000Y-96015000D01*
X107127500Y-88625000D02*
X109032164Y-88625000D01*
X110099972Y-89692808D02*
X110099972Y-90527806D01*
X109032164Y-88625000D02*
X110099972Y-89692808D01*
X110099972Y-90527806D02*
X110699980Y-91127814D01*
X110699980Y-91127814D02*
X110699981Y-94549259D01*
X110699981Y-94549259D02*
X111300000Y-95149278D01*
X111300000Y-98075000D02*
X112590000Y-99365000D01*
X111300000Y-95149278D02*
X111300000Y-98075000D01*
X106290000Y-90442166D02*
X106290000Y-90325000D01*
X109327084Y-91252084D02*
X107099918Y-91252084D01*
X110399972Y-92324972D02*
X109327084Y-91252084D01*
X110399972Y-94673526D02*
X110399972Y-92324972D01*
X110999990Y-95273546D02*
X110399972Y-94673526D01*
X106290000Y-90325000D02*
X106290000Y-89462500D01*
X110999990Y-98199268D02*
X110999990Y-95273546D01*
X111300000Y-98499278D02*
X110999990Y-98199268D01*
X107099918Y-91252084D02*
X106290000Y-90442166D01*
X111300000Y-103155000D02*
X111300000Y-98499278D01*
X112590000Y-104445000D02*
X111300000Y-103155000D01*
X105890000Y-90466444D02*
X105890000Y-89462500D01*
X110099962Y-92449240D02*
X109202816Y-91552094D01*
X109202816Y-91552094D02*
X106975650Y-91552094D01*
X110099962Y-94824962D02*
X110099962Y-92449240D01*
X106975650Y-91552094D02*
X105890000Y-90466444D01*
X111300000Y-103579278D02*
X110999990Y-103279268D01*
X110999990Y-98623546D02*
X110699981Y-98323537D01*
X111300000Y-104925000D02*
X111300000Y-103579278D01*
X110699981Y-98323537D02*
X110699980Y-95424980D01*
X112590000Y-106215000D02*
X111300000Y-104925000D01*
X110699980Y-95424980D02*
X110099962Y-94824962D01*
X110999990Y-103279268D02*
X110999990Y-98623546D01*
X112590000Y-106985000D02*
X112590000Y-106215000D01*
X105490000Y-89462500D02*
X105490000Y-90490722D01*
X105490000Y-90490722D02*
X105812139Y-90812861D01*
X105812139Y-90812861D02*
X106112139Y-91112861D01*
X106112139Y-91112861D02*
X107224278Y-92225000D01*
X107224278Y-92225000D02*
X107600000Y-92225000D01*
X107600000Y-92225000D02*
X107700000Y-92225000D01*
X106200000Y-91625000D02*
X106200000Y-91725000D01*
X105090000Y-90515000D02*
X106200000Y-91625000D01*
X105090000Y-89462500D02*
X105090000Y-90515000D01*
X106200000Y-106895000D02*
X106230000Y-106925000D01*
X106200000Y-91625000D02*
X106200000Y-106895000D01*
X104690000Y-90539279D02*
X104690000Y-89462500D01*
X105900000Y-91749279D02*
X104690000Y-90539279D01*
X105900000Y-103125000D02*
X105900000Y-91749279D01*
X103900000Y-105125000D02*
X105900000Y-103125000D01*
X101600000Y-105125000D02*
X103900000Y-105125000D01*
X101150000Y-105575000D02*
X101600000Y-105125000D01*
X101150000Y-106925000D02*
X101150000Y-105575000D01*
X101090000Y-82587500D02*
X100487500Y-82587500D01*
X100487500Y-82587500D02*
X100262500Y-82362500D01*
X100262500Y-82362500D02*
X100237500Y-82362500D01*
X99750560Y-81850560D02*
X99750560Y-80736360D01*
X100262500Y-82362500D02*
X99750560Y-81850560D01*
D30*
X99220400Y-77683500D02*
X98687000Y-77150100D01*
X99220400Y-80518200D02*
X99220400Y-77683500D01*
X99438560Y-80736360D02*
X99220400Y-80518200D01*
X99750560Y-80736360D02*
X99438560Y-80736360D01*
D26*
X104850800Y-79410000D02*
X104384760Y-78943960D01*
X104850800Y-81761400D02*
X104850800Y-79410000D01*
X104690000Y-81922200D02*
X104850800Y-81761400D01*
X104690000Y-82587500D02*
X104690000Y-81922200D01*
X105127810Y-82549690D02*
X105127810Y-79150910D01*
X105090000Y-82587500D02*
X105127810Y-82549690D01*
X105127810Y-79150910D02*
X105334760Y-78943960D01*
X100250560Y-77898860D02*
X100250560Y-78161360D01*
X101691628Y-77248930D02*
X100900490Y-77248930D01*
X102717200Y-81398800D02*
X102717200Y-78274502D01*
X100900490Y-77248930D02*
X100250560Y-77898860D01*
X102717200Y-78274502D02*
X101691628Y-77248930D01*
X103090000Y-81771600D02*
X102717200Y-81398800D01*
X103090000Y-82587500D02*
X103090000Y-81771600D01*
X101100480Y-77548940D02*
X100750560Y-77898860D01*
X101567360Y-77548940D02*
X101100480Y-77548940D01*
X102437800Y-78419380D02*
X101567360Y-77548940D01*
X102437800Y-81543678D02*
X102437800Y-78419380D01*
X100750560Y-77898860D02*
X100750560Y-78161360D01*
X102690000Y-81795878D02*
X102437800Y-81543678D01*
X102690000Y-82587500D02*
X102690000Y-81795878D01*
X102158400Y-79069200D02*
X101598260Y-78509060D01*
X102301420Y-81831576D02*
X102158400Y-81688556D01*
X101598260Y-78509060D02*
X101250560Y-78161360D01*
X102158400Y-81688556D02*
X102158400Y-79069200D01*
X102301420Y-82415580D02*
X102301420Y-81831576D01*
X102290000Y-82427000D02*
X102301420Y-82415580D01*
X102290000Y-82587500D02*
X102290000Y-82427000D01*
X100750560Y-80998860D02*
X100750560Y-80736360D01*
X101890000Y-82587500D02*
X101890000Y-81844433D01*
X101059549Y-81307849D02*
X100750560Y-80998860D01*
X101890000Y-81844433D02*
X101353416Y-81307849D01*
X101353416Y-81307849D02*
X101059549Y-81307849D01*
X101490000Y-81868712D02*
X101229148Y-81607860D01*
X101490000Y-82587500D02*
X101490000Y-81868712D01*
X100250560Y-81124180D02*
X100250560Y-80736360D01*
X100734240Y-81607860D02*
X100250560Y-81124180D01*
X101229148Y-81607860D02*
X100734240Y-81607860D01*
D32*
X110175000Y-85910000D02*
X110440000Y-85910000D01*
X109690000Y-85425000D02*
X110175000Y-85910000D01*
X109470000Y-85425000D02*
X109690000Y-85425000D01*
D26*
X101845000Y-64625000D02*
X101850000Y-64620000D01*
D30*
X101849300Y-66089000D02*
X101849300Y-64620000D01*
X104850000Y-66085500D02*
X104846500Y-66089000D01*
X104850000Y-64620000D02*
X104850000Y-66085500D01*
D26*
X112530000Y-66945000D02*
X112530000Y-66345000D01*
X105900000Y-70175000D02*
X105900000Y-69175000D01*
X105900000Y-69175000D02*
X105900000Y-69175000D01*
X105900000Y-69175000D02*
X105900000Y-68403000D01*
X105900000Y-68403000D02*
X105900000Y-68147000D01*
D29*
X104664000Y-70175000D02*
X104325800Y-70513200D01*
X105900000Y-70175000D02*
X104664000Y-70175000D01*
X106454320Y-67488000D02*
X107737560Y-67488000D01*
X105900000Y-68042320D02*
X106454320Y-67488000D01*
X107737560Y-67488000D02*
X107737560Y-67488000D01*
D27*
X105900000Y-70128200D02*
X105900000Y-68100200D01*
D26*
X109412500Y-70675000D02*
X108700000Y-70675000D01*
X110175000Y-71437500D02*
X109412500Y-70675000D01*
X109812500Y-69675000D02*
X110175000Y-69312500D01*
X108700000Y-69675000D02*
X109812500Y-69675000D01*
X103850000Y-64620000D02*
X103850000Y-63446200D01*
X103850000Y-63446200D02*
X103849995Y-63446195D01*
X102850000Y-64620000D02*
X102850000Y-63453800D01*
X102850000Y-63453800D02*
X102844200Y-63448000D01*
X103350000Y-64620000D02*
X103350000Y-62965400D01*
X103350000Y-62965400D02*
X103349989Y-62965389D01*
X104350000Y-64620000D02*
X104350000Y-62972606D01*
X104350000Y-62972606D02*
X104342800Y-62965406D01*
X113188988Y-71735010D02*
X113939990Y-71735010D01*
X110371000Y-78507600D02*
X110371000Y-77775000D01*
X110371000Y-77775000D02*
X110371000Y-76847400D01*
X108700000Y-68433200D02*
X108700000Y-69175000D01*
D33*
X110117000Y-61341300D02*
X110117000Y-61341300D01*
X110117000Y-61341300D02*
X113614990Y-61341300D01*
D30*
X100252500Y-87025000D02*
X101015000Y-87025000D01*
X107127500Y-87025000D02*
X105940000Y-87025000D01*
X103915000Y-88725000D02*
X105318000Y-88725000D01*
X103915000Y-88725000D02*
X102828000Y-88725000D01*
X103890000Y-88750000D02*
X103915000Y-88725000D01*
X103890000Y-89462500D02*
X103890000Y-88750000D01*
D26*
X100252500Y-83425000D02*
X101025000Y-83425000D01*
X100252500Y-83425000D02*
X100252500Y-83252500D01*
X100252500Y-83252500D02*
X100147300Y-83147300D01*
X100112500Y-83112500D02*
X100050000Y-83050000D01*
X99725000Y-82725000D02*
X99155000Y-82725000D01*
X99155000Y-82725000D02*
X99080000Y-82650000D01*
X100112500Y-83112500D02*
X99725000Y-82725000D01*
X106673750Y-82971250D02*
X107127500Y-83425000D01*
X103890000Y-82587500D02*
X104290000Y-82587500D01*
X103890000Y-89462500D02*
X103890000Y-90212300D01*
X108700000Y-71175000D02*
X108700000Y-72875000D01*
X110371000Y-79527600D02*
X109583600Y-79527600D01*
X110371000Y-75197400D02*
X110079400Y-75197400D01*
X100147300Y-83147300D02*
X100112500Y-83112500D01*
D29*
X106726100Y-82151400D02*
X106290000Y-82587500D01*
X106726100Y-81394440D02*
X106726100Y-82151400D01*
D28*
X106726100Y-82458760D02*
X106443680Y-82741180D01*
X106726100Y-81394440D02*
X106726100Y-82458760D01*
D26*
X106443680Y-82741180D02*
X106673750Y-82971250D01*
X106290000Y-82587500D02*
X106443680Y-82741180D01*
X100228840Y-77147560D02*
X100491670Y-76884730D01*
X99720780Y-77147560D02*
X100228840Y-77147560D01*
X101170000Y-76206400D02*
X100491670Y-76884730D01*
X99750560Y-77177340D02*
X99720780Y-77147560D01*
X99750560Y-77705720D02*
X99750560Y-77177340D01*
X99750560Y-77625840D02*
X99750560Y-77705720D01*
X99750560Y-77705720D02*
X99750560Y-78161360D01*
D29*
X99750560Y-78161360D02*
X99750560Y-77147560D01*
X110371000Y-75197400D02*
X109126400Y-75197400D01*
D33*
X110371000Y-75197400D02*
X109062900Y-75197400D01*
D27*
X110371000Y-79527600D02*
X109329600Y-79527600D01*
D26*
X105869250Y-71660350D02*
X105869250Y-71205750D01*
X106713400Y-72504500D02*
X105869250Y-71660350D01*
X107716700Y-72504500D02*
X106713400Y-72504500D01*
D30*
X100252500Y-83425000D02*
X101125400Y-83425000D01*
X99070000Y-87025000D02*
X98370000Y-87725000D01*
X100252500Y-87025000D02*
X99070000Y-87025000D01*
X104292000Y-80904520D02*
X104292000Y-80820400D01*
X104290000Y-80906520D02*
X104292000Y-80904520D01*
X104290000Y-82587500D02*
X104290000Y-80906520D01*
X103890000Y-81630000D02*
X103890000Y-82587500D01*
X104292000Y-81228000D02*
X103890000Y-81630000D01*
X104292000Y-80820400D02*
X104292000Y-81228000D01*
D26*
X109253400Y-73685600D02*
X109252000Y-73684200D01*
X109252000Y-73684200D02*
X109194202Y-73684200D01*
D32*
X103911000Y-91695400D02*
X103793768Y-91578168D01*
D30*
X103757268Y-90553316D02*
X103890000Y-90420584D01*
X103757268Y-91133238D02*
X103757268Y-90553316D01*
X103911000Y-91286970D02*
X103757268Y-91133238D01*
X103911000Y-91695400D02*
X103911000Y-91286970D01*
X103890000Y-90393000D02*
X103890000Y-89462500D01*
X103890000Y-90420584D02*
X103890000Y-90393000D01*
X109780000Y-87025000D02*
X110130000Y-87375000D01*
X108178300Y-87025000D02*
X109780000Y-87025000D01*
X109654160Y-87025000D02*
X109654840Y-87025680D01*
X107127500Y-87025000D02*
X109654160Y-87025000D01*
D32*
X100905200Y-96379000D02*
X100906000Y-96378200D01*
X99335000Y-96379000D02*
X100905200Y-96379000D01*
X102342000Y-92393000D02*
X102342000Y-91052000D01*
X102006000Y-92729000D02*
X102342000Y-92393000D01*
X102006000Y-96146000D02*
X102006000Y-92729000D01*
X101773800Y-96378200D02*
X102006000Y-96146000D01*
X103090000Y-90304000D02*
X103090000Y-89462500D01*
X102342000Y-91052000D02*
X103090000Y-90304000D01*
X100906000Y-96378200D02*
X101773800Y-96378200D01*
X104638800Y-94678200D02*
X104641000Y-94676000D01*
X103106000Y-94678200D02*
X104638800Y-94678200D01*
X103106000Y-90750000D02*
X103106000Y-94678200D01*
X103490000Y-90366000D02*
X103106000Y-90750000D01*
X103490000Y-89462500D02*
X103490000Y-90366000D01*
X105576500Y-84211500D02*
X101940000Y-84211500D01*
X101927612Y-84212720D01*
X101915700Y-84216334D01*
X101904721Y-84222202D01*
X101895099Y-84230099D01*
X101887202Y-84239721D01*
X101881334Y-84250700D01*
X101877720Y-84262612D01*
X101876500Y-84275000D01*
X101876500Y-87775000D01*
X101877720Y-87787388D01*
X101881334Y-87799300D01*
X101887202Y-87810279D01*
X101895099Y-87819901D01*
X101904721Y-87827798D01*
X101915700Y-87833666D01*
X101927612Y-87837280D01*
X101940000Y-87838500D01*
X104601500Y-87838500D01*
X104601500Y-88386500D01*
X104053500Y-88386500D01*
X104053500Y-88175000D01*
X104052280Y-88162612D01*
X104048666Y-88150700D01*
X104042798Y-88139721D01*
X104034901Y-88130099D01*
X104025279Y-88122202D01*
X104014300Y-88116334D01*
X104002388Y-88112720D01*
X103990000Y-88111500D01*
X101553500Y-88111500D01*
X101553500Y-83863500D01*
X104490000Y-83863500D01*
X104502388Y-83862280D01*
X104514300Y-83858666D01*
X104525279Y-83852798D01*
X104534901Y-83844901D01*
X104542798Y-83835279D01*
X104548666Y-83824300D01*
X104552280Y-83812388D01*
X104553500Y-83800000D01*
X104553500Y-83238500D01*
X105340000Y-83238500D01*
X105352388Y-83237280D01*
X105364300Y-83233666D01*
X105375279Y-83227798D01*
X105384901Y-83219901D01*
X105392798Y-83210279D01*
X105398666Y-83199300D01*
X105402280Y-83187388D01*
X105403500Y-83175000D01*
X105403500Y-82163500D01*
X105576500Y-82163500D01*
X105576500Y-84211500D01*
G04 #@! TA.AperFunction,Conductor*
D34*
G36*
X105576500Y-84211500D02*
G01*
X101940000Y-84211500D01*
X101927612Y-84212720D01*
X101915700Y-84216334D01*
X101904721Y-84222202D01*
X101895099Y-84230099D01*
X101887202Y-84239721D01*
X101881334Y-84250700D01*
X101877720Y-84262612D01*
X101876500Y-84275000D01*
X101876500Y-87775000D01*
X101877720Y-87787388D01*
X101881334Y-87799300D01*
X101887202Y-87810279D01*
X101895099Y-87819901D01*
X101904721Y-87827798D01*
X101915700Y-87833666D01*
X101927612Y-87837280D01*
X101940000Y-87838500D01*
X104601500Y-87838500D01*
X104601500Y-88386500D01*
X104053500Y-88386500D01*
X104053500Y-88175000D01*
X104052280Y-88162612D01*
X104048666Y-88150700D01*
X104042798Y-88139721D01*
X104034901Y-88130099D01*
X104025279Y-88122202D01*
X104014300Y-88116334D01*
X104002388Y-88112720D01*
X103990000Y-88111500D01*
X101553500Y-88111500D01*
X101553500Y-83863500D01*
X104490000Y-83863500D01*
X104502388Y-83862280D01*
X104514300Y-83858666D01*
X104525279Y-83852798D01*
X104534901Y-83844901D01*
X104542798Y-83835279D01*
X104548666Y-83824300D01*
X104552280Y-83812388D01*
X104553500Y-83800000D01*
X104553500Y-83238500D01*
X105340000Y-83238500D01*
X105352388Y-83237280D01*
X105364300Y-83233666D01*
X105375279Y-83227798D01*
X105384901Y-83219901D01*
X105392798Y-83210279D01*
X105398666Y-83199300D01*
X105402280Y-83187388D01*
X105403500Y-83175000D01*
X105403500Y-82163500D01*
X105576500Y-82163500D01*
X105576500Y-84211500D01*
G37*
G04 #@! TD.AperFunction*
D35*
X113998001Y-62133174D02*
X110853764Y-62129109D01*
X110828985Y-62131517D01*
X110805151Y-62138714D01*
X110783179Y-62150421D01*
X110763914Y-62166190D01*
X110748095Y-62185415D01*
X110736330Y-62207357D01*
X110729072Y-62231172D01*
X110726600Y-62256313D01*
X110736292Y-68279400D01*
X109329600Y-68279400D01*
X109256051Y-68286644D01*
X109185328Y-68308097D01*
X109120150Y-68342936D01*
X109063021Y-68389821D01*
X109016136Y-68446950D01*
X108981297Y-68512128D01*
X108959844Y-68582851D01*
X108952600Y-68656400D01*
X108952600Y-69168400D01*
X108503824Y-69168400D01*
X108503824Y-68975000D01*
X108496545Y-68901095D01*
X108474988Y-68830030D01*
X108439981Y-68764537D01*
X108392869Y-68707131D01*
X108372507Y-68690420D01*
X108369749Y-68239840D01*
X108372978Y-67784890D01*
X108376511Y-67773242D01*
X108386384Y-67673000D01*
X108386384Y-67303000D01*
X108377069Y-67208419D01*
X108380502Y-66724600D01*
X108965600Y-66724600D01*
X108990376Y-66722160D01*
X109014201Y-66714933D01*
X109036157Y-66703197D01*
X109055403Y-66687403D01*
X109071197Y-66668157D01*
X109082933Y-66646201D01*
X109090160Y-66622376D01*
X109092600Y-66597600D01*
X109092600Y-60869840D01*
X111011080Y-60869840D01*
X111083212Y-60862875D01*
X111154016Y-60841693D01*
X111179552Y-60828169D01*
X111209408Y-60828120D01*
X111234181Y-60825639D01*
X111257993Y-60818373D01*
X111279931Y-60806601D01*
X111298182Y-60791735D01*
X111825009Y-60274400D01*
X113998001Y-60274400D01*
X113998001Y-62133174D01*
G04 #@! TA.AperFunction,Conductor*
D34*
G36*
X113998001Y-62133174D02*
G01*
X110853764Y-62129109D01*
X110828985Y-62131517D01*
X110805151Y-62138714D01*
X110783179Y-62150421D01*
X110763914Y-62166190D01*
X110748095Y-62185415D01*
X110736330Y-62207357D01*
X110729072Y-62231172D01*
X110726600Y-62256313D01*
X110736292Y-68279400D01*
X109329600Y-68279400D01*
X109256051Y-68286644D01*
X109185328Y-68308097D01*
X109120150Y-68342936D01*
X109063021Y-68389821D01*
X109016136Y-68446950D01*
X108981297Y-68512128D01*
X108959844Y-68582851D01*
X108952600Y-68656400D01*
X108952600Y-69168400D01*
X108503824Y-69168400D01*
X108503824Y-68975000D01*
X108496545Y-68901095D01*
X108474988Y-68830030D01*
X108439981Y-68764537D01*
X108392869Y-68707131D01*
X108372507Y-68690420D01*
X108369749Y-68239840D01*
X108372978Y-67784890D01*
X108376511Y-67773242D01*
X108386384Y-67673000D01*
X108386384Y-67303000D01*
X108377069Y-67208419D01*
X108380502Y-66724600D01*
X108965600Y-66724600D01*
X108990376Y-66722160D01*
X109014201Y-66714933D01*
X109036157Y-66703197D01*
X109055403Y-66687403D01*
X109071197Y-66668157D01*
X109082933Y-66646201D01*
X109090160Y-66622376D01*
X109092600Y-66597600D01*
X109092600Y-60869840D01*
X111011080Y-60869840D01*
X111083212Y-60862875D01*
X111154016Y-60841693D01*
X111179552Y-60828169D01*
X111209408Y-60828120D01*
X111234181Y-60825639D01*
X111257993Y-60818373D01*
X111279931Y-60806601D01*
X111298182Y-60791735D01*
X111825009Y-60274400D01*
X113998001Y-60274400D01*
X113998001Y-62133174D01*
G37*
G04 #@! TD.AperFunction*
D35*
X113918663Y-57630758D02*
X113936609Y-57636176D01*
X113953166Y-57644979D01*
X113967695Y-57656829D01*
X113979648Y-57671279D01*
X113988566Y-57687772D01*
X113994110Y-57705680D01*
X113998001Y-57742702D01*
X113998001Y-59705440D01*
X111676560Y-59705440D01*
X111651784Y-59707880D01*
X111627959Y-59715107D01*
X111606003Y-59726843D01*
X111587102Y-59742294D01*
X110958759Y-60365840D01*
X108613320Y-60365840D01*
X108610436Y-60366124D01*
X108652727Y-60314592D01*
X108734162Y-60162237D01*
X108784310Y-59996922D01*
X108797000Y-59868079D01*
X108797000Y-59181921D01*
X108784310Y-59053078D01*
X108734162Y-58887763D01*
X108652727Y-58735408D01*
X108543133Y-58601867D01*
X108409592Y-58492273D01*
X108257237Y-58410838D01*
X108091922Y-58360690D01*
X107920000Y-58343757D01*
X107748079Y-58360690D01*
X107582764Y-58410838D01*
X107430409Y-58492273D01*
X107296868Y-58601867D01*
X107187274Y-58735408D01*
X107105838Y-58887763D01*
X107055690Y-59053078D01*
X107043000Y-59181921D01*
X107043000Y-59868078D01*
X107055690Y-59996921D01*
X107105838Y-60162236D01*
X107187273Y-60314591D01*
X107296867Y-60448133D01*
X107430408Y-60557727D01*
X107582763Y-60639162D01*
X107748078Y-60689310D01*
X107920000Y-60706243D01*
X108091921Y-60689310D01*
X108257236Y-60639162D01*
X108409591Y-60557727D01*
X108486320Y-60494758D01*
X108486320Y-62021920D01*
X106403520Y-62021920D01*
X106378744Y-62024360D01*
X106354919Y-62031587D01*
X106332963Y-62043323D01*
X106313717Y-62059117D01*
X106297923Y-62078363D01*
X106286187Y-62100319D01*
X106278960Y-62124144D01*
X106276520Y-62148920D01*
X106276520Y-62503586D01*
X106157478Y-62552895D01*
X106042501Y-62629721D01*
X105944721Y-62727501D01*
X105867895Y-62842478D01*
X105814977Y-62970234D01*
X105788000Y-63105859D01*
X105788000Y-63244141D01*
X105814977Y-63379766D01*
X105867895Y-63507522D01*
X105944721Y-63622499D01*
X106042501Y-63720279D01*
X106157478Y-63797105D01*
X106160369Y-63798302D01*
X106153455Y-63821095D01*
X106146176Y-63895000D01*
X106146176Y-64605267D01*
X106144725Y-64620000D01*
X106146176Y-64634733D01*
X106146176Y-65270580D01*
X105878824Y-65270580D01*
X105878824Y-63895000D01*
X105871545Y-63821095D01*
X105849988Y-63750030D01*
X105824400Y-63702159D01*
X105824400Y-63657680D01*
X105821960Y-63632904D01*
X105814733Y-63609079D01*
X105802997Y-63587123D01*
X105787163Y-63567838D01*
X105142958Y-62924202D01*
X105141183Y-62148629D01*
X105138686Y-62123859D01*
X105131404Y-62100051D01*
X105119618Y-62078121D01*
X105103780Y-62058912D01*
X105084499Y-62043162D01*
X105062515Y-62031476D01*
X105038674Y-62024304D01*
X105014183Y-62021920D01*
X103116437Y-62021920D01*
X103091661Y-62024360D01*
X103067836Y-62031587D01*
X103045880Y-62043323D01*
X103028371Y-62057413D01*
X101415794Y-63609353D01*
X101399634Y-63628293D01*
X101387480Y-63650020D01*
X101379798Y-63673702D01*
X101377004Y-63699533D01*
X101350012Y-63750030D01*
X101328455Y-63821095D01*
X101321176Y-63895000D01*
X101321176Y-65273120D01*
X101053824Y-65273120D01*
X101053824Y-63895000D01*
X101046545Y-63821095D01*
X101039631Y-63798302D01*
X101042522Y-63797105D01*
X101157499Y-63720279D01*
X101255279Y-63622499D01*
X101332105Y-63507522D01*
X101385023Y-63379766D01*
X101407220Y-63268170D01*
X101419248Y-63246992D01*
X101427084Y-63223361D01*
X101430200Y-63195400D01*
X101430200Y-61962040D01*
X105980925Y-57627000D01*
X113880335Y-57627000D01*
X113918663Y-57630758D01*
G04 #@! TA.AperFunction,Conductor*
D34*
G36*
X113918663Y-57630758D02*
G01*
X113936609Y-57636176D01*
X113953166Y-57644979D01*
X113967695Y-57656829D01*
X113979648Y-57671279D01*
X113988566Y-57687772D01*
X113994110Y-57705680D01*
X113998001Y-57742702D01*
X113998001Y-59705440D01*
X111676560Y-59705440D01*
X111651784Y-59707880D01*
X111627959Y-59715107D01*
X111606003Y-59726843D01*
X111587102Y-59742294D01*
X110958759Y-60365840D01*
X108613320Y-60365840D01*
X108610436Y-60366124D01*
X108652727Y-60314592D01*
X108734162Y-60162237D01*
X108784310Y-59996922D01*
X108797000Y-59868079D01*
X108797000Y-59181921D01*
X108784310Y-59053078D01*
X108734162Y-58887763D01*
X108652727Y-58735408D01*
X108543133Y-58601867D01*
X108409592Y-58492273D01*
X108257237Y-58410838D01*
X108091922Y-58360690D01*
X107920000Y-58343757D01*
X107748079Y-58360690D01*
X107582764Y-58410838D01*
X107430409Y-58492273D01*
X107296868Y-58601867D01*
X107187274Y-58735408D01*
X107105838Y-58887763D01*
X107055690Y-59053078D01*
X107043000Y-59181921D01*
X107043000Y-59868078D01*
X107055690Y-59996921D01*
X107105838Y-60162236D01*
X107187273Y-60314591D01*
X107296867Y-60448133D01*
X107430408Y-60557727D01*
X107582763Y-60639162D01*
X107748078Y-60689310D01*
X107920000Y-60706243D01*
X108091921Y-60689310D01*
X108257236Y-60639162D01*
X108409591Y-60557727D01*
X108486320Y-60494758D01*
X108486320Y-62021920D01*
X106403520Y-62021920D01*
X106378744Y-62024360D01*
X106354919Y-62031587D01*
X106332963Y-62043323D01*
X106313717Y-62059117D01*
X106297923Y-62078363D01*
X106286187Y-62100319D01*
X106278960Y-62124144D01*
X106276520Y-62148920D01*
X106276520Y-62503586D01*
X106157478Y-62552895D01*
X106042501Y-62629721D01*
X105944721Y-62727501D01*
X105867895Y-62842478D01*
X105814977Y-62970234D01*
X105788000Y-63105859D01*
X105788000Y-63244141D01*
X105814977Y-63379766D01*
X105867895Y-63507522D01*
X105944721Y-63622499D01*
X106042501Y-63720279D01*
X106157478Y-63797105D01*
X106160369Y-63798302D01*
X106153455Y-63821095D01*
X106146176Y-63895000D01*
X106146176Y-64605267D01*
X106144725Y-64620000D01*
X106146176Y-64634733D01*
X106146176Y-65270580D01*
X105878824Y-65270580D01*
X105878824Y-63895000D01*
X105871545Y-63821095D01*
X105849988Y-63750030D01*
X105824400Y-63702159D01*
X105824400Y-63657680D01*
X105821960Y-63632904D01*
X105814733Y-63609079D01*
X105802997Y-63587123D01*
X105787163Y-63567838D01*
X105142958Y-62924202D01*
X105141183Y-62148629D01*
X105138686Y-62123859D01*
X105131404Y-62100051D01*
X105119618Y-62078121D01*
X105103780Y-62058912D01*
X105084499Y-62043162D01*
X105062515Y-62031476D01*
X105038674Y-62024304D01*
X105014183Y-62021920D01*
X103116437Y-62021920D01*
X103091661Y-62024360D01*
X103067836Y-62031587D01*
X103045880Y-62043323D01*
X103028371Y-62057413D01*
X101415794Y-63609353D01*
X101399634Y-63628293D01*
X101387480Y-63650020D01*
X101379798Y-63673702D01*
X101377004Y-63699533D01*
X101350012Y-63750030D01*
X101328455Y-63821095D01*
X101321176Y-63895000D01*
X101321176Y-65273120D01*
X101053824Y-65273120D01*
X101053824Y-63895000D01*
X101046545Y-63821095D01*
X101039631Y-63798302D01*
X101042522Y-63797105D01*
X101157499Y-63720279D01*
X101255279Y-63622499D01*
X101332105Y-63507522D01*
X101385023Y-63379766D01*
X101407220Y-63268170D01*
X101419248Y-63246992D01*
X101427084Y-63223361D01*
X101430200Y-63195400D01*
X101430200Y-61962040D01*
X105980925Y-57627000D01*
X113880335Y-57627000D01*
X113918663Y-57630758D01*
G37*
G04 #@! TD.AperFunction*
D36*
X110931800Y-70844787D02*
X110931800Y-72035301D01*
X110453562Y-72035689D01*
X110375916Y-71994186D01*
X110278965Y-71964776D01*
X110178140Y-71954846D01*
X109898140Y-71954846D01*
X109797315Y-71964776D01*
X109700364Y-71994186D01*
X109621456Y-72036364D01*
X109495016Y-72036466D01*
X109454600Y-72014863D01*
X109454600Y-70967800D01*
X109452198Y-70943414D01*
X109445085Y-70919965D01*
X109433534Y-70898354D01*
X109417988Y-70879412D01*
X109407687Y-70870191D01*
X109280687Y-70768591D01*
X109260144Y-70755233D01*
X109237390Y-70746139D01*
X109210035Y-70742255D01*
X109209347Y-70741691D01*
X109144200Y-70706869D01*
X109073513Y-70685426D01*
X109000000Y-70678186D01*
X108501814Y-70678186D01*
X108501814Y-70671814D01*
X109000000Y-70671814D01*
X109073513Y-70664574D01*
X109121556Y-70650000D01*
X110712349Y-70650000D01*
X110931800Y-70844787D01*
G04 #@! TA.AperFunction,Conductor*
D34*
G36*
X110931800Y-70844787D02*
G01*
X110931800Y-72035301D01*
X110453562Y-72035689D01*
X110375916Y-71994186D01*
X110278965Y-71964776D01*
X110178140Y-71954846D01*
X109898140Y-71954846D01*
X109797315Y-71964776D01*
X109700364Y-71994186D01*
X109621456Y-72036364D01*
X109495016Y-72036466D01*
X109454600Y-72014863D01*
X109454600Y-70967800D01*
X109452198Y-70943414D01*
X109445085Y-70919965D01*
X109433534Y-70898354D01*
X109417988Y-70879412D01*
X109407687Y-70870191D01*
X109280687Y-70768591D01*
X109260144Y-70755233D01*
X109237390Y-70746139D01*
X109210035Y-70742255D01*
X109209347Y-70741691D01*
X109144200Y-70706869D01*
X109073513Y-70685426D01*
X109000000Y-70678186D01*
X108501814Y-70678186D01*
X108501814Y-70671814D01*
X109000000Y-70671814D01*
X109073513Y-70664574D01*
X109121556Y-70650000D01*
X110712349Y-70650000D01*
X110931800Y-70844787D01*
G37*
G04 #@! TD.AperFunction*
D36*
X110902715Y-69700000D02*
X109153830Y-69700000D01*
X109151800Y-69699800D01*
X109120897Y-69699800D01*
X109073513Y-69685426D01*
X109000000Y-69678186D01*
X108514800Y-69678186D01*
X108514800Y-69671814D01*
X109000000Y-69671814D01*
X109014357Y-69670400D01*
X109202600Y-69670400D01*
X109226986Y-69667998D01*
X109250435Y-69660885D01*
X109272046Y-69649334D01*
X109290988Y-69633788D01*
X109417988Y-69506788D01*
X109433534Y-69487846D01*
X109445085Y-69466235D01*
X109452198Y-69442786D01*
X109454600Y-69418400D01*
X109454600Y-68781400D01*
X110883577Y-68781400D01*
X110902715Y-69700000D01*
G04 #@! TA.AperFunction,Conductor*
D34*
G36*
X110902715Y-69700000D02*
G01*
X109153830Y-69700000D01*
X109151800Y-69699800D01*
X109120897Y-69699800D01*
X109073513Y-69685426D01*
X109000000Y-69678186D01*
X108514800Y-69678186D01*
X108514800Y-69671814D01*
X109000000Y-69671814D01*
X109014357Y-69670400D01*
X109202600Y-69670400D01*
X109226986Y-69667998D01*
X109250435Y-69660885D01*
X109272046Y-69649334D01*
X109290988Y-69633788D01*
X109417988Y-69506788D01*
X109433534Y-69487846D01*
X109445085Y-69466235D01*
X109452198Y-69442786D01*
X109454600Y-69418400D01*
X109454600Y-68781400D01*
X110883577Y-68781400D01*
X110902715Y-69700000D01*
G37*
G04 #@! TD.AperFunction*
D32*
X108339000Y-71179700D02*
X109016100Y-71179700D01*
X109016100Y-72161600D01*
X109022173Y-72223010D01*
X109040061Y-72281806D01*
X109069076Y-72335982D01*
X109108102Y-72383458D01*
X109155640Y-72422407D01*
X109209864Y-72451333D01*
X109268688Y-72469126D01*
X109329854Y-72475100D01*
X109494700Y-72474966D01*
X109494700Y-83208384D01*
X109180495Y-83501300D01*
X106541297Y-83501300D01*
X106528909Y-83502520D01*
X106516997Y-83506134D01*
X106506018Y-83512002D01*
X106496396Y-83519899D01*
X106488499Y-83529521D01*
X106482631Y-83540500D01*
X106479017Y-83552412D01*
X106477797Y-83564796D01*
X106477506Y-88813840D01*
X104040999Y-88813840D01*
X104028611Y-88815060D01*
X104016699Y-88818674D01*
X104005720Y-88824542D01*
X103996098Y-88832439D01*
X103988201Y-88842061D01*
X103982333Y-88853040D01*
X103978719Y-88864952D01*
X103977499Y-88877281D01*
X103976559Y-89888260D01*
X103804951Y-89888260D01*
X103802560Y-88874650D01*
X103801310Y-88862265D01*
X103797669Y-88850361D01*
X103791775Y-88839397D01*
X103783855Y-88829793D01*
X103774214Y-88821919D01*
X103763222Y-88816077D01*
X103751301Y-88812491D01*
X103739061Y-88811300D01*
X100896913Y-88811238D01*
X100913800Y-83577705D01*
X100912620Y-83565313D01*
X100909044Y-83553389D01*
X100903212Y-83542392D01*
X100895346Y-83532744D01*
X100885749Y-83524816D01*
X100874790Y-83518912D01*
X100862889Y-83515260D01*
X100850364Y-83514000D01*
X99808900Y-83512952D01*
X99808900Y-83288500D01*
X103690000Y-83288500D01*
X103702388Y-83287280D01*
X103714300Y-83283666D01*
X103725279Y-83277798D01*
X103734901Y-83269901D01*
X103742798Y-83260279D01*
X103748666Y-83249300D01*
X103752280Y-83237388D01*
X103753500Y-83225000D01*
X103753500Y-83085243D01*
X103763044Y-83067388D01*
X103776782Y-83022099D01*
X103781421Y-82975000D01*
X103781421Y-82200000D01*
X103776782Y-82152901D01*
X103772414Y-82138500D01*
X104407586Y-82138500D01*
X104403218Y-82152901D01*
X104398579Y-82200000D01*
X104398579Y-82975000D01*
X104401751Y-83007205D01*
X104384164Y-83016605D01*
X104355296Y-83040296D01*
X104331605Y-83069164D01*
X104314001Y-83102099D01*
X104303160Y-83137835D01*
X104299500Y-83175000D01*
X104299500Y-83609500D01*
X101490000Y-83609500D01*
X101452835Y-83613160D01*
X101417099Y-83624001D01*
X101384164Y-83641605D01*
X101355296Y-83665296D01*
X101331605Y-83694164D01*
X101314001Y-83727099D01*
X101303160Y-83762835D01*
X101299500Y-83800000D01*
X101299500Y-88175000D01*
X101303160Y-88212165D01*
X101314001Y-88247901D01*
X101331605Y-88280836D01*
X101355296Y-88309704D01*
X101384164Y-88333395D01*
X101417099Y-88350999D01*
X101452835Y-88361840D01*
X101490000Y-88365500D01*
X103799500Y-88365500D01*
X103799500Y-88450000D01*
X103803160Y-88487165D01*
X103814001Y-88522901D01*
X103831605Y-88555836D01*
X103855296Y-88584704D01*
X103884164Y-88608395D01*
X103917099Y-88625999D01*
X103952835Y-88636840D01*
X103990000Y-88640500D01*
X104665000Y-88640500D01*
X104702165Y-88636840D01*
X104737901Y-88625999D01*
X104770836Y-88608395D01*
X104799704Y-88584704D01*
X104823395Y-88555836D01*
X104840999Y-88522901D01*
X104851840Y-88487165D01*
X104855500Y-88450000D01*
X104855500Y-87838500D01*
X105440000Y-87838500D01*
X105452388Y-87837280D01*
X105464300Y-87833666D01*
X105475279Y-87827798D01*
X105484901Y-87819901D01*
X105492798Y-87810279D01*
X105498666Y-87799300D01*
X105502280Y-87787388D01*
X105503500Y-87775003D01*
X105503630Y-84644192D01*
X105790405Y-84644470D01*
X105802795Y-84643262D01*
X105814710Y-84639660D01*
X105825694Y-84633803D01*
X105835325Y-84625915D01*
X105843231Y-84616300D01*
X105849110Y-84605327D01*
X105852735Y-84593419D01*
X105853967Y-84580973D01*
X105854097Y-81937772D01*
X106248188Y-81935364D01*
X106260569Y-81934068D01*
X106272458Y-81930382D01*
X106283401Y-81924447D01*
X106292975Y-81916491D01*
X106300813Y-81906820D01*
X106306614Y-81895806D01*
X106310154Y-81883872D01*
X106311300Y-81871865D01*
X106311300Y-80952948D01*
X107208190Y-80960158D01*
X107220587Y-80959037D01*
X107232528Y-80955520D01*
X107243553Y-80949740D01*
X107253239Y-80941921D01*
X107261213Y-80932362D01*
X107267169Y-80921431D01*
X107270878Y-80909549D01*
X107272200Y-80896813D01*
X107274740Y-79840173D01*
X107274740Y-72147500D01*
X108250000Y-72147500D01*
X108262388Y-72146280D01*
X108274300Y-72142666D01*
X108285279Y-72136798D01*
X108294901Y-72128901D01*
X108302798Y-72119279D01*
X108308666Y-72108300D01*
X108312280Y-72096388D01*
X108313500Y-72084000D01*
X108313500Y-71404669D01*
X108316422Y-71375000D01*
X108316422Y-71177476D01*
X108339000Y-71179700D01*
G04 #@! TA.AperFunction,Conductor*
D34*
G36*
X108339000Y-71179700D02*
G01*
X109016100Y-71179700D01*
X109016100Y-72161600D01*
X109022173Y-72223010D01*
X109040061Y-72281806D01*
X109069076Y-72335982D01*
X109108102Y-72383458D01*
X109155640Y-72422407D01*
X109209864Y-72451333D01*
X109268688Y-72469126D01*
X109329854Y-72475100D01*
X109494700Y-72474966D01*
X109494700Y-83208384D01*
X109180495Y-83501300D01*
X106541297Y-83501300D01*
X106528909Y-83502520D01*
X106516997Y-83506134D01*
X106506018Y-83512002D01*
X106496396Y-83519899D01*
X106488499Y-83529521D01*
X106482631Y-83540500D01*
X106479017Y-83552412D01*
X106477797Y-83564796D01*
X106477506Y-88813840D01*
X104040999Y-88813840D01*
X104028611Y-88815060D01*
X104016699Y-88818674D01*
X104005720Y-88824542D01*
X103996098Y-88832439D01*
X103988201Y-88842061D01*
X103982333Y-88853040D01*
X103978719Y-88864952D01*
X103977499Y-88877281D01*
X103976559Y-89888260D01*
X103804951Y-89888260D01*
X103802560Y-88874650D01*
X103801310Y-88862265D01*
X103797669Y-88850361D01*
X103791775Y-88839397D01*
X103783855Y-88829793D01*
X103774214Y-88821919D01*
X103763222Y-88816077D01*
X103751301Y-88812491D01*
X103739061Y-88811300D01*
X100896913Y-88811238D01*
X100913800Y-83577705D01*
X100912620Y-83565313D01*
X100909044Y-83553389D01*
X100903212Y-83542392D01*
X100895346Y-83532744D01*
X100885749Y-83524816D01*
X100874790Y-83518912D01*
X100862889Y-83515260D01*
X100850364Y-83514000D01*
X99808900Y-83512952D01*
X99808900Y-83288500D01*
X103690000Y-83288500D01*
X103702388Y-83287280D01*
X103714300Y-83283666D01*
X103725279Y-83277798D01*
X103734901Y-83269901D01*
X103742798Y-83260279D01*
X103748666Y-83249300D01*
X103752280Y-83237388D01*
X103753500Y-83225000D01*
X103753500Y-83085243D01*
X103763044Y-83067388D01*
X103776782Y-83022099D01*
X103781421Y-82975000D01*
X103781421Y-82200000D01*
X103776782Y-82152901D01*
X103772414Y-82138500D01*
X104407586Y-82138500D01*
X104403218Y-82152901D01*
X104398579Y-82200000D01*
X104398579Y-82975000D01*
X104401751Y-83007205D01*
X104384164Y-83016605D01*
X104355296Y-83040296D01*
X104331605Y-83069164D01*
X104314001Y-83102099D01*
X104303160Y-83137835D01*
X104299500Y-83175000D01*
X104299500Y-83609500D01*
X101490000Y-83609500D01*
X101452835Y-83613160D01*
X101417099Y-83624001D01*
X101384164Y-83641605D01*
X101355296Y-83665296D01*
X101331605Y-83694164D01*
X101314001Y-83727099D01*
X101303160Y-83762835D01*
X101299500Y-83800000D01*
X101299500Y-88175000D01*
X101303160Y-88212165D01*
X101314001Y-88247901D01*
X101331605Y-88280836D01*
X101355296Y-88309704D01*
X101384164Y-88333395D01*
X101417099Y-88350999D01*
X101452835Y-88361840D01*
X101490000Y-88365500D01*
X103799500Y-88365500D01*
X103799500Y-88450000D01*
X103803160Y-88487165D01*
X103814001Y-88522901D01*
X103831605Y-88555836D01*
X103855296Y-88584704D01*
X103884164Y-88608395D01*
X103917099Y-88625999D01*
X103952835Y-88636840D01*
X103990000Y-88640500D01*
X104665000Y-88640500D01*
X104702165Y-88636840D01*
X104737901Y-88625999D01*
X104770836Y-88608395D01*
X104799704Y-88584704D01*
X104823395Y-88555836D01*
X104840999Y-88522901D01*
X104851840Y-88487165D01*
X104855500Y-88450000D01*
X104855500Y-87838500D01*
X105440000Y-87838500D01*
X105452388Y-87837280D01*
X105464300Y-87833666D01*
X105475279Y-87827798D01*
X105484901Y-87819901D01*
X105492798Y-87810279D01*
X105498666Y-87799300D01*
X105502280Y-87787388D01*
X105503500Y-87775003D01*
X105503630Y-84644192D01*
X105790405Y-84644470D01*
X105802795Y-84643262D01*
X105814710Y-84639660D01*
X105825694Y-84633803D01*
X105835325Y-84625915D01*
X105843231Y-84616300D01*
X105849110Y-84605327D01*
X105852735Y-84593419D01*
X105853967Y-84580973D01*
X105854097Y-81937772D01*
X106248188Y-81935364D01*
X106260569Y-81934068D01*
X106272458Y-81930382D01*
X106283401Y-81924447D01*
X106292975Y-81916491D01*
X106300813Y-81906820D01*
X106306614Y-81895806D01*
X106310154Y-81883872D01*
X106311300Y-81871865D01*
X106311300Y-80952948D01*
X107208190Y-80960158D01*
X107220587Y-80959037D01*
X107232528Y-80955520D01*
X107243553Y-80949740D01*
X107253239Y-80941921D01*
X107261213Y-80932362D01*
X107267169Y-80921431D01*
X107270878Y-80909549D01*
X107272200Y-80896813D01*
X107274740Y-79840173D01*
X107274740Y-72147500D01*
X108250000Y-72147500D01*
X108262388Y-72146280D01*
X108274300Y-72142666D01*
X108285279Y-72136798D01*
X108294901Y-72128901D01*
X108302798Y-72119279D01*
X108308666Y-72108300D01*
X108312280Y-72096388D01*
X108313500Y-72084000D01*
X108313500Y-71404669D01*
X108316422Y-71375000D01*
X108316422Y-71177476D01*
X108339000Y-71179700D01*
G37*
G04 #@! TD.AperFunction*
D36*
X99802189Y-77697704D02*
X99776997Y-77728401D01*
X99734090Y-77808675D01*
X99707668Y-77895777D01*
X99699362Y-77980101D01*
X99698563Y-77012533D01*
X99801623Y-77012533D01*
X99802189Y-77697704D01*
G04 #@! TA.AperFunction,Conductor*
D34*
G36*
X99802189Y-77697704D02*
G01*
X99776997Y-77728401D01*
X99734090Y-77808675D01*
X99707668Y-77895777D01*
X99699362Y-77980101D01*
X99698563Y-77012533D01*
X99801623Y-77012533D01*
X99802189Y-77697704D01*
G37*
G04 #@! TD.AperFunction*
D37*
X109524963Y-92687414D02*
X109524962Y-94796719D01*
X109522180Y-94824962D01*
X109524962Y-94853205D01*
X109524962Y-94853207D01*
X109533282Y-94937681D01*
X109560443Y-95027218D01*
X109566161Y-95046069D01*
X109619554Y-95145960D01*
X109631755Y-95160827D01*
X109691408Y-95233516D01*
X109713355Y-95251527D01*
X110124980Y-95663153D01*
X110124982Y-98295284D01*
X110122199Y-98323537D01*
X110133302Y-98436256D01*
X110166180Y-98544644D01*
X110219573Y-98644535D01*
X110248413Y-98679676D01*
X110291428Y-98732091D01*
X110313370Y-98750098D01*
X110424991Y-98861719D01*
X110424990Y-103251025D01*
X110422208Y-103279268D01*
X110424990Y-103307511D01*
X110424990Y-103307513D01*
X110433310Y-103391987D01*
X110460862Y-103482813D01*
X110466189Y-103500375D01*
X110519582Y-103600266D01*
X110544277Y-103630357D01*
X110591436Y-103687822D01*
X110613384Y-103705834D01*
X110725001Y-103817451D01*
X110725000Y-104896756D01*
X110722218Y-104925000D01*
X110725000Y-104953243D01*
X110725000Y-104953245D01*
X110733320Y-105037719D01*
X110759796Y-105125000D01*
X110766199Y-105146107D01*
X110819592Y-105245998D01*
X110826161Y-105254002D01*
X110891446Y-105333554D01*
X110913394Y-105351566D01*
X111320000Y-105758172D01*
X111320000Y-106426764D01*
X111251880Y-106591220D01*
X111200000Y-106852037D01*
X111200000Y-107117963D01*
X111251880Y-107378780D01*
X111320000Y-107543236D01*
X111320000Y-108000000D01*
X107051084Y-108000000D01*
X107090575Y-107973613D01*
X107278613Y-107785575D01*
X107426354Y-107564465D01*
X107528120Y-107318780D01*
X107580000Y-107057963D01*
X107580000Y-106792037D01*
X107528120Y-106531220D01*
X107426354Y-106285535D01*
X107278613Y-106064425D01*
X107090575Y-105876387D01*
X106869465Y-105728646D01*
X106775000Y-105689517D01*
X106775000Y-92588895D01*
X106797717Y-92611612D01*
X106815724Y-92633554D01*
X106837664Y-92651559D01*
X106903279Y-92705408D01*
X106989569Y-92751531D01*
X107001580Y-92757951D01*
X107090030Y-92846401D01*
X107221058Y-92933951D01*
X107366649Y-92994257D01*
X107521207Y-93025000D01*
X107678793Y-93025000D01*
X107833351Y-92994257D01*
X107978942Y-92933951D01*
X108109970Y-92846401D01*
X108221401Y-92734970D01*
X108308951Y-92603942D01*
X108369257Y-92458351D01*
X108400000Y-92303793D01*
X108400000Y-92146207D01*
X108396198Y-92127094D01*
X108964644Y-92127094D01*
X109524963Y-92687414D01*
G04 #@! TA.AperFunction,Conductor*
D34*
G36*
X109524963Y-92687414D02*
G01*
X109524962Y-94796719D01*
X109522180Y-94824962D01*
X109524962Y-94853205D01*
X109524962Y-94853207D01*
X109533282Y-94937681D01*
X109560443Y-95027218D01*
X109566161Y-95046069D01*
X109619554Y-95145960D01*
X109631755Y-95160827D01*
X109691408Y-95233516D01*
X109713355Y-95251527D01*
X110124980Y-95663153D01*
X110124982Y-98295284D01*
X110122199Y-98323537D01*
X110133302Y-98436256D01*
X110166180Y-98544644D01*
X110219573Y-98644535D01*
X110248413Y-98679676D01*
X110291428Y-98732091D01*
X110313370Y-98750098D01*
X110424991Y-98861719D01*
X110424990Y-103251025D01*
X110422208Y-103279268D01*
X110424990Y-103307511D01*
X110424990Y-103307513D01*
X110433310Y-103391987D01*
X110460862Y-103482813D01*
X110466189Y-103500375D01*
X110519582Y-103600266D01*
X110544277Y-103630357D01*
X110591436Y-103687822D01*
X110613384Y-103705834D01*
X110725001Y-103817451D01*
X110725000Y-104896756D01*
X110722218Y-104925000D01*
X110725000Y-104953243D01*
X110725000Y-104953245D01*
X110733320Y-105037719D01*
X110759796Y-105125000D01*
X110766199Y-105146107D01*
X110819592Y-105245998D01*
X110826161Y-105254002D01*
X110891446Y-105333554D01*
X110913394Y-105351566D01*
X111320000Y-105758172D01*
X111320000Y-106426764D01*
X111251880Y-106591220D01*
X111200000Y-106852037D01*
X111200000Y-107117963D01*
X111251880Y-107378780D01*
X111320000Y-107543236D01*
X111320000Y-108000000D01*
X107051084Y-108000000D01*
X107090575Y-107973613D01*
X107278613Y-107785575D01*
X107426354Y-107564465D01*
X107528120Y-107318780D01*
X107580000Y-107057963D01*
X107580000Y-106792037D01*
X107528120Y-106531220D01*
X107426354Y-106285535D01*
X107278613Y-106064425D01*
X107090575Y-105876387D01*
X106869465Y-105728646D01*
X106775000Y-105689517D01*
X106775000Y-92588895D01*
X106797717Y-92611612D01*
X106815724Y-92633554D01*
X106837664Y-92651559D01*
X106903279Y-92705408D01*
X106989569Y-92751531D01*
X107001580Y-92757951D01*
X107090030Y-92846401D01*
X107221058Y-92933951D01*
X107366649Y-92994257D01*
X107521207Y-93025000D01*
X107678793Y-93025000D01*
X107833351Y-92994257D01*
X107978942Y-92933951D01*
X108109970Y-92846401D01*
X108221401Y-92734970D01*
X108308951Y-92603942D01*
X108369257Y-92458351D01*
X108400000Y-92303793D01*
X108400000Y-92146207D01*
X108396198Y-92127094D01*
X108964644Y-92127094D01*
X109524963Y-92687414D01*
G37*
G04 #@! TD.AperFunction*
D37*
X105625001Y-105714370D02*
X105590535Y-105728646D01*
X105369425Y-105876387D01*
X105181387Y-106064425D01*
X105033646Y-106285535D01*
X104931880Y-106531220D01*
X104880000Y-106792037D01*
X104880000Y-107057963D01*
X104931880Y-107318780D01*
X105033646Y-107564465D01*
X105181387Y-107785575D01*
X105369425Y-107973613D01*
X105408916Y-108000000D01*
X101971084Y-108000000D01*
X102010575Y-107973613D01*
X102198613Y-107785575D01*
X102346354Y-107564465D01*
X102448120Y-107318780D01*
X102500000Y-107057963D01*
X102500000Y-106792037D01*
X102448120Y-106531220D01*
X102346354Y-106285535D01*
X102198613Y-106064425D01*
X102010575Y-105876387D01*
X101801491Y-105736682D01*
X101838173Y-105700000D01*
X103871757Y-105700000D01*
X103900000Y-105702782D01*
X103928243Y-105700000D01*
X103928246Y-105700000D01*
X104012720Y-105691680D01*
X104121108Y-105658801D01*
X104220998Y-105605408D01*
X104308554Y-105533554D01*
X104326565Y-105511607D01*
X105625001Y-104213172D01*
X105625001Y-105714370D01*
G04 #@! TA.AperFunction,Conductor*
D34*
G36*
X105625001Y-105714370D02*
G01*
X105590535Y-105728646D01*
X105369425Y-105876387D01*
X105181387Y-106064425D01*
X105033646Y-106285535D01*
X104931880Y-106531220D01*
X104880000Y-106792037D01*
X104880000Y-107057963D01*
X104931880Y-107318780D01*
X105033646Y-107564465D01*
X105181387Y-107785575D01*
X105369425Y-107973613D01*
X105408916Y-108000000D01*
X101971084Y-108000000D01*
X102010575Y-107973613D01*
X102198613Y-107785575D01*
X102346354Y-107564465D01*
X102448120Y-107318780D01*
X102500000Y-107057963D01*
X102500000Y-106792037D01*
X102448120Y-106531220D01*
X102346354Y-106285535D01*
X102198613Y-106064425D01*
X102010575Y-105876387D01*
X101801491Y-105736682D01*
X101838173Y-105700000D01*
X103871757Y-105700000D01*
X103900000Y-105702782D01*
X103928243Y-105700000D01*
X103928246Y-105700000D01*
X104012720Y-105691680D01*
X104121108Y-105658801D01*
X104220998Y-105605408D01*
X104308554Y-105533554D01*
X104326565Y-105511607D01*
X105625001Y-104213172D01*
X105625001Y-105714370D01*
G37*
G04 #@! TD.AperFunction*
D37*
X101778500Y-92159591D02*
X101627112Y-92310979D01*
X101605619Y-92328618D01*
X101587980Y-92350111D01*
X101587975Y-92350116D01*
X101535201Y-92414422D01*
X101482876Y-92512315D01*
X101450654Y-92618535D01*
X101439775Y-92729000D01*
X101442501Y-92756680D01*
X101442500Y-95275781D01*
X100206000Y-95275781D01*
X100107983Y-95285435D01*
X100013733Y-95314025D01*
X99926871Y-95360454D01*
X99850736Y-95422936D01*
X99788254Y-95499071D01*
X99741825Y-95585933D01*
X99726043Y-95637959D01*
X99630330Y-95608925D01*
X99505000Y-95596581D01*
X99165000Y-95596581D01*
X99039670Y-95608925D01*
X98919157Y-95645482D01*
X98808091Y-95704848D01*
X98710741Y-95784741D01*
X98630848Y-95882091D01*
X98571482Y-95993157D01*
X98534925Y-96113670D01*
X98522581Y-96239000D01*
X98522581Y-96519000D01*
X98534925Y-96644330D01*
X98571482Y-96764843D01*
X98630848Y-96875909D01*
X98710741Y-96973259D01*
X98808091Y-97053152D01*
X98919157Y-97112518D01*
X99039670Y-97149075D01*
X99165000Y-97161419D01*
X99505000Y-97161419D01*
X99630330Y-97149075D01*
X99726488Y-97119906D01*
X99741825Y-97170467D01*
X99788254Y-97257329D01*
X99850736Y-97333464D01*
X99926871Y-97395946D01*
X100013733Y-97442375D01*
X100107983Y-97470965D01*
X100206000Y-97480619D01*
X101606000Y-97480619D01*
X101704017Y-97470965D01*
X101798267Y-97442375D01*
X101885129Y-97395946D01*
X101961264Y-97333464D01*
X102023746Y-97257329D01*
X102070175Y-97170467D01*
X102098765Y-97076217D01*
X102108419Y-96978200D01*
X102108419Y-96832553D01*
X102174182Y-96778582D01*
X102191826Y-96757083D01*
X102384879Y-96564029D01*
X102406382Y-96546382D01*
X102476800Y-96460578D01*
X102529125Y-96362685D01*
X102561346Y-96256465D01*
X102569500Y-96173677D01*
X102569500Y-96173668D01*
X102572225Y-96146001D01*
X102569500Y-96118334D01*
X102569500Y-95780619D01*
X103806000Y-95780619D01*
X103904017Y-95770965D01*
X103998267Y-95742375D01*
X104085129Y-95695946D01*
X104161264Y-95633464D01*
X104223746Y-95557329D01*
X104270175Y-95470467D01*
X104283312Y-95427159D01*
X104345670Y-95446075D01*
X104471000Y-95458419D01*
X104811000Y-95458419D01*
X104936330Y-95446075D01*
X105056843Y-95409518D01*
X105167909Y-95350152D01*
X105265259Y-95270259D01*
X105325001Y-95197463D01*
X105325000Y-102886827D01*
X103661828Y-104550000D01*
X101628242Y-104550000D01*
X101599999Y-104547218D01*
X101571756Y-104550000D01*
X101571754Y-104550000D01*
X101487280Y-104558320D01*
X101378892Y-104591199D01*
X101279001Y-104644592D01*
X101233153Y-104682218D01*
X101191446Y-104716446D01*
X101173440Y-104738387D01*
X100763389Y-105148439D01*
X100741447Y-105166446D01*
X100723441Y-105188387D01*
X100669592Y-105254002D01*
X100616199Y-105353893D01*
X100600573Y-105405408D01*
X100584377Y-105458801D01*
X100583321Y-105462281D01*
X100572218Y-105575000D01*
X100575001Y-105603253D01*
X100575001Y-105701943D01*
X100510535Y-105728646D01*
X100289425Y-105876387D01*
X100101387Y-106064425D01*
X99953646Y-106285535D01*
X99851880Y-106531220D01*
X99800000Y-106792037D01*
X99800000Y-107057963D01*
X99851880Y-107318780D01*
X99953646Y-107564465D01*
X100101387Y-107785575D01*
X100289425Y-107973613D01*
X100328916Y-108000000D01*
X95980000Y-108000000D01*
X95980000Y-107543236D01*
X96048120Y-107378780D01*
X96100000Y-107117963D01*
X96100000Y-106852037D01*
X96048120Y-106591220D01*
X96015560Y-106512613D01*
X96311613Y-106216560D01*
X96333554Y-106198554D01*
X96380229Y-106141679D01*
X96405408Y-106110999D01*
X96458801Y-106011108D01*
X96464023Y-105993892D01*
X96491680Y-105902720D01*
X96500000Y-105818246D01*
X96500000Y-105818243D01*
X96502782Y-105790000D01*
X96500000Y-105761757D01*
X96500000Y-103912450D01*
X96911632Y-103500819D01*
X96933573Y-103482813D01*
X97004500Y-103396387D01*
X97005427Y-103395258D01*
X97058820Y-103295367D01*
X97061156Y-103287665D01*
X97091699Y-103186979D01*
X97100019Y-103102505D01*
X97100019Y-103102503D01*
X97102801Y-103074260D01*
X97100019Y-103046017D01*
X97100019Y-96540985D01*
X97236632Y-96404371D01*
X97258582Y-96386358D01*
X97330436Y-96298802D01*
X97346615Y-96268535D01*
X97383830Y-96198910D01*
X97409016Y-96115881D01*
X97416708Y-96090524D01*
X97425028Y-96006050D01*
X97425028Y-96006048D01*
X97427810Y-95977802D01*
X97425028Y-95949559D01*
X97425028Y-94111700D01*
X99736709Y-91800020D01*
X100974217Y-91800020D01*
X101002460Y-91802802D01*
X101030703Y-91800020D01*
X101030706Y-91800020D01*
X101115180Y-91791700D01*
X101223568Y-91758821D01*
X101323458Y-91705428D01*
X101411014Y-91633574D01*
X101429025Y-91611627D01*
X101778501Y-91262151D01*
X101778500Y-92159591D01*
G04 #@! TA.AperFunction,Conductor*
D34*
G36*
X101778500Y-92159591D02*
G01*
X101627112Y-92310979D01*
X101605619Y-92328618D01*
X101587980Y-92350111D01*
X101587975Y-92350116D01*
X101535201Y-92414422D01*
X101482876Y-92512315D01*
X101450654Y-92618535D01*
X101439775Y-92729000D01*
X101442501Y-92756680D01*
X101442500Y-95275781D01*
X100206000Y-95275781D01*
X100107983Y-95285435D01*
X100013733Y-95314025D01*
X99926871Y-95360454D01*
X99850736Y-95422936D01*
X99788254Y-95499071D01*
X99741825Y-95585933D01*
X99726043Y-95637959D01*
X99630330Y-95608925D01*
X99505000Y-95596581D01*
X99165000Y-95596581D01*
X99039670Y-95608925D01*
X98919157Y-95645482D01*
X98808091Y-95704848D01*
X98710741Y-95784741D01*
X98630848Y-95882091D01*
X98571482Y-95993157D01*
X98534925Y-96113670D01*
X98522581Y-96239000D01*
X98522581Y-96519000D01*
X98534925Y-96644330D01*
X98571482Y-96764843D01*
X98630848Y-96875909D01*
X98710741Y-96973259D01*
X98808091Y-97053152D01*
X98919157Y-97112518D01*
X99039670Y-97149075D01*
X99165000Y-97161419D01*
X99505000Y-97161419D01*
X99630330Y-97149075D01*
X99726488Y-97119906D01*
X99741825Y-97170467D01*
X99788254Y-97257329D01*
X99850736Y-97333464D01*
X99926871Y-97395946D01*
X100013733Y-97442375D01*
X100107983Y-97470965D01*
X100206000Y-97480619D01*
X101606000Y-97480619D01*
X101704017Y-97470965D01*
X101798267Y-97442375D01*
X101885129Y-97395946D01*
X101961264Y-97333464D01*
X102023746Y-97257329D01*
X102070175Y-97170467D01*
X102098765Y-97076217D01*
X102108419Y-96978200D01*
X102108419Y-96832553D01*
X102174182Y-96778582D01*
X102191826Y-96757083D01*
X102384879Y-96564029D01*
X102406382Y-96546382D01*
X102476800Y-96460578D01*
X102529125Y-96362685D01*
X102561346Y-96256465D01*
X102569500Y-96173677D01*
X102569500Y-96173668D01*
X102572225Y-96146001D01*
X102569500Y-96118334D01*
X102569500Y-95780619D01*
X103806000Y-95780619D01*
X103904017Y-95770965D01*
X103998267Y-95742375D01*
X104085129Y-95695946D01*
X104161264Y-95633464D01*
X104223746Y-95557329D01*
X104270175Y-95470467D01*
X104283312Y-95427159D01*
X104345670Y-95446075D01*
X104471000Y-95458419D01*
X104811000Y-95458419D01*
X104936330Y-95446075D01*
X105056843Y-95409518D01*
X105167909Y-95350152D01*
X105265259Y-95270259D01*
X105325001Y-95197463D01*
X105325000Y-102886827D01*
X103661828Y-104550000D01*
X101628242Y-104550000D01*
X101599999Y-104547218D01*
X101571756Y-104550000D01*
X101571754Y-104550000D01*
X101487280Y-104558320D01*
X101378892Y-104591199D01*
X101279001Y-104644592D01*
X101233153Y-104682218D01*
X101191446Y-104716446D01*
X101173440Y-104738387D01*
X100763389Y-105148439D01*
X100741447Y-105166446D01*
X100723441Y-105188387D01*
X100669592Y-105254002D01*
X100616199Y-105353893D01*
X100600573Y-105405408D01*
X100584377Y-105458801D01*
X100583321Y-105462281D01*
X100572218Y-105575000D01*
X100575001Y-105603253D01*
X100575001Y-105701943D01*
X100510535Y-105728646D01*
X100289425Y-105876387D01*
X100101387Y-106064425D01*
X99953646Y-106285535D01*
X99851880Y-106531220D01*
X99800000Y-106792037D01*
X99800000Y-107057963D01*
X99851880Y-107318780D01*
X99953646Y-107564465D01*
X100101387Y-107785575D01*
X100289425Y-107973613D01*
X100328916Y-108000000D01*
X95980000Y-108000000D01*
X95980000Y-107543236D01*
X96048120Y-107378780D01*
X96100000Y-107117963D01*
X96100000Y-106852037D01*
X96048120Y-106591220D01*
X96015560Y-106512613D01*
X96311613Y-106216560D01*
X96333554Y-106198554D01*
X96380229Y-106141679D01*
X96405408Y-106110999D01*
X96458801Y-106011108D01*
X96464023Y-105993892D01*
X96491680Y-105902720D01*
X96500000Y-105818246D01*
X96500000Y-105818243D01*
X96502782Y-105790000D01*
X96500000Y-105761757D01*
X96500000Y-103912450D01*
X96911632Y-103500819D01*
X96933573Y-103482813D01*
X97004500Y-103396387D01*
X97005427Y-103395258D01*
X97058820Y-103295367D01*
X97061156Y-103287665D01*
X97091699Y-103186979D01*
X97100019Y-103102505D01*
X97100019Y-103102503D01*
X97102801Y-103074260D01*
X97100019Y-103046017D01*
X97100019Y-96540985D01*
X97236632Y-96404371D01*
X97258582Y-96386358D01*
X97330436Y-96298802D01*
X97346615Y-96268535D01*
X97383830Y-96198910D01*
X97409016Y-96115881D01*
X97416708Y-96090524D01*
X97425028Y-96006050D01*
X97425028Y-96006048D01*
X97427810Y-95977802D01*
X97425028Y-95949559D01*
X97425028Y-94111700D01*
X99736709Y-91800020D01*
X100974217Y-91800020D01*
X101002460Y-91802802D01*
X101030703Y-91800020D01*
X101030706Y-91800020D01*
X101115180Y-91791700D01*
X101223568Y-91758821D01*
X101323458Y-91705428D01*
X101411014Y-91633574D01*
X101429025Y-91611627D01*
X101778501Y-91262151D01*
X101778500Y-92159591D01*
G37*
G04 #@! TD.AperFunction*
D37*
X113875000Y-102635000D02*
X111875000Y-102635000D01*
X111875000Y-101175000D01*
X113875000Y-101175000D01*
X113875000Y-102635000D01*
G04 #@! TA.AperFunction,Conductor*
D34*
G36*
X113875000Y-102635000D02*
G01*
X111875000Y-102635000D01*
X111875000Y-101175000D01*
X113875000Y-101175000D01*
X113875000Y-102635000D01*
G37*
G04 #@! TD.AperFunction*
D37*
X95650011Y-102635000D02*
X93425000Y-102635000D01*
X93425000Y-101175000D01*
X95650011Y-101175000D01*
X95650011Y-102635000D01*
G04 #@! TA.AperFunction,Conductor*
D34*
G36*
X95650011Y-102635000D02*
G01*
X93425000Y-102635000D01*
X93425000Y-101175000D01*
X95650011Y-101175000D01*
X95650011Y-102635000D01*
G37*
G04 #@! TD.AperFunction*
D37*
X104473091Y-92369152D02*
X104584157Y-92428518D01*
X104704670Y-92465075D01*
X104830000Y-92477419D01*
X105170000Y-92477419D01*
X105295330Y-92465075D01*
X105325001Y-92456074D01*
X105325001Y-94154537D01*
X105265259Y-94081741D01*
X105167909Y-94001848D01*
X105056843Y-93942482D01*
X104936330Y-93905925D01*
X104811000Y-93893581D01*
X104471000Y-93893581D01*
X104345670Y-93905925D01*
X104282090Y-93925212D01*
X104270175Y-93885933D01*
X104223746Y-93799071D01*
X104161264Y-93722936D01*
X104085129Y-93660454D01*
X103998267Y-93614025D01*
X103904017Y-93585435D01*
X103806000Y-93575781D01*
X103669500Y-93575781D01*
X103669500Y-92470777D01*
X103741000Y-92477819D01*
X104081000Y-92477819D01*
X104206330Y-92465475D01*
X104326843Y-92428918D01*
X104437909Y-92369552D01*
X104455744Y-92354915D01*
X104473091Y-92369152D01*
G04 #@! TA.AperFunction,Conductor*
D34*
G36*
X104473091Y-92369152D02*
G01*
X104584157Y-92428518D01*
X104704670Y-92465075D01*
X104830000Y-92477419D01*
X105170000Y-92477419D01*
X105295330Y-92465075D01*
X105325001Y-92456074D01*
X105325001Y-94154537D01*
X105265259Y-94081741D01*
X105167909Y-94001848D01*
X105056843Y-93942482D01*
X104936330Y-93905925D01*
X104811000Y-93893581D01*
X104471000Y-93893581D01*
X104345670Y-93905925D01*
X104282090Y-93925212D01*
X104270175Y-93885933D01*
X104223746Y-93799071D01*
X104161264Y-93722936D01*
X104085129Y-93660454D01*
X103998267Y-93614025D01*
X103904017Y-93585435D01*
X103806000Y-93575781D01*
X103669500Y-93575781D01*
X103669500Y-92470777D01*
X103741000Y-92477819D01*
X104081000Y-92477819D01*
X104206330Y-92465475D01*
X104326843Y-92428918D01*
X104437909Y-92369552D01*
X104455744Y-92354915D01*
X104473091Y-92369152D01*
G37*
G04 #@! TD.AperFunction*
D37*
X96283439Y-89111612D02*
X96301446Y-89133554D01*
X96323386Y-89151559D01*
X96389001Y-89205408D01*
X96467824Y-89247540D01*
X96488892Y-89258801D01*
X96597280Y-89291680D01*
X96681754Y-89300000D01*
X96681756Y-89300000D01*
X96709999Y-89302782D01*
X96738242Y-89300000D01*
X98411827Y-89300000D01*
X96501828Y-91210000D01*
X95989625Y-91210000D01*
X95980000Y-91186763D01*
X95980000Y-90185000D01*
X95975196Y-90136227D01*
X95960970Y-90089329D01*
X95937867Y-90046107D01*
X95906777Y-90008223D01*
X95868893Y-89977133D01*
X95825671Y-89954030D01*
X95778773Y-89939804D01*
X95730000Y-89935000D01*
X93425000Y-89935000D01*
X93425000Y-88475000D01*
X95646828Y-88475000D01*
X96283439Y-89111612D01*
G04 #@! TA.AperFunction,Conductor*
D34*
G36*
X96283439Y-89111612D02*
G01*
X96301446Y-89133554D01*
X96323386Y-89151559D01*
X96389001Y-89205408D01*
X96467824Y-89247540D01*
X96488892Y-89258801D01*
X96597280Y-89291680D01*
X96681754Y-89300000D01*
X96681756Y-89300000D01*
X96709999Y-89302782D01*
X96738242Y-89300000D01*
X98411827Y-89300000D01*
X96501828Y-91210000D01*
X95989625Y-91210000D01*
X95980000Y-91186763D01*
X95980000Y-90185000D01*
X95975196Y-90136227D01*
X95960970Y-90089329D01*
X95937867Y-90046107D01*
X95906777Y-90008223D01*
X95868893Y-89977133D01*
X95825671Y-89954030D01*
X95778773Y-89939804D01*
X95730000Y-89935000D01*
X93425000Y-89935000D01*
X93425000Y-88475000D01*
X95646828Y-88475000D01*
X96283439Y-89111612D01*
G37*
G04 #@! TD.AperFunction*
D37*
X109524972Y-89930981D02*
X109524972Y-90499563D01*
X109522190Y-90527806D01*
X109524972Y-90556049D01*
X109524972Y-90556052D01*
X109533292Y-90640526D01*
X109552518Y-90703903D01*
X109558561Y-90723825D01*
X109548192Y-90718283D01*
X109439804Y-90685404D01*
X109355330Y-90677084D01*
X109355327Y-90677084D01*
X109327084Y-90674302D01*
X109298841Y-90677084D01*
X107338091Y-90677084D01*
X106865000Y-90203994D01*
X106865000Y-90013169D01*
X106881804Y-89957772D01*
X106892419Y-89850000D01*
X106892419Y-89232650D01*
X106894536Y-89230913D01*
X106897404Y-89227419D01*
X107515000Y-89227419D01*
X107622772Y-89216804D01*
X107678169Y-89200000D01*
X108793992Y-89200000D01*
X109524972Y-89930981D01*
G04 #@! TA.AperFunction,Conductor*
D34*
G36*
X109524972Y-89930981D02*
G01*
X109524972Y-90499563D01*
X109522190Y-90527806D01*
X109524972Y-90556049D01*
X109524972Y-90556052D01*
X109533292Y-90640526D01*
X109552518Y-90703903D01*
X109558561Y-90723825D01*
X109548192Y-90718283D01*
X109439804Y-90685404D01*
X109355330Y-90677084D01*
X109355327Y-90677084D01*
X109327084Y-90674302D01*
X109298841Y-90677084D01*
X107338091Y-90677084D01*
X106865000Y-90203994D01*
X106865000Y-90013169D01*
X106881804Y-89957772D01*
X106892419Y-89850000D01*
X106892419Y-89232650D01*
X106894536Y-89230913D01*
X106897404Y-89227419D01*
X107515000Y-89227419D01*
X107622772Y-89216804D01*
X107678169Y-89200000D01*
X108793992Y-89200000D01*
X109524972Y-89930981D01*
G37*
G04 #@! TD.AperFunction*
D37*
X111320000Y-88225000D02*
X111324804Y-88273773D01*
X111339030Y-88320671D01*
X111362133Y-88363893D01*
X111393223Y-88401777D01*
X111431107Y-88432867D01*
X111474329Y-88455970D01*
X111521227Y-88470196D01*
X111570000Y-88475000D01*
X113875000Y-88475000D01*
X113875000Y-89935000D01*
X111593172Y-89935000D01*
X111575000Y-89916828D01*
X111575000Y-89348245D01*
X111577782Y-89320002D01*
X111575000Y-89291756D01*
X111566680Y-89207282D01*
X111533801Y-89098894D01*
X111480408Y-88999004D01*
X111408554Y-88911448D01*
X111386613Y-88893442D01*
X110591336Y-88098166D01*
X110626909Y-88079152D01*
X110724259Y-87999259D01*
X110804152Y-87901909D01*
X110863518Y-87790843D01*
X110900075Y-87670330D01*
X110912419Y-87545000D01*
X110912419Y-87225000D01*
X111320000Y-87225000D01*
X111320000Y-88225000D01*
G04 #@! TA.AperFunction,Conductor*
D34*
G36*
X111320000Y-88225000D02*
G01*
X111324804Y-88273773D01*
X111339030Y-88320671D01*
X111362133Y-88363893D01*
X111393223Y-88401777D01*
X111431107Y-88432867D01*
X111474329Y-88455970D01*
X111521227Y-88470196D01*
X111570000Y-88475000D01*
X113875000Y-88475000D01*
X113875000Y-89935000D01*
X111593172Y-89935000D01*
X111575000Y-89916828D01*
X111575000Y-89348245D01*
X111577782Y-89320002D01*
X111575000Y-89291756D01*
X111566680Y-89207282D01*
X111533801Y-89098894D01*
X111480408Y-88999004D01*
X111408554Y-88911448D01*
X111386613Y-88893442D01*
X110591336Y-88098166D01*
X110626909Y-88079152D01*
X110724259Y-87999259D01*
X110804152Y-87901909D01*
X110863518Y-87790843D01*
X110900075Y-87670330D01*
X110912419Y-87545000D01*
X110912419Y-87225000D01*
X111320000Y-87225000D01*
X111320000Y-88225000D01*
G37*
G04 #@! TD.AperFunction*
D37*
X96453439Y-87011612D02*
X96471446Y-87033554D01*
X96493386Y-87051559D01*
X96559001Y-87105408D01*
X96658892Y-87158801D01*
X96767280Y-87191680D01*
X96851754Y-87200000D01*
X96851757Y-87200000D01*
X96880000Y-87202782D01*
X96908243Y-87200000D01*
X97694828Y-87200000D01*
X97636482Y-87309157D01*
X97599925Y-87429670D01*
X97587581Y-87555000D01*
X97587581Y-87850000D01*
X97072451Y-87850000D01*
X96449988Y-87227538D01*
X96449988Y-87008161D01*
X96453439Y-87011612D01*
G04 #@! TA.AperFunction,Conductor*
D34*
G36*
X96453439Y-87011612D02*
G01*
X96471446Y-87033554D01*
X96493386Y-87051559D01*
X96559001Y-87105408D01*
X96658892Y-87158801D01*
X96767280Y-87191680D01*
X96851754Y-87200000D01*
X96851757Y-87200000D01*
X96880000Y-87202782D01*
X96908243Y-87200000D01*
X97694828Y-87200000D01*
X97636482Y-87309157D01*
X97599925Y-87429670D01*
X97587581Y-87555000D01*
X97587581Y-87850000D01*
X97072451Y-87850000D01*
X96449988Y-87227538D01*
X96449988Y-87008161D01*
X96453439Y-87011612D01*
G37*
G04 #@! TD.AperFunction*
D37*
X104940021Y-87275000D02*
X102440000Y-87275000D01*
X102440000Y-84775000D01*
X104940125Y-84775000D01*
X104940021Y-87275000D01*
G04 #@! TA.AperFunction,Conductor*
D34*
G36*
X104940021Y-87275000D02*
G01*
X102440000Y-87275000D01*
X102440000Y-84775000D01*
X104940125Y-84775000D01*
X104940021Y-87275000D01*
G37*
G04 #@! TD.AperFunction*
D37*
X111251880Y-83731220D02*
X111200000Y-83992037D01*
X111200000Y-84257963D01*
X111251880Y-84518780D01*
X111320000Y-84683236D01*
X111320000Y-86025000D01*
X111262419Y-86025000D01*
X111262419Y-85762500D01*
X111249931Y-85635707D01*
X111212947Y-85513787D01*
X111152888Y-85401424D01*
X111072062Y-85302938D01*
X110973576Y-85222112D01*
X110861213Y-85162053D01*
X110739293Y-85125069D01*
X110612500Y-85112581D01*
X110267500Y-85112581D01*
X110230231Y-85116252D01*
X110230171Y-85115646D01*
X110193898Y-84996070D01*
X110134995Y-84885869D01*
X110093213Y-84834959D01*
X111290720Y-83637453D01*
X111251880Y-83731220D01*
G04 #@! TA.AperFunction,Conductor*
D34*
G36*
X111251880Y-83731220D02*
G01*
X111200000Y-83992037D01*
X111200000Y-84257963D01*
X111251880Y-84518780D01*
X111320000Y-84683236D01*
X111320000Y-86025000D01*
X111262419Y-86025000D01*
X111262419Y-85762500D01*
X111249931Y-85635707D01*
X111212947Y-85513787D01*
X111152888Y-85401424D01*
X111072062Y-85302938D01*
X110973576Y-85222112D01*
X110861213Y-85162053D01*
X110739293Y-85125069D01*
X110612500Y-85112581D01*
X110267500Y-85112581D01*
X110230231Y-85116252D01*
X110230171Y-85115646D01*
X110193898Y-84996070D01*
X110134995Y-84885869D01*
X110093213Y-84834959D01*
X111290720Y-83637453D01*
X111251880Y-83731220D01*
G37*
G04 #@! TD.AperFunction*
D37*
X96979159Y-84316610D02*
X96997166Y-84338552D01*
X97019106Y-84356557D01*
X97084721Y-84410406D01*
X97135805Y-84437711D01*
X97184612Y-84463799D01*
X97293000Y-84496678D01*
X97377474Y-84504998D01*
X97377476Y-84504998D01*
X97405719Y-84507780D01*
X97433962Y-84504998D01*
X97860000Y-84504998D01*
X97860000Y-84603793D01*
X97872912Y-84668710D01*
X97789525Y-84752097D01*
X97701975Y-84883125D01*
X97682085Y-84931144D01*
X97583587Y-84950736D01*
X97437996Y-85011042D01*
X97433085Y-85014323D01*
X97408951Y-84956058D01*
X97321401Y-84825030D01*
X97209970Y-84713599D01*
X97078942Y-84626049D01*
X96933351Y-84565743D01*
X96778793Y-84535000D01*
X96749999Y-84535000D01*
X96749999Y-84087450D01*
X96979159Y-84316610D01*
G04 #@! TA.AperFunction,Conductor*
D34*
G36*
X96979159Y-84316610D02*
G01*
X96997166Y-84338552D01*
X97019106Y-84356557D01*
X97084721Y-84410406D01*
X97135805Y-84437711D01*
X97184612Y-84463799D01*
X97293000Y-84496678D01*
X97377474Y-84504998D01*
X97377476Y-84504998D01*
X97405719Y-84507780D01*
X97433962Y-84504998D01*
X97860000Y-84504998D01*
X97860000Y-84603793D01*
X97872912Y-84668710D01*
X97789525Y-84752097D01*
X97701975Y-84883125D01*
X97682085Y-84931144D01*
X97583587Y-84950736D01*
X97437996Y-85011042D01*
X97433085Y-85014323D01*
X97408951Y-84956058D01*
X97321401Y-84825030D01*
X97209970Y-84713599D01*
X97078942Y-84626049D01*
X96933351Y-84565743D01*
X96778793Y-84535000D01*
X96749999Y-84535000D01*
X96749999Y-84087450D01*
X96979159Y-84316610D01*
G37*
G04 #@! TD.AperFunction*
D37*
X100958330Y-61545591D02*
X100887465Y-61629835D01*
X100841260Y-61716278D01*
X100812807Y-61810075D01*
X100803200Y-61907620D01*
X100803200Y-62352376D01*
X100791255Y-62350000D01*
X100628745Y-62350000D01*
X100469356Y-62381704D01*
X100319216Y-62443894D01*
X100184093Y-62534181D01*
X100069181Y-62649093D01*
X99978894Y-62784216D01*
X99916704Y-62934356D01*
X99885000Y-63093745D01*
X99885000Y-63256255D01*
X99916704Y-63415644D01*
X99978894Y-63565784D01*
X100069181Y-63700907D01*
X100184093Y-63815819D01*
X100295200Y-63890059D01*
X100295200Y-65400120D01*
X100304807Y-65497665D01*
X100333260Y-65591462D01*
X100379465Y-65677905D01*
X100441647Y-65753673D01*
X100517415Y-65815855D01*
X100603858Y-65862060D01*
X100697655Y-65890513D01*
X100795200Y-65900120D01*
X101032188Y-65900120D01*
X101026881Y-65954000D01*
X101026881Y-66224000D01*
X101039129Y-66348354D01*
X101075402Y-66467930D01*
X101134305Y-66578131D01*
X101213577Y-66674723D01*
X101310169Y-66753995D01*
X101420370Y-66812898D01*
X101539946Y-66849171D01*
X101664300Y-66861419D01*
X102034300Y-66861419D01*
X102158654Y-66849171D01*
X102278230Y-66812898D01*
X102388431Y-66753995D01*
X102485023Y-66674723D01*
X102564295Y-66578131D01*
X102623198Y-66467930D01*
X102659471Y-66348354D01*
X102671719Y-66224000D01*
X102671719Y-65954000D01*
X102660842Y-65843562D01*
X102700000Y-65847419D01*
X103000000Y-65847419D01*
X103098017Y-65837765D01*
X103100000Y-65837163D01*
X103101983Y-65837765D01*
X103200000Y-65847419D01*
X103500000Y-65847419D01*
X103598017Y-65837765D01*
X103600000Y-65837163D01*
X103601983Y-65837765D01*
X103700000Y-65847419D01*
X104000000Y-65847419D01*
X104098017Y-65837765D01*
X104100000Y-65837163D01*
X104101983Y-65837765D01*
X104200000Y-65847419D01*
X104250001Y-65847419D01*
X104250001Y-65852269D01*
X104239981Y-65954000D01*
X104239981Y-66224000D01*
X104252229Y-66348354D01*
X104288502Y-66467930D01*
X104347405Y-66578131D01*
X104426677Y-66674723D01*
X104523269Y-66753995D01*
X104633470Y-66812898D01*
X104753046Y-66849171D01*
X104877400Y-66861419D01*
X105247400Y-66861419D01*
X105371754Y-66849171D01*
X105491330Y-66812898D01*
X105601531Y-66753995D01*
X105698123Y-66674723D01*
X105777395Y-66578131D01*
X105836298Y-66467930D01*
X105872571Y-66348354D01*
X105884819Y-66224000D01*
X105884819Y-65954000D01*
X105879262Y-65897580D01*
X106403520Y-65897580D01*
X106501065Y-65887973D01*
X106594862Y-65859520D01*
X106681305Y-65813315D01*
X106757073Y-65751133D01*
X106819255Y-65675365D01*
X106865460Y-65588922D01*
X106893913Y-65495125D01*
X106903520Y-65397580D01*
X106903520Y-63890914D01*
X107015907Y-63815819D01*
X107130819Y-63700907D01*
X107221106Y-63565784D01*
X107283296Y-63415644D01*
X107315000Y-63256255D01*
X107315000Y-63093745D01*
X107283296Y-62934356D01*
X107221106Y-62784216D01*
X107130819Y-62649093D01*
X107130646Y-62648920D01*
X108465600Y-62648920D01*
X108465600Y-66097600D01*
X108254400Y-66097600D01*
X108160337Y-66106528D01*
X108066341Y-66134314D01*
X107979572Y-66179904D01*
X107903364Y-66241547D01*
X107840647Y-66316872D01*
X107793830Y-66402985D01*
X107764712Y-66496577D01*
X107754413Y-66594052D01*
X107753905Y-66665581D01*
X107602560Y-66665581D01*
X107478206Y-66677829D01*
X107358630Y-66714102D01*
X107248429Y-66773005D01*
X107169233Y-66838000D01*
X106486244Y-66838000D01*
X106454320Y-66834856D01*
X106422396Y-66838000D01*
X106422388Y-66838000D01*
X106326898Y-66847405D01*
X106204372Y-66884573D01*
X106091451Y-66944930D01*
X106056950Y-66973245D01*
X105992477Y-67026157D01*
X105972120Y-67050962D01*
X105500894Y-67522188D01*
X105402631Y-67602830D01*
X105315156Y-67709419D01*
X105250156Y-67831025D01*
X105210129Y-67962976D01*
X105200001Y-68065810D01*
X105200001Y-68754246D01*
X105182254Y-68775871D01*
X105135825Y-68862733D01*
X105107235Y-68956983D01*
X105097581Y-69055000D01*
X105097581Y-69295000D01*
X105107235Y-69393017D01*
X105116937Y-69425000D01*
X105107235Y-69456983D01*
X105100536Y-69525000D01*
X104695921Y-69525000D01*
X104663999Y-69521856D01*
X104632078Y-69525000D01*
X104632068Y-69525000D01*
X104536578Y-69534405D01*
X104414052Y-69571573D01*
X104301132Y-69631930D01*
X104202157Y-69713157D01*
X104187693Y-69730781D01*
X104155800Y-69730781D01*
X104030470Y-69743125D01*
X103909957Y-69779682D01*
X103798891Y-69839048D01*
X103701541Y-69918941D01*
X103621648Y-70016291D01*
X103562282Y-70127357D01*
X103525725Y-70247870D01*
X103513381Y-70373200D01*
X103513381Y-70653200D01*
X103525725Y-70778530D01*
X103562282Y-70899043D01*
X103621648Y-71010109D01*
X103701541Y-71107459D01*
X103798891Y-71187352D01*
X103909957Y-71246718D01*
X104030470Y-71283275D01*
X104155800Y-71295619D01*
X104495800Y-71295619D01*
X104621130Y-71283275D01*
X104741643Y-71246718D01*
X104852709Y-71187352D01*
X104950059Y-71107459D01*
X105029952Y-71010109D01*
X105089318Y-70899043D01*
X105111779Y-70825000D01*
X105155994Y-70825000D01*
X105135825Y-70862733D01*
X105107235Y-70956983D01*
X105097581Y-71055000D01*
X105097581Y-71295000D01*
X105107235Y-71393017D01*
X105135825Y-71487267D01*
X105182254Y-71574129D01*
X105244736Y-71650264D01*
X105294497Y-71691101D01*
X105302570Y-71773069D01*
X105334443Y-71878142D01*
X105335449Y-71881457D01*
X105388842Y-71981348D01*
X105407579Y-72004179D01*
X105460696Y-72068904D01*
X105482643Y-72086915D01*
X106286839Y-72891112D01*
X106304846Y-72913054D01*
X106326786Y-72931059D01*
X106392401Y-72984908D01*
X106452409Y-73016983D01*
X106492292Y-73038301D01*
X106600680Y-73071180D01*
X106685154Y-73079500D01*
X106685156Y-73079500D01*
X106711240Y-73082069D01*
X106711240Y-79839234D01*
X106709910Y-80392634D01*
X106251820Y-80388951D01*
X106150255Y-80398542D01*
X106056458Y-80426995D01*
X105970015Y-80473200D01*
X105894247Y-80535382D01*
X105832065Y-80611150D01*
X105830242Y-80614561D01*
X105702810Y-80614561D01*
X105702810Y-79691976D01*
X105750603Y-79677478D01*
X105861669Y-79618112D01*
X105959019Y-79538219D01*
X106038912Y-79440869D01*
X106098278Y-79329803D01*
X106134835Y-79209290D01*
X106147179Y-79083960D01*
X106147179Y-78803960D01*
X106134835Y-78678630D01*
X106098278Y-78558117D01*
X106047950Y-78463960D01*
X106098278Y-78369803D01*
X106134835Y-78249290D01*
X106147179Y-78123960D01*
X106147179Y-77843960D01*
X106134835Y-77718630D01*
X106098278Y-77598117D01*
X106038912Y-77487051D01*
X105959019Y-77389701D01*
X105861669Y-77309808D01*
X105750603Y-77250442D01*
X105630090Y-77213885D01*
X105504760Y-77201541D01*
X105164760Y-77201541D01*
X105039430Y-77213885D01*
X104918917Y-77250442D01*
X104859760Y-77282062D01*
X104800603Y-77250442D01*
X104680090Y-77213885D01*
X104554760Y-77201541D01*
X104214760Y-77201541D01*
X104089430Y-77213885D01*
X103968917Y-77250442D01*
X103857851Y-77309808D01*
X103760501Y-77389701D01*
X103680608Y-77487051D01*
X103621242Y-77598117D01*
X103584685Y-77718630D01*
X103572341Y-77843960D01*
X103572341Y-78123960D01*
X103584685Y-78249290D01*
X103621242Y-78369803D01*
X103671570Y-78463960D01*
X103621242Y-78558117D01*
X103584685Y-78678630D01*
X103572341Y-78803960D01*
X103572341Y-79083960D01*
X103584685Y-79209290D01*
X103621242Y-79329803D01*
X103680608Y-79440869D01*
X103760501Y-79538219D01*
X103857851Y-79618112D01*
X103968917Y-79677478D01*
X104089430Y-79714035D01*
X104214760Y-79726379D01*
X104275801Y-79726379D01*
X104275801Y-80037981D01*
X104122000Y-80037981D01*
X103996670Y-80050325D01*
X103876157Y-80086882D01*
X103796700Y-80129353D01*
X103717243Y-80086882D01*
X103596730Y-80050325D01*
X103471400Y-80037981D01*
X103292200Y-80037981D01*
X103292200Y-78302745D01*
X103294982Y-78274502D01*
X103291634Y-78240510D01*
X103283880Y-78161782D01*
X103251001Y-78053394D01*
X103215170Y-77986360D01*
X103197608Y-77953503D01*
X103143759Y-77887888D01*
X103125754Y-77865948D01*
X103103812Y-77847941D01*
X102118193Y-76862323D01*
X102100182Y-76840376D01*
X102012626Y-76768522D01*
X101912736Y-76715129D01*
X101812539Y-76684735D01*
X101878951Y-76585342D01*
X101939257Y-76439751D01*
X101970000Y-76285193D01*
X101970000Y-76127607D01*
X101939257Y-75973049D01*
X101878951Y-75827458D01*
X101791401Y-75696430D01*
X101679970Y-75584999D01*
X101548942Y-75497449D01*
X101403351Y-75437143D01*
X101348193Y-75426171D01*
X101380243Y-75409040D01*
X101486685Y-75321685D01*
X101574040Y-75215243D01*
X101638951Y-75093804D01*
X101678922Y-74962035D01*
X101692419Y-74825000D01*
X101692419Y-74425000D01*
X101678922Y-74287965D01*
X101638951Y-74156196D01*
X101574040Y-74034757D01*
X101486685Y-73928315D01*
X101380243Y-73840960D01*
X101258804Y-73776049D01*
X101127035Y-73736078D01*
X100990000Y-73722581D01*
X99390000Y-73722581D01*
X99252965Y-73736078D01*
X99121196Y-73776049D01*
X98999757Y-73840960D01*
X98893315Y-73928315D01*
X98805960Y-74034757D01*
X98741049Y-74156196D01*
X98701078Y-74287965D01*
X98687581Y-74425000D01*
X98687581Y-74825000D01*
X98701078Y-74962035D01*
X98741049Y-75093804D01*
X98786896Y-75179577D01*
X98558792Y-75407681D01*
X98517000Y-75407681D01*
X98391670Y-75420025D01*
X98271157Y-75456582D01*
X98160091Y-75515948D01*
X98062741Y-75595841D01*
X97982848Y-75693191D01*
X97923482Y-75804257D01*
X97886925Y-75924770D01*
X97874581Y-76050100D01*
X97874581Y-76330100D01*
X97886925Y-76455430D01*
X97923482Y-76575943D01*
X97973810Y-76670100D01*
X97923482Y-76764257D01*
X97886925Y-76884770D01*
X97874581Y-77010100D01*
X97874581Y-77290100D01*
X97886925Y-77415430D01*
X97923482Y-77535943D01*
X97982848Y-77647009D01*
X98062741Y-77744359D01*
X98160091Y-77824252D01*
X98271157Y-77883618D01*
X98391670Y-77920175D01*
X98517000Y-77932519D01*
X98620401Y-77932519D01*
X98620400Y-80488726D01*
X98617497Y-80518200D01*
X98622066Y-80564592D01*
X98629082Y-80635820D01*
X98663390Y-80748920D01*
X98719104Y-80853154D01*
X98794083Y-80944517D01*
X98816986Y-80963313D01*
X98993447Y-81139774D01*
X99012243Y-81162677D01*
X99103605Y-81237656D01*
X99175561Y-81276117D01*
X99175560Y-81822316D01*
X99174056Y-81837581D01*
X98940000Y-81837581D01*
X98814670Y-81849925D01*
X98694157Y-81886482D01*
X98583091Y-81945848D01*
X98485741Y-82025741D01*
X98405848Y-82123091D01*
X98346482Y-82234157D01*
X98309925Y-82354670D01*
X98297581Y-82480000D01*
X98297581Y-82675000D01*
X97838173Y-82675000D01*
X97649990Y-82486818D01*
X97649990Y-61178232D01*
X97652772Y-61149989D01*
X97649990Y-61121744D01*
X97641670Y-61037270D01*
X97608791Y-60928882D01*
X97591454Y-60896447D01*
X97555398Y-60828991D01*
X97501549Y-60763376D01*
X97483544Y-60741436D01*
X97461602Y-60723429D01*
X96651563Y-59913391D01*
X96651559Y-59913386D01*
X95992128Y-59253956D01*
X96048120Y-59118780D01*
X96100000Y-58857963D01*
X96100000Y-58592037D01*
X96048120Y-58331220D01*
X95980000Y-58166764D01*
X95980000Y-57750000D01*
X104942767Y-57750000D01*
X100958330Y-61545591D01*
G04 #@! TA.AperFunction,Conductor*
D34*
G36*
X100958330Y-61545591D02*
G01*
X100887465Y-61629835D01*
X100841260Y-61716278D01*
X100812807Y-61810075D01*
X100803200Y-61907620D01*
X100803200Y-62352376D01*
X100791255Y-62350000D01*
X100628745Y-62350000D01*
X100469356Y-62381704D01*
X100319216Y-62443894D01*
X100184093Y-62534181D01*
X100069181Y-62649093D01*
X99978894Y-62784216D01*
X99916704Y-62934356D01*
X99885000Y-63093745D01*
X99885000Y-63256255D01*
X99916704Y-63415644D01*
X99978894Y-63565784D01*
X100069181Y-63700907D01*
X100184093Y-63815819D01*
X100295200Y-63890059D01*
X100295200Y-65400120D01*
X100304807Y-65497665D01*
X100333260Y-65591462D01*
X100379465Y-65677905D01*
X100441647Y-65753673D01*
X100517415Y-65815855D01*
X100603858Y-65862060D01*
X100697655Y-65890513D01*
X100795200Y-65900120D01*
X101032188Y-65900120D01*
X101026881Y-65954000D01*
X101026881Y-66224000D01*
X101039129Y-66348354D01*
X101075402Y-66467930D01*
X101134305Y-66578131D01*
X101213577Y-66674723D01*
X101310169Y-66753995D01*
X101420370Y-66812898D01*
X101539946Y-66849171D01*
X101664300Y-66861419D01*
X102034300Y-66861419D01*
X102158654Y-66849171D01*
X102278230Y-66812898D01*
X102388431Y-66753995D01*
X102485023Y-66674723D01*
X102564295Y-66578131D01*
X102623198Y-66467930D01*
X102659471Y-66348354D01*
X102671719Y-66224000D01*
X102671719Y-65954000D01*
X102660842Y-65843562D01*
X102700000Y-65847419D01*
X103000000Y-65847419D01*
X103098017Y-65837765D01*
X103100000Y-65837163D01*
X103101983Y-65837765D01*
X103200000Y-65847419D01*
X103500000Y-65847419D01*
X103598017Y-65837765D01*
X103600000Y-65837163D01*
X103601983Y-65837765D01*
X103700000Y-65847419D01*
X104000000Y-65847419D01*
X104098017Y-65837765D01*
X104100000Y-65837163D01*
X104101983Y-65837765D01*
X104200000Y-65847419D01*
X104250001Y-65847419D01*
X104250001Y-65852269D01*
X104239981Y-65954000D01*
X104239981Y-66224000D01*
X104252229Y-66348354D01*
X104288502Y-66467930D01*
X104347405Y-66578131D01*
X104426677Y-66674723D01*
X104523269Y-66753995D01*
X104633470Y-66812898D01*
X104753046Y-66849171D01*
X104877400Y-66861419D01*
X105247400Y-66861419D01*
X105371754Y-66849171D01*
X105491330Y-66812898D01*
X105601531Y-66753995D01*
X105698123Y-66674723D01*
X105777395Y-66578131D01*
X105836298Y-66467930D01*
X105872571Y-66348354D01*
X105884819Y-66224000D01*
X105884819Y-65954000D01*
X105879262Y-65897580D01*
X106403520Y-65897580D01*
X106501065Y-65887973D01*
X106594862Y-65859520D01*
X106681305Y-65813315D01*
X106757073Y-65751133D01*
X106819255Y-65675365D01*
X106865460Y-65588922D01*
X106893913Y-65495125D01*
X106903520Y-65397580D01*
X106903520Y-63890914D01*
X107015907Y-63815819D01*
X107130819Y-63700907D01*
X107221106Y-63565784D01*
X107283296Y-63415644D01*
X107315000Y-63256255D01*
X107315000Y-63093745D01*
X107283296Y-62934356D01*
X107221106Y-62784216D01*
X107130819Y-62649093D01*
X107130646Y-62648920D01*
X108465600Y-62648920D01*
X108465600Y-66097600D01*
X108254400Y-66097600D01*
X108160337Y-66106528D01*
X108066341Y-66134314D01*
X107979572Y-66179904D01*
X107903364Y-66241547D01*
X107840647Y-66316872D01*
X107793830Y-66402985D01*
X107764712Y-66496577D01*
X107754413Y-66594052D01*
X107753905Y-66665581D01*
X107602560Y-66665581D01*
X107478206Y-66677829D01*
X107358630Y-66714102D01*
X107248429Y-66773005D01*
X107169233Y-66838000D01*
X106486244Y-66838000D01*
X106454320Y-66834856D01*
X106422396Y-66838000D01*
X106422388Y-66838000D01*
X106326898Y-66847405D01*
X106204372Y-66884573D01*
X106091451Y-66944930D01*
X106056950Y-66973245D01*
X105992477Y-67026157D01*
X105972120Y-67050962D01*
X105500894Y-67522188D01*
X105402631Y-67602830D01*
X105315156Y-67709419D01*
X105250156Y-67831025D01*
X105210129Y-67962976D01*
X105200001Y-68065810D01*
X105200001Y-68754246D01*
X105182254Y-68775871D01*
X105135825Y-68862733D01*
X105107235Y-68956983D01*
X105097581Y-69055000D01*
X105097581Y-69295000D01*
X105107235Y-69393017D01*
X105116937Y-69425000D01*
X105107235Y-69456983D01*
X105100536Y-69525000D01*
X104695921Y-69525000D01*
X104663999Y-69521856D01*
X104632078Y-69525000D01*
X104632068Y-69525000D01*
X104536578Y-69534405D01*
X104414052Y-69571573D01*
X104301132Y-69631930D01*
X104202157Y-69713157D01*
X104187693Y-69730781D01*
X104155800Y-69730781D01*
X104030470Y-69743125D01*
X103909957Y-69779682D01*
X103798891Y-69839048D01*
X103701541Y-69918941D01*
X103621648Y-70016291D01*
X103562282Y-70127357D01*
X103525725Y-70247870D01*
X103513381Y-70373200D01*
X103513381Y-70653200D01*
X103525725Y-70778530D01*
X103562282Y-70899043D01*
X103621648Y-71010109D01*
X103701541Y-71107459D01*
X103798891Y-71187352D01*
X103909957Y-71246718D01*
X104030470Y-71283275D01*
X104155800Y-71295619D01*
X104495800Y-71295619D01*
X104621130Y-71283275D01*
X104741643Y-71246718D01*
X104852709Y-71187352D01*
X104950059Y-71107459D01*
X105029952Y-71010109D01*
X105089318Y-70899043D01*
X105111779Y-70825000D01*
X105155994Y-70825000D01*
X105135825Y-70862733D01*
X105107235Y-70956983D01*
X105097581Y-71055000D01*
X105097581Y-71295000D01*
X105107235Y-71393017D01*
X105135825Y-71487267D01*
X105182254Y-71574129D01*
X105244736Y-71650264D01*
X105294497Y-71691101D01*
X105302570Y-71773069D01*
X105334443Y-71878142D01*
X105335449Y-71881457D01*
X105388842Y-71981348D01*
X105407579Y-72004179D01*
X105460696Y-72068904D01*
X105482643Y-72086915D01*
X106286839Y-72891112D01*
X106304846Y-72913054D01*
X106326786Y-72931059D01*
X106392401Y-72984908D01*
X106452409Y-73016983D01*
X106492292Y-73038301D01*
X106600680Y-73071180D01*
X106685154Y-73079500D01*
X106685156Y-73079500D01*
X106711240Y-73082069D01*
X106711240Y-79839234D01*
X106709910Y-80392634D01*
X106251820Y-80388951D01*
X106150255Y-80398542D01*
X106056458Y-80426995D01*
X105970015Y-80473200D01*
X105894247Y-80535382D01*
X105832065Y-80611150D01*
X105830242Y-80614561D01*
X105702810Y-80614561D01*
X105702810Y-79691976D01*
X105750603Y-79677478D01*
X105861669Y-79618112D01*
X105959019Y-79538219D01*
X106038912Y-79440869D01*
X106098278Y-79329803D01*
X106134835Y-79209290D01*
X106147179Y-79083960D01*
X106147179Y-78803960D01*
X106134835Y-78678630D01*
X106098278Y-78558117D01*
X106047950Y-78463960D01*
X106098278Y-78369803D01*
X106134835Y-78249290D01*
X106147179Y-78123960D01*
X106147179Y-77843960D01*
X106134835Y-77718630D01*
X106098278Y-77598117D01*
X106038912Y-77487051D01*
X105959019Y-77389701D01*
X105861669Y-77309808D01*
X105750603Y-77250442D01*
X105630090Y-77213885D01*
X105504760Y-77201541D01*
X105164760Y-77201541D01*
X105039430Y-77213885D01*
X104918917Y-77250442D01*
X104859760Y-77282062D01*
X104800603Y-77250442D01*
X104680090Y-77213885D01*
X104554760Y-77201541D01*
X104214760Y-77201541D01*
X104089430Y-77213885D01*
X103968917Y-77250442D01*
X103857851Y-77309808D01*
X103760501Y-77389701D01*
X103680608Y-77487051D01*
X103621242Y-77598117D01*
X103584685Y-77718630D01*
X103572341Y-77843960D01*
X103572341Y-78123960D01*
X103584685Y-78249290D01*
X103621242Y-78369803D01*
X103671570Y-78463960D01*
X103621242Y-78558117D01*
X103584685Y-78678630D01*
X103572341Y-78803960D01*
X103572341Y-79083960D01*
X103584685Y-79209290D01*
X103621242Y-79329803D01*
X103680608Y-79440869D01*
X103760501Y-79538219D01*
X103857851Y-79618112D01*
X103968917Y-79677478D01*
X104089430Y-79714035D01*
X104214760Y-79726379D01*
X104275801Y-79726379D01*
X104275801Y-80037981D01*
X104122000Y-80037981D01*
X103996670Y-80050325D01*
X103876157Y-80086882D01*
X103796700Y-80129353D01*
X103717243Y-80086882D01*
X103596730Y-80050325D01*
X103471400Y-80037981D01*
X103292200Y-80037981D01*
X103292200Y-78302745D01*
X103294982Y-78274502D01*
X103291634Y-78240510D01*
X103283880Y-78161782D01*
X103251001Y-78053394D01*
X103215170Y-77986360D01*
X103197608Y-77953503D01*
X103143759Y-77887888D01*
X103125754Y-77865948D01*
X103103812Y-77847941D01*
X102118193Y-76862323D01*
X102100182Y-76840376D01*
X102012626Y-76768522D01*
X101912736Y-76715129D01*
X101812539Y-76684735D01*
X101878951Y-76585342D01*
X101939257Y-76439751D01*
X101970000Y-76285193D01*
X101970000Y-76127607D01*
X101939257Y-75973049D01*
X101878951Y-75827458D01*
X101791401Y-75696430D01*
X101679970Y-75584999D01*
X101548942Y-75497449D01*
X101403351Y-75437143D01*
X101348193Y-75426171D01*
X101380243Y-75409040D01*
X101486685Y-75321685D01*
X101574040Y-75215243D01*
X101638951Y-75093804D01*
X101678922Y-74962035D01*
X101692419Y-74825000D01*
X101692419Y-74425000D01*
X101678922Y-74287965D01*
X101638951Y-74156196D01*
X101574040Y-74034757D01*
X101486685Y-73928315D01*
X101380243Y-73840960D01*
X101258804Y-73776049D01*
X101127035Y-73736078D01*
X100990000Y-73722581D01*
X99390000Y-73722581D01*
X99252965Y-73736078D01*
X99121196Y-73776049D01*
X98999757Y-73840960D01*
X98893315Y-73928315D01*
X98805960Y-74034757D01*
X98741049Y-74156196D01*
X98701078Y-74287965D01*
X98687581Y-74425000D01*
X98687581Y-74825000D01*
X98701078Y-74962035D01*
X98741049Y-75093804D01*
X98786896Y-75179577D01*
X98558792Y-75407681D01*
X98517000Y-75407681D01*
X98391670Y-75420025D01*
X98271157Y-75456582D01*
X98160091Y-75515948D01*
X98062741Y-75595841D01*
X97982848Y-75693191D01*
X97923482Y-75804257D01*
X97886925Y-75924770D01*
X97874581Y-76050100D01*
X97874581Y-76330100D01*
X97886925Y-76455430D01*
X97923482Y-76575943D01*
X97973810Y-76670100D01*
X97923482Y-76764257D01*
X97886925Y-76884770D01*
X97874581Y-77010100D01*
X97874581Y-77290100D01*
X97886925Y-77415430D01*
X97923482Y-77535943D01*
X97982848Y-77647009D01*
X98062741Y-77744359D01*
X98160091Y-77824252D01*
X98271157Y-77883618D01*
X98391670Y-77920175D01*
X98517000Y-77932519D01*
X98620401Y-77932519D01*
X98620400Y-80488726D01*
X98617497Y-80518200D01*
X98622066Y-80564592D01*
X98629082Y-80635820D01*
X98663390Y-80748920D01*
X98719104Y-80853154D01*
X98794083Y-80944517D01*
X98816986Y-80963313D01*
X98993447Y-81139774D01*
X99012243Y-81162677D01*
X99103605Y-81237656D01*
X99175561Y-81276117D01*
X99175560Y-81822316D01*
X99174056Y-81837581D01*
X98940000Y-81837581D01*
X98814670Y-81849925D01*
X98694157Y-81886482D01*
X98583091Y-81945848D01*
X98485741Y-82025741D01*
X98405848Y-82123091D01*
X98346482Y-82234157D01*
X98309925Y-82354670D01*
X98297581Y-82480000D01*
X98297581Y-82675000D01*
X97838173Y-82675000D01*
X97649990Y-82486818D01*
X97649990Y-61178232D01*
X97652772Y-61149989D01*
X97649990Y-61121744D01*
X97641670Y-61037270D01*
X97608791Y-60928882D01*
X97591454Y-60896447D01*
X97555398Y-60828991D01*
X97501549Y-60763376D01*
X97483544Y-60741436D01*
X97461602Y-60723429D01*
X96651563Y-59913391D01*
X96651559Y-59913386D01*
X95992128Y-59253956D01*
X96048120Y-59118780D01*
X96100000Y-58857963D01*
X96100000Y-58592037D01*
X96048120Y-58331220D01*
X95980000Y-58166764D01*
X95980000Y-57750000D01*
X104942767Y-57750000D01*
X100958330Y-61545591D01*
G37*
G04 #@! TD.AperFunction*
D37*
X110061646Y-80287771D02*
X110186000Y-80300019D01*
X110556000Y-80300019D01*
X110675000Y-80288298D01*
X110675000Y-80412550D01*
X110593379Y-80494171D01*
X110571437Y-80512178D01*
X110553431Y-80534119D01*
X110499582Y-80599734D01*
X110446189Y-80699625D01*
X110431236Y-80748920D01*
X110414021Y-80805674D01*
X110413311Y-80808013D01*
X110402208Y-80920732D01*
X110404991Y-80948985D01*
X110404990Y-82032559D01*
X110058200Y-82379350D01*
X110058200Y-80286726D01*
X110061646Y-80287771D01*
G04 #@! TA.AperFunction,Conductor*
D34*
G36*
X110061646Y-80287771D02*
G01*
X110186000Y-80300019D01*
X110556000Y-80300019D01*
X110675000Y-80288298D01*
X110675000Y-80412550D01*
X110593379Y-80494171D01*
X110571437Y-80512178D01*
X110553431Y-80534119D01*
X110499582Y-80599734D01*
X110446189Y-80699625D01*
X110431236Y-80748920D01*
X110414021Y-80805674D01*
X110413311Y-80808013D01*
X110402208Y-80920732D01*
X110404991Y-80948985D01*
X110404990Y-82032559D01*
X110058200Y-82379350D01*
X110058200Y-80286726D01*
X110061646Y-80287771D01*
G37*
G04 #@! TD.AperFunction*
D37*
X101047973Y-78914944D02*
X101163060Y-78926279D01*
X101202307Y-78926279D01*
X101583401Y-79307374D01*
X101583400Y-80778793D01*
X101574524Y-80774048D01*
X101466136Y-80741169D01*
X101427979Y-80737411D01*
X101427979Y-80561360D01*
X101416644Y-80446273D01*
X101383074Y-80335608D01*
X101328560Y-80233619D01*
X101255196Y-80144224D01*
X101165801Y-80070860D01*
X101063812Y-80016346D01*
X100953147Y-79982776D01*
X100838060Y-79971441D01*
X100663060Y-79971441D01*
X100547973Y-79982776D01*
X100500560Y-79997159D01*
X100453147Y-79982776D01*
X100338060Y-79971441D01*
X100163060Y-79971441D01*
X100047973Y-79982776D01*
X100000560Y-79997159D01*
X99953147Y-79982776D01*
X99838060Y-79971441D01*
X99820400Y-79971441D01*
X99820400Y-78926279D01*
X99838060Y-78926279D01*
X99848609Y-78925240D01*
X99927790Y-78925240D01*
X100025740Y-78915552D01*
X100037841Y-78911870D01*
X100047973Y-78914944D01*
X100163060Y-78926279D01*
X100338060Y-78926279D01*
X100453147Y-78914944D01*
X100500560Y-78900561D01*
X100547973Y-78914944D01*
X100663060Y-78926279D01*
X100838060Y-78926279D01*
X100953147Y-78914944D01*
X101000560Y-78900561D01*
X101047973Y-78914944D01*
G04 #@! TA.AperFunction,Conductor*
D34*
G36*
X101047973Y-78914944D02*
G01*
X101163060Y-78926279D01*
X101202307Y-78926279D01*
X101583401Y-79307374D01*
X101583400Y-80778793D01*
X101574524Y-80774048D01*
X101466136Y-80741169D01*
X101427979Y-80737411D01*
X101427979Y-80561360D01*
X101416644Y-80446273D01*
X101383074Y-80335608D01*
X101328560Y-80233619D01*
X101255196Y-80144224D01*
X101165801Y-80070860D01*
X101063812Y-80016346D01*
X100953147Y-79982776D01*
X100838060Y-79971441D01*
X100663060Y-79971441D01*
X100547973Y-79982776D01*
X100500560Y-79997159D01*
X100453147Y-79982776D01*
X100338060Y-79971441D01*
X100163060Y-79971441D01*
X100047973Y-79982776D01*
X100000560Y-79997159D01*
X99953147Y-79982776D01*
X99838060Y-79971441D01*
X99820400Y-79971441D01*
X99820400Y-78926279D01*
X99838060Y-78926279D01*
X99848609Y-78925240D01*
X99927790Y-78925240D01*
X100025740Y-78915552D01*
X100037841Y-78911870D01*
X100047973Y-78914944D01*
X100163060Y-78926279D01*
X100338060Y-78926279D01*
X100453147Y-78914944D01*
X100500560Y-78900561D01*
X100547973Y-78914944D01*
X100663060Y-78926279D01*
X100838060Y-78926279D01*
X100953147Y-78914944D01*
X101000560Y-78900561D01*
X101047973Y-78914944D01*
G37*
G04 #@! TD.AperFunction*
D37*
X95899970Y-77302637D02*
X95868893Y-77277133D01*
X95825671Y-77254030D01*
X95778773Y-77239804D01*
X95730000Y-77235000D01*
X93425000Y-77235000D01*
X93425000Y-75775000D01*
X95730000Y-75775000D01*
X95778773Y-75770196D01*
X95825671Y-75755970D01*
X95868893Y-75732867D01*
X95899971Y-75707363D01*
X95899970Y-77302637D01*
G04 #@! TA.AperFunction,Conductor*
D34*
G36*
X95899970Y-77302637D02*
G01*
X95868893Y-77277133D01*
X95825671Y-77254030D01*
X95778773Y-77239804D01*
X95730000Y-77235000D01*
X93425000Y-77235000D01*
X93425000Y-75775000D01*
X95730000Y-75775000D01*
X95778773Y-75770196D01*
X95825671Y-75755970D01*
X95868893Y-75732867D01*
X95899971Y-75707363D01*
X95899970Y-77302637D01*
G37*
G04 #@! TD.AperFunction*
D37*
X113875001Y-77235000D02*
X111825000Y-77235000D01*
X111825000Y-75775000D01*
X113875001Y-75775000D01*
X113875001Y-77235000D01*
G04 #@! TA.AperFunction,Conductor*
D34*
G36*
X113875001Y-77235000D02*
G01*
X111825000Y-77235000D01*
X111825000Y-75775000D01*
X113875001Y-75775000D01*
X113875001Y-77235000D01*
G37*
G04 #@! TD.AperFunction*
D37*
X100660030Y-75584999D02*
X100548599Y-75696430D01*
X100461049Y-75827458D01*
X100400743Y-75973049D01*
X100370000Y-76127607D01*
X100370000Y-76193228D01*
X100144810Y-76418418D01*
X100136623Y-76414042D01*
X100016110Y-76377485D01*
X99890780Y-76365141D01*
X99550780Y-76365141D01*
X99495431Y-76370592D01*
X99499419Y-76330100D01*
X99499419Y-76164108D01*
X100136109Y-75527419D01*
X100746205Y-75527419D01*
X100660030Y-75584999D01*
G04 #@! TA.AperFunction,Conductor*
D34*
G36*
X100660030Y-75584999D02*
G01*
X100548599Y-75696430D01*
X100461049Y-75827458D01*
X100400743Y-75973049D01*
X100370000Y-76127607D01*
X100370000Y-76193228D01*
X100144810Y-76418418D01*
X100136623Y-76414042D01*
X100016110Y-76377485D01*
X99890780Y-76365141D01*
X99550780Y-76365141D01*
X99495431Y-76370592D01*
X99499419Y-76330100D01*
X99499419Y-76164108D01*
X100136109Y-75527419D01*
X100746205Y-75527419D01*
X100660030Y-75584999D01*
G37*
G04 #@! TD.AperFunction*
D37*
X111320000Y-73406764D02*
X111251880Y-73571220D01*
X111200000Y-73832037D01*
X111200000Y-74097963D01*
X111251880Y-74358780D01*
X111266867Y-74394961D01*
X111150991Y-74510836D01*
X111142685Y-74500715D01*
X111036243Y-74413360D01*
X110914804Y-74348449D01*
X110783035Y-74308478D01*
X110646000Y-74294981D01*
X110096000Y-74294981D01*
X110071440Y-74297400D01*
X110058200Y-74297400D01*
X110058200Y-72661010D01*
X111057205Y-72660200D01*
X111154345Y-72650593D01*
X111248142Y-72622140D01*
X111320000Y-72583731D01*
X111320000Y-73406764D01*
G04 #@! TA.AperFunction,Conductor*
D34*
G36*
X111320000Y-73406764D02*
G01*
X111251880Y-73571220D01*
X111200000Y-73832037D01*
X111200000Y-74097963D01*
X111251880Y-74358780D01*
X111266867Y-74394961D01*
X111150991Y-74510836D01*
X111142685Y-74500715D01*
X111036243Y-74413360D01*
X110914804Y-74348449D01*
X110783035Y-74308478D01*
X110646000Y-74294981D01*
X110096000Y-74294981D01*
X110071440Y-74297400D01*
X110058200Y-74297400D01*
X110058200Y-72661010D01*
X111057205Y-72660200D01*
X111154345Y-72650593D01*
X111248142Y-72622140D01*
X111320000Y-72583731D01*
X111320000Y-73406764D01*
G37*
G04 #@! TD.AperFunction*
D37*
X111320000Y-70353666D02*
X111272076Y-70311128D01*
X111317784Y-70285459D01*
X111320000Y-70283562D01*
X111320000Y-70353666D01*
G04 #@! TA.AperFunction,Conductor*
D34*
G36*
X111320000Y-70353666D02*
G01*
X111272076Y-70311128D01*
X111317784Y-70285459D01*
X111320000Y-70283562D01*
X111320000Y-70353666D01*
G37*
G04 #@! TD.AperFunction*
D37*
X96199980Y-63628153D02*
X96199980Y-67081808D01*
X95992128Y-66873956D01*
X96048120Y-66738780D01*
X96100000Y-66477963D01*
X96100000Y-66212037D01*
X96048120Y-65951220D01*
X95980000Y-65786764D01*
X95980000Y-64785000D01*
X95975196Y-64736227D01*
X95960970Y-64689329D01*
X95937867Y-64646107D01*
X95906777Y-64608223D01*
X95868893Y-64577133D01*
X95825671Y-64554030D01*
X95778773Y-64539804D01*
X95730000Y-64535000D01*
X93425000Y-64535000D01*
X93425000Y-63075000D01*
X95646828Y-63075000D01*
X96199980Y-63628153D01*
G04 #@! TA.AperFunction,Conductor*
D34*
G36*
X96199980Y-63628153D02*
G01*
X96199980Y-67081808D01*
X95992128Y-66873956D01*
X96048120Y-66738780D01*
X96100000Y-66477963D01*
X96100000Y-66212037D01*
X96048120Y-65951220D01*
X95980000Y-65786764D01*
X95980000Y-64785000D01*
X95975196Y-64736227D01*
X95960970Y-64689329D01*
X95937867Y-64646107D01*
X95906777Y-64608223D01*
X95868893Y-64577133D01*
X95825671Y-64554030D01*
X95778773Y-64539804D01*
X95730000Y-64535000D01*
X93425000Y-64535000D01*
X93425000Y-63075000D01*
X95646828Y-63075000D01*
X96199980Y-63628153D01*
G37*
G04 #@! TD.AperFunction*
D37*
X111362133Y-62963893D02*
X111393223Y-63001777D01*
X111431107Y-63032867D01*
X111474329Y-63055970D01*
X111521227Y-63070196D01*
X111570000Y-63075000D01*
X113875001Y-63075000D01*
X113875001Y-64535000D01*
X111570000Y-64535000D01*
X111521227Y-64539804D01*
X111474329Y-64554030D01*
X111431107Y-64577133D01*
X111393223Y-64608223D01*
X111362133Y-64646107D01*
X111357460Y-64654849D01*
X111354717Y-62950019D01*
X111362133Y-62963893D01*
G04 #@! TA.AperFunction,Conductor*
D34*
G36*
X111362133Y-62963893D02*
G01*
X111393223Y-63001777D01*
X111431107Y-63032867D01*
X111474329Y-63055970D01*
X111521227Y-63070196D01*
X111570000Y-63075000D01*
X113875001Y-63075000D01*
X113875001Y-64535000D01*
X111570000Y-64535000D01*
X111521227Y-64539804D01*
X111474329Y-64554030D01*
X111431107Y-64577133D01*
X111393223Y-64608223D01*
X111362133Y-64646107D01*
X111357460Y-64654849D01*
X111354717Y-62950019D01*
X111362133Y-62963893D01*
G37*
G04 #@! TD.AperFunction*
D37*
X96499991Y-61388164D02*
X96499991Y-62301819D01*
X96426563Y-62228391D01*
X96426559Y-62228386D01*
X95992128Y-61793956D01*
X96048120Y-61658780D01*
X96100000Y-61397963D01*
X96100000Y-61132037D01*
X96064278Y-60952450D01*
X96499991Y-61388164D01*
G04 #@! TA.AperFunction,Conductor*
D34*
G36*
X96499991Y-61388164D02*
G01*
X96499991Y-62301819D01*
X96426563Y-62228391D01*
X96426559Y-62228386D01*
X95992128Y-61793956D01*
X96048120Y-61658780D01*
X96100000Y-61397963D01*
X96100000Y-61132037D01*
X96064278Y-60952450D01*
X96499991Y-61388164D01*
G37*
G04 #@! TD.AperFunction*
M02*
