G04 #@! TF.GenerationSoftware,KiCad,Pcbnew,(5.1.10)-1*
G04 #@! TF.CreationDate,2021-11-01T09:15:16+00:00*
G04 #@! TF.ProjectId,EnvOpenPico,456e764f-7065-46e5-9069-636f2e6b6963,REV1*
G04 #@! TF.SameCoordinates,Original*
G04 #@! TF.FileFunction,Copper,L1,Top*
G04 #@! TF.FilePolarity,Positive*
%FSLAX46Y46*%
G04 Gerber Fmt 4.6, Leading zero omitted, Abs format (unit mm)*
G04 Created by KiCad (PCBNEW (5.1.10)-1) date 2021-11-01 09:15:16*
%MOMM*%
%LPD*%
G01*
G04 APERTURE LIST*
G04 #@! TA.AperFunction,SMDPad,CuDef*
%ADD10R,1.600000X0.500000*%
G04 #@! TD*
G04 #@! TA.AperFunction,ComponentPad*
%ADD11R,3.500000X1.700000*%
G04 #@! TD*
G04 #@! TA.AperFunction,ComponentPad*
%ADD12R,1.700000X1.700000*%
G04 #@! TD*
G04 #@! TA.AperFunction,ComponentPad*
%ADD13O,1.700000X1.700000*%
G04 #@! TD*
G04 #@! TA.AperFunction,ComponentPad*
%ADD14C,1.700000*%
G04 #@! TD*
G04 #@! TA.AperFunction,SMDPad,CuDef*
%ADD15R,0.600000X1.450000*%
G04 #@! TD*
G04 #@! TA.AperFunction,SMDPad,CuDef*
%ADD16R,0.300000X1.450000*%
G04 #@! TD*
G04 #@! TA.AperFunction,ComponentPad*
%ADD17O,1.000000X2.100000*%
G04 #@! TD*
G04 #@! TA.AperFunction,ComponentPad*
%ADD18O,1.000000X1.600000*%
G04 #@! TD*
G04 #@! TA.AperFunction,SMDPad,CuDef*
%ADD19R,0.650000X1.060000*%
G04 #@! TD*
G04 #@! TA.AperFunction,SMDPad,CuDef*
%ADD20R,1.200000X0.900000*%
G04 #@! TD*
G04 #@! TA.AperFunction,SMDPad,CuDef*
%ADD21R,1.400000X1.200000*%
G04 #@! TD*
G04 #@! TA.AperFunction,ComponentPad*
%ADD22C,0.600000*%
G04 #@! TD*
G04 #@! TA.AperFunction,ViaPad*
%ADD23C,0.400000*%
G04 #@! TD*
G04 #@! TA.AperFunction,ViaPad*
%ADD24C,0.600000*%
G04 #@! TD*
G04 #@! TA.AperFunction,Conductor*
%ADD25C,0.150000*%
G04 #@! TD*
G04 #@! TA.AperFunction,Conductor*
%ADD26C,0.127000*%
G04 #@! TD*
G04 #@! TA.AperFunction,Conductor*
%ADD27C,0.500000*%
G04 #@! TD*
G04 #@! TA.AperFunction,Conductor*
%ADD28C,0.200000*%
G04 #@! TD*
G04 #@! TA.AperFunction,Conductor*
%ADD29C,0.400000*%
G04 #@! TD*
G04 #@! TA.AperFunction,Conductor*
%ADD30C,0.300000*%
G04 #@! TD*
G04 #@! TA.AperFunction,Conductor*
%ADD31C,0.800000*%
G04 #@! TD*
G04 #@! TA.AperFunction,Conductor*
%ADD32C,0.600000*%
G04 #@! TD*
G04 #@! TA.AperFunction,Conductor*
%ADD33C,0.100000*%
G04 #@! TD*
G04 #@! TA.AperFunction,Conductor*
%ADD34C,0.254000*%
G04 #@! TD*
G04 #@! TA.AperFunction,Conductor*
%ADD35C,0.250000*%
G04 #@! TD*
G04 APERTURE END LIST*
G04 #@! TA.AperFunction,SMDPad,CuDef*
G36*
G01*
X99837500Y-80950000D02*
X99662500Y-80950000D01*
G75*
G02*
X99575000Y-80862500I0J87500D01*
G01*
X99575000Y-80512500D01*
G75*
G02*
X99662500Y-80425000I87500J0D01*
G01*
X99837500Y-80425000D01*
G75*
G02*
X99925000Y-80512500I0J-87500D01*
G01*
X99925000Y-80862500D01*
G75*
G02*
X99837500Y-80950000I-87500J0D01*
G01*
G37*
G04 #@! TD.AperFunction*
G04 #@! TA.AperFunction,SMDPad,CuDef*
G36*
G01*
X100337500Y-80950000D02*
X100162500Y-80950000D01*
G75*
G02*
X100075000Y-80862500I0J87500D01*
G01*
X100075000Y-80512500D01*
G75*
G02*
X100162500Y-80425000I87500J0D01*
G01*
X100337500Y-80425000D01*
G75*
G02*
X100425000Y-80512500I0J-87500D01*
G01*
X100425000Y-80862500D01*
G75*
G02*
X100337500Y-80950000I-87500J0D01*
G01*
G37*
G04 #@! TD.AperFunction*
G04 #@! TA.AperFunction,SMDPad,CuDef*
G36*
G01*
X100837500Y-80950000D02*
X100662500Y-80950000D01*
G75*
G02*
X100575000Y-80862500I0J87500D01*
G01*
X100575000Y-80512500D01*
G75*
G02*
X100662500Y-80425000I87500J0D01*
G01*
X100837500Y-80425000D01*
G75*
G02*
X100925000Y-80512500I0J-87500D01*
G01*
X100925000Y-80862500D01*
G75*
G02*
X100837500Y-80950000I-87500J0D01*
G01*
G37*
G04 #@! TD.AperFunction*
G04 #@! TA.AperFunction,SMDPad,CuDef*
G36*
G01*
X101337500Y-80950000D02*
X101162500Y-80950000D01*
G75*
G02*
X101075000Y-80862500I0J87500D01*
G01*
X101075000Y-80512500D01*
G75*
G02*
X101162500Y-80425000I87500J0D01*
G01*
X101337500Y-80425000D01*
G75*
G02*
X101425000Y-80512500I0J-87500D01*
G01*
X101425000Y-80862500D01*
G75*
G02*
X101337500Y-80950000I-87500J0D01*
G01*
G37*
G04 #@! TD.AperFunction*
G04 #@! TA.AperFunction,SMDPad,CuDef*
G36*
G01*
X101337500Y-78375000D02*
X101162500Y-78375000D01*
G75*
G02*
X101075000Y-78287500I0J87500D01*
G01*
X101075000Y-77937500D01*
G75*
G02*
X101162500Y-77850000I87500J0D01*
G01*
X101337500Y-77850000D01*
G75*
G02*
X101425000Y-77937500I0J-87500D01*
G01*
X101425000Y-78287500D01*
G75*
G02*
X101337500Y-78375000I-87500J0D01*
G01*
G37*
G04 #@! TD.AperFunction*
G04 #@! TA.AperFunction,SMDPad,CuDef*
G36*
G01*
X100837500Y-78375000D02*
X100662500Y-78375000D01*
G75*
G02*
X100575000Y-78287500I0J87500D01*
G01*
X100575000Y-77937500D01*
G75*
G02*
X100662500Y-77850000I87500J0D01*
G01*
X100837500Y-77850000D01*
G75*
G02*
X100925000Y-77937500I0J-87500D01*
G01*
X100925000Y-78287500D01*
G75*
G02*
X100837500Y-78375000I-87500J0D01*
G01*
G37*
G04 #@! TD.AperFunction*
G04 #@! TA.AperFunction,SMDPad,CuDef*
G36*
G01*
X100337500Y-78375000D02*
X100162500Y-78375000D01*
G75*
G02*
X100075000Y-78287500I0J87500D01*
G01*
X100075000Y-77937500D01*
G75*
G02*
X100162500Y-77850000I87500J0D01*
G01*
X100337500Y-77850000D01*
G75*
G02*
X100425000Y-77937500I0J-87500D01*
G01*
X100425000Y-78287500D01*
G75*
G02*
X100337500Y-78375000I-87500J0D01*
G01*
G37*
G04 #@! TD.AperFunction*
G04 #@! TA.AperFunction,SMDPad,CuDef*
G36*
G01*
X99837500Y-78375000D02*
X99662500Y-78375000D01*
G75*
G02*
X99575000Y-78287500I0J87500D01*
G01*
X99575000Y-77937500D01*
G75*
G02*
X99662500Y-77850000I87500J0D01*
G01*
X99837500Y-77850000D01*
G75*
G02*
X99925000Y-77937500I0J-87500D01*
G01*
X99925000Y-78287500D01*
G75*
G02*
X99837500Y-78375000I-87500J0D01*
G01*
G37*
G04 #@! TD.AperFunction*
D10*
X100500000Y-79400000D03*
G04 #@! TA.AperFunction,SMDPad,CuDef*
G36*
G01*
X108000000Y-97600000D02*
X106400000Y-97600000D01*
G75*
G02*
X106200000Y-97400000I0J200000D01*
G01*
X106200000Y-97000000D01*
G75*
G02*
X106400000Y-96800000I200000J0D01*
G01*
X108000000Y-96800000D01*
G75*
G02*
X108200000Y-97000000I0J-200000D01*
G01*
X108200000Y-97400000D01*
G75*
G02*
X108000000Y-97600000I-200000J0D01*
G01*
G37*
G04 #@! TD.AperFunction*
G04 #@! TA.AperFunction,SMDPad,CuDef*
G36*
G01*
X108000000Y-93400000D02*
X106400000Y-93400000D01*
G75*
G02*
X106200000Y-93200000I0J200000D01*
G01*
X106200000Y-92800000D01*
G75*
G02*
X106400000Y-92600000I200000J0D01*
G01*
X108000000Y-92600000D01*
G75*
G02*
X108200000Y-92800000I0J-200000D01*
G01*
X108200000Y-93200000D01*
G75*
G02*
X108000000Y-93400000I-200000J0D01*
G01*
G37*
G04 #@! TD.AperFunction*
D11*
X114220000Y-81560000D03*
X114220000Y-66320000D03*
X114220000Y-79020000D03*
X114220000Y-58700000D03*
X114220000Y-63780000D03*
X114220000Y-76480000D03*
X114220000Y-89180000D03*
X114220000Y-61240000D03*
X114220000Y-68860000D03*
X114220000Y-71400000D03*
X114220000Y-73940000D03*
X114220000Y-84100000D03*
X114220000Y-91720000D03*
X114220000Y-86640000D03*
X114220000Y-106960000D03*
X114220000Y-94260000D03*
X114220000Y-104420000D03*
X114220000Y-96800000D03*
X114220000Y-101880000D03*
X114220000Y-99340000D03*
D12*
X112520000Y-58700000D03*
D13*
X112520000Y-61240000D03*
D12*
X112520000Y-63780000D03*
D13*
X112520000Y-66320000D03*
X112520000Y-68860000D03*
X112520000Y-71400000D03*
X112520000Y-73940000D03*
D12*
X112520000Y-76480000D03*
D13*
X112520000Y-79020000D03*
X112520000Y-81560000D03*
X112520000Y-84100000D03*
X112520000Y-86640000D03*
D12*
X112520000Y-89180000D03*
D13*
X112520000Y-91720000D03*
X112520000Y-94260000D03*
X112520000Y-96800000D03*
X112520000Y-99340000D03*
D12*
X112520000Y-101880000D03*
D13*
X112520000Y-104420000D03*
X112520000Y-106960000D03*
D11*
X93000000Y-58640000D03*
X93000000Y-101820000D03*
X93000000Y-63720000D03*
X93000000Y-84040000D03*
X93000000Y-106900000D03*
X93000000Y-76420000D03*
X93000000Y-81500000D03*
X93000000Y-96740000D03*
X92990000Y-91660000D03*
X93000000Y-66250000D03*
X93000000Y-61170000D03*
X93000000Y-68800000D03*
X93010000Y-78960000D03*
X93000000Y-71340000D03*
X93000000Y-86580000D03*
X93000000Y-89120000D03*
X93000000Y-94200000D03*
X93000000Y-99280000D03*
X93000000Y-73880000D03*
X93000000Y-104360000D03*
D14*
X94700000Y-106900000D03*
D13*
X94700000Y-104360000D03*
D12*
X94700000Y-101820000D03*
D13*
X94700000Y-99280000D03*
X94700000Y-96740000D03*
X94700000Y-94200000D03*
X94700000Y-91660000D03*
D12*
X94700000Y-89120000D03*
D13*
X94700000Y-86580000D03*
X94700000Y-84040000D03*
X94700000Y-81500000D03*
X94700000Y-78960000D03*
D12*
X94700000Y-76420000D03*
D13*
X94700000Y-73880000D03*
X94700000Y-71340000D03*
X94700000Y-68800000D03*
X94700000Y-66260000D03*
D12*
X94700000Y-63720000D03*
D13*
X94700000Y-61180000D03*
X94700000Y-58640000D03*
G04 #@! TA.AperFunction,SMDPad,CuDef*
G36*
G01*
X98363000Y-64928000D02*
X97993000Y-64928000D01*
G75*
G02*
X97858000Y-64793000I0J135000D01*
G01*
X97858000Y-64523000D01*
G75*
G02*
X97993000Y-64388000I135000J0D01*
G01*
X98363000Y-64388000D01*
G75*
G02*
X98498000Y-64523000I0J-135000D01*
G01*
X98498000Y-64793000D01*
G75*
G02*
X98363000Y-64928000I-135000J0D01*
G01*
G37*
G04 #@! TD.AperFunction*
G04 #@! TA.AperFunction,SMDPad,CuDef*
G36*
G01*
X98363000Y-65948000D02*
X97993000Y-65948000D01*
G75*
G02*
X97858000Y-65813000I0J135000D01*
G01*
X97858000Y-65543000D01*
G75*
G02*
X97993000Y-65408000I135000J0D01*
G01*
X98363000Y-65408000D01*
G75*
G02*
X98498000Y-65543000I0J-135000D01*
G01*
X98498000Y-65813000D01*
G75*
G02*
X98363000Y-65948000I-135000J0D01*
G01*
G37*
G04 #@! TD.AperFunction*
G04 #@! TA.AperFunction,SMDPad,CuDef*
G36*
G01*
X99356250Y-67150000D02*
X98843750Y-67150000D01*
G75*
G02*
X98625000Y-66931250I0J218750D01*
G01*
X98625000Y-66493750D01*
G75*
G02*
X98843750Y-66275000I218750J0D01*
G01*
X99356250Y-66275000D01*
G75*
G02*
X99575000Y-66493750I0J-218750D01*
G01*
X99575000Y-66931250D01*
G75*
G02*
X99356250Y-67150000I-218750J0D01*
G01*
G37*
G04 #@! TD.AperFunction*
G04 #@! TA.AperFunction,SMDPad,CuDef*
G36*
G01*
X99356250Y-68725000D02*
X98843750Y-68725000D01*
G75*
G02*
X98625000Y-68506250I0J218750D01*
G01*
X98625000Y-68068750D01*
G75*
G02*
X98843750Y-67850000I218750J0D01*
G01*
X99356250Y-67850000D01*
G75*
G02*
X99575000Y-68068750I0J-218750D01*
G01*
X99575000Y-68506250D01*
G75*
G02*
X99356250Y-68725000I-218750J0D01*
G01*
G37*
G04 #@! TD.AperFunction*
G04 #@! TA.AperFunction,SMDPad,CuDef*
G36*
G01*
X100543750Y-67850000D02*
X101056250Y-67850000D01*
G75*
G02*
X101275000Y-68068750I0J-218750D01*
G01*
X101275000Y-68506250D01*
G75*
G02*
X101056250Y-68725000I-218750J0D01*
G01*
X100543750Y-68725000D01*
G75*
G02*
X100325000Y-68506250I0J218750D01*
G01*
X100325000Y-68068750D01*
G75*
G02*
X100543750Y-67850000I218750J0D01*
G01*
G37*
G04 #@! TD.AperFunction*
G04 #@! TA.AperFunction,SMDPad,CuDef*
G36*
G01*
X100543750Y-66275000D02*
X101056250Y-66275000D01*
G75*
G02*
X101275000Y-66493750I0J-218750D01*
G01*
X101275000Y-66931250D01*
G75*
G02*
X101056250Y-67150000I-218750J0D01*
G01*
X100543750Y-67150000D01*
G75*
G02*
X100325000Y-66931250I0J218750D01*
G01*
X100325000Y-66493750D01*
G75*
G02*
X100543750Y-66275000I218750J0D01*
G01*
G37*
G04 #@! TD.AperFunction*
G04 #@! TA.AperFunction,SMDPad,CuDef*
G36*
G01*
X100900000Y-75000000D02*
X99300000Y-75000000D01*
G75*
G02*
X99100000Y-74800000I0J200000D01*
G01*
X99100000Y-74400000D01*
G75*
G02*
X99300000Y-74200000I200000J0D01*
G01*
X100900000Y-74200000D01*
G75*
G02*
X101100000Y-74400000I0J-200000D01*
G01*
X101100000Y-74800000D01*
G75*
G02*
X100900000Y-75000000I-200000J0D01*
G01*
G37*
G04 #@! TD.AperFunction*
G04 #@! TA.AperFunction,SMDPad,CuDef*
G36*
G01*
X100900000Y-70800000D02*
X99300000Y-70800000D01*
G75*
G02*
X99100000Y-70600000I0J200000D01*
G01*
X99100000Y-70200000D01*
G75*
G02*
X99300000Y-70000000I200000J0D01*
G01*
X100900000Y-70000000D01*
G75*
G02*
X101100000Y-70200000I0J-200000D01*
G01*
X101100000Y-70600000D01*
G75*
G02*
X100900000Y-70800000I-200000J0D01*
G01*
G37*
G04 #@! TD.AperFunction*
G04 #@! TA.AperFunction,SMDPad,CuDef*
G36*
G01*
X105115000Y-78640000D02*
X105485000Y-78640000D01*
G75*
G02*
X105620000Y-78775000I0J-135000D01*
G01*
X105620000Y-79045000D01*
G75*
G02*
X105485000Y-79180000I-135000J0D01*
G01*
X105115000Y-79180000D01*
G75*
G02*
X104980000Y-79045000I0J135000D01*
G01*
X104980000Y-78775000D01*
G75*
G02*
X105115000Y-78640000I135000J0D01*
G01*
G37*
G04 #@! TD.AperFunction*
G04 #@! TA.AperFunction,SMDPad,CuDef*
G36*
G01*
X105115000Y-77620000D02*
X105485000Y-77620000D01*
G75*
G02*
X105620000Y-77755000I0J-135000D01*
G01*
X105620000Y-78025000D01*
G75*
G02*
X105485000Y-78160000I-135000J0D01*
G01*
X105115000Y-78160000D01*
G75*
G02*
X104980000Y-78025000I0J135000D01*
G01*
X104980000Y-77755000D01*
G75*
G02*
X105115000Y-77620000I135000J0D01*
G01*
G37*
G04 #@! TD.AperFunction*
G04 #@! TA.AperFunction,SMDPad,CuDef*
G36*
G01*
X104115000Y-78640000D02*
X104485000Y-78640000D01*
G75*
G02*
X104620000Y-78775000I0J-135000D01*
G01*
X104620000Y-79045000D01*
G75*
G02*
X104485000Y-79180000I-135000J0D01*
G01*
X104115000Y-79180000D01*
G75*
G02*
X103980000Y-79045000I0J135000D01*
G01*
X103980000Y-78775000D01*
G75*
G02*
X104115000Y-78640000I135000J0D01*
G01*
G37*
G04 #@! TD.AperFunction*
G04 #@! TA.AperFunction,SMDPad,CuDef*
G36*
G01*
X104115000Y-77620000D02*
X104485000Y-77620000D01*
G75*
G02*
X104620000Y-77755000I0J-135000D01*
G01*
X104620000Y-78025000D01*
G75*
G02*
X104485000Y-78160000I-135000J0D01*
G01*
X104115000Y-78160000D01*
G75*
G02*
X103980000Y-78025000I0J135000D01*
G01*
X103980000Y-77755000D01*
G75*
G02*
X104115000Y-77620000I135000J0D01*
G01*
G37*
G04 #@! TD.AperFunction*
D15*
X100425000Y-64920000D03*
X106875000Y-64920000D03*
X101200000Y-64920000D03*
X106100000Y-64920000D03*
D16*
X105400000Y-64920000D03*
X101900000Y-64920000D03*
X104900000Y-64920000D03*
X102400000Y-64920000D03*
X104400000Y-64920000D03*
X102900000Y-64920000D03*
X103400000Y-64920000D03*
X103900000Y-64920000D03*
D17*
X107970000Y-64005000D03*
X99330000Y-64005000D03*
D18*
X107970000Y-59825000D03*
X99330000Y-59825000D03*
G04 #@! TA.AperFunction,SMDPad,CuDef*
G36*
G01*
X103700000Y-93770000D02*
X103700000Y-93430000D01*
G75*
G02*
X103840000Y-93290000I140000J0D01*
G01*
X104120000Y-93290000D01*
G75*
G02*
X104260000Y-93430000I0J-140000D01*
G01*
X104260000Y-93770000D01*
G75*
G02*
X104120000Y-93910000I-140000J0D01*
G01*
X103840000Y-93910000D01*
G75*
G02*
X103700000Y-93770000I0J140000D01*
G01*
G37*
G04 #@! TD.AperFunction*
G04 #@! TA.AperFunction,SMDPad,CuDef*
G36*
G01*
X102740000Y-93770000D02*
X102740000Y-93430000D01*
G75*
G02*
X102880000Y-93290000I140000J0D01*
G01*
X103160000Y-93290000D01*
G75*
G02*
X103300000Y-93430000I0J-140000D01*
G01*
X103300000Y-93770000D01*
G75*
G02*
X103160000Y-93910000I-140000J0D01*
G01*
X102880000Y-93910000D01*
G75*
G02*
X102740000Y-93770000I0J140000D01*
G01*
G37*
G04 #@! TD.AperFunction*
G04 #@! TA.AperFunction,SMDPad,CuDef*
G36*
G01*
X104370000Y-95860000D02*
X104030000Y-95860000D01*
G75*
G02*
X103890000Y-95720000I0J140000D01*
G01*
X103890000Y-95440000D01*
G75*
G02*
X104030000Y-95300000I140000J0D01*
G01*
X104370000Y-95300000D01*
G75*
G02*
X104510000Y-95440000I0J-140000D01*
G01*
X104510000Y-95720000D01*
G75*
G02*
X104370000Y-95860000I-140000J0D01*
G01*
G37*
G04 #@! TD.AperFunction*
G04 #@! TA.AperFunction,SMDPad,CuDef*
G36*
G01*
X104370000Y-94900000D02*
X104030000Y-94900000D01*
G75*
G02*
X103890000Y-94760000I0J140000D01*
G01*
X103890000Y-94480000D01*
G75*
G02*
X104030000Y-94340000I140000J0D01*
G01*
X104370000Y-94340000D01*
G75*
G02*
X104510000Y-94480000I0J-140000D01*
G01*
X104510000Y-94760000D01*
G75*
G02*
X104370000Y-94900000I-140000J0D01*
G01*
G37*
G04 #@! TD.AperFunction*
G04 #@! TA.AperFunction,SMDPad,CuDef*
G36*
G01*
X106395000Y-70550000D02*
X106055000Y-70550000D01*
G75*
G02*
X105915000Y-70410000I0J140000D01*
G01*
X105915000Y-70130000D01*
G75*
G02*
X106055000Y-69990000I140000J0D01*
G01*
X106395000Y-69990000D01*
G75*
G02*
X106535000Y-70130000I0J-140000D01*
G01*
X106535000Y-70410000D01*
G75*
G02*
X106395000Y-70550000I-140000J0D01*
G01*
G37*
G04 #@! TD.AperFunction*
G04 #@! TA.AperFunction,SMDPad,CuDef*
G36*
G01*
X106395000Y-71510000D02*
X106055000Y-71510000D01*
G75*
G02*
X105915000Y-71370000I0J140000D01*
G01*
X105915000Y-71090000D01*
G75*
G02*
X106055000Y-70950000I140000J0D01*
G01*
X106395000Y-70950000D01*
G75*
G02*
X106535000Y-71090000I0J-140000D01*
G01*
X106535000Y-71370000D01*
G75*
G02*
X106395000Y-71510000I-140000J0D01*
G01*
G37*
G04 #@! TD.AperFunction*
D19*
X109550000Y-71200000D03*
X107650000Y-71200000D03*
X107650000Y-69000000D03*
X108600000Y-69000000D03*
X109550000Y-69000000D03*
G04 #@! TA.AperFunction,SMDPad,CuDef*
G36*
G01*
X98770000Y-81660000D02*
X98430000Y-81660000D01*
G75*
G02*
X98290000Y-81520000I0J140000D01*
G01*
X98290000Y-81240000D01*
G75*
G02*
X98430000Y-81100000I140000J0D01*
G01*
X98770000Y-81100000D01*
G75*
G02*
X98910000Y-81240000I0J-140000D01*
G01*
X98910000Y-81520000D01*
G75*
G02*
X98770000Y-81660000I-140000J0D01*
G01*
G37*
G04 #@! TD.AperFunction*
G04 #@! TA.AperFunction,SMDPad,CuDef*
G36*
G01*
X98770000Y-80700000D02*
X98430000Y-80700000D01*
G75*
G02*
X98290000Y-80560000I0J140000D01*
G01*
X98290000Y-80280000D01*
G75*
G02*
X98430000Y-80140000I140000J0D01*
G01*
X98770000Y-80140000D01*
G75*
G02*
X98910000Y-80280000I0J-140000D01*
G01*
X98910000Y-80560000D01*
G75*
G02*
X98770000Y-80700000I-140000J0D01*
G01*
G37*
G04 #@! TD.AperFunction*
D20*
X110000000Y-62150000D03*
X110000000Y-58850000D03*
D21*
X100400000Y-96650000D03*
X102600000Y-96650000D03*
X102600000Y-94950000D03*
X100400000Y-94950000D03*
G04 #@! TA.AperFunction,SMDPad,CuDef*
G36*
G01*
X100240000Y-93770000D02*
X100240000Y-93430000D01*
G75*
G02*
X100380000Y-93290000I140000J0D01*
G01*
X100660000Y-93290000D01*
G75*
G02*
X100800000Y-93430000I0J-140000D01*
G01*
X100800000Y-93770000D01*
G75*
G02*
X100660000Y-93910000I-140000J0D01*
G01*
X100380000Y-93910000D01*
G75*
G02*
X100240000Y-93770000I0J140000D01*
G01*
G37*
G04 #@! TD.AperFunction*
G04 #@! TA.AperFunction,SMDPad,CuDef*
G36*
G01*
X101200000Y-93770000D02*
X101200000Y-93430000D01*
G75*
G02*
X101340000Y-93290000I140000J0D01*
G01*
X101620000Y-93290000D01*
G75*
G02*
X101760000Y-93430000I0J-140000D01*
G01*
X101760000Y-93770000D01*
G75*
G02*
X101620000Y-93910000I-140000J0D01*
G01*
X101340000Y-93910000D01*
G75*
G02*
X101200000Y-93770000I0J140000D01*
G01*
G37*
G04 #@! TD.AperFunction*
G04 #@! TA.AperFunction,SMDPad,CuDef*
G36*
G01*
X102285000Y-68280000D02*
X101915000Y-68280000D01*
G75*
G02*
X101780000Y-68145000I0J135000D01*
G01*
X101780000Y-67875000D01*
G75*
G02*
X101915000Y-67740000I135000J0D01*
G01*
X102285000Y-67740000D01*
G75*
G02*
X102420000Y-67875000I0J-135000D01*
G01*
X102420000Y-68145000D01*
G75*
G02*
X102285000Y-68280000I-135000J0D01*
G01*
G37*
G04 #@! TD.AperFunction*
G04 #@! TA.AperFunction,SMDPad,CuDef*
G36*
G01*
X102285000Y-67260000D02*
X101915000Y-67260000D01*
G75*
G02*
X101780000Y-67125000I0J135000D01*
G01*
X101780000Y-66855000D01*
G75*
G02*
X101915000Y-66720000I135000J0D01*
G01*
X102285000Y-66720000D01*
G75*
G02*
X102420000Y-66855000I0J-135000D01*
G01*
X102420000Y-67125000D01*
G75*
G02*
X102285000Y-67260000I-135000J0D01*
G01*
G37*
G04 #@! TD.AperFunction*
G04 #@! TA.AperFunction,SMDPad,CuDef*
G36*
G01*
X108740000Y-77870000D02*
X108740000Y-77530000D01*
G75*
G02*
X108880000Y-77390000I140000J0D01*
G01*
X109160000Y-77390000D01*
G75*
G02*
X109300000Y-77530000I0J-140000D01*
G01*
X109300000Y-77870000D01*
G75*
G02*
X109160000Y-78010000I-140000J0D01*
G01*
X108880000Y-78010000D01*
G75*
G02*
X108740000Y-77870000I0J140000D01*
G01*
G37*
G04 #@! TD.AperFunction*
G04 #@! TA.AperFunction,SMDPad,CuDef*
G36*
G01*
X109700000Y-77870000D02*
X109700000Y-77530000D01*
G75*
G02*
X109840000Y-77390000I140000J0D01*
G01*
X110120000Y-77390000D01*
G75*
G02*
X110260000Y-77530000I0J-140000D01*
G01*
X110260000Y-77870000D01*
G75*
G02*
X110120000Y-78010000I-140000J0D01*
G01*
X109840000Y-78010000D01*
G75*
G02*
X109700000Y-77870000I0J140000D01*
G01*
G37*
G04 #@! TD.AperFunction*
G04 #@! TA.AperFunction,SMDPad,CuDef*
G36*
G01*
X108740000Y-80170000D02*
X108740000Y-79830000D01*
G75*
G02*
X108880000Y-79690000I140000J0D01*
G01*
X109160000Y-79690000D01*
G75*
G02*
X109300000Y-79830000I0J-140000D01*
G01*
X109300000Y-80170000D01*
G75*
G02*
X109160000Y-80310000I-140000J0D01*
G01*
X108880000Y-80310000D01*
G75*
G02*
X108740000Y-80170000I0J140000D01*
G01*
G37*
G04 #@! TD.AperFunction*
G04 #@! TA.AperFunction,SMDPad,CuDef*
G36*
G01*
X109700000Y-80170000D02*
X109700000Y-79830000D01*
G75*
G02*
X109840000Y-79690000I140000J0D01*
G01*
X110120000Y-79690000D01*
G75*
G02*
X110260000Y-79830000I0J-140000D01*
G01*
X110260000Y-80170000D01*
G75*
G02*
X110120000Y-80310000I-140000J0D01*
G01*
X109840000Y-80310000D01*
G75*
G02*
X109700000Y-80170000I0J140000D01*
G01*
G37*
G04 #@! TD.AperFunction*
G04 #@! TA.AperFunction,SMDPad,CuDef*
G36*
G01*
X108840000Y-72770000D02*
X108840000Y-72430000D01*
G75*
G02*
X108980000Y-72290000I140000J0D01*
G01*
X109260000Y-72290000D01*
G75*
G02*
X109400000Y-72430000I0J-140000D01*
G01*
X109400000Y-72770000D01*
G75*
G02*
X109260000Y-72910000I-140000J0D01*
G01*
X108980000Y-72910000D01*
G75*
G02*
X108840000Y-72770000I0J140000D01*
G01*
G37*
G04 #@! TD.AperFunction*
G04 #@! TA.AperFunction,SMDPad,CuDef*
G36*
G01*
X109800000Y-72770000D02*
X109800000Y-72430000D01*
G75*
G02*
X109940000Y-72290000I140000J0D01*
G01*
X110220000Y-72290000D01*
G75*
G02*
X110360000Y-72430000I0J-140000D01*
G01*
X110360000Y-72770000D01*
G75*
G02*
X110220000Y-72910000I-140000J0D01*
G01*
X109940000Y-72910000D01*
G75*
G02*
X109800000Y-72770000I0J140000D01*
G01*
G37*
G04 #@! TD.AperFunction*
G04 #@! TA.AperFunction,SMDPad,CuDef*
G36*
G01*
X109425000Y-67150000D02*
X109425000Y-67650000D01*
G75*
G02*
X109200000Y-67875000I-225000J0D01*
G01*
X108750000Y-67875000D01*
G75*
G02*
X108525000Y-67650000I0J225000D01*
G01*
X108525000Y-67150000D01*
G75*
G02*
X108750000Y-66925000I225000J0D01*
G01*
X109200000Y-66925000D01*
G75*
G02*
X109425000Y-67150000I0J-225000D01*
G01*
G37*
G04 #@! TD.AperFunction*
G04 #@! TA.AperFunction,SMDPad,CuDef*
G36*
G01*
X107875000Y-67150000D02*
X107875000Y-67650000D01*
G75*
G02*
X107650000Y-67875000I-225000J0D01*
G01*
X107200000Y-67875000D01*
G75*
G02*
X106975000Y-67650000I0J225000D01*
G01*
X106975000Y-67150000D01*
G75*
G02*
X107200000Y-66925000I225000J0D01*
G01*
X107650000Y-66925000D01*
G75*
G02*
X107875000Y-67150000I0J-225000D01*
G01*
G37*
G04 #@! TD.AperFunction*
G04 #@! TA.AperFunction,SMDPad,CuDef*
G36*
G01*
X106415000Y-77520000D02*
X106785000Y-77520000D01*
G75*
G02*
X106920000Y-77655000I0J-135000D01*
G01*
X106920000Y-77925000D01*
G75*
G02*
X106785000Y-78060000I-135000J0D01*
G01*
X106415000Y-78060000D01*
G75*
G02*
X106280000Y-77925000I0J135000D01*
G01*
X106280000Y-77655000D01*
G75*
G02*
X106415000Y-77520000I135000J0D01*
G01*
G37*
G04 #@! TD.AperFunction*
G04 #@! TA.AperFunction,SMDPad,CuDef*
G36*
G01*
X106415000Y-78540000D02*
X106785000Y-78540000D01*
G75*
G02*
X106920000Y-78675000I0J-135000D01*
G01*
X106920000Y-78945000D01*
G75*
G02*
X106785000Y-79080000I-135000J0D01*
G01*
X106415000Y-79080000D01*
G75*
G02*
X106280000Y-78945000I0J135000D01*
G01*
X106280000Y-78675000D01*
G75*
G02*
X106415000Y-78540000I135000J0D01*
G01*
G37*
G04 #@! TD.AperFunction*
G04 #@! TA.AperFunction,SMDPad,CuDef*
G36*
G01*
X106225000Y-74075000D02*
X106775000Y-74075000D01*
G75*
G02*
X106975000Y-74275000I0J-200000D01*
G01*
X106975000Y-74675000D01*
G75*
G02*
X106775000Y-74875000I-200000J0D01*
G01*
X106225000Y-74875000D01*
G75*
G02*
X106025000Y-74675000I0J200000D01*
G01*
X106025000Y-74275000D01*
G75*
G02*
X106225000Y-74075000I200000J0D01*
G01*
G37*
G04 #@! TD.AperFunction*
G04 #@! TA.AperFunction,SMDPad,CuDef*
G36*
G01*
X106225000Y-75725000D02*
X106775000Y-75725000D01*
G75*
G02*
X106975000Y-75925000I0J-200000D01*
G01*
X106975000Y-76325000D01*
G75*
G02*
X106775000Y-76525000I-200000J0D01*
G01*
X106225000Y-76525000D01*
G75*
G02*
X106025000Y-76325000I0J200000D01*
G01*
X106025000Y-75925000D01*
G75*
G02*
X106225000Y-75725000I200000J0D01*
G01*
G37*
G04 #@! TD.AperFunction*
G04 #@! TA.AperFunction,SMDPad,CuDef*
G36*
G01*
X98670000Y-78300000D02*
X98330000Y-78300000D01*
G75*
G02*
X98190000Y-78160000I0J140000D01*
G01*
X98190000Y-77880000D01*
G75*
G02*
X98330000Y-77740000I140000J0D01*
G01*
X98670000Y-77740000D01*
G75*
G02*
X98810000Y-77880000I0J-140000D01*
G01*
X98810000Y-78160000D01*
G75*
G02*
X98670000Y-78300000I-140000J0D01*
G01*
G37*
G04 #@! TD.AperFunction*
G04 #@! TA.AperFunction,SMDPad,CuDef*
G36*
G01*
X98670000Y-79260000D02*
X98330000Y-79260000D01*
G75*
G02*
X98190000Y-79120000I0J140000D01*
G01*
X98190000Y-78840000D01*
G75*
G02*
X98330000Y-78700000I140000J0D01*
G01*
X98670000Y-78700000D01*
G75*
G02*
X98810000Y-78840000I0J-140000D01*
G01*
X98810000Y-79120000D01*
G75*
G02*
X98670000Y-79260000I-140000J0D01*
G01*
G37*
G04 #@! TD.AperFunction*
G04 #@! TA.AperFunction,SMDPad,CuDef*
G36*
G01*
X99870000Y-77360000D02*
X99530000Y-77360000D01*
G75*
G02*
X99390000Y-77220000I0J140000D01*
G01*
X99390000Y-76940000D01*
G75*
G02*
X99530000Y-76800000I140000J0D01*
G01*
X99870000Y-76800000D01*
G75*
G02*
X100010000Y-76940000I0J-140000D01*
G01*
X100010000Y-77220000D01*
G75*
G02*
X99870000Y-77360000I-140000J0D01*
G01*
G37*
G04 #@! TD.AperFunction*
G04 #@! TA.AperFunction,SMDPad,CuDef*
G36*
G01*
X99870000Y-76400000D02*
X99530000Y-76400000D01*
G75*
G02*
X99390000Y-76260000I0J140000D01*
G01*
X99390000Y-75980000D01*
G75*
G02*
X99530000Y-75840000I140000J0D01*
G01*
X99870000Y-75840000D01*
G75*
G02*
X100010000Y-75980000I0J-140000D01*
G01*
X100010000Y-76260000D01*
G75*
G02*
X99870000Y-76400000I-140000J0D01*
G01*
G37*
G04 #@! TD.AperFunction*
G04 #@! TA.AperFunction,SMDPad,CuDef*
G36*
G01*
X106385000Y-68780000D02*
X106015000Y-68780000D01*
G75*
G02*
X105880000Y-68645000I0J135000D01*
G01*
X105880000Y-68375000D01*
G75*
G02*
X106015000Y-68240000I135000J0D01*
G01*
X106385000Y-68240000D01*
G75*
G02*
X106520000Y-68375000I0J-135000D01*
G01*
X106520000Y-68645000D01*
G75*
G02*
X106385000Y-68780000I-135000J0D01*
G01*
G37*
G04 #@! TD.AperFunction*
G04 #@! TA.AperFunction,SMDPad,CuDef*
G36*
G01*
X106385000Y-67760000D02*
X106015000Y-67760000D01*
G75*
G02*
X105880000Y-67625000I0J135000D01*
G01*
X105880000Y-67355000D01*
G75*
G02*
X106015000Y-67220000I135000J0D01*
G01*
X106385000Y-67220000D01*
G75*
G02*
X106520000Y-67355000I0J-135000D01*
G01*
X106520000Y-67625000D01*
G75*
G02*
X106385000Y-67760000I-135000J0D01*
G01*
G37*
G04 #@! TD.AperFunction*
G04 #@! TA.AperFunction,SMDPad,CuDef*
G36*
G01*
X104370000Y-80100000D02*
X104030000Y-80100000D01*
G75*
G02*
X103890000Y-79960000I0J140000D01*
G01*
X103890000Y-79680000D01*
G75*
G02*
X104030000Y-79540000I140000J0D01*
G01*
X104370000Y-79540000D01*
G75*
G02*
X104510000Y-79680000I0J-140000D01*
G01*
X104510000Y-79960000D01*
G75*
G02*
X104370000Y-80100000I-140000J0D01*
G01*
G37*
G04 #@! TD.AperFunction*
G04 #@! TA.AperFunction,SMDPad,CuDef*
G36*
G01*
X104370000Y-81060000D02*
X104030000Y-81060000D01*
G75*
G02*
X103890000Y-80920000I0J140000D01*
G01*
X103890000Y-80640000D01*
G75*
G02*
X104030000Y-80500000I140000J0D01*
G01*
X104370000Y-80500000D01*
G75*
G02*
X104510000Y-80640000I0J-140000D01*
G01*
X104510000Y-80920000D01*
G75*
G02*
X104370000Y-81060000I-140000J0D01*
G01*
G37*
G04 #@! TD.AperFunction*
G04 #@! TA.AperFunction,SMDPad,CuDef*
G36*
G01*
X105870000Y-81660000D02*
X105530000Y-81660000D01*
G75*
G02*
X105390000Y-81520000I0J140000D01*
G01*
X105390000Y-81240000D01*
G75*
G02*
X105530000Y-81100000I140000J0D01*
G01*
X105870000Y-81100000D01*
G75*
G02*
X106010000Y-81240000I0J-140000D01*
G01*
X106010000Y-81520000D01*
G75*
G02*
X105870000Y-81660000I-140000J0D01*
G01*
G37*
G04 #@! TD.AperFunction*
G04 #@! TA.AperFunction,SMDPad,CuDef*
G36*
G01*
X105870000Y-80700000D02*
X105530000Y-80700000D01*
G75*
G02*
X105390000Y-80560000I0J140000D01*
G01*
X105390000Y-80280000D01*
G75*
G02*
X105530000Y-80140000I140000J0D01*
G01*
X105870000Y-80140000D01*
G75*
G02*
X106010000Y-80280000I0J-140000D01*
G01*
X106010000Y-80560000D01*
G75*
G02*
X105870000Y-80700000I-140000J0D01*
G01*
G37*
G04 #@! TD.AperFunction*
G04 #@! TA.AperFunction,SMDPad,CuDef*
G36*
G01*
X103420000Y-81060000D02*
X103080000Y-81060000D01*
G75*
G02*
X102940000Y-80920000I0J140000D01*
G01*
X102940000Y-80640000D01*
G75*
G02*
X103080000Y-80500000I140000J0D01*
G01*
X103420000Y-80500000D01*
G75*
G02*
X103560000Y-80640000I0J-140000D01*
G01*
X103560000Y-80920000D01*
G75*
G02*
X103420000Y-81060000I-140000J0D01*
G01*
G37*
G04 #@! TD.AperFunction*
G04 #@! TA.AperFunction,SMDPad,CuDef*
G36*
G01*
X103420000Y-80100000D02*
X103080000Y-80100000D01*
G75*
G02*
X102940000Y-79960000I0J140000D01*
G01*
X102940000Y-79680000D01*
G75*
G02*
X103080000Y-79540000I140000J0D01*
G01*
X103420000Y-79540000D01*
G75*
G02*
X103560000Y-79680000I0J-140000D01*
G01*
X103560000Y-79960000D01*
G75*
G02*
X103420000Y-80100000I-140000J0D01*
G01*
G37*
G04 #@! TD.AperFunction*
G04 #@! TA.AperFunction,SMDPad,CuDef*
G36*
G01*
X105285000Y-68280000D02*
X104915000Y-68280000D01*
G75*
G02*
X104780000Y-68145000I0J135000D01*
G01*
X104780000Y-67875000D01*
G75*
G02*
X104915000Y-67740000I135000J0D01*
G01*
X105285000Y-67740000D01*
G75*
G02*
X105420000Y-67875000I0J-135000D01*
G01*
X105420000Y-68145000D01*
G75*
G02*
X105285000Y-68280000I-135000J0D01*
G01*
G37*
G04 #@! TD.AperFunction*
G04 #@! TA.AperFunction,SMDPad,CuDef*
G36*
G01*
X105285000Y-67260000D02*
X104915000Y-67260000D01*
G75*
G02*
X104780000Y-67125000I0J135000D01*
G01*
X104780000Y-66855000D01*
G75*
G02*
X104915000Y-66720000I135000J0D01*
G01*
X105285000Y-66720000D01*
G75*
G02*
X105420000Y-66855000I0J-135000D01*
G01*
X105420000Y-67125000D01*
G75*
G02*
X105285000Y-67260000I-135000J0D01*
G01*
G37*
G04 #@! TD.AperFunction*
G04 #@! TA.AperFunction,SMDPad,CuDef*
G36*
G01*
X98560000Y-87530000D02*
X98560000Y-87870000D01*
G75*
G02*
X98420000Y-88010000I-140000J0D01*
G01*
X98140000Y-88010000D01*
G75*
G02*
X98000000Y-87870000I0J140000D01*
G01*
X98000000Y-87530000D01*
G75*
G02*
X98140000Y-87390000I140000J0D01*
G01*
X98420000Y-87390000D01*
G75*
G02*
X98560000Y-87530000I0J-140000D01*
G01*
G37*
G04 #@! TD.AperFunction*
G04 #@! TA.AperFunction,SMDPad,CuDef*
G36*
G01*
X97600000Y-87530000D02*
X97600000Y-87870000D01*
G75*
G02*
X97460000Y-88010000I-140000J0D01*
G01*
X97180000Y-88010000D01*
G75*
G02*
X97040000Y-87870000I0J140000D01*
G01*
X97040000Y-87530000D01*
G75*
G02*
X97180000Y-87390000I140000J0D01*
G01*
X97460000Y-87390000D01*
G75*
G02*
X97600000Y-87530000I0J-140000D01*
G01*
G37*
G04 #@! TD.AperFunction*
G04 #@! TA.AperFunction,SMDPad,CuDef*
G36*
G01*
X106870000Y-81660000D02*
X106530000Y-81660000D01*
G75*
G02*
X106390000Y-81520000I0J140000D01*
G01*
X106390000Y-81240000D01*
G75*
G02*
X106530000Y-81100000I140000J0D01*
G01*
X106870000Y-81100000D01*
G75*
G02*
X107010000Y-81240000I0J-140000D01*
G01*
X107010000Y-81520000D01*
G75*
G02*
X106870000Y-81660000I-140000J0D01*
G01*
G37*
G04 #@! TD.AperFunction*
G04 #@! TA.AperFunction,SMDPad,CuDef*
G36*
G01*
X106870000Y-80700000D02*
X106530000Y-80700000D01*
G75*
G02*
X106390000Y-80560000I0J140000D01*
G01*
X106390000Y-80280000D01*
G75*
G02*
X106530000Y-80140000I140000J0D01*
G01*
X106870000Y-80140000D01*
G75*
G02*
X107010000Y-80280000I0J-140000D01*
G01*
X107010000Y-80560000D01*
G75*
G02*
X106870000Y-80700000I-140000J0D01*
G01*
G37*
G04 #@! TD.AperFunction*
G04 #@! TA.AperFunction,SMDPad,CuDef*
G36*
G01*
X103730000Y-91340000D02*
X104070000Y-91340000D01*
G75*
G02*
X104210000Y-91480000I0J-140000D01*
G01*
X104210000Y-91760000D01*
G75*
G02*
X104070000Y-91900000I-140000J0D01*
G01*
X103730000Y-91900000D01*
G75*
G02*
X103590000Y-91760000I0J140000D01*
G01*
X103590000Y-91480000D01*
G75*
G02*
X103730000Y-91340000I140000J0D01*
G01*
G37*
G04 #@! TD.AperFunction*
G04 #@! TA.AperFunction,SMDPad,CuDef*
G36*
G01*
X103730000Y-92300000D02*
X104070000Y-92300000D01*
G75*
G02*
X104210000Y-92440000I0J-140000D01*
G01*
X104210000Y-92720000D01*
G75*
G02*
X104070000Y-92860000I-140000J0D01*
G01*
X103730000Y-92860000D01*
G75*
G02*
X103590000Y-92720000I0J140000D01*
G01*
X103590000Y-92440000D01*
G75*
G02*
X103730000Y-92300000I140000J0D01*
G01*
G37*
G04 #@! TD.AperFunction*
G04 #@! TA.AperFunction,SMDPad,CuDef*
G36*
G01*
X109840000Y-87470000D02*
X109840000Y-87130000D01*
G75*
G02*
X109980000Y-86990000I140000J0D01*
G01*
X110260000Y-86990000D01*
G75*
G02*
X110400000Y-87130000I0J-140000D01*
G01*
X110400000Y-87470000D01*
G75*
G02*
X110260000Y-87610000I-140000J0D01*
G01*
X109980000Y-87610000D01*
G75*
G02*
X109840000Y-87470000I0J140000D01*
G01*
G37*
G04 #@! TD.AperFunction*
G04 #@! TA.AperFunction,SMDPad,CuDef*
G36*
G01*
X110800000Y-87470000D02*
X110800000Y-87130000D01*
G75*
G02*
X110940000Y-86990000I140000J0D01*
G01*
X111220000Y-86990000D01*
G75*
G02*
X111360000Y-87130000I0J-140000D01*
G01*
X111360000Y-87470000D01*
G75*
G02*
X111220000Y-87610000I-140000J0D01*
G01*
X110940000Y-87610000D01*
G75*
G02*
X110800000Y-87470000I0J140000D01*
G01*
G37*
G04 #@! TD.AperFunction*
G04 #@! TA.AperFunction,SMDPad,CuDef*
G36*
G01*
X98770000Y-77360000D02*
X98430000Y-77360000D01*
G75*
G02*
X98290000Y-77220000I0J140000D01*
G01*
X98290000Y-76940000D01*
G75*
G02*
X98430000Y-76800000I140000J0D01*
G01*
X98770000Y-76800000D01*
G75*
G02*
X98910000Y-76940000I0J-140000D01*
G01*
X98910000Y-77220000D01*
G75*
G02*
X98770000Y-77360000I-140000J0D01*
G01*
G37*
G04 #@! TD.AperFunction*
G04 #@! TA.AperFunction,SMDPad,CuDef*
G36*
G01*
X98770000Y-76400000D02*
X98430000Y-76400000D01*
G75*
G02*
X98290000Y-76260000I0J140000D01*
G01*
X98290000Y-75980000D01*
G75*
G02*
X98430000Y-75840000I140000J0D01*
G01*
X98770000Y-75840000D01*
G75*
G02*
X98910000Y-75980000I0J-140000D01*
G01*
X98910000Y-76260000D01*
G75*
G02*
X98770000Y-76400000I-140000J0D01*
G01*
G37*
G04 #@! TD.AperFunction*
G04 #@! TA.AperFunction,SMDPad,CuDef*
G36*
G01*
X99360000Y-82430000D02*
X99360000Y-82770000D01*
G75*
G02*
X99220000Y-82910000I-140000J0D01*
G01*
X98940000Y-82910000D01*
G75*
G02*
X98800000Y-82770000I0J140000D01*
G01*
X98800000Y-82430000D01*
G75*
G02*
X98940000Y-82290000I140000J0D01*
G01*
X99220000Y-82290000D01*
G75*
G02*
X99360000Y-82430000I0J-140000D01*
G01*
G37*
G04 #@! TD.AperFunction*
G04 #@! TA.AperFunction,SMDPad,CuDef*
G36*
G01*
X98400000Y-82430000D02*
X98400000Y-82770000D01*
G75*
G02*
X98260000Y-82910000I-140000J0D01*
G01*
X97980000Y-82910000D01*
G75*
G02*
X97840000Y-82770000I0J140000D01*
G01*
X97840000Y-82430000D01*
G75*
G02*
X97980000Y-82290000I140000J0D01*
G01*
X98260000Y-82290000D01*
G75*
G02*
X98400000Y-82430000I0J-140000D01*
G01*
G37*
G04 #@! TD.AperFunction*
G04 #@! TA.AperFunction,SMDPad,CuDef*
G36*
G01*
X104830000Y-91340000D02*
X105170000Y-91340000D01*
G75*
G02*
X105310000Y-91480000I0J-140000D01*
G01*
X105310000Y-91760000D01*
G75*
G02*
X105170000Y-91900000I-140000J0D01*
G01*
X104830000Y-91900000D01*
G75*
G02*
X104690000Y-91760000I0J140000D01*
G01*
X104690000Y-91480000D01*
G75*
G02*
X104830000Y-91340000I140000J0D01*
G01*
G37*
G04 #@! TD.AperFunction*
G04 #@! TA.AperFunction,SMDPad,CuDef*
G36*
G01*
X104830000Y-92300000D02*
X105170000Y-92300000D01*
G75*
G02*
X105310000Y-92440000I0J-140000D01*
G01*
X105310000Y-92720000D01*
G75*
G02*
X105170000Y-92860000I-140000J0D01*
G01*
X104830000Y-92860000D01*
G75*
G02*
X104690000Y-92720000I0J140000D01*
G01*
X104690000Y-92440000D01*
G75*
G02*
X104830000Y-92300000I140000J0D01*
G01*
G37*
G04 #@! TD.AperFunction*
G04 #@! TA.AperFunction,SMDPad,CuDef*
G36*
G01*
X109680000Y-85215000D02*
X109680000Y-85585000D01*
G75*
G02*
X109545000Y-85720000I-135000J0D01*
G01*
X109275000Y-85720000D01*
G75*
G02*
X109140000Y-85585000I0J135000D01*
G01*
X109140000Y-85215000D01*
G75*
G02*
X109275000Y-85080000I135000J0D01*
G01*
X109545000Y-85080000D01*
G75*
G02*
X109680000Y-85215000I0J-135000D01*
G01*
G37*
G04 #@! TD.AperFunction*
G04 #@! TA.AperFunction,SMDPad,CuDef*
G36*
G01*
X108660000Y-85215000D02*
X108660000Y-85585000D01*
G75*
G02*
X108525000Y-85720000I-135000J0D01*
G01*
X108255000Y-85720000D01*
G75*
G02*
X108120000Y-85585000I0J135000D01*
G01*
X108120000Y-85215000D01*
G75*
G02*
X108255000Y-85080000I135000J0D01*
G01*
X108525000Y-85080000D01*
G75*
G02*
X108660000Y-85215000I0J-135000D01*
G01*
G37*
G04 #@! TD.AperFunction*
G04 #@! TA.AperFunction,SMDPad,CuDef*
G36*
G01*
X102050000Y-87481000D02*
X102050000Y-84569000D01*
G75*
G02*
X102194000Y-84425000I144000J0D01*
G01*
X105106000Y-84425000D01*
G75*
G02*
X105250000Y-84569000I0J-144000D01*
G01*
X105250000Y-87481000D01*
G75*
G02*
X105106000Y-87625000I-144000J0D01*
G01*
X102194000Y-87625000D01*
G75*
G02*
X102050000Y-87481000I0J144000D01*
G01*
G37*
G04 #@! TD.AperFunction*
D22*
X102375000Y-84750000D03*
X103650000Y-84750000D03*
X104925000Y-84750000D03*
X102375000Y-86025000D03*
X103650000Y-86025000D03*
X104925000Y-86025000D03*
X102375000Y-87300000D03*
X103650000Y-87300000D03*
X104925000Y-87300000D03*
G04 #@! TA.AperFunction,SMDPad,CuDef*
G36*
G01*
X99775000Y-83475000D02*
X99775000Y-83375000D01*
G75*
G02*
X99825000Y-83325000I50000J0D01*
G01*
X100600000Y-83325000D01*
G75*
G02*
X100650000Y-83375000I0J-50000D01*
G01*
X100650000Y-83475000D01*
G75*
G02*
X100600000Y-83525000I-50000J0D01*
G01*
X99825000Y-83525000D01*
G75*
G02*
X99775000Y-83475000I0J50000D01*
G01*
G37*
G04 #@! TD.AperFunction*
G04 #@! TA.AperFunction,SMDPad,CuDef*
G36*
G01*
X99775000Y-83875000D02*
X99775000Y-83775000D01*
G75*
G02*
X99825000Y-83725000I50000J0D01*
G01*
X100600000Y-83725000D01*
G75*
G02*
X100650000Y-83775000I0J-50000D01*
G01*
X100650000Y-83875000D01*
G75*
G02*
X100600000Y-83925000I-50000J0D01*
G01*
X99825000Y-83925000D01*
G75*
G02*
X99775000Y-83875000I0J50000D01*
G01*
G37*
G04 #@! TD.AperFunction*
G04 #@! TA.AperFunction,SMDPad,CuDef*
G36*
G01*
X99775000Y-84275000D02*
X99775000Y-84175000D01*
G75*
G02*
X99825000Y-84125000I50000J0D01*
G01*
X100600000Y-84125000D01*
G75*
G02*
X100650000Y-84175000I0J-50000D01*
G01*
X100650000Y-84275000D01*
G75*
G02*
X100600000Y-84325000I-50000J0D01*
G01*
X99825000Y-84325000D01*
G75*
G02*
X99775000Y-84275000I0J50000D01*
G01*
G37*
G04 #@! TD.AperFunction*
G04 #@! TA.AperFunction,SMDPad,CuDef*
G36*
G01*
X99775000Y-84675000D02*
X99775000Y-84575000D01*
G75*
G02*
X99825000Y-84525000I50000J0D01*
G01*
X100600000Y-84525000D01*
G75*
G02*
X100650000Y-84575000I0J-50000D01*
G01*
X100650000Y-84675000D01*
G75*
G02*
X100600000Y-84725000I-50000J0D01*
G01*
X99825000Y-84725000D01*
G75*
G02*
X99775000Y-84675000I0J50000D01*
G01*
G37*
G04 #@! TD.AperFunction*
G04 #@! TA.AperFunction,SMDPad,CuDef*
G36*
G01*
X99775000Y-85075000D02*
X99775000Y-84975000D01*
G75*
G02*
X99825000Y-84925000I50000J0D01*
G01*
X100600000Y-84925000D01*
G75*
G02*
X100650000Y-84975000I0J-50000D01*
G01*
X100650000Y-85075000D01*
G75*
G02*
X100600000Y-85125000I-50000J0D01*
G01*
X99825000Y-85125000D01*
G75*
G02*
X99775000Y-85075000I0J50000D01*
G01*
G37*
G04 #@! TD.AperFunction*
G04 #@! TA.AperFunction,SMDPad,CuDef*
G36*
G01*
X99775000Y-85475000D02*
X99775000Y-85375000D01*
G75*
G02*
X99825000Y-85325000I50000J0D01*
G01*
X100600000Y-85325000D01*
G75*
G02*
X100650000Y-85375000I0J-50000D01*
G01*
X100650000Y-85475000D01*
G75*
G02*
X100600000Y-85525000I-50000J0D01*
G01*
X99825000Y-85525000D01*
G75*
G02*
X99775000Y-85475000I0J50000D01*
G01*
G37*
G04 #@! TD.AperFunction*
G04 #@! TA.AperFunction,SMDPad,CuDef*
G36*
G01*
X99775000Y-85875000D02*
X99775000Y-85775000D01*
G75*
G02*
X99825000Y-85725000I50000J0D01*
G01*
X100600000Y-85725000D01*
G75*
G02*
X100650000Y-85775000I0J-50000D01*
G01*
X100650000Y-85875000D01*
G75*
G02*
X100600000Y-85925000I-50000J0D01*
G01*
X99825000Y-85925000D01*
G75*
G02*
X99775000Y-85875000I0J50000D01*
G01*
G37*
G04 #@! TD.AperFunction*
G04 #@! TA.AperFunction,SMDPad,CuDef*
G36*
G01*
X99775000Y-86275000D02*
X99775000Y-86175000D01*
G75*
G02*
X99825000Y-86125000I50000J0D01*
G01*
X100600000Y-86125000D01*
G75*
G02*
X100650000Y-86175000I0J-50000D01*
G01*
X100650000Y-86275000D01*
G75*
G02*
X100600000Y-86325000I-50000J0D01*
G01*
X99825000Y-86325000D01*
G75*
G02*
X99775000Y-86275000I0J50000D01*
G01*
G37*
G04 #@! TD.AperFunction*
G04 #@! TA.AperFunction,SMDPad,CuDef*
G36*
G01*
X99775000Y-86675000D02*
X99775000Y-86575000D01*
G75*
G02*
X99825000Y-86525000I50000J0D01*
G01*
X100600000Y-86525000D01*
G75*
G02*
X100650000Y-86575000I0J-50000D01*
G01*
X100650000Y-86675000D01*
G75*
G02*
X100600000Y-86725000I-50000J0D01*
G01*
X99825000Y-86725000D01*
G75*
G02*
X99775000Y-86675000I0J50000D01*
G01*
G37*
G04 #@! TD.AperFunction*
G04 #@! TA.AperFunction,SMDPad,CuDef*
G36*
G01*
X99775000Y-87075000D02*
X99775000Y-86975000D01*
G75*
G02*
X99825000Y-86925000I50000J0D01*
G01*
X100600000Y-86925000D01*
G75*
G02*
X100650000Y-86975000I0J-50000D01*
G01*
X100650000Y-87075000D01*
G75*
G02*
X100600000Y-87125000I-50000J0D01*
G01*
X99825000Y-87125000D01*
G75*
G02*
X99775000Y-87075000I0J50000D01*
G01*
G37*
G04 #@! TD.AperFunction*
G04 #@! TA.AperFunction,SMDPad,CuDef*
G36*
G01*
X99775000Y-87475000D02*
X99775000Y-87375000D01*
G75*
G02*
X99825000Y-87325000I50000J0D01*
G01*
X100600000Y-87325000D01*
G75*
G02*
X100650000Y-87375000I0J-50000D01*
G01*
X100650000Y-87475000D01*
G75*
G02*
X100600000Y-87525000I-50000J0D01*
G01*
X99825000Y-87525000D01*
G75*
G02*
X99775000Y-87475000I0J50000D01*
G01*
G37*
G04 #@! TD.AperFunction*
G04 #@! TA.AperFunction,SMDPad,CuDef*
G36*
G01*
X99775000Y-87875000D02*
X99775000Y-87775000D01*
G75*
G02*
X99825000Y-87725000I50000J0D01*
G01*
X100600000Y-87725000D01*
G75*
G02*
X100650000Y-87775000I0J-50000D01*
G01*
X100650000Y-87875000D01*
G75*
G02*
X100600000Y-87925000I-50000J0D01*
G01*
X99825000Y-87925000D01*
G75*
G02*
X99775000Y-87875000I0J50000D01*
G01*
G37*
G04 #@! TD.AperFunction*
G04 #@! TA.AperFunction,SMDPad,CuDef*
G36*
G01*
X99775000Y-88275000D02*
X99775000Y-88175000D01*
G75*
G02*
X99825000Y-88125000I50000J0D01*
G01*
X100600000Y-88125000D01*
G75*
G02*
X100650000Y-88175000I0J-50000D01*
G01*
X100650000Y-88275000D01*
G75*
G02*
X100600000Y-88325000I-50000J0D01*
G01*
X99825000Y-88325000D01*
G75*
G02*
X99775000Y-88275000I0J50000D01*
G01*
G37*
G04 #@! TD.AperFunction*
G04 #@! TA.AperFunction,SMDPad,CuDef*
G36*
G01*
X99775000Y-88675000D02*
X99775000Y-88575000D01*
G75*
G02*
X99825000Y-88525000I50000J0D01*
G01*
X100600000Y-88525000D01*
G75*
G02*
X100650000Y-88575000I0J-50000D01*
G01*
X100650000Y-88675000D01*
G75*
G02*
X100600000Y-88725000I-50000J0D01*
G01*
X99825000Y-88725000D01*
G75*
G02*
X99775000Y-88675000I0J50000D01*
G01*
G37*
G04 #@! TD.AperFunction*
G04 #@! TA.AperFunction,SMDPad,CuDef*
G36*
G01*
X100950000Y-89850000D02*
X100950000Y-89075000D01*
G75*
G02*
X101000000Y-89025000I50000J0D01*
G01*
X101100000Y-89025000D01*
G75*
G02*
X101150000Y-89075000I0J-50000D01*
G01*
X101150000Y-89850000D01*
G75*
G02*
X101100000Y-89900000I-50000J0D01*
G01*
X101000000Y-89900000D01*
G75*
G02*
X100950000Y-89850000I0J50000D01*
G01*
G37*
G04 #@! TD.AperFunction*
G04 #@! TA.AperFunction,SMDPad,CuDef*
G36*
G01*
X101350000Y-89850000D02*
X101350000Y-89075000D01*
G75*
G02*
X101400000Y-89025000I50000J0D01*
G01*
X101500000Y-89025000D01*
G75*
G02*
X101550000Y-89075000I0J-50000D01*
G01*
X101550000Y-89850000D01*
G75*
G02*
X101500000Y-89900000I-50000J0D01*
G01*
X101400000Y-89900000D01*
G75*
G02*
X101350000Y-89850000I0J50000D01*
G01*
G37*
G04 #@! TD.AperFunction*
G04 #@! TA.AperFunction,SMDPad,CuDef*
G36*
G01*
X101750000Y-89850000D02*
X101750000Y-89075000D01*
G75*
G02*
X101800000Y-89025000I50000J0D01*
G01*
X101900000Y-89025000D01*
G75*
G02*
X101950000Y-89075000I0J-50000D01*
G01*
X101950000Y-89850000D01*
G75*
G02*
X101900000Y-89900000I-50000J0D01*
G01*
X101800000Y-89900000D01*
G75*
G02*
X101750000Y-89850000I0J50000D01*
G01*
G37*
G04 #@! TD.AperFunction*
G04 #@! TA.AperFunction,SMDPad,CuDef*
G36*
G01*
X102150000Y-89850000D02*
X102150000Y-89075000D01*
G75*
G02*
X102200000Y-89025000I50000J0D01*
G01*
X102300000Y-89025000D01*
G75*
G02*
X102350000Y-89075000I0J-50000D01*
G01*
X102350000Y-89850000D01*
G75*
G02*
X102300000Y-89900000I-50000J0D01*
G01*
X102200000Y-89900000D01*
G75*
G02*
X102150000Y-89850000I0J50000D01*
G01*
G37*
G04 #@! TD.AperFunction*
G04 #@! TA.AperFunction,SMDPad,CuDef*
G36*
G01*
X102550000Y-89850000D02*
X102550000Y-89075000D01*
G75*
G02*
X102600000Y-89025000I50000J0D01*
G01*
X102700000Y-89025000D01*
G75*
G02*
X102750000Y-89075000I0J-50000D01*
G01*
X102750000Y-89850000D01*
G75*
G02*
X102700000Y-89900000I-50000J0D01*
G01*
X102600000Y-89900000D01*
G75*
G02*
X102550000Y-89850000I0J50000D01*
G01*
G37*
G04 #@! TD.AperFunction*
G04 #@! TA.AperFunction,SMDPad,CuDef*
G36*
G01*
X102950000Y-89850000D02*
X102950000Y-89075000D01*
G75*
G02*
X103000000Y-89025000I50000J0D01*
G01*
X103100000Y-89025000D01*
G75*
G02*
X103150000Y-89075000I0J-50000D01*
G01*
X103150000Y-89850000D01*
G75*
G02*
X103100000Y-89900000I-50000J0D01*
G01*
X103000000Y-89900000D01*
G75*
G02*
X102950000Y-89850000I0J50000D01*
G01*
G37*
G04 #@! TD.AperFunction*
G04 #@! TA.AperFunction,SMDPad,CuDef*
G36*
G01*
X103350000Y-89850000D02*
X103350000Y-89075000D01*
G75*
G02*
X103400000Y-89025000I50000J0D01*
G01*
X103500000Y-89025000D01*
G75*
G02*
X103550000Y-89075000I0J-50000D01*
G01*
X103550000Y-89850000D01*
G75*
G02*
X103500000Y-89900000I-50000J0D01*
G01*
X103400000Y-89900000D01*
G75*
G02*
X103350000Y-89850000I0J50000D01*
G01*
G37*
G04 #@! TD.AperFunction*
G04 #@! TA.AperFunction,SMDPad,CuDef*
G36*
G01*
X103750000Y-89850000D02*
X103750000Y-89075000D01*
G75*
G02*
X103800000Y-89025000I50000J0D01*
G01*
X103900000Y-89025000D01*
G75*
G02*
X103950000Y-89075000I0J-50000D01*
G01*
X103950000Y-89850000D01*
G75*
G02*
X103900000Y-89900000I-50000J0D01*
G01*
X103800000Y-89900000D01*
G75*
G02*
X103750000Y-89850000I0J50000D01*
G01*
G37*
G04 #@! TD.AperFunction*
G04 #@! TA.AperFunction,SMDPad,CuDef*
G36*
G01*
X104150000Y-89850000D02*
X104150000Y-89075000D01*
G75*
G02*
X104200000Y-89025000I50000J0D01*
G01*
X104300000Y-89025000D01*
G75*
G02*
X104350000Y-89075000I0J-50000D01*
G01*
X104350000Y-89850000D01*
G75*
G02*
X104300000Y-89900000I-50000J0D01*
G01*
X104200000Y-89900000D01*
G75*
G02*
X104150000Y-89850000I0J50000D01*
G01*
G37*
G04 #@! TD.AperFunction*
G04 #@! TA.AperFunction,SMDPad,CuDef*
G36*
G01*
X104550000Y-89850000D02*
X104550000Y-89075000D01*
G75*
G02*
X104600000Y-89025000I50000J0D01*
G01*
X104700000Y-89025000D01*
G75*
G02*
X104750000Y-89075000I0J-50000D01*
G01*
X104750000Y-89850000D01*
G75*
G02*
X104700000Y-89900000I-50000J0D01*
G01*
X104600000Y-89900000D01*
G75*
G02*
X104550000Y-89850000I0J50000D01*
G01*
G37*
G04 #@! TD.AperFunction*
G04 #@! TA.AperFunction,SMDPad,CuDef*
G36*
G01*
X104950000Y-89850000D02*
X104950000Y-89075000D01*
G75*
G02*
X105000000Y-89025000I50000J0D01*
G01*
X105100000Y-89025000D01*
G75*
G02*
X105150000Y-89075000I0J-50000D01*
G01*
X105150000Y-89850000D01*
G75*
G02*
X105100000Y-89900000I-50000J0D01*
G01*
X105000000Y-89900000D01*
G75*
G02*
X104950000Y-89850000I0J50000D01*
G01*
G37*
G04 #@! TD.AperFunction*
G04 #@! TA.AperFunction,SMDPad,CuDef*
G36*
G01*
X105350000Y-89850000D02*
X105350000Y-89075000D01*
G75*
G02*
X105400000Y-89025000I50000J0D01*
G01*
X105500000Y-89025000D01*
G75*
G02*
X105550000Y-89075000I0J-50000D01*
G01*
X105550000Y-89850000D01*
G75*
G02*
X105500000Y-89900000I-50000J0D01*
G01*
X105400000Y-89900000D01*
G75*
G02*
X105350000Y-89850000I0J50000D01*
G01*
G37*
G04 #@! TD.AperFunction*
G04 #@! TA.AperFunction,SMDPad,CuDef*
G36*
G01*
X105750000Y-89850000D02*
X105750000Y-89075000D01*
G75*
G02*
X105800000Y-89025000I50000J0D01*
G01*
X105900000Y-89025000D01*
G75*
G02*
X105950000Y-89075000I0J-50000D01*
G01*
X105950000Y-89850000D01*
G75*
G02*
X105900000Y-89900000I-50000J0D01*
G01*
X105800000Y-89900000D01*
G75*
G02*
X105750000Y-89850000I0J50000D01*
G01*
G37*
G04 #@! TD.AperFunction*
G04 #@! TA.AperFunction,SMDPad,CuDef*
G36*
G01*
X106150000Y-89850000D02*
X106150000Y-89075000D01*
G75*
G02*
X106200000Y-89025000I50000J0D01*
G01*
X106300000Y-89025000D01*
G75*
G02*
X106350000Y-89075000I0J-50000D01*
G01*
X106350000Y-89850000D01*
G75*
G02*
X106300000Y-89900000I-50000J0D01*
G01*
X106200000Y-89900000D01*
G75*
G02*
X106150000Y-89850000I0J50000D01*
G01*
G37*
G04 #@! TD.AperFunction*
G04 #@! TA.AperFunction,SMDPad,CuDef*
G36*
G01*
X106650000Y-88675000D02*
X106650000Y-88575000D01*
G75*
G02*
X106700000Y-88525000I50000J0D01*
G01*
X107475000Y-88525000D01*
G75*
G02*
X107525000Y-88575000I0J-50000D01*
G01*
X107525000Y-88675000D01*
G75*
G02*
X107475000Y-88725000I-50000J0D01*
G01*
X106700000Y-88725000D01*
G75*
G02*
X106650000Y-88675000I0J50000D01*
G01*
G37*
G04 #@! TD.AperFunction*
G04 #@! TA.AperFunction,SMDPad,CuDef*
G36*
G01*
X106650000Y-88275000D02*
X106650000Y-88175000D01*
G75*
G02*
X106700000Y-88125000I50000J0D01*
G01*
X107475000Y-88125000D01*
G75*
G02*
X107525000Y-88175000I0J-50000D01*
G01*
X107525000Y-88275000D01*
G75*
G02*
X107475000Y-88325000I-50000J0D01*
G01*
X106700000Y-88325000D01*
G75*
G02*
X106650000Y-88275000I0J50000D01*
G01*
G37*
G04 #@! TD.AperFunction*
G04 #@! TA.AperFunction,SMDPad,CuDef*
G36*
G01*
X106650000Y-87875000D02*
X106650000Y-87775000D01*
G75*
G02*
X106700000Y-87725000I50000J0D01*
G01*
X107475000Y-87725000D01*
G75*
G02*
X107525000Y-87775000I0J-50000D01*
G01*
X107525000Y-87875000D01*
G75*
G02*
X107475000Y-87925000I-50000J0D01*
G01*
X106700000Y-87925000D01*
G75*
G02*
X106650000Y-87875000I0J50000D01*
G01*
G37*
G04 #@! TD.AperFunction*
G04 #@! TA.AperFunction,SMDPad,CuDef*
G36*
G01*
X106650000Y-87475000D02*
X106650000Y-87375000D01*
G75*
G02*
X106700000Y-87325000I50000J0D01*
G01*
X107475000Y-87325000D01*
G75*
G02*
X107525000Y-87375000I0J-50000D01*
G01*
X107525000Y-87475000D01*
G75*
G02*
X107475000Y-87525000I-50000J0D01*
G01*
X106700000Y-87525000D01*
G75*
G02*
X106650000Y-87475000I0J50000D01*
G01*
G37*
G04 #@! TD.AperFunction*
G04 #@! TA.AperFunction,SMDPad,CuDef*
G36*
G01*
X106650000Y-87075000D02*
X106650000Y-86975000D01*
G75*
G02*
X106700000Y-86925000I50000J0D01*
G01*
X107475000Y-86925000D01*
G75*
G02*
X107525000Y-86975000I0J-50000D01*
G01*
X107525000Y-87075000D01*
G75*
G02*
X107475000Y-87125000I-50000J0D01*
G01*
X106700000Y-87125000D01*
G75*
G02*
X106650000Y-87075000I0J50000D01*
G01*
G37*
G04 #@! TD.AperFunction*
G04 #@! TA.AperFunction,SMDPad,CuDef*
G36*
G01*
X106650000Y-86675000D02*
X106650000Y-86575000D01*
G75*
G02*
X106700000Y-86525000I50000J0D01*
G01*
X107475000Y-86525000D01*
G75*
G02*
X107525000Y-86575000I0J-50000D01*
G01*
X107525000Y-86675000D01*
G75*
G02*
X107475000Y-86725000I-50000J0D01*
G01*
X106700000Y-86725000D01*
G75*
G02*
X106650000Y-86675000I0J50000D01*
G01*
G37*
G04 #@! TD.AperFunction*
G04 #@! TA.AperFunction,SMDPad,CuDef*
G36*
G01*
X106650000Y-86275000D02*
X106650000Y-86175000D01*
G75*
G02*
X106700000Y-86125000I50000J0D01*
G01*
X107475000Y-86125000D01*
G75*
G02*
X107525000Y-86175000I0J-50000D01*
G01*
X107525000Y-86275000D01*
G75*
G02*
X107475000Y-86325000I-50000J0D01*
G01*
X106700000Y-86325000D01*
G75*
G02*
X106650000Y-86275000I0J50000D01*
G01*
G37*
G04 #@! TD.AperFunction*
G04 #@! TA.AperFunction,SMDPad,CuDef*
G36*
G01*
X106650000Y-85875000D02*
X106650000Y-85775000D01*
G75*
G02*
X106700000Y-85725000I50000J0D01*
G01*
X107475000Y-85725000D01*
G75*
G02*
X107525000Y-85775000I0J-50000D01*
G01*
X107525000Y-85875000D01*
G75*
G02*
X107475000Y-85925000I-50000J0D01*
G01*
X106700000Y-85925000D01*
G75*
G02*
X106650000Y-85875000I0J50000D01*
G01*
G37*
G04 #@! TD.AperFunction*
G04 #@! TA.AperFunction,SMDPad,CuDef*
G36*
G01*
X106650000Y-85475000D02*
X106650000Y-85375000D01*
G75*
G02*
X106700000Y-85325000I50000J0D01*
G01*
X107475000Y-85325000D01*
G75*
G02*
X107525000Y-85375000I0J-50000D01*
G01*
X107525000Y-85475000D01*
G75*
G02*
X107475000Y-85525000I-50000J0D01*
G01*
X106700000Y-85525000D01*
G75*
G02*
X106650000Y-85475000I0J50000D01*
G01*
G37*
G04 #@! TD.AperFunction*
G04 #@! TA.AperFunction,SMDPad,CuDef*
G36*
G01*
X106650000Y-85075000D02*
X106650000Y-84975000D01*
G75*
G02*
X106700000Y-84925000I50000J0D01*
G01*
X107475000Y-84925000D01*
G75*
G02*
X107525000Y-84975000I0J-50000D01*
G01*
X107525000Y-85075000D01*
G75*
G02*
X107475000Y-85125000I-50000J0D01*
G01*
X106700000Y-85125000D01*
G75*
G02*
X106650000Y-85075000I0J50000D01*
G01*
G37*
G04 #@! TD.AperFunction*
G04 #@! TA.AperFunction,SMDPad,CuDef*
G36*
G01*
X106650000Y-84675000D02*
X106650000Y-84575000D01*
G75*
G02*
X106700000Y-84525000I50000J0D01*
G01*
X107475000Y-84525000D01*
G75*
G02*
X107525000Y-84575000I0J-50000D01*
G01*
X107525000Y-84675000D01*
G75*
G02*
X107475000Y-84725000I-50000J0D01*
G01*
X106700000Y-84725000D01*
G75*
G02*
X106650000Y-84675000I0J50000D01*
G01*
G37*
G04 #@! TD.AperFunction*
G04 #@! TA.AperFunction,SMDPad,CuDef*
G36*
G01*
X106650000Y-84275000D02*
X106650000Y-84175000D01*
G75*
G02*
X106700000Y-84125000I50000J0D01*
G01*
X107475000Y-84125000D01*
G75*
G02*
X107525000Y-84175000I0J-50000D01*
G01*
X107525000Y-84275000D01*
G75*
G02*
X107475000Y-84325000I-50000J0D01*
G01*
X106700000Y-84325000D01*
G75*
G02*
X106650000Y-84275000I0J50000D01*
G01*
G37*
G04 #@! TD.AperFunction*
G04 #@! TA.AperFunction,SMDPad,CuDef*
G36*
G01*
X106650000Y-83875000D02*
X106650000Y-83775000D01*
G75*
G02*
X106700000Y-83725000I50000J0D01*
G01*
X107475000Y-83725000D01*
G75*
G02*
X107525000Y-83775000I0J-50000D01*
G01*
X107525000Y-83875000D01*
G75*
G02*
X107475000Y-83925000I-50000J0D01*
G01*
X106700000Y-83925000D01*
G75*
G02*
X106650000Y-83875000I0J50000D01*
G01*
G37*
G04 #@! TD.AperFunction*
G04 #@! TA.AperFunction,SMDPad,CuDef*
G36*
G01*
X106650000Y-83475000D02*
X106650000Y-83375000D01*
G75*
G02*
X106700000Y-83325000I50000J0D01*
G01*
X107475000Y-83325000D01*
G75*
G02*
X107525000Y-83375000I0J-50000D01*
G01*
X107525000Y-83475000D01*
G75*
G02*
X107475000Y-83525000I-50000J0D01*
G01*
X106700000Y-83525000D01*
G75*
G02*
X106650000Y-83475000I0J50000D01*
G01*
G37*
G04 #@! TD.AperFunction*
G04 #@! TA.AperFunction,SMDPad,CuDef*
G36*
G01*
X106150000Y-82975000D02*
X106150000Y-82200000D01*
G75*
G02*
X106200000Y-82150000I50000J0D01*
G01*
X106300000Y-82150000D01*
G75*
G02*
X106350000Y-82200000I0J-50000D01*
G01*
X106350000Y-82975000D01*
G75*
G02*
X106300000Y-83025000I-50000J0D01*
G01*
X106200000Y-83025000D01*
G75*
G02*
X106150000Y-82975000I0J50000D01*
G01*
G37*
G04 #@! TD.AperFunction*
G04 #@! TA.AperFunction,SMDPad,CuDef*
G36*
G01*
X105750000Y-82975000D02*
X105750000Y-82200000D01*
G75*
G02*
X105800000Y-82150000I50000J0D01*
G01*
X105900000Y-82150000D01*
G75*
G02*
X105950000Y-82200000I0J-50000D01*
G01*
X105950000Y-82975000D01*
G75*
G02*
X105900000Y-83025000I-50000J0D01*
G01*
X105800000Y-83025000D01*
G75*
G02*
X105750000Y-82975000I0J50000D01*
G01*
G37*
G04 #@! TD.AperFunction*
G04 #@! TA.AperFunction,SMDPad,CuDef*
G36*
G01*
X105350000Y-82975000D02*
X105350000Y-82200000D01*
G75*
G02*
X105400000Y-82150000I50000J0D01*
G01*
X105500000Y-82150000D01*
G75*
G02*
X105550000Y-82200000I0J-50000D01*
G01*
X105550000Y-82975000D01*
G75*
G02*
X105500000Y-83025000I-50000J0D01*
G01*
X105400000Y-83025000D01*
G75*
G02*
X105350000Y-82975000I0J50000D01*
G01*
G37*
G04 #@! TD.AperFunction*
G04 #@! TA.AperFunction,SMDPad,CuDef*
G36*
G01*
X104950000Y-82975000D02*
X104950000Y-82200000D01*
G75*
G02*
X105000000Y-82150000I50000J0D01*
G01*
X105100000Y-82150000D01*
G75*
G02*
X105150000Y-82200000I0J-50000D01*
G01*
X105150000Y-82975000D01*
G75*
G02*
X105100000Y-83025000I-50000J0D01*
G01*
X105000000Y-83025000D01*
G75*
G02*
X104950000Y-82975000I0J50000D01*
G01*
G37*
G04 #@! TD.AperFunction*
G04 #@! TA.AperFunction,SMDPad,CuDef*
G36*
G01*
X104550000Y-82975000D02*
X104550000Y-82200000D01*
G75*
G02*
X104600000Y-82150000I50000J0D01*
G01*
X104700000Y-82150000D01*
G75*
G02*
X104750000Y-82200000I0J-50000D01*
G01*
X104750000Y-82975000D01*
G75*
G02*
X104700000Y-83025000I-50000J0D01*
G01*
X104600000Y-83025000D01*
G75*
G02*
X104550000Y-82975000I0J50000D01*
G01*
G37*
G04 #@! TD.AperFunction*
G04 #@! TA.AperFunction,SMDPad,CuDef*
G36*
G01*
X104150000Y-82975000D02*
X104150000Y-82200000D01*
G75*
G02*
X104200000Y-82150000I50000J0D01*
G01*
X104300000Y-82150000D01*
G75*
G02*
X104350000Y-82200000I0J-50000D01*
G01*
X104350000Y-82975000D01*
G75*
G02*
X104300000Y-83025000I-50000J0D01*
G01*
X104200000Y-83025000D01*
G75*
G02*
X104150000Y-82975000I0J50000D01*
G01*
G37*
G04 #@! TD.AperFunction*
G04 #@! TA.AperFunction,SMDPad,CuDef*
G36*
G01*
X103750000Y-82975000D02*
X103750000Y-82200000D01*
G75*
G02*
X103800000Y-82150000I50000J0D01*
G01*
X103900000Y-82150000D01*
G75*
G02*
X103950000Y-82200000I0J-50000D01*
G01*
X103950000Y-82975000D01*
G75*
G02*
X103900000Y-83025000I-50000J0D01*
G01*
X103800000Y-83025000D01*
G75*
G02*
X103750000Y-82975000I0J50000D01*
G01*
G37*
G04 #@! TD.AperFunction*
G04 #@! TA.AperFunction,SMDPad,CuDef*
G36*
G01*
X103350000Y-82975000D02*
X103350000Y-82200000D01*
G75*
G02*
X103400000Y-82150000I50000J0D01*
G01*
X103500000Y-82150000D01*
G75*
G02*
X103550000Y-82200000I0J-50000D01*
G01*
X103550000Y-82975000D01*
G75*
G02*
X103500000Y-83025000I-50000J0D01*
G01*
X103400000Y-83025000D01*
G75*
G02*
X103350000Y-82975000I0J50000D01*
G01*
G37*
G04 #@! TD.AperFunction*
G04 #@! TA.AperFunction,SMDPad,CuDef*
G36*
G01*
X102950000Y-82975000D02*
X102950000Y-82200000D01*
G75*
G02*
X103000000Y-82150000I50000J0D01*
G01*
X103100000Y-82150000D01*
G75*
G02*
X103150000Y-82200000I0J-50000D01*
G01*
X103150000Y-82975000D01*
G75*
G02*
X103100000Y-83025000I-50000J0D01*
G01*
X103000000Y-83025000D01*
G75*
G02*
X102950000Y-82975000I0J50000D01*
G01*
G37*
G04 #@! TD.AperFunction*
G04 #@! TA.AperFunction,SMDPad,CuDef*
G36*
G01*
X102550000Y-82975000D02*
X102550000Y-82200000D01*
G75*
G02*
X102600000Y-82150000I50000J0D01*
G01*
X102700000Y-82150000D01*
G75*
G02*
X102750000Y-82200000I0J-50000D01*
G01*
X102750000Y-82975000D01*
G75*
G02*
X102700000Y-83025000I-50000J0D01*
G01*
X102600000Y-83025000D01*
G75*
G02*
X102550000Y-82975000I0J50000D01*
G01*
G37*
G04 #@! TD.AperFunction*
G04 #@! TA.AperFunction,SMDPad,CuDef*
G36*
G01*
X102150000Y-82975000D02*
X102150000Y-82200000D01*
G75*
G02*
X102200000Y-82150000I50000J0D01*
G01*
X102300000Y-82150000D01*
G75*
G02*
X102350000Y-82200000I0J-50000D01*
G01*
X102350000Y-82975000D01*
G75*
G02*
X102300000Y-83025000I-50000J0D01*
G01*
X102200000Y-83025000D01*
G75*
G02*
X102150000Y-82975000I0J50000D01*
G01*
G37*
G04 #@! TD.AperFunction*
G04 #@! TA.AperFunction,SMDPad,CuDef*
G36*
G01*
X101750000Y-82975000D02*
X101750000Y-82200000D01*
G75*
G02*
X101800000Y-82150000I50000J0D01*
G01*
X101900000Y-82150000D01*
G75*
G02*
X101950000Y-82200000I0J-50000D01*
G01*
X101950000Y-82975000D01*
G75*
G02*
X101900000Y-83025000I-50000J0D01*
G01*
X101800000Y-83025000D01*
G75*
G02*
X101750000Y-82975000I0J50000D01*
G01*
G37*
G04 #@! TD.AperFunction*
G04 #@! TA.AperFunction,SMDPad,CuDef*
G36*
G01*
X101350000Y-82975000D02*
X101350000Y-82200000D01*
G75*
G02*
X101400000Y-82150000I50000J0D01*
G01*
X101500000Y-82150000D01*
G75*
G02*
X101550000Y-82200000I0J-50000D01*
G01*
X101550000Y-82975000D01*
G75*
G02*
X101500000Y-83025000I-50000J0D01*
G01*
X101400000Y-83025000D01*
G75*
G02*
X101350000Y-82975000I0J50000D01*
G01*
G37*
G04 #@! TD.AperFunction*
G04 #@! TA.AperFunction,SMDPad,CuDef*
G36*
G01*
X100950000Y-82975000D02*
X100950000Y-82200000D01*
G75*
G02*
X101000000Y-82150000I50000J0D01*
G01*
X101100000Y-82150000D01*
G75*
G02*
X101150000Y-82200000I0J-50000D01*
G01*
X101150000Y-82975000D01*
G75*
G02*
X101100000Y-83025000I-50000J0D01*
G01*
X101000000Y-83025000D01*
G75*
G02*
X100950000Y-82975000I0J50000D01*
G01*
G37*
G04 #@! TD.AperFunction*
D13*
X101100000Y-106900000D03*
G04 #@! TA.AperFunction,ComponentPad*
G36*
G01*
X104065000Y-107750000D02*
X103215000Y-107750000D01*
G75*
G02*
X102790000Y-107325000I0J425000D01*
G01*
X102790000Y-106475000D01*
G75*
G02*
X103215000Y-106050000I425000J0D01*
G01*
X104065000Y-106050000D01*
G75*
G02*
X104490000Y-106475000I0J-425000D01*
G01*
X104490000Y-107325000D01*
G75*
G02*
X104065000Y-107750000I-425000J0D01*
G01*
G37*
G04 #@! TD.AperFunction*
X106180000Y-106900000D03*
D23*
X103330000Y-79125000D03*
X99057000Y-95000000D03*
X100450000Y-75625000D03*
D24*
X108500000Y-90125000D03*
X96600000Y-87325000D03*
X97291928Y-84725000D03*
X105103040Y-93639840D03*
X100200000Y-89575000D03*
X97725000Y-81875000D03*
D23*
X109990000Y-80895000D03*
X96960000Y-90265000D03*
X96240000Y-65125000D03*
X97680000Y-101425000D03*
X110190000Y-101905000D03*
X110310000Y-73665000D03*
X105750000Y-79725000D03*
X100800000Y-92225000D03*
X110800000Y-84785000D03*
X97625000Y-75675000D03*
D24*
X105065000Y-83725000D03*
X104270000Y-88125000D03*
X104284269Y-90880277D03*
D23*
X103440000Y-81440000D03*
X105450000Y-81900000D03*
D24*
X96700000Y-85335000D03*
X97816938Y-85719993D03*
X98410926Y-85262067D03*
X98660000Y-84525000D03*
X107600000Y-92225000D03*
X100262500Y-82362500D03*
D23*
X97902010Y-78075000D03*
X100800000Y-69099998D03*
X110225000Y-85424994D03*
X107040000Y-69035000D03*
X106150000Y-69300000D03*
X102850000Y-63450000D03*
X104334611Y-62965389D03*
X106600000Y-77175000D03*
X101125400Y-83490000D03*
X109060000Y-73685000D03*
D24*
X100925000Y-76725000D03*
D25*
X105200000Y-92455000D02*
X105200000Y-92700002D01*
X112590000Y-89205000D02*
X112568000Y-89205000D01*
X98120000Y-82650000D02*
X98120000Y-82270000D01*
X98120000Y-82270000D02*
X97725000Y-81875000D01*
X103690000Y-106925000D02*
X103690000Y-105867400D01*
X105735500Y-80434440D02*
X105732960Y-80436980D01*
X106726100Y-80434440D02*
X105735500Y-80434440D01*
X97000000Y-87725000D02*
X96600000Y-87325000D01*
X97410000Y-87725000D02*
X97000000Y-87725000D01*
D26*
X111964200Y-89205000D02*
X112550000Y-89205000D01*
X95900000Y-89205000D02*
X94750000Y-89205000D01*
X96960000Y-90265000D02*
X95900000Y-89205000D01*
D27*
X108855000Y-70050000D02*
X110175000Y-70050000D01*
D28*
X95490000Y-76505000D02*
X94750000Y-76505000D01*
X96050000Y-77065000D02*
X95490000Y-76505000D01*
D25*
X95830000Y-76505000D02*
X94750000Y-76505000D01*
X96050000Y-76725000D02*
X95830000Y-76505000D01*
X96050000Y-83058808D02*
X96050000Y-76725000D01*
X97291928Y-84300736D02*
X96050000Y-83058808D01*
X97291928Y-84725000D02*
X97291928Y-84300736D01*
D26*
X108680000Y-68620000D02*
X107475000Y-67415000D01*
X108680000Y-69035000D02*
X108680000Y-68620000D01*
X102640000Y-89462500D02*
X102640000Y-90310000D01*
X100800000Y-92150000D02*
X100800000Y-92225000D01*
X102640000Y-90310000D02*
X100800000Y-92150000D01*
X107970000Y-63705000D02*
X107970000Y-59525000D01*
X101048860Y-79448860D02*
X100500560Y-79448860D01*
D28*
X101166860Y-79448860D02*
X100500560Y-79448860D01*
X101250560Y-79532560D02*
X101166860Y-79448860D01*
X101250560Y-80736360D02*
X101250560Y-79532560D01*
D26*
X100800000Y-66712500D02*
X100375000Y-64620000D01*
X100800000Y-66737500D02*
X100800000Y-66712500D01*
D25*
X97475000Y-79360000D02*
X98610000Y-80495000D01*
X97475000Y-75825000D02*
X97475000Y-79360000D01*
X97575000Y-75725000D02*
X97475000Y-75825000D01*
X112590000Y-58725000D02*
X112590000Y-59435000D01*
D29*
X112530000Y-59035000D02*
X112530000Y-58725000D01*
D26*
X106250000Y-67505000D02*
X106250000Y-67025000D01*
X106100000Y-66875000D02*
X106100000Y-65120000D01*
X106250000Y-67025000D02*
X106100000Y-66875000D01*
D29*
X106100000Y-67355000D02*
X106250000Y-67505000D01*
X106100000Y-64620000D02*
X106100000Y-67355000D01*
D26*
X101200000Y-64050000D02*
X101200000Y-64620000D01*
X101475000Y-63380000D02*
X101200000Y-64050000D01*
X101475000Y-62825000D02*
X101475000Y-63380000D01*
X100875000Y-62225000D02*
X101475000Y-62825000D01*
X98760000Y-62225000D02*
X100875000Y-62225000D01*
X98178000Y-62807000D02*
X98760000Y-62225000D01*
X98178000Y-64658000D02*
X98178000Y-62807000D01*
D25*
X105000000Y-91695000D02*
X105000000Y-91596008D01*
D28*
X105000000Y-91596008D02*
X104284269Y-90880277D01*
D25*
X104290000Y-90874546D02*
X104284269Y-90880277D01*
D28*
X104240000Y-90824546D02*
X104290000Y-90874546D01*
X104240000Y-89462500D02*
X104240000Y-90824546D01*
D29*
X103440000Y-81440000D02*
X103250000Y-80780000D01*
D28*
X103450000Y-81450000D02*
X103440000Y-81440000D01*
X103450000Y-82527500D02*
X103450000Y-81450000D01*
X105450000Y-82587500D02*
X105450000Y-81900000D01*
X98980000Y-74625000D02*
X100190000Y-74625000D01*
X98687000Y-74918000D02*
X98980000Y-74625000D01*
X98687000Y-76190100D02*
X98687000Y-74918000D01*
D25*
X95925000Y-105790000D02*
X94690000Y-107025000D01*
X96525019Y-96302815D02*
X96525019Y-103074259D01*
X96850028Y-95977804D02*
X96525019Y-96302815D01*
X96850028Y-93873528D02*
X96850028Y-95977804D01*
X99498536Y-91225020D02*
X96850028Y-93873528D01*
X95925000Y-103674278D02*
X95925000Y-105790000D01*
X101233484Y-91225020D02*
X99498536Y-91225020D01*
X96525019Y-103074259D02*
X95925000Y-103674278D01*
X102240000Y-90218504D02*
X101233484Y-91225020D01*
X102240000Y-89512500D02*
X102240000Y-90218504D01*
X96225010Y-96178546D02*
X96225010Y-102949990D01*
X96550020Y-93749258D02*
X96550019Y-95853537D01*
X96225010Y-102949990D02*
X94690000Y-104485000D01*
X101141742Y-90925010D02*
X99374268Y-90925010D01*
X96550019Y-95853537D02*
X96225010Y-96178546D01*
X101840000Y-90226752D02*
X101141742Y-90925010D01*
X99374268Y-90925010D02*
X96550020Y-93749258D01*
X101840000Y-89512500D02*
X101840000Y-90226752D01*
X101050000Y-90625000D02*
X101440000Y-90235000D01*
X101440000Y-90235000D02*
X101440000Y-89512500D01*
X99250000Y-90625000D02*
X101050000Y-90625000D01*
X96250010Y-93624990D02*
X99250000Y-90625000D01*
X96250010Y-95729268D02*
X96250010Y-93624990D01*
X95925000Y-96054278D02*
X96250010Y-95729268D01*
X95925000Y-98170000D02*
X95925000Y-96054278D01*
X94690000Y-99405000D02*
X95925000Y-98170000D01*
X100177500Y-90325000D02*
X101040000Y-89462500D01*
X99114278Y-90325000D02*
X100177500Y-90325000D01*
X95950000Y-93489278D02*
X99114278Y-90325000D01*
X95950000Y-95605000D02*
X95950000Y-93489278D01*
X94690000Y-96865000D02*
X95950000Y-95605000D01*
X100252500Y-88762500D02*
X94690000Y-94325000D01*
X100252500Y-88625000D02*
X100252500Y-88762500D01*
X99300000Y-89225000D02*
X96740000Y-91785000D01*
X96740000Y-91785000D02*
X94690000Y-91785000D01*
X99300000Y-88550000D02*
X99300000Y-89225000D01*
X99625000Y-88225000D02*
X99300000Y-88550000D01*
X100252500Y-88225000D02*
X99625000Y-88225000D01*
X96710000Y-88725000D02*
X94690000Y-86705000D01*
X98692861Y-88725000D02*
X96710000Y-88725000D01*
X99592861Y-87825000D02*
X98692861Y-88725000D01*
X100252500Y-87825000D02*
X99592861Y-87825000D01*
X95874988Y-85349988D02*
X94690000Y-84165000D01*
X95874988Y-87465710D02*
X95874988Y-85349988D01*
X96834278Y-88425000D02*
X95874988Y-87465710D01*
X98560000Y-88425000D02*
X96834278Y-88425000D01*
X99560000Y-87425000D02*
X98560000Y-88425000D01*
X100252500Y-87425000D02*
X99560000Y-87425000D01*
X95539999Y-83137833D02*
X95539999Y-82474999D01*
X95539999Y-82474999D02*
X94690000Y-81625000D01*
X96174999Y-83772833D02*
X95539999Y-83137833D01*
X96174999Y-85919999D02*
X96174999Y-83772833D01*
X96880000Y-86625000D02*
X96174999Y-85919999D01*
X100252500Y-86625000D02*
X96880000Y-86625000D01*
X96700000Y-86020722D02*
X96700000Y-85335000D01*
X96950783Y-86271505D02*
X96700000Y-86020722D01*
X100205995Y-86271505D02*
X96950783Y-86271505D01*
X100252500Y-86225000D02*
X100205995Y-86271505D01*
X100252500Y-85825000D02*
X97921945Y-85825000D01*
X97921945Y-85825000D02*
X97816938Y-85719993D01*
X100252500Y-85425000D02*
X98573859Y-85425000D01*
X98573859Y-85425000D02*
X98410926Y-85262067D01*
X100252500Y-85025000D02*
X99160000Y-85025000D01*
X99160000Y-85025000D02*
X98660000Y-84525000D01*
X99525722Y-84625000D02*
X98830720Y-83929998D01*
X100252500Y-84625000D02*
X99525722Y-84625000D01*
X98830720Y-83929998D02*
X97405720Y-83929998D01*
X97405720Y-83929998D02*
X96474970Y-82999248D01*
X96474970Y-82999248D02*
X96474970Y-68169970D01*
X96474970Y-68169970D02*
X94690000Y-66385000D01*
X96774980Y-63389980D02*
X94690000Y-61305000D01*
X96774981Y-82849259D02*
X96774980Y-63389980D01*
X97555709Y-83629987D02*
X96774981Y-82849259D01*
X98954987Y-83629987D02*
X97555709Y-83629987D01*
X99550000Y-84225000D02*
X98954987Y-83629987D01*
X100252500Y-84225000D02*
X99550000Y-84225000D01*
X97074990Y-61149990D02*
X94690000Y-58765000D01*
X97074990Y-82724990D02*
X97074990Y-61149990D01*
X97600000Y-83250000D02*
X97074990Y-82724990D01*
X99590000Y-83825000D02*
X99015000Y-83250000D01*
X99015000Y-83250000D02*
X97600000Y-83250000D01*
X100252500Y-83825000D02*
X99590000Y-83825000D01*
X107127500Y-84225000D02*
X107751444Y-84225000D01*
X107751444Y-84225000D02*
X107951454Y-84024990D01*
X107951454Y-84024990D02*
X109225732Y-84024990D01*
X112510000Y-73965000D02*
X112530000Y-73965000D01*
X111250000Y-75225000D02*
X112510000Y-73965000D01*
X111250000Y-80650722D02*
X111250000Y-75225000D01*
X109225732Y-84024990D02*
X110157861Y-83092861D01*
X110157861Y-83092861D02*
X110449990Y-82800732D01*
X110979990Y-80920732D02*
X111250000Y-80650722D01*
X110979990Y-82270732D02*
X110979990Y-80920732D01*
X110157861Y-83092861D02*
X110979990Y-82270732D01*
X111605000Y-80030000D02*
X112590000Y-79045000D01*
X111605000Y-80720000D02*
X111605000Y-80030000D01*
X111280000Y-82395000D02*
X111280000Y-81045000D01*
X111280000Y-81045000D02*
X111605000Y-80720000D01*
X108800020Y-84325000D02*
X109350000Y-84325000D01*
X109350000Y-84325000D02*
X111280000Y-82395000D01*
X108800010Y-84324990D02*
X108800020Y-84325000D01*
X108075732Y-84324990D02*
X108800010Y-84324990D01*
X107775722Y-84625000D02*
X108075732Y-84324990D01*
X107127500Y-84625000D02*
X107775722Y-84625000D01*
X107127500Y-85025000D02*
X107800000Y-85025000D01*
X107800000Y-85025000D02*
X108200000Y-84625000D01*
X109490000Y-84625000D02*
X112530000Y-81585000D01*
X108200000Y-84625000D02*
X109490000Y-84625000D01*
X108450000Y-85425000D02*
X107127500Y-85425000D01*
X112550000Y-86625000D02*
X112590000Y-86665000D01*
D28*
X107127500Y-86625000D02*
X112550000Y-86625000D01*
D25*
X111000000Y-90155000D02*
X112590000Y-91745000D01*
X109104998Y-87425000D02*
X111000000Y-89320002D01*
X111000000Y-89320002D02*
X111000000Y-90155000D01*
X107127500Y-87425000D02*
X109104998Y-87425000D01*
X109080720Y-87825000D02*
X107127500Y-87825000D01*
X110699990Y-89444270D02*
X109080720Y-87825000D01*
X110699990Y-90279268D02*
X110699990Y-89444270D01*
X111300000Y-90879278D02*
X110699990Y-90279268D01*
X111300000Y-92995000D02*
X111300000Y-90879278D01*
X112590000Y-94285000D02*
X111300000Y-92995000D01*
X107678406Y-88225000D02*
X107127500Y-88225000D01*
X107678426Y-88225020D02*
X107678406Y-88225000D01*
X109056462Y-88225020D02*
X107678426Y-88225020D01*
X110399980Y-89568538D02*
X109056462Y-88225020D01*
X110399981Y-90403537D02*
X110399980Y-89568538D01*
X110999990Y-91003546D02*
X110399981Y-90403537D01*
X110999990Y-94424990D02*
X110999990Y-91003546D01*
X112590000Y-96015000D02*
X110999990Y-94424990D01*
X112590000Y-96825000D02*
X112590000Y-96015000D01*
X107127500Y-88625000D02*
X109032164Y-88625000D01*
X110099972Y-89692808D02*
X110099972Y-90527806D01*
X109032164Y-88625000D02*
X110099972Y-89692808D01*
X110099972Y-90527806D02*
X110699980Y-91127814D01*
X110699980Y-91127814D02*
X110699981Y-94549259D01*
X110699981Y-94549259D02*
X111300000Y-95149278D01*
X111300000Y-98075000D02*
X112590000Y-99365000D01*
X111300000Y-95149278D02*
X111300000Y-98075000D01*
X106250000Y-90225000D02*
X106250000Y-89502500D01*
X107277084Y-91252084D02*
X106250000Y-90225000D01*
X109327084Y-91252084D02*
X107277084Y-91252084D01*
X110399972Y-94673526D02*
X110399972Y-92324972D01*
X110999990Y-95273546D02*
X110399972Y-94673526D01*
X110999990Y-98199268D02*
X110999990Y-95273546D01*
X111300000Y-98499278D02*
X110999990Y-98199268D01*
X111300000Y-103155000D02*
X111300000Y-98499278D01*
X110399972Y-92324972D02*
X109327084Y-91252084D01*
X112590000Y-104445000D02*
X111300000Y-103155000D01*
X105850000Y-90349744D02*
X105850000Y-89502500D01*
X110999990Y-103279268D02*
X110999990Y-98623546D01*
X110099962Y-94824962D02*
X110099962Y-92449240D01*
X110099962Y-92449240D02*
X109202816Y-91552094D01*
X112590000Y-106215000D02*
X111300000Y-104925000D01*
X109202816Y-91552094D02*
X107052350Y-91552094D01*
X107052350Y-91552094D02*
X105850000Y-90349744D01*
X110699981Y-98323537D02*
X110699980Y-95424980D01*
X111300000Y-104925000D02*
X111300000Y-103579278D01*
X112590000Y-106985000D02*
X112590000Y-106215000D01*
X110999990Y-98623546D02*
X110699981Y-98323537D01*
X110699980Y-95424980D02*
X110099962Y-94824962D01*
X111300000Y-103579278D02*
X110999990Y-103279268D01*
X107600000Y-92225000D02*
X107700000Y-92225000D01*
D28*
X107650000Y-92275000D02*
X107600000Y-92225000D01*
D26*
X107450000Y-92375000D02*
X107600000Y-92225000D01*
D25*
X105440000Y-90331496D02*
X107333504Y-92225000D01*
X107333504Y-92225000D02*
X107600000Y-92225000D01*
X105440000Y-89512500D02*
X105440000Y-90331496D01*
X107600000Y-92675000D02*
X107200000Y-93075000D01*
X107600000Y-92225000D02*
X107600000Y-92675000D01*
X105040000Y-89512500D02*
X105040000Y-90323248D01*
D26*
X105154010Y-95030214D02*
X105154010Y-106379010D01*
X105700000Y-106925000D02*
X106230000Y-106925000D01*
X105154010Y-106379010D02*
X105700000Y-106925000D01*
X105154010Y-95030214D02*
X105965510Y-94218714D01*
X105965510Y-91248758D02*
X105770876Y-91054124D01*
X105965510Y-94218714D02*
X105965510Y-91248758D01*
D25*
X105040000Y-90323248D02*
X105770876Y-91054124D01*
X104640000Y-90315000D02*
X104640000Y-89462500D01*
X105700000Y-91375000D02*
X104640000Y-90315000D01*
X101150000Y-105575000D02*
X101600000Y-105125000D01*
X101150000Y-106925000D02*
X101150000Y-105575000D01*
D26*
X105700000Y-94075000D02*
X105700000Y-94125000D01*
D25*
X105700000Y-94075000D02*
X105700000Y-91375000D01*
D26*
X105700000Y-94125000D02*
X104900000Y-94925000D01*
X104900000Y-102125000D02*
X101900000Y-105125000D01*
X104900000Y-94925000D02*
X104900000Y-102125000D01*
D25*
X101600000Y-105125000D02*
X101900000Y-105125000D01*
X100487500Y-82587500D02*
X100262500Y-82362500D01*
X101040000Y-82587500D02*
X100487500Y-82587500D01*
D26*
X98550000Y-77287100D02*
X98687000Y-77150100D01*
X98550000Y-78070000D02*
X98550000Y-77287100D01*
D25*
X100262500Y-82362500D02*
X99750560Y-81850560D01*
X99750560Y-81850560D02*
X99750560Y-80736360D01*
X100262500Y-82362500D02*
X100237500Y-82362500D01*
X98545000Y-78075000D02*
X97902010Y-78075000D01*
X98550000Y-78070000D02*
X98545000Y-78075000D01*
X104640000Y-82537500D02*
X104640000Y-81340000D01*
X104640000Y-81340000D02*
X104850000Y-80900000D01*
X104850000Y-80900000D02*
X104850000Y-79375000D01*
X104850000Y-79375000D02*
X104418960Y-78943960D01*
X104418960Y-78943960D02*
X104384760Y-78943960D01*
X105300000Y-78910000D02*
X105334760Y-78943960D01*
X105134000Y-79756000D02*
X105300000Y-78910000D01*
X105134000Y-81153492D02*
X105134000Y-79756000D01*
X105047988Y-81239504D02*
X105134000Y-81153492D01*
X105047988Y-82445488D02*
X105047988Y-81239504D01*
X105050000Y-82447500D02*
X105047988Y-82445488D01*
X101658161Y-77247989D02*
X100901431Y-77247989D01*
X100901431Y-77247989D02*
X100250560Y-77898860D01*
X102570000Y-81251600D02*
X102570000Y-78159828D01*
X100250560Y-77898860D02*
X100250560Y-78161360D01*
X102570000Y-78159828D02*
X101658161Y-77247989D01*
X103040000Y-81721600D02*
X102570000Y-81251600D01*
X103040000Y-82537500D02*
X103040000Y-81721600D01*
X101124420Y-77525000D02*
X100750560Y-77898860D01*
X101543420Y-77525000D02*
X101124420Y-77525000D01*
X102227989Y-78209569D02*
X101543420Y-77525000D01*
X102640000Y-81713352D02*
X102227989Y-81301341D01*
X102227989Y-81301341D02*
X102227989Y-78209569D01*
X100750560Y-77898860D02*
X100750560Y-78161360D01*
X102640000Y-82537500D02*
X102640000Y-81713352D01*
X101636360Y-78161360D02*
X101250560Y-78161360D01*
X101870000Y-78395000D02*
X101636360Y-78161360D01*
X101870000Y-81400156D02*
X101870000Y-78395000D01*
X102240000Y-81770156D02*
X101870000Y-81400156D01*
X102240000Y-82377000D02*
X102240000Y-81770156D01*
X100750560Y-81250560D02*
X100750560Y-80736360D01*
X100975000Y-81475000D02*
X100750560Y-81250560D01*
X101375000Y-81475000D02*
X100975000Y-81475000D01*
X101840000Y-81940000D02*
X101375000Y-81475000D01*
X101840000Y-82587500D02*
X101840000Y-81940000D01*
X100250560Y-81350560D02*
X100250560Y-80736360D01*
X100700000Y-81800000D02*
X100250560Y-81350560D01*
X101250000Y-81800000D02*
X100700000Y-81800000D01*
X101440000Y-81990000D02*
X101250000Y-81800000D01*
X101440000Y-82587500D02*
X101440000Y-81990000D01*
D26*
X100800000Y-69099998D02*
X100800000Y-68312500D01*
X109434994Y-85424994D02*
X110225000Y-85424994D01*
X109410000Y-85400000D02*
X109434994Y-85424994D01*
D28*
X101900000Y-66765000D02*
X102150000Y-67015000D01*
X101900000Y-64620000D02*
X101900000Y-66765000D01*
X104900000Y-66765000D02*
X105150000Y-67015000D01*
X104900000Y-64620000D02*
X104900000Y-66765000D01*
D25*
X112530000Y-66945000D02*
X112530000Y-66345000D01*
D26*
X107040000Y-69035000D02*
X107730000Y-69035000D01*
X106150000Y-68560000D02*
X106200000Y-68510000D01*
X106150000Y-69300000D02*
X106150000Y-68560000D01*
D30*
X102900000Y-66922090D02*
X102900000Y-64920000D01*
D25*
X103029910Y-67052000D02*
X102900000Y-66922090D01*
D31*
X103029910Y-68350000D02*
X103029910Y-67052000D01*
X104275000Y-77865000D02*
X103029910Y-68350000D01*
X104300000Y-77890000D02*
X104275000Y-77865000D01*
D25*
X102900000Y-63400000D02*
X102900000Y-63425000D01*
X102900000Y-63500000D02*
X102850000Y-63450000D01*
X102900000Y-64920000D02*
X102900000Y-63500000D01*
X102900000Y-63425000D02*
X102875000Y-63450000D01*
X102875000Y-63450000D02*
X102850000Y-63450000D01*
X103900000Y-64045000D02*
X103900000Y-64920000D01*
X103614000Y-63759000D02*
X103900000Y-64045000D01*
X103216000Y-63759000D02*
X103614000Y-63759000D01*
X102900000Y-64075000D02*
X103216000Y-63759000D01*
X102900000Y-64920000D02*
X102900000Y-64075000D01*
D30*
X104400000Y-65795000D02*
X104400000Y-64920000D01*
D25*
X104400000Y-64920000D02*
X104400000Y-63000000D01*
D30*
X104079910Y-66115090D02*
X104335000Y-65860000D01*
X104079910Y-67052000D02*
X104079910Y-66115090D01*
D25*
X104335000Y-65860000D02*
X104400000Y-65795000D01*
X104020000Y-66175000D02*
X104335000Y-65860000D01*
D30*
X103600000Y-66175000D02*
X104020000Y-66175000D01*
X103400000Y-65975000D02*
X103600000Y-66175000D01*
X103400000Y-64920000D02*
X103400000Y-65975000D01*
D31*
X104079910Y-68250000D02*
X104079910Y-67052000D01*
X105325000Y-77865000D02*
X104079910Y-68250000D01*
X105300000Y-77890000D02*
X105325000Y-77865000D01*
D25*
X113188988Y-71735010D02*
X113939990Y-71735010D01*
D26*
X106523640Y-76125000D02*
X106621000Y-76222360D01*
X106500000Y-76125000D02*
X106523640Y-76125000D01*
X106621000Y-76246000D02*
X106500000Y-76125000D01*
D29*
X106600000Y-76225000D02*
X106500000Y-76125000D01*
X106600000Y-77790000D02*
X106600000Y-76225000D01*
D32*
X109630000Y-69035000D02*
X109630000Y-67565000D01*
D28*
X100252500Y-87025000D02*
X101015000Y-87025000D01*
X107127500Y-87025000D02*
X105940000Y-87025000D01*
X103915000Y-88725000D02*
X105318000Y-88725000D01*
X103915000Y-88725000D02*
X102828000Y-88725000D01*
D25*
X100252500Y-83425000D02*
X101025000Y-83425000D01*
X100252500Y-83425000D02*
X100252500Y-83252500D01*
X100252500Y-83252500D02*
X100112500Y-83112500D01*
X100112500Y-83112500D02*
X100050000Y-83050000D01*
X99725000Y-82725000D02*
X99155000Y-82725000D01*
X99155000Y-82725000D02*
X99080000Y-82650000D01*
X100112500Y-83112500D02*
X99725000Y-82725000D01*
X106443680Y-82741180D02*
X107127500Y-83425000D01*
D30*
X106726100Y-82151400D02*
X106290000Y-82587500D01*
X106726100Y-81394440D02*
X106726100Y-82151400D01*
D32*
X106726100Y-82458760D02*
X106443680Y-82741180D01*
X106726100Y-81394440D02*
X106726100Y-82458760D01*
D25*
X106290000Y-82587500D02*
X106443680Y-82741180D01*
X99750560Y-77177340D02*
X99720780Y-77147560D01*
X99750560Y-77705720D02*
X99750560Y-77177340D01*
X99750560Y-77625840D02*
X99750560Y-77705720D01*
X99750560Y-77705720D02*
X99750560Y-78161360D01*
D30*
X99750560Y-78161360D02*
X99750560Y-77147560D01*
D28*
X100252500Y-83425000D02*
X101125400Y-83425000D01*
X99070000Y-87025000D02*
X98370000Y-87725000D01*
X100252500Y-87025000D02*
X99070000Y-87025000D01*
D26*
X103911000Y-91695400D02*
X103793768Y-91578168D01*
D28*
X109780000Y-87025000D02*
X110130000Y-87375000D01*
X108178300Y-87025000D02*
X109780000Y-87025000D01*
X109654160Y-87025000D02*
X109654840Y-87025680D01*
X107127500Y-87025000D02*
X109654160Y-87025000D01*
X103840000Y-88800000D02*
X103915000Y-88725000D01*
X103840000Y-89412500D02*
X103840000Y-88800000D01*
X99080000Y-81925000D02*
X98610000Y-81455000D01*
X99080000Y-82650000D02*
X99080000Y-81925000D01*
D26*
X106621000Y-78902600D02*
X107550000Y-78902600D01*
X106621000Y-74572400D02*
X107550000Y-74572400D01*
D28*
X103840000Y-90522463D02*
X103840000Y-89462500D01*
X103720000Y-90642463D02*
X103840000Y-90522463D01*
X103720000Y-91504400D02*
X103720000Y-90642463D01*
X103911000Y-91695400D02*
X103720000Y-91504400D01*
D25*
X100502440Y-77147560D02*
X100925000Y-76725000D01*
X99720780Y-77147560D02*
X100502440Y-77147560D01*
X99720780Y-77229220D02*
X99720780Y-77147560D01*
X99175000Y-77775000D02*
X99720780Y-77229220D01*
X99175000Y-78700000D02*
X99175000Y-77775000D01*
X98845000Y-79030000D02*
X99175000Y-78700000D01*
X98550000Y-79030000D02*
X98845000Y-79030000D01*
D28*
X103850000Y-81670000D02*
X103850000Y-82587500D01*
X104200000Y-81320000D02*
X103850000Y-81670000D01*
X104250000Y-80830000D02*
X104200000Y-80780000D01*
X104250000Y-82587500D02*
X104250000Y-80830000D01*
X100115000Y-96700000D02*
X100400000Y-96415000D01*
D26*
X101555000Y-95595000D02*
X100450000Y-96700000D01*
X102445510Y-91043650D02*
X102445510Y-92054490D01*
X103040000Y-90449160D02*
X102445510Y-91043650D01*
X102445510Y-92054490D02*
X101555000Y-92945000D01*
X103040000Y-89462500D02*
X103040000Y-90449160D01*
X101550000Y-93600000D02*
X101555000Y-93605000D01*
X101480000Y-93600000D02*
X101550000Y-93600000D01*
X101555000Y-93605000D02*
X101555000Y-95595000D01*
X101555000Y-92945000D02*
X101555000Y-93605000D01*
X103440000Y-90460000D02*
X103440000Y-89462500D01*
X103050000Y-90850000D02*
X103440000Y-90460000D01*
X103050000Y-93625000D02*
X103050000Y-90850000D01*
X104100000Y-94845000D02*
X104100000Y-93715000D01*
X104100000Y-93715000D02*
X104010000Y-93625000D01*
X103945000Y-95000000D02*
X104100000Y-94845000D01*
X102650000Y-95000000D02*
X103945000Y-95000000D01*
X106255000Y-71235000D02*
X106250000Y-71230000D01*
D29*
X107730000Y-71235000D02*
X106255000Y-71235000D01*
D26*
X99120000Y-66620000D02*
X98178000Y-65678000D01*
X99120000Y-66747500D02*
X99120000Y-66620000D01*
X105526500Y-84211500D02*
X101890000Y-84211500D01*
X101877612Y-84212720D01*
X101865700Y-84216334D01*
X101854721Y-84222202D01*
X101845099Y-84230099D01*
X101837202Y-84239721D01*
X101831334Y-84250700D01*
X101827720Y-84262612D01*
X101826500Y-84275000D01*
X101826500Y-87775000D01*
X101827720Y-87787388D01*
X101831334Y-87799300D01*
X101837202Y-87810279D01*
X101845099Y-87819901D01*
X101854721Y-87827798D01*
X101865700Y-87833666D01*
X101877612Y-87837280D01*
X101890000Y-87838500D01*
X104551500Y-87838500D01*
X104551500Y-88386500D01*
X104003500Y-88386500D01*
X104003500Y-88175000D01*
X104002280Y-88162612D01*
X103998666Y-88150700D01*
X103992798Y-88139721D01*
X103984901Y-88130099D01*
X103975279Y-88122202D01*
X103964300Y-88116334D01*
X103952388Y-88112720D01*
X103940000Y-88111500D01*
X101503500Y-88111500D01*
X101503500Y-83863500D01*
X104440000Y-83863500D01*
X104452388Y-83862280D01*
X104464300Y-83858666D01*
X104475279Y-83852798D01*
X104484901Y-83844901D01*
X104492798Y-83835279D01*
X104498666Y-83824300D01*
X104502280Y-83812388D01*
X104503500Y-83800000D01*
X104503500Y-83238500D01*
X105290000Y-83238500D01*
X105302388Y-83237280D01*
X105314300Y-83233666D01*
X105325279Y-83227798D01*
X105334901Y-83219901D01*
X105342798Y-83210279D01*
X105348666Y-83199300D01*
X105352280Y-83187388D01*
X105353500Y-83175000D01*
X105353500Y-82163500D01*
X105526500Y-82163500D01*
X105526500Y-84211500D01*
G04 #@! TA.AperFunction,Conductor*
D33*
G36*
X105526500Y-84211500D02*
G01*
X101890000Y-84211500D01*
X101877612Y-84212720D01*
X101865700Y-84216334D01*
X101854721Y-84222202D01*
X101845099Y-84230099D01*
X101837202Y-84239721D01*
X101831334Y-84250700D01*
X101827720Y-84262612D01*
X101826500Y-84275000D01*
X101826500Y-87775000D01*
X101827720Y-87787388D01*
X101831334Y-87799300D01*
X101837202Y-87810279D01*
X101845099Y-87819901D01*
X101854721Y-87827798D01*
X101865700Y-87833666D01*
X101877612Y-87837280D01*
X101890000Y-87838500D01*
X104551500Y-87838500D01*
X104551500Y-88386500D01*
X104003500Y-88386500D01*
X104003500Y-88175000D01*
X104002280Y-88162612D01*
X103998666Y-88150700D01*
X103992798Y-88139721D01*
X103984901Y-88130099D01*
X103975279Y-88122202D01*
X103964300Y-88116334D01*
X103952388Y-88112720D01*
X103940000Y-88111500D01*
X101503500Y-88111500D01*
X101503500Y-83863500D01*
X104440000Y-83863500D01*
X104452388Y-83862280D01*
X104464300Y-83858666D01*
X104475279Y-83852798D01*
X104484901Y-83844901D01*
X104492798Y-83835279D01*
X104498666Y-83824300D01*
X104502280Y-83812388D01*
X104503500Y-83800000D01*
X104503500Y-83238500D01*
X105290000Y-83238500D01*
X105302388Y-83237280D01*
X105314300Y-83233666D01*
X105325279Y-83227798D01*
X105334901Y-83219901D01*
X105342798Y-83210279D01*
X105348666Y-83199300D01*
X105352280Y-83187388D01*
X105353500Y-83175000D01*
X105353500Y-82163500D01*
X105526500Y-82163500D01*
X105526500Y-84211500D01*
G37*
G04 #@! TD.AperFunction*
D34*
X113998001Y-62133202D02*
X110900461Y-62129415D01*
X110875663Y-62131829D01*
X110779898Y-62150771D01*
X110756066Y-62157972D01*
X110734064Y-62169706D01*
X110652854Y-62223879D01*
X110633597Y-62239659D01*
X110617767Y-62258924D01*
X110563495Y-62340067D01*
X110551749Y-62362018D01*
X110544503Y-62385878D01*
X110525444Y-62481620D01*
X110523000Y-62506415D01*
X110523000Y-67862491D01*
X110511338Y-67921119D01*
X110485215Y-67960215D01*
X110446119Y-67986338D01*
X110387491Y-67998000D01*
X108709598Y-67998000D01*
X108673837Y-67990876D01*
X108581190Y-67898230D01*
X108574098Y-67862189D01*
X108576386Y-66887201D01*
X108588151Y-66828682D01*
X108614294Y-66789680D01*
X108653359Y-66763627D01*
X108711904Y-66752000D01*
X108715600Y-66752000D01*
X108740376Y-66749560D01*
X108836047Y-66730530D01*
X108859872Y-66723303D01*
X108881828Y-66711567D01*
X108962934Y-66657374D01*
X108982179Y-66641580D01*
X108997974Y-66622334D01*
X109052167Y-66541228D01*
X109063903Y-66519271D01*
X109071130Y-66495447D01*
X109090160Y-66399776D01*
X109092600Y-66375000D01*
X109092600Y-60966886D01*
X109104238Y-60908315D01*
X109129912Y-60869840D01*
X110908087Y-60869840D01*
X110981281Y-60862666D01*
X111076509Y-60843819D01*
X111144154Y-60823441D01*
X111226262Y-60807198D01*
X111250093Y-60799995D01*
X111271494Y-60788659D01*
X111351846Y-60735711D01*
X111370949Y-60720279D01*
X111780304Y-60318300D01*
X111829669Y-60285800D01*
X111887670Y-60274400D01*
X113998001Y-60274400D01*
X113998001Y-62133202D01*
G04 #@! TA.AperFunction,Conductor*
D33*
G36*
X113998001Y-62133202D02*
G01*
X110900461Y-62129415D01*
X110875663Y-62131829D01*
X110779898Y-62150771D01*
X110756066Y-62157972D01*
X110734064Y-62169706D01*
X110652854Y-62223879D01*
X110633597Y-62239659D01*
X110617767Y-62258924D01*
X110563495Y-62340067D01*
X110551749Y-62362018D01*
X110544503Y-62385878D01*
X110525444Y-62481620D01*
X110523000Y-62506415D01*
X110523000Y-67862491D01*
X110511338Y-67921119D01*
X110485215Y-67960215D01*
X110446119Y-67986338D01*
X110387491Y-67998000D01*
X108709598Y-67998000D01*
X108673837Y-67990876D01*
X108581190Y-67898230D01*
X108574098Y-67862189D01*
X108576386Y-66887201D01*
X108588151Y-66828682D01*
X108614294Y-66789680D01*
X108653359Y-66763627D01*
X108711904Y-66752000D01*
X108715600Y-66752000D01*
X108740376Y-66749560D01*
X108836047Y-66730530D01*
X108859872Y-66723303D01*
X108881828Y-66711567D01*
X108962934Y-66657374D01*
X108982179Y-66641580D01*
X108997974Y-66622334D01*
X109052167Y-66541228D01*
X109063903Y-66519271D01*
X109071130Y-66495447D01*
X109090160Y-66399776D01*
X109092600Y-66375000D01*
X109092600Y-60966886D01*
X109104238Y-60908315D01*
X109129912Y-60869840D01*
X110908087Y-60869840D01*
X110981281Y-60862666D01*
X111076509Y-60843819D01*
X111144154Y-60823441D01*
X111226262Y-60807198D01*
X111250093Y-60799995D01*
X111271494Y-60788659D01*
X111351846Y-60735711D01*
X111370949Y-60720279D01*
X111780304Y-60318300D01*
X111829669Y-60285800D01*
X111887670Y-60274400D01*
X113998001Y-60274400D01*
X113998001Y-62133202D01*
G37*
G04 #@! TD.AperFunction*
D26*
X113931056Y-57568168D02*
X113960923Y-57577186D01*
X113988476Y-57591836D01*
X114012654Y-57611556D01*
X114032545Y-57635599D01*
X114047384Y-57663043D01*
X114056611Y-57692852D01*
X114061501Y-57739376D01*
X114061501Y-59768940D01*
X111779553Y-59768940D01*
X111767225Y-59770148D01*
X111671997Y-59788995D01*
X111660081Y-59792597D01*
X111649198Y-59798387D01*
X111568328Y-59852087D01*
X111558726Y-59859914D01*
X111043875Y-60370835D01*
X110978657Y-60414141D01*
X110901863Y-60429340D01*
X108727784Y-60429340D01*
X108771729Y-60284474D01*
X108783500Y-60164962D01*
X108783500Y-59485038D01*
X108771729Y-59365526D01*
X108725212Y-59212181D01*
X108649673Y-59070857D01*
X108548015Y-58946985D01*
X108424143Y-58845327D01*
X108282819Y-58769788D01*
X108129474Y-58723271D01*
X107970000Y-58707564D01*
X107810527Y-58723271D01*
X107657182Y-58769788D01*
X107515858Y-58845327D01*
X107391986Y-58946985D01*
X107290328Y-59070857D01*
X107214788Y-59212181D01*
X107168271Y-59365526D01*
X107156500Y-59485038D01*
X107156500Y-60164961D01*
X107168271Y-60284473D01*
X107214788Y-60437818D01*
X107290327Y-60579142D01*
X107391985Y-60703015D01*
X107515857Y-60804673D01*
X107536500Y-60815707D01*
X107536500Y-61892665D01*
X107521154Y-61969815D01*
X107480996Y-62029916D01*
X107420895Y-62070074D01*
X107343745Y-62085420D01*
X106700000Y-62085420D01*
X106687612Y-62086640D01*
X106591941Y-62105670D01*
X106580029Y-62109284D01*
X106569050Y-62115152D01*
X106487944Y-62169345D01*
X106478322Y-62177242D01*
X106470425Y-62186864D01*
X106416232Y-62267970D01*
X106410364Y-62278949D01*
X106406750Y-62290861D01*
X106387720Y-62386532D01*
X106386500Y-62398920D01*
X106386500Y-62854525D01*
X106353757Y-62861038D01*
X106237557Y-62909169D01*
X106132980Y-62979045D01*
X106044045Y-63067980D01*
X105974169Y-63172557D01*
X105926038Y-63288757D01*
X105901500Y-63412113D01*
X105901500Y-63537887D01*
X105926038Y-63661243D01*
X105974169Y-63777443D01*
X106044045Y-63882020D01*
X106132980Y-63970955D01*
X106237557Y-64040831D01*
X106290263Y-64062662D01*
X106283963Y-64074449D01*
X106266037Y-64133543D01*
X106259984Y-64195000D01*
X106259984Y-65320026D01*
X106193034Y-65333113D01*
X106005538Y-65332409D01*
X105928621Y-65316847D01*
X105868754Y-65276641D01*
X105865016Y-65271030D01*
X105865016Y-64195000D01*
X105858963Y-64133543D01*
X105841037Y-64074449D01*
X105813500Y-64022931D01*
X105813500Y-63764440D01*
X105812154Y-63751437D01*
X105791188Y-63651221D01*
X105787457Y-63639345D01*
X105780764Y-63627396D01*
X105721384Y-63543988D01*
X105712746Y-63534176D01*
X105144079Y-63008769D01*
X105096305Y-62941746D01*
X105079313Y-62861213D01*
X105078254Y-62398203D01*
X105077009Y-62385835D01*
X105057815Y-62290340D01*
X105054178Y-62278435D01*
X105048308Y-62267499D01*
X104994077Y-62186587D01*
X104986166Y-62176976D01*
X104976562Y-62169112D01*
X104895526Y-62115066D01*
X104884543Y-62109208D01*
X104872663Y-62105612D01*
X104777124Y-62086637D01*
X104764754Y-62085420D01*
X103217196Y-62085420D01*
X103205106Y-62086581D01*
X103111652Y-62104705D01*
X103099723Y-62108262D01*
X103089226Y-62113744D01*
X103009322Y-62165489D01*
X102999805Y-62173036D01*
X101536469Y-63581347D01*
X101528216Y-63591066D01*
X101471531Y-63673317D01*
X101465506Y-63684210D01*
X101461597Y-63696665D01*
X101441640Y-63794544D01*
X101440360Y-63807230D01*
X101440360Y-64140417D01*
X101434984Y-64195000D01*
X101434984Y-65170892D01*
X101425014Y-65221015D01*
X101384856Y-65281116D01*
X101324755Y-65321274D01*
X101247605Y-65336620D01*
X101156255Y-65336620D01*
X101079105Y-65321274D01*
X101040016Y-65295156D01*
X101040016Y-64195000D01*
X101033963Y-64133543D01*
X101016037Y-64074449D01*
X101009737Y-64062662D01*
X101062443Y-64040831D01*
X101167020Y-63970955D01*
X101255955Y-63882020D01*
X101325831Y-63777443D01*
X101373962Y-63661243D01*
X101398500Y-63537887D01*
X101398500Y-63412113D01*
X101373962Y-63288757D01*
X101344768Y-63218277D01*
X101348377Y-63210280D01*
X101350755Y-63200957D01*
X101365741Y-63115702D01*
X101366700Y-63104709D01*
X101366700Y-62021197D01*
X101382992Y-61941811D01*
X101429235Y-61875259D01*
X105955521Y-57563500D01*
X113883442Y-57563500D01*
X113931056Y-57568168D01*
G04 #@! TA.AperFunction,Conductor*
D33*
G36*
X113931056Y-57568168D02*
G01*
X113960923Y-57577186D01*
X113988476Y-57591836D01*
X114012654Y-57611556D01*
X114032545Y-57635599D01*
X114047384Y-57663043D01*
X114056611Y-57692852D01*
X114061501Y-57739376D01*
X114061501Y-59768940D01*
X111779553Y-59768940D01*
X111767225Y-59770148D01*
X111671997Y-59788995D01*
X111660081Y-59792597D01*
X111649198Y-59798387D01*
X111568328Y-59852087D01*
X111558726Y-59859914D01*
X111043875Y-60370835D01*
X110978657Y-60414141D01*
X110901863Y-60429340D01*
X108727784Y-60429340D01*
X108771729Y-60284474D01*
X108783500Y-60164962D01*
X108783500Y-59485038D01*
X108771729Y-59365526D01*
X108725212Y-59212181D01*
X108649673Y-59070857D01*
X108548015Y-58946985D01*
X108424143Y-58845327D01*
X108282819Y-58769788D01*
X108129474Y-58723271D01*
X107970000Y-58707564D01*
X107810527Y-58723271D01*
X107657182Y-58769788D01*
X107515858Y-58845327D01*
X107391986Y-58946985D01*
X107290328Y-59070857D01*
X107214788Y-59212181D01*
X107168271Y-59365526D01*
X107156500Y-59485038D01*
X107156500Y-60164961D01*
X107168271Y-60284473D01*
X107214788Y-60437818D01*
X107290327Y-60579142D01*
X107391985Y-60703015D01*
X107515857Y-60804673D01*
X107536500Y-60815707D01*
X107536500Y-61892665D01*
X107521154Y-61969815D01*
X107480996Y-62029916D01*
X107420895Y-62070074D01*
X107343745Y-62085420D01*
X106700000Y-62085420D01*
X106687612Y-62086640D01*
X106591941Y-62105670D01*
X106580029Y-62109284D01*
X106569050Y-62115152D01*
X106487944Y-62169345D01*
X106478322Y-62177242D01*
X106470425Y-62186864D01*
X106416232Y-62267970D01*
X106410364Y-62278949D01*
X106406750Y-62290861D01*
X106387720Y-62386532D01*
X106386500Y-62398920D01*
X106386500Y-62854525D01*
X106353757Y-62861038D01*
X106237557Y-62909169D01*
X106132980Y-62979045D01*
X106044045Y-63067980D01*
X105974169Y-63172557D01*
X105926038Y-63288757D01*
X105901500Y-63412113D01*
X105901500Y-63537887D01*
X105926038Y-63661243D01*
X105974169Y-63777443D01*
X106044045Y-63882020D01*
X106132980Y-63970955D01*
X106237557Y-64040831D01*
X106290263Y-64062662D01*
X106283963Y-64074449D01*
X106266037Y-64133543D01*
X106259984Y-64195000D01*
X106259984Y-65320026D01*
X106193034Y-65333113D01*
X106005538Y-65332409D01*
X105928621Y-65316847D01*
X105868754Y-65276641D01*
X105865016Y-65271030D01*
X105865016Y-64195000D01*
X105858963Y-64133543D01*
X105841037Y-64074449D01*
X105813500Y-64022931D01*
X105813500Y-63764440D01*
X105812154Y-63751437D01*
X105791188Y-63651221D01*
X105787457Y-63639345D01*
X105780764Y-63627396D01*
X105721384Y-63543988D01*
X105712746Y-63534176D01*
X105144079Y-63008769D01*
X105096305Y-62941746D01*
X105079313Y-62861213D01*
X105078254Y-62398203D01*
X105077009Y-62385835D01*
X105057815Y-62290340D01*
X105054178Y-62278435D01*
X105048308Y-62267499D01*
X104994077Y-62186587D01*
X104986166Y-62176976D01*
X104976562Y-62169112D01*
X104895526Y-62115066D01*
X104884543Y-62109208D01*
X104872663Y-62105612D01*
X104777124Y-62086637D01*
X104764754Y-62085420D01*
X103217196Y-62085420D01*
X103205106Y-62086581D01*
X103111652Y-62104705D01*
X103099723Y-62108262D01*
X103089226Y-62113744D01*
X103009322Y-62165489D01*
X102999805Y-62173036D01*
X101536469Y-63581347D01*
X101528216Y-63591066D01*
X101471531Y-63673317D01*
X101465506Y-63684210D01*
X101461597Y-63696665D01*
X101441640Y-63794544D01*
X101440360Y-63807230D01*
X101440360Y-64140417D01*
X101434984Y-64195000D01*
X101434984Y-65170892D01*
X101425014Y-65221015D01*
X101384856Y-65281116D01*
X101324755Y-65321274D01*
X101247605Y-65336620D01*
X101156255Y-65336620D01*
X101079105Y-65321274D01*
X101040016Y-65295156D01*
X101040016Y-64195000D01*
X101033963Y-64133543D01*
X101016037Y-64074449D01*
X101009737Y-64062662D01*
X101062443Y-64040831D01*
X101167020Y-63970955D01*
X101255955Y-63882020D01*
X101325831Y-63777443D01*
X101373962Y-63661243D01*
X101398500Y-63537887D01*
X101398500Y-63412113D01*
X101373962Y-63288757D01*
X101344768Y-63218277D01*
X101348377Y-63210280D01*
X101350755Y-63200957D01*
X101365741Y-63115702D01*
X101366700Y-63104709D01*
X101366700Y-62021197D01*
X101382992Y-61941811D01*
X101429235Y-61875259D01*
X105955521Y-57563500D01*
X113883442Y-57563500D01*
X113931056Y-57568168D01*
G37*
G04 #@! TD.AperFunction*
D26*
X109444700Y-83208384D02*
X109130495Y-83501300D01*
X106491297Y-83501300D01*
X106478909Y-83502520D01*
X106466997Y-83506134D01*
X106456018Y-83512002D01*
X106446396Y-83519899D01*
X106438499Y-83529521D01*
X106432631Y-83540500D01*
X106429017Y-83552412D01*
X106427797Y-83564796D01*
X106427506Y-88813840D01*
X103990999Y-88813840D01*
X103978611Y-88815060D01*
X103966699Y-88818674D01*
X103955720Y-88824542D01*
X103946098Y-88832439D01*
X103938201Y-88842061D01*
X103932333Y-88853040D01*
X103928719Y-88864952D01*
X103927499Y-88877281D01*
X103926559Y-89888260D01*
X103754951Y-89888260D01*
X103752560Y-88874650D01*
X103751310Y-88862265D01*
X103747669Y-88850361D01*
X103741775Y-88839397D01*
X103733855Y-88829793D01*
X103724214Y-88821919D01*
X103713222Y-88816077D01*
X103701301Y-88812491D01*
X103689061Y-88811300D01*
X100846913Y-88811238D01*
X100863800Y-83577705D01*
X100862620Y-83565313D01*
X100859044Y-83553389D01*
X100853212Y-83542392D01*
X100845346Y-83532744D01*
X100835749Y-83524816D01*
X100824790Y-83518912D01*
X100812889Y-83515260D01*
X100800364Y-83514000D01*
X99758900Y-83512952D01*
X99758900Y-83288500D01*
X103750000Y-83288500D01*
X103762388Y-83287280D01*
X103774300Y-83283666D01*
X103785279Y-83277798D01*
X103794901Y-83269901D01*
X103802798Y-83260279D01*
X103808666Y-83249300D01*
X103812280Y-83237388D01*
X103813500Y-83225000D01*
X103813500Y-82138500D01*
X104286500Y-82138500D01*
X104286500Y-83063199D01*
X104281605Y-83069164D01*
X104264001Y-83102099D01*
X104253160Y-83137835D01*
X104249500Y-83175000D01*
X104249500Y-83609500D01*
X101440000Y-83609500D01*
X101402835Y-83613160D01*
X101367099Y-83624001D01*
X101334164Y-83641605D01*
X101305296Y-83665296D01*
X101281605Y-83694164D01*
X101264001Y-83727099D01*
X101253160Y-83762835D01*
X101249500Y-83800000D01*
X101249500Y-88175000D01*
X101253160Y-88212165D01*
X101264001Y-88247901D01*
X101281605Y-88280836D01*
X101305296Y-88309704D01*
X101334164Y-88333395D01*
X101367099Y-88350999D01*
X101402835Y-88361840D01*
X101440000Y-88365500D01*
X103749500Y-88365500D01*
X103749500Y-88450000D01*
X103753160Y-88487165D01*
X103764001Y-88522901D01*
X103781605Y-88555836D01*
X103805296Y-88584704D01*
X103834164Y-88608395D01*
X103867099Y-88625999D01*
X103902835Y-88636840D01*
X103940000Y-88640500D01*
X104615000Y-88640500D01*
X104652165Y-88636840D01*
X104687901Y-88625999D01*
X104720836Y-88608395D01*
X104749704Y-88584704D01*
X104773395Y-88555836D01*
X104790999Y-88522901D01*
X104801840Y-88487165D01*
X104805500Y-88450000D01*
X104805500Y-87838500D01*
X105390000Y-87838500D01*
X105402388Y-87837280D01*
X105414300Y-87833666D01*
X105425279Y-87827798D01*
X105434901Y-87819901D01*
X105442798Y-87810279D01*
X105448666Y-87799300D01*
X105452280Y-87787388D01*
X105453500Y-87775003D01*
X105453630Y-84644192D01*
X105740405Y-84644470D01*
X105752795Y-84643262D01*
X105764710Y-84639660D01*
X105775694Y-84633803D01*
X105785325Y-84625915D01*
X105793231Y-84616300D01*
X105799110Y-84605327D01*
X105802735Y-84593419D01*
X105803967Y-84580973D01*
X105804091Y-82065574D01*
X105825493Y-82013905D01*
X105840500Y-81938461D01*
X105840500Y-81937550D01*
X106198188Y-81935364D01*
X106210569Y-81934068D01*
X106222458Y-81930382D01*
X106233401Y-81924447D01*
X106242975Y-81916491D01*
X106250813Y-81906820D01*
X106256614Y-81895806D01*
X106260154Y-81883872D01*
X106261300Y-81871865D01*
X106261300Y-80952948D01*
X107158190Y-80960158D01*
X107170587Y-80959037D01*
X107182528Y-80955520D01*
X107193553Y-80949740D01*
X107203239Y-80941921D01*
X107211213Y-80932362D01*
X107217169Y-80921431D01*
X107220878Y-80909549D01*
X107222200Y-80896813D01*
X107224740Y-79840173D01*
X107224740Y-79840010D01*
X107223510Y-72128500D01*
X109444700Y-72128500D01*
X109444700Y-83208384D01*
G04 #@! TA.AperFunction,Conductor*
D33*
G36*
X109444700Y-83208384D02*
G01*
X109130495Y-83501300D01*
X106491297Y-83501300D01*
X106478909Y-83502520D01*
X106466997Y-83506134D01*
X106456018Y-83512002D01*
X106446396Y-83519899D01*
X106438499Y-83529521D01*
X106432631Y-83540500D01*
X106429017Y-83552412D01*
X106427797Y-83564796D01*
X106427506Y-88813840D01*
X103990999Y-88813840D01*
X103978611Y-88815060D01*
X103966699Y-88818674D01*
X103955720Y-88824542D01*
X103946098Y-88832439D01*
X103938201Y-88842061D01*
X103932333Y-88853040D01*
X103928719Y-88864952D01*
X103927499Y-88877281D01*
X103926559Y-89888260D01*
X103754951Y-89888260D01*
X103752560Y-88874650D01*
X103751310Y-88862265D01*
X103747669Y-88850361D01*
X103741775Y-88839397D01*
X103733855Y-88829793D01*
X103724214Y-88821919D01*
X103713222Y-88816077D01*
X103701301Y-88812491D01*
X103689061Y-88811300D01*
X100846913Y-88811238D01*
X100863800Y-83577705D01*
X100862620Y-83565313D01*
X100859044Y-83553389D01*
X100853212Y-83542392D01*
X100845346Y-83532744D01*
X100835749Y-83524816D01*
X100824790Y-83518912D01*
X100812889Y-83515260D01*
X100800364Y-83514000D01*
X99758900Y-83512952D01*
X99758900Y-83288500D01*
X103750000Y-83288500D01*
X103762388Y-83287280D01*
X103774300Y-83283666D01*
X103785279Y-83277798D01*
X103794901Y-83269901D01*
X103802798Y-83260279D01*
X103808666Y-83249300D01*
X103812280Y-83237388D01*
X103813500Y-83225000D01*
X103813500Y-82138500D01*
X104286500Y-82138500D01*
X104286500Y-83063199D01*
X104281605Y-83069164D01*
X104264001Y-83102099D01*
X104253160Y-83137835D01*
X104249500Y-83175000D01*
X104249500Y-83609500D01*
X101440000Y-83609500D01*
X101402835Y-83613160D01*
X101367099Y-83624001D01*
X101334164Y-83641605D01*
X101305296Y-83665296D01*
X101281605Y-83694164D01*
X101264001Y-83727099D01*
X101253160Y-83762835D01*
X101249500Y-83800000D01*
X101249500Y-88175000D01*
X101253160Y-88212165D01*
X101264001Y-88247901D01*
X101281605Y-88280836D01*
X101305296Y-88309704D01*
X101334164Y-88333395D01*
X101367099Y-88350999D01*
X101402835Y-88361840D01*
X101440000Y-88365500D01*
X103749500Y-88365500D01*
X103749500Y-88450000D01*
X103753160Y-88487165D01*
X103764001Y-88522901D01*
X103781605Y-88555836D01*
X103805296Y-88584704D01*
X103834164Y-88608395D01*
X103867099Y-88625999D01*
X103902835Y-88636840D01*
X103940000Y-88640500D01*
X104615000Y-88640500D01*
X104652165Y-88636840D01*
X104687901Y-88625999D01*
X104720836Y-88608395D01*
X104749704Y-88584704D01*
X104773395Y-88555836D01*
X104790999Y-88522901D01*
X104801840Y-88487165D01*
X104805500Y-88450000D01*
X104805500Y-87838500D01*
X105390000Y-87838500D01*
X105402388Y-87837280D01*
X105414300Y-87833666D01*
X105425279Y-87827798D01*
X105434901Y-87819901D01*
X105442798Y-87810279D01*
X105448666Y-87799300D01*
X105452280Y-87787388D01*
X105453500Y-87775003D01*
X105453630Y-84644192D01*
X105740405Y-84644470D01*
X105752795Y-84643262D01*
X105764710Y-84639660D01*
X105775694Y-84633803D01*
X105785325Y-84625915D01*
X105793231Y-84616300D01*
X105799110Y-84605327D01*
X105802735Y-84593419D01*
X105803967Y-84580973D01*
X105804091Y-82065574D01*
X105825493Y-82013905D01*
X105840500Y-81938461D01*
X105840500Y-81937550D01*
X106198188Y-81935364D01*
X106210569Y-81934068D01*
X106222458Y-81930382D01*
X106233401Y-81924447D01*
X106242975Y-81916491D01*
X106250813Y-81906820D01*
X106256614Y-81895806D01*
X106260154Y-81883872D01*
X106261300Y-81871865D01*
X106261300Y-80952948D01*
X107158190Y-80960158D01*
X107170587Y-80959037D01*
X107182528Y-80955520D01*
X107193553Y-80949740D01*
X107203239Y-80941921D01*
X107211213Y-80932362D01*
X107217169Y-80921431D01*
X107220878Y-80909549D01*
X107222200Y-80896813D01*
X107224740Y-79840173D01*
X107224740Y-79840010D01*
X107223510Y-72128500D01*
X109444700Y-72128500D01*
X109444700Y-83208384D01*
G37*
G04 #@! TD.AperFunction*
D35*
X99802148Y-77648211D02*
X99776437Y-77679541D01*
X99733530Y-77759815D01*
X99707108Y-77846917D01*
X99699318Y-77926009D01*
X99698563Y-77012533D01*
X99801623Y-77012533D01*
X99802148Y-77648211D01*
G04 #@! TA.AperFunction,Conductor*
D33*
G36*
X99802148Y-77648211D02*
G01*
X99776437Y-77679541D01*
X99733530Y-77759815D01*
X99707108Y-77846917D01*
X99699318Y-77926009D01*
X99698563Y-77012533D01*
X99801623Y-77012533D01*
X99802148Y-77648211D01*
G37*
G04 #@! TD.AperFunction*
D27*
X109524963Y-92687414D02*
X109524962Y-94796719D01*
X109522180Y-94824962D01*
X109524962Y-94853205D01*
X109524962Y-94853207D01*
X109533282Y-94937681D01*
X109562944Y-95035465D01*
X109566161Y-95046069D01*
X109619554Y-95145960D01*
X109631755Y-95160827D01*
X109691408Y-95233516D01*
X109713355Y-95251527D01*
X110124980Y-95663153D01*
X110124982Y-98295284D01*
X110122199Y-98323537D01*
X110133302Y-98436256D01*
X110166180Y-98544644D01*
X110219573Y-98644535D01*
X110248413Y-98679676D01*
X110291428Y-98732091D01*
X110313370Y-98750098D01*
X110424991Y-98861719D01*
X110424990Y-103251025D01*
X110422208Y-103279268D01*
X110424990Y-103307511D01*
X110424990Y-103307513D01*
X110433310Y-103391987D01*
X110460862Y-103482813D01*
X110466189Y-103500375D01*
X110519582Y-103600266D01*
X110544277Y-103630357D01*
X110591436Y-103687822D01*
X110613384Y-103705834D01*
X110725001Y-103817451D01*
X110725000Y-104896756D01*
X110722218Y-104925000D01*
X110725000Y-104953243D01*
X110725000Y-104953245D01*
X110733320Y-105037719D01*
X110759796Y-105125000D01*
X110766199Y-105146107D01*
X110819592Y-105245998D01*
X110826161Y-105254002D01*
X110891446Y-105333554D01*
X110913394Y-105351566D01*
X111320000Y-105758172D01*
X111320000Y-106329337D01*
X111221880Y-106566220D01*
X111170000Y-106827037D01*
X111170000Y-107092963D01*
X111221880Y-107353780D01*
X111320000Y-107590663D01*
X111320000Y-108000000D01*
X106963669Y-108000000D01*
X107040575Y-107948613D01*
X107228613Y-107760575D01*
X107376354Y-107539465D01*
X107478120Y-107293780D01*
X107530000Y-107032963D01*
X107530000Y-106767037D01*
X107478120Y-106506220D01*
X107376354Y-106260535D01*
X107228613Y-106039425D01*
X107040575Y-105851387D01*
X106819465Y-105703646D01*
X106573780Y-105601880D01*
X106312963Y-105550000D01*
X106047037Y-105550000D01*
X105786220Y-105601880D01*
X105717510Y-105630341D01*
X105717510Y-95263623D01*
X106344399Y-94636735D01*
X106365892Y-94619096D01*
X106383531Y-94597603D01*
X106383535Y-94597599D01*
X106436309Y-94533293D01*
X106462896Y-94483554D01*
X106488635Y-94435399D01*
X106520856Y-94329179D01*
X106529010Y-94246391D01*
X106529010Y-94246382D01*
X106531735Y-94218715D01*
X106529010Y-94191048D01*
X106529010Y-93902419D01*
X108000000Y-93902419D01*
X108137035Y-93888922D01*
X108268804Y-93848951D01*
X108390243Y-93784040D01*
X108496685Y-93696685D01*
X108584040Y-93590243D01*
X108648951Y-93468804D01*
X108688922Y-93337035D01*
X108702419Y-93200000D01*
X108702419Y-92800000D01*
X108688922Y-92662965D01*
X108648951Y-92531196D01*
X108584040Y-92409757D01*
X108496685Y-92303315D01*
X108400000Y-92223967D01*
X108400000Y-92146207D01*
X108396198Y-92127094D01*
X108964644Y-92127094D01*
X109524963Y-92687414D01*
G04 #@! TA.AperFunction,Conductor*
D33*
G36*
X109524963Y-92687414D02*
G01*
X109524962Y-94796719D01*
X109522180Y-94824962D01*
X109524962Y-94853205D01*
X109524962Y-94853207D01*
X109533282Y-94937681D01*
X109562944Y-95035465D01*
X109566161Y-95046069D01*
X109619554Y-95145960D01*
X109631755Y-95160827D01*
X109691408Y-95233516D01*
X109713355Y-95251527D01*
X110124980Y-95663153D01*
X110124982Y-98295284D01*
X110122199Y-98323537D01*
X110133302Y-98436256D01*
X110166180Y-98544644D01*
X110219573Y-98644535D01*
X110248413Y-98679676D01*
X110291428Y-98732091D01*
X110313370Y-98750098D01*
X110424991Y-98861719D01*
X110424990Y-103251025D01*
X110422208Y-103279268D01*
X110424990Y-103307511D01*
X110424990Y-103307513D01*
X110433310Y-103391987D01*
X110460862Y-103482813D01*
X110466189Y-103500375D01*
X110519582Y-103600266D01*
X110544277Y-103630357D01*
X110591436Y-103687822D01*
X110613384Y-103705834D01*
X110725001Y-103817451D01*
X110725000Y-104896756D01*
X110722218Y-104925000D01*
X110725000Y-104953243D01*
X110725000Y-104953245D01*
X110733320Y-105037719D01*
X110759796Y-105125000D01*
X110766199Y-105146107D01*
X110819592Y-105245998D01*
X110826161Y-105254002D01*
X110891446Y-105333554D01*
X110913394Y-105351566D01*
X111320000Y-105758172D01*
X111320000Y-106329337D01*
X111221880Y-106566220D01*
X111170000Y-106827037D01*
X111170000Y-107092963D01*
X111221880Y-107353780D01*
X111320000Y-107590663D01*
X111320000Y-108000000D01*
X106963669Y-108000000D01*
X107040575Y-107948613D01*
X107228613Y-107760575D01*
X107376354Y-107539465D01*
X107478120Y-107293780D01*
X107530000Y-107032963D01*
X107530000Y-106767037D01*
X107478120Y-106506220D01*
X107376354Y-106260535D01*
X107228613Y-106039425D01*
X107040575Y-105851387D01*
X106819465Y-105703646D01*
X106573780Y-105601880D01*
X106312963Y-105550000D01*
X106047037Y-105550000D01*
X105786220Y-105601880D01*
X105717510Y-105630341D01*
X105717510Y-95263623D01*
X106344399Y-94636735D01*
X106365892Y-94619096D01*
X106383531Y-94597603D01*
X106383535Y-94597599D01*
X106436309Y-94533293D01*
X106462896Y-94483554D01*
X106488635Y-94435399D01*
X106520856Y-94329179D01*
X106529010Y-94246391D01*
X106529010Y-94246382D01*
X106531735Y-94218715D01*
X106529010Y-94191048D01*
X106529010Y-93902419D01*
X108000000Y-93902419D01*
X108137035Y-93888922D01*
X108268804Y-93848951D01*
X108390243Y-93784040D01*
X108496685Y-93696685D01*
X108584040Y-93590243D01*
X108648951Y-93468804D01*
X108688922Y-93337035D01*
X108702419Y-93200000D01*
X108702419Y-92800000D01*
X108688922Y-92662965D01*
X108648951Y-92531196D01*
X108584040Y-92409757D01*
X108496685Y-92303315D01*
X108400000Y-92223967D01*
X108400000Y-92146207D01*
X108396198Y-92127094D01*
X108964644Y-92127094D01*
X109524963Y-92687414D01*
G37*
G04 #@! TD.AperFunction*
D27*
X104590511Y-106351330D02*
X104587785Y-106379010D01*
X104598664Y-106489475D01*
X104630886Y-106595695D01*
X104683211Y-106693588D01*
X104735985Y-106757894D01*
X104735990Y-106757899D01*
X104753629Y-106779392D01*
X104775122Y-106797031D01*
X104830000Y-106851909D01*
X104830000Y-107032963D01*
X104881880Y-107293780D01*
X104983646Y-107539465D01*
X105131387Y-107760575D01*
X105319425Y-107948613D01*
X105396331Y-108000000D01*
X101883669Y-108000000D01*
X101960575Y-107948613D01*
X102148613Y-107760575D01*
X102296354Y-107539465D01*
X102398120Y-107293780D01*
X102450000Y-107032963D01*
X102450000Y-106767037D01*
X102398120Y-106506220D01*
X102296354Y-106260535D01*
X102148613Y-106039425D01*
X101960575Y-105851387D01*
X101796450Y-105741722D01*
X101838173Y-105700000D01*
X101928246Y-105700000D01*
X102012720Y-105691680D01*
X102121108Y-105658801D01*
X102220998Y-105605408D01*
X102308554Y-105533554D01*
X102380408Y-105445998D01*
X102385572Y-105436337D01*
X104590511Y-103231398D01*
X104590511Y-106351330D01*
G04 #@! TA.AperFunction,Conductor*
D33*
G36*
X104590511Y-106351330D02*
G01*
X104587785Y-106379010D01*
X104598664Y-106489475D01*
X104630886Y-106595695D01*
X104683211Y-106693588D01*
X104735985Y-106757894D01*
X104735990Y-106757899D01*
X104753629Y-106779392D01*
X104775122Y-106797031D01*
X104830000Y-106851909D01*
X104830000Y-107032963D01*
X104881880Y-107293780D01*
X104983646Y-107539465D01*
X105131387Y-107760575D01*
X105319425Y-107948613D01*
X105396331Y-108000000D01*
X101883669Y-108000000D01*
X101960575Y-107948613D01*
X102148613Y-107760575D01*
X102296354Y-107539465D01*
X102398120Y-107293780D01*
X102450000Y-107032963D01*
X102450000Y-106767037D01*
X102398120Y-106506220D01*
X102296354Y-106260535D01*
X102148613Y-106039425D01*
X101960575Y-105851387D01*
X101796450Y-105741722D01*
X101838173Y-105700000D01*
X101928246Y-105700000D01*
X102012720Y-105691680D01*
X102121108Y-105658801D01*
X102220998Y-105605408D01*
X102308554Y-105533554D01*
X102380408Y-105445998D01*
X102385572Y-105436337D01*
X104590511Y-103231398D01*
X104590511Y-106351330D01*
G37*
G04 #@! TD.AperFunction*
D27*
X101882011Y-91821079D02*
X101176116Y-92526975D01*
X101154618Y-92544618D01*
X101084200Y-92630422D01*
X101031875Y-92728316D01*
X100999654Y-92834536D01*
X100994200Y-92889910D01*
X100983091Y-92895848D01*
X100885741Y-92975741D01*
X100805848Y-93073091D01*
X100746482Y-93184157D01*
X100709925Y-93304670D01*
X100697581Y-93430000D01*
X100697581Y-93770000D01*
X100709925Y-93895330D01*
X100746482Y-94015843D01*
X100805848Y-94126909D01*
X100885741Y-94224259D01*
X100983091Y-94304152D01*
X100991500Y-94308647D01*
X100991501Y-95361589D01*
X100805509Y-95547581D01*
X99700000Y-95547581D01*
X99601983Y-95557235D01*
X99507733Y-95585825D01*
X99420871Y-95632254D01*
X99344736Y-95694736D01*
X99282254Y-95770871D01*
X99235825Y-95857733D01*
X99207235Y-95951983D01*
X99197581Y-96050000D01*
X99197581Y-97250000D01*
X99207235Y-97348017D01*
X99235825Y-97442267D01*
X99282254Y-97529129D01*
X99344736Y-97605264D01*
X99420871Y-97667746D01*
X99507733Y-97714175D01*
X99601983Y-97742765D01*
X99700000Y-97752419D01*
X101100000Y-97752419D01*
X101198017Y-97742765D01*
X101292267Y-97714175D01*
X101379129Y-97667746D01*
X101455264Y-97605264D01*
X101517746Y-97529129D01*
X101564175Y-97442267D01*
X101592765Y-97348017D01*
X101602419Y-97250000D01*
X101602419Y-96344491D01*
X101894985Y-96051925D01*
X101900000Y-96052419D01*
X103300000Y-96052419D01*
X103398017Y-96042765D01*
X103492267Y-96014175D01*
X103579129Y-95967746D01*
X103655264Y-95905264D01*
X103717746Y-95829129D01*
X103764175Y-95742267D01*
X103792765Y-95648017D01*
X103801089Y-95563500D01*
X103917330Y-95563500D01*
X103945000Y-95566225D01*
X103972670Y-95563500D01*
X103972677Y-95563500D01*
X104055465Y-95555346D01*
X104161685Y-95523125D01*
X104259578Y-95470800D01*
X104336500Y-95407671D01*
X104336501Y-101891590D01*
X101678091Y-104550000D01*
X101628242Y-104550000D01*
X101599999Y-104547218D01*
X101571756Y-104550000D01*
X101571754Y-104550000D01*
X101487280Y-104558320D01*
X101378892Y-104591199D01*
X101279001Y-104644592D01*
X101233153Y-104682218D01*
X101191446Y-104716446D01*
X101173439Y-104738388D01*
X100763389Y-105148439D01*
X100741447Y-105166446D01*
X100723441Y-105188387D01*
X100669592Y-105254002D01*
X100616199Y-105353893D01*
X100593294Y-105429402D01*
X100584377Y-105458801D01*
X100583321Y-105462281D01*
X100572218Y-105575000D01*
X100575001Y-105603253D01*
X100575001Y-105656233D01*
X100460535Y-105703646D01*
X100239425Y-105851387D01*
X100051387Y-106039425D01*
X99903646Y-106260535D01*
X99801880Y-106506220D01*
X99750000Y-106767037D01*
X99750000Y-107032963D01*
X99801880Y-107293780D01*
X99903646Y-107539465D01*
X100051387Y-107760575D01*
X100239425Y-107948613D01*
X100316331Y-108000000D01*
X95980000Y-108000000D01*
X95980000Y-107337526D01*
X95998120Y-107293780D01*
X96050000Y-107032963D01*
X96050000Y-106767037D01*
X96002074Y-106526099D01*
X96311612Y-106216561D01*
X96333554Y-106198554D01*
X96380229Y-106141679D01*
X96405408Y-106110999D01*
X96458801Y-106011108D01*
X96464023Y-105993892D01*
X96491680Y-105902720D01*
X96500000Y-105818246D01*
X96500000Y-105818243D01*
X96502782Y-105790000D01*
X96500000Y-105761757D01*
X96500000Y-103912450D01*
X96911631Y-103500820D01*
X96933573Y-103482813D01*
X96991701Y-103411983D01*
X97005427Y-103395258D01*
X97058820Y-103295367D01*
X97061156Y-103287665D01*
X97091699Y-103186979D01*
X97100019Y-103102505D01*
X97100019Y-103102503D01*
X97102801Y-103074260D01*
X97100019Y-103046017D01*
X97100019Y-96540985D01*
X97236631Y-96404373D01*
X97258582Y-96386358D01*
X97330436Y-96298802D01*
X97331197Y-96297380D01*
X97383830Y-96198910D01*
X97413671Y-96100535D01*
X97416708Y-96090524D01*
X97425028Y-96006050D01*
X97425028Y-96006048D01*
X97427810Y-95977802D01*
X97425028Y-95949559D01*
X97425028Y-94111700D01*
X99736709Y-91800020D01*
X101205241Y-91800020D01*
X101233484Y-91802802D01*
X101261727Y-91800020D01*
X101261730Y-91800020D01*
X101346204Y-91791700D01*
X101454592Y-91758821D01*
X101554482Y-91705428D01*
X101642038Y-91633574D01*
X101660049Y-91611627D01*
X101882010Y-91389666D01*
X101882011Y-91821079D01*
G04 #@! TA.AperFunction,Conductor*
D33*
G36*
X101882011Y-91821079D02*
G01*
X101176116Y-92526975D01*
X101154618Y-92544618D01*
X101084200Y-92630422D01*
X101031875Y-92728316D01*
X100999654Y-92834536D01*
X100994200Y-92889910D01*
X100983091Y-92895848D01*
X100885741Y-92975741D01*
X100805848Y-93073091D01*
X100746482Y-93184157D01*
X100709925Y-93304670D01*
X100697581Y-93430000D01*
X100697581Y-93770000D01*
X100709925Y-93895330D01*
X100746482Y-94015843D01*
X100805848Y-94126909D01*
X100885741Y-94224259D01*
X100983091Y-94304152D01*
X100991500Y-94308647D01*
X100991501Y-95361589D01*
X100805509Y-95547581D01*
X99700000Y-95547581D01*
X99601983Y-95557235D01*
X99507733Y-95585825D01*
X99420871Y-95632254D01*
X99344736Y-95694736D01*
X99282254Y-95770871D01*
X99235825Y-95857733D01*
X99207235Y-95951983D01*
X99197581Y-96050000D01*
X99197581Y-97250000D01*
X99207235Y-97348017D01*
X99235825Y-97442267D01*
X99282254Y-97529129D01*
X99344736Y-97605264D01*
X99420871Y-97667746D01*
X99507733Y-97714175D01*
X99601983Y-97742765D01*
X99700000Y-97752419D01*
X101100000Y-97752419D01*
X101198017Y-97742765D01*
X101292267Y-97714175D01*
X101379129Y-97667746D01*
X101455264Y-97605264D01*
X101517746Y-97529129D01*
X101564175Y-97442267D01*
X101592765Y-97348017D01*
X101602419Y-97250000D01*
X101602419Y-96344491D01*
X101894985Y-96051925D01*
X101900000Y-96052419D01*
X103300000Y-96052419D01*
X103398017Y-96042765D01*
X103492267Y-96014175D01*
X103579129Y-95967746D01*
X103655264Y-95905264D01*
X103717746Y-95829129D01*
X103764175Y-95742267D01*
X103792765Y-95648017D01*
X103801089Y-95563500D01*
X103917330Y-95563500D01*
X103945000Y-95566225D01*
X103972670Y-95563500D01*
X103972677Y-95563500D01*
X104055465Y-95555346D01*
X104161685Y-95523125D01*
X104259578Y-95470800D01*
X104336500Y-95407671D01*
X104336501Y-101891590D01*
X101678091Y-104550000D01*
X101628242Y-104550000D01*
X101599999Y-104547218D01*
X101571756Y-104550000D01*
X101571754Y-104550000D01*
X101487280Y-104558320D01*
X101378892Y-104591199D01*
X101279001Y-104644592D01*
X101233153Y-104682218D01*
X101191446Y-104716446D01*
X101173439Y-104738388D01*
X100763389Y-105148439D01*
X100741447Y-105166446D01*
X100723441Y-105188387D01*
X100669592Y-105254002D01*
X100616199Y-105353893D01*
X100593294Y-105429402D01*
X100584377Y-105458801D01*
X100583321Y-105462281D01*
X100572218Y-105575000D01*
X100575001Y-105603253D01*
X100575001Y-105656233D01*
X100460535Y-105703646D01*
X100239425Y-105851387D01*
X100051387Y-106039425D01*
X99903646Y-106260535D01*
X99801880Y-106506220D01*
X99750000Y-106767037D01*
X99750000Y-107032963D01*
X99801880Y-107293780D01*
X99903646Y-107539465D01*
X100051387Y-107760575D01*
X100239425Y-107948613D01*
X100316331Y-108000000D01*
X95980000Y-108000000D01*
X95980000Y-107337526D01*
X95998120Y-107293780D01*
X96050000Y-107032963D01*
X96050000Y-106767037D01*
X96002074Y-106526099D01*
X96311612Y-106216561D01*
X96333554Y-106198554D01*
X96380229Y-106141679D01*
X96405408Y-106110999D01*
X96458801Y-106011108D01*
X96464023Y-105993892D01*
X96491680Y-105902720D01*
X96500000Y-105818246D01*
X96500000Y-105818243D01*
X96502782Y-105790000D01*
X96500000Y-105761757D01*
X96500000Y-103912450D01*
X96911631Y-103500820D01*
X96933573Y-103482813D01*
X96991701Y-103411983D01*
X97005427Y-103395258D01*
X97058820Y-103295367D01*
X97061156Y-103287665D01*
X97091699Y-103186979D01*
X97100019Y-103102505D01*
X97100019Y-103102503D01*
X97102801Y-103074260D01*
X97100019Y-103046017D01*
X97100019Y-96540985D01*
X97236631Y-96404373D01*
X97258582Y-96386358D01*
X97330436Y-96298802D01*
X97331197Y-96297380D01*
X97383830Y-96198910D01*
X97413671Y-96100535D01*
X97416708Y-96090524D01*
X97425028Y-96006050D01*
X97425028Y-96006048D01*
X97427810Y-95977802D01*
X97425028Y-95949559D01*
X97425028Y-94111700D01*
X99736709Y-91800020D01*
X101205241Y-91800020D01*
X101233484Y-91802802D01*
X101261727Y-91800020D01*
X101261730Y-91800020D01*
X101346204Y-91791700D01*
X101454592Y-91758821D01*
X101554482Y-91705428D01*
X101642038Y-91633574D01*
X101660049Y-91611627D01*
X101882010Y-91389666D01*
X101882011Y-91821079D01*
G37*
G04 #@! TD.AperFunction*
D27*
X113875000Y-102635000D02*
X111875000Y-102635000D01*
X111875000Y-101175000D01*
X113875000Y-101175000D01*
X113875000Y-102635000D01*
G04 #@! TA.AperFunction,Conductor*
D33*
G36*
X113875000Y-102635000D02*
G01*
X111875000Y-102635000D01*
X111875000Y-101175000D01*
X113875000Y-101175000D01*
X113875000Y-102635000D01*
G37*
G04 #@! TD.AperFunction*
D27*
X95650011Y-102635000D02*
X93425000Y-102635000D01*
X93425000Y-101175000D01*
X95650011Y-101175000D01*
X95650011Y-102635000D01*
G04 #@! TA.AperFunction,Conductor*
D33*
G36*
X95650011Y-102635000D02*
G01*
X93425000Y-102635000D01*
X93425000Y-101175000D01*
X95650011Y-101175000D01*
X95650011Y-102635000D01*
G37*
G04 #@! TD.AperFunction*
D27*
X104473091Y-92294152D02*
X104584157Y-92353518D01*
X104704670Y-92390075D01*
X104830000Y-92402419D01*
X105125001Y-92402419D01*
X105125000Y-93903091D01*
X104904447Y-94123644D01*
X104904152Y-94123091D01*
X104824259Y-94025741D01*
X104733188Y-93951001D01*
X104750075Y-93895330D01*
X104762419Y-93770000D01*
X104762419Y-93430000D01*
X104750075Y-93304670D01*
X104713518Y-93184157D01*
X104654152Y-93073091D01*
X104574259Y-92975741D01*
X104476909Y-92895848D01*
X104365843Y-92836482D01*
X104245330Y-92799925D01*
X104120000Y-92787581D01*
X103840000Y-92787581D01*
X103714670Y-92799925D01*
X103613500Y-92830614D01*
X103613500Y-92390945D01*
X103730000Y-92402419D01*
X104070000Y-92402419D01*
X104195330Y-92390075D01*
X104315843Y-92353518D01*
X104426909Y-92294152D01*
X104450000Y-92275202D01*
X104473091Y-92294152D01*
G04 #@! TA.AperFunction,Conductor*
D33*
G36*
X104473091Y-92294152D02*
G01*
X104584157Y-92353518D01*
X104704670Y-92390075D01*
X104830000Y-92402419D01*
X105125001Y-92402419D01*
X105125000Y-93903091D01*
X104904447Y-94123644D01*
X104904152Y-94123091D01*
X104824259Y-94025741D01*
X104733188Y-93951001D01*
X104750075Y-93895330D01*
X104762419Y-93770000D01*
X104762419Y-93430000D01*
X104750075Y-93304670D01*
X104713518Y-93184157D01*
X104654152Y-93073091D01*
X104574259Y-92975741D01*
X104476909Y-92895848D01*
X104365843Y-92836482D01*
X104245330Y-92799925D01*
X104120000Y-92787581D01*
X103840000Y-92787581D01*
X103714670Y-92799925D01*
X103613500Y-92830614D01*
X103613500Y-92390945D01*
X103730000Y-92402419D01*
X104070000Y-92402419D01*
X104195330Y-92390075D01*
X104315843Y-92353518D01*
X104426909Y-92294152D01*
X104450000Y-92275202D01*
X104473091Y-92294152D01*
G37*
G04 #@! TD.AperFunction*
D27*
X96283439Y-89111612D02*
X96301446Y-89133554D01*
X96323386Y-89151559D01*
X96389001Y-89205408D01*
X96410322Y-89216804D01*
X96488892Y-89258801D01*
X96597280Y-89291680D01*
X96681754Y-89300000D01*
X96681756Y-89300000D01*
X96709999Y-89302782D01*
X96738242Y-89300000D01*
X98411827Y-89300000D01*
X96501828Y-91210000D01*
X95980000Y-91210000D01*
X95980000Y-90185000D01*
X95975196Y-90136227D01*
X95960970Y-90089329D01*
X95937867Y-90046107D01*
X95906777Y-90008223D01*
X95868893Y-89977133D01*
X95825671Y-89954030D01*
X95778773Y-89939804D01*
X95730000Y-89935000D01*
X93425000Y-89935000D01*
X93425000Y-88475000D01*
X95646828Y-88475000D01*
X96283439Y-89111612D01*
G04 #@! TA.AperFunction,Conductor*
D33*
G36*
X96283439Y-89111612D02*
G01*
X96301446Y-89133554D01*
X96323386Y-89151559D01*
X96389001Y-89205408D01*
X96410322Y-89216804D01*
X96488892Y-89258801D01*
X96597280Y-89291680D01*
X96681754Y-89300000D01*
X96681756Y-89300000D01*
X96709999Y-89302782D01*
X96738242Y-89300000D01*
X98411827Y-89300000D01*
X96501828Y-91210000D01*
X95980000Y-91210000D01*
X95980000Y-90185000D01*
X95975196Y-90136227D01*
X95960970Y-90089329D01*
X95937867Y-90046107D01*
X95906777Y-90008223D01*
X95868893Y-89977133D01*
X95825671Y-89954030D01*
X95778773Y-89939804D01*
X95730000Y-89935000D01*
X93425000Y-89935000D01*
X93425000Y-88475000D01*
X95646828Y-88475000D01*
X96283439Y-89111612D01*
G37*
G04 #@! TD.AperFunction*
D27*
X109524972Y-89930981D02*
X109524972Y-90499563D01*
X109522190Y-90527806D01*
X109524972Y-90556049D01*
X109524972Y-90556052D01*
X109533292Y-90640526D01*
X109552518Y-90703903D01*
X109558561Y-90723825D01*
X109548192Y-90718283D01*
X109439804Y-90685404D01*
X109355330Y-90677084D01*
X109355327Y-90677084D01*
X109327084Y-90674302D01*
X109298841Y-90677084D01*
X107515257Y-90677084D01*
X106831131Y-89992958D01*
X106841804Y-89957772D01*
X106852419Y-89850000D01*
X106852419Y-89227419D01*
X107475000Y-89227419D01*
X107582772Y-89216804D01*
X107638169Y-89200000D01*
X108793992Y-89200000D01*
X109524972Y-89930981D01*
G04 #@! TA.AperFunction,Conductor*
D33*
G36*
X109524972Y-89930981D02*
G01*
X109524972Y-90499563D01*
X109522190Y-90527806D01*
X109524972Y-90556049D01*
X109524972Y-90556052D01*
X109533292Y-90640526D01*
X109552518Y-90703903D01*
X109558561Y-90723825D01*
X109548192Y-90718283D01*
X109439804Y-90685404D01*
X109355330Y-90677084D01*
X109355327Y-90677084D01*
X109327084Y-90674302D01*
X109298841Y-90677084D01*
X107515257Y-90677084D01*
X106831131Y-89992958D01*
X106841804Y-89957772D01*
X106852419Y-89850000D01*
X106852419Y-89227419D01*
X107475000Y-89227419D01*
X107582772Y-89216804D01*
X107638169Y-89200000D01*
X108793992Y-89200000D01*
X109524972Y-89930981D01*
G37*
G04 #@! TD.AperFunction*
D27*
X111320000Y-87270663D02*
X111320000Y-88225000D01*
X111324804Y-88273773D01*
X111339030Y-88320671D01*
X111362133Y-88363893D01*
X111393223Y-88401777D01*
X111431107Y-88432867D01*
X111474329Y-88455970D01*
X111521227Y-88470196D01*
X111570000Y-88475000D01*
X113875000Y-88475000D01*
X113875000Y-89935000D01*
X111593172Y-89935000D01*
X111575000Y-89916828D01*
X111575000Y-89348245D01*
X111577782Y-89320002D01*
X111575000Y-89291756D01*
X111566680Y-89207282D01*
X111533801Y-89098894D01*
X111480408Y-88999004D01*
X111408554Y-88911448D01*
X111386613Y-88893442D01*
X110538978Y-88045807D01*
X110616909Y-88004152D01*
X110714259Y-87924259D01*
X110794152Y-87826909D01*
X110853518Y-87715843D01*
X110890075Y-87595330D01*
X110902419Y-87470000D01*
X110902419Y-87225000D01*
X111301086Y-87225000D01*
X111320000Y-87270663D01*
G04 #@! TA.AperFunction,Conductor*
D33*
G36*
X111320000Y-87270663D02*
G01*
X111320000Y-88225000D01*
X111324804Y-88273773D01*
X111339030Y-88320671D01*
X111362133Y-88363893D01*
X111393223Y-88401777D01*
X111431107Y-88432867D01*
X111474329Y-88455970D01*
X111521227Y-88470196D01*
X111570000Y-88475000D01*
X113875000Y-88475000D01*
X113875000Y-89935000D01*
X111593172Y-89935000D01*
X111575000Y-89916828D01*
X111575000Y-89348245D01*
X111577782Y-89320002D01*
X111575000Y-89291756D01*
X111566680Y-89207282D01*
X111533801Y-89098894D01*
X111480408Y-88999004D01*
X111408554Y-88911448D01*
X111386613Y-88893442D01*
X110538978Y-88045807D01*
X110616909Y-88004152D01*
X110714259Y-87924259D01*
X110794152Y-87826909D01*
X110853518Y-87715843D01*
X110890075Y-87595330D01*
X110902419Y-87470000D01*
X110902419Y-87225000D01*
X111301086Y-87225000D01*
X111320000Y-87270663D01*
G37*
G04 #@! TD.AperFunction*
D27*
X96453439Y-87011612D02*
X96471446Y-87033554D01*
X96493386Y-87051559D01*
X96559001Y-87105408D01*
X96633836Y-87145408D01*
X96658892Y-87158801D01*
X96767280Y-87191680D01*
X96851754Y-87200000D01*
X96851757Y-87200000D01*
X96880000Y-87202782D01*
X96908243Y-87200000D01*
X97591465Y-87200000D01*
X97546482Y-87284157D01*
X97509925Y-87404670D01*
X97497581Y-87530000D01*
X97497581Y-87850000D01*
X97072451Y-87850000D01*
X96449988Y-87227538D01*
X96449988Y-87008161D01*
X96453439Y-87011612D01*
G04 #@! TA.AperFunction,Conductor*
D33*
G36*
X96453439Y-87011612D02*
G01*
X96471446Y-87033554D01*
X96493386Y-87051559D01*
X96559001Y-87105408D01*
X96633836Y-87145408D01*
X96658892Y-87158801D01*
X96767280Y-87191680D01*
X96851754Y-87200000D01*
X96851757Y-87200000D01*
X96880000Y-87202782D01*
X96908243Y-87200000D01*
X97591465Y-87200000D01*
X97546482Y-87284157D01*
X97509925Y-87404670D01*
X97497581Y-87530000D01*
X97497581Y-87850000D01*
X97072451Y-87850000D01*
X96449988Y-87227538D01*
X96449988Y-87008161D01*
X96453439Y-87011612D01*
G37*
G04 #@! TD.AperFunction*
D27*
X104890021Y-87275000D02*
X102390000Y-87275000D01*
X102390000Y-84775000D01*
X104890125Y-84775000D01*
X104890021Y-87275000D01*
G04 #@! TA.AperFunction,Conductor*
D33*
G36*
X104890021Y-87275000D02*
G01*
X102390000Y-87275000D01*
X102390000Y-84775000D01*
X104890125Y-84775000D01*
X104890021Y-87275000D01*
G37*
G04 #@! TD.AperFunction*
D27*
X111170000Y-83967037D02*
X111170000Y-84232963D01*
X111221880Y-84493780D01*
X111320000Y-84730663D01*
X111320000Y-86009337D01*
X111313512Y-86025000D01*
X110586994Y-86025000D01*
X110671224Y-85968720D01*
X110768726Y-85871218D01*
X110845332Y-85756568D01*
X110898099Y-85629176D01*
X110925000Y-85493938D01*
X110925000Y-85356050D01*
X110898099Y-85220812D01*
X110845332Y-85093420D01*
X110768726Y-84978770D01*
X110671224Y-84881268D01*
X110556574Y-84804662D01*
X110429182Y-84751895D01*
X110293944Y-84724994D01*
X110203178Y-84724994D01*
X111221862Y-83706310D01*
X111170000Y-83967037D01*
G04 #@! TA.AperFunction,Conductor*
D33*
G36*
X111170000Y-83967037D02*
G01*
X111170000Y-84232963D01*
X111221880Y-84493780D01*
X111320000Y-84730663D01*
X111320000Y-86009337D01*
X111313512Y-86025000D01*
X110586994Y-86025000D01*
X110671224Y-85968720D01*
X110768726Y-85871218D01*
X110845332Y-85756568D01*
X110898099Y-85629176D01*
X110925000Y-85493938D01*
X110925000Y-85356050D01*
X110898099Y-85220812D01*
X110845332Y-85093420D01*
X110768726Y-84978770D01*
X110671224Y-84881268D01*
X110556574Y-84804662D01*
X110429182Y-84751895D01*
X110293944Y-84724994D01*
X110203178Y-84724994D01*
X111221862Y-83706310D01*
X111170000Y-83967037D01*
G37*
G04 #@! TD.AperFunction*
D27*
X96979159Y-84316610D02*
X96997166Y-84338552D01*
X97019106Y-84356557D01*
X97084721Y-84410406D01*
X97135805Y-84437711D01*
X97184612Y-84463799D01*
X97293000Y-84496678D01*
X97377474Y-84504998D01*
X97377476Y-84504998D01*
X97405719Y-84507780D01*
X97433962Y-84504998D01*
X97860000Y-84504998D01*
X97860000Y-84603793D01*
X97872912Y-84668710D01*
X97789525Y-84752097D01*
X97701975Y-84883125D01*
X97682085Y-84931144D01*
X97583587Y-84950736D01*
X97437996Y-85011042D01*
X97433085Y-85014323D01*
X97408951Y-84956058D01*
X97321401Y-84825030D01*
X97209970Y-84713599D01*
X97078942Y-84626049D01*
X96933351Y-84565743D01*
X96778793Y-84535000D01*
X96749999Y-84535000D01*
X96749999Y-84087450D01*
X96979159Y-84316610D01*
G04 #@! TA.AperFunction,Conductor*
D33*
G36*
X96979159Y-84316610D02*
G01*
X96997166Y-84338552D01*
X97019106Y-84356557D01*
X97084721Y-84410406D01*
X97135805Y-84437711D01*
X97184612Y-84463799D01*
X97293000Y-84496678D01*
X97377474Y-84504998D01*
X97377476Y-84504998D01*
X97405719Y-84507780D01*
X97433962Y-84504998D01*
X97860000Y-84504998D01*
X97860000Y-84603793D01*
X97872912Y-84668710D01*
X97789525Y-84752097D01*
X97701975Y-84883125D01*
X97682085Y-84931144D01*
X97583587Y-84950736D01*
X97437996Y-85011042D01*
X97433085Y-85014323D01*
X97408951Y-84956058D01*
X97321401Y-84825030D01*
X97209970Y-84713599D01*
X97078942Y-84626049D01*
X96933351Y-84565743D01*
X96778793Y-84535000D01*
X96749999Y-84535000D01*
X96749999Y-84087450D01*
X96979159Y-84316610D01*
G37*
G04 #@! TD.AperFunction*
D27*
X97696679Y-78747623D02*
X97687581Y-78840000D01*
X97687581Y-79120000D01*
X97699925Y-79245330D01*
X97736482Y-79365843D01*
X97795848Y-79476909D01*
X97875741Y-79574259D01*
X97973091Y-79654152D01*
X98084157Y-79713518D01*
X98204670Y-79750075D01*
X98330000Y-79762419D01*
X98670000Y-79762419D01*
X98795330Y-79750075D01*
X98915843Y-79713518D01*
X99026909Y-79654152D01*
X99124259Y-79574259D01*
X99198654Y-79483609D01*
X99253554Y-79438554D01*
X99271566Y-79416606D01*
X99561608Y-79126564D01*
X99583554Y-79108554D01*
X99635710Y-79045001D01*
X99655408Y-79020999D01*
X99700181Y-78937234D01*
X99706592Y-78925240D01*
X99927790Y-78925240D01*
X100025740Y-78915552D01*
X100119513Y-78887022D01*
X100141335Y-78875334D01*
X100162500Y-78877419D01*
X100337500Y-78877419D01*
X100452587Y-78866084D01*
X100500000Y-78851701D01*
X100547413Y-78866084D01*
X100662500Y-78877419D01*
X100837500Y-78877419D01*
X100952587Y-78866084D01*
X101000000Y-78851701D01*
X101047413Y-78866084D01*
X101162500Y-78877419D01*
X101295001Y-78877419D01*
X101295000Y-80144549D01*
X101254636Y-80095364D01*
X101165241Y-80022000D01*
X101063252Y-79967486D01*
X100952587Y-79933916D01*
X100837500Y-79922581D01*
X100662500Y-79922581D01*
X100547413Y-79933916D01*
X100500000Y-79948299D01*
X100452587Y-79933916D01*
X100337500Y-79922581D01*
X100162500Y-79922581D01*
X100047413Y-79933916D01*
X100000000Y-79948299D01*
X99952587Y-79933916D01*
X99837500Y-79922581D01*
X99662500Y-79922581D01*
X99547413Y-79933916D01*
X99436748Y-79967486D01*
X99334759Y-80022000D01*
X99245364Y-80095364D01*
X99172000Y-80184759D01*
X99117486Y-80286748D01*
X99083916Y-80397413D01*
X99072581Y-80512500D01*
X99072581Y-80676809D01*
X99015843Y-80646482D01*
X98895330Y-80609925D01*
X98770000Y-80597581D01*
X98430000Y-80597581D01*
X98304670Y-80609925D01*
X98184157Y-80646482D01*
X98073091Y-80705848D01*
X97975741Y-80785741D01*
X97895848Y-80883091D01*
X97836482Y-80994157D01*
X97799925Y-81114670D01*
X97787581Y-81240000D01*
X97787581Y-81520000D01*
X97799925Y-81645330D01*
X97836482Y-81765843D01*
X97895848Y-81876909D01*
X97975741Y-81974259D01*
X98073091Y-82054152D01*
X98184157Y-82113518D01*
X98304670Y-82150075D01*
X98361697Y-82155692D01*
X98346482Y-82184157D01*
X98309925Y-82304670D01*
X98297581Y-82430000D01*
X98297581Y-82675000D01*
X97838173Y-82675000D01*
X97649990Y-82486818D01*
X97649990Y-78728284D01*
X97696679Y-78747623D01*
G04 #@! TA.AperFunction,Conductor*
D33*
G36*
X97696679Y-78747623D02*
G01*
X97687581Y-78840000D01*
X97687581Y-79120000D01*
X97699925Y-79245330D01*
X97736482Y-79365843D01*
X97795848Y-79476909D01*
X97875741Y-79574259D01*
X97973091Y-79654152D01*
X98084157Y-79713518D01*
X98204670Y-79750075D01*
X98330000Y-79762419D01*
X98670000Y-79762419D01*
X98795330Y-79750075D01*
X98915843Y-79713518D01*
X99026909Y-79654152D01*
X99124259Y-79574259D01*
X99198654Y-79483609D01*
X99253554Y-79438554D01*
X99271566Y-79416606D01*
X99561608Y-79126564D01*
X99583554Y-79108554D01*
X99635710Y-79045001D01*
X99655408Y-79020999D01*
X99700181Y-78937234D01*
X99706592Y-78925240D01*
X99927790Y-78925240D01*
X100025740Y-78915552D01*
X100119513Y-78887022D01*
X100141335Y-78875334D01*
X100162500Y-78877419D01*
X100337500Y-78877419D01*
X100452587Y-78866084D01*
X100500000Y-78851701D01*
X100547413Y-78866084D01*
X100662500Y-78877419D01*
X100837500Y-78877419D01*
X100952587Y-78866084D01*
X101000000Y-78851701D01*
X101047413Y-78866084D01*
X101162500Y-78877419D01*
X101295001Y-78877419D01*
X101295000Y-80144549D01*
X101254636Y-80095364D01*
X101165241Y-80022000D01*
X101063252Y-79967486D01*
X100952587Y-79933916D01*
X100837500Y-79922581D01*
X100662500Y-79922581D01*
X100547413Y-79933916D01*
X100500000Y-79948299D01*
X100452587Y-79933916D01*
X100337500Y-79922581D01*
X100162500Y-79922581D01*
X100047413Y-79933916D01*
X100000000Y-79948299D01*
X99952587Y-79933916D01*
X99837500Y-79922581D01*
X99662500Y-79922581D01*
X99547413Y-79933916D01*
X99436748Y-79967486D01*
X99334759Y-80022000D01*
X99245364Y-80095364D01*
X99172000Y-80184759D01*
X99117486Y-80286748D01*
X99083916Y-80397413D01*
X99072581Y-80512500D01*
X99072581Y-80676809D01*
X99015843Y-80646482D01*
X98895330Y-80609925D01*
X98770000Y-80597581D01*
X98430000Y-80597581D01*
X98304670Y-80609925D01*
X98184157Y-80646482D01*
X98073091Y-80705848D01*
X97975741Y-80785741D01*
X97895848Y-80883091D01*
X97836482Y-80994157D01*
X97799925Y-81114670D01*
X97787581Y-81240000D01*
X97787581Y-81520000D01*
X97799925Y-81645330D01*
X97836482Y-81765843D01*
X97895848Y-81876909D01*
X97975741Y-81974259D01*
X98073091Y-82054152D01*
X98184157Y-82113518D01*
X98304670Y-82150075D01*
X98361697Y-82155692D01*
X98346482Y-82184157D01*
X98309925Y-82304670D01*
X98297581Y-82430000D01*
X98297581Y-82675000D01*
X97838173Y-82675000D01*
X97649990Y-82486818D01*
X97649990Y-78728284D01*
X97696679Y-78747623D01*
G37*
G04 #@! TD.AperFunction*
D27*
X111320000Y-62756929D02*
X111320000Y-62825000D01*
X111324804Y-62873773D01*
X111339030Y-62920671D01*
X111362133Y-62963893D01*
X111393223Y-63001777D01*
X111431107Y-63032867D01*
X111474329Y-63055970D01*
X111521227Y-63070196D01*
X111570000Y-63075000D01*
X113875001Y-63075000D01*
X113875001Y-64535000D01*
X111570000Y-64535000D01*
X111521227Y-64539804D01*
X111474329Y-64554030D01*
X111431107Y-64577133D01*
X111393223Y-64608223D01*
X111362133Y-64646107D01*
X111339030Y-64689329D01*
X111324804Y-64736227D01*
X111320000Y-64785000D01*
X111320000Y-65689337D01*
X111221880Y-65926220D01*
X111170000Y-66187037D01*
X111170000Y-66452963D01*
X111221880Y-66713780D01*
X111320000Y-66950663D01*
X111320000Y-68229337D01*
X111221880Y-68466220D01*
X111170000Y-68727037D01*
X111170000Y-68992963D01*
X111221880Y-69253780D01*
X111320000Y-69490663D01*
X111320000Y-70769337D01*
X111221880Y-71006220D01*
X111170000Y-71267037D01*
X111170000Y-71532963D01*
X111221880Y-71793780D01*
X111320000Y-72030663D01*
X111320000Y-73309337D01*
X111221880Y-73546220D01*
X111170000Y-73807037D01*
X111170000Y-74072963D01*
X111221880Y-74333780D01*
X111252976Y-74408852D01*
X110863389Y-74798439D01*
X110841447Y-74816446D01*
X110823441Y-74838387D01*
X110769592Y-74904002D01*
X110716199Y-75003893D01*
X110683321Y-75112281D01*
X110672218Y-75225000D01*
X110675001Y-75253253D01*
X110675000Y-80412550D01*
X110593379Y-80494171D01*
X110571437Y-80512178D01*
X110553431Y-80534119D01*
X110499582Y-80599734D01*
X110446189Y-80699625D01*
X110429742Y-80753845D01*
X110413311Y-80808012D01*
X110412403Y-80817232D01*
X110402208Y-80920732D01*
X110404991Y-80948985D01*
X110404990Y-82032559D01*
X110063377Y-82374173D01*
X110008200Y-82429350D01*
X110008200Y-72518268D01*
X110010152Y-72518103D01*
X110175656Y-72489917D01*
X110244103Y-72473225D01*
X110334079Y-72434345D01*
X110480923Y-72352965D01*
X110550904Y-72306069D01*
X110606758Y-72261386D01*
X110661501Y-72210429D01*
X110762771Y-72100922D01*
X110795752Y-72061350D01*
X110846573Y-71977537D01*
X110911036Y-71843031D01*
X110930879Y-71795486D01*
X110954716Y-71700411D01*
X110976634Y-71552874D01*
X110982061Y-71478285D01*
X110981110Y-71052067D01*
X110976707Y-70986967D01*
X110959461Y-70857888D01*
X110925552Y-70732153D01*
X110875558Y-70611906D01*
X110810330Y-70499193D01*
X110730980Y-70395935D01*
X110638858Y-70303888D01*
X110535534Y-70224623D01*
X110422768Y-70159489D01*
X110302480Y-70109594D01*
X110176718Y-70075789D01*
X110047626Y-70058649D01*
X109982521Y-70054299D01*
X108850408Y-70052705D01*
X108785081Y-70056899D01*
X108655534Y-70073784D01*
X108529303Y-70107448D01*
X108408553Y-70157315D01*
X108295352Y-70222530D01*
X108255297Y-70253213D01*
X108254129Y-70252254D01*
X108167267Y-70205825D01*
X108073017Y-70177235D01*
X107975000Y-70167581D01*
X107325000Y-70167581D01*
X107226983Y-70177235D01*
X107132733Y-70205825D01*
X107045871Y-70252254D01*
X106969736Y-70314736D01*
X106907254Y-70390871D01*
X106860825Y-70477733D01*
X106843454Y-70535000D01*
X106712905Y-70535000D01*
X106640843Y-70496482D01*
X106520330Y-70459925D01*
X106395000Y-70447581D01*
X106055000Y-70447581D01*
X105929670Y-70459925D01*
X105809157Y-70496482D01*
X105698091Y-70555848D01*
X105600741Y-70635741D01*
X105520848Y-70733091D01*
X105461482Y-70844157D01*
X105424925Y-70964670D01*
X105412581Y-71090000D01*
X105412581Y-71370000D01*
X105424925Y-71495330D01*
X105461482Y-71615843D01*
X105520848Y-71726909D01*
X105600741Y-71824259D01*
X105698091Y-71904152D01*
X105809157Y-71963518D01*
X105929670Y-72000075D01*
X106055000Y-72012419D01*
X106395000Y-72012419D01*
X106520330Y-72000075D01*
X106640843Y-71963518D01*
X106676604Y-71944403D01*
X106669592Y-71967533D01*
X106660000Y-72065080D01*
X106660240Y-73572581D01*
X106225000Y-73572581D01*
X106087965Y-73586078D01*
X105956196Y-73626049D01*
X105834757Y-73690960D01*
X105728315Y-73778315D01*
X105706718Y-73804631D01*
X104979910Y-68191974D01*
X104979910Y-67762419D01*
X105285000Y-67762419D01*
X105390636Y-67752015D01*
X105426102Y-67868930D01*
X105485005Y-67979131D01*
X105502132Y-68000000D01*
X105485005Y-68020869D01*
X105426102Y-68131070D01*
X105389829Y-68250646D01*
X105377581Y-68375000D01*
X105377581Y-68645000D01*
X105389829Y-68769354D01*
X105426102Y-68888930D01*
X105485005Y-68999131D01*
X105506235Y-69024999D01*
X105476901Y-69095818D01*
X105450000Y-69231056D01*
X105450000Y-69368944D01*
X105476901Y-69504182D01*
X105529668Y-69631574D01*
X105606274Y-69746224D01*
X105703776Y-69843726D01*
X105818426Y-69920332D01*
X105945818Y-69973099D01*
X106081056Y-70000000D01*
X106218944Y-70000000D01*
X106354182Y-69973099D01*
X106481574Y-69920332D01*
X106596224Y-69843726D01*
X106693726Y-69746224D01*
X106744479Y-69670266D01*
X106835818Y-69708099D01*
X106857857Y-69712483D01*
X106860825Y-69722267D01*
X106907254Y-69809129D01*
X106969736Y-69885264D01*
X107045871Y-69947746D01*
X107132733Y-69994175D01*
X107226983Y-70022765D01*
X107325000Y-70032419D01*
X107975000Y-70032419D01*
X108073017Y-70022765D01*
X108167267Y-69994175D01*
X108254129Y-69947746D01*
X108330264Y-69885264D01*
X108392746Y-69809129D01*
X108439175Y-69722267D01*
X108467765Y-69628017D01*
X108477419Y-69530000D01*
X108477419Y-68588336D01*
X108503574Y-68596278D01*
X108599380Y-68615364D01*
X108697068Y-68625000D01*
X108722581Y-68625000D01*
X108722581Y-69530000D01*
X108732235Y-69628017D01*
X108760825Y-69722267D01*
X108807254Y-69809129D01*
X108869736Y-69885264D01*
X108945871Y-69947746D01*
X109032733Y-69994175D01*
X109126983Y-70022765D01*
X109225000Y-70032419D01*
X109875000Y-70032419D01*
X109973017Y-70022765D01*
X110067267Y-69994175D01*
X110154129Y-69947746D01*
X110230264Y-69885264D01*
X110292746Y-69809129D01*
X110339175Y-69722267D01*
X110367765Y-69628017D01*
X110377419Y-69530000D01*
X110377419Y-69327002D01*
X110418424Y-69191827D01*
X110430000Y-69074293D01*
X110430000Y-68622045D01*
X110497544Y-68615393D01*
X110593215Y-68596363D01*
X110687012Y-68567910D01*
X110773455Y-68521706D01*
X110854561Y-68467513D01*
X110930331Y-68405329D01*
X110992513Y-68329561D01*
X111046706Y-68248455D01*
X111092910Y-68162012D01*
X111121363Y-68068215D01*
X111140393Y-67972544D01*
X111150000Y-67875000D01*
X111150000Y-62756721D01*
X111320000Y-62756929D01*
G04 #@! TA.AperFunction,Conductor*
D33*
G36*
X111320000Y-62756929D02*
G01*
X111320000Y-62825000D01*
X111324804Y-62873773D01*
X111339030Y-62920671D01*
X111362133Y-62963893D01*
X111393223Y-63001777D01*
X111431107Y-63032867D01*
X111474329Y-63055970D01*
X111521227Y-63070196D01*
X111570000Y-63075000D01*
X113875001Y-63075000D01*
X113875001Y-64535000D01*
X111570000Y-64535000D01*
X111521227Y-64539804D01*
X111474329Y-64554030D01*
X111431107Y-64577133D01*
X111393223Y-64608223D01*
X111362133Y-64646107D01*
X111339030Y-64689329D01*
X111324804Y-64736227D01*
X111320000Y-64785000D01*
X111320000Y-65689337D01*
X111221880Y-65926220D01*
X111170000Y-66187037D01*
X111170000Y-66452963D01*
X111221880Y-66713780D01*
X111320000Y-66950663D01*
X111320000Y-68229337D01*
X111221880Y-68466220D01*
X111170000Y-68727037D01*
X111170000Y-68992963D01*
X111221880Y-69253780D01*
X111320000Y-69490663D01*
X111320000Y-70769337D01*
X111221880Y-71006220D01*
X111170000Y-71267037D01*
X111170000Y-71532963D01*
X111221880Y-71793780D01*
X111320000Y-72030663D01*
X111320000Y-73309337D01*
X111221880Y-73546220D01*
X111170000Y-73807037D01*
X111170000Y-74072963D01*
X111221880Y-74333780D01*
X111252976Y-74408852D01*
X110863389Y-74798439D01*
X110841447Y-74816446D01*
X110823441Y-74838387D01*
X110769592Y-74904002D01*
X110716199Y-75003893D01*
X110683321Y-75112281D01*
X110672218Y-75225000D01*
X110675001Y-75253253D01*
X110675000Y-80412550D01*
X110593379Y-80494171D01*
X110571437Y-80512178D01*
X110553431Y-80534119D01*
X110499582Y-80599734D01*
X110446189Y-80699625D01*
X110429742Y-80753845D01*
X110413311Y-80808012D01*
X110412403Y-80817232D01*
X110402208Y-80920732D01*
X110404991Y-80948985D01*
X110404990Y-82032559D01*
X110063377Y-82374173D01*
X110008200Y-82429350D01*
X110008200Y-72518268D01*
X110010152Y-72518103D01*
X110175656Y-72489917D01*
X110244103Y-72473225D01*
X110334079Y-72434345D01*
X110480923Y-72352965D01*
X110550904Y-72306069D01*
X110606758Y-72261386D01*
X110661501Y-72210429D01*
X110762771Y-72100922D01*
X110795752Y-72061350D01*
X110846573Y-71977537D01*
X110911036Y-71843031D01*
X110930879Y-71795486D01*
X110954716Y-71700411D01*
X110976634Y-71552874D01*
X110982061Y-71478285D01*
X110981110Y-71052067D01*
X110976707Y-70986967D01*
X110959461Y-70857888D01*
X110925552Y-70732153D01*
X110875558Y-70611906D01*
X110810330Y-70499193D01*
X110730980Y-70395935D01*
X110638858Y-70303888D01*
X110535534Y-70224623D01*
X110422768Y-70159489D01*
X110302480Y-70109594D01*
X110176718Y-70075789D01*
X110047626Y-70058649D01*
X109982521Y-70054299D01*
X108850408Y-70052705D01*
X108785081Y-70056899D01*
X108655534Y-70073784D01*
X108529303Y-70107448D01*
X108408553Y-70157315D01*
X108295352Y-70222530D01*
X108255297Y-70253213D01*
X108254129Y-70252254D01*
X108167267Y-70205825D01*
X108073017Y-70177235D01*
X107975000Y-70167581D01*
X107325000Y-70167581D01*
X107226983Y-70177235D01*
X107132733Y-70205825D01*
X107045871Y-70252254D01*
X106969736Y-70314736D01*
X106907254Y-70390871D01*
X106860825Y-70477733D01*
X106843454Y-70535000D01*
X106712905Y-70535000D01*
X106640843Y-70496482D01*
X106520330Y-70459925D01*
X106395000Y-70447581D01*
X106055000Y-70447581D01*
X105929670Y-70459925D01*
X105809157Y-70496482D01*
X105698091Y-70555848D01*
X105600741Y-70635741D01*
X105520848Y-70733091D01*
X105461482Y-70844157D01*
X105424925Y-70964670D01*
X105412581Y-71090000D01*
X105412581Y-71370000D01*
X105424925Y-71495330D01*
X105461482Y-71615843D01*
X105520848Y-71726909D01*
X105600741Y-71824259D01*
X105698091Y-71904152D01*
X105809157Y-71963518D01*
X105929670Y-72000075D01*
X106055000Y-72012419D01*
X106395000Y-72012419D01*
X106520330Y-72000075D01*
X106640843Y-71963518D01*
X106676604Y-71944403D01*
X106669592Y-71967533D01*
X106660000Y-72065080D01*
X106660240Y-73572581D01*
X106225000Y-73572581D01*
X106087965Y-73586078D01*
X105956196Y-73626049D01*
X105834757Y-73690960D01*
X105728315Y-73778315D01*
X105706718Y-73804631D01*
X104979910Y-68191974D01*
X104979910Y-67762419D01*
X105285000Y-67762419D01*
X105390636Y-67752015D01*
X105426102Y-67868930D01*
X105485005Y-67979131D01*
X105502132Y-68000000D01*
X105485005Y-68020869D01*
X105426102Y-68131070D01*
X105389829Y-68250646D01*
X105377581Y-68375000D01*
X105377581Y-68645000D01*
X105389829Y-68769354D01*
X105426102Y-68888930D01*
X105485005Y-68999131D01*
X105506235Y-69024999D01*
X105476901Y-69095818D01*
X105450000Y-69231056D01*
X105450000Y-69368944D01*
X105476901Y-69504182D01*
X105529668Y-69631574D01*
X105606274Y-69746224D01*
X105703776Y-69843726D01*
X105818426Y-69920332D01*
X105945818Y-69973099D01*
X106081056Y-70000000D01*
X106218944Y-70000000D01*
X106354182Y-69973099D01*
X106481574Y-69920332D01*
X106596224Y-69843726D01*
X106693726Y-69746224D01*
X106744479Y-69670266D01*
X106835818Y-69708099D01*
X106857857Y-69712483D01*
X106860825Y-69722267D01*
X106907254Y-69809129D01*
X106969736Y-69885264D01*
X107045871Y-69947746D01*
X107132733Y-69994175D01*
X107226983Y-70022765D01*
X107325000Y-70032419D01*
X107975000Y-70032419D01*
X108073017Y-70022765D01*
X108167267Y-69994175D01*
X108254129Y-69947746D01*
X108330264Y-69885264D01*
X108392746Y-69809129D01*
X108439175Y-69722267D01*
X108467765Y-69628017D01*
X108477419Y-69530000D01*
X108477419Y-68588336D01*
X108503574Y-68596278D01*
X108599380Y-68615364D01*
X108697068Y-68625000D01*
X108722581Y-68625000D01*
X108722581Y-69530000D01*
X108732235Y-69628017D01*
X108760825Y-69722267D01*
X108807254Y-69809129D01*
X108869736Y-69885264D01*
X108945871Y-69947746D01*
X109032733Y-69994175D01*
X109126983Y-70022765D01*
X109225000Y-70032419D01*
X109875000Y-70032419D01*
X109973017Y-70022765D01*
X110067267Y-69994175D01*
X110154129Y-69947746D01*
X110230264Y-69885264D01*
X110292746Y-69809129D01*
X110339175Y-69722267D01*
X110367765Y-69628017D01*
X110377419Y-69530000D01*
X110377419Y-69327002D01*
X110418424Y-69191827D01*
X110430000Y-69074293D01*
X110430000Y-68622045D01*
X110497544Y-68615393D01*
X110593215Y-68596363D01*
X110687012Y-68567910D01*
X110773455Y-68521706D01*
X110854561Y-68467513D01*
X110930331Y-68405329D01*
X110992513Y-68329561D01*
X111046706Y-68248455D01*
X111092910Y-68162012D01*
X111121363Y-68068215D01*
X111140393Y-67972544D01*
X111150000Y-67875000D01*
X111150000Y-62756721D01*
X111320000Y-62756929D01*
G37*
G04 #@! TD.AperFunction*
D27*
X106060869Y-79474995D02*
X106171070Y-79533898D01*
X106290646Y-79570171D01*
X106415000Y-79582419D01*
X106661199Y-79582419D01*
X106661240Y-79839288D01*
X106659910Y-80392634D01*
X106201820Y-80388951D01*
X106100255Y-80398542D01*
X106006458Y-80426995D01*
X105920015Y-80473200D01*
X105844247Y-80535382D01*
X105793201Y-80597581D01*
X105709000Y-80597581D01*
X105709000Y-79811875D01*
X105745679Y-79624946D01*
X105839131Y-79574995D01*
X105935723Y-79495723D01*
X105996254Y-79421966D01*
X106060869Y-79474995D01*
G04 #@! TA.AperFunction,Conductor*
D33*
G36*
X106060869Y-79474995D02*
G01*
X106171070Y-79533898D01*
X106290646Y-79570171D01*
X106415000Y-79582419D01*
X106661199Y-79582419D01*
X106661240Y-79839288D01*
X106659910Y-80392634D01*
X106201820Y-80388951D01*
X106100255Y-80398542D01*
X106006458Y-80426995D01*
X105920015Y-80473200D01*
X105844247Y-80535382D01*
X105793201Y-80597581D01*
X105709000Y-80597581D01*
X105709000Y-79811875D01*
X105745679Y-79624946D01*
X105839131Y-79574995D01*
X105935723Y-79495723D01*
X105996254Y-79421966D01*
X106060869Y-79474995D01*
G37*
G04 #@! TD.AperFunction*
D27*
X100234093Y-62834181D02*
X100119181Y-62949093D01*
X100028894Y-63084216D01*
X99966704Y-63234356D01*
X99935000Y-63393745D01*
X99935000Y-63556255D01*
X99966704Y-63715644D01*
X100028894Y-63865784D01*
X100119181Y-64000907D01*
X100234093Y-64115819D01*
X100369216Y-64206106D01*
X100397581Y-64217855D01*
X100397581Y-65645000D01*
X100407235Y-65743017D01*
X100435825Y-65837267D01*
X100482254Y-65924129D01*
X100544736Y-66000264D01*
X100620871Y-66062746D01*
X100707733Y-66109175D01*
X100801983Y-66137765D01*
X100900000Y-66147419D01*
X101300001Y-66147419D01*
X101300001Y-66697114D01*
X101289829Y-66730646D01*
X101277581Y-66855000D01*
X101277581Y-67125000D01*
X101289829Y-67249354D01*
X101326102Y-67368930D01*
X101348754Y-67411310D01*
X101332229Y-67402477D01*
X101196943Y-67361438D01*
X101056250Y-67347581D01*
X100543750Y-67347581D01*
X100403057Y-67361438D01*
X100267771Y-67402477D01*
X100143090Y-67469120D01*
X100033807Y-67558807D01*
X99944120Y-67668090D01*
X99877477Y-67792771D01*
X99836438Y-67928057D01*
X99822581Y-68068750D01*
X99822581Y-68506250D01*
X99836438Y-68646943D01*
X99877477Y-68782229D01*
X99944120Y-68906910D01*
X100033807Y-69016193D01*
X100100000Y-69070517D01*
X100100000Y-69168942D01*
X100126901Y-69304180D01*
X100179668Y-69431572D01*
X100256274Y-69546222D01*
X100353776Y-69643724D01*
X100468426Y-69720330D01*
X100595818Y-69773097D01*
X100731056Y-69799998D01*
X100868944Y-69799998D01*
X101004182Y-69773097D01*
X101131574Y-69720330D01*
X101246224Y-69643724D01*
X101343726Y-69546222D01*
X101420332Y-69431572D01*
X101473099Y-69304180D01*
X101500000Y-69168942D01*
X101500000Y-69070517D01*
X101566193Y-69016193D01*
X101655880Y-68906910D01*
X101722523Y-68782229D01*
X101763562Y-68646943D01*
X101777419Y-68506250D01*
X101777419Y-68068750D01*
X101763562Y-67928057D01*
X101722523Y-67792771D01*
X101682163Y-67717263D01*
X101790646Y-67750171D01*
X101915000Y-67762419D01*
X102129910Y-67762419D01*
X102129910Y-68275854D01*
X102127539Y-68290146D01*
X102129910Y-68364335D01*
X102129910Y-68394206D01*
X102131323Y-68408555D01*
X102131783Y-68422941D01*
X102135653Y-68452517D01*
X102142933Y-68526430D01*
X102147140Y-68540298D01*
X103380748Y-77967568D01*
X103388023Y-78041430D01*
X103405095Y-78097707D01*
X103418412Y-78155024D01*
X103430779Y-78182376D01*
X103439487Y-78211081D01*
X103467208Y-78262945D01*
X103491452Y-78316563D01*
X103508915Y-78340973D01*
X103523057Y-78367431D01*
X103560369Y-78412896D01*
X103576909Y-78436016D01*
X103526102Y-78531070D01*
X103489829Y-78650646D01*
X103477581Y-78775000D01*
X103477581Y-79045000D01*
X103489829Y-79169354D01*
X103526102Y-79288930D01*
X103585005Y-79399131D01*
X103664277Y-79495723D01*
X103760869Y-79574995D01*
X103871070Y-79633898D01*
X103990646Y-79670171D01*
X104115000Y-79682419D01*
X104275001Y-79682419D01*
X104275001Y-79997581D01*
X104030000Y-79997581D01*
X103904670Y-80009925D01*
X103784157Y-80046482D01*
X103725000Y-80078102D01*
X103665843Y-80046482D01*
X103545330Y-80009925D01*
X103420000Y-79997581D01*
X103145000Y-79997581D01*
X103145000Y-78188070D01*
X103147782Y-78159827D01*
X103145000Y-78131582D01*
X103136680Y-78047108D01*
X103103801Y-77938720D01*
X103078225Y-77890871D01*
X103050408Y-77838829D01*
X102996559Y-77773214D01*
X102978554Y-77751274D01*
X102956612Y-77733267D01*
X102084726Y-76861382D01*
X102066715Y-76839435D01*
X101979159Y-76767581D01*
X101879269Y-76714188D01*
X101770881Y-76681309D01*
X101725000Y-76676790D01*
X101725000Y-76646207D01*
X101694257Y-76491649D01*
X101633951Y-76346058D01*
X101546401Y-76215030D01*
X101434970Y-76103599D01*
X101303942Y-76016049D01*
X101158351Y-75955743D01*
X101003793Y-75925000D01*
X100846207Y-75925000D01*
X100691649Y-75955743D01*
X100546058Y-76016049D01*
X100415030Y-76103599D01*
X100303599Y-76215030D01*
X100216049Y-76346058D01*
X100197741Y-76390257D01*
X100115843Y-76346482D01*
X99995330Y-76309925D01*
X99870000Y-76297581D01*
X99530000Y-76297581D01*
X99407530Y-76309643D01*
X99412419Y-76260000D01*
X99412419Y-75980000D01*
X99400075Y-75854670D01*
X99363518Y-75734157D01*
X99304152Y-75623091D01*
X99287000Y-75602191D01*
X99287000Y-75501139D01*
X99300000Y-75502419D01*
X100900000Y-75502419D01*
X101037035Y-75488922D01*
X101168804Y-75448951D01*
X101290243Y-75384040D01*
X101396685Y-75296685D01*
X101484040Y-75190243D01*
X101548951Y-75068804D01*
X101588922Y-74937035D01*
X101602419Y-74800000D01*
X101602419Y-74400000D01*
X101588922Y-74262965D01*
X101548951Y-74131196D01*
X101484040Y-74009757D01*
X101396685Y-73903315D01*
X101290243Y-73815960D01*
X101168804Y-73751049D01*
X101037035Y-73711078D01*
X100900000Y-73697581D01*
X99300000Y-73697581D01*
X99162965Y-73711078D01*
X99031196Y-73751049D01*
X98909757Y-73815960D01*
X98803315Y-73903315D01*
X98715960Y-74009757D01*
X98659057Y-74116215D01*
X98645045Y-74123704D01*
X98553683Y-74198683D01*
X98534887Y-74221586D01*
X98283582Y-74472891D01*
X98260684Y-74491683D01*
X98185705Y-74583045D01*
X98163280Y-74625000D01*
X98129991Y-74687279D01*
X98095682Y-74800380D01*
X98084097Y-74918000D01*
X98087001Y-74947483D01*
X98087001Y-75438413D01*
X98073091Y-75445848D01*
X97975741Y-75525741D01*
X97895848Y-75623091D01*
X97836482Y-75734157D01*
X97799925Y-75854670D01*
X97787581Y-75980000D01*
X97787581Y-76260000D01*
X97799925Y-76385330D01*
X97836482Y-76505843D01*
X97886810Y-76600000D01*
X97836482Y-76694157D01*
X97799925Y-76814670D01*
X97787581Y-76940000D01*
X97787581Y-77220000D01*
X97799925Y-77345330D01*
X97810299Y-77379529D01*
X97697828Y-77401901D01*
X97649990Y-77421716D01*
X97649990Y-66348939D01*
X97749070Y-66401898D01*
X97868646Y-66438171D01*
X97993000Y-66450419D01*
X98126849Y-66450419D01*
X98122581Y-66493750D01*
X98122581Y-66931250D01*
X98136438Y-67071943D01*
X98177477Y-67207229D01*
X98244120Y-67331910D01*
X98333807Y-67441193D01*
X98443090Y-67530880D01*
X98567771Y-67597523D01*
X98703057Y-67638562D01*
X98843750Y-67652419D01*
X99356250Y-67652419D01*
X99496943Y-67638562D01*
X99632229Y-67597523D01*
X99756910Y-67530880D01*
X99866193Y-67441193D01*
X99955880Y-67331910D01*
X100022523Y-67207229D01*
X100063562Y-67071943D01*
X100077419Y-66931250D01*
X100077419Y-66493750D01*
X100063562Y-66353057D01*
X100022523Y-66217771D01*
X99955880Y-66093090D01*
X99866193Y-65983807D01*
X99756910Y-65894120D01*
X99632229Y-65827477D01*
X99496943Y-65786438D01*
X99356250Y-65772581D01*
X99069491Y-65772581D01*
X99000419Y-65703510D01*
X99000419Y-65543000D01*
X98988171Y-65418646D01*
X98951898Y-65299070D01*
X98892995Y-65188869D01*
X98875868Y-65168000D01*
X98892995Y-65147131D01*
X98951898Y-65036930D01*
X98988171Y-64917354D01*
X99000419Y-64793000D01*
X99000419Y-64523000D01*
X98988171Y-64398646D01*
X98951898Y-64279070D01*
X98892995Y-64168869D01*
X98813723Y-64072277D01*
X98741500Y-64013004D01*
X98741500Y-63040409D01*
X98993410Y-62788500D01*
X100302459Y-62788500D01*
X100234093Y-62834181D01*
G04 #@! TA.AperFunction,Conductor*
D33*
G36*
X100234093Y-62834181D02*
G01*
X100119181Y-62949093D01*
X100028894Y-63084216D01*
X99966704Y-63234356D01*
X99935000Y-63393745D01*
X99935000Y-63556255D01*
X99966704Y-63715644D01*
X100028894Y-63865784D01*
X100119181Y-64000907D01*
X100234093Y-64115819D01*
X100369216Y-64206106D01*
X100397581Y-64217855D01*
X100397581Y-65645000D01*
X100407235Y-65743017D01*
X100435825Y-65837267D01*
X100482254Y-65924129D01*
X100544736Y-66000264D01*
X100620871Y-66062746D01*
X100707733Y-66109175D01*
X100801983Y-66137765D01*
X100900000Y-66147419D01*
X101300001Y-66147419D01*
X101300001Y-66697114D01*
X101289829Y-66730646D01*
X101277581Y-66855000D01*
X101277581Y-67125000D01*
X101289829Y-67249354D01*
X101326102Y-67368930D01*
X101348754Y-67411310D01*
X101332229Y-67402477D01*
X101196943Y-67361438D01*
X101056250Y-67347581D01*
X100543750Y-67347581D01*
X100403057Y-67361438D01*
X100267771Y-67402477D01*
X100143090Y-67469120D01*
X100033807Y-67558807D01*
X99944120Y-67668090D01*
X99877477Y-67792771D01*
X99836438Y-67928057D01*
X99822581Y-68068750D01*
X99822581Y-68506250D01*
X99836438Y-68646943D01*
X99877477Y-68782229D01*
X99944120Y-68906910D01*
X100033807Y-69016193D01*
X100100000Y-69070517D01*
X100100000Y-69168942D01*
X100126901Y-69304180D01*
X100179668Y-69431572D01*
X100256274Y-69546222D01*
X100353776Y-69643724D01*
X100468426Y-69720330D01*
X100595818Y-69773097D01*
X100731056Y-69799998D01*
X100868944Y-69799998D01*
X101004182Y-69773097D01*
X101131574Y-69720330D01*
X101246224Y-69643724D01*
X101343726Y-69546222D01*
X101420332Y-69431572D01*
X101473099Y-69304180D01*
X101500000Y-69168942D01*
X101500000Y-69070517D01*
X101566193Y-69016193D01*
X101655880Y-68906910D01*
X101722523Y-68782229D01*
X101763562Y-68646943D01*
X101777419Y-68506250D01*
X101777419Y-68068750D01*
X101763562Y-67928057D01*
X101722523Y-67792771D01*
X101682163Y-67717263D01*
X101790646Y-67750171D01*
X101915000Y-67762419D01*
X102129910Y-67762419D01*
X102129910Y-68275854D01*
X102127539Y-68290146D01*
X102129910Y-68364335D01*
X102129910Y-68394206D01*
X102131323Y-68408555D01*
X102131783Y-68422941D01*
X102135653Y-68452517D01*
X102142933Y-68526430D01*
X102147140Y-68540298D01*
X103380748Y-77967568D01*
X103388023Y-78041430D01*
X103405095Y-78097707D01*
X103418412Y-78155024D01*
X103430779Y-78182376D01*
X103439487Y-78211081D01*
X103467208Y-78262945D01*
X103491452Y-78316563D01*
X103508915Y-78340973D01*
X103523057Y-78367431D01*
X103560369Y-78412896D01*
X103576909Y-78436016D01*
X103526102Y-78531070D01*
X103489829Y-78650646D01*
X103477581Y-78775000D01*
X103477581Y-79045000D01*
X103489829Y-79169354D01*
X103526102Y-79288930D01*
X103585005Y-79399131D01*
X103664277Y-79495723D01*
X103760869Y-79574995D01*
X103871070Y-79633898D01*
X103990646Y-79670171D01*
X104115000Y-79682419D01*
X104275001Y-79682419D01*
X104275001Y-79997581D01*
X104030000Y-79997581D01*
X103904670Y-80009925D01*
X103784157Y-80046482D01*
X103725000Y-80078102D01*
X103665843Y-80046482D01*
X103545330Y-80009925D01*
X103420000Y-79997581D01*
X103145000Y-79997581D01*
X103145000Y-78188070D01*
X103147782Y-78159827D01*
X103145000Y-78131582D01*
X103136680Y-78047108D01*
X103103801Y-77938720D01*
X103078225Y-77890871D01*
X103050408Y-77838829D01*
X102996559Y-77773214D01*
X102978554Y-77751274D01*
X102956612Y-77733267D01*
X102084726Y-76861382D01*
X102066715Y-76839435D01*
X101979159Y-76767581D01*
X101879269Y-76714188D01*
X101770881Y-76681309D01*
X101725000Y-76676790D01*
X101725000Y-76646207D01*
X101694257Y-76491649D01*
X101633951Y-76346058D01*
X101546401Y-76215030D01*
X101434970Y-76103599D01*
X101303942Y-76016049D01*
X101158351Y-75955743D01*
X101003793Y-75925000D01*
X100846207Y-75925000D01*
X100691649Y-75955743D01*
X100546058Y-76016049D01*
X100415030Y-76103599D01*
X100303599Y-76215030D01*
X100216049Y-76346058D01*
X100197741Y-76390257D01*
X100115843Y-76346482D01*
X99995330Y-76309925D01*
X99870000Y-76297581D01*
X99530000Y-76297581D01*
X99407530Y-76309643D01*
X99412419Y-76260000D01*
X99412419Y-75980000D01*
X99400075Y-75854670D01*
X99363518Y-75734157D01*
X99304152Y-75623091D01*
X99287000Y-75602191D01*
X99287000Y-75501139D01*
X99300000Y-75502419D01*
X100900000Y-75502419D01*
X101037035Y-75488922D01*
X101168804Y-75448951D01*
X101290243Y-75384040D01*
X101396685Y-75296685D01*
X101484040Y-75190243D01*
X101548951Y-75068804D01*
X101588922Y-74937035D01*
X101602419Y-74800000D01*
X101602419Y-74400000D01*
X101588922Y-74262965D01*
X101548951Y-74131196D01*
X101484040Y-74009757D01*
X101396685Y-73903315D01*
X101290243Y-73815960D01*
X101168804Y-73751049D01*
X101037035Y-73711078D01*
X100900000Y-73697581D01*
X99300000Y-73697581D01*
X99162965Y-73711078D01*
X99031196Y-73751049D01*
X98909757Y-73815960D01*
X98803315Y-73903315D01*
X98715960Y-74009757D01*
X98659057Y-74116215D01*
X98645045Y-74123704D01*
X98553683Y-74198683D01*
X98534887Y-74221586D01*
X98283582Y-74472891D01*
X98260684Y-74491683D01*
X98185705Y-74583045D01*
X98163280Y-74625000D01*
X98129991Y-74687279D01*
X98095682Y-74800380D01*
X98084097Y-74918000D01*
X98087001Y-74947483D01*
X98087001Y-75438413D01*
X98073091Y-75445848D01*
X97975741Y-75525741D01*
X97895848Y-75623091D01*
X97836482Y-75734157D01*
X97799925Y-75854670D01*
X97787581Y-75980000D01*
X97787581Y-76260000D01*
X97799925Y-76385330D01*
X97836482Y-76505843D01*
X97886810Y-76600000D01*
X97836482Y-76694157D01*
X97799925Y-76814670D01*
X97787581Y-76940000D01*
X97787581Y-77220000D01*
X97799925Y-77345330D01*
X97810299Y-77379529D01*
X97697828Y-77401901D01*
X97649990Y-77421716D01*
X97649990Y-66348939D01*
X97749070Y-66401898D01*
X97868646Y-66438171D01*
X97993000Y-66450419D01*
X98126849Y-66450419D01*
X98122581Y-66493750D01*
X98122581Y-66931250D01*
X98136438Y-67071943D01*
X98177477Y-67207229D01*
X98244120Y-67331910D01*
X98333807Y-67441193D01*
X98443090Y-67530880D01*
X98567771Y-67597523D01*
X98703057Y-67638562D01*
X98843750Y-67652419D01*
X99356250Y-67652419D01*
X99496943Y-67638562D01*
X99632229Y-67597523D01*
X99756910Y-67530880D01*
X99866193Y-67441193D01*
X99955880Y-67331910D01*
X100022523Y-67207229D01*
X100063562Y-67071943D01*
X100077419Y-66931250D01*
X100077419Y-66493750D01*
X100063562Y-66353057D01*
X100022523Y-66217771D01*
X99955880Y-66093090D01*
X99866193Y-65983807D01*
X99756910Y-65894120D01*
X99632229Y-65827477D01*
X99496943Y-65786438D01*
X99356250Y-65772581D01*
X99069491Y-65772581D01*
X99000419Y-65703510D01*
X99000419Y-65543000D01*
X98988171Y-65418646D01*
X98951898Y-65299070D01*
X98892995Y-65188869D01*
X98875868Y-65168000D01*
X98892995Y-65147131D01*
X98951898Y-65036930D01*
X98988171Y-64917354D01*
X99000419Y-64793000D01*
X99000419Y-64523000D01*
X98988171Y-64398646D01*
X98951898Y-64279070D01*
X98892995Y-64168869D01*
X98813723Y-64072277D01*
X98741500Y-64013004D01*
X98741500Y-63040409D01*
X98993410Y-62788500D01*
X100302459Y-62788500D01*
X100234093Y-62834181D01*
G37*
G04 #@! TD.AperFunction*
D27*
X95899970Y-77302637D02*
X95868893Y-77277133D01*
X95825671Y-77254030D01*
X95778773Y-77239804D01*
X95730000Y-77235000D01*
X93425000Y-77235000D01*
X93425000Y-75775000D01*
X95730000Y-75775000D01*
X95778773Y-75770196D01*
X95825671Y-75755970D01*
X95868893Y-75732867D01*
X95899971Y-75707363D01*
X95899970Y-77302637D01*
G04 #@! TA.AperFunction,Conductor*
D33*
G36*
X95899970Y-77302637D02*
G01*
X95868893Y-77277133D01*
X95825671Y-77254030D01*
X95778773Y-77239804D01*
X95730000Y-77235000D01*
X93425000Y-77235000D01*
X93425000Y-75775000D01*
X95730000Y-75775000D01*
X95778773Y-75770196D01*
X95825671Y-75755970D01*
X95868893Y-75732867D01*
X95899971Y-75707363D01*
X95899970Y-77302637D01*
G37*
G04 #@! TD.AperFunction*
D27*
X113875001Y-77235000D02*
X111825000Y-77235000D01*
X111825000Y-75775000D01*
X113875001Y-75775000D01*
X113875001Y-77235000D01*
G04 #@! TA.AperFunction,Conductor*
D33*
G36*
X113875001Y-77235000D02*
G01*
X111825000Y-77235000D01*
X111825000Y-75775000D01*
X113875001Y-75775000D01*
X113875001Y-77235000D01*
G37*
G04 #@! TD.AperFunction*
D27*
X108465600Y-66165927D02*
X108412944Y-66181866D01*
X108326460Y-66227995D01*
X108245426Y-66282037D01*
X108169810Y-66343945D01*
X108107518Y-66419622D01*
X108053286Y-66500529D01*
X108007067Y-66586634D01*
X107978421Y-66680372D01*
X107959223Y-66775863D01*
X107949416Y-66873241D01*
X107947070Y-67873241D01*
X107956153Y-67967581D01*
X107325000Y-67967581D01*
X107226983Y-67977235D01*
X107132733Y-68005825D01*
X107045871Y-68052254D01*
X106969736Y-68114736D01*
X106966969Y-68118107D01*
X106914995Y-68020869D01*
X106897868Y-68000000D01*
X106914995Y-67979131D01*
X106973898Y-67868930D01*
X107010171Y-67749354D01*
X107022419Y-67625000D01*
X107022419Y-67355000D01*
X107010171Y-67230646D01*
X106973898Y-67111070D01*
X106914995Y-67000869D01*
X106835723Y-66904277D01*
X106800000Y-66874960D01*
X106800000Y-65945753D01*
X106817746Y-65924129D01*
X106864175Y-65837267D01*
X106892765Y-65743017D01*
X106902419Y-65645000D01*
X106902419Y-65402199D01*
X106921227Y-65340302D01*
X106940347Y-65244414D01*
X106950000Y-65146639D01*
X106950000Y-64193266D01*
X107065907Y-64115819D01*
X107180819Y-64000907D01*
X107271106Y-63865784D01*
X107333296Y-63715644D01*
X107365000Y-63556255D01*
X107365000Y-63393745D01*
X107333296Y-63234356D01*
X107271106Y-63084216D01*
X107180819Y-62949093D01*
X107065907Y-62834181D01*
X106950000Y-62756734D01*
X106950000Y-62648920D01*
X107350000Y-62648920D01*
X107447544Y-62639313D01*
X107543215Y-62620283D01*
X107637012Y-62591830D01*
X107723455Y-62545626D01*
X107804561Y-62491433D01*
X107880331Y-62429249D01*
X107942513Y-62353481D01*
X107996706Y-62272375D01*
X108042910Y-62185932D01*
X108071363Y-62092135D01*
X108090393Y-61996464D01*
X108100000Y-61898920D01*
X108100000Y-60992840D01*
X108465600Y-60992840D01*
X108465600Y-66165927D01*
G04 #@! TA.AperFunction,Conductor*
D33*
G36*
X108465600Y-66165927D02*
G01*
X108412944Y-66181866D01*
X108326460Y-66227995D01*
X108245426Y-66282037D01*
X108169810Y-66343945D01*
X108107518Y-66419622D01*
X108053286Y-66500529D01*
X108007067Y-66586634D01*
X107978421Y-66680372D01*
X107959223Y-66775863D01*
X107949416Y-66873241D01*
X107947070Y-67873241D01*
X107956153Y-67967581D01*
X107325000Y-67967581D01*
X107226983Y-67977235D01*
X107132733Y-68005825D01*
X107045871Y-68052254D01*
X106969736Y-68114736D01*
X106966969Y-68118107D01*
X106914995Y-68020869D01*
X106897868Y-68000000D01*
X106914995Y-67979131D01*
X106973898Y-67868930D01*
X107010171Y-67749354D01*
X107022419Y-67625000D01*
X107022419Y-67355000D01*
X107010171Y-67230646D01*
X106973898Y-67111070D01*
X106914995Y-67000869D01*
X106835723Y-66904277D01*
X106800000Y-66874960D01*
X106800000Y-65945753D01*
X106817746Y-65924129D01*
X106864175Y-65837267D01*
X106892765Y-65743017D01*
X106902419Y-65645000D01*
X106902419Y-65402199D01*
X106921227Y-65340302D01*
X106940347Y-65244414D01*
X106950000Y-65146639D01*
X106950000Y-64193266D01*
X107065907Y-64115819D01*
X107180819Y-64000907D01*
X107271106Y-63865784D01*
X107333296Y-63715644D01*
X107365000Y-63556255D01*
X107365000Y-63393745D01*
X107333296Y-63234356D01*
X107271106Y-63084216D01*
X107180819Y-62949093D01*
X107065907Y-62834181D01*
X106950000Y-62756734D01*
X106950000Y-62648920D01*
X107350000Y-62648920D01*
X107447544Y-62639313D01*
X107543215Y-62620283D01*
X107637012Y-62591830D01*
X107723455Y-62545626D01*
X107804561Y-62491433D01*
X107880331Y-62429249D01*
X107942513Y-62353481D01*
X107996706Y-62272375D01*
X108042910Y-62185932D01*
X108071363Y-62092135D01*
X108090393Y-61996464D01*
X108100000Y-61898920D01*
X108100000Y-60992840D01*
X108465600Y-60992840D01*
X108465600Y-66165927D01*
G37*
G04 #@! TD.AperFunction*
D27*
X96199980Y-63628153D02*
X96199980Y-67081808D01*
X95980000Y-66861828D01*
X95980000Y-66697526D01*
X95998120Y-66653780D01*
X96050000Y-66392963D01*
X96050000Y-66127037D01*
X95998120Y-65866220D01*
X95980000Y-65822474D01*
X95980000Y-64785000D01*
X95975196Y-64736227D01*
X95960970Y-64689329D01*
X95937867Y-64646107D01*
X95906777Y-64608223D01*
X95868893Y-64577133D01*
X95825671Y-64554030D01*
X95778773Y-64539804D01*
X95730000Y-64535000D01*
X93425000Y-64535000D01*
X93425000Y-63075000D01*
X95646827Y-63075000D01*
X96199980Y-63628153D01*
G04 #@! TA.AperFunction,Conductor*
D33*
G36*
X96199980Y-63628153D02*
G01*
X96199980Y-67081808D01*
X95980000Y-66861828D01*
X95980000Y-66697526D01*
X95998120Y-66653780D01*
X96050000Y-66392963D01*
X96050000Y-66127037D01*
X95998120Y-65866220D01*
X95980000Y-65822474D01*
X95980000Y-64785000D01*
X95975196Y-64736227D01*
X95960970Y-64689329D01*
X95937867Y-64646107D01*
X95906777Y-64608223D01*
X95868893Y-64577133D01*
X95825671Y-64554030D01*
X95778773Y-64539804D01*
X95730000Y-64535000D01*
X93425000Y-64535000D01*
X93425000Y-63075000D01*
X95646827Y-63075000D01*
X96199980Y-63628153D01*
G37*
G04 #@! TD.AperFunction*
D27*
X101035895Y-61471702D02*
X100970155Y-61548426D01*
X100912798Y-61630974D01*
X100896345Y-61660877D01*
X100875000Y-61658775D01*
X100847330Y-61661500D01*
X98787666Y-61661500D01*
X98759999Y-61658775D01*
X98732332Y-61661500D01*
X98732323Y-61661500D01*
X98649535Y-61669654D01*
X98543315Y-61701875D01*
X98445422Y-61754200D01*
X98445420Y-61754201D01*
X98445421Y-61754201D01*
X98381115Y-61806975D01*
X98381111Y-61806979D01*
X98359618Y-61824618D01*
X98341979Y-61846111D01*
X97799111Y-62388979D01*
X97777619Y-62406618D01*
X97759980Y-62428111D01*
X97759975Y-62428116D01*
X97707201Y-62492422D01*
X97654876Y-62590315D01*
X97649990Y-62606422D01*
X97649990Y-61178232D01*
X97652772Y-61149989D01*
X97648541Y-61107037D01*
X97641670Y-61037270D01*
X97608791Y-60928882D01*
X97591454Y-60896447D01*
X97555398Y-60828991D01*
X97501549Y-60763376D01*
X97483544Y-60741436D01*
X97461602Y-60723429D01*
X95980000Y-59241828D01*
X95980000Y-59077526D01*
X95998120Y-59033780D01*
X96050000Y-58772963D01*
X96050000Y-58507037D01*
X95998120Y-58246220D01*
X95980000Y-58202474D01*
X95980000Y-57750000D01*
X104942767Y-57750000D01*
X101035895Y-61471702D01*
G04 #@! TA.AperFunction,Conductor*
D33*
G36*
X101035895Y-61471702D02*
G01*
X100970155Y-61548426D01*
X100912798Y-61630974D01*
X100896345Y-61660877D01*
X100875000Y-61658775D01*
X100847330Y-61661500D01*
X98787666Y-61661500D01*
X98759999Y-61658775D01*
X98732332Y-61661500D01*
X98732323Y-61661500D01*
X98649535Y-61669654D01*
X98543315Y-61701875D01*
X98445422Y-61754200D01*
X98445420Y-61754201D01*
X98445421Y-61754201D01*
X98381115Y-61806975D01*
X98381111Y-61806979D01*
X98359618Y-61824618D01*
X98341979Y-61846111D01*
X97799111Y-62388979D01*
X97777619Y-62406618D01*
X97759980Y-62428111D01*
X97759975Y-62428116D01*
X97707201Y-62492422D01*
X97654876Y-62590315D01*
X97649990Y-62606422D01*
X97649990Y-61178232D01*
X97652772Y-61149989D01*
X97648541Y-61107037D01*
X97641670Y-61037270D01*
X97608791Y-60928882D01*
X97591454Y-60896447D01*
X97555398Y-60828991D01*
X97501549Y-60763376D01*
X97483544Y-60741436D01*
X97461602Y-60723429D01*
X95980000Y-59241828D01*
X95980000Y-59077526D01*
X95998120Y-59033780D01*
X96050000Y-58772963D01*
X96050000Y-58507037D01*
X95998120Y-58246220D01*
X95980000Y-58202474D01*
X95980000Y-57750000D01*
X104942767Y-57750000D01*
X101035895Y-61471702D01*
G37*
G04 #@! TD.AperFunction*
D34*
X109973335Y-70681287D02*
X110077656Y-70695138D01*
X110167134Y-70732253D01*
X110243981Y-70791207D01*
X110303008Y-70868018D01*
X110340193Y-70957457D01*
X110354130Y-71061765D01*
X110355041Y-71470164D01*
X110337339Y-71589323D01*
X110289432Y-71689283D01*
X110207639Y-71777729D01*
X110167603Y-71809758D01*
X110049069Y-71875448D01*
X109915474Y-71898200D01*
X109666900Y-71898200D01*
X109634030Y-71902527D01*
X109546580Y-71925959D01*
X109523280Y-71934729D01*
X109502137Y-71947876D01*
X109489647Y-71958829D01*
X109425629Y-72022847D01*
X109409835Y-72042093D01*
X109398099Y-72064049D01*
X109392759Y-72079780D01*
X109369333Y-72167209D01*
X109354714Y-72221729D01*
X109338872Y-72237555D01*
X109300504Y-72247800D01*
X108328688Y-72246785D01*
X108332959Y-72215367D01*
X108360355Y-72151519D01*
X108386648Y-72107696D01*
X108394456Y-72092433D01*
X108447567Y-71968652D01*
X108456700Y-71935682D01*
X108474843Y-71802215D01*
X108476000Y-71785108D01*
X108476000Y-71061038D01*
X108489793Y-70956363D01*
X108527011Y-70866602D01*
X108586211Y-70789545D01*
X108663351Y-70730454D01*
X108753166Y-70693362D01*
X108857857Y-70679717D01*
X109973335Y-70681287D01*
G04 #@! TA.AperFunction,Conductor*
D33*
G36*
X109973335Y-70681287D02*
G01*
X110077656Y-70695138D01*
X110167134Y-70732253D01*
X110243981Y-70791207D01*
X110303008Y-70868018D01*
X110340193Y-70957457D01*
X110354130Y-71061765D01*
X110355041Y-71470164D01*
X110337339Y-71589323D01*
X110289432Y-71689283D01*
X110207639Y-71777729D01*
X110167603Y-71809758D01*
X110049069Y-71875448D01*
X109915474Y-71898200D01*
X109666900Y-71898200D01*
X109634030Y-71902527D01*
X109546580Y-71925959D01*
X109523280Y-71934729D01*
X109502137Y-71947876D01*
X109489647Y-71958829D01*
X109425629Y-72022847D01*
X109409835Y-72042093D01*
X109398099Y-72064049D01*
X109392759Y-72079780D01*
X109369333Y-72167209D01*
X109354714Y-72221729D01*
X109338872Y-72237555D01*
X109300504Y-72247800D01*
X108328688Y-72246785D01*
X108332959Y-72215367D01*
X108360355Y-72151519D01*
X108386648Y-72107696D01*
X108394456Y-72092433D01*
X108447567Y-71968652D01*
X108456700Y-71935682D01*
X108474843Y-71802215D01*
X108476000Y-71785108D01*
X108476000Y-71061038D01*
X108489793Y-70956363D01*
X108527011Y-70866602D01*
X108586211Y-70789545D01*
X108663351Y-70730454D01*
X108753166Y-70693362D01*
X108857857Y-70679717D01*
X109973335Y-70681287D01*
G37*
G04 #@! TD.AperFunction*
M02*
