%FSLAX45Y45*%
G04 Gerber Fmt 4.5, Leading zero omitted, Abs format (unit mm)*
G04 Created by KiCad (PCBNEW (5.1.10)-1) date 2021-11-11 08:54:41*
%MOMM*%
%LPD*%
G01*
G04 APERTURE LIST*
%TA.AperFunction,Profile*%
%ADD10C,0.050000*%
%TD*%
%ADD11C,0.200000*%
%ADD12C,0.300000*%
G04 APERTURE END LIST*
D10*
X11440000Y-10802500D02*
G75*
G02*
X11390000Y-10852500I-50000J0D01*
G01*
X9340000Y-10852500D02*
G75*
G02*
X9290000Y-10802500I0J50000D01*
G01*
X9290000Y-5772500D02*
G75*
G02*
X9340000Y-5722500I50000J0D01*
G01*
X11390000Y-5722500D02*
G75*
G02*
X11440000Y-5772500I0J-50000D01*
G01*
X11440000Y-10802500D02*
X11440000Y-5772500D01*
X9340000Y-5722500D02*
X11390000Y-5722500D01*
X9290000Y-10802500D02*
X9290000Y-5772500D01*
X9340000Y-10852500D02*
X11390000Y-10852500D01*
D11*
X9614000Y-6502500D02*
X9634000Y-6522500D01*
X9634000Y-6502500D02*
X9614000Y-6522500D01*
X9686000Y-9016500D02*
X9706000Y-9036500D01*
X9706000Y-9016500D02*
X9686000Y-9036500D01*
X9752500Y-7557500D02*
X9772500Y-7577500D01*
X9772500Y-7557500D02*
X9752500Y-7577500D01*
X9758000Y-10132500D02*
X9778000Y-10152500D01*
X9778000Y-10132500D02*
X9758000Y-10152500D01*
X9780201Y-7797500D02*
X9800201Y-7817500D01*
X9800201Y-7797500D02*
X9780201Y-7817500D01*
X9895700Y-9490000D02*
X9915700Y-9510000D01*
X9915700Y-9490000D02*
X9895700Y-9510000D01*
X9975000Y-8247500D02*
X9995000Y-8267500D01*
X9995000Y-8247500D02*
X9975000Y-8267500D01*
X10035000Y-7552500D02*
X10055000Y-7572500D01*
X10055000Y-7552500D02*
X10035000Y-7572500D01*
X10070000Y-6900000D02*
X10090000Y-6920000D01*
X10090000Y-6900000D02*
X10070000Y-6920000D01*
X10070000Y-9212500D02*
X10090000Y-9232500D01*
X10090000Y-9212500D02*
X10070000Y-9232500D01*
X10102540Y-7662500D02*
X10122540Y-7682500D01*
X10122540Y-7662500D02*
X10102540Y-7682500D01*
X10102540Y-8339000D02*
X10122540Y-8359000D01*
X10122540Y-8339000D02*
X10102540Y-8359000D01*
X10280000Y-6376000D02*
X10300000Y-6396000D01*
X10300000Y-6376000D02*
X10280000Y-6396000D01*
X10323000Y-7902500D02*
X10343000Y-7922500D01*
X10343000Y-7902500D02*
X10323000Y-7922500D01*
X10334000Y-8134000D02*
X10354000Y-8154000D01*
X10354000Y-8134000D02*
X10334000Y-8154000D01*
X10430000Y-6376000D02*
X10450000Y-6396000D01*
X10450000Y-6376000D02*
X10430000Y-6396000D01*
X10535000Y-8180000D02*
X10555000Y-8200000D01*
X10555000Y-8180000D02*
X10535000Y-8200000D01*
X10565000Y-7962500D02*
X10585000Y-7982500D01*
X10585000Y-7962500D02*
X10565000Y-7982500D01*
X10605000Y-6920000D02*
X10625000Y-6940000D01*
X10625000Y-6920000D02*
X10605000Y-6940000D01*
X10650000Y-7707500D02*
X10670000Y-7727500D01*
X10670000Y-7707500D02*
X10650000Y-7727500D01*
X10694000Y-6893500D02*
X10714000Y-6913500D01*
X10714000Y-6893500D02*
X10694000Y-6913500D01*
X10827500Y-8605000D02*
X10847500Y-8625000D01*
X10847500Y-8605000D02*
X10827500Y-8625000D01*
X10896000Y-7358500D02*
X10916000Y-7378500D01*
X10916000Y-7358500D02*
X10896000Y-7378500D01*
X10989000Y-8079500D02*
X11009000Y-8099500D01*
X11009000Y-8079500D02*
X10989000Y-8099500D01*
X11009000Y-10180500D02*
X11029000Y-10200500D01*
X11029000Y-10180500D02*
X11009000Y-10200500D01*
X11021000Y-7356500D02*
X11041000Y-7376500D01*
X11041000Y-7356500D02*
X11021000Y-7376500D01*
X11070000Y-8468500D02*
X11090000Y-8488500D01*
X11090000Y-8468500D02*
X11070000Y-8488500D01*
X9677500Y-8732500D02*
G75*
G03*
X9677500Y-8732500I-17500J0D01*
G01*
X9687500Y-8533500D02*
G75*
G03*
X9687500Y-8533500I-17500J0D01*
G01*
X9746693Y-8472500D02*
G75*
G03*
X9746693Y-8472500I-17500J0D01*
G01*
X9790000Y-8187500D02*
G75*
G03*
X9790000Y-8187500I-17500J0D01*
G01*
X9799194Y-8571999D02*
G75*
G03*
X9799194Y-8571999I-17500J0D01*
G01*
X9858593Y-8526207D02*
G75*
G03*
X9858593Y-8526207I-17500J0D01*
G01*
X9883500Y-8452500D02*
G75*
G03*
X9883500Y-8452500I-17500J0D01*
G01*
X10037500Y-8957500D02*
G75*
G03*
X10037500Y-8957500I-17500J0D01*
G01*
X10255000Y-8475000D02*
G75*
G03*
X10255000Y-8475000I-17500J0D01*
G01*
X10255000Y-8602500D02*
G75*
G03*
X10255000Y-8602500I-17500J0D01*
G01*
X10255000Y-8730000D02*
G75*
G03*
X10255000Y-8730000I-17500J0D01*
G01*
X10382500Y-8475000D02*
G75*
G03*
X10382500Y-8475000I-17500J0D01*
G01*
X10382500Y-8602500D02*
G75*
G03*
X10382500Y-8602500I-17500J0D01*
G01*
X10382500Y-8730000D02*
G75*
G03*
X10382500Y-8730000I-17500J0D01*
G01*
X10444500Y-8812500D02*
G75*
G03*
X10444500Y-8812500I-17500J0D01*
G01*
X10445927Y-9088028D02*
G75*
G03*
X10445927Y-9088028I-17500J0D01*
G01*
X10510000Y-8475000D02*
G75*
G03*
X10510000Y-8475000I-17500J0D01*
G01*
X10510000Y-8602500D02*
G75*
G03*
X10510000Y-8602500I-17500J0D01*
G01*
X10510000Y-8730000D02*
G75*
G03*
X10510000Y-8730000I-17500J0D01*
G01*
X10524000Y-8372500D02*
G75*
G03*
X10524000Y-8372500I-17500J0D01*
G01*
X10527804Y-9363984D02*
G75*
G03*
X10527804Y-9363984I-17500J0D01*
G01*
X10777500Y-9222500D02*
G75*
G03*
X10777500Y-9222500I-17500J0D01*
G01*
X10867500Y-9012500D02*
G75*
G03*
X10867500Y-9012500I-17500J0D01*
G01*
X9933000Y-5952500D02*
X9933000Y-6012500D01*
X9903000Y-5982500D02*
X9963000Y-5982500D01*
X9953000Y-6012500D02*
X9953000Y-5952500D01*
X9913000Y-6012500D02*
X9913000Y-5952500D01*
X9953000Y-5952500D02*
G75*
G03*
X9913000Y-5952500I-20000J0D01*
G01*
X9913000Y-6012500D02*
G75*
G03*
X9953000Y-6012500I20000J0D01*
G01*
X9933000Y-6370500D02*
X9933000Y-6430500D01*
X9903000Y-6400500D02*
X9963000Y-6400500D01*
X9953000Y-6455500D02*
X9953000Y-6345500D01*
X9913000Y-6455500D02*
X9913000Y-6345500D01*
X9953000Y-6345500D02*
G75*
G03*
X9913000Y-6345500I-20000J0D01*
G01*
X9913000Y-6455500D02*
G75*
G03*
X9953000Y-6455500I20000J0D01*
G01*
X10797000Y-5952500D02*
X10797000Y-6012500D01*
X10767000Y-5982500D02*
X10827000Y-5982500D01*
X10817000Y-6012500D02*
X10817000Y-5952500D01*
X10777000Y-6012500D02*
X10777000Y-5952500D01*
X10817000Y-5952500D02*
G75*
G03*
X10777000Y-5952500I-20000J0D01*
G01*
X10777000Y-6012500D02*
G75*
G03*
X10817000Y-6012500I20000J0D01*
G01*
X10797000Y-6370500D02*
X10797000Y-6430500D01*
X10767000Y-6400500D02*
X10827000Y-6400500D01*
X10817000Y-6455500D02*
X10817000Y-6345500D01*
X10777000Y-6455500D02*
X10777000Y-6345500D01*
X10817000Y-6345500D02*
G75*
G03*
X10777000Y-6345500I-20000J0D01*
G01*
X10777000Y-6455500D02*
G75*
G03*
X10817000Y-6455500I20000J0D01*
G01*
X9334356Y-9201356D02*
X9334356Y-9130644D01*
X9263644Y-9130644D01*
X9263644Y-9201356D01*
X9334356Y-9201356D01*
X9335356Y-5899356D02*
X9335356Y-5828644D01*
X9264644Y-5828644D01*
X9264644Y-5899356D01*
X9335356Y-5899356D01*
X9335356Y-6152356D02*
X9335356Y-6081644D01*
X9264644Y-6081644D01*
X9264644Y-6152356D01*
X9335356Y-6152356D01*
X9335356Y-6407356D02*
X9335356Y-6336644D01*
X9264644Y-6336644D01*
X9264644Y-6407356D01*
X9335356Y-6407356D01*
X9335356Y-6660356D02*
X9335356Y-6589644D01*
X9264644Y-6589644D01*
X9264644Y-6660356D01*
X9335356Y-6660356D01*
X9335356Y-6915356D02*
X9335356Y-6844644D01*
X9264644Y-6844644D01*
X9264644Y-6915356D01*
X9335356Y-6915356D01*
X9335356Y-7169356D02*
X9335356Y-7098644D01*
X9264644Y-7098644D01*
X9264644Y-7169356D01*
X9335356Y-7169356D01*
X9335356Y-7423356D02*
X9335356Y-7352644D01*
X9264644Y-7352644D01*
X9264644Y-7423356D01*
X9335356Y-7423356D01*
X9335356Y-7677356D02*
X9335356Y-7606644D01*
X9264644Y-7606644D01*
X9264644Y-7677356D01*
X9335356Y-7677356D01*
X9335356Y-8185356D02*
X9335356Y-8114644D01*
X9264644Y-8114644D01*
X9264644Y-8185356D01*
X9335356Y-8185356D01*
X9335356Y-8439356D02*
X9335356Y-8368644D01*
X9264644Y-8368644D01*
X9264644Y-8439356D01*
X9335356Y-8439356D01*
X9335356Y-8693356D02*
X9335356Y-8622644D01*
X9264644Y-8622644D01*
X9264644Y-8693356D01*
X9335356Y-8693356D01*
X9335356Y-8947356D02*
X9335356Y-8876644D01*
X9264644Y-8876644D01*
X9264644Y-8947356D01*
X9335356Y-8947356D01*
X9335356Y-9455356D02*
X9335356Y-9384644D01*
X9264644Y-9384644D01*
X9264644Y-9455356D01*
X9335356Y-9455356D01*
X9335356Y-9709356D02*
X9335356Y-9638644D01*
X9264644Y-9638644D01*
X9264644Y-9709356D01*
X9335356Y-9709356D01*
X9335356Y-9963356D02*
X9335356Y-9892644D01*
X9264644Y-9892644D01*
X9264644Y-9963356D01*
X9335356Y-9963356D01*
X9335356Y-10217356D02*
X9335356Y-10146644D01*
X9264644Y-10146644D01*
X9264644Y-10217356D01*
X9335356Y-10217356D01*
X9335356Y-10471356D02*
X9335356Y-10400644D01*
X9264644Y-10400644D01*
X9264644Y-10471356D01*
X9335356Y-10471356D01*
X9335356Y-10725356D02*
X9335356Y-10654644D01*
X9264644Y-10654644D01*
X9264644Y-10725356D01*
X9335356Y-10725356D01*
X9336356Y-7931356D02*
X9336356Y-7860644D01*
X9265644Y-7860644D01*
X9265644Y-7931356D01*
X9336356Y-7931356D01*
X9505356Y-5899356D02*
X9505356Y-5828644D01*
X9434644Y-5828644D01*
X9434644Y-5899356D01*
X9505356Y-5899356D01*
X9505356Y-6153356D02*
X9505356Y-6082644D01*
X9434644Y-6082644D01*
X9434644Y-6153356D01*
X9505356Y-6153356D01*
X9505356Y-6407356D02*
X9505356Y-6336644D01*
X9434644Y-6336644D01*
X9434644Y-6407356D01*
X9505356Y-6407356D01*
X9505356Y-6661356D02*
X9505356Y-6590644D01*
X9434644Y-6590644D01*
X9434644Y-6661356D01*
X9505356Y-6661356D01*
X9505356Y-6915356D02*
X9505356Y-6844644D01*
X9434644Y-6844644D01*
X9434644Y-6915356D01*
X9505356Y-6915356D01*
X9505356Y-7169356D02*
X9505356Y-7098644D01*
X9434644Y-7098644D01*
X9434644Y-7169356D01*
X9505356Y-7169356D01*
X9505356Y-7423356D02*
X9505356Y-7352644D01*
X9434644Y-7352644D01*
X9434644Y-7423356D01*
X9505356Y-7423356D01*
X9505356Y-7677356D02*
X9505356Y-7606644D01*
X9434644Y-7606644D01*
X9434644Y-7677356D01*
X9505356Y-7677356D01*
X9505356Y-7931356D02*
X9505356Y-7860644D01*
X9434644Y-7860644D01*
X9434644Y-7931356D01*
X9505356Y-7931356D01*
X9505356Y-8185356D02*
X9505356Y-8114644D01*
X9434644Y-8114644D01*
X9434644Y-8185356D01*
X9505356Y-8185356D01*
X9505356Y-8439356D02*
X9505356Y-8368644D01*
X9434644Y-8368644D01*
X9434644Y-8439356D01*
X9505356Y-8439356D01*
X9505356Y-8693356D02*
X9505356Y-8622644D01*
X9434644Y-8622644D01*
X9434644Y-8693356D01*
X9505356Y-8693356D01*
X9505356Y-8947356D02*
X9505356Y-8876644D01*
X9434644Y-8876644D01*
X9434644Y-8947356D01*
X9505356Y-8947356D01*
X9505356Y-9201356D02*
X9505356Y-9130644D01*
X9434644Y-9130644D01*
X9434644Y-9201356D01*
X9505356Y-9201356D01*
X9505356Y-9455356D02*
X9505356Y-9384644D01*
X9434644Y-9384644D01*
X9434644Y-9455356D01*
X9505356Y-9455356D01*
X9505356Y-9709356D02*
X9505356Y-9638644D01*
X9434644Y-9638644D01*
X9434644Y-9709356D01*
X9505356Y-9709356D01*
X9505356Y-9963356D02*
X9505356Y-9892644D01*
X9434644Y-9892644D01*
X9434644Y-9963356D01*
X9505356Y-9963356D01*
X9505356Y-10217356D02*
X9505356Y-10146644D01*
X9434644Y-10146644D01*
X9434644Y-10217356D01*
X9505356Y-10217356D01*
X9505356Y-10471356D02*
X9505356Y-10400644D01*
X9434644Y-10400644D01*
X9434644Y-10471356D01*
X9505356Y-10471356D01*
X9505356Y-10725356D02*
X9505356Y-10654644D01*
X9434644Y-10654644D01*
X9434644Y-10725356D01*
X9505356Y-10725356D01*
X10145356Y-10725356D02*
X10145356Y-10654644D01*
X10074644Y-10654644D01*
X10074644Y-10725356D01*
X10145356Y-10725356D01*
X10399356Y-10725356D02*
X10399356Y-10654644D01*
X10328644Y-10654644D01*
X10328644Y-10725356D01*
X10399356Y-10725356D01*
X10653356Y-10725356D02*
X10653356Y-10654644D01*
X10582644Y-10654644D01*
X10582644Y-10725356D01*
X10653356Y-10725356D01*
X11287356Y-5905356D02*
X11287356Y-5834644D01*
X11216644Y-5834644D01*
X11216644Y-5905356D01*
X11287356Y-5905356D01*
X11287356Y-6159356D02*
X11287356Y-6088644D01*
X11216644Y-6088644D01*
X11216644Y-6159356D01*
X11287356Y-6159356D01*
X11287356Y-6413356D02*
X11287356Y-6342644D01*
X11216644Y-6342644D01*
X11216644Y-6413356D01*
X11287356Y-6413356D01*
X11287356Y-6667356D02*
X11287356Y-6596644D01*
X11216644Y-6596644D01*
X11216644Y-6667356D01*
X11287356Y-6667356D01*
X11287356Y-6921356D02*
X11287356Y-6850644D01*
X11216644Y-6850644D01*
X11216644Y-6921356D01*
X11287356Y-6921356D01*
X11287356Y-7175356D02*
X11287356Y-7104644D01*
X11216644Y-7104644D01*
X11216644Y-7175356D01*
X11287356Y-7175356D01*
X11287356Y-7429356D02*
X11287356Y-7358644D01*
X11216644Y-7358644D01*
X11216644Y-7429356D01*
X11287356Y-7429356D01*
X11287356Y-7683356D02*
X11287356Y-7612644D01*
X11216644Y-7612644D01*
X11216644Y-7683356D01*
X11287356Y-7683356D01*
X11287356Y-7937356D02*
X11287356Y-7866644D01*
X11216644Y-7866644D01*
X11216644Y-7937356D01*
X11287356Y-7937356D01*
X11287356Y-8191356D02*
X11287356Y-8120644D01*
X11216644Y-8120644D01*
X11216644Y-8191356D01*
X11287356Y-8191356D01*
X11287356Y-8445356D02*
X11287356Y-8374644D01*
X11216644Y-8374644D01*
X11216644Y-8445356D01*
X11287356Y-8445356D01*
X11287356Y-8699356D02*
X11287356Y-8628644D01*
X11216644Y-8628644D01*
X11216644Y-8699356D01*
X11287356Y-8699356D01*
X11287356Y-8953356D02*
X11287356Y-8882644D01*
X11216644Y-8882644D01*
X11216644Y-8953356D01*
X11287356Y-8953356D01*
X11287356Y-9207356D02*
X11287356Y-9136644D01*
X11216644Y-9136644D01*
X11216644Y-9207356D01*
X11287356Y-9207356D01*
X11287356Y-9461356D02*
X11287356Y-9390644D01*
X11216644Y-9390644D01*
X11216644Y-9461356D01*
X11287356Y-9461356D01*
X11287356Y-9715356D02*
X11287356Y-9644644D01*
X11216644Y-9644644D01*
X11216644Y-9715356D01*
X11287356Y-9715356D01*
X11287356Y-9969356D02*
X11287356Y-9898644D01*
X11216644Y-9898644D01*
X11216644Y-9969356D01*
X11287356Y-9969356D01*
X11287356Y-10223356D02*
X11287356Y-10152644D01*
X11216644Y-10152644D01*
X11216644Y-10223356D01*
X11287356Y-10223356D01*
X11287356Y-10477356D02*
X11287356Y-10406644D01*
X11216644Y-10406644D01*
X11216644Y-10477356D01*
X11287356Y-10477356D01*
X11287356Y-10731356D02*
X11287356Y-10660644D01*
X11216644Y-10660644D01*
X11216644Y-10731356D01*
X11287356Y-10731356D01*
X11457356Y-5905356D02*
X11457356Y-5834644D01*
X11386644Y-5834644D01*
X11386644Y-5905356D01*
X11457356Y-5905356D01*
X11457356Y-6159356D02*
X11457356Y-6088644D01*
X11386644Y-6088644D01*
X11386644Y-6159356D01*
X11457356Y-6159356D01*
X11457356Y-6413356D02*
X11457356Y-6342644D01*
X11386644Y-6342644D01*
X11386644Y-6413356D01*
X11457356Y-6413356D01*
X11457356Y-6667356D02*
X11457356Y-6596644D01*
X11386644Y-6596644D01*
X11386644Y-6667356D01*
X11457356Y-6667356D01*
X11457356Y-6921356D02*
X11457356Y-6850644D01*
X11386644Y-6850644D01*
X11386644Y-6921356D01*
X11457356Y-6921356D01*
X11457356Y-7175356D02*
X11457356Y-7104644D01*
X11386644Y-7104644D01*
X11386644Y-7175356D01*
X11457356Y-7175356D01*
X11457356Y-7429356D02*
X11457356Y-7358644D01*
X11386644Y-7358644D01*
X11386644Y-7429356D01*
X11457356Y-7429356D01*
X11457356Y-7683356D02*
X11457356Y-7612644D01*
X11386644Y-7612644D01*
X11386644Y-7683356D01*
X11457356Y-7683356D01*
X11457356Y-7937356D02*
X11457356Y-7866644D01*
X11386644Y-7866644D01*
X11386644Y-7937356D01*
X11457356Y-7937356D01*
X11457356Y-8191356D02*
X11457356Y-8120644D01*
X11386644Y-8120644D01*
X11386644Y-8191356D01*
X11457356Y-8191356D01*
X11457356Y-8445356D02*
X11457356Y-8374644D01*
X11386644Y-8374644D01*
X11386644Y-8445356D01*
X11457356Y-8445356D01*
X11457356Y-8699356D02*
X11457356Y-8628644D01*
X11386644Y-8628644D01*
X11386644Y-8699356D01*
X11457356Y-8699356D01*
X11457356Y-8953356D02*
X11457356Y-8882644D01*
X11386644Y-8882644D01*
X11386644Y-8953356D01*
X11457356Y-8953356D01*
X11457356Y-9207356D02*
X11457356Y-9136644D01*
X11386644Y-9136644D01*
X11386644Y-9207356D01*
X11457356Y-9207356D01*
X11457356Y-9461356D02*
X11457356Y-9390644D01*
X11386644Y-9390644D01*
X11386644Y-9461356D01*
X11457356Y-9461356D01*
X11457356Y-9715356D02*
X11457356Y-9644644D01*
X11386644Y-9644644D01*
X11386644Y-9715356D01*
X11457356Y-9715356D01*
X11457356Y-9969356D02*
X11457356Y-9898644D01*
X11386644Y-9898644D01*
X11386644Y-9969356D01*
X11457356Y-9969356D01*
X11457356Y-10223356D02*
X11457356Y-10152644D01*
X11386644Y-10152644D01*
X11386644Y-10223356D01*
X11457356Y-10223356D01*
X11457356Y-10477356D02*
X11457356Y-10406644D01*
X11386644Y-10406644D01*
X11386644Y-10477356D01*
X11457356Y-10477356D01*
X11457356Y-10731356D02*
X11457356Y-10660644D01*
X11386644Y-10660644D01*
X11386644Y-10731356D01*
X11457356Y-10731356D01*
D12*
X9573928Y-11320714D02*
X9573928Y-11020714D01*
X9645357Y-11020714D01*
X9688214Y-11035000D01*
X9716786Y-11063572D01*
X9731071Y-11092143D01*
X9745357Y-11149286D01*
X9745357Y-11192143D01*
X9731071Y-11249286D01*
X9716786Y-11277857D01*
X9688214Y-11306429D01*
X9645357Y-11320714D01*
X9573928Y-11320714D01*
X9873928Y-11320714D02*
X9873928Y-11120714D01*
X9873928Y-11177857D02*
X9888214Y-11149286D01*
X9902500Y-11135000D01*
X9931071Y-11120714D01*
X9959643Y-11120714D01*
X10059643Y-11320714D02*
X10059643Y-11120714D01*
X10059643Y-11020714D02*
X10045357Y-11035000D01*
X10059643Y-11049286D01*
X10073928Y-11035000D01*
X10059643Y-11020714D01*
X10059643Y-11049286D01*
X10245357Y-11320714D02*
X10216786Y-11306429D01*
X10202500Y-11277857D01*
X10202500Y-11020714D01*
X10402500Y-11320714D02*
X10373928Y-11306429D01*
X10359643Y-11277857D01*
X10359643Y-11020714D01*
X10745357Y-11320714D02*
X10745357Y-11020714D01*
X10845357Y-11235000D01*
X10945357Y-11020714D01*
X10945357Y-11320714D01*
X11216786Y-11320714D02*
X11216786Y-11163572D01*
X11202500Y-11135000D01*
X11173928Y-11120714D01*
X11116786Y-11120714D01*
X11088214Y-11135000D01*
X11216786Y-11306429D02*
X11188214Y-11320714D01*
X11116786Y-11320714D01*
X11088214Y-11306429D01*
X11073928Y-11277857D01*
X11073928Y-11249286D01*
X11088214Y-11220714D01*
X11116786Y-11206429D01*
X11188214Y-11206429D01*
X11216786Y-11192143D01*
X11359643Y-11120714D02*
X11359643Y-11420714D01*
X11359643Y-11135000D02*
X11388214Y-11120714D01*
X11445357Y-11120714D01*
X11473928Y-11135000D01*
X11488214Y-11149286D01*
X11502500Y-11177857D01*
X11502500Y-11263571D01*
X11488214Y-11292143D01*
X11473928Y-11306429D01*
X11445357Y-11320714D01*
X11388214Y-11320714D01*
X11359643Y-11306429D01*
X11631071Y-11292143D02*
X11645357Y-11306429D01*
X11631071Y-11320714D01*
X11616786Y-11306429D01*
X11631071Y-11292143D01*
X11631071Y-11320714D01*
X11631071Y-11135000D02*
X11645357Y-11149286D01*
X11631071Y-11163572D01*
X11616786Y-11149286D01*
X11631071Y-11135000D01*
X11631071Y-11163572D01*
X9267500Y-11805000D02*
X9287500Y-11825000D01*
X9287500Y-11805000D02*
X9267500Y-11825000D01*
X9631071Y-11650714D02*
X9659643Y-11650714D01*
X9688214Y-11665000D01*
X9702500Y-11679286D01*
X9716786Y-11707857D01*
X9731071Y-11765000D01*
X9731071Y-11836429D01*
X9716786Y-11893571D01*
X9702500Y-11922143D01*
X9688214Y-11936429D01*
X9659643Y-11950714D01*
X9631071Y-11950714D01*
X9602500Y-11936429D01*
X9588214Y-11922143D01*
X9573928Y-11893571D01*
X9559643Y-11836429D01*
X9559643Y-11765000D01*
X9573928Y-11707857D01*
X9588214Y-11679286D01*
X9602500Y-11665000D01*
X9631071Y-11650714D01*
X9859643Y-11922143D02*
X9873928Y-11936429D01*
X9859643Y-11950714D01*
X9845357Y-11936429D01*
X9859643Y-11922143D01*
X9859643Y-11950714D01*
X9988214Y-11679286D02*
X10002500Y-11665000D01*
X10031071Y-11650714D01*
X10102500Y-11650714D01*
X10131071Y-11665000D01*
X10145357Y-11679286D01*
X10159643Y-11707857D01*
X10159643Y-11736429D01*
X10145357Y-11779286D01*
X9973928Y-11950714D01*
X10159643Y-11950714D01*
X10345357Y-11650714D02*
X10373928Y-11650714D01*
X10402500Y-11665000D01*
X10416786Y-11679286D01*
X10431071Y-11707857D01*
X10445357Y-11765000D01*
X10445357Y-11836429D01*
X10431071Y-11893571D01*
X10416786Y-11922143D01*
X10402500Y-11936429D01*
X10373928Y-11950714D01*
X10345357Y-11950714D01*
X10316786Y-11936429D01*
X10302500Y-11922143D01*
X10288214Y-11893571D01*
X10273928Y-11836429D01*
X10273928Y-11765000D01*
X10288214Y-11707857D01*
X10302500Y-11679286D01*
X10316786Y-11665000D01*
X10345357Y-11650714D01*
X10631071Y-11650714D02*
X10659643Y-11650714D01*
X10688214Y-11665000D01*
X10702500Y-11679286D01*
X10716786Y-11707857D01*
X10731071Y-11765000D01*
X10731071Y-11836429D01*
X10716786Y-11893571D01*
X10702500Y-11922143D01*
X10688214Y-11936429D01*
X10659643Y-11950714D01*
X10631071Y-11950714D01*
X10602500Y-11936429D01*
X10588214Y-11922143D01*
X10573928Y-11893571D01*
X10559643Y-11836429D01*
X10559643Y-11765000D01*
X10573928Y-11707857D01*
X10588214Y-11679286D01*
X10602500Y-11665000D01*
X10631071Y-11650714D01*
X10859643Y-11950714D02*
X10859643Y-11750714D01*
X10859643Y-11779286D02*
X10873928Y-11765000D01*
X10902500Y-11750714D01*
X10945357Y-11750714D01*
X10973928Y-11765000D01*
X10988214Y-11793571D01*
X10988214Y-11950714D01*
X10988214Y-11793571D02*
X11002500Y-11765000D01*
X11031071Y-11750714D01*
X11073928Y-11750714D01*
X11102500Y-11765000D01*
X11116786Y-11793571D01*
X11116786Y-11950714D01*
X11259643Y-11950714D02*
X11259643Y-11750714D01*
X11259643Y-11779286D02*
X11273928Y-11765000D01*
X11302500Y-11750714D01*
X11345357Y-11750714D01*
X11373928Y-11765000D01*
X11388214Y-11793571D01*
X11388214Y-11950714D01*
X11388214Y-11793571D02*
X11402500Y-11765000D01*
X11431071Y-11750714D01*
X11473928Y-11750714D01*
X11502500Y-11765000D01*
X11516786Y-11793571D01*
X11516786Y-11950714D01*
X12102500Y-11636429D02*
X11845357Y-12022143D01*
X12488214Y-11650714D02*
X12516786Y-11650714D01*
X12545357Y-11665000D01*
X12559643Y-11679286D01*
X12573928Y-11707857D01*
X12588214Y-11765000D01*
X12588214Y-11836429D01*
X12573928Y-11893571D01*
X12559643Y-11922143D01*
X12545357Y-11936429D01*
X12516786Y-11950714D01*
X12488214Y-11950714D01*
X12459643Y-11936429D01*
X12445357Y-11922143D01*
X12431071Y-11893571D01*
X12416786Y-11836429D01*
X12416786Y-11765000D01*
X12431071Y-11707857D01*
X12445357Y-11679286D01*
X12459643Y-11665000D01*
X12488214Y-11650714D01*
X12716786Y-11922143D02*
X12731071Y-11936429D01*
X12716786Y-11950714D01*
X12702500Y-11936429D01*
X12716786Y-11922143D01*
X12716786Y-11950714D01*
X12916786Y-11650714D02*
X12945357Y-11650714D01*
X12973928Y-11665000D01*
X12988214Y-11679286D01*
X13002500Y-11707857D01*
X13016786Y-11765000D01*
X13016786Y-11836429D01*
X13002500Y-11893571D01*
X12988214Y-11922143D01*
X12973928Y-11936429D01*
X12945357Y-11950714D01*
X12916786Y-11950714D01*
X12888214Y-11936429D01*
X12873928Y-11922143D01*
X12859643Y-11893571D01*
X12845357Y-11836429D01*
X12845357Y-11765000D01*
X12859643Y-11707857D01*
X12873928Y-11679286D01*
X12888214Y-11665000D01*
X12916786Y-11650714D01*
X13202500Y-11650714D02*
X13231071Y-11650714D01*
X13259643Y-11665000D01*
X13273928Y-11679286D01*
X13288214Y-11707857D01*
X13302500Y-11765000D01*
X13302500Y-11836429D01*
X13288214Y-11893571D01*
X13273928Y-11922143D01*
X13259643Y-11936429D01*
X13231071Y-11950714D01*
X13202500Y-11950714D01*
X13173928Y-11936429D01*
X13159643Y-11922143D01*
X13145357Y-11893571D01*
X13131071Y-11836429D01*
X13131071Y-11765000D01*
X13145357Y-11707857D01*
X13159643Y-11679286D01*
X13173928Y-11665000D01*
X13202500Y-11650714D01*
X13402500Y-11650714D02*
X13602500Y-11650714D01*
X13473928Y-11950714D01*
X13731071Y-11950714D02*
X13788214Y-11950714D01*
X13816786Y-11936429D01*
X13831071Y-11922143D01*
X13859643Y-11879286D01*
X13873928Y-11822143D01*
X13873928Y-11707857D01*
X13859643Y-11679286D01*
X13845357Y-11665000D01*
X13816786Y-11650714D01*
X13759643Y-11650714D01*
X13731071Y-11665000D01*
X13716786Y-11679286D01*
X13702500Y-11707857D01*
X13702500Y-11779286D01*
X13716786Y-11807857D01*
X13731071Y-11822143D01*
X13759643Y-11836429D01*
X13816786Y-11836429D01*
X13845357Y-11822143D01*
X13859643Y-11807857D01*
X13873928Y-11779286D01*
X13988214Y-11650714D02*
X13988214Y-11707857D01*
X14102500Y-11650714D02*
X14102500Y-11707857D01*
X14545357Y-12065000D02*
X14531071Y-12050714D01*
X14502500Y-12007857D01*
X14488214Y-11979286D01*
X14473928Y-11936429D01*
X14459643Y-11865000D01*
X14459643Y-11807857D01*
X14473928Y-11736429D01*
X14488214Y-11693571D01*
X14502500Y-11665000D01*
X14531071Y-11622143D01*
X14545357Y-11607857D01*
X14645357Y-11679286D02*
X14659643Y-11665000D01*
X14688214Y-11650714D01*
X14759643Y-11650714D01*
X14788214Y-11665000D01*
X14802500Y-11679286D01*
X14816786Y-11707857D01*
X14816786Y-11736429D01*
X14802500Y-11779286D01*
X14631071Y-11950714D01*
X14816786Y-11950714D01*
X14916786Y-11650714D02*
X15116786Y-11650714D01*
X14988214Y-11950714D01*
X15459643Y-11950714D02*
X15459643Y-11650714D01*
X15588214Y-11950714D02*
X15588214Y-11793571D01*
X15573928Y-11765000D01*
X15545357Y-11750714D01*
X15502500Y-11750714D01*
X15473928Y-11765000D01*
X15459643Y-11779286D01*
X15773928Y-11950714D02*
X15745357Y-11936429D01*
X15731071Y-11922143D01*
X15716786Y-11893571D01*
X15716786Y-11807857D01*
X15731071Y-11779286D01*
X15745357Y-11765000D01*
X15773928Y-11750714D01*
X15816786Y-11750714D01*
X15845357Y-11765000D01*
X15859643Y-11779286D01*
X15873928Y-11807857D01*
X15873928Y-11893571D01*
X15859643Y-11922143D01*
X15845357Y-11936429D01*
X15816786Y-11950714D01*
X15773928Y-11950714D01*
X16045357Y-11950714D02*
X16016786Y-11936429D01*
X16002500Y-11907857D01*
X16002500Y-11650714D01*
X16273928Y-11936429D02*
X16245357Y-11950714D01*
X16188214Y-11950714D01*
X16159643Y-11936429D01*
X16145357Y-11907857D01*
X16145357Y-11793571D01*
X16159643Y-11765000D01*
X16188214Y-11750714D01*
X16245357Y-11750714D01*
X16273928Y-11765000D01*
X16288214Y-11793571D01*
X16288214Y-11822143D01*
X16145357Y-11850714D01*
X16402500Y-11936429D02*
X16431071Y-11950714D01*
X16488214Y-11950714D01*
X16516786Y-11936429D01*
X16531071Y-11907857D01*
X16531071Y-11893571D01*
X16516786Y-11865000D01*
X16488214Y-11850714D01*
X16445357Y-11850714D01*
X16416786Y-11836429D01*
X16402500Y-11807857D01*
X16402500Y-11793571D01*
X16416786Y-11765000D01*
X16445357Y-11750714D01*
X16488214Y-11750714D01*
X16516786Y-11765000D01*
X16631071Y-12065000D02*
X16645357Y-12050714D01*
X16673928Y-12007857D01*
X16688214Y-11979286D01*
X16702500Y-11936429D01*
X16716786Y-11865000D01*
X16716786Y-11807857D01*
X16702500Y-11736429D01*
X16688214Y-11693571D01*
X16673928Y-11665000D01*
X16645357Y-11622143D01*
X16631071Y-11607857D01*
X9287500Y-12211000D02*
G75*
G03*
X9287500Y-12211000I-17500J0D01*
G01*
X9631071Y-12046714D02*
X9659643Y-12046714D01*
X9688214Y-12061000D01*
X9702500Y-12075286D01*
X9716786Y-12103857D01*
X9731071Y-12161000D01*
X9731071Y-12232429D01*
X9716786Y-12289571D01*
X9702500Y-12318143D01*
X9688214Y-12332429D01*
X9659643Y-12346714D01*
X9631071Y-12346714D01*
X9602500Y-12332429D01*
X9588214Y-12318143D01*
X9573928Y-12289571D01*
X9559643Y-12232429D01*
X9559643Y-12161000D01*
X9573928Y-12103857D01*
X9588214Y-12075286D01*
X9602500Y-12061000D01*
X9631071Y-12046714D01*
X9859643Y-12318143D02*
X9873928Y-12332429D01*
X9859643Y-12346714D01*
X9845357Y-12332429D01*
X9859643Y-12318143D01*
X9859643Y-12346714D01*
X9973928Y-12046714D02*
X10159643Y-12046714D01*
X10059643Y-12161000D01*
X10102500Y-12161000D01*
X10131071Y-12175286D01*
X10145357Y-12189571D01*
X10159643Y-12218143D01*
X10159643Y-12289571D01*
X10145357Y-12318143D01*
X10131071Y-12332429D01*
X10102500Y-12346714D01*
X10016786Y-12346714D01*
X9988214Y-12332429D01*
X9973928Y-12318143D01*
X10431071Y-12046714D02*
X10288214Y-12046714D01*
X10273928Y-12189571D01*
X10288214Y-12175286D01*
X10316786Y-12161000D01*
X10388214Y-12161000D01*
X10416786Y-12175286D01*
X10431071Y-12189571D01*
X10445357Y-12218143D01*
X10445357Y-12289571D01*
X10431071Y-12318143D01*
X10416786Y-12332429D01*
X10388214Y-12346714D01*
X10316786Y-12346714D01*
X10288214Y-12332429D01*
X10273928Y-12318143D01*
X10631071Y-12046714D02*
X10659643Y-12046714D01*
X10688214Y-12061000D01*
X10702500Y-12075286D01*
X10716786Y-12103857D01*
X10731071Y-12161000D01*
X10731071Y-12232429D01*
X10716786Y-12289571D01*
X10702500Y-12318143D01*
X10688214Y-12332429D01*
X10659643Y-12346714D01*
X10631071Y-12346714D01*
X10602500Y-12332429D01*
X10588214Y-12318143D01*
X10573928Y-12289571D01*
X10559643Y-12232429D01*
X10559643Y-12161000D01*
X10573928Y-12103857D01*
X10588214Y-12075286D01*
X10602500Y-12061000D01*
X10631071Y-12046714D01*
X10859643Y-12346714D02*
X10859643Y-12146714D01*
X10859643Y-12175286D02*
X10873928Y-12161000D01*
X10902500Y-12146714D01*
X10945357Y-12146714D01*
X10973928Y-12161000D01*
X10988214Y-12189571D01*
X10988214Y-12346714D01*
X10988214Y-12189571D02*
X11002500Y-12161000D01*
X11031071Y-12146714D01*
X11073928Y-12146714D01*
X11102500Y-12161000D01*
X11116786Y-12189571D01*
X11116786Y-12346714D01*
X11259643Y-12346714D02*
X11259643Y-12146714D01*
X11259643Y-12175286D02*
X11273928Y-12161000D01*
X11302500Y-12146714D01*
X11345357Y-12146714D01*
X11373928Y-12161000D01*
X11388214Y-12189571D01*
X11388214Y-12346714D01*
X11388214Y-12189571D02*
X11402500Y-12161000D01*
X11431071Y-12146714D01*
X11473928Y-12146714D01*
X11502500Y-12161000D01*
X11516786Y-12189571D01*
X11516786Y-12346714D01*
X12102500Y-12032429D02*
X11845357Y-12418143D01*
X12488214Y-12046714D02*
X12516786Y-12046714D01*
X12545357Y-12061000D01*
X12559643Y-12075286D01*
X12573928Y-12103857D01*
X12588214Y-12161000D01*
X12588214Y-12232429D01*
X12573928Y-12289571D01*
X12559643Y-12318143D01*
X12545357Y-12332429D01*
X12516786Y-12346714D01*
X12488214Y-12346714D01*
X12459643Y-12332429D01*
X12445357Y-12318143D01*
X12431071Y-12289571D01*
X12416786Y-12232429D01*
X12416786Y-12161000D01*
X12431071Y-12103857D01*
X12445357Y-12075286D01*
X12459643Y-12061000D01*
X12488214Y-12046714D01*
X12716786Y-12318143D02*
X12731071Y-12332429D01*
X12716786Y-12346714D01*
X12702500Y-12332429D01*
X12716786Y-12318143D01*
X12716786Y-12346714D01*
X12916786Y-12046714D02*
X12945357Y-12046714D01*
X12973928Y-12061000D01*
X12988214Y-12075286D01*
X13002500Y-12103857D01*
X13016786Y-12161000D01*
X13016786Y-12232429D01*
X13002500Y-12289571D01*
X12988214Y-12318143D01*
X12973928Y-12332429D01*
X12945357Y-12346714D01*
X12916786Y-12346714D01*
X12888214Y-12332429D01*
X12873928Y-12318143D01*
X12859643Y-12289571D01*
X12845357Y-12232429D01*
X12845357Y-12161000D01*
X12859643Y-12103857D01*
X12873928Y-12075286D01*
X12888214Y-12061000D01*
X12916786Y-12046714D01*
X13302500Y-12346714D02*
X13131071Y-12346714D01*
X13216786Y-12346714D02*
X13216786Y-12046714D01*
X13188214Y-12089571D01*
X13159643Y-12118143D01*
X13131071Y-12132429D01*
X13402500Y-12046714D02*
X13588214Y-12046714D01*
X13488214Y-12161000D01*
X13531071Y-12161000D01*
X13559643Y-12175286D01*
X13573928Y-12189571D01*
X13588214Y-12218143D01*
X13588214Y-12289571D01*
X13573928Y-12318143D01*
X13559643Y-12332429D01*
X13531071Y-12346714D01*
X13445357Y-12346714D01*
X13416786Y-12332429D01*
X13402500Y-12318143D01*
X13759643Y-12175286D02*
X13731071Y-12161000D01*
X13716786Y-12146714D01*
X13702500Y-12118143D01*
X13702500Y-12103857D01*
X13716786Y-12075286D01*
X13731071Y-12061000D01*
X13759643Y-12046714D01*
X13816786Y-12046714D01*
X13845357Y-12061000D01*
X13859643Y-12075286D01*
X13873928Y-12103857D01*
X13873928Y-12118143D01*
X13859643Y-12146714D01*
X13845357Y-12161000D01*
X13816786Y-12175286D01*
X13759643Y-12175286D01*
X13731071Y-12189571D01*
X13716786Y-12203857D01*
X13702500Y-12232429D01*
X13702500Y-12289571D01*
X13716786Y-12318143D01*
X13731071Y-12332429D01*
X13759643Y-12346714D01*
X13816786Y-12346714D01*
X13845357Y-12332429D01*
X13859643Y-12318143D01*
X13873928Y-12289571D01*
X13873928Y-12232429D01*
X13859643Y-12203857D01*
X13845357Y-12189571D01*
X13816786Y-12175286D01*
X13988214Y-12046714D02*
X13988214Y-12103857D01*
X14102500Y-12046714D02*
X14102500Y-12103857D01*
X14545357Y-12461000D02*
X14531071Y-12446714D01*
X14502500Y-12403857D01*
X14488214Y-12375286D01*
X14473928Y-12332429D01*
X14459643Y-12261000D01*
X14459643Y-12203857D01*
X14473928Y-12132429D01*
X14488214Y-12089571D01*
X14502500Y-12061000D01*
X14531071Y-12018143D01*
X14545357Y-12003857D01*
X14645357Y-12075286D02*
X14659643Y-12061000D01*
X14688214Y-12046714D01*
X14759643Y-12046714D01*
X14788214Y-12061000D01*
X14802500Y-12075286D01*
X14816786Y-12103857D01*
X14816786Y-12132429D01*
X14802500Y-12175286D01*
X14631071Y-12346714D01*
X14816786Y-12346714D01*
X14916786Y-12046714D02*
X15102500Y-12046714D01*
X15002500Y-12161000D01*
X15045357Y-12161000D01*
X15073928Y-12175286D01*
X15088214Y-12189571D01*
X15102500Y-12218143D01*
X15102500Y-12289571D01*
X15088214Y-12318143D01*
X15073928Y-12332429D01*
X15045357Y-12346714D01*
X14959643Y-12346714D01*
X14931071Y-12332429D01*
X14916786Y-12318143D01*
X15459643Y-12346714D02*
X15459643Y-12046714D01*
X15588214Y-12346714D02*
X15588214Y-12189571D01*
X15573928Y-12161000D01*
X15545357Y-12146714D01*
X15502500Y-12146714D01*
X15473928Y-12161000D01*
X15459643Y-12175286D01*
X15773928Y-12346714D02*
X15745357Y-12332429D01*
X15731071Y-12318143D01*
X15716786Y-12289571D01*
X15716786Y-12203857D01*
X15731071Y-12175286D01*
X15745357Y-12161000D01*
X15773928Y-12146714D01*
X15816786Y-12146714D01*
X15845357Y-12161000D01*
X15859643Y-12175286D01*
X15873928Y-12203857D01*
X15873928Y-12289571D01*
X15859643Y-12318143D01*
X15845357Y-12332429D01*
X15816786Y-12346714D01*
X15773928Y-12346714D01*
X16045357Y-12346714D02*
X16016786Y-12332429D01*
X16002500Y-12303857D01*
X16002500Y-12046714D01*
X16273928Y-12332429D02*
X16245357Y-12346714D01*
X16188214Y-12346714D01*
X16159643Y-12332429D01*
X16145357Y-12303857D01*
X16145357Y-12189571D01*
X16159643Y-12161000D01*
X16188214Y-12146714D01*
X16245357Y-12146714D01*
X16273928Y-12161000D01*
X16288214Y-12189571D01*
X16288214Y-12218143D01*
X16145357Y-12246714D01*
X16402500Y-12332429D02*
X16431071Y-12346714D01*
X16488214Y-12346714D01*
X16516786Y-12332429D01*
X16531071Y-12303857D01*
X16531071Y-12289571D01*
X16516786Y-12261000D01*
X16488214Y-12246714D01*
X16445357Y-12246714D01*
X16416786Y-12232429D01*
X16402500Y-12203857D01*
X16402500Y-12189571D01*
X16416786Y-12161000D01*
X16445357Y-12146714D01*
X16488214Y-12146714D01*
X16516786Y-12161000D01*
X16631071Y-12461000D02*
X16645357Y-12446714D01*
X16673928Y-12403857D01*
X16688214Y-12375286D01*
X16702500Y-12332429D01*
X16716786Y-12261000D01*
X16716786Y-12203857D01*
X16702500Y-12132429D01*
X16688214Y-12089571D01*
X16673928Y-12061000D01*
X16645357Y-12018143D01*
X16631071Y-12003857D01*
X9257500Y-12577000D02*
X9257500Y-12637000D01*
X9227500Y-12607000D02*
X9287500Y-12607000D01*
X9631071Y-12442714D02*
X9659643Y-12442714D01*
X9688214Y-12457000D01*
X9702500Y-12471286D01*
X9716786Y-12499857D01*
X9731071Y-12557000D01*
X9731071Y-12628429D01*
X9716786Y-12685571D01*
X9702500Y-12714143D01*
X9688214Y-12728429D01*
X9659643Y-12742714D01*
X9631071Y-12742714D01*
X9602500Y-12728429D01*
X9588214Y-12714143D01*
X9573928Y-12685571D01*
X9559643Y-12628429D01*
X9559643Y-12557000D01*
X9573928Y-12499857D01*
X9588214Y-12471286D01*
X9602500Y-12457000D01*
X9631071Y-12442714D01*
X9859643Y-12714143D02*
X9873928Y-12728429D01*
X9859643Y-12742714D01*
X9845357Y-12728429D01*
X9859643Y-12714143D01*
X9859643Y-12742714D01*
X10131071Y-12442714D02*
X10073928Y-12442714D01*
X10045357Y-12457000D01*
X10031071Y-12471286D01*
X10002500Y-12514143D01*
X9988214Y-12571286D01*
X9988214Y-12685571D01*
X10002500Y-12714143D01*
X10016786Y-12728429D01*
X10045357Y-12742714D01*
X10102500Y-12742714D01*
X10131071Y-12728429D01*
X10145357Y-12714143D01*
X10159643Y-12685571D01*
X10159643Y-12614143D01*
X10145357Y-12585571D01*
X10131071Y-12571286D01*
X10102500Y-12557000D01*
X10045357Y-12557000D01*
X10016786Y-12571286D01*
X10002500Y-12585571D01*
X9988214Y-12614143D01*
X10345357Y-12442714D02*
X10373928Y-12442714D01*
X10402500Y-12457000D01*
X10416786Y-12471286D01*
X10431071Y-12499857D01*
X10445357Y-12557000D01*
X10445357Y-12628429D01*
X10431071Y-12685571D01*
X10416786Y-12714143D01*
X10402500Y-12728429D01*
X10373928Y-12742714D01*
X10345357Y-12742714D01*
X10316786Y-12728429D01*
X10302500Y-12714143D01*
X10288214Y-12685571D01*
X10273928Y-12628429D01*
X10273928Y-12557000D01*
X10288214Y-12499857D01*
X10302500Y-12471286D01*
X10316786Y-12457000D01*
X10345357Y-12442714D01*
X10631071Y-12442714D02*
X10659643Y-12442714D01*
X10688214Y-12457000D01*
X10702500Y-12471286D01*
X10716786Y-12499857D01*
X10731071Y-12557000D01*
X10731071Y-12628429D01*
X10716786Y-12685571D01*
X10702500Y-12714143D01*
X10688214Y-12728429D01*
X10659643Y-12742714D01*
X10631071Y-12742714D01*
X10602500Y-12728429D01*
X10588214Y-12714143D01*
X10573928Y-12685571D01*
X10559643Y-12628429D01*
X10559643Y-12557000D01*
X10573928Y-12499857D01*
X10588214Y-12471286D01*
X10602500Y-12457000D01*
X10631071Y-12442714D01*
X10859643Y-12742714D02*
X10859643Y-12542714D01*
X10859643Y-12571286D02*
X10873928Y-12557000D01*
X10902500Y-12542714D01*
X10945357Y-12542714D01*
X10973928Y-12557000D01*
X10988214Y-12585571D01*
X10988214Y-12742714D01*
X10988214Y-12585571D02*
X11002500Y-12557000D01*
X11031071Y-12542714D01*
X11073928Y-12542714D01*
X11102500Y-12557000D01*
X11116786Y-12585571D01*
X11116786Y-12742714D01*
X11259643Y-12742714D02*
X11259643Y-12542714D01*
X11259643Y-12571286D02*
X11273928Y-12557000D01*
X11302500Y-12542714D01*
X11345357Y-12542714D01*
X11373928Y-12557000D01*
X11388214Y-12585571D01*
X11388214Y-12742714D01*
X11388214Y-12585571D02*
X11402500Y-12557000D01*
X11431071Y-12542714D01*
X11473928Y-12542714D01*
X11502500Y-12557000D01*
X11516786Y-12585571D01*
X11516786Y-12742714D01*
X12102500Y-12428429D02*
X11845357Y-12814143D01*
X12488214Y-12442714D02*
X12516786Y-12442714D01*
X12545357Y-12457000D01*
X12559643Y-12471286D01*
X12573928Y-12499857D01*
X12588214Y-12557000D01*
X12588214Y-12628429D01*
X12573928Y-12685571D01*
X12559643Y-12714143D01*
X12545357Y-12728429D01*
X12516786Y-12742714D01*
X12488214Y-12742714D01*
X12459643Y-12728429D01*
X12445357Y-12714143D01*
X12431071Y-12685571D01*
X12416786Y-12628429D01*
X12416786Y-12557000D01*
X12431071Y-12499857D01*
X12445357Y-12471286D01*
X12459643Y-12457000D01*
X12488214Y-12442714D01*
X12716786Y-12714143D02*
X12731071Y-12728429D01*
X12716786Y-12742714D01*
X12702500Y-12728429D01*
X12716786Y-12714143D01*
X12716786Y-12742714D01*
X12916786Y-12442714D02*
X12945357Y-12442714D01*
X12973928Y-12457000D01*
X12988214Y-12471286D01*
X13002500Y-12499857D01*
X13016786Y-12557000D01*
X13016786Y-12628429D01*
X13002500Y-12685571D01*
X12988214Y-12714143D01*
X12973928Y-12728429D01*
X12945357Y-12742714D01*
X12916786Y-12742714D01*
X12888214Y-12728429D01*
X12873928Y-12714143D01*
X12859643Y-12685571D01*
X12845357Y-12628429D01*
X12845357Y-12557000D01*
X12859643Y-12499857D01*
X12873928Y-12471286D01*
X12888214Y-12457000D01*
X12916786Y-12442714D01*
X13131071Y-12471286D02*
X13145357Y-12457000D01*
X13173928Y-12442714D01*
X13245357Y-12442714D01*
X13273928Y-12457000D01*
X13288214Y-12471286D01*
X13302500Y-12499857D01*
X13302500Y-12528429D01*
X13288214Y-12571286D01*
X13116786Y-12742714D01*
X13302500Y-12742714D01*
X13402500Y-12442714D02*
X13588214Y-12442714D01*
X13488214Y-12557000D01*
X13531071Y-12557000D01*
X13559643Y-12571286D01*
X13573928Y-12585571D01*
X13588214Y-12614143D01*
X13588214Y-12685571D01*
X13573928Y-12714143D01*
X13559643Y-12728429D01*
X13531071Y-12742714D01*
X13445357Y-12742714D01*
X13416786Y-12728429D01*
X13402500Y-12714143D01*
X13845357Y-12442714D02*
X13788214Y-12442714D01*
X13759643Y-12457000D01*
X13745357Y-12471286D01*
X13716786Y-12514143D01*
X13702500Y-12571286D01*
X13702500Y-12685571D01*
X13716786Y-12714143D01*
X13731071Y-12728429D01*
X13759643Y-12742714D01*
X13816786Y-12742714D01*
X13845357Y-12728429D01*
X13859643Y-12714143D01*
X13873928Y-12685571D01*
X13873928Y-12614143D01*
X13859643Y-12585571D01*
X13845357Y-12571286D01*
X13816786Y-12557000D01*
X13759643Y-12557000D01*
X13731071Y-12571286D01*
X13716786Y-12585571D01*
X13702500Y-12614143D01*
X13988214Y-12442714D02*
X13988214Y-12499857D01*
X14102500Y-12442714D02*
X14102500Y-12499857D01*
X14545357Y-12857000D02*
X14531071Y-12842714D01*
X14502500Y-12799857D01*
X14488214Y-12771286D01*
X14473928Y-12728429D01*
X14459643Y-12657000D01*
X14459643Y-12599857D01*
X14473928Y-12528429D01*
X14488214Y-12485571D01*
X14502500Y-12457000D01*
X14531071Y-12414143D01*
X14545357Y-12399857D01*
X14716786Y-12442714D02*
X14745357Y-12442714D01*
X14773928Y-12457000D01*
X14788214Y-12471286D01*
X14802500Y-12499857D01*
X14816786Y-12557000D01*
X14816786Y-12628429D01*
X14802500Y-12685571D01*
X14788214Y-12714143D01*
X14773928Y-12728429D01*
X14745357Y-12742714D01*
X14716786Y-12742714D01*
X14688214Y-12728429D01*
X14673928Y-12714143D01*
X14659643Y-12685571D01*
X14645357Y-12628429D01*
X14645357Y-12557000D01*
X14659643Y-12499857D01*
X14673928Y-12471286D01*
X14688214Y-12457000D01*
X14716786Y-12442714D01*
X15173928Y-12742714D02*
X15173928Y-12442714D01*
X15302500Y-12742714D02*
X15302500Y-12585571D01*
X15288214Y-12557000D01*
X15259643Y-12542714D01*
X15216786Y-12542714D01*
X15188214Y-12557000D01*
X15173928Y-12571286D01*
X15488214Y-12742714D02*
X15459643Y-12728429D01*
X15445357Y-12714143D01*
X15431071Y-12685571D01*
X15431071Y-12599857D01*
X15445357Y-12571286D01*
X15459643Y-12557000D01*
X15488214Y-12542714D01*
X15531071Y-12542714D01*
X15559643Y-12557000D01*
X15573928Y-12571286D01*
X15588214Y-12599857D01*
X15588214Y-12685571D01*
X15573928Y-12714143D01*
X15559643Y-12728429D01*
X15531071Y-12742714D01*
X15488214Y-12742714D01*
X15759643Y-12742714D02*
X15731071Y-12728429D01*
X15716786Y-12699857D01*
X15716786Y-12442714D01*
X15988214Y-12728429D02*
X15959643Y-12742714D01*
X15902500Y-12742714D01*
X15873928Y-12728429D01*
X15859643Y-12699857D01*
X15859643Y-12585571D01*
X15873928Y-12557000D01*
X15902500Y-12542714D01*
X15959643Y-12542714D01*
X15988214Y-12557000D01*
X16002500Y-12585571D01*
X16002500Y-12614143D01*
X15859643Y-12642714D01*
X16116786Y-12728429D02*
X16145357Y-12742714D01*
X16202500Y-12742714D01*
X16231071Y-12728429D01*
X16245357Y-12699857D01*
X16245357Y-12685571D01*
X16231071Y-12657000D01*
X16202500Y-12642714D01*
X16159643Y-12642714D01*
X16131071Y-12628429D01*
X16116786Y-12599857D01*
X16116786Y-12585571D01*
X16131071Y-12557000D01*
X16159643Y-12542714D01*
X16202500Y-12542714D01*
X16231071Y-12557000D01*
X16602500Y-12628429D02*
X16831071Y-12628429D01*
X16716786Y-12742714D02*
X16716786Y-12514143D01*
X17331071Y-12542714D02*
X17331071Y-12742714D01*
X17259643Y-12428429D02*
X17188214Y-12642714D01*
X17373928Y-12642714D01*
X17702500Y-12728429D02*
X17731071Y-12742714D01*
X17788214Y-12742714D01*
X17816786Y-12728429D01*
X17831071Y-12699857D01*
X17831071Y-12685571D01*
X17816786Y-12657000D01*
X17788214Y-12642714D01*
X17745357Y-12642714D01*
X17716786Y-12628429D01*
X17702500Y-12599857D01*
X17702500Y-12585571D01*
X17716786Y-12557000D01*
X17745357Y-12542714D01*
X17788214Y-12542714D01*
X17816786Y-12557000D01*
X18002500Y-12742714D02*
X17973928Y-12728429D01*
X17959643Y-12699857D01*
X17959643Y-12442714D01*
X18159643Y-12742714D02*
X18131071Y-12728429D01*
X18116786Y-12714143D01*
X18102500Y-12685571D01*
X18102500Y-12599857D01*
X18116786Y-12571286D01*
X18131071Y-12557000D01*
X18159643Y-12542714D01*
X18202500Y-12542714D01*
X18231071Y-12557000D01*
X18245357Y-12571286D01*
X18259643Y-12599857D01*
X18259643Y-12685571D01*
X18245357Y-12714143D01*
X18231071Y-12728429D01*
X18202500Y-12742714D01*
X18159643Y-12742714D01*
X18345357Y-12542714D02*
X18459643Y-12542714D01*
X18388214Y-12442714D02*
X18388214Y-12699857D01*
X18402500Y-12728429D01*
X18431071Y-12742714D01*
X18459643Y-12742714D01*
X18545357Y-12728429D02*
X18573928Y-12742714D01*
X18631071Y-12742714D01*
X18659643Y-12728429D01*
X18673928Y-12699857D01*
X18673928Y-12685571D01*
X18659643Y-12657000D01*
X18631071Y-12642714D01*
X18588214Y-12642714D01*
X18559643Y-12628429D01*
X18545357Y-12599857D01*
X18545357Y-12585571D01*
X18559643Y-12557000D01*
X18588214Y-12542714D01*
X18631071Y-12542714D01*
X18659643Y-12557000D01*
X18773928Y-12857000D02*
X18788214Y-12842714D01*
X18816786Y-12799857D01*
X18831071Y-12771286D01*
X18845357Y-12728429D01*
X18859643Y-12657000D01*
X18859643Y-12599857D01*
X18845357Y-12528429D01*
X18831071Y-12485571D01*
X18816786Y-12457000D01*
X18788214Y-12414143D01*
X18773928Y-12399857D01*
X9272856Y-13038356D02*
X9272856Y-12967644D01*
X9202144Y-12967644D01*
X9202144Y-13038356D01*
X9272856Y-13038356D01*
X9731071Y-13138714D02*
X9559643Y-13138714D01*
X9645357Y-13138714D02*
X9645357Y-12838714D01*
X9616786Y-12881571D01*
X9588214Y-12910143D01*
X9559643Y-12924429D01*
X9859643Y-13110143D02*
X9873928Y-13124429D01*
X9859643Y-13138714D01*
X9845357Y-13124429D01*
X9859643Y-13110143D01*
X9859643Y-13138714D01*
X10059643Y-12838714D02*
X10088214Y-12838714D01*
X10116786Y-12853000D01*
X10131071Y-12867286D01*
X10145357Y-12895857D01*
X10159643Y-12953000D01*
X10159643Y-13024429D01*
X10145357Y-13081571D01*
X10131071Y-13110143D01*
X10116786Y-13124429D01*
X10088214Y-13138714D01*
X10059643Y-13138714D01*
X10031071Y-13124429D01*
X10016786Y-13110143D01*
X10002500Y-13081571D01*
X9988214Y-13024429D01*
X9988214Y-12953000D01*
X10002500Y-12895857D01*
X10016786Y-12867286D01*
X10031071Y-12853000D01*
X10059643Y-12838714D01*
X10345357Y-12838714D02*
X10373928Y-12838714D01*
X10402500Y-12853000D01*
X10416786Y-12867286D01*
X10431071Y-12895857D01*
X10445357Y-12953000D01*
X10445357Y-13024429D01*
X10431071Y-13081571D01*
X10416786Y-13110143D01*
X10402500Y-13124429D01*
X10373928Y-13138714D01*
X10345357Y-13138714D01*
X10316786Y-13124429D01*
X10302500Y-13110143D01*
X10288214Y-13081571D01*
X10273928Y-13024429D01*
X10273928Y-12953000D01*
X10288214Y-12895857D01*
X10302500Y-12867286D01*
X10316786Y-12853000D01*
X10345357Y-12838714D01*
X10631071Y-12838714D02*
X10659643Y-12838714D01*
X10688214Y-12853000D01*
X10702500Y-12867286D01*
X10716786Y-12895857D01*
X10731071Y-12953000D01*
X10731071Y-13024429D01*
X10716786Y-13081571D01*
X10702500Y-13110143D01*
X10688214Y-13124429D01*
X10659643Y-13138714D01*
X10631071Y-13138714D01*
X10602500Y-13124429D01*
X10588214Y-13110143D01*
X10573928Y-13081571D01*
X10559643Y-13024429D01*
X10559643Y-12953000D01*
X10573928Y-12895857D01*
X10588214Y-12867286D01*
X10602500Y-12853000D01*
X10631071Y-12838714D01*
X10859643Y-13138714D02*
X10859643Y-12938714D01*
X10859643Y-12967286D02*
X10873928Y-12953000D01*
X10902500Y-12938714D01*
X10945357Y-12938714D01*
X10973928Y-12953000D01*
X10988214Y-12981571D01*
X10988214Y-13138714D01*
X10988214Y-12981571D02*
X11002500Y-12953000D01*
X11031071Y-12938714D01*
X11073928Y-12938714D01*
X11102500Y-12953000D01*
X11116786Y-12981571D01*
X11116786Y-13138714D01*
X11259643Y-13138714D02*
X11259643Y-12938714D01*
X11259643Y-12967286D02*
X11273928Y-12953000D01*
X11302500Y-12938714D01*
X11345357Y-12938714D01*
X11373928Y-12953000D01*
X11388214Y-12981571D01*
X11388214Y-13138714D01*
X11388214Y-12981571D02*
X11402500Y-12953000D01*
X11431071Y-12938714D01*
X11473928Y-12938714D01*
X11502500Y-12953000D01*
X11516786Y-12981571D01*
X11516786Y-13138714D01*
X12102500Y-12824429D02*
X11845357Y-13210143D01*
X12488214Y-12838714D02*
X12516786Y-12838714D01*
X12545357Y-12853000D01*
X12559643Y-12867286D01*
X12573928Y-12895857D01*
X12588214Y-12953000D01*
X12588214Y-13024429D01*
X12573928Y-13081571D01*
X12559643Y-13110143D01*
X12545357Y-13124429D01*
X12516786Y-13138714D01*
X12488214Y-13138714D01*
X12459643Y-13124429D01*
X12445357Y-13110143D01*
X12431071Y-13081571D01*
X12416786Y-13024429D01*
X12416786Y-12953000D01*
X12431071Y-12895857D01*
X12445357Y-12867286D01*
X12459643Y-12853000D01*
X12488214Y-12838714D01*
X12716786Y-13110143D02*
X12731071Y-13124429D01*
X12716786Y-13138714D01*
X12702500Y-13124429D01*
X12716786Y-13110143D01*
X12716786Y-13138714D01*
X12916786Y-12838714D02*
X12945357Y-12838714D01*
X12973928Y-12853000D01*
X12988214Y-12867286D01*
X13002500Y-12895857D01*
X13016786Y-12953000D01*
X13016786Y-13024429D01*
X13002500Y-13081571D01*
X12988214Y-13110143D01*
X12973928Y-13124429D01*
X12945357Y-13138714D01*
X12916786Y-13138714D01*
X12888214Y-13124429D01*
X12873928Y-13110143D01*
X12859643Y-13081571D01*
X12845357Y-13024429D01*
X12845357Y-12953000D01*
X12859643Y-12895857D01*
X12873928Y-12867286D01*
X12888214Y-12853000D01*
X12916786Y-12838714D01*
X13116786Y-12838714D02*
X13302500Y-12838714D01*
X13202500Y-12953000D01*
X13245357Y-12953000D01*
X13273928Y-12967286D01*
X13288214Y-12981571D01*
X13302500Y-13010143D01*
X13302500Y-13081571D01*
X13288214Y-13110143D01*
X13273928Y-13124429D01*
X13245357Y-13138714D01*
X13159643Y-13138714D01*
X13131071Y-13124429D01*
X13116786Y-13110143D01*
X13445357Y-13138714D02*
X13502500Y-13138714D01*
X13531071Y-13124429D01*
X13545357Y-13110143D01*
X13573928Y-13067286D01*
X13588214Y-13010143D01*
X13588214Y-12895857D01*
X13573928Y-12867286D01*
X13559643Y-12853000D01*
X13531071Y-12838714D01*
X13473928Y-12838714D01*
X13445357Y-12853000D01*
X13431071Y-12867286D01*
X13416786Y-12895857D01*
X13416786Y-12967286D01*
X13431071Y-12995857D01*
X13445357Y-13010143D01*
X13473928Y-13024429D01*
X13531071Y-13024429D01*
X13559643Y-13010143D01*
X13573928Y-12995857D01*
X13588214Y-12967286D01*
X13845357Y-12938714D02*
X13845357Y-13138714D01*
X13773928Y-12824429D02*
X13702500Y-13038714D01*
X13888214Y-13038714D01*
X13988214Y-12838714D02*
X13988214Y-12895857D01*
X14102500Y-12838714D02*
X14102500Y-12895857D01*
X14545357Y-13253000D02*
X14531071Y-13238714D01*
X14502500Y-13195857D01*
X14488214Y-13167286D01*
X14473928Y-13124429D01*
X14459643Y-13053000D01*
X14459643Y-12995857D01*
X14473928Y-12924429D01*
X14488214Y-12881571D01*
X14502500Y-12853000D01*
X14531071Y-12810143D01*
X14545357Y-12795857D01*
X14702500Y-12967286D02*
X14673928Y-12953000D01*
X14659643Y-12938714D01*
X14645357Y-12910143D01*
X14645357Y-12895857D01*
X14659643Y-12867286D01*
X14673928Y-12853000D01*
X14702500Y-12838714D01*
X14759643Y-12838714D01*
X14788214Y-12853000D01*
X14802500Y-12867286D01*
X14816786Y-12895857D01*
X14816786Y-12910143D01*
X14802500Y-12938714D01*
X14788214Y-12953000D01*
X14759643Y-12967286D01*
X14702500Y-12967286D01*
X14673928Y-12981571D01*
X14659643Y-12995857D01*
X14645357Y-13024429D01*
X14645357Y-13081571D01*
X14659643Y-13110143D01*
X14673928Y-13124429D01*
X14702500Y-13138714D01*
X14759643Y-13138714D01*
X14788214Y-13124429D01*
X14802500Y-13110143D01*
X14816786Y-13081571D01*
X14816786Y-13024429D01*
X14802500Y-12995857D01*
X14788214Y-12981571D01*
X14759643Y-12967286D01*
X14916786Y-12838714D02*
X15102500Y-12838714D01*
X15002500Y-12953000D01*
X15045357Y-12953000D01*
X15073928Y-12967286D01*
X15088214Y-12981571D01*
X15102500Y-13010143D01*
X15102500Y-13081571D01*
X15088214Y-13110143D01*
X15073928Y-13124429D01*
X15045357Y-13138714D01*
X14959643Y-13138714D01*
X14931071Y-13124429D01*
X14916786Y-13110143D01*
X15459643Y-13138714D02*
X15459643Y-12838714D01*
X15588214Y-13138714D02*
X15588214Y-12981571D01*
X15573928Y-12953000D01*
X15545357Y-12938714D01*
X15502500Y-12938714D01*
X15473928Y-12953000D01*
X15459643Y-12967286D01*
X15773928Y-13138714D02*
X15745357Y-13124429D01*
X15731071Y-13110143D01*
X15716786Y-13081571D01*
X15716786Y-12995857D01*
X15731071Y-12967286D01*
X15745357Y-12953000D01*
X15773928Y-12938714D01*
X15816786Y-12938714D01*
X15845357Y-12953000D01*
X15859643Y-12967286D01*
X15873928Y-12995857D01*
X15873928Y-13081571D01*
X15859643Y-13110143D01*
X15845357Y-13124429D01*
X15816786Y-13138714D01*
X15773928Y-13138714D01*
X16045357Y-13138714D02*
X16016786Y-13124429D01*
X16002500Y-13095857D01*
X16002500Y-12838714D01*
X16273928Y-13124429D02*
X16245357Y-13138714D01*
X16188214Y-13138714D01*
X16159643Y-13124429D01*
X16145357Y-13095857D01*
X16145357Y-12981571D01*
X16159643Y-12953000D01*
X16188214Y-12938714D01*
X16245357Y-12938714D01*
X16273928Y-12953000D01*
X16288214Y-12981571D01*
X16288214Y-13010143D01*
X16145357Y-13038714D01*
X16402500Y-13124429D02*
X16431071Y-13138714D01*
X16488214Y-13138714D01*
X16516786Y-13124429D01*
X16531071Y-13095857D01*
X16531071Y-13081571D01*
X16516786Y-13053000D01*
X16488214Y-13038714D01*
X16445357Y-13038714D01*
X16416786Y-13024429D01*
X16402500Y-12995857D01*
X16402500Y-12981571D01*
X16416786Y-12953000D01*
X16445357Y-12938714D01*
X16488214Y-12938714D01*
X16516786Y-12953000D01*
X16631071Y-13253000D02*
X16645357Y-13238714D01*
X16673928Y-13195857D01*
X16688214Y-13167286D01*
X16702500Y-13124429D01*
X16716786Y-13053000D01*
X16716786Y-12995857D01*
X16702500Y-12924429D01*
X16688214Y-12881571D01*
X16673928Y-12853000D01*
X16645357Y-12810143D01*
X16631071Y-12795857D01*
M02*
