G04 #@! TF.GenerationSoftware,KiCad,Pcbnew,(5.1.10)-1*
G04 #@! TF.CreationDate,2021-09-14T15:49:53+01:00*
G04 #@! TF.ProjectId,EnvOpenPico,456e764f-7065-46e5-9069-636f2e6b6963,REV1*
G04 #@! TF.SameCoordinates,Original*
G04 #@! TF.FileFunction,Other,User*
%FSLAX46Y46*%
G04 Gerber Fmt 4.6, Leading zero omitted, Abs format (unit mm)*
G04 Created by KiCad (PCBNEW (5.1.10)-1) date 2021-09-14 15:49:53*
%MOMM*%
%LPD*%
G01*
G04 APERTURE LIST*
%ADD10C,0.050000*%
%ADD11C,0.120000*%
G04 APERTURE END LIST*
D10*
X96550000Y-108785000D02*
X92950000Y-108785000D01*
X96550000Y-56935000D02*
X96550000Y-108785000D01*
X92950000Y-56935000D02*
X96550000Y-56935000D01*
X92950000Y-108785000D02*
X92950000Y-56935000D01*
X110730000Y-56925000D02*
X114330000Y-56925000D01*
X110730000Y-108775000D02*
X110730000Y-56925000D01*
X114330000Y-108775000D02*
X110730000Y-108775000D01*
X114330000Y-56925000D02*
X114330000Y-108775000D01*
X110060000Y-73725000D02*
G75*
G03*
X110060000Y-73725000I-1000000J0D01*
G01*
D11*
X102291200Y-58683800D02*
X103408800Y-58683800D01*
X103408800Y-58683800D02*
X103408800Y-57566200D01*
X103408800Y-57566200D02*
X102291200Y-57566200D01*
X102291200Y-57566200D02*
X102291200Y-58683800D01*
X104450000Y-58683800D02*
X105008800Y-58683800D01*
X105008800Y-58683800D02*
X105008800Y-57566200D01*
X105008800Y-57566200D02*
X103891200Y-57566200D01*
X103891200Y-57566200D02*
X103891200Y-58683800D01*
X103891200Y-58683800D02*
X104450000Y-58683800D01*
D10*
X103160000Y-83490000D02*
G75*
G03*
X103160000Y-83490000I-1000000J0D01*
G01*
X107190000Y-83725000D02*
G75*
G03*
X107190000Y-83725000I-1000000J0D01*
G01*
X101204400Y-78431000D02*
X101204400Y-76611000D01*
X100284400Y-78431000D02*
X101204400Y-78431000D01*
X100284400Y-76611000D02*
X100284400Y-78431000D01*
X101204400Y-76611000D02*
X100284400Y-76611000D01*
M02*
