M48
METRIC,TZ
T1C0.200
T2C0.350
T3C0.600
T4C1.000
%
G90
G05
T1
X96240Y-65125
X96960Y-90265
X97625Y-75675
X97680Y-101425
X97902Y-78075
X99057Y-95000
X100450Y-75625
X100800Y-69100
X100800Y-92225
X101125Y-83490
X102850Y-63450
X103330Y-79125
X103440Y-81440
X104335Y-62965
X105450Y-81900
X105750Y-79725
X106150Y-69300
X106600Y-77175
X107040Y-69035
X109060Y-73685
X109990Y-80895
X110190Y-101905
X110225Y-85425
X110310Y-73665
X110800Y-84785
T2
X96600Y-87325
X96700Y-85335
X97292Y-84725
X97725Y-81875
X97817Y-85720
X98411Y-85262
X98660Y-84525
X100200Y-89575
X100262Y-82363
X100925Y-76725
X102375Y-84750
X102375Y-86025
X102375Y-87300
X103650Y-84750
X103650Y-86025
X103650Y-87300
X104270Y-88125
X104284Y-90880
X104925Y-84750
X104925Y-86025
X104925Y-87300
X105065Y-83725
X105103Y-93640
X107600Y-92225
X108500Y-90125
T4
X92990Y-91660
X93000Y-58640
X93000Y-61170
X93000Y-63720
X93000Y-66250
X93000Y-68800
X93000Y-71340
X93000Y-73880
X93000Y-76420
X93000Y-81500
X93000Y-84040
X93000Y-86580
X93000Y-89120
X93000Y-94200
X93000Y-96740
X93000Y-99280
X93000Y-101820
X93000Y-104360
X93000Y-106900
X93010Y-78960
X94700Y-58640
X94700Y-61180
X94700Y-63720
X94700Y-66260
X94700Y-68800
X94700Y-71340
X94700Y-73880
X94700Y-76420
X94700Y-78960
X94700Y-81500
X94700Y-84040
X94700Y-86580
X94700Y-89120
X94700Y-91660
X94700Y-94200
X94700Y-96740
X94700Y-99280
X94700Y-101820
X94700Y-104360
X94700Y-106900
X101100Y-106900
X103640Y-106900
X106180Y-106900
X112520Y-58700
X112520Y-61240
X112520Y-63780
X112520Y-66320
X112520Y-68860
X112520Y-71400
X112520Y-73940
X112520Y-76480
X112520Y-79020
X112520Y-81560
X112520Y-84100
X112520Y-86640
X112520Y-89180
X112520Y-91720
X112520Y-94260
X112520Y-96800
X112520Y-99340
X112520Y-101880
X112520Y-104420
X112520Y-106960
X114220Y-58700
X114220Y-61240
X114220Y-63780
X114220Y-66320
X114220Y-68860
X114220Y-71400
X114220Y-73940
X114220Y-76480
X114220Y-79020
X114220Y-81560
X114220Y-84100
X114220Y-86640
X114220Y-89180
X114220Y-91720
X114220Y-94260
X114220Y-96800
X114220Y-99340
X114220Y-101880
X114220Y-104420
X114220Y-106960
T3
G00X99330Y-60125
M15
G01X99330Y-59525
M16
G05
G00X99330Y-64555
M15
G01X99330Y-63455
M16
G05
G00X107970Y-60125
M15
G01X107970Y-59525
M16
G05
G00X107970Y-64555
M15
G01X107970Y-63455
M16
G05
T0
M30
