G04 #@! TF.GenerationSoftware,KiCad,Pcbnew,(5.1.10)-1*
G04 #@! TF.CreationDate,2021-08-23T21:03:34+01:00*
G04 #@! TF.ProjectId,EnvOpenPico,456e764f-7065-46e5-9069-636f2e6b6963,REV1*
G04 #@! TF.SameCoordinates,Original*
G04 #@! TF.FileFunction,Legend,Top*
G04 #@! TF.FilePolarity,Positive*
%FSLAX46Y46*%
G04 Gerber Fmt 4.6, Leading zero omitted, Abs format (unit mm)*
G04 Created by KiCad (PCBNEW (5.1.10)-1) date 2021-08-23 21:03:34*
%MOMM*%
%LPD*%
G01*
G04 APERTURE LIST*
%ADD10C,0.153000*%
%ADD11C,0.120000*%
%ADD12C,0.145000*%
%ADD13C,0.100000*%
%ADD14C,0.752000*%
%ADD15O,1.802000X1.802000*%
%ADD16C,1.802000*%
G04 APERTURE END LIST*
D10*
X109753076Y-88803600D02*
X109676885Y-88765504D01*
X109562600Y-88765504D01*
X109448314Y-88803600D01*
X109372123Y-88879790D01*
X109334028Y-88955980D01*
X109295933Y-89108361D01*
X109295933Y-89222647D01*
X109334028Y-89375028D01*
X109372123Y-89451219D01*
X109448314Y-89527409D01*
X109562600Y-89565504D01*
X109638790Y-89565504D01*
X109753076Y-89527409D01*
X109791171Y-89489314D01*
X109791171Y-89222647D01*
X109638790Y-89222647D01*
X110134028Y-89565504D02*
X110134028Y-88765504D01*
X110591171Y-89565504D01*
X110591171Y-88765504D01*
X110972123Y-89565504D02*
X110972123Y-88765504D01*
X111162600Y-88765504D01*
X111276885Y-88803600D01*
X111353076Y-88879790D01*
X111391171Y-88955980D01*
X111429266Y-89108361D01*
X111429266Y-89222647D01*
X111391171Y-89375028D01*
X111353076Y-89451219D01*
X111276885Y-89527409D01*
X111162600Y-89565504D01*
X110972123Y-89565504D01*
X109080019Y-106583600D02*
X109003828Y-106545504D01*
X108889542Y-106545504D01*
X108775257Y-106583600D01*
X108699066Y-106659790D01*
X108660971Y-106735980D01*
X108622876Y-106888361D01*
X108622876Y-107002647D01*
X108660971Y-107155028D01*
X108699066Y-107231219D01*
X108775257Y-107307409D01*
X108889542Y-107345504D01*
X108965733Y-107345504D01*
X109080019Y-107307409D01*
X109118114Y-107269314D01*
X109118114Y-107002647D01*
X108965733Y-107002647D01*
X109460971Y-107345504D02*
X109460971Y-106545504D01*
X109765733Y-106545504D01*
X109841923Y-106583600D01*
X109880019Y-106621695D01*
X109918114Y-106697885D01*
X109918114Y-106812171D01*
X109880019Y-106888361D01*
X109841923Y-106926457D01*
X109765733Y-106964552D01*
X109460971Y-106964552D01*
X110680019Y-107345504D02*
X110222876Y-107345504D01*
X110451447Y-107345504D02*
X110451447Y-106545504D01*
X110375257Y-106659790D01*
X110299066Y-106735980D01*
X110222876Y-106774076D01*
X111365733Y-106545504D02*
X111213352Y-106545504D01*
X111137161Y-106583600D01*
X111099066Y-106621695D01*
X111022876Y-106735980D01*
X110984780Y-106888361D01*
X110984780Y-107193123D01*
X111022876Y-107269314D01*
X111060971Y-107307409D01*
X111137161Y-107345504D01*
X111289542Y-107345504D01*
X111365733Y-107307409D01*
X111403828Y-107269314D01*
X111441923Y-107193123D01*
X111441923Y-107002647D01*
X111403828Y-106926457D01*
X111365733Y-106888361D01*
X111289542Y-106850266D01*
X111137161Y-106850266D01*
X111060971Y-106888361D01*
X111022876Y-106926457D01*
X110984780Y-107002647D01*
X109054619Y-104043600D02*
X108978428Y-104005504D01*
X108864142Y-104005504D01*
X108749857Y-104043600D01*
X108673666Y-104119790D01*
X108635571Y-104195980D01*
X108597476Y-104348361D01*
X108597476Y-104462647D01*
X108635571Y-104615028D01*
X108673666Y-104691219D01*
X108749857Y-104767409D01*
X108864142Y-104805504D01*
X108940333Y-104805504D01*
X109054619Y-104767409D01*
X109092714Y-104729314D01*
X109092714Y-104462647D01*
X108940333Y-104462647D01*
X109435571Y-104805504D02*
X109435571Y-104005504D01*
X109740333Y-104005504D01*
X109816523Y-104043600D01*
X109854619Y-104081695D01*
X109892714Y-104157885D01*
X109892714Y-104272171D01*
X109854619Y-104348361D01*
X109816523Y-104386457D01*
X109740333Y-104424552D01*
X109435571Y-104424552D01*
X110654619Y-104805504D02*
X110197476Y-104805504D01*
X110426047Y-104805504D02*
X110426047Y-104005504D01*
X110349857Y-104119790D01*
X110273666Y-104195980D01*
X110197476Y-104234076D01*
X110921285Y-104005504D02*
X111454619Y-104005504D01*
X111111761Y-104805504D01*
X109753076Y-101503600D02*
X109676885Y-101465504D01*
X109562600Y-101465504D01*
X109448314Y-101503600D01*
X109372123Y-101579790D01*
X109334028Y-101655980D01*
X109295933Y-101808361D01*
X109295933Y-101922647D01*
X109334028Y-102075028D01*
X109372123Y-102151219D01*
X109448314Y-102227409D01*
X109562600Y-102265504D01*
X109638790Y-102265504D01*
X109753076Y-102227409D01*
X109791171Y-102189314D01*
X109791171Y-101922647D01*
X109638790Y-101922647D01*
X110134028Y-102265504D02*
X110134028Y-101465504D01*
X110591171Y-102265504D01*
X110591171Y-101465504D01*
X110972123Y-102265504D02*
X110972123Y-101465504D01*
X111162600Y-101465504D01*
X111276885Y-101503600D01*
X111353076Y-101579790D01*
X111391171Y-101655980D01*
X111429266Y-101808361D01*
X111429266Y-101922647D01*
X111391171Y-102075028D01*
X111353076Y-102151219D01*
X111276885Y-102227409D01*
X111162600Y-102265504D01*
X110972123Y-102265504D01*
X109029219Y-98963600D02*
X108953028Y-98925504D01*
X108838742Y-98925504D01*
X108724457Y-98963600D01*
X108648266Y-99039790D01*
X108610171Y-99115980D01*
X108572076Y-99268361D01*
X108572076Y-99382647D01*
X108610171Y-99535028D01*
X108648266Y-99611219D01*
X108724457Y-99687409D01*
X108838742Y-99725504D01*
X108914933Y-99725504D01*
X109029219Y-99687409D01*
X109067314Y-99649314D01*
X109067314Y-99382647D01*
X108914933Y-99382647D01*
X109410171Y-99725504D02*
X109410171Y-98925504D01*
X109714933Y-98925504D01*
X109791123Y-98963600D01*
X109829219Y-99001695D01*
X109867314Y-99077885D01*
X109867314Y-99192171D01*
X109829219Y-99268361D01*
X109791123Y-99306457D01*
X109714933Y-99344552D01*
X109410171Y-99344552D01*
X110629219Y-99725504D02*
X110172076Y-99725504D01*
X110400647Y-99725504D02*
X110400647Y-98925504D01*
X110324457Y-99039790D01*
X110248266Y-99115980D01*
X110172076Y-99154076D01*
X111086361Y-99268361D02*
X111010171Y-99230266D01*
X110972076Y-99192171D01*
X110933980Y-99115980D01*
X110933980Y-99077885D01*
X110972076Y-99001695D01*
X111010171Y-98963600D01*
X111086361Y-98925504D01*
X111238742Y-98925504D01*
X111314933Y-98963600D01*
X111353028Y-99001695D01*
X111391123Y-99077885D01*
X111391123Y-99115980D01*
X111353028Y-99192171D01*
X111314933Y-99230266D01*
X111238742Y-99268361D01*
X111086361Y-99268361D01*
X111010171Y-99306457D01*
X110972076Y-99344552D01*
X110933980Y-99420742D01*
X110933980Y-99573123D01*
X110972076Y-99649314D01*
X111010171Y-99687409D01*
X111086361Y-99725504D01*
X111238742Y-99725504D01*
X111314933Y-99687409D01*
X111353028Y-99649314D01*
X111391123Y-99573123D01*
X111391123Y-99420742D01*
X111353028Y-99344552D01*
X111314933Y-99306457D01*
X111238742Y-99268361D01*
X109029219Y-96423600D02*
X108953028Y-96385504D01*
X108838742Y-96385504D01*
X108724457Y-96423600D01*
X108648266Y-96499790D01*
X108610171Y-96575980D01*
X108572076Y-96728361D01*
X108572076Y-96842647D01*
X108610171Y-96995028D01*
X108648266Y-97071219D01*
X108724457Y-97147409D01*
X108838742Y-97185504D01*
X108914933Y-97185504D01*
X109029219Y-97147409D01*
X109067314Y-97109314D01*
X109067314Y-96842647D01*
X108914933Y-96842647D01*
X109410171Y-97185504D02*
X109410171Y-96385504D01*
X109714933Y-96385504D01*
X109791123Y-96423600D01*
X109829219Y-96461695D01*
X109867314Y-96537885D01*
X109867314Y-96652171D01*
X109829219Y-96728361D01*
X109791123Y-96766457D01*
X109714933Y-96804552D01*
X109410171Y-96804552D01*
X110629219Y-97185504D02*
X110172076Y-97185504D01*
X110400647Y-97185504D02*
X110400647Y-96385504D01*
X110324457Y-96499790D01*
X110248266Y-96575980D01*
X110172076Y-96614076D01*
X111010171Y-97185504D02*
X111162552Y-97185504D01*
X111238742Y-97147409D01*
X111276838Y-97109314D01*
X111353028Y-96995028D01*
X111391123Y-96842647D01*
X111391123Y-96537885D01*
X111353028Y-96461695D01*
X111314933Y-96423600D01*
X111238742Y-96385504D01*
X111086361Y-96385504D01*
X111010171Y-96423600D01*
X110972076Y-96461695D01*
X110933980Y-96537885D01*
X110933980Y-96728361D01*
X110972076Y-96804552D01*
X111010171Y-96842647D01*
X111086361Y-96880742D01*
X111238742Y-96880742D01*
X111314933Y-96842647D01*
X111353028Y-96804552D01*
X111391123Y-96728361D01*
X109029219Y-93883600D02*
X108953028Y-93845504D01*
X108838742Y-93845504D01*
X108724457Y-93883600D01*
X108648266Y-93959790D01*
X108610171Y-94035980D01*
X108572076Y-94188361D01*
X108572076Y-94302647D01*
X108610171Y-94455028D01*
X108648266Y-94531219D01*
X108724457Y-94607409D01*
X108838742Y-94645504D01*
X108914933Y-94645504D01*
X109029219Y-94607409D01*
X109067314Y-94569314D01*
X109067314Y-94302647D01*
X108914933Y-94302647D01*
X109410171Y-94645504D02*
X109410171Y-93845504D01*
X109714933Y-93845504D01*
X109791123Y-93883600D01*
X109829219Y-93921695D01*
X109867314Y-93997885D01*
X109867314Y-94112171D01*
X109829219Y-94188361D01*
X109791123Y-94226457D01*
X109714933Y-94264552D01*
X109410171Y-94264552D01*
X110172076Y-93921695D02*
X110210171Y-93883600D01*
X110286361Y-93845504D01*
X110476838Y-93845504D01*
X110553028Y-93883600D01*
X110591123Y-93921695D01*
X110629219Y-93997885D01*
X110629219Y-94074076D01*
X110591123Y-94188361D01*
X110133980Y-94645504D01*
X110629219Y-94645504D01*
X111124457Y-93845504D02*
X111200647Y-93845504D01*
X111276838Y-93883600D01*
X111314933Y-93921695D01*
X111353028Y-93997885D01*
X111391123Y-94150266D01*
X111391123Y-94340742D01*
X111353028Y-94493123D01*
X111314933Y-94569314D01*
X111276838Y-94607409D01*
X111200647Y-94645504D01*
X111124457Y-94645504D01*
X111048266Y-94607409D01*
X111010171Y-94569314D01*
X110972076Y-94493123D01*
X110933980Y-94340742D01*
X110933980Y-94150266D01*
X110972076Y-93997885D01*
X111010171Y-93921695D01*
X111048266Y-93883600D01*
X111124457Y-93845504D01*
X109130819Y-91343600D02*
X109054628Y-91305504D01*
X108940342Y-91305504D01*
X108826057Y-91343600D01*
X108749866Y-91419790D01*
X108711771Y-91495980D01*
X108673676Y-91648361D01*
X108673676Y-91762647D01*
X108711771Y-91915028D01*
X108749866Y-91991219D01*
X108826057Y-92067409D01*
X108940342Y-92105504D01*
X109016533Y-92105504D01*
X109130819Y-92067409D01*
X109168914Y-92029314D01*
X109168914Y-91762647D01*
X109016533Y-91762647D01*
X109511771Y-92105504D02*
X109511771Y-91305504D01*
X109816533Y-91305504D01*
X109892723Y-91343600D01*
X109930819Y-91381695D01*
X109968914Y-91457885D01*
X109968914Y-91572171D01*
X109930819Y-91648361D01*
X109892723Y-91686457D01*
X109816533Y-91724552D01*
X109511771Y-91724552D01*
X110273676Y-91381695D02*
X110311771Y-91343600D01*
X110387961Y-91305504D01*
X110578438Y-91305504D01*
X110654628Y-91343600D01*
X110692723Y-91381695D01*
X110730819Y-91457885D01*
X110730819Y-91534076D01*
X110692723Y-91648361D01*
X110235580Y-92105504D01*
X110730819Y-92105504D01*
X111492723Y-92105504D02*
X111035580Y-92105504D01*
X111264152Y-92105504D02*
X111264152Y-91305504D01*
X111187961Y-91419790D01*
X111111771Y-91495980D01*
X111035580Y-91534076D01*
X109772123Y-84206104D02*
X109505457Y-83825152D01*
X109314980Y-84206104D02*
X109314980Y-83406104D01*
X109619742Y-83406104D01*
X109695933Y-83444200D01*
X109734028Y-83482295D01*
X109772123Y-83558485D01*
X109772123Y-83672771D01*
X109734028Y-83748961D01*
X109695933Y-83787057D01*
X109619742Y-83825152D01*
X109314980Y-83825152D01*
X110114980Y-83406104D02*
X110114980Y-84053723D01*
X110153076Y-84129914D01*
X110191171Y-84168009D01*
X110267361Y-84206104D01*
X110419742Y-84206104D01*
X110495933Y-84168009D01*
X110534028Y-84129914D01*
X110572123Y-84053723D01*
X110572123Y-83406104D01*
X110953076Y-84206104D02*
X110953076Y-83406104D01*
X111410219Y-84206104D01*
X111410219Y-83406104D01*
X108668571Y-62286904D02*
X108935238Y-63086904D01*
X109201904Y-62286904D01*
X109430476Y-63048809D02*
X109544761Y-63086904D01*
X109735238Y-63086904D01*
X109811428Y-63048809D01*
X109849523Y-63010714D01*
X109887619Y-62934523D01*
X109887619Y-62858333D01*
X109849523Y-62782142D01*
X109811428Y-62744047D01*
X109735238Y-62705952D01*
X109582857Y-62667857D01*
X109506666Y-62629761D01*
X109468571Y-62591666D01*
X109430476Y-62515476D01*
X109430476Y-62439285D01*
X109468571Y-62363095D01*
X109506666Y-62325000D01*
X109582857Y-62286904D01*
X109773333Y-62286904D01*
X109887619Y-62325000D01*
X110382857Y-62705952D02*
X110382857Y-63086904D01*
X110116190Y-62286904D02*
X110382857Y-62705952D01*
X110649523Y-62286904D01*
X110878095Y-63048809D02*
X110992380Y-63086904D01*
X111182857Y-63086904D01*
X111259047Y-63048809D01*
X111297142Y-63010714D01*
X111335238Y-62934523D01*
X111335238Y-62858333D01*
X111297142Y-62782142D01*
X111259047Y-62744047D01*
X111182857Y-62705952D01*
X111030476Y-62667857D01*
X110954285Y-62629761D01*
X110916190Y-62591666D01*
X110878095Y-62515476D01*
X110878095Y-62439285D01*
X110916190Y-62363095D01*
X110954285Y-62325000D01*
X111030476Y-62286904D01*
X111220952Y-62286904D01*
X111335238Y-62325000D01*
X108473333Y-57586904D02*
X108740000Y-58386904D01*
X109006666Y-57586904D01*
X109540000Y-57967857D02*
X109654285Y-58005952D01*
X109692380Y-58044047D01*
X109730476Y-58120238D01*
X109730476Y-58234523D01*
X109692380Y-58310714D01*
X109654285Y-58348809D01*
X109578095Y-58386904D01*
X109273333Y-58386904D01*
X109273333Y-57586904D01*
X109540000Y-57586904D01*
X109616190Y-57625000D01*
X109654285Y-57663095D01*
X109692380Y-57739285D01*
X109692380Y-57815476D01*
X109654285Y-57891666D01*
X109616190Y-57929761D01*
X109540000Y-57967857D01*
X109273333Y-57967857D01*
X110073333Y-57586904D02*
X110073333Y-58234523D01*
X110111428Y-58310714D01*
X110149523Y-58348809D01*
X110225714Y-58386904D01*
X110378095Y-58386904D01*
X110454285Y-58348809D01*
X110492380Y-58310714D01*
X110530476Y-58234523D01*
X110530476Y-57586904D01*
X110873333Y-58348809D02*
X110987619Y-58386904D01*
X111178095Y-58386904D01*
X111254285Y-58348809D01*
X111292380Y-58310714D01*
X111330476Y-58234523D01*
X111330476Y-58158333D01*
X111292380Y-58082142D01*
X111254285Y-58044047D01*
X111178095Y-58005952D01*
X111025714Y-57967857D01*
X110949523Y-57929761D01*
X110911428Y-57891666D01*
X110873333Y-57815476D01*
X110873333Y-57739285D01*
X110911428Y-57663095D01*
X110949523Y-57625000D01*
X111025714Y-57586904D01*
X111216190Y-57586904D01*
X111330476Y-57625000D01*
X96368571Y-63403946D02*
X96292380Y-63365850D01*
X96178095Y-63365850D01*
X96063809Y-63403946D01*
X95987618Y-63480136D01*
X95949523Y-63556326D01*
X95911428Y-63708707D01*
X95911428Y-63822993D01*
X95949523Y-63975374D01*
X95987618Y-64051565D01*
X96063809Y-64127755D01*
X96178095Y-64165850D01*
X96254285Y-64165850D01*
X96368571Y-64127755D01*
X96406666Y-64089660D01*
X96406666Y-63822993D01*
X96254285Y-63822993D01*
X96749523Y-64165850D02*
X96749523Y-63365850D01*
X97206666Y-64165850D01*
X97206666Y-63365850D01*
X97587618Y-64165850D02*
X97587618Y-63365850D01*
X97778095Y-63365850D01*
X97892380Y-63403946D01*
X97968571Y-63480136D01*
X98006666Y-63556326D01*
X98044761Y-63708707D01*
X98044761Y-63822993D01*
X98006666Y-63975374D01*
X97968571Y-64051565D01*
X97892380Y-64127755D01*
X97778095Y-64165850D01*
X97587618Y-64165850D01*
X96368571Y-101496041D02*
X96292380Y-101457945D01*
X96178095Y-101457945D01*
X96063809Y-101496041D01*
X95987618Y-101572231D01*
X95949523Y-101648421D01*
X95911428Y-101800802D01*
X95911428Y-101915088D01*
X95949523Y-102067469D01*
X95987618Y-102143660D01*
X96063809Y-102219850D01*
X96178095Y-102257945D01*
X96254285Y-102257945D01*
X96368571Y-102219850D01*
X96406666Y-102181755D01*
X96406666Y-101915088D01*
X96254285Y-101915088D01*
X96749523Y-102257945D02*
X96749523Y-101457945D01*
X97206666Y-102257945D01*
X97206666Y-101457945D01*
X97587618Y-102257945D02*
X97587618Y-101457945D01*
X97778095Y-101457945D01*
X97892380Y-101496041D01*
X97968571Y-101572231D01*
X98006666Y-101648421D01*
X98044761Y-101800802D01*
X98044761Y-101915088D01*
X98006666Y-102067469D01*
X97968571Y-102143660D01*
X97892380Y-102219850D01*
X97778095Y-102257945D01*
X97587618Y-102257945D01*
X96368571Y-88798676D02*
X96292380Y-88760580D01*
X96178095Y-88760580D01*
X96063809Y-88798676D01*
X95987618Y-88874866D01*
X95949523Y-88951056D01*
X95911428Y-89103437D01*
X95911428Y-89217723D01*
X95949523Y-89370104D01*
X95987618Y-89446295D01*
X96063809Y-89522485D01*
X96178095Y-89560580D01*
X96254285Y-89560580D01*
X96368571Y-89522485D01*
X96406666Y-89484390D01*
X96406666Y-89217723D01*
X96254285Y-89217723D01*
X96749523Y-89560580D02*
X96749523Y-88760580D01*
X97206666Y-89560580D01*
X97206666Y-88760580D01*
X97587618Y-89560580D02*
X97587618Y-88760580D01*
X97778095Y-88760580D01*
X97892380Y-88798676D01*
X97968571Y-88874866D01*
X98006666Y-88951056D01*
X98044761Y-89103437D01*
X98044761Y-89217723D01*
X98006666Y-89370104D01*
X97968571Y-89446295D01*
X97892380Y-89522485D01*
X97778095Y-89560580D01*
X97587618Y-89560580D01*
X96368571Y-76101311D02*
X96292380Y-76063215D01*
X96178095Y-76063215D01*
X96063809Y-76101311D01*
X95987618Y-76177501D01*
X95949523Y-76253691D01*
X95911428Y-76406072D01*
X95911428Y-76520358D01*
X95949523Y-76672739D01*
X95987618Y-76748930D01*
X96063809Y-76825120D01*
X96178095Y-76863215D01*
X96254285Y-76863215D01*
X96368571Y-76825120D01*
X96406666Y-76787025D01*
X96406666Y-76520358D01*
X96254285Y-76520358D01*
X96749523Y-76863215D02*
X96749523Y-76063215D01*
X97206666Y-76863215D01*
X97206666Y-76063215D01*
X97587618Y-76863215D02*
X97587618Y-76063215D01*
X97778095Y-76063215D01*
X97892380Y-76101311D01*
X97968571Y-76177501D01*
X98006666Y-76253691D01*
X98044761Y-76406072D01*
X98044761Y-76520358D01*
X98006666Y-76672739D01*
X97968571Y-76748930D01*
X97892380Y-76825120D01*
X97778095Y-76863215D01*
X97587618Y-76863215D01*
X96368572Y-106575000D02*
X96292381Y-106536904D01*
X96178095Y-106536904D01*
X96063810Y-106575000D01*
X95987619Y-106651190D01*
X95949524Y-106727380D01*
X95911429Y-106879761D01*
X95911429Y-106994047D01*
X95949524Y-107146428D01*
X95987619Y-107222619D01*
X96063810Y-107298809D01*
X96178095Y-107336904D01*
X96254286Y-107336904D01*
X96368572Y-107298809D01*
X96406667Y-107260714D01*
X96406667Y-106994047D01*
X96254286Y-106994047D01*
X96749524Y-107336904D02*
X96749524Y-106536904D01*
X97054286Y-106536904D01*
X97130476Y-106575000D01*
X97168572Y-106613095D01*
X97206667Y-106689285D01*
X97206667Y-106803571D01*
X97168572Y-106879761D01*
X97130476Y-106917857D01*
X97054286Y-106955952D01*
X96749524Y-106955952D01*
X97968572Y-107336904D02*
X97511429Y-107336904D01*
X97740000Y-107336904D02*
X97740000Y-106536904D01*
X97663810Y-106651190D01*
X97587619Y-106727380D01*
X97511429Y-106765476D01*
X98692381Y-106536904D02*
X98311429Y-106536904D01*
X98273333Y-106917857D01*
X98311429Y-106879761D01*
X98387619Y-106841666D01*
X98578095Y-106841666D01*
X98654286Y-106879761D01*
X98692381Y-106917857D01*
X98730476Y-106994047D01*
X98730476Y-107184523D01*
X98692381Y-107260714D01*
X98654286Y-107298809D01*
X98578095Y-107336904D01*
X98387619Y-107336904D01*
X98311429Y-107298809D01*
X98273333Y-107260714D01*
X96368572Y-104035514D02*
X96292381Y-103997418D01*
X96178095Y-103997418D01*
X96063810Y-104035514D01*
X95987619Y-104111704D01*
X95949524Y-104187894D01*
X95911429Y-104340275D01*
X95911429Y-104454561D01*
X95949524Y-104606942D01*
X95987619Y-104683133D01*
X96063810Y-104759323D01*
X96178095Y-104797418D01*
X96254286Y-104797418D01*
X96368572Y-104759323D01*
X96406667Y-104721228D01*
X96406667Y-104454561D01*
X96254286Y-104454561D01*
X96749524Y-104797418D02*
X96749524Y-103997418D01*
X97054286Y-103997418D01*
X97130476Y-104035514D01*
X97168572Y-104073609D01*
X97206667Y-104149799D01*
X97206667Y-104264085D01*
X97168572Y-104340275D01*
X97130476Y-104378371D01*
X97054286Y-104416466D01*
X96749524Y-104416466D01*
X97968572Y-104797418D02*
X97511429Y-104797418D01*
X97740000Y-104797418D02*
X97740000Y-103997418D01*
X97663810Y-104111704D01*
X97587619Y-104187894D01*
X97511429Y-104225990D01*
X98654286Y-104264085D02*
X98654286Y-104797418D01*
X98463810Y-103959323D02*
X98273333Y-104530752D01*
X98768572Y-104530752D01*
X96368572Y-98956568D02*
X96292381Y-98918472D01*
X96178095Y-98918472D01*
X96063810Y-98956568D01*
X95987619Y-99032758D01*
X95949524Y-99108948D01*
X95911429Y-99261329D01*
X95911429Y-99375615D01*
X95949524Y-99527996D01*
X95987619Y-99604187D01*
X96063810Y-99680377D01*
X96178095Y-99718472D01*
X96254286Y-99718472D01*
X96368572Y-99680377D01*
X96406667Y-99642282D01*
X96406667Y-99375615D01*
X96254286Y-99375615D01*
X96749524Y-99718472D02*
X96749524Y-98918472D01*
X97054286Y-98918472D01*
X97130476Y-98956568D01*
X97168572Y-98994663D01*
X97206667Y-99070853D01*
X97206667Y-99185139D01*
X97168572Y-99261329D01*
X97130476Y-99299425D01*
X97054286Y-99337520D01*
X96749524Y-99337520D01*
X97968572Y-99718472D02*
X97511429Y-99718472D01*
X97740000Y-99718472D02*
X97740000Y-98918472D01*
X97663810Y-99032758D01*
X97587619Y-99108948D01*
X97511429Y-99147044D01*
X98235238Y-98918472D02*
X98730476Y-98918472D01*
X98463810Y-99223234D01*
X98578095Y-99223234D01*
X98654286Y-99261329D01*
X98692381Y-99299425D01*
X98730476Y-99375615D01*
X98730476Y-99566091D01*
X98692381Y-99642282D01*
X98654286Y-99680377D01*
X98578095Y-99718472D01*
X98349524Y-99718472D01*
X98273333Y-99680377D01*
X98235238Y-99642282D01*
X96368572Y-96417095D02*
X96292381Y-96378999D01*
X96178095Y-96378999D01*
X96063810Y-96417095D01*
X95987619Y-96493285D01*
X95949524Y-96569475D01*
X95911429Y-96721856D01*
X95911429Y-96836142D01*
X95949524Y-96988523D01*
X95987619Y-97064714D01*
X96063810Y-97140904D01*
X96178095Y-97178999D01*
X96254286Y-97178999D01*
X96368572Y-97140904D01*
X96406667Y-97102809D01*
X96406667Y-96836142D01*
X96254286Y-96836142D01*
X96749524Y-97178999D02*
X96749524Y-96378999D01*
X97054286Y-96378999D01*
X97130476Y-96417095D01*
X97168572Y-96455190D01*
X97206667Y-96531380D01*
X97206667Y-96645666D01*
X97168572Y-96721856D01*
X97130476Y-96759952D01*
X97054286Y-96798047D01*
X96749524Y-96798047D01*
X97968572Y-97178999D02*
X97511429Y-97178999D01*
X97740000Y-97178999D02*
X97740000Y-96378999D01*
X97663810Y-96493285D01*
X97587619Y-96569475D01*
X97511429Y-96607571D01*
X98273333Y-96455190D02*
X98311429Y-96417095D01*
X98387619Y-96378999D01*
X98578095Y-96378999D01*
X98654286Y-96417095D01*
X98692381Y-96455190D01*
X98730476Y-96531380D01*
X98730476Y-96607571D01*
X98692381Y-96721856D01*
X98235238Y-97178999D01*
X98730476Y-97178999D01*
X96368572Y-93877622D02*
X96292381Y-93839526D01*
X96178095Y-93839526D01*
X96063810Y-93877622D01*
X95987619Y-93953812D01*
X95949524Y-94030002D01*
X95911429Y-94182383D01*
X95911429Y-94296669D01*
X95949524Y-94449050D01*
X95987619Y-94525241D01*
X96063810Y-94601431D01*
X96178095Y-94639526D01*
X96254286Y-94639526D01*
X96368572Y-94601431D01*
X96406667Y-94563336D01*
X96406667Y-94296669D01*
X96254286Y-94296669D01*
X96749524Y-94639526D02*
X96749524Y-93839526D01*
X97054286Y-93839526D01*
X97130476Y-93877622D01*
X97168572Y-93915717D01*
X97206667Y-93991907D01*
X97206667Y-94106193D01*
X97168572Y-94182383D01*
X97130476Y-94220479D01*
X97054286Y-94258574D01*
X96749524Y-94258574D01*
X97968572Y-94639526D02*
X97511429Y-94639526D01*
X97740000Y-94639526D02*
X97740000Y-93839526D01*
X97663810Y-93953812D01*
X97587619Y-94030002D01*
X97511429Y-94068098D01*
X98730476Y-94639526D02*
X98273333Y-94639526D01*
X98501905Y-94639526D02*
X98501905Y-93839526D01*
X98425714Y-93953812D01*
X98349524Y-94030002D01*
X98273333Y-94068098D01*
X96368572Y-91338149D02*
X96292381Y-91300053D01*
X96178095Y-91300053D01*
X96063810Y-91338149D01*
X95987619Y-91414339D01*
X95949524Y-91490529D01*
X95911429Y-91642910D01*
X95911429Y-91757196D01*
X95949524Y-91909577D01*
X95987619Y-91985768D01*
X96063810Y-92061958D01*
X96178095Y-92100053D01*
X96254286Y-92100053D01*
X96368572Y-92061958D01*
X96406667Y-92023863D01*
X96406667Y-91757196D01*
X96254286Y-91757196D01*
X96749524Y-92100053D02*
X96749524Y-91300053D01*
X97054286Y-91300053D01*
X97130476Y-91338149D01*
X97168572Y-91376244D01*
X97206667Y-91452434D01*
X97206667Y-91566720D01*
X97168572Y-91642910D01*
X97130476Y-91681006D01*
X97054286Y-91719101D01*
X96749524Y-91719101D01*
X97968572Y-92100053D02*
X97511429Y-92100053D01*
X97740000Y-92100053D02*
X97740000Y-91300053D01*
X97663810Y-91414339D01*
X97587619Y-91490529D01*
X97511429Y-91528625D01*
X98463810Y-91300053D02*
X98540000Y-91300053D01*
X98616191Y-91338149D01*
X98654286Y-91376244D01*
X98692381Y-91452434D01*
X98730476Y-91604815D01*
X98730476Y-91795291D01*
X98692381Y-91947672D01*
X98654286Y-92023863D01*
X98616191Y-92061958D01*
X98540000Y-92100053D01*
X98463810Y-92100053D01*
X98387619Y-92061958D01*
X98349524Y-92023863D01*
X98311429Y-91947672D01*
X98273333Y-91795291D01*
X98273333Y-91604815D01*
X98311429Y-91452434D01*
X98349524Y-91376244D01*
X98387619Y-91338149D01*
X98463810Y-91300053D01*
X96368571Y-86259203D02*
X96292380Y-86221107D01*
X96178095Y-86221107D01*
X96063809Y-86259203D01*
X95987619Y-86335393D01*
X95949523Y-86411583D01*
X95911428Y-86563964D01*
X95911428Y-86678250D01*
X95949523Y-86830631D01*
X95987619Y-86906822D01*
X96063809Y-86983012D01*
X96178095Y-87021107D01*
X96254285Y-87021107D01*
X96368571Y-86983012D01*
X96406666Y-86944917D01*
X96406666Y-86678250D01*
X96254285Y-86678250D01*
X96749523Y-87021107D02*
X96749523Y-86221107D01*
X97054285Y-86221107D01*
X97130476Y-86259203D01*
X97168571Y-86297298D01*
X97206666Y-86373488D01*
X97206666Y-86487774D01*
X97168571Y-86563964D01*
X97130476Y-86602060D01*
X97054285Y-86640155D01*
X96749523Y-86640155D01*
X97587619Y-87021107D02*
X97740000Y-87021107D01*
X97816190Y-86983012D01*
X97854285Y-86944917D01*
X97930476Y-86830631D01*
X97968571Y-86678250D01*
X97968571Y-86373488D01*
X97930476Y-86297298D01*
X97892380Y-86259203D01*
X97816190Y-86221107D01*
X97663809Y-86221107D01*
X97587619Y-86259203D01*
X97549523Y-86297298D01*
X97511428Y-86373488D01*
X97511428Y-86563964D01*
X97549523Y-86640155D01*
X97587619Y-86678250D01*
X97663809Y-86716345D01*
X97816190Y-86716345D01*
X97892380Y-86678250D01*
X97930476Y-86640155D01*
X97968571Y-86563964D01*
X96368571Y-83719730D02*
X96292380Y-83681634D01*
X96178095Y-83681634D01*
X96063809Y-83719730D01*
X95987619Y-83795920D01*
X95949523Y-83872110D01*
X95911428Y-84024491D01*
X95911428Y-84138777D01*
X95949523Y-84291158D01*
X95987619Y-84367349D01*
X96063809Y-84443539D01*
X96178095Y-84481634D01*
X96254285Y-84481634D01*
X96368571Y-84443539D01*
X96406666Y-84405444D01*
X96406666Y-84138777D01*
X96254285Y-84138777D01*
X96749523Y-84481634D02*
X96749523Y-83681634D01*
X97054285Y-83681634D01*
X97130476Y-83719730D01*
X97168571Y-83757825D01*
X97206666Y-83834015D01*
X97206666Y-83948301D01*
X97168571Y-84024491D01*
X97130476Y-84062587D01*
X97054285Y-84100682D01*
X96749523Y-84100682D01*
X97663809Y-84024491D02*
X97587619Y-83986396D01*
X97549523Y-83948301D01*
X97511428Y-83872110D01*
X97511428Y-83834015D01*
X97549523Y-83757825D01*
X97587619Y-83719730D01*
X97663809Y-83681634D01*
X97816190Y-83681634D01*
X97892380Y-83719730D01*
X97930476Y-83757825D01*
X97968571Y-83834015D01*
X97968571Y-83872110D01*
X97930476Y-83948301D01*
X97892380Y-83986396D01*
X97816190Y-84024491D01*
X97663809Y-84024491D01*
X97587619Y-84062587D01*
X97549523Y-84100682D01*
X97511428Y-84176872D01*
X97511428Y-84329253D01*
X97549523Y-84405444D01*
X97587619Y-84443539D01*
X97663809Y-84481634D01*
X97816190Y-84481634D01*
X97892380Y-84443539D01*
X97930476Y-84405444D01*
X97968571Y-84329253D01*
X97968571Y-84176872D01*
X97930476Y-84100682D01*
X97892380Y-84062587D01*
X97816190Y-84024491D01*
X96368571Y-81180257D02*
X96292380Y-81142161D01*
X96178095Y-81142161D01*
X96063809Y-81180257D01*
X95987619Y-81256447D01*
X95949523Y-81332637D01*
X95911428Y-81485018D01*
X95911428Y-81599304D01*
X95949523Y-81751685D01*
X95987619Y-81827876D01*
X96063809Y-81904066D01*
X96178095Y-81942161D01*
X96254285Y-81942161D01*
X96368571Y-81904066D01*
X96406666Y-81865971D01*
X96406666Y-81599304D01*
X96254285Y-81599304D01*
X96749523Y-81942161D02*
X96749523Y-81142161D01*
X97054285Y-81142161D01*
X97130476Y-81180257D01*
X97168571Y-81218352D01*
X97206666Y-81294542D01*
X97206666Y-81408828D01*
X97168571Y-81485018D01*
X97130476Y-81523114D01*
X97054285Y-81561209D01*
X96749523Y-81561209D01*
X97473333Y-81142161D02*
X98006666Y-81142161D01*
X97663809Y-81942161D01*
X96368571Y-78640784D02*
X96292380Y-78602688D01*
X96178095Y-78602688D01*
X96063809Y-78640784D01*
X95987619Y-78716974D01*
X95949523Y-78793164D01*
X95911428Y-78945545D01*
X95911428Y-79059831D01*
X95949523Y-79212212D01*
X95987619Y-79288403D01*
X96063809Y-79364593D01*
X96178095Y-79402688D01*
X96254285Y-79402688D01*
X96368571Y-79364593D01*
X96406666Y-79326498D01*
X96406666Y-79059831D01*
X96254285Y-79059831D01*
X96749523Y-79402688D02*
X96749523Y-78602688D01*
X97054285Y-78602688D01*
X97130476Y-78640784D01*
X97168571Y-78678879D01*
X97206666Y-78755069D01*
X97206666Y-78869355D01*
X97168571Y-78945545D01*
X97130476Y-78983641D01*
X97054285Y-79021736D01*
X96749523Y-79021736D01*
X97892380Y-78602688D02*
X97740000Y-78602688D01*
X97663809Y-78640784D01*
X97625714Y-78678879D01*
X97549523Y-78793164D01*
X97511428Y-78945545D01*
X97511428Y-79250307D01*
X97549523Y-79326498D01*
X97587619Y-79364593D01*
X97663809Y-79402688D01*
X97816190Y-79402688D01*
X97892380Y-79364593D01*
X97930476Y-79326498D01*
X97968571Y-79250307D01*
X97968571Y-79059831D01*
X97930476Y-78983641D01*
X97892380Y-78945545D01*
X97816190Y-78907450D01*
X97663809Y-78907450D01*
X97587619Y-78945545D01*
X97549523Y-78983641D01*
X97511428Y-79059831D01*
X96318571Y-73575000D02*
X96242380Y-73536904D01*
X96128095Y-73536904D01*
X96013809Y-73575000D01*
X95937619Y-73651190D01*
X95899523Y-73727380D01*
X95861428Y-73879761D01*
X95861428Y-73994047D01*
X95899523Y-74146428D01*
X95937619Y-74222619D01*
X96013809Y-74298809D01*
X96128095Y-74336904D01*
X96204285Y-74336904D01*
X96318571Y-74298809D01*
X96356666Y-74260714D01*
X96356666Y-73994047D01*
X96204285Y-73994047D01*
X96699523Y-74336904D02*
X96699523Y-73536904D01*
X97004285Y-73536904D01*
X97080476Y-73575000D01*
X97118571Y-73613095D01*
X97156666Y-73689285D01*
X97156666Y-73803571D01*
X97118571Y-73879761D01*
X97080476Y-73917857D01*
X97004285Y-73955952D01*
X96699523Y-73955952D01*
X97880476Y-73536904D02*
X97499523Y-73536904D01*
X97461428Y-73917857D01*
X97499523Y-73879761D01*
X97575714Y-73841666D01*
X97766190Y-73841666D01*
X97842380Y-73879761D01*
X97880476Y-73917857D01*
X97918571Y-73994047D01*
X97918571Y-74184523D01*
X97880476Y-74260714D01*
X97842380Y-74298809D01*
X97766190Y-74336904D01*
X97575714Y-74336904D01*
X97499523Y-74298809D01*
X97461428Y-74260714D01*
X96318571Y-71022365D02*
X96242380Y-70984269D01*
X96128095Y-70984269D01*
X96013809Y-71022365D01*
X95937619Y-71098555D01*
X95899523Y-71174745D01*
X95861428Y-71327126D01*
X95861428Y-71441412D01*
X95899523Y-71593793D01*
X95937619Y-71669984D01*
X96013809Y-71746174D01*
X96128095Y-71784269D01*
X96204285Y-71784269D01*
X96318571Y-71746174D01*
X96356666Y-71708079D01*
X96356666Y-71441412D01*
X96204285Y-71441412D01*
X96699523Y-71784269D02*
X96699523Y-70984269D01*
X97004285Y-70984269D01*
X97080476Y-71022365D01*
X97118571Y-71060460D01*
X97156666Y-71136650D01*
X97156666Y-71250936D01*
X97118571Y-71327126D01*
X97080476Y-71365222D01*
X97004285Y-71403317D01*
X96699523Y-71403317D01*
X97842380Y-71250936D02*
X97842380Y-71784269D01*
X97651904Y-70946174D02*
X97461428Y-71517603D01*
X97956666Y-71517603D01*
X96368571Y-68482892D02*
X96292380Y-68444796D01*
X96178095Y-68444796D01*
X96063809Y-68482892D01*
X95987619Y-68559082D01*
X95949523Y-68635272D01*
X95911428Y-68787653D01*
X95911428Y-68901939D01*
X95949523Y-69054320D01*
X95987619Y-69130511D01*
X96063809Y-69206701D01*
X96178095Y-69244796D01*
X96254285Y-69244796D01*
X96368571Y-69206701D01*
X96406666Y-69168606D01*
X96406666Y-68901939D01*
X96254285Y-68901939D01*
X96749523Y-69244796D02*
X96749523Y-68444796D01*
X97054285Y-68444796D01*
X97130476Y-68482892D01*
X97168571Y-68520987D01*
X97206666Y-68597177D01*
X97206666Y-68711463D01*
X97168571Y-68787653D01*
X97130476Y-68825749D01*
X97054285Y-68863844D01*
X96749523Y-68863844D01*
X97473333Y-68444796D02*
X97968571Y-68444796D01*
X97701904Y-68749558D01*
X97816190Y-68749558D01*
X97892380Y-68787653D01*
X97930476Y-68825749D01*
X97968571Y-68901939D01*
X97968571Y-69092415D01*
X97930476Y-69168606D01*
X97892380Y-69206701D01*
X97816190Y-69244796D01*
X97587619Y-69244796D01*
X97511428Y-69206701D01*
X97473333Y-69168606D01*
X96368571Y-65943419D02*
X96292380Y-65905323D01*
X96178095Y-65905323D01*
X96063809Y-65943419D01*
X95987619Y-66019609D01*
X95949523Y-66095799D01*
X95911428Y-66248180D01*
X95911428Y-66362466D01*
X95949523Y-66514847D01*
X95987619Y-66591038D01*
X96063809Y-66667228D01*
X96178095Y-66705323D01*
X96254285Y-66705323D01*
X96368571Y-66667228D01*
X96406666Y-66629133D01*
X96406666Y-66362466D01*
X96254285Y-66362466D01*
X96749523Y-66705323D02*
X96749523Y-65905323D01*
X97054285Y-65905323D01*
X97130476Y-65943419D01*
X97168571Y-65981514D01*
X97206666Y-66057704D01*
X97206666Y-66171990D01*
X97168571Y-66248180D01*
X97130476Y-66286276D01*
X97054285Y-66324371D01*
X96749523Y-66324371D01*
X97511428Y-65981514D02*
X97549523Y-65943419D01*
X97625714Y-65905323D01*
X97816190Y-65905323D01*
X97892380Y-65943419D01*
X97930476Y-65981514D01*
X97968571Y-66057704D01*
X97968571Y-66133895D01*
X97930476Y-66248180D01*
X97473333Y-66705323D01*
X97968571Y-66705323D01*
X96368571Y-60864473D02*
X96292380Y-60826377D01*
X96178095Y-60826377D01*
X96063809Y-60864473D01*
X95987619Y-60940663D01*
X95949523Y-61016853D01*
X95911428Y-61169234D01*
X95911428Y-61283520D01*
X95949523Y-61435901D01*
X95987619Y-61512092D01*
X96063809Y-61588282D01*
X96178095Y-61626377D01*
X96254285Y-61626377D01*
X96368571Y-61588282D01*
X96406666Y-61550187D01*
X96406666Y-61283520D01*
X96254285Y-61283520D01*
X96749523Y-61626377D02*
X96749523Y-60826377D01*
X97054285Y-60826377D01*
X97130476Y-60864473D01*
X97168571Y-60902568D01*
X97206666Y-60978758D01*
X97206666Y-61093044D01*
X97168571Y-61169234D01*
X97130476Y-61207330D01*
X97054285Y-61245425D01*
X96749523Y-61245425D01*
X97968571Y-61626377D02*
X97511428Y-61626377D01*
X97740000Y-61626377D02*
X97740000Y-60826377D01*
X97663809Y-60940663D01*
X97587619Y-61016853D01*
X97511428Y-61054949D01*
X96368571Y-58325000D02*
X96292380Y-58286904D01*
X96178095Y-58286904D01*
X96063809Y-58325000D01*
X95987619Y-58401190D01*
X95949523Y-58477380D01*
X95911428Y-58629761D01*
X95911428Y-58744047D01*
X95949523Y-58896428D01*
X95987619Y-58972619D01*
X96063809Y-59048809D01*
X96178095Y-59086904D01*
X96254285Y-59086904D01*
X96368571Y-59048809D01*
X96406666Y-59010714D01*
X96406666Y-58744047D01*
X96254285Y-58744047D01*
X96749523Y-59086904D02*
X96749523Y-58286904D01*
X97054285Y-58286904D01*
X97130476Y-58325000D01*
X97168571Y-58363095D01*
X97206666Y-58439285D01*
X97206666Y-58553571D01*
X97168571Y-58629761D01*
X97130476Y-58667857D01*
X97054285Y-58705952D01*
X96749523Y-58705952D01*
X97701904Y-58286904D02*
X97778095Y-58286904D01*
X97854285Y-58325000D01*
X97892380Y-58363095D01*
X97930476Y-58439285D01*
X97968571Y-58591666D01*
X97968571Y-58782142D01*
X97930476Y-58934523D01*
X97892380Y-59010714D01*
X97854285Y-59048809D01*
X97778095Y-59086904D01*
X97701904Y-59086904D01*
X97625714Y-59048809D01*
X97587619Y-59010714D01*
X97549523Y-58934523D01*
X97511428Y-58782142D01*
X97511428Y-58591666D01*
X97549523Y-58439285D01*
X97587619Y-58363095D01*
X97625714Y-58325000D01*
X97701904Y-58286904D01*
D11*
X99781623Y-81355000D02*
G75*
G03*
X99781623Y-81355000I-31623J0D01*
G01*
X99600000Y-83415000D02*
G75*
G03*
X99600000Y-83415000I-20000J0D01*
G01*
X109271231Y-71175000D02*
G75*
G03*
X109271231Y-71175000I-41231J0D01*
G01*
D12*
X100488095Y-101364404D02*
X100488095Y-100564404D01*
X100792857Y-100564404D01*
X100869047Y-100602500D01*
X100907142Y-100640595D01*
X100945238Y-100716785D01*
X100945238Y-100831071D01*
X100907142Y-100907261D01*
X100869047Y-100945357D01*
X100792857Y-100983452D01*
X100488095Y-100983452D01*
X101745238Y-101364404D02*
X101478571Y-100983452D01*
X101288095Y-101364404D02*
X101288095Y-100564404D01*
X101592857Y-100564404D01*
X101669047Y-100602500D01*
X101707142Y-100640595D01*
X101745238Y-100716785D01*
X101745238Y-100831071D01*
X101707142Y-100907261D01*
X101669047Y-100945357D01*
X101592857Y-100983452D01*
X101288095Y-100983452D01*
X102240476Y-100564404D02*
X102392857Y-100564404D01*
X102469047Y-100602500D01*
X102545238Y-100678690D01*
X102583333Y-100831071D01*
X102583333Y-101097738D01*
X102545238Y-101250119D01*
X102469047Y-101326309D01*
X102392857Y-101364404D01*
X102240476Y-101364404D01*
X102164285Y-101326309D01*
X102088095Y-101250119D01*
X102050000Y-101097738D01*
X102050000Y-100831071D01*
X102088095Y-100678690D01*
X102164285Y-100602500D01*
X102240476Y-100564404D01*
X102811904Y-100564404D02*
X103269047Y-100564404D01*
X103040476Y-101364404D02*
X103040476Y-100564404D01*
X103688095Y-100564404D02*
X103840476Y-100564404D01*
X103916666Y-100602500D01*
X103992857Y-100678690D01*
X104030952Y-100831071D01*
X104030952Y-101097738D01*
X103992857Y-101250119D01*
X103916666Y-101326309D01*
X103840476Y-101364404D01*
X103688095Y-101364404D01*
X103611904Y-101326309D01*
X103535714Y-101250119D01*
X103497619Y-101097738D01*
X103497619Y-100831071D01*
X103535714Y-100678690D01*
X103611904Y-100602500D01*
X103688095Y-100564404D01*
X104259523Y-100564404D02*
X104716666Y-100564404D01*
X104488095Y-101364404D02*
X104488095Y-100564404D01*
X105135714Y-100983452D02*
X105135714Y-101364404D01*
X104869047Y-100564404D02*
X105135714Y-100983452D01*
X105402380Y-100564404D01*
X105669047Y-101364404D02*
X105669047Y-100564404D01*
X105973809Y-100564404D01*
X106050000Y-100602500D01*
X106088095Y-100640595D01*
X106126190Y-100716785D01*
X106126190Y-100831071D01*
X106088095Y-100907261D01*
X106050000Y-100945357D01*
X105973809Y-100983452D01*
X105669047Y-100983452D01*
X106469047Y-100945357D02*
X106735714Y-100945357D01*
X106850000Y-101364404D02*
X106469047Y-101364404D01*
X106469047Y-100564404D01*
X106850000Y-100564404D01*
X101040476Y-102176071D02*
X101611904Y-102176071D01*
X101269047Y-101833214D02*
X101040476Y-102861785D01*
X101535714Y-102518928D02*
X100964285Y-102518928D01*
X101307142Y-102861785D02*
X101535714Y-101833214D01*
X102335714Y-102709404D02*
X102069047Y-102328452D01*
X101878571Y-102709404D02*
X101878571Y-101909404D01*
X102183333Y-101909404D01*
X102259523Y-101947500D01*
X102297619Y-101985595D01*
X102335714Y-102061785D01*
X102335714Y-102176071D01*
X102297619Y-102252261D01*
X102259523Y-102290357D01*
X102183333Y-102328452D01*
X101878571Y-102328452D01*
X102678571Y-102290357D02*
X102945238Y-102290357D01*
X103059523Y-102709404D02*
X102678571Y-102709404D01*
X102678571Y-101909404D01*
X103059523Y-101909404D01*
X103288095Y-101909404D02*
X103554761Y-102709404D01*
X103821428Y-101909404D01*
X105116666Y-102709404D02*
X104659523Y-102709404D01*
X104888095Y-102709404D02*
X104888095Y-101909404D01*
X104811904Y-102023690D01*
X104735714Y-102099880D01*
X104659523Y-102137976D01*
X105459523Y-102633214D02*
X105497619Y-102671309D01*
X105459523Y-102709404D01*
X105421428Y-102671309D01*
X105459523Y-102633214D01*
X105459523Y-102709404D01*
X105992857Y-101909404D02*
X106069047Y-101909404D01*
X106145238Y-101947500D01*
X106183333Y-101985595D01*
X106221428Y-102061785D01*
X106259523Y-102214166D01*
X106259523Y-102404642D01*
X106221428Y-102557023D01*
X106183333Y-102633214D01*
X106145238Y-102671309D01*
X106069047Y-102709404D01*
X105992857Y-102709404D01*
X105916666Y-102671309D01*
X105878571Y-102633214D01*
X105840476Y-102557023D01*
X105802380Y-102404642D01*
X105802380Y-102214166D01*
X105840476Y-102061785D01*
X105878571Y-101985595D01*
X105916666Y-101947500D01*
X105992857Y-101909404D01*
D13*
G36*
X101150000Y-104925000D02*
G01*
X100600000Y-104225000D01*
X101700000Y-104225000D01*
X101150000Y-104925000D01*
G37*
X101150000Y-104925000D02*
X100600000Y-104225000D01*
X101700000Y-104225000D01*
X101150000Y-104925000D01*
D10*
X102159523Y-104836904D02*
X102159523Y-104036904D01*
X102350000Y-104036904D01*
X102464285Y-104075000D01*
X102540476Y-104151190D01*
X102578571Y-104227380D01*
X102616666Y-104379761D01*
X102616666Y-104494047D01*
X102578571Y-104646428D01*
X102540476Y-104722619D01*
X102464285Y-104798809D01*
X102350000Y-104836904D01*
X102159523Y-104836904D01*
X102959523Y-104417857D02*
X103226190Y-104417857D01*
X103340476Y-104836904D02*
X102959523Y-104836904D01*
X102959523Y-104036904D01*
X103340476Y-104036904D01*
X103950000Y-104417857D02*
X104064285Y-104455952D01*
X104102380Y-104494047D01*
X104140476Y-104570238D01*
X104140476Y-104684523D01*
X104102380Y-104760714D01*
X104064285Y-104798809D01*
X103988095Y-104836904D01*
X103683333Y-104836904D01*
X103683333Y-104036904D01*
X103950000Y-104036904D01*
X104026190Y-104075000D01*
X104064285Y-104113095D01*
X104102380Y-104189285D01*
X104102380Y-104265476D01*
X104064285Y-104341666D01*
X104026190Y-104379761D01*
X103950000Y-104417857D01*
X103683333Y-104417857D01*
X104483333Y-104036904D02*
X104483333Y-104684523D01*
X104521428Y-104760714D01*
X104559523Y-104798809D01*
X104635714Y-104836904D01*
X104788095Y-104836904D01*
X104864285Y-104798809D01*
X104902380Y-104760714D01*
X104940476Y-104684523D01*
X104940476Y-104036904D01*
X105740476Y-104075000D02*
X105664285Y-104036904D01*
X105549999Y-104036904D01*
X105435714Y-104075000D01*
X105359523Y-104151190D01*
X105321428Y-104227380D01*
X105283333Y-104379761D01*
X105283333Y-104494047D01*
X105321428Y-104646428D01*
X105359523Y-104722619D01*
X105435714Y-104798809D01*
X105549999Y-104836904D01*
X105626190Y-104836904D01*
X105740476Y-104798809D01*
X105778571Y-104760714D01*
X105778571Y-104494047D01*
X105626190Y-104494047D01*
X100070952Y-99267857D02*
X100337619Y-99267857D01*
X100451904Y-99686904D02*
X100070952Y-99686904D01*
X100070952Y-98886904D01*
X100451904Y-98886904D01*
X100794761Y-99153571D02*
X100794761Y-99686904D01*
X100794761Y-99229761D02*
X100832857Y-99191666D01*
X100909047Y-99153571D01*
X101023333Y-99153571D01*
X101099523Y-99191666D01*
X101137619Y-99267857D01*
X101137619Y-99686904D01*
X101442380Y-99153571D02*
X101632857Y-99686904D01*
X101823333Y-99153571D01*
X102280476Y-98886904D02*
X102432857Y-98886904D01*
X102509047Y-98925000D01*
X102585238Y-99001190D01*
X102623333Y-99153571D01*
X102623333Y-99420238D01*
X102585238Y-99572619D01*
X102509047Y-99648809D01*
X102432857Y-99686904D01*
X102280476Y-99686904D01*
X102204285Y-99648809D01*
X102128095Y-99572619D01*
X102090000Y-99420238D01*
X102090000Y-99153571D01*
X102128095Y-99001190D01*
X102204285Y-98925000D01*
X102280476Y-98886904D01*
X102966190Y-99153571D02*
X102966190Y-99953571D01*
X102966190Y-99191666D02*
X103042380Y-99153571D01*
X103194761Y-99153571D01*
X103270952Y-99191666D01*
X103309047Y-99229761D01*
X103347142Y-99305952D01*
X103347142Y-99534523D01*
X103309047Y-99610714D01*
X103270952Y-99648809D01*
X103194761Y-99686904D01*
X103042380Y-99686904D01*
X102966190Y-99648809D01*
X103994761Y-99648809D02*
X103918571Y-99686904D01*
X103766190Y-99686904D01*
X103690000Y-99648809D01*
X103651904Y-99572619D01*
X103651904Y-99267857D01*
X103690000Y-99191666D01*
X103766190Y-99153571D01*
X103918571Y-99153571D01*
X103994761Y-99191666D01*
X104032857Y-99267857D01*
X104032857Y-99344047D01*
X103651904Y-99420238D01*
X104375714Y-99153571D02*
X104375714Y-99686904D01*
X104375714Y-99229761D02*
X104413809Y-99191666D01*
X104490000Y-99153571D01*
X104604285Y-99153571D01*
X104680476Y-99191666D01*
X104718571Y-99267857D01*
X104718571Y-99686904D01*
X105099523Y-99686904D02*
X105099523Y-98886904D01*
X105404285Y-98886904D01*
X105480476Y-98925000D01*
X105518571Y-98963095D01*
X105556666Y-99039285D01*
X105556666Y-99153571D01*
X105518571Y-99229761D01*
X105480476Y-99267857D01*
X105404285Y-99305952D01*
X105099523Y-99305952D01*
X105899523Y-99686904D02*
X105899523Y-99153571D01*
X105899523Y-98886904D02*
X105861428Y-98925000D01*
X105899523Y-98963095D01*
X105937619Y-98925000D01*
X105899523Y-98886904D01*
X105899523Y-98963095D01*
X106623333Y-99648809D02*
X106547142Y-99686904D01*
X106394761Y-99686904D01*
X106318571Y-99648809D01*
X106280476Y-99610714D01*
X106242380Y-99534523D01*
X106242380Y-99305952D01*
X106280476Y-99229761D01*
X106318571Y-99191666D01*
X106394761Y-99153571D01*
X106547142Y-99153571D01*
X106623333Y-99191666D01*
X107080476Y-99686904D02*
X107004285Y-99648809D01*
X106966190Y-99610714D01*
X106928095Y-99534523D01*
X106928095Y-99305952D01*
X106966190Y-99229761D01*
X107004285Y-99191666D01*
X107080476Y-99153571D01*
X107194761Y-99153571D01*
X107270952Y-99191666D01*
X107309047Y-99229761D01*
X107347142Y-99305952D01*
X107347142Y-99534523D01*
X107309047Y-99610714D01*
X107270952Y-99648809D01*
X107194761Y-99686904D01*
X107080476Y-99686904D01*
D11*
X100006000Y-97178200D02*
X104006000Y-97178200D01*
X100006000Y-93878200D02*
X100006000Y-97178200D01*
X105001000Y-95263836D02*
X105001000Y-95048164D01*
X104281000Y-95263836D02*
X104281000Y-95048164D01*
X99695000Y-96966836D02*
X99695000Y-96751164D01*
X98975000Y-96966836D02*
X98975000Y-96751164D01*
X110852000Y-62038800D02*
X110852000Y-59753800D01*
X109382000Y-62038800D02*
X110852000Y-62038800D01*
X109382000Y-59753800D02*
X109382000Y-62038800D01*
X102229300Y-66752641D02*
X102229300Y-66445359D01*
X101469300Y-66752641D02*
X101469300Y-66445359D01*
X109572284Y-80315680D02*
X109787956Y-80315680D01*
X109572284Y-81035680D02*
X109787956Y-81035680D01*
X109569744Y-81542500D02*
X109785416Y-81542500D01*
X109569744Y-82262500D02*
X109785416Y-82262500D01*
X99390560Y-79448860D02*
X99390560Y-77948860D01*
X101610560Y-80948860D02*
X101610560Y-77948860D01*
X109450304Y-72281660D02*
X109665976Y-72281660D01*
X109450304Y-73001660D02*
X109665976Y-73001660D01*
X109106180Y-66244000D02*
X108825020Y-66244000D01*
X109106180Y-65224000D02*
X108825020Y-65224000D01*
X110751000Y-78863959D02*
X110751000Y-79171241D01*
X109991000Y-78863959D02*
X109991000Y-79171241D01*
X110893500Y-75785142D02*
X110893500Y-76259658D01*
X109848500Y-75785142D02*
X109848500Y-76259658D01*
X98620000Y-70455000D02*
X98920000Y-70455000D01*
X101760000Y-74595000D02*
X101460000Y-74595000D01*
X98920000Y-74595000D02*
X98620000Y-74595000D01*
X101760000Y-70455000D02*
X101760000Y-74595000D01*
X101460000Y-70455000D02*
X101760000Y-70455000D01*
X98620000Y-74595000D02*
X98620000Y-70455000D01*
X99360780Y-76775396D02*
X99360780Y-76559724D01*
X100080780Y-76775396D02*
X100080780Y-76559724D01*
X108401201Y-67108000D02*
X108093919Y-67108000D01*
X108401201Y-67868000D02*
X108093919Y-67868000D01*
X109615000Y-69975378D02*
X109615000Y-70774622D01*
X110735000Y-69975378D02*
X110735000Y-70774622D01*
X108940000Y-71785000D02*
X107935000Y-71785000D01*
X105690000Y-71785000D02*
X105690000Y-71555000D01*
X106665000Y-71785000D02*
X105690000Y-71785000D01*
X106665000Y-68565000D02*
X105690000Y-68565000D01*
X105690000Y-68795000D02*
X105690000Y-68565000D01*
X108910000Y-68565000D02*
X107935000Y-68565000D01*
X108910000Y-68795000D02*
X108910000Y-68565000D01*
X103965800Y-70885364D02*
X103965800Y-71101036D01*
X104685800Y-70885364D02*
X104685800Y-71101036D01*
X107319076Y-72939520D02*
X107103404Y-72939520D01*
X107319076Y-73659520D02*
X107103404Y-73659520D01*
X104974760Y-78356124D02*
X104974760Y-78571796D01*
X105694760Y-78356124D02*
X105694760Y-78571796D01*
X104652000Y-80448236D02*
X104652000Y-80232564D01*
X103932000Y-80448236D02*
X103932000Y-80232564D01*
X106092960Y-81024816D02*
X106092960Y-80809144D01*
X105372960Y-81024816D02*
X105372960Y-80809144D01*
X103661400Y-80448236D02*
X103661400Y-80232564D01*
X102941400Y-80448236D02*
X102941400Y-80232564D01*
X105442400Y-66752641D02*
X105442400Y-66445359D01*
X104682400Y-66752641D02*
X104682400Y-66445359D01*
X97997836Y-87365000D02*
X97782164Y-87365000D01*
X97997836Y-88085000D02*
X97782164Y-88085000D01*
X107086100Y-81022276D02*
X107086100Y-80806604D01*
X106366100Y-81022276D02*
X106366100Y-80806604D01*
X103551000Y-92067564D02*
X103551000Y-92283236D01*
X104271000Y-92067564D02*
X104271000Y-92283236D01*
X110502164Y-87735000D02*
X110717836Y-87735000D01*
X110502164Y-87015000D02*
X110717836Y-87015000D01*
X104024760Y-78356124D02*
X104024760Y-78571796D01*
X104744760Y-78356124D02*
X104744760Y-78571796D01*
X99047000Y-76777936D02*
X99047000Y-76562264D01*
X98327000Y-76777936D02*
X98327000Y-76562264D01*
X98707836Y-82290000D02*
X98492164Y-82290000D01*
X98707836Y-83010000D02*
X98492164Y-83010000D01*
X104640000Y-92067164D02*
X104640000Y-92282836D01*
X105360000Y-92067164D02*
X105360000Y-92282836D01*
%LPC*%
G36*
G01*
X100155000Y-95278201D02*
X100155000Y-94078199D01*
G75*
G02*
X100205999Y-94027200I50999J0D01*
G01*
X101606001Y-94027200D01*
G75*
G02*
X101657000Y-94078199I0J-50999D01*
G01*
X101657000Y-95278201D01*
G75*
G02*
X101606001Y-95329200I-50999J0D01*
G01*
X100205999Y-95329200D01*
G75*
G02*
X100155000Y-95278201I0J50999D01*
G01*
G37*
G36*
G01*
X102355000Y-95278201D02*
X102355000Y-94078199D01*
G75*
G02*
X102405999Y-94027200I50999J0D01*
G01*
X103806001Y-94027200D01*
G75*
G02*
X103857000Y-94078199I0J-50999D01*
G01*
X103857000Y-95278201D01*
G75*
G02*
X103806001Y-95329200I-50999J0D01*
G01*
X102405999Y-95329200D01*
G75*
G02*
X102355000Y-95278201I0J50999D01*
G01*
G37*
G36*
G01*
X102355000Y-96978201D02*
X102355000Y-95778199D01*
G75*
G02*
X102405999Y-95727200I50999J0D01*
G01*
X103806001Y-95727200D01*
G75*
G02*
X103857000Y-95778199I0J-50999D01*
G01*
X103857000Y-96978201D01*
G75*
G02*
X103806001Y-97029200I-50999J0D01*
G01*
X102405999Y-97029200D01*
G75*
G02*
X102355000Y-96978201I0J50999D01*
G01*
G37*
G36*
G01*
X100155000Y-96978201D02*
X100155000Y-95778199D01*
G75*
G02*
X100205999Y-95727200I50999J0D01*
G01*
X101606001Y-95727200D01*
G75*
G02*
X101657000Y-95778199I0J-50999D01*
G01*
X101657000Y-96978201D01*
G75*
G02*
X101606001Y-97029200I-50999J0D01*
G01*
X100205999Y-97029200D01*
G75*
G02*
X100155000Y-96978201I0J50999D01*
G01*
G37*
G36*
G01*
X104836500Y-95007000D02*
X104445500Y-95007000D01*
G75*
G02*
X104280000Y-94841500I0J165500D01*
G01*
X104280000Y-94510500D01*
G75*
G02*
X104445500Y-94345000I165500J0D01*
G01*
X104836500Y-94345000D01*
G75*
G02*
X105002000Y-94510500I0J-165500D01*
G01*
X105002000Y-94841500D01*
G75*
G02*
X104836500Y-95007000I-165500J0D01*
G01*
G37*
G36*
G01*
X104836500Y-95967000D02*
X104445500Y-95967000D01*
G75*
G02*
X104280000Y-95801500I0J165500D01*
G01*
X104280000Y-95470500D01*
G75*
G02*
X104445500Y-95305000I165500J0D01*
G01*
X104836500Y-95305000D01*
G75*
G02*
X105002000Y-95470500I0J-165500D01*
G01*
X105002000Y-95801500D01*
G75*
G02*
X104836500Y-95967000I-165500J0D01*
G01*
G37*
G36*
G01*
X99530500Y-96710000D02*
X99139500Y-96710000D01*
G75*
G02*
X98974000Y-96544500I0J165500D01*
G01*
X98974000Y-96213500D01*
G75*
G02*
X99139500Y-96048000I165500J0D01*
G01*
X99530500Y-96048000D01*
G75*
G02*
X99696000Y-96213500I0J-165500D01*
G01*
X99696000Y-96544500D01*
G75*
G02*
X99530500Y-96710000I-165500J0D01*
G01*
G37*
G36*
G01*
X99530500Y-97670000D02*
X99139500Y-97670000D01*
G75*
G02*
X98974000Y-97504500I0J165500D01*
G01*
X98974000Y-97173500D01*
G75*
G02*
X99139500Y-97008000I165500J0D01*
G01*
X99530500Y-97008000D01*
G75*
G02*
X99696000Y-97173500I0J-165500D01*
G01*
X99696000Y-97504500D01*
G75*
G02*
X99530500Y-97670000I-165500J0D01*
G01*
G37*
G36*
G01*
X100776000Y-63895000D02*
X100776000Y-65345000D01*
G75*
G02*
X100725000Y-65396000I-51000J0D01*
G01*
X100125000Y-65396000D01*
G75*
G02*
X100074000Y-65345000I0J51000D01*
G01*
X100074000Y-63895000D01*
G75*
G02*
X100125000Y-63844000I51000J0D01*
G01*
X100725000Y-63844000D01*
G75*
G02*
X100776000Y-63895000I0J-51000D01*
G01*
G37*
G36*
G01*
X107226000Y-63895000D02*
X107226000Y-65345000D01*
G75*
G02*
X107175000Y-65396000I-51000J0D01*
G01*
X106575000Y-65396000D01*
G75*
G02*
X106524000Y-65345000I0J51000D01*
G01*
X106524000Y-63895000D01*
G75*
G02*
X106575000Y-63844000I51000J0D01*
G01*
X107175000Y-63844000D01*
G75*
G02*
X107226000Y-63895000I0J-51000D01*
G01*
G37*
G36*
G01*
X101551000Y-63895000D02*
X101551000Y-65345000D01*
G75*
G02*
X101500000Y-65396000I-51000J0D01*
G01*
X100900000Y-65396000D01*
G75*
G02*
X100849000Y-65345000I0J51000D01*
G01*
X100849000Y-63895000D01*
G75*
G02*
X100900000Y-63844000I51000J0D01*
G01*
X101500000Y-63844000D01*
G75*
G02*
X101551000Y-63895000I0J-51000D01*
G01*
G37*
G36*
G01*
X106451000Y-63895000D02*
X106451000Y-65345000D01*
G75*
G02*
X106400000Y-65396000I-51000J0D01*
G01*
X105800000Y-65396000D01*
G75*
G02*
X105749000Y-65345000I0J51000D01*
G01*
X105749000Y-63895000D01*
G75*
G02*
X105800000Y-63844000I51000J0D01*
G01*
X106400000Y-63844000D01*
G75*
G02*
X106451000Y-63895000I0J-51000D01*
G01*
G37*
G36*
G01*
X105601000Y-63895000D02*
X105601000Y-65345000D01*
G75*
G02*
X105550000Y-65396000I-51000J0D01*
G01*
X105250000Y-65396000D01*
G75*
G02*
X105199000Y-65345000I0J51000D01*
G01*
X105199000Y-63895000D01*
G75*
G02*
X105250000Y-63844000I51000J0D01*
G01*
X105550000Y-63844000D01*
G75*
G02*
X105601000Y-63895000I0J-51000D01*
G01*
G37*
G36*
G01*
X102101000Y-63895000D02*
X102101000Y-65345000D01*
G75*
G02*
X102050000Y-65396000I-51000J0D01*
G01*
X101750000Y-65396000D01*
G75*
G02*
X101699000Y-65345000I0J51000D01*
G01*
X101699000Y-63895000D01*
G75*
G02*
X101750000Y-63844000I51000J0D01*
G01*
X102050000Y-63844000D01*
G75*
G02*
X102101000Y-63895000I0J-51000D01*
G01*
G37*
G36*
G01*
X105101000Y-63895000D02*
X105101000Y-65345000D01*
G75*
G02*
X105050000Y-65396000I-51000J0D01*
G01*
X104750000Y-65396000D01*
G75*
G02*
X104699000Y-65345000I0J51000D01*
G01*
X104699000Y-63895000D01*
G75*
G02*
X104750000Y-63844000I51000J0D01*
G01*
X105050000Y-63844000D01*
G75*
G02*
X105101000Y-63895000I0J-51000D01*
G01*
G37*
G36*
G01*
X102601000Y-63895000D02*
X102601000Y-65345000D01*
G75*
G02*
X102550000Y-65396000I-51000J0D01*
G01*
X102250000Y-65396000D01*
G75*
G02*
X102199000Y-65345000I0J51000D01*
G01*
X102199000Y-63895000D01*
G75*
G02*
X102250000Y-63844000I51000J0D01*
G01*
X102550000Y-63844000D01*
G75*
G02*
X102601000Y-63895000I0J-51000D01*
G01*
G37*
G36*
G01*
X104601000Y-63895000D02*
X104601000Y-65345000D01*
G75*
G02*
X104550000Y-65396000I-51000J0D01*
G01*
X104250000Y-65396000D01*
G75*
G02*
X104199000Y-65345000I0J51000D01*
G01*
X104199000Y-63895000D01*
G75*
G02*
X104250000Y-63844000I51000J0D01*
G01*
X104550000Y-63844000D01*
G75*
G02*
X104601000Y-63895000I0J-51000D01*
G01*
G37*
G36*
G01*
X103101000Y-63895000D02*
X103101000Y-65345000D01*
G75*
G02*
X103050000Y-65396000I-51000J0D01*
G01*
X102750000Y-65396000D01*
G75*
G02*
X102699000Y-65345000I0J51000D01*
G01*
X102699000Y-63895000D01*
G75*
G02*
X102750000Y-63844000I51000J0D01*
G01*
X103050000Y-63844000D01*
G75*
G02*
X103101000Y-63895000I0J-51000D01*
G01*
G37*
G36*
G01*
X103601000Y-63895000D02*
X103601000Y-65345000D01*
G75*
G02*
X103550000Y-65396000I-51000J0D01*
G01*
X103250000Y-65396000D01*
G75*
G02*
X103199000Y-65345000I0J51000D01*
G01*
X103199000Y-63895000D01*
G75*
G02*
X103250000Y-63844000I51000J0D01*
G01*
X103550000Y-63844000D01*
G75*
G02*
X103601000Y-63895000I0J-51000D01*
G01*
G37*
G36*
G01*
X104101000Y-63895000D02*
X104101000Y-65345000D01*
G75*
G02*
X104050000Y-65396000I-51000J0D01*
G01*
X103750000Y-65396000D01*
G75*
G02*
X103699000Y-65345000I0J51000D01*
G01*
X103699000Y-63895000D01*
G75*
G02*
X103750000Y-63844000I51000J0D01*
G01*
X104050000Y-63844000D01*
G75*
G02*
X104101000Y-63895000I0J-51000D01*
G01*
G37*
D14*
X100760000Y-63175000D03*
X106540000Y-63175000D03*
G36*
G01*
X110398750Y-60254800D02*
X109835250Y-60254800D01*
G75*
G02*
X109591000Y-60010550I0J244250D01*
G01*
X109591000Y-59522050D01*
G75*
G02*
X109835250Y-59277800I244250J0D01*
G01*
X110398750Y-59277800D01*
G75*
G02*
X110643000Y-59522050I0J-244250D01*
G01*
X110643000Y-60010550D01*
G75*
G02*
X110398750Y-60254800I-244250J0D01*
G01*
G37*
G36*
G01*
X110398750Y-61829800D02*
X109835250Y-61829800D01*
G75*
G02*
X109591000Y-61585550I0J244250D01*
G01*
X109591000Y-61097050D01*
G75*
G02*
X109835250Y-60852800I244250J0D01*
G01*
X110398750Y-60852800D01*
G75*
G02*
X110643000Y-61097050I0J-244250D01*
G01*
X110643000Y-61585550D01*
G75*
G02*
X110398750Y-61829800I-244250J0D01*
G01*
G37*
G36*
G01*
X102059800Y-66410000D02*
X101638800Y-66410000D01*
G75*
G02*
X101478300Y-66249500I0J160500D01*
G01*
X101478300Y-65928500D01*
G75*
G02*
X101638800Y-65768000I160500J0D01*
G01*
X102059800Y-65768000D01*
G75*
G02*
X102220300Y-65928500I0J-160500D01*
G01*
X102220300Y-66249500D01*
G75*
G02*
X102059800Y-66410000I-160500J0D01*
G01*
G37*
G36*
G01*
X102059800Y-67430000D02*
X101638800Y-67430000D01*
G75*
G02*
X101478300Y-67269500I0J160500D01*
G01*
X101478300Y-66948500D01*
G75*
G02*
X101638800Y-66788000I160500J0D01*
G01*
X102059800Y-66788000D01*
G75*
G02*
X102220300Y-66948500I0J-160500D01*
G01*
X102220300Y-67269500D01*
G75*
G02*
X102059800Y-67430000I-160500J0D01*
G01*
G37*
G36*
G01*
X109829120Y-80871180D02*
X109829120Y-80480180D01*
G75*
G02*
X109994620Y-80314680I165500J0D01*
G01*
X110325620Y-80314680D01*
G75*
G02*
X110491120Y-80480180I0J-165500D01*
G01*
X110491120Y-80871180D01*
G75*
G02*
X110325620Y-81036680I-165500J0D01*
G01*
X109994620Y-81036680D01*
G75*
G02*
X109829120Y-80871180I0J165500D01*
G01*
G37*
G36*
G01*
X108869120Y-80871180D02*
X108869120Y-80480180D01*
G75*
G02*
X109034620Y-80314680I165500J0D01*
G01*
X109365620Y-80314680D01*
G75*
G02*
X109531120Y-80480180I0J-165500D01*
G01*
X109531120Y-80871180D01*
G75*
G02*
X109365620Y-81036680I-165500J0D01*
G01*
X109034620Y-81036680D01*
G75*
G02*
X108869120Y-80871180I0J165500D01*
G01*
G37*
G36*
G01*
X109826580Y-82098000D02*
X109826580Y-81707000D01*
G75*
G02*
X109992080Y-81541500I165500J0D01*
G01*
X110323080Y-81541500D01*
G75*
G02*
X110488580Y-81707000I0J-165500D01*
G01*
X110488580Y-82098000D01*
G75*
G02*
X110323080Y-82263500I-165500J0D01*
G01*
X109992080Y-82263500D01*
G75*
G02*
X109826580Y-82098000I0J165500D01*
G01*
G37*
G36*
G01*
X108866580Y-82098000D02*
X108866580Y-81707000D01*
G75*
G02*
X109032080Y-81541500I165500J0D01*
G01*
X109363080Y-81541500D01*
G75*
G02*
X109528580Y-81707000I0J-165500D01*
G01*
X109528580Y-82098000D01*
G75*
G02*
X109363080Y-82263500I-165500J0D01*
G01*
X109032080Y-82263500D01*
G75*
G02*
X108866580Y-82098000I0J165500D01*
G01*
G37*
G36*
G01*
X101300560Y-80199860D02*
X99700560Y-80199860D01*
G75*
G02*
X99649560Y-80148860I0J51000D01*
G01*
X99649560Y-78748860D01*
G75*
G02*
X99700560Y-78697860I51000J0D01*
G01*
X101300560Y-78697860D01*
G75*
G02*
X101351560Y-78748860I0J-51000D01*
G01*
X101351560Y-80148860D01*
G75*
G02*
X101300560Y-80199860I-51000J0D01*
G01*
G37*
G36*
G01*
X99863560Y-78474860D02*
X99637560Y-78474860D01*
G75*
G02*
X99524560Y-78361860I0J113000D01*
G01*
X99524560Y-77960860D01*
G75*
G02*
X99637560Y-77847860I113000J0D01*
G01*
X99863560Y-77847860D01*
G75*
G02*
X99976560Y-77960860I0J-113000D01*
G01*
X99976560Y-78361860D01*
G75*
G02*
X99863560Y-78474860I-113000J0D01*
G01*
G37*
G36*
G01*
X100363560Y-78474860D02*
X100137560Y-78474860D01*
G75*
G02*
X100024560Y-78361860I0J113000D01*
G01*
X100024560Y-77960860D01*
G75*
G02*
X100137560Y-77847860I113000J0D01*
G01*
X100363560Y-77847860D01*
G75*
G02*
X100476560Y-77960860I0J-113000D01*
G01*
X100476560Y-78361860D01*
G75*
G02*
X100363560Y-78474860I-113000J0D01*
G01*
G37*
G36*
G01*
X100863560Y-78474860D02*
X100637560Y-78474860D01*
G75*
G02*
X100524560Y-78361860I0J113000D01*
G01*
X100524560Y-77960860D01*
G75*
G02*
X100637560Y-77847860I113000J0D01*
G01*
X100863560Y-77847860D01*
G75*
G02*
X100976560Y-77960860I0J-113000D01*
G01*
X100976560Y-78361860D01*
G75*
G02*
X100863560Y-78474860I-113000J0D01*
G01*
G37*
G36*
G01*
X101363560Y-78474860D02*
X101137560Y-78474860D01*
G75*
G02*
X101024560Y-78361860I0J113000D01*
G01*
X101024560Y-77960860D01*
G75*
G02*
X101137560Y-77847860I113000J0D01*
G01*
X101363560Y-77847860D01*
G75*
G02*
X101476560Y-77960860I0J-113000D01*
G01*
X101476560Y-78361860D01*
G75*
G02*
X101363560Y-78474860I-113000J0D01*
G01*
G37*
G36*
G01*
X101363560Y-81049860D02*
X101137560Y-81049860D01*
G75*
G02*
X101024560Y-80936860I0J113000D01*
G01*
X101024560Y-80535860D01*
G75*
G02*
X101137560Y-80422860I113000J0D01*
G01*
X101363560Y-80422860D01*
G75*
G02*
X101476560Y-80535860I0J-113000D01*
G01*
X101476560Y-80936860D01*
G75*
G02*
X101363560Y-81049860I-113000J0D01*
G01*
G37*
G36*
G01*
X100863560Y-81049860D02*
X100637560Y-81049860D01*
G75*
G02*
X100524560Y-80936860I0J113000D01*
G01*
X100524560Y-80535860D01*
G75*
G02*
X100637560Y-80422860I113000J0D01*
G01*
X100863560Y-80422860D01*
G75*
G02*
X100976560Y-80535860I0J-113000D01*
G01*
X100976560Y-80936860D01*
G75*
G02*
X100863560Y-81049860I-113000J0D01*
G01*
G37*
G36*
G01*
X100363560Y-81049860D02*
X100137560Y-81049860D01*
G75*
G02*
X100024560Y-80936860I0J113000D01*
G01*
X100024560Y-80535860D01*
G75*
G02*
X100137560Y-80422860I113000J0D01*
G01*
X100363560Y-80422860D01*
G75*
G02*
X100476560Y-80535860I0J-113000D01*
G01*
X100476560Y-80936860D01*
G75*
G02*
X100363560Y-81049860I-113000J0D01*
G01*
G37*
G36*
G01*
X99863560Y-81049860D02*
X99637560Y-81049860D01*
G75*
G02*
X99524560Y-80936860I0J113000D01*
G01*
X99524560Y-80535860D01*
G75*
G02*
X99637560Y-80422860I113000J0D01*
G01*
X99863560Y-80422860D01*
G75*
G02*
X99976560Y-80535860I0J-113000D01*
G01*
X99976560Y-80936860D01*
G75*
G02*
X99863560Y-81049860I-113000J0D01*
G01*
G37*
G36*
G01*
X109707140Y-72837160D02*
X109707140Y-72446160D01*
G75*
G02*
X109872640Y-72280660I165500J0D01*
G01*
X110203640Y-72280660D01*
G75*
G02*
X110369140Y-72446160I0J-165500D01*
G01*
X110369140Y-72837160D01*
G75*
G02*
X110203640Y-73002660I-165500J0D01*
G01*
X109872640Y-73002660D01*
G75*
G02*
X109707140Y-72837160I0J165500D01*
G01*
G37*
G36*
G01*
X108747140Y-72837160D02*
X108747140Y-72446160D01*
G75*
G02*
X108912640Y-72280660I165500J0D01*
G01*
X109243640Y-72280660D01*
G75*
G02*
X109409140Y-72446160I0J-165500D01*
G01*
X109409140Y-72837160D01*
G75*
G02*
X109243640Y-73002660I-165500J0D01*
G01*
X108912640Y-73002660D01*
G75*
G02*
X108747140Y-72837160I0J165500D01*
G01*
G37*
G36*
G01*
X108691600Y-65458500D02*
X108691600Y-66009500D01*
G75*
G02*
X108441100Y-66260000I-250500J0D01*
G01*
X107940100Y-66260000D01*
G75*
G02*
X107689600Y-66009500I0J250500D01*
G01*
X107689600Y-65458500D01*
G75*
G02*
X107940100Y-65208000I250500J0D01*
G01*
X108441100Y-65208000D01*
G75*
G02*
X108691600Y-65458500I0J-250500D01*
G01*
G37*
G36*
G01*
X110241600Y-65458500D02*
X110241600Y-66009500D01*
G75*
G02*
X109991100Y-66260000I-250500J0D01*
G01*
X109490100Y-66260000D01*
G75*
G02*
X109239600Y-66009500I0J250500D01*
G01*
X109239600Y-65458500D01*
G75*
G02*
X109490100Y-65208000I250500J0D01*
G01*
X109991100Y-65208000D01*
G75*
G02*
X110241600Y-65458500I0J-250500D01*
G01*
G37*
G36*
G01*
X110160500Y-79206600D02*
X110581500Y-79206600D01*
G75*
G02*
X110742000Y-79367100I0J-160500D01*
G01*
X110742000Y-79688100D01*
G75*
G02*
X110581500Y-79848600I-160500J0D01*
G01*
X110160500Y-79848600D01*
G75*
G02*
X110000000Y-79688100I0J160500D01*
G01*
X110000000Y-79367100D01*
G75*
G02*
X110160500Y-79206600I160500J0D01*
G01*
G37*
G36*
G01*
X110160500Y-78186600D02*
X110581500Y-78186600D01*
G75*
G02*
X110742000Y-78347100I0J-160500D01*
G01*
X110742000Y-78668100D01*
G75*
G02*
X110581500Y-78828600I-160500J0D01*
G01*
X110160500Y-78828600D01*
G75*
G02*
X110000000Y-78668100I0J160500D01*
G01*
X110000000Y-78347100D01*
G75*
G02*
X110160500Y-78186600I160500J0D01*
G01*
G37*
G36*
G01*
X110070500Y-76396400D02*
X110671500Y-76396400D01*
G75*
G02*
X110897000Y-76621900I0J-225500D01*
G01*
X110897000Y-77072900D01*
G75*
G02*
X110671500Y-77298400I-225500J0D01*
G01*
X110070500Y-77298400D01*
G75*
G02*
X109845000Y-77072900I0J225500D01*
G01*
X109845000Y-76621900D01*
G75*
G02*
X110070500Y-76396400I225500J0D01*
G01*
G37*
G36*
G01*
X110070500Y-74746400D02*
X110671500Y-74746400D01*
G75*
G02*
X110897000Y-74971900I0J-225500D01*
G01*
X110897000Y-75422900D01*
G75*
G02*
X110671500Y-75648400I-225500J0D01*
G01*
X110070500Y-75648400D01*
G75*
G02*
X109845000Y-75422900I0J225500D01*
G01*
X109845000Y-74971900D01*
G75*
G02*
X110070500Y-74746400I225500J0D01*
G01*
G37*
G36*
G01*
X101015500Y-75076000D02*
X99364500Y-75076000D01*
G75*
G02*
X99139000Y-74850500I0J225500D01*
G01*
X99139000Y-74399500D01*
G75*
G02*
X99364500Y-74174000I225500J0D01*
G01*
X101015500Y-74174000D01*
G75*
G02*
X101241000Y-74399500I0J-225500D01*
G01*
X101241000Y-74850500D01*
G75*
G02*
X101015500Y-75076000I-225500J0D01*
G01*
G37*
G36*
G01*
X101015500Y-70876000D02*
X99364500Y-70876000D01*
G75*
G02*
X99139000Y-70650500I0J225500D01*
G01*
X99139000Y-70199500D01*
G75*
G02*
X99364500Y-69974000I225500J0D01*
G01*
X101015500Y-69974000D01*
G75*
G02*
X101241000Y-70199500I0J-225500D01*
G01*
X101241000Y-70650500D01*
G75*
G02*
X101015500Y-70876000I-225500J0D01*
G01*
G37*
G36*
G01*
X99916280Y-76518560D02*
X99525280Y-76518560D01*
G75*
G02*
X99359780Y-76353060I0J165500D01*
G01*
X99359780Y-76022060D01*
G75*
G02*
X99525280Y-75856560I165500J0D01*
G01*
X99916280Y-75856560D01*
G75*
G02*
X100081780Y-76022060I0J-165500D01*
G01*
X100081780Y-76353060D01*
G75*
G02*
X99916280Y-76518560I-165500J0D01*
G01*
G37*
G36*
G01*
X99916280Y-77478560D02*
X99525280Y-77478560D01*
G75*
G02*
X99359780Y-77313060I0J165500D01*
G01*
X99359780Y-76982060D01*
G75*
G02*
X99525280Y-76816560I165500J0D01*
G01*
X99916280Y-76816560D01*
G75*
G02*
X100081780Y-76982060I0J-165500D01*
G01*
X100081780Y-77313060D01*
G75*
G02*
X99916280Y-77478560I-165500J0D01*
G01*
G37*
G36*
G01*
X108058560Y-67277500D02*
X108058560Y-67698500D01*
G75*
G02*
X107898060Y-67859000I-160500J0D01*
G01*
X107577060Y-67859000D01*
G75*
G02*
X107416560Y-67698500I0J160500D01*
G01*
X107416560Y-67277500D01*
G75*
G02*
X107577060Y-67117000I160500J0D01*
G01*
X107898060Y-67117000D01*
G75*
G02*
X108058560Y-67277500I0J-160500D01*
G01*
G37*
G36*
G01*
X109078560Y-67277500D02*
X109078560Y-67698500D01*
G75*
G02*
X108918060Y-67859000I-160500J0D01*
G01*
X108597060Y-67859000D01*
G75*
G02*
X108436560Y-67698500I0J160500D01*
G01*
X108436560Y-67277500D01*
G75*
G02*
X108597060Y-67117000I160500J0D01*
G01*
X108918060Y-67117000D01*
G75*
G02*
X109078560Y-67277500I0J-160500D01*
G01*
G37*
G36*
G01*
X109768250Y-70949000D02*
X110581750Y-70949000D01*
G75*
G02*
X110826000Y-71193250I0J-244250D01*
G01*
X110826000Y-71681750D01*
G75*
G02*
X110581750Y-71926000I-244250J0D01*
G01*
X109768250Y-71926000D01*
G75*
G02*
X109524000Y-71681750I0J244250D01*
G01*
X109524000Y-71193250D01*
G75*
G02*
X109768250Y-70949000I244250J0D01*
G01*
G37*
G36*
G01*
X109768250Y-68824000D02*
X110581750Y-68824000D01*
G75*
G02*
X110826000Y-69068250I0J-244250D01*
G01*
X110826000Y-69556750D01*
G75*
G02*
X110581750Y-69801000I-244250J0D01*
G01*
X109768250Y-69801000D01*
G75*
G02*
X109524000Y-69556750I0J244250D01*
G01*
X109524000Y-69068250D01*
G75*
G02*
X109768250Y-68824000I244250J0D01*
G01*
G37*
D13*
G36*
X107415050Y-71925020D02*
G01*
X107405483Y-71922118D01*
X107396666Y-71917405D01*
X107388938Y-71911062D01*
X107382595Y-71903334D01*
X107377882Y-71894517D01*
X107374980Y-71884950D01*
X107374000Y-71875000D01*
X107374000Y-71426000D01*
X107226000Y-71426000D01*
X107226000Y-71875000D01*
X107225020Y-71884950D01*
X107222118Y-71894517D01*
X107217405Y-71903334D01*
X107211062Y-71911062D01*
X107203334Y-71917405D01*
X107194517Y-71922118D01*
X107184950Y-71925020D01*
X107175000Y-71926000D01*
X106925000Y-71926000D01*
X106915050Y-71925020D01*
X106905483Y-71922118D01*
X106896666Y-71917405D01*
X106888938Y-71911062D01*
X106882595Y-71903334D01*
X106877882Y-71894517D01*
X106874980Y-71884950D01*
X106874000Y-71875000D01*
X106874000Y-71426000D01*
X106475000Y-71426000D01*
X106465050Y-71425020D01*
X106455483Y-71422118D01*
X106446666Y-71417405D01*
X106438938Y-71411062D01*
X106432595Y-71403334D01*
X106427882Y-71394517D01*
X106424980Y-71384950D01*
X106424000Y-71375000D01*
X106424000Y-68975000D01*
X106424980Y-68965050D01*
X106427882Y-68955483D01*
X106432595Y-68946666D01*
X106438938Y-68938938D01*
X106446666Y-68932595D01*
X106455483Y-68927882D01*
X106465050Y-68924980D01*
X106475000Y-68924000D01*
X106874000Y-68924000D01*
X106874000Y-68475000D01*
X106874980Y-68465050D01*
X106877882Y-68455483D01*
X106882595Y-68446666D01*
X106888938Y-68438938D01*
X106896666Y-68432595D01*
X106905483Y-68427882D01*
X106915050Y-68424980D01*
X106925000Y-68424000D01*
X107175000Y-68424000D01*
X107184950Y-68424980D01*
X107194517Y-68427882D01*
X107203334Y-68432595D01*
X107211062Y-68438938D01*
X107217405Y-68446666D01*
X107222118Y-68455483D01*
X107225020Y-68465050D01*
X107226000Y-68475000D01*
X107226000Y-68924000D01*
X107374000Y-68924000D01*
X107374000Y-68475000D01*
X107374980Y-68465050D01*
X107377882Y-68455483D01*
X107382595Y-68446666D01*
X107388938Y-68438938D01*
X107396666Y-68432595D01*
X107405483Y-68427882D01*
X107415050Y-68424980D01*
X107425000Y-68424000D01*
X107675000Y-68424000D01*
X107684950Y-68424980D01*
X107694517Y-68427882D01*
X107703334Y-68432595D01*
X107711062Y-68438938D01*
X107717405Y-68446666D01*
X107722118Y-68455483D01*
X107725020Y-68465050D01*
X107726000Y-68475000D01*
X107726000Y-68924000D01*
X108125000Y-68924000D01*
X108134950Y-68924980D01*
X108144517Y-68927882D01*
X108153334Y-68932595D01*
X108161062Y-68938938D01*
X108167405Y-68946666D01*
X108172118Y-68955483D01*
X108175020Y-68965050D01*
X108176000Y-68975000D01*
X108176000Y-71375000D01*
X108175020Y-71384950D01*
X108172118Y-71394517D01*
X108167405Y-71403334D01*
X108161062Y-71411062D01*
X108153334Y-71417405D01*
X108144517Y-71422118D01*
X108134950Y-71425020D01*
X108125000Y-71426000D01*
X107726000Y-71426000D01*
X107726000Y-71875000D01*
X107725020Y-71884950D01*
X107722118Y-71894517D01*
X107717405Y-71903334D01*
X107711062Y-71911062D01*
X107703334Y-71917405D01*
X107694517Y-71922118D01*
X107684950Y-71925020D01*
X107675000Y-71926000D01*
X107425000Y-71926000D01*
X107415050Y-71925020D01*
G37*
G36*
G01*
X106251000Y-71055000D02*
X106251000Y-71295000D01*
G75*
G02*
X106200000Y-71346000I-51000J0D01*
G01*
X105600000Y-71346000D01*
G75*
G02*
X105549000Y-71295000I0J51000D01*
G01*
X105549000Y-71055000D01*
G75*
G02*
X105600000Y-71004000I51000J0D01*
G01*
X106200000Y-71004000D01*
G75*
G02*
X106251000Y-71055000I0J-51000D01*
G01*
G37*
G36*
G01*
X106251000Y-70555000D02*
X106251000Y-70795000D01*
G75*
G02*
X106200000Y-70846000I-51000J0D01*
G01*
X105600000Y-70846000D01*
G75*
G02*
X105549000Y-70795000I0J51000D01*
G01*
X105549000Y-70555000D01*
G75*
G02*
X105600000Y-70504000I51000J0D01*
G01*
X106200000Y-70504000D01*
G75*
G02*
X106251000Y-70555000I0J-51000D01*
G01*
G37*
G36*
G01*
X106251000Y-70055000D02*
X106251000Y-70295000D01*
G75*
G02*
X106200000Y-70346000I-51000J0D01*
G01*
X105600000Y-70346000D01*
G75*
G02*
X105549000Y-70295000I0J51000D01*
G01*
X105549000Y-70055000D01*
G75*
G02*
X105600000Y-70004000I51000J0D01*
G01*
X106200000Y-70004000D01*
G75*
G02*
X106251000Y-70055000I0J-51000D01*
G01*
G37*
G36*
G01*
X106251000Y-69555000D02*
X106251000Y-69795000D01*
G75*
G02*
X106200000Y-69846000I-51000J0D01*
G01*
X105600000Y-69846000D01*
G75*
G02*
X105549000Y-69795000I0J51000D01*
G01*
X105549000Y-69555000D01*
G75*
G02*
X105600000Y-69504000I51000J0D01*
G01*
X106200000Y-69504000D01*
G75*
G02*
X106251000Y-69555000I0J-51000D01*
G01*
G37*
G36*
G01*
X106251000Y-69055000D02*
X106251000Y-69295000D01*
G75*
G02*
X106200000Y-69346000I-51000J0D01*
G01*
X105600000Y-69346000D01*
G75*
G02*
X105549000Y-69295000I0J51000D01*
G01*
X105549000Y-69055000D01*
G75*
G02*
X105600000Y-69004000I51000J0D01*
G01*
X106200000Y-69004000D01*
G75*
G02*
X106251000Y-69055000I0J-51000D01*
G01*
G37*
G36*
G01*
X109051000Y-69055000D02*
X109051000Y-69295000D01*
G75*
G02*
X109000000Y-69346000I-51000J0D01*
G01*
X108400000Y-69346000D01*
G75*
G02*
X108349000Y-69295000I0J51000D01*
G01*
X108349000Y-69055000D01*
G75*
G02*
X108400000Y-69004000I51000J0D01*
G01*
X109000000Y-69004000D01*
G75*
G02*
X109051000Y-69055000I0J-51000D01*
G01*
G37*
G36*
G01*
X109051000Y-69555000D02*
X109051000Y-69795000D01*
G75*
G02*
X109000000Y-69846000I-51000J0D01*
G01*
X108400000Y-69846000D01*
G75*
G02*
X108349000Y-69795000I0J51000D01*
G01*
X108349000Y-69555000D01*
G75*
G02*
X108400000Y-69504000I51000J0D01*
G01*
X109000000Y-69504000D01*
G75*
G02*
X109051000Y-69555000I0J-51000D01*
G01*
G37*
G36*
G01*
X109051000Y-70055000D02*
X109051000Y-70295000D01*
G75*
G02*
X109000000Y-70346000I-51000J0D01*
G01*
X108400000Y-70346000D01*
G75*
G02*
X108349000Y-70295000I0J51000D01*
G01*
X108349000Y-70055000D01*
G75*
G02*
X108400000Y-70004000I51000J0D01*
G01*
X109000000Y-70004000D01*
G75*
G02*
X109051000Y-70055000I0J-51000D01*
G01*
G37*
G36*
G01*
X109051000Y-70555000D02*
X109051000Y-70795000D01*
G75*
G02*
X109000000Y-70846000I-51000J0D01*
G01*
X108400000Y-70846000D01*
G75*
G02*
X108349000Y-70795000I0J51000D01*
G01*
X108349000Y-70555000D01*
G75*
G02*
X108400000Y-70504000I51000J0D01*
G01*
X109000000Y-70504000D01*
G75*
G02*
X109051000Y-70555000I0J-51000D01*
G01*
G37*
G36*
G01*
X109051000Y-71055000D02*
X109051000Y-71295000D01*
G75*
G02*
X109000000Y-71346000I-51000J0D01*
G01*
X108400000Y-71346000D01*
G75*
G02*
X108349000Y-71295000I0J51000D01*
G01*
X108349000Y-71055000D01*
G75*
G02*
X108400000Y-71004000I51000J0D01*
G01*
X109000000Y-71004000D01*
G75*
G02*
X109051000Y-71055000I0J-51000D01*
G01*
G37*
G36*
G01*
X104130300Y-71142200D02*
X104521300Y-71142200D01*
G75*
G02*
X104686800Y-71307700I0J-165500D01*
G01*
X104686800Y-71638700D01*
G75*
G02*
X104521300Y-71804200I-165500J0D01*
G01*
X104130300Y-71804200D01*
G75*
G02*
X103964800Y-71638700I0J165500D01*
G01*
X103964800Y-71307700D01*
G75*
G02*
X104130300Y-71142200I165500J0D01*
G01*
G37*
G36*
G01*
X104130300Y-70182200D02*
X104521300Y-70182200D01*
G75*
G02*
X104686800Y-70347700I0J-165500D01*
G01*
X104686800Y-70678700D01*
G75*
G02*
X104521300Y-70844200I-165500J0D01*
G01*
X104130300Y-70844200D01*
G75*
G02*
X103964800Y-70678700I0J165500D01*
G01*
X103964800Y-70347700D01*
G75*
G02*
X104130300Y-70182200I165500J0D01*
G01*
G37*
G36*
G01*
X107062240Y-73104020D02*
X107062240Y-73495020D01*
G75*
G02*
X106896740Y-73660520I-165500J0D01*
G01*
X106565740Y-73660520D01*
G75*
G02*
X106400240Y-73495020I0J165500D01*
G01*
X106400240Y-73104020D01*
G75*
G02*
X106565740Y-72938520I165500J0D01*
G01*
X106896740Y-72938520D01*
G75*
G02*
X107062240Y-73104020I0J-165500D01*
G01*
G37*
G36*
G01*
X108022240Y-73104020D02*
X108022240Y-73495020D01*
G75*
G02*
X107856740Y-73660520I-165500J0D01*
G01*
X107525740Y-73660520D01*
G75*
G02*
X107360240Y-73495020I0J165500D01*
G01*
X107360240Y-73104020D01*
G75*
G02*
X107525740Y-72938520I165500J0D01*
G01*
X107856740Y-72938520D01*
G75*
G02*
X108022240Y-73104020I0J-165500D01*
G01*
G37*
G36*
G01*
X105139260Y-78612960D02*
X105530260Y-78612960D01*
G75*
G02*
X105695760Y-78778460I0J-165500D01*
G01*
X105695760Y-79109460D01*
G75*
G02*
X105530260Y-79274960I-165500J0D01*
G01*
X105139260Y-79274960D01*
G75*
G02*
X104973760Y-79109460I0J165500D01*
G01*
X104973760Y-78778460D01*
G75*
G02*
X105139260Y-78612960I165500J0D01*
G01*
G37*
G36*
G01*
X105139260Y-77652960D02*
X105530260Y-77652960D01*
G75*
G02*
X105695760Y-77818460I0J-165500D01*
G01*
X105695760Y-78149460D01*
G75*
G02*
X105530260Y-78314960I-165500J0D01*
G01*
X105139260Y-78314960D01*
G75*
G02*
X104973760Y-78149460I0J165500D01*
G01*
X104973760Y-77818460D01*
G75*
G02*
X105139260Y-77652960I165500J0D01*
G01*
G37*
G36*
G01*
X104487500Y-81151400D02*
X104096500Y-81151400D01*
G75*
G02*
X103931000Y-80985900I0J165500D01*
G01*
X103931000Y-80654900D01*
G75*
G02*
X104096500Y-80489400I165500J0D01*
G01*
X104487500Y-80489400D01*
G75*
G02*
X104653000Y-80654900I0J-165500D01*
G01*
X104653000Y-80985900D01*
G75*
G02*
X104487500Y-81151400I-165500J0D01*
G01*
G37*
G36*
G01*
X104487500Y-80191400D02*
X104096500Y-80191400D01*
G75*
G02*
X103931000Y-80025900I0J165500D01*
G01*
X103931000Y-79694900D01*
G75*
G02*
X104096500Y-79529400I165500J0D01*
G01*
X104487500Y-79529400D01*
G75*
G02*
X104653000Y-79694900I0J-165500D01*
G01*
X104653000Y-80025900D01*
G75*
G02*
X104487500Y-80191400I-165500J0D01*
G01*
G37*
G36*
G01*
X105928460Y-80767980D02*
X105537460Y-80767980D01*
G75*
G02*
X105371960Y-80602480I0J165500D01*
G01*
X105371960Y-80271480D01*
G75*
G02*
X105537460Y-80105980I165500J0D01*
G01*
X105928460Y-80105980D01*
G75*
G02*
X106093960Y-80271480I0J-165500D01*
G01*
X106093960Y-80602480D01*
G75*
G02*
X105928460Y-80767980I-165500J0D01*
G01*
G37*
G36*
G01*
X105928460Y-81727980D02*
X105537460Y-81727980D01*
G75*
G02*
X105371960Y-81562480I0J165500D01*
G01*
X105371960Y-81231480D01*
G75*
G02*
X105537460Y-81065980I165500J0D01*
G01*
X105928460Y-81065980D01*
G75*
G02*
X106093960Y-81231480I0J-165500D01*
G01*
X106093960Y-81562480D01*
G75*
G02*
X105928460Y-81727980I-165500J0D01*
G01*
G37*
G36*
G01*
X103496900Y-80191400D02*
X103105900Y-80191400D01*
G75*
G02*
X102940400Y-80025900I0J165500D01*
G01*
X102940400Y-79694900D01*
G75*
G02*
X103105900Y-79529400I165500J0D01*
G01*
X103496900Y-79529400D01*
G75*
G02*
X103662400Y-79694900I0J-165500D01*
G01*
X103662400Y-80025900D01*
G75*
G02*
X103496900Y-80191400I-165500J0D01*
G01*
G37*
G36*
G01*
X103496900Y-81151400D02*
X103105900Y-81151400D01*
G75*
G02*
X102940400Y-80985900I0J165500D01*
G01*
X102940400Y-80654900D01*
G75*
G02*
X103105900Y-80489400I165500J0D01*
G01*
X103496900Y-80489400D01*
G75*
G02*
X103662400Y-80654900I0J-165500D01*
G01*
X103662400Y-80985900D01*
G75*
G02*
X103496900Y-81151400I-165500J0D01*
G01*
G37*
D15*
X112550000Y-106985000D03*
X112550000Y-104445000D03*
G36*
G01*
X113451000Y-101055000D02*
X113451000Y-102755000D01*
G75*
G02*
X113400000Y-102806000I-51000J0D01*
G01*
X111700000Y-102806000D01*
G75*
G02*
X111649000Y-102755000I0J51000D01*
G01*
X111649000Y-101055000D01*
G75*
G02*
X111700000Y-101004000I51000J0D01*
G01*
X113400000Y-101004000D01*
G75*
G02*
X113451000Y-101055000I0J-51000D01*
G01*
G37*
X112550000Y-99365000D03*
X112550000Y-96825000D03*
X112550000Y-94285000D03*
X112550000Y-91745000D03*
G36*
G01*
X113451000Y-88355000D02*
X113451000Y-90055000D01*
G75*
G02*
X113400000Y-90106000I-51000J0D01*
G01*
X111700000Y-90106000D01*
G75*
G02*
X111649000Y-90055000I0J51000D01*
G01*
X111649000Y-88355000D01*
G75*
G02*
X111700000Y-88304000I51000J0D01*
G01*
X113400000Y-88304000D01*
G75*
G02*
X113451000Y-88355000I0J-51000D01*
G01*
G37*
X112550000Y-86665000D03*
X112550000Y-84125000D03*
X112550000Y-81585000D03*
X112550000Y-79045000D03*
G36*
G01*
X113451000Y-75655000D02*
X113451000Y-77355000D01*
G75*
G02*
X113400000Y-77406000I-51000J0D01*
G01*
X111700000Y-77406000D01*
G75*
G02*
X111649000Y-77355000I0J51000D01*
G01*
X111649000Y-75655000D01*
G75*
G02*
X111700000Y-75604000I51000J0D01*
G01*
X113400000Y-75604000D01*
G75*
G02*
X113451000Y-75655000I0J-51000D01*
G01*
G37*
X112550000Y-73965000D03*
X112550000Y-71425000D03*
X112550000Y-68885000D03*
X112550000Y-66345000D03*
G36*
G01*
X113451000Y-62955000D02*
X113451000Y-64655000D01*
G75*
G02*
X113400000Y-64706000I-51000J0D01*
G01*
X111700000Y-64706000D01*
G75*
G02*
X111649000Y-64655000I0J51000D01*
G01*
X111649000Y-62955000D01*
G75*
G02*
X111700000Y-62904000I51000J0D01*
G01*
X113400000Y-62904000D01*
G75*
G02*
X113451000Y-62955000I0J-51000D01*
G01*
G37*
X112550000Y-61265000D03*
G36*
G01*
X113451000Y-57875000D02*
X113451000Y-59575000D01*
G75*
G02*
X113400000Y-59626000I-51000J0D01*
G01*
X111700000Y-59626000D01*
G75*
G02*
X111649000Y-59575000I0J51000D01*
G01*
X111649000Y-57875000D01*
G75*
G02*
X111700000Y-57824000I51000J0D01*
G01*
X113400000Y-57824000D01*
G75*
G02*
X113451000Y-57875000I0J-51000D01*
G01*
G37*
G36*
G01*
X116051000Y-98515000D02*
X116051000Y-100215000D01*
G75*
G02*
X116000000Y-100266000I-51000J0D01*
G01*
X112500000Y-100266000D01*
G75*
G02*
X112449000Y-100215000I0J51000D01*
G01*
X112449000Y-98515000D01*
G75*
G02*
X112500000Y-98464000I51000J0D01*
G01*
X116000000Y-98464000D01*
G75*
G02*
X116051000Y-98515000I0J-51000D01*
G01*
G37*
G36*
G01*
X116051000Y-101055000D02*
X116051000Y-102755000D01*
G75*
G02*
X116000000Y-102806000I-51000J0D01*
G01*
X112500000Y-102806000D01*
G75*
G02*
X112449000Y-102755000I0J51000D01*
G01*
X112449000Y-101055000D01*
G75*
G02*
X112500000Y-101004000I51000J0D01*
G01*
X116000000Y-101004000D01*
G75*
G02*
X116051000Y-101055000I0J-51000D01*
G01*
G37*
G36*
G01*
X116051000Y-95975000D02*
X116051000Y-97675000D01*
G75*
G02*
X116000000Y-97726000I-51000J0D01*
G01*
X112500000Y-97726000D01*
G75*
G02*
X112449000Y-97675000I0J51000D01*
G01*
X112449000Y-95975000D01*
G75*
G02*
X112500000Y-95924000I51000J0D01*
G01*
X116000000Y-95924000D01*
G75*
G02*
X116051000Y-95975000I0J-51000D01*
G01*
G37*
G36*
G01*
X116051000Y-103595000D02*
X116051000Y-105295000D01*
G75*
G02*
X116000000Y-105346000I-51000J0D01*
G01*
X112500000Y-105346000D01*
G75*
G02*
X112449000Y-105295000I0J51000D01*
G01*
X112449000Y-103595000D01*
G75*
G02*
X112500000Y-103544000I51000J0D01*
G01*
X116000000Y-103544000D01*
G75*
G02*
X116051000Y-103595000I0J-51000D01*
G01*
G37*
G36*
G01*
X116051000Y-93435000D02*
X116051000Y-95135000D01*
G75*
G02*
X116000000Y-95186000I-51000J0D01*
G01*
X112500000Y-95186000D01*
G75*
G02*
X112449000Y-95135000I0J51000D01*
G01*
X112449000Y-93435000D01*
G75*
G02*
X112500000Y-93384000I51000J0D01*
G01*
X116000000Y-93384000D01*
G75*
G02*
X116051000Y-93435000I0J-51000D01*
G01*
G37*
G36*
G01*
X116051000Y-106135000D02*
X116051000Y-107835000D01*
G75*
G02*
X116000000Y-107886000I-51000J0D01*
G01*
X112500000Y-107886000D01*
G75*
G02*
X112449000Y-107835000I0J51000D01*
G01*
X112449000Y-106135000D01*
G75*
G02*
X112500000Y-106084000I51000J0D01*
G01*
X116000000Y-106084000D01*
G75*
G02*
X116051000Y-106135000I0J-51000D01*
G01*
G37*
G36*
G01*
X116051000Y-85815000D02*
X116051000Y-87515000D01*
G75*
G02*
X116000000Y-87566000I-51000J0D01*
G01*
X112500000Y-87566000D01*
G75*
G02*
X112449000Y-87515000I0J51000D01*
G01*
X112449000Y-85815000D01*
G75*
G02*
X112500000Y-85764000I51000J0D01*
G01*
X116000000Y-85764000D01*
G75*
G02*
X116051000Y-85815000I0J-51000D01*
G01*
G37*
G36*
G01*
X116051000Y-90895000D02*
X116051000Y-92595000D01*
G75*
G02*
X116000000Y-92646000I-51000J0D01*
G01*
X112500000Y-92646000D01*
G75*
G02*
X112449000Y-92595000I0J51000D01*
G01*
X112449000Y-90895000D01*
G75*
G02*
X112500000Y-90844000I51000J0D01*
G01*
X116000000Y-90844000D01*
G75*
G02*
X116051000Y-90895000I0J-51000D01*
G01*
G37*
G36*
G01*
X116051000Y-83275000D02*
X116051000Y-84975000D01*
G75*
G02*
X116000000Y-85026000I-51000J0D01*
G01*
X112500000Y-85026000D01*
G75*
G02*
X112449000Y-84975000I0J51000D01*
G01*
X112449000Y-83275000D01*
G75*
G02*
X112500000Y-83224000I51000J0D01*
G01*
X116000000Y-83224000D01*
G75*
G02*
X116051000Y-83275000I0J-51000D01*
G01*
G37*
G36*
G01*
X116051000Y-73115000D02*
X116051000Y-74815000D01*
G75*
G02*
X116000000Y-74866000I-51000J0D01*
G01*
X112500000Y-74866000D01*
G75*
G02*
X112449000Y-74815000I0J51000D01*
G01*
X112449000Y-73115000D01*
G75*
G02*
X112500000Y-73064000I51000J0D01*
G01*
X116000000Y-73064000D01*
G75*
G02*
X116051000Y-73115000I0J-51000D01*
G01*
G37*
G36*
G01*
X116051000Y-70575000D02*
X116051000Y-72275000D01*
G75*
G02*
X116000000Y-72326000I-51000J0D01*
G01*
X112500000Y-72326000D01*
G75*
G02*
X112449000Y-72275000I0J51000D01*
G01*
X112449000Y-70575000D01*
G75*
G02*
X112500000Y-70524000I51000J0D01*
G01*
X116000000Y-70524000D01*
G75*
G02*
X116051000Y-70575000I0J-51000D01*
G01*
G37*
G36*
G01*
X116051000Y-68035000D02*
X116051000Y-69735000D01*
G75*
G02*
X116000000Y-69786000I-51000J0D01*
G01*
X112500000Y-69786000D01*
G75*
G02*
X112449000Y-69735000I0J51000D01*
G01*
X112449000Y-68035000D01*
G75*
G02*
X112500000Y-67984000I51000J0D01*
G01*
X116000000Y-67984000D01*
G75*
G02*
X116051000Y-68035000I0J-51000D01*
G01*
G37*
G36*
G01*
X116051000Y-60415000D02*
X116051000Y-62115000D01*
G75*
G02*
X116000000Y-62166000I-51000J0D01*
G01*
X112500000Y-62166000D01*
G75*
G02*
X112449000Y-62115000I0J51000D01*
G01*
X112449000Y-60415000D01*
G75*
G02*
X112500000Y-60364000I51000J0D01*
G01*
X116000000Y-60364000D01*
G75*
G02*
X116051000Y-60415000I0J-51000D01*
G01*
G37*
G36*
G01*
X116051000Y-88355000D02*
X116051000Y-90055000D01*
G75*
G02*
X116000000Y-90106000I-51000J0D01*
G01*
X112500000Y-90106000D01*
G75*
G02*
X112449000Y-90055000I0J51000D01*
G01*
X112449000Y-88355000D01*
G75*
G02*
X112500000Y-88304000I51000J0D01*
G01*
X116000000Y-88304000D01*
G75*
G02*
X116051000Y-88355000I0J-51000D01*
G01*
G37*
G36*
G01*
X116051000Y-75655000D02*
X116051000Y-77355000D01*
G75*
G02*
X116000000Y-77406000I-51000J0D01*
G01*
X112500000Y-77406000D01*
G75*
G02*
X112449000Y-77355000I0J51000D01*
G01*
X112449000Y-75655000D01*
G75*
G02*
X112500000Y-75604000I51000J0D01*
G01*
X116000000Y-75604000D01*
G75*
G02*
X116051000Y-75655000I0J-51000D01*
G01*
G37*
G36*
G01*
X116051000Y-62955000D02*
X116051000Y-64655000D01*
G75*
G02*
X116000000Y-64706000I-51000J0D01*
G01*
X112500000Y-64706000D01*
G75*
G02*
X112449000Y-64655000I0J51000D01*
G01*
X112449000Y-62955000D01*
G75*
G02*
X112500000Y-62904000I51000J0D01*
G01*
X116000000Y-62904000D01*
G75*
G02*
X116051000Y-62955000I0J-51000D01*
G01*
G37*
G36*
G01*
X116051000Y-57875000D02*
X116051000Y-59575000D01*
G75*
G02*
X116000000Y-59626000I-51000J0D01*
G01*
X112500000Y-59626000D01*
G75*
G02*
X112449000Y-59575000I0J51000D01*
G01*
X112449000Y-57875000D01*
G75*
G02*
X112500000Y-57824000I51000J0D01*
G01*
X116000000Y-57824000D01*
G75*
G02*
X116051000Y-57875000I0J-51000D01*
G01*
G37*
G36*
G01*
X116051000Y-78195000D02*
X116051000Y-79895000D01*
G75*
G02*
X116000000Y-79946000I-51000J0D01*
G01*
X112500000Y-79946000D01*
G75*
G02*
X112449000Y-79895000I0J51000D01*
G01*
X112449000Y-78195000D01*
G75*
G02*
X112500000Y-78144000I51000J0D01*
G01*
X116000000Y-78144000D01*
G75*
G02*
X116051000Y-78195000I0J-51000D01*
G01*
G37*
G36*
G01*
X116051000Y-65495000D02*
X116051000Y-67195000D01*
G75*
G02*
X116000000Y-67246000I-51000J0D01*
G01*
X112500000Y-67246000D01*
G75*
G02*
X112449000Y-67195000I0J51000D01*
G01*
X112449000Y-65495000D01*
G75*
G02*
X112500000Y-65444000I51000J0D01*
G01*
X116000000Y-65444000D01*
G75*
G02*
X116051000Y-65495000I0J-51000D01*
G01*
G37*
G36*
G01*
X116051000Y-80735000D02*
X116051000Y-82435000D01*
G75*
G02*
X116000000Y-82486000I-51000J0D01*
G01*
X112500000Y-82486000D01*
G75*
G02*
X112449000Y-82435000I0J51000D01*
G01*
X112449000Y-80735000D01*
G75*
G02*
X112500000Y-80684000I51000J0D01*
G01*
X116000000Y-80684000D01*
G75*
G02*
X116051000Y-80735000I0J-51000D01*
G01*
G37*
X94750000Y-58725000D03*
X94750000Y-61265000D03*
G36*
G01*
X93849000Y-64655000D02*
X93849000Y-62955000D01*
G75*
G02*
X93900000Y-62904000I51000J0D01*
G01*
X95600000Y-62904000D01*
G75*
G02*
X95651000Y-62955000I0J-51000D01*
G01*
X95651000Y-64655000D01*
G75*
G02*
X95600000Y-64706000I-51000J0D01*
G01*
X93900000Y-64706000D01*
G75*
G02*
X93849000Y-64655000I0J51000D01*
G01*
G37*
X94750000Y-66345000D03*
X94750000Y-68885000D03*
X94750000Y-71425000D03*
X94750000Y-73965000D03*
G36*
G01*
X93849000Y-77355000D02*
X93849000Y-75655000D01*
G75*
G02*
X93900000Y-75604000I51000J0D01*
G01*
X95600000Y-75604000D01*
G75*
G02*
X95651000Y-75655000I0J-51000D01*
G01*
X95651000Y-77355000D01*
G75*
G02*
X95600000Y-77406000I-51000J0D01*
G01*
X93900000Y-77406000D01*
G75*
G02*
X93849000Y-77355000I0J51000D01*
G01*
G37*
X94750000Y-79045000D03*
X94750000Y-81585000D03*
X94750000Y-84125000D03*
X94750000Y-86665000D03*
G36*
G01*
X93849000Y-90055000D02*
X93849000Y-88355000D01*
G75*
G02*
X93900000Y-88304000I51000J0D01*
G01*
X95600000Y-88304000D01*
G75*
G02*
X95651000Y-88355000I0J-51000D01*
G01*
X95651000Y-90055000D01*
G75*
G02*
X95600000Y-90106000I-51000J0D01*
G01*
X93900000Y-90106000D01*
G75*
G02*
X93849000Y-90055000I0J51000D01*
G01*
G37*
X94750000Y-91745000D03*
X94750000Y-94285000D03*
X94750000Y-96825000D03*
X94750000Y-99365000D03*
G36*
G01*
X93849000Y-102755000D02*
X93849000Y-101055000D01*
G75*
G02*
X93900000Y-101004000I51000J0D01*
G01*
X95600000Y-101004000D01*
G75*
G02*
X95651000Y-101055000I0J-51000D01*
G01*
X95651000Y-102755000D01*
G75*
G02*
X95600000Y-102806000I-51000J0D01*
G01*
X93900000Y-102806000D01*
G75*
G02*
X93849000Y-102755000I0J51000D01*
G01*
G37*
X94750000Y-104445000D03*
D16*
X94750000Y-106985000D03*
G36*
G01*
X91249000Y-105295000D02*
X91249000Y-103595000D01*
G75*
G02*
X91300000Y-103544000I51000J0D01*
G01*
X94800000Y-103544000D01*
G75*
G02*
X94851000Y-103595000I0J-51000D01*
G01*
X94851000Y-105295000D01*
G75*
G02*
X94800000Y-105346000I-51000J0D01*
G01*
X91300000Y-105346000D01*
G75*
G02*
X91249000Y-105295000I0J51000D01*
G01*
G37*
G36*
G01*
X91249000Y-74815000D02*
X91249000Y-73115000D01*
G75*
G02*
X91300000Y-73064000I51000J0D01*
G01*
X94800000Y-73064000D01*
G75*
G02*
X94851000Y-73115000I0J-51000D01*
G01*
X94851000Y-74815000D01*
G75*
G02*
X94800000Y-74866000I-51000J0D01*
G01*
X91300000Y-74866000D01*
G75*
G02*
X91249000Y-74815000I0J51000D01*
G01*
G37*
G36*
G01*
X91249000Y-100215000D02*
X91249000Y-98515000D01*
G75*
G02*
X91300000Y-98464000I51000J0D01*
G01*
X94800000Y-98464000D01*
G75*
G02*
X94851000Y-98515000I0J-51000D01*
G01*
X94851000Y-100215000D01*
G75*
G02*
X94800000Y-100266000I-51000J0D01*
G01*
X91300000Y-100266000D01*
G75*
G02*
X91249000Y-100215000I0J51000D01*
G01*
G37*
G36*
G01*
X91249000Y-95135000D02*
X91249000Y-93435000D01*
G75*
G02*
X91300000Y-93384000I51000J0D01*
G01*
X94800000Y-93384000D01*
G75*
G02*
X94851000Y-93435000I0J-51000D01*
G01*
X94851000Y-95135000D01*
G75*
G02*
X94800000Y-95186000I-51000J0D01*
G01*
X91300000Y-95186000D01*
G75*
G02*
X91249000Y-95135000I0J51000D01*
G01*
G37*
G36*
G01*
X91249000Y-90055000D02*
X91249000Y-88355000D01*
G75*
G02*
X91300000Y-88304000I51000J0D01*
G01*
X94800000Y-88304000D01*
G75*
G02*
X94851000Y-88355000I0J-51000D01*
G01*
X94851000Y-90055000D01*
G75*
G02*
X94800000Y-90106000I-51000J0D01*
G01*
X91300000Y-90106000D01*
G75*
G02*
X91249000Y-90055000I0J51000D01*
G01*
G37*
G36*
G01*
X91249000Y-87515000D02*
X91249000Y-85815000D01*
G75*
G02*
X91300000Y-85764000I51000J0D01*
G01*
X94800000Y-85764000D01*
G75*
G02*
X94851000Y-85815000I0J-51000D01*
G01*
X94851000Y-87515000D01*
G75*
G02*
X94800000Y-87566000I-51000J0D01*
G01*
X91300000Y-87566000D01*
G75*
G02*
X91249000Y-87515000I0J51000D01*
G01*
G37*
G36*
G01*
X91249000Y-72275000D02*
X91249000Y-70575000D01*
G75*
G02*
X91300000Y-70524000I51000J0D01*
G01*
X94800000Y-70524000D01*
G75*
G02*
X94851000Y-70575000I0J-51000D01*
G01*
X94851000Y-72275000D01*
G75*
G02*
X94800000Y-72326000I-51000J0D01*
G01*
X91300000Y-72326000D01*
G75*
G02*
X91249000Y-72275000I0J51000D01*
G01*
G37*
G36*
G01*
X91259000Y-79895000D02*
X91259000Y-78195000D01*
G75*
G02*
X91310000Y-78144000I51000J0D01*
G01*
X94810000Y-78144000D01*
G75*
G02*
X94861000Y-78195000I0J-51000D01*
G01*
X94861000Y-79895000D01*
G75*
G02*
X94810000Y-79946000I-51000J0D01*
G01*
X91310000Y-79946000D01*
G75*
G02*
X91259000Y-79895000I0J51000D01*
G01*
G37*
G36*
G01*
X91249000Y-69735000D02*
X91249000Y-68035000D01*
G75*
G02*
X91300000Y-67984000I51000J0D01*
G01*
X94800000Y-67984000D01*
G75*
G02*
X94851000Y-68035000I0J-51000D01*
G01*
X94851000Y-69735000D01*
G75*
G02*
X94800000Y-69786000I-51000J0D01*
G01*
X91300000Y-69786000D01*
G75*
G02*
X91249000Y-69735000I0J51000D01*
G01*
G37*
G36*
G01*
X91249000Y-62105000D02*
X91249000Y-60405000D01*
G75*
G02*
X91300000Y-60354000I51000J0D01*
G01*
X94800000Y-60354000D01*
G75*
G02*
X94851000Y-60405000I0J-51000D01*
G01*
X94851000Y-62105000D01*
G75*
G02*
X94800000Y-62156000I-51000J0D01*
G01*
X91300000Y-62156000D01*
G75*
G02*
X91249000Y-62105000I0J51000D01*
G01*
G37*
G36*
G01*
X91249000Y-67185000D02*
X91249000Y-65485000D01*
G75*
G02*
X91300000Y-65434000I51000J0D01*
G01*
X94800000Y-65434000D01*
G75*
G02*
X94851000Y-65485000I0J-51000D01*
G01*
X94851000Y-67185000D01*
G75*
G02*
X94800000Y-67236000I-51000J0D01*
G01*
X91300000Y-67236000D01*
G75*
G02*
X91249000Y-67185000I0J51000D01*
G01*
G37*
G36*
G01*
X91239000Y-92595000D02*
X91239000Y-90895000D01*
G75*
G02*
X91290000Y-90844000I51000J0D01*
G01*
X94790000Y-90844000D01*
G75*
G02*
X94841000Y-90895000I0J-51000D01*
G01*
X94841000Y-92595000D01*
G75*
G02*
X94790000Y-92646000I-51000J0D01*
G01*
X91290000Y-92646000D01*
G75*
G02*
X91239000Y-92595000I0J51000D01*
G01*
G37*
G36*
G01*
X91249000Y-97675000D02*
X91249000Y-95975000D01*
G75*
G02*
X91300000Y-95924000I51000J0D01*
G01*
X94800000Y-95924000D01*
G75*
G02*
X94851000Y-95975000I0J-51000D01*
G01*
X94851000Y-97675000D01*
G75*
G02*
X94800000Y-97726000I-51000J0D01*
G01*
X91300000Y-97726000D01*
G75*
G02*
X91249000Y-97675000I0J51000D01*
G01*
G37*
G36*
G01*
X91249000Y-82435000D02*
X91249000Y-80735000D01*
G75*
G02*
X91300000Y-80684000I51000J0D01*
G01*
X94800000Y-80684000D01*
G75*
G02*
X94851000Y-80735000I0J-51000D01*
G01*
X94851000Y-82435000D01*
G75*
G02*
X94800000Y-82486000I-51000J0D01*
G01*
X91300000Y-82486000D01*
G75*
G02*
X91249000Y-82435000I0J51000D01*
G01*
G37*
G36*
G01*
X91249000Y-77355000D02*
X91249000Y-75655000D01*
G75*
G02*
X91300000Y-75604000I51000J0D01*
G01*
X94800000Y-75604000D01*
G75*
G02*
X94851000Y-75655000I0J-51000D01*
G01*
X94851000Y-77355000D01*
G75*
G02*
X94800000Y-77406000I-51000J0D01*
G01*
X91300000Y-77406000D01*
G75*
G02*
X91249000Y-77355000I0J51000D01*
G01*
G37*
G36*
G01*
X91249000Y-107835000D02*
X91249000Y-106135000D01*
G75*
G02*
X91300000Y-106084000I51000J0D01*
G01*
X94800000Y-106084000D01*
G75*
G02*
X94851000Y-106135000I0J-51000D01*
G01*
X94851000Y-107835000D01*
G75*
G02*
X94800000Y-107886000I-51000J0D01*
G01*
X91300000Y-107886000D01*
G75*
G02*
X91249000Y-107835000I0J51000D01*
G01*
G37*
G36*
G01*
X91249000Y-84975000D02*
X91249000Y-83275000D01*
G75*
G02*
X91300000Y-83224000I51000J0D01*
G01*
X94800000Y-83224000D01*
G75*
G02*
X94851000Y-83275000I0J-51000D01*
G01*
X94851000Y-84975000D01*
G75*
G02*
X94800000Y-85026000I-51000J0D01*
G01*
X91300000Y-85026000D01*
G75*
G02*
X91249000Y-84975000I0J51000D01*
G01*
G37*
G36*
G01*
X91249000Y-64655000D02*
X91249000Y-62955000D01*
G75*
G02*
X91300000Y-62904000I51000J0D01*
G01*
X94800000Y-62904000D01*
G75*
G02*
X94851000Y-62955000I0J-51000D01*
G01*
X94851000Y-64655000D01*
G75*
G02*
X94800000Y-64706000I-51000J0D01*
G01*
X91300000Y-64706000D01*
G75*
G02*
X91249000Y-64655000I0J51000D01*
G01*
G37*
G36*
G01*
X91249000Y-102755000D02*
X91249000Y-101055000D01*
G75*
G02*
X91300000Y-101004000I51000J0D01*
G01*
X94800000Y-101004000D01*
G75*
G02*
X94851000Y-101055000I0J-51000D01*
G01*
X94851000Y-102755000D01*
G75*
G02*
X94800000Y-102806000I-51000J0D01*
G01*
X91300000Y-102806000D01*
G75*
G02*
X91249000Y-102755000I0J51000D01*
G01*
G37*
G36*
G01*
X91249000Y-59575000D02*
X91249000Y-57875000D01*
G75*
G02*
X91300000Y-57824000I51000J0D01*
G01*
X94800000Y-57824000D01*
G75*
G02*
X94851000Y-57875000I0J-51000D01*
G01*
X94851000Y-59575000D01*
G75*
G02*
X94800000Y-59626000I-51000J0D01*
G01*
X91300000Y-59626000D01*
G75*
G02*
X91249000Y-59575000I0J51000D01*
G01*
G37*
G36*
G01*
X105272900Y-66410000D02*
X104851900Y-66410000D01*
G75*
G02*
X104691400Y-66249500I0J160500D01*
G01*
X104691400Y-65928500D01*
G75*
G02*
X104851900Y-65768000I160500J0D01*
G01*
X105272900Y-65768000D01*
G75*
G02*
X105433400Y-65928500I0J-160500D01*
G01*
X105433400Y-66249500D01*
G75*
G02*
X105272900Y-66410000I-160500J0D01*
G01*
G37*
G36*
G01*
X105272900Y-67430000D02*
X104851900Y-67430000D01*
G75*
G02*
X104691400Y-67269500I0J160500D01*
G01*
X104691400Y-66948500D01*
G75*
G02*
X104851900Y-66788000I160500J0D01*
G01*
X105272900Y-66788000D01*
G75*
G02*
X105433400Y-66948500I0J-160500D01*
G01*
X105433400Y-67269500D01*
G75*
G02*
X105272900Y-67430000I-160500J0D01*
G01*
G37*
G36*
G01*
X97741000Y-87529500D02*
X97741000Y-87920500D01*
G75*
G02*
X97575500Y-88086000I-165500J0D01*
G01*
X97244500Y-88086000D01*
G75*
G02*
X97079000Y-87920500I0J165500D01*
G01*
X97079000Y-87529500D01*
G75*
G02*
X97244500Y-87364000I165500J0D01*
G01*
X97575500Y-87364000D01*
G75*
G02*
X97741000Y-87529500I0J-165500D01*
G01*
G37*
G36*
G01*
X98701000Y-87529500D02*
X98701000Y-87920500D01*
G75*
G02*
X98535500Y-88086000I-165500J0D01*
G01*
X98204500Y-88086000D01*
G75*
G02*
X98039000Y-87920500I0J165500D01*
G01*
X98039000Y-87529500D01*
G75*
G02*
X98204500Y-87364000I165500J0D01*
G01*
X98535500Y-87364000D01*
G75*
G02*
X98701000Y-87529500I0J-165500D01*
G01*
G37*
G36*
G01*
X106921600Y-80765440D02*
X106530600Y-80765440D01*
G75*
G02*
X106365100Y-80599940I0J165500D01*
G01*
X106365100Y-80268940D01*
G75*
G02*
X106530600Y-80103440I165500J0D01*
G01*
X106921600Y-80103440D01*
G75*
G02*
X107087100Y-80268940I0J-165500D01*
G01*
X107087100Y-80599940D01*
G75*
G02*
X106921600Y-80765440I-165500J0D01*
G01*
G37*
G36*
G01*
X106921600Y-81725440D02*
X106530600Y-81725440D01*
G75*
G02*
X106365100Y-81559940I0J165500D01*
G01*
X106365100Y-81228940D01*
G75*
G02*
X106530600Y-81063440I165500J0D01*
G01*
X106921600Y-81063440D01*
G75*
G02*
X107087100Y-81228940I0J-165500D01*
G01*
X107087100Y-81559940D01*
G75*
G02*
X106921600Y-81725440I-165500J0D01*
G01*
G37*
G36*
G01*
X103715500Y-92324400D02*
X104106500Y-92324400D01*
G75*
G02*
X104272000Y-92489900I0J-165500D01*
G01*
X104272000Y-92820900D01*
G75*
G02*
X104106500Y-92986400I-165500J0D01*
G01*
X103715500Y-92986400D01*
G75*
G02*
X103550000Y-92820900I0J165500D01*
G01*
X103550000Y-92489900D01*
G75*
G02*
X103715500Y-92324400I165500J0D01*
G01*
G37*
G36*
G01*
X103715500Y-91364400D02*
X104106500Y-91364400D01*
G75*
G02*
X104272000Y-91529900I0J-165500D01*
G01*
X104272000Y-91860900D01*
G75*
G02*
X104106500Y-92026400I-165500J0D01*
G01*
X103715500Y-92026400D01*
G75*
G02*
X103550000Y-91860900I0J165500D01*
G01*
X103550000Y-91529900D01*
G75*
G02*
X103715500Y-91364400I165500J0D01*
G01*
G37*
G36*
G01*
X110759000Y-87570500D02*
X110759000Y-87179500D01*
G75*
G02*
X110924500Y-87014000I165500J0D01*
G01*
X111255500Y-87014000D01*
G75*
G02*
X111421000Y-87179500I0J-165500D01*
G01*
X111421000Y-87570500D01*
G75*
G02*
X111255500Y-87736000I-165500J0D01*
G01*
X110924500Y-87736000D01*
G75*
G02*
X110759000Y-87570500I0J165500D01*
G01*
G37*
G36*
G01*
X109799000Y-87570500D02*
X109799000Y-87179500D01*
G75*
G02*
X109964500Y-87014000I165500J0D01*
G01*
X110295500Y-87014000D01*
G75*
G02*
X110461000Y-87179500I0J-165500D01*
G01*
X110461000Y-87570500D01*
G75*
G02*
X110295500Y-87736000I-165500J0D01*
G01*
X109964500Y-87736000D01*
G75*
G02*
X109799000Y-87570500I0J165500D01*
G01*
G37*
G36*
G01*
X104189260Y-78612960D02*
X104580260Y-78612960D01*
G75*
G02*
X104745760Y-78778460I0J-165500D01*
G01*
X104745760Y-79109460D01*
G75*
G02*
X104580260Y-79274960I-165500J0D01*
G01*
X104189260Y-79274960D01*
G75*
G02*
X104023760Y-79109460I0J165500D01*
G01*
X104023760Y-78778460D01*
G75*
G02*
X104189260Y-78612960I165500J0D01*
G01*
G37*
G36*
G01*
X104189260Y-77652960D02*
X104580260Y-77652960D01*
G75*
G02*
X104745760Y-77818460I0J-165500D01*
G01*
X104745760Y-78149460D01*
G75*
G02*
X104580260Y-78314960I-165500J0D01*
G01*
X104189260Y-78314960D01*
G75*
G02*
X104023760Y-78149460I0J165500D01*
G01*
X104023760Y-77818460D01*
G75*
G02*
X104189260Y-77652960I165500J0D01*
G01*
G37*
G36*
G01*
X98882500Y-76521100D02*
X98491500Y-76521100D01*
G75*
G02*
X98326000Y-76355600I0J165500D01*
G01*
X98326000Y-76024600D01*
G75*
G02*
X98491500Y-75859100I165500J0D01*
G01*
X98882500Y-75859100D01*
G75*
G02*
X99048000Y-76024600I0J-165500D01*
G01*
X99048000Y-76355600D01*
G75*
G02*
X98882500Y-76521100I-165500J0D01*
G01*
G37*
G36*
G01*
X98882500Y-77481100D02*
X98491500Y-77481100D01*
G75*
G02*
X98326000Y-77315600I0J165500D01*
G01*
X98326000Y-76984600D01*
G75*
G02*
X98491500Y-76819100I165500J0D01*
G01*
X98882500Y-76819100D01*
G75*
G02*
X99048000Y-76984600I0J-165500D01*
G01*
X99048000Y-77315600D01*
G75*
G02*
X98882500Y-77481100I-165500J0D01*
G01*
G37*
G36*
G01*
X98451000Y-82454500D02*
X98451000Y-82845500D01*
G75*
G02*
X98285500Y-83011000I-165500J0D01*
G01*
X97954500Y-83011000D01*
G75*
G02*
X97789000Y-82845500I0J165500D01*
G01*
X97789000Y-82454500D01*
G75*
G02*
X97954500Y-82289000I165500J0D01*
G01*
X98285500Y-82289000D01*
G75*
G02*
X98451000Y-82454500I0J-165500D01*
G01*
G37*
G36*
G01*
X99411000Y-82454500D02*
X99411000Y-82845500D01*
G75*
G02*
X99245500Y-83011000I-165500J0D01*
G01*
X98914500Y-83011000D01*
G75*
G02*
X98749000Y-82845500I0J165500D01*
G01*
X98749000Y-82454500D01*
G75*
G02*
X98914500Y-82289000I165500J0D01*
G01*
X99245500Y-82289000D01*
G75*
G02*
X99411000Y-82454500I0J-165500D01*
G01*
G37*
G36*
G01*
X104804500Y-92324000D02*
X105195500Y-92324000D01*
G75*
G02*
X105361000Y-92489500I0J-165500D01*
G01*
X105361000Y-92820500D01*
G75*
G02*
X105195500Y-92986000I-165500J0D01*
G01*
X104804500Y-92986000D01*
G75*
G02*
X104639000Y-92820500I0J165500D01*
G01*
X104639000Y-92489500D01*
G75*
G02*
X104804500Y-92324000I165500J0D01*
G01*
G37*
G36*
G01*
X104804500Y-91364000D02*
X105195500Y-91364000D01*
G75*
G02*
X105361000Y-91529500I0J-165500D01*
G01*
X105361000Y-91860500D01*
G75*
G02*
X105195500Y-92026000I-165500J0D01*
G01*
X104804500Y-92026000D01*
G75*
G02*
X104639000Y-91860500I0J165500D01*
G01*
X104639000Y-91529500D01*
G75*
G02*
X104804500Y-91364000I165500J0D01*
G01*
G37*
G36*
G01*
X108771000Y-85214500D02*
X108771000Y-85635500D01*
G75*
G02*
X108610500Y-85796000I-160500J0D01*
G01*
X108289500Y-85796000D01*
G75*
G02*
X108129000Y-85635500I0J160500D01*
G01*
X108129000Y-85214500D01*
G75*
G02*
X108289500Y-85054000I160500J0D01*
G01*
X108610500Y-85054000D01*
G75*
G02*
X108771000Y-85214500I0J-160500D01*
G01*
G37*
G36*
G01*
X109791000Y-85214500D02*
X109791000Y-85635500D01*
G75*
G02*
X109630500Y-85796000I-160500J0D01*
G01*
X109309500Y-85796000D01*
G75*
G02*
X109149000Y-85635500I0J160500D01*
G01*
X109149000Y-85214500D01*
G75*
G02*
X109309500Y-85054000I160500J0D01*
G01*
X109630500Y-85054000D01*
G75*
G02*
X109791000Y-85214500I0J-160500D01*
G01*
G37*
G36*
G01*
X110242000Y-85564000D02*
X110638000Y-85564000D01*
G75*
G02*
X110811000Y-85737000I0J-173000D01*
G01*
X110811000Y-86083000D01*
G75*
G02*
X110638000Y-86256000I-173000J0D01*
G01*
X110242000Y-86256000D01*
G75*
G02*
X110069000Y-86083000I0J173000D01*
G01*
X110069000Y-85737000D01*
G75*
G02*
X110242000Y-85564000I173000J0D01*
G01*
G37*
G36*
G01*
X110242000Y-84594000D02*
X110638000Y-84594000D01*
G75*
G02*
X110811000Y-84767000I0J-173000D01*
G01*
X110811000Y-85113000D01*
G75*
G02*
X110638000Y-85286000I-173000J0D01*
G01*
X110242000Y-85286000D01*
G75*
G02*
X110069000Y-85113000I0J173000D01*
G01*
X110069000Y-84767000D01*
G75*
G02*
X110242000Y-84594000I173000J0D01*
G01*
G37*
G36*
G01*
X100889000Y-83000500D02*
X100889000Y-82174500D01*
G75*
G02*
X100964500Y-82099000I75500J0D01*
G01*
X101115500Y-82099000D01*
G75*
G02*
X101191000Y-82174500I0J-75500D01*
G01*
X101191000Y-83000500D01*
G75*
G02*
X101115500Y-83076000I-75500J0D01*
G01*
X100964500Y-83076000D01*
G75*
G02*
X100889000Y-83000500I0J75500D01*
G01*
G37*
G36*
G01*
X101289000Y-83000500D02*
X101289000Y-82174500D01*
G75*
G02*
X101364500Y-82099000I75500J0D01*
G01*
X101515500Y-82099000D01*
G75*
G02*
X101591000Y-82174500I0J-75500D01*
G01*
X101591000Y-83000500D01*
G75*
G02*
X101515500Y-83076000I-75500J0D01*
G01*
X101364500Y-83076000D01*
G75*
G02*
X101289000Y-83000500I0J75500D01*
G01*
G37*
G36*
G01*
X101689000Y-83000500D02*
X101689000Y-82174500D01*
G75*
G02*
X101764500Y-82099000I75500J0D01*
G01*
X101915500Y-82099000D01*
G75*
G02*
X101991000Y-82174500I0J-75500D01*
G01*
X101991000Y-83000500D01*
G75*
G02*
X101915500Y-83076000I-75500J0D01*
G01*
X101764500Y-83076000D01*
G75*
G02*
X101689000Y-83000500I0J75500D01*
G01*
G37*
G36*
G01*
X102089000Y-83000500D02*
X102089000Y-82174500D01*
G75*
G02*
X102164500Y-82099000I75500J0D01*
G01*
X102315500Y-82099000D01*
G75*
G02*
X102391000Y-82174500I0J-75500D01*
G01*
X102391000Y-83000500D01*
G75*
G02*
X102315500Y-83076000I-75500J0D01*
G01*
X102164500Y-83076000D01*
G75*
G02*
X102089000Y-83000500I0J75500D01*
G01*
G37*
G36*
G01*
X102489000Y-83000500D02*
X102489000Y-82174500D01*
G75*
G02*
X102564500Y-82099000I75500J0D01*
G01*
X102715500Y-82099000D01*
G75*
G02*
X102791000Y-82174500I0J-75500D01*
G01*
X102791000Y-83000500D01*
G75*
G02*
X102715500Y-83076000I-75500J0D01*
G01*
X102564500Y-83076000D01*
G75*
G02*
X102489000Y-83000500I0J75500D01*
G01*
G37*
G36*
G01*
X102889000Y-83000500D02*
X102889000Y-82174500D01*
G75*
G02*
X102964500Y-82099000I75500J0D01*
G01*
X103115500Y-82099000D01*
G75*
G02*
X103191000Y-82174500I0J-75500D01*
G01*
X103191000Y-83000500D01*
G75*
G02*
X103115500Y-83076000I-75500J0D01*
G01*
X102964500Y-83076000D01*
G75*
G02*
X102889000Y-83000500I0J75500D01*
G01*
G37*
G36*
G01*
X103289000Y-83000500D02*
X103289000Y-82174500D01*
G75*
G02*
X103364500Y-82099000I75500J0D01*
G01*
X103515500Y-82099000D01*
G75*
G02*
X103591000Y-82174500I0J-75500D01*
G01*
X103591000Y-83000500D01*
G75*
G02*
X103515500Y-83076000I-75500J0D01*
G01*
X103364500Y-83076000D01*
G75*
G02*
X103289000Y-83000500I0J75500D01*
G01*
G37*
G36*
G01*
X103689000Y-83000500D02*
X103689000Y-82174500D01*
G75*
G02*
X103764500Y-82099000I75500J0D01*
G01*
X103915500Y-82099000D01*
G75*
G02*
X103991000Y-82174500I0J-75500D01*
G01*
X103991000Y-83000500D01*
G75*
G02*
X103915500Y-83076000I-75500J0D01*
G01*
X103764500Y-83076000D01*
G75*
G02*
X103689000Y-83000500I0J75500D01*
G01*
G37*
G36*
G01*
X104089000Y-83000500D02*
X104089000Y-82174500D01*
G75*
G02*
X104164500Y-82099000I75500J0D01*
G01*
X104315500Y-82099000D01*
G75*
G02*
X104391000Y-82174500I0J-75500D01*
G01*
X104391000Y-83000500D01*
G75*
G02*
X104315500Y-83076000I-75500J0D01*
G01*
X104164500Y-83076000D01*
G75*
G02*
X104089000Y-83000500I0J75500D01*
G01*
G37*
G36*
G01*
X104489000Y-83000500D02*
X104489000Y-82174500D01*
G75*
G02*
X104564500Y-82099000I75500J0D01*
G01*
X104715500Y-82099000D01*
G75*
G02*
X104791000Y-82174500I0J-75500D01*
G01*
X104791000Y-83000500D01*
G75*
G02*
X104715500Y-83076000I-75500J0D01*
G01*
X104564500Y-83076000D01*
G75*
G02*
X104489000Y-83000500I0J75500D01*
G01*
G37*
G36*
G01*
X104889000Y-83000500D02*
X104889000Y-82174500D01*
G75*
G02*
X104964500Y-82099000I75500J0D01*
G01*
X105115500Y-82099000D01*
G75*
G02*
X105191000Y-82174500I0J-75500D01*
G01*
X105191000Y-83000500D01*
G75*
G02*
X105115500Y-83076000I-75500J0D01*
G01*
X104964500Y-83076000D01*
G75*
G02*
X104889000Y-83000500I0J75500D01*
G01*
G37*
G36*
G01*
X105289000Y-83000500D02*
X105289000Y-82174500D01*
G75*
G02*
X105364500Y-82099000I75500J0D01*
G01*
X105515500Y-82099000D01*
G75*
G02*
X105591000Y-82174500I0J-75500D01*
G01*
X105591000Y-83000500D01*
G75*
G02*
X105515500Y-83076000I-75500J0D01*
G01*
X105364500Y-83076000D01*
G75*
G02*
X105289000Y-83000500I0J75500D01*
G01*
G37*
G36*
G01*
X105689000Y-83000500D02*
X105689000Y-82174500D01*
G75*
G02*
X105764500Y-82099000I75500J0D01*
G01*
X105915500Y-82099000D01*
G75*
G02*
X105991000Y-82174500I0J-75500D01*
G01*
X105991000Y-83000500D01*
G75*
G02*
X105915500Y-83076000I-75500J0D01*
G01*
X105764500Y-83076000D01*
G75*
G02*
X105689000Y-83000500I0J75500D01*
G01*
G37*
G36*
G01*
X106089000Y-83000500D02*
X106089000Y-82174500D01*
G75*
G02*
X106164500Y-82099000I75500J0D01*
G01*
X106315500Y-82099000D01*
G75*
G02*
X106391000Y-82174500I0J-75500D01*
G01*
X106391000Y-83000500D01*
G75*
G02*
X106315500Y-83076000I-75500J0D01*
G01*
X106164500Y-83076000D01*
G75*
G02*
X106089000Y-83000500I0J75500D01*
G01*
G37*
G36*
G01*
X106589000Y-83500500D02*
X106589000Y-83349500D01*
G75*
G02*
X106664500Y-83274000I75500J0D01*
G01*
X107490500Y-83274000D01*
G75*
G02*
X107566000Y-83349500I0J-75500D01*
G01*
X107566000Y-83500500D01*
G75*
G02*
X107490500Y-83576000I-75500J0D01*
G01*
X106664500Y-83576000D01*
G75*
G02*
X106589000Y-83500500I0J75500D01*
G01*
G37*
G36*
G01*
X106589000Y-83900500D02*
X106589000Y-83749500D01*
G75*
G02*
X106664500Y-83674000I75500J0D01*
G01*
X107490500Y-83674000D01*
G75*
G02*
X107566000Y-83749500I0J-75500D01*
G01*
X107566000Y-83900500D01*
G75*
G02*
X107490500Y-83976000I-75500J0D01*
G01*
X106664500Y-83976000D01*
G75*
G02*
X106589000Y-83900500I0J75500D01*
G01*
G37*
G36*
G01*
X106589000Y-84300500D02*
X106589000Y-84149500D01*
G75*
G02*
X106664500Y-84074000I75500J0D01*
G01*
X107490500Y-84074000D01*
G75*
G02*
X107566000Y-84149500I0J-75500D01*
G01*
X107566000Y-84300500D01*
G75*
G02*
X107490500Y-84376000I-75500J0D01*
G01*
X106664500Y-84376000D01*
G75*
G02*
X106589000Y-84300500I0J75500D01*
G01*
G37*
G36*
G01*
X106589000Y-84700500D02*
X106589000Y-84549500D01*
G75*
G02*
X106664500Y-84474000I75500J0D01*
G01*
X107490500Y-84474000D01*
G75*
G02*
X107566000Y-84549500I0J-75500D01*
G01*
X107566000Y-84700500D01*
G75*
G02*
X107490500Y-84776000I-75500J0D01*
G01*
X106664500Y-84776000D01*
G75*
G02*
X106589000Y-84700500I0J75500D01*
G01*
G37*
G36*
G01*
X106589000Y-85100500D02*
X106589000Y-84949500D01*
G75*
G02*
X106664500Y-84874000I75500J0D01*
G01*
X107490500Y-84874000D01*
G75*
G02*
X107566000Y-84949500I0J-75500D01*
G01*
X107566000Y-85100500D01*
G75*
G02*
X107490500Y-85176000I-75500J0D01*
G01*
X106664500Y-85176000D01*
G75*
G02*
X106589000Y-85100500I0J75500D01*
G01*
G37*
G36*
G01*
X106589000Y-85500500D02*
X106589000Y-85349500D01*
G75*
G02*
X106664500Y-85274000I75500J0D01*
G01*
X107490500Y-85274000D01*
G75*
G02*
X107566000Y-85349500I0J-75500D01*
G01*
X107566000Y-85500500D01*
G75*
G02*
X107490500Y-85576000I-75500J0D01*
G01*
X106664500Y-85576000D01*
G75*
G02*
X106589000Y-85500500I0J75500D01*
G01*
G37*
G36*
G01*
X106589000Y-85900500D02*
X106589000Y-85749500D01*
G75*
G02*
X106664500Y-85674000I75500J0D01*
G01*
X107490500Y-85674000D01*
G75*
G02*
X107566000Y-85749500I0J-75500D01*
G01*
X107566000Y-85900500D01*
G75*
G02*
X107490500Y-85976000I-75500J0D01*
G01*
X106664500Y-85976000D01*
G75*
G02*
X106589000Y-85900500I0J75500D01*
G01*
G37*
G36*
G01*
X106589000Y-86300500D02*
X106589000Y-86149500D01*
G75*
G02*
X106664500Y-86074000I75500J0D01*
G01*
X107490500Y-86074000D01*
G75*
G02*
X107566000Y-86149500I0J-75500D01*
G01*
X107566000Y-86300500D01*
G75*
G02*
X107490500Y-86376000I-75500J0D01*
G01*
X106664500Y-86376000D01*
G75*
G02*
X106589000Y-86300500I0J75500D01*
G01*
G37*
G36*
G01*
X106589000Y-86700500D02*
X106589000Y-86549500D01*
G75*
G02*
X106664500Y-86474000I75500J0D01*
G01*
X107490500Y-86474000D01*
G75*
G02*
X107566000Y-86549500I0J-75500D01*
G01*
X107566000Y-86700500D01*
G75*
G02*
X107490500Y-86776000I-75500J0D01*
G01*
X106664500Y-86776000D01*
G75*
G02*
X106589000Y-86700500I0J75500D01*
G01*
G37*
G36*
G01*
X106589000Y-87100500D02*
X106589000Y-86949500D01*
G75*
G02*
X106664500Y-86874000I75500J0D01*
G01*
X107490500Y-86874000D01*
G75*
G02*
X107566000Y-86949500I0J-75500D01*
G01*
X107566000Y-87100500D01*
G75*
G02*
X107490500Y-87176000I-75500J0D01*
G01*
X106664500Y-87176000D01*
G75*
G02*
X106589000Y-87100500I0J75500D01*
G01*
G37*
G36*
G01*
X106589000Y-87500500D02*
X106589000Y-87349500D01*
G75*
G02*
X106664500Y-87274000I75500J0D01*
G01*
X107490500Y-87274000D01*
G75*
G02*
X107566000Y-87349500I0J-75500D01*
G01*
X107566000Y-87500500D01*
G75*
G02*
X107490500Y-87576000I-75500J0D01*
G01*
X106664500Y-87576000D01*
G75*
G02*
X106589000Y-87500500I0J75500D01*
G01*
G37*
G36*
G01*
X106589000Y-87900500D02*
X106589000Y-87749500D01*
G75*
G02*
X106664500Y-87674000I75500J0D01*
G01*
X107490500Y-87674000D01*
G75*
G02*
X107566000Y-87749500I0J-75500D01*
G01*
X107566000Y-87900500D01*
G75*
G02*
X107490500Y-87976000I-75500J0D01*
G01*
X106664500Y-87976000D01*
G75*
G02*
X106589000Y-87900500I0J75500D01*
G01*
G37*
G36*
G01*
X106589000Y-88300500D02*
X106589000Y-88149500D01*
G75*
G02*
X106664500Y-88074000I75500J0D01*
G01*
X107490500Y-88074000D01*
G75*
G02*
X107566000Y-88149500I0J-75500D01*
G01*
X107566000Y-88300500D01*
G75*
G02*
X107490500Y-88376000I-75500J0D01*
G01*
X106664500Y-88376000D01*
G75*
G02*
X106589000Y-88300500I0J75500D01*
G01*
G37*
G36*
G01*
X106589000Y-88700500D02*
X106589000Y-88549500D01*
G75*
G02*
X106664500Y-88474000I75500J0D01*
G01*
X107490500Y-88474000D01*
G75*
G02*
X107566000Y-88549500I0J-75500D01*
G01*
X107566000Y-88700500D01*
G75*
G02*
X107490500Y-88776000I-75500J0D01*
G01*
X106664500Y-88776000D01*
G75*
G02*
X106589000Y-88700500I0J75500D01*
G01*
G37*
G36*
G01*
X106089000Y-89875500D02*
X106089000Y-89049500D01*
G75*
G02*
X106164500Y-88974000I75500J0D01*
G01*
X106315500Y-88974000D01*
G75*
G02*
X106391000Y-89049500I0J-75500D01*
G01*
X106391000Y-89875500D01*
G75*
G02*
X106315500Y-89951000I-75500J0D01*
G01*
X106164500Y-89951000D01*
G75*
G02*
X106089000Y-89875500I0J75500D01*
G01*
G37*
G36*
G01*
X105689000Y-89875500D02*
X105689000Y-89049500D01*
G75*
G02*
X105764500Y-88974000I75500J0D01*
G01*
X105915500Y-88974000D01*
G75*
G02*
X105991000Y-89049500I0J-75500D01*
G01*
X105991000Y-89875500D01*
G75*
G02*
X105915500Y-89951000I-75500J0D01*
G01*
X105764500Y-89951000D01*
G75*
G02*
X105689000Y-89875500I0J75500D01*
G01*
G37*
G36*
G01*
X105289000Y-89875500D02*
X105289000Y-89049500D01*
G75*
G02*
X105364500Y-88974000I75500J0D01*
G01*
X105515500Y-88974000D01*
G75*
G02*
X105591000Y-89049500I0J-75500D01*
G01*
X105591000Y-89875500D01*
G75*
G02*
X105515500Y-89951000I-75500J0D01*
G01*
X105364500Y-89951000D01*
G75*
G02*
X105289000Y-89875500I0J75500D01*
G01*
G37*
G36*
G01*
X104889000Y-89875500D02*
X104889000Y-89049500D01*
G75*
G02*
X104964500Y-88974000I75500J0D01*
G01*
X105115500Y-88974000D01*
G75*
G02*
X105191000Y-89049500I0J-75500D01*
G01*
X105191000Y-89875500D01*
G75*
G02*
X105115500Y-89951000I-75500J0D01*
G01*
X104964500Y-89951000D01*
G75*
G02*
X104889000Y-89875500I0J75500D01*
G01*
G37*
G36*
G01*
X104489000Y-89875500D02*
X104489000Y-89049500D01*
G75*
G02*
X104564500Y-88974000I75500J0D01*
G01*
X104715500Y-88974000D01*
G75*
G02*
X104791000Y-89049500I0J-75500D01*
G01*
X104791000Y-89875500D01*
G75*
G02*
X104715500Y-89951000I-75500J0D01*
G01*
X104564500Y-89951000D01*
G75*
G02*
X104489000Y-89875500I0J75500D01*
G01*
G37*
G36*
G01*
X104089000Y-89875500D02*
X104089000Y-89049500D01*
G75*
G02*
X104164500Y-88974000I75500J0D01*
G01*
X104315500Y-88974000D01*
G75*
G02*
X104391000Y-89049500I0J-75500D01*
G01*
X104391000Y-89875500D01*
G75*
G02*
X104315500Y-89951000I-75500J0D01*
G01*
X104164500Y-89951000D01*
G75*
G02*
X104089000Y-89875500I0J75500D01*
G01*
G37*
G36*
G01*
X103689000Y-89875500D02*
X103689000Y-89049500D01*
G75*
G02*
X103764500Y-88974000I75500J0D01*
G01*
X103915500Y-88974000D01*
G75*
G02*
X103991000Y-89049500I0J-75500D01*
G01*
X103991000Y-89875500D01*
G75*
G02*
X103915500Y-89951000I-75500J0D01*
G01*
X103764500Y-89951000D01*
G75*
G02*
X103689000Y-89875500I0J75500D01*
G01*
G37*
G36*
G01*
X103289000Y-89875500D02*
X103289000Y-89049500D01*
G75*
G02*
X103364500Y-88974000I75500J0D01*
G01*
X103515500Y-88974000D01*
G75*
G02*
X103591000Y-89049500I0J-75500D01*
G01*
X103591000Y-89875500D01*
G75*
G02*
X103515500Y-89951000I-75500J0D01*
G01*
X103364500Y-89951000D01*
G75*
G02*
X103289000Y-89875500I0J75500D01*
G01*
G37*
G36*
G01*
X102889000Y-89875500D02*
X102889000Y-89049500D01*
G75*
G02*
X102964500Y-88974000I75500J0D01*
G01*
X103115500Y-88974000D01*
G75*
G02*
X103191000Y-89049500I0J-75500D01*
G01*
X103191000Y-89875500D01*
G75*
G02*
X103115500Y-89951000I-75500J0D01*
G01*
X102964500Y-89951000D01*
G75*
G02*
X102889000Y-89875500I0J75500D01*
G01*
G37*
G36*
G01*
X102489000Y-89875500D02*
X102489000Y-89049500D01*
G75*
G02*
X102564500Y-88974000I75500J0D01*
G01*
X102715500Y-88974000D01*
G75*
G02*
X102791000Y-89049500I0J-75500D01*
G01*
X102791000Y-89875500D01*
G75*
G02*
X102715500Y-89951000I-75500J0D01*
G01*
X102564500Y-89951000D01*
G75*
G02*
X102489000Y-89875500I0J75500D01*
G01*
G37*
G36*
G01*
X102089000Y-89875500D02*
X102089000Y-89049500D01*
G75*
G02*
X102164500Y-88974000I75500J0D01*
G01*
X102315500Y-88974000D01*
G75*
G02*
X102391000Y-89049500I0J-75500D01*
G01*
X102391000Y-89875500D01*
G75*
G02*
X102315500Y-89951000I-75500J0D01*
G01*
X102164500Y-89951000D01*
G75*
G02*
X102089000Y-89875500I0J75500D01*
G01*
G37*
G36*
G01*
X101689000Y-89875500D02*
X101689000Y-89049500D01*
G75*
G02*
X101764500Y-88974000I75500J0D01*
G01*
X101915500Y-88974000D01*
G75*
G02*
X101991000Y-89049500I0J-75500D01*
G01*
X101991000Y-89875500D01*
G75*
G02*
X101915500Y-89951000I-75500J0D01*
G01*
X101764500Y-89951000D01*
G75*
G02*
X101689000Y-89875500I0J75500D01*
G01*
G37*
G36*
G01*
X101289000Y-89875500D02*
X101289000Y-89049500D01*
G75*
G02*
X101364500Y-88974000I75500J0D01*
G01*
X101515500Y-88974000D01*
G75*
G02*
X101591000Y-89049500I0J-75500D01*
G01*
X101591000Y-89875500D01*
G75*
G02*
X101515500Y-89951000I-75500J0D01*
G01*
X101364500Y-89951000D01*
G75*
G02*
X101289000Y-89875500I0J75500D01*
G01*
G37*
G36*
G01*
X100889000Y-89875500D02*
X100889000Y-89049500D01*
G75*
G02*
X100964500Y-88974000I75500J0D01*
G01*
X101115500Y-88974000D01*
G75*
G02*
X101191000Y-89049500I0J-75500D01*
G01*
X101191000Y-89875500D01*
G75*
G02*
X101115500Y-89951000I-75500J0D01*
G01*
X100964500Y-89951000D01*
G75*
G02*
X100889000Y-89875500I0J75500D01*
G01*
G37*
G36*
G01*
X99714000Y-88700500D02*
X99714000Y-88549500D01*
G75*
G02*
X99789500Y-88474000I75500J0D01*
G01*
X100615500Y-88474000D01*
G75*
G02*
X100691000Y-88549500I0J-75500D01*
G01*
X100691000Y-88700500D01*
G75*
G02*
X100615500Y-88776000I-75500J0D01*
G01*
X99789500Y-88776000D01*
G75*
G02*
X99714000Y-88700500I0J75500D01*
G01*
G37*
G36*
G01*
X99714000Y-88300500D02*
X99714000Y-88149500D01*
G75*
G02*
X99789500Y-88074000I75500J0D01*
G01*
X100615500Y-88074000D01*
G75*
G02*
X100691000Y-88149500I0J-75500D01*
G01*
X100691000Y-88300500D01*
G75*
G02*
X100615500Y-88376000I-75500J0D01*
G01*
X99789500Y-88376000D01*
G75*
G02*
X99714000Y-88300500I0J75500D01*
G01*
G37*
G36*
G01*
X99714000Y-87900500D02*
X99714000Y-87749500D01*
G75*
G02*
X99789500Y-87674000I75500J0D01*
G01*
X100615500Y-87674000D01*
G75*
G02*
X100691000Y-87749500I0J-75500D01*
G01*
X100691000Y-87900500D01*
G75*
G02*
X100615500Y-87976000I-75500J0D01*
G01*
X99789500Y-87976000D01*
G75*
G02*
X99714000Y-87900500I0J75500D01*
G01*
G37*
G36*
G01*
X99714000Y-87500500D02*
X99714000Y-87349500D01*
G75*
G02*
X99789500Y-87274000I75500J0D01*
G01*
X100615500Y-87274000D01*
G75*
G02*
X100691000Y-87349500I0J-75500D01*
G01*
X100691000Y-87500500D01*
G75*
G02*
X100615500Y-87576000I-75500J0D01*
G01*
X99789500Y-87576000D01*
G75*
G02*
X99714000Y-87500500I0J75500D01*
G01*
G37*
G36*
G01*
X99714000Y-87100500D02*
X99714000Y-86949500D01*
G75*
G02*
X99789500Y-86874000I75500J0D01*
G01*
X100615500Y-86874000D01*
G75*
G02*
X100691000Y-86949500I0J-75500D01*
G01*
X100691000Y-87100500D01*
G75*
G02*
X100615500Y-87176000I-75500J0D01*
G01*
X99789500Y-87176000D01*
G75*
G02*
X99714000Y-87100500I0J75500D01*
G01*
G37*
G36*
G01*
X99714000Y-86700500D02*
X99714000Y-86549500D01*
G75*
G02*
X99789500Y-86474000I75500J0D01*
G01*
X100615500Y-86474000D01*
G75*
G02*
X100691000Y-86549500I0J-75500D01*
G01*
X100691000Y-86700500D01*
G75*
G02*
X100615500Y-86776000I-75500J0D01*
G01*
X99789500Y-86776000D01*
G75*
G02*
X99714000Y-86700500I0J75500D01*
G01*
G37*
G36*
G01*
X99714000Y-86300500D02*
X99714000Y-86149500D01*
G75*
G02*
X99789500Y-86074000I75500J0D01*
G01*
X100615500Y-86074000D01*
G75*
G02*
X100691000Y-86149500I0J-75500D01*
G01*
X100691000Y-86300500D01*
G75*
G02*
X100615500Y-86376000I-75500J0D01*
G01*
X99789500Y-86376000D01*
G75*
G02*
X99714000Y-86300500I0J75500D01*
G01*
G37*
G36*
G01*
X99714000Y-85900500D02*
X99714000Y-85749500D01*
G75*
G02*
X99789500Y-85674000I75500J0D01*
G01*
X100615500Y-85674000D01*
G75*
G02*
X100691000Y-85749500I0J-75500D01*
G01*
X100691000Y-85900500D01*
G75*
G02*
X100615500Y-85976000I-75500J0D01*
G01*
X99789500Y-85976000D01*
G75*
G02*
X99714000Y-85900500I0J75500D01*
G01*
G37*
G36*
G01*
X99714000Y-85500500D02*
X99714000Y-85349500D01*
G75*
G02*
X99789500Y-85274000I75500J0D01*
G01*
X100615500Y-85274000D01*
G75*
G02*
X100691000Y-85349500I0J-75500D01*
G01*
X100691000Y-85500500D01*
G75*
G02*
X100615500Y-85576000I-75500J0D01*
G01*
X99789500Y-85576000D01*
G75*
G02*
X99714000Y-85500500I0J75500D01*
G01*
G37*
G36*
G01*
X99714000Y-85100500D02*
X99714000Y-84949500D01*
G75*
G02*
X99789500Y-84874000I75500J0D01*
G01*
X100615500Y-84874000D01*
G75*
G02*
X100691000Y-84949500I0J-75500D01*
G01*
X100691000Y-85100500D01*
G75*
G02*
X100615500Y-85176000I-75500J0D01*
G01*
X99789500Y-85176000D01*
G75*
G02*
X99714000Y-85100500I0J75500D01*
G01*
G37*
G36*
G01*
X99714000Y-84700500D02*
X99714000Y-84549500D01*
G75*
G02*
X99789500Y-84474000I75500J0D01*
G01*
X100615500Y-84474000D01*
G75*
G02*
X100691000Y-84549500I0J-75500D01*
G01*
X100691000Y-84700500D01*
G75*
G02*
X100615500Y-84776000I-75500J0D01*
G01*
X99789500Y-84776000D01*
G75*
G02*
X99714000Y-84700500I0J75500D01*
G01*
G37*
G36*
G01*
X99714000Y-84300500D02*
X99714000Y-84149500D01*
G75*
G02*
X99789500Y-84074000I75500J0D01*
G01*
X100615500Y-84074000D01*
G75*
G02*
X100691000Y-84149500I0J-75500D01*
G01*
X100691000Y-84300500D01*
G75*
G02*
X100615500Y-84376000I-75500J0D01*
G01*
X99789500Y-84376000D01*
G75*
G02*
X99714000Y-84300500I0J75500D01*
G01*
G37*
G36*
G01*
X99714000Y-83900500D02*
X99714000Y-83749500D01*
G75*
G02*
X99789500Y-83674000I75500J0D01*
G01*
X100615500Y-83674000D01*
G75*
G02*
X100691000Y-83749500I0J-75500D01*
G01*
X100691000Y-83900500D01*
G75*
G02*
X100615500Y-83976000I-75500J0D01*
G01*
X99789500Y-83976000D01*
G75*
G02*
X99714000Y-83900500I0J75500D01*
G01*
G37*
G36*
G01*
X99714000Y-83500500D02*
X99714000Y-83349500D01*
G75*
G02*
X99789500Y-83274000I75500J0D01*
G01*
X100615500Y-83274000D01*
G75*
G02*
X100691000Y-83349500I0J-75500D01*
G01*
X100691000Y-83500500D01*
G75*
G02*
X100615500Y-83576000I-75500J0D01*
G01*
X99789500Y-83576000D01*
G75*
G02*
X99714000Y-83500500I0J75500D01*
G01*
G37*
G36*
G01*
X101989000Y-87527410D02*
X101989000Y-84522590D01*
G75*
G02*
X102137590Y-84374000I148590J0D01*
G01*
X105142410Y-84374000D01*
G75*
G02*
X105291000Y-84522590I0J-148590D01*
G01*
X105291000Y-87527410D01*
G75*
G02*
X105142410Y-87676000I-148590J0D01*
G01*
X102137590Y-87676000D01*
G75*
G02*
X101989000Y-87527410I0J148590D01*
G01*
G37*
D15*
X106230000Y-106925000D03*
G36*
G01*
X104140500Y-107826000D02*
X103239500Y-107826000D01*
G75*
G02*
X102789000Y-107375500I0J450500D01*
G01*
X102789000Y-106474500D01*
G75*
G02*
X103239500Y-106024000I450500J0D01*
G01*
X104140500Y-106024000D01*
G75*
G02*
X104591000Y-106474500I0J-450500D01*
G01*
X104591000Y-107375500D01*
G75*
G02*
X104140500Y-107826000I-450500J0D01*
G01*
G37*
X101150000Y-106925000D03*
M02*
