%FSLAX45Y45*%
G04 Gerber Fmt 4.5, Leading zero omitted, Abs format (unit mm)*
G04 Created by KiCad (PCBNEW (5.1.10)-1) date 2021-08-18 14:36:59*
%MOMM*%
%LPD*%
G01*
G04 APERTURE LIST*
%TA.AperFunction,Profile*%
%ADD10C,0.050000*%
%TD*%
%ADD11C,0.200000*%
%ADD12C,0.300000*%
G04 APERTURE END LIST*
D10*
X11440000Y-10802500D02*
G75*
G02*
X11390000Y-10852500I-50000J0D01*
G01*
X9340000Y-10852500D02*
G75*
G02*
X9290000Y-10802500I0J50000D01*
G01*
X9290000Y-5772500D02*
G75*
G02*
X9340000Y-5722500I50000J0D01*
G01*
X11390000Y-5722500D02*
G75*
G02*
X11440000Y-5772500I0J-50000D01*
G01*
X11440000Y-10802500D02*
X11440000Y-5772500D01*
X9340000Y-5722500D02*
X11390000Y-5722500D01*
X9290000Y-10802500D02*
X9290000Y-5772500D01*
X9340000Y-10852500D02*
X11390000Y-10852500D01*
D11*
X10038500Y-6285000D02*
X10103500Y-6350000D01*
X10103500Y-6285000D02*
X10038500Y-6350000D01*
X10616500Y-6285000D02*
X10681500Y-6350000D01*
X10681500Y-6285000D02*
X10616500Y-6350000D01*
D12*
X286429Y-465714D02*
X286429Y-165714D01*
X357857Y-165714D01*
X400714Y-180000D01*
X429286Y-208571D01*
X443571Y-237143D01*
X457857Y-294286D01*
X457857Y-337143D01*
X443571Y-394286D01*
X429286Y-422857D01*
X400714Y-451428D01*
X357857Y-465714D01*
X286429Y-465714D01*
X586429Y-465714D02*
X586429Y-265714D01*
X586429Y-322857D02*
X600714Y-294286D01*
X615000Y-280000D01*
X643571Y-265714D01*
X672143Y-265714D01*
X772143Y-465714D02*
X772143Y-265714D01*
X772143Y-165714D02*
X757857Y-180000D01*
X772143Y-194286D01*
X786428Y-180000D01*
X772143Y-165714D01*
X772143Y-194286D01*
X957857Y-465714D02*
X929286Y-451428D01*
X915000Y-422857D01*
X915000Y-165714D01*
X1115000Y-465714D02*
X1086429Y-451428D01*
X1072143Y-422857D01*
X1072143Y-165714D01*
X1457857Y-465714D02*
X1457857Y-165714D01*
X1557857Y-380000D01*
X1657857Y-165714D01*
X1657857Y-465714D01*
X1929286Y-465714D02*
X1929286Y-308571D01*
X1915000Y-280000D01*
X1886428Y-265714D01*
X1829286Y-265714D01*
X1800714Y-280000D01*
X1929286Y-451428D02*
X1900714Y-465714D01*
X1829286Y-465714D01*
X1800714Y-451428D01*
X1786428Y-422857D01*
X1786428Y-394286D01*
X1800714Y-365714D01*
X1829286Y-351428D01*
X1900714Y-351428D01*
X1929286Y-337143D01*
X2072143Y-265714D02*
X2072143Y-565714D01*
X2072143Y-280000D02*
X2100714Y-265714D01*
X2157857Y-265714D01*
X2186429Y-280000D01*
X2200714Y-294286D01*
X2215000Y-322857D01*
X2215000Y-408571D01*
X2200714Y-437143D01*
X2186429Y-451428D01*
X2157857Y-465714D01*
X2100714Y-465714D01*
X2072143Y-451428D01*
X2343571Y-437143D02*
X2357857Y-451428D01*
X2343571Y-465714D01*
X2329286Y-451428D01*
X2343571Y-437143D01*
X2343571Y-465714D01*
X2343571Y-280000D02*
X2357857Y-294286D01*
X2343571Y-308571D01*
X2329286Y-294286D01*
X2343571Y-280000D01*
X2343571Y-308571D01*
X-65000Y-927500D02*
X0Y-992500D01*
X0Y-927500D02*
X-65000Y-992500D01*
X343571Y-795714D02*
X372143Y-795714D01*
X400714Y-810000D01*
X415000Y-824286D01*
X429286Y-852857D01*
X443571Y-910000D01*
X443571Y-981428D01*
X429286Y-1038571D01*
X415000Y-1067143D01*
X400714Y-1081429D01*
X372143Y-1095714D01*
X343571Y-1095714D01*
X315000Y-1081429D01*
X300714Y-1067143D01*
X286429Y-1038571D01*
X272143Y-981428D01*
X272143Y-910000D01*
X286429Y-852857D01*
X300714Y-824286D01*
X315000Y-810000D01*
X343571Y-795714D01*
X572143Y-1067143D02*
X586429Y-1081429D01*
X572143Y-1095714D01*
X557857Y-1081429D01*
X572143Y-1067143D01*
X572143Y-1095714D01*
X843571Y-795714D02*
X786428Y-795714D01*
X757857Y-810000D01*
X743571Y-824286D01*
X715000Y-867143D01*
X700714Y-924286D01*
X700714Y-1038571D01*
X715000Y-1067143D01*
X729286Y-1081429D01*
X757857Y-1095714D01*
X815000Y-1095714D01*
X843571Y-1081429D01*
X857857Y-1067143D01*
X872143Y-1038571D01*
X872143Y-967143D01*
X857857Y-938571D01*
X843571Y-924286D01*
X815000Y-910000D01*
X757857Y-910000D01*
X729286Y-924286D01*
X715000Y-938571D01*
X700714Y-967143D01*
X1143571Y-795714D02*
X1000714Y-795714D01*
X986428Y-938571D01*
X1000714Y-924286D01*
X1029286Y-910000D01*
X1100714Y-910000D01*
X1129286Y-924286D01*
X1143571Y-938571D01*
X1157857Y-967143D01*
X1157857Y-1038571D01*
X1143571Y-1067143D01*
X1129286Y-1081429D01*
X1100714Y-1095714D01*
X1029286Y-1095714D01*
X1000714Y-1081429D01*
X986428Y-1067143D01*
X1343571Y-795714D02*
X1372143Y-795714D01*
X1400714Y-810000D01*
X1415000Y-824286D01*
X1429286Y-852857D01*
X1443571Y-910000D01*
X1443571Y-981428D01*
X1429286Y-1038571D01*
X1415000Y-1067143D01*
X1400714Y-1081429D01*
X1372143Y-1095714D01*
X1343571Y-1095714D01*
X1315000Y-1081429D01*
X1300714Y-1067143D01*
X1286429Y-1038571D01*
X1272143Y-981428D01*
X1272143Y-910000D01*
X1286429Y-852857D01*
X1300714Y-824286D01*
X1315000Y-810000D01*
X1343571Y-795714D01*
X1572143Y-1095714D02*
X1572143Y-895714D01*
X1572143Y-924286D02*
X1586428Y-910000D01*
X1615000Y-895714D01*
X1657857Y-895714D01*
X1686428Y-910000D01*
X1700714Y-938571D01*
X1700714Y-1095714D01*
X1700714Y-938571D02*
X1715000Y-910000D01*
X1743571Y-895714D01*
X1786428Y-895714D01*
X1815000Y-910000D01*
X1829286Y-938571D01*
X1829286Y-1095714D01*
X1972143Y-1095714D02*
X1972143Y-895714D01*
X1972143Y-924286D02*
X1986428Y-910000D01*
X2015000Y-895714D01*
X2057857Y-895714D01*
X2086428Y-910000D01*
X2100714Y-938571D01*
X2100714Y-1095714D01*
X2100714Y-938571D02*
X2115000Y-910000D01*
X2143571Y-895714D01*
X2186429Y-895714D01*
X2215000Y-910000D01*
X2229286Y-938571D01*
X2229286Y-1095714D01*
X2815000Y-781428D02*
X2557857Y-1167143D01*
X3200714Y-795714D02*
X3229286Y-795714D01*
X3257857Y-810000D01*
X3272143Y-824286D01*
X3286428Y-852857D01*
X3300714Y-910000D01*
X3300714Y-981428D01*
X3286428Y-1038571D01*
X3272143Y-1067143D01*
X3257857Y-1081429D01*
X3229286Y-1095714D01*
X3200714Y-1095714D01*
X3172143Y-1081429D01*
X3157857Y-1067143D01*
X3143571Y-1038571D01*
X3129286Y-981428D01*
X3129286Y-910000D01*
X3143571Y-852857D01*
X3157857Y-824286D01*
X3172143Y-810000D01*
X3200714Y-795714D01*
X3429286Y-1067143D02*
X3443571Y-1081429D01*
X3429286Y-1095714D01*
X3415000Y-1081429D01*
X3429286Y-1067143D01*
X3429286Y-1095714D01*
X3629286Y-795714D02*
X3657857Y-795714D01*
X3686428Y-810000D01*
X3700714Y-824286D01*
X3715000Y-852857D01*
X3729286Y-910000D01*
X3729286Y-981428D01*
X3715000Y-1038571D01*
X3700714Y-1067143D01*
X3686428Y-1081429D01*
X3657857Y-1095714D01*
X3629286Y-1095714D01*
X3600714Y-1081429D01*
X3586428Y-1067143D01*
X3572143Y-1038571D01*
X3557857Y-981428D01*
X3557857Y-910000D01*
X3572143Y-852857D01*
X3586428Y-824286D01*
X3600714Y-810000D01*
X3629286Y-795714D01*
X3843571Y-824286D02*
X3857857Y-810000D01*
X3886428Y-795714D01*
X3957857Y-795714D01*
X3986428Y-810000D01*
X4000714Y-824286D01*
X4015000Y-852857D01*
X4015000Y-881428D01*
X4000714Y-924286D01*
X3829286Y-1095714D01*
X4015000Y-1095714D01*
X4286429Y-795714D02*
X4143571Y-795714D01*
X4129286Y-938571D01*
X4143571Y-924286D01*
X4172143Y-910000D01*
X4243571Y-910000D01*
X4272143Y-924286D01*
X4286429Y-938571D01*
X4300714Y-967143D01*
X4300714Y-1038571D01*
X4286429Y-1067143D01*
X4272143Y-1081429D01*
X4243571Y-1095714D01*
X4172143Y-1095714D01*
X4143571Y-1081429D01*
X4129286Y-1067143D01*
X4557857Y-795714D02*
X4500714Y-795714D01*
X4472143Y-810000D01*
X4457857Y-824286D01*
X4429286Y-867143D01*
X4415000Y-924286D01*
X4415000Y-1038571D01*
X4429286Y-1067143D01*
X4443571Y-1081429D01*
X4472143Y-1095714D01*
X4529286Y-1095714D01*
X4557857Y-1081429D01*
X4572143Y-1067143D01*
X4586429Y-1038571D01*
X4586429Y-967143D01*
X4572143Y-938571D01*
X4557857Y-924286D01*
X4529286Y-910000D01*
X4472143Y-910000D01*
X4443571Y-924286D01*
X4429286Y-938571D01*
X4415000Y-967143D01*
X4700714Y-795714D02*
X4700714Y-852857D01*
X4815000Y-795714D02*
X4815000Y-852857D01*
X5257857Y-1210000D02*
X5243571Y-1195714D01*
X5215000Y-1152857D01*
X5200714Y-1124286D01*
X5186429Y-1081429D01*
X5172143Y-1010000D01*
X5172143Y-952857D01*
X5186429Y-881428D01*
X5200714Y-838571D01*
X5215000Y-810000D01*
X5243571Y-767143D01*
X5257857Y-752857D01*
X5357857Y-824286D02*
X5372143Y-810000D01*
X5400714Y-795714D01*
X5472143Y-795714D01*
X5500714Y-810000D01*
X5515000Y-824286D01*
X5529286Y-852857D01*
X5529286Y-881428D01*
X5515000Y-924286D01*
X5343571Y-1095714D01*
X5529286Y-1095714D01*
X5886428Y-1095714D02*
X5886428Y-795714D01*
X6015000Y-1095714D02*
X6015000Y-938571D01*
X6000714Y-910000D01*
X5972143Y-895714D01*
X5929286Y-895714D01*
X5900714Y-910000D01*
X5886428Y-924286D01*
X6200714Y-1095714D02*
X6172143Y-1081429D01*
X6157857Y-1067143D01*
X6143571Y-1038571D01*
X6143571Y-952857D01*
X6157857Y-924286D01*
X6172143Y-910000D01*
X6200714Y-895714D01*
X6243571Y-895714D01*
X6272143Y-910000D01*
X6286428Y-924286D01*
X6300714Y-952857D01*
X6300714Y-1038571D01*
X6286428Y-1067143D01*
X6272143Y-1081429D01*
X6243571Y-1095714D01*
X6200714Y-1095714D01*
X6472143Y-1095714D02*
X6443571Y-1081429D01*
X6429286Y-1052857D01*
X6429286Y-795714D01*
X6700714Y-1081429D02*
X6672143Y-1095714D01*
X6615000Y-1095714D01*
X6586428Y-1081429D01*
X6572143Y-1052857D01*
X6572143Y-938571D01*
X6586428Y-910000D01*
X6615000Y-895714D01*
X6672143Y-895714D01*
X6700714Y-910000D01*
X6715000Y-938571D01*
X6715000Y-967143D01*
X6572143Y-995714D01*
X6829286Y-1081429D02*
X6857857Y-1095714D01*
X6915000Y-1095714D01*
X6943571Y-1081429D01*
X6957857Y-1052857D01*
X6957857Y-1038571D01*
X6943571Y-1010000D01*
X6915000Y-995714D01*
X6872143Y-995714D01*
X6843571Y-981428D01*
X6829286Y-952857D01*
X6829286Y-938571D01*
X6843571Y-910000D01*
X6872143Y-895714D01*
X6915000Y-895714D01*
X6943571Y-910000D01*
X7057857Y-1210000D02*
X7072143Y-1195714D01*
X7100714Y-1152857D01*
X7115000Y-1124286D01*
X7129286Y-1081429D01*
X7143571Y-1010000D01*
X7143571Y-952857D01*
X7129286Y-881428D01*
X7115000Y-838571D01*
X7100714Y-810000D01*
X7072143Y-767143D01*
X7057857Y-752857D01*
X7600714Y-1210000D02*
X7586428Y-1195714D01*
X7557857Y-1152857D01*
X7543571Y-1124286D01*
X7529286Y-1081429D01*
X7515000Y-1010000D01*
X7515000Y-952857D01*
X7529286Y-881428D01*
X7543571Y-838571D01*
X7557857Y-810000D01*
X7586428Y-767143D01*
X7600714Y-752857D01*
X7715000Y-895714D02*
X7715000Y-1095714D01*
X7715000Y-924286D02*
X7729286Y-910000D01*
X7757857Y-895714D01*
X7800714Y-895714D01*
X7829286Y-910000D01*
X7843571Y-938571D01*
X7843571Y-1095714D01*
X8029286Y-1095714D02*
X8000714Y-1081429D01*
X7986428Y-1067143D01*
X7972143Y-1038571D01*
X7972143Y-952857D01*
X7986428Y-924286D01*
X8000714Y-910000D01*
X8029286Y-895714D01*
X8072143Y-895714D01*
X8100714Y-910000D01*
X8115000Y-924286D01*
X8129286Y-952857D01*
X8129286Y-1038571D01*
X8115000Y-1067143D01*
X8100714Y-1081429D01*
X8072143Y-1095714D01*
X8029286Y-1095714D01*
X8215000Y-895714D02*
X8329286Y-895714D01*
X8257857Y-795714D02*
X8257857Y-1052857D01*
X8272143Y-1081429D01*
X8300714Y-1095714D01*
X8329286Y-1095714D01*
X8657857Y-895714D02*
X8657857Y-1195714D01*
X8657857Y-910000D02*
X8686429Y-895714D01*
X8743571Y-895714D01*
X8772143Y-910000D01*
X8786429Y-924286D01*
X8800714Y-952857D01*
X8800714Y-1038571D01*
X8786429Y-1067143D01*
X8772143Y-1081429D01*
X8743571Y-1095714D01*
X8686429Y-1095714D01*
X8657857Y-1081429D01*
X8972143Y-1095714D02*
X8943571Y-1081429D01*
X8929286Y-1052857D01*
X8929286Y-795714D01*
X9215000Y-1095714D02*
X9215000Y-938571D01*
X9200714Y-910000D01*
X9172143Y-895714D01*
X9115000Y-895714D01*
X9086429Y-910000D01*
X9215000Y-1081429D02*
X9186429Y-1095714D01*
X9115000Y-1095714D01*
X9086429Y-1081429D01*
X9072143Y-1052857D01*
X9072143Y-1024286D01*
X9086429Y-995714D01*
X9115000Y-981428D01*
X9186429Y-981428D01*
X9215000Y-967143D01*
X9315000Y-895714D02*
X9429286Y-895714D01*
X9357857Y-795714D02*
X9357857Y-1052857D01*
X9372143Y-1081429D01*
X9400714Y-1095714D01*
X9429286Y-1095714D01*
X9643571Y-1081429D02*
X9615000Y-1095714D01*
X9557857Y-1095714D01*
X9529286Y-1081429D01*
X9515000Y-1052857D01*
X9515000Y-938571D01*
X9529286Y-910000D01*
X9557857Y-895714D01*
X9615000Y-895714D01*
X9643571Y-910000D01*
X9657857Y-938571D01*
X9657857Y-967143D01*
X9515000Y-995714D01*
X9915000Y-1095714D02*
X9915000Y-795714D01*
X9915000Y-1081429D02*
X9886429Y-1095714D01*
X9829286Y-1095714D01*
X9800714Y-1081429D01*
X9786429Y-1067143D01*
X9772143Y-1038571D01*
X9772143Y-952857D01*
X9786429Y-924286D01*
X9800714Y-910000D01*
X9829286Y-895714D01*
X9886429Y-895714D01*
X9915000Y-910000D01*
X10029286Y-1210000D02*
X10043571Y-1195714D01*
X10072143Y-1152857D01*
X10086429Y-1124286D01*
X10100714Y-1081429D01*
X10115000Y-1010000D01*
X10115000Y-952857D01*
X10100714Y-881428D01*
X10086429Y-838571D01*
X10072143Y-810000D01*
X10043571Y-767143D01*
X10029286Y-752857D01*
M02*
