G04 #@! TF.GenerationSoftware,KiCad,Pcbnew,(5.1.10)-1*
G04 #@! TF.CreationDate,2021-08-13T11:53:03+01:00*
G04 #@! TF.ProjectId,EnvOpenPico,456e764f-7065-46e5-9069-636f2e6b6963,REV1*
G04 #@! TF.SameCoordinates,Original*
G04 #@! TF.FileFunction,Copper,L1,Top*
G04 #@! TF.FilePolarity,Positive*
%FSLAX46Y46*%
G04 Gerber Fmt 4.6, Leading zero omitted, Abs format (unit mm)*
G04 Created by KiCad (PCBNEW (5.1.10)-1) date 2021-08-13 11:53:03*
%MOMM*%
%LPD*%
G01*
G04 APERTURE LIST*
G04 #@! TA.AperFunction,SMDPad,CuDef*
%ADD10R,1.600000X1.400000*%
G04 #@! TD*
G04 #@! TA.AperFunction,ComponentPad*
%ADD11C,0.500000*%
G04 #@! TD*
G04 #@! TA.AperFunction,SMDPad,CuDef*
%ADD12C,0.150000*%
G04 #@! TD*
G04 #@! TA.AperFunction,SMDPad,CuDef*
%ADD13R,0.600000X0.240000*%
G04 #@! TD*
G04 #@! TA.AperFunction,ComponentPad*
%ADD14O,1.700000X1.700000*%
G04 #@! TD*
G04 #@! TA.AperFunction,ComponentPad*
%ADD15R,1.700000X1.700000*%
G04 #@! TD*
G04 #@! TA.AperFunction,ComponentPad*
%ADD16R,3.500000X1.700000*%
G04 #@! TD*
G04 #@! TA.AperFunction,ComponentPad*
%ADD17C,1.700000*%
G04 #@! TD*
G04 #@! TA.AperFunction,SMDPad,CuDef*
%ADD18R,0.600000X1.450000*%
G04 #@! TD*
G04 #@! TA.AperFunction,SMDPad,CuDef*
%ADD19R,0.300000X1.450000*%
G04 #@! TD*
G04 #@! TA.AperFunction,ComponentPad*
%ADD20O,1.000000X2.100000*%
G04 #@! TD*
G04 #@! TA.AperFunction,ComponentPad*
%ADD21O,1.000000X1.600000*%
G04 #@! TD*
G04 #@! TA.AperFunction,SMDPad,CuDef*
%ADD22R,1.400000X1.150000*%
G04 #@! TD*
G04 #@! TA.AperFunction,ComponentPad*
%ADD23C,0.600000*%
G04 #@! TD*
G04 #@! TA.AperFunction,ViaPad*
%ADD24C,0.600000*%
G04 #@! TD*
G04 #@! TA.AperFunction,ViaPad*
%ADD25C,0.400000*%
G04 #@! TD*
G04 #@! TA.AperFunction,Conductor*
%ADD26C,0.150000*%
G04 #@! TD*
G04 #@! TA.AperFunction,Conductor*
%ADD27C,0.400000*%
G04 #@! TD*
G04 #@! TA.AperFunction,Conductor*
%ADD28C,0.600000*%
G04 #@! TD*
G04 #@! TA.AperFunction,Conductor*
%ADD29C,0.300000*%
G04 #@! TD*
G04 #@! TA.AperFunction,Conductor*
%ADD30C,0.200000*%
G04 #@! TD*
G04 #@! TA.AperFunction,Conductor*
%ADD31C,1.000000*%
G04 #@! TD*
G04 #@! TA.AperFunction,Conductor*
%ADD32C,0.800000*%
G04 #@! TD*
G04 #@! TA.AperFunction,Conductor*
%ADD33C,0.127000*%
G04 #@! TD*
G04 #@! TA.AperFunction,Conductor*
%ADD34C,0.250000*%
G04 #@! TD*
G04 #@! TA.AperFunction,Conductor*
%ADD35C,0.254000*%
G04 #@! TD*
G04 APERTURE END LIST*
G04 #@! TA.AperFunction,SMDPad,CuDef*
G36*
G01*
X110373250Y-60203800D02*
X109860750Y-60203800D01*
G75*
G02*
X109642000Y-59985050I0J218750D01*
G01*
X109642000Y-59547550D01*
G75*
G02*
X109860750Y-59328800I218750J0D01*
G01*
X110373250Y-59328800D01*
G75*
G02*
X110592000Y-59547550I0J-218750D01*
G01*
X110592000Y-59985050D01*
G75*
G02*
X110373250Y-60203800I-218750J0D01*
G01*
G37*
G04 #@! TD.AperFunction*
G04 #@! TA.AperFunction,SMDPad,CuDef*
G36*
G01*
X110373250Y-61778800D02*
X109860750Y-61778800D01*
G75*
G02*
X109642000Y-61560050I0J218750D01*
G01*
X109642000Y-61122550D01*
G75*
G02*
X109860750Y-60903800I218750J0D01*
G01*
X110373250Y-60903800D01*
G75*
G02*
X110592000Y-61122550I0J-218750D01*
G01*
X110592000Y-61560050D01*
G75*
G02*
X110373250Y-61778800I-218750J0D01*
G01*
G37*
G04 #@! TD.AperFunction*
G04 #@! TA.AperFunction,SMDPad,CuDef*
G36*
G01*
X102034300Y-66359000D02*
X101664300Y-66359000D01*
G75*
G02*
X101529300Y-66224000I0J135000D01*
G01*
X101529300Y-65954000D01*
G75*
G02*
X101664300Y-65819000I135000J0D01*
G01*
X102034300Y-65819000D01*
G75*
G02*
X102169300Y-65954000I0J-135000D01*
G01*
X102169300Y-66224000D01*
G75*
G02*
X102034300Y-66359000I-135000J0D01*
G01*
G37*
G04 #@! TD.AperFunction*
G04 #@! TA.AperFunction,SMDPad,CuDef*
G36*
G01*
X102034300Y-67379000D02*
X101664300Y-67379000D01*
G75*
G02*
X101529300Y-67244000I0J135000D01*
G01*
X101529300Y-66974000D01*
G75*
G02*
X101664300Y-66839000I135000J0D01*
G01*
X102034300Y-66839000D01*
G75*
G02*
X102169300Y-66974000I0J-135000D01*
G01*
X102169300Y-67244000D01*
G75*
G02*
X102034300Y-67379000I-135000J0D01*
G01*
G37*
G04 #@! TD.AperFunction*
G04 #@! TA.AperFunction,SMDPad,CuDef*
G36*
G01*
X109880120Y-80845680D02*
X109880120Y-80505680D01*
G75*
G02*
X110020120Y-80365680I140000J0D01*
G01*
X110300120Y-80365680D01*
G75*
G02*
X110440120Y-80505680I0J-140000D01*
G01*
X110440120Y-80845680D01*
G75*
G02*
X110300120Y-80985680I-140000J0D01*
G01*
X110020120Y-80985680D01*
G75*
G02*
X109880120Y-80845680I0J140000D01*
G01*
G37*
G04 #@! TD.AperFunction*
G04 #@! TA.AperFunction,SMDPad,CuDef*
G36*
G01*
X108920120Y-80845680D02*
X108920120Y-80505680D01*
G75*
G02*
X109060120Y-80365680I140000J0D01*
G01*
X109340120Y-80365680D01*
G75*
G02*
X109480120Y-80505680I0J-140000D01*
G01*
X109480120Y-80845680D01*
G75*
G02*
X109340120Y-80985680I-140000J0D01*
G01*
X109060120Y-80985680D01*
G75*
G02*
X108920120Y-80845680I0J140000D01*
G01*
G37*
G04 #@! TD.AperFunction*
G04 #@! TA.AperFunction,SMDPad,CuDef*
G36*
G01*
X109877580Y-82072500D02*
X109877580Y-81732500D01*
G75*
G02*
X110017580Y-81592500I140000J0D01*
G01*
X110297580Y-81592500D01*
G75*
G02*
X110437580Y-81732500I0J-140000D01*
G01*
X110437580Y-82072500D01*
G75*
G02*
X110297580Y-82212500I-140000J0D01*
G01*
X110017580Y-82212500D01*
G75*
G02*
X109877580Y-82072500I0J140000D01*
G01*
G37*
G04 #@! TD.AperFunction*
G04 #@! TA.AperFunction,SMDPad,CuDef*
G36*
G01*
X108917580Y-82072500D02*
X108917580Y-81732500D01*
G75*
G02*
X109057580Y-81592500I140000J0D01*
G01*
X109337580Y-81592500D01*
G75*
G02*
X109477580Y-81732500I0J-140000D01*
G01*
X109477580Y-82072500D01*
G75*
G02*
X109337580Y-82212500I-140000J0D01*
G01*
X109057580Y-82212500D01*
G75*
G02*
X108917580Y-82072500I0J140000D01*
G01*
G37*
G04 #@! TD.AperFunction*
D10*
X100500560Y-79448860D03*
G04 #@! TA.AperFunction,SMDPad,CuDef*
G36*
G01*
X99838060Y-78423860D02*
X99663060Y-78423860D01*
G75*
G02*
X99575560Y-78336360I0J87500D01*
G01*
X99575560Y-77986360D01*
G75*
G02*
X99663060Y-77898860I87500J0D01*
G01*
X99838060Y-77898860D01*
G75*
G02*
X99925560Y-77986360I0J-87500D01*
G01*
X99925560Y-78336360D01*
G75*
G02*
X99838060Y-78423860I-87500J0D01*
G01*
G37*
G04 #@! TD.AperFunction*
G04 #@! TA.AperFunction,SMDPad,CuDef*
G36*
G01*
X100338060Y-78423860D02*
X100163060Y-78423860D01*
G75*
G02*
X100075560Y-78336360I0J87500D01*
G01*
X100075560Y-77986360D01*
G75*
G02*
X100163060Y-77898860I87500J0D01*
G01*
X100338060Y-77898860D01*
G75*
G02*
X100425560Y-77986360I0J-87500D01*
G01*
X100425560Y-78336360D01*
G75*
G02*
X100338060Y-78423860I-87500J0D01*
G01*
G37*
G04 #@! TD.AperFunction*
G04 #@! TA.AperFunction,SMDPad,CuDef*
G36*
G01*
X100838060Y-78423860D02*
X100663060Y-78423860D01*
G75*
G02*
X100575560Y-78336360I0J87500D01*
G01*
X100575560Y-77986360D01*
G75*
G02*
X100663060Y-77898860I87500J0D01*
G01*
X100838060Y-77898860D01*
G75*
G02*
X100925560Y-77986360I0J-87500D01*
G01*
X100925560Y-78336360D01*
G75*
G02*
X100838060Y-78423860I-87500J0D01*
G01*
G37*
G04 #@! TD.AperFunction*
G04 #@! TA.AperFunction,SMDPad,CuDef*
G36*
G01*
X101338060Y-78423860D02*
X101163060Y-78423860D01*
G75*
G02*
X101075560Y-78336360I0J87500D01*
G01*
X101075560Y-77986360D01*
G75*
G02*
X101163060Y-77898860I87500J0D01*
G01*
X101338060Y-77898860D01*
G75*
G02*
X101425560Y-77986360I0J-87500D01*
G01*
X101425560Y-78336360D01*
G75*
G02*
X101338060Y-78423860I-87500J0D01*
G01*
G37*
G04 #@! TD.AperFunction*
G04 #@! TA.AperFunction,SMDPad,CuDef*
G36*
G01*
X101338060Y-80998860D02*
X101163060Y-80998860D01*
G75*
G02*
X101075560Y-80911360I0J87500D01*
G01*
X101075560Y-80561360D01*
G75*
G02*
X101163060Y-80473860I87500J0D01*
G01*
X101338060Y-80473860D01*
G75*
G02*
X101425560Y-80561360I0J-87500D01*
G01*
X101425560Y-80911360D01*
G75*
G02*
X101338060Y-80998860I-87500J0D01*
G01*
G37*
G04 #@! TD.AperFunction*
G04 #@! TA.AperFunction,SMDPad,CuDef*
G36*
G01*
X100838060Y-80998860D02*
X100663060Y-80998860D01*
G75*
G02*
X100575560Y-80911360I0J87500D01*
G01*
X100575560Y-80561360D01*
G75*
G02*
X100663060Y-80473860I87500J0D01*
G01*
X100838060Y-80473860D01*
G75*
G02*
X100925560Y-80561360I0J-87500D01*
G01*
X100925560Y-80911360D01*
G75*
G02*
X100838060Y-80998860I-87500J0D01*
G01*
G37*
G04 #@! TD.AperFunction*
G04 #@! TA.AperFunction,SMDPad,CuDef*
G36*
G01*
X100338060Y-80998860D02*
X100163060Y-80998860D01*
G75*
G02*
X100075560Y-80911360I0J87500D01*
G01*
X100075560Y-80561360D01*
G75*
G02*
X100163060Y-80473860I87500J0D01*
G01*
X100338060Y-80473860D01*
G75*
G02*
X100425560Y-80561360I0J-87500D01*
G01*
X100425560Y-80911360D01*
G75*
G02*
X100338060Y-80998860I-87500J0D01*
G01*
G37*
G04 #@! TD.AperFunction*
G04 #@! TA.AperFunction,SMDPad,CuDef*
G36*
G01*
X99838060Y-80998860D02*
X99663060Y-80998860D01*
G75*
G02*
X99575560Y-80911360I0J87500D01*
G01*
X99575560Y-80561360D01*
G75*
G02*
X99663060Y-80473860I87500J0D01*
G01*
X99838060Y-80473860D01*
G75*
G02*
X99925560Y-80561360I0J-87500D01*
G01*
X99925560Y-80911360D01*
G75*
G02*
X99838060Y-80998860I-87500J0D01*
G01*
G37*
G04 #@! TD.AperFunction*
G04 #@! TA.AperFunction,SMDPad,CuDef*
G36*
G01*
X109758140Y-72811660D02*
X109758140Y-72471660D01*
G75*
G02*
X109898140Y-72331660I140000J0D01*
G01*
X110178140Y-72331660D01*
G75*
G02*
X110318140Y-72471660I0J-140000D01*
G01*
X110318140Y-72811660D01*
G75*
G02*
X110178140Y-72951660I-140000J0D01*
G01*
X109898140Y-72951660D01*
G75*
G02*
X109758140Y-72811660I0J140000D01*
G01*
G37*
G04 #@! TD.AperFunction*
G04 #@! TA.AperFunction,SMDPad,CuDef*
G36*
G01*
X108798140Y-72811660D02*
X108798140Y-72471660D01*
G75*
G02*
X108938140Y-72331660I140000J0D01*
G01*
X109218140Y-72331660D01*
G75*
G02*
X109358140Y-72471660I0J-140000D01*
G01*
X109358140Y-72811660D01*
G75*
G02*
X109218140Y-72951660I-140000J0D01*
G01*
X108938140Y-72951660D01*
G75*
G02*
X108798140Y-72811660I0J140000D01*
G01*
G37*
G04 #@! TD.AperFunction*
G04 #@! TA.AperFunction,SMDPad,CuDef*
G36*
G01*
X108640600Y-65484000D02*
X108640600Y-65984000D01*
G75*
G02*
X108415600Y-66209000I-225000J0D01*
G01*
X107965600Y-66209000D01*
G75*
G02*
X107740600Y-65984000I0J225000D01*
G01*
X107740600Y-65484000D01*
G75*
G02*
X107965600Y-65259000I225000J0D01*
G01*
X108415600Y-65259000D01*
G75*
G02*
X108640600Y-65484000I0J-225000D01*
G01*
G37*
G04 #@! TD.AperFunction*
G04 #@! TA.AperFunction,SMDPad,CuDef*
G36*
G01*
X110190600Y-65484000D02*
X110190600Y-65984000D01*
G75*
G02*
X109965600Y-66209000I-225000J0D01*
G01*
X109515600Y-66209000D01*
G75*
G02*
X109290600Y-65984000I0J225000D01*
G01*
X109290600Y-65484000D01*
G75*
G02*
X109515600Y-65259000I225000J0D01*
G01*
X109965600Y-65259000D01*
G75*
G02*
X110190600Y-65484000I0J-225000D01*
G01*
G37*
G04 #@! TD.AperFunction*
G04 #@! TA.AperFunction,SMDPad,CuDef*
G36*
G01*
X110186000Y-79257600D02*
X110556000Y-79257600D01*
G75*
G02*
X110691000Y-79392600I0J-135000D01*
G01*
X110691000Y-79662600D01*
G75*
G02*
X110556000Y-79797600I-135000J0D01*
G01*
X110186000Y-79797600D01*
G75*
G02*
X110051000Y-79662600I0J135000D01*
G01*
X110051000Y-79392600D01*
G75*
G02*
X110186000Y-79257600I135000J0D01*
G01*
G37*
G04 #@! TD.AperFunction*
G04 #@! TA.AperFunction,SMDPad,CuDef*
G36*
G01*
X110186000Y-78237600D02*
X110556000Y-78237600D01*
G75*
G02*
X110691000Y-78372600I0J-135000D01*
G01*
X110691000Y-78642600D01*
G75*
G02*
X110556000Y-78777600I-135000J0D01*
G01*
X110186000Y-78777600D01*
G75*
G02*
X110051000Y-78642600I0J135000D01*
G01*
X110051000Y-78372600D01*
G75*
G02*
X110186000Y-78237600I135000J0D01*
G01*
G37*
G04 #@! TD.AperFunction*
G04 #@! TA.AperFunction,SMDPad,CuDef*
G36*
G01*
X110096000Y-76447400D02*
X110646000Y-76447400D01*
G75*
G02*
X110846000Y-76647400I0J-200000D01*
G01*
X110846000Y-77047400D01*
G75*
G02*
X110646000Y-77247400I-200000J0D01*
G01*
X110096000Y-77247400D01*
G75*
G02*
X109896000Y-77047400I0J200000D01*
G01*
X109896000Y-76647400D01*
G75*
G02*
X110096000Y-76447400I200000J0D01*
G01*
G37*
G04 #@! TD.AperFunction*
G04 #@! TA.AperFunction,SMDPad,CuDef*
G36*
G01*
X110096000Y-74797400D02*
X110646000Y-74797400D01*
G75*
G02*
X110846000Y-74997400I0J-200000D01*
G01*
X110846000Y-75397400D01*
G75*
G02*
X110646000Y-75597400I-200000J0D01*
G01*
X110096000Y-75597400D01*
G75*
G02*
X109896000Y-75397400I0J200000D01*
G01*
X109896000Y-74997400D01*
G75*
G02*
X110096000Y-74797400I200000J0D01*
G01*
G37*
G04 #@! TD.AperFunction*
G04 #@! TA.AperFunction,SMDPad,CuDef*
G36*
G01*
X100122000Y-75423600D02*
X98522000Y-75423600D01*
G75*
G02*
X98322000Y-75223600I0J200000D01*
G01*
X98322000Y-74823600D01*
G75*
G02*
X98522000Y-74623600I200000J0D01*
G01*
X100122000Y-74623600D01*
G75*
G02*
X100322000Y-74823600I0J-200000D01*
G01*
X100322000Y-75223600D01*
G75*
G02*
X100122000Y-75423600I-200000J0D01*
G01*
G37*
G04 #@! TD.AperFunction*
G04 #@! TA.AperFunction,SMDPad,CuDef*
G36*
G01*
X100122000Y-71223600D02*
X98522000Y-71223600D01*
G75*
G02*
X98322000Y-71023600I0J200000D01*
G01*
X98322000Y-70623600D01*
G75*
G02*
X98522000Y-70423600I200000J0D01*
G01*
X100122000Y-70423600D01*
G75*
G02*
X100322000Y-70623600I0J-200000D01*
G01*
X100322000Y-71023600D01*
G75*
G02*
X100122000Y-71223600I-200000J0D01*
G01*
G37*
G04 #@! TD.AperFunction*
G04 #@! TA.AperFunction,SMDPad,CuDef*
G36*
G01*
X99890780Y-76467560D02*
X99550780Y-76467560D01*
G75*
G02*
X99410780Y-76327560I0J140000D01*
G01*
X99410780Y-76047560D01*
G75*
G02*
X99550780Y-75907560I140000J0D01*
G01*
X99890780Y-75907560D01*
G75*
G02*
X100030780Y-76047560I0J-140000D01*
G01*
X100030780Y-76327560D01*
G75*
G02*
X99890780Y-76467560I-140000J0D01*
G01*
G37*
G04 #@! TD.AperFunction*
G04 #@! TA.AperFunction,SMDPad,CuDef*
G36*
G01*
X99890780Y-77427560D02*
X99550780Y-77427560D01*
G75*
G02*
X99410780Y-77287560I0J140000D01*
G01*
X99410780Y-77007560D01*
G75*
G02*
X99550780Y-76867560I140000J0D01*
G01*
X99890780Y-76867560D01*
G75*
G02*
X100030780Y-77007560I0J-140000D01*
G01*
X100030780Y-77287560D01*
G75*
G02*
X99890780Y-77427560I-140000J0D01*
G01*
G37*
G04 #@! TD.AperFunction*
G04 #@! TA.AperFunction,SMDPad,CuDef*
G36*
G01*
X108007560Y-67303000D02*
X108007560Y-67673000D01*
G75*
G02*
X107872560Y-67808000I-135000J0D01*
G01*
X107602560Y-67808000D01*
G75*
G02*
X107467560Y-67673000I0J135000D01*
G01*
X107467560Y-67303000D01*
G75*
G02*
X107602560Y-67168000I135000J0D01*
G01*
X107872560Y-67168000D01*
G75*
G02*
X108007560Y-67303000I0J-135000D01*
G01*
G37*
G04 #@! TD.AperFunction*
G04 #@! TA.AperFunction,SMDPad,CuDef*
G36*
G01*
X109027560Y-67303000D02*
X109027560Y-67673000D01*
G75*
G02*
X108892560Y-67808000I-135000J0D01*
G01*
X108622560Y-67808000D01*
G75*
G02*
X108487560Y-67673000I0J135000D01*
G01*
X108487560Y-67303000D01*
G75*
G02*
X108622560Y-67168000I135000J0D01*
G01*
X108892560Y-67168000D01*
G75*
G02*
X109027560Y-67303000I0J-135000D01*
G01*
G37*
G04 #@! TD.AperFunction*
G04 #@! TA.AperFunction,SMDPad,CuDef*
G36*
G01*
X109793750Y-71000000D02*
X110556250Y-71000000D01*
G75*
G02*
X110775000Y-71218750I0J-218750D01*
G01*
X110775000Y-71656250D01*
G75*
G02*
X110556250Y-71875000I-218750J0D01*
G01*
X109793750Y-71875000D01*
G75*
G02*
X109575000Y-71656250I0J218750D01*
G01*
X109575000Y-71218750D01*
G75*
G02*
X109793750Y-71000000I218750J0D01*
G01*
G37*
G04 #@! TD.AperFunction*
G04 #@! TA.AperFunction,SMDPad,CuDef*
G36*
G01*
X109793750Y-68875000D02*
X110556250Y-68875000D01*
G75*
G02*
X110775000Y-69093750I0J-218750D01*
G01*
X110775000Y-69531250D01*
G75*
G02*
X110556250Y-69750000I-218750J0D01*
G01*
X109793750Y-69750000D01*
G75*
G02*
X109575000Y-69531250I0J218750D01*
G01*
X109575000Y-69093750D01*
G75*
G02*
X109793750Y-68875000I218750J0D01*
G01*
G37*
G04 #@! TD.AperFunction*
D11*
X107300000Y-71125000D03*
X106725000Y-70175000D03*
X107875000Y-70175000D03*
X107300000Y-69225000D03*
G04 #@! TA.AperFunction,SMDPad,CuDef*
D12*
G36*
X107425000Y-71375000D02*
G01*
X107175000Y-71375000D01*
X107175000Y-71875000D01*
X106925000Y-71875000D01*
X106925000Y-71375000D01*
X106475000Y-71375000D01*
X106475000Y-68975000D01*
X106925000Y-68975000D01*
X106925000Y-68475000D01*
X107175000Y-68475000D01*
X107175000Y-68975000D01*
X107425000Y-68975000D01*
X107425000Y-68475000D01*
X107675000Y-68475000D01*
X107675000Y-68975000D01*
X108125000Y-68975000D01*
X108125000Y-71375000D01*
X107675000Y-71375000D01*
X107675000Y-71875000D01*
X107425000Y-71875000D01*
X107425000Y-71375000D01*
G37*
G04 #@! TD.AperFunction*
D13*
X105900000Y-71175000D03*
X105900000Y-70675000D03*
X105900000Y-70175000D03*
X105900000Y-69675000D03*
X105900000Y-69175000D03*
X108700000Y-69175000D03*
X108700000Y-69675000D03*
X108700000Y-70175000D03*
X108700000Y-70675000D03*
X108700000Y-71175000D03*
G04 #@! TA.AperFunction,SMDPad,CuDef*
G36*
G01*
X104155800Y-71193200D02*
X104495800Y-71193200D01*
G75*
G02*
X104635800Y-71333200I0J-140000D01*
G01*
X104635800Y-71613200D01*
G75*
G02*
X104495800Y-71753200I-140000J0D01*
G01*
X104155800Y-71753200D01*
G75*
G02*
X104015800Y-71613200I0J140000D01*
G01*
X104015800Y-71333200D01*
G75*
G02*
X104155800Y-71193200I140000J0D01*
G01*
G37*
G04 #@! TD.AperFunction*
G04 #@! TA.AperFunction,SMDPad,CuDef*
G36*
G01*
X104155800Y-70233200D02*
X104495800Y-70233200D01*
G75*
G02*
X104635800Y-70373200I0J-140000D01*
G01*
X104635800Y-70653200D01*
G75*
G02*
X104495800Y-70793200I-140000J0D01*
G01*
X104155800Y-70793200D01*
G75*
G02*
X104015800Y-70653200I0J140000D01*
G01*
X104015800Y-70373200D01*
G75*
G02*
X104155800Y-70233200I140000J0D01*
G01*
G37*
G04 #@! TD.AperFunction*
G04 #@! TA.AperFunction,SMDPad,CuDef*
G36*
G01*
X107011240Y-73129520D02*
X107011240Y-73469520D01*
G75*
G02*
X106871240Y-73609520I-140000J0D01*
G01*
X106591240Y-73609520D01*
G75*
G02*
X106451240Y-73469520I0J140000D01*
G01*
X106451240Y-73129520D01*
G75*
G02*
X106591240Y-72989520I140000J0D01*
G01*
X106871240Y-72989520D01*
G75*
G02*
X107011240Y-73129520I0J-140000D01*
G01*
G37*
G04 #@! TD.AperFunction*
G04 #@! TA.AperFunction,SMDPad,CuDef*
G36*
G01*
X107971240Y-73129520D02*
X107971240Y-73469520D01*
G75*
G02*
X107831240Y-73609520I-140000J0D01*
G01*
X107551240Y-73609520D01*
G75*
G02*
X107411240Y-73469520I0J140000D01*
G01*
X107411240Y-73129520D01*
G75*
G02*
X107551240Y-72989520I140000J0D01*
G01*
X107831240Y-72989520D01*
G75*
G02*
X107971240Y-73129520I0J-140000D01*
G01*
G37*
G04 #@! TD.AperFunction*
G04 #@! TA.AperFunction,SMDPad,CuDef*
G36*
G01*
X105164760Y-78663960D02*
X105504760Y-78663960D01*
G75*
G02*
X105644760Y-78803960I0J-140000D01*
G01*
X105644760Y-79083960D01*
G75*
G02*
X105504760Y-79223960I-140000J0D01*
G01*
X105164760Y-79223960D01*
G75*
G02*
X105024760Y-79083960I0J140000D01*
G01*
X105024760Y-78803960D01*
G75*
G02*
X105164760Y-78663960I140000J0D01*
G01*
G37*
G04 #@! TD.AperFunction*
G04 #@! TA.AperFunction,SMDPad,CuDef*
G36*
G01*
X105164760Y-77703960D02*
X105504760Y-77703960D01*
G75*
G02*
X105644760Y-77843960I0J-140000D01*
G01*
X105644760Y-78123960D01*
G75*
G02*
X105504760Y-78263960I-140000J0D01*
G01*
X105164760Y-78263960D01*
G75*
G02*
X105024760Y-78123960I0J140000D01*
G01*
X105024760Y-77843960D01*
G75*
G02*
X105164760Y-77703960I140000J0D01*
G01*
G37*
G04 #@! TD.AperFunction*
G04 #@! TA.AperFunction,SMDPad,CuDef*
G36*
G01*
X104373880Y-81100400D02*
X104033880Y-81100400D01*
G75*
G02*
X103893880Y-80960400I0J140000D01*
G01*
X103893880Y-80680400D01*
G75*
G02*
X104033880Y-80540400I140000J0D01*
G01*
X104373880Y-80540400D01*
G75*
G02*
X104513880Y-80680400I0J-140000D01*
G01*
X104513880Y-80960400D01*
G75*
G02*
X104373880Y-81100400I-140000J0D01*
G01*
G37*
G04 #@! TD.AperFunction*
G04 #@! TA.AperFunction,SMDPad,CuDef*
G36*
G01*
X104373880Y-80140400D02*
X104033880Y-80140400D01*
G75*
G02*
X103893880Y-80000400I0J140000D01*
G01*
X103893880Y-79720400D01*
G75*
G02*
X104033880Y-79580400I140000J0D01*
G01*
X104373880Y-79580400D01*
G75*
G02*
X104513880Y-79720400I0J-140000D01*
G01*
X104513880Y-80000400D01*
G75*
G02*
X104373880Y-80140400I-140000J0D01*
G01*
G37*
G04 #@! TD.AperFunction*
G04 #@! TA.AperFunction,SMDPad,CuDef*
G36*
G01*
X105902960Y-80716980D02*
X105562960Y-80716980D01*
G75*
G02*
X105422960Y-80576980I0J140000D01*
G01*
X105422960Y-80296980D01*
G75*
G02*
X105562960Y-80156980I140000J0D01*
G01*
X105902960Y-80156980D01*
G75*
G02*
X106042960Y-80296980I0J-140000D01*
G01*
X106042960Y-80576980D01*
G75*
G02*
X105902960Y-80716980I-140000J0D01*
G01*
G37*
G04 #@! TD.AperFunction*
G04 #@! TA.AperFunction,SMDPad,CuDef*
G36*
G01*
X105902960Y-81676980D02*
X105562960Y-81676980D01*
G75*
G02*
X105422960Y-81536980I0J140000D01*
G01*
X105422960Y-81256980D01*
G75*
G02*
X105562960Y-81116980I140000J0D01*
G01*
X105902960Y-81116980D01*
G75*
G02*
X106042960Y-81256980I0J-140000D01*
G01*
X106042960Y-81536980D01*
G75*
G02*
X105902960Y-81676980I-140000J0D01*
G01*
G37*
G04 #@! TD.AperFunction*
G04 #@! TA.AperFunction,SMDPad,CuDef*
G36*
G01*
X103375660Y-80140400D02*
X103035660Y-80140400D01*
G75*
G02*
X102895660Y-80000400I0J140000D01*
G01*
X102895660Y-79720400D01*
G75*
G02*
X103035660Y-79580400I140000J0D01*
G01*
X103375660Y-79580400D01*
G75*
G02*
X103515660Y-79720400I0J-140000D01*
G01*
X103515660Y-80000400D01*
G75*
G02*
X103375660Y-80140400I-140000J0D01*
G01*
G37*
G04 #@! TD.AperFunction*
G04 #@! TA.AperFunction,SMDPad,CuDef*
G36*
G01*
X103375660Y-81100400D02*
X103035660Y-81100400D01*
G75*
G02*
X102895660Y-80960400I0J140000D01*
G01*
X102895660Y-80680400D01*
G75*
G02*
X103035660Y-80540400I140000J0D01*
G01*
X103375660Y-80540400D01*
G75*
G02*
X103515660Y-80680400I0J-140000D01*
G01*
X103515660Y-80960400D01*
G75*
G02*
X103375660Y-81100400I-140000J0D01*
G01*
G37*
G04 #@! TD.AperFunction*
D14*
X112550000Y-106985000D03*
X112550000Y-104445000D03*
D15*
X112550000Y-101905000D03*
D14*
X112550000Y-99365000D03*
X112550000Y-96825000D03*
X112550000Y-94285000D03*
X112550000Y-91745000D03*
D15*
X112550000Y-89205000D03*
D14*
X112550000Y-86665000D03*
X112550000Y-84125000D03*
X112550000Y-81585000D03*
X112550000Y-79045000D03*
D15*
X112550000Y-76505000D03*
D14*
X112550000Y-73965000D03*
X112550000Y-71425000D03*
X112550000Y-68885000D03*
X112550000Y-66345000D03*
D15*
X112550000Y-63805000D03*
D14*
X112550000Y-61265000D03*
D15*
X112550000Y-58725000D03*
D16*
X114250000Y-99365000D03*
X114250000Y-101905000D03*
X114250000Y-96825000D03*
X114250000Y-104445000D03*
X114250000Y-94285000D03*
X114250000Y-106985000D03*
X114250000Y-86665000D03*
X114250000Y-91745000D03*
X114250000Y-84125000D03*
X114250000Y-73965000D03*
X114250000Y-71425000D03*
X114250000Y-68885000D03*
X114250000Y-61265000D03*
X114250000Y-89205000D03*
X114250000Y-76505000D03*
X114250000Y-63805000D03*
X114250000Y-58725000D03*
X114250000Y-79045000D03*
X114250000Y-66345000D03*
X114250000Y-81585000D03*
D14*
X94750000Y-58725000D03*
X94750000Y-61265000D03*
D15*
X94750000Y-63805000D03*
D14*
X94750000Y-66345000D03*
X94750000Y-68885000D03*
X94750000Y-71425000D03*
X94750000Y-73965000D03*
D15*
X94750000Y-76505000D03*
D14*
X94750000Y-79045000D03*
X94750000Y-81585000D03*
X94750000Y-84125000D03*
X94750000Y-86665000D03*
D15*
X94750000Y-89205000D03*
D14*
X94750000Y-91745000D03*
X94750000Y-94285000D03*
X94750000Y-96825000D03*
X94750000Y-99365000D03*
D15*
X94750000Y-101905000D03*
D14*
X94750000Y-104445000D03*
D17*
X94750000Y-106985000D03*
D16*
X93050000Y-104445000D03*
X93050000Y-73965000D03*
X93050000Y-99365000D03*
X93050000Y-94285000D03*
X93050000Y-89205000D03*
X93050000Y-86665000D03*
X93050000Y-71425000D03*
X93060000Y-79045000D03*
X93050000Y-68885000D03*
X93050000Y-61255000D03*
X93050000Y-66335000D03*
X93040000Y-91745000D03*
X93050000Y-96825000D03*
X93050000Y-81585000D03*
X93050000Y-76505000D03*
X93050000Y-106985000D03*
X93050000Y-84125000D03*
X93050000Y-63805000D03*
X93050000Y-101905000D03*
X93050000Y-58725000D03*
D18*
X100375000Y-64620000D03*
X106825000Y-64620000D03*
X101150000Y-64620000D03*
X106050000Y-64620000D03*
D19*
X105350000Y-64620000D03*
X101850000Y-64620000D03*
X104850000Y-64620000D03*
X102350000Y-64620000D03*
X104350000Y-64620000D03*
X102850000Y-64620000D03*
X103350000Y-64620000D03*
X103850000Y-64620000D03*
D20*
X107920000Y-63705000D03*
X99280000Y-63705000D03*
D21*
X107920000Y-59525000D03*
X99280000Y-59525000D03*
G04 #@! TA.AperFunction,SMDPad,CuDef*
G36*
G01*
X105247400Y-66359000D02*
X104877400Y-66359000D01*
G75*
G02*
X104742400Y-66224000I0J135000D01*
G01*
X104742400Y-65954000D01*
G75*
G02*
X104877400Y-65819000I135000J0D01*
G01*
X105247400Y-65819000D01*
G75*
G02*
X105382400Y-65954000I0J-135000D01*
G01*
X105382400Y-66224000D01*
G75*
G02*
X105247400Y-66359000I-135000J0D01*
G01*
G37*
G04 #@! TD.AperFunction*
G04 #@! TA.AperFunction,SMDPad,CuDef*
G36*
G01*
X105247400Y-67379000D02*
X104877400Y-67379000D01*
G75*
G02*
X104742400Y-67244000I0J135000D01*
G01*
X104742400Y-66974000D01*
G75*
G02*
X104877400Y-66839000I135000J0D01*
G01*
X105247400Y-66839000D01*
G75*
G02*
X105382400Y-66974000I0J-135000D01*
G01*
X105382400Y-67244000D01*
G75*
G02*
X105247400Y-67379000I-135000J0D01*
G01*
G37*
G04 #@! TD.AperFunction*
D22*
X103419200Y-97421800D03*
X101219200Y-97421800D03*
X101219200Y-95821800D03*
X103419200Y-95821800D03*
G04 #@! TA.AperFunction,SMDPad,CuDef*
G36*
G01*
X97638640Y-87084280D02*
X97638640Y-87424280D01*
G75*
G02*
X97498640Y-87564280I-140000J0D01*
G01*
X97218640Y-87564280D01*
G75*
G02*
X97078640Y-87424280I0J140000D01*
G01*
X97078640Y-87084280D01*
G75*
G02*
X97218640Y-86944280I140000J0D01*
G01*
X97498640Y-86944280D01*
G75*
G02*
X97638640Y-87084280I0J-140000D01*
G01*
G37*
G04 #@! TD.AperFunction*
G04 #@! TA.AperFunction,SMDPad,CuDef*
G36*
G01*
X98598640Y-87084280D02*
X98598640Y-87424280D01*
G75*
G02*
X98458640Y-87564280I-140000J0D01*
G01*
X98178640Y-87564280D01*
G75*
G02*
X98038640Y-87424280I0J140000D01*
G01*
X98038640Y-87084280D01*
G75*
G02*
X98178640Y-86944280I140000J0D01*
G01*
X98458640Y-86944280D01*
G75*
G02*
X98598640Y-87084280I0J-140000D01*
G01*
G37*
G04 #@! TD.AperFunction*
G04 #@! TA.AperFunction,SMDPad,CuDef*
G36*
G01*
X103554300Y-94229300D02*
X103554300Y-94569300D01*
G75*
G02*
X103414300Y-94709300I-140000J0D01*
G01*
X103134300Y-94709300D01*
G75*
G02*
X102994300Y-94569300I0J140000D01*
G01*
X102994300Y-94229300D01*
G75*
G02*
X103134300Y-94089300I140000J0D01*
G01*
X103414300Y-94089300D01*
G75*
G02*
X103554300Y-94229300I0J-140000D01*
G01*
G37*
G04 #@! TD.AperFunction*
G04 #@! TA.AperFunction,SMDPad,CuDef*
G36*
G01*
X104514300Y-94229300D02*
X104514300Y-94569300D01*
G75*
G02*
X104374300Y-94709300I-140000J0D01*
G01*
X104094300Y-94709300D01*
G75*
G02*
X103954300Y-94569300I0J140000D01*
G01*
X103954300Y-94229300D01*
G75*
G02*
X104094300Y-94089300I140000J0D01*
G01*
X104374300Y-94089300D01*
G75*
G02*
X104514300Y-94229300I0J-140000D01*
G01*
G37*
G04 #@! TD.AperFunction*
G04 #@! TA.AperFunction,SMDPad,CuDef*
G36*
G01*
X106896100Y-80714440D02*
X106556100Y-80714440D01*
G75*
G02*
X106416100Y-80574440I0J140000D01*
G01*
X106416100Y-80294440D01*
G75*
G02*
X106556100Y-80154440I140000J0D01*
G01*
X106896100Y-80154440D01*
G75*
G02*
X107036100Y-80294440I0J-140000D01*
G01*
X107036100Y-80574440D01*
G75*
G02*
X106896100Y-80714440I-140000J0D01*
G01*
G37*
G04 #@! TD.AperFunction*
G04 #@! TA.AperFunction,SMDPad,CuDef*
G36*
G01*
X106896100Y-81674440D02*
X106556100Y-81674440D01*
G75*
G02*
X106416100Y-81534440I0J140000D01*
G01*
X106416100Y-81254440D01*
G75*
G02*
X106556100Y-81114440I140000J0D01*
G01*
X106896100Y-81114440D01*
G75*
G02*
X107036100Y-81254440I0J-140000D01*
G01*
X107036100Y-81534440D01*
G75*
G02*
X106896100Y-81674440I-140000J0D01*
G01*
G37*
G04 #@! TD.AperFunction*
G04 #@! TA.AperFunction,SMDPad,CuDef*
G36*
G01*
X103165200Y-91767200D02*
X103505200Y-91767200D01*
G75*
G02*
X103645200Y-91907200I0J-140000D01*
G01*
X103645200Y-92187200D01*
G75*
G02*
X103505200Y-92327200I-140000J0D01*
G01*
X103165200Y-92327200D01*
G75*
G02*
X103025200Y-92187200I0J140000D01*
G01*
X103025200Y-91907200D01*
G75*
G02*
X103165200Y-91767200I140000J0D01*
G01*
G37*
G04 #@! TD.AperFunction*
G04 #@! TA.AperFunction,SMDPad,CuDef*
G36*
G01*
X103165200Y-90807200D02*
X103505200Y-90807200D01*
G75*
G02*
X103645200Y-90947200I0J-140000D01*
G01*
X103645200Y-91227200D01*
G75*
G02*
X103505200Y-91367200I-140000J0D01*
G01*
X103165200Y-91367200D01*
G75*
G02*
X103025200Y-91227200I0J140000D01*
G01*
X103025200Y-90947200D01*
G75*
G02*
X103165200Y-90807200I140000J0D01*
G01*
G37*
G04 #@! TD.AperFunction*
G04 #@! TA.AperFunction,SMDPad,CuDef*
G36*
G01*
X110334840Y-87195680D02*
X110334840Y-86855680D01*
G75*
G02*
X110474840Y-86715680I140000J0D01*
G01*
X110754840Y-86715680D01*
G75*
G02*
X110894840Y-86855680I0J-140000D01*
G01*
X110894840Y-87195680D01*
G75*
G02*
X110754840Y-87335680I-140000J0D01*
G01*
X110474840Y-87335680D01*
G75*
G02*
X110334840Y-87195680I0J140000D01*
G01*
G37*
G04 #@! TD.AperFunction*
G04 #@! TA.AperFunction,SMDPad,CuDef*
G36*
G01*
X109374840Y-87195680D02*
X109374840Y-86855680D01*
G75*
G02*
X109514840Y-86715680I140000J0D01*
G01*
X109794840Y-86715680D01*
G75*
G02*
X109934840Y-86855680I0J-140000D01*
G01*
X109934840Y-87195680D01*
G75*
G02*
X109794840Y-87335680I-140000J0D01*
G01*
X109514840Y-87335680D01*
G75*
G02*
X109374840Y-87195680I0J140000D01*
G01*
G37*
G04 #@! TD.AperFunction*
G04 #@! TA.AperFunction,SMDPad,CuDef*
G36*
G01*
X104214760Y-78663960D02*
X104554760Y-78663960D01*
G75*
G02*
X104694760Y-78803960I0J-140000D01*
G01*
X104694760Y-79083960D01*
G75*
G02*
X104554760Y-79223960I-140000J0D01*
G01*
X104214760Y-79223960D01*
G75*
G02*
X104074760Y-79083960I0J140000D01*
G01*
X104074760Y-78803960D01*
G75*
G02*
X104214760Y-78663960I140000J0D01*
G01*
G37*
G04 #@! TD.AperFunction*
G04 #@! TA.AperFunction,SMDPad,CuDef*
G36*
G01*
X104214760Y-77703960D02*
X104554760Y-77703960D01*
G75*
G02*
X104694760Y-77843960I0J-140000D01*
G01*
X104694760Y-78123960D01*
G75*
G02*
X104554760Y-78263960I-140000J0D01*
G01*
X104214760Y-78263960D01*
G75*
G02*
X104074760Y-78123960I0J140000D01*
G01*
X104074760Y-77843960D01*
G75*
G02*
X104214760Y-77703960I140000J0D01*
G01*
G37*
G04 #@! TD.AperFunction*
G04 #@! TA.AperFunction,SMDPad,CuDef*
G36*
G01*
X98857000Y-76470100D02*
X98517000Y-76470100D01*
G75*
G02*
X98377000Y-76330100I0J140000D01*
G01*
X98377000Y-76050100D01*
G75*
G02*
X98517000Y-75910100I140000J0D01*
G01*
X98857000Y-75910100D01*
G75*
G02*
X98997000Y-76050100I0J-140000D01*
G01*
X98997000Y-76330100D01*
G75*
G02*
X98857000Y-76470100I-140000J0D01*
G01*
G37*
G04 #@! TD.AperFunction*
G04 #@! TA.AperFunction,SMDPad,CuDef*
G36*
G01*
X98857000Y-77430100D02*
X98517000Y-77430100D01*
G75*
G02*
X98377000Y-77290100I0J140000D01*
G01*
X98377000Y-77010100D01*
G75*
G02*
X98517000Y-76870100I140000J0D01*
G01*
X98857000Y-76870100D01*
G75*
G02*
X98997000Y-77010100I0J-140000D01*
G01*
X98997000Y-77290100D01*
G75*
G02*
X98857000Y-77430100I-140000J0D01*
G01*
G37*
G04 #@! TD.AperFunction*
G04 #@! TA.AperFunction,SMDPad,CuDef*
G36*
G01*
X98400000Y-82480000D02*
X98400000Y-82820000D01*
G75*
G02*
X98260000Y-82960000I-140000J0D01*
G01*
X97980000Y-82960000D01*
G75*
G02*
X97840000Y-82820000I0J140000D01*
G01*
X97840000Y-82480000D01*
G75*
G02*
X97980000Y-82340000I140000J0D01*
G01*
X98260000Y-82340000D01*
G75*
G02*
X98400000Y-82480000I0J-140000D01*
G01*
G37*
G04 #@! TD.AperFunction*
G04 #@! TA.AperFunction,SMDPad,CuDef*
G36*
G01*
X99360000Y-82480000D02*
X99360000Y-82820000D01*
G75*
G02*
X99220000Y-82960000I-140000J0D01*
G01*
X98940000Y-82960000D01*
G75*
G02*
X98800000Y-82820000I0J140000D01*
G01*
X98800000Y-82480000D01*
G75*
G02*
X98940000Y-82340000I140000J0D01*
G01*
X99220000Y-82340000D01*
G75*
G02*
X99360000Y-82480000I0J-140000D01*
G01*
G37*
G04 #@! TD.AperFunction*
G04 #@! TA.AperFunction,SMDPad,CuDef*
G36*
G01*
X104830000Y-92375000D02*
X105170000Y-92375000D01*
G75*
G02*
X105310000Y-92515000I0J-140000D01*
G01*
X105310000Y-92795000D01*
G75*
G02*
X105170000Y-92935000I-140000J0D01*
G01*
X104830000Y-92935000D01*
G75*
G02*
X104690000Y-92795000I0J140000D01*
G01*
X104690000Y-92515000D01*
G75*
G02*
X104830000Y-92375000I140000J0D01*
G01*
G37*
G04 #@! TD.AperFunction*
G04 #@! TA.AperFunction,SMDPad,CuDef*
G36*
G01*
X104830000Y-91415000D02*
X105170000Y-91415000D01*
G75*
G02*
X105310000Y-91555000I0J-140000D01*
G01*
X105310000Y-91835000D01*
G75*
G02*
X105170000Y-91975000I-140000J0D01*
G01*
X104830000Y-91975000D01*
G75*
G02*
X104690000Y-91835000I0J140000D01*
G01*
X104690000Y-91555000D01*
G75*
G02*
X104830000Y-91415000I140000J0D01*
G01*
G37*
G04 #@! TD.AperFunction*
G04 #@! TA.AperFunction,SMDPad,CuDef*
G36*
G01*
X100935560Y-94216600D02*
X100935560Y-94556600D01*
G75*
G02*
X100795560Y-94696600I-140000J0D01*
G01*
X100515560Y-94696600D01*
G75*
G02*
X100375560Y-94556600I0J140000D01*
G01*
X100375560Y-94216600D01*
G75*
G02*
X100515560Y-94076600I140000J0D01*
G01*
X100795560Y-94076600D01*
G75*
G02*
X100935560Y-94216600I0J-140000D01*
G01*
G37*
G04 #@! TD.AperFunction*
G04 #@! TA.AperFunction,SMDPad,CuDef*
G36*
G01*
X101895560Y-94216600D02*
X101895560Y-94556600D01*
G75*
G02*
X101755560Y-94696600I-140000J0D01*
G01*
X101475560Y-94696600D01*
G75*
G02*
X101335560Y-94556600I0J140000D01*
G01*
X101335560Y-94216600D01*
G75*
G02*
X101475560Y-94076600I140000J0D01*
G01*
X101755560Y-94076600D01*
G75*
G02*
X101895560Y-94216600I0J-140000D01*
G01*
G37*
G04 #@! TD.AperFunction*
G04 #@! TA.AperFunction,SMDPad,CuDef*
G36*
G01*
X108942280Y-85245560D02*
X108942280Y-85615560D01*
G75*
G02*
X108807280Y-85750560I-135000J0D01*
G01*
X108537280Y-85750560D01*
G75*
G02*
X108402280Y-85615560I0J135000D01*
G01*
X108402280Y-85245560D01*
G75*
G02*
X108537280Y-85110560I135000J0D01*
G01*
X108807280Y-85110560D01*
G75*
G02*
X108942280Y-85245560I0J-135000D01*
G01*
G37*
G04 #@! TD.AperFunction*
G04 #@! TA.AperFunction,SMDPad,CuDef*
G36*
G01*
X109962280Y-85245560D02*
X109962280Y-85615560D01*
G75*
G02*
X109827280Y-85750560I-135000J0D01*
G01*
X109557280Y-85750560D01*
G75*
G02*
X109422280Y-85615560I0J135000D01*
G01*
X109422280Y-85245560D01*
G75*
G02*
X109557280Y-85110560I135000J0D01*
G01*
X109827280Y-85110560D01*
G75*
G02*
X109962280Y-85245560I0J-135000D01*
G01*
G37*
G04 #@! TD.AperFunction*
G04 #@! TA.AperFunction,SMDPad,CuDef*
G36*
G01*
X110482980Y-85463080D02*
X110827980Y-85463080D01*
G75*
G02*
X110975480Y-85610580I0J-147500D01*
G01*
X110975480Y-85905580D01*
G75*
G02*
X110827980Y-86053080I-147500J0D01*
G01*
X110482980Y-86053080D01*
G75*
G02*
X110335480Y-85905580I0J147500D01*
G01*
X110335480Y-85610580D01*
G75*
G02*
X110482980Y-85463080I147500J0D01*
G01*
G37*
G04 #@! TD.AperFunction*
G04 #@! TA.AperFunction,SMDPad,CuDef*
G36*
G01*
X110482980Y-84493080D02*
X110827980Y-84493080D01*
G75*
G02*
X110975480Y-84640580I0J-147500D01*
G01*
X110975480Y-84935580D01*
G75*
G02*
X110827980Y-85083080I-147500J0D01*
G01*
X110482980Y-85083080D01*
G75*
G02*
X110335480Y-84935580I0J147500D01*
G01*
X110335480Y-84640580D01*
G75*
G02*
X110482980Y-84493080I147500J0D01*
G01*
G37*
G04 #@! TD.AperFunction*
G04 #@! TA.AperFunction,SMDPad,CuDef*
G36*
G01*
X100990000Y-82975000D02*
X100990000Y-82200000D01*
G75*
G02*
X101040000Y-82150000I50000J0D01*
G01*
X101140000Y-82150000D01*
G75*
G02*
X101190000Y-82200000I0J-50000D01*
G01*
X101190000Y-82975000D01*
G75*
G02*
X101140000Y-83025000I-50000J0D01*
G01*
X101040000Y-83025000D01*
G75*
G02*
X100990000Y-82975000I0J50000D01*
G01*
G37*
G04 #@! TD.AperFunction*
G04 #@! TA.AperFunction,SMDPad,CuDef*
G36*
G01*
X101390000Y-82975000D02*
X101390000Y-82200000D01*
G75*
G02*
X101440000Y-82150000I50000J0D01*
G01*
X101540000Y-82150000D01*
G75*
G02*
X101590000Y-82200000I0J-50000D01*
G01*
X101590000Y-82975000D01*
G75*
G02*
X101540000Y-83025000I-50000J0D01*
G01*
X101440000Y-83025000D01*
G75*
G02*
X101390000Y-82975000I0J50000D01*
G01*
G37*
G04 #@! TD.AperFunction*
G04 #@! TA.AperFunction,SMDPad,CuDef*
G36*
G01*
X101790000Y-82975000D02*
X101790000Y-82200000D01*
G75*
G02*
X101840000Y-82150000I50000J0D01*
G01*
X101940000Y-82150000D01*
G75*
G02*
X101990000Y-82200000I0J-50000D01*
G01*
X101990000Y-82975000D01*
G75*
G02*
X101940000Y-83025000I-50000J0D01*
G01*
X101840000Y-83025000D01*
G75*
G02*
X101790000Y-82975000I0J50000D01*
G01*
G37*
G04 #@! TD.AperFunction*
G04 #@! TA.AperFunction,SMDPad,CuDef*
G36*
G01*
X102190000Y-82975000D02*
X102190000Y-82200000D01*
G75*
G02*
X102240000Y-82150000I50000J0D01*
G01*
X102340000Y-82150000D01*
G75*
G02*
X102390000Y-82200000I0J-50000D01*
G01*
X102390000Y-82975000D01*
G75*
G02*
X102340000Y-83025000I-50000J0D01*
G01*
X102240000Y-83025000D01*
G75*
G02*
X102190000Y-82975000I0J50000D01*
G01*
G37*
G04 #@! TD.AperFunction*
G04 #@! TA.AperFunction,SMDPad,CuDef*
G36*
G01*
X102590000Y-82975000D02*
X102590000Y-82200000D01*
G75*
G02*
X102640000Y-82150000I50000J0D01*
G01*
X102740000Y-82150000D01*
G75*
G02*
X102790000Y-82200000I0J-50000D01*
G01*
X102790000Y-82975000D01*
G75*
G02*
X102740000Y-83025000I-50000J0D01*
G01*
X102640000Y-83025000D01*
G75*
G02*
X102590000Y-82975000I0J50000D01*
G01*
G37*
G04 #@! TD.AperFunction*
G04 #@! TA.AperFunction,SMDPad,CuDef*
G36*
G01*
X102990000Y-82975000D02*
X102990000Y-82200000D01*
G75*
G02*
X103040000Y-82150000I50000J0D01*
G01*
X103140000Y-82150000D01*
G75*
G02*
X103190000Y-82200000I0J-50000D01*
G01*
X103190000Y-82975000D01*
G75*
G02*
X103140000Y-83025000I-50000J0D01*
G01*
X103040000Y-83025000D01*
G75*
G02*
X102990000Y-82975000I0J50000D01*
G01*
G37*
G04 #@! TD.AperFunction*
G04 #@! TA.AperFunction,SMDPad,CuDef*
G36*
G01*
X103390000Y-82975000D02*
X103390000Y-82200000D01*
G75*
G02*
X103440000Y-82150000I50000J0D01*
G01*
X103540000Y-82150000D01*
G75*
G02*
X103590000Y-82200000I0J-50000D01*
G01*
X103590000Y-82975000D01*
G75*
G02*
X103540000Y-83025000I-50000J0D01*
G01*
X103440000Y-83025000D01*
G75*
G02*
X103390000Y-82975000I0J50000D01*
G01*
G37*
G04 #@! TD.AperFunction*
G04 #@! TA.AperFunction,SMDPad,CuDef*
G36*
G01*
X103790000Y-82975000D02*
X103790000Y-82200000D01*
G75*
G02*
X103840000Y-82150000I50000J0D01*
G01*
X103940000Y-82150000D01*
G75*
G02*
X103990000Y-82200000I0J-50000D01*
G01*
X103990000Y-82975000D01*
G75*
G02*
X103940000Y-83025000I-50000J0D01*
G01*
X103840000Y-83025000D01*
G75*
G02*
X103790000Y-82975000I0J50000D01*
G01*
G37*
G04 #@! TD.AperFunction*
G04 #@! TA.AperFunction,SMDPad,CuDef*
G36*
G01*
X104190000Y-82975000D02*
X104190000Y-82200000D01*
G75*
G02*
X104240000Y-82150000I50000J0D01*
G01*
X104340000Y-82150000D01*
G75*
G02*
X104390000Y-82200000I0J-50000D01*
G01*
X104390000Y-82975000D01*
G75*
G02*
X104340000Y-83025000I-50000J0D01*
G01*
X104240000Y-83025000D01*
G75*
G02*
X104190000Y-82975000I0J50000D01*
G01*
G37*
G04 #@! TD.AperFunction*
G04 #@! TA.AperFunction,SMDPad,CuDef*
G36*
G01*
X104590000Y-82975000D02*
X104590000Y-82200000D01*
G75*
G02*
X104640000Y-82150000I50000J0D01*
G01*
X104740000Y-82150000D01*
G75*
G02*
X104790000Y-82200000I0J-50000D01*
G01*
X104790000Y-82975000D01*
G75*
G02*
X104740000Y-83025000I-50000J0D01*
G01*
X104640000Y-83025000D01*
G75*
G02*
X104590000Y-82975000I0J50000D01*
G01*
G37*
G04 #@! TD.AperFunction*
G04 #@! TA.AperFunction,SMDPad,CuDef*
G36*
G01*
X104990000Y-82975000D02*
X104990000Y-82200000D01*
G75*
G02*
X105040000Y-82150000I50000J0D01*
G01*
X105140000Y-82150000D01*
G75*
G02*
X105190000Y-82200000I0J-50000D01*
G01*
X105190000Y-82975000D01*
G75*
G02*
X105140000Y-83025000I-50000J0D01*
G01*
X105040000Y-83025000D01*
G75*
G02*
X104990000Y-82975000I0J50000D01*
G01*
G37*
G04 #@! TD.AperFunction*
G04 #@! TA.AperFunction,SMDPad,CuDef*
G36*
G01*
X105390000Y-82975000D02*
X105390000Y-82200000D01*
G75*
G02*
X105440000Y-82150000I50000J0D01*
G01*
X105540000Y-82150000D01*
G75*
G02*
X105590000Y-82200000I0J-50000D01*
G01*
X105590000Y-82975000D01*
G75*
G02*
X105540000Y-83025000I-50000J0D01*
G01*
X105440000Y-83025000D01*
G75*
G02*
X105390000Y-82975000I0J50000D01*
G01*
G37*
G04 #@! TD.AperFunction*
G04 #@! TA.AperFunction,SMDPad,CuDef*
G36*
G01*
X105790000Y-82975000D02*
X105790000Y-82200000D01*
G75*
G02*
X105840000Y-82150000I50000J0D01*
G01*
X105940000Y-82150000D01*
G75*
G02*
X105990000Y-82200000I0J-50000D01*
G01*
X105990000Y-82975000D01*
G75*
G02*
X105940000Y-83025000I-50000J0D01*
G01*
X105840000Y-83025000D01*
G75*
G02*
X105790000Y-82975000I0J50000D01*
G01*
G37*
G04 #@! TD.AperFunction*
G04 #@! TA.AperFunction,SMDPad,CuDef*
G36*
G01*
X106190000Y-82975000D02*
X106190000Y-82200000D01*
G75*
G02*
X106240000Y-82150000I50000J0D01*
G01*
X106340000Y-82150000D01*
G75*
G02*
X106390000Y-82200000I0J-50000D01*
G01*
X106390000Y-82975000D01*
G75*
G02*
X106340000Y-83025000I-50000J0D01*
G01*
X106240000Y-83025000D01*
G75*
G02*
X106190000Y-82975000I0J50000D01*
G01*
G37*
G04 #@! TD.AperFunction*
G04 #@! TA.AperFunction,SMDPad,CuDef*
G36*
G01*
X106690000Y-83475000D02*
X106690000Y-83375000D01*
G75*
G02*
X106740000Y-83325000I50000J0D01*
G01*
X107515000Y-83325000D01*
G75*
G02*
X107565000Y-83375000I0J-50000D01*
G01*
X107565000Y-83475000D01*
G75*
G02*
X107515000Y-83525000I-50000J0D01*
G01*
X106740000Y-83525000D01*
G75*
G02*
X106690000Y-83475000I0J50000D01*
G01*
G37*
G04 #@! TD.AperFunction*
G04 #@! TA.AperFunction,SMDPad,CuDef*
G36*
G01*
X106690000Y-83875000D02*
X106690000Y-83775000D01*
G75*
G02*
X106740000Y-83725000I50000J0D01*
G01*
X107515000Y-83725000D01*
G75*
G02*
X107565000Y-83775000I0J-50000D01*
G01*
X107565000Y-83875000D01*
G75*
G02*
X107515000Y-83925000I-50000J0D01*
G01*
X106740000Y-83925000D01*
G75*
G02*
X106690000Y-83875000I0J50000D01*
G01*
G37*
G04 #@! TD.AperFunction*
G04 #@! TA.AperFunction,SMDPad,CuDef*
G36*
G01*
X106690000Y-84275000D02*
X106690000Y-84175000D01*
G75*
G02*
X106740000Y-84125000I50000J0D01*
G01*
X107515000Y-84125000D01*
G75*
G02*
X107565000Y-84175000I0J-50000D01*
G01*
X107565000Y-84275000D01*
G75*
G02*
X107515000Y-84325000I-50000J0D01*
G01*
X106740000Y-84325000D01*
G75*
G02*
X106690000Y-84275000I0J50000D01*
G01*
G37*
G04 #@! TD.AperFunction*
G04 #@! TA.AperFunction,SMDPad,CuDef*
G36*
G01*
X106690000Y-84675000D02*
X106690000Y-84575000D01*
G75*
G02*
X106740000Y-84525000I50000J0D01*
G01*
X107515000Y-84525000D01*
G75*
G02*
X107565000Y-84575000I0J-50000D01*
G01*
X107565000Y-84675000D01*
G75*
G02*
X107515000Y-84725000I-50000J0D01*
G01*
X106740000Y-84725000D01*
G75*
G02*
X106690000Y-84675000I0J50000D01*
G01*
G37*
G04 #@! TD.AperFunction*
G04 #@! TA.AperFunction,SMDPad,CuDef*
G36*
G01*
X106690000Y-85075000D02*
X106690000Y-84975000D01*
G75*
G02*
X106740000Y-84925000I50000J0D01*
G01*
X107515000Y-84925000D01*
G75*
G02*
X107565000Y-84975000I0J-50000D01*
G01*
X107565000Y-85075000D01*
G75*
G02*
X107515000Y-85125000I-50000J0D01*
G01*
X106740000Y-85125000D01*
G75*
G02*
X106690000Y-85075000I0J50000D01*
G01*
G37*
G04 #@! TD.AperFunction*
G04 #@! TA.AperFunction,SMDPad,CuDef*
G36*
G01*
X106690000Y-85475000D02*
X106690000Y-85375000D01*
G75*
G02*
X106740000Y-85325000I50000J0D01*
G01*
X107515000Y-85325000D01*
G75*
G02*
X107565000Y-85375000I0J-50000D01*
G01*
X107565000Y-85475000D01*
G75*
G02*
X107515000Y-85525000I-50000J0D01*
G01*
X106740000Y-85525000D01*
G75*
G02*
X106690000Y-85475000I0J50000D01*
G01*
G37*
G04 #@! TD.AperFunction*
G04 #@! TA.AperFunction,SMDPad,CuDef*
G36*
G01*
X106690000Y-85875000D02*
X106690000Y-85775000D01*
G75*
G02*
X106740000Y-85725000I50000J0D01*
G01*
X107515000Y-85725000D01*
G75*
G02*
X107565000Y-85775000I0J-50000D01*
G01*
X107565000Y-85875000D01*
G75*
G02*
X107515000Y-85925000I-50000J0D01*
G01*
X106740000Y-85925000D01*
G75*
G02*
X106690000Y-85875000I0J50000D01*
G01*
G37*
G04 #@! TD.AperFunction*
G04 #@! TA.AperFunction,SMDPad,CuDef*
G36*
G01*
X106690000Y-86275000D02*
X106690000Y-86175000D01*
G75*
G02*
X106740000Y-86125000I50000J0D01*
G01*
X107515000Y-86125000D01*
G75*
G02*
X107565000Y-86175000I0J-50000D01*
G01*
X107565000Y-86275000D01*
G75*
G02*
X107515000Y-86325000I-50000J0D01*
G01*
X106740000Y-86325000D01*
G75*
G02*
X106690000Y-86275000I0J50000D01*
G01*
G37*
G04 #@! TD.AperFunction*
G04 #@! TA.AperFunction,SMDPad,CuDef*
G36*
G01*
X106690000Y-86675000D02*
X106690000Y-86575000D01*
G75*
G02*
X106740000Y-86525000I50000J0D01*
G01*
X107515000Y-86525000D01*
G75*
G02*
X107565000Y-86575000I0J-50000D01*
G01*
X107565000Y-86675000D01*
G75*
G02*
X107515000Y-86725000I-50000J0D01*
G01*
X106740000Y-86725000D01*
G75*
G02*
X106690000Y-86675000I0J50000D01*
G01*
G37*
G04 #@! TD.AperFunction*
G04 #@! TA.AperFunction,SMDPad,CuDef*
G36*
G01*
X106690000Y-87075000D02*
X106690000Y-86975000D01*
G75*
G02*
X106740000Y-86925000I50000J0D01*
G01*
X107515000Y-86925000D01*
G75*
G02*
X107565000Y-86975000I0J-50000D01*
G01*
X107565000Y-87075000D01*
G75*
G02*
X107515000Y-87125000I-50000J0D01*
G01*
X106740000Y-87125000D01*
G75*
G02*
X106690000Y-87075000I0J50000D01*
G01*
G37*
G04 #@! TD.AperFunction*
G04 #@! TA.AperFunction,SMDPad,CuDef*
G36*
G01*
X106690000Y-87475000D02*
X106690000Y-87375000D01*
G75*
G02*
X106740000Y-87325000I50000J0D01*
G01*
X107515000Y-87325000D01*
G75*
G02*
X107565000Y-87375000I0J-50000D01*
G01*
X107565000Y-87475000D01*
G75*
G02*
X107515000Y-87525000I-50000J0D01*
G01*
X106740000Y-87525000D01*
G75*
G02*
X106690000Y-87475000I0J50000D01*
G01*
G37*
G04 #@! TD.AperFunction*
G04 #@! TA.AperFunction,SMDPad,CuDef*
G36*
G01*
X106690000Y-87875000D02*
X106690000Y-87775000D01*
G75*
G02*
X106740000Y-87725000I50000J0D01*
G01*
X107515000Y-87725000D01*
G75*
G02*
X107565000Y-87775000I0J-50000D01*
G01*
X107565000Y-87875000D01*
G75*
G02*
X107515000Y-87925000I-50000J0D01*
G01*
X106740000Y-87925000D01*
G75*
G02*
X106690000Y-87875000I0J50000D01*
G01*
G37*
G04 #@! TD.AperFunction*
G04 #@! TA.AperFunction,SMDPad,CuDef*
G36*
G01*
X106690000Y-88275000D02*
X106690000Y-88175000D01*
G75*
G02*
X106740000Y-88125000I50000J0D01*
G01*
X107515000Y-88125000D01*
G75*
G02*
X107565000Y-88175000I0J-50000D01*
G01*
X107565000Y-88275000D01*
G75*
G02*
X107515000Y-88325000I-50000J0D01*
G01*
X106740000Y-88325000D01*
G75*
G02*
X106690000Y-88275000I0J50000D01*
G01*
G37*
G04 #@! TD.AperFunction*
G04 #@! TA.AperFunction,SMDPad,CuDef*
G36*
G01*
X106690000Y-88675000D02*
X106690000Y-88575000D01*
G75*
G02*
X106740000Y-88525000I50000J0D01*
G01*
X107515000Y-88525000D01*
G75*
G02*
X107565000Y-88575000I0J-50000D01*
G01*
X107565000Y-88675000D01*
G75*
G02*
X107515000Y-88725000I-50000J0D01*
G01*
X106740000Y-88725000D01*
G75*
G02*
X106690000Y-88675000I0J50000D01*
G01*
G37*
G04 #@! TD.AperFunction*
G04 #@! TA.AperFunction,SMDPad,CuDef*
G36*
G01*
X106190000Y-89850000D02*
X106190000Y-89075000D01*
G75*
G02*
X106240000Y-89025000I50000J0D01*
G01*
X106340000Y-89025000D01*
G75*
G02*
X106390000Y-89075000I0J-50000D01*
G01*
X106390000Y-89850000D01*
G75*
G02*
X106340000Y-89900000I-50000J0D01*
G01*
X106240000Y-89900000D01*
G75*
G02*
X106190000Y-89850000I0J50000D01*
G01*
G37*
G04 #@! TD.AperFunction*
G04 #@! TA.AperFunction,SMDPad,CuDef*
G36*
G01*
X105790000Y-89850000D02*
X105790000Y-89075000D01*
G75*
G02*
X105840000Y-89025000I50000J0D01*
G01*
X105940000Y-89025000D01*
G75*
G02*
X105990000Y-89075000I0J-50000D01*
G01*
X105990000Y-89850000D01*
G75*
G02*
X105940000Y-89900000I-50000J0D01*
G01*
X105840000Y-89900000D01*
G75*
G02*
X105790000Y-89850000I0J50000D01*
G01*
G37*
G04 #@! TD.AperFunction*
G04 #@! TA.AperFunction,SMDPad,CuDef*
G36*
G01*
X105390000Y-89850000D02*
X105390000Y-89075000D01*
G75*
G02*
X105440000Y-89025000I50000J0D01*
G01*
X105540000Y-89025000D01*
G75*
G02*
X105590000Y-89075000I0J-50000D01*
G01*
X105590000Y-89850000D01*
G75*
G02*
X105540000Y-89900000I-50000J0D01*
G01*
X105440000Y-89900000D01*
G75*
G02*
X105390000Y-89850000I0J50000D01*
G01*
G37*
G04 #@! TD.AperFunction*
G04 #@! TA.AperFunction,SMDPad,CuDef*
G36*
G01*
X104990000Y-89850000D02*
X104990000Y-89075000D01*
G75*
G02*
X105040000Y-89025000I50000J0D01*
G01*
X105140000Y-89025000D01*
G75*
G02*
X105190000Y-89075000I0J-50000D01*
G01*
X105190000Y-89850000D01*
G75*
G02*
X105140000Y-89900000I-50000J0D01*
G01*
X105040000Y-89900000D01*
G75*
G02*
X104990000Y-89850000I0J50000D01*
G01*
G37*
G04 #@! TD.AperFunction*
G04 #@! TA.AperFunction,SMDPad,CuDef*
G36*
G01*
X104590000Y-89850000D02*
X104590000Y-89075000D01*
G75*
G02*
X104640000Y-89025000I50000J0D01*
G01*
X104740000Y-89025000D01*
G75*
G02*
X104790000Y-89075000I0J-50000D01*
G01*
X104790000Y-89850000D01*
G75*
G02*
X104740000Y-89900000I-50000J0D01*
G01*
X104640000Y-89900000D01*
G75*
G02*
X104590000Y-89850000I0J50000D01*
G01*
G37*
G04 #@! TD.AperFunction*
G04 #@! TA.AperFunction,SMDPad,CuDef*
G36*
G01*
X104190000Y-89850000D02*
X104190000Y-89075000D01*
G75*
G02*
X104240000Y-89025000I50000J0D01*
G01*
X104340000Y-89025000D01*
G75*
G02*
X104390000Y-89075000I0J-50000D01*
G01*
X104390000Y-89850000D01*
G75*
G02*
X104340000Y-89900000I-50000J0D01*
G01*
X104240000Y-89900000D01*
G75*
G02*
X104190000Y-89850000I0J50000D01*
G01*
G37*
G04 #@! TD.AperFunction*
G04 #@! TA.AperFunction,SMDPad,CuDef*
G36*
G01*
X103790000Y-89850000D02*
X103790000Y-89075000D01*
G75*
G02*
X103840000Y-89025000I50000J0D01*
G01*
X103940000Y-89025000D01*
G75*
G02*
X103990000Y-89075000I0J-50000D01*
G01*
X103990000Y-89850000D01*
G75*
G02*
X103940000Y-89900000I-50000J0D01*
G01*
X103840000Y-89900000D01*
G75*
G02*
X103790000Y-89850000I0J50000D01*
G01*
G37*
G04 #@! TD.AperFunction*
G04 #@! TA.AperFunction,SMDPad,CuDef*
G36*
G01*
X103390000Y-89850000D02*
X103390000Y-89075000D01*
G75*
G02*
X103440000Y-89025000I50000J0D01*
G01*
X103540000Y-89025000D01*
G75*
G02*
X103590000Y-89075000I0J-50000D01*
G01*
X103590000Y-89850000D01*
G75*
G02*
X103540000Y-89900000I-50000J0D01*
G01*
X103440000Y-89900000D01*
G75*
G02*
X103390000Y-89850000I0J50000D01*
G01*
G37*
G04 #@! TD.AperFunction*
G04 #@! TA.AperFunction,SMDPad,CuDef*
G36*
G01*
X102990000Y-89850000D02*
X102990000Y-89075000D01*
G75*
G02*
X103040000Y-89025000I50000J0D01*
G01*
X103140000Y-89025000D01*
G75*
G02*
X103190000Y-89075000I0J-50000D01*
G01*
X103190000Y-89850000D01*
G75*
G02*
X103140000Y-89900000I-50000J0D01*
G01*
X103040000Y-89900000D01*
G75*
G02*
X102990000Y-89850000I0J50000D01*
G01*
G37*
G04 #@! TD.AperFunction*
G04 #@! TA.AperFunction,SMDPad,CuDef*
G36*
G01*
X102590000Y-89850000D02*
X102590000Y-89075000D01*
G75*
G02*
X102640000Y-89025000I50000J0D01*
G01*
X102740000Y-89025000D01*
G75*
G02*
X102790000Y-89075000I0J-50000D01*
G01*
X102790000Y-89850000D01*
G75*
G02*
X102740000Y-89900000I-50000J0D01*
G01*
X102640000Y-89900000D01*
G75*
G02*
X102590000Y-89850000I0J50000D01*
G01*
G37*
G04 #@! TD.AperFunction*
G04 #@! TA.AperFunction,SMDPad,CuDef*
G36*
G01*
X102190000Y-89850000D02*
X102190000Y-89075000D01*
G75*
G02*
X102240000Y-89025000I50000J0D01*
G01*
X102340000Y-89025000D01*
G75*
G02*
X102390000Y-89075000I0J-50000D01*
G01*
X102390000Y-89850000D01*
G75*
G02*
X102340000Y-89900000I-50000J0D01*
G01*
X102240000Y-89900000D01*
G75*
G02*
X102190000Y-89850000I0J50000D01*
G01*
G37*
G04 #@! TD.AperFunction*
G04 #@! TA.AperFunction,SMDPad,CuDef*
G36*
G01*
X101790000Y-89850000D02*
X101790000Y-89075000D01*
G75*
G02*
X101840000Y-89025000I50000J0D01*
G01*
X101940000Y-89025000D01*
G75*
G02*
X101990000Y-89075000I0J-50000D01*
G01*
X101990000Y-89850000D01*
G75*
G02*
X101940000Y-89900000I-50000J0D01*
G01*
X101840000Y-89900000D01*
G75*
G02*
X101790000Y-89850000I0J50000D01*
G01*
G37*
G04 #@! TD.AperFunction*
G04 #@! TA.AperFunction,SMDPad,CuDef*
G36*
G01*
X101390000Y-89850000D02*
X101390000Y-89075000D01*
G75*
G02*
X101440000Y-89025000I50000J0D01*
G01*
X101540000Y-89025000D01*
G75*
G02*
X101590000Y-89075000I0J-50000D01*
G01*
X101590000Y-89850000D01*
G75*
G02*
X101540000Y-89900000I-50000J0D01*
G01*
X101440000Y-89900000D01*
G75*
G02*
X101390000Y-89850000I0J50000D01*
G01*
G37*
G04 #@! TD.AperFunction*
G04 #@! TA.AperFunction,SMDPad,CuDef*
G36*
G01*
X100990000Y-89850000D02*
X100990000Y-89075000D01*
G75*
G02*
X101040000Y-89025000I50000J0D01*
G01*
X101140000Y-89025000D01*
G75*
G02*
X101190000Y-89075000I0J-50000D01*
G01*
X101190000Y-89850000D01*
G75*
G02*
X101140000Y-89900000I-50000J0D01*
G01*
X101040000Y-89900000D01*
G75*
G02*
X100990000Y-89850000I0J50000D01*
G01*
G37*
G04 #@! TD.AperFunction*
G04 #@! TA.AperFunction,SMDPad,CuDef*
G36*
G01*
X99815000Y-88675000D02*
X99815000Y-88575000D01*
G75*
G02*
X99865000Y-88525000I50000J0D01*
G01*
X100640000Y-88525000D01*
G75*
G02*
X100690000Y-88575000I0J-50000D01*
G01*
X100690000Y-88675000D01*
G75*
G02*
X100640000Y-88725000I-50000J0D01*
G01*
X99865000Y-88725000D01*
G75*
G02*
X99815000Y-88675000I0J50000D01*
G01*
G37*
G04 #@! TD.AperFunction*
G04 #@! TA.AperFunction,SMDPad,CuDef*
G36*
G01*
X99815000Y-88275000D02*
X99815000Y-88175000D01*
G75*
G02*
X99865000Y-88125000I50000J0D01*
G01*
X100640000Y-88125000D01*
G75*
G02*
X100690000Y-88175000I0J-50000D01*
G01*
X100690000Y-88275000D01*
G75*
G02*
X100640000Y-88325000I-50000J0D01*
G01*
X99865000Y-88325000D01*
G75*
G02*
X99815000Y-88275000I0J50000D01*
G01*
G37*
G04 #@! TD.AperFunction*
G04 #@! TA.AperFunction,SMDPad,CuDef*
G36*
G01*
X99815000Y-87875000D02*
X99815000Y-87775000D01*
G75*
G02*
X99865000Y-87725000I50000J0D01*
G01*
X100640000Y-87725000D01*
G75*
G02*
X100690000Y-87775000I0J-50000D01*
G01*
X100690000Y-87875000D01*
G75*
G02*
X100640000Y-87925000I-50000J0D01*
G01*
X99865000Y-87925000D01*
G75*
G02*
X99815000Y-87875000I0J50000D01*
G01*
G37*
G04 #@! TD.AperFunction*
G04 #@! TA.AperFunction,SMDPad,CuDef*
G36*
G01*
X99815000Y-87475000D02*
X99815000Y-87375000D01*
G75*
G02*
X99865000Y-87325000I50000J0D01*
G01*
X100640000Y-87325000D01*
G75*
G02*
X100690000Y-87375000I0J-50000D01*
G01*
X100690000Y-87475000D01*
G75*
G02*
X100640000Y-87525000I-50000J0D01*
G01*
X99865000Y-87525000D01*
G75*
G02*
X99815000Y-87475000I0J50000D01*
G01*
G37*
G04 #@! TD.AperFunction*
G04 #@! TA.AperFunction,SMDPad,CuDef*
G36*
G01*
X99815000Y-87075000D02*
X99815000Y-86975000D01*
G75*
G02*
X99865000Y-86925000I50000J0D01*
G01*
X100640000Y-86925000D01*
G75*
G02*
X100690000Y-86975000I0J-50000D01*
G01*
X100690000Y-87075000D01*
G75*
G02*
X100640000Y-87125000I-50000J0D01*
G01*
X99865000Y-87125000D01*
G75*
G02*
X99815000Y-87075000I0J50000D01*
G01*
G37*
G04 #@! TD.AperFunction*
G04 #@! TA.AperFunction,SMDPad,CuDef*
G36*
G01*
X99815000Y-86675000D02*
X99815000Y-86575000D01*
G75*
G02*
X99865000Y-86525000I50000J0D01*
G01*
X100640000Y-86525000D01*
G75*
G02*
X100690000Y-86575000I0J-50000D01*
G01*
X100690000Y-86675000D01*
G75*
G02*
X100640000Y-86725000I-50000J0D01*
G01*
X99865000Y-86725000D01*
G75*
G02*
X99815000Y-86675000I0J50000D01*
G01*
G37*
G04 #@! TD.AperFunction*
G04 #@! TA.AperFunction,SMDPad,CuDef*
G36*
G01*
X99815000Y-86275000D02*
X99815000Y-86175000D01*
G75*
G02*
X99865000Y-86125000I50000J0D01*
G01*
X100640000Y-86125000D01*
G75*
G02*
X100690000Y-86175000I0J-50000D01*
G01*
X100690000Y-86275000D01*
G75*
G02*
X100640000Y-86325000I-50000J0D01*
G01*
X99865000Y-86325000D01*
G75*
G02*
X99815000Y-86275000I0J50000D01*
G01*
G37*
G04 #@! TD.AperFunction*
G04 #@! TA.AperFunction,SMDPad,CuDef*
G36*
G01*
X99815000Y-85875000D02*
X99815000Y-85775000D01*
G75*
G02*
X99865000Y-85725000I50000J0D01*
G01*
X100640000Y-85725000D01*
G75*
G02*
X100690000Y-85775000I0J-50000D01*
G01*
X100690000Y-85875000D01*
G75*
G02*
X100640000Y-85925000I-50000J0D01*
G01*
X99865000Y-85925000D01*
G75*
G02*
X99815000Y-85875000I0J50000D01*
G01*
G37*
G04 #@! TD.AperFunction*
G04 #@! TA.AperFunction,SMDPad,CuDef*
G36*
G01*
X99815000Y-85475000D02*
X99815000Y-85375000D01*
G75*
G02*
X99865000Y-85325000I50000J0D01*
G01*
X100640000Y-85325000D01*
G75*
G02*
X100690000Y-85375000I0J-50000D01*
G01*
X100690000Y-85475000D01*
G75*
G02*
X100640000Y-85525000I-50000J0D01*
G01*
X99865000Y-85525000D01*
G75*
G02*
X99815000Y-85475000I0J50000D01*
G01*
G37*
G04 #@! TD.AperFunction*
G04 #@! TA.AperFunction,SMDPad,CuDef*
G36*
G01*
X99815000Y-85075000D02*
X99815000Y-84975000D01*
G75*
G02*
X99865000Y-84925000I50000J0D01*
G01*
X100640000Y-84925000D01*
G75*
G02*
X100690000Y-84975000I0J-50000D01*
G01*
X100690000Y-85075000D01*
G75*
G02*
X100640000Y-85125000I-50000J0D01*
G01*
X99865000Y-85125000D01*
G75*
G02*
X99815000Y-85075000I0J50000D01*
G01*
G37*
G04 #@! TD.AperFunction*
G04 #@! TA.AperFunction,SMDPad,CuDef*
G36*
G01*
X99815000Y-84675000D02*
X99815000Y-84575000D01*
G75*
G02*
X99865000Y-84525000I50000J0D01*
G01*
X100640000Y-84525000D01*
G75*
G02*
X100690000Y-84575000I0J-50000D01*
G01*
X100690000Y-84675000D01*
G75*
G02*
X100640000Y-84725000I-50000J0D01*
G01*
X99865000Y-84725000D01*
G75*
G02*
X99815000Y-84675000I0J50000D01*
G01*
G37*
G04 #@! TD.AperFunction*
G04 #@! TA.AperFunction,SMDPad,CuDef*
G36*
G01*
X99815000Y-84275000D02*
X99815000Y-84175000D01*
G75*
G02*
X99865000Y-84125000I50000J0D01*
G01*
X100640000Y-84125000D01*
G75*
G02*
X100690000Y-84175000I0J-50000D01*
G01*
X100690000Y-84275000D01*
G75*
G02*
X100640000Y-84325000I-50000J0D01*
G01*
X99865000Y-84325000D01*
G75*
G02*
X99815000Y-84275000I0J50000D01*
G01*
G37*
G04 #@! TD.AperFunction*
G04 #@! TA.AperFunction,SMDPad,CuDef*
G36*
G01*
X99815000Y-83875000D02*
X99815000Y-83775000D01*
G75*
G02*
X99865000Y-83725000I50000J0D01*
G01*
X100640000Y-83725000D01*
G75*
G02*
X100690000Y-83775000I0J-50000D01*
G01*
X100690000Y-83875000D01*
G75*
G02*
X100640000Y-83925000I-50000J0D01*
G01*
X99865000Y-83925000D01*
G75*
G02*
X99815000Y-83875000I0J50000D01*
G01*
G37*
G04 #@! TD.AperFunction*
G04 #@! TA.AperFunction,SMDPad,CuDef*
G36*
G01*
X99815000Y-83475000D02*
X99815000Y-83375000D01*
G75*
G02*
X99865000Y-83325000I50000J0D01*
G01*
X100640000Y-83325000D01*
G75*
G02*
X100690000Y-83375000I0J-50000D01*
G01*
X100690000Y-83475000D01*
G75*
G02*
X100640000Y-83525000I-50000J0D01*
G01*
X99865000Y-83525000D01*
G75*
G02*
X99815000Y-83475000I0J50000D01*
G01*
G37*
G04 #@! TD.AperFunction*
D23*
X104965000Y-87300000D03*
X103690000Y-87300000D03*
X102415000Y-87300000D03*
X104965000Y-86025000D03*
X103690000Y-86025000D03*
X102415000Y-86025000D03*
X104965000Y-84750000D03*
X103690000Y-84750000D03*
X102415000Y-84750000D03*
G04 #@! TA.AperFunction,SMDPad,CuDef*
G36*
G01*
X102090000Y-87481000D02*
X102090000Y-84569000D01*
G75*
G02*
X102234000Y-84425000I144000J0D01*
G01*
X105146000Y-84425000D01*
G75*
G02*
X105290000Y-84569000I0J-144000D01*
G01*
X105290000Y-87481000D01*
G75*
G02*
X105146000Y-87625000I-144000J0D01*
G01*
X102234000Y-87625000D01*
G75*
G02*
X102090000Y-87481000I0J144000D01*
G01*
G37*
G04 #@! TD.AperFunction*
D14*
X106230000Y-106925000D03*
G04 #@! TA.AperFunction,ComponentPad*
G36*
G01*
X104115000Y-107775000D02*
X103265000Y-107775000D01*
G75*
G02*
X102840000Y-107350000I0J425000D01*
G01*
X102840000Y-106500000D01*
G75*
G02*
X103265000Y-106075000I425000J0D01*
G01*
X104115000Y-106075000D01*
G75*
G02*
X104540000Y-106500000I0J-425000D01*
G01*
X104540000Y-107350000D01*
G75*
G02*
X104115000Y-107775000I-425000J0D01*
G01*
G37*
G04 #@! TD.AperFunction*
X101150000Y-106925000D03*
D24*
X108500000Y-90125000D03*
X96450000Y-61925000D03*
X96600000Y-87325000D03*
X97291928Y-84725000D03*
X101850000Y-92100000D03*
X108800000Y-93175000D03*
X105103040Y-93639840D03*
X100375000Y-64620000D03*
X100200000Y-89575000D03*
X97725000Y-81875000D03*
X110390000Y-84545000D03*
X103490000Y-62915000D03*
X110371000Y-81127800D03*
X110310040Y-73589080D03*
D25*
X101247320Y-80749340D03*
D24*
X110117000Y-59766300D03*
X105065000Y-83725000D03*
X104340000Y-88125000D03*
X104284269Y-90880277D03*
X105732960Y-81396992D03*
X103205660Y-80820436D03*
X96700000Y-85335000D03*
X97816938Y-85719993D03*
X98410926Y-85262067D03*
X98660000Y-84525000D03*
X107600000Y-92225000D03*
X100262500Y-82362500D03*
X107737560Y-67488000D03*
D25*
X102850000Y-64650000D03*
X103860000Y-64650000D03*
D24*
X104363900Y-77985820D03*
D25*
X103350000Y-64650000D03*
X104360000Y-64650000D03*
D24*
X105334732Y-77983960D03*
X110371000Y-77775000D03*
X110117000Y-61341300D03*
D25*
X101125400Y-83490000D03*
D24*
X109202600Y-73609400D03*
X101170000Y-76206400D03*
D26*
X105200000Y-92455000D02*
X105200000Y-92700002D01*
X112590000Y-89205000D02*
X112568000Y-89205000D01*
X112568000Y-89205000D02*
X110882000Y-87519000D01*
X99625001Y-59575000D02*
X99575001Y-59525000D01*
D27*
X100375000Y-64620000D02*
X100375000Y-64620000D01*
D26*
X96860000Y-87585000D02*
X96600000Y-87325000D01*
X96000000Y-82525000D02*
X96000000Y-83008808D01*
X97291928Y-84300736D02*
X97291928Y-84725000D01*
X96000000Y-83008808D02*
X97291928Y-84300736D01*
X102690000Y-90185736D02*
X101850000Y-91025736D01*
X102690000Y-89462500D02*
X102690000Y-90185736D01*
X101850000Y-91025736D02*
X101850000Y-92100000D01*
D28*
X100375000Y-64620000D02*
X100375000Y-65950000D01*
D26*
X98120000Y-82650000D02*
X98120000Y-82270000D01*
X98120000Y-82270000D02*
X97725000Y-81875000D01*
D29*
X106900000Y-64695000D02*
X106825000Y-64620000D01*
D26*
X103690000Y-106925000D02*
X103690000Y-105867400D01*
X105735500Y-80434440D02*
X105732960Y-80436980D01*
X106726100Y-80434440D02*
X105735500Y-80434440D01*
D30*
X108700000Y-70175000D02*
X111305720Y-70175000D01*
D26*
X98921239Y-71038761D02*
X99593761Y-71038761D01*
D30*
X108700000Y-70175000D02*
X107300000Y-70175000D01*
X105900000Y-70675000D02*
X107300000Y-70675000D01*
D31*
X107300000Y-70175000D02*
X107300000Y-68681800D01*
D28*
X106825000Y-64620000D02*
X106825000Y-66623000D01*
D26*
X112590000Y-58725000D02*
X112590000Y-59435000D01*
D27*
X112530000Y-59035000D02*
X112530000Y-58725000D01*
D26*
X106002200Y-64667800D02*
X106050000Y-64620000D01*
D32*
X110955200Y-58725000D02*
X112550000Y-58725000D01*
X110117000Y-59563200D02*
X110955200Y-58725000D01*
X110117000Y-59766300D02*
X110117000Y-59766300D01*
X110117000Y-59766300D02*
X110117000Y-59563200D01*
D26*
X103090000Y-90235000D02*
X103090000Y-89462500D01*
X102700000Y-90625000D02*
X103090000Y-90235000D01*
X102700000Y-92342160D02*
X102700000Y-90625000D01*
X100073840Y-94968320D02*
X102700000Y-92342160D01*
X100073840Y-96596400D02*
X100073840Y-94968320D01*
X100899240Y-97421800D02*
X100073840Y-96596400D01*
X101219200Y-97421800D02*
X100899240Y-97421800D01*
D30*
X104290000Y-89462500D02*
X104290000Y-90874546D01*
D26*
X105000000Y-91695000D02*
X105000000Y-91596008D01*
D30*
X105000000Y-91596008D02*
X104284269Y-90880277D01*
D26*
X104290000Y-90874546D02*
X104284269Y-90880277D01*
D30*
X105490000Y-82587500D02*
X105490000Y-81639952D01*
X105490000Y-81639952D02*
X105732960Y-81396992D01*
D26*
X103490000Y-82587500D02*
X103490000Y-81104776D01*
X103490000Y-81104776D02*
X103205660Y-80820436D01*
D30*
X98687000Y-75658600D02*
X99322000Y-75023600D01*
X98687000Y-76190100D02*
X98687000Y-75658600D01*
D26*
X94690000Y-107025000D02*
X95925000Y-105790000D01*
X95925000Y-103674278D02*
X96525019Y-103074259D01*
X95925000Y-105790000D02*
X95925000Y-103674278D01*
X96525019Y-103074259D02*
X96525019Y-96302815D01*
X96525019Y-96302815D02*
X96850028Y-95977804D01*
X96850028Y-95977804D02*
X96850028Y-93873528D01*
X102290000Y-89937480D02*
X101002460Y-91225020D01*
X102290000Y-89462500D02*
X102290000Y-89937480D01*
X101002460Y-91225020D02*
X99498536Y-91225020D01*
X99498536Y-91225020D02*
X96850028Y-93873528D01*
X96225010Y-102949990D02*
X94690000Y-104485000D01*
X96225010Y-96178546D02*
X96225010Y-102949990D01*
X96550020Y-93749258D02*
X96550019Y-95853537D01*
X96550019Y-95853537D02*
X96225010Y-96178546D01*
X99374268Y-90925010D02*
X96550020Y-93749258D01*
X100878192Y-90925010D02*
X99374268Y-90925010D01*
X101890000Y-89913202D02*
X100878192Y-90925010D01*
X101890000Y-89462500D02*
X101890000Y-89913202D01*
X94690000Y-99405000D02*
X95925000Y-98170000D01*
X95925000Y-96054278D02*
X96250010Y-95729268D01*
X95925000Y-98170000D02*
X95925000Y-96054278D01*
X96250010Y-95729268D02*
X96250010Y-93624990D01*
X96250010Y-93624990D02*
X99250000Y-90625000D01*
X101490000Y-89888924D02*
X101490000Y-89462500D01*
X100753924Y-90625000D02*
X101490000Y-89888924D01*
X99250000Y-90625000D02*
X100753924Y-90625000D01*
X100227500Y-90325000D02*
X101090000Y-89462500D01*
X95950000Y-95605000D02*
X95950000Y-93489278D01*
X99114278Y-90325000D02*
X100227500Y-90325000D01*
X94690000Y-96865000D02*
X95950000Y-95605000D01*
X95950000Y-93489278D02*
X99114278Y-90325000D01*
X95765001Y-93249999D02*
X94690000Y-94325000D01*
X100252500Y-88625000D02*
X100252500Y-88762500D01*
X100252500Y-88762500D02*
X95765001Y-93249999D01*
X99300000Y-89225000D02*
X96740000Y-91785000D01*
X96740000Y-91785000D02*
X94690000Y-91785000D01*
X99300000Y-88550000D02*
X99300000Y-89225000D01*
X99625000Y-88225000D02*
X99300000Y-88550000D01*
X100252500Y-88225000D02*
X99625000Y-88225000D01*
X95617500Y-87632500D02*
X94690000Y-86705000D01*
X96710000Y-88725000D02*
X95617500Y-87632500D01*
X98692861Y-88725000D02*
X96710000Y-88725000D01*
X99592861Y-87825000D02*
X98692861Y-88725000D01*
X100252500Y-87825000D02*
X99592861Y-87825000D01*
X95874988Y-85349988D02*
X94690000Y-84165000D01*
X95874988Y-87465710D02*
X95874988Y-85349988D01*
X96834278Y-88425000D02*
X95874988Y-87465710D01*
X98560000Y-88425000D02*
X96834278Y-88425000D01*
X99560000Y-87425000D02*
X98560000Y-88425000D01*
X100252500Y-87425000D02*
X99560000Y-87425000D01*
X95539999Y-83137833D02*
X95539999Y-82474999D01*
X95539999Y-82474999D02*
X94690000Y-81625000D01*
X96174999Y-83772833D02*
X95539999Y-83137833D01*
X96174999Y-85919999D02*
X96174999Y-83772833D01*
X96880000Y-86625000D02*
X96174999Y-85919999D01*
X100252500Y-86625000D02*
X96880000Y-86625000D01*
X96700000Y-86020722D02*
X96700000Y-85335000D01*
X96950783Y-86271505D02*
X96700000Y-86020722D01*
X100205995Y-86271505D02*
X96950783Y-86271505D01*
X100252500Y-86225000D02*
X100205995Y-86271505D01*
X100252500Y-85825000D02*
X97921945Y-85825000D01*
X97921945Y-85825000D02*
X97816938Y-85719993D01*
X100252500Y-85425000D02*
X98573859Y-85425000D01*
X98573859Y-85425000D02*
X98410926Y-85262067D01*
X100252500Y-85025000D02*
X99160000Y-85025000D01*
X99160000Y-85025000D02*
X98660000Y-84525000D01*
X99525722Y-84625000D02*
X98830720Y-83929998D01*
X100252500Y-84625000D02*
X99525722Y-84625000D01*
X98830720Y-83929998D02*
X97405720Y-83929998D01*
X97405720Y-83929998D02*
X96474970Y-82999248D01*
X96474970Y-82999248D02*
X96474970Y-68169970D01*
X96474970Y-68169970D02*
X94690000Y-66385000D01*
X96000000Y-62615000D02*
X94690000Y-61305000D01*
X96774980Y-63389980D02*
X96000000Y-62615000D01*
X100252500Y-84225000D02*
X99550000Y-84225000D01*
X98954987Y-83629987D02*
X97555709Y-83629987D01*
X97555709Y-83629987D02*
X96774981Y-82849259D01*
X96774981Y-82849259D02*
X96774980Y-63389980D01*
X99550000Y-84225000D02*
X98954987Y-83629987D01*
X96225000Y-60300000D02*
X94690000Y-58765000D01*
X97074990Y-61149990D02*
X96225000Y-60300000D01*
X97074990Y-82724990D02*
X97074990Y-61149990D01*
X97600000Y-83250000D02*
X97074990Y-82724990D01*
X99015000Y-83250000D02*
X97600000Y-83250000D01*
X99590000Y-83825000D02*
X99015000Y-83250000D01*
X100252500Y-83825000D02*
X99590000Y-83825000D01*
X107127500Y-84225000D02*
X107751444Y-84225000D01*
X107850722Y-84125722D02*
X107951454Y-84024990D01*
X107751444Y-84225000D02*
X107850722Y-84125722D01*
X107951454Y-84024990D02*
X109225732Y-84024990D01*
X112510000Y-73965000D02*
X112530000Y-73965000D01*
X111250000Y-75225000D02*
X112510000Y-73965000D01*
X111250000Y-80650722D02*
X111250000Y-75225000D01*
X109225732Y-84024990D02*
X110157861Y-83092861D01*
X110157861Y-83092861D02*
X110449990Y-82800732D01*
X110979990Y-80920732D02*
X111250000Y-80650722D01*
X110979990Y-82270732D02*
X110979990Y-80920732D01*
X110157861Y-83092861D02*
X110979990Y-82270732D01*
X111605000Y-80030000D02*
X112590000Y-79045000D01*
X111605000Y-80720000D02*
X111605000Y-80030000D01*
X111280000Y-82395000D02*
X111280000Y-81045000D01*
X111280000Y-81045000D02*
X111605000Y-80720000D01*
X108800020Y-84325000D02*
X109350000Y-84325000D01*
X109350000Y-84325000D02*
X111280000Y-82395000D01*
X108800010Y-84324990D02*
X108800020Y-84325000D01*
X108075732Y-84324990D02*
X108800010Y-84324990D01*
X107775722Y-84625000D02*
X108075732Y-84324990D01*
X107127500Y-84625000D02*
X107775722Y-84625000D01*
X107127500Y-85025000D02*
X107800000Y-85025000D01*
X107875000Y-84950000D02*
X108200000Y-84625000D01*
X107800000Y-85025000D02*
X107875000Y-84950000D01*
X109490000Y-84625000D02*
X112530000Y-81585000D01*
X108200000Y-84625000D02*
X109490000Y-84625000D01*
X108434000Y-85425000D02*
X107127500Y-85425000D01*
X108438600Y-85420400D02*
X108434000Y-85425000D01*
X108461790Y-86489990D02*
X112414990Y-86489990D01*
X112414990Y-86489990D02*
X112590000Y-86665000D01*
X108326780Y-86625000D02*
X108461790Y-86489990D01*
X107127500Y-86625000D02*
X108326780Y-86625000D01*
X111000000Y-90155000D02*
X112590000Y-91745000D01*
X109104998Y-87425000D02*
X111000000Y-89320002D01*
X111000000Y-89320002D02*
X111000000Y-90155000D01*
X107127500Y-87425000D02*
X109104998Y-87425000D01*
X107702684Y-87825000D02*
X107127500Y-87825000D01*
X110699990Y-89444270D02*
X109080720Y-87825000D01*
X110699990Y-90279268D02*
X110699990Y-89444270D01*
X109080720Y-87825000D02*
X107702684Y-87825000D01*
X111300000Y-90879278D02*
X110699990Y-90279268D01*
X111300000Y-92995000D02*
X111300000Y-90879278D01*
X112590000Y-94285000D02*
X111300000Y-92995000D01*
X107678406Y-88225000D02*
X107127500Y-88225000D01*
X107678426Y-88225020D02*
X107678406Y-88225000D01*
X109056462Y-88225020D02*
X107678426Y-88225020D01*
X110399980Y-89568538D02*
X109056462Y-88225020D01*
X110399981Y-90403537D02*
X110399980Y-89568538D01*
X110999990Y-91003546D02*
X110399981Y-90403537D01*
X110999990Y-94424990D02*
X110999990Y-91003546D01*
X112590000Y-96015000D02*
X110999990Y-94424990D01*
X112590000Y-96825000D02*
X112590000Y-96015000D01*
X107127500Y-88625000D02*
X109032164Y-88625000D01*
X110099972Y-89692808D02*
X110099972Y-90527806D01*
X109032164Y-88625000D02*
X110099972Y-89692808D01*
X110099972Y-90527806D02*
X110699980Y-91127814D01*
X110699980Y-91127814D02*
X110699981Y-94549259D01*
X110699981Y-94549259D02*
X111300000Y-95149278D01*
X111300000Y-98075000D02*
X112590000Y-99365000D01*
X111300000Y-95149278D02*
X111300000Y-98075000D01*
X106290000Y-90442166D02*
X106290000Y-90325000D01*
X109327084Y-91252084D02*
X107099918Y-91252084D01*
X110399972Y-92324972D02*
X109327084Y-91252084D01*
X110399972Y-94673526D02*
X110399972Y-92324972D01*
X110999990Y-95273546D02*
X110399972Y-94673526D01*
X106290000Y-90325000D02*
X106290000Y-89462500D01*
X110999990Y-98199268D02*
X110999990Y-95273546D01*
X111300000Y-98499278D02*
X110999990Y-98199268D01*
X107099918Y-91252084D02*
X106290000Y-90442166D01*
X111300000Y-103155000D02*
X111300000Y-98499278D01*
X112590000Y-104445000D02*
X111300000Y-103155000D01*
X105890000Y-90466444D02*
X105890000Y-89462500D01*
X110099962Y-92449240D02*
X109202816Y-91552094D01*
X109202816Y-91552094D02*
X106975650Y-91552094D01*
X110099962Y-94824962D02*
X110099962Y-92449240D01*
X106975650Y-91552094D02*
X105890000Y-90466444D01*
X111300000Y-103579278D02*
X110999990Y-103279268D01*
X110999990Y-98623546D02*
X110699981Y-98323537D01*
X111300000Y-104925000D02*
X111300000Y-103579278D01*
X110699981Y-98323537D02*
X110699980Y-95424980D01*
X112590000Y-106215000D02*
X111300000Y-104925000D01*
X110699980Y-95424980D02*
X110099962Y-94824962D01*
X110999990Y-103279268D02*
X110999990Y-98623546D01*
X112590000Y-106985000D02*
X112590000Y-106215000D01*
X105490000Y-89462500D02*
X105490000Y-90490722D01*
X105490000Y-90490722D02*
X105812139Y-90812861D01*
X105812139Y-90812861D02*
X106112139Y-91112861D01*
X106112139Y-91112861D02*
X107224278Y-92225000D01*
X107224278Y-92225000D02*
X107600000Y-92225000D01*
X107600000Y-92225000D02*
X107700000Y-92225000D01*
X106200000Y-91625000D02*
X106200000Y-91725000D01*
X105090000Y-90515000D02*
X106200000Y-91625000D01*
X105090000Y-89462500D02*
X105090000Y-90515000D01*
X106200000Y-106895000D02*
X106230000Y-106925000D01*
X106200000Y-91625000D02*
X106200000Y-106895000D01*
X104690000Y-90539279D02*
X104690000Y-89462500D01*
X105900000Y-91749279D02*
X104690000Y-90539279D01*
X105900000Y-103125000D02*
X105900000Y-91749279D01*
X103900000Y-105125000D02*
X105900000Y-103125000D01*
X101600000Y-105125000D02*
X103900000Y-105125000D01*
X101150000Y-105575000D02*
X101600000Y-105125000D01*
X101150000Y-106925000D02*
X101150000Y-105575000D01*
X101090000Y-82587500D02*
X100487500Y-82587500D01*
X100487500Y-82587500D02*
X100262500Y-82362500D01*
X100262500Y-82362500D02*
X100237500Y-82362500D01*
X99750560Y-81850560D02*
X99750560Y-80736360D01*
X100262500Y-82362500D02*
X99750560Y-81850560D01*
D30*
X99220400Y-77683500D02*
X98687000Y-77150100D01*
X99220400Y-80518200D02*
X99220400Y-77683500D01*
X99438560Y-80736360D02*
X99220400Y-80518200D01*
X99750560Y-80736360D02*
X99438560Y-80736360D01*
D26*
X104789990Y-79349190D02*
X104384760Y-78943960D01*
X104789990Y-82061086D02*
X104789990Y-79349190D01*
X104764990Y-82086086D02*
X104789990Y-82061086D01*
X104764990Y-82512510D02*
X104764990Y-82086086D01*
X104690000Y-82587500D02*
X104764990Y-82512510D01*
X105100500Y-79178220D02*
X105334760Y-78943960D01*
X105100500Y-82577000D02*
X105100500Y-79178220D01*
X105090000Y-82587500D02*
X105100500Y-82577000D01*
X100250560Y-77956902D02*
X100250560Y-78161360D01*
X100958532Y-77248930D02*
X100250560Y-77956902D01*
X101691628Y-77248930D02*
X100958532Y-77248930D01*
X102517320Y-78074622D02*
X101691628Y-77248930D01*
X102517320Y-81198920D02*
X102517320Y-78074622D01*
X103090000Y-81771600D02*
X102517320Y-81198920D01*
X103090000Y-82587500D02*
X103090000Y-81771600D01*
X100750560Y-77898860D02*
X100750560Y-78161360D01*
X101100480Y-77548940D02*
X100750560Y-77898860D01*
X101567360Y-77548940D02*
X101100480Y-77548940D01*
X102217310Y-78198890D02*
X101567360Y-77548940D01*
X102217310Y-81323188D02*
X102217310Y-78198890D01*
X102690000Y-81795878D02*
X102217310Y-81323188D01*
X102690000Y-82587500D02*
X102690000Y-81795878D01*
X101598260Y-78509060D02*
X101250560Y-78161360D01*
X101917300Y-81447456D02*
X101917300Y-78828100D01*
X102301420Y-82415580D02*
X102301420Y-81831576D01*
X102301420Y-81831576D02*
X101917300Y-81447456D01*
X102290000Y-82427000D02*
X102301420Y-82415580D01*
X101917300Y-78828100D02*
X101598260Y-78509060D01*
X102290000Y-82587500D02*
X102290000Y-82427000D01*
X100750560Y-80998860D02*
X100750560Y-80736360D01*
X101890000Y-82587500D02*
X101890000Y-81844433D01*
X101059549Y-81307849D02*
X100750560Y-80998860D01*
X101890000Y-81844433D02*
X101353416Y-81307849D01*
X101353416Y-81307849D02*
X101059549Y-81307849D01*
X101490000Y-81868712D02*
X101229148Y-81607860D01*
X101490000Y-82587500D02*
X101490000Y-81868712D01*
X100250560Y-81124180D02*
X100250560Y-80736360D01*
X100734240Y-81607860D02*
X100250560Y-81124180D01*
X101229148Y-81607860D02*
X100734240Y-81607860D01*
X110019800Y-85758080D02*
X110655480Y-85758080D01*
X109692280Y-85430560D02*
X110019800Y-85758080D01*
X101845000Y-64625000D02*
X101850000Y-64620000D01*
D30*
X101849300Y-66089000D02*
X101849300Y-64620000D01*
X104850000Y-66085500D02*
X104846500Y-66089000D01*
X104850000Y-64620000D02*
X104850000Y-66085500D01*
D26*
X112530000Y-66945000D02*
X112530000Y-66345000D01*
X105900000Y-70175000D02*
X105900000Y-69175000D01*
X105900000Y-69175000D02*
X105900000Y-69175000D01*
X105900000Y-69175000D02*
X105900000Y-68403000D01*
X105900000Y-68403000D02*
X105900000Y-68147000D01*
D29*
X104664000Y-70175000D02*
X104325800Y-70513200D01*
X105900000Y-70175000D02*
X104664000Y-70175000D01*
X106454320Y-67488000D02*
X107737560Y-67488000D01*
X105900000Y-68042320D02*
X106454320Y-67488000D01*
X107737560Y-67488000D02*
X107737560Y-67488000D01*
D27*
X105900000Y-70128200D02*
X105900000Y-68100200D01*
D26*
X109412500Y-70675000D02*
X108700000Y-70675000D01*
X110175000Y-71437500D02*
X109412500Y-70675000D01*
X109812500Y-69675000D02*
X110175000Y-69312500D01*
X108700000Y-69675000D02*
X109812500Y-69675000D01*
X113188988Y-71735010D02*
X113939990Y-71735010D01*
X110371000Y-78507600D02*
X110371000Y-77775000D01*
X110371000Y-77775000D02*
X110371000Y-76847400D01*
X108700000Y-68433200D02*
X108700000Y-69175000D01*
D32*
X110117000Y-61341300D02*
X110117000Y-61341300D01*
X110117000Y-61341300D02*
X113614990Y-61341300D01*
D26*
X110100000Y-87025000D02*
X109280000Y-87025000D01*
D30*
X100252500Y-87025000D02*
X101015000Y-87025000D01*
X107127500Y-87025000D02*
X105940000Y-87025000D01*
X103915000Y-88725000D02*
X105318000Y-88725000D01*
X103915000Y-88725000D02*
X102828000Y-88725000D01*
X103890000Y-88750000D02*
X103915000Y-88725000D01*
X103890000Y-89462500D02*
X103890000Y-88750000D01*
D26*
X100252500Y-83425000D02*
X101025000Y-83425000D01*
X100252500Y-83425000D02*
X100252500Y-83252500D01*
X100252500Y-83252500D02*
X100147300Y-83147300D01*
X100112500Y-83112500D02*
X100050000Y-83050000D01*
X99725000Y-82725000D02*
X99155000Y-82725000D01*
X99155000Y-82725000D02*
X99080000Y-82650000D01*
X100112500Y-83112500D02*
X99725000Y-82725000D01*
X106673750Y-82971250D02*
X107127500Y-83425000D01*
X103890000Y-82587500D02*
X104290000Y-82587500D01*
X103335200Y-90767100D02*
X103335200Y-91087200D01*
X103890000Y-90212300D02*
X103335200Y-90767100D01*
X103890000Y-89462500D02*
X103890000Y-90212300D01*
X108700000Y-71175000D02*
X108700000Y-72875000D01*
X104211500Y-94632980D02*
X104211500Y-91859300D01*
X104211500Y-91859300D02*
X103439400Y-91087200D01*
X104541700Y-94963180D02*
X104211500Y-94632980D01*
X104541700Y-96771660D02*
X104541700Y-94963180D01*
X103439400Y-91087200D02*
X103335200Y-91087200D01*
X103891560Y-97421800D02*
X104541700Y-96771660D01*
X103419200Y-97421800D02*
X103891560Y-97421800D01*
X110371000Y-79527600D02*
X109583600Y-79527600D01*
X110371000Y-75197400D02*
X110079400Y-75197400D01*
X109253400Y-73685600D02*
X109253400Y-73660200D01*
X109253400Y-73660200D02*
X109202600Y-73609400D01*
X100147300Y-83147300D02*
X100112500Y-83112500D01*
D29*
X106726100Y-82151400D02*
X106290000Y-82587500D01*
X106726100Y-81394440D02*
X106726100Y-82151400D01*
D28*
X106726100Y-82458760D02*
X106443680Y-82741180D01*
X106726100Y-81394440D02*
X106726100Y-82458760D01*
D26*
X106443680Y-82741180D02*
X106673750Y-82971250D01*
X106290000Y-82587500D02*
X106443680Y-82741180D01*
D30*
X104290000Y-80906520D02*
X104203880Y-80820400D01*
X104290000Y-82587500D02*
X104290000Y-80906520D01*
D26*
X100228840Y-77147560D02*
X100491670Y-76884730D01*
X99720780Y-77147560D02*
X100228840Y-77147560D01*
X101170000Y-76206400D02*
X100491670Y-76884730D01*
X99750560Y-77177340D02*
X99720780Y-77147560D01*
X99750560Y-77705720D02*
X99750560Y-77177340D01*
X99750560Y-77625840D02*
X99750560Y-77705720D01*
X99750560Y-77705720D02*
X99750560Y-78161360D01*
D30*
X108178300Y-87025000D02*
X109654160Y-87025000D01*
D26*
X108320000Y-87025000D02*
X108178300Y-87025000D01*
X108178300Y-87025000D02*
X107127500Y-87025000D01*
D30*
X109654160Y-87025000D02*
X109654840Y-87025680D01*
X107127500Y-87025000D02*
X109654160Y-87025000D01*
X98547920Y-87025000D02*
X98318640Y-87254280D01*
X100252500Y-87025000D02*
X98547920Y-87025000D01*
D29*
X99750560Y-78161360D02*
X99750560Y-77147560D01*
X110371000Y-75197400D02*
X109126400Y-75197400D01*
D32*
X110371000Y-75197400D02*
X109062900Y-75197400D01*
D27*
X110371000Y-79527600D02*
X109329600Y-79527600D01*
D26*
X105869250Y-71660350D02*
X105869250Y-71205750D01*
X106713400Y-72504500D02*
X105869250Y-71660350D01*
X107716700Y-72504500D02*
X106713400Y-72504500D01*
D30*
X103890000Y-81274400D02*
X103890000Y-82587500D01*
X104203880Y-80960520D02*
X103890000Y-81274400D01*
X104203880Y-80820400D02*
X104203880Y-80960520D01*
X100252500Y-83425000D02*
X101125400Y-83425000D01*
D33*
X105576500Y-82189512D02*
X105575467Y-82200000D01*
X105575467Y-82975000D01*
X105576500Y-82985488D01*
X105576500Y-84211500D01*
X105156488Y-84211500D01*
X105146000Y-84210467D01*
X102234000Y-84210467D01*
X102223512Y-84211500D01*
X101940000Y-84211500D01*
X101927612Y-84212720D01*
X101915700Y-84216334D01*
X101904721Y-84222202D01*
X101895099Y-84230099D01*
X101887202Y-84239721D01*
X101881334Y-84250700D01*
X101877720Y-84262612D01*
X101876500Y-84275000D01*
X101876500Y-84558512D01*
X101875467Y-84569000D01*
X101875467Y-87481000D01*
X101876500Y-87491488D01*
X101876500Y-87775000D01*
X101877720Y-87787388D01*
X101881334Y-87799300D01*
X101887202Y-87810279D01*
X101895099Y-87819901D01*
X101904721Y-87827798D01*
X101915700Y-87833666D01*
X101927612Y-87837280D01*
X101940000Y-87838500D01*
X102223512Y-87838500D01*
X102234000Y-87839533D01*
X104601500Y-87839533D01*
X104601500Y-88386500D01*
X104053500Y-88386500D01*
X104053500Y-88175000D01*
X104052280Y-88162612D01*
X104048666Y-88150700D01*
X104042798Y-88139721D01*
X104034901Y-88130099D01*
X104025279Y-88122202D01*
X104014300Y-88116334D01*
X104002388Y-88112720D01*
X103990000Y-88111500D01*
X101553500Y-88111500D01*
X101553500Y-83863500D01*
X104490000Y-83863500D01*
X104502388Y-83862280D01*
X104514300Y-83858666D01*
X104525279Y-83852798D01*
X104534901Y-83844901D01*
X104542798Y-83835279D01*
X104548666Y-83824300D01*
X104552280Y-83812388D01*
X104553500Y-83800000D01*
X104553500Y-83238500D01*
X104629512Y-83238500D01*
X104640000Y-83239533D01*
X104740000Y-83239533D01*
X104750488Y-83238500D01*
X105029512Y-83238500D01*
X105040000Y-83239533D01*
X105140000Y-83239533D01*
X105150488Y-83238500D01*
X105340000Y-83238500D01*
X105352388Y-83237280D01*
X105364300Y-83233666D01*
X105375279Y-83227798D01*
X105384901Y-83219901D01*
X105392798Y-83210279D01*
X105398666Y-83199300D01*
X105402280Y-83187388D01*
X105403500Y-83175000D01*
X105403500Y-82985488D01*
X105404533Y-82975000D01*
X105404533Y-82200000D01*
X105403500Y-82189512D01*
X105403500Y-82163500D01*
X105576500Y-82163500D01*
X105576500Y-82189512D01*
G04 #@! TA.AperFunction,Conductor*
D26*
G36*
X105576500Y-82189512D02*
G01*
X105575467Y-82200000D01*
X105575467Y-82975000D01*
X105576500Y-82985488D01*
X105576500Y-84211500D01*
X105156488Y-84211500D01*
X105146000Y-84210467D01*
X102234000Y-84210467D01*
X102223512Y-84211500D01*
X101940000Y-84211500D01*
X101927612Y-84212720D01*
X101915700Y-84216334D01*
X101904721Y-84222202D01*
X101895099Y-84230099D01*
X101887202Y-84239721D01*
X101881334Y-84250700D01*
X101877720Y-84262612D01*
X101876500Y-84275000D01*
X101876500Y-84558512D01*
X101875467Y-84569000D01*
X101875467Y-87481000D01*
X101876500Y-87491488D01*
X101876500Y-87775000D01*
X101877720Y-87787388D01*
X101881334Y-87799300D01*
X101887202Y-87810279D01*
X101895099Y-87819901D01*
X101904721Y-87827798D01*
X101915700Y-87833666D01*
X101927612Y-87837280D01*
X101940000Y-87838500D01*
X102223512Y-87838500D01*
X102234000Y-87839533D01*
X104601500Y-87839533D01*
X104601500Y-88386500D01*
X104053500Y-88386500D01*
X104053500Y-88175000D01*
X104052280Y-88162612D01*
X104048666Y-88150700D01*
X104042798Y-88139721D01*
X104034901Y-88130099D01*
X104025279Y-88122202D01*
X104014300Y-88116334D01*
X104002388Y-88112720D01*
X103990000Y-88111500D01*
X101553500Y-88111500D01*
X101553500Y-83863500D01*
X104490000Y-83863500D01*
X104502388Y-83862280D01*
X104514300Y-83858666D01*
X104525279Y-83852798D01*
X104534901Y-83844901D01*
X104542798Y-83835279D01*
X104548666Y-83824300D01*
X104552280Y-83812388D01*
X104553500Y-83800000D01*
X104553500Y-83238500D01*
X104629512Y-83238500D01*
X104640000Y-83239533D01*
X104740000Y-83239533D01*
X104750488Y-83238500D01*
X105029512Y-83238500D01*
X105040000Y-83239533D01*
X105140000Y-83239533D01*
X105150488Y-83238500D01*
X105340000Y-83238500D01*
X105352388Y-83237280D01*
X105364300Y-83233666D01*
X105375279Y-83227798D01*
X105384901Y-83219901D01*
X105392798Y-83210279D01*
X105398666Y-83199300D01*
X105402280Y-83187388D01*
X105403500Y-83175000D01*
X105403500Y-82985488D01*
X105404533Y-82975000D01*
X105404533Y-82200000D01*
X105403500Y-82189512D01*
X105403500Y-82163500D01*
X105576500Y-82163500D01*
X105576500Y-82189512D01*
G37*
G04 #@! TD.AperFunction*
D34*
X102247824Y-90625000D02*
X102250001Y-90647104D01*
X102250000Y-92155764D01*
X100705979Y-93699786D01*
X100515560Y-93699786D01*
X100414735Y-93709716D01*
X100317784Y-93739126D01*
X100228434Y-93786885D01*
X100150117Y-93851157D01*
X100085845Y-93929474D01*
X100038086Y-94018824D01*
X100008676Y-94115775D01*
X99998746Y-94216600D01*
X99998746Y-94407019D01*
X99771269Y-94634496D01*
X99754104Y-94648583D01*
X99740017Y-94665748D01*
X99740012Y-94665753D01*
X99697869Y-94717104D01*
X99656083Y-94795280D01*
X99630352Y-94880105D01*
X99621664Y-94968320D01*
X99623841Y-94990424D01*
X99623840Y-96574305D01*
X99621664Y-96596400D01*
X99623840Y-96618494D01*
X99623840Y-96618504D01*
X99630351Y-96684614D01*
X99651700Y-96754991D01*
X99656083Y-96769440D01*
X99697869Y-96847616D01*
X99707930Y-96859875D01*
X99754103Y-96916137D01*
X99771273Y-96930229D01*
X100142386Y-97301341D01*
X100142386Y-97996800D01*
X100149626Y-98070313D01*
X100171069Y-98141000D01*
X100205891Y-98206147D01*
X100252752Y-98263248D01*
X100309853Y-98310109D01*
X100375000Y-98344931D01*
X100445687Y-98366374D01*
X100519200Y-98373614D01*
X101919200Y-98373614D01*
X101992713Y-98366374D01*
X102063400Y-98344931D01*
X102128547Y-98310109D01*
X102185648Y-98263248D01*
X102232509Y-98206147D01*
X102267331Y-98141000D01*
X102288774Y-98070313D01*
X102296014Y-97996800D01*
X102296014Y-96846800D01*
X102288774Y-96773287D01*
X102267331Y-96702600D01*
X102232509Y-96637453D01*
X102185648Y-96580352D01*
X102128547Y-96533491D01*
X102063400Y-96498669D01*
X101992713Y-96477226D01*
X101919200Y-96469986D01*
X100583821Y-96469986D01*
X100523840Y-96410005D01*
X100523840Y-95154715D01*
X100605141Y-95073414D01*
X100795560Y-95073414D01*
X100896385Y-95063484D01*
X100993336Y-95034074D01*
X101082686Y-94986315D01*
X101161003Y-94922043D01*
X101225275Y-94843726D01*
X101273034Y-94754376D01*
X101302444Y-94657425D01*
X101312374Y-94556600D01*
X101312374Y-94366181D01*
X103002573Y-92675983D01*
X103019737Y-92661897D01*
X103033824Y-92644732D01*
X103033828Y-92644728D01*
X103075971Y-92593377D01*
X103117757Y-92515201D01*
X103129583Y-92476216D01*
X103143489Y-92430375D01*
X103150000Y-92364265D01*
X103150000Y-92364255D01*
X103152176Y-92342161D01*
X103150000Y-92320066D01*
X103150000Y-91742517D01*
X103165200Y-91744014D01*
X103459819Y-91744014D01*
X103761501Y-92045697D01*
X103761500Y-93837068D01*
X103728857Y-93863857D01*
X103664585Y-93942174D01*
X103616826Y-94031524D01*
X103587416Y-94128475D01*
X103577486Y-94229300D01*
X103577486Y-94569300D01*
X103587416Y-94670125D01*
X103616826Y-94767076D01*
X103664585Y-94856426D01*
X103675713Y-94869986D01*
X102719200Y-94869986D01*
X102645687Y-94877226D01*
X102575000Y-94898669D01*
X102509853Y-94933491D01*
X102452752Y-94980352D01*
X102405891Y-95037453D01*
X102371069Y-95102600D01*
X102349626Y-95173287D01*
X102342386Y-95246800D01*
X102342386Y-96396800D01*
X102349626Y-96470313D01*
X102371069Y-96541000D01*
X102405891Y-96606147D01*
X102418737Y-96621800D01*
X102405891Y-96637453D01*
X102371069Y-96702600D01*
X102349626Y-96773287D01*
X102342386Y-96846800D01*
X102342386Y-97996800D01*
X102349626Y-98070313D01*
X102371069Y-98141000D01*
X102405891Y-98206147D01*
X102452752Y-98263248D01*
X102509853Y-98310109D01*
X102575000Y-98344931D01*
X102645687Y-98366374D01*
X102719200Y-98373614D01*
X104119200Y-98373614D01*
X104192713Y-98366374D01*
X104263400Y-98344931D01*
X104328547Y-98310109D01*
X104385648Y-98263248D01*
X104432509Y-98206147D01*
X104467331Y-98141000D01*
X104488774Y-98070313D01*
X104496014Y-97996800D01*
X104496014Y-97453741D01*
X104844273Y-97105483D01*
X104861437Y-97091397D01*
X104875524Y-97074232D01*
X104875528Y-97074228D01*
X104917671Y-97022877D01*
X104959457Y-96944701D01*
X104969008Y-96913215D01*
X104985189Y-96859875D01*
X104991700Y-96793765D01*
X104991700Y-96793754D01*
X104993876Y-96771660D01*
X104991700Y-96749566D01*
X104991700Y-94985271D01*
X104993876Y-94963179D01*
X104991700Y-94941087D01*
X104991700Y-94941075D01*
X104985189Y-94874965D01*
X104959457Y-94790139D01*
X104947884Y-94768488D01*
X104917671Y-94711963D01*
X104881414Y-94667785D01*
X104891114Y-94569300D01*
X104891114Y-94229300D01*
X104881184Y-94128475D01*
X104851774Y-94031524D01*
X104804015Y-93942174D01*
X104739743Y-93863857D01*
X104661500Y-93799646D01*
X104661500Y-92321355D01*
X104729175Y-92341884D01*
X104830000Y-92351814D01*
X105170000Y-92351814D01*
X105270825Y-92341884D01*
X105367776Y-92312474D01*
X105450001Y-92268523D01*
X105450000Y-102938604D01*
X103713605Y-104675000D01*
X101622094Y-104675000D01*
X101599999Y-104672824D01*
X101577905Y-104675000D01*
X101577895Y-104675000D01*
X101511785Y-104681511D01*
X101426959Y-104707243D01*
X101348783Y-104749029D01*
X101297432Y-104791172D01*
X101297428Y-104791176D01*
X101280263Y-104805263D01*
X101266176Y-104822428D01*
X100847429Y-105241176D01*
X100830264Y-105255263D01*
X100816177Y-105272428D01*
X100816172Y-105272433D01*
X100774029Y-105323784D01*
X100732243Y-105401960D01*
X100724475Y-105427568D01*
X100706512Y-105486785D01*
X100701000Y-105542757D01*
X100697824Y-105575000D01*
X100700001Y-105597104D01*
X100700001Y-105785465D01*
X100569745Y-105839419D01*
X100369108Y-105973481D01*
X100198481Y-106144108D01*
X100064419Y-106344745D01*
X99972076Y-106567681D01*
X99925000Y-106804348D01*
X99925000Y-107045652D01*
X99972076Y-107282319D01*
X100064419Y-107505255D01*
X100198481Y-107705892D01*
X100369108Y-107876519D01*
X100569745Y-108010581D01*
X100792681Y-108102924D01*
X100903665Y-108125000D01*
X95198876Y-108125000D01*
X95330255Y-108070581D01*
X95530892Y-107936519D01*
X95701519Y-107765892D01*
X95835581Y-107565255D01*
X95927924Y-107342319D01*
X95975000Y-107105652D01*
X95975000Y-106864348D01*
X95927924Y-106627681D01*
X95868113Y-106483283D01*
X96227573Y-106123823D01*
X96244737Y-106109737D01*
X96258824Y-106092572D01*
X96258828Y-106092568D01*
X96300971Y-106041217D01*
X96342757Y-105963041D01*
X96346418Y-105950971D01*
X96368489Y-105878215D01*
X96375000Y-105812105D01*
X96375000Y-105812094D01*
X96377176Y-105790000D01*
X96375000Y-105767906D01*
X96375000Y-103860673D01*
X96827592Y-103408082D01*
X96844756Y-103393996D01*
X96858843Y-103376831D01*
X96858847Y-103376827D01*
X96900990Y-103325476D01*
X96942776Y-103247300D01*
X96944015Y-103243214D01*
X96968508Y-103162474D01*
X96975019Y-103096364D01*
X96975019Y-103096354D01*
X96977195Y-103074260D01*
X96975019Y-103052165D01*
X96975019Y-96489210D01*
X97152602Y-96311627D01*
X97169765Y-96297541D01*
X97183852Y-96280376D01*
X97183857Y-96280371D01*
X97226000Y-96229020D01*
X97267786Y-96150843D01*
X97274177Y-96129774D01*
X97293517Y-96066019D01*
X97300028Y-95999909D01*
X97300028Y-95999897D01*
X97302204Y-95977803D01*
X97300028Y-95955709D01*
X97300028Y-94059923D01*
X99684932Y-91675020D01*
X100980366Y-91675020D01*
X101002460Y-91677196D01*
X101024554Y-91675020D01*
X101024565Y-91675020D01*
X101090675Y-91668509D01*
X101175501Y-91642777D01*
X101253676Y-91600991D01*
X101322197Y-91544757D01*
X101336289Y-91527586D01*
X102248802Y-90615074D01*
X102247824Y-90625000D01*
G04 #@! TA.AperFunction,Conductor*
D26*
G36*
X102247824Y-90625000D02*
G01*
X102250001Y-90647104D01*
X102250000Y-92155764D01*
X100705979Y-93699786D01*
X100515560Y-93699786D01*
X100414735Y-93709716D01*
X100317784Y-93739126D01*
X100228434Y-93786885D01*
X100150117Y-93851157D01*
X100085845Y-93929474D01*
X100038086Y-94018824D01*
X100008676Y-94115775D01*
X99998746Y-94216600D01*
X99998746Y-94407019D01*
X99771269Y-94634496D01*
X99754104Y-94648583D01*
X99740017Y-94665748D01*
X99740012Y-94665753D01*
X99697869Y-94717104D01*
X99656083Y-94795280D01*
X99630352Y-94880105D01*
X99621664Y-94968320D01*
X99623841Y-94990424D01*
X99623840Y-96574305D01*
X99621664Y-96596400D01*
X99623840Y-96618494D01*
X99623840Y-96618504D01*
X99630351Y-96684614D01*
X99651700Y-96754991D01*
X99656083Y-96769440D01*
X99697869Y-96847616D01*
X99707930Y-96859875D01*
X99754103Y-96916137D01*
X99771273Y-96930229D01*
X100142386Y-97301341D01*
X100142386Y-97996800D01*
X100149626Y-98070313D01*
X100171069Y-98141000D01*
X100205891Y-98206147D01*
X100252752Y-98263248D01*
X100309853Y-98310109D01*
X100375000Y-98344931D01*
X100445687Y-98366374D01*
X100519200Y-98373614D01*
X101919200Y-98373614D01*
X101992713Y-98366374D01*
X102063400Y-98344931D01*
X102128547Y-98310109D01*
X102185648Y-98263248D01*
X102232509Y-98206147D01*
X102267331Y-98141000D01*
X102288774Y-98070313D01*
X102296014Y-97996800D01*
X102296014Y-96846800D01*
X102288774Y-96773287D01*
X102267331Y-96702600D01*
X102232509Y-96637453D01*
X102185648Y-96580352D01*
X102128547Y-96533491D01*
X102063400Y-96498669D01*
X101992713Y-96477226D01*
X101919200Y-96469986D01*
X100583821Y-96469986D01*
X100523840Y-96410005D01*
X100523840Y-95154715D01*
X100605141Y-95073414D01*
X100795560Y-95073414D01*
X100896385Y-95063484D01*
X100993336Y-95034074D01*
X101082686Y-94986315D01*
X101161003Y-94922043D01*
X101225275Y-94843726D01*
X101273034Y-94754376D01*
X101302444Y-94657425D01*
X101312374Y-94556600D01*
X101312374Y-94366181D01*
X103002573Y-92675983D01*
X103019737Y-92661897D01*
X103033824Y-92644732D01*
X103033828Y-92644728D01*
X103075971Y-92593377D01*
X103117757Y-92515201D01*
X103129583Y-92476216D01*
X103143489Y-92430375D01*
X103150000Y-92364265D01*
X103150000Y-92364255D01*
X103152176Y-92342161D01*
X103150000Y-92320066D01*
X103150000Y-91742517D01*
X103165200Y-91744014D01*
X103459819Y-91744014D01*
X103761501Y-92045697D01*
X103761500Y-93837068D01*
X103728857Y-93863857D01*
X103664585Y-93942174D01*
X103616826Y-94031524D01*
X103587416Y-94128475D01*
X103577486Y-94229300D01*
X103577486Y-94569300D01*
X103587416Y-94670125D01*
X103616826Y-94767076D01*
X103664585Y-94856426D01*
X103675713Y-94869986D01*
X102719200Y-94869986D01*
X102645687Y-94877226D01*
X102575000Y-94898669D01*
X102509853Y-94933491D01*
X102452752Y-94980352D01*
X102405891Y-95037453D01*
X102371069Y-95102600D01*
X102349626Y-95173287D01*
X102342386Y-95246800D01*
X102342386Y-96396800D01*
X102349626Y-96470313D01*
X102371069Y-96541000D01*
X102405891Y-96606147D01*
X102418737Y-96621800D01*
X102405891Y-96637453D01*
X102371069Y-96702600D01*
X102349626Y-96773287D01*
X102342386Y-96846800D01*
X102342386Y-97996800D01*
X102349626Y-98070313D01*
X102371069Y-98141000D01*
X102405891Y-98206147D01*
X102452752Y-98263248D01*
X102509853Y-98310109D01*
X102575000Y-98344931D01*
X102645687Y-98366374D01*
X102719200Y-98373614D01*
X104119200Y-98373614D01*
X104192713Y-98366374D01*
X104263400Y-98344931D01*
X104328547Y-98310109D01*
X104385648Y-98263248D01*
X104432509Y-98206147D01*
X104467331Y-98141000D01*
X104488774Y-98070313D01*
X104496014Y-97996800D01*
X104496014Y-97453741D01*
X104844273Y-97105483D01*
X104861437Y-97091397D01*
X104875524Y-97074232D01*
X104875528Y-97074228D01*
X104917671Y-97022877D01*
X104959457Y-96944701D01*
X104969008Y-96913215D01*
X104985189Y-96859875D01*
X104991700Y-96793765D01*
X104991700Y-96793754D01*
X104993876Y-96771660D01*
X104991700Y-96749566D01*
X104991700Y-94985271D01*
X104993876Y-94963179D01*
X104991700Y-94941087D01*
X104991700Y-94941075D01*
X104985189Y-94874965D01*
X104959457Y-94790139D01*
X104947884Y-94768488D01*
X104917671Y-94711963D01*
X104881414Y-94667785D01*
X104891114Y-94569300D01*
X104891114Y-94229300D01*
X104881184Y-94128475D01*
X104851774Y-94031524D01*
X104804015Y-93942174D01*
X104739743Y-93863857D01*
X104661500Y-93799646D01*
X104661500Y-92321355D01*
X104729175Y-92341884D01*
X104830000Y-92351814D01*
X105170000Y-92351814D01*
X105270825Y-92341884D01*
X105367776Y-92312474D01*
X105450001Y-92268523D01*
X105450000Y-102938604D01*
X103713605Y-104675000D01*
X101622094Y-104675000D01*
X101599999Y-104672824D01*
X101577905Y-104675000D01*
X101577895Y-104675000D01*
X101511785Y-104681511D01*
X101426959Y-104707243D01*
X101348783Y-104749029D01*
X101297432Y-104791172D01*
X101297428Y-104791176D01*
X101280263Y-104805263D01*
X101266176Y-104822428D01*
X100847429Y-105241176D01*
X100830264Y-105255263D01*
X100816177Y-105272428D01*
X100816172Y-105272433D01*
X100774029Y-105323784D01*
X100732243Y-105401960D01*
X100724475Y-105427568D01*
X100706512Y-105486785D01*
X100701000Y-105542757D01*
X100697824Y-105575000D01*
X100700001Y-105597104D01*
X100700001Y-105785465D01*
X100569745Y-105839419D01*
X100369108Y-105973481D01*
X100198481Y-106144108D01*
X100064419Y-106344745D01*
X99972076Y-106567681D01*
X99925000Y-106804348D01*
X99925000Y-107045652D01*
X99972076Y-107282319D01*
X100064419Y-107505255D01*
X100198481Y-107705892D01*
X100369108Y-107876519D01*
X100569745Y-108010581D01*
X100792681Y-108102924D01*
X100903665Y-108125000D01*
X95198876Y-108125000D01*
X95330255Y-108070581D01*
X95530892Y-107936519D01*
X95701519Y-107765892D01*
X95835581Y-107565255D01*
X95927924Y-107342319D01*
X95975000Y-107105652D01*
X95975000Y-106864348D01*
X95927924Y-106627681D01*
X95868113Y-106483283D01*
X96227573Y-106123823D01*
X96244737Y-106109737D01*
X96258824Y-106092572D01*
X96258828Y-106092568D01*
X96300971Y-106041217D01*
X96342757Y-105963041D01*
X96346418Y-105950971D01*
X96368489Y-105878215D01*
X96375000Y-105812105D01*
X96375000Y-105812094D01*
X96377176Y-105790000D01*
X96375000Y-105767906D01*
X96375000Y-103860673D01*
X96827592Y-103408082D01*
X96844756Y-103393996D01*
X96858843Y-103376831D01*
X96858847Y-103376827D01*
X96900990Y-103325476D01*
X96942776Y-103247300D01*
X96944015Y-103243214D01*
X96968508Y-103162474D01*
X96975019Y-103096364D01*
X96975019Y-103096354D01*
X96977195Y-103074260D01*
X96975019Y-103052165D01*
X96975019Y-96489210D01*
X97152602Y-96311627D01*
X97169765Y-96297541D01*
X97183852Y-96280376D01*
X97183857Y-96280371D01*
X97226000Y-96229020D01*
X97267786Y-96150843D01*
X97274177Y-96129774D01*
X97293517Y-96066019D01*
X97300028Y-95999909D01*
X97300028Y-95999897D01*
X97302204Y-95977803D01*
X97300028Y-95955709D01*
X97300028Y-94059923D01*
X99684932Y-91675020D01*
X100980366Y-91675020D01*
X101002460Y-91677196D01*
X101024554Y-91675020D01*
X101024565Y-91675020D01*
X101090675Y-91668509D01*
X101175501Y-91642777D01*
X101253676Y-91600991D01*
X101322197Y-91544757D01*
X101336289Y-91527586D01*
X102248802Y-90615074D01*
X102247824Y-90625000D01*
G37*
G04 #@! TD.AperFunction*
D34*
X105750001Y-105797892D02*
X105649745Y-105839419D01*
X105449108Y-105973481D01*
X105278481Y-106144108D01*
X105144419Y-106344745D01*
X105052076Y-106567681D01*
X105005000Y-106804348D01*
X105005000Y-107045652D01*
X105052076Y-107282319D01*
X105144419Y-107505255D01*
X105278481Y-107705892D01*
X105449108Y-107876519D01*
X105649745Y-108010581D01*
X105872681Y-108102924D01*
X105983665Y-108125000D01*
X101396335Y-108125000D01*
X101507319Y-108102924D01*
X101730255Y-108010581D01*
X101930892Y-107876519D01*
X102101519Y-107705892D01*
X102235581Y-107505255D01*
X102327924Y-107282319D01*
X102375000Y-107045652D01*
X102375000Y-106804348D01*
X102327924Y-106567681D01*
X102235581Y-106344745D01*
X102101519Y-106144108D01*
X101930892Y-105973481D01*
X101730255Y-105839419D01*
X101600000Y-105785466D01*
X101600000Y-105761395D01*
X101786396Y-105575000D01*
X103877906Y-105575000D01*
X103900000Y-105577176D01*
X103922094Y-105575000D01*
X103922105Y-105575000D01*
X103988215Y-105568489D01*
X104073041Y-105542757D01*
X104151216Y-105500971D01*
X104219737Y-105444737D01*
X104233829Y-105427566D01*
X105750001Y-103911395D01*
X105750001Y-105797892D01*
G04 #@! TA.AperFunction,Conductor*
D26*
G36*
X105750001Y-105797892D02*
G01*
X105649745Y-105839419D01*
X105449108Y-105973481D01*
X105278481Y-106144108D01*
X105144419Y-106344745D01*
X105052076Y-106567681D01*
X105005000Y-106804348D01*
X105005000Y-107045652D01*
X105052076Y-107282319D01*
X105144419Y-107505255D01*
X105278481Y-107705892D01*
X105449108Y-107876519D01*
X105649745Y-108010581D01*
X105872681Y-108102924D01*
X105983665Y-108125000D01*
X101396335Y-108125000D01*
X101507319Y-108102924D01*
X101730255Y-108010581D01*
X101930892Y-107876519D01*
X102101519Y-107705892D01*
X102235581Y-107505255D01*
X102327924Y-107282319D01*
X102375000Y-107045652D01*
X102375000Y-106804348D01*
X102327924Y-106567681D01*
X102235581Y-106344745D01*
X102101519Y-106144108D01*
X101930892Y-105973481D01*
X101730255Y-105839419D01*
X101600000Y-105785466D01*
X101600000Y-105761395D01*
X101786396Y-105575000D01*
X103877906Y-105575000D01*
X103900000Y-105577176D01*
X103922094Y-105575000D01*
X103922105Y-105575000D01*
X103988215Y-105568489D01*
X104073041Y-105542757D01*
X104151216Y-105500971D01*
X104219737Y-105444737D01*
X104233829Y-105427566D01*
X105750001Y-103911395D01*
X105750001Y-105797892D01*
G37*
G04 #@! TD.AperFunction*
D34*
X109649963Y-92635637D02*
X109649962Y-94802867D01*
X109647786Y-94824962D01*
X109649962Y-94847056D01*
X109649962Y-94847066D01*
X109656473Y-94913176D01*
X109677197Y-94981492D01*
X109682205Y-94998002D01*
X109723991Y-95076178D01*
X109765842Y-95127173D01*
X109780225Y-95144699D01*
X109797395Y-95158790D01*
X110249980Y-95611376D01*
X110249982Y-98301433D01*
X110247805Y-98323537D01*
X110256493Y-98411752D01*
X110282224Y-98496577D01*
X110324010Y-98574753D01*
X110366153Y-98626104D01*
X110366158Y-98626109D01*
X110380245Y-98643274D01*
X110397410Y-98657361D01*
X110549991Y-98809942D01*
X110549990Y-103257174D01*
X110547814Y-103279268D01*
X110549990Y-103301362D01*
X110549990Y-103301372D01*
X110556501Y-103367482D01*
X110573361Y-103423062D01*
X110582233Y-103452308D01*
X110624019Y-103530484D01*
X110655209Y-103568489D01*
X110680253Y-103599005D01*
X110697424Y-103613097D01*
X110850001Y-103765674D01*
X110850000Y-104902905D01*
X110847824Y-104925000D01*
X110850000Y-104947094D01*
X110850000Y-104947104D01*
X110856511Y-105013214D01*
X110882243Y-105098040D01*
X110924029Y-105176216D01*
X110964797Y-105225892D01*
X110980263Y-105244737D01*
X110997434Y-105258829D01*
X111770893Y-106032288D01*
X111769108Y-106033481D01*
X111598481Y-106204108D01*
X111464419Y-106404745D01*
X111372076Y-106627681D01*
X111325000Y-106864348D01*
X111325000Y-107105652D01*
X111372076Y-107342319D01*
X111464419Y-107565255D01*
X111598481Y-107765892D01*
X111769108Y-107936519D01*
X111969745Y-108070581D01*
X112101124Y-108125000D01*
X106476335Y-108125000D01*
X106587319Y-108102924D01*
X106810255Y-108010581D01*
X107010892Y-107876519D01*
X107181519Y-107705892D01*
X107315581Y-107505255D01*
X107407924Y-107282319D01*
X107455000Y-107045652D01*
X107455000Y-106804348D01*
X107407924Y-106567681D01*
X107315581Y-106344745D01*
X107181519Y-106144108D01*
X107010892Y-105973481D01*
X106810255Y-105839419D01*
X106650000Y-105773039D01*
X106650000Y-92287118D01*
X106890454Y-92527572D01*
X106904541Y-92544737D01*
X106921706Y-92558824D01*
X106921710Y-92558828D01*
X106973061Y-92600971D01*
X107051237Y-92642757D01*
X107071410Y-92648876D01*
X107075693Y-92655287D01*
X107169713Y-92749307D01*
X107280268Y-92823177D01*
X107403110Y-92874060D01*
X107533518Y-92900000D01*
X107666482Y-92900000D01*
X107796890Y-92874060D01*
X107919732Y-92823177D01*
X108030287Y-92749307D01*
X108124307Y-92655287D01*
X108198177Y-92544732D01*
X108249060Y-92421890D01*
X108275000Y-92291482D01*
X108275000Y-92158518D01*
X108249060Y-92028110D01*
X108238284Y-92002094D01*
X109016421Y-92002094D01*
X109649963Y-92635637D01*
G04 #@! TA.AperFunction,Conductor*
D26*
G36*
X109649963Y-92635637D02*
G01*
X109649962Y-94802867D01*
X109647786Y-94824962D01*
X109649962Y-94847056D01*
X109649962Y-94847066D01*
X109656473Y-94913176D01*
X109677197Y-94981492D01*
X109682205Y-94998002D01*
X109723991Y-95076178D01*
X109765842Y-95127173D01*
X109780225Y-95144699D01*
X109797395Y-95158790D01*
X110249980Y-95611376D01*
X110249982Y-98301433D01*
X110247805Y-98323537D01*
X110256493Y-98411752D01*
X110282224Y-98496577D01*
X110324010Y-98574753D01*
X110366153Y-98626104D01*
X110366158Y-98626109D01*
X110380245Y-98643274D01*
X110397410Y-98657361D01*
X110549991Y-98809942D01*
X110549990Y-103257174D01*
X110547814Y-103279268D01*
X110549990Y-103301362D01*
X110549990Y-103301372D01*
X110556501Y-103367482D01*
X110573361Y-103423062D01*
X110582233Y-103452308D01*
X110624019Y-103530484D01*
X110655209Y-103568489D01*
X110680253Y-103599005D01*
X110697424Y-103613097D01*
X110850001Y-103765674D01*
X110850000Y-104902905D01*
X110847824Y-104925000D01*
X110850000Y-104947094D01*
X110850000Y-104947104D01*
X110856511Y-105013214D01*
X110882243Y-105098040D01*
X110924029Y-105176216D01*
X110964797Y-105225892D01*
X110980263Y-105244737D01*
X110997434Y-105258829D01*
X111770893Y-106032288D01*
X111769108Y-106033481D01*
X111598481Y-106204108D01*
X111464419Y-106404745D01*
X111372076Y-106627681D01*
X111325000Y-106864348D01*
X111325000Y-107105652D01*
X111372076Y-107342319D01*
X111464419Y-107565255D01*
X111598481Y-107765892D01*
X111769108Y-107936519D01*
X111969745Y-108070581D01*
X112101124Y-108125000D01*
X106476335Y-108125000D01*
X106587319Y-108102924D01*
X106810255Y-108010581D01*
X107010892Y-107876519D01*
X107181519Y-107705892D01*
X107315581Y-107505255D01*
X107407924Y-107282319D01*
X107455000Y-107045652D01*
X107455000Y-106804348D01*
X107407924Y-106567681D01*
X107315581Y-106344745D01*
X107181519Y-106144108D01*
X107010892Y-105973481D01*
X106810255Y-105839419D01*
X106650000Y-105773039D01*
X106650000Y-92287118D01*
X106890454Y-92527572D01*
X106904541Y-92544737D01*
X106921706Y-92558824D01*
X106921710Y-92558828D01*
X106973061Y-92600971D01*
X107051237Y-92642757D01*
X107071410Y-92648876D01*
X107075693Y-92655287D01*
X107169713Y-92749307D01*
X107280268Y-92823177D01*
X107403110Y-92874060D01*
X107533518Y-92900000D01*
X107666482Y-92900000D01*
X107796890Y-92874060D01*
X107919732Y-92823177D01*
X108030287Y-92749307D01*
X108124307Y-92655287D01*
X108198177Y-92544732D01*
X108249060Y-92421890D01*
X108275000Y-92291482D01*
X108275000Y-92158518D01*
X108249060Y-92028110D01*
X108238284Y-92002094D01*
X109016421Y-92002094D01*
X109649963Y-92635637D01*
G37*
G04 #@! TD.AperFunction*
D34*
X95775011Y-102763593D02*
X95223433Y-103315172D01*
X95107319Y-103267076D01*
X94870652Y-103220000D01*
X94818419Y-103220000D01*
X94800000Y-103218186D01*
X93500000Y-103218186D01*
X93500000Y-100591814D01*
X94800000Y-100591814D01*
X94818419Y-100590000D01*
X94870652Y-100590000D01*
X95107319Y-100542924D01*
X95330255Y-100450581D01*
X95530892Y-100316519D01*
X95701519Y-100145892D01*
X95775011Y-100035905D01*
X95775011Y-102763593D01*
G04 #@! TA.AperFunction,Conductor*
D26*
G36*
X95775011Y-102763593D02*
G01*
X95223433Y-103315172D01*
X95107319Y-103267076D01*
X94870652Y-103220000D01*
X94818419Y-103220000D01*
X94800000Y-103218186D01*
X93500000Y-103218186D01*
X93500000Y-100591814D01*
X94800000Y-100591814D01*
X94818419Y-100590000D01*
X94870652Y-100590000D01*
X95107319Y-100542924D01*
X95330255Y-100450581D01*
X95530892Y-100316519D01*
X95701519Y-100145892D01*
X95775011Y-100035905D01*
X95775011Y-102763593D01*
G37*
G04 #@! TD.AperFunction*
D34*
X111769108Y-100316519D02*
X111969745Y-100450581D01*
X112192681Y-100542924D01*
X112429348Y-100590000D01*
X112481581Y-100590000D01*
X112500000Y-100591814D01*
X113790000Y-100591814D01*
X113790000Y-103218186D01*
X112500000Y-103218186D01*
X112481581Y-103220000D01*
X112429348Y-103220000D01*
X112192681Y-103267076D01*
X112090709Y-103309314D01*
X111750000Y-102968605D01*
X111750000Y-100297411D01*
X111769108Y-100316519D01*
G04 #@! TA.AperFunction,Conductor*
D26*
G36*
X111769108Y-100316519D02*
G01*
X111969745Y-100450581D01*
X112192681Y-100542924D01*
X112429348Y-100590000D01*
X112481581Y-100590000D01*
X112500000Y-100591814D01*
X113790000Y-100591814D01*
X113790000Y-103218186D01*
X112500000Y-103218186D01*
X112481581Y-103220000D01*
X112429348Y-103220000D01*
X112192681Y-103267076D01*
X112090709Y-103309314D01*
X111750000Y-102968605D01*
X111750000Y-100297411D01*
X111769108Y-100316519D01*
G37*
G04 #@! TD.AperFunction*
D34*
X109649972Y-89879204D02*
X109649973Y-90505702D01*
X109647796Y-90527806D01*
X109656484Y-90616021D01*
X109682215Y-90700846D01*
X109724001Y-90779022D01*
X109766144Y-90830373D01*
X109766149Y-90830378D01*
X109780236Y-90847543D01*
X109797401Y-90861630D01*
X110249980Y-91314210D01*
X110249980Y-91538585D01*
X109660911Y-90949516D01*
X109646821Y-90932347D01*
X109578300Y-90876113D01*
X109500125Y-90834327D01*
X109415299Y-90808595D01*
X109349189Y-90802084D01*
X109349178Y-90802084D01*
X109327084Y-90799908D01*
X109304990Y-90802084D01*
X107286314Y-90802084D01*
X106740000Y-90255771D01*
X106740000Y-89994627D01*
X106758613Y-89933267D01*
X106766814Y-89850000D01*
X106766814Y-89174801D01*
X106806152Y-89142520D01*
X106839563Y-89101814D01*
X107515000Y-89101814D01*
X107598267Y-89093613D01*
X107659627Y-89075000D01*
X108845769Y-89075000D01*
X109649972Y-89879204D01*
G04 #@! TA.AperFunction,Conductor*
D26*
G36*
X109649972Y-89879204D02*
G01*
X109649973Y-90505702D01*
X109647796Y-90527806D01*
X109656484Y-90616021D01*
X109682215Y-90700846D01*
X109724001Y-90779022D01*
X109766144Y-90830373D01*
X109766149Y-90830378D01*
X109780236Y-90847543D01*
X109797401Y-90861630D01*
X110249980Y-91314210D01*
X110249980Y-91538585D01*
X109660911Y-90949516D01*
X109646821Y-90932347D01*
X109578300Y-90876113D01*
X109500125Y-90834327D01*
X109415299Y-90808595D01*
X109349189Y-90802084D01*
X109349178Y-90802084D01*
X109327084Y-90799908D01*
X109304990Y-90802084D01*
X107286314Y-90802084D01*
X106740000Y-90255771D01*
X106740000Y-89994627D01*
X106758613Y-89933267D01*
X106766814Y-89850000D01*
X106766814Y-89174801D01*
X106806152Y-89142520D01*
X106839563Y-89101814D01*
X107515000Y-89101814D01*
X107598267Y-89093613D01*
X107659627Y-89075000D01*
X108845769Y-89075000D01*
X109649972Y-89879204D01*
G37*
G04 #@! TD.AperFunction*
D34*
X95314932Y-87966328D02*
X95314937Y-87966332D01*
X96376176Y-89027572D01*
X96390263Y-89044737D01*
X96407428Y-89058824D01*
X96407432Y-89058828D01*
X96458783Y-89100971D01*
X96534985Y-89141702D01*
X96536959Y-89142757D01*
X96621785Y-89168489D01*
X96687895Y-89175000D01*
X96687907Y-89175000D01*
X96709999Y-89177176D01*
X96732091Y-89175000D01*
X98670767Y-89175000D01*
X98692861Y-89177176D01*
X98713456Y-89175148D01*
X96553605Y-91335000D01*
X95906103Y-91335000D01*
X95835581Y-91164745D01*
X95701519Y-90964108D01*
X95530892Y-90793481D01*
X95330255Y-90659419D01*
X95107319Y-90567076D01*
X94870652Y-90520000D01*
X94808419Y-90520000D01*
X94790000Y-90518186D01*
X93500000Y-90518186D01*
X93500000Y-87891814D01*
X94800000Y-87891814D01*
X94818419Y-87890000D01*
X94870652Y-87890000D01*
X95107319Y-87842924D01*
X95166864Y-87818260D01*
X95314932Y-87966328D01*
G04 #@! TA.AperFunction,Conductor*
D26*
G36*
X95314932Y-87966328D02*
G01*
X95314937Y-87966332D01*
X96376176Y-89027572D01*
X96390263Y-89044737D01*
X96407428Y-89058824D01*
X96407432Y-89058828D01*
X96458783Y-89100971D01*
X96534985Y-89141702D01*
X96536959Y-89142757D01*
X96621785Y-89168489D01*
X96687895Y-89175000D01*
X96687907Y-89175000D01*
X96709999Y-89177176D01*
X96732091Y-89175000D01*
X98670767Y-89175000D01*
X98692861Y-89177176D01*
X98713456Y-89175148D01*
X96553605Y-91335000D01*
X95906103Y-91335000D01*
X95835581Y-91164745D01*
X95701519Y-90964108D01*
X95530892Y-90793481D01*
X95330255Y-90659419D01*
X95107319Y-90567076D01*
X94870652Y-90520000D01*
X94808419Y-90520000D01*
X94790000Y-90518186D01*
X93500000Y-90518186D01*
X93500000Y-87891814D01*
X94800000Y-87891814D01*
X94818419Y-87890000D01*
X94870652Y-87890000D01*
X95107319Y-87842924D01*
X95166864Y-87818260D01*
X95314932Y-87966328D01*
G37*
G04 #@! TD.AperFunction*
D34*
X111372076Y-87022319D02*
X111464419Y-87245255D01*
X111598481Y-87445892D01*
X111769108Y-87616519D01*
X111969745Y-87750581D01*
X112192681Y-87842924D01*
X112429348Y-87890000D01*
X112481581Y-87890000D01*
X112500000Y-87891814D01*
X113790000Y-87891814D01*
X113790000Y-90518186D01*
X112500000Y-90518186D01*
X112481581Y-90520000D01*
X112429348Y-90520000D01*
X112192681Y-90567076D01*
X112090709Y-90609314D01*
X111450000Y-89968605D01*
X111450000Y-89342096D01*
X111452176Y-89320002D01*
X111450000Y-89297908D01*
X111450000Y-89297897D01*
X111443489Y-89231787D01*
X111417757Y-89146961D01*
X111393625Y-89101814D01*
X111375971Y-89068785D01*
X111333828Y-89017434D01*
X111333824Y-89017430D01*
X111319737Y-89000265D01*
X111302573Y-88986179D01*
X109990262Y-87673868D01*
X109992616Y-87673154D01*
X110081966Y-87625395D01*
X110160283Y-87561123D01*
X110224555Y-87482806D01*
X110240721Y-87452561D01*
X110273041Y-87442757D01*
X110351216Y-87400971D01*
X110419737Y-87344737D01*
X110475971Y-87276216D01*
X110517757Y-87198041D01*
X110543489Y-87113215D01*
X110552177Y-87025000D01*
X110543805Y-86939990D01*
X111355700Y-86939990D01*
X111372076Y-87022319D01*
G04 #@! TA.AperFunction,Conductor*
D26*
G36*
X111372076Y-87022319D02*
G01*
X111464419Y-87245255D01*
X111598481Y-87445892D01*
X111769108Y-87616519D01*
X111969745Y-87750581D01*
X112192681Y-87842924D01*
X112429348Y-87890000D01*
X112481581Y-87890000D01*
X112500000Y-87891814D01*
X113790000Y-87891814D01*
X113790000Y-90518186D01*
X112500000Y-90518186D01*
X112481581Y-90520000D01*
X112429348Y-90520000D01*
X112192681Y-90567076D01*
X112090709Y-90609314D01*
X111450000Y-89968605D01*
X111450000Y-89342096D01*
X111452176Y-89320002D01*
X111450000Y-89297908D01*
X111450000Y-89297897D01*
X111443489Y-89231787D01*
X111417757Y-89146961D01*
X111393625Y-89101814D01*
X111375971Y-89068785D01*
X111333828Y-89017434D01*
X111333824Y-89017430D01*
X111319737Y-89000265D01*
X111302573Y-88986179D01*
X109990262Y-87673868D01*
X109992616Y-87673154D01*
X110081966Y-87625395D01*
X110160283Y-87561123D01*
X110224555Y-87482806D01*
X110240721Y-87452561D01*
X110273041Y-87442757D01*
X110351216Y-87400971D01*
X110419737Y-87344737D01*
X110475971Y-87276216D01*
X110517757Y-87198041D01*
X110543489Y-87113215D01*
X110552177Y-87025000D01*
X110543805Y-86939990D01*
X111355700Y-86939990D01*
X111372076Y-87022319D01*
G37*
G04 #@! TD.AperFunction*
D34*
X100568036Y-89139896D02*
X100613186Y-89176952D01*
X100613186Y-89302918D01*
X100041105Y-89875000D01*
X99776396Y-89875000D01*
X100542553Y-89108843D01*
X100568036Y-89139896D01*
G04 #@! TA.AperFunction,Conductor*
D26*
G36*
X100568036Y-89139896D02*
G01*
X100613186Y-89176952D01*
X100613186Y-89302918D01*
X100041105Y-89875000D01*
X99776396Y-89875000D01*
X100542553Y-89108843D01*
X100568036Y-89139896D01*
G37*
G04 #@! TD.AperFunction*
D34*
X96546176Y-86927572D02*
X96560263Y-86944737D01*
X96577428Y-86958824D01*
X96577432Y-86958828D01*
X96628783Y-87000971D01*
X96703618Y-87040971D01*
X96706959Y-87042757D01*
X96791785Y-87068489D01*
X96857895Y-87075000D01*
X96857905Y-87075000D01*
X96880000Y-87077176D01*
X96902094Y-87075000D01*
X97662740Y-87075000D01*
X97661826Y-87084280D01*
X97661826Y-87424280D01*
X97671756Y-87525105D01*
X97701166Y-87622056D01*
X97748925Y-87711406D01*
X97813197Y-87789723D01*
X97891514Y-87853995D01*
X97980864Y-87901754D01*
X98077815Y-87931164D01*
X98178640Y-87941094D01*
X98407511Y-87941094D01*
X98373605Y-87975000D01*
X97020674Y-87975000D01*
X96324988Y-87279315D01*
X96324988Y-86706384D01*
X96546176Y-86927572D01*
G04 #@! TA.AperFunction,Conductor*
D26*
G36*
X96546176Y-86927572D02*
G01*
X96560263Y-86944737D01*
X96577428Y-86958824D01*
X96577432Y-86958828D01*
X96628783Y-87000971D01*
X96703618Y-87040971D01*
X96706959Y-87042757D01*
X96791785Y-87068489D01*
X96857895Y-87075000D01*
X96857905Y-87075000D01*
X96880000Y-87077176D01*
X96902094Y-87075000D01*
X97662740Y-87075000D01*
X97661826Y-87084280D01*
X97661826Y-87424280D01*
X97671756Y-87525105D01*
X97701166Y-87622056D01*
X97748925Y-87711406D01*
X97813197Y-87789723D01*
X97891514Y-87853995D01*
X97980864Y-87901754D01*
X98077815Y-87931164D01*
X98178640Y-87941094D01*
X98407511Y-87941094D01*
X98373605Y-87975000D01*
X97020674Y-87975000D01*
X96324988Y-87279315D01*
X96324988Y-86706384D01*
X96546176Y-86927572D01*
G37*
G04 #@! TD.AperFunction*
D34*
X105065016Y-87400000D02*
X102315000Y-87400000D01*
X102315000Y-84650000D01*
X105065130Y-84650000D01*
X105065016Y-87400000D01*
G04 #@! TA.AperFunction,Conductor*
D26*
G36*
X105065016Y-87400000D02*
G01*
X102315000Y-87400000D01*
X102315000Y-84650000D01*
X105065130Y-84650000D01*
X105065016Y-87400000D01*
G37*
G04 #@! TD.AperFunction*
D34*
X112192681Y-82762924D02*
X112429348Y-82810000D01*
X112481581Y-82810000D01*
X112500000Y-82811814D01*
X113790001Y-82811814D01*
X113790000Y-82898186D01*
X112500000Y-82898186D01*
X112481581Y-82900000D01*
X112429348Y-82900000D01*
X112192681Y-82947076D01*
X111969745Y-83039419D01*
X111769108Y-83173481D01*
X111598481Y-83344108D01*
X111464419Y-83544745D01*
X111372076Y-83767681D01*
X111325000Y-84004348D01*
X111325000Y-84245652D01*
X111372076Y-84482319D01*
X111464419Y-84705255D01*
X111598481Y-84905892D01*
X111769108Y-85076519D01*
X111969745Y-85210581D01*
X112192681Y-85302924D01*
X112429348Y-85350000D01*
X112481581Y-85350000D01*
X112500000Y-85351814D01*
X113790000Y-85351814D01*
X113790000Y-85438186D01*
X112500000Y-85438186D01*
X112481581Y-85440000D01*
X112429348Y-85440000D01*
X112192681Y-85487076D01*
X111969745Y-85579419D01*
X111769108Y-85713481D01*
X111598481Y-85884108D01*
X111494323Y-86039990D01*
X111332475Y-86039990D01*
X111342219Y-86007869D01*
X111352294Y-85905580D01*
X111352294Y-85610580D01*
X111342219Y-85508291D01*
X111312383Y-85409934D01*
X111263931Y-85319287D01*
X111198726Y-85239834D01*
X111119273Y-85174629D01*
X111028626Y-85126177D01*
X110930269Y-85096341D01*
X110827980Y-85086266D01*
X110482980Y-85086266D01*
X110380691Y-85096341D01*
X110319880Y-85114788D01*
X110300134Y-85049697D01*
X110252838Y-84961211D01*
X110189187Y-84883653D01*
X110111629Y-84820002D01*
X110023143Y-84772706D01*
X109989036Y-84762359D01*
X112048283Y-82703113D01*
X112192681Y-82762924D01*
G04 #@! TA.AperFunction,Conductor*
D26*
G36*
X112192681Y-82762924D02*
G01*
X112429348Y-82810000D01*
X112481581Y-82810000D01*
X112500000Y-82811814D01*
X113790001Y-82811814D01*
X113790000Y-82898186D01*
X112500000Y-82898186D01*
X112481581Y-82900000D01*
X112429348Y-82900000D01*
X112192681Y-82947076D01*
X111969745Y-83039419D01*
X111769108Y-83173481D01*
X111598481Y-83344108D01*
X111464419Y-83544745D01*
X111372076Y-83767681D01*
X111325000Y-84004348D01*
X111325000Y-84245652D01*
X111372076Y-84482319D01*
X111464419Y-84705255D01*
X111598481Y-84905892D01*
X111769108Y-85076519D01*
X111969745Y-85210581D01*
X112192681Y-85302924D01*
X112429348Y-85350000D01*
X112481581Y-85350000D01*
X112500000Y-85351814D01*
X113790000Y-85351814D01*
X113790000Y-85438186D01*
X112500000Y-85438186D01*
X112481581Y-85440000D01*
X112429348Y-85440000D01*
X112192681Y-85487076D01*
X111969745Y-85579419D01*
X111769108Y-85713481D01*
X111598481Y-85884108D01*
X111494323Y-86039990D01*
X111332475Y-86039990D01*
X111342219Y-86007869D01*
X111352294Y-85905580D01*
X111352294Y-85610580D01*
X111342219Y-85508291D01*
X111312383Y-85409934D01*
X111263931Y-85319287D01*
X111198726Y-85239834D01*
X111119273Y-85174629D01*
X111028626Y-85126177D01*
X110930269Y-85096341D01*
X110827980Y-85086266D01*
X110482980Y-85086266D01*
X110380691Y-85096341D01*
X110319880Y-85114788D01*
X110300134Y-85049697D01*
X110252838Y-84961211D01*
X110189187Y-84883653D01*
X110111629Y-84820002D01*
X110023143Y-84772706D01*
X109989036Y-84762359D01*
X112048283Y-82703113D01*
X112192681Y-82762924D01*
G37*
G04 #@! TD.AperFunction*
D34*
X97071896Y-84232570D02*
X97085983Y-84249735D01*
X97103148Y-84263822D01*
X97103152Y-84263826D01*
X97154503Y-84305969D01*
X97195926Y-84328110D01*
X97232679Y-84347755D01*
X97317505Y-84373487D01*
X97383615Y-84379998D01*
X97383627Y-84379998D01*
X97405719Y-84382174D01*
X97427811Y-84379998D01*
X98000619Y-84379998D01*
X97985000Y-84458518D01*
X97985000Y-84591482D01*
X98010172Y-84718027D01*
X97980639Y-84737760D01*
X97886619Y-84831780D01*
X97812749Y-84942335D01*
X97770227Y-85044993D01*
X97750456Y-85044993D01*
X97620048Y-85070933D01*
X97497206Y-85121816D01*
X97386651Y-85195686D01*
X97364849Y-85217488D01*
X97349060Y-85138110D01*
X97298177Y-85015268D01*
X97224307Y-84904713D01*
X97130287Y-84810693D01*
X97019732Y-84736823D01*
X96896890Y-84685940D01*
X96766482Y-84660000D01*
X96633518Y-84660000D01*
X96624999Y-84661695D01*
X96624999Y-83794927D01*
X96625829Y-83786502D01*
X97071896Y-84232570D01*
G04 #@! TA.AperFunction,Conductor*
D26*
G36*
X97071896Y-84232570D02*
G01*
X97085983Y-84249735D01*
X97103148Y-84263822D01*
X97103152Y-84263826D01*
X97154503Y-84305969D01*
X97195926Y-84328110D01*
X97232679Y-84347755D01*
X97317505Y-84373487D01*
X97383615Y-84379998D01*
X97383627Y-84379998D01*
X97405719Y-84382174D01*
X97427811Y-84379998D01*
X98000619Y-84379998D01*
X97985000Y-84458518D01*
X97985000Y-84591482D01*
X98010172Y-84718027D01*
X97980639Y-84737760D01*
X97886619Y-84831780D01*
X97812749Y-84942335D01*
X97770227Y-85044993D01*
X97750456Y-85044993D01*
X97620048Y-85070933D01*
X97497206Y-85121816D01*
X97386651Y-85195686D01*
X97364849Y-85217488D01*
X97349060Y-85138110D01*
X97298177Y-85015268D01*
X97224307Y-84904713D01*
X97130287Y-84810693D01*
X97019732Y-84736823D01*
X96896890Y-84685940D01*
X96766482Y-84660000D01*
X96633518Y-84660000D01*
X96624999Y-84661695D01*
X96624999Y-83794927D01*
X96625829Y-83786502D01*
X97071896Y-84232570D01*
G37*
G04 #@! TD.AperFunction*
D34*
X96024971Y-68356367D02*
X96024970Y-82977154D01*
X96024140Y-82985579D01*
X95989999Y-82951438D01*
X95989999Y-82497093D01*
X95992175Y-82474998D01*
X95989999Y-82452904D01*
X95989999Y-82452894D01*
X95983488Y-82386784D01*
X95957756Y-82301958D01*
X95953724Y-82294415D01*
X95915970Y-82223782D01*
X95873827Y-82172431D01*
X95873823Y-82172427D01*
X95859736Y-82155262D01*
X95844798Y-82143003D01*
X95927924Y-81942319D01*
X95975000Y-81705652D01*
X95975000Y-81464348D01*
X95927924Y-81227681D01*
X95835581Y-81004745D01*
X95701519Y-80804108D01*
X95530892Y-80633481D01*
X95330255Y-80499419D01*
X95107319Y-80407076D01*
X94870652Y-80360000D01*
X94818419Y-80360000D01*
X94800000Y-80358186D01*
X93500000Y-80358186D01*
X93500000Y-80271814D01*
X94810000Y-80271814D01*
X94828419Y-80270000D01*
X94870652Y-80270000D01*
X95107319Y-80222924D01*
X95330255Y-80130581D01*
X95530892Y-79996519D01*
X95701519Y-79825892D01*
X95835581Y-79625255D01*
X95927924Y-79402319D01*
X95975000Y-79165652D01*
X95975000Y-78924348D01*
X95927924Y-78687681D01*
X95835581Y-78464745D01*
X95701519Y-78264108D01*
X95530892Y-78093481D01*
X95330255Y-77959419D01*
X95107319Y-77867076D01*
X94870652Y-77820000D01*
X94828419Y-77820000D01*
X94810000Y-77818186D01*
X93500000Y-77818186D01*
X93500000Y-75191814D01*
X94800000Y-75191814D01*
X94818419Y-75190000D01*
X94870652Y-75190000D01*
X95107319Y-75142924D01*
X95330255Y-75050581D01*
X95530892Y-74916519D01*
X95701519Y-74745892D01*
X95835581Y-74545255D01*
X95927924Y-74322319D01*
X95975000Y-74085652D01*
X95975000Y-73844348D01*
X95927924Y-73607681D01*
X95835581Y-73384745D01*
X95701519Y-73184108D01*
X95530892Y-73013481D01*
X95330255Y-72879419D01*
X95107319Y-72787076D01*
X94870652Y-72740000D01*
X94818419Y-72740000D01*
X94800000Y-72738186D01*
X93500000Y-72738186D01*
X93500000Y-72651814D01*
X94800000Y-72651814D01*
X94818419Y-72650000D01*
X94870652Y-72650000D01*
X95107319Y-72602924D01*
X95330255Y-72510581D01*
X95530892Y-72376519D01*
X95701519Y-72205892D01*
X95835581Y-72005255D01*
X95927924Y-71782319D01*
X95975000Y-71545652D01*
X95975000Y-71304348D01*
X95927924Y-71067681D01*
X95835581Y-70844745D01*
X95701519Y-70644108D01*
X95530892Y-70473481D01*
X95330255Y-70339419D01*
X95107319Y-70247076D01*
X94870652Y-70200000D01*
X94818419Y-70200000D01*
X94800000Y-70198186D01*
X93500000Y-70198186D01*
X93500000Y-70111814D01*
X94800000Y-70111814D01*
X94818419Y-70110000D01*
X94870652Y-70110000D01*
X95107319Y-70062924D01*
X95330255Y-69970581D01*
X95530892Y-69836519D01*
X95701519Y-69665892D01*
X95835581Y-69465255D01*
X95927924Y-69242319D01*
X95975000Y-69005652D01*
X95975000Y-68764348D01*
X95927924Y-68527681D01*
X95835581Y-68304745D01*
X95701519Y-68104108D01*
X95530892Y-67933481D01*
X95330255Y-67799419D01*
X95107319Y-67707076D01*
X94870652Y-67660000D01*
X94818419Y-67660000D01*
X94800000Y-67658186D01*
X93500000Y-67658186D01*
X93500000Y-67561814D01*
X94588194Y-67561814D01*
X94629348Y-67570000D01*
X94870652Y-67570000D01*
X95107319Y-67522924D01*
X95166864Y-67498260D01*
X96024971Y-68356367D01*
G04 #@! TA.AperFunction,Conductor*
D26*
G36*
X96024971Y-68356367D02*
G01*
X96024970Y-82977154D01*
X96024140Y-82985579D01*
X95989999Y-82951438D01*
X95989999Y-82497093D01*
X95992175Y-82474998D01*
X95989999Y-82452904D01*
X95989999Y-82452894D01*
X95983488Y-82386784D01*
X95957756Y-82301958D01*
X95953724Y-82294415D01*
X95915970Y-82223782D01*
X95873827Y-82172431D01*
X95873823Y-82172427D01*
X95859736Y-82155262D01*
X95844798Y-82143003D01*
X95927924Y-81942319D01*
X95975000Y-81705652D01*
X95975000Y-81464348D01*
X95927924Y-81227681D01*
X95835581Y-81004745D01*
X95701519Y-80804108D01*
X95530892Y-80633481D01*
X95330255Y-80499419D01*
X95107319Y-80407076D01*
X94870652Y-80360000D01*
X94818419Y-80360000D01*
X94800000Y-80358186D01*
X93500000Y-80358186D01*
X93500000Y-80271814D01*
X94810000Y-80271814D01*
X94828419Y-80270000D01*
X94870652Y-80270000D01*
X95107319Y-80222924D01*
X95330255Y-80130581D01*
X95530892Y-79996519D01*
X95701519Y-79825892D01*
X95835581Y-79625255D01*
X95927924Y-79402319D01*
X95975000Y-79165652D01*
X95975000Y-78924348D01*
X95927924Y-78687681D01*
X95835581Y-78464745D01*
X95701519Y-78264108D01*
X95530892Y-78093481D01*
X95330255Y-77959419D01*
X95107319Y-77867076D01*
X94870652Y-77820000D01*
X94828419Y-77820000D01*
X94810000Y-77818186D01*
X93500000Y-77818186D01*
X93500000Y-75191814D01*
X94800000Y-75191814D01*
X94818419Y-75190000D01*
X94870652Y-75190000D01*
X95107319Y-75142924D01*
X95330255Y-75050581D01*
X95530892Y-74916519D01*
X95701519Y-74745892D01*
X95835581Y-74545255D01*
X95927924Y-74322319D01*
X95975000Y-74085652D01*
X95975000Y-73844348D01*
X95927924Y-73607681D01*
X95835581Y-73384745D01*
X95701519Y-73184108D01*
X95530892Y-73013481D01*
X95330255Y-72879419D01*
X95107319Y-72787076D01*
X94870652Y-72740000D01*
X94818419Y-72740000D01*
X94800000Y-72738186D01*
X93500000Y-72738186D01*
X93500000Y-72651814D01*
X94800000Y-72651814D01*
X94818419Y-72650000D01*
X94870652Y-72650000D01*
X95107319Y-72602924D01*
X95330255Y-72510581D01*
X95530892Y-72376519D01*
X95701519Y-72205892D01*
X95835581Y-72005255D01*
X95927924Y-71782319D01*
X95975000Y-71545652D01*
X95975000Y-71304348D01*
X95927924Y-71067681D01*
X95835581Y-70844745D01*
X95701519Y-70644108D01*
X95530892Y-70473481D01*
X95330255Y-70339419D01*
X95107319Y-70247076D01*
X94870652Y-70200000D01*
X94818419Y-70200000D01*
X94800000Y-70198186D01*
X93500000Y-70198186D01*
X93500000Y-70111814D01*
X94800000Y-70111814D01*
X94818419Y-70110000D01*
X94870652Y-70110000D01*
X95107319Y-70062924D01*
X95330255Y-69970581D01*
X95530892Y-69836519D01*
X95701519Y-69665892D01*
X95835581Y-69465255D01*
X95927924Y-69242319D01*
X95975000Y-69005652D01*
X95975000Y-68764348D01*
X95927924Y-68527681D01*
X95835581Y-68304745D01*
X95701519Y-68104108D01*
X95530892Y-67933481D01*
X95330255Y-67799419D01*
X95107319Y-67707076D01*
X94870652Y-67660000D01*
X94818419Y-67660000D01*
X94800000Y-67658186D01*
X93500000Y-67658186D01*
X93500000Y-67561814D01*
X94588194Y-67561814D01*
X94629348Y-67570000D01*
X94870652Y-67570000D01*
X95107319Y-67522924D01*
X95166864Y-67498260D01*
X96024971Y-68356367D01*
G37*
G04 #@! TD.AperFunction*
D34*
X101044548Y-61636099D02*
X100991399Y-61699281D01*
X100956745Y-61764114D01*
X100935406Y-61834461D01*
X100928200Y-61907620D01*
X100928200Y-62507707D01*
X100914182Y-62501901D01*
X100778944Y-62475000D01*
X100641056Y-62475000D01*
X100505818Y-62501901D01*
X100378426Y-62554668D01*
X100263776Y-62631274D01*
X100166274Y-62728776D01*
X100089668Y-62843426D01*
X100036901Y-62970818D01*
X100010000Y-63106056D01*
X100010000Y-63243944D01*
X100036901Y-63379182D01*
X100089668Y-63506574D01*
X100166274Y-63621224D01*
X100263776Y-63718726D01*
X100378426Y-63795332D01*
X100420200Y-63812635D01*
X100420200Y-65400120D01*
X100427406Y-65473279D01*
X100448745Y-65543626D01*
X100483399Y-65608459D01*
X100530035Y-65665285D01*
X100586861Y-65711921D01*
X100651694Y-65746575D01*
X100722041Y-65767914D01*
X100795200Y-65775120D01*
X101186294Y-65775120D01*
X101162320Y-65854150D01*
X101152486Y-65954000D01*
X101152486Y-66224000D01*
X101162320Y-66323850D01*
X101191446Y-66419863D01*
X101238742Y-66508349D01*
X101302393Y-66585907D01*
X101379951Y-66649558D01*
X101468437Y-66696854D01*
X101564450Y-66725980D01*
X101664300Y-66735814D01*
X102034300Y-66735814D01*
X102134150Y-66725980D01*
X102230163Y-66696854D01*
X102318649Y-66649558D01*
X102396207Y-66585907D01*
X102459858Y-66508349D01*
X102507154Y-66419863D01*
X102536280Y-66323850D01*
X102546114Y-66224000D01*
X102546114Y-65954000D01*
X102536280Y-65854150D01*
X102507154Y-65758137D01*
X102487739Y-65721814D01*
X102500000Y-65721814D01*
X102573513Y-65714574D01*
X102600000Y-65706539D01*
X102626487Y-65714574D01*
X102700000Y-65721814D01*
X103000000Y-65721814D01*
X103073513Y-65714574D01*
X103100000Y-65706539D01*
X103126487Y-65714574D01*
X103200000Y-65721814D01*
X103500000Y-65721814D01*
X103573513Y-65714574D01*
X103600000Y-65706539D01*
X103626487Y-65714574D01*
X103700000Y-65721814D01*
X104000000Y-65721814D01*
X104073513Y-65714574D01*
X104100000Y-65706539D01*
X104126487Y-65714574D01*
X104200000Y-65721814D01*
X104375001Y-65721814D01*
X104375001Y-65858406D01*
X104365586Y-65954000D01*
X104365586Y-66224000D01*
X104375420Y-66323850D01*
X104404546Y-66419863D01*
X104451842Y-66508349D01*
X104515493Y-66585907D01*
X104593051Y-66649558D01*
X104681537Y-66696854D01*
X104777550Y-66725980D01*
X104877400Y-66735814D01*
X105247400Y-66735814D01*
X105347250Y-66725980D01*
X105443263Y-66696854D01*
X105531749Y-66649558D01*
X105609307Y-66585907D01*
X105672958Y-66508349D01*
X105720254Y-66419863D01*
X105749380Y-66323850D01*
X105759214Y-66224000D01*
X105759214Y-65954000D01*
X105749380Y-65854150D01*
X105724635Y-65772580D01*
X106403520Y-65772580D01*
X106476679Y-65765374D01*
X106547026Y-65744035D01*
X106611859Y-65709381D01*
X106668685Y-65662745D01*
X106715321Y-65605919D01*
X106749975Y-65541086D01*
X106771314Y-65470739D01*
X106778520Y-65397580D01*
X106778520Y-63813165D01*
X106821574Y-63795332D01*
X106936224Y-63718726D01*
X107033726Y-63621224D01*
X107110332Y-63506574D01*
X107163099Y-63379182D01*
X107190000Y-63243944D01*
X107190000Y-63106056D01*
X107163099Y-62970818D01*
X107110332Y-62843426D01*
X107033726Y-62728776D01*
X106936224Y-62631274D01*
X106821574Y-62554668D01*
X106778520Y-62536835D01*
X106778520Y-62523920D01*
X108590600Y-62523920D01*
X108590600Y-66222600D01*
X108254400Y-66222600D01*
X108183853Y-66229296D01*
X108113356Y-66250136D01*
X108048279Y-66284328D01*
X107991123Y-66330560D01*
X107944085Y-66387054D01*
X107908972Y-66451639D01*
X107887134Y-66521833D01*
X107879409Y-66594939D01*
X107878013Y-66791723D01*
X107872560Y-66791186D01*
X107602560Y-66791186D01*
X107502710Y-66801020D01*
X107406697Y-66830146D01*
X107318211Y-66877442D01*
X107240653Y-66941093D01*
X107222674Y-66963000D01*
X106480100Y-66963000D01*
X106454320Y-66960461D01*
X106428540Y-66963000D01*
X106428532Y-66963000D01*
X106351402Y-66970597D01*
X106252439Y-67000617D01*
X106161234Y-67049367D01*
X106101323Y-67098534D01*
X106101319Y-67098538D01*
X106081293Y-67114973D01*
X106064858Y-67134999D01*
X105581288Y-67618570D01*
X105579003Y-67619792D01*
X105491447Y-67691646D01*
X105419593Y-67779202D01*
X105366200Y-67879092D01*
X105333321Y-67987480D01*
X105325001Y-68071954D01*
X105325001Y-68798972D01*
X105286691Y-68845653D01*
X105251869Y-68910800D01*
X105230426Y-68981487D01*
X105223186Y-69055000D01*
X105223186Y-69295000D01*
X105230426Y-69368513D01*
X105247561Y-69425000D01*
X105230426Y-69481487D01*
X105223186Y-69555000D01*
X105223186Y-69650000D01*
X104689779Y-69650000D01*
X104663999Y-69647461D01*
X104638219Y-69650000D01*
X104638212Y-69650000D01*
X104561082Y-69657597D01*
X104462119Y-69687617D01*
X104370914Y-69736367D01*
X104290973Y-69801973D01*
X104274529Y-69822010D01*
X104240153Y-69856386D01*
X104155800Y-69856386D01*
X104054975Y-69866316D01*
X103958024Y-69895726D01*
X103868674Y-69943485D01*
X103790357Y-70007757D01*
X103726085Y-70086074D01*
X103678326Y-70175424D01*
X103648916Y-70272375D01*
X103638986Y-70373200D01*
X103638986Y-70653200D01*
X103648916Y-70754025D01*
X103678326Y-70850976D01*
X103726085Y-70940326D01*
X103790357Y-71018643D01*
X103868674Y-71082915D01*
X103958024Y-71130674D01*
X104054975Y-71160084D01*
X104155800Y-71170014D01*
X104495800Y-71170014D01*
X104596625Y-71160084D01*
X104693576Y-71130674D01*
X104782926Y-71082915D01*
X104861243Y-71018643D01*
X104925515Y-70940326D01*
X104973274Y-70850976D01*
X105002684Y-70754025D01*
X105008005Y-70700000D01*
X105478444Y-70700000D01*
X105455800Y-70706869D01*
X105390653Y-70741691D01*
X105333552Y-70788552D01*
X105286691Y-70845653D01*
X105251869Y-70910800D01*
X105230426Y-70981487D01*
X105223186Y-71055000D01*
X105223186Y-71295000D01*
X105230426Y-71368513D01*
X105251869Y-71439200D01*
X105286691Y-71504347D01*
X105333552Y-71561448D01*
X105390653Y-71608309D01*
X105419250Y-71623595D01*
X105419250Y-71638255D01*
X105417074Y-71660350D01*
X105419250Y-71682444D01*
X105419250Y-71682454D01*
X105425761Y-71748564D01*
X105448876Y-71824764D01*
X105451493Y-71833390D01*
X105493279Y-71911566D01*
X105517020Y-71940494D01*
X105549513Y-71980087D01*
X105566683Y-71994179D01*
X106379576Y-72807072D01*
X106393663Y-72824237D01*
X106410828Y-72838324D01*
X106410832Y-72838328D01*
X106462183Y-72880471D01*
X106522077Y-72912485D01*
X106540359Y-72922257D01*
X106625185Y-72947989D01*
X106691295Y-72954500D01*
X106691307Y-72954500D01*
X106713399Y-72956676D01*
X106735491Y-72954500D01*
X106836240Y-72954500D01*
X106836240Y-79839535D01*
X106834608Y-80518640D01*
X106250815Y-80513947D01*
X106174641Y-80521141D01*
X106104294Y-80542480D01*
X106039461Y-80577134D01*
X105982635Y-80623770D01*
X105935999Y-80680596D01*
X105904098Y-80740278D01*
X105902960Y-80740166D01*
X105890808Y-80740166D01*
X105799442Y-80721992D01*
X105666478Y-80721992D01*
X105575112Y-80740166D01*
X105562960Y-80740166D01*
X105550500Y-80741393D01*
X105550500Y-79596269D01*
X105605585Y-79590844D01*
X105702536Y-79561434D01*
X105791886Y-79513675D01*
X105870203Y-79449403D01*
X105934475Y-79371086D01*
X105982234Y-79281736D01*
X106011644Y-79184785D01*
X106021574Y-79083960D01*
X106021574Y-78803960D01*
X106011644Y-78703135D01*
X105982234Y-78606184D01*
X105934475Y-78516834D01*
X105891083Y-78463960D01*
X105934475Y-78411086D01*
X105982234Y-78321736D01*
X106011644Y-78224785D01*
X106021574Y-78123960D01*
X106021574Y-77843960D01*
X106011644Y-77743135D01*
X105982234Y-77646184D01*
X105934475Y-77556834D01*
X105870203Y-77478517D01*
X105791886Y-77414245D01*
X105702536Y-77366486D01*
X105605585Y-77337076D01*
X105504760Y-77327146D01*
X105492640Y-77327146D01*
X105401214Y-77308960D01*
X105268250Y-77308960D01*
X105176824Y-77327146D01*
X105164760Y-77327146D01*
X105063935Y-77337076D01*
X104966984Y-77366486D01*
X104877634Y-77414245D01*
X104859760Y-77428914D01*
X104841886Y-77414245D01*
X104752536Y-77366486D01*
X104655585Y-77337076D01*
X104554760Y-77327146D01*
X104512458Y-77327146D01*
X104430382Y-77310820D01*
X104297418Y-77310820D01*
X104215342Y-77327146D01*
X104214760Y-77327146D01*
X104113935Y-77337076D01*
X104016984Y-77366486D01*
X103927634Y-77414245D01*
X103849317Y-77478517D01*
X103785045Y-77556834D01*
X103737286Y-77646184D01*
X103707876Y-77743135D01*
X103697946Y-77843960D01*
X103697946Y-77873861D01*
X103688900Y-77919338D01*
X103688900Y-78052302D01*
X103697946Y-78097779D01*
X103697946Y-78123960D01*
X103707876Y-78224785D01*
X103737286Y-78321736D01*
X103785045Y-78411086D01*
X103828437Y-78463960D01*
X103785045Y-78516834D01*
X103737286Y-78606184D01*
X103707876Y-78703135D01*
X103697946Y-78803960D01*
X103697946Y-79083960D01*
X103707876Y-79184785D01*
X103737286Y-79281736D01*
X103785045Y-79371086D01*
X103849317Y-79449403D01*
X103927634Y-79513675D01*
X104016984Y-79561434D01*
X104113935Y-79590844D01*
X104214760Y-79600774D01*
X104339991Y-79600774D01*
X104339991Y-80163586D01*
X104033880Y-80163586D01*
X103933055Y-80173516D01*
X103836104Y-80202926D01*
X103746754Y-80250685D01*
X103704770Y-80285140D01*
X103662786Y-80250685D01*
X103573436Y-80202926D01*
X103476485Y-80173516D01*
X103375660Y-80163586D01*
X103363387Y-80163586D01*
X103272142Y-80145436D01*
X103139178Y-80145436D01*
X103047933Y-80163586D01*
X103035660Y-80163586D01*
X102967320Y-80170317D01*
X102967320Y-78096716D01*
X102969496Y-78074622D01*
X102967320Y-78052528D01*
X102967320Y-78052517D01*
X102960809Y-77986407D01*
X102935077Y-77901581D01*
X102931975Y-77895777D01*
X102893291Y-77823405D01*
X102851148Y-77772054D01*
X102851144Y-77772050D01*
X102837057Y-77754885D01*
X102819892Y-77740798D01*
X102025457Y-76946363D01*
X102011365Y-76929193D01*
X101942844Y-76872959D01*
X101864669Y-76831173D01*
X101779843Y-76805441D01*
X101713733Y-76798930D01*
X101713722Y-76798930D01*
X101691628Y-76796754D01*
X101669534Y-76798930D01*
X101498183Y-76798930D01*
X101600287Y-76730707D01*
X101694307Y-76636687D01*
X101768177Y-76526132D01*
X101819060Y-76403290D01*
X101845000Y-76272882D01*
X101845000Y-76139918D01*
X101819060Y-76009510D01*
X101768177Y-75886668D01*
X101694307Y-75776113D01*
X101600287Y-75682093D01*
X101489732Y-75608223D01*
X101366890Y-75557340D01*
X101236482Y-75531400D01*
X101103518Y-75531400D01*
X100973110Y-75557340D01*
X100850268Y-75608223D01*
X100739713Y-75682093D01*
X100645693Y-75776113D01*
X100571823Y-75886668D01*
X100520940Y-76009510D01*
X100495000Y-76139918D01*
X100495000Y-76245005D01*
X100167645Y-76572360D01*
X100088556Y-76530086D01*
X99991605Y-76500676D01*
X99890780Y-76490746D01*
X99550780Y-76490746D01*
X99449955Y-76500676D01*
X99353004Y-76530086D01*
X99325408Y-76544836D01*
X99334474Y-76527876D01*
X99363884Y-76430925D01*
X99373814Y-76330100D01*
X99373814Y-76050100D01*
X99363884Y-75949275D01*
X99334474Y-75852324D01*
X99306727Y-75800414D01*
X100122000Y-75800414D01*
X100234531Y-75789331D01*
X100342737Y-75756507D01*
X100442461Y-75703203D01*
X100529869Y-75631469D01*
X100601603Y-75544061D01*
X100654907Y-75444337D01*
X100687731Y-75336131D01*
X100698814Y-75223600D01*
X100698814Y-74823600D01*
X100687731Y-74711069D01*
X100654907Y-74602863D01*
X100601603Y-74503139D01*
X100529869Y-74415731D01*
X100442461Y-74343997D01*
X100342737Y-74290693D01*
X100234531Y-74257869D01*
X100122000Y-74246786D01*
X98522000Y-74246786D01*
X98409469Y-74257869D01*
X98301263Y-74290693D01*
X98201539Y-74343997D01*
X98114131Y-74415731D01*
X98042397Y-74503139D01*
X97989093Y-74602863D01*
X97956269Y-74711069D01*
X97945186Y-74823600D01*
X97945186Y-75223600D01*
X97956269Y-75336131D01*
X97989093Y-75444337D01*
X98042397Y-75544061D01*
X98114131Y-75631469D01*
X98165249Y-75673420D01*
X98151557Y-75684657D01*
X98087285Y-75762974D01*
X98039526Y-75852324D01*
X98010116Y-75949275D01*
X98000186Y-76050100D01*
X98000186Y-76330100D01*
X98010116Y-76430925D01*
X98039526Y-76527876D01*
X98087285Y-76617226D01*
X98130677Y-76670100D01*
X98087285Y-76722974D01*
X98039526Y-76812324D01*
X98010116Y-76909275D01*
X98000186Y-77010100D01*
X98000186Y-77290100D01*
X98010116Y-77390925D01*
X98039526Y-77487876D01*
X98087285Y-77577226D01*
X98151557Y-77655543D01*
X98229874Y-77719815D01*
X98319224Y-77767574D01*
X98416175Y-77796984D01*
X98517000Y-77806914D01*
X98672063Y-77806914D01*
X98745401Y-77880252D01*
X98745400Y-80494868D01*
X98743102Y-80518200D01*
X98752273Y-80611316D01*
X98755983Y-80623546D01*
X98779434Y-80700853D01*
X98823541Y-80783373D01*
X98882899Y-80855701D01*
X98901033Y-80870583D01*
X99086180Y-81055731D01*
X99101059Y-81073861D01*
X99173387Y-81133219D01*
X99230019Y-81163489D01*
X99255905Y-81177326D01*
X99292737Y-81188499D01*
X99300561Y-81198032D01*
X99300560Y-81828465D01*
X99298384Y-81850560D01*
X99300560Y-81872654D01*
X99300560Y-81872664D01*
X99307071Y-81938774D01*
X99317386Y-81972777D01*
X99220000Y-81963186D01*
X98940000Y-81963186D01*
X98839175Y-81973116D01*
X98742224Y-82002526D01*
X98652874Y-82050285D01*
X98574557Y-82114557D01*
X98510285Y-82192874D01*
X98462526Y-82282224D01*
X98433116Y-82379175D01*
X98423186Y-82480000D01*
X98423186Y-82800000D01*
X97786396Y-82800000D01*
X97524990Y-82538595D01*
X97524990Y-61172081D01*
X97527166Y-61149989D01*
X97524990Y-61127897D01*
X97524990Y-61127885D01*
X97518479Y-61061775D01*
X97492747Y-60976949D01*
X97455722Y-60907681D01*
X97450961Y-60898773D01*
X97408818Y-60847422D01*
X97408814Y-60847418D01*
X97394727Y-60830253D01*
X97377562Y-60816166D01*
X96558832Y-59997437D01*
X96558828Y-59997432D01*
X95844681Y-59283286D01*
X95927924Y-59082319D01*
X95975000Y-58845652D01*
X95975000Y-58604348D01*
X95927924Y-58367681D01*
X95835581Y-58144745D01*
X95701519Y-57944108D01*
X95530892Y-57773481D01*
X95330255Y-57639419D01*
X95295444Y-57625000D01*
X105255215Y-57625000D01*
X101044548Y-61636099D01*
G04 #@! TA.AperFunction,Conductor*
D26*
G36*
X101044548Y-61636099D02*
G01*
X100991399Y-61699281D01*
X100956745Y-61764114D01*
X100935406Y-61834461D01*
X100928200Y-61907620D01*
X100928200Y-62507707D01*
X100914182Y-62501901D01*
X100778944Y-62475000D01*
X100641056Y-62475000D01*
X100505818Y-62501901D01*
X100378426Y-62554668D01*
X100263776Y-62631274D01*
X100166274Y-62728776D01*
X100089668Y-62843426D01*
X100036901Y-62970818D01*
X100010000Y-63106056D01*
X100010000Y-63243944D01*
X100036901Y-63379182D01*
X100089668Y-63506574D01*
X100166274Y-63621224D01*
X100263776Y-63718726D01*
X100378426Y-63795332D01*
X100420200Y-63812635D01*
X100420200Y-65400120D01*
X100427406Y-65473279D01*
X100448745Y-65543626D01*
X100483399Y-65608459D01*
X100530035Y-65665285D01*
X100586861Y-65711921D01*
X100651694Y-65746575D01*
X100722041Y-65767914D01*
X100795200Y-65775120D01*
X101186294Y-65775120D01*
X101162320Y-65854150D01*
X101152486Y-65954000D01*
X101152486Y-66224000D01*
X101162320Y-66323850D01*
X101191446Y-66419863D01*
X101238742Y-66508349D01*
X101302393Y-66585907D01*
X101379951Y-66649558D01*
X101468437Y-66696854D01*
X101564450Y-66725980D01*
X101664300Y-66735814D01*
X102034300Y-66735814D01*
X102134150Y-66725980D01*
X102230163Y-66696854D01*
X102318649Y-66649558D01*
X102396207Y-66585907D01*
X102459858Y-66508349D01*
X102507154Y-66419863D01*
X102536280Y-66323850D01*
X102546114Y-66224000D01*
X102546114Y-65954000D01*
X102536280Y-65854150D01*
X102507154Y-65758137D01*
X102487739Y-65721814D01*
X102500000Y-65721814D01*
X102573513Y-65714574D01*
X102600000Y-65706539D01*
X102626487Y-65714574D01*
X102700000Y-65721814D01*
X103000000Y-65721814D01*
X103073513Y-65714574D01*
X103100000Y-65706539D01*
X103126487Y-65714574D01*
X103200000Y-65721814D01*
X103500000Y-65721814D01*
X103573513Y-65714574D01*
X103600000Y-65706539D01*
X103626487Y-65714574D01*
X103700000Y-65721814D01*
X104000000Y-65721814D01*
X104073513Y-65714574D01*
X104100000Y-65706539D01*
X104126487Y-65714574D01*
X104200000Y-65721814D01*
X104375001Y-65721814D01*
X104375001Y-65858406D01*
X104365586Y-65954000D01*
X104365586Y-66224000D01*
X104375420Y-66323850D01*
X104404546Y-66419863D01*
X104451842Y-66508349D01*
X104515493Y-66585907D01*
X104593051Y-66649558D01*
X104681537Y-66696854D01*
X104777550Y-66725980D01*
X104877400Y-66735814D01*
X105247400Y-66735814D01*
X105347250Y-66725980D01*
X105443263Y-66696854D01*
X105531749Y-66649558D01*
X105609307Y-66585907D01*
X105672958Y-66508349D01*
X105720254Y-66419863D01*
X105749380Y-66323850D01*
X105759214Y-66224000D01*
X105759214Y-65954000D01*
X105749380Y-65854150D01*
X105724635Y-65772580D01*
X106403520Y-65772580D01*
X106476679Y-65765374D01*
X106547026Y-65744035D01*
X106611859Y-65709381D01*
X106668685Y-65662745D01*
X106715321Y-65605919D01*
X106749975Y-65541086D01*
X106771314Y-65470739D01*
X106778520Y-65397580D01*
X106778520Y-63813165D01*
X106821574Y-63795332D01*
X106936224Y-63718726D01*
X107033726Y-63621224D01*
X107110332Y-63506574D01*
X107163099Y-63379182D01*
X107190000Y-63243944D01*
X107190000Y-63106056D01*
X107163099Y-62970818D01*
X107110332Y-62843426D01*
X107033726Y-62728776D01*
X106936224Y-62631274D01*
X106821574Y-62554668D01*
X106778520Y-62536835D01*
X106778520Y-62523920D01*
X108590600Y-62523920D01*
X108590600Y-66222600D01*
X108254400Y-66222600D01*
X108183853Y-66229296D01*
X108113356Y-66250136D01*
X108048279Y-66284328D01*
X107991123Y-66330560D01*
X107944085Y-66387054D01*
X107908972Y-66451639D01*
X107887134Y-66521833D01*
X107879409Y-66594939D01*
X107878013Y-66791723D01*
X107872560Y-66791186D01*
X107602560Y-66791186D01*
X107502710Y-66801020D01*
X107406697Y-66830146D01*
X107318211Y-66877442D01*
X107240653Y-66941093D01*
X107222674Y-66963000D01*
X106480100Y-66963000D01*
X106454320Y-66960461D01*
X106428540Y-66963000D01*
X106428532Y-66963000D01*
X106351402Y-66970597D01*
X106252439Y-67000617D01*
X106161234Y-67049367D01*
X106101323Y-67098534D01*
X106101319Y-67098538D01*
X106081293Y-67114973D01*
X106064858Y-67134999D01*
X105581288Y-67618570D01*
X105579003Y-67619792D01*
X105491447Y-67691646D01*
X105419593Y-67779202D01*
X105366200Y-67879092D01*
X105333321Y-67987480D01*
X105325001Y-68071954D01*
X105325001Y-68798972D01*
X105286691Y-68845653D01*
X105251869Y-68910800D01*
X105230426Y-68981487D01*
X105223186Y-69055000D01*
X105223186Y-69295000D01*
X105230426Y-69368513D01*
X105247561Y-69425000D01*
X105230426Y-69481487D01*
X105223186Y-69555000D01*
X105223186Y-69650000D01*
X104689779Y-69650000D01*
X104663999Y-69647461D01*
X104638219Y-69650000D01*
X104638212Y-69650000D01*
X104561082Y-69657597D01*
X104462119Y-69687617D01*
X104370914Y-69736367D01*
X104290973Y-69801973D01*
X104274529Y-69822010D01*
X104240153Y-69856386D01*
X104155800Y-69856386D01*
X104054975Y-69866316D01*
X103958024Y-69895726D01*
X103868674Y-69943485D01*
X103790357Y-70007757D01*
X103726085Y-70086074D01*
X103678326Y-70175424D01*
X103648916Y-70272375D01*
X103638986Y-70373200D01*
X103638986Y-70653200D01*
X103648916Y-70754025D01*
X103678326Y-70850976D01*
X103726085Y-70940326D01*
X103790357Y-71018643D01*
X103868674Y-71082915D01*
X103958024Y-71130674D01*
X104054975Y-71160084D01*
X104155800Y-71170014D01*
X104495800Y-71170014D01*
X104596625Y-71160084D01*
X104693576Y-71130674D01*
X104782926Y-71082915D01*
X104861243Y-71018643D01*
X104925515Y-70940326D01*
X104973274Y-70850976D01*
X105002684Y-70754025D01*
X105008005Y-70700000D01*
X105478444Y-70700000D01*
X105455800Y-70706869D01*
X105390653Y-70741691D01*
X105333552Y-70788552D01*
X105286691Y-70845653D01*
X105251869Y-70910800D01*
X105230426Y-70981487D01*
X105223186Y-71055000D01*
X105223186Y-71295000D01*
X105230426Y-71368513D01*
X105251869Y-71439200D01*
X105286691Y-71504347D01*
X105333552Y-71561448D01*
X105390653Y-71608309D01*
X105419250Y-71623595D01*
X105419250Y-71638255D01*
X105417074Y-71660350D01*
X105419250Y-71682444D01*
X105419250Y-71682454D01*
X105425761Y-71748564D01*
X105448876Y-71824764D01*
X105451493Y-71833390D01*
X105493279Y-71911566D01*
X105517020Y-71940494D01*
X105549513Y-71980087D01*
X105566683Y-71994179D01*
X106379576Y-72807072D01*
X106393663Y-72824237D01*
X106410828Y-72838324D01*
X106410832Y-72838328D01*
X106462183Y-72880471D01*
X106522077Y-72912485D01*
X106540359Y-72922257D01*
X106625185Y-72947989D01*
X106691295Y-72954500D01*
X106691307Y-72954500D01*
X106713399Y-72956676D01*
X106735491Y-72954500D01*
X106836240Y-72954500D01*
X106836240Y-79839535D01*
X106834608Y-80518640D01*
X106250815Y-80513947D01*
X106174641Y-80521141D01*
X106104294Y-80542480D01*
X106039461Y-80577134D01*
X105982635Y-80623770D01*
X105935999Y-80680596D01*
X105904098Y-80740278D01*
X105902960Y-80740166D01*
X105890808Y-80740166D01*
X105799442Y-80721992D01*
X105666478Y-80721992D01*
X105575112Y-80740166D01*
X105562960Y-80740166D01*
X105550500Y-80741393D01*
X105550500Y-79596269D01*
X105605585Y-79590844D01*
X105702536Y-79561434D01*
X105791886Y-79513675D01*
X105870203Y-79449403D01*
X105934475Y-79371086D01*
X105982234Y-79281736D01*
X106011644Y-79184785D01*
X106021574Y-79083960D01*
X106021574Y-78803960D01*
X106011644Y-78703135D01*
X105982234Y-78606184D01*
X105934475Y-78516834D01*
X105891083Y-78463960D01*
X105934475Y-78411086D01*
X105982234Y-78321736D01*
X106011644Y-78224785D01*
X106021574Y-78123960D01*
X106021574Y-77843960D01*
X106011644Y-77743135D01*
X105982234Y-77646184D01*
X105934475Y-77556834D01*
X105870203Y-77478517D01*
X105791886Y-77414245D01*
X105702536Y-77366486D01*
X105605585Y-77337076D01*
X105504760Y-77327146D01*
X105492640Y-77327146D01*
X105401214Y-77308960D01*
X105268250Y-77308960D01*
X105176824Y-77327146D01*
X105164760Y-77327146D01*
X105063935Y-77337076D01*
X104966984Y-77366486D01*
X104877634Y-77414245D01*
X104859760Y-77428914D01*
X104841886Y-77414245D01*
X104752536Y-77366486D01*
X104655585Y-77337076D01*
X104554760Y-77327146D01*
X104512458Y-77327146D01*
X104430382Y-77310820D01*
X104297418Y-77310820D01*
X104215342Y-77327146D01*
X104214760Y-77327146D01*
X104113935Y-77337076D01*
X104016984Y-77366486D01*
X103927634Y-77414245D01*
X103849317Y-77478517D01*
X103785045Y-77556834D01*
X103737286Y-77646184D01*
X103707876Y-77743135D01*
X103697946Y-77843960D01*
X103697946Y-77873861D01*
X103688900Y-77919338D01*
X103688900Y-78052302D01*
X103697946Y-78097779D01*
X103697946Y-78123960D01*
X103707876Y-78224785D01*
X103737286Y-78321736D01*
X103785045Y-78411086D01*
X103828437Y-78463960D01*
X103785045Y-78516834D01*
X103737286Y-78606184D01*
X103707876Y-78703135D01*
X103697946Y-78803960D01*
X103697946Y-79083960D01*
X103707876Y-79184785D01*
X103737286Y-79281736D01*
X103785045Y-79371086D01*
X103849317Y-79449403D01*
X103927634Y-79513675D01*
X104016984Y-79561434D01*
X104113935Y-79590844D01*
X104214760Y-79600774D01*
X104339991Y-79600774D01*
X104339991Y-80163586D01*
X104033880Y-80163586D01*
X103933055Y-80173516D01*
X103836104Y-80202926D01*
X103746754Y-80250685D01*
X103704770Y-80285140D01*
X103662786Y-80250685D01*
X103573436Y-80202926D01*
X103476485Y-80173516D01*
X103375660Y-80163586D01*
X103363387Y-80163586D01*
X103272142Y-80145436D01*
X103139178Y-80145436D01*
X103047933Y-80163586D01*
X103035660Y-80163586D01*
X102967320Y-80170317D01*
X102967320Y-78096716D01*
X102969496Y-78074622D01*
X102967320Y-78052528D01*
X102967320Y-78052517D01*
X102960809Y-77986407D01*
X102935077Y-77901581D01*
X102931975Y-77895777D01*
X102893291Y-77823405D01*
X102851148Y-77772054D01*
X102851144Y-77772050D01*
X102837057Y-77754885D01*
X102819892Y-77740798D01*
X102025457Y-76946363D01*
X102011365Y-76929193D01*
X101942844Y-76872959D01*
X101864669Y-76831173D01*
X101779843Y-76805441D01*
X101713733Y-76798930D01*
X101713722Y-76798930D01*
X101691628Y-76796754D01*
X101669534Y-76798930D01*
X101498183Y-76798930D01*
X101600287Y-76730707D01*
X101694307Y-76636687D01*
X101768177Y-76526132D01*
X101819060Y-76403290D01*
X101845000Y-76272882D01*
X101845000Y-76139918D01*
X101819060Y-76009510D01*
X101768177Y-75886668D01*
X101694307Y-75776113D01*
X101600287Y-75682093D01*
X101489732Y-75608223D01*
X101366890Y-75557340D01*
X101236482Y-75531400D01*
X101103518Y-75531400D01*
X100973110Y-75557340D01*
X100850268Y-75608223D01*
X100739713Y-75682093D01*
X100645693Y-75776113D01*
X100571823Y-75886668D01*
X100520940Y-76009510D01*
X100495000Y-76139918D01*
X100495000Y-76245005D01*
X100167645Y-76572360D01*
X100088556Y-76530086D01*
X99991605Y-76500676D01*
X99890780Y-76490746D01*
X99550780Y-76490746D01*
X99449955Y-76500676D01*
X99353004Y-76530086D01*
X99325408Y-76544836D01*
X99334474Y-76527876D01*
X99363884Y-76430925D01*
X99373814Y-76330100D01*
X99373814Y-76050100D01*
X99363884Y-75949275D01*
X99334474Y-75852324D01*
X99306727Y-75800414D01*
X100122000Y-75800414D01*
X100234531Y-75789331D01*
X100342737Y-75756507D01*
X100442461Y-75703203D01*
X100529869Y-75631469D01*
X100601603Y-75544061D01*
X100654907Y-75444337D01*
X100687731Y-75336131D01*
X100698814Y-75223600D01*
X100698814Y-74823600D01*
X100687731Y-74711069D01*
X100654907Y-74602863D01*
X100601603Y-74503139D01*
X100529869Y-74415731D01*
X100442461Y-74343997D01*
X100342737Y-74290693D01*
X100234531Y-74257869D01*
X100122000Y-74246786D01*
X98522000Y-74246786D01*
X98409469Y-74257869D01*
X98301263Y-74290693D01*
X98201539Y-74343997D01*
X98114131Y-74415731D01*
X98042397Y-74503139D01*
X97989093Y-74602863D01*
X97956269Y-74711069D01*
X97945186Y-74823600D01*
X97945186Y-75223600D01*
X97956269Y-75336131D01*
X97989093Y-75444337D01*
X98042397Y-75544061D01*
X98114131Y-75631469D01*
X98165249Y-75673420D01*
X98151557Y-75684657D01*
X98087285Y-75762974D01*
X98039526Y-75852324D01*
X98010116Y-75949275D01*
X98000186Y-76050100D01*
X98000186Y-76330100D01*
X98010116Y-76430925D01*
X98039526Y-76527876D01*
X98087285Y-76617226D01*
X98130677Y-76670100D01*
X98087285Y-76722974D01*
X98039526Y-76812324D01*
X98010116Y-76909275D01*
X98000186Y-77010100D01*
X98000186Y-77290100D01*
X98010116Y-77390925D01*
X98039526Y-77487876D01*
X98087285Y-77577226D01*
X98151557Y-77655543D01*
X98229874Y-77719815D01*
X98319224Y-77767574D01*
X98416175Y-77796984D01*
X98517000Y-77806914D01*
X98672063Y-77806914D01*
X98745401Y-77880252D01*
X98745400Y-80494868D01*
X98743102Y-80518200D01*
X98752273Y-80611316D01*
X98755983Y-80623546D01*
X98779434Y-80700853D01*
X98823541Y-80783373D01*
X98882899Y-80855701D01*
X98901033Y-80870583D01*
X99086180Y-81055731D01*
X99101059Y-81073861D01*
X99173387Y-81133219D01*
X99230019Y-81163489D01*
X99255905Y-81177326D01*
X99292737Y-81188499D01*
X99300561Y-81198032D01*
X99300560Y-81828465D01*
X99298384Y-81850560D01*
X99300560Y-81872654D01*
X99300560Y-81872664D01*
X99307071Y-81938774D01*
X99317386Y-81972777D01*
X99220000Y-81963186D01*
X98940000Y-81963186D01*
X98839175Y-81973116D01*
X98742224Y-82002526D01*
X98652874Y-82050285D01*
X98574557Y-82114557D01*
X98510285Y-82192874D01*
X98462526Y-82282224D01*
X98433116Y-82379175D01*
X98423186Y-82480000D01*
X98423186Y-82800000D01*
X97786396Y-82800000D01*
X97524990Y-82538595D01*
X97524990Y-61172081D01*
X97527166Y-61149989D01*
X97524990Y-61127897D01*
X97524990Y-61127885D01*
X97518479Y-61061775D01*
X97492747Y-60976949D01*
X97455722Y-60907681D01*
X97450961Y-60898773D01*
X97408818Y-60847422D01*
X97408814Y-60847418D01*
X97394727Y-60830253D01*
X97377562Y-60816166D01*
X96558832Y-59997437D01*
X96558828Y-59997432D01*
X95844681Y-59283286D01*
X95927924Y-59082319D01*
X95975000Y-58845652D01*
X95975000Y-58604348D01*
X95927924Y-58367681D01*
X95835581Y-58144745D01*
X95701519Y-57944108D01*
X95530892Y-57773481D01*
X95330255Y-57639419D01*
X95295444Y-57625000D01*
X105255215Y-57625000D01*
X101044548Y-61636099D01*
G37*
G04 #@! TD.AperFunction*
D34*
X109990137Y-80135454D02*
X110086150Y-80164580D01*
X110186000Y-80174414D01*
X110556000Y-80174414D01*
X110655850Y-80164580D01*
X110751863Y-80135454D01*
X110800000Y-80109725D01*
X110800000Y-80464327D01*
X110677419Y-80586908D01*
X110660254Y-80600995D01*
X110646167Y-80618160D01*
X110646162Y-80618165D01*
X110604019Y-80669516D01*
X110562233Y-80747692D01*
X110538095Y-80827265D01*
X110536502Y-80832517D01*
X110532519Y-80872964D01*
X110527814Y-80920732D01*
X110529991Y-80942836D01*
X110529990Y-82084336D01*
X109933200Y-82681127D01*
X109933200Y-80105021D01*
X109990137Y-80135454D01*
G04 #@! TA.AperFunction,Conductor*
D26*
G36*
X109990137Y-80135454D02*
G01*
X110086150Y-80164580D01*
X110186000Y-80174414D01*
X110556000Y-80174414D01*
X110655850Y-80164580D01*
X110751863Y-80135454D01*
X110800000Y-80109725D01*
X110800000Y-80464327D01*
X110677419Y-80586908D01*
X110660254Y-80600995D01*
X110646167Y-80618160D01*
X110646162Y-80618165D01*
X110604019Y-80669516D01*
X110562233Y-80747692D01*
X110538095Y-80827265D01*
X110536502Y-80832517D01*
X110532519Y-80872964D01*
X110527814Y-80920732D01*
X110529991Y-80942836D01*
X110529990Y-82084336D01*
X109933200Y-82681127D01*
X109933200Y-80105021D01*
X109990137Y-80135454D01*
G37*
G04 #@! TD.AperFunction*
D34*
X101467300Y-80872147D02*
X101441631Y-80864360D01*
X101375521Y-80857849D01*
X101375510Y-80857849D01*
X101353416Y-80855673D01*
X101331322Y-80857849D01*
X101302374Y-80857849D01*
X101302374Y-80561360D01*
X101298859Y-80525674D01*
X101300560Y-80525674D01*
X101374073Y-80518434D01*
X101444760Y-80496991D01*
X101467300Y-80484943D01*
X101467300Y-80872147D01*
G04 #@! TA.AperFunction,Conductor*
D26*
G36*
X101467300Y-80872147D02*
G01*
X101441631Y-80864360D01*
X101375521Y-80857849D01*
X101375510Y-80857849D01*
X101353416Y-80855673D01*
X101331322Y-80857849D01*
X101302374Y-80857849D01*
X101302374Y-80561360D01*
X101298859Y-80525674D01*
X101300560Y-80525674D01*
X101374073Y-80518434D01*
X101444760Y-80496991D01*
X101467300Y-80484943D01*
X101467300Y-80872147D01*
G37*
G04 #@! TD.AperFunction*
D34*
X112192681Y-75142924D02*
X112429348Y-75190000D01*
X112481581Y-75190000D01*
X112500000Y-75191814D01*
X113790001Y-75191814D01*
X113790001Y-77818186D01*
X112500000Y-77818186D01*
X112481581Y-77820000D01*
X112429348Y-77820000D01*
X112192681Y-77867076D01*
X111969745Y-77959419D01*
X111769108Y-78093481D01*
X111700000Y-78162589D01*
X111700000Y-75411395D01*
X112034141Y-75077255D01*
X112192681Y-75142924D01*
G04 #@! TA.AperFunction,Conductor*
D26*
G36*
X112192681Y-75142924D02*
G01*
X112429348Y-75190000D01*
X112481581Y-75190000D01*
X112500000Y-75191814D01*
X113790001Y-75191814D01*
X113790001Y-77818186D01*
X112500000Y-77818186D01*
X112481581Y-77820000D01*
X112429348Y-77820000D01*
X112192681Y-77867076D01*
X111969745Y-77959419D01*
X111769108Y-78093481D01*
X111700000Y-78162589D01*
X111700000Y-75411395D01*
X112034141Y-75077255D01*
X112192681Y-75142924D01*
G37*
G04 #@! TD.AperFunction*
D34*
X111464419Y-72005255D02*
X111598481Y-72205892D01*
X111769108Y-72376519D01*
X111969745Y-72510581D01*
X112192681Y-72602924D01*
X112429348Y-72650000D01*
X112481581Y-72650000D01*
X112500000Y-72651814D01*
X113790001Y-72651814D01*
X113790001Y-72738186D01*
X112500000Y-72738186D01*
X112481581Y-72740000D01*
X112429348Y-72740000D01*
X112192681Y-72787076D01*
X111969745Y-72879419D01*
X111769108Y-73013481D01*
X111598481Y-73184108D01*
X111464419Y-73384745D01*
X111372076Y-73607681D01*
X111325000Y-73844348D01*
X111325000Y-74085652D01*
X111372076Y-74322319D01*
X111414314Y-74424291D01*
X111138165Y-74700440D01*
X111125603Y-74676939D01*
X111053869Y-74589531D01*
X110966461Y-74517797D01*
X110866737Y-74464493D01*
X110758531Y-74431669D01*
X110646000Y-74420586D01*
X110096000Y-74420586D01*
X110077582Y-74422400D01*
X109933200Y-74422400D01*
X109933200Y-72536111D01*
X111057104Y-72535200D01*
X111129959Y-72527994D01*
X111200306Y-72506655D01*
X111265139Y-72472001D01*
X111321965Y-72425365D01*
X111368601Y-72368539D01*
X111403255Y-72303706D01*
X111424594Y-72233359D01*
X111431800Y-72160200D01*
X111431800Y-71926506D01*
X111464419Y-72005255D01*
G04 #@! TA.AperFunction,Conductor*
D26*
G36*
X111464419Y-72005255D02*
G01*
X111598481Y-72205892D01*
X111769108Y-72376519D01*
X111969745Y-72510581D01*
X112192681Y-72602924D01*
X112429348Y-72650000D01*
X112481581Y-72650000D01*
X112500000Y-72651814D01*
X113790001Y-72651814D01*
X113790001Y-72738186D01*
X112500000Y-72738186D01*
X112481581Y-72740000D01*
X112429348Y-72740000D01*
X112192681Y-72787076D01*
X111969745Y-72879419D01*
X111769108Y-73013481D01*
X111598481Y-73184108D01*
X111464419Y-73384745D01*
X111372076Y-73607681D01*
X111325000Y-73844348D01*
X111325000Y-74085652D01*
X111372076Y-74322319D01*
X111414314Y-74424291D01*
X111138165Y-74700440D01*
X111125603Y-74676939D01*
X111053869Y-74589531D01*
X110966461Y-74517797D01*
X110866737Y-74464493D01*
X110758531Y-74431669D01*
X110646000Y-74420586D01*
X110096000Y-74420586D01*
X110077582Y-74422400D01*
X109933200Y-74422400D01*
X109933200Y-72536111D01*
X111057104Y-72535200D01*
X111129959Y-72527994D01*
X111200306Y-72506655D01*
X111265139Y-72472001D01*
X111321965Y-72425365D01*
X111368601Y-72368539D01*
X111403255Y-72303706D01*
X111424594Y-72233359D01*
X111431800Y-72160200D01*
X111431800Y-71926506D01*
X111464419Y-72005255D01*
G37*
G04 #@! TD.AperFunction*
D34*
X111464419Y-69465255D02*
X111598481Y-69665892D01*
X111769108Y-69836519D01*
X111969745Y-69970581D01*
X112192681Y-70062924D01*
X112429348Y-70110000D01*
X112481581Y-70110000D01*
X112500000Y-70111814D01*
X113790001Y-70111814D01*
X113790001Y-70198186D01*
X112500000Y-70198186D01*
X112481581Y-70200000D01*
X112429348Y-70200000D01*
X112192681Y-70247076D01*
X111969745Y-70339419D01*
X111769108Y-70473481D01*
X111598481Y-70644108D01*
X111464419Y-70844745D01*
X111431800Y-70923494D01*
X111431800Y-70788600D01*
X111419596Y-70693711D01*
X111394113Y-70624756D01*
X111355667Y-70562098D01*
X111305736Y-70508144D01*
X111015582Y-70250600D01*
X111031400Y-70250600D01*
X111112204Y-70241791D01*
X111182091Y-70218991D01*
X111246188Y-70182994D01*
X111302031Y-70135184D01*
X111347473Y-70077399D01*
X111380769Y-70011859D01*
X111400639Y-69941082D01*
X111406319Y-69867789D01*
X111394412Y-69296242D01*
X111464419Y-69465255D01*
G04 #@! TA.AperFunction,Conductor*
D26*
G36*
X111464419Y-69465255D02*
G01*
X111598481Y-69665892D01*
X111769108Y-69836519D01*
X111969745Y-69970581D01*
X112192681Y-70062924D01*
X112429348Y-70110000D01*
X112481581Y-70110000D01*
X112500000Y-70111814D01*
X113790001Y-70111814D01*
X113790001Y-70198186D01*
X112500000Y-70198186D01*
X112481581Y-70200000D01*
X112429348Y-70200000D01*
X112192681Y-70247076D01*
X111969745Y-70339419D01*
X111769108Y-70473481D01*
X111598481Y-70644108D01*
X111464419Y-70844745D01*
X111431800Y-70923494D01*
X111431800Y-70788600D01*
X111419596Y-70693711D01*
X111394113Y-70624756D01*
X111355667Y-70562098D01*
X111305736Y-70508144D01*
X111015582Y-70250600D01*
X111031400Y-70250600D01*
X111112204Y-70241791D01*
X111182091Y-70218991D01*
X111246188Y-70182994D01*
X111302031Y-70135184D01*
X111347473Y-70077399D01*
X111380769Y-70011859D01*
X111400639Y-69941082D01*
X111406319Y-69867789D01*
X111394412Y-69296242D01*
X111464419Y-69465255D01*
G37*
G04 #@! TD.AperFunction*
D34*
X113790001Y-62634906D02*
X113790001Y-65118186D01*
X112500000Y-65118186D01*
X112481581Y-65120000D01*
X112429348Y-65120000D01*
X112192681Y-65167076D01*
X111969745Y-65259419D01*
X111769108Y-65393481D01*
X111598481Y-65564108D01*
X111464419Y-65764745D01*
X111372076Y-65987681D01*
X111325000Y-66224348D01*
X111325000Y-66465652D01*
X111372076Y-66702319D01*
X111464419Y-66925255D01*
X111598481Y-67125892D01*
X111769108Y-67296519D01*
X111969745Y-67430581D01*
X112192681Y-67522924D01*
X112429348Y-67570000D01*
X112481581Y-67570000D01*
X112500000Y-67571814D01*
X113790001Y-67571814D01*
X113790001Y-67658186D01*
X112500000Y-67658186D01*
X112481581Y-67660000D01*
X112429348Y-67660000D01*
X112192681Y-67707076D01*
X111969745Y-67799419D01*
X111769108Y-67933481D01*
X111598481Y-68104108D01*
X111464419Y-68304745D01*
X111372076Y-68527681D01*
X111366082Y-68557816D01*
X111352455Y-68512894D01*
X111317801Y-68448061D01*
X111271165Y-68391235D01*
X111238430Y-68364370D01*
X111229205Y-62631595D01*
X113790001Y-62634906D01*
G04 #@! TA.AperFunction,Conductor*
D26*
G36*
X113790001Y-62634906D02*
G01*
X113790001Y-65118186D01*
X112500000Y-65118186D01*
X112481581Y-65120000D01*
X112429348Y-65120000D01*
X112192681Y-65167076D01*
X111969745Y-65259419D01*
X111769108Y-65393481D01*
X111598481Y-65564108D01*
X111464419Y-65764745D01*
X111372076Y-65987681D01*
X111325000Y-66224348D01*
X111325000Y-66465652D01*
X111372076Y-66702319D01*
X111464419Y-66925255D01*
X111598481Y-67125892D01*
X111769108Y-67296519D01*
X111969745Y-67430581D01*
X112192681Y-67522924D01*
X112429348Y-67570000D01*
X112481581Y-67570000D01*
X112500000Y-67571814D01*
X113790001Y-67571814D01*
X113790001Y-67658186D01*
X112500000Y-67658186D01*
X112481581Y-67660000D01*
X112429348Y-67660000D01*
X112192681Y-67707076D01*
X111969745Y-67799419D01*
X111769108Y-67933481D01*
X111598481Y-68104108D01*
X111464419Y-68304745D01*
X111372076Y-68527681D01*
X111366082Y-68557816D01*
X111352455Y-68512894D01*
X111317801Y-68448061D01*
X111271165Y-68391235D01*
X111238430Y-68364370D01*
X111229205Y-62631595D01*
X113790001Y-62634906D01*
G37*
G04 #@! TD.AperFunction*
D34*
X95697432Y-62948828D02*
X95697437Y-62948832D01*
X96324980Y-63576376D01*
X96324980Y-67383585D01*
X95844681Y-66903286D01*
X95927924Y-66702319D01*
X95975000Y-66465652D01*
X95975000Y-66224348D01*
X95927924Y-65987681D01*
X95835581Y-65764745D01*
X95701519Y-65564108D01*
X95530892Y-65393481D01*
X95330255Y-65259419D01*
X95107319Y-65167076D01*
X94922758Y-65130365D01*
X94873513Y-65115426D01*
X94800000Y-65108186D01*
X93500000Y-65108186D01*
X93500000Y-62481814D01*
X94588194Y-62481814D01*
X94629348Y-62490000D01*
X94870652Y-62490000D01*
X95107319Y-62442924D01*
X95166864Y-62418260D01*
X95697432Y-62948828D01*
G04 #@! TA.AperFunction,Conductor*
D26*
G36*
X95697432Y-62948828D02*
G01*
X95697437Y-62948832D01*
X96324980Y-63576376D01*
X96324980Y-67383585D01*
X95844681Y-66903286D01*
X95927924Y-66702319D01*
X95975000Y-66465652D01*
X95975000Y-66224348D01*
X95927924Y-65987681D01*
X95835581Y-65764745D01*
X95701519Y-65564108D01*
X95530892Y-65393481D01*
X95330255Y-65259419D01*
X95107319Y-65167076D01*
X94922758Y-65130365D01*
X94873513Y-65115426D01*
X94800000Y-65108186D01*
X93500000Y-65108186D01*
X93500000Y-62481814D01*
X94588194Y-62481814D01*
X94629348Y-62490000D01*
X94870652Y-62490000D01*
X95107319Y-62442924D01*
X95166864Y-62418260D01*
X95697432Y-62948828D01*
G37*
G04 #@! TD.AperFunction*
D34*
X104641079Y-62977818D02*
X104648316Y-63050281D01*
X104669687Y-63120619D01*
X104704369Y-63185437D01*
X104751030Y-63242242D01*
X105030194Y-63521160D01*
X105000000Y-63518186D01*
X104700000Y-63518186D01*
X104626487Y-63525426D01*
X104600000Y-63533461D01*
X104573513Y-63525426D01*
X104500000Y-63518186D01*
X104200000Y-63518186D01*
X104126487Y-63525426D01*
X104100000Y-63533461D01*
X104073513Y-63525426D01*
X104000000Y-63518186D01*
X103700000Y-63518186D01*
X103626487Y-63525426D01*
X103600000Y-63533461D01*
X103573513Y-63525426D01*
X103500000Y-63518186D01*
X103200000Y-63518186D01*
X103126487Y-63525426D01*
X103100000Y-63533461D01*
X103073513Y-63525426D01*
X103000000Y-63518186D01*
X102700000Y-63518186D01*
X102626487Y-63525426D01*
X102600000Y-63533461D01*
X102573513Y-63525426D01*
X102500000Y-63518186D01*
X102234460Y-63518186D01*
X103267574Y-62523920D01*
X104640040Y-62523920D01*
X104641079Y-62977818D01*
G04 #@! TA.AperFunction,Conductor*
D26*
G36*
X104641079Y-62977818D02*
G01*
X104648316Y-63050281D01*
X104669687Y-63120619D01*
X104704369Y-63185437D01*
X104751030Y-63242242D01*
X105030194Y-63521160D01*
X105000000Y-63518186D01*
X104700000Y-63518186D01*
X104626487Y-63525426D01*
X104600000Y-63533461D01*
X104573513Y-63525426D01*
X104500000Y-63518186D01*
X104200000Y-63518186D01*
X104126487Y-63525426D01*
X104100000Y-63533461D01*
X104073513Y-63525426D01*
X104000000Y-63518186D01*
X103700000Y-63518186D01*
X103626487Y-63525426D01*
X103600000Y-63533461D01*
X103573513Y-63525426D01*
X103500000Y-63518186D01*
X103200000Y-63518186D01*
X103126487Y-63525426D01*
X103100000Y-63533461D01*
X103073513Y-63525426D01*
X103000000Y-63518186D01*
X102700000Y-63518186D01*
X102626487Y-63525426D01*
X102600000Y-63533461D01*
X102573513Y-63525426D01*
X102500000Y-63518186D01*
X102234460Y-63518186D01*
X103267574Y-62523920D01*
X104640040Y-62523920D01*
X104641079Y-62977818D01*
G37*
G04 #@! TD.AperFunction*
D34*
X95922432Y-60633828D02*
X95922437Y-60633832D01*
X96624991Y-61336387D01*
X96624991Y-62603596D01*
X96333832Y-62312437D01*
X96333828Y-62312432D01*
X95844681Y-61823285D01*
X95927924Y-61622319D01*
X95975000Y-61385652D01*
X95975000Y-61144348D01*
X95927924Y-60907681D01*
X95835581Y-60684745D01*
X95701519Y-60484108D01*
X95530892Y-60313481D01*
X95330255Y-60179419D01*
X95107319Y-60087076D01*
X94922758Y-60050365D01*
X94873513Y-60035426D01*
X94800000Y-60028186D01*
X93500000Y-60028186D01*
X93500000Y-59951814D01*
X94800000Y-59951814D01*
X94818419Y-59950000D01*
X94870652Y-59950000D01*
X95107319Y-59902924D01*
X95166864Y-59878260D01*
X95922432Y-60633828D01*
G04 #@! TA.AperFunction,Conductor*
D26*
G36*
X95922432Y-60633828D02*
G01*
X95922437Y-60633832D01*
X96624991Y-61336387D01*
X96624991Y-62603596D01*
X96333832Y-62312437D01*
X96333828Y-62312432D01*
X95844681Y-61823285D01*
X95927924Y-61622319D01*
X95975000Y-61385652D01*
X95975000Y-61144348D01*
X95927924Y-60907681D01*
X95835581Y-60684745D01*
X95701519Y-60484108D01*
X95530892Y-60313481D01*
X95330255Y-60179419D01*
X95107319Y-60087076D01*
X94922758Y-60050365D01*
X94873513Y-60035426D01*
X94800000Y-60028186D01*
X93500000Y-60028186D01*
X93500000Y-59951814D01*
X94800000Y-59951814D01*
X94818419Y-59950000D01*
X94870652Y-59950000D01*
X95107319Y-59902924D01*
X95166864Y-59878260D01*
X95922432Y-60633828D01*
G37*
G04 #@! TD.AperFunction*
D35*
X113788001Y-62132903D02*
X110853764Y-62129109D01*
X110828985Y-62131517D01*
X110805151Y-62138714D01*
X110783179Y-62150421D01*
X110763914Y-62166190D01*
X110748095Y-62185415D01*
X110736330Y-62207357D01*
X110729072Y-62231172D01*
X110726600Y-62256313D01*
X110736292Y-68279400D01*
X109329600Y-68279400D01*
X109256051Y-68286644D01*
X109185328Y-68308097D01*
X109120150Y-68342936D01*
X109063021Y-68389821D01*
X109016136Y-68446950D01*
X108981297Y-68512128D01*
X108959844Y-68582851D01*
X108952600Y-68656400D01*
X108952600Y-69168400D01*
X108503824Y-69168400D01*
X108503824Y-68975000D01*
X108496545Y-68901095D01*
X108474988Y-68830030D01*
X108439981Y-68764537D01*
X108392869Y-68707131D01*
X108372507Y-68690420D01*
X108369749Y-68239840D01*
X108372978Y-67784890D01*
X108376511Y-67773242D01*
X108384098Y-67696207D01*
X108388544Y-67685474D01*
X108414560Y-67554679D01*
X108414560Y-67421321D01*
X108388544Y-67290526D01*
X108384098Y-67279793D01*
X108377069Y-67208419D01*
X108380502Y-66724600D01*
X108965600Y-66724600D01*
X108990376Y-66722160D01*
X109014201Y-66714933D01*
X109036157Y-66703197D01*
X109055403Y-66687403D01*
X109071197Y-66668157D01*
X109082933Y-66646201D01*
X109090160Y-66622376D01*
X109092600Y-66597600D01*
X109092600Y-60869840D01*
X111011080Y-60869840D01*
X111083212Y-60862875D01*
X111154016Y-60841693D01*
X111179552Y-60828169D01*
X111209408Y-60828120D01*
X111234181Y-60825639D01*
X111257993Y-60818373D01*
X111279931Y-60806601D01*
X111298182Y-60791735D01*
X111825009Y-60274400D01*
X113788001Y-60274400D01*
X113788001Y-62132903D01*
G04 #@! TA.AperFunction,Conductor*
D26*
G36*
X113788001Y-62132903D02*
G01*
X110853764Y-62129109D01*
X110828985Y-62131517D01*
X110805151Y-62138714D01*
X110783179Y-62150421D01*
X110763914Y-62166190D01*
X110748095Y-62185415D01*
X110736330Y-62207357D01*
X110729072Y-62231172D01*
X110726600Y-62256313D01*
X110736292Y-68279400D01*
X109329600Y-68279400D01*
X109256051Y-68286644D01*
X109185328Y-68308097D01*
X109120150Y-68342936D01*
X109063021Y-68389821D01*
X109016136Y-68446950D01*
X108981297Y-68512128D01*
X108959844Y-68582851D01*
X108952600Y-68656400D01*
X108952600Y-69168400D01*
X108503824Y-69168400D01*
X108503824Y-68975000D01*
X108496545Y-68901095D01*
X108474988Y-68830030D01*
X108439981Y-68764537D01*
X108392869Y-68707131D01*
X108372507Y-68690420D01*
X108369749Y-68239840D01*
X108372978Y-67784890D01*
X108376511Y-67773242D01*
X108384098Y-67696207D01*
X108388544Y-67685474D01*
X108414560Y-67554679D01*
X108414560Y-67421321D01*
X108388544Y-67290526D01*
X108384098Y-67279793D01*
X108377069Y-67208419D01*
X108380502Y-66724600D01*
X108965600Y-66724600D01*
X108990376Y-66722160D01*
X109014201Y-66714933D01*
X109036157Y-66703197D01*
X109055403Y-66687403D01*
X109071197Y-66668157D01*
X109082933Y-66646201D01*
X109090160Y-66622376D01*
X109092600Y-66597600D01*
X109092600Y-60869840D01*
X111011080Y-60869840D01*
X111083212Y-60862875D01*
X111154016Y-60841693D01*
X111179552Y-60828169D01*
X111209408Y-60828120D01*
X111234181Y-60825639D01*
X111257993Y-60818373D01*
X111279931Y-60806601D01*
X111298182Y-60791735D01*
X111825009Y-60274400D01*
X113788001Y-60274400D01*
X113788001Y-62132903D01*
G37*
G04 #@! TD.AperFunction*
D35*
X113708663Y-57630758D02*
X113726609Y-57636176D01*
X113743166Y-57644979D01*
X113757695Y-57656829D01*
X113769648Y-57671279D01*
X113778566Y-57687772D01*
X113784110Y-57705680D01*
X113788001Y-57742702D01*
X113788001Y-59705440D01*
X111676560Y-59705440D01*
X111651784Y-59707880D01*
X111627959Y-59715107D01*
X111606003Y-59726843D01*
X111587102Y-59742294D01*
X110958759Y-60365840D01*
X108613320Y-60365840D01*
X108610436Y-60366124D01*
X108652727Y-60314592D01*
X108734162Y-60162237D01*
X108784310Y-59996922D01*
X108797000Y-59868079D01*
X108797000Y-59181921D01*
X108784310Y-59053078D01*
X108734162Y-58887763D01*
X108652727Y-58735408D01*
X108543133Y-58601867D01*
X108409592Y-58492273D01*
X108257237Y-58410838D01*
X108091922Y-58360690D01*
X107920000Y-58343757D01*
X107748079Y-58360690D01*
X107582764Y-58410838D01*
X107430409Y-58492273D01*
X107296868Y-58601867D01*
X107187274Y-58735408D01*
X107105838Y-58887763D01*
X107055690Y-59053078D01*
X107043000Y-59181921D01*
X107043000Y-59868078D01*
X107055690Y-59996921D01*
X107105838Y-60162236D01*
X107187273Y-60314591D01*
X107296867Y-60448133D01*
X107430408Y-60557727D01*
X107582763Y-60639162D01*
X107748078Y-60689310D01*
X107920000Y-60706243D01*
X108091921Y-60689310D01*
X108257236Y-60639162D01*
X108409591Y-60557727D01*
X108486320Y-60494758D01*
X108486320Y-62021920D01*
X106403520Y-62021920D01*
X106378744Y-62024360D01*
X106354919Y-62031587D01*
X106332963Y-62043323D01*
X106313717Y-62059117D01*
X106297923Y-62078363D01*
X106286187Y-62100319D01*
X106278960Y-62124144D01*
X106276520Y-62148920D01*
X106276520Y-62503586D01*
X106157478Y-62552895D01*
X106042501Y-62629721D01*
X105944721Y-62727501D01*
X105867895Y-62842478D01*
X105814977Y-62970234D01*
X105788000Y-63105859D01*
X105788000Y-63244141D01*
X105814977Y-63379766D01*
X105867895Y-63507522D01*
X105944721Y-63622499D01*
X106042501Y-63720279D01*
X106157478Y-63797105D01*
X106160369Y-63798302D01*
X106153455Y-63821095D01*
X106146176Y-63895000D01*
X106146176Y-65270580D01*
X105878824Y-65270580D01*
X105878824Y-63895000D01*
X105871545Y-63821095D01*
X105849988Y-63750030D01*
X105824400Y-63702159D01*
X105824400Y-63657680D01*
X105821960Y-63632904D01*
X105814733Y-63609079D01*
X105802997Y-63587123D01*
X105787163Y-63567838D01*
X105142958Y-62924202D01*
X105141183Y-62148629D01*
X105138686Y-62123859D01*
X105131404Y-62100051D01*
X105119618Y-62078121D01*
X105103780Y-62058912D01*
X105084499Y-62043162D01*
X105062515Y-62031476D01*
X105038674Y-62024304D01*
X105014183Y-62021920D01*
X103116437Y-62021920D01*
X103091661Y-62024360D01*
X103067836Y-62031587D01*
X103045880Y-62043323D01*
X103028371Y-62057413D01*
X101415794Y-63609353D01*
X101399634Y-63628293D01*
X101387480Y-63650020D01*
X101379798Y-63673702D01*
X101377004Y-63699533D01*
X101350012Y-63750030D01*
X101328455Y-63821095D01*
X101321176Y-63895000D01*
X101321176Y-65273120D01*
X101053824Y-65273120D01*
X101053824Y-63895000D01*
X101046545Y-63821095D01*
X101039631Y-63798302D01*
X101042522Y-63797105D01*
X101157499Y-63720279D01*
X101255279Y-63622499D01*
X101332105Y-63507522D01*
X101385023Y-63379766D01*
X101407220Y-63268170D01*
X101419248Y-63246992D01*
X101427084Y-63223361D01*
X101430200Y-63195400D01*
X101430200Y-61962040D01*
X105980925Y-57627000D01*
X113670335Y-57627000D01*
X113708663Y-57630758D01*
G04 #@! TA.AperFunction,Conductor*
D26*
G36*
X113708663Y-57630758D02*
G01*
X113726609Y-57636176D01*
X113743166Y-57644979D01*
X113757695Y-57656829D01*
X113769648Y-57671279D01*
X113778566Y-57687772D01*
X113784110Y-57705680D01*
X113788001Y-57742702D01*
X113788001Y-59705440D01*
X111676560Y-59705440D01*
X111651784Y-59707880D01*
X111627959Y-59715107D01*
X111606003Y-59726843D01*
X111587102Y-59742294D01*
X110958759Y-60365840D01*
X108613320Y-60365840D01*
X108610436Y-60366124D01*
X108652727Y-60314592D01*
X108734162Y-60162237D01*
X108784310Y-59996922D01*
X108797000Y-59868079D01*
X108797000Y-59181921D01*
X108784310Y-59053078D01*
X108734162Y-58887763D01*
X108652727Y-58735408D01*
X108543133Y-58601867D01*
X108409592Y-58492273D01*
X108257237Y-58410838D01*
X108091922Y-58360690D01*
X107920000Y-58343757D01*
X107748079Y-58360690D01*
X107582764Y-58410838D01*
X107430409Y-58492273D01*
X107296868Y-58601867D01*
X107187274Y-58735408D01*
X107105838Y-58887763D01*
X107055690Y-59053078D01*
X107043000Y-59181921D01*
X107043000Y-59868078D01*
X107055690Y-59996921D01*
X107105838Y-60162236D01*
X107187273Y-60314591D01*
X107296867Y-60448133D01*
X107430408Y-60557727D01*
X107582763Y-60639162D01*
X107748078Y-60689310D01*
X107920000Y-60706243D01*
X108091921Y-60689310D01*
X108257236Y-60639162D01*
X108409591Y-60557727D01*
X108486320Y-60494758D01*
X108486320Y-62021920D01*
X106403520Y-62021920D01*
X106378744Y-62024360D01*
X106354919Y-62031587D01*
X106332963Y-62043323D01*
X106313717Y-62059117D01*
X106297923Y-62078363D01*
X106286187Y-62100319D01*
X106278960Y-62124144D01*
X106276520Y-62148920D01*
X106276520Y-62503586D01*
X106157478Y-62552895D01*
X106042501Y-62629721D01*
X105944721Y-62727501D01*
X105867895Y-62842478D01*
X105814977Y-62970234D01*
X105788000Y-63105859D01*
X105788000Y-63244141D01*
X105814977Y-63379766D01*
X105867895Y-63507522D01*
X105944721Y-63622499D01*
X106042501Y-63720279D01*
X106157478Y-63797105D01*
X106160369Y-63798302D01*
X106153455Y-63821095D01*
X106146176Y-63895000D01*
X106146176Y-65270580D01*
X105878824Y-65270580D01*
X105878824Y-63895000D01*
X105871545Y-63821095D01*
X105849988Y-63750030D01*
X105824400Y-63702159D01*
X105824400Y-63657680D01*
X105821960Y-63632904D01*
X105814733Y-63609079D01*
X105802997Y-63587123D01*
X105787163Y-63567838D01*
X105142958Y-62924202D01*
X105141183Y-62148629D01*
X105138686Y-62123859D01*
X105131404Y-62100051D01*
X105119618Y-62078121D01*
X105103780Y-62058912D01*
X105084499Y-62043162D01*
X105062515Y-62031476D01*
X105038674Y-62024304D01*
X105014183Y-62021920D01*
X103116437Y-62021920D01*
X103091661Y-62024360D01*
X103067836Y-62031587D01*
X103045880Y-62043323D01*
X103028371Y-62057413D01*
X101415794Y-63609353D01*
X101399634Y-63628293D01*
X101387480Y-63650020D01*
X101379798Y-63673702D01*
X101377004Y-63699533D01*
X101350012Y-63750030D01*
X101328455Y-63821095D01*
X101321176Y-63895000D01*
X101321176Y-65273120D01*
X101053824Y-65273120D01*
X101053824Y-63895000D01*
X101046545Y-63821095D01*
X101039631Y-63798302D01*
X101042522Y-63797105D01*
X101157499Y-63720279D01*
X101255279Y-63622499D01*
X101332105Y-63507522D01*
X101385023Y-63379766D01*
X101407220Y-63268170D01*
X101419248Y-63246992D01*
X101427084Y-63223361D01*
X101430200Y-63195400D01*
X101430200Y-61962040D01*
X105980925Y-57627000D01*
X113670335Y-57627000D01*
X113708663Y-57630758D01*
G37*
G04 #@! TD.AperFunction*
D34*
X110931800Y-70844787D02*
X110931800Y-72035301D01*
X110453562Y-72035689D01*
X110375916Y-71994186D01*
X110278965Y-71964776D01*
X110178140Y-71954846D01*
X109898140Y-71954846D01*
X109797315Y-71964776D01*
X109700364Y-71994186D01*
X109621456Y-72036364D01*
X109495016Y-72036466D01*
X109454600Y-72014863D01*
X109454600Y-70967800D01*
X109452198Y-70943414D01*
X109445085Y-70919965D01*
X109433534Y-70898354D01*
X109417988Y-70879412D01*
X109407687Y-70870191D01*
X109280687Y-70768591D01*
X109260144Y-70755233D01*
X109237390Y-70746139D01*
X109210035Y-70742255D01*
X109209347Y-70741691D01*
X109144200Y-70706869D01*
X109073513Y-70685426D01*
X109000000Y-70678186D01*
X108501814Y-70678186D01*
X108501814Y-70671814D01*
X109000000Y-70671814D01*
X109073513Y-70664574D01*
X109121556Y-70650000D01*
X110712349Y-70650000D01*
X110931800Y-70844787D01*
G04 #@! TA.AperFunction,Conductor*
D26*
G36*
X110931800Y-70844787D02*
G01*
X110931800Y-72035301D01*
X110453562Y-72035689D01*
X110375916Y-71994186D01*
X110278965Y-71964776D01*
X110178140Y-71954846D01*
X109898140Y-71954846D01*
X109797315Y-71964776D01*
X109700364Y-71994186D01*
X109621456Y-72036364D01*
X109495016Y-72036466D01*
X109454600Y-72014863D01*
X109454600Y-70967800D01*
X109452198Y-70943414D01*
X109445085Y-70919965D01*
X109433534Y-70898354D01*
X109417988Y-70879412D01*
X109407687Y-70870191D01*
X109280687Y-70768591D01*
X109260144Y-70755233D01*
X109237390Y-70746139D01*
X109210035Y-70742255D01*
X109209347Y-70741691D01*
X109144200Y-70706869D01*
X109073513Y-70685426D01*
X109000000Y-70678186D01*
X108501814Y-70678186D01*
X108501814Y-70671814D01*
X109000000Y-70671814D01*
X109073513Y-70664574D01*
X109121556Y-70650000D01*
X110712349Y-70650000D01*
X110931800Y-70844787D01*
G37*
G04 #@! TD.AperFunction*
D34*
X110902715Y-69700000D02*
X109153830Y-69700000D01*
X109151800Y-69699800D01*
X109120897Y-69699800D01*
X109073513Y-69685426D01*
X109000000Y-69678186D01*
X108514800Y-69678186D01*
X108514800Y-69671814D01*
X109000000Y-69671814D01*
X109014357Y-69670400D01*
X109202600Y-69670400D01*
X109226986Y-69667998D01*
X109250435Y-69660885D01*
X109272046Y-69649334D01*
X109290988Y-69633788D01*
X109417988Y-69506788D01*
X109433534Y-69487846D01*
X109445085Y-69466235D01*
X109452198Y-69442786D01*
X109454600Y-69418400D01*
X109454600Y-68781400D01*
X110883577Y-68781400D01*
X110902715Y-69700000D01*
G04 #@! TA.AperFunction,Conductor*
D26*
G36*
X110902715Y-69700000D02*
G01*
X109153830Y-69700000D01*
X109151800Y-69699800D01*
X109120897Y-69699800D01*
X109073513Y-69685426D01*
X109000000Y-69678186D01*
X108514800Y-69678186D01*
X108514800Y-69671814D01*
X109000000Y-69671814D01*
X109014357Y-69670400D01*
X109202600Y-69670400D01*
X109226986Y-69667998D01*
X109250435Y-69660885D01*
X109272046Y-69649334D01*
X109290988Y-69633788D01*
X109417988Y-69506788D01*
X109433534Y-69487846D01*
X109445085Y-69466235D01*
X109452198Y-69442786D01*
X109454600Y-69418400D01*
X109454600Y-68781400D01*
X110883577Y-68781400D01*
X110902715Y-69700000D01*
G37*
G04 #@! TD.AperFunction*
D33*
X109016100Y-72161600D02*
X109022173Y-72223010D01*
X109040061Y-72281806D01*
X109069076Y-72335982D01*
X109108102Y-72383458D01*
X109155640Y-72422407D01*
X109209864Y-72451333D01*
X109268688Y-72469126D01*
X109329854Y-72475100D01*
X109494700Y-72474967D01*
X109494700Y-83208384D01*
X109180495Y-83501300D01*
X106541297Y-83501300D01*
X106528909Y-83502520D01*
X106516997Y-83506134D01*
X106506018Y-83512002D01*
X106496396Y-83519899D01*
X106488499Y-83529521D01*
X106482631Y-83540500D01*
X106479017Y-83552412D01*
X106477797Y-83564796D01*
X106477787Y-83751448D01*
X106475467Y-83775000D01*
X106475467Y-83875000D01*
X106477779Y-83898469D01*
X106477764Y-84151674D01*
X106475467Y-84175000D01*
X106475467Y-84275000D01*
X106477756Y-84298244D01*
X106477742Y-84551899D01*
X106475467Y-84575000D01*
X106475467Y-84675000D01*
X106477734Y-84698019D01*
X106477720Y-84952124D01*
X106475467Y-84975000D01*
X106475467Y-85075000D01*
X106477712Y-85097794D01*
X106477698Y-85352350D01*
X106475467Y-85375000D01*
X106475467Y-85475000D01*
X106477690Y-85497569D01*
X106477676Y-85752575D01*
X106475467Y-85775000D01*
X106475467Y-85875000D01*
X106477668Y-85897344D01*
X106477654Y-86152800D01*
X106475467Y-86175000D01*
X106475467Y-86275000D01*
X106477646Y-86297119D01*
X106477631Y-86553025D01*
X106475467Y-86575000D01*
X106475467Y-86675000D01*
X106477623Y-86696894D01*
X106477587Y-87353476D01*
X106475467Y-87375000D01*
X106475467Y-87475000D01*
X106477579Y-87496444D01*
X106477565Y-87753701D01*
X106475467Y-87775000D01*
X106475467Y-87875000D01*
X106477557Y-87896219D01*
X106477543Y-88153926D01*
X106475467Y-88175000D01*
X106475467Y-88275000D01*
X106477535Y-88295994D01*
X106477520Y-88554152D01*
X106475467Y-88575000D01*
X106475467Y-88675000D01*
X106477513Y-88695769D01*
X106477506Y-88813840D01*
X106374246Y-88813840D01*
X106340000Y-88810467D01*
X106240000Y-88810467D01*
X106205754Y-88813840D01*
X105974246Y-88813840D01*
X105940000Y-88810467D01*
X105840000Y-88810467D01*
X105805754Y-88813840D01*
X105574246Y-88813840D01*
X105540000Y-88810467D01*
X105440000Y-88810467D01*
X105405754Y-88813840D01*
X105174246Y-88813840D01*
X105140000Y-88810467D01*
X105040000Y-88810467D01*
X105005754Y-88813840D01*
X104774246Y-88813840D01*
X104740000Y-88810467D01*
X104640000Y-88810467D01*
X104605754Y-88813840D01*
X104374246Y-88813840D01*
X104340000Y-88810467D01*
X104240000Y-88810467D01*
X104205754Y-88813840D01*
X104040999Y-88813840D01*
X104028611Y-88815060D01*
X104016699Y-88818674D01*
X104005720Y-88824542D01*
X103996098Y-88832439D01*
X103988201Y-88842061D01*
X103982333Y-88853040D01*
X103978719Y-88864952D01*
X103977499Y-88877281D01*
X103977333Y-89056057D01*
X103975467Y-89075000D01*
X103975467Y-89850000D01*
X103976500Y-89860491D01*
X103976500Y-89888260D01*
X103804951Y-89888260D01*
X103804533Y-89711058D01*
X103804533Y-89075000D01*
X103802996Y-89059393D01*
X103802560Y-88874650D01*
X103801310Y-88862265D01*
X103797669Y-88850361D01*
X103791775Y-88839397D01*
X103783855Y-88829793D01*
X103774214Y-88821919D01*
X103763222Y-88816077D01*
X103751301Y-88812491D01*
X103739061Y-88811300D01*
X103548415Y-88811296D01*
X103540000Y-88810467D01*
X103440000Y-88810467D01*
X103431611Y-88811293D01*
X103148327Y-88811287D01*
X103140000Y-88810467D01*
X103040000Y-88810467D01*
X103031699Y-88811285D01*
X102748238Y-88811278D01*
X102740000Y-88810467D01*
X102640000Y-88810467D01*
X102631788Y-88811276D01*
X102348149Y-88811270D01*
X102340000Y-88810467D01*
X102240000Y-88810467D01*
X102231876Y-88811267D01*
X101948061Y-88811261D01*
X101940000Y-88810467D01*
X101840000Y-88810467D01*
X101831965Y-88811258D01*
X101547972Y-88811252D01*
X101540000Y-88810467D01*
X101440000Y-88810467D01*
X101432053Y-88811250D01*
X101147884Y-88811243D01*
X101140000Y-88810467D01*
X101040000Y-88810467D01*
X101032142Y-88811241D01*
X100896913Y-88811238D01*
X100897162Y-88734152D01*
X100899450Y-88726608D01*
X100904533Y-88675000D01*
X100904533Y-88575000D01*
X100899450Y-88523392D01*
X100897859Y-88518146D01*
X100898466Y-88329851D01*
X100899450Y-88326608D01*
X100904533Y-88275000D01*
X100904533Y-88175000D01*
X100899450Y-88123392D01*
X100899136Y-88122356D01*
X100899778Y-87923276D01*
X100904533Y-87875000D01*
X100904533Y-87775000D01*
X100900392Y-87732959D01*
X100901113Y-87509728D01*
X100904533Y-87475000D01*
X100904533Y-87375000D01*
X100901642Y-87345648D01*
X100903781Y-86682631D01*
X100904533Y-86675000D01*
X100904533Y-86575000D01*
X100904141Y-86571025D01*
X100913800Y-83577705D01*
X100912620Y-83565313D01*
X100909044Y-83553389D01*
X100903212Y-83542392D01*
X100895346Y-83532744D01*
X100885749Y-83524816D01*
X100874790Y-83518912D01*
X100862889Y-83515260D01*
X100850364Y-83514000D01*
X100674070Y-83513823D01*
X100640000Y-83510467D01*
X99865000Y-83510467D01*
X99839457Y-83512983D01*
X99808900Y-83512952D01*
X99808900Y-83288500D01*
X103690000Y-83288500D01*
X103702388Y-83287280D01*
X103714300Y-83283666D01*
X103725279Y-83277798D01*
X103734901Y-83269901D01*
X103742798Y-83260279D01*
X103748666Y-83249300D01*
X103752280Y-83237388D01*
X103753500Y-83225000D01*
X103753500Y-83129828D01*
X103759951Y-83121967D01*
X103784397Y-83076232D01*
X103799450Y-83026608D01*
X103804533Y-82975000D01*
X103804533Y-82200000D01*
X103799450Y-82148392D01*
X103796449Y-82138500D01*
X104383551Y-82138500D01*
X104380550Y-82148392D01*
X104375467Y-82200000D01*
X104375467Y-82975000D01*
X104377366Y-82994284D01*
X104371386Y-82997481D01*
X104339033Y-83024033D01*
X104312481Y-83056386D01*
X104292752Y-83093297D01*
X104280602Y-83133348D01*
X104276500Y-83175000D01*
X104276500Y-83586500D01*
X101490000Y-83586500D01*
X101448348Y-83590602D01*
X101408297Y-83602752D01*
X101371386Y-83622481D01*
X101339033Y-83649033D01*
X101312481Y-83681386D01*
X101292752Y-83718297D01*
X101280602Y-83758348D01*
X101276500Y-83800000D01*
X101276500Y-88175000D01*
X101280602Y-88216652D01*
X101292752Y-88256703D01*
X101312481Y-88293614D01*
X101339033Y-88325967D01*
X101371386Y-88352519D01*
X101408297Y-88372248D01*
X101448348Y-88384398D01*
X101490000Y-88388500D01*
X103776500Y-88388500D01*
X103776500Y-88450000D01*
X103780602Y-88491652D01*
X103792752Y-88531703D01*
X103812481Y-88568614D01*
X103839033Y-88600967D01*
X103871386Y-88627519D01*
X103908297Y-88647248D01*
X103948348Y-88659398D01*
X103990000Y-88663500D01*
X104665000Y-88663500D01*
X104706652Y-88659398D01*
X104746703Y-88647248D01*
X104783614Y-88627519D01*
X104815967Y-88600967D01*
X104842519Y-88568614D01*
X104862248Y-88531703D01*
X104874398Y-88491652D01*
X104878500Y-88450000D01*
X104878500Y-87839533D01*
X105146000Y-87839533D01*
X105156488Y-87838500D01*
X105440000Y-87838500D01*
X105452388Y-87837280D01*
X105464300Y-87833666D01*
X105475279Y-87827798D01*
X105484901Y-87819901D01*
X105492798Y-87810279D01*
X105498666Y-87799300D01*
X105502280Y-87787388D01*
X105503500Y-87775003D01*
X105503512Y-87491369D01*
X105504533Y-87481000D01*
X105504533Y-84644193D01*
X105790405Y-84644470D01*
X105802795Y-84643262D01*
X105814710Y-84639660D01*
X105825694Y-84633803D01*
X105835325Y-84625915D01*
X105843231Y-84616300D01*
X105849110Y-84605327D01*
X105852735Y-84593419D01*
X105853967Y-84580973D01*
X105854097Y-81937772D01*
X106248188Y-81935364D01*
X106260569Y-81934068D01*
X106272458Y-81930382D01*
X106283401Y-81924447D01*
X106292975Y-81916491D01*
X106300813Y-81906820D01*
X106306614Y-81895806D01*
X106310154Y-81883872D01*
X106311300Y-81871865D01*
X106311300Y-80952948D01*
X107208190Y-80960158D01*
X107220587Y-80959037D01*
X107232528Y-80955520D01*
X107243553Y-80949740D01*
X107253239Y-80941921D01*
X107261213Y-80932362D01*
X107267169Y-80921431D01*
X107270878Y-80909549D01*
X107272200Y-80896813D01*
X107274740Y-79840173D01*
X107274740Y-72147500D01*
X108250000Y-72147500D01*
X108262388Y-72146280D01*
X108274300Y-72142666D01*
X108285279Y-72136798D01*
X108294901Y-72128901D01*
X108302798Y-72119279D01*
X108308666Y-72108300D01*
X108312280Y-72096388D01*
X108313500Y-72084000D01*
X108313500Y-71475251D01*
X108323203Y-71457098D01*
X108335411Y-71416853D01*
X108339533Y-71375000D01*
X108339533Y-71179700D01*
X109016100Y-71179700D01*
X109016100Y-72161600D01*
G04 #@! TA.AperFunction,Conductor*
D26*
G36*
X109016100Y-72161600D02*
G01*
X109022173Y-72223010D01*
X109040061Y-72281806D01*
X109069076Y-72335982D01*
X109108102Y-72383458D01*
X109155640Y-72422407D01*
X109209864Y-72451333D01*
X109268688Y-72469126D01*
X109329854Y-72475100D01*
X109494700Y-72474967D01*
X109494700Y-83208384D01*
X109180495Y-83501300D01*
X106541297Y-83501300D01*
X106528909Y-83502520D01*
X106516997Y-83506134D01*
X106506018Y-83512002D01*
X106496396Y-83519899D01*
X106488499Y-83529521D01*
X106482631Y-83540500D01*
X106479017Y-83552412D01*
X106477797Y-83564796D01*
X106477787Y-83751448D01*
X106475467Y-83775000D01*
X106475467Y-83875000D01*
X106477779Y-83898469D01*
X106477764Y-84151674D01*
X106475467Y-84175000D01*
X106475467Y-84275000D01*
X106477756Y-84298244D01*
X106477742Y-84551899D01*
X106475467Y-84575000D01*
X106475467Y-84675000D01*
X106477734Y-84698019D01*
X106477720Y-84952124D01*
X106475467Y-84975000D01*
X106475467Y-85075000D01*
X106477712Y-85097794D01*
X106477698Y-85352350D01*
X106475467Y-85375000D01*
X106475467Y-85475000D01*
X106477690Y-85497569D01*
X106477676Y-85752575D01*
X106475467Y-85775000D01*
X106475467Y-85875000D01*
X106477668Y-85897344D01*
X106477654Y-86152800D01*
X106475467Y-86175000D01*
X106475467Y-86275000D01*
X106477646Y-86297119D01*
X106477631Y-86553025D01*
X106475467Y-86575000D01*
X106475467Y-86675000D01*
X106477623Y-86696894D01*
X106477587Y-87353476D01*
X106475467Y-87375000D01*
X106475467Y-87475000D01*
X106477579Y-87496444D01*
X106477565Y-87753701D01*
X106475467Y-87775000D01*
X106475467Y-87875000D01*
X106477557Y-87896219D01*
X106477543Y-88153926D01*
X106475467Y-88175000D01*
X106475467Y-88275000D01*
X106477535Y-88295994D01*
X106477520Y-88554152D01*
X106475467Y-88575000D01*
X106475467Y-88675000D01*
X106477513Y-88695769D01*
X106477506Y-88813840D01*
X106374246Y-88813840D01*
X106340000Y-88810467D01*
X106240000Y-88810467D01*
X106205754Y-88813840D01*
X105974246Y-88813840D01*
X105940000Y-88810467D01*
X105840000Y-88810467D01*
X105805754Y-88813840D01*
X105574246Y-88813840D01*
X105540000Y-88810467D01*
X105440000Y-88810467D01*
X105405754Y-88813840D01*
X105174246Y-88813840D01*
X105140000Y-88810467D01*
X105040000Y-88810467D01*
X105005754Y-88813840D01*
X104774246Y-88813840D01*
X104740000Y-88810467D01*
X104640000Y-88810467D01*
X104605754Y-88813840D01*
X104374246Y-88813840D01*
X104340000Y-88810467D01*
X104240000Y-88810467D01*
X104205754Y-88813840D01*
X104040999Y-88813840D01*
X104028611Y-88815060D01*
X104016699Y-88818674D01*
X104005720Y-88824542D01*
X103996098Y-88832439D01*
X103988201Y-88842061D01*
X103982333Y-88853040D01*
X103978719Y-88864952D01*
X103977499Y-88877281D01*
X103977333Y-89056057D01*
X103975467Y-89075000D01*
X103975467Y-89850000D01*
X103976500Y-89860491D01*
X103976500Y-89888260D01*
X103804951Y-89888260D01*
X103804533Y-89711058D01*
X103804533Y-89075000D01*
X103802996Y-89059393D01*
X103802560Y-88874650D01*
X103801310Y-88862265D01*
X103797669Y-88850361D01*
X103791775Y-88839397D01*
X103783855Y-88829793D01*
X103774214Y-88821919D01*
X103763222Y-88816077D01*
X103751301Y-88812491D01*
X103739061Y-88811300D01*
X103548415Y-88811296D01*
X103540000Y-88810467D01*
X103440000Y-88810467D01*
X103431611Y-88811293D01*
X103148327Y-88811287D01*
X103140000Y-88810467D01*
X103040000Y-88810467D01*
X103031699Y-88811285D01*
X102748238Y-88811278D01*
X102740000Y-88810467D01*
X102640000Y-88810467D01*
X102631788Y-88811276D01*
X102348149Y-88811270D01*
X102340000Y-88810467D01*
X102240000Y-88810467D01*
X102231876Y-88811267D01*
X101948061Y-88811261D01*
X101940000Y-88810467D01*
X101840000Y-88810467D01*
X101831965Y-88811258D01*
X101547972Y-88811252D01*
X101540000Y-88810467D01*
X101440000Y-88810467D01*
X101432053Y-88811250D01*
X101147884Y-88811243D01*
X101140000Y-88810467D01*
X101040000Y-88810467D01*
X101032142Y-88811241D01*
X100896913Y-88811238D01*
X100897162Y-88734152D01*
X100899450Y-88726608D01*
X100904533Y-88675000D01*
X100904533Y-88575000D01*
X100899450Y-88523392D01*
X100897859Y-88518146D01*
X100898466Y-88329851D01*
X100899450Y-88326608D01*
X100904533Y-88275000D01*
X100904533Y-88175000D01*
X100899450Y-88123392D01*
X100899136Y-88122356D01*
X100899778Y-87923276D01*
X100904533Y-87875000D01*
X100904533Y-87775000D01*
X100900392Y-87732959D01*
X100901113Y-87509728D01*
X100904533Y-87475000D01*
X100904533Y-87375000D01*
X100901642Y-87345648D01*
X100903781Y-86682631D01*
X100904533Y-86675000D01*
X100904533Y-86575000D01*
X100904141Y-86571025D01*
X100913800Y-83577705D01*
X100912620Y-83565313D01*
X100909044Y-83553389D01*
X100903212Y-83542392D01*
X100895346Y-83532744D01*
X100885749Y-83524816D01*
X100874790Y-83518912D01*
X100862889Y-83515260D01*
X100850364Y-83514000D01*
X100674070Y-83513823D01*
X100640000Y-83510467D01*
X99865000Y-83510467D01*
X99839457Y-83512983D01*
X99808900Y-83512952D01*
X99808900Y-83288500D01*
X103690000Y-83288500D01*
X103702388Y-83287280D01*
X103714300Y-83283666D01*
X103725279Y-83277798D01*
X103734901Y-83269901D01*
X103742798Y-83260279D01*
X103748666Y-83249300D01*
X103752280Y-83237388D01*
X103753500Y-83225000D01*
X103753500Y-83129828D01*
X103759951Y-83121967D01*
X103784397Y-83076232D01*
X103799450Y-83026608D01*
X103804533Y-82975000D01*
X103804533Y-82200000D01*
X103799450Y-82148392D01*
X103796449Y-82138500D01*
X104383551Y-82138500D01*
X104380550Y-82148392D01*
X104375467Y-82200000D01*
X104375467Y-82975000D01*
X104377366Y-82994284D01*
X104371386Y-82997481D01*
X104339033Y-83024033D01*
X104312481Y-83056386D01*
X104292752Y-83093297D01*
X104280602Y-83133348D01*
X104276500Y-83175000D01*
X104276500Y-83586500D01*
X101490000Y-83586500D01*
X101448348Y-83590602D01*
X101408297Y-83602752D01*
X101371386Y-83622481D01*
X101339033Y-83649033D01*
X101312481Y-83681386D01*
X101292752Y-83718297D01*
X101280602Y-83758348D01*
X101276500Y-83800000D01*
X101276500Y-88175000D01*
X101280602Y-88216652D01*
X101292752Y-88256703D01*
X101312481Y-88293614D01*
X101339033Y-88325967D01*
X101371386Y-88352519D01*
X101408297Y-88372248D01*
X101448348Y-88384398D01*
X101490000Y-88388500D01*
X103776500Y-88388500D01*
X103776500Y-88450000D01*
X103780602Y-88491652D01*
X103792752Y-88531703D01*
X103812481Y-88568614D01*
X103839033Y-88600967D01*
X103871386Y-88627519D01*
X103908297Y-88647248D01*
X103948348Y-88659398D01*
X103990000Y-88663500D01*
X104665000Y-88663500D01*
X104706652Y-88659398D01*
X104746703Y-88647248D01*
X104783614Y-88627519D01*
X104815967Y-88600967D01*
X104842519Y-88568614D01*
X104862248Y-88531703D01*
X104874398Y-88491652D01*
X104878500Y-88450000D01*
X104878500Y-87839533D01*
X105146000Y-87839533D01*
X105156488Y-87838500D01*
X105440000Y-87838500D01*
X105452388Y-87837280D01*
X105464300Y-87833666D01*
X105475279Y-87827798D01*
X105484901Y-87819901D01*
X105492798Y-87810279D01*
X105498666Y-87799300D01*
X105502280Y-87787388D01*
X105503500Y-87775003D01*
X105503512Y-87491369D01*
X105504533Y-87481000D01*
X105504533Y-84644193D01*
X105790405Y-84644470D01*
X105802795Y-84643262D01*
X105814710Y-84639660D01*
X105825694Y-84633803D01*
X105835325Y-84625915D01*
X105843231Y-84616300D01*
X105849110Y-84605327D01*
X105852735Y-84593419D01*
X105853967Y-84580973D01*
X105854097Y-81937772D01*
X106248188Y-81935364D01*
X106260569Y-81934068D01*
X106272458Y-81930382D01*
X106283401Y-81924447D01*
X106292975Y-81916491D01*
X106300813Y-81906820D01*
X106306614Y-81895806D01*
X106310154Y-81883872D01*
X106311300Y-81871865D01*
X106311300Y-80952948D01*
X107208190Y-80960158D01*
X107220587Y-80959037D01*
X107232528Y-80955520D01*
X107243553Y-80949740D01*
X107253239Y-80941921D01*
X107261213Y-80932362D01*
X107267169Y-80921431D01*
X107270878Y-80909549D01*
X107272200Y-80896813D01*
X107274740Y-79840173D01*
X107274740Y-72147500D01*
X108250000Y-72147500D01*
X108262388Y-72146280D01*
X108274300Y-72142666D01*
X108285279Y-72136798D01*
X108294901Y-72128901D01*
X108302798Y-72119279D01*
X108308666Y-72108300D01*
X108312280Y-72096388D01*
X108313500Y-72084000D01*
X108313500Y-71475251D01*
X108323203Y-71457098D01*
X108335411Y-71416853D01*
X108339533Y-71375000D01*
X108339533Y-71179700D01*
X109016100Y-71179700D01*
X109016100Y-72161600D01*
G37*
G04 #@! TD.AperFunction*
D34*
X99802189Y-77697704D02*
X99776997Y-77728401D01*
X99734090Y-77808675D01*
X99707668Y-77895777D01*
X99699362Y-77980101D01*
X99698563Y-77012533D01*
X99801623Y-77012533D01*
X99802189Y-77697704D01*
G04 #@! TA.AperFunction,Conductor*
D26*
G36*
X99802189Y-77697704D02*
G01*
X99776997Y-77728401D01*
X99734090Y-77808675D01*
X99707668Y-77895777D01*
X99699362Y-77980101D01*
X99698563Y-77012533D01*
X99801623Y-77012533D01*
X99802189Y-77697704D01*
G37*
G04 #@! TD.AperFunction*
M02*
