M48
; DRILL file {KiCad (5.1.10)-1} date 11/11/21 08:54:41
; FORMAT={-:-/ absolute / metric / decimal}
; #@! TF.CreationDate,2021-11-11T08:54:41+00:00
; #@! TF.GenerationSoftware,Kicad,Pcbnew,(5.1.10)-1
; #@! TF.FileFunction,Plated,1,2,PTH
FMAT,2
METRIC
T1C0.200
T2C0.350
T3C0.600
T4C1.000
%
G90
G05
T1
X96.24Y-65.125
X96.96Y-90.265
X97.625Y-75.675
X97.68Y-101.425
X97.902Y-78.075
X99.057Y-95.0
X99.85Y-82.575
X100.45Y-75.625
X100.8Y-69.1
X100.8Y-92.225
X101.125Y-76.725
X101.125Y-83.49
X102.9Y-63.86
X103.33Y-79.125
X103.44Y-81.44
X104.4Y-63.86
X105.45Y-81.9
X105.75Y-79.725
X106.15Y-69.3
X106.6Y-77.175
X107.04Y-69.035
X108.375Y-86.15
X109.06Y-73.685
X109.99Y-80.895
X110.19Y-101.905
X110.31Y-73.665
X110.8Y-84.785
T2
X96.6Y-87.325
X96.7Y-85.335
X97.292Y-84.725
X97.725Y-81.875
X97.817Y-85.72
X98.411Y-85.262
X98.66Y-84.525
X100.2Y-89.575
X102.375Y-84.75
X102.375Y-86.025
X102.375Y-87.3
X103.65Y-84.75
X103.65Y-86.025
X103.65Y-87.3
X104.27Y-88.125
X104.284Y-90.88
X104.925Y-84.75
X104.925Y-86.025
X104.925Y-87.3
X105.065Y-83.725
X105.103Y-93.64
X107.6Y-92.225
X108.5Y-90.125
T4
X92.99Y-91.66
X93.0Y-58.64
X93.0Y-61.17
X93.0Y-63.72
X93.0Y-66.25
X93.0Y-68.8
X93.0Y-71.34
X93.0Y-73.88
X93.0Y-76.42
X93.0Y-81.5
X93.0Y-84.04
X93.0Y-86.58
X93.0Y-89.12
X93.0Y-94.2
X93.0Y-96.74
X93.0Y-99.28
X93.0Y-101.82
X93.0Y-104.36
X93.0Y-106.9
X93.01Y-78.96
X94.7Y-58.64
X94.7Y-61.18
X94.7Y-63.72
X94.7Y-66.26
X94.7Y-68.8
X94.7Y-71.34
X94.7Y-73.88
X94.7Y-76.42
X94.7Y-78.96
X94.7Y-81.5
X94.7Y-84.04
X94.7Y-86.58
X94.7Y-89.12
X94.7Y-91.66
X94.7Y-94.2
X94.7Y-96.74
X94.7Y-99.28
X94.7Y-101.82
X94.7Y-104.36
X94.7Y-106.9
X101.1Y-106.9
X103.64Y-106.9
X106.18Y-106.9
X112.52Y-58.7
X112.52Y-61.24
X112.52Y-63.78
X112.52Y-66.32
X112.52Y-68.86
X112.52Y-71.4
X112.52Y-73.94
X112.52Y-76.48
X112.52Y-79.02
X112.52Y-81.56
X112.52Y-84.1
X112.52Y-86.64
X112.52Y-89.18
X112.52Y-91.72
X112.52Y-94.26
X112.52Y-96.8
X112.52Y-99.34
X112.52Y-101.88
X112.52Y-104.42
X112.52Y-106.96
X114.22Y-58.7
X114.22Y-61.24
X114.22Y-63.78
X114.22Y-66.32
X114.22Y-68.86
X114.22Y-71.4
X114.22Y-73.94
X114.22Y-76.48
X114.22Y-79.02
X114.22Y-81.56
X114.22Y-84.1
X114.22Y-86.64
X114.22Y-89.18
X114.22Y-91.72
X114.22Y-94.26
X114.22Y-96.8
X114.22Y-99.34
X114.22Y-101.88
X114.22Y-104.42
X114.22Y-106.96
T3
X99.33Y-60.125G85X99.33Y-59.525
G05
X99.33Y-64.555G85X99.33Y-63.455
G05
X107.97Y-60.125G85X107.97Y-59.525
G05
X107.97Y-64.555G85X107.97Y-63.455
G05
T0
M30
