G04 #@! TF.GenerationSoftware,KiCad,Pcbnew,(5.1.10)-1*
G04 #@! TF.CreationDate,2021-08-13T11:53:03+01:00*
G04 #@! TF.ProjectId,EnvOpenPico,456e764f-7065-46e5-9069-636f2e6b6963,REV1*
G04 #@! TF.SameCoordinates,Original*
G04 #@! TF.FileFunction,Copper,L2,Bot*
G04 #@! TF.FilePolarity,Positive*
%FSLAX46Y46*%
G04 Gerber Fmt 4.6, Leading zero omitted, Abs format (unit mm)*
G04 Created by KiCad (PCBNEW (5.1.10)-1) date 2021-08-13 11:53:03*
%MOMM*%
%LPD*%
G01*
G04 APERTURE LIST*
G04 #@! TA.AperFunction,SMDPad,CuDef*
%ADD10C,1.000000*%
G04 #@! TD*
G04 #@! TA.AperFunction,ComponentPad*
%ADD11C,0.500000*%
G04 #@! TD*
G04 #@! TA.AperFunction,ComponentPad*
%ADD12O,1.700000X1.700000*%
G04 #@! TD*
G04 #@! TA.AperFunction,ComponentPad*
%ADD13R,1.700000X1.700000*%
G04 #@! TD*
G04 #@! TA.AperFunction,ComponentPad*
%ADD14R,3.500000X1.700000*%
G04 #@! TD*
G04 #@! TA.AperFunction,ComponentPad*
%ADD15C,1.700000*%
G04 #@! TD*
G04 #@! TA.AperFunction,ComponentPad*
%ADD16O,1.000000X2.100000*%
G04 #@! TD*
G04 #@! TA.AperFunction,ComponentPad*
%ADD17O,1.000000X1.600000*%
G04 #@! TD*
G04 #@! TA.AperFunction,ComponentPad*
%ADD18C,0.600000*%
G04 #@! TD*
G04 #@! TA.AperFunction,ViaPad*
%ADD19C,0.600000*%
G04 #@! TD*
G04 #@! TA.AperFunction,ViaPad*
%ADD20C,0.400000*%
G04 #@! TD*
G04 #@! TA.AperFunction,Conductor*
%ADD21C,0.150000*%
G04 #@! TD*
G04 #@! TA.AperFunction,Conductor*
%ADD22C,0.300000*%
G04 #@! TD*
G04 #@! TA.AperFunction,Conductor*
%ADD23C,0.400000*%
G04 #@! TD*
G04 #@! TA.AperFunction,Conductor*
%ADD24C,0.800000*%
G04 #@! TD*
G04 #@! TA.AperFunction,Conductor*
%ADD25C,0.254000*%
G04 #@! TD*
G04 APERTURE END LIST*
D10*
X101447200Y-83234600D03*
X105003200Y-83564800D03*
X109016400Y-73811200D03*
X110142400Y-61315800D03*
X110142400Y-59766400D03*
X106154600Y-64795600D03*
X104469800Y-67664400D03*
X102691800Y-67639000D03*
G04 #@! TA.AperFunction,SMDPad,CuDef*
G36*
G01*
X100574400Y-76761000D02*
X100914400Y-76761000D01*
G75*
G02*
X101054400Y-76901000I0J-140000D01*
G01*
X101054400Y-77181000D01*
G75*
G02*
X100914400Y-77321000I-140000J0D01*
G01*
X100574400Y-77321000D01*
G75*
G02*
X100434400Y-77181000I0J140000D01*
G01*
X100434400Y-76901000D01*
G75*
G02*
X100574400Y-76761000I140000J0D01*
G01*
G37*
G04 #@! TD.AperFunction*
G04 #@! TA.AperFunction,SMDPad,CuDef*
G36*
G01*
X100574400Y-77721000D02*
X100914400Y-77721000D01*
G75*
G02*
X101054400Y-77861000I0J-140000D01*
G01*
X101054400Y-78141000D01*
G75*
G02*
X100914400Y-78281000I-140000J0D01*
G01*
X100574400Y-78281000D01*
G75*
G02*
X100434400Y-78141000I0J140000D01*
G01*
X100434400Y-77861000D01*
G75*
G02*
X100574400Y-77721000I140000J0D01*
G01*
G37*
G04 #@! TD.AperFunction*
D11*
X107300000Y-71125000D03*
X106725000Y-70175000D03*
X107875000Y-70175000D03*
X107300000Y-69225000D03*
D12*
X112550000Y-106985000D03*
X112550000Y-104445000D03*
D13*
X112550000Y-101905000D03*
D12*
X112550000Y-99365000D03*
X112550000Y-96825000D03*
X112550000Y-94285000D03*
X112550000Y-91745000D03*
D13*
X112550000Y-89205000D03*
D12*
X112550000Y-86665000D03*
X112550000Y-84125000D03*
X112550000Y-81585000D03*
X112550000Y-79045000D03*
D13*
X112550000Y-76505000D03*
D12*
X112550000Y-73965000D03*
X112550000Y-71425000D03*
X112550000Y-68885000D03*
X112550000Y-66345000D03*
D13*
X112550000Y-63805000D03*
D12*
X112550000Y-61265000D03*
D13*
X112550000Y-58725000D03*
D14*
X114250000Y-99365000D03*
X114250000Y-101905000D03*
X114250000Y-96825000D03*
X114250000Y-104445000D03*
X114250000Y-94285000D03*
X114250000Y-106985000D03*
X114250000Y-86665000D03*
X114250000Y-91745000D03*
X114250000Y-84125000D03*
X114250000Y-73965000D03*
X114250000Y-71425000D03*
X114250000Y-68885000D03*
X114250000Y-61265000D03*
X114250000Y-89205000D03*
X114250000Y-76505000D03*
X114250000Y-63805000D03*
X114250000Y-58725000D03*
X114250000Y-79045000D03*
X114250000Y-66345000D03*
X114250000Y-81585000D03*
D12*
X94750000Y-58725000D03*
X94750000Y-61265000D03*
D13*
X94750000Y-63805000D03*
D12*
X94750000Y-66345000D03*
X94750000Y-68885000D03*
X94750000Y-71425000D03*
X94750000Y-73965000D03*
D13*
X94750000Y-76505000D03*
D12*
X94750000Y-79045000D03*
X94750000Y-81585000D03*
X94750000Y-84125000D03*
X94750000Y-86665000D03*
D13*
X94750000Y-89205000D03*
D12*
X94750000Y-91745000D03*
X94750000Y-94285000D03*
X94750000Y-96825000D03*
X94750000Y-99365000D03*
D13*
X94750000Y-101905000D03*
D12*
X94750000Y-104445000D03*
D15*
X94750000Y-106985000D03*
D14*
X93050000Y-104445000D03*
X93050000Y-73965000D03*
X93050000Y-99365000D03*
X93050000Y-94285000D03*
X93050000Y-89205000D03*
X93050000Y-86665000D03*
X93050000Y-71425000D03*
X93060000Y-79045000D03*
X93050000Y-68885000D03*
X93050000Y-61255000D03*
X93050000Y-66335000D03*
X93040000Y-91745000D03*
X93050000Y-96825000D03*
X93050000Y-81585000D03*
X93050000Y-76505000D03*
X93050000Y-106985000D03*
X93050000Y-84125000D03*
X93050000Y-63805000D03*
X93050000Y-101905000D03*
X93050000Y-58725000D03*
D16*
X107920000Y-63705000D03*
X99280000Y-63705000D03*
D17*
X107920000Y-59525000D03*
X99280000Y-59525000D03*
D18*
X104965000Y-87300000D03*
X103690000Y-87300000D03*
X102415000Y-87300000D03*
X104965000Y-86025000D03*
X103690000Y-86025000D03*
X102415000Y-86025000D03*
X104965000Y-84750000D03*
X103690000Y-84750000D03*
X102415000Y-84750000D03*
D12*
X106230000Y-106925000D03*
G04 #@! TA.AperFunction,ComponentPad*
G36*
G01*
X104115000Y-107775000D02*
X103265000Y-107775000D01*
G75*
G02*
X102840000Y-107350000I0J425000D01*
G01*
X102840000Y-106500000D01*
G75*
G02*
X103265000Y-106075000I425000J0D01*
G01*
X104115000Y-106075000D01*
G75*
G02*
X104540000Y-106500000I0J-425000D01*
G01*
X104540000Y-107350000D01*
G75*
G02*
X104115000Y-107775000I-425000J0D01*
G01*
G37*
G04 #@! TD.AperFunction*
X101150000Y-106925000D03*
D19*
X108500000Y-90125000D03*
X96450000Y-61925000D03*
X96600000Y-87325000D03*
X97291928Y-84725000D03*
X101850000Y-92100000D03*
X108800000Y-93175000D03*
X105103040Y-93639840D03*
X100375000Y-64620000D03*
X100200000Y-89575000D03*
X97725000Y-81875000D03*
X110390000Y-84545000D03*
X103490000Y-62915000D03*
X110371000Y-81127800D03*
X110310040Y-73589080D03*
D20*
X101247320Y-80749340D03*
D19*
X110117000Y-59766300D03*
X105065000Y-83725000D03*
X104340000Y-88125000D03*
X104284269Y-90880277D03*
X105732960Y-81396992D03*
X103205660Y-80820436D03*
X96700000Y-85335000D03*
X97816938Y-85719993D03*
X98410926Y-85262067D03*
X98660000Y-84525000D03*
X107600000Y-92225000D03*
X100262500Y-82362500D03*
X107737560Y-67488000D03*
D20*
X102850000Y-64650000D03*
X103860000Y-64650000D03*
D19*
X104363900Y-77985820D03*
D20*
X103350000Y-64650000D03*
X104360000Y-64650000D03*
D19*
X105334732Y-77983960D03*
X110371000Y-77775000D03*
X110117000Y-61341300D03*
D20*
X101125400Y-83490000D03*
D19*
X109202600Y-73609400D03*
X101170000Y-76206400D03*
D21*
X112590000Y-89205000D02*
X112244000Y-89205000D01*
X112244000Y-89205000D02*
X110628000Y-90821000D01*
X112590000Y-88719000D02*
X111390000Y-87519000D01*
X112590000Y-89205000D02*
X112590000Y-88719000D01*
X97291928Y-84725000D02*
X97291928Y-85863072D01*
X97291928Y-85863072D02*
X97290000Y-85865000D01*
X97290000Y-85865000D02*
X97290000Y-86655000D01*
X104290000Y-88100000D02*
X104290000Y-88100000D01*
X104840000Y-83950000D02*
X105065000Y-83725000D01*
X104665000Y-83950000D02*
X104840000Y-83950000D01*
X104340000Y-88000000D02*
X104284269Y-88055731D01*
X104284269Y-90456013D02*
X104284269Y-90880277D01*
X104284269Y-88055731D02*
X104284269Y-90456013D01*
X105065000Y-83725000D02*
X105065000Y-82064952D01*
X105065000Y-82064952D02*
X105732960Y-81396992D01*
X104665000Y-83950000D02*
X103205660Y-82490660D01*
X103205660Y-82490660D02*
X103205660Y-80820436D01*
X95710000Y-79085000D02*
X96700000Y-80075000D01*
X96700000Y-80075000D02*
X96700000Y-85335000D01*
X94690000Y-79085000D02*
X95710000Y-79085000D01*
X96945000Y-74005000D02*
X94690000Y-74005000D01*
X98417178Y-83556541D02*
X98417178Y-75477178D01*
X97816938Y-85719993D02*
X97816938Y-84156781D01*
X98417178Y-75477178D02*
X96945000Y-74005000D01*
X97816938Y-84156781D02*
X98417178Y-83556541D01*
X98717189Y-83680809D02*
X98717189Y-74190108D01*
X98134999Y-84262999D02*
X98717189Y-83680809D01*
X98410926Y-85262067D02*
X98134999Y-84986140D01*
X98134999Y-84986140D02*
X98134999Y-84262999D01*
X95952081Y-71425000D02*
X94750000Y-71425000D01*
X98717189Y-74190108D02*
X95952081Y-71425000D01*
X99017200Y-84167800D02*
X98660000Y-84525000D01*
X99017200Y-73152200D02*
X99017200Y-84167800D01*
X94750000Y-68885000D02*
X99017200Y-73152200D01*
X111800000Y-84125000D02*
X112590000Y-84125000D01*
X110800000Y-85125000D02*
X111800000Y-84125000D01*
X110800000Y-89025000D02*
X110800000Y-85125000D01*
X107600000Y-92225000D02*
X110800000Y-89025000D01*
X100744400Y-78498900D02*
X100744400Y-78001000D01*
X100071300Y-79172000D02*
X100744400Y-78498900D01*
X100262500Y-82362500D02*
X100071300Y-82171300D01*
X100071300Y-82171300D02*
X100071300Y-79172000D01*
D22*
X107737560Y-67488000D02*
X109796960Y-67488000D01*
X110939960Y-66345000D02*
X112550000Y-66345000D01*
X109796960Y-67488000D02*
X110939960Y-66345000D01*
X103860000Y-64410000D02*
X103860000Y-64650000D01*
X103599999Y-64149999D02*
X103860000Y-64410000D01*
X103067159Y-64149999D02*
X103599999Y-64149999D01*
X102850000Y-64367158D02*
X103067159Y-64149999D01*
X102850000Y-64650000D02*
X102850000Y-64367158D01*
D21*
X102852600Y-64652600D02*
X102850000Y-64650000D01*
D23*
X102852600Y-67569280D02*
X102852600Y-65964000D01*
X102852600Y-65964000D02*
X102852600Y-64652600D01*
D24*
X102827200Y-68314201D02*
X102827200Y-67564200D01*
X104363900Y-77985820D02*
X104323386Y-77945306D01*
X104323386Y-76411930D02*
X102286960Y-74375504D01*
X104323386Y-77945306D02*
X104323386Y-76411930D01*
X102286960Y-74375504D02*
X102286960Y-71547896D01*
X103064200Y-70770656D02*
X103064200Y-68551201D01*
X102286960Y-71547896D02*
X103064200Y-70770656D01*
X103064200Y-68551201D02*
X102827200Y-68314201D01*
D22*
X103350000Y-64880002D02*
X103350000Y-64650000D01*
X103619999Y-65150001D02*
X103350000Y-64880002D01*
X104142841Y-65150001D02*
X103619999Y-65150001D01*
X104360000Y-64932842D02*
X104142841Y-65150001D01*
X104360000Y-64650000D02*
X104360000Y-64932842D01*
D21*
X104361360Y-64651360D02*
X104360000Y-64650000D01*
D23*
X104361360Y-67559120D02*
X104361360Y-64651360D01*
D24*
X104351200Y-68314201D02*
X104351200Y-67564200D01*
X104114200Y-68551201D02*
X104351200Y-68314201D01*
X104114200Y-71205584D02*
X104114200Y-68551201D01*
X105334732Y-77983960D02*
X105373386Y-77945306D01*
X105373386Y-75977002D02*
X103336960Y-73940576D01*
X105373386Y-77945306D02*
X105373386Y-75977002D01*
X103336960Y-73940576D02*
X103336960Y-71982824D01*
X103336960Y-71982824D02*
X104114200Y-71205584D01*
D21*
X110371000Y-77775000D02*
X110371000Y-74828600D01*
X110371000Y-74828600D02*
X111133000Y-74066600D01*
X111133000Y-72842000D02*
X112550000Y-71425000D01*
X111133000Y-74066600D02*
X111133000Y-72842000D01*
D24*
X109202600Y-72232400D02*
X109202600Y-73609400D01*
X112550000Y-68885000D02*
X109202600Y-72232400D01*
D21*
X101170000Y-76615400D02*
X101170000Y-76206400D01*
X100744400Y-77041000D02*
X101170000Y-76615400D01*
X101125400Y-83490000D02*
X101125400Y-82093000D01*
X101125400Y-82093000D02*
X100719000Y-81686600D01*
X101709600Y-78664000D02*
X101709600Y-78006200D01*
X101709600Y-77155000D02*
X101170000Y-76615400D01*
X101709600Y-78006200D02*
X101709600Y-77155000D01*
X100719000Y-79654600D02*
X101709600Y-78664000D01*
X100719000Y-81686600D02*
X100719000Y-79654600D01*
D25*
X111385019Y-57664537D02*
X111350012Y-57730030D01*
X111328455Y-57801095D01*
X111321176Y-57875000D01*
X111321176Y-59575000D01*
X111328455Y-59648905D01*
X111350012Y-59719970D01*
X111385019Y-59785463D01*
X111432131Y-59842869D01*
X111489537Y-59889981D01*
X111555030Y-59924988D01*
X111626095Y-59946545D01*
X111700000Y-59953824D01*
X113788001Y-59953824D01*
X113788001Y-60036176D01*
X112500000Y-60036176D01*
X112481481Y-60038000D01*
X112429151Y-60038000D01*
X112192097Y-60085153D01*
X111968798Y-60177647D01*
X111767833Y-60311927D01*
X111596927Y-60482833D01*
X111462647Y-60683798D01*
X111370153Y-60907097D01*
X111323000Y-61144151D01*
X111323000Y-61385849D01*
X111370153Y-61622903D01*
X111462647Y-61846202D01*
X111596927Y-62047167D01*
X111767833Y-62218073D01*
X111968798Y-62352353D01*
X112192097Y-62444847D01*
X112429151Y-62492000D01*
X112481481Y-62492000D01*
X112500000Y-62493824D01*
X113788001Y-62493824D01*
X113788001Y-65116176D01*
X112500000Y-65116176D01*
X112481481Y-65118000D01*
X112429151Y-65118000D01*
X112192097Y-65165153D01*
X111968798Y-65257647D01*
X111767833Y-65391927D01*
X111596927Y-65562833D01*
X111462647Y-65763798D01*
X111440196Y-65818000D01*
X110965840Y-65818000D01*
X110939959Y-65815451D01*
X110836650Y-65825626D01*
X110737310Y-65855761D01*
X110645758Y-65904696D01*
X110565512Y-65970552D01*
X110549009Y-65990661D01*
X109578671Y-66961000D01*
X108167417Y-66961000D01*
X108058240Y-66888050D01*
X107935034Y-66837016D01*
X107804239Y-66811000D01*
X107670881Y-66811000D01*
X107540086Y-66837016D01*
X107416880Y-66888050D01*
X107305997Y-66962140D01*
X107211700Y-67056437D01*
X107137610Y-67167320D01*
X107086576Y-67290526D01*
X107060560Y-67421321D01*
X107060560Y-67554679D01*
X107086576Y-67685474D01*
X107137610Y-67808680D01*
X107211700Y-67919563D01*
X107305997Y-68013860D01*
X107416880Y-68087950D01*
X107540086Y-68138984D01*
X107670881Y-68165000D01*
X107804239Y-68165000D01*
X107935034Y-68138984D01*
X108058240Y-68087950D01*
X108167417Y-68015000D01*
X109771079Y-68015000D01*
X109796960Y-68017549D01*
X109822841Y-68015000D01*
X109900270Y-68007374D01*
X109999610Y-67977239D01*
X110091162Y-67928304D01*
X110171408Y-67862448D01*
X110187915Y-67842334D01*
X111158250Y-66872000D01*
X111440196Y-66872000D01*
X111462647Y-66926202D01*
X111596927Y-67127167D01*
X111767833Y-67298073D01*
X111968798Y-67432353D01*
X112192097Y-67524847D01*
X112429151Y-67572000D01*
X112481481Y-67572000D01*
X112500000Y-67573824D01*
X113788001Y-67573824D01*
X113788001Y-67656176D01*
X112500000Y-67656176D01*
X112481481Y-67658000D01*
X112429151Y-67658000D01*
X112192097Y-67705153D01*
X111968798Y-67797647D01*
X111767833Y-67931927D01*
X111596927Y-68102833D01*
X111462647Y-68303798D01*
X111370153Y-68527097D01*
X111323000Y-68764151D01*
X111323000Y-69005849D01*
X111324212Y-69011944D01*
X108680170Y-71655987D01*
X108650520Y-71680320D01*
X108626191Y-71709966D01*
X108553423Y-71798634D01*
X108484857Y-71926911D01*
X108481273Y-71933617D01*
X108436843Y-72080082D01*
X108425600Y-72194234D01*
X108421841Y-72232400D01*
X108425600Y-72270564D01*
X108425601Y-73161734D01*
X108335190Y-73252145D01*
X108239213Y-73395785D01*
X108173103Y-73555389D01*
X108139400Y-73724823D01*
X108139400Y-73897577D01*
X108173103Y-74067011D01*
X108239213Y-74226615D01*
X108335190Y-74370255D01*
X108457345Y-74492410D01*
X108600985Y-74588387D01*
X108760589Y-74654497D01*
X108930023Y-74688200D01*
X109102777Y-74688200D01*
X109272211Y-74654497D01*
X109431815Y-74588387D01*
X109575455Y-74492410D01*
X109697610Y-74370255D01*
X109793587Y-74226615D01*
X109859697Y-74067011D01*
X109871946Y-74005433D01*
X109923927Y-73908184D01*
X109968357Y-73761719D01*
X109979600Y-73647566D01*
X109979600Y-72554243D01*
X111346169Y-71187675D01*
X111323000Y-71304151D01*
X111323000Y-71545849D01*
X111370153Y-71782903D01*
X111423671Y-71912106D01*
X110829096Y-72506681D01*
X110811842Y-72520841D01*
X110780335Y-72559233D01*
X110755358Y-72589667D01*
X110713386Y-72668191D01*
X110687540Y-72753393D01*
X110678813Y-72842000D01*
X110681001Y-72864215D01*
X110681000Y-73879376D01*
X110067096Y-74493281D01*
X110049842Y-74507441D01*
X110018032Y-74546202D01*
X109993358Y-74576267D01*
X109951386Y-74654791D01*
X109925540Y-74739993D01*
X109916813Y-74828600D01*
X109919001Y-74850815D01*
X109919000Y-77269577D01*
X109845140Y-77343437D01*
X109771050Y-77454320D01*
X109720016Y-77577526D01*
X109694000Y-77708321D01*
X109694000Y-77841679D01*
X109720016Y-77972474D01*
X109771050Y-78095680D01*
X109845140Y-78206563D01*
X109939437Y-78300860D01*
X110050320Y-78374950D01*
X110173526Y-78425984D01*
X110304321Y-78452000D01*
X110437679Y-78452000D01*
X110568474Y-78425984D01*
X110691680Y-78374950D01*
X110802563Y-78300860D01*
X110896860Y-78206563D01*
X110970950Y-78095680D01*
X111021984Y-77972474D01*
X111048000Y-77841679D01*
X111048000Y-77708321D01*
X111021984Y-77577526D01*
X110970950Y-77454320D01*
X110896860Y-77343437D01*
X110823000Y-77269577D01*
X110823000Y-75015823D01*
X111412848Y-74425976D01*
X111462647Y-74546202D01*
X111596927Y-74747167D01*
X111767833Y-74918073D01*
X111968798Y-75052353D01*
X112192097Y-75144847D01*
X112429151Y-75192000D01*
X112481481Y-75192000D01*
X112500000Y-75193824D01*
X113788001Y-75193824D01*
X113788001Y-77816176D01*
X112500000Y-77816176D01*
X112481481Y-77818000D01*
X112429151Y-77818000D01*
X112192097Y-77865153D01*
X111968798Y-77957647D01*
X111767833Y-78091927D01*
X111596927Y-78262833D01*
X111462647Y-78463798D01*
X111370153Y-78687097D01*
X111323000Y-78924151D01*
X111323000Y-79165849D01*
X111370153Y-79402903D01*
X111462647Y-79626202D01*
X111596927Y-79827167D01*
X111767833Y-79998073D01*
X111968798Y-80132353D01*
X112192097Y-80224847D01*
X112429151Y-80272000D01*
X112481481Y-80272000D01*
X112500000Y-80273824D01*
X113788001Y-80273824D01*
X113788001Y-80356176D01*
X112500000Y-80356176D01*
X112481481Y-80358000D01*
X112429151Y-80358000D01*
X112192097Y-80405153D01*
X111968798Y-80497647D01*
X111767833Y-80631927D01*
X111596927Y-80802833D01*
X111462647Y-81003798D01*
X111370153Y-81227097D01*
X111323000Y-81464151D01*
X111323000Y-81705849D01*
X111370153Y-81942903D01*
X111462647Y-82166202D01*
X111596927Y-82367167D01*
X111767833Y-82538073D01*
X111968798Y-82672353D01*
X112192097Y-82764847D01*
X112429151Y-82812000D01*
X112481481Y-82812000D01*
X112500000Y-82813824D01*
X113788001Y-82813824D01*
X113788000Y-82896176D01*
X112500000Y-82896176D01*
X112481481Y-82898000D01*
X112429151Y-82898000D01*
X112192097Y-82945153D01*
X111968798Y-83037647D01*
X111767833Y-83171927D01*
X111596927Y-83342833D01*
X111462647Y-83543798D01*
X111370153Y-83767097D01*
X111333274Y-83952503D01*
X110496096Y-84789681D01*
X110478842Y-84803841D01*
X110432497Y-84860313D01*
X110422358Y-84872667D01*
X110380386Y-84951191D01*
X110354540Y-85036393D01*
X110345813Y-85125000D01*
X110348001Y-85147215D01*
X110348000Y-88837775D01*
X107637777Y-91548000D01*
X107533321Y-91548000D01*
X107402526Y-91574016D01*
X107279320Y-91625050D01*
X107168437Y-91699140D01*
X107074140Y-91793437D01*
X107000050Y-91904320D01*
X106949016Y-92027526D01*
X106923000Y-92158321D01*
X106923000Y-92291679D01*
X106949016Y-92422474D01*
X107000050Y-92545680D01*
X107074140Y-92656563D01*
X107168437Y-92750860D01*
X107279320Y-92824950D01*
X107402526Y-92875984D01*
X107533321Y-92902000D01*
X107666679Y-92902000D01*
X107797474Y-92875984D01*
X107920680Y-92824950D01*
X108031563Y-92750860D01*
X108125860Y-92656563D01*
X108199950Y-92545680D01*
X108250984Y-92422474D01*
X108277000Y-92291679D01*
X108277000Y-92187223D01*
X111103912Y-89360313D01*
X111121159Y-89346159D01*
X111177643Y-89277333D01*
X111219614Y-89198810D01*
X111245460Y-89113607D01*
X111252000Y-89047205D01*
X111252000Y-89047204D01*
X111254187Y-89025001D01*
X111252000Y-89002796D01*
X111252000Y-85312223D01*
X111626992Y-84937232D01*
X111767833Y-85078073D01*
X111968798Y-85212353D01*
X112192097Y-85304847D01*
X112429151Y-85352000D01*
X112481481Y-85352000D01*
X112500000Y-85353824D01*
X113788000Y-85353824D01*
X113788000Y-85436176D01*
X112500000Y-85436176D01*
X112481481Y-85438000D01*
X112429151Y-85438000D01*
X112192097Y-85485153D01*
X111968798Y-85577647D01*
X111767833Y-85711927D01*
X111596927Y-85882833D01*
X111462647Y-86083798D01*
X111370153Y-86307097D01*
X111323000Y-86544151D01*
X111323000Y-86785849D01*
X111370153Y-87022903D01*
X111462647Y-87246202D01*
X111596927Y-87447167D01*
X111767833Y-87618073D01*
X111968798Y-87752353D01*
X112192097Y-87844847D01*
X112429151Y-87892000D01*
X112481481Y-87892000D01*
X112500000Y-87893824D01*
X113788000Y-87893824D01*
X113788000Y-90516176D01*
X112500000Y-90516176D01*
X112481481Y-90518000D01*
X112429151Y-90518000D01*
X112192097Y-90565153D01*
X111968798Y-90657647D01*
X111767833Y-90791927D01*
X111596927Y-90962833D01*
X111462647Y-91163798D01*
X111370153Y-91387097D01*
X111323000Y-91624151D01*
X111323000Y-91865849D01*
X111370153Y-92102903D01*
X111462647Y-92326202D01*
X111596927Y-92527167D01*
X111767833Y-92698073D01*
X111968798Y-92832353D01*
X112192097Y-92924847D01*
X112429151Y-92972000D01*
X112481481Y-92972000D01*
X112500000Y-92973824D01*
X113788000Y-92973824D01*
X113788000Y-93056176D01*
X112500000Y-93056176D01*
X112481481Y-93058000D01*
X112429151Y-93058000D01*
X112192097Y-93105153D01*
X111968798Y-93197647D01*
X111767833Y-93331927D01*
X111596927Y-93502833D01*
X111462647Y-93703798D01*
X111370153Y-93927097D01*
X111323000Y-94164151D01*
X111323000Y-94405849D01*
X111370153Y-94642903D01*
X111462647Y-94866202D01*
X111596927Y-95067167D01*
X111767833Y-95238073D01*
X111968798Y-95372353D01*
X112192097Y-95464847D01*
X112429151Y-95512000D01*
X112481481Y-95512000D01*
X112500000Y-95513824D01*
X113788000Y-95513824D01*
X113788000Y-95596176D01*
X112500000Y-95596176D01*
X112481481Y-95598000D01*
X112429151Y-95598000D01*
X112192097Y-95645153D01*
X111968798Y-95737647D01*
X111767833Y-95871927D01*
X111596927Y-96042833D01*
X111462647Y-96243798D01*
X111370153Y-96467097D01*
X111323000Y-96704151D01*
X111323000Y-96945849D01*
X111370153Y-97182903D01*
X111462647Y-97406202D01*
X111596927Y-97607167D01*
X111767833Y-97778073D01*
X111968798Y-97912353D01*
X112192097Y-98004847D01*
X112429151Y-98052000D01*
X112481481Y-98052000D01*
X112500000Y-98053824D01*
X113788000Y-98053824D01*
X113788000Y-98136176D01*
X112500000Y-98136176D01*
X112481481Y-98138000D01*
X112429151Y-98138000D01*
X112192097Y-98185153D01*
X111968798Y-98277647D01*
X111767833Y-98411927D01*
X111596927Y-98582833D01*
X111462647Y-98783798D01*
X111370153Y-99007097D01*
X111323000Y-99244151D01*
X111323000Y-99485849D01*
X111370153Y-99722903D01*
X111462647Y-99946202D01*
X111596927Y-100147167D01*
X111767833Y-100318073D01*
X111968798Y-100452353D01*
X112192097Y-100544847D01*
X112429151Y-100592000D01*
X112481481Y-100592000D01*
X112500000Y-100593824D01*
X113788000Y-100593824D01*
X113788000Y-103216176D01*
X112500000Y-103216176D01*
X112481481Y-103218000D01*
X112429151Y-103218000D01*
X112192097Y-103265153D01*
X111968798Y-103357647D01*
X111767833Y-103491927D01*
X111596927Y-103662833D01*
X111462647Y-103863798D01*
X111370153Y-104087097D01*
X111323000Y-104324151D01*
X111323000Y-104565849D01*
X111370153Y-104802903D01*
X111462647Y-105026202D01*
X111596927Y-105227167D01*
X111767833Y-105398073D01*
X111968798Y-105532353D01*
X112192097Y-105624847D01*
X112429151Y-105672000D01*
X112481481Y-105672000D01*
X112500000Y-105673824D01*
X113788000Y-105673824D01*
X113788000Y-105756176D01*
X112500000Y-105756176D01*
X112481481Y-105758000D01*
X112429151Y-105758000D01*
X112192097Y-105805153D01*
X111968798Y-105897647D01*
X111767833Y-106031927D01*
X111596927Y-106202833D01*
X111462647Y-106403798D01*
X111370153Y-106627097D01*
X111323000Y-106864151D01*
X111323000Y-107105849D01*
X111370153Y-107342903D01*
X111462647Y-107566202D01*
X111596927Y-107767167D01*
X111767833Y-107938073D01*
X111968798Y-108072353D01*
X112091070Y-108123000D01*
X106496642Y-108123000D01*
X106587903Y-108104847D01*
X106811202Y-108012353D01*
X107012167Y-107878073D01*
X107183073Y-107707167D01*
X107317353Y-107506202D01*
X107409847Y-107282903D01*
X107457000Y-107045849D01*
X107457000Y-106804151D01*
X107409847Y-106567097D01*
X107317353Y-106343798D01*
X107183073Y-106142833D01*
X107012167Y-105971927D01*
X106811202Y-105837647D01*
X106587903Y-105745153D01*
X106350849Y-105698000D01*
X106109151Y-105698000D01*
X105872097Y-105745153D01*
X105648798Y-105837647D01*
X105447833Y-105971927D01*
X105276927Y-106142833D01*
X105142647Y-106343798D01*
X105050153Y-106567097D01*
X105003000Y-106804151D01*
X105003000Y-107045849D01*
X105050153Y-107282903D01*
X105142647Y-107506202D01*
X105276927Y-107707167D01*
X105447833Y-107878073D01*
X105648798Y-108012353D01*
X105872097Y-108104847D01*
X105963358Y-108123000D01*
X101416642Y-108123000D01*
X101507903Y-108104847D01*
X101731202Y-108012353D01*
X101932167Y-107878073D01*
X102103073Y-107707167D01*
X102237353Y-107506202D01*
X102329847Y-107282903D01*
X102377000Y-107045849D01*
X102377000Y-106804151D01*
X102329847Y-106567097D01*
X102237353Y-106343798D01*
X102103073Y-106142833D01*
X101932167Y-105971927D01*
X101731202Y-105837647D01*
X101507903Y-105745153D01*
X101270849Y-105698000D01*
X101029151Y-105698000D01*
X100792097Y-105745153D01*
X100568798Y-105837647D01*
X100367833Y-105971927D01*
X100196927Y-106142833D01*
X100062647Y-106343798D01*
X99970153Y-106567097D01*
X99923000Y-106804151D01*
X99923000Y-107045849D01*
X99970153Y-107282903D01*
X100062647Y-107506202D01*
X100196927Y-107707167D01*
X100367833Y-107878073D01*
X100568798Y-108012353D01*
X100792097Y-108104847D01*
X100883358Y-108123000D01*
X95208930Y-108123000D01*
X95331202Y-108072353D01*
X95532167Y-107938073D01*
X95703073Y-107767167D01*
X95837353Y-107566202D01*
X95929847Y-107342903D01*
X95977000Y-107105849D01*
X95977000Y-106864151D01*
X95929847Y-106627097D01*
X95837353Y-106403798D01*
X95703073Y-106202833D01*
X95532167Y-106031927D01*
X95331202Y-105897647D01*
X95107903Y-105805153D01*
X94870849Y-105758000D01*
X94818519Y-105758000D01*
X94800000Y-105756176D01*
X93502000Y-105756176D01*
X93502000Y-105673824D01*
X94800000Y-105673824D01*
X94818519Y-105672000D01*
X94870849Y-105672000D01*
X95107903Y-105624847D01*
X95331202Y-105532353D01*
X95532167Y-105398073D01*
X95703073Y-105227167D01*
X95837353Y-105026202D01*
X95929847Y-104802903D01*
X95977000Y-104565849D01*
X95977000Y-104324151D01*
X95929847Y-104087097D01*
X95837353Y-103863798D01*
X95703073Y-103662833D01*
X95532167Y-103491927D01*
X95331202Y-103357647D01*
X95107903Y-103265153D01*
X94870849Y-103218000D01*
X94818519Y-103218000D01*
X94800000Y-103216176D01*
X93502000Y-103216176D01*
X93502000Y-100593824D01*
X94800000Y-100593824D01*
X94818519Y-100592000D01*
X94870849Y-100592000D01*
X95107903Y-100544847D01*
X95331202Y-100452353D01*
X95532167Y-100318073D01*
X95703073Y-100147167D01*
X95837353Y-99946202D01*
X95929847Y-99722903D01*
X95977000Y-99485849D01*
X95977000Y-99244151D01*
X95929847Y-99007097D01*
X95837353Y-98783798D01*
X95703073Y-98582833D01*
X95532167Y-98411927D01*
X95331202Y-98277647D01*
X95107903Y-98185153D01*
X94870849Y-98138000D01*
X94818519Y-98138000D01*
X94800000Y-98136176D01*
X93502000Y-98136176D01*
X93502000Y-98053824D01*
X94800000Y-98053824D01*
X94818519Y-98052000D01*
X94870849Y-98052000D01*
X95107903Y-98004847D01*
X95331202Y-97912353D01*
X95532167Y-97778073D01*
X95703073Y-97607167D01*
X95837353Y-97406202D01*
X95929847Y-97182903D01*
X95977000Y-96945849D01*
X95977000Y-96704151D01*
X95929847Y-96467097D01*
X95837353Y-96243798D01*
X95703073Y-96042833D01*
X95532167Y-95871927D01*
X95331202Y-95737647D01*
X95107903Y-95645153D01*
X94870849Y-95598000D01*
X94818519Y-95598000D01*
X94800000Y-95596176D01*
X93502000Y-95596176D01*
X93502000Y-95513824D01*
X94800000Y-95513824D01*
X94818519Y-95512000D01*
X94870849Y-95512000D01*
X95107903Y-95464847D01*
X95331202Y-95372353D01*
X95532167Y-95238073D01*
X95703073Y-95067167D01*
X95837353Y-94866202D01*
X95929847Y-94642903D01*
X95977000Y-94405849D01*
X95977000Y-94164151D01*
X95929847Y-93927097D01*
X95837353Y-93703798D01*
X95703073Y-93502833D01*
X95532167Y-93331927D01*
X95331202Y-93197647D01*
X95107903Y-93105153D01*
X94870849Y-93058000D01*
X94818519Y-93058000D01*
X94800000Y-93056176D01*
X93502000Y-93056176D01*
X93502000Y-92973824D01*
X94790000Y-92973824D01*
X94808519Y-92972000D01*
X94870849Y-92972000D01*
X95107903Y-92924847D01*
X95331202Y-92832353D01*
X95532167Y-92698073D01*
X95703073Y-92527167D01*
X95837353Y-92326202D01*
X95929847Y-92102903D01*
X95977000Y-91865849D01*
X95977000Y-91624151D01*
X95929847Y-91387097D01*
X95837353Y-91163798D01*
X95703073Y-90962833D01*
X95553838Y-90813598D01*
X103607269Y-90813598D01*
X103607269Y-90946956D01*
X103633285Y-91077751D01*
X103684319Y-91200957D01*
X103758409Y-91311840D01*
X103852706Y-91406137D01*
X103963589Y-91480227D01*
X104086795Y-91531261D01*
X104217590Y-91557277D01*
X104350948Y-91557277D01*
X104481743Y-91531261D01*
X104604949Y-91480227D01*
X104715832Y-91406137D01*
X104810129Y-91311840D01*
X104884219Y-91200957D01*
X104935253Y-91077751D01*
X104961269Y-90946956D01*
X104961269Y-90813598D01*
X104935253Y-90682803D01*
X104884219Y-90559597D01*
X104810129Y-90448714D01*
X104736269Y-90374854D01*
X104736269Y-88674443D01*
X104771563Y-88650860D01*
X104865860Y-88556563D01*
X104939950Y-88445680D01*
X104990984Y-88322474D01*
X105017000Y-88191679D01*
X105017000Y-88058321D01*
X104990984Y-87927526D01*
X104939950Y-87804320D01*
X104865860Y-87693437D01*
X104771563Y-87599140D01*
X104660680Y-87525050D01*
X104537474Y-87474016D01*
X104406679Y-87448000D01*
X104273321Y-87448000D01*
X104142526Y-87474016D01*
X104019320Y-87525050D01*
X103908437Y-87599140D01*
X103814140Y-87693437D01*
X103740050Y-87804320D01*
X103689016Y-87927526D01*
X103663000Y-88058321D01*
X103663000Y-88191679D01*
X103689016Y-88322474D01*
X103740050Y-88445680D01*
X103814140Y-88556563D01*
X103832269Y-88574692D01*
X103832270Y-90374853D01*
X103758409Y-90448714D01*
X103684319Y-90559597D01*
X103633285Y-90682803D01*
X103607269Y-90813598D01*
X95553838Y-90813598D01*
X95532167Y-90791927D01*
X95331202Y-90657647D01*
X95107903Y-90565153D01*
X94870849Y-90518000D01*
X94808519Y-90518000D01*
X94790000Y-90516176D01*
X93502000Y-90516176D01*
X93502000Y-87893824D01*
X94800000Y-87893824D01*
X94818519Y-87892000D01*
X94870849Y-87892000D01*
X95107903Y-87844847D01*
X95331202Y-87752353D01*
X95532167Y-87618073D01*
X95703073Y-87447167D01*
X95837353Y-87246202D01*
X95929847Y-87022903D01*
X95977000Y-86785849D01*
X95977000Y-86544151D01*
X95929847Y-86307097D01*
X95837353Y-86083798D01*
X95703073Y-85882833D01*
X95532167Y-85711927D01*
X95331202Y-85577647D01*
X95107903Y-85485153D01*
X94870849Y-85438000D01*
X94818519Y-85438000D01*
X94800000Y-85436176D01*
X93502000Y-85436176D01*
X93502000Y-85353824D01*
X94800000Y-85353824D01*
X94818519Y-85352000D01*
X94870849Y-85352000D01*
X95107903Y-85304847D01*
X95331202Y-85212353D01*
X95532167Y-85078073D01*
X95703073Y-84907167D01*
X95837353Y-84706202D01*
X95929847Y-84482903D01*
X95977000Y-84245849D01*
X95977000Y-84004151D01*
X95929847Y-83767097D01*
X95837353Y-83543798D01*
X95703073Y-83342833D01*
X95532167Y-83171927D01*
X95331202Y-83037647D01*
X95107903Y-82945153D01*
X94870849Y-82898000D01*
X94818519Y-82898000D01*
X94800000Y-82896176D01*
X93502000Y-82896176D01*
X93502000Y-82813824D01*
X94800000Y-82813824D01*
X94818519Y-82812000D01*
X94870849Y-82812000D01*
X95107903Y-82764847D01*
X95331202Y-82672353D01*
X95532167Y-82538073D01*
X95703073Y-82367167D01*
X95837353Y-82166202D01*
X95929847Y-81942903D01*
X95977000Y-81705849D01*
X95977000Y-81464151D01*
X95929847Y-81227097D01*
X95837353Y-81003798D01*
X95703073Y-80802833D01*
X95532167Y-80631927D01*
X95331202Y-80497647D01*
X95107903Y-80405153D01*
X94870849Y-80358000D01*
X94818519Y-80358000D01*
X94800000Y-80356176D01*
X93502000Y-80356176D01*
X93502000Y-80273824D01*
X94810000Y-80273824D01*
X94828519Y-80272000D01*
X94870849Y-80272000D01*
X95107903Y-80224847D01*
X95331202Y-80132353D01*
X95532167Y-79998073D01*
X95703073Y-79827167D01*
X95747081Y-79761304D01*
X96248000Y-80262225D01*
X96248001Y-84829576D01*
X96174140Y-84903437D01*
X96100050Y-85014320D01*
X96049016Y-85137526D01*
X96023000Y-85268321D01*
X96023000Y-85401679D01*
X96049016Y-85532474D01*
X96100050Y-85655680D01*
X96174140Y-85766563D01*
X96268437Y-85860860D01*
X96379320Y-85934950D01*
X96502526Y-85985984D01*
X96633321Y-86012000D01*
X96766679Y-86012000D01*
X96897474Y-85985984D01*
X97020680Y-85934950D01*
X97131563Y-85860860D01*
X97150857Y-85841566D01*
X97165954Y-85917467D01*
X97216988Y-86040673D01*
X97291078Y-86151556D01*
X97385375Y-86245853D01*
X97496258Y-86319943D01*
X97619464Y-86370977D01*
X97750259Y-86396993D01*
X97883617Y-86396993D01*
X98014412Y-86370977D01*
X98137618Y-86319943D01*
X98248501Y-86245853D01*
X98342798Y-86151556D01*
X98416888Y-86040673D01*
X98458975Y-85939067D01*
X98477605Y-85939067D01*
X98608400Y-85913051D01*
X98731606Y-85862017D01*
X98842489Y-85787927D01*
X98936786Y-85693630D01*
X99010876Y-85582747D01*
X99061910Y-85459541D01*
X99087926Y-85328746D01*
X99087926Y-85195388D01*
X99062978Y-85069960D01*
X99091563Y-85050860D01*
X99185860Y-84956563D01*
X99259950Y-84845680D01*
X99310984Y-84722474D01*
X99337000Y-84591679D01*
X99337000Y-84490074D01*
X99338359Y-84488959D01*
X99394843Y-84420133D01*
X99436814Y-84341610D01*
X99449797Y-84298810D01*
X99462660Y-84256408D01*
X99471387Y-84167801D01*
X99469200Y-84145596D01*
X99469200Y-82295821D01*
X99585500Y-82295821D01*
X99585500Y-82429179D01*
X99611516Y-82559974D01*
X99662550Y-82683180D01*
X99736640Y-82794063D01*
X99830937Y-82888360D01*
X99941820Y-82962450D01*
X100065026Y-83013484D01*
X100195821Y-83039500D01*
X100329179Y-83039500D01*
X100459974Y-83013484D01*
X100583180Y-82962450D01*
X100621191Y-82937052D01*
X100603903Y-82978789D01*
X100570200Y-83148223D01*
X100570200Y-83320977D01*
X100570458Y-83322276D01*
X100548400Y-83433170D01*
X100548400Y-83546830D01*
X100570574Y-83658305D01*
X100614069Y-83763312D01*
X100677215Y-83857816D01*
X100757584Y-83938185D01*
X100852088Y-84001331D01*
X100957095Y-84044826D01*
X101068570Y-84067000D01*
X101165081Y-84067000D01*
X101191389Y-84077897D01*
X101360823Y-84111600D01*
X101533577Y-84111600D01*
X101703011Y-84077897D01*
X101862615Y-84011787D01*
X102006255Y-83915810D01*
X102128410Y-83793655D01*
X102224387Y-83650015D01*
X102290497Y-83490411D01*
X102324200Y-83320977D01*
X102324200Y-83148223D01*
X102290497Y-82978789D01*
X102224387Y-82819185D01*
X102128410Y-82675545D01*
X102006255Y-82553390D01*
X101862615Y-82457413D01*
X101703011Y-82391303D01*
X101577400Y-82366317D01*
X101577400Y-82115204D01*
X101579587Y-82092999D01*
X101570860Y-82004392D01*
X101552207Y-81942903D01*
X101545014Y-81919190D01*
X101503043Y-81840667D01*
X101446559Y-81771841D01*
X101429310Y-81757685D01*
X101171000Y-81499376D01*
X101171000Y-80753757D01*
X102528660Y-80753757D01*
X102528660Y-80887115D01*
X102554676Y-81017910D01*
X102605710Y-81141116D01*
X102679800Y-81251999D01*
X102753661Y-81325860D01*
X102753660Y-82468455D01*
X102751473Y-82490660D01*
X102760200Y-82579267D01*
X102774221Y-82625487D01*
X102786046Y-82664469D01*
X102828017Y-82742992D01*
X102884501Y-82811819D01*
X102901760Y-82825983D01*
X104329685Y-84253910D01*
X104343841Y-84271159D01*
X104412667Y-84327643D01*
X104491190Y-84369614D01*
X104556562Y-84389444D01*
X104576392Y-84395460D01*
X104664999Y-84404187D01*
X104687204Y-84402000D01*
X104732670Y-84402000D01*
X104747389Y-84408097D01*
X104916823Y-84441800D01*
X105089577Y-84441800D01*
X105259011Y-84408097D01*
X105418615Y-84341987D01*
X105562255Y-84246010D01*
X105684410Y-84123855D01*
X105780387Y-83980215D01*
X105846497Y-83820611D01*
X105880200Y-83651177D01*
X105880200Y-83478423D01*
X105846497Y-83308989D01*
X105780387Y-83149385D01*
X105684410Y-83005745D01*
X105562255Y-82883590D01*
X105517000Y-82853352D01*
X105517000Y-82252175D01*
X105695184Y-82073992D01*
X105799639Y-82073992D01*
X105930434Y-82047976D01*
X106053640Y-81996942D01*
X106164523Y-81922852D01*
X106258820Y-81828555D01*
X106332910Y-81717672D01*
X106383944Y-81594466D01*
X106409960Y-81463671D01*
X106409960Y-81330313D01*
X106383944Y-81199518D01*
X106332910Y-81076312D01*
X106258820Y-80965429D01*
X106164523Y-80871132D01*
X106053640Y-80797042D01*
X105930434Y-80746008D01*
X105799639Y-80719992D01*
X105666281Y-80719992D01*
X105535486Y-80746008D01*
X105412280Y-80797042D01*
X105301397Y-80871132D01*
X105207100Y-80965429D01*
X105133010Y-81076312D01*
X105081976Y-81199518D01*
X105055960Y-81330313D01*
X105055960Y-81434768D01*
X104761095Y-81729634D01*
X104743842Y-81743793D01*
X104702919Y-81793658D01*
X104687358Y-81812619D01*
X104645386Y-81891143D01*
X104619540Y-81976345D01*
X104610813Y-82064952D01*
X104613001Y-82087167D01*
X104613001Y-82777168D01*
X104587785Y-82787613D01*
X104444145Y-82883590D01*
X104340980Y-82986755D01*
X103657660Y-82303437D01*
X103657660Y-81325859D01*
X103731520Y-81251999D01*
X103805610Y-81141116D01*
X103856644Y-81017910D01*
X103882660Y-80887115D01*
X103882660Y-80753757D01*
X103856644Y-80622962D01*
X103805610Y-80499756D01*
X103731520Y-80388873D01*
X103637223Y-80294576D01*
X103526340Y-80220486D01*
X103403134Y-80169452D01*
X103272339Y-80143436D01*
X103138981Y-80143436D01*
X103008186Y-80169452D01*
X102884980Y-80220486D01*
X102774097Y-80294576D01*
X102679800Y-80388873D01*
X102605710Y-80499756D01*
X102554676Y-80622962D01*
X102528660Y-80753757D01*
X101171000Y-80753757D01*
X101171000Y-79841823D01*
X102013506Y-78999318D01*
X102030759Y-78985159D01*
X102087243Y-78916333D01*
X102129214Y-78837810D01*
X102155060Y-78752607D01*
X102155196Y-78751232D01*
X102163787Y-78664000D01*
X102161600Y-78641795D01*
X102161600Y-77177205D01*
X102163787Y-77155000D01*
X102155060Y-77066392D01*
X102129214Y-76981190D01*
X102087243Y-76902667D01*
X102030759Y-76833841D01*
X102013505Y-76819681D01*
X101750305Y-76556481D01*
X101769950Y-76527080D01*
X101820984Y-76403874D01*
X101847000Y-76273079D01*
X101847000Y-76139721D01*
X101820984Y-76008926D01*
X101769950Y-75885720D01*
X101695860Y-75774837D01*
X101601563Y-75680540D01*
X101490680Y-75606450D01*
X101367474Y-75555416D01*
X101236679Y-75529400D01*
X101103321Y-75529400D01*
X100972526Y-75555416D01*
X100849320Y-75606450D01*
X100738437Y-75680540D01*
X100644140Y-75774837D01*
X100570050Y-75885720D01*
X100519016Y-76008926D01*
X100493000Y-76139721D01*
X100493000Y-76273079D01*
X100515847Y-76387943D01*
X100473182Y-76392145D01*
X100375855Y-76421669D01*
X100286157Y-76469614D01*
X100207536Y-76534136D01*
X100143014Y-76612757D01*
X100095069Y-76702455D01*
X100065545Y-76799782D01*
X100055576Y-76901000D01*
X100055576Y-77181000D01*
X100065545Y-77282218D01*
X100095069Y-77379545D01*
X100143014Y-77469243D01*
X100185489Y-77521000D01*
X100143014Y-77572757D01*
X100095069Y-77662455D01*
X100065545Y-77759782D01*
X100055576Y-77861000D01*
X100055576Y-78141000D01*
X100065545Y-78242218D01*
X100095069Y-78339545D01*
X100143014Y-78429243D01*
X100157356Y-78446719D01*
X99767395Y-78836682D01*
X99750142Y-78850841D01*
X99700615Y-78911190D01*
X99693658Y-78919667D01*
X99651686Y-78998191D01*
X99625840Y-79083393D01*
X99617113Y-79172000D01*
X99619301Y-79194215D01*
X99619300Y-82146234D01*
X99611516Y-82165026D01*
X99585500Y-82295821D01*
X99469200Y-82295821D01*
X99469200Y-73174404D01*
X99471387Y-73152199D01*
X99462660Y-73063592D01*
X99436814Y-72978390D01*
X99394843Y-72899867D01*
X99338359Y-72831041D01*
X99321112Y-72816887D01*
X98052121Y-71547896D01*
X101506201Y-71547896D01*
X101509961Y-71586069D01*
X101509960Y-74337340D01*
X101506201Y-74375504D01*
X101509960Y-74413667D01*
X101509960Y-74413669D01*
X101521203Y-74527822D01*
X101539990Y-74589753D01*
X101565633Y-74674287D01*
X101637783Y-74809270D01*
X101653647Y-74828600D01*
X101734880Y-74927584D01*
X101764529Y-74951916D01*
X103546387Y-76733775D01*
X103546386Y-77907142D01*
X103542627Y-77945306D01*
X103546386Y-77983469D01*
X103546386Y-77983471D01*
X103557629Y-78097624D01*
X103601491Y-78242218D01*
X103602059Y-78244089D01*
X103674209Y-78379072D01*
X103700959Y-78411667D01*
X103771306Y-78497386D01*
X103800956Y-78521719D01*
X103841466Y-78562229D01*
X103930134Y-78634997D01*
X104065117Y-78707147D01*
X104211582Y-78751576D01*
X104363899Y-78766578D01*
X104516218Y-78751576D01*
X104662682Y-78707147D01*
X104797665Y-78634997D01*
X104850449Y-78591678D01*
X104900966Y-78633137D01*
X105035949Y-78705287D01*
X105182414Y-78749716D01*
X105334732Y-78764719D01*
X105487050Y-78749716D01*
X105633515Y-78705287D01*
X105768498Y-78633137D01*
X105857166Y-78560369D01*
X105895818Y-78521717D01*
X105925466Y-78497386D01*
X106022563Y-78379072D01*
X106094713Y-78244090D01*
X106139143Y-78097625D01*
X106150386Y-77983472D01*
X106150386Y-77983470D01*
X106154145Y-77945307D01*
X106150386Y-77907143D01*
X106150386Y-76015157D01*
X106154144Y-75977001D01*
X106150386Y-75938845D01*
X106150386Y-75938836D01*
X106139143Y-75824683D01*
X106094713Y-75678218D01*
X106080158Y-75650987D01*
X106022563Y-75543235D01*
X105949795Y-75454567D01*
X105949794Y-75454566D01*
X105925466Y-75424922D01*
X105895822Y-75400594D01*
X104113960Y-73618733D01*
X104113960Y-72304667D01*
X104636637Y-71781991D01*
X104666280Y-71757664D01*
X104690609Y-71728019D01*
X104763377Y-71639351D01*
X104835527Y-71504368D01*
X104846971Y-71466643D01*
X104879957Y-71357903D01*
X104891200Y-71243750D01*
X104891200Y-71243741D01*
X104894958Y-71205585D01*
X104891200Y-71167429D01*
X104891200Y-68876195D01*
X104903280Y-68866281D01*
X105000377Y-68747967D01*
X105072527Y-68612985D01*
X105116957Y-68466520D01*
X105128200Y-68352367D01*
X105128200Y-68352365D01*
X105131959Y-68314201D01*
X105128200Y-68276038D01*
X105128200Y-68246265D01*
X105151010Y-68223455D01*
X105246987Y-68079815D01*
X105313097Y-67920211D01*
X105346800Y-67750777D01*
X105346800Y-67578023D01*
X105313097Y-67408589D01*
X105246987Y-67248985D01*
X105151010Y-67105345D01*
X105028855Y-66983190D01*
X104938360Y-66922723D01*
X104938360Y-64623024D01*
X104937000Y-64609216D01*
X104937000Y-64593170D01*
X104933869Y-64577431D01*
X104930010Y-64538248D01*
X104918580Y-64500569D01*
X104914826Y-64481695D01*
X104907462Y-64463916D01*
X104897017Y-64429484D01*
X104880055Y-64397750D01*
X104871331Y-64376688D01*
X104858667Y-64357735D01*
X104843439Y-64329245D01*
X104822944Y-64304272D01*
X104808185Y-64282184D01*
X104789399Y-64263398D01*
X104771334Y-64241386D01*
X104749322Y-64223321D01*
X104727816Y-64201815D01*
X104702530Y-64184920D01*
X104683475Y-64169281D01*
X104661736Y-64157661D01*
X104633312Y-64138669D01*
X104601724Y-64125585D01*
X104583236Y-64115703D01*
X104563176Y-64109618D01*
X104528305Y-64095174D01*
X104491285Y-64087810D01*
X104474472Y-64082710D01*
X104456987Y-64080988D01*
X104416830Y-64073000D01*
X104375889Y-64073000D01*
X104361360Y-64071569D01*
X104346832Y-64073000D01*
X104303170Y-64073000D01*
X104270512Y-64079496D01*
X104234448Y-64035552D01*
X104214334Y-64019045D01*
X103990954Y-63795665D01*
X103974447Y-63775551D01*
X103894201Y-63709695D01*
X103802649Y-63660760D01*
X103703309Y-63630625D01*
X103625880Y-63622999D01*
X103599999Y-63620450D01*
X103574118Y-63622999D01*
X103093039Y-63622999D01*
X103067158Y-63620450D01*
X102963849Y-63630625D01*
X102864509Y-63660760D01*
X102772957Y-63709695D01*
X102692711Y-63775551D01*
X102676204Y-63795665D01*
X102495662Y-63976207D01*
X102475553Y-63992710D01*
X102440394Y-64035552D01*
X102409696Y-64072957D01*
X102360761Y-64164509D01*
X102340777Y-64230386D01*
X102330626Y-64263848D01*
X102326406Y-64306691D01*
X102320451Y-64367158D01*
X102323000Y-64393039D01*
X102323000Y-64414517D01*
X102295174Y-64481695D01*
X102273000Y-64593170D01*
X102273000Y-64706830D01*
X102275601Y-64719906D01*
X102275600Y-65992335D01*
X102275601Y-65992345D01*
X102275600Y-66862337D01*
X102132745Y-66957790D01*
X102010590Y-67079945D01*
X101914613Y-67223585D01*
X101848503Y-67383189D01*
X101814800Y-67552623D01*
X101814800Y-67725377D01*
X101848503Y-67894811D01*
X101914613Y-68054415D01*
X102010590Y-68198055D01*
X102050200Y-68237665D01*
X102050200Y-68276038D01*
X102046441Y-68314201D01*
X102050200Y-68352364D01*
X102050200Y-68352366D01*
X102061443Y-68466519D01*
X102090966Y-68563842D01*
X102105873Y-68612984D01*
X102178023Y-68747967D01*
X102191305Y-68764151D01*
X102275120Y-68866281D01*
X102287201Y-68876195D01*
X102287200Y-70448812D01*
X101764525Y-70971488D01*
X101734881Y-70995816D01*
X101710553Y-71025460D01*
X101710551Y-71025462D01*
X101637783Y-71114130D01*
X101565633Y-71249113D01*
X101521204Y-71395578D01*
X101506201Y-71547896D01*
X98052121Y-71547896D01*
X95876329Y-69372106D01*
X95929847Y-69242903D01*
X95977000Y-69005849D01*
X95977000Y-68764151D01*
X95929847Y-68527097D01*
X95837353Y-68303798D01*
X95703073Y-68102833D01*
X95532167Y-67931927D01*
X95331202Y-67797647D01*
X95107903Y-67705153D01*
X94870849Y-67658000D01*
X94818519Y-67658000D01*
X94800000Y-67656176D01*
X93502000Y-67656176D01*
X93502000Y-67563824D01*
X94588047Y-67563824D01*
X94629151Y-67572000D01*
X94870849Y-67572000D01*
X95107903Y-67524847D01*
X95331202Y-67432353D01*
X95532167Y-67298073D01*
X95703073Y-67127167D01*
X95837353Y-66926202D01*
X95929847Y-66702903D01*
X95977000Y-66465849D01*
X95977000Y-66224151D01*
X95929847Y-65987097D01*
X95837353Y-65763798D01*
X95703073Y-65562833D01*
X95532167Y-65391927D01*
X95331202Y-65257647D01*
X95107903Y-65165153D01*
X94923248Y-65128423D01*
X94873905Y-65113455D01*
X94800000Y-65106176D01*
X93502000Y-65106176D01*
X93502000Y-63105859D01*
X100008000Y-63105859D01*
X100008000Y-63244141D01*
X100034977Y-63379766D01*
X100087895Y-63507522D01*
X100164721Y-63622499D01*
X100262501Y-63720279D01*
X100377478Y-63797105D01*
X100505234Y-63850023D01*
X100640859Y-63877000D01*
X100779141Y-63877000D01*
X100914766Y-63850023D01*
X101042522Y-63797105D01*
X101157499Y-63720279D01*
X101255279Y-63622499D01*
X101332105Y-63507522D01*
X101385023Y-63379766D01*
X101412000Y-63244141D01*
X101412000Y-63105859D01*
X105788000Y-63105859D01*
X105788000Y-63244141D01*
X105814977Y-63379766D01*
X105867895Y-63507522D01*
X105944721Y-63622499D01*
X106042501Y-63720279D01*
X106157478Y-63797105D01*
X106285234Y-63850023D01*
X106420859Y-63877000D01*
X106559141Y-63877000D01*
X106694766Y-63850023D01*
X106822522Y-63797105D01*
X106937499Y-63720279D01*
X107035279Y-63622499D01*
X107112105Y-63507522D01*
X107165023Y-63379766D01*
X107192000Y-63244141D01*
X107192000Y-63105859D01*
X107165023Y-62970234D01*
X107112105Y-62842478D01*
X107035279Y-62727501D01*
X106937499Y-62629721D01*
X106822522Y-62552895D01*
X106694766Y-62499977D01*
X106559141Y-62473000D01*
X106420859Y-62473000D01*
X106285234Y-62499977D01*
X106157478Y-62552895D01*
X106042501Y-62629721D01*
X105944721Y-62727501D01*
X105867895Y-62842478D01*
X105814977Y-62970234D01*
X105788000Y-63105859D01*
X101412000Y-63105859D01*
X101385023Y-62970234D01*
X101332105Y-62842478D01*
X101255279Y-62727501D01*
X101157499Y-62629721D01*
X101042522Y-62552895D01*
X100914766Y-62499977D01*
X100779141Y-62473000D01*
X100640859Y-62473000D01*
X100505234Y-62499977D01*
X100377478Y-62552895D01*
X100262501Y-62629721D01*
X100164721Y-62727501D01*
X100087895Y-62842478D01*
X100034977Y-62970234D01*
X100008000Y-63105859D01*
X93502000Y-63105859D01*
X93502000Y-62483824D01*
X94588047Y-62483824D01*
X94629151Y-62492000D01*
X94870849Y-62492000D01*
X95107903Y-62444847D01*
X95331202Y-62352353D01*
X95532167Y-62218073D01*
X95703073Y-62047167D01*
X95837353Y-61846202D01*
X95929847Y-61622903D01*
X95977000Y-61385849D01*
X95977000Y-61144151D01*
X95929847Y-60907097D01*
X95837353Y-60683798D01*
X95703073Y-60482833D01*
X95532167Y-60311927D01*
X95331202Y-60177647D01*
X95107903Y-60085153D01*
X94923248Y-60048423D01*
X94873905Y-60033455D01*
X94800000Y-60026176D01*
X93502000Y-60026176D01*
X93502000Y-59953824D01*
X94800000Y-59953824D01*
X94818519Y-59952000D01*
X94870849Y-59952000D01*
X95107903Y-59904847D01*
X95331202Y-59812353D01*
X95529248Y-59680023D01*
X109265400Y-59680023D01*
X109265400Y-59852777D01*
X109299103Y-60022211D01*
X109365213Y-60181815D01*
X109461190Y-60325455D01*
X109583345Y-60447610D01*
X109723263Y-60541100D01*
X109583345Y-60634590D01*
X109461190Y-60756745D01*
X109365213Y-60900385D01*
X109299103Y-61059989D01*
X109265400Y-61229423D01*
X109265400Y-61402177D01*
X109299103Y-61571611D01*
X109365213Y-61731215D01*
X109461190Y-61874855D01*
X109583345Y-61997010D01*
X109726985Y-62092987D01*
X109886589Y-62159097D01*
X110056023Y-62192800D01*
X110228777Y-62192800D01*
X110398211Y-62159097D01*
X110557815Y-62092987D01*
X110701455Y-61997010D01*
X110823610Y-61874855D01*
X110919587Y-61731215D01*
X110985697Y-61571611D01*
X111019400Y-61402177D01*
X111019400Y-61229423D01*
X110985697Y-61059989D01*
X110919587Y-60900385D01*
X110823610Y-60756745D01*
X110701455Y-60634590D01*
X110561537Y-60541100D01*
X110701455Y-60447610D01*
X110823610Y-60325455D01*
X110919587Y-60181815D01*
X110985697Y-60022211D01*
X111019400Y-59852777D01*
X111019400Y-59680023D01*
X110985697Y-59510589D01*
X110919587Y-59350985D01*
X110823610Y-59207345D01*
X110701455Y-59085190D01*
X110557815Y-58989213D01*
X110398211Y-58923103D01*
X110228777Y-58889400D01*
X110056023Y-58889400D01*
X109886589Y-58923103D01*
X109726985Y-58989213D01*
X109583345Y-59085190D01*
X109461190Y-59207345D01*
X109365213Y-59350985D01*
X109299103Y-59510589D01*
X109265400Y-59680023D01*
X95529248Y-59680023D01*
X95532167Y-59678073D01*
X95703073Y-59507167D01*
X95837353Y-59306202D01*
X95929847Y-59082903D01*
X95977000Y-58845849D01*
X95977000Y-58604151D01*
X95929847Y-58367097D01*
X95837353Y-58143798D01*
X95703073Y-57942833D01*
X95532167Y-57771927D01*
X95331202Y-57637647D01*
X95305498Y-57627000D01*
X111415825Y-57627000D01*
X111385019Y-57664537D01*
G04 #@! TA.AperFunction,Conductor*
D21*
G36*
X111385019Y-57664537D02*
G01*
X111350012Y-57730030D01*
X111328455Y-57801095D01*
X111321176Y-57875000D01*
X111321176Y-59575000D01*
X111328455Y-59648905D01*
X111350012Y-59719970D01*
X111385019Y-59785463D01*
X111432131Y-59842869D01*
X111489537Y-59889981D01*
X111555030Y-59924988D01*
X111626095Y-59946545D01*
X111700000Y-59953824D01*
X113788001Y-59953824D01*
X113788001Y-60036176D01*
X112500000Y-60036176D01*
X112481481Y-60038000D01*
X112429151Y-60038000D01*
X112192097Y-60085153D01*
X111968798Y-60177647D01*
X111767833Y-60311927D01*
X111596927Y-60482833D01*
X111462647Y-60683798D01*
X111370153Y-60907097D01*
X111323000Y-61144151D01*
X111323000Y-61385849D01*
X111370153Y-61622903D01*
X111462647Y-61846202D01*
X111596927Y-62047167D01*
X111767833Y-62218073D01*
X111968798Y-62352353D01*
X112192097Y-62444847D01*
X112429151Y-62492000D01*
X112481481Y-62492000D01*
X112500000Y-62493824D01*
X113788001Y-62493824D01*
X113788001Y-65116176D01*
X112500000Y-65116176D01*
X112481481Y-65118000D01*
X112429151Y-65118000D01*
X112192097Y-65165153D01*
X111968798Y-65257647D01*
X111767833Y-65391927D01*
X111596927Y-65562833D01*
X111462647Y-65763798D01*
X111440196Y-65818000D01*
X110965840Y-65818000D01*
X110939959Y-65815451D01*
X110836650Y-65825626D01*
X110737310Y-65855761D01*
X110645758Y-65904696D01*
X110565512Y-65970552D01*
X110549009Y-65990661D01*
X109578671Y-66961000D01*
X108167417Y-66961000D01*
X108058240Y-66888050D01*
X107935034Y-66837016D01*
X107804239Y-66811000D01*
X107670881Y-66811000D01*
X107540086Y-66837016D01*
X107416880Y-66888050D01*
X107305997Y-66962140D01*
X107211700Y-67056437D01*
X107137610Y-67167320D01*
X107086576Y-67290526D01*
X107060560Y-67421321D01*
X107060560Y-67554679D01*
X107086576Y-67685474D01*
X107137610Y-67808680D01*
X107211700Y-67919563D01*
X107305997Y-68013860D01*
X107416880Y-68087950D01*
X107540086Y-68138984D01*
X107670881Y-68165000D01*
X107804239Y-68165000D01*
X107935034Y-68138984D01*
X108058240Y-68087950D01*
X108167417Y-68015000D01*
X109771079Y-68015000D01*
X109796960Y-68017549D01*
X109822841Y-68015000D01*
X109900270Y-68007374D01*
X109999610Y-67977239D01*
X110091162Y-67928304D01*
X110171408Y-67862448D01*
X110187915Y-67842334D01*
X111158250Y-66872000D01*
X111440196Y-66872000D01*
X111462647Y-66926202D01*
X111596927Y-67127167D01*
X111767833Y-67298073D01*
X111968798Y-67432353D01*
X112192097Y-67524847D01*
X112429151Y-67572000D01*
X112481481Y-67572000D01*
X112500000Y-67573824D01*
X113788001Y-67573824D01*
X113788001Y-67656176D01*
X112500000Y-67656176D01*
X112481481Y-67658000D01*
X112429151Y-67658000D01*
X112192097Y-67705153D01*
X111968798Y-67797647D01*
X111767833Y-67931927D01*
X111596927Y-68102833D01*
X111462647Y-68303798D01*
X111370153Y-68527097D01*
X111323000Y-68764151D01*
X111323000Y-69005849D01*
X111324212Y-69011944D01*
X108680170Y-71655987D01*
X108650520Y-71680320D01*
X108626191Y-71709966D01*
X108553423Y-71798634D01*
X108484857Y-71926911D01*
X108481273Y-71933617D01*
X108436843Y-72080082D01*
X108425600Y-72194234D01*
X108421841Y-72232400D01*
X108425600Y-72270564D01*
X108425601Y-73161734D01*
X108335190Y-73252145D01*
X108239213Y-73395785D01*
X108173103Y-73555389D01*
X108139400Y-73724823D01*
X108139400Y-73897577D01*
X108173103Y-74067011D01*
X108239213Y-74226615D01*
X108335190Y-74370255D01*
X108457345Y-74492410D01*
X108600985Y-74588387D01*
X108760589Y-74654497D01*
X108930023Y-74688200D01*
X109102777Y-74688200D01*
X109272211Y-74654497D01*
X109431815Y-74588387D01*
X109575455Y-74492410D01*
X109697610Y-74370255D01*
X109793587Y-74226615D01*
X109859697Y-74067011D01*
X109871946Y-74005433D01*
X109923927Y-73908184D01*
X109968357Y-73761719D01*
X109979600Y-73647566D01*
X109979600Y-72554243D01*
X111346169Y-71187675D01*
X111323000Y-71304151D01*
X111323000Y-71545849D01*
X111370153Y-71782903D01*
X111423671Y-71912106D01*
X110829096Y-72506681D01*
X110811842Y-72520841D01*
X110780335Y-72559233D01*
X110755358Y-72589667D01*
X110713386Y-72668191D01*
X110687540Y-72753393D01*
X110678813Y-72842000D01*
X110681001Y-72864215D01*
X110681000Y-73879376D01*
X110067096Y-74493281D01*
X110049842Y-74507441D01*
X110018032Y-74546202D01*
X109993358Y-74576267D01*
X109951386Y-74654791D01*
X109925540Y-74739993D01*
X109916813Y-74828600D01*
X109919001Y-74850815D01*
X109919000Y-77269577D01*
X109845140Y-77343437D01*
X109771050Y-77454320D01*
X109720016Y-77577526D01*
X109694000Y-77708321D01*
X109694000Y-77841679D01*
X109720016Y-77972474D01*
X109771050Y-78095680D01*
X109845140Y-78206563D01*
X109939437Y-78300860D01*
X110050320Y-78374950D01*
X110173526Y-78425984D01*
X110304321Y-78452000D01*
X110437679Y-78452000D01*
X110568474Y-78425984D01*
X110691680Y-78374950D01*
X110802563Y-78300860D01*
X110896860Y-78206563D01*
X110970950Y-78095680D01*
X111021984Y-77972474D01*
X111048000Y-77841679D01*
X111048000Y-77708321D01*
X111021984Y-77577526D01*
X110970950Y-77454320D01*
X110896860Y-77343437D01*
X110823000Y-77269577D01*
X110823000Y-75015823D01*
X111412848Y-74425976D01*
X111462647Y-74546202D01*
X111596927Y-74747167D01*
X111767833Y-74918073D01*
X111968798Y-75052353D01*
X112192097Y-75144847D01*
X112429151Y-75192000D01*
X112481481Y-75192000D01*
X112500000Y-75193824D01*
X113788001Y-75193824D01*
X113788001Y-77816176D01*
X112500000Y-77816176D01*
X112481481Y-77818000D01*
X112429151Y-77818000D01*
X112192097Y-77865153D01*
X111968798Y-77957647D01*
X111767833Y-78091927D01*
X111596927Y-78262833D01*
X111462647Y-78463798D01*
X111370153Y-78687097D01*
X111323000Y-78924151D01*
X111323000Y-79165849D01*
X111370153Y-79402903D01*
X111462647Y-79626202D01*
X111596927Y-79827167D01*
X111767833Y-79998073D01*
X111968798Y-80132353D01*
X112192097Y-80224847D01*
X112429151Y-80272000D01*
X112481481Y-80272000D01*
X112500000Y-80273824D01*
X113788001Y-80273824D01*
X113788001Y-80356176D01*
X112500000Y-80356176D01*
X112481481Y-80358000D01*
X112429151Y-80358000D01*
X112192097Y-80405153D01*
X111968798Y-80497647D01*
X111767833Y-80631927D01*
X111596927Y-80802833D01*
X111462647Y-81003798D01*
X111370153Y-81227097D01*
X111323000Y-81464151D01*
X111323000Y-81705849D01*
X111370153Y-81942903D01*
X111462647Y-82166202D01*
X111596927Y-82367167D01*
X111767833Y-82538073D01*
X111968798Y-82672353D01*
X112192097Y-82764847D01*
X112429151Y-82812000D01*
X112481481Y-82812000D01*
X112500000Y-82813824D01*
X113788001Y-82813824D01*
X113788000Y-82896176D01*
X112500000Y-82896176D01*
X112481481Y-82898000D01*
X112429151Y-82898000D01*
X112192097Y-82945153D01*
X111968798Y-83037647D01*
X111767833Y-83171927D01*
X111596927Y-83342833D01*
X111462647Y-83543798D01*
X111370153Y-83767097D01*
X111333274Y-83952503D01*
X110496096Y-84789681D01*
X110478842Y-84803841D01*
X110432497Y-84860313D01*
X110422358Y-84872667D01*
X110380386Y-84951191D01*
X110354540Y-85036393D01*
X110345813Y-85125000D01*
X110348001Y-85147215D01*
X110348000Y-88837775D01*
X107637777Y-91548000D01*
X107533321Y-91548000D01*
X107402526Y-91574016D01*
X107279320Y-91625050D01*
X107168437Y-91699140D01*
X107074140Y-91793437D01*
X107000050Y-91904320D01*
X106949016Y-92027526D01*
X106923000Y-92158321D01*
X106923000Y-92291679D01*
X106949016Y-92422474D01*
X107000050Y-92545680D01*
X107074140Y-92656563D01*
X107168437Y-92750860D01*
X107279320Y-92824950D01*
X107402526Y-92875984D01*
X107533321Y-92902000D01*
X107666679Y-92902000D01*
X107797474Y-92875984D01*
X107920680Y-92824950D01*
X108031563Y-92750860D01*
X108125860Y-92656563D01*
X108199950Y-92545680D01*
X108250984Y-92422474D01*
X108277000Y-92291679D01*
X108277000Y-92187223D01*
X111103912Y-89360313D01*
X111121159Y-89346159D01*
X111177643Y-89277333D01*
X111219614Y-89198810D01*
X111245460Y-89113607D01*
X111252000Y-89047205D01*
X111252000Y-89047204D01*
X111254187Y-89025001D01*
X111252000Y-89002796D01*
X111252000Y-85312223D01*
X111626992Y-84937232D01*
X111767833Y-85078073D01*
X111968798Y-85212353D01*
X112192097Y-85304847D01*
X112429151Y-85352000D01*
X112481481Y-85352000D01*
X112500000Y-85353824D01*
X113788000Y-85353824D01*
X113788000Y-85436176D01*
X112500000Y-85436176D01*
X112481481Y-85438000D01*
X112429151Y-85438000D01*
X112192097Y-85485153D01*
X111968798Y-85577647D01*
X111767833Y-85711927D01*
X111596927Y-85882833D01*
X111462647Y-86083798D01*
X111370153Y-86307097D01*
X111323000Y-86544151D01*
X111323000Y-86785849D01*
X111370153Y-87022903D01*
X111462647Y-87246202D01*
X111596927Y-87447167D01*
X111767833Y-87618073D01*
X111968798Y-87752353D01*
X112192097Y-87844847D01*
X112429151Y-87892000D01*
X112481481Y-87892000D01*
X112500000Y-87893824D01*
X113788000Y-87893824D01*
X113788000Y-90516176D01*
X112500000Y-90516176D01*
X112481481Y-90518000D01*
X112429151Y-90518000D01*
X112192097Y-90565153D01*
X111968798Y-90657647D01*
X111767833Y-90791927D01*
X111596927Y-90962833D01*
X111462647Y-91163798D01*
X111370153Y-91387097D01*
X111323000Y-91624151D01*
X111323000Y-91865849D01*
X111370153Y-92102903D01*
X111462647Y-92326202D01*
X111596927Y-92527167D01*
X111767833Y-92698073D01*
X111968798Y-92832353D01*
X112192097Y-92924847D01*
X112429151Y-92972000D01*
X112481481Y-92972000D01*
X112500000Y-92973824D01*
X113788000Y-92973824D01*
X113788000Y-93056176D01*
X112500000Y-93056176D01*
X112481481Y-93058000D01*
X112429151Y-93058000D01*
X112192097Y-93105153D01*
X111968798Y-93197647D01*
X111767833Y-93331927D01*
X111596927Y-93502833D01*
X111462647Y-93703798D01*
X111370153Y-93927097D01*
X111323000Y-94164151D01*
X111323000Y-94405849D01*
X111370153Y-94642903D01*
X111462647Y-94866202D01*
X111596927Y-95067167D01*
X111767833Y-95238073D01*
X111968798Y-95372353D01*
X112192097Y-95464847D01*
X112429151Y-95512000D01*
X112481481Y-95512000D01*
X112500000Y-95513824D01*
X113788000Y-95513824D01*
X113788000Y-95596176D01*
X112500000Y-95596176D01*
X112481481Y-95598000D01*
X112429151Y-95598000D01*
X112192097Y-95645153D01*
X111968798Y-95737647D01*
X111767833Y-95871927D01*
X111596927Y-96042833D01*
X111462647Y-96243798D01*
X111370153Y-96467097D01*
X111323000Y-96704151D01*
X111323000Y-96945849D01*
X111370153Y-97182903D01*
X111462647Y-97406202D01*
X111596927Y-97607167D01*
X111767833Y-97778073D01*
X111968798Y-97912353D01*
X112192097Y-98004847D01*
X112429151Y-98052000D01*
X112481481Y-98052000D01*
X112500000Y-98053824D01*
X113788000Y-98053824D01*
X113788000Y-98136176D01*
X112500000Y-98136176D01*
X112481481Y-98138000D01*
X112429151Y-98138000D01*
X112192097Y-98185153D01*
X111968798Y-98277647D01*
X111767833Y-98411927D01*
X111596927Y-98582833D01*
X111462647Y-98783798D01*
X111370153Y-99007097D01*
X111323000Y-99244151D01*
X111323000Y-99485849D01*
X111370153Y-99722903D01*
X111462647Y-99946202D01*
X111596927Y-100147167D01*
X111767833Y-100318073D01*
X111968798Y-100452353D01*
X112192097Y-100544847D01*
X112429151Y-100592000D01*
X112481481Y-100592000D01*
X112500000Y-100593824D01*
X113788000Y-100593824D01*
X113788000Y-103216176D01*
X112500000Y-103216176D01*
X112481481Y-103218000D01*
X112429151Y-103218000D01*
X112192097Y-103265153D01*
X111968798Y-103357647D01*
X111767833Y-103491927D01*
X111596927Y-103662833D01*
X111462647Y-103863798D01*
X111370153Y-104087097D01*
X111323000Y-104324151D01*
X111323000Y-104565849D01*
X111370153Y-104802903D01*
X111462647Y-105026202D01*
X111596927Y-105227167D01*
X111767833Y-105398073D01*
X111968798Y-105532353D01*
X112192097Y-105624847D01*
X112429151Y-105672000D01*
X112481481Y-105672000D01*
X112500000Y-105673824D01*
X113788000Y-105673824D01*
X113788000Y-105756176D01*
X112500000Y-105756176D01*
X112481481Y-105758000D01*
X112429151Y-105758000D01*
X112192097Y-105805153D01*
X111968798Y-105897647D01*
X111767833Y-106031927D01*
X111596927Y-106202833D01*
X111462647Y-106403798D01*
X111370153Y-106627097D01*
X111323000Y-106864151D01*
X111323000Y-107105849D01*
X111370153Y-107342903D01*
X111462647Y-107566202D01*
X111596927Y-107767167D01*
X111767833Y-107938073D01*
X111968798Y-108072353D01*
X112091070Y-108123000D01*
X106496642Y-108123000D01*
X106587903Y-108104847D01*
X106811202Y-108012353D01*
X107012167Y-107878073D01*
X107183073Y-107707167D01*
X107317353Y-107506202D01*
X107409847Y-107282903D01*
X107457000Y-107045849D01*
X107457000Y-106804151D01*
X107409847Y-106567097D01*
X107317353Y-106343798D01*
X107183073Y-106142833D01*
X107012167Y-105971927D01*
X106811202Y-105837647D01*
X106587903Y-105745153D01*
X106350849Y-105698000D01*
X106109151Y-105698000D01*
X105872097Y-105745153D01*
X105648798Y-105837647D01*
X105447833Y-105971927D01*
X105276927Y-106142833D01*
X105142647Y-106343798D01*
X105050153Y-106567097D01*
X105003000Y-106804151D01*
X105003000Y-107045849D01*
X105050153Y-107282903D01*
X105142647Y-107506202D01*
X105276927Y-107707167D01*
X105447833Y-107878073D01*
X105648798Y-108012353D01*
X105872097Y-108104847D01*
X105963358Y-108123000D01*
X101416642Y-108123000D01*
X101507903Y-108104847D01*
X101731202Y-108012353D01*
X101932167Y-107878073D01*
X102103073Y-107707167D01*
X102237353Y-107506202D01*
X102329847Y-107282903D01*
X102377000Y-107045849D01*
X102377000Y-106804151D01*
X102329847Y-106567097D01*
X102237353Y-106343798D01*
X102103073Y-106142833D01*
X101932167Y-105971927D01*
X101731202Y-105837647D01*
X101507903Y-105745153D01*
X101270849Y-105698000D01*
X101029151Y-105698000D01*
X100792097Y-105745153D01*
X100568798Y-105837647D01*
X100367833Y-105971927D01*
X100196927Y-106142833D01*
X100062647Y-106343798D01*
X99970153Y-106567097D01*
X99923000Y-106804151D01*
X99923000Y-107045849D01*
X99970153Y-107282903D01*
X100062647Y-107506202D01*
X100196927Y-107707167D01*
X100367833Y-107878073D01*
X100568798Y-108012353D01*
X100792097Y-108104847D01*
X100883358Y-108123000D01*
X95208930Y-108123000D01*
X95331202Y-108072353D01*
X95532167Y-107938073D01*
X95703073Y-107767167D01*
X95837353Y-107566202D01*
X95929847Y-107342903D01*
X95977000Y-107105849D01*
X95977000Y-106864151D01*
X95929847Y-106627097D01*
X95837353Y-106403798D01*
X95703073Y-106202833D01*
X95532167Y-106031927D01*
X95331202Y-105897647D01*
X95107903Y-105805153D01*
X94870849Y-105758000D01*
X94818519Y-105758000D01*
X94800000Y-105756176D01*
X93502000Y-105756176D01*
X93502000Y-105673824D01*
X94800000Y-105673824D01*
X94818519Y-105672000D01*
X94870849Y-105672000D01*
X95107903Y-105624847D01*
X95331202Y-105532353D01*
X95532167Y-105398073D01*
X95703073Y-105227167D01*
X95837353Y-105026202D01*
X95929847Y-104802903D01*
X95977000Y-104565849D01*
X95977000Y-104324151D01*
X95929847Y-104087097D01*
X95837353Y-103863798D01*
X95703073Y-103662833D01*
X95532167Y-103491927D01*
X95331202Y-103357647D01*
X95107903Y-103265153D01*
X94870849Y-103218000D01*
X94818519Y-103218000D01*
X94800000Y-103216176D01*
X93502000Y-103216176D01*
X93502000Y-100593824D01*
X94800000Y-100593824D01*
X94818519Y-100592000D01*
X94870849Y-100592000D01*
X95107903Y-100544847D01*
X95331202Y-100452353D01*
X95532167Y-100318073D01*
X95703073Y-100147167D01*
X95837353Y-99946202D01*
X95929847Y-99722903D01*
X95977000Y-99485849D01*
X95977000Y-99244151D01*
X95929847Y-99007097D01*
X95837353Y-98783798D01*
X95703073Y-98582833D01*
X95532167Y-98411927D01*
X95331202Y-98277647D01*
X95107903Y-98185153D01*
X94870849Y-98138000D01*
X94818519Y-98138000D01*
X94800000Y-98136176D01*
X93502000Y-98136176D01*
X93502000Y-98053824D01*
X94800000Y-98053824D01*
X94818519Y-98052000D01*
X94870849Y-98052000D01*
X95107903Y-98004847D01*
X95331202Y-97912353D01*
X95532167Y-97778073D01*
X95703073Y-97607167D01*
X95837353Y-97406202D01*
X95929847Y-97182903D01*
X95977000Y-96945849D01*
X95977000Y-96704151D01*
X95929847Y-96467097D01*
X95837353Y-96243798D01*
X95703073Y-96042833D01*
X95532167Y-95871927D01*
X95331202Y-95737647D01*
X95107903Y-95645153D01*
X94870849Y-95598000D01*
X94818519Y-95598000D01*
X94800000Y-95596176D01*
X93502000Y-95596176D01*
X93502000Y-95513824D01*
X94800000Y-95513824D01*
X94818519Y-95512000D01*
X94870849Y-95512000D01*
X95107903Y-95464847D01*
X95331202Y-95372353D01*
X95532167Y-95238073D01*
X95703073Y-95067167D01*
X95837353Y-94866202D01*
X95929847Y-94642903D01*
X95977000Y-94405849D01*
X95977000Y-94164151D01*
X95929847Y-93927097D01*
X95837353Y-93703798D01*
X95703073Y-93502833D01*
X95532167Y-93331927D01*
X95331202Y-93197647D01*
X95107903Y-93105153D01*
X94870849Y-93058000D01*
X94818519Y-93058000D01*
X94800000Y-93056176D01*
X93502000Y-93056176D01*
X93502000Y-92973824D01*
X94790000Y-92973824D01*
X94808519Y-92972000D01*
X94870849Y-92972000D01*
X95107903Y-92924847D01*
X95331202Y-92832353D01*
X95532167Y-92698073D01*
X95703073Y-92527167D01*
X95837353Y-92326202D01*
X95929847Y-92102903D01*
X95977000Y-91865849D01*
X95977000Y-91624151D01*
X95929847Y-91387097D01*
X95837353Y-91163798D01*
X95703073Y-90962833D01*
X95553838Y-90813598D01*
X103607269Y-90813598D01*
X103607269Y-90946956D01*
X103633285Y-91077751D01*
X103684319Y-91200957D01*
X103758409Y-91311840D01*
X103852706Y-91406137D01*
X103963589Y-91480227D01*
X104086795Y-91531261D01*
X104217590Y-91557277D01*
X104350948Y-91557277D01*
X104481743Y-91531261D01*
X104604949Y-91480227D01*
X104715832Y-91406137D01*
X104810129Y-91311840D01*
X104884219Y-91200957D01*
X104935253Y-91077751D01*
X104961269Y-90946956D01*
X104961269Y-90813598D01*
X104935253Y-90682803D01*
X104884219Y-90559597D01*
X104810129Y-90448714D01*
X104736269Y-90374854D01*
X104736269Y-88674443D01*
X104771563Y-88650860D01*
X104865860Y-88556563D01*
X104939950Y-88445680D01*
X104990984Y-88322474D01*
X105017000Y-88191679D01*
X105017000Y-88058321D01*
X104990984Y-87927526D01*
X104939950Y-87804320D01*
X104865860Y-87693437D01*
X104771563Y-87599140D01*
X104660680Y-87525050D01*
X104537474Y-87474016D01*
X104406679Y-87448000D01*
X104273321Y-87448000D01*
X104142526Y-87474016D01*
X104019320Y-87525050D01*
X103908437Y-87599140D01*
X103814140Y-87693437D01*
X103740050Y-87804320D01*
X103689016Y-87927526D01*
X103663000Y-88058321D01*
X103663000Y-88191679D01*
X103689016Y-88322474D01*
X103740050Y-88445680D01*
X103814140Y-88556563D01*
X103832269Y-88574692D01*
X103832270Y-90374853D01*
X103758409Y-90448714D01*
X103684319Y-90559597D01*
X103633285Y-90682803D01*
X103607269Y-90813598D01*
X95553838Y-90813598D01*
X95532167Y-90791927D01*
X95331202Y-90657647D01*
X95107903Y-90565153D01*
X94870849Y-90518000D01*
X94808519Y-90518000D01*
X94790000Y-90516176D01*
X93502000Y-90516176D01*
X93502000Y-87893824D01*
X94800000Y-87893824D01*
X94818519Y-87892000D01*
X94870849Y-87892000D01*
X95107903Y-87844847D01*
X95331202Y-87752353D01*
X95532167Y-87618073D01*
X95703073Y-87447167D01*
X95837353Y-87246202D01*
X95929847Y-87022903D01*
X95977000Y-86785849D01*
X95977000Y-86544151D01*
X95929847Y-86307097D01*
X95837353Y-86083798D01*
X95703073Y-85882833D01*
X95532167Y-85711927D01*
X95331202Y-85577647D01*
X95107903Y-85485153D01*
X94870849Y-85438000D01*
X94818519Y-85438000D01*
X94800000Y-85436176D01*
X93502000Y-85436176D01*
X93502000Y-85353824D01*
X94800000Y-85353824D01*
X94818519Y-85352000D01*
X94870849Y-85352000D01*
X95107903Y-85304847D01*
X95331202Y-85212353D01*
X95532167Y-85078073D01*
X95703073Y-84907167D01*
X95837353Y-84706202D01*
X95929847Y-84482903D01*
X95977000Y-84245849D01*
X95977000Y-84004151D01*
X95929847Y-83767097D01*
X95837353Y-83543798D01*
X95703073Y-83342833D01*
X95532167Y-83171927D01*
X95331202Y-83037647D01*
X95107903Y-82945153D01*
X94870849Y-82898000D01*
X94818519Y-82898000D01*
X94800000Y-82896176D01*
X93502000Y-82896176D01*
X93502000Y-82813824D01*
X94800000Y-82813824D01*
X94818519Y-82812000D01*
X94870849Y-82812000D01*
X95107903Y-82764847D01*
X95331202Y-82672353D01*
X95532167Y-82538073D01*
X95703073Y-82367167D01*
X95837353Y-82166202D01*
X95929847Y-81942903D01*
X95977000Y-81705849D01*
X95977000Y-81464151D01*
X95929847Y-81227097D01*
X95837353Y-81003798D01*
X95703073Y-80802833D01*
X95532167Y-80631927D01*
X95331202Y-80497647D01*
X95107903Y-80405153D01*
X94870849Y-80358000D01*
X94818519Y-80358000D01*
X94800000Y-80356176D01*
X93502000Y-80356176D01*
X93502000Y-80273824D01*
X94810000Y-80273824D01*
X94828519Y-80272000D01*
X94870849Y-80272000D01*
X95107903Y-80224847D01*
X95331202Y-80132353D01*
X95532167Y-79998073D01*
X95703073Y-79827167D01*
X95747081Y-79761304D01*
X96248000Y-80262225D01*
X96248001Y-84829576D01*
X96174140Y-84903437D01*
X96100050Y-85014320D01*
X96049016Y-85137526D01*
X96023000Y-85268321D01*
X96023000Y-85401679D01*
X96049016Y-85532474D01*
X96100050Y-85655680D01*
X96174140Y-85766563D01*
X96268437Y-85860860D01*
X96379320Y-85934950D01*
X96502526Y-85985984D01*
X96633321Y-86012000D01*
X96766679Y-86012000D01*
X96897474Y-85985984D01*
X97020680Y-85934950D01*
X97131563Y-85860860D01*
X97150857Y-85841566D01*
X97165954Y-85917467D01*
X97216988Y-86040673D01*
X97291078Y-86151556D01*
X97385375Y-86245853D01*
X97496258Y-86319943D01*
X97619464Y-86370977D01*
X97750259Y-86396993D01*
X97883617Y-86396993D01*
X98014412Y-86370977D01*
X98137618Y-86319943D01*
X98248501Y-86245853D01*
X98342798Y-86151556D01*
X98416888Y-86040673D01*
X98458975Y-85939067D01*
X98477605Y-85939067D01*
X98608400Y-85913051D01*
X98731606Y-85862017D01*
X98842489Y-85787927D01*
X98936786Y-85693630D01*
X99010876Y-85582747D01*
X99061910Y-85459541D01*
X99087926Y-85328746D01*
X99087926Y-85195388D01*
X99062978Y-85069960D01*
X99091563Y-85050860D01*
X99185860Y-84956563D01*
X99259950Y-84845680D01*
X99310984Y-84722474D01*
X99337000Y-84591679D01*
X99337000Y-84490074D01*
X99338359Y-84488959D01*
X99394843Y-84420133D01*
X99436814Y-84341610D01*
X99449797Y-84298810D01*
X99462660Y-84256408D01*
X99471387Y-84167801D01*
X99469200Y-84145596D01*
X99469200Y-82295821D01*
X99585500Y-82295821D01*
X99585500Y-82429179D01*
X99611516Y-82559974D01*
X99662550Y-82683180D01*
X99736640Y-82794063D01*
X99830937Y-82888360D01*
X99941820Y-82962450D01*
X100065026Y-83013484D01*
X100195821Y-83039500D01*
X100329179Y-83039500D01*
X100459974Y-83013484D01*
X100583180Y-82962450D01*
X100621191Y-82937052D01*
X100603903Y-82978789D01*
X100570200Y-83148223D01*
X100570200Y-83320977D01*
X100570458Y-83322276D01*
X100548400Y-83433170D01*
X100548400Y-83546830D01*
X100570574Y-83658305D01*
X100614069Y-83763312D01*
X100677215Y-83857816D01*
X100757584Y-83938185D01*
X100852088Y-84001331D01*
X100957095Y-84044826D01*
X101068570Y-84067000D01*
X101165081Y-84067000D01*
X101191389Y-84077897D01*
X101360823Y-84111600D01*
X101533577Y-84111600D01*
X101703011Y-84077897D01*
X101862615Y-84011787D01*
X102006255Y-83915810D01*
X102128410Y-83793655D01*
X102224387Y-83650015D01*
X102290497Y-83490411D01*
X102324200Y-83320977D01*
X102324200Y-83148223D01*
X102290497Y-82978789D01*
X102224387Y-82819185D01*
X102128410Y-82675545D01*
X102006255Y-82553390D01*
X101862615Y-82457413D01*
X101703011Y-82391303D01*
X101577400Y-82366317D01*
X101577400Y-82115204D01*
X101579587Y-82092999D01*
X101570860Y-82004392D01*
X101552207Y-81942903D01*
X101545014Y-81919190D01*
X101503043Y-81840667D01*
X101446559Y-81771841D01*
X101429310Y-81757685D01*
X101171000Y-81499376D01*
X101171000Y-80753757D01*
X102528660Y-80753757D01*
X102528660Y-80887115D01*
X102554676Y-81017910D01*
X102605710Y-81141116D01*
X102679800Y-81251999D01*
X102753661Y-81325860D01*
X102753660Y-82468455D01*
X102751473Y-82490660D01*
X102760200Y-82579267D01*
X102774221Y-82625487D01*
X102786046Y-82664469D01*
X102828017Y-82742992D01*
X102884501Y-82811819D01*
X102901760Y-82825983D01*
X104329685Y-84253910D01*
X104343841Y-84271159D01*
X104412667Y-84327643D01*
X104491190Y-84369614D01*
X104556562Y-84389444D01*
X104576392Y-84395460D01*
X104664999Y-84404187D01*
X104687204Y-84402000D01*
X104732670Y-84402000D01*
X104747389Y-84408097D01*
X104916823Y-84441800D01*
X105089577Y-84441800D01*
X105259011Y-84408097D01*
X105418615Y-84341987D01*
X105562255Y-84246010D01*
X105684410Y-84123855D01*
X105780387Y-83980215D01*
X105846497Y-83820611D01*
X105880200Y-83651177D01*
X105880200Y-83478423D01*
X105846497Y-83308989D01*
X105780387Y-83149385D01*
X105684410Y-83005745D01*
X105562255Y-82883590D01*
X105517000Y-82853352D01*
X105517000Y-82252175D01*
X105695184Y-82073992D01*
X105799639Y-82073992D01*
X105930434Y-82047976D01*
X106053640Y-81996942D01*
X106164523Y-81922852D01*
X106258820Y-81828555D01*
X106332910Y-81717672D01*
X106383944Y-81594466D01*
X106409960Y-81463671D01*
X106409960Y-81330313D01*
X106383944Y-81199518D01*
X106332910Y-81076312D01*
X106258820Y-80965429D01*
X106164523Y-80871132D01*
X106053640Y-80797042D01*
X105930434Y-80746008D01*
X105799639Y-80719992D01*
X105666281Y-80719992D01*
X105535486Y-80746008D01*
X105412280Y-80797042D01*
X105301397Y-80871132D01*
X105207100Y-80965429D01*
X105133010Y-81076312D01*
X105081976Y-81199518D01*
X105055960Y-81330313D01*
X105055960Y-81434768D01*
X104761095Y-81729634D01*
X104743842Y-81743793D01*
X104702919Y-81793658D01*
X104687358Y-81812619D01*
X104645386Y-81891143D01*
X104619540Y-81976345D01*
X104610813Y-82064952D01*
X104613001Y-82087167D01*
X104613001Y-82777168D01*
X104587785Y-82787613D01*
X104444145Y-82883590D01*
X104340980Y-82986755D01*
X103657660Y-82303437D01*
X103657660Y-81325859D01*
X103731520Y-81251999D01*
X103805610Y-81141116D01*
X103856644Y-81017910D01*
X103882660Y-80887115D01*
X103882660Y-80753757D01*
X103856644Y-80622962D01*
X103805610Y-80499756D01*
X103731520Y-80388873D01*
X103637223Y-80294576D01*
X103526340Y-80220486D01*
X103403134Y-80169452D01*
X103272339Y-80143436D01*
X103138981Y-80143436D01*
X103008186Y-80169452D01*
X102884980Y-80220486D01*
X102774097Y-80294576D01*
X102679800Y-80388873D01*
X102605710Y-80499756D01*
X102554676Y-80622962D01*
X102528660Y-80753757D01*
X101171000Y-80753757D01*
X101171000Y-79841823D01*
X102013506Y-78999318D01*
X102030759Y-78985159D01*
X102087243Y-78916333D01*
X102129214Y-78837810D01*
X102155060Y-78752607D01*
X102155196Y-78751232D01*
X102163787Y-78664000D01*
X102161600Y-78641795D01*
X102161600Y-77177205D01*
X102163787Y-77155000D01*
X102155060Y-77066392D01*
X102129214Y-76981190D01*
X102087243Y-76902667D01*
X102030759Y-76833841D01*
X102013505Y-76819681D01*
X101750305Y-76556481D01*
X101769950Y-76527080D01*
X101820984Y-76403874D01*
X101847000Y-76273079D01*
X101847000Y-76139721D01*
X101820984Y-76008926D01*
X101769950Y-75885720D01*
X101695860Y-75774837D01*
X101601563Y-75680540D01*
X101490680Y-75606450D01*
X101367474Y-75555416D01*
X101236679Y-75529400D01*
X101103321Y-75529400D01*
X100972526Y-75555416D01*
X100849320Y-75606450D01*
X100738437Y-75680540D01*
X100644140Y-75774837D01*
X100570050Y-75885720D01*
X100519016Y-76008926D01*
X100493000Y-76139721D01*
X100493000Y-76273079D01*
X100515847Y-76387943D01*
X100473182Y-76392145D01*
X100375855Y-76421669D01*
X100286157Y-76469614D01*
X100207536Y-76534136D01*
X100143014Y-76612757D01*
X100095069Y-76702455D01*
X100065545Y-76799782D01*
X100055576Y-76901000D01*
X100055576Y-77181000D01*
X100065545Y-77282218D01*
X100095069Y-77379545D01*
X100143014Y-77469243D01*
X100185489Y-77521000D01*
X100143014Y-77572757D01*
X100095069Y-77662455D01*
X100065545Y-77759782D01*
X100055576Y-77861000D01*
X100055576Y-78141000D01*
X100065545Y-78242218D01*
X100095069Y-78339545D01*
X100143014Y-78429243D01*
X100157356Y-78446719D01*
X99767395Y-78836682D01*
X99750142Y-78850841D01*
X99700615Y-78911190D01*
X99693658Y-78919667D01*
X99651686Y-78998191D01*
X99625840Y-79083393D01*
X99617113Y-79172000D01*
X99619301Y-79194215D01*
X99619300Y-82146234D01*
X99611516Y-82165026D01*
X99585500Y-82295821D01*
X99469200Y-82295821D01*
X99469200Y-73174404D01*
X99471387Y-73152199D01*
X99462660Y-73063592D01*
X99436814Y-72978390D01*
X99394843Y-72899867D01*
X99338359Y-72831041D01*
X99321112Y-72816887D01*
X98052121Y-71547896D01*
X101506201Y-71547896D01*
X101509961Y-71586069D01*
X101509960Y-74337340D01*
X101506201Y-74375504D01*
X101509960Y-74413667D01*
X101509960Y-74413669D01*
X101521203Y-74527822D01*
X101539990Y-74589753D01*
X101565633Y-74674287D01*
X101637783Y-74809270D01*
X101653647Y-74828600D01*
X101734880Y-74927584D01*
X101764529Y-74951916D01*
X103546387Y-76733775D01*
X103546386Y-77907142D01*
X103542627Y-77945306D01*
X103546386Y-77983469D01*
X103546386Y-77983471D01*
X103557629Y-78097624D01*
X103601491Y-78242218D01*
X103602059Y-78244089D01*
X103674209Y-78379072D01*
X103700959Y-78411667D01*
X103771306Y-78497386D01*
X103800956Y-78521719D01*
X103841466Y-78562229D01*
X103930134Y-78634997D01*
X104065117Y-78707147D01*
X104211582Y-78751576D01*
X104363899Y-78766578D01*
X104516218Y-78751576D01*
X104662682Y-78707147D01*
X104797665Y-78634997D01*
X104850449Y-78591678D01*
X104900966Y-78633137D01*
X105035949Y-78705287D01*
X105182414Y-78749716D01*
X105334732Y-78764719D01*
X105487050Y-78749716D01*
X105633515Y-78705287D01*
X105768498Y-78633137D01*
X105857166Y-78560369D01*
X105895818Y-78521717D01*
X105925466Y-78497386D01*
X106022563Y-78379072D01*
X106094713Y-78244090D01*
X106139143Y-78097625D01*
X106150386Y-77983472D01*
X106150386Y-77983470D01*
X106154145Y-77945307D01*
X106150386Y-77907143D01*
X106150386Y-76015157D01*
X106154144Y-75977001D01*
X106150386Y-75938845D01*
X106150386Y-75938836D01*
X106139143Y-75824683D01*
X106094713Y-75678218D01*
X106080158Y-75650987D01*
X106022563Y-75543235D01*
X105949795Y-75454567D01*
X105949794Y-75454566D01*
X105925466Y-75424922D01*
X105895822Y-75400594D01*
X104113960Y-73618733D01*
X104113960Y-72304667D01*
X104636637Y-71781991D01*
X104666280Y-71757664D01*
X104690609Y-71728019D01*
X104763377Y-71639351D01*
X104835527Y-71504368D01*
X104846971Y-71466643D01*
X104879957Y-71357903D01*
X104891200Y-71243750D01*
X104891200Y-71243741D01*
X104894958Y-71205585D01*
X104891200Y-71167429D01*
X104891200Y-68876195D01*
X104903280Y-68866281D01*
X105000377Y-68747967D01*
X105072527Y-68612985D01*
X105116957Y-68466520D01*
X105128200Y-68352367D01*
X105128200Y-68352365D01*
X105131959Y-68314201D01*
X105128200Y-68276038D01*
X105128200Y-68246265D01*
X105151010Y-68223455D01*
X105246987Y-68079815D01*
X105313097Y-67920211D01*
X105346800Y-67750777D01*
X105346800Y-67578023D01*
X105313097Y-67408589D01*
X105246987Y-67248985D01*
X105151010Y-67105345D01*
X105028855Y-66983190D01*
X104938360Y-66922723D01*
X104938360Y-64623024D01*
X104937000Y-64609216D01*
X104937000Y-64593170D01*
X104933869Y-64577431D01*
X104930010Y-64538248D01*
X104918580Y-64500569D01*
X104914826Y-64481695D01*
X104907462Y-64463916D01*
X104897017Y-64429484D01*
X104880055Y-64397750D01*
X104871331Y-64376688D01*
X104858667Y-64357735D01*
X104843439Y-64329245D01*
X104822944Y-64304272D01*
X104808185Y-64282184D01*
X104789399Y-64263398D01*
X104771334Y-64241386D01*
X104749322Y-64223321D01*
X104727816Y-64201815D01*
X104702530Y-64184920D01*
X104683475Y-64169281D01*
X104661736Y-64157661D01*
X104633312Y-64138669D01*
X104601724Y-64125585D01*
X104583236Y-64115703D01*
X104563176Y-64109618D01*
X104528305Y-64095174D01*
X104491285Y-64087810D01*
X104474472Y-64082710D01*
X104456987Y-64080988D01*
X104416830Y-64073000D01*
X104375889Y-64073000D01*
X104361360Y-64071569D01*
X104346832Y-64073000D01*
X104303170Y-64073000D01*
X104270512Y-64079496D01*
X104234448Y-64035552D01*
X104214334Y-64019045D01*
X103990954Y-63795665D01*
X103974447Y-63775551D01*
X103894201Y-63709695D01*
X103802649Y-63660760D01*
X103703309Y-63630625D01*
X103625880Y-63622999D01*
X103599999Y-63620450D01*
X103574118Y-63622999D01*
X103093039Y-63622999D01*
X103067158Y-63620450D01*
X102963849Y-63630625D01*
X102864509Y-63660760D01*
X102772957Y-63709695D01*
X102692711Y-63775551D01*
X102676204Y-63795665D01*
X102495662Y-63976207D01*
X102475553Y-63992710D01*
X102440394Y-64035552D01*
X102409696Y-64072957D01*
X102360761Y-64164509D01*
X102340777Y-64230386D01*
X102330626Y-64263848D01*
X102326406Y-64306691D01*
X102320451Y-64367158D01*
X102323000Y-64393039D01*
X102323000Y-64414517D01*
X102295174Y-64481695D01*
X102273000Y-64593170D01*
X102273000Y-64706830D01*
X102275601Y-64719906D01*
X102275600Y-65992335D01*
X102275601Y-65992345D01*
X102275600Y-66862337D01*
X102132745Y-66957790D01*
X102010590Y-67079945D01*
X101914613Y-67223585D01*
X101848503Y-67383189D01*
X101814800Y-67552623D01*
X101814800Y-67725377D01*
X101848503Y-67894811D01*
X101914613Y-68054415D01*
X102010590Y-68198055D01*
X102050200Y-68237665D01*
X102050200Y-68276038D01*
X102046441Y-68314201D01*
X102050200Y-68352364D01*
X102050200Y-68352366D01*
X102061443Y-68466519D01*
X102090966Y-68563842D01*
X102105873Y-68612984D01*
X102178023Y-68747967D01*
X102191305Y-68764151D01*
X102275120Y-68866281D01*
X102287201Y-68876195D01*
X102287200Y-70448812D01*
X101764525Y-70971488D01*
X101734881Y-70995816D01*
X101710553Y-71025460D01*
X101710551Y-71025462D01*
X101637783Y-71114130D01*
X101565633Y-71249113D01*
X101521204Y-71395578D01*
X101506201Y-71547896D01*
X98052121Y-71547896D01*
X95876329Y-69372106D01*
X95929847Y-69242903D01*
X95977000Y-69005849D01*
X95977000Y-68764151D01*
X95929847Y-68527097D01*
X95837353Y-68303798D01*
X95703073Y-68102833D01*
X95532167Y-67931927D01*
X95331202Y-67797647D01*
X95107903Y-67705153D01*
X94870849Y-67658000D01*
X94818519Y-67658000D01*
X94800000Y-67656176D01*
X93502000Y-67656176D01*
X93502000Y-67563824D01*
X94588047Y-67563824D01*
X94629151Y-67572000D01*
X94870849Y-67572000D01*
X95107903Y-67524847D01*
X95331202Y-67432353D01*
X95532167Y-67298073D01*
X95703073Y-67127167D01*
X95837353Y-66926202D01*
X95929847Y-66702903D01*
X95977000Y-66465849D01*
X95977000Y-66224151D01*
X95929847Y-65987097D01*
X95837353Y-65763798D01*
X95703073Y-65562833D01*
X95532167Y-65391927D01*
X95331202Y-65257647D01*
X95107903Y-65165153D01*
X94923248Y-65128423D01*
X94873905Y-65113455D01*
X94800000Y-65106176D01*
X93502000Y-65106176D01*
X93502000Y-63105859D01*
X100008000Y-63105859D01*
X100008000Y-63244141D01*
X100034977Y-63379766D01*
X100087895Y-63507522D01*
X100164721Y-63622499D01*
X100262501Y-63720279D01*
X100377478Y-63797105D01*
X100505234Y-63850023D01*
X100640859Y-63877000D01*
X100779141Y-63877000D01*
X100914766Y-63850023D01*
X101042522Y-63797105D01*
X101157499Y-63720279D01*
X101255279Y-63622499D01*
X101332105Y-63507522D01*
X101385023Y-63379766D01*
X101412000Y-63244141D01*
X101412000Y-63105859D01*
X105788000Y-63105859D01*
X105788000Y-63244141D01*
X105814977Y-63379766D01*
X105867895Y-63507522D01*
X105944721Y-63622499D01*
X106042501Y-63720279D01*
X106157478Y-63797105D01*
X106285234Y-63850023D01*
X106420859Y-63877000D01*
X106559141Y-63877000D01*
X106694766Y-63850023D01*
X106822522Y-63797105D01*
X106937499Y-63720279D01*
X107035279Y-63622499D01*
X107112105Y-63507522D01*
X107165023Y-63379766D01*
X107192000Y-63244141D01*
X107192000Y-63105859D01*
X107165023Y-62970234D01*
X107112105Y-62842478D01*
X107035279Y-62727501D01*
X106937499Y-62629721D01*
X106822522Y-62552895D01*
X106694766Y-62499977D01*
X106559141Y-62473000D01*
X106420859Y-62473000D01*
X106285234Y-62499977D01*
X106157478Y-62552895D01*
X106042501Y-62629721D01*
X105944721Y-62727501D01*
X105867895Y-62842478D01*
X105814977Y-62970234D01*
X105788000Y-63105859D01*
X101412000Y-63105859D01*
X101385023Y-62970234D01*
X101332105Y-62842478D01*
X101255279Y-62727501D01*
X101157499Y-62629721D01*
X101042522Y-62552895D01*
X100914766Y-62499977D01*
X100779141Y-62473000D01*
X100640859Y-62473000D01*
X100505234Y-62499977D01*
X100377478Y-62552895D01*
X100262501Y-62629721D01*
X100164721Y-62727501D01*
X100087895Y-62842478D01*
X100034977Y-62970234D01*
X100008000Y-63105859D01*
X93502000Y-63105859D01*
X93502000Y-62483824D01*
X94588047Y-62483824D01*
X94629151Y-62492000D01*
X94870849Y-62492000D01*
X95107903Y-62444847D01*
X95331202Y-62352353D01*
X95532167Y-62218073D01*
X95703073Y-62047167D01*
X95837353Y-61846202D01*
X95929847Y-61622903D01*
X95977000Y-61385849D01*
X95977000Y-61144151D01*
X95929847Y-60907097D01*
X95837353Y-60683798D01*
X95703073Y-60482833D01*
X95532167Y-60311927D01*
X95331202Y-60177647D01*
X95107903Y-60085153D01*
X94923248Y-60048423D01*
X94873905Y-60033455D01*
X94800000Y-60026176D01*
X93502000Y-60026176D01*
X93502000Y-59953824D01*
X94800000Y-59953824D01*
X94818519Y-59952000D01*
X94870849Y-59952000D01*
X95107903Y-59904847D01*
X95331202Y-59812353D01*
X95529248Y-59680023D01*
X109265400Y-59680023D01*
X109265400Y-59852777D01*
X109299103Y-60022211D01*
X109365213Y-60181815D01*
X109461190Y-60325455D01*
X109583345Y-60447610D01*
X109723263Y-60541100D01*
X109583345Y-60634590D01*
X109461190Y-60756745D01*
X109365213Y-60900385D01*
X109299103Y-61059989D01*
X109265400Y-61229423D01*
X109265400Y-61402177D01*
X109299103Y-61571611D01*
X109365213Y-61731215D01*
X109461190Y-61874855D01*
X109583345Y-61997010D01*
X109726985Y-62092987D01*
X109886589Y-62159097D01*
X110056023Y-62192800D01*
X110228777Y-62192800D01*
X110398211Y-62159097D01*
X110557815Y-62092987D01*
X110701455Y-61997010D01*
X110823610Y-61874855D01*
X110919587Y-61731215D01*
X110985697Y-61571611D01*
X111019400Y-61402177D01*
X111019400Y-61229423D01*
X110985697Y-61059989D01*
X110919587Y-60900385D01*
X110823610Y-60756745D01*
X110701455Y-60634590D01*
X110561537Y-60541100D01*
X110701455Y-60447610D01*
X110823610Y-60325455D01*
X110919587Y-60181815D01*
X110985697Y-60022211D01*
X111019400Y-59852777D01*
X111019400Y-59680023D01*
X110985697Y-59510589D01*
X110919587Y-59350985D01*
X110823610Y-59207345D01*
X110701455Y-59085190D01*
X110557815Y-58989213D01*
X110398211Y-58923103D01*
X110228777Y-58889400D01*
X110056023Y-58889400D01*
X109886589Y-58923103D01*
X109726985Y-58989213D01*
X109583345Y-59085190D01*
X109461190Y-59207345D01*
X109365213Y-59350985D01*
X109299103Y-59510589D01*
X109265400Y-59680023D01*
X95529248Y-59680023D01*
X95532167Y-59678073D01*
X95703073Y-59507167D01*
X95837353Y-59306202D01*
X95929847Y-59082903D01*
X95977000Y-58845849D01*
X95977000Y-58604151D01*
X95929847Y-58367097D01*
X95837353Y-58143798D01*
X95703073Y-57942833D01*
X95532167Y-57771927D01*
X95331202Y-57637647D01*
X95305498Y-57627000D01*
X111415825Y-57627000D01*
X111385019Y-57664537D01*
G37*
G04 #@! TD.AperFunction*
D25*
X97965179Y-75664404D02*
X97965178Y-83369317D01*
X97513034Y-83821462D01*
X97495780Y-83835622D01*
X97443924Y-83898809D01*
X97439296Y-83904448D01*
X97397324Y-83982972D01*
X97371478Y-84068174D01*
X97362751Y-84156781D01*
X97364939Y-84178996D01*
X97364938Y-85207681D01*
X97350984Y-85137526D01*
X97299950Y-85014320D01*
X97225860Y-84903437D01*
X97152000Y-84829577D01*
X97152000Y-80097202D01*
X97154187Y-80074999D01*
X97150737Y-80039970D01*
X97145460Y-79986393D01*
X97119614Y-79901190D01*
X97077643Y-79822667D01*
X97021159Y-79753841D01*
X97003911Y-79739687D01*
X96045323Y-78781100D01*
X96031159Y-78763841D01*
X95962333Y-78707357D01*
X95930492Y-78690338D01*
X95929847Y-78687097D01*
X95837353Y-78463798D01*
X95703073Y-78262833D01*
X95532167Y-78091927D01*
X95331202Y-77957647D01*
X95107903Y-77865153D01*
X94870849Y-77818000D01*
X94828519Y-77818000D01*
X94810000Y-77816176D01*
X93502000Y-77816176D01*
X93502000Y-75193824D01*
X94800000Y-75193824D01*
X94818519Y-75192000D01*
X94870849Y-75192000D01*
X95107903Y-75144847D01*
X95331202Y-75052353D01*
X95532167Y-74918073D01*
X95703073Y-74747167D01*
X95837353Y-74546202D01*
X95874302Y-74457000D01*
X96757777Y-74457000D01*
X97965179Y-75664404D01*
G04 #@! TA.AperFunction,Conductor*
D21*
G36*
X97965179Y-75664404D02*
G01*
X97965178Y-83369317D01*
X97513034Y-83821462D01*
X97495780Y-83835622D01*
X97443924Y-83898809D01*
X97439296Y-83904448D01*
X97397324Y-83982972D01*
X97371478Y-84068174D01*
X97362751Y-84156781D01*
X97364939Y-84178996D01*
X97364938Y-85207681D01*
X97350984Y-85137526D01*
X97299950Y-85014320D01*
X97225860Y-84903437D01*
X97152000Y-84829577D01*
X97152000Y-80097202D01*
X97154187Y-80074999D01*
X97150737Y-80039970D01*
X97145460Y-79986393D01*
X97119614Y-79901190D01*
X97077643Y-79822667D01*
X97021159Y-79753841D01*
X97003911Y-79739687D01*
X96045323Y-78781100D01*
X96031159Y-78763841D01*
X95962333Y-78707357D01*
X95930492Y-78690338D01*
X95929847Y-78687097D01*
X95837353Y-78463798D01*
X95703073Y-78262833D01*
X95532167Y-78091927D01*
X95331202Y-77957647D01*
X95107903Y-77865153D01*
X94870849Y-77818000D01*
X94828519Y-77818000D01*
X94810000Y-77816176D01*
X93502000Y-77816176D01*
X93502000Y-75193824D01*
X94800000Y-75193824D01*
X94818519Y-75192000D01*
X94870849Y-75192000D01*
X95107903Y-75144847D01*
X95331202Y-75052353D01*
X95532167Y-74918073D01*
X95703073Y-74747167D01*
X95837353Y-74546202D01*
X95874302Y-74457000D01*
X96757777Y-74457000D01*
X97965179Y-75664404D01*
G37*
G04 #@! TD.AperFunction*
M02*
