G04 #@! TF.GenerationSoftware,KiCad,Pcbnew,(5.1.10)-1*
G04 #@! TF.CreationDate,2021-08-18T14:37:02+01:00*
G04 #@! TF.ProjectId,EnvOpenPico,456e764f-7065-46e5-9069-636f2e6b6963,REV1*
G04 #@! TF.SameCoordinates,Original*
G04 #@! TF.FileFunction,Copper,L2,Bot*
G04 #@! TF.FilePolarity,Positive*
%FSLAX46Y46*%
G04 Gerber Fmt 4.6, Leading zero omitted, Abs format (unit mm)*
G04 Created by KiCad (PCBNEW (5.1.10)-1) date 2021-08-18 14:37:02*
%MOMM*%
%LPD*%
G01*
G04 APERTURE LIST*
G04 #@! TA.AperFunction,SMDPad,CuDef*
%ADD10C,1.000000*%
G04 #@! TD*
G04 #@! TA.AperFunction,ComponentPad*
%ADD11O,1.000000X2.100000*%
G04 #@! TD*
G04 #@! TA.AperFunction,ComponentPad*
%ADD12O,1.000000X1.600000*%
G04 #@! TD*
G04 #@! TA.AperFunction,ComponentPad*
%ADD13C,0.500000*%
G04 #@! TD*
G04 #@! TA.AperFunction,ComponentPad*
%ADD14O,1.700000X1.700000*%
G04 #@! TD*
G04 #@! TA.AperFunction,ComponentPad*
%ADD15R,1.700000X1.700000*%
G04 #@! TD*
G04 #@! TA.AperFunction,ComponentPad*
%ADD16R,3.500000X1.700000*%
G04 #@! TD*
G04 #@! TA.AperFunction,ComponentPad*
%ADD17C,1.700000*%
G04 #@! TD*
G04 #@! TA.AperFunction,ComponentPad*
%ADD18C,0.600000*%
G04 #@! TD*
G04 #@! TA.AperFunction,ViaPad*
%ADD19C,0.400000*%
G04 #@! TD*
G04 #@! TA.AperFunction,ViaPad*
%ADD20C,0.600000*%
G04 #@! TD*
G04 #@! TA.AperFunction,Conductor*
%ADD21C,0.150000*%
G04 #@! TD*
G04 #@! TA.AperFunction,Conductor*
%ADD22C,0.127000*%
G04 #@! TD*
G04 #@! TA.AperFunction,Conductor*
%ADD23C,0.300000*%
G04 #@! TD*
G04 #@! TA.AperFunction,Conductor*
%ADD24C,0.800000*%
G04 #@! TD*
G04 #@! TA.AperFunction,Conductor*
%ADD25C,0.400000*%
G04 #@! TD*
G04 #@! TA.AperFunction,Conductor*
%ADD26C,0.500000*%
G04 #@! TD*
G04 #@! TA.AperFunction,Conductor*
%ADD27C,0.100000*%
G04 #@! TD*
G04 #@! TA.AperFunction,Conductor*
%ADD28C,0.254000*%
G04 #@! TD*
G04 APERTURE END LIST*
D10*
X101345600Y-83412400D03*
D11*
X107920000Y-63705000D03*
X99280000Y-63705000D03*
D12*
X107920000Y-59525000D03*
X99280000Y-59525000D03*
D10*
X105028600Y-83641000D03*
X104622200Y-67664400D03*
X102539400Y-67639000D03*
G04 #@! TA.AperFunction,SMDPad,CuDef*
G36*
G01*
X100574400Y-76761000D02*
X100914400Y-76761000D01*
G75*
G02*
X101054400Y-76901000I0J-140000D01*
G01*
X101054400Y-77181000D01*
G75*
G02*
X100914400Y-77321000I-140000J0D01*
G01*
X100574400Y-77321000D01*
G75*
G02*
X100434400Y-77181000I0J140000D01*
G01*
X100434400Y-76901000D01*
G75*
G02*
X100574400Y-76761000I140000J0D01*
G01*
G37*
G04 #@! TD.AperFunction*
G04 #@! TA.AperFunction,SMDPad,CuDef*
G36*
G01*
X100574400Y-77721000D02*
X100914400Y-77721000D01*
G75*
G02*
X101054400Y-77861000I0J-140000D01*
G01*
X101054400Y-78141000D01*
G75*
G02*
X100914400Y-78281000I-140000J0D01*
G01*
X100574400Y-78281000D01*
G75*
G02*
X100434400Y-78141000I0J140000D01*
G01*
X100434400Y-77861000D01*
G75*
G02*
X100574400Y-77721000I140000J0D01*
G01*
G37*
G04 #@! TD.AperFunction*
D13*
X107300000Y-71125000D03*
X106725000Y-70175000D03*
X107875000Y-70175000D03*
X107300000Y-69225000D03*
D14*
X112550000Y-106985000D03*
X112550000Y-104445000D03*
D15*
X112550000Y-101905000D03*
D14*
X112550000Y-99365000D03*
X112550000Y-96825000D03*
X112550000Y-94285000D03*
X112550000Y-91745000D03*
D15*
X112550000Y-89205000D03*
D14*
X112550000Y-86665000D03*
X112550000Y-84125000D03*
X112550000Y-81585000D03*
X112550000Y-79045000D03*
D15*
X112550000Y-76505000D03*
D14*
X112550000Y-73965000D03*
X112550000Y-71425000D03*
X112550000Y-68885000D03*
X112550000Y-66345000D03*
D15*
X112550000Y-63805000D03*
D14*
X112550000Y-61265000D03*
D15*
X112550000Y-58725000D03*
D16*
X114250000Y-99365000D03*
X114250000Y-101905000D03*
X114250000Y-96825000D03*
X114250000Y-104445000D03*
X114250000Y-94285000D03*
X114250000Y-106985000D03*
X114250000Y-86665000D03*
X114250000Y-91745000D03*
X114250000Y-84125000D03*
X114250000Y-73965000D03*
X114250000Y-71425000D03*
X114250000Y-68885000D03*
X114250000Y-61265000D03*
X114250000Y-89205000D03*
X114250000Y-76505000D03*
X114250000Y-63805000D03*
X114250000Y-58725000D03*
X114250000Y-79045000D03*
X114250000Y-66345000D03*
X114250000Y-81585000D03*
D14*
X94750000Y-58725000D03*
X94750000Y-61265000D03*
D15*
X94750000Y-63805000D03*
D14*
X94750000Y-66345000D03*
X94750000Y-68885000D03*
X94750000Y-71425000D03*
X94750000Y-73965000D03*
D15*
X94750000Y-76505000D03*
D14*
X94750000Y-79045000D03*
X94750000Y-81585000D03*
X94750000Y-84125000D03*
X94750000Y-86665000D03*
D15*
X94750000Y-89205000D03*
D14*
X94750000Y-91745000D03*
X94750000Y-94285000D03*
X94750000Y-96825000D03*
X94750000Y-99365000D03*
D15*
X94750000Y-101905000D03*
D14*
X94750000Y-104445000D03*
D17*
X94750000Y-106985000D03*
D16*
X93050000Y-104445000D03*
X93050000Y-73965000D03*
X93050000Y-99365000D03*
X93050000Y-94285000D03*
X93050000Y-89205000D03*
X93050000Y-86665000D03*
X93050000Y-71425000D03*
X93060000Y-79045000D03*
X93050000Y-68885000D03*
X93050000Y-61255000D03*
X93050000Y-66335000D03*
X93040000Y-91745000D03*
X93050000Y-96825000D03*
X93050000Y-81585000D03*
X93050000Y-76505000D03*
X93050000Y-106985000D03*
X93050000Y-84125000D03*
X93050000Y-63805000D03*
X93050000Y-101905000D03*
X93050000Y-58725000D03*
D18*
X104965000Y-87300000D03*
X103690000Y-87300000D03*
X102415000Y-87300000D03*
X104965000Y-86025000D03*
X103690000Y-86025000D03*
X102415000Y-86025000D03*
X104965000Y-84750000D03*
X103690000Y-84750000D03*
X102415000Y-84750000D03*
D14*
X106230000Y-106925000D03*
G04 #@! TA.AperFunction,ComponentPad*
G36*
G01*
X104115000Y-107775000D02*
X103265000Y-107775000D01*
G75*
G02*
X102840000Y-107350000I0J425000D01*
G01*
X102840000Y-106500000D01*
G75*
G02*
X103265000Y-106075000I425000J0D01*
G01*
X104115000Y-106075000D01*
G75*
G02*
X104540000Y-106500000I0J-425000D01*
G01*
X104540000Y-107350000D01*
G75*
G02*
X104115000Y-107775000I-425000J0D01*
G01*
G37*
G04 #@! TD.AperFunction*
X101150000Y-106925000D03*
D19*
X99710000Y-76185000D03*
X101066200Y-79907200D03*
D20*
X108500000Y-90125000D03*
X96450000Y-61925000D03*
X96600000Y-87325000D03*
X97291928Y-84725000D03*
X101850000Y-92100000D03*
X108800000Y-93175000D03*
X105103040Y-93639840D03*
X100375000Y-64620000D03*
X100200000Y-89575000D03*
X97725000Y-81875000D03*
D19*
X110184800Y-80694600D03*
D20*
X110310040Y-73589080D03*
D19*
X106825000Y-64620000D03*
X96960000Y-90265000D03*
X96240000Y-65125000D03*
X97770000Y-75745000D03*
X97680000Y-101425000D03*
X110190000Y-101905000D03*
X103600000Y-66245000D03*
X97990000Y-74235000D03*
X98320000Y-72915000D03*
X110440000Y-84940000D03*
D20*
X105065000Y-83725000D03*
X104340000Y-88125000D03*
X104284269Y-90880277D03*
D19*
X105732960Y-81396992D03*
X103301372Y-80820400D03*
D20*
X96700000Y-85335000D03*
X97816938Y-85719993D03*
X98410926Y-85262067D03*
X98660000Y-84525000D03*
X107600000Y-92225000D03*
X100262500Y-82362500D03*
D19*
X107737560Y-67488000D03*
X104363900Y-77985820D03*
X103849995Y-63446195D03*
X102844200Y-63448000D03*
X105334732Y-77983960D03*
X103349989Y-62965389D03*
X104342800Y-62965406D03*
D20*
X110371000Y-77775000D03*
D19*
X101125400Y-83490000D03*
D20*
X101170000Y-76206400D03*
X109194202Y-73684200D03*
D21*
X112590000Y-89205000D02*
X112244000Y-89205000D01*
X112244000Y-89205000D02*
X110628000Y-90821000D01*
X112590000Y-88719000D02*
X111390000Y-87519000D01*
X112590000Y-89205000D02*
X112590000Y-88719000D01*
X97290000Y-85865000D02*
X97290000Y-86655000D01*
X97290000Y-84726928D02*
X97290000Y-85865000D01*
X97291928Y-84725000D02*
X97290000Y-84726928D01*
D22*
X97200000Y-101905000D02*
X94750000Y-101905000D01*
X97680000Y-101425000D02*
X97200000Y-101905000D01*
X110190000Y-101905000D02*
X112550000Y-101905000D01*
X97010000Y-76505000D02*
X94750000Y-76505000D01*
X97770000Y-75745000D02*
X97010000Y-76505000D01*
X110184800Y-80694600D02*
X110184800Y-79220200D01*
X110184800Y-79220200D02*
X111370000Y-78035000D01*
X111370000Y-77685000D02*
X112550000Y-76505000D01*
X111370000Y-78035000D02*
X111370000Y-77685000D01*
X107920000Y-63705000D02*
X113984490Y-63705000D01*
X94850000Y-63705000D02*
X94750000Y-63805000D01*
X99280000Y-63705000D02*
X94850000Y-63705000D01*
D21*
X104290000Y-88100000D02*
X104290000Y-88100000D01*
X104340000Y-88000000D02*
X104284269Y-88055731D01*
X104284269Y-90456013D02*
X104284269Y-90880277D01*
X104284269Y-88055731D02*
X104284269Y-90456013D01*
X105065000Y-83725000D02*
X105065000Y-82064952D01*
X105065000Y-82064952D02*
X105732960Y-81396992D01*
X103301372Y-81961372D02*
X103301372Y-80820400D01*
X105065000Y-83725000D02*
X103301372Y-81961372D01*
X95710000Y-79085000D02*
X96700000Y-80075000D01*
X96700000Y-80075000D02*
X96700000Y-85335000D01*
X94690000Y-79085000D02*
X95710000Y-79085000D01*
X96945000Y-74005000D02*
X94690000Y-74005000D01*
X98417178Y-83556541D02*
X98417178Y-75477178D01*
X97816938Y-85719993D02*
X97816938Y-84156781D01*
X98417178Y-75477178D02*
X96945000Y-74005000D01*
X97816938Y-84156781D02*
X98417178Y-83556541D01*
X98717189Y-83680809D02*
X98717189Y-74190108D01*
X98134999Y-84262999D02*
X98717189Y-83680809D01*
X98410926Y-85262067D02*
X98134999Y-84986140D01*
X98134999Y-84986140D02*
X98134999Y-84262999D01*
X95952081Y-71425000D02*
X94750000Y-71425000D01*
X98717189Y-74190108D02*
X95952081Y-71425000D01*
X99017200Y-84167800D02*
X98660000Y-84525000D01*
X99017200Y-72322200D02*
X99017200Y-84167800D01*
X95580000Y-68885000D02*
X99017200Y-72322200D01*
X94750000Y-68885000D02*
X95580000Y-68885000D01*
X111800000Y-84125000D02*
X112590000Y-84125000D01*
X111353200Y-84571800D02*
X111800000Y-84125000D01*
X111353200Y-85274800D02*
X111353200Y-84571800D01*
X110800000Y-85828000D02*
X111353200Y-85274800D01*
X110800000Y-89025000D02*
X110800000Y-85828000D01*
X107600000Y-92225000D02*
X110800000Y-89025000D01*
X100744400Y-78498900D02*
X100744400Y-78001000D01*
X100071300Y-79172000D02*
X100744400Y-78498900D01*
X100262500Y-82362500D02*
X100071300Y-82171300D01*
X100071300Y-82171300D02*
X100071300Y-79172000D01*
D23*
X107737560Y-67488000D02*
X109796960Y-67488000D01*
X110939960Y-66345000D02*
X112550000Y-66345000D01*
X109796960Y-67488000D02*
X110939960Y-66345000D01*
D21*
X103849995Y-63446195D02*
X102846005Y-63446195D01*
X102846005Y-63446195D02*
X102844200Y-63448000D01*
X102844200Y-67486600D02*
X102691800Y-67639000D01*
D24*
X102641000Y-67613600D02*
X102690400Y-67564200D01*
X103064200Y-68036800D02*
X102641000Y-67613600D01*
X103064200Y-70770656D02*
X103064200Y-68036800D01*
X102286960Y-71547896D02*
X103064200Y-70770656D01*
X102286960Y-74375504D02*
X102286960Y-71547896D01*
X104323386Y-76411930D02*
X102286960Y-74375504D01*
X104323386Y-77945306D02*
X104323386Y-76411930D01*
X104363900Y-77985820D02*
X104323386Y-77945306D01*
D25*
X102844200Y-63448000D02*
X102844200Y-67486600D01*
D21*
X103349989Y-62965389D02*
X104342783Y-62965389D01*
X104342783Y-62965389D02*
X104342800Y-62965406D01*
D25*
X104469800Y-63092406D02*
X104342800Y-62965406D01*
X104469800Y-67664400D02*
X104469800Y-63092406D01*
D24*
X105334732Y-77983960D02*
X105373386Y-77945306D01*
X104114200Y-68551201D02*
X104469800Y-68195601D01*
X105373386Y-77945306D02*
X105373386Y-75977002D01*
X105373386Y-75977002D02*
X103336960Y-73940576D01*
X103336960Y-73940576D02*
X103336960Y-71982824D01*
X104114200Y-71205584D02*
X104114200Y-68551201D01*
X103336960Y-71982824D02*
X104114200Y-71205584D01*
X104469800Y-68195601D02*
X104469800Y-67639000D01*
D21*
X110371000Y-77775000D02*
X110371000Y-74828600D01*
X110371000Y-74828600D02*
X111133000Y-74066600D01*
X111133000Y-72842000D02*
X112550000Y-71425000D01*
X111133000Y-74066600D02*
X111133000Y-72842000D01*
X101170000Y-76615400D02*
X101170000Y-76206400D01*
X100744400Y-77041000D02*
X101170000Y-76615400D01*
X101709600Y-77155000D02*
X101170000Y-76615400D01*
X100482000Y-79475400D02*
X101709600Y-78247800D01*
X100482000Y-81355000D02*
X100482000Y-79475400D01*
X101125400Y-81998400D02*
X100482000Y-81355000D01*
X101709600Y-78247800D02*
X101709600Y-77155000D01*
X101125400Y-83490000D02*
X101125400Y-81998400D01*
D24*
X112550000Y-68885000D02*
X109194202Y-72240798D01*
X109194202Y-72240798D02*
X109194202Y-73684200D01*
D26*
X111207235Y-57776983D02*
X111197581Y-57875000D01*
X111197581Y-59575000D01*
X111207235Y-59673017D01*
X111235825Y-59767267D01*
X111282254Y-59854129D01*
X111320000Y-59900123D01*
X111320000Y-60706764D01*
X111251880Y-60871220D01*
X111200000Y-61132037D01*
X111200000Y-61397963D01*
X111251880Y-61658780D01*
X111320000Y-61823236D01*
X111320000Y-65695000D01*
X110971880Y-65695000D01*
X110939959Y-65691856D01*
X110908038Y-65695000D01*
X110908028Y-65695000D01*
X110812538Y-65704405D01*
X110690012Y-65741573D01*
X110577092Y-65801930D01*
X110577090Y-65801931D01*
X110577091Y-65801931D01*
X110502919Y-65862802D01*
X110502917Y-65862804D01*
X110478117Y-65883157D01*
X110457764Y-65907957D01*
X109527722Y-66838000D01*
X107997508Y-66838000D01*
X107941742Y-66814901D01*
X107806504Y-66788000D01*
X107668616Y-66788000D01*
X107533378Y-66814901D01*
X107405986Y-66867668D01*
X107291336Y-66944274D01*
X107193834Y-67041776D01*
X107117228Y-67156426D01*
X107064461Y-67283818D01*
X107037560Y-67419056D01*
X107037560Y-67556944D01*
X107064461Y-67692182D01*
X107117228Y-67819574D01*
X107193834Y-67934224D01*
X107291336Y-68031726D01*
X107405986Y-68108332D01*
X107533378Y-68161099D01*
X107668616Y-68188000D01*
X107806504Y-68188000D01*
X107941742Y-68161099D01*
X107997508Y-68138000D01*
X109765039Y-68138000D01*
X109796960Y-68141144D01*
X109828881Y-68138000D01*
X109828892Y-68138000D01*
X109924382Y-68128595D01*
X110046908Y-68091427D01*
X110159828Y-68031070D01*
X110258803Y-67949843D01*
X110279160Y-67925038D01*
X111209199Y-66995000D01*
X111320000Y-66995000D01*
X111320000Y-68326764D01*
X111251880Y-68491220D01*
X111200000Y-68752037D01*
X111200000Y-68962207D01*
X108589067Y-71573141D01*
X108554727Y-71601323D01*
X108442259Y-71738367D01*
X108358688Y-71894718D01*
X108326386Y-72001203D01*
X108307225Y-72064368D01*
X108289848Y-72240798D01*
X108294202Y-72285005D01*
X108294203Y-73728407D01*
X108307226Y-73860631D01*
X108358689Y-74030281D01*
X108442260Y-74186632D01*
X108554728Y-74323675D01*
X108691771Y-74436143D01*
X108848122Y-74519714D01*
X109017772Y-74571177D01*
X109194202Y-74588554D01*
X109370633Y-74571177D01*
X109540283Y-74519714D01*
X109696634Y-74436143D01*
X109833677Y-74323675D01*
X109946145Y-74186632D01*
X110029716Y-74030281D01*
X110081179Y-73860631D01*
X110094202Y-73728407D01*
X110094202Y-72613590D01*
X111200000Y-71507792D01*
X111200000Y-71557963D01*
X111251880Y-71818780D01*
X111278582Y-71883245D01*
X110746389Y-72415439D01*
X110724447Y-72433446D01*
X110706441Y-72455387D01*
X110652592Y-72521002D01*
X110599199Y-72620893D01*
X110566321Y-72729281D01*
X110555218Y-72842000D01*
X110558001Y-72870253D01*
X110558000Y-73828427D01*
X109984389Y-74402039D01*
X109962447Y-74420046D01*
X109944441Y-74441987D01*
X109890592Y-74507602D01*
X109837199Y-74607493D01*
X109818082Y-74670516D01*
X109811408Y-74692519D01*
X109804321Y-74715881D01*
X109793218Y-74828600D01*
X109796001Y-74856853D01*
X109796000Y-77218629D01*
X109749599Y-77265030D01*
X109662049Y-77396058D01*
X109601743Y-77541649D01*
X109571000Y-77696207D01*
X109571000Y-77853793D01*
X109601743Y-78008351D01*
X109662049Y-78153942D01*
X109749599Y-78284970D01*
X109861030Y-78396401D01*
X109992058Y-78483951D01*
X110137649Y-78544257D01*
X110292207Y-78575000D01*
X110449793Y-78575000D01*
X110604351Y-78544257D01*
X110749942Y-78483951D01*
X110880970Y-78396401D01*
X110992401Y-78284970D01*
X111079951Y-78153942D01*
X111140257Y-78008351D01*
X111171000Y-77853793D01*
X111171000Y-77696207D01*
X111140257Y-77541649D01*
X111079951Y-77396058D01*
X110992401Y-77265030D01*
X110946000Y-77218629D01*
X110946000Y-75066772D01*
X111320000Y-74692772D01*
X111320000Y-78486764D01*
X111251880Y-78651220D01*
X111200000Y-78912037D01*
X111200000Y-79177963D01*
X111251880Y-79438780D01*
X111320000Y-79603236D01*
X111320000Y-81026764D01*
X111251880Y-81191220D01*
X111200000Y-81452037D01*
X111200000Y-81717963D01*
X111251880Y-81978780D01*
X111320000Y-82143236D01*
X111320000Y-83566764D01*
X111251880Y-83731220D01*
X111219916Y-83891911D01*
X110966589Y-84145239D01*
X110944647Y-84163246D01*
X110926641Y-84185187D01*
X110872792Y-84250802D01*
X110845008Y-84302782D01*
X110819399Y-84350692D01*
X110786520Y-84459080D01*
X110778200Y-84543554D01*
X110775418Y-84571800D01*
X110778200Y-84600043D01*
X110778200Y-85036627D01*
X110413389Y-85401439D01*
X110391447Y-85419446D01*
X110373441Y-85441387D01*
X110319592Y-85507002D01*
X110266199Y-85606893D01*
X110233321Y-85715281D01*
X110222218Y-85828000D01*
X110225001Y-85856253D01*
X110225000Y-88786827D01*
X107586828Y-91425000D01*
X107521207Y-91425000D01*
X107366649Y-91455743D01*
X107221058Y-91516049D01*
X107090030Y-91603599D01*
X106978599Y-91715030D01*
X106891049Y-91846058D01*
X106830743Y-91991649D01*
X106800000Y-92146207D01*
X106800000Y-92303793D01*
X106830743Y-92458351D01*
X106891049Y-92603942D01*
X106978599Y-92734970D01*
X107090030Y-92846401D01*
X107221058Y-92933951D01*
X107366649Y-92994257D01*
X107521207Y-93025000D01*
X107678793Y-93025000D01*
X107833351Y-92994257D01*
X107978942Y-92933951D01*
X108109970Y-92846401D01*
X108221401Y-92734970D01*
X108308951Y-92603942D01*
X108369257Y-92458351D01*
X108400000Y-92303793D01*
X108400000Y-92238172D01*
X111186613Y-89451560D01*
X111208554Y-89433554D01*
X111242782Y-89391847D01*
X111280408Y-89345999D01*
X111299006Y-89311204D01*
X111320000Y-89271928D01*
X111320000Y-91186764D01*
X111251880Y-91351220D01*
X111200000Y-91612037D01*
X111200000Y-91877963D01*
X111251880Y-92138780D01*
X111320000Y-92303236D01*
X111320000Y-93726764D01*
X111251880Y-93891220D01*
X111200000Y-94152037D01*
X111200000Y-94417963D01*
X111251880Y-94678780D01*
X111320000Y-94843236D01*
X111320000Y-96266764D01*
X111251880Y-96431220D01*
X111200000Y-96692037D01*
X111200000Y-96957963D01*
X111251880Y-97218780D01*
X111320000Y-97383236D01*
X111320000Y-98806764D01*
X111251880Y-98971220D01*
X111200000Y-99232037D01*
X111200000Y-99497963D01*
X111251880Y-99758780D01*
X111320000Y-99923236D01*
X111320000Y-103886764D01*
X111251880Y-104051220D01*
X111200000Y-104312037D01*
X111200000Y-104577963D01*
X111251880Y-104838780D01*
X111320000Y-105003236D01*
X111320000Y-106426764D01*
X111251880Y-106591220D01*
X111200000Y-106852037D01*
X111200000Y-107117963D01*
X111251880Y-107378780D01*
X111320000Y-107543236D01*
X111320000Y-108000000D01*
X107051084Y-108000000D01*
X107090575Y-107973613D01*
X107278613Y-107785575D01*
X107426354Y-107564465D01*
X107528120Y-107318780D01*
X107580000Y-107057963D01*
X107580000Y-106792037D01*
X107528120Y-106531220D01*
X107426354Y-106285535D01*
X107278613Y-106064425D01*
X107090575Y-105876387D01*
X106869465Y-105728646D01*
X106623780Y-105626880D01*
X106362963Y-105575000D01*
X106097037Y-105575000D01*
X105836220Y-105626880D01*
X105590535Y-105728646D01*
X105369425Y-105876387D01*
X105181387Y-106064425D01*
X105033646Y-106285535D01*
X104931880Y-106531220D01*
X104880000Y-106792037D01*
X104880000Y-107057963D01*
X104931880Y-107318780D01*
X105033646Y-107564465D01*
X105181387Y-107785575D01*
X105369425Y-107973613D01*
X105408916Y-108000000D01*
X101971084Y-108000000D01*
X102010575Y-107973613D01*
X102198613Y-107785575D01*
X102346354Y-107564465D01*
X102448120Y-107318780D01*
X102500000Y-107057963D01*
X102500000Y-106792037D01*
X102448120Y-106531220D01*
X102346354Y-106285535D01*
X102198613Y-106064425D01*
X102010575Y-105876387D01*
X101789465Y-105728646D01*
X101543780Y-105626880D01*
X101282963Y-105575000D01*
X101017037Y-105575000D01*
X100756220Y-105626880D01*
X100510535Y-105728646D01*
X100289425Y-105876387D01*
X100101387Y-106064425D01*
X99953646Y-106285535D01*
X99851880Y-106531220D01*
X99800000Y-106792037D01*
X99800000Y-107057963D01*
X99851880Y-107318780D01*
X99953646Y-107564465D01*
X100101387Y-107785575D01*
X100289425Y-107973613D01*
X100328916Y-108000000D01*
X95980000Y-108000000D01*
X95980000Y-107543236D01*
X96048120Y-107378780D01*
X96100000Y-107117963D01*
X96100000Y-106852037D01*
X96048120Y-106591220D01*
X95980000Y-106426764D01*
X95980000Y-105003236D01*
X96048120Y-104838780D01*
X96100000Y-104577963D01*
X96100000Y-104312037D01*
X96048120Y-104051220D01*
X95980000Y-103886764D01*
X95980000Y-99923236D01*
X96048120Y-99758780D01*
X96100000Y-99497963D01*
X96100000Y-99232037D01*
X96048120Y-98971220D01*
X95980000Y-98806764D01*
X95980000Y-97383236D01*
X96048120Y-97218780D01*
X96100000Y-96957963D01*
X96100000Y-96692037D01*
X96048120Y-96431220D01*
X95980000Y-96266764D01*
X95980000Y-94843236D01*
X96048120Y-94678780D01*
X96100000Y-94417963D01*
X96100000Y-94152037D01*
X96048120Y-93891220D01*
X95980000Y-93726764D01*
X95980000Y-92303236D01*
X96048120Y-92138780D01*
X96100000Y-91877963D01*
X96100000Y-91612037D01*
X96048120Y-91351220D01*
X95980000Y-91186764D01*
X95980000Y-90801484D01*
X103484269Y-90801484D01*
X103484269Y-90959070D01*
X103515012Y-91113628D01*
X103575318Y-91259219D01*
X103662868Y-91390247D01*
X103774299Y-91501678D01*
X103905327Y-91589228D01*
X104050918Y-91649534D01*
X104205476Y-91680277D01*
X104363062Y-91680277D01*
X104517620Y-91649534D01*
X104663211Y-91589228D01*
X104794239Y-91501678D01*
X104905670Y-91390247D01*
X104993220Y-91259219D01*
X105053526Y-91113628D01*
X105084269Y-90959070D01*
X105084269Y-90801484D01*
X105053526Y-90646926D01*
X104993220Y-90501335D01*
X104905670Y-90370307D01*
X104859269Y-90323906D01*
X104859269Y-88737102D01*
X104961401Y-88634970D01*
X105048951Y-88503942D01*
X105109257Y-88358351D01*
X105140000Y-88203793D01*
X105140000Y-88046207D01*
X105109257Y-87891649D01*
X105048951Y-87746058D01*
X104961401Y-87615030D01*
X104849970Y-87503599D01*
X104718942Y-87416049D01*
X104573351Y-87355743D01*
X104418793Y-87325000D01*
X104261207Y-87325000D01*
X104106649Y-87355743D01*
X103961058Y-87416049D01*
X103830030Y-87503599D01*
X103718599Y-87615030D01*
X103631049Y-87746058D01*
X103570743Y-87891649D01*
X103540000Y-88046207D01*
X103540000Y-88203793D01*
X103570743Y-88358351D01*
X103631049Y-88503942D01*
X103709269Y-88621007D01*
X103709270Y-90323905D01*
X103662868Y-90370307D01*
X103575318Y-90501335D01*
X103515012Y-90646926D01*
X103484269Y-90801484D01*
X95980000Y-90801484D01*
X95980000Y-87223236D01*
X96048120Y-87058780D01*
X96100000Y-86797963D01*
X96100000Y-86532037D01*
X96048120Y-86271220D01*
X95980000Y-86106764D01*
X95980000Y-85687267D01*
X95991049Y-85713942D01*
X96078599Y-85844970D01*
X96190030Y-85956401D01*
X96321058Y-86043951D01*
X96466649Y-86104257D01*
X96621207Y-86135000D01*
X96778793Y-86135000D01*
X96933351Y-86104257D01*
X97078942Y-86043951D01*
X97083853Y-86040670D01*
X97107987Y-86098935D01*
X97195537Y-86229963D01*
X97306968Y-86341394D01*
X97437996Y-86428944D01*
X97583587Y-86489250D01*
X97738145Y-86519993D01*
X97895731Y-86519993D01*
X98050289Y-86489250D01*
X98195880Y-86428944D01*
X98326908Y-86341394D01*
X98438339Y-86229963D01*
X98525889Y-86098935D01*
X98545779Y-86050916D01*
X98644277Y-86031324D01*
X98789868Y-85971018D01*
X98920896Y-85883468D01*
X99032327Y-85772037D01*
X99119877Y-85641009D01*
X99180183Y-85495418D01*
X99210926Y-85340860D01*
X99210926Y-85183274D01*
X99198014Y-85118357D01*
X99281401Y-85034970D01*
X99368951Y-84903942D01*
X99429257Y-84758351D01*
X99460000Y-84603793D01*
X99460000Y-84534624D01*
X99483711Y-84505732D01*
X99497608Y-84488799D01*
X99551001Y-84388908D01*
X99562593Y-84350693D01*
X99583880Y-84280520D01*
X99592200Y-84196046D01*
X99592200Y-84196044D01*
X99594982Y-84167801D01*
X99592200Y-84139558D01*
X99592200Y-82799287D01*
X99641099Y-82872470D01*
X99752530Y-82983901D01*
X99883558Y-83071451D01*
X100029149Y-83131757D01*
X100183707Y-83162500D01*
X100341293Y-83162500D01*
X100377135Y-83155371D01*
X100345600Y-83313909D01*
X100345600Y-83510891D01*
X100384029Y-83704089D01*
X100459411Y-83886078D01*
X100568849Y-84049863D01*
X100708137Y-84189151D01*
X100871922Y-84298589D01*
X101053911Y-84373971D01*
X101247109Y-84412400D01*
X101444091Y-84412400D01*
X101637289Y-84373971D01*
X101819278Y-84298589D01*
X101983063Y-84189151D01*
X102122351Y-84049863D01*
X102231789Y-83886078D01*
X102307171Y-83704089D01*
X102345600Y-83510891D01*
X102345600Y-83313909D01*
X102307171Y-83120711D01*
X102231789Y-82938722D01*
X102122351Y-82774937D01*
X101983063Y-82635649D01*
X101819278Y-82526211D01*
X101700400Y-82476970D01*
X101700400Y-82026642D01*
X101703182Y-81998399D01*
X101698635Y-81952233D01*
X101692080Y-81885680D01*
X101659201Y-81777292D01*
X101651858Y-81763554D01*
X101605808Y-81677401D01*
X101551959Y-81611786D01*
X101533954Y-81589846D01*
X101512012Y-81571839D01*
X101057000Y-81116828D01*
X101057000Y-80751456D01*
X102601372Y-80751456D01*
X102601372Y-80889344D01*
X102628273Y-81024582D01*
X102681040Y-81151974D01*
X102726373Y-81219820D01*
X102726372Y-81933128D01*
X102723590Y-81961372D01*
X102726372Y-81989615D01*
X102726372Y-81989617D01*
X102734692Y-82074091D01*
X102751394Y-82129149D01*
X102767571Y-82182479D01*
X102820964Y-82282370D01*
X102845659Y-82312461D01*
X102892818Y-82369926D01*
X102914765Y-82387937D01*
X104035359Y-83508531D01*
X104028600Y-83542509D01*
X104028600Y-83739491D01*
X104067029Y-83932689D01*
X104142411Y-84114678D01*
X104251849Y-84278463D01*
X104391137Y-84417751D01*
X104554922Y-84527189D01*
X104736911Y-84602571D01*
X104930109Y-84641000D01*
X105127091Y-84641000D01*
X105320289Y-84602571D01*
X105502278Y-84527189D01*
X105666063Y-84417751D01*
X105805351Y-84278463D01*
X105914789Y-84114678D01*
X105990171Y-83932689D01*
X106028600Y-83739491D01*
X106028600Y-83542509D01*
X105990171Y-83349311D01*
X105914789Y-83167322D01*
X105805351Y-83003537D01*
X105666063Y-82864249D01*
X105640000Y-82846834D01*
X105640000Y-82303124D01*
X105857115Y-82086010D01*
X105937142Y-82070091D01*
X106064534Y-82017324D01*
X106179184Y-81940718D01*
X106276686Y-81843216D01*
X106353292Y-81728566D01*
X106406059Y-81601174D01*
X106432960Y-81465936D01*
X106432960Y-81328048D01*
X106406059Y-81192810D01*
X106353292Y-81065418D01*
X106276686Y-80950768D01*
X106179184Y-80853266D01*
X106064534Y-80776660D01*
X105937142Y-80723893D01*
X105801904Y-80696992D01*
X105664016Y-80696992D01*
X105528778Y-80723893D01*
X105401386Y-80776660D01*
X105286736Y-80853266D01*
X105189234Y-80950768D01*
X105112628Y-81065418D01*
X105059861Y-81192810D01*
X105043942Y-81272837D01*
X104678389Y-81638391D01*
X104656447Y-81656398D01*
X104638441Y-81678339D01*
X104584592Y-81743954D01*
X104531199Y-81843845D01*
X104498321Y-81952233D01*
X104487218Y-82064952D01*
X104490001Y-82093205D01*
X104490001Y-82336828D01*
X103876372Y-81723200D01*
X103876372Y-81219819D01*
X103921704Y-81151974D01*
X103974471Y-81024582D01*
X104001372Y-80889344D01*
X104001372Y-80751456D01*
X103974471Y-80616218D01*
X103921704Y-80488826D01*
X103845098Y-80374176D01*
X103747596Y-80276674D01*
X103632946Y-80200068D01*
X103505554Y-80147301D01*
X103370316Y-80120400D01*
X103232428Y-80120400D01*
X103097190Y-80147301D01*
X102969798Y-80200068D01*
X102855148Y-80276674D01*
X102757646Y-80374176D01*
X102681040Y-80488826D01*
X102628273Y-80616218D01*
X102601372Y-80751456D01*
X101057000Y-80751456D01*
X101057000Y-79713572D01*
X102096213Y-78674360D01*
X102118154Y-78656354D01*
X102190008Y-78568798D01*
X102243401Y-78468908D01*
X102276280Y-78360520D01*
X102284600Y-78276046D01*
X102284600Y-78276043D01*
X102287382Y-78247800D01*
X102284600Y-78219557D01*
X102284600Y-77183243D01*
X102287382Y-77155000D01*
X102281552Y-77095808D01*
X102276280Y-77042280D01*
X102243401Y-76933892D01*
X102190008Y-76834002D01*
X102118154Y-76746446D01*
X102096212Y-76728439D01*
X101900673Y-76532900D01*
X101939257Y-76439751D01*
X101970000Y-76285193D01*
X101970000Y-76127607D01*
X101939257Y-75973049D01*
X101878951Y-75827458D01*
X101791401Y-75696430D01*
X101679970Y-75584999D01*
X101548942Y-75497449D01*
X101403351Y-75437143D01*
X101248793Y-75406400D01*
X101091207Y-75406400D01*
X100936649Y-75437143D01*
X100791058Y-75497449D01*
X100660030Y-75584999D01*
X100548599Y-75696430D01*
X100461049Y-75827458D01*
X100400743Y-75973049D01*
X100370000Y-76127607D01*
X100370000Y-76285193D01*
X100371823Y-76294358D01*
X100328557Y-76307482D01*
X100217491Y-76366848D01*
X100120141Y-76446741D01*
X100040248Y-76544091D01*
X99980882Y-76655157D01*
X99944325Y-76775670D01*
X99931981Y-76901000D01*
X99931981Y-77181000D01*
X99944325Y-77306330D01*
X99980882Y-77426843D01*
X100031210Y-77521000D01*
X99980882Y-77615157D01*
X99944325Y-77735670D01*
X99931981Y-77861000D01*
X99931981Y-78141000D01*
X99944325Y-78266330D01*
X99980882Y-78386843D01*
X100002618Y-78427509D01*
X99684689Y-78745439D01*
X99662747Y-78763446D01*
X99644741Y-78785387D01*
X99592200Y-78849408D01*
X99592200Y-72350443D01*
X99594982Y-72322200D01*
X99592200Y-72293954D01*
X99583880Y-72209480D01*
X99551001Y-72101092D01*
X99531423Y-72064465D01*
X99497608Y-72001201D01*
X99459982Y-71955353D01*
X99425754Y-71913646D01*
X99403813Y-71895640D01*
X99056069Y-71547896D01*
X101382606Y-71547896D01*
X101386961Y-71592112D01*
X101386960Y-74331297D01*
X101382606Y-74375504D01*
X101389154Y-74441987D01*
X101399983Y-74551934D01*
X101451446Y-74721584D01*
X101535017Y-74877935D01*
X101647485Y-75014979D01*
X101681825Y-75043161D01*
X103423387Y-76784723D01*
X103423386Y-77901099D01*
X103419032Y-77945306D01*
X103423386Y-77989512D01*
X103436409Y-78121736D01*
X103487872Y-78291386D01*
X103571443Y-78447737D01*
X103683911Y-78584781D01*
X103718255Y-78612966D01*
X103758763Y-78653474D01*
X103861468Y-78737762D01*
X104017819Y-78821333D01*
X104187469Y-78872796D01*
X104363899Y-78890173D01*
X104540330Y-78872796D01*
X104709981Y-78821333D01*
X104851055Y-78745927D01*
X104988651Y-78819473D01*
X105158302Y-78870937D01*
X105334732Y-78888314D01*
X105511162Y-78870937D01*
X105680813Y-78819473D01*
X105837163Y-78735903D01*
X105939869Y-78651615D01*
X105978522Y-78612962D01*
X106012861Y-78584781D01*
X106125329Y-78447738D01*
X106208900Y-78291387D01*
X106260363Y-78121737D01*
X106273386Y-77989513D01*
X106273386Y-77989512D01*
X106277740Y-77945307D01*
X106273386Y-77901100D01*
X106273386Y-76021205D01*
X106277740Y-75977001D01*
X106270524Y-75903737D01*
X106260363Y-75800571D01*
X106208900Y-75630921D01*
X106125329Y-75474570D01*
X106012861Y-75337527D01*
X105978521Y-75309345D01*
X104236960Y-73567784D01*
X104236960Y-72355616D01*
X104719336Y-71873240D01*
X104753675Y-71845059D01*
X104866143Y-71708016D01*
X104949714Y-71551665D01*
X105001177Y-71382015D01*
X105014200Y-71249791D01*
X105014200Y-71249782D01*
X105018553Y-71205585D01*
X105014200Y-71161388D01*
X105014200Y-68923992D01*
X105074931Y-68863261D01*
X105109275Y-68835076D01*
X105221743Y-68698033D01*
X105305314Y-68541682D01*
X105356777Y-68372032D01*
X105359836Y-68340978D01*
X105398951Y-68301863D01*
X105508389Y-68138078D01*
X105583771Y-67956089D01*
X105622200Y-67762891D01*
X105622200Y-67565909D01*
X105583771Y-67372711D01*
X105508389Y-67190722D01*
X105398951Y-67026937D01*
X105259663Y-66887649D01*
X105169800Y-66827604D01*
X105169800Y-63126792D01*
X105173055Y-63093745D01*
X105665000Y-63093745D01*
X105665000Y-63256255D01*
X105696704Y-63415644D01*
X105758894Y-63565784D01*
X105849181Y-63700907D01*
X105964093Y-63815819D01*
X106099216Y-63906106D01*
X106249356Y-63968296D01*
X106408745Y-64000000D01*
X106571255Y-64000000D01*
X106730644Y-63968296D01*
X106880784Y-63906106D01*
X107015907Y-63815819D01*
X107130819Y-63700907D01*
X107221106Y-63565784D01*
X107283296Y-63415644D01*
X107315000Y-63256255D01*
X107315000Y-63093745D01*
X107283296Y-62934356D01*
X107221106Y-62784216D01*
X107130819Y-62649093D01*
X107015907Y-62534181D01*
X106880784Y-62443894D01*
X106730644Y-62381704D01*
X106571255Y-62350000D01*
X106408745Y-62350000D01*
X106249356Y-62381704D01*
X106099216Y-62443894D01*
X105964093Y-62534181D01*
X105849181Y-62649093D01*
X105758894Y-62784216D01*
X105696704Y-62934356D01*
X105665000Y-63093745D01*
X105173055Y-63093745D01*
X105173187Y-63092405D01*
X105169800Y-63058016D01*
X105159672Y-62955182D01*
X105119645Y-62823231D01*
X105054645Y-62701625D01*
X104967170Y-62595036D01*
X104940453Y-62573110D01*
X104886528Y-62519185D01*
X104886526Y-62519182D01*
X104789024Y-62421680D01*
X104760290Y-62402481D01*
X104733581Y-62380561D01*
X104703105Y-62364271D01*
X104674374Y-62345074D01*
X104642451Y-62331851D01*
X104611974Y-62315561D01*
X104578905Y-62305530D01*
X104546982Y-62292307D01*
X104513088Y-62285565D01*
X104480023Y-62275535D01*
X104445639Y-62272148D01*
X104411744Y-62265406D01*
X104377187Y-62265406D01*
X104342800Y-62262019D01*
X104308413Y-62265406D01*
X104273856Y-62265406D01*
X104239961Y-62272148D01*
X104205577Y-62275535D01*
X104172512Y-62285565D01*
X104138618Y-62292307D01*
X104106695Y-62305530D01*
X104073626Y-62315561D01*
X104043149Y-62331851D01*
X104011226Y-62345074D01*
X103982495Y-62364271D01*
X103952019Y-62380561D01*
X103940044Y-62390389D01*
X103749408Y-62390389D01*
X103681563Y-62345057D01*
X103554171Y-62292290D01*
X103418933Y-62265389D01*
X103281045Y-62265389D01*
X103145807Y-62292290D01*
X103018415Y-62345057D01*
X102903765Y-62421663D01*
X102806263Y-62519165D01*
X102729657Y-62633815D01*
X102676890Y-62761207D01*
X102675610Y-62767643D01*
X102673902Y-62768161D01*
X102640018Y-62774901D01*
X102608100Y-62788122D01*
X102575025Y-62798155D01*
X102544546Y-62814446D01*
X102512626Y-62827668D01*
X102483896Y-62846865D01*
X102453419Y-62863155D01*
X102426710Y-62885075D01*
X102397976Y-62904274D01*
X102373537Y-62928713D01*
X102346830Y-62950631D01*
X102324913Y-62977337D01*
X102300474Y-63001776D01*
X102281272Y-63030513D01*
X102259355Y-63057220D01*
X102243067Y-63087692D01*
X102223868Y-63116426D01*
X102210645Y-63148350D01*
X102194355Y-63178826D01*
X102184323Y-63211897D01*
X102171101Y-63243818D01*
X102164360Y-63277705D01*
X102154328Y-63310777D01*
X102150941Y-63345168D01*
X102144200Y-63379056D01*
X102144200Y-63413611D01*
X102144201Y-66720304D01*
X102065722Y-66752811D01*
X101901937Y-66862249D01*
X101762649Y-67001537D01*
X101653211Y-67165322D01*
X101577829Y-67347311D01*
X101539400Y-67540509D01*
X101539400Y-67737491D01*
X101577829Y-67930689D01*
X101653211Y-68112678D01*
X101762649Y-68276463D01*
X101901937Y-68415751D01*
X102065722Y-68525189D01*
X102164201Y-68565980D01*
X102164200Y-70397864D01*
X101681821Y-70880243D01*
X101647486Y-70908421D01*
X101619308Y-70942756D01*
X101619305Y-70942759D01*
X101535017Y-71045465D01*
X101451447Y-71201815D01*
X101399983Y-71371466D01*
X101382606Y-71547896D01*
X99056069Y-71547896D01*
X96060219Y-68552047D01*
X96048120Y-68491220D01*
X95980000Y-68326764D01*
X95980000Y-66903236D01*
X96048120Y-66738780D01*
X96100000Y-66477963D01*
X96100000Y-66212037D01*
X96048120Y-65951220D01*
X95980000Y-65786764D01*
X95980000Y-63093745D01*
X99885000Y-63093745D01*
X99885000Y-63256255D01*
X99916704Y-63415644D01*
X99978894Y-63565784D01*
X100069181Y-63700907D01*
X100184093Y-63815819D01*
X100319216Y-63906106D01*
X100469356Y-63968296D01*
X100628745Y-64000000D01*
X100791255Y-64000000D01*
X100950644Y-63968296D01*
X101100784Y-63906106D01*
X101235907Y-63815819D01*
X101350819Y-63700907D01*
X101441106Y-63565784D01*
X101503296Y-63415644D01*
X101535000Y-63256255D01*
X101535000Y-63093745D01*
X101503296Y-62934356D01*
X101441106Y-62784216D01*
X101350819Y-62649093D01*
X101235907Y-62534181D01*
X101100784Y-62443894D01*
X100950644Y-62381704D01*
X100791255Y-62350000D01*
X100628745Y-62350000D01*
X100469356Y-62381704D01*
X100319216Y-62443894D01*
X100184093Y-62534181D01*
X100069181Y-62649093D01*
X99978894Y-62784216D01*
X99916704Y-62934356D01*
X99885000Y-63093745D01*
X95980000Y-63093745D01*
X95980000Y-61823236D01*
X96048120Y-61658780D01*
X96100000Y-61397963D01*
X96100000Y-61132037D01*
X96048120Y-60871220D01*
X95980000Y-60706764D01*
X95980000Y-59283236D01*
X96048120Y-59118780D01*
X96100000Y-58857963D01*
X96100000Y-58592037D01*
X96048120Y-58331220D01*
X95980000Y-58166764D01*
X95980000Y-57750000D01*
X111215420Y-57750000D01*
X111207235Y-57776983D01*
G04 #@! TA.AperFunction,Conductor*
D27*
G36*
X111207235Y-57776983D02*
G01*
X111197581Y-57875000D01*
X111197581Y-59575000D01*
X111207235Y-59673017D01*
X111235825Y-59767267D01*
X111282254Y-59854129D01*
X111320000Y-59900123D01*
X111320000Y-60706764D01*
X111251880Y-60871220D01*
X111200000Y-61132037D01*
X111200000Y-61397963D01*
X111251880Y-61658780D01*
X111320000Y-61823236D01*
X111320000Y-65695000D01*
X110971880Y-65695000D01*
X110939959Y-65691856D01*
X110908038Y-65695000D01*
X110908028Y-65695000D01*
X110812538Y-65704405D01*
X110690012Y-65741573D01*
X110577092Y-65801930D01*
X110577090Y-65801931D01*
X110577091Y-65801931D01*
X110502919Y-65862802D01*
X110502917Y-65862804D01*
X110478117Y-65883157D01*
X110457764Y-65907957D01*
X109527722Y-66838000D01*
X107997508Y-66838000D01*
X107941742Y-66814901D01*
X107806504Y-66788000D01*
X107668616Y-66788000D01*
X107533378Y-66814901D01*
X107405986Y-66867668D01*
X107291336Y-66944274D01*
X107193834Y-67041776D01*
X107117228Y-67156426D01*
X107064461Y-67283818D01*
X107037560Y-67419056D01*
X107037560Y-67556944D01*
X107064461Y-67692182D01*
X107117228Y-67819574D01*
X107193834Y-67934224D01*
X107291336Y-68031726D01*
X107405986Y-68108332D01*
X107533378Y-68161099D01*
X107668616Y-68188000D01*
X107806504Y-68188000D01*
X107941742Y-68161099D01*
X107997508Y-68138000D01*
X109765039Y-68138000D01*
X109796960Y-68141144D01*
X109828881Y-68138000D01*
X109828892Y-68138000D01*
X109924382Y-68128595D01*
X110046908Y-68091427D01*
X110159828Y-68031070D01*
X110258803Y-67949843D01*
X110279160Y-67925038D01*
X111209199Y-66995000D01*
X111320000Y-66995000D01*
X111320000Y-68326764D01*
X111251880Y-68491220D01*
X111200000Y-68752037D01*
X111200000Y-68962207D01*
X108589067Y-71573141D01*
X108554727Y-71601323D01*
X108442259Y-71738367D01*
X108358688Y-71894718D01*
X108326386Y-72001203D01*
X108307225Y-72064368D01*
X108289848Y-72240798D01*
X108294202Y-72285005D01*
X108294203Y-73728407D01*
X108307226Y-73860631D01*
X108358689Y-74030281D01*
X108442260Y-74186632D01*
X108554728Y-74323675D01*
X108691771Y-74436143D01*
X108848122Y-74519714D01*
X109017772Y-74571177D01*
X109194202Y-74588554D01*
X109370633Y-74571177D01*
X109540283Y-74519714D01*
X109696634Y-74436143D01*
X109833677Y-74323675D01*
X109946145Y-74186632D01*
X110029716Y-74030281D01*
X110081179Y-73860631D01*
X110094202Y-73728407D01*
X110094202Y-72613590D01*
X111200000Y-71507792D01*
X111200000Y-71557963D01*
X111251880Y-71818780D01*
X111278582Y-71883245D01*
X110746389Y-72415439D01*
X110724447Y-72433446D01*
X110706441Y-72455387D01*
X110652592Y-72521002D01*
X110599199Y-72620893D01*
X110566321Y-72729281D01*
X110555218Y-72842000D01*
X110558001Y-72870253D01*
X110558000Y-73828427D01*
X109984389Y-74402039D01*
X109962447Y-74420046D01*
X109944441Y-74441987D01*
X109890592Y-74507602D01*
X109837199Y-74607493D01*
X109818082Y-74670516D01*
X109811408Y-74692519D01*
X109804321Y-74715881D01*
X109793218Y-74828600D01*
X109796001Y-74856853D01*
X109796000Y-77218629D01*
X109749599Y-77265030D01*
X109662049Y-77396058D01*
X109601743Y-77541649D01*
X109571000Y-77696207D01*
X109571000Y-77853793D01*
X109601743Y-78008351D01*
X109662049Y-78153942D01*
X109749599Y-78284970D01*
X109861030Y-78396401D01*
X109992058Y-78483951D01*
X110137649Y-78544257D01*
X110292207Y-78575000D01*
X110449793Y-78575000D01*
X110604351Y-78544257D01*
X110749942Y-78483951D01*
X110880970Y-78396401D01*
X110992401Y-78284970D01*
X111079951Y-78153942D01*
X111140257Y-78008351D01*
X111171000Y-77853793D01*
X111171000Y-77696207D01*
X111140257Y-77541649D01*
X111079951Y-77396058D01*
X110992401Y-77265030D01*
X110946000Y-77218629D01*
X110946000Y-75066772D01*
X111320000Y-74692772D01*
X111320000Y-78486764D01*
X111251880Y-78651220D01*
X111200000Y-78912037D01*
X111200000Y-79177963D01*
X111251880Y-79438780D01*
X111320000Y-79603236D01*
X111320000Y-81026764D01*
X111251880Y-81191220D01*
X111200000Y-81452037D01*
X111200000Y-81717963D01*
X111251880Y-81978780D01*
X111320000Y-82143236D01*
X111320000Y-83566764D01*
X111251880Y-83731220D01*
X111219916Y-83891911D01*
X110966589Y-84145239D01*
X110944647Y-84163246D01*
X110926641Y-84185187D01*
X110872792Y-84250802D01*
X110845008Y-84302782D01*
X110819399Y-84350692D01*
X110786520Y-84459080D01*
X110778200Y-84543554D01*
X110775418Y-84571800D01*
X110778200Y-84600043D01*
X110778200Y-85036627D01*
X110413389Y-85401439D01*
X110391447Y-85419446D01*
X110373441Y-85441387D01*
X110319592Y-85507002D01*
X110266199Y-85606893D01*
X110233321Y-85715281D01*
X110222218Y-85828000D01*
X110225001Y-85856253D01*
X110225000Y-88786827D01*
X107586828Y-91425000D01*
X107521207Y-91425000D01*
X107366649Y-91455743D01*
X107221058Y-91516049D01*
X107090030Y-91603599D01*
X106978599Y-91715030D01*
X106891049Y-91846058D01*
X106830743Y-91991649D01*
X106800000Y-92146207D01*
X106800000Y-92303793D01*
X106830743Y-92458351D01*
X106891049Y-92603942D01*
X106978599Y-92734970D01*
X107090030Y-92846401D01*
X107221058Y-92933951D01*
X107366649Y-92994257D01*
X107521207Y-93025000D01*
X107678793Y-93025000D01*
X107833351Y-92994257D01*
X107978942Y-92933951D01*
X108109970Y-92846401D01*
X108221401Y-92734970D01*
X108308951Y-92603942D01*
X108369257Y-92458351D01*
X108400000Y-92303793D01*
X108400000Y-92238172D01*
X111186613Y-89451560D01*
X111208554Y-89433554D01*
X111242782Y-89391847D01*
X111280408Y-89345999D01*
X111299006Y-89311204D01*
X111320000Y-89271928D01*
X111320000Y-91186764D01*
X111251880Y-91351220D01*
X111200000Y-91612037D01*
X111200000Y-91877963D01*
X111251880Y-92138780D01*
X111320000Y-92303236D01*
X111320000Y-93726764D01*
X111251880Y-93891220D01*
X111200000Y-94152037D01*
X111200000Y-94417963D01*
X111251880Y-94678780D01*
X111320000Y-94843236D01*
X111320000Y-96266764D01*
X111251880Y-96431220D01*
X111200000Y-96692037D01*
X111200000Y-96957963D01*
X111251880Y-97218780D01*
X111320000Y-97383236D01*
X111320000Y-98806764D01*
X111251880Y-98971220D01*
X111200000Y-99232037D01*
X111200000Y-99497963D01*
X111251880Y-99758780D01*
X111320000Y-99923236D01*
X111320000Y-103886764D01*
X111251880Y-104051220D01*
X111200000Y-104312037D01*
X111200000Y-104577963D01*
X111251880Y-104838780D01*
X111320000Y-105003236D01*
X111320000Y-106426764D01*
X111251880Y-106591220D01*
X111200000Y-106852037D01*
X111200000Y-107117963D01*
X111251880Y-107378780D01*
X111320000Y-107543236D01*
X111320000Y-108000000D01*
X107051084Y-108000000D01*
X107090575Y-107973613D01*
X107278613Y-107785575D01*
X107426354Y-107564465D01*
X107528120Y-107318780D01*
X107580000Y-107057963D01*
X107580000Y-106792037D01*
X107528120Y-106531220D01*
X107426354Y-106285535D01*
X107278613Y-106064425D01*
X107090575Y-105876387D01*
X106869465Y-105728646D01*
X106623780Y-105626880D01*
X106362963Y-105575000D01*
X106097037Y-105575000D01*
X105836220Y-105626880D01*
X105590535Y-105728646D01*
X105369425Y-105876387D01*
X105181387Y-106064425D01*
X105033646Y-106285535D01*
X104931880Y-106531220D01*
X104880000Y-106792037D01*
X104880000Y-107057963D01*
X104931880Y-107318780D01*
X105033646Y-107564465D01*
X105181387Y-107785575D01*
X105369425Y-107973613D01*
X105408916Y-108000000D01*
X101971084Y-108000000D01*
X102010575Y-107973613D01*
X102198613Y-107785575D01*
X102346354Y-107564465D01*
X102448120Y-107318780D01*
X102500000Y-107057963D01*
X102500000Y-106792037D01*
X102448120Y-106531220D01*
X102346354Y-106285535D01*
X102198613Y-106064425D01*
X102010575Y-105876387D01*
X101789465Y-105728646D01*
X101543780Y-105626880D01*
X101282963Y-105575000D01*
X101017037Y-105575000D01*
X100756220Y-105626880D01*
X100510535Y-105728646D01*
X100289425Y-105876387D01*
X100101387Y-106064425D01*
X99953646Y-106285535D01*
X99851880Y-106531220D01*
X99800000Y-106792037D01*
X99800000Y-107057963D01*
X99851880Y-107318780D01*
X99953646Y-107564465D01*
X100101387Y-107785575D01*
X100289425Y-107973613D01*
X100328916Y-108000000D01*
X95980000Y-108000000D01*
X95980000Y-107543236D01*
X96048120Y-107378780D01*
X96100000Y-107117963D01*
X96100000Y-106852037D01*
X96048120Y-106591220D01*
X95980000Y-106426764D01*
X95980000Y-105003236D01*
X96048120Y-104838780D01*
X96100000Y-104577963D01*
X96100000Y-104312037D01*
X96048120Y-104051220D01*
X95980000Y-103886764D01*
X95980000Y-99923236D01*
X96048120Y-99758780D01*
X96100000Y-99497963D01*
X96100000Y-99232037D01*
X96048120Y-98971220D01*
X95980000Y-98806764D01*
X95980000Y-97383236D01*
X96048120Y-97218780D01*
X96100000Y-96957963D01*
X96100000Y-96692037D01*
X96048120Y-96431220D01*
X95980000Y-96266764D01*
X95980000Y-94843236D01*
X96048120Y-94678780D01*
X96100000Y-94417963D01*
X96100000Y-94152037D01*
X96048120Y-93891220D01*
X95980000Y-93726764D01*
X95980000Y-92303236D01*
X96048120Y-92138780D01*
X96100000Y-91877963D01*
X96100000Y-91612037D01*
X96048120Y-91351220D01*
X95980000Y-91186764D01*
X95980000Y-90801484D01*
X103484269Y-90801484D01*
X103484269Y-90959070D01*
X103515012Y-91113628D01*
X103575318Y-91259219D01*
X103662868Y-91390247D01*
X103774299Y-91501678D01*
X103905327Y-91589228D01*
X104050918Y-91649534D01*
X104205476Y-91680277D01*
X104363062Y-91680277D01*
X104517620Y-91649534D01*
X104663211Y-91589228D01*
X104794239Y-91501678D01*
X104905670Y-91390247D01*
X104993220Y-91259219D01*
X105053526Y-91113628D01*
X105084269Y-90959070D01*
X105084269Y-90801484D01*
X105053526Y-90646926D01*
X104993220Y-90501335D01*
X104905670Y-90370307D01*
X104859269Y-90323906D01*
X104859269Y-88737102D01*
X104961401Y-88634970D01*
X105048951Y-88503942D01*
X105109257Y-88358351D01*
X105140000Y-88203793D01*
X105140000Y-88046207D01*
X105109257Y-87891649D01*
X105048951Y-87746058D01*
X104961401Y-87615030D01*
X104849970Y-87503599D01*
X104718942Y-87416049D01*
X104573351Y-87355743D01*
X104418793Y-87325000D01*
X104261207Y-87325000D01*
X104106649Y-87355743D01*
X103961058Y-87416049D01*
X103830030Y-87503599D01*
X103718599Y-87615030D01*
X103631049Y-87746058D01*
X103570743Y-87891649D01*
X103540000Y-88046207D01*
X103540000Y-88203793D01*
X103570743Y-88358351D01*
X103631049Y-88503942D01*
X103709269Y-88621007D01*
X103709270Y-90323905D01*
X103662868Y-90370307D01*
X103575318Y-90501335D01*
X103515012Y-90646926D01*
X103484269Y-90801484D01*
X95980000Y-90801484D01*
X95980000Y-87223236D01*
X96048120Y-87058780D01*
X96100000Y-86797963D01*
X96100000Y-86532037D01*
X96048120Y-86271220D01*
X95980000Y-86106764D01*
X95980000Y-85687267D01*
X95991049Y-85713942D01*
X96078599Y-85844970D01*
X96190030Y-85956401D01*
X96321058Y-86043951D01*
X96466649Y-86104257D01*
X96621207Y-86135000D01*
X96778793Y-86135000D01*
X96933351Y-86104257D01*
X97078942Y-86043951D01*
X97083853Y-86040670D01*
X97107987Y-86098935D01*
X97195537Y-86229963D01*
X97306968Y-86341394D01*
X97437996Y-86428944D01*
X97583587Y-86489250D01*
X97738145Y-86519993D01*
X97895731Y-86519993D01*
X98050289Y-86489250D01*
X98195880Y-86428944D01*
X98326908Y-86341394D01*
X98438339Y-86229963D01*
X98525889Y-86098935D01*
X98545779Y-86050916D01*
X98644277Y-86031324D01*
X98789868Y-85971018D01*
X98920896Y-85883468D01*
X99032327Y-85772037D01*
X99119877Y-85641009D01*
X99180183Y-85495418D01*
X99210926Y-85340860D01*
X99210926Y-85183274D01*
X99198014Y-85118357D01*
X99281401Y-85034970D01*
X99368951Y-84903942D01*
X99429257Y-84758351D01*
X99460000Y-84603793D01*
X99460000Y-84534624D01*
X99483711Y-84505732D01*
X99497608Y-84488799D01*
X99551001Y-84388908D01*
X99562593Y-84350693D01*
X99583880Y-84280520D01*
X99592200Y-84196046D01*
X99592200Y-84196044D01*
X99594982Y-84167801D01*
X99592200Y-84139558D01*
X99592200Y-82799287D01*
X99641099Y-82872470D01*
X99752530Y-82983901D01*
X99883558Y-83071451D01*
X100029149Y-83131757D01*
X100183707Y-83162500D01*
X100341293Y-83162500D01*
X100377135Y-83155371D01*
X100345600Y-83313909D01*
X100345600Y-83510891D01*
X100384029Y-83704089D01*
X100459411Y-83886078D01*
X100568849Y-84049863D01*
X100708137Y-84189151D01*
X100871922Y-84298589D01*
X101053911Y-84373971D01*
X101247109Y-84412400D01*
X101444091Y-84412400D01*
X101637289Y-84373971D01*
X101819278Y-84298589D01*
X101983063Y-84189151D01*
X102122351Y-84049863D01*
X102231789Y-83886078D01*
X102307171Y-83704089D01*
X102345600Y-83510891D01*
X102345600Y-83313909D01*
X102307171Y-83120711D01*
X102231789Y-82938722D01*
X102122351Y-82774937D01*
X101983063Y-82635649D01*
X101819278Y-82526211D01*
X101700400Y-82476970D01*
X101700400Y-82026642D01*
X101703182Y-81998399D01*
X101698635Y-81952233D01*
X101692080Y-81885680D01*
X101659201Y-81777292D01*
X101651858Y-81763554D01*
X101605808Y-81677401D01*
X101551959Y-81611786D01*
X101533954Y-81589846D01*
X101512012Y-81571839D01*
X101057000Y-81116828D01*
X101057000Y-80751456D01*
X102601372Y-80751456D01*
X102601372Y-80889344D01*
X102628273Y-81024582D01*
X102681040Y-81151974D01*
X102726373Y-81219820D01*
X102726372Y-81933128D01*
X102723590Y-81961372D01*
X102726372Y-81989615D01*
X102726372Y-81989617D01*
X102734692Y-82074091D01*
X102751394Y-82129149D01*
X102767571Y-82182479D01*
X102820964Y-82282370D01*
X102845659Y-82312461D01*
X102892818Y-82369926D01*
X102914765Y-82387937D01*
X104035359Y-83508531D01*
X104028600Y-83542509D01*
X104028600Y-83739491D01*
X104067029Y-83932689D01*
X104142411Y-84114678D01*
X104251849Y-84278463D01*
X104391137Y-84417751D01*
X104554922Y-84527189D01*
X104736911Y-84602571D01*
X104930109Y-84641000D01*
X105127091Y-84641000D01*
X105320289Y-84602571D01*
X105502278Y-84527189D01*
X105666063Y-84417751D01*
X105805351Y-84278463D01*
X105914789Y-84114678D01*
X105990171Y-83932689D01*
X106028600Y-83739491D01*
X106028600Y-83542509D01*
X105990171Y-83349311D01*
X105914789Y-83167322D01*
X105805351Y-83003537D01*
X105666063Y-82864249D01*
X105640000Y-82846834D01*
X105640000Y-82303124D01*
X105857115Y-82086010D01*
X105937142Y-82070091D01*
X106064534Y-82017324D01*
X106179184Y-81940718D01*
X106276686Y-81843216D01*
X106353292Y-81728566D01*
X106406059Y-81601174D01*
X106432960Y-81465936D01*
X106432960Y-81328048D01*
X106406059Y-81192810D01*
X106353292Y-81065418D01*
X106276686Y-80950768D01*
X106179184Y-80853266D01*
X106064534Y-80776660D01*
X105937142Y-80723893D01*
X105801904Y-80696992D01*
X105664016Y-80696992D01*
X105528778Y-80723893D01*
X105401386Y-80776660D01*
X105286736Y-80853266D01*
X105189234Y-80950768D01*
X105112628Y-81065418D01*
X105059861Y-81192810D01*
X105043942Y-81272837D01*
X104678389Y-81638391D01*
X104656447Y-81656398D01*
X104638441Y-81678339D01*
X104584592Y-81743954D01*
X104531199Y-81843845D01*
X104498321Y-81952233D01*
X104487218Y-82064952D01*
X104490001Y-82093205D01*
X104490001Y-82336828D01*
X103876372Y-81723200D01*
X103876372Y-81219819D01*
X103921704Y-81151974D01*
X103974471Y-81024582D01*
X104001372Y-80889344D01*
X104001372Y-80751456D01*
X103974471Y-80616218D01*
X103921704Y-80488826D01*
X103845098Y-80374176D01*
X103747596Y-80276674D01*
X103632946Y-80200068D01*
X103505554Y-80147301D01*
X103370316Y-80120400D01*
X103232428Y-80120400D01*
X103097190Y-80147301D01*
X102969798Y-80200068D01*
X102855148Y-80276674D01*
X102757646Y-80374176D01*
X102681040Y-80488826D01*
X102628273Y-80616218D01*
X102601372Y-80751456D01*
X101057000Y-80751456D01*
X101057000Y-79713572D01*
X102096213Y-78674360D01*
X102118154Y-78656354D01*
X102190008Y-78568798D01*
X102243401Y-78468908D01*
X102276280Y-78360520D01*
X102284600Y-78276046D01*
X102284600Y-78276043D01*
X102287382Y-78247800D01*
X102284600Y-78219557D01*
X102284600Y-77183243D01*
X102287382Y-77155000D01*
X102281552Y-77095808D01*
X102276280Y-77042280D01*
X102243401Y-76933892D01*
X102190008Y-76834002D01*
X102118154Y-76746446D01*
X102096212Y-76728439D01*
X101900673Y-76532900D01*
X101939257Y-76439751D01*
X101970000Y-76285193D01*
X101970000Y-76127607D01*
X101939257Y-75973049D01*
X101878951Y-75827458D01*
X101791401Y-75696430D01*
X101679970Y-75584999D01*
X101548942Y-75497449D01*
X101403351Y-75437143D01*
X101248793Y-75406400D01*
X101091207Y-75406400D01*
X100936649Y-75437143D01*
X100791058Y-75497449D01*
X100660030Y-75584999D01*
X100548599Y-75696430D01*
X100461049Y-75827458D01*
X100400743Y-75973049D01*
X100370000Y-76127607D01*
X100370000Y-76285193D01*
X100371823Y-76294358D01*
X100328557Y-76307482D01*
X100217491Y-76366848D01*
X100120141Y-76446741D01*
X100040248Y-76544091D01*
X99980882Y-76655157D01*
X99944325Y-76775670D01*
X99931981Y-76901000D01*
X99931981Y-77181000D01*
X99944325Y-77306330D01*
X99980882Y-77426843D01*
X100031210Y-77521000D01*
X99980882Y-77615157D01*
X99944325Y-77735670D01*
X99931981Y-77861000D01*
X99931981Y-78141000D01*
X99944325Y-78266330D01*
X99980882Y-78386843D01*
X100002618Y-78427509D01*
X99684689Y-78745439D01*
X99662747Y-78763446D01*
X99644741Y-78785387D01*
X99592200Y-78849408D01*
X99592200Y-72350443D01*
X99594982Y-72322200D01*
X99592200Y-72293954D01*
X99583880Y-72209480D01*
X99551001Y-72101092D01*
X99531423Y-72064465D01*
X99497608Y-72001201D01*
X99459982Y-71955353D01*
X99425754Y-71913646D01*
X99403813Y-71895640D01*
X99056069Y-71547896D01*
X101382606Y-71547896D01*
X101386961Y-71592112D01*
X101386960Y-74331297D01*
X101382606Y-74375504D01*
X101389154Y-74441987D01*
X101399983Y-74551934D01*
X101451446Y-74721584D01*
X101535017Y-74877935D01*
X101647485Y-75014979D01*
X101681825Y-75043161D01*
X103423387Y-76784723D01*
X103423386Y-77901099D01*
X103419032Y-77945306D01*
X103423386Y-77989512D01*
X103436409Y-78121736D01*
X103487872Y-78291386D01*
X103571443Y-78447737D01*
X103683911Y-78584781D01*
X103718255Y-78612966D01*
X103758763Y-78653474D01*
X103861468Y-78737762D01*
X104017819Y-78821333D01*
X104187469Y-78872796D01*
X104363899Y-78890173D01*
X104540330Y-78872796D01*
X104709981Y-78821333D01*
X104851055Y-78745927D01*
X104988651Y-78819473D01*
X105158302Y-78870937D01*
X105334732Y-78888314D01*
X105511162Y-78870937D01*
X105680813Y-78819473D01*
X105837163Y-78735903D01*
X105939869Y-78651615D01*
X105978522Y-78612962D01*
X106012861Y-78584781D01*
X106125329Y-78447738D01*
X106208900Y-78291387D01*
X106260363Y-78121737D01*
X106273386Y-77989513D01*
X106273386Y-77989512D01*
X106277740Y-77945307D01*
X106273386Y-77901100D01*
X106273386Y-76021205D01*
X106277740Y-75977001D01*
X106270524Y-75903737D01*
X106260363Y-75800571D01*
X106208900Y-75630921D01*
X106125329Y-75474570D01*
X106012861Y-75337527D01*
X105978521Y-75309345D01*
X104236960Y-73567784D01*
X104236960Y-72355616D01*
X104719336Y-71873240D01*
X104753675Y-71845059D01*
X104866143Y-71708016D01*
X104949714Y-71551665D01*
X105001177Y-71382015D01*
X105014200Y-71249791D01*
X105014200Y-71249782D01*
X105018553Y-71205585D01*
X105014200Y-71161388D01*
X105014200Y-68923992D01*
X105074931Y-68863261D01*
X105109275Y-68835076D01*
X105221743Y-68698033D01*
X105305314Y-68541682D01*
X105356777Y-68372032D01*
X105359836Y-68340978D01*
X105398951Y-68301863D01*
X105508389Y-68138078D01*
X105583771Y-67956089D01*
X105622200Y-67762891D01*
X105622200Y-67565909D01*
X105583771Y-67372711D01*
X105508389Y-67190722D01*
X105398951Y-67026937D01*
X105259663Y-66887649D01*
X105169800Y-66827604D01*
X105169800Y-63126792D01*
X105173055Y-63093745D01*
X105665000Y-63093745D01*
X105665000Y-63256255D01*
X105696704Y-63415644D01*
X105758894Y-63565784D01*
X105849181Y-63700907D01*
X105964093Y-63815819D01*
X106099216Y-63906106D01*
X106249356Y-63968296D01*
X106408745Y-64000000D01*
X106571255Y-64000000D01*
X106730644Y-63968296D01*
X106880784Y-63906106D01*
X107015907Y-63815819D01*
X107130819Y-63700907D01*
X107221106Y-63565784D01*
X107283296Y-63415644D01*
X107315000Y-63256255D01*
X107315000Y-63093745D01*
X107283296Y-62934356D01*
X107221106Y-62784216D01*
X107130819Y-62649093D01*
X107015907Y-62534181D01*
X106880784Y-62443894D01*
X106730644Y-62381704D01*
X106571255Y-62350000D01*
X106408745Y-62350000D01*
X106249356Y-62381704D01*
X106099216Y-62443894D01*
X105964093Y-62534181D01*
X105849181Y-62649093D01*
X105758894Y-62784216D01*
X105696704Y-62934356D01*
X105665000Y-63093745D01*
X105173055Y-63093745D01*
X105173187Y-63092405D01*
X105169800Y-63058016D01*
X105159672Y-62955182D01*
X105119645Y-62823231D01*
X105054645Y-62701625D01*
X104967170Y-62595036D01*
X104940453Y-62573110D01*
X104886528Y-62519185D01*
X104886526Y-62519182D01*
X104789024Y-62421680D01*
X104760290Y-62402481D01*
X104733581Y-62380561D01*
X104703105Y-62364271D01*
X104674374Y-62345074D01*
X104642451Y-62331851D01*
X104611974Y-62315561D01*
X104578905Y-62305530D01*
X104546982Y-62292307D01*
X104513088Y-62285565D01*
X104480023Y-62275535D01*
X104445639Y-62272148D01*
X104411744Y-62265406D01*
X104377187Y-62265406D01*
X104342800Y-62262019D01*
X104308413Y-62265406D01*
X104273856Y-62265406D01*
X104239961Y-62272148D01*
X104205577Y-62275535D01*
X104172512Y-62285565D01*
X104138618Y-62292307D01*
X104106695Y-62305530D01*
X104073626Y-62315561D01*
X104043149Y-62331851D01*
X104011226Y-62345074D01*
X103982495Y-62364271D01*
X103952019Y-62380561D01*
X103940044Y-62390389D01*
X103749408Y-62390389D01*
X103681563Y-62345057D01*
X103554171Y-62292290D01*
X103418933Y-62265389D01*
X103281045Y-62265389D01*
X103145807Y-62292290D01*
X103018415Y-62345057D01*
X102903765Y-62421663D01*
X102806263Y-62519165D01*
X102729657Y-62633815D01*
X102676890Y-62761207D01*
X102675610Y-62767643D01*
X102673902Y-62768161D01*
X102640018Y-62774901D01*
X102608100Y-62788122D01*
X102575025Y-62798155D01*
X102544546Y-62814446D01*
X102512626Y-62827668D01*
X102483896Y-62846865D01*
X102453419Y-62863155D01*
X102426710Y-62885075D01*
X102397976Y-62904274D01*
X102373537Y-62928713D01*
X102346830Y-62950631D01*
X102324913Y-62977337D01*
X102300474Y-63001776D01*
X102281272Y-63030513D01*
X102259355Y-63057220D01*
X102243067Y-63087692D01*
X102223868Y-63116426D01*
X102210645Y-63148350D01*
X102194355Y-63178826D01*
X102184323Y-63211897D01*
X102171101Y-63243818D01*
X102164360Y-63277705D01*
X102154328Y-63310777D01*
X102150941Y-63345168D01*
X102144200Y-63379056D01*
X102144200Y-63413611D01*
X102144201Y-66720304D01*
X102065722Y-66752811D01*
X101901937Y-66862249D01*
X101762649Y-67001537D01*
X101653211Y-67165322D01*
X101577829Y-67347311D01*
X101539400Y-67540509D01*
X101539400Y-67737491D01*
X101577829Y-67930689D01*
X101653211Y-68112678D01*
X101762649Y-68276463D01*
X101901937Y-68415751D01*
X102065722Y-68525189D01*
X102164201Y-68565980D01*
X102164200Y-70397864D01*
X101681821Y-70880243D01*
X101647486Y-70908421D01*
X101619308Y-70942756D01*
X101619305Y-70942759D01*
X101535017Y-71045465D01*
X101451447Y-71201815D01*
X101399983Y-71371466D01*
X101382606Y-71547896D01*
X99056069Y-71547896D01*
X96060219Y-68552047D01*
X96048120Y-68491220D01*
X95980000Y-68326764D01*
X95980000Y-66903236D01*
X96048120Y-66738780D01*
X96100000Y-66477963D01*
X96100000Y-66212037D01*
X96048120Y-65951220D01*
X95980000Y-65786764D01*
X95980000Y-63093745D01*
X99885000Y-63093745D01*
X99885000Y-63256255D01*
X99916704Y-63415644D01*
X99978894Y-63565784D01*
X100069181Y-63700907D01*
X100184093Y-63815819D01*
X100319216Y-63906106D01*
X100469356Y-63968296D01*
X100628745Y-64000000D01*
X100791255Y-64000000D01*
X100950644Y-63968296D01*
X101100784Y-63906106D01*
X101235907Y-63815819D01*
X101350819Y-63700907D01*
X101441106Y-63565784D01*
X101503296Y-63415644D01*
X101535000Y-63256255D01*
X101535000Y-63093745D01*
X101503296Y-62934356D01*
X101441106Y-62784216D01*
X101350819Y-62649093D01*
X101235907Y-62534181D01*
X101100784Y-62443894D01*
X100950644Y-62381704D01*
X100791255Y-62350000D01*
X100628745Y-62350000D01*
X100469356Y-62381704D01*
X100319216Y-62443894D01*
X100184093Y-62534181D01*
X100069181Y-62649093D01*
X99978894Y-62784216D01*
X99916704Y-62934356D01*
X99885000Y-63093745D01*
X95980000Y-63093745D01*
X95980000Y-61823236D01*
X96048120Y-61658780D01*
X96100000Y-61397963D01*
X96100000Y-61132037D01*
X96048120Y-60871220D01*
X95980000Y-60706764D01*
X95980000Y-59283236D01*
X96048120Y-59118780D01*
X96100000Y-58857963D01*
X96100000Y-58592037D01*
X96048120Y-58331220D01*
X95980000Y-58166764D01*
X95980000Y-57750000D01*
X111215420Y-57750000D01*
X111207235Y-57776983D01*
G37*
G04 #@! TD.AperFunction*
D26*
X103645813Y-64119294D02*
X103769801Y-64143957D01*
X103769800Y-67073276D01*
X103717858Y-67136568D01*
X103634286Y-67292919D01*
X103624703Y-67324511D01*
X103544200Y-67244008D01*
X103544200Y-64077205D01*
X103645813Y-64119294D01*
G04 #@! TA.AperFunction,Conductor*
D27*
G36*
X103645813Y-64119294D02*
G01*
X103769801Y-64143957D01*
X103769800Y-67073276D01*
X103717858Y-67136568D01*
X103634286Y-67292919D01*
X103624703Y-67324511D01*
X103544200Y-67244008D01*
X103544200Y-64077205D01*
X103645813Y-64119294D01*
G37*
G04 #@! TD.AperFunction*
D26*
X96125000Y-80313173D02*
X96125001Y-84778628D01*
X96078599Y-84825030D01*
X95991049Y-84956058D01*
X95980000Y-84982733D01*
X95980000Y-84683236D01*
X96048120Y-84518780D01*
X96100000Y-84257963D01*
X96100000Y-83992037D01*
X96048120Y-83731220D01*
X95980000Y-83566764D01*
X95980000Y-82143236D01*
X96048120Y-81978780D01*
X96100000Y-81717963D01*
X96100000Y-81452037D01*
X96048120Y-81191220D01*
X95980000Y-81026764D01*
X95980000Y-80168173D01*
X96125000Y-80313173D01*
G04 #@! TA.AperFunction,Conductor*
D27*
G36*
X96125000Y-80313173D02*
G01*
X96125001Y-84778628D01*
X96078599Y-84825030D01*
X95991049Y-84956058D01*
X95980000Y-84982733D01*
X95980000Y-84683236D01*
X96048120Y-84518780D01*
X96100000Y-84257963D01*
X96100000Y-83992037D01*
X96048120Y-83731220D01*
X95980000Y-83566764D01*
X95980000Y-82143236D01*
X96048120Y-81978780D01*
X96100000Y-81717963D01*
X96100000Y-81452037D01*
X96048120Y-81191220D01*
X95980000Y-81026764D01*
X95980000Y-80168173D01*
X96125000Y-80313173D01*
G37*
G04 #@! TD.AperFunction*
D26*
X97842179Y-75715352D02*
X97842178Y-83318368D01*
X97430327Y-83730220D01*
X97408385Y-83748227D01*
X97390379Y-83770168D01*
X97336530Y-83835783D01*
X97283137Y-83935674D01*
X97275000Y-83962499D01*
X97275000Y-80103242D01*
X97277782Y-80074999D01*
X97275000Y-80046754D01*
X97266680Y-79962280D01*
X97233801Y-79853892D01*
X97180409Y-79754003D01*
X97180408Y-79754001D01*
X97126559Y-79688386D01*
X97108554Y-79666446D01*
X97086613Y-79648440D01*
X96136565Y-78698393D01*
X96118554Y-78676446D01*
X96030998Y-78604592D01*
X96028183Y-78603087D01*
X95980000Y-78486763D01*
X95980000Y-74580000D01*
X96706828Y-74580000D01*
X97842179Y-75715352D01*
G04 #@! TA.AperFunction,Conductor*
D27*
G36*
X97842179Y-75715352D02*
G01*
X97842178Y-83318368D01*
X97430327Y-83730220D01*
X97408385Y-83748227D01*
X97390379Y-83770168D01*
X97336530Y-83835783D01*
X97283137Y-83935674D01*
X97275000Y-83962499D01*
X97275000Y-80103242D01*
X97277782Y-80074999D01*
X97275000Y-80046754D01*
X97266680Y-79962280D01*
X97233801Y-79853892D01*
X97180409Y-79754003D01*
X97180408Y-79754001D01*
X97126559Y-79688386D01*
X97108554Y-79666446D01*
X97086613Y-79648440D01*
X96136565Y-78698393D01*
X96118554Y-78676446D01*
X96030998Y-78604592D01*
X96028183Y-78603087D01*
X95980000Y-78486763D01*
X95980000Y-74580000D01*
X96706828Y-74580000D01*
X97842179Y-75715352D01*
G37*
G04 #@! TD.AperFunction*
D26*
X97206925Y-73493016D02*
X97166108Y-73471199D01*
X97057720Y-73438320D01*
X96973246Y-73430000D01*
X96973243Y-73430000D01*
X96945000Y-73427218D01*
X96916757Y-73430000D01*
X95989625Y-73430000D01*
X95980000Y-73406763D01*
X95980000Y-72266091D01*
X97206925Y-73493016D01*
G04 #@! TA.AperFunction,Conductor*
D27*
G36*
X97206925Y-73493016D02*
G01*
X97166108Y-73471199D01*
X97057720Y-73438320D01*
X96973246Y-73430000D01*
X96973243Y-73430000D01*
X96945000Y-73427218D01*
X96916757Y-73430000D01*
X95989625Y-73430000D01*
X95980000Y-73406763D01*
X95980000Y-72266091D01*
X97206925Y-73493016D01*
G37*
G04 #@! TD.AperFunction*
D26*
X98442200Y-72560373D02*
X98442200Y-73101946D01*
X96378646Y-71038393D01*
X96360635Y-71016446D01*
X96273079Y-70944592D01*
X96173189Y-70891199D01*
X96064801Y-70858320D01*
X95980327Y-70850000D01*
X95980324Y-70850000D01*
X95980000Y-70849968D01*
X95980000Y-70098172D01*
X98442200Y-72560373D01*
G04 #@! TA.AperFunction,Conductor*
D27*
G36*
X98442200Y-72560373D02*
G01*
X98442200Y-73101946D01*
X96378646Y-71038393D01*
X96360635Y-71016446D01*
X96273079Y-70944592D01*
X96173189Y-70891199D01*
X96064801Y-70858320D01*
X95980327Y-70850000D01*
X95980324Y-70850000D01*
X95980000Y-70849968D01*
X95980000Y-70098172D01*
X98442200Y-72560373D01*
G37*
G04 #@! TD.AperFunction*
D28*
X111385019Y-57664537D02*
X111350012Y-57730030D01*
X111328455Y-57801095D01*
X111321176Y-57875000D01*
X111321176Y-59575000D01*
X111328455Y-59648905D01*
X111350012Y-59719970D01*
X111385019Y-59785463D01*
X111432131Y-59842869D01*
X111443000Y-59851789D01*
X111443000Y-60731230D01*
X111370153Y-60907097D01*
X111323000Y-61144151D01*
X111323000Y-61385849D01*
X111370153Y-61622903D01*
X111443000Y-61798770D01*
X111443000Y-62825000D01*
X111445440Y-62849776D01*
X111452667Y-62873601D01*
X111464403Y-62895557D01*
X111480197Y-62914803D01*
X111499443Y-62930597D01*
X111521399Y-62942333D01*
X111545224Y-62949560D01*
X111570000Y-62952000D01*
X113998001Y-62952000D01*
X113998001Y-64658000D01*
X111570000Y-64658000D01*
X111545224Y-64660440D01*
X111521399Y-64667667D01*
X111499443Y-64679403D01*
X111480197Y-64695197D01*
X111464403Y-64714443D01*
X111452667Y-64736399D01*
X111445440Y-64760224D01*
X111443000Y-64785000D01*
X111443000Y-65811230D01*
X111440196Y-65818000D01*
X110965840Y-65818000D01*
X110939959Y-65815451D01*
X110836650Y-65825626D01*
X110737310Y-65855761D01*
X110645758Y-65904696D01*
X110565512Y-65970552D01*
X110549009Y-65990661D01*
X109578671Y-66961000D01*
X107973043Y-66961000D01*
X107905865Y-66933174D01*
X107794390Y-66911000D01*
X107680730Y-66911000D01*
X107569255Y-66933174D01*
X107464248Y-66976669D01*
X107369744Y-67039815D01*
X107289375Y-67120184D01*
X107226229Y-67214688D01*
X107182734Y-67319695D01*
X107160560Y-67431170D01*
X107160560Y-67544830D01*
X107182734Y-67656305D01*
X107226229Y-67761312D01*
X107289375Y-67855816D01*
X107369744Y-67936185D01*
X107464248Y-67999331D01*
X107569255Y-68042826D01*
X107680730Y-68065000D01*
X107794390Y-68065000D01*
X107905865Y-68042826D01*
X107973043Y-68015000D01*
X109771079Y-68015000D01*
X109796960Y-68017549D01*
X109822841Y-68015000D01*
X109900270Y-68007374D01*
X109999610Y-67977239D01*
X110091162Y-67928304D01*
X110171408Y-67862448D01*
X110187915Y-67842334D01*
X111158250Y-66872000D01*
X111440196Y-66872000D01*
X111443000Y-66878770D01*
X111443000Y-68351230D01*
X111370153Y-68527097D01*
X111323000Y-68764151D01*
X111323000Y-69005849D01*
X111324212Y-69011944D01*
X108671772Y-71664385D01*
X108642122Y-71688718D01*
X108617793Y-71718364D01*
X108545025Y-71807032D01*
X108493950Y-71902586D01*
X108472875Y-71942015D01*
X108428445Y-72088480D01*
X108417750Y-72197073D01*
X108413443Y-72240798D01*
X108417202Y-72278962D01*
X108417203Y-73722366D01*
X108428446Y-73836519D01*
X108472876Y-73982984D01*
X108545026Y-74117966D01*
X108642123Y-74236280D01*
X108760437Y-74333377D01*
X108895419Y-74405527D01*
X109041884Y-74449957D01*
X109194202Y-74464959D01*
X109346521Y-74449957D01*
X109492986Y-74405527D01*
X109627968Y-74333377D01*
X109746282Y-74236280D01*
X109843379Y-74117966D01*
X109915529Y-73982984D01*
X109959959Y-73836519D01*
X109971202Y-73722366D01*
X109971202Y-72562641D01*
X111346169Y-71187675D01*
X111323000Y-71304151D01*
X111323000Y-71545849D01*
X111370153Y-71782903D01*
X111423671Y-71912106D01*
X110829096Y-72506681D01*
X110811842Y-72520841D01*
X110780335Y-72559233D01*
X110755358Y-72589667D01*
X110713386Y-72668191D01*
X110687540Y-72753393D01*
X110678813Y-72842000D01*
X110681001Y-72864215D01*
X110681000Y-73879376D01*
X110067096Y-74493281D01*
X110049842Y-74507441D01*
X110018032Y-74546202D01*
X109993358Y-74576267D01*
X109951386Y-74654791D01*
X109925540Y-74739993D01*
X109916813Y-74828600D01*
X109919001Y-74850815D01*
X109919000Y-77269577D01*
X109845140Y-77343437D01*
X109771050Y-77454320D01*
X109720016Y-77577526D01*
X109694000Y-77708321D01*
X109694000Y-77841679D01*
X109720016Y-77972474D01*
X109771050Y-78095680D01*
X109845140Y-78206563D01*
X109939437Y-78300860D01*
X110050320Y-78374950D01*
X110173526Y-78425984D01*
X110304321Y-78452000D01*
X110437679Y-78452000D01*
X110568474Y-78425984D01*
X110691680Y-78374950D01*
X110802563Y-78300860D01*
X110896860Y-78206563D01*
X110970950Y-78095680D01*
X111021984Y-77972474D01*
X111048000Y-77841679D01*
X111048000Y-77708321D01*
X111021984Y-77577526D01*
X110970950Y-77454320D01*
X110896860Y-77343437D01*
X110823000Y-77269577D01*
X110823000Y-75015823D01*
X111412848Y-74425976D01*
X111443000Y-74498770D01*
X111443000Y-75525000D01*
X111445440Y-75549776D01*
X111452667Y-75573601D01*
X111464403Y-75595557D01*
X111480197Y-75614803D01*
X111499443Y-75630597D01*
X111521399Y-75642333D01*
X111545224Y-75649560D01*
X111570000Y-75652000D01*
X113998001Y-75652000D01*
X113998001Y-77358000D01*
X111570000Y-77358000D01*
X111545224Y-77360440D01*
X111521399Y-77367667D01*
X111499443Y-77379403D01*
X111480197Y-77395197D01*
X111464403Y-77414443D01*
X111452667Y-77436399D01*
X111445440Y-77460224D01*
X111443000Y-77485000D01*
X111443000Y-78511230D01*
X111370153Y-78687097D01*
X111323000Y-78924151D01*
X111323000Y-79165849D01*
X111370153Y-79402903D01*
X111443000Y-79578770D01*
X111443000Y-81051230D01*
X111370153Y-81227097D01*
X111323000Y-81464151D01*
X111323000Y-81705849D01*
X111370153Y-81942903D01*
X111443000Y-82118770D01*
X111443000Y-83591230D01*
X111370153Y-83767097D01*
X111333273Y-83952503D01*
X111049296Y-84236481D01*
X111032042Y-84250641D01*
X110992511Y-84298810D01*
X110975558Y-84319467D01*
X110933586Y-84397991D01*
X110907740Y-84483193D01*
X110899013Y-84571800D01*
X110901201Y-84594015D01*
X110901200Y-85087576D01*
X110496096Y-85492681D01*
X110478842Y-85506841D01*
X110457806Y-85532474D01*
X110422358Y-85575667D01*
X110380386Y-85654191D01*
X110354540Y-85739393D01*
X110345813Y-85828000D01*
X110348001Y-85850215D01*
X110348000Y-88837775D01*
X107637777Y-91548000D01*
X107533321Y-91548000D01*
X107402526Y-91574016D01*
X107279320Y-91625050D01*
X107168437Y-91699140D01*
X107074140Y-91793437D01*
X107000050Y-91904320D01*
X106949016Y-92027526D01*
X106923000Y-92158321D01*
X106923000Y-92291679D01*
X106949016Y-92422474D01*
X107000050Y-92545680D01*
X107074140Y-92656563D01*
X107168437Y-92750860D01*
X107279320Y-92824950D01*
X107402526Y-92875984D01*
X107533321Y-92902000D01*
X107666679Y-92902000D01*
X107797474Y-92875984D01*
X107920680Y-92824950D01*
X108031563Y-92750860D01*
X108125860Y-92656563D01*
X108199950Y-92545680D01*
X108250984Y-92422474D01*
X108277000Y-92291679D01*
X108277000Y-92187223D01*
X111103912Y-89360313D01*
X111121159Y-89346159D01*
X111177643Y-89277333D01*
X111219614Y-89198810D01*
X111245460Y-89113607D01*
X111252000Y-89047205D01*
X111252000Y-89047204D01*
X111254187Y-89025001D01*
X111252000Y-89002796D01*
X111252000Y-86015223D01*
X111443000Y-85824223D01*
X111443000Y-86131230D01*
X111370153Y-86307097D01*
X111323000Y-86544151D01*
X111323000Y-86785849D01*
X111370153Y-87022903D01*
X111443000Y-87198770D01*
X111443000Y-88225000D01*
X111445440Y-88249776D01*
X111452667Y-88273601D01*
X111464403Y-88295557D01*
X111480197Y-88314803D01*
X111499443Y-88330597D01*
X111521399Y-88342333D01*
X111545224Y-88349560D01*
X111570000Y-88352000D01*
X113998000Y-88352000D01*
X113998000Y-90058000D01*
X111570000Y-90058000D01*
X111545224Y-90060440D01*
X111521399Y-90067667D01*
X111499443Y-90079403D01*
X111480197Y-90095197D01*
X111464403Y-90114443D01*
X111452667Y-90136399D01*
X111445440Y-90160224D01*
X111443000Y-90185000D01*
X111443000Y-91211230D01*
X111370153Y-91387097D01*
X111323000Y-91624151D01*
X111323000Y-91865849D01*
X111370153Y-92102903D01*
X111443000Y-92278770D01*
X111443000Y-93751230D01*
X111370153Y-93927097D01*
X111323000Y-94164151D01*
X111323000Y-94405849D01*
X111370153Y-94642903D01*
X111443000Y-94818770D01*
X111443000Y-96291230D01*
X111370153Y-96467097D01*
X111323000Y-96704151D01*
X111323000Y-96945849D01*
X111370153Y-97182903D01*
X111443000Y-97358770D01*
X111443000Y-98831230D01*
X111370153Y-99007097D01*
X111323000Y-99244151D01*
X111323000Y-99485849D01*
X111370153Y-99722903D01*
X111443000Y-99898770D01*
X111443000Y-100925000D01*
X111445440Y-100949776D01*
X111452667Y-100973601D01*
X111464403Y-100995557D01*
X111480197Y-101014803D01*
X111499443Y-101030597D01*
X111521399Y-101042333D01*
X111545224Y-101049560D01*
X111570000Y-101052000D01*
X113998000Y-101052000D01*
X113998000Y-102758000D01*
X111570000Y-102758000D01*
X111545224Y-102760440D01*
X111521399Y-102767667D01*
X111499443Y-102779403D01*
X111480197Y-102795197D01*
X111464403Y-102814443D01*
X111452667Y-102836399D01*
X111445440Y-102860224D01*
X111443000Y-102885000D01*
X111443000Y-103911230D01*
X111370153Y-104087097D01*
X111323000Y-104324151D01*
X111323000Y-104565849D01*
X111370153Y-104802903D01*
X111443000Y-104978770D01*
X111443000Y-106451230D01*
X111370153Y-106627097D01*
X111323000Y-106864151D01*
X111323000Y-107105849D01*
X111370153Y-107342903D01*
X111443000Y-107518770D01*
X111443000Y-108123000D01*
X106496642Y-108123000D01*
X106587903Y-108104847D01*
X106811202Y-108012353D01*
X107012167Y-107878073D01*
X107183073Y-107707167D01*
X107317353Y-107506202D01*
X107409847Y-107282903D01*
X107457000Y-107045849D01*
X107457000Y-106804151D01*
X107409847Y-106567097D01*
X107317353Y-106343798D01*
X107183073Y-106142833D01*
X107012167Y-105971927D01*
X106811202Y-105837647D01*
X106587903Y-105745153D01*
X106350849Y-105698000D01*
X106109151Y-105698000D01*
X105872097Y-105745153D01*
X105648798Y-105837647D01*
X105447833Y-105971927D01*
X105276927Y-106142833D01*
X105142647Y-106343798D01*
X105050153Y-106567097D01*
X105003000Y-106804151D01*
X105003000Y-107045849D01*
X105050153Y-107282903D01*
X105142647Y-107506202D01*
X105276927Y-107707167D01*
X105447833Y-107878073D01*
X105648798Y-108012353D01*
X105872097Y-108104847D01*
X105963358Y-108123000D01*
X101416642Y-108123000D01*
X101507903Y-108104847D01*
X101731202Y-108012353D01*
X101932167Y-107878073D01*
X102103073Y-107707167D01*
X102237353Y-107506202D01*
X102329847Y-107282903D01*
X102377000Y-107045849D01*
X102377000Y-106804151D01*
X102329847Y-106567097D01*
X102237353Y-106343798D01*
X102103073Y-106142833D01*
X101932167Y-105971927D01*
X101731202Y-105837647D01*
X101507903Y-105745153D01*
X101270849Y-105698000D01*
X101029151Y-105698000D01*
X100792097Y-105745153D01*
X100568798Y-105837647D01*
X100367833Y-105971927D01*
X100196927Y-106142833D01*
X100062647Y-106343798D01*
X99970153Y-106567097D01*
X99923000Y-106804151D01*
X99923000Y-107045849D01*
X99970153Y-107282903D01*
X100062647Y-107506202D01*
X100196927Y-107707167D01*
X100367833Y-107878073D01*
X100568798Y-108012353D01*
X100792097Y-108104847D01*
X100883358Y-108123000D01*
X95857000Y-108123000D01*
X95857000Y-107518770D01*
X95929847Y-107342903D01*
X95977000Y-107105849D01*
X95977000Y-106864151D01*
X95929847Y-106627097D01*
X95857000Y-106451230D01*
X95857000Y-104978770D01*
X95929847Y-104802903D01*
X95977000Y-104565849D01*
X95977000Y-104324151D01*
X95929847Y-104087097D01*
X95857000Y-103911230D01*
X95857000Y-102885000D01*
X95854560Y-102860224D01*
X95847333Y-102836399D01*
X95835597Y-102814443D01*
X95819803Y-102795197D01*
X95800557Y-102779403D01*
X95778601Y-102767667D01*
X95754776Y-102760440D01*
X95730000Y-102758000D01*
X93302000Y-102758000D01*
X93302000Y-101052000D01*
X95730000Y-101052000D01*
X95754776Y-101049560D01*
X95778601Y-101042333D01*
X95800557Y-101030597D01*
X95819803Y-101014803D01*
X95835597Y-100995557D01*
X95847333Y-100973601D01*
X95854560Y-100949776D01*
X95857000Y-100925000D01*
X95857000Y-99898770D01*
X95929847Y-99722903D01*
X95977000Y-99485849D01*
X95977000Y-99244151D01*
X95929847Y-99007097D01*
X95857000Y-98831230D01*
X95857000Y-97358770D01*
X95929847Y-97182903D01*
X95977000Y-96945849D01*
X95977000Y-96704151D01*
X95929847Y-96467097D01*
X95857000Y-96291230D01*
X95857000Y-94818770D01*
X95929847Y-94642903D01*
X95977000Y-94405849D01*
X95977000Y-94164151D01*
X95929847Y-93927097D01*
X95857000Y-93751230D01*
X95857000Y-92278770D01*
X95929847Y-92102903D01*
X95977000Y-91865849D01*
X95977000Y-91624151D01*
X95929847Y-91387097D01*
X95857000Y-91211230D01*
X95857000Y-90813598D01*
X103607269Y-90813598D01*
X103607269Y-90946956D01*
X103633285Y-91077751D01*
X103684319Y-91200957D01*
X103758409Y-91311840D01*
X103852706Y-91406137D01*
X103963589Y-91480227D01*
X104086795Y-91531261D01*
X104217590Y-91557277D01*
X104350948Y-91557277D01*
X104481743Y-91531261D01*
X104604949Y-91480227D01*
X104715832Y-91406137D01*
X104810129Y-91311840D01*
X104884219Y-91200957D01*
X104935253Y-91077751D01*
X104961269Y-90946956D01*
X104961269Y-90813598D01*
X104935253Y-90682803D01*
X104884219Y-90559597D01*
X104810129Y-90448714D01*
X104736269Y-90374854D01*
X104736269Y-88674443D01*
X104771563Y-88650860D01*
X104865860Y-88556563D01*
X104939950Y-88445680D01*
X104990984Y-88322474D01*
X105017000Y-88191679D01*
X105017000Y-88058321D01*
X104990984Y-87927526D01*
X104939950Y-87804320D01*
X104865860Y-87693437D01*
X104771563Y-87599140D01*
X104660680Y-87525050D01*
X104537474Y-87474016D01*
X104406679Y-87448000D01*
X104273321Y-87448000D01*
X104142526Y-87474016D01*
X104019320Y-87525050D01*
X103908437Y-87599140D01*
X103814140Y-87693437D01*
X103740050Y-87804320D01*
X103689016Y-87927526D01*
X103663000Y-88058321D01*
X103663000Y-88191679D01*
X103689016Y-88322474D01*
X103740050Y-88445680D01*
X103814140Y-88556563D01*
X103832269Y-88574692D01*
X103832270Y-90374853D01*
X103758409Y-90448714D01*
X103684319Y-90559597D01*
X103633285Y-90682803D01*
X103607269Y-90813598D01*
X95857000Y-90813598D01*
X95857000Y-90185000D01*
X95854560Y-90160224D01*
X95847333Y-90136399D01*
X95835597Y-90114443D01*
X95819803Y-90095197D01*
X95800557Y-90079403D01*
X95778601Y-90067667D01*
X95754776Y-90060440D01*
X95730000Y-90058000D01*
X93302000Y-90058000D01*
X93302000Y-88352000D01*
X95730000Y-88352000D01*
X95754776Y-88349560D01*
X95778601Y-88342333D01*
X95800557Y-88330597D01*
X95819803Y-88314803D01*
X95835597Y-88295557D01*
X95847333Y-88273601D01*
X95854560Y-88249776D01*
X95857000Y-88225000D01*
X95857000Y-87198770D01*
X95929847Y-87022903D01*
X95977000Y-86785849D01*
X95977000Y-86544151D01*
X95929847Y-86307097D01*
X95857000Y-86131230D01*
X95857000Y-84658770D01*
X95929847Y-84482903D01*
X95977000Y-84245849D01*
X95977000Y-84004151D01*
X95929847Y-83767097D01*
X95857000Y-83591230D01*
X95857000Y-82118770D01*
X95929847Y-81942903D01*
X95977000Y-81705849D01*
X95977000Y-81464151D01*
X95929847Y-81227097D01*
X95857000Y-81051230D01*
X95857000Y-79871223D01*
X96248000Y-80262225D01*
X96248001Y-84829576D01*
X96174140Y-84903437D01*
X96100050Y-85014320D01*
X96049016Y-85137526D01*
X96023000Y-85268321D01*
X96023000Y-85401679D01*
X96049016Y-85532474D01*
X96100050Y-85655680D01*
X96174140Y-85766563D01*
X96268437Y-85860860D01*
X96379320Y-85934950D01*
X96502526Y-85985984D01*
X96633321Y-86012000D01*
X96766679Y-86012000D01*
X96897474Y-85985984D01*
X97020680Y-85934950D01*
X97131563Y-85860860D01*
X97150857Y-85841566D01*
X97165954Y-85917467D01*
X97216988Y-86040673D01*
X97291078Y-86151556D01*
X97385375Y-86245853D01*
X97496258Y-86319943D01*
X97619464Y-86370977D01*
X97750259Y-86396993D01*
X97883617Y-86396993D01*
X98014412Y-86370977D01*
X98137618Y-86319943D01*
X98248501Y-86245853D01*
X98342798Y-86151556D01*
X98416888Y-86040673D01*
X98458975Y-85939067D01*
X98477605Y-85939067D01*
X98608400Y-85913051D01*
X98731606Y-85862017D01*
X98842489Y-85787927D01*
X98936786Y-85693630D01*
X99010876Y-85582747D01*
X99061910Y-85459541D01*
X99087926Y-85328746D01*
X99087926Y-85195388D01*
X99062978Y-85069960D01*
X99091563Y-85050860D01*
X99185860Y-84956563D01*
X99259950Y-84845680D01*
X99310984Y-84722474D01*
X99337000Y-84591679D01*
X99337000Y-84490074D01*
X99338359Y-84488959D01*
X99394843Y-84420133D01*
X99436814Y-84341610D01*
X99459177Y-84267890D01*
X99462660Y-84256408D01*
X99471387Y-84167801D01*
X99469200Y-84145596D01*
X99469200Y-82295821D01*
X99585500Y-82295821D01*
X99585500Y-82429179D01*
X99611516Y-82559974D01*
X99662550Y-82683180D01*
X99736640Y-82794063D01*
X99830937Y-82888360D01*
X99941820Y-82962450D01*
X100065026Y-83013484D01*
X100195821Y-83039500D01*
X100329179Y-83039500D01*
X100459974Y-83013484D01*
X100583180Y-82962450D01*
X100598190Y-82952421D01*
X100568413Y-82996985D01*
X100502303Y-83156589D01*
X100468600Y-83326023D01*
X100468600Y-83498777D01*
X100502303Y-83668211D01*
X100568413Y-83827815D01*
X100664390Y-83971455D01*
X100786545Y-84093610D01*
X100930185Y-84189587D01*
X101089789Y-84255697D01*
X101259223Y-84289400D01*
X101431977Y-84289400D01*
X101601411Y-84255697D01*
X101761015Y-84189587D01*
X101904655Y-84093610D01*
X102026810Y-83971455D01*
X102122787Y-83827815D01*
X102188897Y-83668211D01*
X102222600Y-83498777D01*
X102222600Y-83326023D01*
X102188897Y-83156589D01*
X102122787Y-82996985D01*
X102026810Y-82853345D01*
X101904655Y-82731190D01*
X101761015Y-82635213D01*
X101601411Y-82569103D01*
X101577400Y-82564327D01*
X101577400Y-82020604D01*
X101579587Y-81998399D01*
X101570860Y-81909792D01*
X101545014Y-81824590D01*
X101532116Y-81800460D01*
X101503043Y-81746067D01*
X101446559Y-81677241D01*
X101429305Y-81663081D01*
X100934000Y-81167777D01*
X100934000Y-80763570D01*
X102724372Y-80763570D01*
X102724372Y-80877230D01*
X102746546Y-80988705D01*
X102790041Y-81093712D01*
X102849373Y-81182508D01*
X102849372Y-81939167D01*
X102847185Y-81961372D01*
X102855912Y-82049979D01*
X102874170Y-82110168D01*
X102881758Y-82135181D01*
X102923729Y-82213704D01*
X102980213Y-82282531D01*
X102997472Y-82296695D01*
X104168822Y-83468045D01*
X104151600Y-83554623D01*
X104151600Y-83727377D01*
X104185303Y-83896811D01*
X104251413Y-84056415D01*
X104347390Y-84200055D01*
X104469545Y-84322210D01*
X104613185Y-84418187D01*
X104772789Y-84484297D01*
X104942223Y-84518000D01*
X105114977Y-84518000D01*
X105284411Y-84484297D01*
X105444015Y-84418187D01*
X105587655Y-84322210D01*
X105709810Y-84200055D01*
X105805787Y-84056415D01*
X105871897Y-83896811D01*
X105905600Y-83727377D01*
X105905600Y-83554623D01*
X105871897Y-83385189D01*
X105805787Y-83225585D01*
X105709810Y-83081945D01*
X105587655Y-82959790D01*
X105517000Y-82912580D01*
X105517000Y-82252175D01*
X105796524Y-81972653D01*
X105901265Y-81951818D01*
X106006272Y-81908323D01*
X106100776Y-81845177D01*
X106181145Y-81764808D01*
X106244291Y-81670304D01*
X106287786Y-81565297D01*
X106309960Y-81453822D01*
X106309960Y-81340162D01*
X106287786Y-81228687D01*
X106244291Y-81123680D01*
X106181145Y-81029176D01*
X106100776Y-80948807D01*
X106006272Y-80885661D01*
X105901265Y-80842166D01*
X105789790Y-80819992D01*
X105676130Y-80819992D01*
X105564655Y-80842166D01*
X105459648Y-80885661D01*
X105365144Y-80948807D01*
X105284775Y-81029176D01*
X105221629Y-81123680D01*
X105178134Y-81228687D01*
X105157299Y-81333428D01*
X104761095Y-81729634D01*
X104743842Y-81743793D01*
X104707921Y-81787563D01*
X104687358Y-81812619D01*
X104645386Y-81891143D01*
X104619540Y-81976345D01*
X104610813Y-82064952D01*
X104613001Y-82087167D01*
X104613001Y-82633777D01*
X103753372Y-81774149D01*
X103753372Y-81182506D01*
X103812703Y-81093712D01*
X103856198Y-80988705D01*
X103878372Y-80877230D01*
X103878372Y-80763570D01*
X103856198Y-80652095D01*
X103812703Y-80547088D01*
X103749557Y-80452584D01*
X103669188Y-80372215D01*
X103574684Y-80309069D01*
X103469677Y-80265574D01*
X103358202Y-80243400D01*
X103244542Y-80243400D01*
X103133067Y-80265574D01*
X103028060Y-80309069D01*
X102933556Y-80372215D01*
X102853187Y-80452584D01*
X102790041Y-80547088D01*
X102746546Y-80652095D01*
X102724372Y-80763570D01*
X100934000Y-80763570D01*
X100934000Y-79662623D01*
X102013506Y-78583118D01*
X102030759Y-78568959D01*
X102087243Y-78500133D01*
X102129214Y-78421610D01*
X102155060Y-78336407D01*
X102161600Y-78270005D01*
X102161600Y-78270004D01*
X102163787Y-78247800D01*
X102161600Y-78225595D01*
X102161600Y-77177205D01*
X102163787Y-77155000D01*
X102155060Y-77066392D01*
X102129214Y-76981190D01*
X102087243Y-76902667D01*
X102030759Y-76833841D01*
X102013505Y-76819681D01*
X101750305Y-76556481D01*
X101769950Y-76527080D01*
X101820984Y-76403874D01*
X101847000Y-76273079D01*
X101847000Y-76139721D01*
X101820984Y-76008926D01*
X101769950Y-75885720D01*
X101695860Y-75774837D01*
X101601563Y-75680540D01*
X101490680Y-75606450D01*
X101367474Y-75555416D01*
X101236679Y-75529400D01*
X101103321Y-75529400D01*
X100972526Y-75555416D01*
X100849320Y-75606450D01*
X100738437Y-75680540D01*
X100644140Y-75774837D01*
X100570050Y-75885720D01*
X100519016Y-76008926D01*
X100493000Y-76139721D01*
X100493000Y-76273079D01*
X100515847Y-76387943D01*
X100473182Y-76392145D01*
X100375855Y-76421669D01*
X100286157Y-76469614D01*
X100207536Y-76534136D01*
X100143014Y-76612757D01*
X100095069Y-76702455D01*
X100065545Y-76799782D01*
X100055576Y-76901000D01*
X100055576Y-77181000D01*
X100065545Y-77282218D01*
X100095069Y-77379545D01*
X100143014Y-77469243D01*
X100185489Y-77521000D01*
X100143014Y-77572757D01*
X100095069Y-77662455D01*
X100065545Y-77759782D01*
X100055576Y-77861000D01*
X100055576Y-78141000D01*
X100065545Y-78242218D01*
X100095069Y-78339545D01*
X100143014Y-78429243D01*
X100157356Y-78446719D01*
X99767395Y-78836682D01*
X99750142Y-78850841D01*
X99700615Y-78911190D01*
X99693658Y-78919667D01*
X99651686Y-78998191D01*
X99625840Y-79083393D01*
X99617113Y-79172000D01*
X99619301Y-79194215D01*
X99619300Y-82146234D01*
X99611516Y-82165026D01*
X99585500Y-82295821D01*
X99469200Y-82295821D01*
X99469200Y-72344405D01*
X99471387Y-72322200D01*
X99462660Y-72233592D01*
X99436814Y-72148390D01*
X99410936Y-72099975D01*
X99394843Y-72069867D01*
X99338359Y-72001041D01*
X99321106Y-71986882D01*
X98882120Y-71547896D01*
X101506201Y-71547896D01*
X101509961Y-71586069D01*
X101509960Y-74337340D01*
X101506201Y-74375504D01*
X101509960Y-74413667D01*
X101509960Y-74413669D01*
X101521203Y-74527822D01*
X101535899Y-74576267D01*
X101565633Y-74674287D01*
X101637783Y-74809270D01*
X101653647Y-74828600D01*
X101734880Y-74927584D01*
X101764529Y-74951916D01*
X103546387Y-76733775D01*
X103546386Y-77907142D01*
X103542627Y-77945306D01*
X103546386Y-77983469D01*
X103546386Y-77983471D01*
X103557629Y-78097624D01*
X103601491Y-78242218D01*
X103602059Y-78244089D01*
X103674209Y-78379072D01*
X103705932Y-78417726D01*
X103771306Y-78497386D01*
X103800956Y-78521719D01*
X103841466Y-78562229D01*
X103930134Y-78634997D01*
X104065117Y-78707147D01*
X104211582Y-78751576D01*
X104363899Y-78766578D01*
X104516218Y-78751576D01*
X104662682Y-78707147D01*
X104797665Y-78634997D01*
X104850449Y-78591678D01*
X104900966Y-78633137D01*
X105035949Y-78705287D01*
X105182414Y-78749716D01*
X105334732Y-78764719D01*
X105487050Y-78749716D01*
X105633515Y-78705287D01*
X105768498Y-78633137D01*
X105857166Y-78560369D01*
X105895818Y-78521717D01*
X105925466Y-78497386D01*
X106022563Y-78379072D01*
X106094713Y-78244090D01*
X106139143Y-78097625D01*
X106150386Y-77983472D01*
X106150386Y-77983470D01*
X106154145Y-77945307D01*
X106150386Y-77907143D01*
X106150386Y-76015157D01*
X106154144Y-75977001D01*
X106150386Y-75938845D01*
X106150386Y-75938836D01*
X106139143Y-75824683D01*
X106094713Y-75678218D01*
X106080158Y-75650987D01*
X106022563Y-75543235D01*
X105949795Y-75454567D01*
X105949794Y-75454566D01*
X105925466Y-75424922D01*
X105895822Y-75400594D01*
X104113960Y-73618733D01*
X104113960Y-72304667D01*
X104636637Y-71781991D01*
X104666280Y-71757664D01*
X104690609Y-71728019D01*
X104763377Y-71639351D01*
X104835527Y-71504368D01*
X104844423Y-71475041D01*
X104879957Y-71357903D01*
X104891200Y-71243750D01*
X104891200Y-71243741D01*
X104894958Y-71205585D01*
X104891200Y-71167429D01*
X104891200Y-68873044D01*
X104992232Y-68772012D01*
X105021880Y-68747681D01*
X105118977Y-68629367D01*
X105191127Y-68494385D01*
X105235557Y-68347920D01*
X105241742Y-68285123D01*
X105303410Y-68223455D01*
X105399387Y-68079815D01*
X105465497Y-67920211D01*
X105499200Y-67750777D01*
X105499200Y-67578023D01*
X105465497Y-67408589D01*
X105399387Y-67248985D01*
X105303410Y-67105345D01*
X105181255Y-66983190D01*
X105046800Y-66893350D01*
X105046800Y-63120734D01*
X105048264Y-63105859D01*
X105788000Y-63105859D01*
X105788000Y-63244141D01*
X105814977Y-63379766D01*
X105867895Y-63507522D01*
X105944721Y-63622499D01*
X106042501Y-63720279D01*
X106157478Y-63797105D01*
X106285234Y-63850023D01*
X106420859Y-63877000D01*
X106559141Y-63877000D01*
X106694766Y-63850023D01*
X106822522Y-63797105D01*
X106937499Y-63720279D01*
X107035279Y-63622499D01*
X107112105Y-63507522D01*
X107165023Y-63379766D01*
X107192000Y-63244141D01*
X107192000Y-63105859D01*
X107165023Y-62970234D01*
X107112105Y-62842478D01*
X107035279Y-62727501D01*
X106937499Y-62629721D01*
X106822522Y-62552895D01*
X106694766Y-62499977D01*
X106559141Y-62473000D01*
X106420859Y-62473000D01*
X106285234Y-62499977D01*
X106157478Y-62552895D01*
X106042501Y-62629721D01*
X105944721Y-62727501D01*
X105867895Y-62842478D01*
X105814977Y-62970234D01*
X105788000Y-63105859D01*
X105048264Y-63105859D01*
X105049590Y-63092405D01*
X105046800Y-63064076D01*
X105046800Y-63064070D01*
X105038450Y-62979294D01*
X105005457Y-62870530D01*
X104951879Y-62770291D01*
X104879774Y-62682432D01*
X104857762Y-62664367D01*
X104710616Y-62517221D01*
X104686921Y-62501388D01*
X104664914Y-62483328D01*
X104639811Y-62469910D01*
X104616112Y-62454075D01*
X104589778Y-62443167D01*
X104564676Y-62429750D01*
X104537435Y-62421486D01*
X104511105Y-62410580D01*
X104483161Y-62405021D01*
X104455911Y-62396755D01*
X104427573Y-62393964D01*
X104399630Y-62388406D01*
X104371131Y-62388406D01*
X104342800Y-62385616D01*
X104314469Y-62388406D01*
X104285970Y-62388406D01*
X104258027Y-62393964D01*
X104229689Y-62396755D01*
X104202439Y-62405021D01*
X104174495Y-62410580D01*
X104148165Y-62421486D01*
X104120924Y-62429750D01*
X104095822Y-62443167D01*
X104069488Y-62454075D01*
X104045789Y-62469910D01*
X104020686Y-62483328D01*
X103998679Y-62501388D01*
X103980719Y-62513389D01*
X103712095Y-62513389D01*
X103623301Y-62454058D01*
X103518294Y-62410563D01*
X103406819Y-62388389D01*
X103293159Y-62388389D01*
X103181684Y-62410563D01*
X103076677Y-62454058D01*
X102982173Y-62517204D01*
X102901804Y-62597573D01*
X102838658Y-62692077D01*
X102795163Y-62797084D01*
X102780175Y-62872431D01*
X102759422Y-62876559D01*
X102731088Y-62879350D01*
X102703842Y-62887615D01*
X102675895Y-62893174D01*
X102649570Y-62904078D01*
X102622324Y-62912343D01*
X102597213Y-62925765D01*
X102570888Y-62936669D01*
X102547200Y-62952497D01*
X102522085Y-62965921D01*
X102500071Y-62983988D01*
X102476384Y-62999815D01*
X102456238Y-63019961D01*
X102434226Y-63038026D01*
X102416162Y-63060037D01*
X102396015Y-63080184D01*
X102380185Y-63103875D01*
X102362121Y-63125886D01*
X102348700Y-63150996D01*
X102332869Y-63174688D01*
X102321963Y-63201017D01*
X102308543Y-63226125D01*
X102300279Y-63253367D01*
X102289374Y-63279695D01*
X102283814Y-63307645D01*
X102275550Y-63334889D01*
X102272759Y-63363221D01*
X102267200Y-63391170D01*
X102267200Y-63419665D01*
X102267201Y-66802491D01*
X102123985Y-66861813D01*
X101980345Y-66957790D01*
X101858190Y-67079945D01*
X101762213Y-67223585D01*
X101696103Y-67383189D01*
X101662400Y-67552623D01*
X101662400Y-67725377D01*
X101696103Y-67894811D01*
X101762213Y-68054415D01*
X101858190Y-68198055D01*
X101980345Y-68320210D01*
X102123985Y-68416187D01*
X102283589Y-68482297D01*
X102287201Y-68483015D01*
X102287200Y-70448812D01*
X101764525Y-70971488D01*
X101734881Y-70995816D01*
X101710553Y-71025460D01*
X101710551Y-71025462D01*
X101637783Y-71114130D01*
X101565633Y-71249113D01*
X101521204Y-71395578D01*
X101506201Y-71547896D01*
X98882120Y-71547896D01*
X95946862Y-68612639D01*
X95929847Y-68527097D01*
X95857000Y-68351230D01*
X95857000Y-66878770D01*
X95929847Y-66702903D01*
X95977000Y-66465849D01*
X95977000Y-66224151D01*
X95929847Y-65987097D01*
X95857000Y-65811230D01*
X95857000Y-64785000D01*
X95854560Y-64760224D01*
X95847333Y-64736399D01*
X95835597Y-64714443D01*
X95819803Y-64695197D01*
X95800557Y-64679403D01*
X95778601Y-64667667D01*
X95754776Y-64660440D01*
X95730000Y-64658000D01*
X93302000Y-64658000D01*
X93302000Y-63105859D01*
X100008000Y-63105859D01*
X100008000Y-63244141D01*
X100034977Y-63379766D01*
X100087895Y-63507522D01*
X100164721Y-63622499D01*
X100262501Y-63720279D01*
X100377478Y-63797105D01*
X100505234Y-63850023D01*
X100640859Y-63877000D01*
X100779141Y-63877000D01*
X100914766Y-63850023D01*
X101042522Y-63797105D01*
X101157499Y-63720279D01*
X101255279Y-63622499D01*
X101332105Y-63507522D01*
X101385023Y-63379766D01*
X101412000Y-63244141D01*
X101412000Y-63105859D01*
X101385023Y-62970234D01*
X101332105Y-62842478D01*
X101255279Y-62727501D01*
X101157499Y-62629721D01*
X101042522Y-62552895D01*
X100914766Y-62499977D01*
X100779141Y-62473000D01*
X100640859Y-62473000D01*
X100505234Y-62499977D01*
X100377478Y-62552895D01*
X100262501Y-62629721D01*
X100164721Y-62727501D01*
X100087895Y-62842478D01*
X100034977Y-62970234D01*
X100008000Y-63105859D01*
X93302000Y-63105859D01*
X93302000Y-62952000D01*
X95730000Y-62952000D01*
X95754776Y-62949560D01*
X95778601Y-62942333D01*
X95800557Y-62930597D01*
X95819803Y-62914803D01*
X95835597Y-62895557D01*
X95847333Y-62873601D01*
X95854560Y-62849776D01*
X95857000Y-62825000D01*
X95857000Y-61798770D01*
X95929847Y-61622903D01*
X95977000Y-61385849D01*
X95977000Y-61144151D01*
X95929847Y-60907097D01*
X95857000Y-60731230D01*
X95857000Y-59258770D01*
X95929847Y-59082903D01*
X95977000Y-58845849D01*
X95977000Y-58604151D01*
X95929847Y-58367097D01*
X95857000Y-58191230D01*
X95857000Y-57627000D01*
X111415825Y-57627000D01*
X111385019Y-57664537D01*
G04 #@! TA.AperFunction,Conductor*
D27*
G36*
X111385019Y-57664537D02*
G01*
X111350012Y-57730030D01*
X111328455Y-57801095D01*
X111321176Y-57875000D01*
X111321176Y-59575000D01*
X111328455Y-59648905D01*
X111350012Y-59719970D01*
X111385019Y-59785463D01*
X111432131Y-59842869D01*
X111443000Y-59851789D01*
X111443000Y-60731230D01*
X111370153Y-60907097D01*
X111323000Y-61144151D01*
X111323000Y-61385849D01*
X111370153Y-61622903D01*
X111443000Y-61798770D01*
X111443000Y-62825000D01*
X111445440Y-62849776D01*
X111452667Y-62873601D01*
X111464403Y-62895557D01*
X111480197Y-62914803D01*
X111499443Y-62930597D01*
X111521399Y-62942333D01*
X111545224Y-62949560D01*
X111570000Y-62952000D01*
X113998001Y-62952000D01*
X113998001Y-64658000D01*
X111570000Y-64658000D01*
X111545224Y-64660440D01*
X111521399Y-64667667D01*
X111499443Y-64679403D01*
X111480197Y-64695197D01*
X111464403Y-64714443D01*
X111452667Y-64736399D01*
X111445440Y-64760224D01*
X111443000Y-64785000D01*
X111443000Y-65811230D01*
X111440196Y-65818000D01*
X110965840Y-65818000D01*
X110939959Y-65815451D01*
X110836650Y-65825626D01*
X110737310Y-65855761D01*
X110645758Y-65904696D01*
X110565512Y-65970552D01*
X110549009Y-65990661D01*
X109578671Y-66961000D01*
X107973043Y-66961000D01*
X107905865Y-66933174D01*
X107794390Y-66911000D01*
X107680730Y-66911000D01*
X107569255Y-66933174D01*
X107464248Y-66976669D01*
X107369744Y-67039815D01*
X107289375Y-67120184D01*
X107226229Y-67214688D01*
X107182734Y-67319695D01*
X107160560Y-67431170D01*
X107160560Y-67544830D01*
X107182734Y-67656305D01*
X107226229Y-67761312D01*
X107289375Y-67855816D01*
X107369744Y-67936185D01*
X107464248Y-67999331D01*
X107569255Y-68042826D01*
X107680730Y-68065000D01*
X107794390Y-68065000D01*
X107905865Y-68042826D01*
X107973043Y-68015000D01*
X109771079Y-68015000D01*
X109796960Y-68017549D01*
X109822841Y-68015000D01*
X109900270Y-68007374D01*
X109999610Y-67977239D01*
X110091162Y-67928304D01*
X110171408Y-67862448D01*
X110187915Y-67842334D01*
X111158250Y-66872000D01*
X111440196Y-66872000D01*
X111443000Y-66878770D01*
X111443000Y-68351230D01*
X111370153Y-68527097D01*
X111323000Y-68764151D01*
X111323000Y-69005849D01*
X111324212Y-69011944D01*
X108671772Y-71664385D01*
X108642122Y-71688718D01*
X108617793Y-71718364D01*
X108545025Y-71807032D01*
X108493950Y-71902586D01*
X108472875Y-71942015D01*
X108428445Y-72088480D01*
X108417750Y-72197073D01*
X108413443Y-72240798D01*
X108417202Y-72278962D01*
X108417203Y-73722366D01*
X108428446Y-73836519D01*
X108472876Y-73982984D01*
X108545026Y-74117966D01*
X108642123Y-74236280D01*
X108760437Y-74333377D01*
X108895419Y-74405527D01*
X109041884Y-74449957D01*
X109194202Y-74464959D01*
X109346521Y-74449957D01*
X109492986Y-74405527D01*
X109627968Y-74333377D01*
X109746282Y-74236280D01*
X109843379Y-74117966D01*
X109915529Y-73982984D01*
X109959959Y-73836519D01*
X109971202Y-73722366D01*
X109971202Y-72562641D01*
X111346169Y-71187675D01*
X111323000Y-71304151D01*
X111323000Y-71545849D01*
X111370153Y-71782903D01*
X111423671Y-71912106D01*
X110829096Y-72506681D01*
X110811842Y-72520841D01*
X110780335Y-72559233D01*
X110755358Y-72589667D01*
X110713386Y-72668191D01*
X110687540Y-72753393D01*
X110678813Y-72842000D01*
X110681001Y-72864215D01*
X110681000Y-73879376D01*
X110067096Y-74493281D01*
X110049842Y-74507441D01*
X110018032Y-74546202D01*
X109993358Y-74576267D01*
X109951386Y-74654791D01*
X109925540Y-74739993D01*
X109916813Y-74828600D01*
X109919001Y-74850815D01*
X109919000Y-77269577D01*
X109845140Y-77343437D01*
X109771050Y-77454320D01*
X109720016Y-77577526D01*
X109694000Y-77708321D01*
X109694000Y-77841679D01*
X109720016Y-77972474D01*
X109771050Y-78095680D01*
X109845140Y-78206563D01*
X109939437Y-78300860D01*
X110050320Y-78374950D01*
X110173526Y-78425984D01*
X110304321Y-78452000D01*
X110437679Y-78452000D01*
X110568474Y-78425984D01*
X110691680Y-78374950D01*
X110802563Y-78300860D01*
X110896860Y-78206563D01*
X110970950Y-78095680D01*
X111021984Y-77972474D01*
X111048000Y-77841679D01*
X111048000Y-77708321D01*
X111021984Y-77577526D01*
X110970950Y-77454320D01*
X110896860Y-77343437D01*
X110823000Y-77269577D01*
X110823000Y-75015823D01*
X111412848Y-74425976D01*
X111443000Y-74498770D01*
X111443000Y-75525000D01*
X111445440Y-75549776D01*
X111452667Y-75573601D01*
X111464403Y-75595557D01*
X111480197Y-75614803D01*
X111499443Y-75630597D01*
X111521399Y-75642333D01*
X111545224Y-75649560D01*
X111570000Y-75652000D01*
X113998001Y-75652000D01*
X113998001Y-77358000D01*
X111570000Y-77358000D01*
X111545224Y-77360440D01*
X111521399Y-77367667D01*
X111499443Y-77379403D01*
X111480197Y-77395197D01*
X111464403Y-77414443D01*
X111452667Y-77436399D01*
X111445440Y-77460224D01*
X111443000Y-77485000D01*
X111443000Y-78511230D01*
X111370153Y-78687097D01*
X111323000Y-78924151D01*
X111323000Y-79165849D01*
X111370153Y-79402903D01*
X111443000Y-79578770D01*
X111443000Y-81051230D01*
X111370153Y-81227097D01*
X111323000Y-81464151D01*
X111323000Y-81705849D01*
X111370153Y-81942903D01*
X111443000Y-82118770D01*
X111443000Y-83591230D01*
X111370153Y-83767097D01*
X111333273Y-83952503D01*
X111049296Y-84236481D01*
X111032042Y-84250641D01*
X110992511Y-84298810D01*
X110975558Y-84319467D01*
X110933586Y-84397991D01*
X110907740Y-84483193D01*
X110899013Y-84571800D01*
X110901201Y-84594015D01*
X110901200Y-85087576D01*
X110496096Y-85492681D01*
X110478842Y-85506841D01*
X110457806Y-85532474D01*
X110422358Y-85575667D01*
X110380386Y-85654191D01*
X110354540Y-85739393D01*
X110345813Y-85828000D01*
X110348001Y-85850215D01*
X110348000Y-88837775D01*
X107637777Y-91548000D01*
X107533321Y-91548000D01*
X107402526Y-91574016D01*
X107279320Y-91625050D01*
X107168437Y-91699140D01*
X107074140Y-91793437D01*
X107000050Y-91904320D01*
X106949016Y-92027526D01*
X106923000Y-92158321D01*
X106923000Y-92291679D01*
X106949016Y-92422474D01*
X107000050Y-92545680D01*
X107074140Y-92656563D01*
X107168437Y-92750860D01*
X107279320Y-92824950D01*
X107402526Y-92875984D01*
X107533321Y-92902000D01*
X107666679Y-92902000D01*
X107797474Y-92875984D01*
X107920680Y-92824950D01*
X108031563Y-92750860D01*
X108125860Y-92656563D01*
X108199950Y-92545680D01*
X108250984Y-92422474D01*
X108277000Y-92291679D01*
X108277000Y-92187223D01*
X111103912Y-89360313D01*
X111121159Y-89346159D01*
X111177643Y-89277333D01*
X111219614Y-89198810D01*
X111245460Y-89113607D01*
X111252000Y-89047205D01*
X111252000Y-89047204D01*
X111254187Y-89025001D01*
X111252000Y-89002796D01*
X111252000Y-86015223D01*
X111443000Y-85824223D01*
X111443000Y-86131230D01*
X111370153Y-86307097D01*
X111323000Y-86544151D01*
X111323000Y-86785849D01*
X111370153Y-87022903D01*
X111443000Y-87198770D01*
X111443000Y-88225000D01*
X111445440Y-88249776D01*
X111452667Y-88273601D01*
X111464403Y-88295557D01*
X111480197Y-88314803D01*
X111499443Y-88330597D01*
X111521399Y-88342333D01*
X111545224Y-88349560D01*
X111570000Y-88352000D01*
X113998000Y-88352000D01*
X113998000Y-90058000D01*
X111570000Y-90058000D01*
X111545224Y-90060440D01*
X111521399Y-90067667D01*
X111499443Y-90079403D01*
X111480197Y-90095197D01*
X111464403Y-90114443D01*
X111452667Y-90136399D01*
X111445440Y-90160224D01*
X111443000Y-90185000D01*
X111443000Y-91211230D01*
X111370153Y-91387097D01*
X111323000Y-91624151D01*
X111323000Y-91865849D01*
X111370153Y-92102903D01*
X111443000Y-92278770D01*
X111443000Y-93751230D01*
X111370153Y-93927097D01*
X111323000Y-94164151D01*
X111323000Y-94405849D01*
X111370153Y-94642903D01*
X111443000Y-94818770D01*
X111443000Y-96291230D01*
X111370153Y-96467097D01*
X111323000Y-96704151D01*
X111323000Y-96945849D01*
X111370153Y-97182903D01*
X111443000Y-97358770D01*
X111443000Y-98831230D01*
X111370153Y-99007097D01*
X111323000Y-99244151D01*
X111323000Y-99485849D01*
X111370153Y-99722903D01*
X111443000Y-99898770D01*
X111443000Y-100925000D01*
X111445440Y-100949776D01*
X111452667Y-100973601D01*
X111464403Y-100995557D01*
X111480197Y-101014803D01*
X111499443Y-101030597D01*
X111521399Y-101042333D01*
X111545224Y-101049560D01*
X111570000Y-101052000D01*
X113998000Y-101052000D01*
X113998000Y-102758000D01*
X111570000Y-102758000D01*
X111545224Y-102760440D01*
X111521399Y-102767667D01*
X111499443Y-102779403D01*
X111480197Y-102795197D01*
X111464403Y-102814443D01*
X111452667Y-102836399D01*
X111445440Y-102860224D01*
X111443000Y-102885000D01*
X111443000Y-103911230D01*
X111370153Y-104087097D01*
X111323000Y-104324151D01*
X111323000Y-104565849D01*
X111370153Y-104802903D01*
X111443000Y-104978770D01*
X111443000Y-106451230D01*
X111370153Y-106627097D01*
X111323000Y-106864151D01*
X111323000Y-107105849D01*
X111370153Y-107342903D01*
X111443000Y-107518770D01*
X111443000Y-108123000D01*
X106496642Y-108123000D01*
X106587903Y-108104847D01*
X106811202Y-108012353D01*
X107012167Y-107878073D01*
X107183073Y-107707167D01*
X107317353Y-107506202D01*
X107409847Y-107282903D01*
X107457000Y-107045849D01*
X107457000Y-106804151D01*
X107409847Y-106567097D01*
X107317353Y-106343798D01*
X107183073Y-106142833D01*
X107012167Y-105971927D01*
X106811202Y-105837647D01*
X106587903Y-105745153D01*
X106350849Y-105698000D01*
X106109151Y-105698000D01*
X105872097Y-105745153D01*
X105648798Y-105837647D01*
X105447833Y-105971927D01*
X105276927Y-106142833D01*
X105142647Y-106343798D01*
X105050153Y-106567097D01*
X105003000Y-106804151D01*
X105003000Y-107045849D01*
X105050153Y-107282903D01*
X105142647Y-107506202D01*
X105276927Y-107707167D01*
X105447833Y-107878073D01*
X105648798Y-108012353D01*
X105872097Y-108104847D01*
X105963358Y-108123000D01*
X101416642Y-108123000D01*
X101507903Y-108104847D01*
X101731202Y-108012353D01*
X101932167Y-107878073D01*
X102103073Y-107707167D01*
X102237353Y-107506202D01*
X102329847Y-107282903D01*
X102377000Y-107045849D01*
X102377000Y-106804151D01*
X102329847Y-106567097D01*
X102237353Y-106343798D01*
X102103073Y-106142833D01*
X101932167Y-105971927D01*
X101731202Y-105837647D01*
X101507903Y-105745153D01*
X101270849Y-105698000D01*
X101029151Y-105698000D01*
X100792097Y-105745153D01*
X100568798Y-105837647D01*
X100367833Y-105971927D01*
X100196927Y-106142833D01*
X100062647Y-106343798D01*
X99970153Y-106567097D01*
X99923000Y-106804151D01*
X99923000Y-107045849D01*
X99970153Y-107282903D01*
X100062647Y-107506202D01*
X100196927Y-107707167D01*
X100367833Y-107878073D01*
X100568798Y-108012353D01*
X100792097Y-108104847D01*
X100883358Y-108123000D01*
X95857000Y-108123000D01*
X95857000Y-107518770D01*
X95929847Y-107342903D01*
X95977000Y-107105849D01*
X95977000Y-106864151D01*
X95929847Y-106627097D01*
X95857000Y-106451230D01*
X95857000Y-104978770D01*
X95929847Y-104802903D01*
X95977000Y-104565849D01*
X95977000Y-104324151D01*
X95929847Y-104087097D01*
X95857000Y-103911230D01*
X95857000Y-102885000D01*
X95854560Y-102860224D01*
X95847333Y-102836399D01*
X95835597Y-102814443D01*
X95819803Y-102795197D01*
X95800557Y-102779403D01*
X95778601Y-102767667D01*
X95754776Y-102760440D01*
X95730000Y-102758000D01*
X93302000Y-102758000D01*
X93302000Y-101052000D01*
X95730000Y-101052000D01*
X95754776Y-101049560D01*
X95778601Y-101042333D01*
X95800557Y-101030597D01*
X95819803Y-101014803D01*
X95835597Y-100995557D01*
X95847333Y-100973601D01*
X95854560Y-100949776D01*
X95857000Y-100925000D01*
X95857000Y-99898770D01*
X95929847Y-99722903D01*
X95977000Y-99485849D01*
X95977000Y-99244151D01*
X95929847Y-99007097D01*
X95857000Y-98831230D01*
X95857000Y-97358770D01*
X95929847Y-97182903D01*
X95977000Y-96945849D01*
X95977000Y-96704151D01*
X95929847Y-96467097D01*
X95857000Y-96291230D01*
X95857000Y-94818770D01*
X95929847Y-94642903D01*
X95977000Y-94405849D01*
X95977000Y-94164151D01*
X95929847Y-93927097D01*
X95857000Y-93751230D01*
X95857000Y-92278770D01*
X95929847Y-92102903D01*
X95977000Y-91865849D01*
X95977000Y-91624151D01*
X95929847Y-91387097D01*
X95857000Y-91211230D01*
X95857000Y-90813598D01*
X103607269Y-90813598D01*
X103607269Y-90946956D01*
X103633285Y-91077751D01*
X103684319Y-91200957D01*
X103758409Y-91311840D01*
X103852706Y-91406137D01*
X103963589Y-91480227D01*
X104086795Y-91531261D01*
X104217590Y-91557277D01*
X104350948Y-91557277D01*
X104481743Y-91531261D01*
X104604949Y-91480227D01*
X104715832Y-91406137D01*
X104810129Y-91311840D01*
X104884219Y-91200957D01*
X104935253Y-91077751D01*
X104961269Y-90946956D01*
X104961269Y-90813598D01*
X104935253Y-90682803D01*
X104884219Y-90559597D01*
X104810129Y-90448714D01*
X104736269Y-90374854D01*
X104736269Y-88674443D01*
X104771563Y-88650860D01*
X104865860Y-88556563D01*
X104939950Y-88445680D01*
X104990984Y-88322474D01*
X105017000Y-88191679D01*
X105017000Y-88058321D01*
X104990984Y-87927526D01*
X104939950Y-87804320D01*
X104865860Y-87693437D01*
X104771563Y-87599140D01*
X104660680Y-87525050D01*
X104537474Y-87474016D01*
X104406679Y-87448000D01*
X104273321Y-87448000D01*
X104142526Y-87474016D01*
X104019320Y-87525050D01*
X103908437Y-87599140D01*
X103814140Y-87693437D01*
X103740050Y-87804320D01*
X103689016Y-87927526D01*
X103663000Y-88058321D01*
X103663000Y-88191679D01*
X103689016Y-88322474D01*
X103740050Y-88445680D01*
X103814140Y-88556563D01*
X103832269Y-88574692D01*
X103832270Y-90374853D01*
X103758409Y-90448714D01*
X103684319Y-90559597D01*
X103633285Y-90682803D01*
X103607269Y-90813598D01*
X95857000Y-90813598D01*
X95857000Y-90185000D01*
X95854560Y-90160224D01*
X95847333Y-90136399D01*
X95835597Y-90114443D01*
X95819803Y-90095197D01*
X95800557Y-90079403D01*
X95778601Y-90067667D01*
X95754776Y-90060440D01*
X95730000Y-90058000D01*
X93302000Y-90058000D01*
X93302000Y-88352000D01*
X95730000Y-88352000D01*
X95754776Y-88349560D01*
X95778601Y-88342333D01*
X95800557Y-88330597D01*
X95819803Y-88314803D01*
X95835597Y-88295557D01*
X95847333Y-88273601D01*
X95854560Y-88249776D01*
X95857000Y-88225000D01*
X95857000Y-87198770D01*
X95929847Y-87022903D01*
X95977000Y-86785849D01*
X95977000Y-86544151D01*
X95929847Y-86307097D01*
X95857000Y-86131230D01*
X95857000Y-84658770D01*
X95929847Y-84482903D01*
X95977000Y-84245849D01*
X95977000Y-84004151D01*
X95929847Y-83767097D01*
X95857000Y-83591230D01*
X95857000Y-82118770D01*
X95929847Y-81942903D01*
X95977000Y-81705849D01*
X95977000Y-81464151D01*
X95929847Y-81227097D01*
X95857000Y-81051230D01*
X95857000Y-79871223D01*
X96248000Y-80262225D01*
X96248001Y-84829576D01*
X96174140Y-84903437D01*
X96100050Y-85014320D01*
X96049016Y-85137526D01*
X96023000Y-85268321D01*
X96023000Y-85401679D01*
X96049016Y-85532474D01*
X96100050Y-85655680D01*
X96174140Y-85766563D01*
X96268437Y-85860860D01*
X96379320Y-85934950D01*
X96502526Y-85985984D01*
X96633321Y-86012000D01*
X96766679Y-86012000D01*
X96897474Y-85985984D01*
X97020680Y-85934950D01*
X97131563Y-85860860D01*
X97150857Y-85841566D01*
X97165954Y-85917467D01*
X97216988Y-86040673D01*
X97291078Y-86151556D01*
X97385375Y-86245853D01*
X97496258Y-86319943D01*
X97619464Y-86370977D01*
X97750259Y-86396993D01*
X97883617Y-86396993D01*
X98014412Y-86370977D01*
X98137618Y-86319943D01*
X98248501Y-86245853D01*
X98342798Y-86151556D01*
X98416888Y-86040673D01*
X98458975Y-85939067D01*
X98477605Y-85939067D01*
X98608400Y-85913051D01*
X98731606Y-85862017D01*
X98842489Y-85787927D01*
X98936786Y-85693630D01*
X99010876Y-85582747D01*
X99061910Y-85459541D01*
X99087926Y-85328746D01*
X99087926Y-85195388D01*
X99062978Y-85069960D01*
X99091563Y-85050860D01*
X99185860Y-84956563D01*
X99259950Y-84845680D01*
X99310984Y-84722474D01*
X99337000Y-84591679D01*
X99337000Y-84490074D01*
X99338359Y-84488959D01*
X99394843Y-84420133D01*
X99436814Y-84341610D01*
X99459177Y-84267890D01*
X99462660Y-84256408D01*
X99471387Y-84167801D01*
X99469200Y-84145596D01*
X99469200Y-82295821D01*
X99585500Y-82295821D01*
X99585500Y-82429179D01*
X99611516Y-82559974D01*
X99662550Y-82683180D01*
X99736640Y-82794063D01*
X99830937Y-82888360D01*
X99941820Y-82962450D01*
X100065026Y-83013484D01*
X100195821Y-83039500D01*
X100329179Y-83039500D01*
X100459974Y-83013484D01*
X100583180Y-82962450D01*
X100598190Y-82952421D01*
X100568413Y-82996985D01*
X100502303Y-83156589D01*
X100468600Y-83326023D01*
X100468600Y-83498777D01*
X100502303Y-83668211D01*
X100568413Y-83827815D01*
X100664390Y-83971455D01*
X100786545Y-84093610D01*
X100930185Y-84189587D01*
X101089789Y-84255697D01*
X101259223Y-84289400D01*
X101431977Y-84289400D01*
X101601411Y-84255697D01*
X101761015Y-84189587D01*
X101904655Y-84093610D01*
X102026810Y-83971455D01*
X102122787Y-83827815D01*
X102188897Y-83668211D01*
X102222600Y-83498777D01*
X102222600Y-83326023D01*
X102188897Y-83156589D01*
X102122787Y-82996985D01*
X102026810Y-82853345D01*
X101904655Y-82731190D01*
X101761015Y-82635213D01*
X101601411Y-82569103D01*
X101577400Y-82564327D01*
X101577400Y-82020604D01*
X101579587Y-81998399D01*
X101570860Y-81909792D01*
X101545014Y-81824590D01*
X101532116Y-81800460D01*
X101503043Y-81746067D01*
X101446559Y-81677241D01*
X101429305Y-81663081D01*
X100934000Y-81167777D01*
X100934000Y-80763570D01*
X102724372Y-80763570D01*
X102724372Y-80877230D01*
X102746546Y-80988705D01*
X102790041Y-81093712D01*
X102849373Y-81182508D01*
X102849372Y-81939167D01*
X102847185Y-81961372D01*
X102855912Y-82049979D01*
X102874170Y-82110168D01*
X102881758Y-82135181D01*
X102923729Y-82213704D01*
X102980213Y-82282531D01*
X102997472Y-82296695D01*
X104168822Y-83468045D01*
X104151600Y-83554623D01*
X104151600Y-83727377D01*
X104185303Y-83896811D01*
X104251413Y-84056415D01*
X104347390Y-84200055D01*
X104469545Y-84322210D01*
X104613185Y-84418187D01*
X104772789Y-84484297D01*
X104942223Y-84518000D01*
X105114977Y-84518000D01*
X105284411Y-84484297D01*
X105444015Y-84418187D01*
X105587655Y-84322210D01*
X105709810Y-84200055D01*
X105805787Y-84056415D01*
X105871897Y-83896811D01*
X105905600Y-83727377D01*
X105905600Y-83554623D01*
X105871897Y-83385189D01*
X105805787Y-83225585D01*
X105709810Y-83081945D01*
X105587655Y-82959790D01*
X105517000Y-82912580D01*
X105517000Y-82252175D01*
X105796524Y-81972653D01*
X105901265Y-81951818D01*
X106006272Y-81908323D01*
X106100776Y-81845177D01*
X106181145Y-81764808D01*
X106244291Y-81670304D01*
X106287786Y-81565297D01*
X106309960Y-81453822D01*
X106309960Y-81340162D01*
X106287786Y-81228687D01*
X106244291Y-81123680D01*
X106181145Y-81029176D01*
X106100776Y-80948807D01*
X106006272Y-80885661D01*
X105901265Y-80842166D01*
X105789790Y-80819992D01*
X105676130Y-80819992D01*
X105564655Y-80842166D01*
X105459648Y-80885661D01*
X105365144Y-80948807D01*
X105284775Y-81029176D01*
X105221629Y-81123680D01*
X105178134Y-81228687D01*
X105157299Y-81333428D01*
X104761095Y-81729634D01*
X104743842Y-81743793D01*
X104707921Y-81787563D01*
X104687358Y-81812619D01*
X104645386Y-81891143D01*
X104619540Y-81976345D01*
X104610813Y-82064952D01*
X104613001Y-82087167D01*
X104613001Y-82633777D01*
X103753372Y-81774149D01*
X103753372Y-81182506D01*
X103812703Y-81093712D01*
X103856198Y-80988705D01*
X103878372Y-80877230D01*
X103878372Y-80763570D01*
X103856198Y-80652095D01*
X103812703Y-80547088D01*
X103749557Y-80452584D01*
X103669188Y-80372215D01*
X103574684Y-80309069D01*
X103469677Y-80265574D01*
X103358202Y-80243400D01*
X103244542Y-80243400D01*
X103133067Y-80265574D01*
X103028060Y-80309069D01*
X102933556Y-80372215D01*
X102853187Y-80452584D01*
X102790041Y-80547088D01*
X102746546Y-80652095D01*
X102724372Y-80763570D01*
X100934000Y-80763570D01*
X100934000Y-79662623D01*
X102013506Y-78583118D01*
X102030759Y-78568959D01*
X102087243Y-78500133D01*
X102129214Y-78421610D01*
X102155060Y-78336407D01*
X102161600Y-78270005D01*
X102161600Y-78270004D01*
X102163787Y-78247800D01*
X102161600Y-78225595D01*
X102161600Y-77177205D01*
X102163787Y-77155000D01*
X102155060Y-77066392D01*
X102129214Y-76981190D01*
X102087243Y-76902667D01*
X102030759Y-76833841D01*
X102013505Y-76819681D01*
X101750305Y-76556481D01*
X101769950Y-76527080D01*
X101820984Y-76403874D01*
X101847000Y-76273079D01*
X101847000Y-76139721D01*
X101820984Y-76008926D01*
X101769950Y-75885720D01*
X101695860Y-75774837D01*
X101601563Y-75680540D01*
X101490680Y-75606450D01*
X101367474Y-75555416D01*
X101236679Y-75529400D01*
X101103321Y-75529400D01*
X100972526Y-75555416D01*
X100849320Y-75606450D01*
X100738437Y-75680540D01*
X100644140Y-75774837D01*
X100570050Y-75885720D01*
X100519016Y-76008926D01*
X100493000Y-76139721D01*
X100493000Y-76273079D01*
X100515847Y-76387943D01*
X100473182Y-76392145D01*
X100375855Y-76421669D01*
X100286157Y-76469614D01*
X100207536Y-76534136D01*
X100143014Y-76612757D01*
X100095069Y-76702455D01*
X100065545Y-76799782D01*
X100055576Y-76901000D01*
X100055576Y-77181000D01*
X100065545Y-77282218D01*
X100095069Y-77379545D01*
X100143014Y-77469243D01*
X100185489Y-77521000D01*
X100143014Y-77572757D01*
X100095069Y-77662455D01*
X100065545Y-77759782D01*
X100055576Y-77861000D01*
X100055576Y-78141000D01*
X100065545Y-78242218D01*
X100095069Y-78339545D01*
X100143014Y-78429243D01*
X100157356Y-78446719D01*
X99767395Y-78836682D01*
X99750142Y-78850841D01*
X99700615Y-78911190D01*
X99693658Y-78919667D01*
X99651686Y-78998191D01*
X99625840Y-79083393D01*
X99617113Y-79172000D01*
X99619301Y-79194215D01*
X99619300Y-82146234D01*
X99611516Y-82165026D01*
X99585500Y-82295821D01*
X99469200Y-82295821D01*
X99469200Y-72344405D01*
X99471387Y-72322200D01*
X99462660Y-72233592D01*
X99436814Y-72148390D01*
X99410936Y-72099975D01*
X99394843Y-72069867D01*
X99338359Y-72001041D01*
X99321106Y-71986882D01*
X98882120Y-71547896D01*
X101506201Y-71547896D01*
X101509961Y-71586069D01*
X101509960Y-74337340D01*
X101506201Y-74375504D01*
X101509960Y-74413667D01*
X101509960Y-74413669D01*
X101521203Y-74527822D01*
X101535899Y-74576267D01*
X101565633Y-74674287D01*
X101637783Y-74809270D01*
X101653647Y-74828600D01*
X101734880Y-74927584D01*
X101764529Y-74951916D01*
X103546387Y-76733775D01*
X103546386Y-77907142D01*
X103542627Y-77945306D01*
X103546386Y-77983469D01*
X103546386Y-77983471D01*
X103557629Y-78097624D01*
X103601491Y-78242218D01*
X103602059Y-78244089D01*
X103674209Y-78379072D01*
X103705932Y-78417726D01*
X103771306Y-78497386D01*
X103800956Y-78521719D01*
X103841466Y-78562229D01*
X103930134Y-78634997D01*
X104065117Y-78707147D01*
X104211582Y-78751576D01*
X104363899Y-78766578D01*
X104516218Y-78751576D01*
X104662682Y-78707147D01*
X104797665Y-78634997D01*
X104850449Y-78591678D01*
X104900966Y-78633137D01*
X105035949Y-78705287D01*
X105182414Y-78749716D01*
X105334732Y-78764719D01*
X105487050Y-78749716D01*
X105633515Y-78705287D01*
X105768498Y-78633137D01*
X105857166Y-78560369D01*
X105895818Y-78521717D01*
X105925466Y-78497386D01*
X106022563Y-78379072D01*
X106094713Y-78244090D01*
X106139143Y-78097625D01*
X106150386Y-77983472D01*
X106150386Y-77983470D01*
X106154145Y-77945307D01*
X106150386Y-77907143D01*
X106150386Y-76015157D01*
X106154144Y-75977001D01*
X106150386Y-75938845D01*
X106150386Y-75938836D01*
X106139143Y-75824683D01*
X106094713Y-75678218D01*
X106080158Y-75650987D01*
X106022563Y-75543235D01*
X105949795Y-75454567D01*
X105949794Y-75454566D01*
X105925466Y-75424922D01*
X105895822Y-75400594D01*
X104113960Y-73618733D01*
X104113960Y-72304667D01*
X104636637Y-71781991D01*
X104666280Y-71757664D01*
X104690609Y-71728019D01*
X104763377Y-71639351D01*
X104835527Y-71504368D01*
X104844423Y-71475041D01*
X104879957Y-71357903D01*
X104891200Y-71243750D01*
X104891200Y-71243741D01*
X104894958Y-71205585D01*
X104891200Y-71167429D01*
X104891200Y-68873044D01*
X104992232Y-68772012D01*
X105021880Y-68747681D01*
X105118977Y-68629367D01*
X105191127Y-68494385D01*
X105235557Y-68347920D01*
X105241742Y-68285123D01*
X105303410Y-68223455D01*
X105399387Y-68079815D01*
X105465497Y-67920211D01*
X105499200Y-67750777D01*
X105499200Y-67578023D01*
X105465497Y-67408589D01*
X105399387Y-67248985D01*
X105303410Y-67105345D01*
X105181255Y-66983190D01*
X105046800Y-66893350D01*
X105046800Y-63120734D01*
X105048264Y-63105859D01*
X105788000Y-63105859D01*
X105788000Y-63244141D01*
X105814977Y-63379766D01*
X105867895Y-63507522D01*
X105944721Y-63622499D01*
X106042501Y-63720279D01*
X106157478Y-63797105D01*
X106285234Y-63850023D01*
X106420859Y-63877000D01*
X106559141Y-63877000D01*
X106694766Y-63850023D01*
X106822522Y-63797105D01*
X106937499Y-63720279D01*
X107035279Y-63622499D01*
X107112105Y-63507522D01*
X107165023Y-63379766D01*
X107192000Y-63244141D01*
X107192000Y-63105859D01*
X107165023Y-62970234D01*
X107112105Y-62842478D01*
X107035279Y-62727501D01*
X106937499Y-62629721D01*
X106822522Y-62552895D01*
X106694766Y-62499977D01*
X106559141Y-62473000D01*
X106420859Y-62473000D01*
X106285234Y-62499977D01*
X106157478Y-62552895D01*
X106042501Y-62629721D01*
X105944721Y-62727501D01*
X105867895Y-62842478D01*
X105814977Y-62970234D01*
X105788000Y-63105859D01*
X105048264Y-63105859D01*
X105049590Y-63092405D01*
X105046800Y-63064076D01*
X105046800Y-63064070D01*
X105038450Y-62979294D01*
X105005457Y-62870530D01*
X104951879Y-62770291D01*
X104879774Y-62682432D01*
X104857762Y-62664367D01*
X104710616Y-62517221D01*
X104686921Y-62501388D01*
X104664914Y-62483328D01*
X104639811Y-62469910D01*
X104616112Y-62454075D01*
X104589778Y-62443167D01*
X104564676Y-62429750D01*
X104537435Y-62421486D01*
X104511105Y-62410580D01*
X104483161Y-62405021D01*
X104455911Y-62396755D01*
X104427573Y-62393964D01*
X104399630Y-62388406D01*
X104371131Y-62388406D01*
X104342800Y-62385616D01*
X104314469Y-62388406D01*
X104285970Y-62388406D01*
X104258027Y-62393964D01*
X104229689Y-62396755D01*
X104202439Y-62405021D01*
X104174495Y-62410580D01*
X104148165Y-62421486D01*
X104120924Y-62429750D01*
X104095822Y-62443167D01*
X104069488Y-62454075D01*
X104045789Y-62469910D01*
X104020686Y-62483328D01*
X103998679Y-62501388D01*
X103980719Y-62513389D01*
X103712095Y-62513389D01*
X103623301Y-62454058D01*
X103518294Y-62410563D01*
X103406819Y-62388389D01*
X103293159Y-62388389D01*
X103181684Y-62410563D01*
X103076677Y-62454058D01*
X102982173Y-62517204D01*
X102901804Y-62597573D01*
X102838658Y-62692077D01*
X102795163Y-62797084D01*
X102780175Y-62872431D01*
X102759422Y-62876559D01*
X102731088Y-62879350D01*
X102703842Y-62887615D01*
X102675895Y-62893174D01*
X102649570Y-62904078D01*
X102622324Y-62912343D01*
X102597213Y-62925765D01*
X102570888Y-62936669D01*
X102547200Y-62952497D01*
X102522085Y-62965921D01*
X102500071Y-62983988D01*
X102476384Y-62999815D01*
X102456238Y-63019961D01*
X102434226Y-63038026D01*
X102416162Y-63060037D01*
X102396015Y-63080184D01*
X102380185Y-63103875D01*
X102362121Y-63125886D01*
X102348700Y-63150996D01*
X102332869Y-63174688D01*
X102321963Y-63201017D01*
X102308543Y-63226125D01*
X102300279Y-63253367D01*
X102289374Y-63279695D01*
X102283814Y-63307645D01*
X102275550Y-63334889D01*
X102272759Y-63363221D01*
X102267200Y-63391170D01*
X102267200Y-63419665D01*
X102267201Y-66802491D01*
X102123985Y-66861813D01*
X101980345Y-66957790D01*
X101858190Y-67079945D01*
X101762213Y-67223585D01*
X101696103Y-67383189D01*
X101662400Y-67552623D01*
X101662400Y-67725377D01*
X101696103Y-67894811D01*
X101762213Y-68054415D01*
X101858190Y-68198055D01*
X101980345Y-68320210D01*
X102123985Y-68416187D01*
X102283589Y-68482297D01*
X102287201Y-68483015D01*
X102287200Y-70448812D01*
X101764525Y-70971488D01*
X101734881Y-70995816D01*
X101710553Y-71025460D01*
X101710551Y-71025462D01*
X101637783Y-71114130D01*
X101565633Y-71249113D01*
X101521204Y-71395578D01*
X101506201Y-71547896D01*
X98882120Y-71547896D01*
X95946862Y-68612639D01*
X95929847Y-68527097D01*
X95857000Y-68351230D01*
X95857000Y-66878770D01*
X95929847Y-66702903D01*
X95977000Y-66465849D01*
X95977000Y-66224151D01*
X95929847Y-65987097D01*
X95857000Y-65811230D01*
X95857000Y-64785000D01*
X95854560Y-64760224D01*
X95847333Y-64736399D01*
X95835597Y-64714443D01*
X95819803Y-64695197D01*
X95800557Y-64679403D01*
X95778601Y-64667667D01*
X95754776Y-64660440D01*
X95730000Y-64658000D01*
X93302000Y-64658000D01*
X93302000Y-63105859D01*
X100008000Y-63105859D01*
X100008000Y-63244141D01*
X100034977Y-63379766D01*
X100087895Y-63507522D01*
X100164721Y-63622499D01*
X100262501Y-63720279D01*
X100377478Y-63797105D01*
X100505234Y-63850023D01*
X100640859Y-63877000D01*
X100779141Y-63877000D01*
X100914766Y-63850023D01*
X101042522Y-63797105D01*
X101157499Y-63720279D01*
X101255279Y-63622499D01*
X101332105Y-63507522D01*
X101385023Y-63379766D01*
X101412000Y-63244141D01*
X101412000Y-63105859D01*
X101385023Y-62970234D01*
X101332105Y-62842478D01*
X101255279Y-62727501D01*
X101157499Y-62629721D01*
X101042522Y-62552895D01*
X100914766Y-62499977D01*
X100779141Y-62473000D01*
X100640859Y-62473000D01*
X100505234Y-62499977D01*
X100377478Y-62552895D01*
X100262501Y-62629721D01*
X100164721Y-62727501D01*
X100087895Y-62842478D01*
X100034977Y-62970234D01*
X100008000Y-63105859D01*
X93302000Y-63105859D01*
X93302000Y-62952000D01*
X95730000Y-62952000D01*
X95754776Y-62949560D01*
X95778601Y-62942333D01*
X95800557Y-62930597D01*
X95819803Y-62914803D01*
X95835597Y-62895557D01*
X95847333Y-62873601D01*
X95854560Y-62849776D01*
X95857000Y-62825000D01*
X95857000Y-61798770D01*
X95929847Y-61622903D01*
X95977000Y-61385849D01*
X95977000Y-61144151D01*
X95929847Y-60907097D01*
X95857000Y-60731230D01*
X95857000Y-59258770D01*
X95929847Y-59082903D01*
X95977000Y-58845849D01*
X95977000Y-58604151D01*
X95929847Y-58367097D01*
X95857000Y-58191230D01*
X95857000Y-57627000D01*
X111415825Y-57627000D01*
X111385019Y-57664537D01*
G37*
G04 #@! TD.AperFunction*
D28*
X103576683Y-63957526D02*
X103681690Y-64001021D01*
X103793165Y-64023195D01*
X103892801Y-64023195D01*
X103892800Y-67117286D01*
X103820624Y-67205234D01*
X103748473Y-67340216D01*
X103704043Y-67486681D01*
X103694811Y-67580412D01*
X103616280Y-67484720D01*
X103586630Y-67460387D01*
X103421200Y-67294957D01*
X103421200Y-63898195D01*
X103487889Y-63898195D01*
X103576683Y-63957526D01*
G04 #@! TA.AperFunction,Conductor*
D27*
G36*
X103576683Y-63957526D02*
G01*
X103681690Y-64001021D01*
X103793165Y-64023195D01*
X103892801Y-64023195D01*
X103892800Y-67117286D01*
X103820624Y-67205234D01*
X103748473Y-67340216D01*
X103704043Y-67486681D01*
X103694811Y-67580412D01*
X103616280Y-67484720D01*
X103586630Y-67460387D01*
X103421200Y-67294957D01*
X103421200Y-63898195D01*
X103487889Y-63898195D01*
X103576683Y-63957526D01*
G37*
G04 #@! TD.AperFunction*
D28*
X97965179Y-75664404D02*
X97965178Y-83369317D01*
X97513034Y-83821462D01*
X97495780Y-83835622D01*
X97445564Y-83896811D01*
X97439296Y-83904448D01*
X97397324Y-83982972D01*
X97371478Y-84068174D01*
X97362751Y-84156781D01*
X97364939Y-84178996D01*
X97364938Y-85207681D01*
X97350984Y-85137526D01*
X97299950Y-85014320D01*
X97225860Y-84903437D01*
X97152000Y-84829577D01*
X97152000Y-80097202D01*
X97154187Y-80074999D01*
X97146610Y-79998073D01*
X97145460Y-79986393D01*
X97119614Y-79901190D01*
X97077643Y-79822667D01*
X97021159Y-79753841D01*
X97003911Y-79739687D01*
X96045323Y-78781100D01*
X96031159Y-78763841D01*
X95962333Y-78707357D01*
X95930492Y-78690338D01*
X95929847Y-78687097D01*
X95857000Y-78511230D01*
X95857000Y-77485000D01*
X95854560Y-77460224D01*
X95847333Y-77436399D01*
X95835597Y-77414443D01*
X95819803Y-77395197D01*
X95800557Y-77379403D01*
X95778601Y-77367667D01*
X95754776Y-77360440D01*
X95730000Y-77358000D01*
X93302000Y-77358000D01*
X93302000Y-75652000D01*
X95730000Y-75652000D01*
X95754776Y-75649560D01*
X95778601Y-75642333D01*
X95800557Y-75630597D01*
X95819803Y-75614803D01*
X95835597Y-75595557D01*
X95847333Y-75573601D01*
X95854560Y-75549776D01*
X95857000Y-75525000D01*
X95857000Y-74498770D01*
X95874302Y-74457000D01*
X96757777Y-74457000D01*
X97965179Y-75664404D01*
G04 #@! TA.AperFunction,Conductor*
D27*
G36*
X97965179Y-75664404D02*
G01*
X97965178Y-83369317D01*
X97513034Y-83821462D01*
X97495780Y-83835622D01*
X97445564Y-83896811D01*
X97439296Y-83904448D01*
X97397324Y-83982972D01*
X97371478Y-84068174D01*
X97362751Y-84156781D01*
X97364939Y-84178996D01*
X97364938Y-85207681D01*
X97350984Y-85137526D01*
X97299950Y-85014320D01*
X97225860Y-84903437D01*
X97152000Y-84829577D01*
X97152000Y-80097202D01*
X97154187Y-80074999D01*
X97146610Y-79998073D01*
X97145460Y-79986393D01*
X97119614Y-79901190D01*
X97077643Y-79822667D01*
X97021159Y-79753841D01*
X97003911Y-79739687D01*
X96045323Y-78781100D01*
X96031159Y-78763841D01*
X95962333Y-78707357D01*
X95930492Y-78690338D01*
X95929847Y-78687097D01*
X95857000Y-78511230D01*
X95857000Y-77485000D01*
X95854560Y-77460224D01*
X95847333Y-77436399D01*
X95835597Y-77414443D01*
X95819803Y-77395197D01*
X95800557Y-77379403D01*
X95778601Y-77367667D01*
X95754776Y-77360440D01*
X95730000Y-77358000D01*
X93302000Y-77358000D01*
X93302000Y-75652000D01*
X95730000Y-75652000D01*
X95754776Y-75649560D01*
X95778601Y-75642333D01*
X95800557Y-75630597D01*
X95819803Y-75614803D01*
X95835597Y-75595557D01*
X95847333Y-75573601D01*
X95854560Y-75549776D01*
X95857000Y-75525000D01*
X95857000Y-74498770D01*
X95874302Y-74457000D01*
X96757777Y-74457000D01*
X97965179Y-75664404D01*
G37*
G04 #@! TD.AperFunction*
D28*
X98265190Y-74377334D02*
X98265190Y-74685966D01*
X97280323Y-73701100D01*
X97266159Y-73683841D01*
X97197333Y-73627357D01*
X97118810Y-73585386D01*
X97033607Y-73559540D01*
X96967205Y-73553000D01*
X96945000Y-73550813D01*
X96922795Y-73553000D01*
X95907439Y-73553000D01*
X95857000Y-73431230D01*
X95857000Y-71969142D01*
X98265190Y-74377334D01*
G04 #@! TA.AperFunction,Conductor*
D27*
G36*
X98265190Y-74377334D02*
G01*
X98265190Y-74685966D01*
X97280323Y-73701100D01*
X97266159Y-73683841D01*
X97197333Y-73627357D01*
X97118810Y-73585386D01*
X97033607Y-73559540D01*
X96967205Y-73553000D01*
X96945000Y-73550813D01*
X96922795Y-73553000D01*
X95907439Y-73553000D01*
X95857000Y-73431230D01*
X95857000Y-71969142D01*
X98265190Y-74377334D01*
G37*
G04 #@! TD.AperFunction*
D28*
X98565200Y-72509424D02*
X98565200Y-73398894D01*
X96287404Y-71121100D01*
X96273240Y-71103841D01*
X96204414Y-71047357D01*
X96125891Y-71005386D01*
X96040688Y-70979540D01*
X95974286Y-70973000D01*
X95952081Y-70970813D01*
X95929876Y-70973000D01*
X95890871Y-70973000D01*
X95857000Y-70891229D01*
X95857000Y-69801223D01*
X98565200Y-72509424D01*
G04 #@! TA.AperFunction,Conductor*
D27*
G36*
X98565200Y-72509424D02*
G01*
X98565200Y-73398894D01*
X96287404Y-71121100D01*
X96273240Y-71103841D01*
X96204414Y-71047357D01*
X96125891Y-71005386D01*
X96040688Y-70979540D01*
X95974286Y-70973000D01*
X95952081Y-70970813D01*
X95929876Y-70973000D01*
X95890871Y-70973000D01*
X95857000Y-70891229D01*
X95857000Y-69801223D01*
X98565200Y-72509424D01*
G37*
G04 #@! TD.AperFunction*
M02*
