G04 #@! TF.GenerationSoftware,KiCad,Pcbnew,(5.1.10)-1*
G04 #@! TF.CreationDate,2021-08-13T11:53:03+01:00*
G04 #@! TF.ProjectId,EnvOpenPico,456e764f-7065-46e5-9069-636f2e6b6963,REV1*
G04 #@! TF.SameCoordinates,Original*
G04 #@! TF.FileFunction,Soldermask,Top*
G04 #@! TF.FilePolarity,Negative*
%FSLAX46Y46*%
G04 Gerber Fmt 4.6, Leading zero omitted, Abs format (unit mm)*
G04 Created by KiCad (PCBNEW (5.1.10)-1) date 2021-08-13 11:53:03*
%MOMM*%
%LPD*%
G01*
G04 APERTURE LIST*
%ADD10C,0.150000*%
%ADD11O,1.802000X1.802000*%
%ADD12C,1.802000*%
%ADD13C,0.752000*%
G04 APERTURE END LIST*
G36*
G01*
X110398750Y-60254800D02*
X109835250Y-60254800D01*
G75*
G02*
X109591000Y-60010550I0J244250D01*
G01*
X109591000Y-59522050D01*
G75*
G02*
X109835250Y-59277800I244250J0D01*
G01*
X110398750Y-59277800D01*
G75*
G02*
X110643000Y-59522050I0J-244250D01*
G01*
X110643000Y-60010550D01*
G75*
G02*
X110398750Y-60254800I-244250J0D01*
G01*
G37*
G36*
G01*
X110398750Y-61829800D02*
X109835250Y-61829800D01*
G75*
G02*
X109591000Y-61585550I0J244250D01*
G01*
X109591000Y-61097050D01*
G75*
G02*
X109835250Y-60852800I244250J0D01*
G01*
X110398750Y-60852800D01*
G75*
G02*
X110643000Y-61097050I0J-244250D01*
G01*
X110643000Y-61585550D01*
G75*
G02*
X110398750Y-61829800I-244250J0D01*
G01*
G37*
G36*
G01*
X102059800Y-66410000D02*
X101638800Y-66410000D01*
G75*
G02*
X101478300Y-66249500I0J160500D01*
G01*
X101478300Y-65928500D01*
G75*
G02*
X101638800Y-65768000I160500J0D01*
G01*
X102059800Y-65768000D01*
G75*
G02*
X102220300Y-65928500I0J-160500D01*
G01*
X102220300Y-66249500D01*
G75*
G02*
X102059800Y-66410000I-160500J0D01*
G01*
G37*
G36*
G01*
X102059800Y-67430000D02*
X101638800Y-67430000D01*
G75*
G02*
X101478300Y-67269500I0J160500D01*
G01*
X101478300Y-66948500D01*
G75*
G02*
X101638800Y-66788000I160500J0D01*
G01*
X102059800Y-66788000D01*
G75*
G02*
X102220300Y-66948500I0J-160500D01*
G01*
X102220300Y-67269500D01*
G75*
G02*
X102059800Y-67430000I-160500J0D01*
G01*
G37*
G36*
G01*
X109829120Y-80871180D02*
X109829120Y-80480180D01*
G75*
G02*
X109994620Y-80314680I165500J0D01*
G01*
X110325620Y-80314680D01*
G75*
G02*
X110491120Y-80480180I0J-165500D01*
G01*
X110491120Y-80871180D01*
G75*
G02*
X110325620Y-81036680I-165500J0D01*
G01*
X109994620Y-81036680D01*
G75*
G02*
X109829120Y-80871180I0J165500D01*
G01*
G37*
G36*
G01*
X108869120Y-80871180D02*
X108869120Y-80480180D01*
G75*
G02*
X109034620Y-80314680I165500J0D01*
G01*
X109365620Y-80314680D01*
G75*
G02*
X109531120Y-80480180I0J-165500D01*
G01*
X109531120Y-80871180D01*
G75*
G02*
X109365620Y-81036680I-165500J0D01*
G01*
X109034620Y-81036680D01*
G75*
G02*
X108869120Y-80871180I0J165500D01*
G01*
G37*
G36*
G01*
X109826580Y-82098000D02*
X109826580Y-81707000D01*
G75*
G02*
X109992080Y-81541500I165500J0D01*
G01*
X110323080Y-81541500D01*
G75*
G02*
X110488580Y-81707000I0J-165500D01*
G01*
X110488580Y-82098000D01*
G75*
G02*
X110323080Y-82263500I-165500J0D01*
G01*
X109992080Y-82263500D01*
G75*
G02*
X109826580Y-82098000I0J165500D01*
G01*
G37*
G36*
G01*
X108866580Y-82098000D02*
X108866580Y-81707000D01*
G75*
G02*
X109032080Y-81541500I165500J0D01*
G01*
X109363080Y-81541500D01*
G75*
G02*
X109528580Y-81707000I0J-165500D01*
G01*
X109528580Y-82098000D01*
G75*
G02*
X109363080Y-82263500I-165500J0D01*
G01*
X109032080Y-82263500D01*
G75*
G02*
X108866580Y-82098000I0J165500D01*
G01*
G37*
G36*
G01*
X101300560Y-80199860D02*
X99700560Y-80199860D01*
G75*
G02*
X99649560Y-80148860I0J51000D01*
G01*
X99649560Y-78748860D01*
G75*
G02*
X99700560Y-78697860I51000J0D01*
G01*
X101300560Y-78697860D01*
G75*
G02*
X101351560Y-78748860I0J-51000D01*
G01*
X101351560Y-80148860D01*
G75*
G02*
X101300560Y-80199860I-51000J0D01*
G01*
G37*
G36*
G01*
X99863560Y-78474860D02*
X99637560Y-78474860D01*
G75*
G02*
X99524560Y-78361860I0J113000D01*
G01*
X99524560Y-77960860D01*
G75*
G02*
X99637560Y-77847860I113000J0D01*
G01*
X99863560Y-77847860D01*
G75*
G02*
X99976560Y-77960860I0J-113000D01*
G01*
X99976560Y-78361860D01*
G75*
G02*
X99863560Y-78474860I-113000J0D01*
G01*
G37*
G36*
G01*
X100363560Y-78474860D02*
X100137560Y-78474860D01*
G75*
G02*
X100024560Y-78361860I0J113000D01*
G01*
X100024560Y-77960860D01*
G75*
G02*
X100137560Y-77847860I113000J0D01*
G01*
X100363560Y-77847860D01*
G75*
G02*
X100476560Y-77960860I0J-113000D01*
G01*
X100476560Y-78361860D01*
G75*
G02*
X100363560Y-78474860I-113000J0D01*
G01*
G37*
G36*
G01*
X100863560Y-78474860D02*
X100637560Y-78474860D01*
G75*
G02*
X100524560Y-78361860I0J113000D01*
G01*
X100524560Y-77960860D01*
G75*
G02*
X100637560Y-77847860I113000J0D01*
G01*
X100863560Y-77847860D01*
G75*
G02*
X100976560Y-77960860I0J-113000D01*
G01*
X100976560Y-78361860D01*
G75*
G02*
X100863560Y-78474860I-113000J0D01*
G01*
G37*
G36*
G01*
X101363560Y-78474860D02*
X101137560Y-78474860D01*
G75*
G02*
X101024560Y-78361860I0J113000D01*
G01*
X101024560Y-77960860D01*
G75*
G02*
X101137560Y-77847860I113000J0D01*
G01*
X101363560Y-77847860D01*
G75*
G02*
X101476560Y-77960860I0J-113000D01*
G01*
X101476560Y-78361860D01*
G75*
G02*
X101363560Y-78474860I-113000J0D01*
G01*
G37*
G36*
G01*
X101363560Y-81049860D02*
X101137560Y-81049860D01*
G75*
G02*
X101024560Y-80936860I0J113000D01*
G01*
X101024560Y-80535860D01*
G75*
G02*
X101137560Y-80422860I113000J0D01*
G01*
X101363560Y-80422860D01*
G75*
G02*
X101476560Y-80535860I0J-113000D01*
G01*
X101476560Y-80936860D01*
G75*
G02*
X101363560Y-81049860I-113000J0D01*
G01*
G37*
G36*
G01*
X100863560Y-81049860D02*
X100637560Y-81049860D01*
G75*
G02*
X100524560Y-80936860I0J113000D01*
G01*
X100524560Y-80535860D01*
G75*
G02*
X100637560Y-80422860I113000J0D01*
G01*
X100863560Y-80422860D01*
G75*
G02*
X100976560Y-80535860I0J-113000D01*
G01*
X100976560Y-80936860D01*
G75*
G02*
X100863560Y-81049860I-113000J0D01*
G01*
G37*
G36*
G01*
X100363560Y-81049860D02*
X100137560Y-81049860D01*
G75*
G02*
X100024560Y-80936860I0J113000D01*
G01*
X100024560Y-80535860D01*
G75*
G02*
X100137560Y-80422860I113000J0D01*
G01*
X100363560Y-80422860D01*
G75*
G02*
X100476560Y-80535860I0J-113000D01*
G01*
X100476560Y-80936860D01*
G75*
G02*
X100363560Y-81049860I-113000J0D01*
G01*
G37*
G36*
G01*
X99863560Y-81049860D02*
X99637560Y-81049860D01*
G75*
G02*
X99524560Y-80936860I0J113000D01*
G01*
X99524560Y-80535860D01*
G75*
G02*
X99637560Y-80422860I113000J0D01*
G01*
X99863560Y-80422860D01*
G75*
G02*
X99976560Y-80535860I0J-113000D01*
G01*
X99976560Y-80936860D01*
G75*
G02*
X99863560Y-81049860I-113000J0D01*
G01*
G37*
G36*
G01*
X109707140Y-72837160D02*
X109707140Y-72446160D01*
G75*
G02*
X109872640Y-72280660I165500J0D01*
G01*
X110203640Y-72280660D01*
G75*
G02*
X110369140Y-72446160I0J-165500D01*
G01*
X110369140Y-72837160D01*
G75*
G02*
X110203640Y-73002660I-165500J0D01*
G01*
X109872640Y-73002660D01*
G75*
G02*
X109707140Y-72837160I0J165500D01*
G01*
G37*
G36*
G01*
X108747140Y-72837160D02*
X108747140Y-72446160D01*
G75*
G02*
X108912640Y-72280660I165500J0D01*
G01*
X109243640Y-72280660D01*
G75*
G02*
X109409140Y-72446160I0J-165500D01*
G01*
X109409140Y-72837160D01*
G75*
G02*
X109243640Y-73002660I-165500J0D01*
G01*
X108912640Y-73002660D01*
G75*
G02*
X108747140Y-72837160I0J165500D01*
G01*
G37*
G36*
G01*
X108691600Y-65458500D02*
X108691600Y-66009500D01*
G75*
G02*
X108441100Y-66260000I-250500J0D01*
G01*
X107940100Y-66260000D01*
G75*
G02*
X107689600Y-66009500I0J250500D01*
G01*
X107689600Y-65458500D01*
G75*
G02*
X107940100Y-65208000I250500J0D01*
G01*
X108441100Y-65208000D01*
G75*
G02*
X108691600Y-65458500I0J-250500D01*
G01*
G37*
G36*
G01*
X110241600Y-65458500D02*
X110241600Y-66009500D01*
G75*
G02*
X109991100Y-66260000I-250500J0D01*
G01*
X109490100Y-66260000D01*
G75*
G02*
X109239600Y-66009500I0J250500D01*
G01*
X109239600Y-65458500D01*
G75*
G02*
X109490100Y-65208000I250500J0D01*
G01*
X109991100Y-65208000D01*
G75*
G02*
X110241600Y-65458500I0J-250500D01*
G01*
G37*
G36*
G01*
X110160500Y-79206600D02*
X110581500Y-79206600D01*
G75*
G02*
X110742000Y-79367100I0J-160500D01*
G01*
X110742000Y-79688100D01*
G75*
G02*
X110581500Y-79848600I-160500J0D01*
G01*
X110160500Y-79848600D01*
G75*
G02*
X110000000Y-79688100I0J160500D01*
G01*
X110000000Y-79367100D01*
G75*
G02*
X110160500Y-79206600I160500J0D01*
G01*
G37*
G36*
G01*
X110160500Y-78186600D02*
X110581500Y-78186600D01*
G75*
G02*
X110742000Y-78347100I0J-160500D01*
G01*
X110742000Y-78668100D01*
G75*
G02*
X110581500Y-78828600I-160500J0D01*
G01*
X110160500Y-78828600D01*
G75*
G02*
X110000000Y-78668100I0J160500D01*
G01*
X110000000Y-78347100D01*
G75*
G02*
X110160500Y-78186600I160500J0D01*
G01*
G37*
G36*
G01*
X110070500Y-76396400D02*
X110671500Y-76396400D01*
G75*
G02*
X110897000Y-76621900I0J-225500D01*
G01*
X110897000Y-77072900D01*
G75*
G02*
X110671500Y-77298400I-225500J0D01*
G01*
X110070500Y-77298400D01*
G75*
G02*
X109845000Y-77072900I0J225500D01*
G01*
X109845000Y-76621900D01*
G75*
G02*
X110070500Y-76396400I225500J0D01*
G01*
G37*
G36*
G01*
X110070500Y-74746400D02*
X110671500Y-74746400D01*
G75*
G02*
X110897000Y-74971900I0J-225500D01*
G01*
X110897000Y-75422900D01*
G75*
G02*
X110671500Y-75648400I-225500J0D01*
G01*
X110070500Y-75648400D01*
G75*
G02*
X109845000Y-75422900I0J225500D01*
G01*
X109845000Y-74971900D01*
G75*
G02*
X110070500Y-74746400I225500J0D01*
G01*
G37*
G36*
G01*
X100147500Y-75474600D02*
X98496500Y-75474600D01*
G75*
G02*
X98271000Y-75249100I0J225500D01*
G01*
X98271000Y-74798100D01*
G75*
G02*
X98496500Y-74572600I225500J0D01*
G01*
X100147500Y-74572600D01*
G75*
G02*
X100373000Y-74798100I0J-225500D01*
G01*
X100373000Y-75249100D01*
G75*
G02*
X100147500Y-75474600I-225500J0D01*
G01*
G37*
G36*
G01*
X100147500Y-71274600D02*
X98496500Y-71274600D01*
G75*
G02*
X98271000Y-71049100I0J225500D01*
G01*
X98271000Y-70598100D01*
G75*
G02*
X98496500Y-70372600I225500J0D01*
G01*
X100147500Y-70372600D01*
G75*
G02*
X100373000Y-70598100I0J-225500D01*
G01*
X100373000Y-71049100D01*
G75*
G02*
X100147500Y-71274600I-225500J0D01*
G01*
G37*
G36*
G01*
X99916280Y-76518560D02*
X99525280Y-76518560D01*
G75*
G02*
X99359780Y-76353060I0J165500D01*
G01*
X99359780Y-76022060D01*
G75*
G02*
X99525280Y-75856560I165500J0D01*
G01*
X99916280Y-75856560D01*
G75*
G02*
X100081780Y-76022060I0J-165500D01*
G01*
X100081780Y-76353060D01*
G75*
G02*
X99916280Y-76518560I-165500J0D01*
G01*
G37*
G36*
G01*
X99916280Y-77478560D02*
X99525280Y-77478560D01*
G75*
G02*
X99359780Y-77313060I0J165500D01*
G01*
X99359780Y-76982060D01*
G75*
G02*
X99525280Y-76816560I165500J0D01*
G01*
X99916280Y-76816560D01*
G75*
G02*
X100081780Y-76982060I0J-165500D01*
G01*
X100081780Y-77313060D01*
G75*
G02*
X99916280Y-77478560I-165500J0D01*
G01*
G37*
G36*
G01*
X108058560Y-67277500D02*
X108058560Y-67698500D01*
G75*
G02*
X107898060Y-67859000I-160500J0D01*
G01*
X107577060Y-67859000D01*
G75*
G02*
X107416560Y-67698500I0J160500D01*
G01*
X107416560Y-67277500D01*
G75*
G02*
X107577060Y-67117000I160500J0D01*
G01*
X107898060Y-67117000D01*
G75*
G02*
X108058560Y-67277500I0J-160500D01*
G01*
G37*
G36*
G01*
X109078560Y-67277500D02*
X109078560Y-67698500D01*
G75*
G02*
X108918060Y-67859000I-160500J0D01*
G01*
X108597060Y-67859000D01*
G75*
G02*
X108436560Y-67698500I0J160500D01*
G01*
X108436560Y-67277500D01*
G75*
G02*
X108597060Y-67117000I160500J0D01*
G01*
X108918060Y-67117000D01*
G75*
G02*
X109078560Y-67277500I0J-160500D01*
G01*
G37*
G36*
G01*
X109768250Y-70949000D02*
X110581750Y-70949000D01*
G75*
G02*
X110826000Y-71193250I0J-244250D01*
G01*
X110826000Y-71681750D01*
G75*
G02*
X110581750Y-71926000I-244250J0D01*
G01*
X109768250Y-71926000D01*
G75*
G02*
X109524000Y-71681750I0J244250D01*
G01*
X109524000Y-71193250D01*
G75*
G02*
X109768250Y-70949000I244250J0D01*
G01*
G37*
G36*
G01*
X109768250Y-68824000D02*
X110581750Y-68824000D01*
G75*
G02*
X110826000Y-69068250I0J-244250D01*
G01*
X110826000Y-69556750D01*
G75*
G02*
X110581750Y-69801000I-244250J0D01*
G01*
X109768250Y-69801000D01*
G75*
G02*
X109524000Y-69556750I0J244250D01*
G01*
X109524000Y-69068250D01*
G75*
G02*
X109768250Y-68824000I244250J0D01*
G01*
G37*
D10*
G36*
X107415050Y-71925020D02*
G01*
X107405483Y-71922118D01*
X107396666Y-71917405D01*
X107388938Y-71911062D01*
X107382595Y-71903334D01*
X107377882Y-71894517D01*
X107374980Y-71884950D01*
X107374000Y-71875000D01*
X107374000Y-71426000D01*
X107226000Y-71426000D01*
X107226000Y-71875000D01*
X107225020Y-71884950D01*
X107222118Y-71894517D01*
X107217405Y-71903334D01*
X107211062Y-71911062D01*
X107203334Y-71917405D01*
X107194517Y-71922118D01*
X107184950Y-71925020D01*
X107175000Y-71926000D01*
X106925000Y-71926000D01*
X106915050Y-71925020D01*
X106905483Y-71922118D01*
X106896666Y-71917405D01*
X106888938Y-71911062D01*
X106882595Y-71903334D01*
X106877882Y-71894517D01*
X106874980Y-71884950D01*
X106874000Y-71875000D01*
X106874000Y-71426000D01*
X106475000Y-71426000D01*
X106465050Y-71425020D01*
X106455483Y-71422118D01*
X106446666Y-71417405D01*
X106438938Y-71411062D01*
X106432595Y-71403334D01*
X106427882Y-71394517D01*
X106424980Y-71384950D01*
X106424000Y-71375000D01*
X106424000Y-68975000D01*
X106424980Y-68965050D01*
X106427882Y-68955483D01*
X106432595Y-68946666D01*
X106438938Y-68938938D01*
X106446666Y-68932595D01*
X106455483Y-68927882D01*
X106465050Y-68924980D01*
X106475000Y-68924000D01*
X106874000Y-68924000D01*
X106874000Y-68475000D01*
X106874980Y-68465050D01*
X106877882Y-68455483D01*
X106882595Y-68446666D01*
X106888938Y-68438938D01*
X106896666Y-68432595D01*
X106905483Y-68427882D01*
X106915050Y-68424980D01*
X106925000Y-68424000D01*
X107175000Y-68424000D01*
X107184950Y-68424980D01*
X107194517Y-68427882D01*
X107203334Y-68432595D01*
X107211062Y-68438938D01*
X107217405Y-68446666D01*
X107222118Y-68455483D01*
X107225020Y-68465050D01*
X107226000Y-68475000D01*
X107226000Y-68924000D01*
X107374000Y-68924000D01*
X107374000Y-68475000D01*
X107374980Y-68465050D01*
X107377882Y-68455483D01*
X107382595Y-68446666D01*
X107388938Y-68438938D01*
X107396666Y-68432595D01*
X107405483Y-68427882D01*
X107415050Y-68424980D01*
X107425000Y-68424000D01*
X107675000Y-68424000D01*
X107684950Y-68424980D01*
X107694517Y-68427882D01*
X107703334Y-68432595D01*
X107711062Y-68438938D01*
X107717405Y-68446666D01*
X107722118Y-68455483D01*
X107725020Y-68465050D01*
X107726000Y-68475000D01*
X107726000Y-68924000D01*
X108125000Y-68924000D01*
X108134950Y-68924980D01*
X108144517Y-68927882D01*
X108153334Y-68932595D01*
X108161062Y-68938938D01*
X108167405Y-68946666D01*
X108172118Y-68955483D01*
X108175020Y-68965050D01*
X108176000Y-68975000D01*
X108176000Y-71375000D01*
X108175020Y-71384950D01*
X108172118Y-71394517D01*
X108167405Y-71403334D01*
X108161062Y-71411062D01*
X108153334Y-71417405D01*
X108144517Y-71422118D01*
X108134950Y-71425020D01*
X108125000Y-71426000D01*
X107726000Y-71426000D01*
X107726000Y-71875000D01*
X107725020Y-71884950D01*
X107722118Y-71894517D01*
X107717405Y-71903334D01*
X107711062Y-71911062D01*
X107703334Y-71917405D01*
X107694517Y-71922118D01*
X107684950Y-71925020D01*
X107675000Y-71926000D01*
X107425000Y-71926000D01*
X107415050Y-71925020D01*
G37*
G36*
G01*
X106251000Y-71055000D02*
X106251000Y-71295000D01*
G75*
G02*
X106200000Y-71346000I-51000J0D01*
G01*
X105600000Y-71346000D01*
G75*
G02*
X105549000Y-71295000I0J51000D01*
G01*
X105549000Y-71055000D01*
G75*
G02*
X105600000Y-71004000I51000J0D01*
G01*
X106200000Y-71004000D01*
G75*
G02*
X106251000Y-71055000I0J-51000D01*
G01*
G37*
G36*
G01*
X106251000Y-70555000D02*
X106251000Y-70795000D01*
G75*
G02*
X106200000Y-70846000I-51000J0D01*
G01*
X105600000Y-70846000D01*
G75*
G02*
X105549000Y-70795000I0J51000D01*
G01*
X105549000Y-70555000D01*
G75*
G02*
X105600000Y-70504000I51000J0D01*
G01*
X106200000Y-70504000D01*
G75*
G02*
X106251000Y-70555000I0J-51000D01*
G01*
G37*
G36*
G01*
X106251000Y-70055000D02*
X106251000Y-70295000D01*
G75*
G02*
X106200000Y-70346000I-51000J0D01*
G01*
X105600000Y-70346000D01*
G75*
G02*
X105549000Y-70295000I0J51000D01*
G01*
X105549000Y-70055000D01*
G75*
G02*
X105600000Y-70004000I51000J0D01*
G01*
X106200000Y-70004000D01*
G75*
G02*
X106251000Y-70055000I0J-51000D01*
G01*
G37*
G36*
G01*
X106251000Y-69555000D02*
X106251000Y-69795000D01*
G75*
G02*
X106200000Y-69846000I-51000J0D01*
G01*
X105600000Y-69846000D01*
G75*
G02*
X105549000Y-69795000I0J51000D01*
G01*
X105549000Y-69555000D01*
G75*
G02*
X105600000Y-69504000I51000J0D01*
G01*
X106200000Y-69504000D01*
G75*
G02*
X106251000Y-69555000I0J-51000D01*
G01*
G37*
G36*
G01*
X106251000Y-69055000D02*
X106251000Y-69295000D01*
G75*
G02*
X106200000Y-69346000I-51000J0D01*
G01*
X105600000Y-69346000D01*
G75*
G02*
X105549000Y-69295000I0J51000D01*
G01*
X105549000Y-69055000D01*
G75*
G02*
X105600000Y-69004000I51000J0D01*
G01*
X106200000Y-69004000D01*
G75*
G02*
X106251000Y-69055000I0J-51000D01*
G01*
G37*
G36*
G01*
X109051000Y-69055000D02*
X109051000Y-69295000D01*
G75*
G02*
X109000000Y-69346000I-51000J0D01*
G01*
X108400000Y-69346000D01*
G75*
G02*
X108349000Y-69295000I0J51000D01*
G01*
X108349000Y-69055000D01*
G75*
G02*
X108400000Y-69004000I51000J0D01*
G01*
X109000000Y-69004000D01*
G75*
G02*
X109051000Y-69055000I0J-51000D01*
G01*
G37*
G36*
G01*
X109051000Y-69555000D02*
X109051000Y-69795000D01*
G75*
G02*
X109000000Y-69846000I-51000J0D01*
G01*
X108400000Y-69846000D01*
G75*
G02*
X108349000Y-69795000I0J51000D01*
G01*
X108349000Y-69555000D01*
G75*
G02*
X108400000Y-69504000I51000J0D01*
G01*
X109000000Y-69504000D01*
G75*
G02*
X109051000Y-69555000I0J-51000D01*
G01*
G37*
G36*
G01*
X109051000Y-70055000D02*
X109051000Y-70295000D01*
G75*
G02*
X109000000Y-70346000I-51000J0D01*
G01*
X108400000Y-70346000D01*
G75*
G02*
X108349000Y-70295000I0J51000D01*
G01*
X108349000Y-70055000D01*
G75*
G02*
X108400000Y-70004000I51000J0D01*
G01*
X109000000Y-70004000D01*
G75*
G02*
X109051000Y-70055000I0J-51000D01*
G01*
G37*
G36*
G01*
X109051000Y-70555000D02*
X109051000Y-70795000D01*
G75*
G02*
X109000000Y-70846000I-51000J0D01*
G01*
X108400000Y-70846000D01*
G75*
G02*
X108349000Y-70795000I0J51000D01*
G01*
X108349000Y-70555000D01*
G75*
G02*
X108400000Y-70504000I51000J0D01*
G01*
X109000000Y-70504000D01*
G75*
G02*
X109051000Y-70555000I0J-51000D01*
G01*
G37*
G36*
G01*
X109051000Y-71055000D02*
X109051000Y-71295000D01*
G75*
G02*
X109000000Y-71346000I-51000J0D01*
G01*
X108400000Y-71346000D01*
G75*
G02*
X108349000Y-71295000I0J51000D01*
G01*
X108349000Y-71055000D01*
G75*
G02*
X108400000Y-71004000I51000J0D01*
G01*
X109000000Y-71004000D01*
G75*
G02*
X109051000Y-71055000I0J-51000D01*
G01*
G37*
G36*
G01*
X104130300Y-71142200D02*
X104521300Y-71142200D01*
G75*
G02*
X104686800Y-71307700I0J-165500D01*
G01*
X104686800Y-71638700D01*
G75*
G02*
X104521300Y-71804200I-165500J0D01*
G01*
X104130300Y-71804200D01*
G75*
G02*
X103964800Y-71638700I0J165500D01*
G01*
X103964800Y-71307700D01*
G75*
G02*
X104130300Y-71142200I165500J0D01*
G01*
G37*
G36*
G01*
X104130300Y-70182200D02*
X104521300Y-70182200D01*
G75*
G02*
X104686800Y-70347700I0J-165500D01*
G01*
X104686800Y-70678700D01*
G75*
G02*
X104521300Y-70844200I-165500J0D01*
G01*
X104130300Y-70844200D01*
G75*
G02*
X103964800Y-70678700I0J165500D01*
G01*
X103964800Y-70347700D01*
G75*
G02*
X104130300Y-70182200I165500J0D01*
G01*
G37*
G36*
G01*
X107062240Y-73104020D02*
X107062240Y-73495020D01*
G75*
G02*
X106896740Y-73660520I-165500J0D01*
G01*
X106565740Y-73660520D01*
G75*
G02*
X106400240Y-73495020I0J165500D01*
G01*
X106400240Y-73104020D01*
G75*
G02*
X106565740Y-72938520I165500J0D01*
G01*
X106896740Y-72938520D01*
G75*
G02*
X107062240Y-73104020I0J-165500D01*
G01*
G37*
G36*
G01*
X108022240Y-73104020D02*
X108022240Y-73495020D01*
G75*
G02*
X107856740Y-73660520I-165500J0D01*
G01*
X107525740Y-73660520D01*
G75*
G02*
X107360240Y-73495020I0J165500D01*
G01*
X107360240Y-73104020D01*
G75*
G02*
X107525740Y-72938520I165500J0D01*
G01*
X107856740Y-72938520D01*
G75*
G02*
X108022240Y-73104020I0J-165500D01*
G01*
G37*
G36*
G01*
X105139260Y-78612960D02*
X105530260Y-78612960D01*
G75*
G02*
X105695760Y-78778460I0J-165500D01*
G01*
X105695760Y-79109460D01*
G75*
G02*
X105530260Y-79274960I-165500J0D01*
G01*
X105139260Y-79274960D01*
G75*
G02*
X104973760Y-79109460I0J165500D01*
G01*
X104973760Y-78778460D01*
G75*
G02*
X105139260Y-78612960I165500J0D01*
G01*
G37*
G36*
G01*
X105139260Y-77652960D02*
X105530260Y-77652960D01*
G75*
G02*
X105695760Y-77818460I0J-165500D01*
G01*
X105695760Y-78149460D01*
G75*
G02*
X105530260Y-78314960I-165500J0D01*
G01*
X105139260Y-78314960D01*
G75*
G02*
X104973760Y-78149460I0J165500D01*
G01*
X104973760Y-77818460D01*
G75*
G02*
X105139260Y-77652960I165500J0D01*
G01*
G37*
G36*
G01*
X104399380Y-81151400D02*
X104008380Y-81151400D01*
G75*
G02*
X103842880Y-80985900I0J165500D01*
G01*
X103842880Y-80654900D01*
G75*
G02*
X104008380Y-80489400I165500J0D01*
G01*
X104399380Y-80489400D01*
G75*
G02*
X104564880Y-80654900I0J-165500D01*
G01*
X104564880Y-80985900D01*
G75*
G02*
X104399380Y-81151400I-165500J0D01*
G01*
G37*
G36*
G01*
X104399380Y-80191400D02*
X104008380Y-80191400D01*
G75*
G02*
X103842880Y-80025900I0J165500D01*
G01*
X103842880Y-79694900D01*
G75*
G02*
X104008380Y-79529400I165500J0D01*
G01*
X104399380Y-79529400D01*
G75*
G02*
X104564880Y-79694900I0J-165500D01*
G01*
X104564880Y-80025900D01*
G75*
G02*
X104399380Y-80191400I-165500J0D01*
G01*
G37*
G36*
G01*
X105928460Y-80767980D02*
X105537460Y-80767980D01*
G75*
G02*
X105371960Y-80602480I0J165500D01*
G01*
X105371960Y-80271480D01*
G75*
G02*
X105537460Y-80105980I165500J0D01*
G01*
X105928460Y-80105980D01*
G75*
G02*
X106093960Y-80271480I0J-165500D01*
G01*
X106093960Y-80602480D01*
G75*
G02*
X105928460Y-80767980I-165500J0D01*
G01*
G37*
G36*
G01*
X105928460Y-81727980D02*
X105537460Y-81727980D01*
G75*
G02*
X105371960Y-81562480I0J165500D01*
G01*
X105371960Y-81231480D01*
G75*
G02*
X105537460Y-81065980I165500J0D01*
G01*
X105928460Y-81065980D01*
G75*
G02*
X106093960Y-81231480I0J-165500D01*
G01*
X106093960Y-81562480D01*
G75*
G02*
X105928460Y-81727980I-165500J0D01*
G01*
G37*
G36*
G01*
X103401160Y-80191400D02*
X103010160Y-80191400D01*
G75*
G02*
X102844660Y-80025900I0J165500D01*
G01*
X102844660Y-79694900D01*
G75*
G02*
X103010160Y-79529400I165500J0D01*
G01*
X103401160Y-79529400D01*
G75*
G02*
X103566660Y-79694900I0J-165500D01*
G01*
X103566660Y-80025900D01*
G75*
G02*
X103401160Y-80191400I-165500J0D01*
G01*
G37*
G36*
G01*
X103401160Y-81151400D02*
X103010160Y-81151400D01*
G75*
G02*
X102844660Y-80985900I0J165500D01*
G01*
X102844660Y-80654900D01*
G75*
G02*
X103010160Y-80489400I165500J0D01*
G01*
X103401160Y-80489400D01*
G75*
G02*
X103566660Y-80654900I0J-165500D01*
G01*
X103566660Y-80985900D01*
G75*
G02*
X103401160Y-81151400I-165500J0D01*
G01*
G37*
D11*
X112550000Y-106985000D03*
X112550000Y-104445000D03*
G36*
G01*
X113451000Y-101055000D02*
X113451000Y-102755000D01*
G75*
G02*
X113400000Y-102806000I-51000J0D01*
G01*
X111700000Y-102806000D01*
G75*
G02*
X111649000Y-102755000I0J51000D01*
G01*
X111649000Y-101055000D01*
G75*
G02*
X111700000Y-101004000I51000J0D01*
G01*
X113400000Y-101004000D01*
G75*
G02*
X113451000Y-101055000I0J-51000D01*
G01*
G37*
X112550000Y-99365000D03*
X112550000Y-96825000D03*
X112550000Y-94285000D03*
X112550000Y-91745000D03*
G36*
G01*
X113451000Y-88355000D02*
X113451000Y-90055000D01*
G75*
G02*
X113400000Y-90106000I-51000J0D01*
G01*
X111700000Y-90106000D01*
G75*
G02*
X111649000Y-90055000I0J51000D01*
G01*
X111649000Y-88355000D01*
G75*
G02*
X111700000Y-88304000I51000J0D01*
G01*
X113400000Y-88304000D01*
G75*
G02*
X113451000Y-88355000I0J-51000D01*
G01*
G37*
X112550000Y-86665000D03*
X112550000Y-84125000D03*
X112550000Y-81585000D03*
X112550000Y-79045000D03*
G36*
G01*
X113451000Y-75655000D02*
X113451000Y-77355000D01*
G75*
G02*
X113400000Y-77406000I-51000J0D01*
G01*
X111700000Y-77406000D01*
G75*
G02*
X111649000Y-77355000I0J51000D01*
G01*
X111649000Y-75655000D01*
G75*
G02*
X111700000Y-75604000I51000J0D01*
G01*
X113400000Y-75604000D01*
G75*
G02*
X113451000Y-75655000I0J-51000D01*
G01*
G37*
X112550000Y-73965000D03*
X112550000Y-71425000D03*
X112550000Y-68885000D03*
X112550000Y-66345000D03*
G36*
G01*
X113451000Y-62955000D02*
X113451000Y-64655000D01*
G75*
G02*
X113400000Y-64706000I-51000J0D01*
G01*
X111700000Y-64706000D01*
G75*
G02*
X111649000Y-64655000I0J51000D01*
G01*
X111649000Y-62955000D01*
G75*
G02*
X111700000Y-62904000I51000J0D01*
G01*
X113400000Y-62904000D01*
G75*
G02*
X113451000Y-62955000I0J-51000D01*
G01*
G37*
X112550000Y-61265000D03*
G36*
G01*
X113451000Y-57875000D02*
X113451000Y-59575000D01*
G75*
G02*
X113400000Y-59626000I-51000J0D01*
G01*
X111700000Y-59626000D01*
G75*
G02*
X111649000Y-59575000I0J51000D01*
G01*
X111649000Y-57875000D01*
G75*
G02*
X111700000Y-57824000I51000J0D01*
G01*
X113400000Y-57824000D01*
G75*
G02*
X113451000Y-57875000I0J-51000D01*
G01*
G37*
G36*
G01*
X116051000Y-98515000D02*
X116051000Y-100215000D01*
G75*
G02*
X116000000Y-100266000I-51000J0D01*
G01*
X112500000Y-100266000D01*
G75*
G02*
X112449000Y-100215000I0J51000D01*
G01*
X112449000Y-98515000D01*
G75*
G02*
X112500000Y-98464000I51000J0D01*
G01*
X116000000Y-98464000D01*
G75*
G02*
X116051000Y-98515000I0J-51000D01*
G01*
G37*
G36*
G01*
X116051000Y-101055000D02*
X116051000Y-102755000D01*
G75*
G02*
X116000000Y-102806000I-51000J0D01*
G01*
X112500000Y-102806000D01*
G75*
G02*
X112449000Y-102755000I0J51000D01*
G01*
X112449000Y-101055000D01*
G75*
G02*
X112500000Y-101004000I51000J0D01*
G01*
X116000000Y-101004000D01*
G75*
G02*
X116051000Y-101055000I0J-51000D01*
G01*
G37*
G36*
G01*
X116051000Y-95975000D02*
X116051000Y-97675000D01*
G75*
G02*
X116000000Y-97726000I-51000J0D01*
G01*
X112500000Y-97726000D01*
G75*
G02*
X112449000Y-97675000I0J51000D01*
G01*
X112449000Y-95975000D01*
G75*
G02*
X112500000Y-95924000I51000J0D01*
G01*
X116000000Y-95924000D01*
G75*
G02*
X116051000Y-95975000I0J-51000D01*
G01*
G37*
G36*
G01*
X116051000Y-103595000D02*
X116051000Y-105295000D01*
G75*
G02*
X116000000Y-105346000I-51000J0D01*
G01*
X112500000Y-105346000D01*
G75*
G02*
X112449000Y-105295000I0J51000D01*
G01*
X112449000Y-103595000D01*
G75*
G02*
X112500000Y-103544000I51000J0D01*
G01*
X116000000Y-103544000D01*
G75*
G02*
X116051000Y-103595000I0J-51000D01*
G01*
G37*
G36*
G01*
X116051000Y-93435000D02*
X116051000Y-95135000D01*
G75*
G02*
X116000000Y-95186000I-51000J0D01*
G01*
X112500000Y-95186000D01*
G75*
G02*
X112449000Y-95135000I0J51000D01*
G01*
X112449000Y-93435000D01*
G75*
G02*
X112500000Y-93384000I51000J0D01*
G01*
X116000000Y-93384000D01*
G75*
G02*
X116051000Y-93435000I0J-51000D01*
G01*
G37*
G36*
G01*
X116051000Y-106135000D02*
X116051000Y-107835000D01*
G75*
G02*
X116000000Y-107886000I-51000J0D01*
G01*
X112500000Y-107886000D01*
G75*
G02*
X112449000Y-107835000I0J51000D01*
G01*
X112449000Y-106135000D01*
G75*
G02*
X112500000Y-106084000I51000J0D01*
G01*
X116000000Y-106084000D01*
G75*
G02*
X116051000Y-106135000I0J-51000D01*
G01*
G37*
G36*
G01*
X116051000Y-85815000D02*
X116051000Y-87515000D01*
G75*
G02*
X116000000Y-87566000I-51000J0D01*
G01*
X112500000Y-87566000D01*
G75*
G02*
X112449000Y-87515000I0J51000D01*
G01*
X112449000Y-85815000D01*
G75*
G02*
X112500000Y-85764000I51000J0D01*
G01*
X116000000Y-85764000D01*
G75*
G02*
X116051000Y-85815000I0J-51000D01*
G01*
G37*
G36*
G01*
X116051000Y-90895000D02*
X116051000Y-92595000D01*
G75*
G02*
X116000000Y-92646000I-51000J0D01*
G01*
X112500000Y-92646000D01*
G75*
G02*
X112449000Y-92595000I0J51000D01*
G01*
X112449000Y-90895000D01*
G75*
G02*
X112500000Y-90844000I51000J0D01*
G01*
X116000000Y-90844000D01*
G75*
G02*
X116051000Y-90895000I0J-51000D01*
G01*
G37*
G36*
G01*
X116051000Y-83275000D02*
X116051000Y-84975000D01*
G75*
G02*
X116000000Y-85026000I-51000J0D01*
G01*
X112500000Y-85026000D01*
G75*
G02*
X112449000Y-84975000I0J51000D01*
G01*
X112449000Y-83275000D01*
G75*
G02*
X112500000Y-83224000I51000J0D01*
G01*
X116000000Y-83224000D01*
G75*
G02*
X116051000Y-83275000I0J-51000D01*
G01*
G37*
G36*
G01*
X116051000Y-73115000D02*
X116051000Y-74815000D01*
G75*
G02*
X116000000Y-74866000I-51000J0D01*
G01*
X112500000Y-74866000D01*
G75*
G02*
X112449000Y-74815000I0J51000D01*
G01*
X112449000Y-73115000D01*
G75*
G02*
X112500000Y-73064000I51000J0D01*
G01*
X116000000Y-73064000D01*
G75*
G02*
X116051000Y-73115000I0J-51000D01*
G01*
G37*
G36*
G01*
X116051000Y-70575000D02*
X116051000Y-72275000D01*
G75*
G02*
X116000000Y-72326000I-51000J0D01*
G01*
X112500000Y-72326000D01*
G75*
G02*
X112449000Y-72275000I0J51000D01*
G01*
X112449000Y-70575000D01*
G75*
G02*
X112500000Y-70524000I51000J0D01*
G01*
X116000000Y-70524000D01*
G75*
G02*
X116051000Y-70575000I0J-51000D01*
G01*
G37*
G36*
G01*
X116051000Y-68035000D02*
X116051000Y-69735000D01*
G75*
G02*
X116000000Y-69786000I-51000J0D01*
G01*
X112500000Y-69786000D01*
G75*
G02*
X112449000Y-69735000I0J51000D01*
G01*
X112449000Y-68035000D01*
G75*
G02*
X112500000Y-67984000I51000J0D01*
G01*
X116000000Y-67984000D01*
G75*
G02*
X116051000Y-68035000I0J-51000D01*
G01*
G37*
G36*
G01*
X116051000Y-60415000D02*
X116051000Y-62115000D01*
G75*
G02*
X116000000Y-62166000I-51000J0D01*
G01*
X112500000Y-62166000D01*
G75*
G02*
X112449000Y-62115000I0J51000D01*
G01*
X112449000Y-60415000D01*
G75*
G02*
X112500000Y-60364000I51000J0D01*
G01*
X116000000Y-60364000D01*
G75*
G02*
X116051000Y-60415000I0J-51000D01*
G01*
G37*
G36*
G01*
X116051000Y-88355000D02*
X116051000Y-90055000D01*
G75*
G02*
X116000000Y-90106000I-51000J0D01*
G01*
X112500000Y-90106000D01*
G75*
G02*
X112449000Y-90055000I0J51000D01*
G01*
X112449000Y-88355000D01*
G75*
G02*
X112500000Y-88304000I51000J0D01*
G01*
X116000000Y-88304000D01*
G75*
G02*
X116051000Y-88355000I0J-51000D01*
G01*
G37*
G36*
G01*
X116051000Y-75655000D02*
X116051000Y-77355000D01*
G75*
G02*
X116000000Y-77406000I-51000J0D01*
G01*
X112500000Y-77406000D01*
G75*
G02*
X112449000Y-77355000I0J51000D01*
G01*
X112449000Y-75655000D01*
G75*
G02*
X112500000Y-75604000I51000J0D01*
G01*
X116000000Y-75604000D01*
G75*
G02*
X116051000Y-75655000I0J-51000D01*
G01*
G37*
G36*
G01*
X116051000Y-62955000D02*
X116051000Y-64655000D01*
G75*
G02*
X116000000Y-64706000I-51000J0D01*
G01*
X112500000Y-64706000D01*
G75*
G02*
X112449000Y-64655000I0J51000D01*
G01*
X112449000Y-62955000D01*
G75*
G02*
X112500000Y-62904000I51000J0D01*
G01*
X116000000Y-62904000D01*
G75*
G02*
X116051000Y-62955000I0J-51000D01*
G01*
G37*
G36*
G01*
X116051000Y-57875000D02*
X116051000Y-59575000D01*
G75*
G02*
X116000000Y-59626000I-51000J0D01*
G01*
X112500000Y-59626000D01*
G75*
G02*
X112449000Y-59575000I0J51000D01*
G01*
X112449000Y-57875000D01*
G75*
G02*
X112500000Y-57824000I51000J0D01*
G01*
X116000000Y-57824000D01*
G75*
G02*
X116051000Y-57875000I0J-51000D01*
G01*
G37*
G36*
G01*
X116051000Y-78195000D02*
X116051000Y-79895000D01*
G75*
G02*
X116000000Y-79946000I-51000J0D01*
G01*
X112500000Y-79946000D01*
G75*
G02*
X112449000Y-79895000I0J51000D01*
G01*
X112449000Y-78195000D01*
G75*
G02*
X112500000Y-78144000I51000J0D01*
G01*
X116000000Y-78144000D01*
G75*
G02*
X116051000Y-78195000I0J-51000D01*
G01*
G37*
G36*
G01*
X116051000Y-65495000D02*
X116051000Y-67195000D01*
G75*
G02*
X116000000Y-67246000I-51000J0D01*
G01*
X112500000Y-67246000D01*
G75*
G02*
X112449000Y-67195000I0J51000D01*
G01*
X112449000Y-65495000D01*
G75*
G02*
X112500000Y-65444000I51000J0D01*
G01*
X116000000Y-65444000D01*
G75*
G02*
X116051000Y-65495000I0J-51000D01*
G01*
G37*
G36*
G01*
X116051000Y-80735000D02*
X116051000Y-82435000D01*
G75*
G02*
X116000000Y-82486000I-51000J0D01*
G01*
X112500000Y-82486000D01*
G75*
G02*
X112449000Y-82435000I0J51000D01*
G01*
X112449000Y-80735000D01*
G75*
G02*
X112500000Y-80684000I51000J0D01*
G01*
X116000000Y-80684000D01*
G75*
G02*
X116051000Y-80735000I0J-51000D01*
G01*
G37*
X94750000Y-58725000D03*
X94750000Y-61265000D03*
G36*
G01*
X93849000Y-64655000D02*
X93849000Y-62955000D01*
G75*
G02*
X93900000Y-62904000I51000J0D01*
G01*
X95600000Y-62904000D01*
G75*
G02*
X95651000Y-62955000I0J-51000D01*
G01*
X95651000Y-64655000D01*
G75*
G02*
X95600000Y-64706000I-51000J0D01*
G01*
X93900000Y-64706000D01*
G75*
G02*
X93849000Y-64655000I0J51000D01*
G01*
G37*
X94750000Y-66345000D03*
X94750000Y-68885000D03*
X94750000Y-71425000D03*
X94750000Y-73965000D03*
G36*
G01*
X93849000Y-77355000D02*
X93849000Y-75655000D01*
G75*
G02*
X93900000Y-75604000I51000J0D01*
G01*
X95600000Y-75604000D01*
G75*
G02*
X95651000Y-75655000I0J-51000D01*
G01*
X95651000Y-77355000D01*
G75*
G02*
X95600000Y-77406000I-51000J0D01*
G01*
X93900000Y-77406000D01*
G75*
G02*
X93849000Y-77355000I0J51000D01*
G01*
G37*
X94750000Y-79045000D03*
X94750000Y-81585000D03*
X94750000Y-84125000D03*
X94750000Y-86665000D03*
G36*
G01*
X93849000Y-90055000D02*
X93849000Y-88355000D01*
G75*
G02*
X93900000Y-88304000I51000J0D01*
G01*
X95600000Y-88304000D01*
G75*
G02*
X95651000Y-88355000I0J-51000D01*
G01*
X95651000Y-90055000D01*
G75*
G02*
X95600000Y-90106000I-51000J0D01*
G01*
X93900000Y-90106000D01*
G75*
G02*
X93849000Y-90055000I0J51000D01*
G01*
G37*
X94750000Y-91745000D03*
X94750000Y-94285000D03*
X94750000Y-96825000D03*
X94750000Y-99365000D03*
G36*
G01*
X93849000Y-102755000D02*
X93849000Y-101055000D01*
G75*
G02*
X93900000Y-101004000I51000J0D01*
G01*
X95600000Y-101004000D01*
G75*
G02*
X95651000Y-101055000I0J-51000D01*
G01*
X95651000Y-102755000D01*
G75*
G02*
X95600000Y-102806000I-51000J0D01*
G01*
X93900000Y-102806000D01*
G75*
G02*
X93849000Y-102755000I0J51000D01*
G01*
G37*
X94750000Y-104445000D03*
D12*
X94750000Y-106985000D03*
G36*
G01*
X91249000Y-105295000D02*
X91249000Y-103595000D01*
G75*
G02*
X91300000Y-103544000I51000J0D01*
G01*
X94800000Y-103544000D01*
G75*
G02*
X94851000Y-103595000I0J-51000D01*
G01*
X94851000Y-105295000D01*
G75*
G02*
X94800000Y-105346000I-51000J0D01*
G01*
X91300000Y-105346000D01*
G75*
G02*
X91249000Y-105295000I0J51000D01*
G01*
G37*
G36*
G01*
X91249000Y-74815000D02*
X91249000Y-73115000D01*
G75*
G02*
X91300000Y-73064000I51000J0D01*
G01*
X94800000Y-73064000D01*
G75*
G02*
X94851000Y-73115000I0J-51000D01*
G01*
X94851000Y-74815000D01*
G75*
G02*
X94800000Y-74866000I-51000J0D01*
G01*
X91300000Y-74866000D01*
G75*
G02*
X91249000Y-74815000I0J51000D01*
G01*
G37*
G36*
G01*
X91249000Y-100215000D02*
X91249000Y-98515000D01*
G75*
G02*
X91300000Y-98464000I51000J0D01*
G01*
X94800000Y-98464000D01*
G75*
G02*
X94851000Y-98515000I0J-51000D01*
G01*
X94851000Y-100215000D01*
G75*
G02*
X94800000Y-100266000I-51000J0D01*
G01*
X91300000Y-100266000D01*
G75*
G02*
X91249000Y-100215000I0J51000D01*
G01*
G37*
G36*
G01*
X91249000Y-95135000D02*
X91249000Y-93435000D01*
G75*
G02*
X91300000Y-93384000I51000J0D01*
G01*
X94800000Y-93384000D01*
G75*
G02*
X94851000Y-93435000I0J-51000D01*
G01*
X94851000Y-95135000D01*
G75*
G02*
X94800000Y-95186000I-51000J0D01*
G01*
X91300000Y-95186000D01*
G75*
G02*
X91249000Y-95135000I0J51000D01*
G01*
G37*
G36*
G01*
X91249000Y-90055000D02*
X91249000Y-88355000D01*
G75*
G02*
X91300000Y-88304000I51000J0D01*
G01*
X94800000Y-88304000D01*
G75*
G02*
X94851000Y-88355000I0J-51000D01*
G01*
X94851000Y-90055000D01*
G75*
G02*
X94800000Y-90106000I-51000J0D01*
G01*
X91300000Y-90106000D01*
G75*
G02*
X91249000Y-90055000I0J51000D01*
G01*
G37*
G36*
G01*
X91249000Y-87515000D02*
X91249000Y-85815000D01*
G75*
G02*
X91300000Y-85764000I51000J0D01*
G01*
X94800000Y-85764000D01*
G75*
G02*
X94851000Y-85815000I0J-51000D01*
G01*
X94851000Y-87515000D01*
G75*
G02*
X94800000Y-87566000I-51000J0D01*
G01*
X91300000Y-87566000D01*
G75*
G02*
X91249000Y-87515000I0J51000D01*
G01*
G37*
G36*
G01*
X91249000Y-72275000D02*
X91249000Y-70575000D01*
G75*
G02*
X91300000Y-70524000I51000J0D01*
G01*
X94800000Y-70524000D01*
G75*
G02*
X94851000Y-70575000I0J-51000D01*
G01*
X94851000Y-72275000D01*
G75*
G02*
X94800000Y-72326000I-51000J0D01*
G01*
X91300000Y-72326000D01*
G75*
G02*
X91249000Y-72275000I0J51000D01*
G01*
G37*
G36*
G01*
X91259000Y-79895000D02*
X91259000Y-78195000D01*
G75*
G02*
X91310000Y-78144000I51000J0D01*
G01*
X94810000Y-78144000D01*
G75*
G02*
X94861000Y-78195000I0J-51000D01*
G01*
X94861000Y-79895000D01*
G75*
G02*
X94810000Y-79946000I-51000J0D01*
G01*
X91310000Y-79946000D01*
G75*
G02*
X91259000Y-79895000I0J51000D01*
G01*
G37*
G36*
G01*
X91249000Y-69735000D02*
X91249000Y-68035000D01*
G75*
G02*
X91300000Y-67984000I51000J0D01*
G01*
X94800000Y-67984000D01*
G75*
G02*
X94851000Y-68035000I0J-51000D01*
G01*
X94851000Y-69735000D01*
G75*
G02*
X94800000Y-69786000I-51000J0D01*
G01*
X91300000Y-69786000D01*
G75*
G02*
X91249000Y-69735000I0J51000D01*
G01*
G37*
G36*
G01*
X91249000Y-62105000D02*
X91249000Y-60405000D01*
G75*
G02*
X91300000Y-60354000I51000J0D01*
G01*
X94800000Y-60354000D01*
G75*
G02*
X94851000Y-60405000I0J-51000D01*
G01*
X94851000Y-62105000D01*
G75*
G02*
X94800000Y-62156000I-51000J0D01*
G01*
X91300000Y-62156000D01*
G75*
G02*
X91249000Y-62105000I0J51000D01*
G01*
G37*
G36*
G01*
X91249000Y-67185000D02*
X91249000Y-65485000D01*
G75*
G02*
X91300000Y-65434000I51000J0D01*
G01*
X94800000Y-65434000D01*
G75*
G02*
X94851000Y-65485000I0J-51000D01*
G01*
X94851000Y-67185000D01*
G75*
G02*
X94800000Y-67236000I-51000J0D01*
G01*
X91300000Y-67236000D01*
G75*
G02*
X91249000Y-67185000I0J51000D01*
G01*
G37*
G36*
G01*
X91239000Y-92595000D02*
X91239000Y-90895000D01*
G75*
G02*
X91290000Y-90844000I51000J0D01*
G01*
X94790000Y-90844000D01*
G75*
G02*
X94841000Y-90895000I0J-51000D01*
G01*
X94841000Y-92595000D01*
G75*
G02*
X94790000Y-92646000I-51000J0D01*
G01*
X91290000Y-92646000D01*
G75*
G02*
X91239000Y-92595000I0J51000D01*
G01*
G37*
G36*
G01*
X91249000Y-97675000D02*
X91249000Y-95975000D01*
G75*
G02*
X91300000Y-95924000I51000J0D01*
G01*
X94800000Y-95924000D01*
G75*
G02*
X94851000Y-95975000I0J-51000D01*
G01*
X94851000Y-97675000D01*
G75*
G02*
X94800000Y-97726000I-51000J0D01*
G01*
X91300000Y-97726000D01*
G75*
G02*
X91249000Y-97675000I0J51000D01*
G01*
G37*
G36*
G01*
X91249000Y-82435000D02*
X91249000Y-80735000D01*
G75*
G02*
X91300000Y-80684000I51000J0D01*
G01*
X94800000Y-80684000D01*
G75*
G02*
X94851000Y-80735000I0J-51000D01*
G01*
X94851000Y-82435000D01*
G75*
G02*
X94800000Y-82486000I-51000J0D01*
G01*
X91300000Y-82486000D01*
G75*
G02*
X91249000Y-82435000I0J51000D01*
G01*
G37*
G36*
G01*
X91249000Y-77355000D02*
X91249000Y-75655000D01*
G75*
G02*
X91300000Y-75604000I51000J0D01*
G01*
X94800000Y-75604000D01*
G75*
G02*
X94851000Y-75655000I0J-51000D01*
G01*
X94851000Y-77355000D01*
G75*
G02*
X94800000Y-77406000I-51000J0D01*
G01*
X91300000Y-77406000D01*
G75*
G02*
X91249000Y-77355000I0J51000D01*
G01*
G37*
G36*
G01*
X91249000Y-107835000D02*
X91249000Y-106135000D01*
G75*
G02*
X91300000Y-106084000I51000J0D01*
G01*
X94800000Y-106084000D01*
G75*
G02*
X94851000Y-106135000I0J-51000D01*
G01*
X94851000Y-107835000D01*
G75*
G02*
X94800000Y-107886000I-51000J0D01*
G01*
X91300000Y-107886000D01*
G75*
G02*
X91249000Y-107835000I0J51000D01*
G01*
G37*
G36*
G01*
X91249000Y-84975000D02*
X91249000Y-83275000D01*
G75*
G02*
X91300000Y-83224000I51000J0D01*
G01*
X94800000Y-83224000D01*
G75*
G02*
X94851000Y-83275000I0J-51000D01*
G01*
X94851000Y-84975000D01*
G75*
G02*
X94800000Y-85026000I-51000J0D01*
G01*
X91300000Y-85026000D01*
G75*
G02*
X91249000Y-84975000I0J51000D01*
G01*
G37*
G36*
G01*
X91249000Y-64655000D02*
X91249000Y-62955000D01*
G75*
G02*
X91300000Y-62904000I51000J0D01*
G01*
X94800000Y-62904000D01*
G75*
G02*
X94851000Y-62955000I0J-51000D01*
G01*
X94851000Y-64655000D01*
G75*
G02*
X94800000Y-64706000I-51000J0D01*
G01*
X91300000Y-64706000D01*
G75*
G02*
X91249000Y-64655000I0J51000D01*
G01*
G37*
G36*
G01*
X91249000Y-102755000D02*
X91249000Y-101055000D01*
G75*
G02*
X91300000Y-101004000I51000J0D01*
G01*
X94800000Y-101004000D01*
G75*
G02*
X94851000Y-101055000I0J-51000D01*
G01*
X94851000Y-102755000D01*
G75*
G02*
X94800000Y-102806000I-51000J0D01*
G01*
X91300000Y-102806000D01*
G75*
G02*
X91249000Y-102755000I0J51000D01*
G01*
G37*
G36*
G01*
X91249000Y-59575000D02*
X91249000Y-57875000D01*
G75*
G02*
X91300000Y-57824000I51000J0D01*
G01*
X94800000Y-57824000D01*
G75*
G02*
X94851000Y-57875000I0J-51000D01*
G01*
X94851000Y-59575000D01*
G75*
G02*
X94800000Y-59626000I-51000J0D01*
G01*
X91300000Y-59626000D01*
G75*
G02*
X91249000Y-59575000I0J51000D01*
G01*
G37*
G36*
G01*
X100726000Y-63895000D02*
X100726000Y-65345000D01*
G75*
G02*
X100675000Y-65396000I-51000J0D01*
G01*
X100075000Y-65396000D01*
G75*
G02*
X100024000Y-65345000I0J51000D01*
G01*
X100024000Y-63895000D01*
G75*
G02*
X100075000Y-63844000I51000J0D01*
G01*
X100675000Y-63844000D01*
G75*
G02*
X100726000Y-63895000I0J-51000D01*
G01*
G37*
G36*
G01*
X107176000Y-63895000D02*
X107176000Y-65345000D01*
G75*
G02*
X107125000Y-65396000I-51000J0D01*
G01*
X106525000Y-65396000D01*
G75*
G02*
X106474000Y-65345000I0J51000D01*
G01*
X106474000Y-63895000D01*
G75*
G02*
X106525000Y-63844000I51000J0D01*
G01*
X107125000Y-63844000D01*
G75*
G02*
X107176000Y-63895000I0J-51000D01*
G01*
G37*
G36*
G01*
X101501000Y-63895000D02*
X101501000Y-65345000D01*
G75*
G02*
X101450000Y-65396000I-51000J0D01*
G01*
X100850000Y-65396000D01*
G75*
G02*
X100799000Y-65345000I0J51000D01*
G01*
X100799000Y-63895000D01*
G75*
G02*
X100850000Y-63844000I51000J0D01*
G01*
X101450000Y-63844000D01*
G75*
G02*
X101501000Y-63895000I0J-51000D01*
G01*
G37*
G36*
G01*
X106401000Y-63895000D02*
X106401000Y-65345000D01*
G75*
G02*
X106350000Y-65396000I-51000J0D01*
G01*
X105750000Y-65396000D01*
G75*
G02*
X105699000Y-65345000I0J51000D01*
G01*
X105699000Y-63895000D01*
G75*
G02*
X105750000Y-63844000I51000J0D01*
G01*
X106350000Y-63844000D01*
G75*
G02*
X106401000Y-63895000I0J-51000D01*
G01*
G37*
G36*
G01*
X105551000Y-63895000D02*
X105551000Y-65345000D01*
G75*
G02*
X105500000Y-65396000I-51000J0D01*
G01*
X105200000Y-65396000D01*
G75*
G02*
X105149000Y-65345000I0J51000D01*
G01*
X105149000Y-63895000D01*
G75*
G02*
X105200000Y-63844000I51000J0D01*
G01*
X105500000Y-63844000D01*
G75*
G02*
X105551000Y-63895000I0J-51000D01*
G01*
G37*
G36*
G01*
X102051000Y-63895000D02*
X102051000Y-65345000D01*
G75*
G02*
X102000000Y-65396000I-51000J0D01*
G01*
X101700000Y-65396000D01*
G75*
G02*
X101649000Y-65345000I0J51000D01*
G01*
X101649000Y-63895000D01*
G75*
G02*
X101700000Y-63844000I51000J0D01*
G01*
X102000000Y-63844000D01*
G75*
G02*
X102051000Y-63895000I0J-51000D01*
G01*
G37*
G36*
G01*
X105051000Y-63895000D02*
X105051000Y-65345000D01*
G75*
G02*
X105000000Y-65396000I-51000J0D01*
G01*
X104700000Y-65396000D01*
G75*
G02*
X104649000Y-65345000I0J51000D01*
G01*
X104649000Y-63895000D01*
G75*
G02*
X104700000Y-63844000I51000J0D01*
G01*
X105000000Y-63844000D01*
G75*
G02*
X105051000Y-63895000I0J-51000D01*
G01*
G37*
G36*
G01*
X102551000Y-63895000D02*
X102551000Y-65345000D01*
G75*
G02*
X102500000Y-65396000I-51000J0D01*
G01*
X102200000Y-65396000D01*
G75*
G02*
X102149000Y-65345000I0J51000D01*
G01*
X102149000Y-63895000D01*
G75*
G02*
X102200000Y-63844000I51000J0D01*
G01*
X102500000Y-63844000D01*
G75*
G02*
X102551000Y-63895000I0J-51000D01*
G01*
G37*
G36*
G01*
X104551000Y-63895000D02*
X104551000Y-65345000D01*
G75*
G02*
X104500000Y-65396000I-51000J0D01*
G01*
X104200000Y-65396000D01*
G75*
G02*
X104149000Y-65345000I0J51000D01*
G01*
X104149000Y-63895000D01*
G75*
G02*
X104200000Y-63844000I51000J0D01*
G01*
X104500000Y-63844000D01*
G75*
G02*
X104551000Y-63895000I0J-51000D01*
G01*
G37*
G36*
G01*
X103051000Y-63895000D02*
X103051000Y-65345000D01*
G75*
G02*
X103000000Y-65396000I-51000J0D01*
G01*
X102700000Y-65396000D01*
G75*
G02*
X102649000Y-65345000I0J51000D01*
G01*
X102649000Y-63895000D01*
G75*
G02*
X102700000Y-63844000I51000J0D01*
G01*
X103000000Y-63844000D01*
G75*
G02*
X103051000Y-63895000I0J-51000D01*
G01*
G37*
G36*
G01*
X103551000Y-63895000D02*
X103551000Y-65345000D01*
G75*
G02*
X103500000Y-65396000I-51000J0D01*
G01*
X103200000Y-65396000D01*
G75*
G02*
X103149000Y-65345000I0J51000D01*
G01*
X103149000Y-63895000D01*
G75*
G02*
X103200000Y-63844000I51000J0D01*
G01*
X103500000Y-63844000D01*
G75*
G02*
X103551000Y-63895000I0J-51000D01*
G01*
G37*
G36*
G01*
X104051000Y-63895000D02*
X104051000Y-65345000D01*
G75*
G02*
X104000000Y-65396000I-51000J0D01*
G01*
X103700000Y-65396000D01*
G75*
G02*
X103649000Y-65345000I0J51000D01*
G01*
X103649000Y-63895000D01*
G75*
G02*
X103700000Y-63844000I51000J0D01*
G01*
X104000000Y-63844000D01*
G75*
G02*
X104051000Y-63895000I0J-51000D01*
G01*
G37*
D13*
X100710000Y-63175000D03*
X106490000Y-63175000D03*
G36*
G01*
X105272900Y-66410000D02*
X104851900Y-66410000D01*
G75*
G02*
X104691400Y-66249500I0J160500D01*
G01*
X104691400Y-65928500D01*
G75*
G02*
X104851900Y-65768000I160500J0D01*
G01*
X105272900Y-65768000D01*
G75*
G02*
X105433400Y-65928500I0J-160500D01*
G01*
X105433400Y-66249500D01*
G75*
G02*
X105272900Y-66410000I-160500J0D01*
G01*
G37*
G36*
G01*
X105272900Y-67430000D02*
X104851900Y-67430000D01*
G75*
G02*
X104691400Y-67269500I0J160500D01*
G01*
X104691400Y-66948500D01*
G75*
G02*
X104851900Y-66788000I160500J0D01*
G01*
X105272900Y-66788000D01*
G75*
G02*
X105433400Y-66948500I0J-160500D01*
G01*
X105433400Y-67269500D01*
G75*
G02*
X105272900Y-67430000I-160500J0D01*
G01*
G37*
G36*
G01*
X104170200Y-96846800D02*
X104170200Y-97996800D01*
G75*
G02*
X104119200Y-98047800I-51000J0D01*
G01*
X102719200Y-98047800D01*
G75*
G02*
X102668200Y-97996800I0J51000D01*
G01*
X102668200Y-96846800D01*
G75*
G02*
X102719200Y-96795800I51000J0D01*
G01*
X104119200Y-96795800D01*
G75*
G02*
X104170200Y-96846800I0J-51000D01*
G01*
G37*
G36*
G01*
X101970200Y-96846800D02*
X101970200Y-97996800D01*
G75*
G02*
X101919200Y-98047800I-51000J0D01*
G01*
X100519200Y-98047800D01*
G75*
G02*
X100468200Y-97996800I0J51000D01*
G01*
X100468200Y-96846800D01*
G75*
G02*
X100519200Y-96795800I51000J0D01*
G01*
X101919200Y-96795800D01*
G75*
G02*
X101970200Y-96846800I0J-51000D01*
G01*
G37*
G36*
G01*
X101970200Y-95246800D02*
X101970200Y-96396800D01*
G75*
G02*
X101919200Y-96447800I-51000J0D01*
G01*
X100519200Y-96447800D01*
G75*
G02*
X100468200Y-96396800I0J51000D01*
G01*
X100468200Y-95246800D01*
G75*
G02*
X100519200Y-95195800I51000J0D01*
G01*
X101919200Y-95195800D01*
G75*
G02*
X101970200Y-95246800I0J-51000D01*
G01*
G37*
G36*
G01*
X104170200Y-95246800D02*
X104170200Y-96396800D01*
G75*
G02*
X104119200Y-96447800I-51000J0D01*
G01*
X102719200Y-96447800D01*
G75*
G02*
X102668200Y-96396800I0J51000D01*
G01*
X102668200Y-95246800D01*
G75*
G02*
X102719200Y-95195800I51000J0D01*
G01*
X104119200Y-95195800D01*
G75*
G02*
X104170200Y-95246800I0J-51000D01*
G01*
G37*
G36*
G01*
X97689640Y-87058780D02*
X97689640Y-87449780D01*
G75*
G02*
X97524140Y-87615280I-165500J0D01*
G01*
X97193140Y-87615280D01*
G75*
G02*
X97027640Y-87449780I0J165500D01*
G01*
X97027640Y-87058780D01*
G75*
G02*
X97193140Y-86893280I165500J0D01*
G01*
X97524140Y-86893280D01*
G75*
G02*
X97689640Y-87058780I0J-165500D01*
G01*
G37*
G36*
G01*
X98649640Y-87058780D02*
X98649640Y-87449780D01*
G75*
G02*
X98484140Y-87615280I-165500J0D01*
G01*
X98153140Y-87615280D01*
G75*
G02*
X97987640Y-87449780I0J165500D01*
G01*
X97987640Y-87058780D01*
G75*
G02*
X98153140Y-86893280I165500J0D01*
G01*
X98484140Y-86893280D01*
G75*
G02*
X98649640Y-87058780I0J-165500D01*
G01*
G37*
G36*
G01*
X103605300Y-94203800D02*
X103605300Y-94594800D01*
G75*
G02*
X103439800Y-94760300I-165500J0D01*
G01*
X103108800Y-94760300D01*
G75*
G02*
X102943300Y-94594800I0J165500D01*
G01*
X102943300Y-94203800D01*
G75*
G02*
X103108800Y-94038300I165500J0D01*
G01*
X103439800Y-94038300D01*
G75*
G02*
X103605300Y-94203800I0J-165500D01*
G01*
G37*
G36*
G01*
X104565300Y-94203800D02*
X104565300Y-94594800D01*
G75*
G02*
X104399800Y-94760300I-165500J0D01*
G01*
X104068800Y-94760300D01*
G75*
G02*
X103903300Y-94594800I0J165500D01*
G01*
X103903300Y-94203800D01*
G75*
G02*
X104068800Y-94038300I165500J0D01*
G01*
X104399800Y-94038300D01*
G75*
G02*
X104565300Y-94203800I0J-165500D01*
G01*
G37*
G36*
G01*
X106921600Y-80765440D02*
X106530600Y-80765440D01*
G75*
G02*
X106365100Y-80599940I0J165500D01*
G01*
X106365100Y-80268940D01*
G75*
G02*
X106530600Y-80103440I165500J0D01*
G01*
X106921600Y-80103440D01*
G75*
G02*
X107087100Y-80268940I0J-165500D01*
G01*
X107087100Y-80599940D01*
G75*
G02*
X106921600Y-80765440I-165500J0D01*
G01*
G37*
G36*
G01*
X106921600Y-81725440D02*
X106530600Y-81725440D01*
G75*
G02*
X106365100Y-81559940I0J165500D01*
G01*
X106365100Y-81228940D01*
G75*
G02*
X106530600Y-81063440I165500J0D01*
G01*
X106921600Y-81063440D01*
G75*
G02*
X107087100Y-81228940I0J-165500D01*
G01*
X107087100Y-81559940D01*
G75*
G02*
X106921600Y-81725440I-165500J0D01*
G01*
G37*
G36*
G01*
X103139700Y-91716200D02*
X103530700Y-91716200D01*
G75*
G02*
X103696200Y-91881700I0J-165500D01*
G01*
X103696200Y-92212700D01*
G75*
G02*
X103530700Y-92378200I-165500J0D01*
G01*
X103139700Y-92378200D01*
G75*
G02*
X102974200Y-92212700I0J165500D01*
G01*
X102974200Y-91881700D01*
G75*
G02*
X103139700Y-91716200I165500J0D01*
G01*
G37*
G36*
G01*
X103139700Y-90756200D02*
X103530700Y-90756200D01*
G75*
G02*
X103696200Y-90921700I0J-165500D01*
G01*
X103696200Y-91252700D01*
G75*
G02*
X103530700Y-91418200I-165500J0D01*
G01*
X103139700Y-91418200D01*
G75*
G02*
X102974200Y-91252700I0J165500D01*
G01*
X102974200Y-90921700D01*
G75*
G02*
X103139700Y-90756200I165500J0D01*
G01*
G37*
G36*
G01*
X110283840Y-87221180D02*
X110283840Y-86830180D01*
G75*
G02*
X110449340Y-86664680I165500J0D01*
G01*
X110780340Y-86664680D01*
G75*
G02*
X110945840Y-86830180I0J-165500D01*
G01*
X110945840Y-87221180D01*
G75*
G02*
X110780340Y-87386680I-165500J0D01*
G01*
X110449340Y-87386680D01*
G75*
G02*
X110283840Y-87221180I0J165500D01*
G01*
G37*
G36*
G01*
X109323840Y-87221180D02*
X109323840Y-86830180D01*
G75*
G02*
X109489340Y-86664680I165500J0D01*
G01*
X109820340Y-86664680D01*
G75*
G02*
X109985840Y-86830180I0J-165500D01*
G01*
X109985840Y-87221180D01*
G75*
G02*
X109820340Y-87386680I-165500J0D01*
G01*
X109489340Y-87386680D01*
G75*
G02*
X109323840Y-87221180I0J165500D01*
G01*
G37*
G36*
G01*
X104189260Y-78612960D02*
X104580260Y-78612960D01*
G75*
G02*
X104745760Y-78778460I0J-165500D01*
G01*
X104745760Y-79109460D01*
G75*
G02*
X104580260Y-79274960I-165500J0D01*
G01*
X104189260Y-79274960D01*
G75*
G02*
X104023760Y-79109460I0J165500D01*
G01*
X104023760Y-78778460D01*
G75*
G02*
X104189260Y-78612960I165500J0D01*
G01*
G37*
G36*
G01*
X104189260Y-77652960D02*
X104580260Y-77652960D01*
G75*
G02*
X104745760Y-77818460I0J-165500D01*
G01*
X104745760Y-78149460D01*
G75*
G02*
X104580260Y-78314960I-165500J0D01*
G01*
X104189260Y-78314960D01*
G75*
G02*
X104023760Y-78149460I0J165500D01*
G01*
X104023760Y-77818460D01*
G75*
G02*
X104189260Y-77652960I165500J0D01*
G01*
G37*
G36*
G01*
X98882500Y-76521100D02*
X98491500Y-76521100D01*
G75*
G02*
X98326000Y-76355600I0J165500D01*
G01*
X98326000Y-76024600D01*
G75*
G02*
X98491500Y-75859100I165500J0D01*
G01*
X98882500Y-75859100D01*
G75*
G02*
X99048000Y-76024600I0J-165500D01*
G01*
X99048000Y-76355600D01*
G75*
G02*
X98882500Y-76521100I-165500J0D01*
G01*
G37*
G36*
G01*
X98882500Y-77481100D02*
X98491500Y-77481100D01*
G75*
G02*
X98326000Y-77315600I0J165500D01*
G01*
X98326000Y-76984600D01*
G75*
G02*
X98491500Y-76819100I165500J0D01*
G01*
X98882500Y-76819100D01*
G75*
G02*
X99048000Y-76984600I0J-165500D01*
G01*
X99048000Y-77315600D01*
G75*
G02*
X98882500Y-77481100I-165500J0D01*
G01*
G37*
G36*
G01*
X98451000Y-82454500D02*
X98451000Y-82845500D01*
G75*
G02*
X98285500Y-83011000I-165500J0D01*
G01*
X97954500Y-83011000D01*
G75*
G02*
X97789000Y-82845500I0J165500D01*
G01*
X97789000Y-82454500D01*
G75*
G02*
X97954500Y-82289000I165500J0D01*
G01*
X98285500Y-82289000D01*
G75*
G02*
X98451000Y-82454500I0J-165500D01*
G01*
G37*
G36*
G01*
X99411000Y-82454500D02*
X99411000Y-82845500D01*
G75*
G02*
X99245500Y-83011000I-165500J0D01*
G01*
X98914500Y-83011000D01*
G75*
G02*
X98749000Y-82845500I0J165500D01*
G01*
X98749000Y-82454500D01*
G75*
G02*
X98914500Y-82289000I165500J0D01*
G01*
X99245500Y-82289000D01*
G75*
G02*
X99411000Y-82454500I0J-165500D01*
G01*
G37*
G36*
G01*
X104804500Y-92324000D02*
X105195500Y-92324000D01*
G75*
G02*
X105361000Y-92489500I0J-165500D01*
G01*
X105361000Y-92820500D01*
G75*
G02*
X105195500Y-92986000I-165500J0D01*
G01*
X104804500Y-92986000D01*
G75*
G02*
X104639000Y-92820500I0J165500D01*
G01*
X104639000Y-92489500D01*
G75*
G02*
X104804500Y-92324000I165500J0D01*
G01*
G37*
G36*
G01*
X104804500Y-91364000D02*
X105195500Y-91364000D01*
G75*
G02*
X105361000Y-91529500I0J-165500D01*
G01*
X105361000Y-91860500D01*
G75*
G02*
X105195500Y-92026000I-165500J0D01*
G01*
X104804500Y-92026000D01*
G75*
G02*
X104639000Y-91860500I0J165500D01*
G01*
X104639000Y-91529500D01*
G75*
G02*
X104804500Y-91364000I165500J0D01*
G01*
G37*
G36*
G01*
X100986560Y-94191100D02*
X100986560Y-94582100D01*
G75*
G02*
X100821060Y-94747600I-165500J0D01*
G01*
X100490060Y-94747600D01*
G75*
G02*
X100324560Y-94582100I0J165500D01*
G01*
X100324560Y-94191100D01*
G75*
G02*
X100490060Y-94025600I165500J0D01*
G01*
X100821060Y-94025600D01*
G75*
G02*
X100986560Y-94191100I0J-165500D01*
G01*
G37*
G36*
G01*
X101946560Y-94191100D02*
X101946560Y-94582100D01*
G75*
G02*
X101781060Y-94747600I-165500J0D01*
G01*
X101450060Y-94747600D01*
G75*
G02*
X101284560Y-94582100I0J165500D01*
G01*
X101284560Y-94191100D01*
G75*
G02*
X101450060Y-94025600I165500J0D01*
G01*
X101781060Y-94025600D01*
G75*
G02*
X101946560Y-94191100I0J-165500D01*
G01*
G37*
G36*
G01*
X108993280Y-85220060D02*
X108993280Y-85641060D01*
G75*
G02*
X108832780Y-85801560I-160500J0D01*
G01*
X108511780Y-85801560D01*
G75*
G02*
X108351280Y-85641060I0J160500D01*
G01*
X108351280Y-85220060D01*
G75*
G02*
X108511780Y-85059560I160500J0D01*
G01*
X108832780Y-85059560D01*
G75*
G02*
X108993280Y-85220060I0J-160500D01*
G01*
G37*
G36*
G01*
X110013280Y-85220060D02*
X110013280Y-85641060D01*
G75*
G02*
X109852780Y-85801560I-160500J0D01*
G01*
X109531780Y-85801560D01*
G75*
G02*
X109371280Y-85641060I0J160500D01*
G01*
X109371280Y-85220060D01*
G75*
G02*
X109531780Y-85059560I160500J0D01*
G01*
X109852780Y-85059560D01*
G75*
G02*
X110013280Y-85220060I0J-160500D01*
G01*
G37*
G36*
G01*
X110457480Y-85412080D02*
X110853480Y-85412080D01*
G75*
G02*
X111026480Y-85585080I0J-173000D01*
G01*
X111026480Y-85931080D01*
G75*
G02*
X110853480Y-86104080I-173000J0D01*
G01*
X110457480Y-86104080D01*
G75*
G02*
X110284480Y-85931080I0J173000D01*
G01*
X110284480Y-85585080D01*
G75*
G02*
X110457480Y-85412080I173000J0D01*
G01*
G37*
G36*
G01*
X110457480Y-84442080D02*
X110853480Y-84442080D01*
G75*
G02*
X111026480Y-84615080I0J-173000D01*
G01*
X111026480Y-84961080D01*
G75*
G02*
X110853480Y-85134080I-173000J0D01*
G01*
X110457480Y-85134080D01*
G75*
G02*
X110284480Y-84961080I0J173000D01*
G01*
X110284480Y-84615080D01*
G75*
G02*
X110457480Y-84442080I173000J0D01*
G01*
G37*
G36*
G01*
X100939000Y-83000500D02*
X100939000Y-82174500D01*
G75*
G02*
X101014500Y-82099000I75500J0D01*
G01*
X101165500Y-82099000D01*
G75*
G02*
X101241000Y-82174500I0J-75500D01*
G01*
X101241000Y-83000500D01*
G75*
G02*
X101165500Y-83076000I-75500J0D01*
G01*
X101014500Y-83076000D01*
G75*
G02*
X100939000Y-83000500I0J75500D01*
G01*
G37*
G36*
G01*
X101339000Y-83000500D02*
X101339000Y-82174500D01*
G75*
G02*
X101414500Y-82099000I75500J0D01*
G01*
X101565500Y-82099000D01*
G75*
G02*
X101641000Y-82174500I0J-75500D01*
G01*
X101641000Y-83000500D01*
G75*
G02*
X101565500Y-83076000I-75500J0D01*
G01*
X101414500Y-83076000D01*
G75*
G02*
X101339000Y-83000500I0J75500D01*
G01*
G37*
G36*
G01*
X101739000Y-83000500D02*
X101739000Y-82174500D01*
G75*
G02*
X101814500Y-82099000I75500J0D01*
G01*
X101965500Y-82099000D01*
G75*
G02*
X102041000Y-82174500I0J-75500D01*
G01*
X102041000Y-83000500D01*
G75*
G02*
X101965500Y-83076000I-75500J0D01*
G01*
X101814500Y-83076000D01*
G75*
G02*
X101739000Y-83000500I0J75500D01*
G01*
G37*
G36*
G01*
X102139000Y-83000500D02*
X102139000Y-82174500D01*
G75*
G02*
X102214500Y-82099000I75500J0D01*
G01*
X102365500Y-82099000D01*
G75*
G02*
X102441000Y-82174500I0J-75500D01*
G01*
X102441000Y-83000500D01*
G75*
G02*
X102365500Y-83076000I-75500J0D01*
G01*
X102214500Y-83076000D01*
G75*
G02*
X102139000Y-83000500I0J75500D01*
G01*
G37*
G36*
G01*
X102539000Y-83000500D02*
X102539000Y-82174500D01*
G75*
G02*
X102614500Y-82099000I75500J0D01*
G01*
X102765500Y-82099000D01*
G75*
G02*
X102841000Y-82174500I0J-75500D01*
G01*
X102841000Y-83000500D01*
G75*
G02*
X102765500Y-83076000I-75500J0D01*
G01*
X102614500Y-83076000D01*
G75*
G02*
X102539000Y-83000500I0J75500D01*
G01*
G37*
G36*
G01*
X102939000Y-83000500D02*
X102939000Y-82174500D01*
G75*
G02*
X103014500Y-82099000I75500J0D01*
G01*
X103165500Y-82099000D01*
G75*
G02*
X103241000Y-82174500I0J-75500D01*
G01*
X103241000Y-83000500D01*
G75*
G02*
X103165500Y-83076000I-75500J0D01*
G01*
X103014500Y-83076000D01*
G75*
G02*
X102939000Y-83000500I0J75500D01*
G01*
G37*
G36*
G01*
X103339000Y-83000500D02*
X103339000Y-82174500D01*
G75*
G02*
X103414500Y-82099000I75500J0D01*
G01*
X103565500Y-82099000D01*
G75*
G02*
X103641000Y-82174500I0J-75500D01*
G01*
X103641000Y-83000500D01*
G75*
G02*
X103565500Y-83076000I-75500J0D01*
G01*
X103414500Y-83076000D01*
G75*
G02*
X103339000Y-83000500I0J75500D01*
G01*
G37*
G36*
G01*
X103739000Y-83000500D02*
X103739000Y-82174500D01*
G75*
G02*
X103814500Y-82099000I75500J0D01*
G01*
X103965500Y-82099000D01*
G75*
G02*
X104041000Y-82174500I0J-75500D01*
G01*
X104041000Y-83000500D01*
G75*
G02*
X103965500Y-83076000I-75500J0D01*
G01*
X103814500Y-83076000D01*
G75*
G02*
X103739000Y-83000500I0J75500D01*
G01*
G37*
G36*
G01*
X104139000Y-83000500D02*
X104139000Y-82174500D01*
G75*
G02*
X104214500Y-82099000I75500J0D01*
G01*
X104365500Y-82099000D01*
G75*
G02*
X104441000Y-82174500I0J-75500D01*
G01*
X104441000Y-83000500D01*
G75*
G02*
X104365500Y-83076000I-75500J0D01*
G01*
X104214500Y-83076000D01*
G75*
G02*
X104139000Y-83000500I0J75500D01*
G01*
G37*
G36*
G01*
X104539000Y-83000500D02*
X104539000Y-82174500D01*
G75*
G02*
X104614500Y-82099000I75500J0D01*
G01*
X104765500Y-82099000D01*
G75*
G02*
X104841000Y-82174500I0J-75500D01*
G01*
X104841000Y-83000500D01*
G75*
G02*
X104765500Y-83076000I-75500J0D01*
G01*
X104614500Y-83076000D01*
G75*
G02*
X104539000Y-83000500I0J75500D01*
G01*
G37*
G36*
G01*
X104939000Y-83000500D02*
X104939000Y-82174500D01*
G75*
G02*
X105014500Y-82099000I75500J0D01*
G01*
X105165500Y-82099000D01*
G75*
G02*
X105241000Y-82174500I0J-75500D01*
G01*
X105241000Y-83000500D01*
G75*
G02*
X105165500Y-83076000I-75500J0D01*
G01*
X105014500Y-83076000D01*
G75*
G02*
X104939000Y-83000500I0J75500D01*
G01*
G37*
G36*
G01*
X105339000Y-83000500D02*
X105339000Y-82174500D01*
G75*
G02*
X105414500Y-82099000I75500J0D01*
G01*
X105565500Y-82099000D01*
G75*
G02*
X105641000Y-82174500I0J-75500D01*
G01*
X105641000Y-83000500D01*
G75*
G02*
X105565500Y-83076000I-75500J0D01*
G01*
X105414500Y-83076000D01*
G75*
G02*
X105339000Y-83000500I0J75500D01*
G01*
G37*
G36*
G01*
X105739000Y-83000500D02*
X105739000Y-82174500D01*
G75*
G02*
X105814500Y-82099000I75500J0D01*
G01*
X105965500Y-82099000D01*
G75*
G02*
X106041000Y-82174500I0J-75500D01*
G01*
X106041000Y-83000500D01*
G75*
G02*
X105965500Y-83076000I-75500J0D01*
G01*
X105814500Y-83076000D01*
G75*
G02*
X105739000Y-83000500I0J75500D01*
G01*
G37*
G36*
G01*
X106139000Y-83000500D02*
X106139000Y-82174500D01*
G75*
G02*
X106214500Y-82099000I75500J0D01*
G01*
X106365500Y-82099000D01*
G75*
G02*
X106441000Y-82174500I0J-75500D01*
G01*
X106441000Y-83000500D01*
G75*
G02*
X106365500Y-83076000I-75500J0D01*
G01*
X106214500Y-83076000D01*
G75*
G02*
X106139000Y-83000500I0J75500D01*
G01*
G37*
G36*
G01*
X106639000Y-83500500D02*
X106639000Y-83349500D01*
G75*
G02*
X106714500Y-83274000I75500J0D01*
G01*
X107540500Y-83274000D01*
G75*
G02*
X107616000Y-83349500I0J-75500D01*
G01*
X107616000Y-83500500D01*
G75*
G02*
X107540500Y-83576000I-75500J0D01*
G01*
X106714500Y-83576000D01*
G75*
G02*
X106639000Y-83500500I0J75500D01*
G01*
G37*
G36*
G01*
X106639000Y-83900500D02*
X106639000Y-83749500D01*
G75*
G02*
X106714500Y-83674000I75500J0D01*
G01*
X107540500Y-83674000D01*
G75*
G02*
X107616000Y-83749500I0J-75500D01*
G01*
X107616000Y-83900500D01*
G75*
G02*
X107540500Y-83976000I-75500J0D01*
G01*
X106714500Y-83976000D01*
G75*
G02*
X106639000Y-83900500I0J75500D01*
G01*
G37*
G36*
G01*
X106639000Y-84300500D02*
X106639000Y-84149500D01*
G75*
G02*
X106714500Y-84074000I75500J0D01*
G01*
X107540500Y-84074000D01*
G75*
G02*
X107616000Y-84149500I0J-75500D01*
G01*
X107616000Y-84300500D01*
G75*
G02*
X107540500Y-84376000I-75500J0D01*
G01*
X106714500Y-84376000D01*
G75*
G02*
X106639000Y-84300500I0J75500D01*
G01*
G37*
G36*
G01*
X106639000Y-84700500D02*
X106639000Y-84549500D01*
G75*
G02*
X106714500Y-84474000I75500J0D01*
G01*
X107540500Y-84474000D01*
G75*
G02*
X107616000Y-84549500I0J-75500D01*
G01*
X107616000Y-84700500D01*
G75*
G02*
X107540500Y-84776000I-75500J0D01*
G01*
X106714500Y-84776000D01*
G75*
G02*
X106639000Y-84700500I0J75500D01*
G01*
G37*
G36*
G01*
X106639000Y-85100500D02*
X106639000Y-84949500D01*
G75*
G02*
X106714500Y-84874000I75500J0D01*
G01*
X107540500Y-84874000D01*
G75*
G02*
X107616000Y-84949500I0J-75500D01*
G01*
X107616000Y-85100500D01*
G75*
G02*
X107540500Y-85176000I-75500J0D01*
G01*
X106714500Y-85176000D01*
G75*
G02*
X106639000Y-85100500I0J75500D01*
G01*
G37*
G36*
G01*
X106639000Y-85500500D02*
X106639000Y-85349500D01*
G75*
G02*
X106714500Y-85274000I75500J0D01*
G01*
X107540500Y-85274000D01*
G75*
G02*
X107616000Y-85349500I0J-75500D01*
G01*
X107616000Y-85500500D01*
G75*
G02*
X107540500Y-85576000I-75500J0D01*
G01*
X106714500Y-85576000D01*
G75*
G02*
X106639000Y-85500500I0J75500D01*
G01*
G37*
G36*
G01*
X106639000Y-85900500D02*
X106639000Y-85749500D01*
G75*
G02*
X106714500Y-85674000I75500J0D01*
G01*
X107540500Y-85674000D01*
G75*
G02*
X107616000Y-85749500I0J-75500D01*
G01*
X107616000Y-85900500D01*
G75*
G02*
X107540500Y-85976000I-75500J0D01*
G01*
X106714500Y-85976000D01*
G75*
G02*
X106639000Y-85900500I0J75500D01*
G01*
G37*
G36*
G01*
X106639000Y-86300500D02*
X106639000Y-86149500D01*
G75*
G02*
X106714500Y-86074000I75500J0D01*
G01*
X107540500Y-86074000D01*
G75*
G02*
X107616000Y-86149500I0J-75500D01*
G01*
X107616000Y-86300500D01*
G75*
G02*
X107540500Y-86376000I-75500J0D01*
G01*
X106714500Y-86376000D01*
G75*
G02*
X106639000Y-86300500I0J75500D01*
G01*
G37*
G36*
G01*
X106639000Y-86700500D02*
X106639000Y-86549500D01*
G75*
G02*
X106714500Y-86474000I75500J0D01*
G01*
X107540500Y-86474000D01*
G75*
G02*
X107616000Y-86549500I0J-75500D01*
G01*
X107616000Y-86700500D01*
G75*
G02*
X107540500Y-86776000I-75500J0D01*
G01*
X106714500Y-86776000D01*
G75*
G02*
X106639000Y-86700500I0J75500D01*
G01*
G37*
G36*
G01*
X106639000Y-87100500D02*
X106639000Y-86949500D01*
G75*
G02*
X106714500Y-86874000I75500J0D01*
G01*
X107540500Y-86874000D01*
G75*
G02*
X107616000Y-86949500I0J-75500D01*
G01*
X107616000Y-87100500D01*
G75*
G02*
X107540500Y-87176000I-75500J0D01*
G01*
X106714500Y-87176000D01*
G75*
G02*
X106639000Y-87100500I0J75500D01*
G01*
G37*
G36*
G01*
X106639000Y-87500500D02*
X106639000Y-87349500D01*
G75*
G02*
X106714500Y-87274000I75500J0D01*
G01*
X107540500Y-87274000D01*
G75*
G02*
X107616000Y-87349500I0J-75500D01*
G01*
X107616000Y-87500500D01*
G75*
G02*
X107540500Y-87576000I-75500J0D01*
G01*
X106714500Y-87576000D01*
G75*
G02*
X106639000Y-87500500I0J75500D01*
G01*
G37*
G36*
G01*
X106639000Y-87900500D02*
X106639000Y-87749500D01*
G75*
G02*
X106714500Y-87674000I75500J0D01*
G01*
X107540500Y-87674000D01*
G75*
G02*
X107616000Y-87749500I0J-75500D01*
G01*
X107616000Y-87900500D01*
G75*
G02*
X107540500Y-87976000I-75500J0D01*
G01*
X106714500Y-87976000D01*
G75*
G02*
X106639000Y-87900500I0J75500D01*
G01*
G37*
G36*
G01*
X106639000Y-88300500D02*
X106639000Y-88149500D01*
G75*
G02*
X106714500Y-88074000I75500J0D01*
G01*
X107540500Y-88074000D01*
G75*
G02*
X107616000Y-88149500I0J-75500D01*
G01*
X107616000Y-88300500D01*
G75*
G02*
X107540500Y-88376000I-75500J0D01*
G01*
X106714500Y-88376000D01*
G75*
G02*
X106639000Y-88300500I0J75500D01*
G01*
G37*
G36*
G01*
X106639000Y-88700500D02*
X106639000Y-88549500D01*
G75*
G02*
X106714500Y-88474000I75500J0D01*
G01*
X107540500Y-88474000D01*
G75*
G02*
X107616000Y-88549500I0J-75500D01*
G01*
X107616000Y-88700500D01*
G75*
G02*
X107540500Y-88776000I-75500J0D01*
G01*
X106714500Y-88776000D01*
G75*
G02*
X106639000Y-88700500I0J75500D01*
G01*
G37*
G36*
G01*
X106139000Y-89875500D02*
X106139000Y-89049500D01*
G75*
G02*
X106214500Y-88974000I75500J0D01*
G01*
X106365500Y-88974000D01*
G75*
G02*
X106441000Y-89049500I0J-75500D01*
G01*
X106441000Y-89875500D01*
G75*
G02*
X106365500Y-89951000I-75500J0D01*
G01*
X106214500Y-89951000D01*
G75*
G02*
X106139000Y-89875500I0J75500D01*
G01*
G37*
G36*
G01*
X105739000Y-89875500D02*
X105739000Y-89049500D01*
G75*
G02*
X105814500Y-88974000I75500J0D01*
G01*
X105965500Y-88974000D01*
G75*
G02*
X106041000Y-89049500I0J-75500D01*
G01*
X106041000Y-89875500D01*
G75*
G02*
X105965500Y-89951000I-75500J0D01*
G01*
X105814500Y-89951000D01*
G75*
G02*
X105739000Y-89875500I0J75500D01*
G01*
G37*
G36*
G01*
X105339000Y-89875500D02*
X105339000Y-89049500D01*
G75*
G02*
X105414500Y-88974000I75500J0D01*
G01*
X105565500Y-88974000D01*
G75*
G02*
X105641000Y-89049500I0J-75500D01*
G01*
X105641000Y-89875500D01*
G75*
G02*
X105565500Y-89951000I-75500J0D01*
G01*
X105414500Y-89951000D01*
G75*
G02*
X105339000Y-89875500I0J75500D01*
G01*
G37*
G36*
G01*
X104939000Y-89875500D02*
X104939000Y-89049500D01*
G75*
G02*
X105014500Y-88974000I75500J0D01*
G01*
X105165500Y-88974000D01*
G75*
G02*
X105241000Y-89049500I0J-75500D01*
G01*
X105241000Y-89875500D01*
G75*
G02*
X105165500Y-89951000I-75500J0D01*
G01*
X105014500Y-89951000D01*
G75*
G02*
X104939000Y-89875500I0J75500D01*
G01*
G37*
G36*
G01*
X104539000Y-89875500D02*
X104539000Y-89049500D01*
G75*
G02*
X104614500Y-88974000I75500J0D01*
G01*
X104765500Y-88974000D01*
G75*
G02*
X104841000Y-89049500I0J-75500D01*
G01*
X104841000Y-89875500D01*
G75*
G02*
X104765500Y-89951000I-75500J0D01*
G01*
X104614500Y-89951000D01*
G75*
G02*
X104539000Y-89875500I0J75500D01*
G01*
G37*
G36*
G01*
X104139000Y-89875500D02*
X104139000Y-89049500D01*
G75*
G02*
X104214500Y-88974000I75500J0D01*
G01*
X104365500Y-88974000D01*
G75*
G02*
X104441000Y-89049500I0J-75500D01*
G01*
X104441000Y-89875500D01*
G75*
G02*
X104365500Y-89951000I-75500J0D01*
G01*
X104214500Y-89951000D01*
G75*
G02*
X104139000Y-89875500I0J75500D01*
G01*
G37*
G36*
G01*
X103739000Y-89875500D02*
X103739000Y-89049500D01*
G75*
G02*
X103814500Y-88974000I75500J0D01*
G01*
X103965500Y-88974000D01*
G75*
G02*
X104041000Y-89049500I0J-75500D01*
G01*
X104041000Y-89875500D01*
G75*
G02*
X103965500Y-89951000I-75500J0D01*
G01*
X103814500Y-89951000D01*
G75*
G02*
X103739000Y-89875500I0J75500D01*
G01*
G37*
G36*
G01*
X103339000Y-89875500D02*
X103339000Y-89049500D01*
G75*
G02*
X103414500Y-88974000I75500J0D01*
G01*
X103565500Y-88974000D01*
G75*
G02*
X103641000Y-89049500I0J-75500D01*
G01*
X103641000Y-89875500D01*
G75*
G02*
X103565500Y-89951000I-75500J0D01*
G01*
X103414500Y-89951000D01*
G75*
G02*
X103339000Y-89875500I0J75500D01*
G01*
G37*
G36*
G01*
X102939000Y-89875500D02*
X102939000Y-89049500D01*
G75*
G02*
X103014500Y-88974000I75500J0D01*
G01*
X103165500Y-88974000D01*
G75*
G02*
X103241000Y-89049500I0J-75500D01*
G01*
X103241000Y-89875500D01*
G75*
G02*
X103165500Y-89951000I-75500J0D01*
G01*
X103014500Y-89951000D01*
G75*
G02*
X102939000Y-89875500I0J75500D01*
G01*
G37*
G36*
G01*
X102539000Y-89875500D02*
X102539000Y-89049500D01*
G75*
G02*
X102614500Y-88974000I75500J0D01*
G01*
X102765500Y-88974000D01*
G75*
G02*
X102841000Y-89049500I0J-75500D01*
G01*
X102841000Y-89875500D01*
G75*
G02*
X102765500Y-89951000I-75500J0D01*
G01*
X102614500Y-89951000D01*
G75*
G02*
X102539000Y-89875500I0J75500D01*
G01*
G37*
G36*
G01*
X102139000Y-89875500D02*
X102139000Y-89049500D01*
G75*
G02*
X102214500Y-88974000I75500J0D01*
G01*
X102365500Y-88974000D01*
G75*
G02*
X102441000Y-89049500I0J-75500D01*
G01*
X102441000Y-89875500D01*
G75*
G02*
X102365500Y-89951000I-75500J0D01*
G01*
X102214500Y-89951000D01*
G75*
G02*
X102139000Y-89875500I0J75500D01*
G01*
G37*
G36*
G01*
X101739000Y-89875500D02*
X101739000Y-89049500D01*
G75*
G02*
X101814500Y-88974000I75500J0D01*
G01*
X101965500Y-88974000D01*
G75*
G02*
X102041000Y-89049500I0J-75500D01*
G01*
X102041000Y-89875500D01*
G75*
G02*
X101965500Y-89951000I-75500J0D01*
G01*
X101814500Y-89951000D01*
G75*
G02*
X101739000Y-89875500I0J75500D01*
G01*
G37*
G36*
G01*
X101339000Y-89875500D02*
X101339000Y-89049500D01*
G75*
G02*
X101414500Y-88974000I75500J0D01*
G01*
X101565500Y-88974000D01*
G75*
G02*
X101641000Y-89049500I0J-75500D01*
G01*
X101641000Y-89875500D01*
G75*
G02*
X101565500Y-89951000I-75500J0D01*
G01*
X101414500Y-89951000D01*
G75*
G02*
X101339000Y-89875500I0J75500D01*
G01*
G37*
G36*
G01*
X100939000Y-89875500D02*
X100939000Y-89049500D01*
G75*
G02*
X101014500Y-88974000I75500J0D01*
G01*
X101165500Y-88974000D01*
G75*
G02*
X101241000Y-89049500I0J-75500D01*
G01*
X101241000Y-89875500D01*
G75*
G02*
X101165500Y-89951000I-75500J0D01*
G01*
X101014500Y-89951000D01*
G75*
G02*
X100939000Y-89875500I0J75500D01*
G01*
G37*
G36*
G01*
X99764000Y-88700500D02*
X99764000Y-88549500D01*
G75*
G02*
X99839500Y-88474000I75500J0D01*
G01*
X100665500Y-88474000D01*
G75*
G02*
X100741000Y-88549500I0J-75500D01*
G01*
X100741000Y-88700500D01*
G75*
G02*
X100665500Y-88776000I-75500J0D01*
G01*
X99839500Y-88776000D01*
G75*
G02*
X99764000Y-88700500I0J75500D01*
G01*
G37*
G36*
G01*
X99764000Y-88300500D02*
X99764000Y-88149500D01*
G75*
G02*
X99839500Y-88074000I75500J0D01*
G01*
X100665500Y-88074000D01*
G75*
G02*
X100741000Y-88149500I0J-75500D01*
G01*
X100741000Y-88300500D01*
G75*
G02*
X100665500Y-88376000I-75500J0D01*
G01*
X99839500Y-88376000D01*
G75*
G02*
X99764000Y-88300500I0J75500D01*
G01*
G37*
G36*
G01*
X99764000Y-87900500D02*
X99764000Y-87749500D01*
G75*
G02*
X99839500Y-87674000I75500J0D01*
G01*
X100665500Y-87674000D01*
G75*
G02*
X100741000Y-87749500I0J-75500D01*
G01*
X100741000Y-87900500D01*
G75*
G02*
X100665500Y-87976000I-75500J0D01*
G01*
X99839500Y-87976000D01*
G75*
G02*
X99764000Y-87900500I0J75500D01*
G01*
G37*
G36*
G01*
X99764000Y-87500500D02*
X99764000Y-87349500D01*
G75*
G02*
X99839500Y-87274000I75500J0D01*
G01*
X100665500Y-87274000D01*
G75*
G02*
X100741000Y-87349500I0J-75500D01*
G01*
X100741000Y-87500500D01*
G75*
G02*
X100665500Y-87576000I-75500J0D01*
G01*
X99839500Y-87576000D01*
G75*
G02*
X99764000Y-87500500I0J75500D01*
G01*
G37*
G36*
G01*
X99764000Y-87100500D02*
X99764000Y-86949500D01*
G75*
G02*
X99839500Y-86874000I75500J0D01*
G01*
X100665500Y-86874000D01*
G75*
G02*
X100741000Y-86949500I0J-75500D01*
G01*
X100741000Y-87100500D01*
G75*
G02*
X100665500Y-87176000I-75500J0D01*
G01*
X99839500Y-87176000D01*
G75*
G02*
X99764000Y-87100500I0J75500D01*
G01*
G37*
G36*
G01*
X99764000Y-86700500D02*
X99764000Y-86549500D01*
G75*
G02*
X99839500Y-86474000I75500J0D01*
G01*
X100665500Y-86474000D01*
G75*
G02*
X100741000Y-86549500I0J-75500D01*
G01*
X100741000Y-86700500D01*
G75*
G02*
X100665500Y-86776000I-75500J0D01*
G01*
X99839500Y-86776000D01*
G75*
G02*
X99764000Y-86700500I0J75500D01*
G01*
G37*
G36*
G01*
X99764000Y-86300500D02*
X99764000Y-86149500D01*
G75*
G02*
X99839500Y-86074000I75500J0D01*
G01*
X100665500Y-86074000D01*
G75*
G02*
X100741000Y-86149500I0J-75500D01*
G01*
X100741000Y-86300500D01*
G75*
G02*
X100665500Y-86376000I-75500J0D01*
G01*
X99839500Y-86376000D01*
G75*
G02*
X99764000Y-86300500I0J75500D01*
G01*
G37*
G36*
G01*
X99764000Y-85900500D02*
X99764000Y-85749500D01*
G75*
G02*
X99839500Y-85674000I75500J0D01*
G01*
X100665500Y-85674000D01*
G75*
G02*
X100741000Y-85749500I0J-75500D01*
G01*
X100741000Y-85900500D01*
G75*
G02*
X100665500Y-85976000I-75500J0D01*
G01*
X99839500Y-85976000D01*
G75*
G02*
X99764000Y-85900500I0J75500D01*
G01*
G37*
G36*
G01*
X99764000Y-85500500D02*
X99764000Y-85349500D01*
G75*
G02*
X99839500Y-85274000I75500J0D01*
G01*
X100665500Y-85274000D01*
G75*
G02*
X100741000Y-85349500I0J-75500D01*
G01*
X100741000Y-85500500D01*
G75*
G02*
X100665500Y-85576000I-75500J0D01*
G01*
X99839500Y-85576000D01*
G75*
G02*
X99764000Y-85500500I0J75500D01*
G01*
G37*
G36*
G01*
X99764000Y-85100500D02*
X99764000Y-84949500D01*
G75*
G02*
X99839500Y-84874000I75500J0D01*
G01*
X100665500Y-84874000D01*
G75*
G02*
X100741000Y-84949500I0J-75500D01*
G01*
X100741000Y-85100500D01*
G75*
G02*
X100665500Y-85176000I-75500J0D01*
G01*
X99839500Y-85176000D01*
G75*
G02*
X99764000Y-85100500I0J75500D01*
G01*
G37*
G36*
G01*
X99764000Y-84700500D02*
X99764000Y-84549500D01*
G75*
G02*
X99839500Y-84474000I75500J0D01*
G01*
X100665500Y-84474000D01*
G75*
G02*
X100741000Y-84549500I0J-75500D01*
G01*
X100741000Y-84700500D01*
G75*
G02*
X100665500Y-84776000I-75500J0D01*
G01*
X99839500Y-84776000D01*
G75*
G02*
X99764000Y-84700500I0J75500D01*
G01*
G37*
G36*
G01*
X99764000Y-84300500D02*
X99764000Y-84149500D01*
G75*
G02*
X99839500Y-84074000I75500J0D01*
G01*
X100665500Y-84074000D01*
G75*
G02*
X100741000Y-84149500I0J-75500D01*
G01*
X100741000Y-84300500D01*
G75*
G02*
X100665500Y-84376000I-75500J0D01*
G01*
X99839500Y-84376000D01*
G75*
G02*
X99764000Y-84300500I0J75500D01*
G01*
G37*
G36*
G01*
X99764000Y-83900500D02*
X99764000Y-83749500D01*
G75*
G02*
X99839500Y-83674000I75500J0D01*
G01*
X100665500Y-83674000D01*
G75*
G02*
X100741000Y-83749500I0J-75500D01*
G01*
X100741000Y-83900500D01*
G75*
G02*
X100665500Y-83976000I-75500J0D01*
G01*
X99839500Y-83976000D01*
G75*
G02*
X99764000Y-83900500I0J75500D01*
G01*
G37*
G36*
G01*
X99764000Y-83500500D02*
X99764000Y-83349500D01*
G75*
G02*
X99839500Y-83274000I75500J0D01*
G01*
X100665500Y-83274000D01*
G75*
G02*
X100741000Y-83349500I0J-75500D01*
G01*
X100741000Y-83500500D01*
G75*
G02*
X100665500Y-83576000I-75500J0D01*
G01*
X99839500Y-83576000D01*
G75*
G02*
X99764000Y-83500500I0J75500D01*
G01*
G37*
G36*
G01*
X102039000Y-87527410D02*
X102039000Y-84522590D01*
G75*
G02*
X102187590Y-84374000I148590J0D01*
G01*
X105192410Y-84374000D01*
G75*
G02*
X105341000Y-84522590I0J-148590D01*
G01*
X105341000Y-87527410D01*
G75*
G02*
X105192410Y-87676000I-148590J0D01*
G01*
X102187590Y-87676000D01*
G75*
G02*
X102039000Y-87527410I0J148590D01*
G01*
G37*
D11*
X106230000Y-106925000D03*
G36*
G01*
X104140500Y-107826000D02*
X103239500Y-107826000D01*
G75*
G02*
X102789000Y-107375500I0J450500D01*
G01*
X102789000Y-106474500D01*
G75*
G02*
X103239500Y-106024000I450500J0D01*
G01*
X104140500Y-106024000D01*
G75*
G02*
X104591000Y-106474500I0J-450500D01*
G01*
X104591000Y-107375500D01*
G75*
G02*
X104140500Y-107826000I-450500J0D01*
G01*
G37*
X101150000Y-106925000D03*
D10*
G36*
X99884048Y-80420870D02*
G01*
X99903866Y-80422822D01*
X99904251Y-80422898D01*
X99921193Y-80428037D01*
X99921555Y-80428187D01*
X99937159Y-80436528D01*
X99937485Y-80436746D01*
X99951168Y-80447975D01*
X99951445Y-80448252D01*
X99963015Y-80462351D01*
X99963132Y-80462509D01*
X99967329Y-80468790D01*
X99973286Y-80474748D01*
X99980294Y-80479430D01*
X99988078Y-80482655D01*
X99996347Y-80484300D01*
X100004771Y-80484300D01*
X100013039Y-80482656D01*
X100020824Y-80479431D01*
X100027832Y-80474749D01*
X100033790Y-80468792D01*
X100037988Y-80462508D01*
X100038105Y-80462350D01*
X100049675Y-80448252D01*
X100049952Y-80447975D01*
X100063635Y-80436746D01*
X100063961Y-80436528D01*
X100079565Y-80428187D01*
X100079927Y-80428037D01*
X100096869Y-80422898D01*
X100097254Y-80422822D01*
X100117072Y-80420870D01*
X100117268Y-80420860D01*
X100137560Y-80420860D01*
X100139292Y-80421860D01*
X100139292Y-80423860D01*
X100137756Y-80424850D01*
X100115910Y-80427001D01*
X100095086Y-80433319D01*
X100075897Y-80443575D01*
X100059078Y-80457378D01*
X100045275Y-80474197D01*
X100035019Y-80493386D01*
X100028701Y-80514210D01*
X100026560Y-80535954D01*
X100026560Y-80936766D01*
X100028701Y-80958510D01*
X100035019Y-80979334D01*
X100045275Y-80998523D01*
X100059078Y-81015342D01*
X100075897Y-81029145D01*
X100095086Y-81039401D01*
X100115910Y-81045719D01*
X100137756Y-81047870D01*
X100139382Y-81049035D01*
X100139186Y-81051025D01*
X100137560Y-81051860D01*
X100117268Y-81051860D01*
X100117072Y-81051850D01*
X100097254Y-81049898D01*
X100096869Y-81049822D01*
X100079927Y-81044683D01*
X100079565Y-81044533D01*
X100063961Y-81036192D01*
X100063635Y-81035974D01*
X100049952Y-81024745D01*
X100049675Y-81024468D01*
X100038105Y-81010369D01*
X100037988Y-81010211D01*
X100033791Y-81003930D01*
X100027834Y-80997972D01*
X100020826Y-80993290D01*
X100013042Y-80990065D01*
X100004773Y-80988420D01*
X99996349Y-80988420D01*
X99988081Y-80990064D01*
X99980296Y-80993289D01*
X99973288Y-80997971D01*
X99967330Y-81003928D01*
X99963132Y-81010212D01*
X99963015Y-81010370D01*
X99951445Y-81024468D01*
X99951168Y-81024745D01*
X99937485Y-81035974D01*
X99937159Y-81036192D01*
X99921555Y-81044533D01*
X99921193Y-81044683D01*
X99904251Y-81049822D01*
X99903866Y-81049898D01*
X99884048Y-81051850D01*
X99883852Y-81051860D01*
X99863560Y-81051860D01*
X99861828Y-81050860D01*
X99861828Y-81048860D01*
X99863364Y-81047870D01*
X99885210Y-81045719D01*
X99906034Y-81039401D01*
X99925223Y-81029145D01*
X99942042Y-81015342D01*
X99955845Y-80998523D01*
X99966101Y-80979334D01*
X99972419Y-80958510D01*
X99974560Y-80936766D01*
X99974560Y-80535954D01*
X99972419Y-80514210D01*
X99966101Y-80493386D01*
X99955845Y-80474197D01*
X99942042Y-80457378D01*
X99925223Y-80443575D01*
X99906034Y-80433319D01*
X99885210Y-80427001D01*
X99863364Y-80424850D01*
X99861738Y-80423685D01*
X99861934Y-80421695D01*
X99863560Y-80420860D01*
X99883852Y-80420860D01*
X99884048Y-80420870D01*
G37*
G36*
X100884048Y-80420870D02*
G01*
X100903866Y-80422822D01*
X100904251Y-80422898D01*
X100921193Y-80428037D01*
X100921555Y-80428187D01*
X100937159Y-80436528D01*
X100937485Y-80436746D01*
X100951168Y-80447975D01*
X100951445Y-80448252D01*
X100963015Y-80462351D01*
X100963132Y-80462509D01*
X100967329Y-80468790D01*
X100973286Y-80474748D01*
X100980294Y-80479430D01*
X100988078Y-80482655D01*
X100996347Y-80484300D01*
X101004771Y-80484300D01*
X101013039Y-80482656D01*
X101020824Y-80479431D01*
X101027832Y-80474749D01*
X101033790Y-80468792D01*
X101037988Y-80462508D01*
X101038105Y-80462350D01*
X101049675Y-80448252D01*
X101049952Y-80447975D01*
X101063635Y-80436746D01*
X101063961Y-80436528D01*
X101079565Y-80428187D01*
X101079927Y-80428037D01*
X101096869Y-80422898D01*
X101097254Y-80422822D01*
X101117072Y-80420870D01*
X101117268Y-80420860D01*
X101137560Y-80420860D01*
X101139292Y-80421860D01*
X101139292Y-80423860D01*
X101137756Y-80424850D01*
X101115910Y-80427001D01*
X101095086Y-80433319D01*
X101075897Y-80443575D01*
X101059078Y-80457378D01*
X101045275Y-80474197D01*
X101035019Y-80493386D01*
X101028701Y-80514210D01*
X101026560Y-80535954D01*
X101026560Y-80936766D01*
X101028701Y-80958510D01*
X101035019Y-80979334D01*
X101045275Y-80998523D01*
X101059078Y-81015342D01*
X101075897Y-81029145D01*
X101095086Y-81039401D01*
X101115910Y-81045719D01*
X101137756Y-81047870D01*
X101139382Y-81049035D01*
X101139186Y-81051025D01*
X101137560Y-81051860D01*
X101117268Y-81051860D01*
X101117072Y-81051850D01*
X101097254Y-81049898D01*
X101096869Y-81049822D01*
X101079927Y-81044683D01*
X101079565Y-81044533D01*
X101063961Y-81036192D01*
X101063635Y-81035974D01*
X101049952Y-81024745D01*
X101049675Y-81024468D01*
X101038105Y-81010369D01*
X101037988Y-81010211D01*
X101033791Y-81003930D01*
X101027834Y-80997972D01*
X101020826Y-80993290D01*
X101013042Y-80990065D01*
X101004773Y-80988420D01*
X100996349Y-80988420D01*
X100988081Y-80990064D01*
X100980296Y-80993289D01*
X100973288Y-80997971D01*
X100967330Y-81003928D01*
X100963132Y-81010212D01*
X100963015Y-81010370D01*
X100951445Y-81024468D01*
X100951168Y-81024745D01*
X100937485Y-81035974D01*
X100937159Y-81036192D01*
X100921555Y-81044533D01*
X100921193Y-81044683D01*
X100904251Y-81049822D01*
X100903866Y-81049898D01*
X100884048Y-81051850D01*
X100883852Y-81051860D01*
X100863560Y-81051860D01*
X100861828Y-81050860D01*
X100861828Y-81048860D01*
X100863364Y-81047870D01*
X100885210Y-81045719D01*
X100906034Y-81039401D01*
X100925223Y-81029145D01*
X100942042Y-81015342D01*
X100955845Y-80998523D01*
X100966101Y-80979334D01*
X100972419Y-80958510D01*
X100974560Y-80936766D01*
X100974560Y-80535954D01*
X100972419Y-80514210D01*
X100966101Y-80493386D01*
X100955845Y-80474197D01*
X100942042Y-80457378D01*
X100925223Y-80443575D01*
X100906034Y-80433319D01*
X100885210Y-80427001D01*
X100863364Y-80424850D01*
X100861738Y-80423685D01*
X100861934Y-80421695D01*
X100863560Y-80420860D01*
X100883852Y-80420860D01*
X100884048Y-80420870D01*
G37*
G36*
X100384048Y-80420870D02*
G01*
X100403866Y-80422822D01*
X100404251Y-80422898D01*
X100421193Y-80428037D01*
X100421555Y-80428187D01*
X100437159Y-80436528D01*
X100437485Y-80436746D01*
X100451168Y-80447975D01*
X100451445Y-80448252D01*
X100463015Y-80462351D01*
X100463132Y-80462509D01*
X100467329Y-80468790D01*
X100473286Y-80474748D01*
X100480294Y-80479430D01*
X100488078Y-80482655D01*
X100496347Y-80484300D01*
X100504771Y-80484300D01*
X100513039Y-80482656D01*
X100520824Y-80479431D01*
X100527832Y-80474749D01*
X100533790Y-80468792D01*
X100537988Y-80462508D01*
X100538105Y-80462350D01*
X100549675Y-80448252D01*
X100549952Y-80447975D01*
X100563635Y-80436746D01*
X100563961Y-80436528D01*
X100579565Y-80428187D01*
X100579927Y-80428037D01*
X100596869Y-80422898D01*
X100597254Y-80422822D01*
X100617072Y-80420870D01*
X100617268Y-80420860D01*
X100637560Y-80420860D01*
X100639292Y-80421860D01*
X100639292Y-80423860D01*
X100637756Y-80424850D01*
X100615910Y-80427001D01*
X100595086Y-80433319D01*
X100575897Y-80443575D01*
X100559078Y-80457378D01*
X100545275Y-80474197D01*
X100535019Y-80493386D01*
X100528701Y-80514210D01*
X100526560Y-80535954D01*
X100526560Y-80936766D01*
X100528701Y-80958510D01*
X100535019Y-80979334D01*
X100545275Y-80998523D01*
X100559078Y-81015342D01*
X100575897Y-81029145D01*
X100595086Y-81039401D01*
X100615910Y-81045719D01*
X100637756Y-81047870D01*
X100639382Y-81049035D01*
X100639186Y-81051025D01*
X100637560Y-81051860D01*
X100617268Y-81051860D01*
X100617072Y-81051850D01*
X100597254Y-81049898D01*
X100596869Y-81049822D01*
X100579927Y-81044683D01*
X100579565Y-81044533D01*
X100563961Y-81036192D01*
X100563635Y-81035974D01*
X100549952Y-81024745D01*
X100549675Y-81024468D01*
X100538105Y-81010369D01*
X100537988Y-81010211D01*
X100533791Y-81003930D01*
X100527834Y-80997972D01*
X100520826Y-80993290D01*
X100513042Y-80990065D01*
X100504773Y-80988420D01*
X100496349Y-80988420D01*
X100488081Y-80990064D01*
X100480296Y-80993289D01*
X100473288Y-80997971D01*
X100467330Y-81003928D01*
X100463132Y-81010212D01*
X100463015Y-81010370D01*
X100451445Y-81024468D01*
X100451168Y-81024745D01*
X100437485Y-81035974D01*
X100437159Y-81036192D01*
X100421555Y-81044533D01*
X100421193Y-81044683D01*
X100404251Y-81049822D01*
X100403866Y-81049898D01*
X100384048Y-81051850D01*
X100383852Y-81051860D01*
X100363560Y-81051860D01*
X100361828Y-81050860D01*
X100361828Y-81048860D01*
X100363364Y-81047870D01*
X100385210Y-81045719D01*
X100406034Y-81039401D01*
X100425223Y-81029145D01*
X100442042Y-81015342D01*
X100455845Y-80998523D01*
X100466101Y-80979334D01*
X100472419Y-80958510D01*
X100474560Y-80936766D01*
X100474560Y-80535954D01*
X100472419Y-80514210D01*
X100466101Y-80493386D01*
X100455845Y-80474197D01*
X100442042Y-80457378D01*
X100425223Y-80443575D01*
X100406034Y-80433319D01*
X100385210Y-80427001D01*
X100363364Y-80424850D01*
X100361738Y-80423685D01*
X100361934Y-80421695D01*
X100363560Y-80420860D01*
X100383852Y-80420860D01*
X100384048Y-80420870D01*
G37*
G36*
X99884048Y-77845870D02*
G01*
X99903866Y-77847822D01*
X99904251Y-77847898D01*
X99921193Y-77853037D01*
X99921555Y-77853187D01*
X99937159Y-77861528D01*
X99937485Y-77861746D01*
X99951168Y-77872975D01*
X99951445Y-77873252D01*
X99963015Y-77887351D01*
X99963132Y-77887509D01*
X99967329Y-77893790D01*
X99973286Y-77899748D01*
X99980294Y-77904430D01*
X99988078Y-77907655D01*
X99996347Y-77909300D01*
X100004771Y-77909300D01*
X100013039Y-77907656D01*
X100020824Y-77904431D01*
X100027832Y-77899749D01*
X100033790Y-77893792D01*
X100037988Y-77887508D01*
X100038105Y-77887350D01*
X100049675Y-77873252D01*
X100049952Y-77872975D01*
X100063635Y-77861746D01*
X100063961Y-77861528D01*
X100079565Y-77853187D01*
X100079927Y-77853037D01*
X100096869Y-77847898D01*
X100097254Y-77847822D01*
X100117072Y-77845870D01*
X100117268Y-77845860D01*
X100137560Y-77845860D01*
X100139292Y-77846860D01*
X100139292Y-77848860D01*
X100137756Y-77849850D01*
X100115910Y-77852001D01*
X100095086Y-77858319D01*
X100075897Y-77868575D01*
X100059078Y-77882378D01*
X100045275Y-77899197D01*
X100035019Y-77918386D01*
X100028701Y-77939210D01*
X100026560Y-77960954D01*
X100026560Y-78361766D01*
X100028701Y-78383510D01*
X100035019Y-78404334D01*
X100045275Y-78423523D01*
X100059078Y-78440342D01*
X100075897Y-78454145D01*
X100095086Y-78464401D01*
X100115910Y-78470719D01*
X100137756Y-78472870D01*
X100139382Y-78474035D01*
X100139186Y-78476025D01*
X100137560Y-78476860D01*
X100117268Y-78476860D01*
X100117072Y-78476850D01*
X100097254Y-78474898D01*
X100096869Y-78474822D01*
X100079927Y-78469683D01*
X100079565Y-78469533D01*
X100063961Y-78461192D01*
X100063635Y-78460974D01*
X100049952Y-78449745D01*
X100049675Y-78449468D01*
X100038105Y-78435369D01*
X100037988Y-78435211D01*
X100033791Y-78428930D01*
X100027834Y-78422972D01*
X100020826Y-78418290D01*
X100013042Y-78415065D01*
X100004773Y-78413420D01*
X99996349Y-78413420D01*
X99988081Y-78415064D01*
X99980296Y-78418289D01*
X99973288Y-78422971D01*
X99967330Y-78428928D01*
X99963132Y-78435212D01*
X99963015Y-78435370D01*
X99951445Y-78449468D01*
X99951168Y-78449745D01*
X99937485Y-78460974D01*
X99937159Y-78461192D01*
X99921555Y-78469533D01*
X99921193Y-78469683D01*
X99904251Y-78474822D01*
X99903866Y-78474898D01*
X99884048Y-78476850D01*
X99883852Y-78476860D01*
X99863560Y-78476860D01*
X99861828Y-78475860D01*
X99861828Y-78473860D01*
X99863364Y-78472870D01*
X99885210Y-78470719D01*
X99906034Y-78464401D01*
X99925223Y-78454145D01*
X99942042Y-78440342D01*
X99955845Y-78423523D01*
X99966101Y-78404334D01*
X99972419Y-78383510D01*
X99974560Y-78361766D01*
X99974560Y-77960954D01*
X99972419Y-77939210D01*
X99966101Y-77918386D01*
X99955845Y-77899197D01*
X99942042Y-77882378D01*
X99925223Y-77868575D01*
X99906034Y-77858319D01*
X99885210Y-77852001D01*
X99863364Y-77849850D01*
X99861738Y-77848685D01*
X99861934Y-77846695D01*
X99863560Y-77845860D01*
X99883852Y-77845860D01*
X99884048Y-77845870D01*
G37*
G36*
X100384048Y-77845870D02*
G01*
X100403866Y-77847822D01*
X100404251Y-77847898D01*
X100421193Y-77853037D01*
X100421555Y-77853187D01*
X100437159Y-77861528D01*
X100437485Y-77861746D01*
X100451168Y-77872975D01*
X100451445Y-77873252D01*
X100463015Y-77887351D01*
X100463132Y-77887509D01*
X100467329Y-77893790D01*
X100473286Y-77899748D01*
X100480294Y-77904430D01*
X100488078Y-77907655D01*
X100496347Y-77909300D01*
X100504771Y-77909300D01*
X100513039Y-77907656D01*
X100520824Y-77904431D01*
X100527832Y-77899749D01*
X100533790Y-77893792D01*
X100537988Y-77887508D01*
X100538105Y-77887350D01*
X100549675Y-77873252D01*
X100549952Y-77872975D01*
X100563635Y-77861746D01*
X100563961Y-77861528D01*
X100579565Y-77853187D01*
X100579927Y-77853037D01*
X100596869Y-77847898D01*
X100597254Y-77847822D01*
X100617072Y-77845870D01*
X100617268Y-77845860D01*
X100637560Y-77845860D01*
X100639292Y-77846860D01*
X100639292Y-77848860D01*
X100637756Y-77849850D01*
X100615910Y-77852001D01*
X100595086Y-77858319D01*
X100575897Y-77868575D01*
X100559078Y-77882378D01*
X100545275Y-77899197D01*
X100535019Y-77918386D01*
X100528701Y-77939210D01*
X100526560Y-77960954D01*
X100526560Y-78361766D01*
X100528701Y-78383510D01*
X100535019Y-78404334D01*
X100545275Y-78423523D01*
X100559078Y-78440342D01*
X100575897Y-78454145D01*
X100595086Y-78464401D01*
X100615910Y-78470719D01*
X100637756Y-78472870D01*
X100639382Y-78474035D01*
X100639186Y-78476025D01*
X100637560Y-78476860D01*
X100617268Y-78476860D01*
X100617072Y-78476850D01*
X100597254Y-78474898D01*
X100596869Y-78474822D01*
X100579927Y-78469683D01*
X100579565Y-78469533D01*
X100563961Y-78461192D01*
X100563635Y-78460974D01*
X100549952Y-78449745D01*
X100549675Y-78449468D01*
X100538105Y-78435369D01*
X100537988Y-78435211D01*
X100533791Y-78428930D01*
X100527834Y-78422972D01*
X100520826Y-78418290D01*
X100513042Y-78415065D01*
X100504773Y-78413420D01*
X100496349Y-78413420D01*
X100488081Y-78415064D01*
X100480296Y-78418289D01*
X100473288Y-78422971D01*
X100467330Y-78428928D01*
X100463132Y-78435212D01*
X100463015Y-78435370D01*
X100451445Y-78449468D01*
X100451168Y-78449745D01*
X100437485Y-78460974D01*
X100437159Y-78461192D01*
X100421555Y-78469533D01*
X100421193Y-78469683D01*
X100404251Y-78474822D01*
X100403866Y-78474898D01*
X100384048Y-78476850D01*
X100383852Y-78476860D01*
X100363560Y-78476860D01*
X100361828Y-78475860D01*
X100361828Y-78473860D01*
X100363364Y-78472870D01*
X100385210Y-78470719D01*
X100406034Y-78464401D01*
X100425223Y-78454145D01*
X100442042Y-78440342D01*
X100455845Y-78423523D01*
X100466101Y-78404334D01*
X100472419Y-78383510D01*
X100474560Y-78361766D01*
X100474560Y-77960954D01*
X100472419Y-77939210D01*
X100466101Y-77918386D01*
X100455845Y-77899197D01*
X100442042Y-77882378D01*
X100425223Y-77868575D01*
X100406034Y-77858319D01*
X100385210Y-77852001D01*
X100363364Y-77849850D01*
X100361738Y-77848685D01*
X100361934Y-77846695D01*
X100363560Y-77845860D01*
X100383852Y-77845860D01*
X100384048Y-77845870D01*
G37*
G36*
X100884048Y-77845870D02*
G01*
X100903866Y-77847822D01*
X100904251Y-77847898D01*
X100921193Y-77853037D01*
X100921555Y-77853187D01*
X100937159Y-77861528D01*
X100937485Y-77861746D01*
X100951168Y-77872975D01*
X100951445Y-77873252D01*
X100963015Y-77887351D01*
X100963132Y-77887509D01*
X100967329Y-77893790D01*
X100973286Y-77899748D01*
X100980294Y-77904430D01*
X100988078Y-77907655D01*
X100996347Y-77909300D01*
X101004771Y-77909300D01*
X101013039Y-77907656D01*
X101020824Y-77904431D01*
X101027832Y-77899749D01*
X101033790Y-77893792D01*
X101037988Y-77887508D01*
X101038105Y-77887350D01*
X101049675Y-77873252D01*
X101049952Y-77872975D01*
X101063635Y-77861746D01*
X101063961Y-77861528D01*
X101079565Y-77853187D01*
X101079927Y-77853037D01*
X101096869Y-77847898D01*
X101097254Y-77847822D01*
X101117072Y-77845870D01*
X101117268Y-77845860D01*
X101137560Y-77845860D01*
X101139292Y-77846860D01*
X101139292Y-77848860D01*
X101137756Y-77849850D01*
X101115910Y-77852001D01*
X101095086Y-77858319D01*
X101075897Y-77868575D01*
X101059078Y-77882378D01*
X101045275Y-77899197D01*
X101035019Y-77918386D01*
X101028701Y-77939210D01*
X101026560Y-77960954D01*
X101026560Y-78361766D01*
X101028701Y-78383510D01*
X101035019Y-78404334D01*
X101045275Y-78423523D01*
X101059078Y-78440342D01*
X101075897Y-78454145D01*
X101095086Y-78464401D01*
X101115910Y-78470719D01*
X101137756Y-78472870D01*
X101139382Y-78474035D01*
X101139186Y-78476025D01*
X101137560Y-78476860D01*
X101117268Y-78476860D01*
X101117072Y-78476850D01*
X101097254Y-78474898D01*
X101096869Y-78474822D01*
X101079927Y-78469683D01*
X101079565Y-78469533D01*
X101063961Y-78461192D01*
X101063635Y-78460974D01*
X101049952Y-78449745D01*
X101049675Y-78449468D01*
X101038105Y-78435369D01*
X101037988Y-78435211D01*
X101033791Y-78428930D01*
X101027834Y-78422972D01*
X101020826Y-78418290D01*
X101013042Y-78415065D01*
X101004773Y-78413420D01*
X100996349Y-78413420D01*
X100988081Y-78415064D01*
X100980296Y-78418289D01*
X100973288Y-78422971D01*
X100967330Y-78428928D01*
X100963132Y-78435212D01*
X100963015Y-78435370D01*
X100951445Y-78449468D01*
X100951168Y-78449745D01*
X100937485Y-78460974D01*
X100937159Y-78461192D01*
X100921555Y-78469533D01*
X100921193Y-78469683D01*
X100904251Y-78474822D01*
X100903866Y-78474898D01*
X100884048Y-78476850D01*
X100883852Y-78476860D01*
X100863560Y-78476860D01*
X100861828Y-78475860D01*
X100861828Y-78473860D01*
X100863364Y-78472870D01*
X100885210Y-78470719D01*
X100906034Y-78464401D01*
X100925223Y-78454145D01*
X100942042Y-78440342D01*
X100955845Y-78423523D01*
X100966101Y-78404334D01*
X100972419Y-78383510D01*
X100974560Y-78361766D01*
X100974560Y-77960954D01*
X100972419Y-77939210D01*
X100966101Y-77918386D01*
X100955845Y-77899197D01*
X100942042Y-77882378D01*
X100925223Y-77868575D01*
X100906034Y-77858319D01*
X100885210Y-77852001D01*
X100863364Y-77849850D01*
X100861738Y-77848685D01*
X100861934Y-77846695D01*
X100863560Y-77845860D01*
X100883852Y-77845860D01*
X100884048Y-77845870D01*
G37*
G36*
X100800732Y-63843000D02*
G01*
X100801000Y-63844000D01*
X100801000Y-65396000D01*
X100800000Y-65397732D01*
X100799000Y-65398000D01*
X100726000Y-65398000D01*
X100724268Y-65397000D01*
X100724000Y-65396000D01*
X100724000Y-63844000D01*
X100725000Y-63842268D01*
X100726000Y-63842000D01*
X100799000Y-63842000D01*
X100800732Y-63843000D01*
G37*
G36*
X106475732Y-63843000D02*
G01*
X106476000Y-63844000D01*
X106476000Y-65396000D01*
X106475000Y-65397732D01*
X106474000Y-65398000D01*
X106401000Y-65398000D01*
X106399268Y-65397000D01*
X106399000Y-65396000D01*
X106399000Y-63844000D01*
X106400000Y-63842268D01*
X106401000Y-63842000D01*
X106474000Y-63842000D01*
X106475732Y-63843000D01*
G37*
M02*
