G04 #@! TF.GenerationSoftware,KiCad,Pcbnew,(5.1.10)-1*
G04 #@! TF.CreationDate,2021-11-01T09:15:16+00:00*
G04 #@! TF.ProjectId,EnvOpenPico,456e764f-7065-46e5-9069-636f2e6b6963,REV1*
G04 #@! TF.SameCoordinates,Original*
G04 #@! TF.FileFunction,Other,Fab,Bot*
%FSLAX46Y46*%
G04 Gerber Fmt 4.6, Leading zero omitted, Abs format (unit mm)*
G04 Created by KiCad (PCBNEW (5.1.10)-1) date 2021-11-01 09:15:16*
%MOMM*%
%LPD*%
G01*
G04 APERTURE LIST*
%ADD10C,0.100000*%
%ADD11C,0.150000*%
%ADD12C,0.040000*%
G04 APERTURE END LIST*
D10*
X113135000Y-57430000D02*
X111230000Y-57430000D01*
X111230000Y-57430000D02*
X111230000Y-108230000D01*
X111230000Y-108230000D02*
X113770000Y-108230000D01*
X113770000Y-108230000D02*
X113770000Y-58065000D01*
X113770000Y-58065000D02*
X113135000Y-57430000D01*
X94065000Y-108170000D02*
X95970000Y-108170000D01*
X95970000Y-108170000D02*
X95970000Y-57370000D01*
X95970000Y-57370000D02*
X93430000Y-57370000D01*
X93430000Y-57370000D02*
X93430000Y-107535000D01*
X93430000Y-107535000D02*
X94065000Y-108170000D01*
D11*
X97792380Y-78333333D02*
X97316190Y-78000000D01*
X97792380Y-77761904D02*
X96792380Y-77761904D01*
X96792380Y-78142857D01*
X96840000Y-78238095D01*
X96887619Y-78285714D01*
X96982857Y-78333333D01*
X97125714Y-78333333D01*
X97220952Y-78285714D01*
X97268571Y-78238095D01*
X97316190Y-78142857D01*
X97316190Y-77761904D01*
X96887619Y-78714285D02*
X96840000Y-78761904D01*
X96792380Y-78857142D01*
X96792380Y-79095238D01*
X96840000Y-79190476D01*
X96887619Y-79238095D01*
X96982857Y-79285714D01*
X97078095Y-79285714D01*
X97220952Y-79238095D01*
X97792380Y-78666666D01*
X97792380Y-79285714D01*
X100112380Y-75523809D02*
X100112380Y-74952380D01*
X100112380Y-75238095D02*
X99112380Y-75238095D01*
X99255238Y-75142857D01*
X99350476Y-75047619D01*
X99398095Y-74952380D01*
X99112380Y-76142857D02*
X99112380Y-76238095D01*
X99160000Y-76333333D01*
X99207619Y-76380952D01*
X99302857Y-76428571D01*
X99493333Y-76476190D01*
X99731428Y-76476190D01*
X99921904Y-76428571D01*
X100017142Y-76380952D01*
X100064761Y-76333333D01*
X100112380Y-76238095D01*
X100112380Y-76142857D01*
X100064761Y-76047619D01*
X100017142Y-76000000D01*
X99921904Y-75952380D01*
X99731428Y-75904761D01*
X99493333Y-75904761D01*
X99302857Y-75952380D01*
X99207619Y-76000000D01*
X99160000Y-76047619D01*
X99112380Y-76142857D01*
X100112380Y-76904761D02*
X99112380Y-76904761D01*
X100112380Y-77476190D02*
X99540952Y-77047619D01*
X99112380Y-77476190D02*
X99683809Y-76904761D01*
X99112380Y-78857142D02*
X99112380Y-78952380D01*
X99160000Y-79047619D01*
X99207619Y-79095238D01*
X99302857Y-79142857D01*
X99493333Y-79190476D01*
X99731428Y-79190476D01*
X99921904Y-79142857D01*
X100017142Y-79095238D01*
X100064761Y-79047619D01*
X100112380Y-78952380D01*
X100112380Y-78857142D01*
X100064761Y-78761904D01*
X100017142Y-78714285D01*
X99921904Y-78666666D01*
X99731428Y-78619047D01*
X99493333Y-78619047D01*
X99302857Y-78666666D01*
X99207619Y-78714285D01*
X99160000Y-78761904D01*
X99112380Y-78857142D01*
X99445714Y-80047619D02*
X100112380Y-80047619D01*
X99064761Y-79809523D02*
X99779047Y-79571428D01*
X99779047Y-80190476D01*
X99112380Y-80761904D02*
X99112380Y-80857142D01*
X99160000Y-80952380D01*
X99207619Y-81000000D01*
X99302857Y-81047619D01*
X99493333Y-81095238D01*
X99731428Y-81095238D01*
X99921904Y-81047619D01*
X100017142Y-81000000D01*
X100064761Y-80952380D01*
X100112380Y-80857142D01*
X100112380Y-80761904D01*
X100064761Y-80666666D01*
X100017142Y-80619047D01*
X99921904Y-80571428D01*
X99731428Y-80523809D01*
X99493333Y-80523809D01*
X99302857Y-80571428D01*
X99207619Y-80619047D01*
X99160000Y-80666666D01*
X99112380Y-80761904D01*
X99207619Y-81476190D02*
X99160000Y-81523809D01*
X99112380Y-81619047D01*
X99112380Y-81857142D01*
X99160000Y-81952380D01*
X99207619Y-82000000D01*
X99302857Y-82047619D01*
X99398095Y-82047619D01*
X99540952Y-82000000D01*
X100112380Y-81428571D01*
X100112380Y-82047619D01*
D12*
X98613095Y-78458333D02*
X98494047Y-78375000D01*
X98613095Y-78315476D02*
X98363095Y-78315476D01*
X98363095Y-78410714D01*
X98375000Y-78434523D01*
X98386904Y-78446428D01*
X98410714Y-78458333D01*
X98446428Y-78458333D01*
X98470238Y-78446428D01*
X98482142Y-78434523D01*
X98494047Y-78410714D01*
X98494047Y-78315476D01*
X98386904Y-78553571D02*
X98375000Y-78565476D01*
X98363095Y-78589285D01*
X98363095Y-78648809D01*
X98375000Y-78672619D01*
X98386904Y-78684523D01*
X98410714Y-78696428D01*
X98434523Y-78696428D01*
X98470238Y-78684523D01*
X98613095Y-78541666D01*
X98613095Y-78696428D01*
M02*
