%FSLAX45Y45*%
G04 Gerber Fmt 4.5, Leading zero omitted, Abs format (unit mm)*
G04 Created by KiCad (PCBNEW (5.1.10)-1) date 2021-08-18 14:36:59*
%MOMM*%
%LPD*%
G01*
G04 APERTURE LIST*
%TA.AperFunction,Profile*%
%ADD10C,0.050000*%
%TD*%
%ADD11C,0.200000*%
%ADD12C,0.300000*%
G04 APERTURE END LIST*
D10*
X11440000Y-10802500D02*
G75*
G02*
X11390000Y-10852500I-50000J0D01*
G01*
X9340000Y-10852500D02*
G75*
G02*
X9290000Y-10802500I0J50000D01*
G01*
X9290000Y-5772500D02*
G75*
G02*
X9340000Y-5722500I50000J0D01*
G01*
X11390000Y-5722500D02*
G75*
G02*
X11440000Y-5772500I0J-50000D01*
G01*
X11440000Y-10802500D02*
X11440000Y-5772500D01*
X9340000Y-5722500D02*
X11390000Y-5722500D01*
X9290000Y-10802500D02*
X9290000Y-5772500D01*
X9340000Y-10852500D02*
X11390000Y-10852500D01*
D11*
X9614000Y-6502500D02*
X9634000Y-6522500D01*
X9634000Y-6502500D02*
X9614000Y-6522500D01*
X9686000Y-9016500D02*
X9706000Y-9036500D01*
X9706000Y-9016500D02*
X9686000Y-9036500D01*
X9758000Y-10132500D02*
X9778000Y-10152500D01*
X9778000Y-10132500D02*
X9758000Y-10152500D01*
X9767000Y-7564500D02*
X9787000Y-7584500D01*
X9787000Y-7564500D02*
X9767000Y-7584500D01*
X9789000Y-7413500D02*
X9809000Y-7433500D01*
X9809000Y-7413500D02*
X9789000Y-7433500D01*
X9822000Y-7281500D02*
X9842000Y-7301500D01*
X9842000Y-7281500D02*
X9822000Y-7301500D01*
X9961000Y-7608500D02*
X9981000Y-7628500D01*
X9981000Y-7608500D02*
X9961000Y-7628500D01*
X10096620Y-7980720D02*
X10116620Y-8000720D01*
X10116620Y-7980720D02*
X10096620Y-8000720D01*
X10102540Y-8339000D02*
X10122540Y-8359000D01*
X10122540Y-8339000D02*
X10102540Y-8359000D01*
X10274420Y-6334800D02*
X10294420Y-6354800D01*
X10294420Y-6334800D02*
X10274420Y-6354800D01*
X10320137Y-8072040D02*
X10340137Y-8092040D01*
X10340137Y-8072040D02*
X10320137Y-8092040D01*
X10324999Y-6286539D02*
X10344999Y-6306539D01*
X10344999Y-6286539D02*
X10324999Y-6306539D01*
X10350000Y-6614500D02*
X10370000Y-6634500D01*
X10370000Y-6614500D02*
X10350000Y-6634500D01*
X10375000Y-6334619D02*
X10395000Y-6354619D01*
X10395000Y-6334619D02*
X10375000Y-6354619D01*
X10424280Y-6286541D02*
X10444280Y-6306541D01*
X10444280Y-6286541D02*
X10424280Y-6306541D01*
X10426390Y-7788582D02*
X10446390Y-7808582D01*
X10446390Y-7788582D02*
X10426390Y-7808582D01*
X10523473Y-7788396D02*
X10543473Y-7808396D01*
X10543473Y-7788396D02*
X10523473Y-7808396D01*
X10563296Y-8129699D02*
X10583296Y-8149699D01*
X10583296Y-8129699D02*
X10563296Y-8149699D01*
X10662500Y-7007500D02*
X10682500Y-7027500D01*
X10682500Y-7007500D02*
X10662500Y-7027500D01*
X10672500Y-6452000D02*
X10692500Y-6472000D01*
X10692500Y-6452000D02*
X10672500Y-6472000D01*
X10720000Y-6912500D02*
X10740000Y-6932500D01*
X10740000Y-6912500D02*
X10720000Y-6932500D01*
X10720000Y-7102500D02*
X10740000Y-7122500D01*
X10740000Y-7102500D02*
X10720000Y-7122500D01*
X10763756Y-6738800D02*
X10783756Y-6758800D01*
X10783756Y-6738800D02*
X10763756Y-6758800D01*
X10777500Y-7007500D02*
X10797500Y-7027500D01*
X10797500Y-7007500D02*
X10777500Y-7027500D01*
X11008480Y-8059460D02*
X11028480Y-8079460D01*
X11028480Y-8059460D02*
X11008480Y-8079460D01*
X11009000Y-10180500D02*
X11029000Y-10200500D01*
X11029000Y-10180500D02*
X11009000Y-10200500D01*
X11034000Y-8484000D02*
X11054000Y-8504000D01*
X11054000Y-8484000D02*
X11034000Y-8504000D01*
X9662500Y-6192500D02*
G75*
G03*
X9662500Y-6192500I-17500J0D01*
G01*
X9677500Y-8732500D02*
G75*
G03*
X9677500Y-8732500I-17500J0D01*
G01*
X9687500Y-8533500D02*
G75*
G03*
X9687500Y-8533500I-17500J0D01*
G01*
X9746693Y-8472500D02*
G75*
G03*
X9746693Y-8472500I-17500J0D01*
G01*
X9790000Y-8187500D02*
G75*
G03*
X9790000Y-8187500I-17500J0D01*
G01*
X9799194Y-8571999D02*
G75*
G03*
X9799194Y-8571999I-17500J0D01*
G01*
X9858593Y-8526207D02*
G75*
G03*
X9858593Y-8526207I-17500J0D01*
G01*
X9883500Y-8452500D02*
G75*
G03*
X9883500Y-8452500I-17500J0D01*
G01*
X10037500Y-8957500D02*
G75*
G03*
X10037500Y-8957500I-17500J0D01*
G01*
X10043750Y-8236250D02*
G75*
G03*
X10043750Y-8236250I-17500J0D01*
G01*
X10055000Y-6462000D02*
G75*
G03*
X10055000Y-6462000I-17500J0D01*
G01*
X10134500Y-7620640D02*
G75*
G03*
X10134500Y-7620640I-17500J0D01*
G01*
X10202500Y-9210000D02*
G75*
G03*
X10202500Y-9210000I-17500J0D01*
G01*
X10259000Y-8475000D02*
G75*
G03*
X10259000Y-8475000I-17500J0D01*
G01*
X10259000Y-8602500D02*
G75*
G03*
X10259000Y-8602500I-17500J0D01*
G01*
X10259000Y-8730000D02*
G75*
G03*
X10259000Y-8730000I-17500J0D01*
G01*
X10386500Y-8475000D02*
G75*
G03*
X10386500Y-8475000I-17500J0D01*
G01*
X10386500Y-8602500D02*
G75*
G03*
X10386500Y-8602500I-17500J0D01*
G01*
X10386500Y-8730000D02*
G75*
G03*
X10386500Y-8730000I-17500J0D01*
G01*
X10445927Y-9088028D02*
G75*
G03*
X10445927Y-9088028I-17500J0D01*
G01*
X10451500Y-8812500D02*
G75*
G03*
X10451500Y-8812500I-17500J0D01*
G01*
X10514000Y-8475000D02*
G75*
G03*
X10514000Y-8475000I-17500J0D01*
G01*
X10514000Y-8602500D02*
G75*
G03*
X10514000Y-8602500I-17500J0D01*
G01*
X10514000Y-8730000D02*
G75*
G03*
X10514000Y-8730000I-17500J0D01*
G01*
X10524000Y-8372500D02*
G75*
G03*
X10524000Y-8372500I-17500J0D01*
G01*
X10527804Y-9363984D02*
G75*
G03*
X10527804Y-9363984I-17500J0D01*
G01*
X10777500Y-9222500D02*
G75*
G03*
X10777500Y-9222500I-17500J0D01*
G01*
X10867500Y-9012500D02*
G75*
G03*
X10867500Y-9012500I-17500J0D01*
G01*
X10897500Y-9317500D02*
G75*
G03*
X10897500Y-9317500I-17500J0D01*
G01*
X10936920Y-7368420D02*
G75*
G03*
X10936920Y-7368420I-17500J0D01*
G01*
X11048504Y-7358908D02*
G75*
G03*
X11048504Y-7358908I-17500J0D01*
G01*
X11054600Y-7777500D02*
G75*
G03*
X11054600Y-7777500I-17500J0D01*
G01*
X9928000Y-5922500D02*
X9928000Y-5982500D01*
X9898000Y-5952500D02*
X9958000Y-5952500D01*
X9948000Y-5982500D02*
X9948000Y-5922500D01*
X9908000Y-5982500D02*
X9908000Y-5922500D01*
X9948000Y-5922500D02*
G75*
G03*
X9908000Y-5922500I-20000J0D01*
G01*
X9908000Y-5982500D02*
G75*
G03*
X9948000Y-5982500I20000J0D01*
G01*
X9928000Y-6340500D02*
X9928000Y-6400500D01*
X9898000Y-6370500D02*
X9958000Y-6370500D01*
X9948000Y-6425500D02*
X9948000Y-6315500D01*
X9908000Y-6425500D02*
X9908000Y-6315500D01*
X9948000Y-6315500D02*
G75*
G03*
X9908000Y-6315500I-20000J0D01*
G01*
X9908000Y-6425500D02*
G75*
G03*
X9948000Y-6425500I20000J0D01*
G01*
X10792000Y-5922500D02*
X10792000Y-5982500D01*
X10762000Y-5952500D02*
X10822000Y-5952500D01*
X10812000Y-5982500D02*
X10812000Y-5922500D01*
X10772000Y-5982500D02*
X10772000Y-5922500D01*
X10812000Y-5922500D02*
G75*
G03*
X10772000Y-5922500I-20000J0D01*
G01*
X10772000Y-5982500D02*
G75*
G03*
X10812000Y-5982500I20000J0D01*
G01*
X10792000Y-6340500D02*
X10792000Y-6400500D01*
X10762000Y-6370500D02*
X10822000Y-6370500D01*
X10812000Y-6425500D02*
X10812000Y-6315500D01*
X10772000Y-6425500D02*
X10772000Y-6315500D01*
X10812000Y-6315500D02*
G75*
G03*
X10772000Y-6315500I-20000J0D01*
G01*
X10772000Y-6425500D02*
G75*
G03*
X10812000Y-6425500I20000J0D01*
G01*
X9339356Y-9209856D02*
X9339356Y-9139144D01*
X9268644Y-9139144D01*
X9268644Y-9209856D01*
X9339356Y-9209856D01*
X9340356Y-5907856D02*
X9340356Y-5837144D01*
X9269644Y-5837144D01*
X9269644Y-5907856D01*
X9340356Y-5907856D01*
X9340356Y-6160856D02*
X9340356Y-6090144D01*
X9269644Y-6090144D01*
X9269644Y-6160856D01*
X9340356Y-6160856D01*
X9340356Y-6415856D02*
X9340356Y-6345144D01*
X9269644Y-6345144D01*
X9269644Y-6415856D01*
X9340356Y-6415856D01*
X9340356Y-6668856D02*
X9340356Y-6598144D01*
X9269644Y-6598144D01*
X9269644Y-6668856D01*
X9340356Y-6668856D01*
X9340356Y-6923856D02*
X9340356Y-6853144D01*
X9269644Y-6853144D01*
X9269644Y-6923856D01*
X9340356Y-6923856D01*
X9340356Y-7177856D02*
X9340356Y-7107144D01*
X9269644Y-7107144D01*
X9269644Y-7177856D01*
X9340356Y-7177856D01*
X9340356Y-7431856D02*
X9340356Y-7361144D01*
X9269644Y-7361144D01*
X9269644Y-7431856D01*
X9340356Y-7431856D01*
X9340356Y-7685856D02*
X9340356Y-7615144D01*
X9269644Y-7615144D01*
X9269644Y-7685856D01*
X9340356Y-7685856D01*
X9340356Y-8193856D02*
X9340356Y-8123144D01*
X9269644Y-8123144D01*
X9269644Y-8193856D01*
X9340356Y-8193856D01*
X9340356Y-8447856D02*
X9340356Y-8377144D01*
X9269644Y-8377144D01*
X9269644Y-8447856D01*
X9340356Y-8447856D01*
X9340356Y-8701856D02*
X9340356Y-8631144D01*
X9269644Y-8631144D01*
X9269644Y-8701856D01*
X9340356Y-8701856D01*
X9340356Y-8955856D02*
X9340356Y-8885144D01*
X9269644Y-8885144D01*
X9269644Y-8955856D01*
X9340356Y-8955856D01*
X9340356Y-9463856D02*
X9340356Y-9393144D01*
X9269644Y-9393144D01*
X9269644Y-9463856D01*
X9340356Y-9463856D01*
X9340356Y-9717856D02*
X9340356Y-9647144D01*
X9269644Y-9647144D01*
X9269644Y-9717856D01*
X9340356Y-9717856D01*
X9340356Y-9971856D02*
X9340356Y-9901144D01*
X9269644Y-9901144D01*
X9269644Y-9971856D01*
X9340356Y-9971856D01*
X9340356Y-10225856D02*
X9340356Y-10155144D01*
X9269644Y-10155144D01*
X9269644Y-10225856D01*
X9340356Y-10225856D01*
X9340356Y-10479856D02*
X9340356Y-10409144D01*
X9269644Y-10409144D01*
X9269644Y-10479856D01*
X9340356Y-10479856D01*
X9340356Y-10733856D02*
X9340356Y-10663144D01*
X9269644Y-10663144D01*
X9269644Y-10733856D01*
X9340356Y-10733856D01*
X9341356Y-7939856D02*
X9341356Y-7869144D01*
X9270644Y-7869144D01*
X9270644Y-7939856D01*
X9341356Y-7939856D01*
X9510356Y-5907856D02*
X9510356Y-5837144D01*
X9439644Y-5837144D01*
X9439644Y-5907856D01*
X9510356Y-5907856D01*
X9510356Y-6161856D02*
X9510356Y-6091144D01*
X9439644Y-6091144D01*
X9439644Y-6161856D01*
X9510356Y-6161856D01*
X9510356Y-6415856D02*
X9510356Y-6345144D01*
X9439644Y-6345144D01*
X9439644Y-6415856D01*
X9510356Y-6415856D01*
X9510356Y-6669856D02*
X9510356Y-6599144D01*
X9439644Y-6599144D01*
X9439644Y-6669856D01*
X9510356Y-6669856D01*
X9510356Y-6923856D02*
X9510356Y-6853144D01*
X9439644Y-6853144D01*
X9439644Y-6923856D01*
X9510356Y-6923856D01*
X9510356Y-7177856D02*
X9510356Y-7107144D01*
X9439644Y-7107144D01*
X9439644Y-7177856D01*
X9510356Y-7177856D01*
X9510356Y-7431856D02*
X9510356Y-7361144D01*
X9439644Y-7361144D01*
X9439644Y-7431856D01*
X9510356Y-7431856D01*
X9510356Y-7685856D02*
X9510356Y-7615144D01*
X9439644Y-7615144D01*
X9439644Y-7685856D01*
X9510356Y-7685856D01*
X9510356Y-7939856D02*
X9510356Y-7869144D01*
X9439644Y-7869144D01*
X9439644Y-7939856D01*
X9510356Y-7939856D01*
X9510356Y-8193856D02*
X9510356Y-8123144D01*
X9439644Y-8123144D01*
X9439644Y-8193856D01*
X9510356Y-8193856D01*
X9510356Y-8447856D02*
X9510356Y-8377144D01*
X9439644Y-8377144D01*
X9439644Y-8447856D01*
X9510356Y-8447856D01*
X9510356Y-8701856D02*
X9510356Y-8631144D01*
X9439644Y-8631144D01*
X9439644Y-8701856D01*
X9510356Y-8701856D01*
X9510356Y-8955856D02*
X9510356Y-8885144D01*
X9439644Y-8885144D01*
X9439644Y-8955856D01*
X9510356Y-8955856D01*
X9510356Y-9209856D02*
X9510356Y-9139144D01*
X9439644Y-9139144D01*
X9439644Y-9209856D01*
X9510356Y-9209856D01*
X9510356Y-9463856D02*
X9510356Y-9393144D01*
X9439644Y-9393144D01*
X9439644Y-9463856D01*
X9510356Y-9463856D01*
X9510356Y-9717856D02*
X9510356Y-9647144D01*
X9439644Y-9647144D01*
X9439644Y-9717856D01*
X9510356Y-9717856D01*
X9510356Y-9971856D02*
X9510356Y-9901144D01*
X9439644Y-9901144D01*
X9439644Y-9971856D01*
X9510356Y-9971856D01*
X9510356Y-10225856D02*
X9510356Y-10155144D01*
X9439644Y-10155144D01*
X9439644Y-10225856D01*
X9510356Y-10225856D01*
X9510356Y-10479856D02*
X9510356Y-10409144D01*
X9439644Y-10409144D01*
X9439644Y-10479856D01*
X9510356Y-10479856D01*
X9510356Y-10733856D02*
X9510356Y-10663144D01*
X9439644Y-10663144D01*
X9439644Y-10733856D01*
X9510356Y-10733856D01*
X10150356Y-10727856D02*
X10150356Y-10657144D01*
X10079644Y-10657144D01*
X10079644Y-10727856D01*
X10150356Y-10727856D01*
X10404356Y-10727856D02*
X10404356Y-10657144D01*
X10333644Y-10657144D01*
X10333644Y-10727856D01*
X10404356Y-10727856D01*
X10658356Y-10727856D02*
X10658356Y-10657144D01*
X10587644Y-10657144D01*
X10587644Y-10727856D01*
X10658356Y-10727856D01*
X11290356Y-5907856D02*
X11290356Y-5837144D01*
X11219644Y-5837144D01*
X11219644Y-5907856D01*
X11290356Y-5907856D01*
X11290356Y-6161856D02*
X11290356Y-6091144D01*
X11219644Y-6091144D01*
X11219644Y-6161856D01*
X11290356Y-6161856D01*
X11290356Y-6415856D02*
X11290356Y-6345144D01*
X11219644Y-6345144D01*
X11219644Y-6415856D01*
X11290356Y-6415856D01*
X11290356Y-6669856D02*
X11290356Y-6599144D01*
X11219644Y-6599144D01*
X11219644Y-6669856D01*
X11290356Y-6669856D01*
X11290356Y-6923856D02*
X11290356Y-6853144D01*
X11219644Y-6853144D01*
X11219644Y-6923856D01*
X11290356Y-6923856D01*
X11290356Y-7177856D02*
X11290356Y-7107144D01*
X11219644Y-7107144D01*
X11219644Y-7177856D01*
X11290356Y-7177856D01*
X11290356Y-7431856D02*
X11290356Y-7361144D01*
X11219644Y-7361144D01*
X11219644Y-7431856D01*
X11290356Y-7431856D01*
X11290356Y-7685856D02*
X11290356Y-7615144D01*
X11219644Y-7615144D01*
X11219644Y-7685856D01*
X11290356Y-7685856D01*
X11290356Y-7939856D02*
X11290356Y-7869144D01*
X11219644Y-7869144D01*
X11219644Y-7939856D01*
X11290356Y-7939856D01*
X11290356Y-8193856D02*
X11290356Y-8123144D01*
X11219644Y-8123144D01*
X11219644Y-8193856D01*
X11290356Y-8193856D01*
X11290356Y-8447856D02*
X11290356Y-8377144D01*
X11219644Y-8377144D01*
X11219644Y-8447856D01*
X11290356Y-8447856D01*
X11290356Y-8701856D02*
X11290356Y-8631144D01*
X11219644Y-8631144D01*
X11219644Y-8701856D01*
X11290356Y-8701856D01*
X11290356Y-8955856D02*
X11290356Y-8885144D01*
X11219644Y-8885144D01*
X11219644Y-8955856D01*
X11290356Y-8955856D01*
X11290356Y-9209856D02*
X11290356Y-9139144D01*
X11219644Y-9139144D01*
X11219644Y-9209856D01*
X11290356Y-9209856D01*
X11290356Y-9463856D02*
X11290356Y-9393144D01*
X11219644Y-9393144D01*
X11219644Y-9463856D01*
X11290356Y-9463856D01*
X11290356Y-9717856D02*
X11290356Y-9647144D01*
X11219644Y-9647144D01*
X11219644Y-9717856D01*
X11290356Y-9717856D01*
X11290356Y-9971856D02*
X11290356Y-9901144D01*
X11219644Y-9901144D01*
X11219644Y-9971856D01*
X11290356Y-9971856D01*
X11290356Y-10225856D02*
X11290356Y-10155144D01*
X11219644Y-10155144D01*
X11219644Y-10225856D01*
X11290356Y-10225856D01*
X11290356Y-10479856D02*
X11290356Y-10409144D01*
X11219644Y-10409144D01*
X11219644Y-10479856D01*
X11290356Y-10479856D01*
X11290356Y-10733856D02*
X11290356Y-10663144D01*
X11219644Y-10663144D01*
X11219644Y-10733856D01*
X11290356Y-10733856D01*
X11460356Y-5907856D02*
X11460356Y-5837144D01*
X11389644Y-5837144D01*
X11389644Y-5907856D01*
X11460356Y-5907856D01*
X11460356Y-6161856D02*
X11460356Y-6091144D01*
X11389644Y-6091144D01*
X11389644Y-6161856D01*
X11460356Y-6161856D01*
X11460356Y-6415856D02*
X11460356Y-6345144D01*
X11389644Y-6345144D01*
X11389644Y-6415856D01*
X11460356Y-6415856D01*
X11460356Y-6669856D02*
X11460356Y-6599144D01*
X11389644Y-6599144D01*
X11389644Y-6669856D01*
X11460356Y-6669856D01*
X11460356Y-6923856D02*
X11460356Y-6853144D01*
X11389644Y-6853144D01*
X11389644Y-6923856D01*
X11460356Y-6923856D01*
X11460356Y-7177856D02*
X11460356Y-7107144D01*
X11389644Y-7107144D01*
X11389644Y-7177856D01*
X11460356Y-7177856D01*
X11460356Y-7431856D02*
X11460356Y-7361144D01*
X11389644Y-7361144D01*
X11389644Y-7431856D01*
X11460356Y-7431856D01*
X11460356Y-7685856D02*
X11460356Y-7615144D01*
X11389644Y-7615144D01*
X11389644Y-7685856D01*
X11460356Y-7685856D01*
X11460356Y-7939856D02*
X11460356Y-7869144D01*
X11389644Y-7869144D01*
X11389644Y-7939856D01*
X11460356Y-7939856D01*
X11460356Y-8193856D02*
X11460356Y-8123144D01*
X11389644Y-8123144D01*
X11389644Y-8193856D01*
X11460356Y-8193856D01*
X11460356Y-8447856D02*
X11460356Y-8377144D01*
X11389644Y-8377144D01*
X11389644Y-8447856D01*
X11460356Y-8447856D01*
X11460356Y-8701856D02*
X11460356Y-8631144D01*
X11389644Y-8631144D01*
X11389644Y-8701856D01*
X11460356Y-8701856D01*
X11460356Y-8955856D02*
X11460356Y-8885144D01*
X11389644Y-8885144D01*
X11389644Y-8955856D01*
X11460356Y-8955856D01*
X11460356Y-9209856D02*
X11460356Y-9139144D01*
X11389644Y-9139144D01*
X11389644Y-9209856D01*
X11460356Y-9209856D01*
X11460356Y-9463856D02*
X11460356Y-9393144D01*
X11389644Y-9393144D01*
X11389644Y-9463856D01*
X11460356Y-9463856D01*
X11460356Y-9717856D02*
X11460356Y-9647144D01*
X11389644Y-9647144D01*
X11389644Y-9717856D01*
X11460356Y-9717856D01*
X11460356Y-9971856D02*
X11460356Y-9901144D01*
X11389644Y-9901144D01*
X11389644Y-9971856D01*
X11460356Y-9971856D01*
X11460356Y-10225856D02*
X11460356Y-10155144D01*
X11389644Y-10155144D01*
X11389644Y-10225856D01*
X11460356Y-10225856D01*
X11460356Y-10479856D02*
X11460356Y-10409144D01*
X11389644Y-10409144D01*
X11389644Y-10479856D01*
X11460356Y-10479856D01*
X11460356Y-10733856D02*
X11460356Y-10663144D01*
X11389644Y-10663144D01*
X11389644Y-10733856D01*
X11460356Y-10733856D01*
D12*
X286429Y-465714D02*
X286429Y-165714D01*
X357857Y-165714D01*
X400714Y-180000D01*
X429286Y-208571D01*
X443571Y-237143D01*
X457857Y-294286D01*
X457857Y-337143D01*
X443571Y-394286D01*
X429286Y-422857D01*
X400714Y-451428D01*
X357857Y-465714D01*
X286429Y-465714D01*
X586429Y-465714D02*
X586429Y-265714D01*
X586429Y-322857D02*
X600714Y-294286D01*
X615000Y-280000D01*
X643571Y-265714D01*
X672143Y-265714D01*
X772143Y-465714D02*
X772143Y-265714D01*
X772143Y-165714D02*
X757857Y-180000D01*
X772143Y-194286D01*
X786428Y-180000D01*
X772143Y-165714D01*
X772143Y-194286D01*
X957857Y-465714D02*
X929286Y-451428D01*
X915000Y-422857D01*
X915000Y-165714D01*
X1115000Y-465714D02*
X1086429Y-451428D01*
X1072143Y-422857D01*
X1072143Y-165714D01*
X1457857Y-465714D02*
X1457857Y-165714D01*
X1557857Y-380000D01*
X1657857Y-165714D01*
X1657857Y-465714D01*
X1929286Y-465714D02*
X1929286Y-308571D01*
X1915000Y-280000D01*
X1886428Y-265714D01*
X1829286Y-265714D01*
X1800714Y-280000D01*
X1929286Y-451428D02*
X1900714Y-465714D01*
X1829286Y-465714D01*
X1800714Y-451428D01*
X1786428Y-422857D01*
X1786428Y-394286D01*
X1800714Y-365714D01*
X1829286Y-351428D01*
X1900714Y-351428D01*
X1929286Y-337143D01*
X2072143Y-265714D02*
X2072143Y-565714D01*
X2072143Y-280000D02*
X2100714Y-265714D01*
X2157857Y-265714D01*
X2186429Y-280000D01*
X2200714Y-294286D01*
X2215000Y-322857D01*
X2215000Y-408571D01*
X2200714Y-437143D01*
X2186429Y-451428D01*
X2157857Y-465714D01*
X2100714Y-465714D01*
X2072143Y-451428D01*
X2343571Y-437143D02*
X2357857Y-451428D01*
X2343571Y-465714D01*
X2329286Y-451428D01*
X2343571Y-437143D01*
X2343571Y-465714D01*
X2343571Y-280000D02*
X2357857Y-294286D01*
X2343571Y-308571D01*
X2329286Y-294286D01*
X2343571Y-280000D01*
X2343571Y-308571D01*
X-20000Y-950000D02*
X0Y-970000D01*
X0Y-950000D02*
X-20000Y-970000D01*
X343571Y-795714D02*
X372143Y-795714D01*
X400714Y-810000D01*
X415000Y-824286D01*
X429286Y-852857D01*
X443571Y-910000D01*
X443571Y-981428D01*
X429286Y-1038571D01*
X415000Y-1067143D01*
X400714Y-1081429D01*
X372143Y-1095714D01*
X343571Y-1095714D01*
X315000Y-1081429D01*
X300714Y-1067143D01*
X286429Y-1038571D01*
X272143Y-981428D01*
X272143Y-910000D01*
X286429Y-852857D01*
X300714Y-824286D01*
X315000Y-810000D01*
X343571Y-795714D01*
X572143Y-1067143D02*
X586429Y-1081429D01*
X572143Y-1095714D01*
X557857Y-1081429D01*
X572143Y-1067143D01*
X572143Y-1095714D01*
X700714Y-824286D02*
X715000Y-810000D01*
X743571Y-795714D01*
X815000Y-795714D01*
X843571Y-810000D01*
X857857Y-824286D01*
X872143Y-852857D01*
X872143Y-881428D01*
X857857Y-924286D01*
X686429Y-1095714D01*
X872143Y-1095714D01*
X1057857Y-795714D02*
X1086429Y-795714D01*
X1115000Y-810000D01*
X1129286Y-824286D01*
X1143571Y-852857D01*
X1157857Y-910000D01*
X1157857Y-981428D01*
X1143571Y-1038571D01*
X1129286Y-1067143D01*
X1115000Y-1081429D01*
X1086429Y-1095714D01*
X1057857Y-1095714D01*
X1029286Y-1081429D01*
X1015000Y-1067143D01*
X1000714Y-1038571D01*
X986428Y-981428D01*
X986428Y-910000D01*
X1000714Y-852857D01*
X1015000Y-824286D01*
X1029286Y-810000D01*
X1057857Y-795714D01*
X1343571Y-795714D02*
X1372143Y-795714D01*
X1400714Y-810000D01*
X1415000Y-824286D01*
X1429286Y-852857D01*
X1443571Y-910000D01*
X1443571Y-981428D01*
X1429286Y-1038571D01*
X1415000Y-1067143D01*
X1400714Y-1081429D01*
X1372143Y-1095714D01*
X1343571Y-1095714D01*
X1315000Y-1081429D01*
X1300714Y-1067143D01*
X1286429Y-1038571D01*
X1272143Y-981428D01*
X1272143Y-910000D01*
X1286429Y-852857D01*
X1300714Y-824286D01*
X1315000Y-810000D01*
X1343571Y-795714D01*
X1572143Y-1095714D02*
X1572143Y-895714D01*
X1572143Y-924286D02*
X1586428Y-910000D01*
X1615000Y-895714D01*
X1657857Y-895714D01*
X1686428Y-910000D01*
X1700714Y-938571D01*
X1700714Y-1095714D01*
X1700714Y-938571D02*
X1715000Y-910000D01*
X1743571Y-895714D01*
X1786428Y-895714D01*
X1815000Y-910000D01*
X1829286Y-938571D01*
X1829286Y-1095714D01*
X1972143Y-1095714D02*
X1972143Y-895714D01*
X1972143Y-924286D02*
X1986428Y-910000D01*
X2015000Y-895714D01*
X2057857Y-895714D01*
X2086428Y-910000D01*
X2100714Y-938571D01*
X2100714Y-1095714D01*
X2100714Y-938571D02*
X2115000Y-910000D01*
X2143571Y-895714D01*
X2186429Y-895714D01*
X2215000Y-910000D01*
X2229286Y-938571D01*
X2229286Y-1095714D01*
X2815000Y-781428D02*
X2557857Y-1167143D01*
X3200714Y-795714D02*
X3229286Y-795714D01*
X3257857Y-810000D01*
X3272143Y-824286D01*
X3286428Y-852857D01*
X3300714Y-910000D01*
X3300714Y-981428D01*
X3286428Y-1038571D01*
X3272143Y-1067143D01*
X3257857Y-1081429D01*
X3229286Y-1095714D01*
X3200714Y-1095714D01*
X3172143Y-1081429D01*
X3157857Y-1067143D01*
X3143571Y-1038571D01*
X3129286Y-981428D01*
X3129286Y-910000D01*
X3143571Y-852857D01*
X3157857Y-824286D01*
X3172143Y-810000D01*
X3200714Y-795714D01*
X3429286Y-1067143D02*
X3443571Y-1081429D01*
X3429286Y-1095714D01*
X3415000Y-1081429D01*
X3429286Y-1067143D01*
X3429286Y-1095714D01*
X3629286Y-795714D02*
X3657857Y-795714D01*
X3686428Y-810000D01*
X3700714Y-824286D01*
X3715000Y-852857D01*
X3729286Y-910000D01*
X3729286Y-981428D01*
X3715000Y-1038571D01*
X3700714Y-1067143D01*
X3686428Y-1081429D01*
X3657857Y-1095714D01*
X3629286Y-1095714D01*
X3600714Y-1081429D01*
X3586428Y-1067143D01*
X3572143Y-1038571D01*
X3557857Y-981428D01*
X3557857Y-910000D01*
X3572143Y-852857D01*
X3586428Y-824286D01*
X3600714Y-810000D01*
X3629286Y-795714D01*
X3915000Y-795714D02*
X3943571Y-795714D01*
X3972143Y-810000D01*
X3986428Y-824286D01*
X4000714Y-852857D01*
X4015000Y-910000D01*
X4015000Y-981428D01*
X4000714Y-1038571D01*
X3986428Y-1067143D01*
X3972143Y-1081429D01*
X3943571Y-1095714D01*
X3915000Y-1095714D01*
X3886428Y-1081429D01*
X3872143Y-1067143D01*
X3857857Y-1038571D01*
X3843571Y-981428D01*
X3843571Y-910000D01*
X3857857Y-852857D01*
X3872143Y-824286D01*
X3886428Y-810000D01*
X3915000Y-795714D01*
X4115000Y-795714D02*
X4315000Y-795714D01*
X4186428Y-1095714D01*
X4443571Y-1095714D02*
X4500714Y-1095714D01*
X4529286Y-1081429D01*
X4543571Y-1067143D01*
X4572143Y-1024286D01*
X4586429Y-967143D01*
X4586429Y-852857D01*
X4572143Y-824286D01*
X4557857Y-810000D01*
X4529286Y-795714D01*
X4472143Y-795714D01*
X4443571Y-810000D01*
X4429286Y-824286D01*
X4415000Y-852857D01*
X4415000Y-924286D01*
X4429286Y-952857D01*
X4443571Y-967143D01*
X4472143Y-981428D01*
X4529286Y-981428D01*
X4557857Y-967143D01*
X4572143Y-952857D01*
X4586429Y-924286D01*
X4700714Y-795714D02*
X4700714Y-852857D01*
X4815000Y-795714D02*
X4815000Y-852857D01*
X5257857Y-1210000D02*
X5243571Y-1195714D01*
X5215000Y-1152857D01*
X5200714Y-1124286D01*
X5186429Y-1081429D01*
X5172143Y-1010000D01*
X5172143Y-952857D01*
X5186429Y-881428D01*
X5200714Y-838571D01*
X5215000Y-810000D01*
X5243571Y-767143D01*
X5257857Y-752857D01*
X5357857Y-824286D02*
X5372143Y-810000D01*
X5400714Y-795714D01*
X5472143Y-795714D01*
X5500714Y-810000D01*
X5515000Y-824286D01*
X5529286Y-852857D01*
X5529286Y-881428D01*
X5515000Y-924286D01*
X5343571Y-1095714D01*
X5529286Y-1095714D01*
X5629286Y-795714D02*
X5829286Y-795714D01*
X5700714Y-1095714D01*
X6172143Y-1095714D02*
X6172143Y-795714D01*
X6300714Y-1095714D02*
X6300714Y-938571D01*
X6286428Y-910000D01*
X6257857Y-895714D01*
X6215000Y-895714D01*
X6186428Y-910000D01*
X6172143Y-924286D01*
X6486428Y-1095714D02*
X6457857Y-1081429D01*
X6443571Y-1067143D01*
X6429286Y-1038571D01*
X6429286Y-952857D01*
X6443571Y-924286D01*
X6457857Y-910000D01*
X6486428Y-895714D01*
X6529286Y-895714D01*
X6557857Y-910000D01*
X6572143Y-924286D01*
X6586428Y-952857D01*
X6586428Y-1038571D01*
X6572143Y-1067143D01*
X6557857Y-1081429D01*
X6529286Y-1095714D01*
X6486428Y-1095714D01*
X6757857Y-1095714D02*
X6729286Y-1081429D01*
X6715000Y-1052857D01*
X6715000Y-795714D01*
X6986428Y-1081429D02*
X6957857Y-1095714D01*
X6900714Y-1095714D01*
X6872143Y-1081429D01*
X6857857Y-1052857D01*
X6857857Y-938571D01*
X6872143Y-910000D01*
X6900714Y-895714D01*
X6957857Y-895714D01*
X6986428Y-910000D01*
X7000714Y-938571D01*
X7000714Y-967143D01*
X6857857Y-995714D01*
X7115000Y-1081429D02*
X7143571Y-1095714D01*
X7200714Y-1095714D01*
X7229286Y-1081429D01*
X7243571Y-1052857D01*
X7243571Y-1038571D01*
X7229286Y-1010000D01*
X7200714Y-995714D01*
X7157857Y-995714D01*
X7129286Y-981428D01*
X7115000Y-952857D01*
X7115000Y-938571D01*
X7129286Y-910000D01*
X7157857Y-895714D01*
X7200714Y-895714D01*
X7229286Y-910000D01*
X7343571Y-1210000D02*
X7357857Y-1195714D01*
X7386428Y-1152857D01*
X7400714Y-1124286D01*
X7415000Y-1081429D01*
X7429286Y-1010000D01*
X7429286Y-952857D01*
X7415000Y-881428D01*
X7400714Y-838571D01*
X7386428Y-810000D01*
X7357857Y-767143D01*
X7343571Y-752857D01*
X0Y-1356000D02*
G75*
G03*
X0Y-1356000I-17500J0D01*
G01*
X343571Y-1191714D02*
X372143Y-1191714D01*
X400714Y-1206000D01*
X415000Y-1220286D01*
X429286Y-1248857D01*
X443571Y-1306000D01*
X443571Y-1377429D01*
X429286Y-1434571D01*
X415000Y-1463143D01*
X400714Y-1477428D01*
X372143Y-1491714D01*
X343571Y-1491714D01*
X315000Y-1477428D01*
X300714Y-1463143D01*
X286429Y-1434571D01*
X272143Y-1377429D01*
X272143Y-1306000D01*
X286429Y-1248857D01*
X300714Y-1220286D01*
X315000Y-1206000D01*
X343571Y-1191714D01*
X572143Y-1463143D02*
X586429Y-1477428D01*
X572143Y-1491714D01*
X557857Y-1477428D01*
X572143Y-1463143D01*
X572143Y-1491714D01*
X686429Y-1191714D02*
X872143Y-1191714D01*
X772143Y-1306000D01*
X815000Y-1306000D01*
X843571Y-1320286D01*
X857857Y-1334571D01*
X872143Y-1363143D01*
X872143Y-1434571D01*
X857857Y-1463143D01*
X843571Y-1477428D01*
X815000Y-1491714D01*
X729286Y-1491714D01*
X700714Y-1477428D01*
X686429Y-1463143D01*
X1143571Y-1191714D02*
X1000714Y-1191714D01*
X986428Y-1334571D01*
X1000714Y-1320286D01*
X1029286Y-1306000D01*
X1100714Y-1306000D01*
X1129286Y-1320286D01*
X1143571Y-1334571D01*
X1157857Y-1363143D01*
X1157857Y-1434571D01*
X1143571Y-1463143D01*
X1129286Y-1477428D01*
X1100714Y-1491714D01*
X1029286Y-1491714D01*
X1000714Y-1477428D01*
X986428Y-1463143D01*
X1343571Y-1191714D02*
X1372143Y-1191714D01*
X1400714Y-1206000D01*
X1415000Y-1220286D01*
X1429286Y-1248857D01*
X1443571Y-1306000D01*
X1443571Y-1377429D01*
X1429286Y-1434571D01*
X1415000Y-1463143D01*
X1400714Y-1477428D01*
X1372143Y-1491714D01*
X1343571Y-1491714D01*
X1315000Y-1477428D01*
X1300714Y-1463143D01*
X1286429Y-1434571D01*
X1272143Y-1377429D01*
X1272143Y-1306000D01*
X1286429Y-1248857D01*
X1300714Y-1220286D01*
X1315000Y-1206000D01*
X1343571Y-1191714D01*
X1572143Y-1491714D02*
X1572143Y-1291714D01*
X1572143Y-1320286D02*
X1586428Y-1306000D01*
X1615000Y-1291714D01*
X1657857Y-1291714D01*
X1686428Y-1306000D01*
X1700714Y-1334571D01*
X1700714Y-1491714D01*
X1700714Y-1334571D02*
X1715000Y-1306000D01*
X1743571Y-1291714D01*
X1786428Y-1291714D01*
X1815000Y-1306000D01*
X1829286Y-1334571D01*
X1829286Y-1491714D01*
X1972143Y-1491714D02*
X1972143Y-1291714D01*
X1972143Y-1320286D02*
X1986428Y-1306000D01*
X2015000Y-1291714D01*
X2057857Y-1291714D01*
X2086428Y-1306000D01*
X2100714Y-1334571D01*
X2100714Y-1491714D01*
X2100714Y-1334571D02*
X2115000Y-1306000D01*
X2143571Y-1291714D01*
X2186429Y-1291714D01*
X2215000Y-1306000D01*
X2229286Y-1334571D01*
X2229286Y-1491714D01*
X2815000Y-1177429D02*
X2557857Y-1563143D01*
X3200714Y-1191714D02*
X3229286Y-1191714D01*
X3257857Y-1206000D01*
X3272143Y-1220286D01*
X3286428Y-1248857D01*
X3300714Y-1306000D01*
X3300714Y-1377429D01*
X3286428Y-1434571D01*
X3272143Y-1463143D01*
X3257857Y-1477428D01*
X3229286Y-1491714D01*
X3200714Y-1491714D01*
X3172143Y-1477428D01*
X3157857Y-1463143D01*
X3143571Y-1434571D01*
X3129286Y-1377429D01*
X3129286Y-1306000D01*
X3143571Y-1248857D01*
X3157857Y-1220286D01*
X3172143Y-1206000D01*
X3200714Y-1191714D01*
X3429286Y-1463143D02*
X3443571Y-1477428D01*
X3429286Y-1491714D01*
X3415000Y-1477428D01*
X3429286Y-1463143D01*
X3429286Y-1491714D01*
X3629286Y-1191714D02*
X3657857Y-1191714D01*
X3686428Y-1206000D01*
X3700714Y-1220286D01*
X3715000Y-1248857D01*
X3729286Y-1306000D01*
X3729286Y-1377429D01*
X3715000Y-1434571D01*
X3700714Y-1463143D01*
X3686428Y-1477428D01*
X3657857Y-1491714D01*
X3629286Y-1491714D01*
X3600714Y-1477428D01*
X3586428Y-1463143D01*
X3572143Y-1434571D01*
X3557857Y-1377429D01*
X3557857Y-1306000D01*
X3572143Y-1248857D01*
X3586428Y-1220286D01*
X3600714Y-1206000D01*
X3629286Y-1191714D01*
X4015000Y-1491714D02*
X3843571Y-1491714D01*
X3929286Y-1491714D02*
X3929286Y-1191714D01*
X3900714Y-1234571D01*
X3872143Y-1263143D01*
X3843571Y-1277429D01*
X4115000Y-1191714D02*
X4300714Y-1191714D01*
X4200714Y-1306000D01*
X4243571Y-1306000D01*
X4272143Y-1320286D01*
X4286429Y-1334571D01*
X4300714Y-1363143D01*
X4300714Y-1434571D01*
X4286429Y-1463143D01*
X4272143Y-1477428D01*
X4243571Y-1491714D01*
X4157857Y-1491714D01*
X4129286Y-1477428D01*
X4115000Y-1463143D01*
X4472143Y-1320286D02*
X4443571Y-1306000D01*
X4429286Y-1291714D01*
X4415000Y-1263143D01*
X4415000Y-1248857D01*
X4429286Y-1220286D01*
X4443571Y-1206000D01*
X4472143Y-1191714D01*
X4529286Y-1191714D01*
X4557857Y-1206000D01*
X4572143Y-1220286D01*
X4586429Y-1248857D01*
X4586429Y-1263143D01*
X4572143Y-1291714D01*
X4557857Y-1306000D01*
X4529286Y-1320286D01*
X4472143Y-1320286D01*
X4443571Y-1334571D01*
X4429286Y-1348857D01*
X4415000Y-1377429D01*
X4415000Y-1434571D01*
X4429286Y-1463143D01*
X4443571Y-1477428D01*
X4472143Y-1491714D01*
X4529286Y-1491714D01*
X4557857Y-1477428D01*
X4572143Y-1463143D01*
X4586429Y-1434571D01*
X4586429Y-1377429D01*
X4572143Y-1348857D01*
X4557857Y-1334571D01*
X4529286Y-1320286D01*
X4700714Y-1191714D02*
X4700714Y-1248857D01*
X4815000Y-1191714D02*
X4815000Y-1248857D01*
X5257857Y-1606000D02*
X5243571Y-1591714D01*
X5215000Y-1548857D01*
X5200714Y-1520286D01*
X5186429Y-1477428D01*
X5172143Y-1406000D01*
X5172143Y-1348857D01*
X5186429Y-1277429D01*
X5200714Y-1234571D01*
X5215000Y-1206000D01*
X5243571Y-1163143D01*
X5257857Y-1148857D01*
X5343571Y-1191714D02*
X5529286Y-1191714D01*
X5429286Y-1306000D01*
X5472143Y-1306000D01*
X5500714Y-1320286D01*
X5515000Y-1334571D01*
X5529286Y-1363143D01*
X5529286Y-1434571D01*
X5515000Y-1463143D01*
X5500714Y-1477428D01*
X5472143Y-1491714D01*
X5386429Y-1491714D01*
X5357857Y-1477428D01*
X5343571Y-1463143D01*
X5643571Y-1220286D02*
X5657857Y-1206000D01*
X5686428Y-1191714D01*
X5757857Y-1191714D01*
X5786428Y-1206000D01*
X5800714Y-1220286D01*
X5815000Y-1248857D01*
X5815000Y-1277429D01*
X5800714Y-1320286D01*
X5629286Y-1491714D01*
X5815000Y-1491714D01*
X6172143Y-1491714D02*
X6172143Y-1191714D01*
X6300714Y-1491714D02*
X6300714Y-1334571D01*
X6286428Y-1306000D01*
X6257857Y-1291714D01*
X6215000Y-1291714D01*
X6186428Y-1306000D01*
X6172143Y-1320286D01*
X6486428Y-1491714D02*
X6457857Y-1477428D01*
X6443571Y-1463143D01*
X6429286Y-1434571D01*
X6429286Y-1348857D01*
X6443571Y-1320286D01*
X6457857Y-1306000D01*
X6486428Y-1291714D01*
X6529286Y-1291714D01*
X6557857Y-1306000D01*
X6572143Y-1320286D01*
X6586428Y-1348857D01*
X6586428Y-1434571D01*
X6572143Y-1463143D01*
X6557857Y-1477428D01*
X6529286Y-1491714D01*
X6486428Y-1491714D01*
X6757857Y-1491714D02*
X6729286Y-1477428D01*
X6715000Y-1448857D01*
X6715000Y-1191714D01*
X6986428Y-1477428D02*
X6957857Y-1491714D01*
X6900714Y-1491714D01*
X6872143Y-1477428D01*
X6857857Y-1448857D01*
X6857857Y-1334571D01*
X6872143Y-1306000D01*
X6900714Y-1291714D01*
X6957857Y-1291714D01*
X6986428Y-1306000D01*
X7000714Y-1334571D01*
X7000714Y-1363143D01*
X6857857Y-1391714D01*
X7115000Y-1477428D02*
X7143571Y-1491714D01*
X7200714Y-1491714D01*
X7229286Y-1477428D01*
X7243571Y-1448857D01*
X7243571Y-1434571D01*
X7229286Y-1406000D01*
X7200714Y-1391714D01*
X7157857Y-1391714D01*
X7129286Y-1377429D01*
X7115000Y-1348857D01*
X7115000Y-1334571D01*
X7129286Y-1306000D01*
X7157857Y-1291714D01*
X7200714Y-1291714D01*
X7229286Y-1306000D01*
X7343571Y-1606000D02*
X7357857Y-1591714D01*
X7386428Y-1548857D01*
X7400714Y-1520286D01*
X7415000Y-1477428D01*
X7429286Y-1406000D01*
X7429286Y-1348857D01*
X7415000Y-1277429D01*
X7400714Y-1234571D01*
X7386428Y-1206000D01*
X7357857Y-1163143D01*
X7343571Y-1148857D01*
X-30000Y-1722000D02*
X-30000Y-1782000D01*
X-60000Y-1752000D02*
X0Y-1752000D01*
X343571Y-1587714D02*
X372143Y-1587714D01*
X400714Y-1602000D01*
X415000Y-1616286D01*
X429286Y-1644857D01*
X443571Y-1702000D01*
X443571Y-1773428D01*
X429286Y-1830571D01*
X415000Y-1859143D01*
X400714Y-1873428D01*
X372143Y-1887714D01*
X343571Y-1887714D01*
X315000Y-1873428D01*
X300714Y-1859143D01*
X286429Y-1830571D01*
X272143Y-1773428D01*
X272143Y-1702000D01*
X286429Y-1644857D01*
X300714Y-1616286D01*
X315000Y-1602000D01*
X343571Y-1587714D01*
X572143Y-1859143D02*
X586429Y-1873428D01*
X572143Y-1887714D01*
X557857Y-1873428D01*
X572143Y-1859143D01*
X572143Y-1887714D01*
X843571Y-1587714D02*
X786428Y-1587714D01*
X757857Y-1602000D01*
X743571Y-1616286D01*
X715000Y-1659143D01*
X700714Y-1716286D01*
X700714Y-1830571D01*
X715000Y-1859143D01*
X729286Y-1873428D01*
X757857Y-1887714D01*
X815000Y-1887714D01*
X843571Y-1873428D01*
X857857Y-1859143D01*
X872143Y-1830571D01*
X872143Y-1759143D01*
X857857Y-1730571D01*
X843571Y-1716286D01*
X815000Y-1702000D01*
X757857Y-1702000D01*
X729286Y-1716286D01*
X715000Y-1730571D01*
X700714Y-1759143D01*
X1057857Y-1587714D02*
X1086429Y-1587714D01*
X1115000Y-1602000D01*
X1129286Y-1616286D01*
X1143571Y-1644857D01*
X1157857Y-1702000D01*
X1157857Y-1773428D01*
X1143571Y-1830571D01*
X1129286Y-1859143D01*
X1115000Y-1873428D01*
X1086429Y-1887714D01*
X1057857Y-1887714D01*
X1029286Y-1873428D01*
X1015000Y-1859143D01*
X1000714Y-1830571D01*
X986428Y-1773428D01*
X986428Y-1702000D01*
X1000714Y-1644857D01*
X1015000Y-1616286D01*
X1029286Y-1602000D01*
X1057857Y-1587714D01*
X1343571Y-1587714D02*
X1372143Y-1587714D01*
X1400714Y-1602000D01*
X1415000Y-1616286D01*
X1429286Y-1644857D01*
X1443571Y-1702000D01*
X1443571Y-1773428D01*
X1429286Y-1830571D01*
X1415000Y-1859143D01*
X1400714Y-1873428D01*
X1372143Y-1887714D01*
X1343571Y-1887714D01*
X1315000Y-1873428D01*
X1300714Y-1859143D01*
X1286429Y-1830571D01*
X1272143Y-1773428D01*
X1272143Y-1702000D01*
X1286429Y-1644857D01*
X1300714Y-1616286D01*
X1315000Y-1602000D01*
X1343571Y-1587714D01*
X1572143Y-1887714D02*
X1572143Y-1687714D01*
X1572143Y-1716286D02*
X1586428Y-1702000D01*
X1615000Y-1687714D01*
X1657857Y-1687714D01*
X1686428Y-1702000D01*
X1700714Y-1730571D01*
X1700714Y-1887714D01*
X1700714Y-1730571D02*
X1715000Y-1702000D01*
X1743571Y-1687714D01*
X1786428Y-1687714D01*
X1815000Y-1702000D01*
X1829286Y-1730571D01*
X1829286Y-1887714D01*
X1972143Y-1887714D02*
X1972143Y-1687714D01*
X1972143Y-1716286D02*
X1986428Y-1702000D01*
X2015000Y-1687714D01*
X2057857Y-1687714D01*
X2086428Y-1702000D01*
X2100714Y-1730571D01*
X2100714Y-1887714D01*
X2100714Y-1730571D02*
X2115000Y-1702000D01*
X2143571Y-1687714D01*
X2186429Y-1687714D01*
X2215000Y-1702000D01*
X2229286Y-1730571D01*
X2229286Y-1887714D01*
X2815000Y-1573428D02*
X2557857Y-1959143D01*
X3200714Y-1587714D02*
X3229286Y-1587714D01*
X3257857Y-1602000D01*
X3272143Y-1616286D01*
X3286428Y-1644857D01*
X3300714Y-1702000D01*
X3300714Y-1773428D01*
X3286428Y-1830571D01*
X3272143Y-1859143D01*
X3257857Y-1873428D01*
X3229286Y-1887714D01*
X3200714Y-1887714D01*
X3172143Y-1873428D01*
X3157857Y-1859143D01*
X3143571Y-1830571D01*
X3129286Y-1773428D01*
X3129286Y-1702000D01*
X3143571Y-1644857D01*
X3157857Y-1616286D01*
X3172143Y-1602000D01*
X3200714Y-1587714D01*
X3429286Y-1859143D02*
X3443571Y-1873428D01*
X3429286Y-1887714D01*
X3415000Y-1873428D01*
X3429286Y-1859143D01*
X3429286Y-1887714D01*
X3629286Y-1587714D02*
X3657857Y-1587714D01*
X3686428Y-1602000D01*
X3700714Y-1616286D01*
X3715000Y-1644857D01*
X3729286Y-1702000D01*
X3729286Y-1773428D01*
X3715000Y-1830571D01*
X3700714Y-1859143D01*
X3686428Y-1873428D01*
X3657857Y-1887714D01*
X3629286Y-1887714D01*
X3600714Y-1873428D01*
X3586428Y-1859143D01*
X3572143Y-1830571D01*
X3557857Y-1773428D01*
X3557857Y-1702000D01*
X3572143Y-1644857D01*
X3586428Y-1616286D01*
X3600714Y-1602000D01*
X3629286Y-1587714D01*
X3843571Y-1616286D02*
X3857857Y-1602000D01*
X3886428Y-1587714D01*
X3957857Y-1587714D01*
X3986428Y-1602000D01*
X4000714Y-1616286D01*
X4015000Y-1644857D01*
X4015000Y-1673428D01*
X4000714Y-1716286D01*
X3829286Y-1887714D01*
X4015000Y-1887714D01*
X4115000Y-1587714D02*
X4300714Y-1587714D01*
X4200714Y-1702000D01*
X4243571Y-1702000D01*
X4272143Y-1716286D01*
X4286429Y-1730571D01*
X4300714Y-1759143D01*
X4300714Y-1830571D01*
X4286429Y-1859143D01*
X4272143Y-1873428D01*
X4243571Y-1887714D01*
X4157857Y-1887714D01*
X4129286Y-1873428D01*
X4115000Y-1859143D01*
X4557857Y-1587714D02*
X4500714Y-1587714D01*
X4472143Y-1602000D01*
X4457857Y-1616286D01*
X4429286Y-1659143D01*
X4415000Y-1716286D01*
X4415000Y-1830571D01*
X4429286Y-1859143D01*
X4443571Y-1873428D01*
X4472143Y-1887714D01*
X4529286Y-1887714D01*
X4557857Y-1873428D01*
X4572143Y-1859143D01*
X4586429Y-1830571D01*
X4586429Y-1759143D01*
X4572143Y-1730571D01*
X4557857Y-1716286D01*
X4529286Y-1702000D01*
X4472143Y-1702000D01*
X4443571Y-1716286D01*
X4429286Y-1730571D01*
X4415000Y-1759143D01*
X4700714Y-1587714D02*
X4700714Y-1644857D01*
X4815000Y-1587714D02*
X4815000Y-1644857D01*
X5257857Y-2002000D02*
X5243571Y-1987714D01*
X5215000Y-1944857D01*
X5200714Y-1916286D01*
X5186429Y-1873428D01*
X5172143Y-1802000D01*
X5172143Y-1744857D01*
X5186429Y-1673428D01*
X5200714Y-1630571D01*
X5215000Y-1602000D01*
X5243571Y-1559143D01*
X5257857Y-1544857D01*
X5429286Y-1587714D02*
X5457857Y-1587714D01*
X5486429Y-1602000D01*
X5500714Y-1616286D01*
X5515000Y-1644857D01*
X5529286Y-1702000D01*
X5529286Y-1773428D01*
X5515000Y-1830571D01*
X5500714Y-1859143D01*
X5486429Y-1873428D01*
X5457857Y-1887714D01*
X5429286Y-1887714D01*
X5400714Y-1873428D01*
X5386429Y-1859143D01*
X5372143Y-1830571D01*
X5357857Y-1773428D01*
X5357857Y-1702000D01*
X5372143Y-1644857D01*
X5386429Y-1616286D01*
X5400714Y-1602000D01*
X5429286Y-1587714D01*
X5886428Y-1887714D02*
X5886428Y-1587714D01*
X6015000Y-1887714D02*
X6015000Y-1730571D01*
X6000714Y-1702000D01*
X5972143Y-1687714D01*
X5929286Y-1687714D01*
X5900714Y-1702000D01*
X5886428Y-1716286D01*
X6200714Y-1887714D02*
X6172143Y-1873428D01*
X6157857Y-1859143D01*
X6143571Y-1830571D01*
X6143571Y-1744857D01*
X6157857Y-1716286D01*
X6172143Y-1702000D01*
X6200714Y-1687714D01*
X6243571Y-1687714D01*
X6272143Y-1702000D01*
X6286428Y-1716286D01*
X6300714Y-1744857D01*
X6300714Y-1830571D01*
X6286428Y-1859143D01*
X6272143Y-1873428D01*
X6243571Y-1887714D01*
X6200714Y-1887714D01*
X6472143Y-1887714D02*
X6443571Y-1873428D01*
X6429286Y-1844857D01*
X6429286Y-1587714D01*
X6700714Y-1873428D02*
X6672143Y-1887714D01*
X6615000Y-1887714D01*
X6586428Y-1873428D01*
X6572143Y-1844857D01*
X6572143Y-1730571D01*
X6586428Y-1702000D01*
X6615000Y-1687714D01*
X6672143Y-1687714D01*
X6700714Y-1702000D01*
X6715000Y-1730571D01*
X6715000Y-1759143D01*
X6572143Y-1787714D01*
X6829286Y-1873428D02*
X6857857Y-1887714D01*
X6915000Y-1887714D01*
X6943571Y-1873428D01*
X6957857Y-1844857D01*
X6957857Y-1830571D01*
X6943571Y-1802000D01*
X6915000Y-1787714D01*
X6872143Y-1787714D01*
X6843571Y-1773428D01*
X6829286Y-1744857D01*
X6829286Y-1730571D01*
X6843571Y-1702000D01*
X6872143Y-1687714D01*
X6915000Y-1687714D01*
X6943571Y-1702000D01*
X7315000Y-1773428D02*
X7543571Y-1773428D01*
X7429286Y-1887714D02*
X7429286Y-1659143D01*
X8043571Y-1687714D02*
X8043571Y-1887714D01*
X7972143Y-1573428D02*
X7900714Y-1787714D01*
X8086428Y-1787714D01*
X8415000Y-1873428D02*
X8443571Y-1887714D01*
X8500714Y-1887714D01*
X8529286Y-1873428D01*
X8543571Y-1844857D01*
X8543571Y-1830571D01*
X8529286Y-1802000D01*
X8500714Y-1787714D01*
X8457857Y-1787714D01*
X8429286Y-1773428D01*
X8415000Y-1744857D01*
X8415000Y-1730571D01*
X8429286Y-1702000D01*
X8457857Y-1687714D01*
X8500714Y-1687714D01*
X8529286Y-1702000D01*
X8715000Y-1887714D02*
X8686429Y-1873428D01*
X8672143Y-1844857D01*
X8672143Y-1587714D01*
X8872143Y-1887714D02*
X8843571Y-1873428D01*
X8829286Y-1859143D01*
X8815000Y-1830571D01*
X8815000Y-1744857D01*
X8829286Y-1716286D01*
X8843571Y-1702000D01*
X8872143Y-1687714D01*
X8915000Y-1687714D01*
X8943571Y-1702000D01*
X8957857Y-1716286D01*
X8972143Y-1744857D01*
X8972143Y-1830571D01*
X8957857Y-1859143D01*
X8943571Y-1873428D01*
X8915000Y-1887714D01*
X8872143Y-1887714D01*
X9057857Y-1687714D02*
X9172143Y-1687714D01*
X9100714Y-1587714D02*
X9100714Y-1844857D01*
X9115000Y-1873428D01*
X9143571Y-1887714D01*
X9172143Y-1887714D01*
X9257857Y-1873428D02*
X9286429Y-1887714D01*
X9343571Y-1887714D01*
X9372143Y-1873428D01*
X9386429Y-1844857D01*
X9386429Y-1830571D01*
X9372143Y-1802000D01*
X9343571Y-1787714D01*
X9300714Y-1787714D01*
X9272143Y-1773428D01*
X9257857Y-1744857D01*
X9257857Y-1730571D01*
X9272143Y-1702000D01*
X9300714Y-1687714D01*
X9343571Y-1687714D01*
X9372143Y-1702000D01*
X9486429Y-2002000D02*
X9500714Y-1987714D01*
X9529286Y-1944857D01*
X9543571Y-1916286D01*
X9557857Y-1873428D01*
X9572143Y-1802000D01*
X9572143Y-1744857D01*
X9557857Y-1673428D01*
X9543571Y-1630571D01*
X9529286Y-1602000D01*
X9500714Y-1559143D01*
X9486429Y-1544857D01*
X-14644Y-2183356D02*
X-14644Y-2112644D01*
X-85356Y-2112644D01*
X-85356Y-2183356D01*
X-14644Y-2183356D01*
X443571Y-2283714D02*
X272143Y-2283714D01*
X357857Y-2283714D02*
X357857Y-1983714D01*
X329286Y-2026571D01*
X300714Y-2055143D01*
X272143Y-2069428D01*
X572143Y-2255143D02*
X586429Y-2269429D01*
X572143Y-2283714D01*
X557857Y-2269429D01*
X572143Y-2255143D01*
X572143Y-2283714D01*
X772143Y-1983714D02*
X800714Y-1983714D01*
X829286Y-1998000D01*
X843571Y-2012286D01*
X857857Y-2040857D01*
X872143Y-2098000D01*
X872143Y-2169429D01*
X857857Y-2226571D01*
X843571Y-2255143D01*
X829286Y-2269429D01*
X800714Y-2283714D01*
X772143Y-2283714D01*
X743571Y-2269429D01*
X729286Y-2255143D01*
X715000Y-2226571D01*
X700714Y-2169429D01*
X700714Y-2098000D01*
X715000Y-2040857D01*
X729286Y-2012286D01*
X743571Y-1998000D01*
X772143Y-1983714D01*
X1057857Y-1983714D02*
X1086429Y-1983714D01*
X1115000Y-1998000D01*
X1129286Y-2012286D01*
X1143571Y-2040857D01*
X1157857Y-2098000D01*
X1157857Y-2169429D01*
X1143571Y-2226571D01*
X1129286Y-2255143D01*
X1115000Y-2269429D01*
X1086429Y-2283714D01*
X1057857Y-2283714D01*
X1029286Y-2269429D01*
X1015000Y-2255143D01*
X1000714Y-2226571D01*
X986428Y-2169429D01*
X986428Y-2098000D01*
X1000714Y-2040857D01*
X1015000Y-2012286D01*
X1029286Y-1998000D01*
X1057857Y-1983714D01*
X1343571Y-1983714D02*
X1372143Y-1983714D01*
X1400714Y-1998000D01*
X1415000Y-2012286D01*
X1429286Y-2040857D01*
X1443571Y-2098000D01*
X1443571Y-2169429D01*
X1429286Y-2226571D01*
X1415000Y-2255143D01*
X1400714Y-2269429D01*
X1372143Y-2283714D01*
X1343571Y-2283714D01*
X1315000Y-2269429D01*
X1300714Y-2255143D01*
X1286429Y-2226571D01*
X1272143Y-2169429D01*
X1272143Y-2098000D01*
X1286429Y-2040857D01*
X1300714Y-2012286D01*
X1315000Y-1998000D01*
X1343571Y-1983714D01*
X1572143Y-2283714D02*
X1572143Y-2083714D01*
X1572143Y-2112286D02*
X1586428Y-2098000D01*
X1615000Y-2083714D01*
X1657857Y-2083714D01*
X1686428Y-2098000D01*
X1700714Y-2126571D01*
X1700714Y-2283714D01*
X1700714Y-2126571D02*
X1715000Y-2098000D01*
X1743571Y-2083714D01*
X1786428Y-2083714D01*
X1815000Y-2098000D01*
X1829286Y-2126571D01*
X1829286Y-2283714D01*
X1972143Y-2283714D02*
X1972143Y-2083714D01*
X1972143Y-2112286D02*
X1986428Y-2098000D01*
X2015000Y-2083714D01*
X2057857Y-2083714D01*
X2086428Y-2098000D01*
X2100714Y-2126571D01*
X2100714Y-2283714D01*
X2100714Y-2126571D02*
X2115000Y-2098000D01*
X2143571Y-2083714D01*
X2186429Y-2083714D01*
X2215000Y-2098000D01*
X2229286Y-2126571D01*
X2229286Y-2283714D01*
X2815000Y-1969428D02*
X2557857Y-2355143D01*
X3200714Y-1983714D02*
X3229286Y-1983714D01*
X3257857Y-1998000D01*
X3272143Y-2012286D01*
X3286428Y-2040857D01*
X3300714Y-2098000D01*
X3300714Y-2169429D01*
X3286428Y-2226571D01*
X3272143Y-2255143D01*
X3257857Y-2269429D01*
X3229286Y-2283714D01*
X3200714Y-2283714D01*
X3172143Y-2269429D01*
X3157857Y-2255143D01*
X3143571Y-2226571D01*
X3129286Y-2169429D01*
X3129286Y-2098000D01*
X3143571Y-2040857D01*
X3157857Y-2012286D01*
X3172143Y-1998000D01*
X3200714Y-1983714D01*
X3429286Y-2255143D02*
X3443571Y-2269429D01*
X3429286Y-2283714D01*
X3415000Y-2269429D01*
X3429286Y-2255143D01*
X3429286Y-2283714D01*
X3629286Y-1983714D02*
X3657857Y-1983714D01*
X3686428Y-1998000D01*
X3700714Y-2012286D01*
X3715000Y-2040857D01*
X3729286Y-2098000D01*
X3729286Y-2169429D01*
X3715000Y-2226571D01*
X3700714Y-2255143D01*
X3686428Y-2269429D01*
X3657857Y-2283714D01*
X3629286Y-2283714D01*
X3600714Y-2269429D01*
X3586428Y-2255143D01*
X3572143Y-2226571D01*
X3557857Y-2169429D01*
X3557857Y-2098000D01*
X3572143Y-2040857D01*
X3586428Y-2012286D01*
X3600714Y-1998000D01*
X3629286Y-1983714D01*
X3829286Y-1983714D02*
X4015000Y-1983714D01*
X3915000Y-2098000D01*
X3957857Y-2098000D01*
X3986428Y-2112286D01*
X4000714Y-2126571D01*
X4015000Y-2155143D01*
X4015000Y-2226571D01*
X4000714Y-2255143D01*
X3986428Y-2269429D01*
X3957857Y-2283714D01*
X3872143Y-2283714D01*
X3843571Y-2269429D01*
X3829286Y-2255143D01*
X4157857Y-2283714D02*
X4215000Y-2283714D01*
X4243571Y-2269429D01*
X4257857Y-2255143D01*
X4286429Y-2212286D01*
X4300714Y-2155143D01*
X4300714Y-2040857D01*
X4286429Y-2012286D01*
X4272143Y-1998000D01*
X4243571Y-1983714D01*
X4186428Y-1983714D01*
X4157857Y-1998000D01*
X4143571Y-2012286D01*
X4129286Y-2040857D01*
X4129286Y-2112286D01*
X4143571Y-2140857D01*
X4157857Y-2155143D01*
X4186428Y-2169429D01*
X4243571Y-2169429D01*
X4272143Y-2155143D01*
X4286429Y-2140857D01*
X4300714Y-2112286D01*
X4557857Y-2083714D02*
X4557857Y-2283714D01*
X4486429Y-1969428D02*
X4415000Y-2183714D01*
X4600714Y-2183714D01*
X4700714Y-1983714D02*
X4700714Y-2040857D01*
X4815000Y-1983714D02*
X4815000Y-2040857D01*
X5257857Y-2398000D02*
X5243571Y-2383714D01*
X5215000Y-2340857D01*
X5200714Y-2312286D01*
X5186429Y-2269429D01*
X5172143Y-2198000D01*
X5172143Y-2140857D01*
X5186429Y-2069428D01*
X5200714Y-2026571D01*
X5215000Y-1998000D01*
X5243571Y-1955143D01*
X5257857Y-1940857D01*
X5415000Y-2112286D02*
X5386429Y-2098000D01*
X5372143Y-2083714D01*
X5357857Y-2055143D01*
X5357857Y-2040857D01*
X5372143Y-2012286D01*
X5386429Y-1998000D01*
X5415000Y-1983714D01*
X5472143Y-1983714D01*
X5500714Y-1998000D01*
X5515000Y-2012286D01*
X5529286Y-2040857D01*
X5529286Y-2055143D01*
X5515000Y-2083714D01*
X5500714Y-2098000D01*
X5472143Y-2112286D01*
X5415000Y-2112286D01*
X5386429Y-2126571D01*
X5372143Y-2140857D01*
X5357857Y-2169429D01*
X5357857Y-2226571D01*
X5372143Y-2255143D01*
X5386429Y-2269429D01*
X5415000Y-2283714D01*
X5472143Y-2283714D01*
X5500714Y-2269429D01*
X5515000Y-2255143D01*
X5529286Y-2226571D01*
X5529286Y-2169429D01*
X5515000Y-2140857D01*
X5500714Y-2126571D01*
X5472143Y-2112286D01*
X5629286Y-1983714D02*
X5815000Y-1983714D01*
X5715000Y-2098000D01*
X5757857Y-2098000D01*
X5786428Y-2112286D01*
X5800714Y-2126571D01*
X5815000Y-2155143D01*
X5815000Y-2226571D01*
X5800714Y-2255143D01*
X5786428Y-2269429D01*
X5757857Y-2283714D01*
X5672143Y-2283714D01*
X5643571Y-2269429D01*
X5629286Y-2255143D01*
X6172143Y-2283714D02*
X6172143Y-1983714D01*
X6300714Y-2283714D02*
X6300714Y-2126571D01*
X6286428Y-2098000D01*
X6257857Y-2083714D01*
X6215000Y-2083714D01*
X6186428Y-2098000D01*
X6172143Y-2112286D01*
X6486428Y-2283714D02*
X6457857Y-2269429D01*
X6443571Y-2255143D01*
X6429286Y-2226571D01*
X6429286Y-2140857D01*
X6443571Y-2112286D01*
X6457857Y-2098000D01*
X6486428Y-2083714D01*
X6529286Y-2083714D01*
X6557857Y-2098000D01*
X6572143Y-2112286D01*
X6586428Y-2140857D01*
X6586428Y-2226571D01*
X6572143Y-2255143D01*
X6557857Y-2269429D01*
X6529286Y-2283714D01*
X6486428Y-2283714D01*
X6757857Y-2283714D02*
X6729286Y-2269429D01*
X6715000Y-2240857D01*
X6715000Y-1983714D01*
X6986428Y-2269429D02*
X6957857Y-2283714D01*
X6900714Y-2283714D01*
X6872143Y-2269429D01*
X6857857Y-2240857D01*
X6857857Y-2126571D01*
X6872143Y-2098000D01*
X6900714Y-2083714D01*
X6957857Y-2083714D01*
X6986428Y-2098000D01*
X7000714Y-2126571D01*
X7000714Y-2155143D01*
X6857857Y-2183714D01*
X7115000Y-2269429D02*
X7143571Y-2283714D01*
X7200714Y-2283714D01*
X7229286Y-2269429D01*
X7243571Y-2240857D01*
X7243571Y-2226571D01*
X7229286Y-2198000D01*
X7200714Y-2183714D01*
X7157857Y-2183714D01*
X7129286Y-2169429D01*
X7115000Y-2140857D01*
X7115000Y-2126571D01*
X7129286Y-2098000D01*
X7157857Y-2083714D01*
X7200714Y-2083714D01*
X7229286Y-2098000D01*
X7343571Y-2398000D02*
X7357857Y-2383714D01*
X7386428Y-2340857D01*
X7400714Y-2312286D01*
X7415000Y-2269429D01*
X7429286Y-2198000D01*
X7429286Y-2140857D01*
X7415000Y-2069428D01*
X7400714Y-2026571D01*
X7386428Y-1998000D01*
X7357857Y-1955143D01*
X7343571Y-1940857D01*
M02*
