G04 #@! TF.GenerationSoftware,KiCad,Pcbnew,(5.1.10)-1*
G04 #@! TF.CreationDate,2021-11-11T08:54:42+00:00*
G04 #@! TF.ProjectId,EnvOpenPico,456e764f-7065-46e5-9069-636f2e6b6963,REV1*
G04 #@! TF.SameCoordinates,Original*
G04 #@! TF.FileFunction,Legend,Bot*
G04 #@! TF.FilePolarity,Positive*
%FSLAX46Y46*%
G04 Gerber Fmt 4.6, Leading zero omitted, Abs format (unit mm)*
G04 Created by KiCad (PCBNEW (5.1.10)-1) date 2021-11-11 08:54:42*
%MOMM*%
%LPD*%
G01*
G04 APERTURE LIST*
%ADD10C,0.153000*%
%ADD11C,0.140000*%
%ADD12O,1.802000X1.802000*%
%ADD13C,1.802000*%
%ADD14C,0.752000*%
%ADD15O,1.102000X2.202000*%
%ADD16O,1.102000X1.702000*%
G04 APERTURE END LIST*
D10*
X111071428Y-60861904D02*
X110804761Y-61661904D01*
X110538095Y-60861904D01*
X110309523Y-61623809D02*
X110195238Y-61661904D01*
X110004761Y-61661904D01*
X109928571Y-61623809D01*
X109890476Y-61585714D01*
X109852380Y-61509523D01*
X109852380Y-61433333D01*
X109890476Y-61357142D01*
X109928571Y-61319047D01*
X110004761Y-61280952D01*
X110157142Y-61242857D01*
X110233333Y-61204761D01*
X110271428Y-61166666D01*
X110309523Y-61090476D01*
X110309523Y-61014285D01*
X110271428Y-60938095D01*
X110233333Y-60900000D01*
X110157142Y-60861904D01*
X109966666Y-60861904D01*
X109852380Y-60900000D01*
X109357142Y-61280952D02*
X109357142Y-61661904D01*
X109623809Y-60861904D02*
X109357142Y-61280952D01*
X109090476Y-60861904D01*
X108861904Y-61623809D02*
X108747619Y-61661904D01*
X108557142Y-61661904D01*
X108480952Y-61623809D01*
X108442857Y-61585714D01*
X108404761Y-61509523D01*
X108404761Y-61433333D01*
X108442857Y-61357142D01*
X108480952Y-61319047D01*
X108557142Y-61280952D01*
X108709523Y-61242857D01*
X108785714Y-61204761D01*
X108823809Y-61166666D01*
X108861904Y-61090476D01*
X108861904Y-61014285D01*
X108823809Y-60938095D01*
X108785714Y-60900000D01*
X108709523Y-60861904D01*
X108519047Y-60861904D01*
X108404761Y-60900000D01*
X111216666Y-57611904D02*
X110950000Y-58411904D01*
X110683333Y-57611904D01*
X110150000Y-57992857D02*
X110035714Y-58030952D01*
X109997619Y-58069047D01*
X109959523Y-58145238D01*
X109959523Y-58259523D01*
X109997619Y-58335714D01*
X110035714Y-58373809D01*
X110111904Y-58411904D01*
X110416666Y-58411904D01*
X110416666Y-57611904D01*
X110150000Y-57611904D01*
X110073809Y-57650000D01*
X110035714Y-57688095D01*
X109997619Y-57764285D01*
X109997619Y-57840476D01*
X110035714Y-57916666D01*
X110073809Y-57954761D01*
X110150000Y-57992857D01*
X110416666Y-57992857D01*
X109616666Y-57611904D02*
X109616666Y-58259523D01*
X109578571Y-58335714D01*
X109540476Y-58373809D01*
X109464285Y-58411904D01*
X109311904Y-58411904D01*
X109235714Y-58373809D01*
X109197619Y-58335714D01*
X109159523Y-58259523D01*
X109159523Y-57611904D01*
X108816666Y-58373809D02*
X108702380Y-58411904D01*
X108511904Y-58411904D01*
X108435714Y-58373809D01*
X108397619Y-58335714D01*
X108359523Y-58259523D01*
X108359523Y-58183333D01*
X108397619Y-58107142D01*
X108435714Y-58069047D01*
X108511904Y-58030952D01*
X108664285Y-57992857D01*
X108740476Y-57954761D01*
X108778571Y-57916666D01*
X108816666Y-57840476D01*
X108816666Y-57764285D01*
X108778571Y-57688095D01*
X108740476Y-57650000D01*
X108664285Y-57611904D01*
X108473809Y-57611904D01*
X108359523Y-57650000D01*
X97582904Y-72949000D02*
X96782904Y-72949000D01*
X97582904Y-73291857D02*
X97163857Y-73291857D01*
X97087666Y-73253761D01*
X97049571Y-73177571D01*
X97049571Y-73063285D01*
X97087666Y-72987095D01*
X97125761Y-72949000D01*
X97049571Y-73558523D02*
X97049571Y-73863285D01*
X96782904Y-73672809D02*
X97468619Y-73672809D01*
X97544809Y-73710904D01*
X97582904Y-73787095D01*
X97582904Y-73863285D01*
X97049571Y-74015666D02*
X97049571Y-74320428D01*
X96782904Y-74129952D02*
X97468619Y-74129952D01*
X97544809Y-74168047D01*
X97582904Y-74244238D01*
X97582904Y-74320428D01*
X97049571Y-74587095D02*
X97849571Y-74587095D01*
X97087666Y-74587095D02*
X97049571Y-74663285D01*
X97049571Y-74815666D01*
X97087666Y-74891857D01*
X97125761Y-74929952D01*
X97201952Y-74968047D01*
X97430523Y-74968047D01*
X97506714Y-74929952D01*
X97544809Y-74891857D01*
X97582904Y-74815666D01*
X97582904Y-74663285D01*
X97544809Y-74587095D01*
X97544809Y-75272809D02*
X97582904Y-75349000D01*
X97582904Y-75501380D01*
X97544809Y-75577571D01*
X97468619Y-75615666D01*
X97430523Y-75615666D01*
X97354333Y-75577571D01*
X97316238Y-75501380D01*
X97316238Y-75387095D01*
X97278142Y-75310904D01*
X97201952Y-75272809D01*
X97163857Y-75272809D01*
X97087666Y-75310904D01*
X97049571Y-75387095D01*
X97049571Y-75501380D01*
X97087666Y-75577571D01*
X97506714Y-75958523D02*
X97544809Y-75996619D01*
X97582904Y-75958523D01*
X97544809Y-75920428D01*
X97506714Y-75958523D01*
X97582904Y-75958523D01*
X97087666Y-75958523D02*
X97125761Y-75996619D01*
X97163857Y-75958523D01*
X97125761Y-75920428D01*
X97087666Y-75958523D01*
X97163857Y-75958523D01*
X96744809Y-76910904D02*
X97773380Y-76225190D01*
X96744809Y-77749000D02*
X97773380Y-77063285D01*
X97049571Y-78358523D02*
X97697190Y-78358523D01*
X97773380Y-78320428D01*
X97811476Y-78282333D01*
X97849571Y-78206142D01*
X97849571Y-78091857D01*
X97811476Y-78015666D01*
X97544809Y-78358523D02*
X97582904Y-78282333D01*
X97582904Y-78129952D01*
X97544809Y-78053761D01*
X97506714Y-78015666D01*
X97430523Y-77977571D01*
X97201952Y-77977571D01*
X97125761Y-78015666D01*
X97087666Y-78053761D01*
X97049571Y-78129952D01*
X97049571Y-78282333D01*
X97087666Y-78358523D01*
X97582904Y-78739476D02*
X97049571Y-78739476D01*
X96782904Y-78739476D02*
X96821000Y-78701380D01*
X96859095Y-78739476D01*
X96821000Y-78777571D01*
X96782904Y-78739476D01*
X96859095Y-78739476D01*
X97049571Y-79006142D02*
X97049571Y-79310904D01*
X96782904Y-79120428D02*
X97468619Y-79120428D01*
X97544809Y-79158523D01*
X97582904Y-79234714D01*
X97582904Y-79310904D01*
X97582904Y-79577571D02*
X96782904Y-79577571D01*
X97582904Y-79920428D02*
X97163857Y-79920428D01*
X97087666Y-79882333D01*
X97049571Y-79806142D01*
X97049571Y-79691857D01*
X97087666Y-79615666D01*
X97125761Y-79577571D01*
X97049571Y-80644238D02*
X97582904Y-80644238D01*
X97049571Y-80301380D02*
X97468619Y-80301380D01*
X97544809Y-80339476D01*
X97582904Y-80415666D01*
X97582904Y-80529952D01*
X97544809Y-80606142D01*
X97506714Y-80644238D01*
X97582904Y-81025190D02*
X96782904Y-81025190D01*
X97087666Y-81025190D02*
X97049571Y-81101380D01*
X97049571Y-81253761D01*
X97087666Y-81329952D01*
X97125761Y-81368047D01*
X97201952Y-81406142D01*
X97430523Y-81406142D01*
X97506714Y-81368047D01*
X97544809Y-81329952D01*
X97582904Y-81253761D01*
X97582904Y-81101380D01*
X97544809Y-81025190D01*
X97506714Y-81749000D02*
X97544809Y-81787095D01*
X97582904Y-81749000D01*
X97544809Y-81710904D01*
X97506714Y-81749000D01*
X97582904Y-81749000D01*
X97544809Y-82472809D02*
X97582904Y-82396619D01*
X97582904Y-82244238D01*
X97544809Y-82168047D01*
X97506714Y-82129952D01*
X97430523Y-82091857D01*
X97201952Y-82091857D01*
X97125761Y-82129952D01*
X97087666Y-82168047D01*
X97049571Y-82244238D01*
X97049571Y-82396619D01*
X97087666Y-82472809D01*
X97582904Y-82929952D02*
X97544809Y-82853761D01*
X97506714Y-82815666D01*
X97430523Y-82777571D01*
X97201952Y-82777571D01*
X97125761Y-82815666D01*
X97087666Y-82853761D01*
X97049571Y-82929952D01*
X97049571Y-83044238D01*
X97087666Y-83120428D01*
X97125761Y-83158523D01*
X97201952Y-83196619D01*
X97430523Y-83196619D01*
X97506714Y-83158523D01*
X97544809Y-83120428D01*
X97582904Y-83044238D01*
X97582904Y-82929952D01*
X97582904Y-83539476D02*
X97049571Y-83539476D01*
X97125761Y-83539476D02*
X97087666Y-83577571D01*
X97049571Y-83653761D01*
X97049571Y-83768047D01*
X97087666Y-83844238D01*
X97163857Y-83882333D01*
X97582904Y-83882333D01*
X97163857Y-83882333D02*
X97087666Y-83920428D01*
X97049571Y-83996619D01*
X97049571Y-84110904D01*
X97087666Y-84187095D01*
X97163857Y-84225190D01*
X97582904Y-84225190D01*
X96744809Y-85177571D02*
X97773380Y-84491857D01*
X97163857Y-85444238D02*
X97163857Y-85710904D01*
X97582904Y-85825190D02*
X97582904Y-85444238D01*
X96782904Y-85444238D01*
X96782904Y-85825190D01*
X97049571Y-86168047D02*
X97582904Y-86168047D01*
X97125761Y-86168047D02*
X97087666Y-86206142D01*
X97049571Y-86282333D01*
X97049571Y-86396619D01*
X97087666Y-86472809D01*
X97163857Y-86510904D01*
X97582904Y-86510904D01*
X97049571Y-86815666D02*
X97582904Y-87006142D01*
X97049571Y-87196619D01*
X97582904Y-87501380D02*
X97049571Y-87501380D01*
X96782904Y-87501380D02*
X96821000Y-87463285D01*
X96859095Y-87501380D01*
X96821000Y-87539476D01*
X96782904Y-87501380D01*
X96859095Y-87501380D01*
X97582904Y-87996619D02*
X97544809Y-87920428D01*
X97506714Y-87882333D01*
X97430523Y-87844238D01*
X97201952Y-87844238D01*
X97125761Y-87882333D01*
X97087666Y-87920428D01*
X97049571Y-87996619D01*
X97049571Y-88110904D01*
X97087666Y-88187095D01*
X97125761Y-88225190D01*
X97201952Y-88263285D01*
X97430523Y-88263285D01*
X97506714Y-88225190D01*
X97544809Y-88187095D01*
X97582904Y-88110904D01*
X97582904Y-87996619D01*
X97049571Y-88949000D02*
X97582904Y-88949000D01*
X97049571Y-88606142D02*
X97468619Y-88606142D01*
X97544809Y-88644238D01*
X97582904Y-88720428D01*
X97582904Y-88834714D01*
X97544809Y-88910904D01*
X97506714Y-88949000D01*
X97544809Y-89291857D02*
X97582904Y-89368047D01*
X97582904Y-89520428D01*
X97544809Y-89596619D01*
X97468619Y-89634714D01*
X97430523Y-89634714D01*
X97354333Y-89596619D01*
X97316238Y-89520428D01*
X97316238Y-89406142D01*
X97278142Y-89329952D01*
X97201952Y-89291857D01*
X97163857Y-89291857D01*
X97087666Y-89329952D01*
X97049571Y-89406142D01*
X97049571Y-89520428D01*
X97087666Y-89596619D01*
X97278142Y-89977571D02*
X97278142Y-90587095D01*
X97582904Y-90968047D02*
X96782904Y-90968047D01*
X96782904Y-91158523D01*
X96821000Y-91272809D01*
X96897190Y-91349000D01*
X96973380Y-91387095D01*
X97125761Y-91425190D01*
X97240047Y-91425190D01*
X97392428Y-91387095D01*
X97468619Y-91349000D01*
X97544809Y-91272809D01*
X97582904Y-91158523D01*
X97582904Y-90968047D01*
X97582904Y-92110904D02*
X97163857Y-92110904D01*
X97087666Y-92072809D01*
X97049571Y-91996619D01*
X97049571Y-91844238D01*
X97087666Y-91768047D01*
X97544809Y-92110904D02*
X97582904Y-92034714D01*
X97582904Y-91844238D01*
X97544809Y-91768047D01*
X97468619Y-91729952D01*
X97392428Y-91729952D01*
X97316238Y-91768047D01*
X97278142Y-91844238D01*
X97278142Y-92034714D01*
X97240047Y-92110904D01*
X97049571Y-92377571D02*
X97049571Y-92682333D01*
X96782904Y-92491857D02*
X97468619Y-92491857D01*
X97544809Y-92529952D01*
X97582904Y-92606142D01*
X97582904Y-92682333D01*
X97582904Y-93291857D02*
X97163857Y-93291857D01*
X97087666Y-93253761D01*
X97049571Y-93177571D01*
X97049571Y-93025190D01*
X97087666Y-92949000D01*
X97544809Y-93291857D02*
X97582904Y-93215666D01*
X97582904Y-93025190D01*
X97544809Y-92949000D01*
X97468619Y-92910904D01*
X97392428Y-92910904D01*
X97316238Y-92949000D01*
X97278142Y-93025190D01*
X97278142Y-93215666D01*
X97240047Y-93291857D01*
X96744809Y-94244238D02*
X97773380Y-93558523D01*
X97163857Y-94510904D02*
X97163857Y-94777571D01*
X97582904Y-94891857D02*
X97582904Y-94510904D01*
X96782904Y-94510904D01*
X96782904Y-94891857D01*
X97049571Y-95234714D02*
X97582904Y-95234714D01*
X97125761Y-95234714D02*
X97087666Y-95272809D01*
X97049571Y-95349000D01*
X97049571Y-95463285D01*
X97087666Y-95539476D01*
X97163857Y-95577571D01*
X97582904Y-95577571D01*
X97049571Y-95882333D02*
X97582904Y-96072809D01*
X97049571Y-96263285D01*
X96782904Y-96720428D02*
X96782904Y-96872809D01*
X96821000Y-96949000D01*
X96897190Y-97025190D01*
X97049571Y-97063285D01*
X97316238Y-97063285D01*
X97468619Y-97025190D01*
X97544809Y-96949000D01*
X97582904Y-96872809D01*
X97582904Y-96720428D01*
X97544809Y-96644238D01*
X97468619Y-96568047D01*
X97316238Y-96529952D01*
X97049571Y-96529952D01*
X96897190Y-96568047D01*
X96821000Y-96644238D01*
X96782904Y-96720428D01*
X97049571Y-97406142D02*
X97849571Y-97406142D01*
X97087666Y-97406142D02*
X97049571Y-97482333D01*
X97049571Y-97634714D01*
X97087666Y-97710904D01*
X97125761Y-97749000D01*
X97201952Y-97787095D01*
X97430523Y-97787095D01*
X97506714Y-97749000D01*
X97544809Y-97710904D01*
X97582904Y-97634714D01*
X97582904Y-97482333D01*
X97544809Y-97406142D01*
X97544809Y-98434714D02*
X97582904Y-98358523D01*
X97582904Y-98206142D01*
X97544809Y-98129952D01*
X97468619Y-98091857D01*
X97163857Y-98091857D01*
X97087666Y-98129952D01*
X97049571Y-98206142D01*
X97049571Y-98358523D01*
X97087666Y-98434714D01*
X97163857Y-98472809D01*
X97240047Y-98472809D01*
X97316238Y-98091857D01*
X97049571Y-98815666D02*
X97582904Y-98815666D01*
X97125761Y-98815666D02*
X97087666Y-98853761D01*
X97049571Y-98929952D01*
X97049571Y-99044238D01*
X97087666Y-99120428D01*
X97163857Y-99158523D01*
X97582904Y-99158523D01*
X97582904Y-99539476D02*
X96782904Y-99539476D01*
X96782904Y-99844238D01*
X96821000Y-99920428D01*
X96859095Y-99958523D01*
X96935285Y-99996619D01*
X97049571Y-99996619D01*
X97125761Y-99958523D01*
X97163857Y-99920428D01*
X97201952Y-99844238D01*
X97201952Y-99539476D01*
X97582904Y-100339476D02*
X97049571Y-100339476D01*
X96782904Y-100339476D02*
X96821000Y-100301380D01*
X96859095Y-100339476D01*
X96821000Y-100377571D01*
X96782904Y-100339476D01*
X96859095Y-100339476D01*
X97544809Y-101063285D02*
X97582904Y-100987095D01*
X97582904Y-100834714D01*
X97544809Y-100758523D01*
X97506714Y-100720428D01*
X97430523Y-100682333D01*
X97201952Y-100682333D01*
X97125761Y-100720428D01*
X97087666Y-100758523D01*
X97049571Y-100834714D01*
X97049571Y-100987095D01*
X97087666Y-101063285D01*
X97582904Y-101520428D02*
X97544809Y-101444238D01*
X97506714Y-101406142D01*
X97430523Y-101368047D01*
X97201952Y-101368047D01*
X97125761Y-101406142D01*
X97087666Y-101444238D01*
X97049571Y-101520428D01*
X97049571Y-101634714D01*
X97087666Y-101710904D01*
X97125761Y-101749000D01*
X97201952Y-101787095D01*
X97430523Y-101787095D01*
X97506714Y-101749000D01*
X97544809Y-101710904D01*
X97582904Y-101634714D01*
X97582904Y-101520428D01*
X103290000Y-104016978D02*
X103251904Y-103940788D01*
X103251904Y-103826502D01*
X103290000Y-103712216D01*
X103366190Y-103636026D01*
X103442380Y-103597930D01*
X103594761Y-103559835D01*
X103709047Y-103559835D01*
X103861428Y-103597930D01*
X103937619Y-103636026D01*
X104013809Y-103712216D01*
X104051904Y-103826502D01*
X104051904Y-103902692D01*
X104013809Y-104016978D01*
X103975714Y-104055073D01*
X103709047Y-104055073D01*
X103709047Y-103902692D01*
X104051904Y-104397930D02*
X103251904Y-104397930D01*
X104051904Y-104855073D01*
X103251904Y-104855073D01*
X104051904Y-105236026D02*
X103251904Y-105236026D01*
X103251904Y-105426502D01*
X103290000Y-105540788D01*
X103366190Y-105616978D01*
X103442380Y-105655073D01*
X103594761Y-105693169D01*
X103709047Y-105693169D01*
X103861428Y-105655073D01*
X103937619Y-105616978D01*
X104013809Y-105540788D01*
X104051904Y-105426502D01*
X104051904Y-105236026D01*
X101473809Y-102074121D02*
X101511904Y-102188407D01*
X101511904Y-102378883D01*
X101473809Y-102455073D01*
X101435714Y-102493169D01*
X101359523Y-102531264D01*
X101283333Y-102531264D01*
X101207142Y-102493169D01*
X101169047Y-102455073D01*
X101130952Y-102378883D01*
X101092857Y-102226502D01*
X101054761Y-102150311D01*
X101016666Y-102112216D01*
X100940476Y-102074121D01*
X100864285Y-102074121D01*
X100788095Y-102112216D01*
X100750000Y-102150311D01*
X100711904Y-102226502D01*
X100711904Y-102416978D01*
X100750000Y-102531264D01*
X100711904Y-102797930D02*
X101511904Y-102988407D01*
X100940476Y-103140788D01*
X101511904Y-103293169D01*
X100711904Y-103483645D01*
X101435714Y-104245550D02*
X101473809Y-104207454D01*
X101511904Y-104093169D01*
X101511904Y-104016978D01*
X101473809Y-103902692D01*
X101397619Y-103826502D01*
X101321428Y-103788407D01*
X101169047Y-103750311D01*
X101054761Y-103750311D01*
X100902380Y-103788407D01*
X100826190Y-103826502D01*
X100750000Y-103902692D01*
X100711904Y-104016978D01*
X100711904Y-104093169D01*
X100750000Y-104207454D01*
X100788095Y-104245550D01*
X101511904Y-104969359D02*
X101511904Y-104588407D01*
X100711904Y-104588407D01*
X101511904Y-105236026D02*
X100711904Y-105236026D01*
X101511904Y-105693169D02*
X101054761Y-105350311D01*
X100711904Y-105693169D02*
X101169047Y-105236026D01*
X106548809Y-102307692D02*
X106586904Y-102421978D01*
X106586904Y-102612454D01*
X106548809Y-102688645D01*
X106510714Y-102726740D01*
X106434523Y-102764835D01*
X106358333Y-102764835D01*
X106282142Y-102726740D01*
X106244047Y-102688645D01*
X106205952Y-102612454D01*
X106167857Y-102460073D01*
X106129761Y-102383883D01*
X106091666Y-102345788D01*
X106015476Y-102307692D01*
X105939285Y-102307692D01*
X105863095Y-102345788D01*
X105825000Y-102383883D01*
X105786904Y-102460073D01*
X105786904Y-102650550D01*
X105825000Y-102764835D01*
X105786904Y-103031502D02*
X106586904Y-103221978D01*
X106015476Y-103374359D01*
X106586904Y-103526740D01*
X105786904Y-103717216D01*
X106586904Y-104021978D02*
X105786904Y-104021978D01*
X105786904Y-104212454D01*
X105825000Y-104326740D01*
X105901190Y-104402930D01*
X105977380Y-104441026D01*
X106129761Y-104479121D01*
X106244047Y-104479121D01*
X106396428Y-104441026D01*
X106472619Y-104402930D01*
X106548809Y-104326740D01*
X106586904Y-104212454D01*
X106586904Y-104021978D01*
X106586904Y-104821978D02*
X105786904Y-104821978D01*
X105786904Y-105355311D02*
X105786904Y-105507692D01*
X105825000Y-105583883D01*
X105901190Y-105660073D01*
X106053571Y-105698169D01*
X106320238Y-105698169D01*
X106472619Y-105660073D01*
X106548809Y-105583883D01*
X106586904Y-105507692D01*
X106586904Y-105355311D01*
X106548809Y-105279121D01*
X106472619Y-105202930D01*
X106320238Y-105164835D01*
X106053571Y-105164835D01*
X105901190Y-105202930D01*
X105825000Y-105279121D01*
X105786904Y-105355311D01*
D11*
X107064285Y-82646428D02*
X107407142Y-82646428D01*
X107235714Y-82646428D02*
X107235714Y-82046428D01*
X107292857Y-82132142D01*
X107350000Y-82189285D01*
X107407142Y-82217857D01*
X106807142Y-82589285D02*
X106778571Y-82617857D01*
X106807142Y-82646428D01*
X106835714Y-82617857D01*
X106807142Y-82589285D01*
X106807142Y-82646428D01*
X106207142Y-82646428D02*
X106550000Y-82646428D01*
X106378571Y-82646428D02*
X106378571Y-82046428D01*
X106435714Y-82132142D01*
X106492857Y-82189285D01*
X106550000Y-82217857D01*
X106035714Y-82046428D02*
X105835714Y-82646428D01*
X105635714Y-82046428D01*
X101585714Y-83196428D02*
X101214285Y-83196428D01*
X101414285Y-83425000D01*
X101328571Y-83425000D01*
X101271428Y-83453571D01*
X101242857Y-83482142D01*
X101214285Y-83539285D01*
X101214285Y-83682142D01*
X101242857Y-83739285D01*
X101271428Y-83767857D01*
X101328571Y-83796428D01*
X101500000Y-83796428D01*
X101557142Y-83767857D01*
X101585714Y-83739285D01*
X100957142Y-83739285D02*
X100928571Y-83767857D01*
X100957142Y-83796428D01*
X100985714Y-83767857D01*
X100957142Y-83739285D01*
X100957142Y-83796428D01*
X100728571Y-83196428D02*
X100357142Y-83196428D01*
X100557142Y-83425000D01*
X100471428Y-83425000D01*
X100414285Y-83453571D01*
X100385714Y-83482142D01*
X100357142Y-83539285D01*
X100357142Y-83682142D01*
X100385714Y-83739285D01*
X100414285Y-83767857D01*
X100471428Y-83796428D01*
X100642857Y-83796428D01*
X100700000Y-83767857D01*
X100728571Y-83739285D01*
X100185714Y-83196428D02*
X99985714Y-83796428D01*
X99785714Y-83196428D01*
D10*
X106145238Y-57738095D02*
X106145238Y-58538095D01*
X106335714Y-58538095D01*
X106450000Y-58500000D01*
X106526190Y-58423809D01*
X106564285Y-58347619D01*
X106602380Y-58195238D01*
X106602380Y-58080952D01*
X106564285Y-57928571D01*
X106526190Y-57852380D01*
X106450000Y-57776190D01*
X106335714Y-57738095D01*
X106145238Y-57738095D01*
X106945238Y-58042857D02*
X107554761Y-58042857D01*
X99845238Y-57688095D02*
X99845238Y-58488095D01*
X100035714Y-58488095D01*
X100150000Y-58450000D01*
X100226190Y-58373809D01*
X100264285Y-58297619D01*
X100302380Y-58145238D01*
X100302380Y-58030952D01*
X100264285Y-57878571D01*
X100226190Y-57802380D01*
X100150000Y-57726190D01*
X100035714Y-57688095D01*
X99845238Y-57688095D01*
X100645238Y-57992857D02*
X101254761Y-57992857D01*
X100950000Y-57688095D02*
X100950000Y-58297619D01*
X110967857Y-71558333D02*
X110586904Y-71558333D01*
X111044047Y-71786904D02*
X110777380Y-70986904D01*
X110510714Y-71786904D01*
X110244047Y-71786904D02*
X110244047Y-70986904D01*
X110053571Y-70986904D01*
X109939285Y-71025000D01*
X109863095Y-71101190D01*
X109825000Y-71177380D01*
X109786904Y-71329761D01*
X109786904Y-71444047D01*
X109825000Y-71596428D01*
X109863095Y-71672619D01*
X109939285Y-71748809D01*
X110053571Y-71786904D01*
X110244047Y-71786904D01*
X108986904Y-71710714D02*
X109025000Y-71748809D01*
X109139285Y-71786904D01*
X109215476Y-71786904D01*
X109329761Y-71748809D01*
X109405952Y-71672619D01*
X109444047Y-71596428D01*
X109482142Y-71444047D01*
X109482142Y-71329761D01*
X109444047Y-71177380D01*
X109405952Y-71101190D01*
X109329761Y-71025000D01*
X109215476Y-70986904D01*
X109139285Y-70986904D01*
X109025000Y-71025000D01*
X108986904Y-71063095D01*
X108834523Y-71863095D02*
X108225000Y-71863095D01*
X108148809Y-70986904D02*
X107882142Y-71786904D01*
X107615476Y-70986904D01*
X106891666Y-71786904D02*
X107158333Y-71405952D01*
X107348809Y-71786904D02*
X107348809Y-70986904D01*
X107044047Y-70986904D01*
X106967857Y-71025000D01*
X106929761Y-71063095D01*
X106891666Y-71139285D01*
X106891666Y-71253571D01*
X106929761Y-71329761D01*
X106967857Y-71367857D01*
X107044047Y-71405952D01*
X107348809Y-71405952D01*
X106548809Y-71367857D02*
X106282142Y-71367857D01*
X106167857Y-71786904D02*
X106548809Y-71786904D01*
X106548809Y-70986904D01*
X106167857Y-70986904D01*
X105558333Y-71367857D02*
X105825000Y-71367857D01*
X105825000Y-71786904D02*
X105825000Y-70986904D01*
X105444047Y-70986904D01*
%LPC*%
G36*
G01*
X107699000Y-74575000D02*
X107699000Y-72825000D01*
G75*
G02*
X107750000Y-72774000I51000J0D01*
G01*
X109500000Y-72774000D01*
G75*
G02*
X109551000Y-72825000I0J-51000D01*
G01*
X109551000Y-74575000D01*
G75*
G02*
X109500000Y-74626000I-51000J0D01*
G01*
X107750000Y-74626000D01*
G75*
G02*
X107699000Y-74575000I0J51000D01*
G01*
G37*
D12*
X101100000Y-106900000D03*
G36*
G01*
X104090500Y-107801000D02*
X103189500Y-107801000D01*
G75*
G02*
X102739000Y-107350500I0J450500D01*
G01*
X102739000Y-106449500D01*
G75*
G02*
X103189500Y-105999000I450500J0D01*
G01*
X104090500Y-105999000D01*
G75*
G02*
X104541000Y-106449500I0J-450500D01*
G01*
X104541000Y-107350500D01*
G75*
G02*
X104090500Y-107801000I-450500J0D01*
G01*
G37*
X106180000Y-106900000D03*
G36*
G01*
X105674000Y-84575000D02*
X105674000Y-82825000D01*
G75*
G02*
X105725000Y-82774000I51000J0D01*
G01*
X107475000Y-82774000D01*
G75*
G02*
X107526000Y-82825000I0J-51000D01*
G01*
X107526000Y-84575000D01*
G75*
G02*
X107475000Y-84626000I-51000J0D01*
G01*
X105725000Y-84626000D01*
G75*
G02*
X105674000Y-84575000I0J51000D01*
G01*
G37*
G36*
G01*
X99874000Y-85800000D02*
X99874000Y-84050000D01*
G75*
G02*
X99925000Y-83999000I51000J0D01*
G01*
X101675000Y-83999000D01*
G75*
G02*
X101726000Y-84050000I0J-51000D01*
G01*
X101726000Y-85800000D01*
G75*
G02*
X101675000Y-85851000I-51000J0D01*
G01*
X99925000Y-85851000D01*
G75*
G02*
X99874000Y-85800000I0J51000D01*
G01*
G37*
G36*
G01*
X103749000Y-59625000D02*
X103749000Y-57625000D01*
G75*
G02*
X103800000Y-57574000I51000J0D01*
G01*
X105800000Y-57574000D01*
G75*
G02*
X105851000Y-57625000I0J-51000D01*
G01*
X105851000Y-59625000D01*
G75*
G02*
X105800000Y-59676000I-51000J0D01*
G01*
X103800000Y-59676000D01*
G75*
G02*
X103749000Y-59625000I0J51000D01*
G01*
G37*
G36*
G01*
X101449000Y-59625000D02*
X101449000Y-57625000D01*
G75*
G02*
X101500000Y-57574000I51000J0D01*
G01*
X103500000Y-57574000D01*
G75*
G02*
X103551000Y-57625000I0J-51000D01*
G01*
X103551000Y-59625000D01*
G75*
G02*
X103500000Y-59676000I-51000J0D01*
G01*
X101500000Y-59676000D01*
G75*
G02*
X101449000Y-59625000I0J51000D01*
G01*
G37*
G36*
G01*
X116021000Y-80710000D02*
X116021000Y-82410000D01*
G75*
G02*
X115970000Y-82461000I-51000J0D01*
G01*
X112470000Y-82461000D01*
G75*
G02*
X112419000Y-82410000I0J51000D01*
G01*
X112419000Y-80710000D01*
G75*
G02*
X112470000Y-80659000I51000J0D01*
G01*
X115970000Y-80659000D01*
G75*
G02*
X116021000Y-80710000I0J-51000D01*
G01*
G37*
G36*
G01*
X116021000Y-65470000D02*
X116021000Y-67170000D01*
G75*
G02*
X115970000Y-67221000I-51000J0D01*
G01*
X112470000Y-67221000D01*
G75*
G02*
X112419000Y-67170000I0J51000D01*
G01*
X112419000Y-65470000D01*
G75*
G02*
X112470000Y-65419000I51000J0D01*
G01*
X115970000Y-65419000D01*
G75*
G02*
X116021000Y-65470000I0J-51000D01*
G01*
G37*
G36*
G01*
X116021000Y-78170000D02*
X116021000Y-79870000D01*
G75*
G02*
X115970000Y-79921000I-51000J0D01*
G01*
X112470000Y-79921000D01*
G75*
G02*
X112419000Y-79870000I0J51000D01*
G01*
X112419000Y-78170000D01*
G75*
G02*
X112470000Y-78119000I51000J0D01*
G01*
X115970000Y-78119000D01*
G75*
G02*
X116021000Y-78170000I0J-51000D01*
G01*
G37*
G36*
G01*
X116021000Y-57850000D02*
X116021000Y-59550000D01*
G75*
G02*
X115970000Y-59601000I-51000J0D01*
G01*
X112470000Y-59601000D01*
G75*
G02*
X112419000Y-59550000I0J51000D01*
G01*
X112419000Y-57850000D01*
G75*
G02*
X112470000Y-57799000I51000J0D01*
G01*
X115970000Y-57799000D01*
G75*
G02*
X116021000Y-57850000I0J-51000D01*
G01*
G37*
G36*
G01*
X116021000Y-62930000D02*
X116021000Y-64630000D01*
G75*
G02*
X115970000Y-64681000I-51000J0D01*
G01*
X112470000Y-64681000D01*
G75*
G02*
X112419000Y-64630000I0J51000D01*
G01*
X112419000Y-62930000D01*
G75*
G02*
X112470000Y-62879000I51000J0D01*
G01*
X115970000Y-62879000D01*
G75*
G02*
X116021000Y-62930000I0J-51000D01*
G01*
G37*
G36*
G01*
X116021000Y-75630000D02*
X116021000Y-77330000D01*
G75*
G02*
X115970000Y-77381000I-51000J0D01*
G01*
X112470000Y-77381000D01*
G75*
G02*
X112419000Y-77330000I0J51000D01*
G01*
X112419000Y-75630000D01*
G75*
G02*
X112470000Y-75579000I51000J0D01*
G01*
X115970000Y-75579000D01*
G75*
G02*
X116021000Y-75630000I0J-51000D01*
G01*
G37*
G36*
G01*
X116021000Y-88330000D02*
X116021000Y-90030000D01*
G75*
G02*
X115970000Y-90081000I-51000J0D01*
G01*
X112470000Y-90081000D01*
G75*
G02*
X112419000Y-90030000I0J51000D01*
G01*
X112419000Y-88330000D01*
G75*
G02*
X112470000Y-88279000I51000J0D01*
G01*
X115970000Y-88279000D01*
G75*
G02*
X116021000Y-88330000I0J-51000D01*
G01*
G37*
G36*
G01*
X116021000Y-60390000D02*
X116021000Y-62090000D01*
G75*
G02*
X115970000Y-62141000I-51000J0D01*
G01*
X112470000Y-62141000D01*
G75*
G02*
X112419000Y-62090000I0J51000D01*
G01*
X112419000Y-60390000D01*
G75*
G02*
X112470000Y-60339000I51000J0D01*
G01*
X115970000Y-60339000D01*
G75*
G02*
X116021000Y-60390000I0J-51000D01*
G01*
G37*
G36*
G01*
X116021000Y-68010000D02*
X116021000Y-69710000D01*
G75*
G02*
X115970000Y-69761000I-51000J0D01*
G01*
X112470000Y-69761000D01*
G75*
G02*
X112419000Y-69710000I0J51000D01*
G01*
X112419000Y-68010000D01*
G75*
G02*
X112470000Y-67959000I51000J0D01*
G01*
X115970000Y-67959000D01*
G75*
G02*
X116021000Y-68010000I0J-51000D01*
G01*
G37*
G36*
G01*
X116021000Y-70550000D02*
X116021000Y-72250000D01*
G75*
G02*
X115970000Y-72301000I-51000J0D01*
G01*
X112470000Y-72301000D01*
G75*
G02*
X112419000Y-72250000I0J51000D01*
G01*
X112419000Y-70550000D01*
G75*
G02*
X112470000Y-70499000I51000J0D01*
G01*
X115970000Y-70499000D01*
G75*
G02*
X116021000Y-70550000I0J-51000D01*
G01*
G37*
G36*
G01*
X116021000Y-73090000D02*
X116021000Y-74790000D01*
G75*
G02*
X115970000Y-74841000I-51000J0D01*
G01*
X112470000Y-74841000D01*
G75*
G02*
X112419000Y-74790000I0J51000D01*
G01*
X112419000Y-73090000D01*
G75*
G02*
X112470000Y-73039000I51000J0D01*
G01*
X115970000Y-73039000D01*
G75*
G02*
X116021000Y-73090000I0J-51000D01*
G01*
G37*
G36*
G01*
X116021000Y-83250000D02*
X116021000Y-84950000D01*
G75*
G02*
X115970000Y-85001000I-51000J0D01*
G01*
X112470000Y-85001000D01*
G75*
G02*
X112419000Y-84950000I0J51000D01*
G01*
X112419000Y-83250000D01*
G75*
G02*
X112470000Y-83199000I51000J0D01*
G01*
X115970000Y-83199000D01*
G75*
G02*
X116021000Y-83250000I0J-51000D01*
G01*
G37*
G36*
G01*
X116021000Y-90870000D02*
X116021000Y-92570000D01*
G75*
G02*
X115970000Y-92621000I-51000J0D01*
G01*
X112470000Y-92621000D01*
G75*
G02*
X112419000Y-92570000I0J51000D01*
G01*
X112419000Y-90870000D01*
G75*
G02*
X112470000Y-90819000I51000J0D01*
G01*
X115970000Y-90819000D01*
G75*
G02*
X116021000Y-90870000I0J-51000D01*
G01*
G37*
G36*
G01*
X116021000Y-85790000D02*
X116021000Y-87490000D01*
G75*
G02*
X115970000Y-87541000I-51000J0D01*
G01*
X112470000Y-87541000D01*
G75*
G02*
X112419000Y-87490000I0J51000D01*
G01*
X112419000Y-85790000D01*
G75*
G02*
X112470000Y-85739000I51000J0D01*
G01*
X115970000Y-85739000D01*
G75*
G02*
X116021000Y-85790000I0J-51000D01*
G01*
G37*
G36*
G01*
X116021000Y-106110000D02*
X116021000Y-107810000D01*
G75*
G02*
X115970000Y-107861000I-51000J0D01*
G01*
X112470000Y-107861000D01*
G75*
G02*
X112419000Y-107810000I0J51000D01*
G01*
X112419000Y-106110000D01*
G75*
G02*
X112470000Y-106059000I51000J0D01*
G01*
X115970000Y-106059000D01*
G75*
G02*
X116021000Y-106110000I0J-51000D01*
G01*
G37*
G36*
G01*
X116021000Y-93410000D02*
X116021000Y-95110000D01*
G75*
G02*
X115970000Y-95161000I-51000J0D01*
G01*
X112470000Y-95161000D01*
G75*
G02*
X112419000Y-95110000I0J51000D01*
G01*
X112419000Y-93410000D01*
G75*
G02*
X112470000Y-93359000I51000J0D01*
G01*
X115970000Y-93359000D01*
G75*
G02*
X116021000Y-93410000I0J-51000D01*
G01*
G37*
G36*
G01*
X116021000Y-103570000D02*
X116021000Y-105270000D01*
G75*
G02*
X115970000Y-105321000I-51000J0D01*
G01*
X112470000Y-105321000D01*
G75*
G02*
X112419000Y-105270000I0J51000D01*
G01*
X112419000Y-103570000D01*
G75*
G02*
X112470000Y-103519000I51000J0D01*
G01*
X115970000Y-103519000D01*
G75*
G02*
X116021000Y-103570000I0J-51000D01*
G01*
G37*
G36*
G01*
X116021000Y-95950000D02*
X116021000Y-97650000D01*
G75*
G02*
X115970000Y-97701000I-51000J0D01*
G01*
X112470000Y-97701000D01*
G75*
G02*
X112419000Y-97650000I0J51000D01*
G01*
X112419000Y-95950000D01*
G75*
G02*
X112470000Y-95899000I51000J0D01*
G01*
X115970000Y-95899000D01*
G75*
G02*
X116021000Y-95950000I0J-51000D01*
G01*
G37*
G36*
G01*
X116021000Y-101030000D02*
X116021000Y-102730000D01*
G75*
G02*
X115970000Y-102781000I-51000J0D01*
G01*
X112470000Y-102781000D01*
G75*
G02*
X112419000Y-102730000I0J51000D01*
G01*
X112419000Y-101030000D01*
G75*
G02*
X112470000Y-100979000I51000J0D01*
G01*
X115970000Y-100979000D01*
G75*
G02*
X116021000Y-101030000I0J-51000D01*
G01*
G37*
G36*
G01*
X116021000Y-98490000D02*
X116021000Y-100190000D01*
G75*
G02*
X115970000Y-100241000I-51000J0D01*
G01*
X112470000Y-100241000D01*
G75*
G02*
X112419000Y-100190000I0J51000D01*
G01*
X112419000Y-98490000D01*
G75*
G02*
X112470000Y-98439000I51000J0D01*
G01*
X115970000Y-98439000D01*
G75*
G02*
X116021000Y-98490000I0J-51000D01*
G01*
G37*
G36*
G01*
X113421000Y-57850000D02*
X113421000Y-59550000D01*
G75*
G02*
X113370000Y-59601000I-51000J0D01*
G01*
X111670000Y-59601000D01*
G75*
G02*
X111619000Y-59550000I0J51000D01*
G01*
X111619000Y-57850000D01*
G75*
G02*
X111670000Y-57799000I51000J0D01*
G01*
X113370000Y-57799000D01*
G75*
G02*
X113421000Y-57850000I0J-51000D01*
G01*
G37*
X112520000Y-61240000D03*
G36*
G01*
X113421000Y-62930000D02*
X113421000Y-64630000D01*
G75*
G02*
X113370000Y-64681000I-51000J0D01*
G01*
X111670000Y-64681000D01*
G75*
G02*
X111619000Y-64630000I0J51000D01*
G01*
X111619000Y-62930000D01*
G75*
G02*
X111670000Y-62879000I51000J0D01*
G01*
X113370000Y-62879000D01*
G75*
G02*
X113421000Y-62930000I0J-51000D01*
G01*
G37*
X112520000Y-66320000D03*
X112520000Y-68860000D03*
X112520000Y-71400000D03*
X112520000Y-73940000D03*
G36*
G01*
X113421000Y-75630000D02*
X113421000Y-77330000D01*
G75*
G02*
X113370000Y-77381000I-51000J0D01*
G01*
X111670000Y-77381000D01*
G75*
G02*
X111619000Y-77330000I0J51000D01*
G01*
X111619000Y-75630000D01*
G75*
G02*
X111670000Y-75579000I51000J0D01*
G01*
X113370000Y-75579000D01*
G75*
G02*
X113421000Y-75630000I0J-51000D01*
G01*
G37*
X112520000Y-79020000D03*
X112520000Y-81560000D03*
X112520000Y-84100000D03*
X112520000Y-86640000D03*
G36*
G01*
X113421000Y-88330000D02*
X113421000Y-90030000D01*
G75*
G02*
X113370000Y-90081000I-51000J0D01*
G01*
X111670000Y-90081000D01*
G75*
G02*
X111619000Y-90030000I0J51000D01*
G01*
X111619000Y-88330000D01*
G75*
G02*
X111670000Y-88279000I51000J0D01*
G01*
X113370000Y-88279000D01*
G75*
G02*
X113421000Y-88330000I0J-51000D01*
G01*
G37*
X112520000Y-91720000D03*
X112520000Y-94260000D03*
X112520000Y-96800000D03*
X112520000Y-99340000D03*
G36*
G01*
X113421000Y-101030000D02*
X113421000Y-102730000D01*
G75*
G02*
X113370000Y-102781000I-51000J0D01*
G01*
X111670000Y-102781000D01*
G75*
G02*
X111619000Y-102730000I0J51000D01*
G01*
X111619000Y-101030000D01*
G75*
G02*
X111670000Y-100979000I51000J0D01*
G01*
X113370000Y-100979000D01*
G75*
G02*
X113421000Y-101030000I0J-51000D01*
G01*
G37*
X112520000Y-104420000D03*
X112520000Y-106960000D03*
G36*
G01*
X91199000Y-59490000D02*
X91199000Y-57790000D01*
G75*
G02*
X91250000Y-57739000I51000J0D01*
G01*
X94750000Y-57739000D01*
G75*
G02*
X94801000Y-57790000I0J-51000D01*
G01*
X94801000Y-59490000D01*
G75*
G02*
X94750000Y-59541000I-51000J0D01*
G01*
X91250000Y-59541000D01*
G75*
G02*
X91199000Y-59490000I0J51000D01*
G01*
G37*
G36*
G01*
X91199000Y-102670000D02*
X91199000Y-100970000D01*
G75*
G02*
X91250000Y-100919000I51000J0D01*
G01*
X94750000Y-100919000D01*
G75*
G02*
X94801000Y-100970000I0J-51000D01*
G01*
X94801000Y-102670000D01*
G75*
G02*
X94750000Y-102721000I-51000J0D01*
G01*
X91250000Y-102721000D01*
G75*
G02*
X91199000Y-102670000I0J51000D01*
G01*
G37*
G36*
G01*
X91199000Y-64570000D02*
X91199000Y-62870000D01*
G75*
G02*
X91250000Y-62819000I51000J0D01*
G01*
X94750000Y-62819000D01*
G75*
G02*
X94801000Y-62870000I0J-51000D01*
G01*
X94801000Y-64570000D01*
G75*
G02*
X94750000Y-64621000I-51000J0D01*
G01*
X91250000Y-64621000D01*
G75*
G02*
X91199000Y-64570000I0J51000D01*
G01*
G37*
G36*
G01*
X91199000Y-84890000D02*
X91199000Y-83190000D01*
G75*
G02*
X91250000Y-83139000I51000J0D01*
G01*
X94750000Y-83139000D01*
G75*
G02*
X94801000Y-83190000I0J-51000D01*
G01*
X94801000Y-84890000D01*
G75*
G02*
X94750000Y-84941000I-51000J0D01*
G01*
X91250000Y-84941000D01*
G75*
G02*
X91199000Y-84890000I0J51000D01*
G01*
G37*
G36*
G01*
X91199000Y-107750000D02*
X91199000Y-106050000D01*
G75*
G02*
X91250000Y-105999000I51000J0D01*
G01*
X94750000Y-105999000D01*
G75*
G02*
X94801000Y-106050000I0J-51000D01*
G01*
X94801000Y-107750000D01*
G75*
G02*
X94750000Y-107801000I-51000J0D01*
G01*
X91250000Y-107801000D01*
G75*
G02*
X91199000Y-107750000I0J51000D01*
G01*
G37*
G36*
G01*
X91199000Y-77270000D02*
X91199000Y-75570000D01*
G75*
G02*
X91250000Y-75519000I51000J0D01*
G01*
X94750000Y-75519000D01*
G75*
G02*
X94801000Y-75570000I0J-51000D01*
G01*
X94801000Y-77270000D01*
G75*
G02*
X94750000Y-77321000I-51000J0D01*
G01*
X91250000Y-77321000D01*
G75*
G02*
X91199000Y-77270000I0J51000D01*
G01*
G37*
G36*
G01*
X91199000Y-82350000D02*
X91199000Y-80650000D01*
G75*
G02*
X91250000Y-80599000I51000J0D01*
G01*
X94750000Y-80599000D01*
G75*
G02*
X94801000Y-80650000I0J-51000D01*
G01*
X94801000Y-82350000D01*
G75*
G02*
X94750000Y-82401000I-51000J0D01*
G01*
X91250000Y-82401000D01*
G75*
G02*
X91199000Y-82350000I0J51000D01*
G01*
G37*
G36*
G01*
X91199000Y-97590000D02*
X91199000Y-95890000D01*
G75*
G02*
X91250000Y-95839000I51000J0D01*
G01*
X94750000Y-95839000D01*
G75*
G02*
X94801000Y-95890000I0J-51000D01*
G01*
X94801000Y-97590000D01*
G75*
G02*
X94750000Y-97641000I-51000J0D01*
G01*
X91250000Y-97641000D01*
G75*
G02*
X91199000Y-97590000I0J51000D01*
G01*
G37*
G36*
G01*
X91189000Y-92510000D02*
X91189000Y-90810000D01*
G75*
G02*
X91240000Y-90759000I51000J0D01*
G01*
X94740000Y-90759000D01*
G75*
G02*
X94791000Y-90810000I0J-51000D01*
G01*
X94791000Y-92510000D01*
G75*
G02*
X94740000Y-92561000I-51000J0D01*
G01*
X91240000Y-92561000D01*
G75*
G02*
X91189000Y-92510000I0J51000D01*
G01*
G37*
G36*
G01*
X91199000Y-67100000D02*
X91199000Y-65400000D01*
G75*
G02*
X91250000Y-65349000I51000J0D01*
G01*
X94750000Y-65349000D01*
G75*
G02*
X94801000Y-65400000I0J-51000D01*
G01*
X94801000Y-67100000D01*
G75*
G02*
X94750000Y-67151000I-51000J0D01*
G01*
X91250000Y-67151000D01*
G75*
G02*
X91199000Y-67100000I0J51000D01*
G01*
G37*
G36*
G01*
X91199000Y-62020000D02*
X91199000Y-60320000D01*
G75*
G02*
X91250000Y-60269000I51000J0D01*
G01*
X94750000Y-60269000D01*
G75*
G02*
X94801000Y-60320000I0J-51000D01*
G01*
X94801000Y-62020000D01*
G75*
G02*
X94750000Y-62071000I-51000J0D01*
G01*
X91250000Y-62071000D01*
G75*
G02*
X91199000Y-62020000I0J51000D01*
G01*
G37*
G36*
G01*
X91199000Y-69650000D02*
X91199000Y-67950000D01*
G75*
G02*
X91250000Y-67899000I51000J0D01*
G01*
X94750000Y-67899000D01*
G75*
G02*
X94801000Y-67950000I0J-51000D01*
G01*
X94801000Y-69650000D01*
G75*
G02*
X94750000Y-69701000I-51000J0D01*
G01*
X91250000Y-69701000D01*
G75*
G02*
X91199000Y-69650000I0J51000D01*
G01*
G37*
G36*
G01*
X91209000Y-79810000D02*
X91209000Y-78110000D01*
G75*
G02*
X91260000Y-78059000I51000J0D01*
G01*
X94760000Y-78059000D01*
G75*
G02*
X94811000Y-78110000I0J-51000D01*
G01*
X94811000Y-79810000D01*
G75*
G02*
X94760000Y-79861000I-51000J0D01*
G01*
X91260000Y-79861000D01*
G75*
G02*
X91209000Y-79810000I0J51000D01*
G01*
G37*
G36*
G01*
X91199000Y-72190000D02*
X91199000Y-70490000D01*
G75*
G02*
X91250000Y-70439000I51000J0D01*
G01*
X94750000Y-70439000D01*
G75*
G02*
X94801000Y-70490000I0J-51000D01*
G01*
X94801000Y-72190000D01*
G75*
G02*
X94750000Y-72241000I-51000J0D01*
G01*
X91250000Y-72241000D01*
G75*
G02*
X91199000Y-72190000I0J51000D01*
G01*
G37*
G36*
G01*
X91199000Y-87430000D02*
X91199000Y-85730000D01*
G75*
G02*
X91250000Y-85679000I51000J0D01*
G01*
X94750000Y-85679000D01*
G75*
G02*
X94801000Y-85730000I0J-51000D01*
G01*
X94801000Y-87430000D01*
G75*
G02*
X94750000Y-87481000I-51000J0D01*
G01*
X91250000Y-87481000D01*
G75*
G02*
X91199000Y-87430000I0J51000D01*
G01*
G37*
G36*
G01*
X91199000Y-89970000D02*
X91199000Y-88270000D01*
G75*
G02*
X91250000Y-88219000I51000J0D01*
G01*
X94750000Y-88219000D01*
G75*
G02*
X94801000Y-88270000I0J-51000D01*
G01*
X94801000Y-89970000D01*
G75*
G02*
X94750000Y-90021000I-51000J0D01*
G01*
X91250000Y-90021000D01*
G75*
G02*
X91199000Y-89970000I0J51000D01*
G01*
G37*
G36*
G01*
X91199000Y-95050000D02*
X91199000Y-93350000D01*
G75*
G02*
X91250000Y-93299000I51000J0D01*
G01*
X94750000Y-93299000D01*
G75*
G02*
X94801000Y-93350000I0J-51000D01*
G01*
X94801000Y-95050000D01*
G75*
G02*
X94750000Y-95101000I-51000J0D01*
G01*
X91250000Y-95101000D01*
G75*
G02*
X91199000Y-95050000I0J51000D01*
G01*
G37*
G36*
G01*
X91199000Y-100130000D02*
X91199000Y-98430000D01*
G75*
G02*
X91250000Y-98379000I51000J0D01*
G01*
X94750000Y-98379000D01*
G75*
G02*
X94801000Y-98430000I0J-51000D01*
G01*
X94801000Y-100130000D01*
G75*
G02*
X94750000Y-100181000I-51000J0D01*
G01*
X91250000Y-100181000D01*
G75*
G02*
X91199000Y-100130000I0J51000D01*
G01*
G37*
G36*
G01*
X91199000Y-74730000D02*
X91199000Y-73030000D01*
G75*
G02*
X91250000Y-72979000I51000J0D01*
G01*
X94750000Y-72979000D01*
G75*
G02*
X94801000Y-73030000I0J-51000D01*
G01*
X94801000Y-74730000D01*
G75*
G02*
X94750000Y-74781000I-51000J0D01*
G01*
X91250000Y-74781000D01*
G75*
G02*
X91199000Y-74730000I0J51000D01*
G01*
G37*
G36*
G01*
X91199000Y-105210000D02*
X91199000Y-103510000D01*
G75*
G02*
X91250000Y-103459000I51000J0D01*
G01*
X94750000Y-103459000D01*
G75*
G02*
X94801000Y-103510000I0J-51000D01*
G01*
X94801000Y-105210000D01*
G75*
G02*
X94750000Y-105261000I-51000J0D01*
G01*
X91250000Y-105261000D01*
G75*
G02*
X91199000Y-105210000I0J51000D01*
G01*
G37*
D13*
X94700000Y-106900000D03*
D12*
X94700000Y-104360000D03*
G36*
G01*
X93799000Y-102670000D02*
X93799000Y-100970000D01*
G75*
G02*
X93850000Y-100919000I51000J0D01*
G01*
X95550000Y-100919000D01*
G75*
G02*
X95601000Y-100970000I0J-51000D01*
G01*
X95601000Y-102670000D01*
G75*
G02*
X95550000Y-102721000I-51000J0D01*
G01*
X93850000Y-102721000D01*
G75*
G02*
X93799000Y-102670000I0J51000D01*
G01*
G37*
X94700000Y-99280000D03*
X94700000Y-96740000D03*
X94700000Y-94200000D03*
X94700000Y-91660000D03*
G36*
G01*
X93799000Y-89970000D02*
X93799000Y-88270000D01*
G75*
G02*
X93850000Y-88219000I51000J0D01*
G01*
X95550000Y-88219000D01*
G75*
G02*
X95601000Y-88270000I0J-51000D01*
G01*
X95601000Y-89970000D01*
G75*
G02*
X95550000Y-90021000I-51000J0D01*
G01*
X93850000Y-90021000D01*
G75*
G02*
X93799000Y-89970000I0J51000D01*
G01*
G37*
X94700000Y-86580000D03*
X94700000Y-84040000D03*
X94700000Y-81500000D03*
X94700000Y-78960000D03*
G36*
G01*
X93799000Y-77270000D02*
X93799000Y-75570000D01*
G75*
G02*
X93850000Y-75519000I51000J0D01*
G01*
X95550000Y-75519000D01*
G75*
G02*
X95601000Y-75570000I0J-51000D01*
G01*
X95601000Y-77270000D01*
G75*
G02*
X95550000Y-77321000I-51000J0D01*
G01*
X93850000Y-77321000D01*
G75*
G02*
X93799000Y-77270000I0J51000D01*
G01*
G37*
X94700000Y-73880000D03*
X94700000Y-71340000D03*
X94700000Y-68800000D03*
X94700000Y-66260000D03*
G36*
G01*
X93799000Y-64570000D02*
X93799000Y-62870000D01*
G75*
G02*
X93850000Y-62819000I51000J0D01*
G01*
X95550000Y-62819000D01*
G75*
G02*
X95601000Y-62870000I0J-51000D01*
G01*
X95601000Y-64570000D01*
G75*
G02*
X95550000Y-64621000I-51000J0D01*
G01*
X93850000Y-64621000D01*
G75*
G02*
X93799000Y-64570000I0J51000D01*
G01*
G37*
X94700000Y-61180000D03*
X94700000Y-58640000D03*
D14*
X100760000Y-63475000D03*
X106540000Y-63475000D03*
D15*
X107970000Y-64005000D03*
X99330000Y-64005000D03*
D16*
X107970000Y-59825000D03*
X99330000Y-59825000D03*
M02*
