G04 #@! TF.GenerationSoftware,KiCad,Pcbnew,(5.1.10)-1*
G04 #@! TF.CreationDate,2021-11-11T08:54:42+00:00*
G04 #@! TF.ProjectId,EnvOpenPico,456e764f-7065-46e5-9069-636f2e6b6963,REV1*
G04 #@! TF.SameCoordinates,Original*
G04 #@! TF.FileFunction,Paste,Top*
G04 #@! TF.FilePolarity,Positive*
%FSLAX46Y46*%
G04 Gerber Fmt 4.6, Leading zero omitted, Abs format (unit mm)*
G04 Created by KiCad (PCBNEW (5.1.10)-1) date 2021-11-11 08:54:42*
%MOMM*%
%LPD*%
G01*
G04 APERTURE LIST*
%ADD10R,0.600000X1.450000*%
%ADD11R,0.300000X1.450000*%
%ADD12R,0.650000X1.060000*%
%ADD13R,1.200000X0.900000*%
%ADD14R,1.400000X1.200000*%
G04 APERTURE END LIST*
G36*
G01*
X99837500Y-80950000D02*
X99662500Y-80950000D01*
G75*
G02*
X99575000Y-80862500I0J87500D01*
G01*
X99575000Y-80512500D01*
G75*
G02*
X99662500Y-80425000I87500J0D01*
G01*
X99837500Y-80425000D01*
G75*
G02*
X99925000Y-80512500I0J-87500D01*
G01*
X99925000Y-80862500D01*
G75*
G02*
X99837500Y-80950000I-87500J0D01*
G01*
G37*
G36*
G01*
X100337500Y-80950000D02*
X100162500Y-80950000D01*
G75*
G02*
X100075000Y-80862500I0J87500D01*
G01*
X100075000Y-80512500D01*
G75*
G02*
X100162500Y-80425000I87500J0D01*
G01*
X100337500Y-80425000D01*
G75*
G02*
X100425000Y-80512500I0J-87500D01*
G01*
X100425000Y-80862500D01*
G75*
G02*
X100337500Y-80950000I-87500J0D01*
G01*
G37*
G36*
G01*
X100837500Y-80950000D02*
X100662500Y-80950000D01*
G75*
G02*
X100575000Y-80862500I0J87500D01*
G01*
X100575000Y-80512500D01*
G75*
G02*
X100662500Y-80425000I87500J0D01*
G01*
X100837500Y-80425000D01*
G75*
G02*
X100925000Y-80512500I0J-87500D01*
G01*
X100925000Y-80862500D01*
G75*
G02*
X100837500Y-80950000I-87500J0D01*
G01*
G37*
G36*
G01*
X101337500Y-80950000D02*
X101162500Y-80950000D01*
G75*
G02*
X101075000Y-80862500I0J87500D01*
G01*
X101075000Y-80512500D01*
G75*
G02*
X101162500Y-80425000I87500J0D01*
G01*
X101337500Y-80425000D01*
G75*
G02*
X101425000Y-80512500I0J-87500D01*
G01*
X101425000Y-80862500D01*
G75*
G02*
X101337500Y-80950000I-87500J0D01*
G01*
G37*
G36*
G01*
X101337500Y-78375000D02*
X101162500Y-78375000D01*
G75*
G02*
X101075000Y-78287500I0J87500D01*
G01*
X101075000Y-77937500D01*
G75*
G02*
X101162500Y-77850000I87500J0D01*
G01*
X101337500Y-77850000D01*
G75*
G02*
X101425000Y-77937500I0J-87500D01*
G01*
X101425000Y-78287500D01*
G75*
G02*
X101337500Y-78375000I-87500J0D01*
G01*
G37*
G36*
G01*
X100837500Y-78375000D02*
X100662500Y-78375000D01*
G75*
G02*
X100575000Y-78287500I0J87500D01*
G01*
X100575000Y-77937500D01*
G75*
G02*
X100662500Y-77850000I87500J0D01*
G01*
X100837500Y-77850000D01*
G75*
G02*
X100925000Y-77937500I0J-87500D01*
G01*
X100925000Y-78287500D01*
G75*
G02*
X100837500Y-78375000I-87500J0D01*
G01*
G37*
G36*
G01*
X100337500Y-78375000D02*
X100162500Y-78375000D01*
G75*
G02*
X100075000Y-78287500I0J87500D01*
G01*
X100075000Y-77937500D01*
G75*
G02*
X100162500Y-77850000I87500J0D01*
G01*
X100337500Y-77850000D01*
G75*
G02*
X100425000Y-77937500I0J-87500D01*
G01*
X100425000Y-78287500D01*
G75*
G02*
X100337500Y-78375000I-87500J0D01*
G01*
G37*
G36*
G01*
X99837500Y-78375000D02*
X99662500Y-78375000D01*
G75*
G02*
X99575000Y-78287500I0J87500D01*
G01*
X99575000Y-77937500D01*
G75*
G02*
X99662500Y-77850000I87500J0D01*
G01*
X99837500Y-77850000D01*
G75*
G02*
X99925000Y-77937500I0J-87500D01*
G01*
X99925000Y-78287500D01*
G75*
G02*
X99837500Y-78375000I-87500J0D01*
G01*
G37*
G36*
G01*
X108000000Y-97600000D02*
X106400000Y-97600000D01*
G75*
G02*
X106200000Y-97400000I0J200000D01*
G01*
X106200000Y-97000000D01*
G75*
G02*
X106400000Y-96800000I200000J0D01*
G01*
X108000000Y-96800000D01*
G75*
G02*
X108200000Y-97000000I0J-200000D01*
G01*
X108200000Y-97400000D01*
G75*
G02*
X108000000Y-97600000I-200000J0D01*
G01*
G37*
G36*
G01*
X108000000Y-93400000D02*
X106400000Y-93400000D01*
G75*
G02*
X106200000Y-93200000I0J200000D01*
G01*
X106200000Y-92800000D01*
G75*
G02*
X106400000Y-92600000I200000J0D01*
G01*
X108000000Y-92600000D01*
G75*
G02*
X108200000Y-92800000I0J-200000D01*
G01*
X108200000Y-93200000D01*
G75*
G02*
X108000000Y-93400000I-200000J0D01*
G01*
G37*
G36*
G01*
X98363000Y-64928000D02*
X97993000Y-64928000D01*
G75*
G02*
X97858000Y-64793000I0J135000D01*
G01*
X97858000Y-64523000D01*
G75*
G02*
X97993000Y-64388000I135000J0D01*
G01*
X98363000Y-64388000D01*
G75*
G02*
X98498000Y-64523000I0J-135000D01*
G01*
X98498000Y-64793000D01*
G75*
G02*
X98363000Y-64928000I-135000J0D01*
G01*
G37*
G36*
G01*
X98363000Y-65948000D02*
X97993000Y-65948000D01*
G75*
G02*
X97858000Y-65813000I0J135000D01*
G01*
X97858000Y-65543000D01*
G75*
G02*
X97993000Y-65408000I135000J0D01*
G01*
X98363000Y-65408000D01*
G75*
G02*
X98498000Y-65543000I0J-135000D01*
G01*
X98498000Y-65813000D01*
G75*
G02*
X98363000Y-65948000I-135000J0D01*
G01*
G37*
G36*
G01*
X99356250Y-67150000D02*
X98843750Y-67150000D01*
G75*
G02*
X98625000Y-66931250I0J218750D01*
G01*
X98625000Y-66493750D01*
G75*
G02*
X98843750Y-66275000I218750J0D01*
G01*
X99356250Y-66275000D01*
G75*
G02*
X99575000Y-66493750I0J-218750D01*
G01*
X99575000Y-66931250D01*
G75*
G02*
X99356250Y-67150000I-218750J0D01*
G01*
G37*
G36*
G01*
X99356250Y-68725000D02*
X98843750Y-68725000D01*
G75*
G02*
X98625000Y-68506250I0J218750D01*
G01*
X98625000Y-68068750D01*
G75*
G02*
X98843750Y-67850000I218750J0D01*
G01*
X99356250Y-67850000D01*
G75*
G02*
X99575000Y-68068750I0J-218750D01*
G01*
X99575000Y-68506250D01*
G75*
G02*
X99356250Y-68725000I-218750J0D01*
G01*
G37*
G36*
G01*
X100543750Y-67850000D02*
X101056250Y-67850000D01*
G75*
G02*
X101275000Y-68068750I0J-218750D01*
G01*
X101275000Y-68506250D01*
G75*
G02*
X101056250Y-68725000I-218750J0D01*
G01*
X100543750Y-68725000D01*
G75*
G02*
X100325000Y-68506250I0J218750D01*
G01*
X100325000Y-68068750D01*
G75*
G02*
X100543750Y-67850000I218750J0D01*
G01*
G37*
G36*
G01*
X100543750Y-66275000D02*
X101056250Y-66275000D01*
G75*
G02*
X101275000Y-66493750I0J-218750D01*
G01*
X101275000Y-66931250D01*
G75*
G02*
X101056250Y-67150000I-218750J0D01*
G01*
X100543750Y-67150000D01*
G75*
G02*
X100325000Y-66931250I0J218750D01*
G01*
X100325000Y-66493750D01*
G75*
G02*
X100543750Y-66275000I218750J0D01*
G01*
G37*
G36*
G01*
X100900000Y-75000000D02*
X99300000Y-75000000D01*
G75*
G02*
X99100000Y-74800000I0J200000D01*
G01*
X99100000Y-74400000D01*
G75*
G02*
X99300000Y-74200000I200000J0D01*
G01*
X100900000Y-74200000D01*
G75*
G02*
X101100000Y-74400000I0J-200000D01*
G01*
X101100000Y-74800000D01*
G75*
G02*
X100900000Y-75000000I-200000J0D01*
G01*
G37*
G36*
G01*
X100900000Y-70800000D02*
X99300000Y-70800000D01*
G75*
G02*
X99100000Y-70600000I0J200000D01*
G01*
X99100000Y-70200000D01*
G75*
G02*
X99300000Y-70000000I200000J0D01*
G01*
X100900000Y-70000000D01*
G75*
G02*
X101100000Y-70200000I0J-200000D01*
G01*
X101100000Y-70600000D01*
G75*
G02*
X100900000Y-70800000I-200000J0D01*
G01*
G37*
G36*
G01*
X105115000Y-78640000D02*
X105485000Y-78640000D01*
G75*
G02*
X105620000Y-78775000I0J-135000D01*
G01*
X105620000Y-79045000D01*
G75*
G02*
X105485000Y-79180000I-135000J0D01*
G01*
X105115000Y-79180000D01*
G75*
G02*
X104980000Y-79045000I0J135000D01*
G01*
X104980000Y-78775000D01*
G75*
G02*
X105115000Y-78640000I135000J0D01*
G01*
G37*
G36*
G01*
X105115000Y-77620000D02*
X105485000Y-77620000D01*
G75*
G02*
X105620000Y-77755000I0J-135000D01*
G01*
X105620000Y-78025000D01*
G75*
G02*
X105485000Y-78160000I-135000J0D01*
G01*
X105115000Y-78160000D01*
G75*
G02*
X104980000Y-78025000I0J135000D01*
G01*
X104980000Y-77755000D01*
G75*
G02*
X105115000Y-77620000I135000J0D01*
G01*
G37*
G36*
G01*
X104115000Y-78640000D02*
X104485000Y-78640000D01*
G75*
G02*
X104620000Y-78775000I0J-135000D01*
G01*
X104620000Y-79045000D01*
G75*
G02*
X104485000Y-79180000I-135000J0D01*
G01*
X104115000Y-79180000D01*
G75*
G02*
X103980000Y-79045000I0J135000D01*
G01*
X103980000Y-78775000D01*
G75*
G02*
X104115000Y-78640000I135000J0D01*
G01*
G37*
G36*
G01*
X104115000Y-77620000D02*
X104485000Y-77620000D01*
G75*
G02*
X104620000Y-77755000I0J-135000D01*
G01*
X104620000Y-78025000D01*
G75*
G02*
X104485000Y-78160000I-135000J0D01*
G01*
X104115000Y-78160000D01*
G75*
G02*
X103980000Y-78025000I0J135000D01*
G01*
X103980000Y-77755000D01*
G75*
G02*
X104115000Y-77620000I135000J0D01*
G01*
G37*
D10*
X100425000Y-64920000D03*
X106875000Y-64920000D03*
X101200000Y-64920000D03*
X106100000Y-64920000D03*
D11*
X105400000Y-64920000D03*
X101900000Y-64920000D03*
X104900000Y-64920000D03*
X102400000Y-64920000D03*
X104400000Y-64920000D03*
X102900000Y-64920000D03*
X103400000Y-64920000D03*
X103900000Y-64920000D03*
G36*
G01*
X103700000Y-93770000D02*
X103700000Y-93430000D01*
G75*
G02*
X103840000Y-93290000I140000J0D01*
G01*
X104120000Y-93290000D01*
G75*
G02*
X104260000Y-93430000I0J-140000D01*
G01*
X104260000Y-93770000D01*
G75*
G02*
X104120000Y-93910000I-140000J0D01*
G01*
X103840000Y-93910000D01*
G75*
G02*
X103700000Y-93770000I0J140000D01*
G01*
G37*
G36*
G01*
X102740000Y-93770000D02*
X102740000Y-93430000D01*
G75*
G02*
X102880000Y-93290000I140000J0D01*
G01*
X103160000Y-93290000D01*
G75*
G02*
X103300000Y-93430000I0J-140000D01*
G01*
X103300000Y-93770000D01*
G75*
G02*
X103160000Y-93910000I-140000J0D01*
G01*
X102880000Y-93910000D01*
G75*
G02*
X102740000Y-93770000I0J140000D01*
G01*
G37*
G36*
G01*
X104370000Y-95860000D02*
X104030000Y-95860000D01*
G75*
G02*
X103890000Y-95720000I0J140000D01*
G01*
X103890000Y-95440000D01*
G75*
G02*
X104030000Y-95300000I140000J0D01*
G01*
X104370000Y-95300000D01*
G75*
G02*
X104510000Y-95440000I0J-140000D01*
G01*
X104510000Y-95720000D01*
G75*
G02*
X104370000Y-95860000I-140000J0D01*
G01*
G37*
G36*
G01*
X104370000Y-94900000D02*
X104030000Y-94900000D01*
G75*
G02*
X103890000Y-94760000I0J140000D01*
G01*
X103890000Y-94480000D01*
G75*
G02*
X104030000Y-94340000I140000J0D01*
G01*
X104370000Y-94340000D01*
G75*
G02*
X104510000Y-94480000I0J-140000D01*
G01*
X104510000Y-94760000D01*
G75*
G02*
X104370000Y-94900000I-140000J0D01*
G01*
G37*
G36*
G01*
X106395000Y-70550000D02*
X106055000Y-70550000D01*
G75*
G02*
X105915000Y-70410000I0J140000D01*
G01*
X105915000Y-70130000D01*
G75*
G02*
X106055000Y-69990000I140000J0D01*
G01*
X106395000Y-69990000D01*
G75*
G02*
X106535000Y-70130000I0J-140000D01*
G01*
X106535000Y-70410000D01*
G75*
G02*
X106395000Y-70550000I-140000J0D01*
G01*
G37*
G36*
G01*
X106395000Y-71510000D02*
X106055000Y-71510000D01*
G75*
G02*
X105915000Y-71370000I0J140000D01*
G01*
X105915000Y-71090000D01*
G75*
G02*
X106055000Y-70950000I140000J0D01*
G01*
X106395000Y-70950000D01*
G75*
G02*
X106535000Y-71090000I0J-140000D01*
G01*
X106535000Y-71370000D01*
G75*
G02*
X106395000Y-71510000I-140000J0D01*
G01*
G37*
D12*
X109550000Y-71200000D03*
X107650000Y-71200000D03*
X107650000Y-69000000D03*
X108600000Y-69000000D03*
X109550000Y-69000000D03*
G36*
G01*
X98770000Y-81660000D02*
X98430000Y-81660000D01*
G75*
G02*
X98290000Y-81520000I0J140000D01*
G01*
X98290000Y-81240000D01*
G75*
G02*
X98430000Y-81100000I140000J0D01*
G01*
X98770000Y-81100000D01*
G75*
G02*
X98910000Y-81240000I0J-140000D01*
G01*
X98910000Y-81520000D01*
G75*
G02*
X98770000Y-81660000I-140000J0D01*
G01*
G37*
G36*
G01*
X98770000Y-80700000D02*
X98430000Y-80700000D01*
G75*
G02*
X98290000Y-80560000I0J140000D01*
G01*
X98290000Y-80280000D01*
G75*
G02*
X98430000Y-80140000I140000J0D01*
G01*
X98770000Y-80140000D01*
G75*
G02*
X98910000Y-80280000I0J-140000D01*
G01*
X98910000Y-80560000D01*
G75*
G02*
X98770000Y-80700000I-140000J0D01*
G01*
G37*
D13*
X110000000Y-62150000D03*
X110000000Y-58850000D03*
D14*
X100400000Y-96650000D03*
X102600000Y-96650000D03*
X102600000Y-94950000D03*
X100400000Y-94950000D03*
G36*
G01*
X100240000Y-93770000D02*
X100240000Y-93430000D01*
G75*
G02*
X100380000Y-93290000I140000J0D01*
G01*
X100660000Y-93290000D01*
G75*
G02*
X100800000Y-93430000I0J-140000D01*
G01*
X100800000Y-93770000D01*
G75*
G02*
X100660000Y-93910000I-140000J0D01*
G01*
X100380000Y-93910000D01*
G75*
G02*
X100240000Y-93770000I0J140000D01*
G01*
G37*
G36*
G01*
X101200000Y-93770000D02*
X101200000Y-93430000D01*
G75*
G02*
X101340000Y-93290000I140000J0D01*
G01*
X101620000Y-93290000D01*
G75*
G02*
X101760000Y-93430000I0J-140000D01*
G01*
X101760000Y-93770000D01*
G75*
G02*
X101620000Y-93910000I-140000J0D01*
G01*
X101340000Y-93910000D01*
G75*
G02*
X101200000Y-93770000I0J140000D01*
G01*
G37*
G36*
G01*
X102285000Y-68280000D02*
X101915000Y-68280000D01*
G75*
G02*
X101780000Y-68145000I0J135000D01*
G01*
X101780000Y-67875000D01*
G75*
G02*
X101915000Y-67740000I135000J0D01*
G01*
X102285000Y-67740000D01*
G75*
G02*
X102420000Y-67875000I0J-135000D01*
G01*
X102420000Y-68145000D01*
G75*
G02*
X102285000Y-68280000I-135000J0D01*
G01*
G37*
G36*
G01*
X102285000Y-67260000D02*
X101915000Y-67260000D01*
G75*
G02*
X101780000Y-67125000I0J135000D01*
G01*
X101780000Y-66855000D01*
G75*
G02*
X101915000Y-66720000I135000J0D01*
G01*
X102285000Y-66720000D01*
G75*
G02*
X102420000Y-66855000I0J-135000D01*
G01*
X102420000Y-67125000D01*
G75*
G02*
X102285000Y-67260000I-135000J0D01*
G01*
G37*
G36*
G01*
X108740000Y-77870000D02*
X108740000Y-77530000D01*
G75*
G02*
X108880000Y-77390000I140000J0D01*
G01*
X109160000Y-77390000D01*
G75*
G02*
X109300000Y-77530000I0J-140000D01*
G01*
X109300000Y-77870000D01*
G75*
G02*
X109160000Y-78010000I-140000J0D01*
G01*
X108880000Y-78010000D01*
G75*
G02*
X108740000Y-77870000I0J140000D01*
G01*
G37*
G36*
G01*
X109700000Y-77870000D02*
X109700000Y-77530000D01*
G75*
G02*
X109840000Y-77390000I140000J0D01*
G01*
X110120000Y-77390000D01*
G75*
G02*
X110260000Y-77530000I0J-140000D01*
G01*
X110260000Y-77870000D01*
G75*
G02*
X110120000Y-78010000I-140000J0D01*
G01*
X109840000Y-78010000D01*
G75*
G02*
X109700000Y-77870000I0J140000D01*
G01*
G37*
G36*
G01*
X108740000Y-80170000D02*
X108740000Y-79830000D01*
G75*
G02*
X108880000Y-79690000I140000J0D01*
G01*
X109160000Y-79690000D01*
G75*
G02*
X109300000Y-79830000I0J-140000D01*
G01*
X109300000Y-80170000D01*
G75*
G02*
X109160000Y-80310000I-140000J0D01*
G01*
X108880000Y-80310000D01*
G75*
G02*
X108740000Y-80170000I0J140000D01*
G01*
G37*
G36*
G01*
X109700000Y-80170000D02*
X109700000Y-79830000D01*
G75*
G02*
X109840000Y-79690000I140000J0D01*
G01*
X110120000Y-79690000D01*
G75*
G02*
X110260000Y-79830000I0J-140000D01*
G01*
X110260000Y-80170000D01*
G75*
G02*
X110120000Y-80310000I-140000J0D01*
G01*
X109840000Y-80310000D01*
G75*
G02*
X109700000Y-80170000I0J140000D01*
G01*
G37*
G36*
G01*
X108840000Y-72770000D02*
X108840000Y-72430000D01*
G75*
G02*
X108980000Y-72290000I140000J0D01*
G01*
X109260000Y-72290000D01*
G75*
G02*
X109400000Y-72430000I0J-140000D01*
G01*
X109400000Y-72770000D01*
G75*
G02*
X109260000Y-72910000I-140000J0D01*
G01*
X108980000Y-72910000D01*
G75*
G02*
X108840000Y-72770000I0J140000D01*
G01*
G37*
G36*
G01*
X109800000Y-72770000D02*
X109800000Y-72430000D01*
G75*
G02*
X109940000Y-72290000I140000J0D01*
G01*
X110220000Y-72290000D01*
G75*
G02*
X110360000Y-72430000I0J-140000D01*
G01*
X110360000Y-72770000D01*
G75*
G02*
X110220000Y-72910000I-140000J0D01*
G01*
X109940000Y-72910000D01*
G75*
G02*
X109800000Y-72770000I0J140000D01*
G01*
G37*
G36*
G01*
X109425000Y-67150000D02*
X109425000Y-67650000D01*
G75*
G02*
X109200000Y-67875000I-225000J0D01*
G01*
X108750000Y-67875000D01*
G75*
G02*
X108525000Y-67650000I0J225000D01*
G01*
X108525000Y-67150000D01*
G75*
G02*
X108750000Y-66925000I225000J0D01*
G01*
X109200000Y-66925000D01*
G75*
G02*
X109425000Y-67150000I0J-225000D01*
G01*
G37*
G36*
G01*
X107875000Y-67150000D02*
X107875000Y-67650000D01*
G75*
G02*
X107650000Y-67875000I-225000J0D01*
G01*
X107200000Y-67875000D01*
G75*
G02*
X106975000Y-67650000I0J225000D01*
G01*
X106975000Y-67150000D01*
G75*
G02*
X107200000Y-66925000I225000J0D01*
G01*
X107650000Y-66925000D01*
G75*
G02*
X107875000Y-67150000I0J-225000D01*
G01*
G37*
G36*
G01*
X106415000Y-77520000D02*
X106785000Y-77520000D01*
G75*
G02*
X106920000Y-77655000I0J-135000D01*
G01*
X106920000Y-77925000D01*
G75*
G02*
X106785000Y-78060000I-135000J0D01*
G01*
X106415000Y-78060000D01*
G75*
G02*
X106280000Y-77925000I0J135000D01*
G01*
X106280000Y-77655000D01*
G75*
G02*
X106415000Y-77520000I135000J0D01*
G01*
G37*
G36*
G01*
X106415000Y-78540000D02*
X106785000Y-78540000D01*
G75*
G02*
X106920000Y-78675000I0J-135000D01*
G01*
X106920000Y-78945000D01*
G75*
G02*
X106785000Y-79080000I-135000J0D01*
G01*
X106415000Y-79080000D01*
G75*
G02*
X106280000Y-78945000I0J135000D01*
G01*
X106280000Y-78675000D01*
G75*
G02*
X106415000Y-78540000I135000J0D01*
G01*
G37*
G36*
G01*
X106225000Y-74075000D02*
X106775000Y-74075000D01*
G75*
G02*
X106975000Y-74275000I0J-200000D01*
G01*
X106975000Y-74675000D01*
G75*
G02*
X106775000Y-74875000I-200000J0D01*
G01*
X106225000Y-74875000D01*
G75*
G02*
X106025000Y-74675000I0J200000D01*
G01*
X106025000Y-74275000D01*
G75*
G02*
X106225000Y-74075000I200000J0D01*
G01*
G37*
G36*
G01*
X106225000Y-75725000D02*
X106775000Y-75725000D01*
G75*
G02*
X106975000Y-75925000I0J-200000D01*
G01*
X106975000Y-76325000D01*
G75*
G02*
X106775000Y-76525000I-200000J0D01*
G01*
X106225000Y-76525000D01*
G75*
G02*
X106025000Y-76325000I0J200000D01*
G01*
X106025000Y-75925000D01*
G75*
G02*
X106225000Y-75725000I200000J0D01*
G01*
G37*
G36*
G01*
X98670000Y-78300000D02*
X98330000Y-78300000D01*
G75*
G02*
X98190000Y-78160000I0J140000D01*
G01*
X98190000Y-77880000D01*
G75*
G02*
X98330000Y-77740000I140000J0D01*
G01*
X98670000Y-77740000D01*
G75*
G02*
X98810000Y-77880000I0J-140000D01*
G01*
X98810000Y-78160000D01*
G75*
G02*
X98670000Y-78300000I-140000J0D01*
G01*
G37*
G36*
G01*
X98670000Y-79260000D02*
X98330000Y-79260000D01*
G75*
G02*
X98190000Y-79120000I0J140000D01*
G01*
X98190000Y-78840000D01*
G75*
G02*
X98330000Y-78700000I140000J0D01*
G01*
X98670000Y-78700000D01*
G75*
G02*
X98810000Y-78840000I0J-140000D01*
G01*
X98810000Y-79120000D01*
G75*
G02*
X98670000Y-79260000I-140000J0D01*
G01*
G37*
G36*
G01*
X99870000Y-77360000D02*
X99530000Y-77360000D01*
G75*
G02*
X99390000Y-77220000I0J140000D01*
G01*
X99390000Y-76940000D01*
G75*
G02*
X99530000Y-76800000I140000J0D01*
G01*
X99870000Y-76800000D01*
G75*
G02*
X100010000Y-76940000I0J-140000D01*
G01*
X100010000Y-77220000D01*
G75*
G02*
X99870000Y-77360000I-140000J0D01*
G01*
G37*
G36*
G01*
X99870000Y-76400000D02*
X99530000Y-76400000D01*
G75*
G02*
X99390000Y-76260000I0J140000D01*
G01*
X99390000Y-75980000D01*
G75*
G02*
X99530000Y-75840000I140000J0D01*
G01*
X99870000Y-75840000D01*
G75*
G02*
X100010000Y-75980000I0J-140000D01*
G01*
X100010000Y-76260000D01*
G75*
G02*
X99870000Y-76400000I-140000J0D01*
G01*
G37*
G36*
G01*
X106385000Y-68780000D02*
X106015000Y-68780000D01*
G75*
G02*
X105880000Y-68645000I0J135000D01*
G01*
X105880000Y-68375000D01*
G75*
G02*
X106015000Y-68240000I135000J0D01*
G01*
X106385000Y-68240000D01*
G75*
G02*
X106520000Y-68375000I0J-135000D01*
G01*
X106520000Y-68645000D01*
G75*
G02*
X106385000Y-68780000I-135000J0D01*
G01*
G37*
G36*
G01*
X106385000Y-67760000D02*
X106015000Y-67760000D01*
G75*
G02*
X105880000Y-67625000I0J135000D01*
G01*
X105880000Y-67355000D01*
G75*
G02*
X106015000Y-67220000I135000J0D01*
G01*
X106385000Y-67220000D01*
G75*
G02*
X106520000Y-67355000I0J-135000D01*
G01*
X106520000Y-67625000D01*
G75*
G02*
X106385000Y-67760000I-135000J0D01*
G01*
G37*
G36*
G01*
X104370000Y-80100000D02*
X104030000Y-80100000D01*
G75*
G02*
X103890000Y-79960000I0J140000D01*
G01*
X103890000Y-79680000D01*
G75*
G02*
X104030000Y-79540000I140000J0D01*
G01*
X104370000Y-79540000D01*
G75*
G02*
X104510000Y-79680000I0J-140000D01*
G01*
X104510000Y-79960000D01*
G75*
G02*
X104370000Y-80100000I-140000J0D01*
G01*
G37*
G36*
G01*
X104370000Y-81060000D02*
X104030000Y-81060000D01*
G75*
G02*
X103890000Y-80920000I0J140000D01*
G01*
X103890000Y-80640000D01*
G75*
G02*
X104030000Y-80500000I140000J0D01*
G01*
X104370000Y-80500000D01*
G75*
G02*
X104510000Y-80640000I0J-140000D01*
G01*
X104510000Y-80920000D01*
G75*
G02*
X104370000Y-81060000I-140000J0D01*
G01*
G37*
G36*
G01*
X105870000Y-81660000D02*
X105530000Y-81660000D01*
G75*
G02*
X105390000Y-81520000I0J140000D01*
G01*
X105390000Y-81240000D01*
G75*
G02*
X105530000Y-81100000I140000J0D01*
G01*
X105870000Y-81100000D01*
G75*
G02*
X106010000Y-81240000I0J-140000D01*
G01*
X106010000Y-81520000D01*
G75*
G02*
X105870000Y-81660000I-140000J0D01*
G01*
G37*
G36*
G01*
X105870000Y-80700000D02*
X105530000Y-80700000D01*
G75*
G02*
X105390000Y-80560000I0J140000D01*
G01*
X105390000Y-80280000D01*
G75*
G02*
X105530000Y-80140000I140000J0D01*
G01*
X105870000Y-80140000D01*
G75*
G02*
X106010000Y-80280000I0J-140000D01*
G01*
X106010000Y-80560000D01*
G75*
G02*
X105870000Y-80700000I-140000J0D01*
G01*
G37*
G36*
G01*
X103420000Y-81060000D02*
X103080000Y-81060000D01*
G75*
G02*
X102940000Y-80920000I0J140000D01*
G01*
X102940000Y-80640000D01*
G75*
G02*
X103080000Y-80500000I140000J0D01*
G01*
X103420000Y-80500000D01*
G75*
G02*
X103560000Y-80640000I0J-140000D01*
G01*
X103560000Y-80920000D01*
G75*
G02*
X103420000Y-81060000I-140000J0D01*
G01*
G37*
G36*
G01*
X103420000Y-80100000D02*
X103080000Y-80100000D01*
G75*
G02*
X102940000Y-79960000I0J140000D01*
G01*
X102940000Y-79680000D01*
G75*
G02*
X103080000Y-79540000I140000J0D01*
G01*
X103420000Y-79540000D01*
G75*
G02*
X103560000Y-79680000I0J-140000D01*
G01*
X103560000Y-79960000D01*
G75*
G02*
X103420000Y-80100000I-140000J0D01*
G01*
G37*
G36*
G01*
X105285000Y-68280000D02*
X104915000Y-68280000D01*
G75*
G02*
X104780000Y-68145000I0J135000D01*
G01*
X104780000Y-67875000D01*
G75*
G02*
X104915000Y-67740000I135000J0D01*
G01*
X105285000Y-67740000D01*
G75*
G02*
X105420000Y-67875000I0J-135000D01*
G01*
X105420000Y-68145000D01*
G75*
G02*
X105285000Y-68280000I-135000J0D01*
G01*
G37*
G36*
G01*
X105285000Y-67260000D02*
X104915000Y-67260000D01*
G75*
G02*
X104780000Y-67125000I0J135000D01*
G01*
X104780000Y-66855000D01*
G75*
G02*
X104915000Y-66720000I135000J0D01*
G01*
X105285000Y-66720000D01*
G75*
G02*
X105420000Y-66855000I0J-135000D01*
G01*
X105420000Y-67125000D01*
G75*
G02*
X105285000Y-67260000I-135000J0D01*
G01*
G37*
G36*
G01*
X98560000Y-87530000D02*
X98560000Y-87870000D01*
G75*
G02*
X98420000Y-88010000I-140000J0D01*
G01*
X98140000Y-88010000D01*
G75*
G02*
X98000000Y-87870000I0J140000D01*
G01*
X98000000Y-87530000D01*
G75*
G02*
X98140000Y-87390000I140000J0D01*
G01*
X98420000Y-87390000D01*
G75*
G02*
X98560000Y-87530000I0J-140000D01*
G01*
G37*
G36*
G01*
X97600000Y-87530000D02*
X97600000Y-87870000D01*
G75*
G02*
X97460000Y-88010000I-140000J0D01*
G01*
X97180000Y-88010000D01*
G75*
G02*
X97040000Y-87870000I0J140000D01*
G01*
X97040000Y-87530000D01*
G75*
G02*
X97180000Y-87390000I140000J0D01*
G01*
X97460000Y-87390000D01*
G75*
G02*
X97600000Y-87530000I0J-140000D01*
G01*
G37*
G36*
G01*
X106870000Y-81660000D02*
X106530000Y-81660000D01*
G75*
G02*
X106390000Y-81520000I0J140000D01*
G01*
X106390000Y-81240000D01*
G75*
G02*
X106530000Y-81100000I140000J0D01*
G01*
X106870000Y-81100000D01*
G75*
G02*
X107010000Y-81240000I0J-140000D01*
G01*
X107010000Y-81520000D01*
G75*
G02*
X106870000Y-81660000I-140000J0D01*
G01*
G37*
G36*
G01*
X106870000Y-80700000D02*
X106530000Y-80700000D01*
G75*
G02*
X106390000Y-80560000I0J140000D01*
G01*
X106390000Y-80280000D01*
G75*
G02*
X106530000Y-80140000I140000J0D01*
G01*
X106870000Y-80140000D01*
G75*
G02*
X107010000Y-80280000I0J-140000D01*
G01*
X107010000Y-80560000D01*
G75*
G02*
X106870000Y-80700000I-140000J0D01*
G01*
G37*
G36*
G01*
X103730000Y-91340000D02*
X104070000Y-91340000D01*
G75*
G02*
X104210000Y-91480000I0J-140000D01*
G01*
X104210000Y-91760000D01*
G75*
G02*
X104070000Y-91900000I-140000J0D01*
G01*
X103730000Y-91900000D01*
G75*
G02*
X103590000Y-91760000I0J140000D01*
G01*
X103590000Y-91480000D01*
G75*
G02*
X103730000Y-91340000I140000J0D01*
G01*
G37*
G36*
G01*
X103730000Y-92300000D02*
X104070000Y-92300000D01*
G75*
G02*
X104210000Y-92440000I0J-140000D01*
G01*
X104210000Y-92720000D01*
G75*
G02*
X104070000Y-92860000I-140000J0D01*
G01*
X103730000Y-92860000D01*
G75*
G02*
X103590000Y-92720000I0J140000D01*
G01*
X103590000Y-92440000D01*
G75*
G02*
X103730000Y-92300000I140000J0D01*
G01*
G37*
G36*
G01*
X109840000Y-87470000D02*
X109840000Y-87130000D01*
G75*
G02*
X109980000Y-86990000I140000J0D01*
G01*
X110260000Y-86990000D01*
G75*
G02*
X110400000Y-87130000I0J-140000D01*
G01*
X110400000Y-87470000D01*
G75*
G02*
X110260000Y-87610000I-140000J0D01*
G01*
X109980000Y-87610000D01*
G75*
G02*
X109840000Y-87470000I0J140000D01*
G01*
G37*
G36*
G01*
X110800000Y-87470000D02*
X110800000Y-87130000D01*
G75*
G02*
X110940000Y-86990000I140000J0D01*
G01*
X111220000Y-86990000D01*
G75*
G02*
X111360000Y-87130000I0J-140000D01*
G01*
X111360000Y-87470000D01*
G75*
G02*
X111220000Y-87610000I-140000J0D01*
G01*
X110940000Y-87610000D01*
G75*
G02*
X110800000Y-87470000I0J140000D01*
G01*
G37*
G36*
G01*
X98770000Y-77360000D02*
X98430000Y-77360000D01*
G75*
G02*
X98290000Y-77220000I0J140000D01*
G01*
X98290000Y-76940000D01*
G75*
G02*
X98430000Y-76800000I140000J0D01*
G01*
X98770000Y-76800000D01*
G75*
G02*
X98910000Y-76940000I0J-140000D01*
G01*
X98910000Y-77220000D01*
G75*
G02*
X98770000Y-77360000I-140000J0D01*
G01*
G37*
G36*
G01*
X98770000Y-76400000D02*
X98430000Y-76400000D01*
G75*
G02*
X98290000Y-76260000I0J140000D01*
G01*
X98290000Y-75980000D01*
G75*
G02*
X98430000Y-75840000I140000J0D01*
G01*
X98770000Y-75840000D01*
G75*
G02*
X98910000Y-75980000I0J-140000D01*
G01*
X98910000Y-76260000D01*
G75*
G02*
X98770000Y-76400000I-140000J0D01*
G01*
G37*
G36*
G01*
X99360000Y-82430000D02*
X99360000Y-82770000D01*
G75*
G02*
X99220000Y-82910000I-140000J0D01*
G01*
X98940000Y-82910000D01*
G75*
G02*
X98800000Y-82770000I0J140000D01*
G01*
X98800000Y-82430000D01*
G75*
G02*
X98940000Y-82290000I140000J0D01*
G01*
X99220000Y-82290000D01*
G75*
G02*
X99360000Y-82430000I0J-140000D01*
G01*
G37*
G36*
G01*
X98400000Y-82430000D02*
X98400000Y-82770000D01*
G75*
G02*
X98260000Y-82910000I-140000J0D01*
G01*
X97980000Y-82910000D01*
G75*
G02*
X97840000Y-82770000I0J140000D01*
G01*
X97840000Y-82430000D01*
G75*
G02*
X97980000Y-82290000I140000J0D01*
G01*
X98260000Y-82290000D01*
G75*
G02*
X98400000Y-82430000I0J-140000D01*
G01*
G37*
G36*
G01*
X104830000Y-91340000D02*
X105170000Y-91340000D01*
G75*
G02*
X105310000Y-91480000I0J-140000D01*
G01*
X105310000Y-91760000D01*
G75*
G02*
X105170000Y-91900000I-140000J0D01*
G01*
X104830000Y-91900000D01*
G75*
G02*
X104690000Y-91760000I0J140000D01*
G01*
X104690000Y-91480000D01*
G75*
G02*
X104830000Y-91340000I140000J0D01*
G01*
G37*
G36*
G01*
X104830000Y-92300000D02*
X105170000Y-92300000D01*
G75*
G02*
X105310000Y-92440000I0J-140000D01*
G01*
X105310000Y-92720000D01*
G75*
G02*
X105170000Y-92860000I-140000J0D01*
G01*
X104830000Y-92860000D01*
G75*
G02*
X104690000Y-92720000I0J140000D01*
G01*
X104690000Y-92440000D01*
G75*
G02*
X104830000Y-92300000I140000J0D01*
G01*
G37*
G36*
G01*
X109680000Y-85215000D02*
X109680000Y-85585000D01*
G75*
G02*
X109545000Y-85720000I-135000J0D01*
G01*
X109275000Y-85720000D01*
G75*
G02*
X109140000Y-85585000I0J135000D01*
G01*
X109140000Y-85215000D01*
G75*
G02*
X109275000Y-85080000I135000J0D01*
G01*
X109545000Y-85080000D01*
G75*
G02*
X109680000Y-85215000I0J-135000D01*
G01*
G37*
G36*
G01*
X108660000Y-85215000D02*
X108660000Y-85585000D01*
G75*
G02*
X108525000Y-85720000I-135000J0D01*
G01*
X108255000Y-85720000D01*
G75*
G02*
X108120000Y-85585000I0J135000D01*
G01*
X108120000Y-85215000D01*
G75*
G02*
X108255000Y-85080000I135000J0D01*
G01*
X108525000Y-85080000D01*
G75*
G02*
X108660000Y-85215000I0J-135000D01*
G01*
G37*
G36*
G01*
X102470283Y-85679717D02*
X102470283Y-85095283D01*
G75*
G02*
X102720283Y-84845283I250000J0D01*
G01*
X103304717Y-84845283D01*
G75*
G02*
X103554717Y-85095283I0J-250000D01*
G01*
X103554717Y-85679717D01*
G75*
G02*
X103304717Y-85929717I-250000J0D01*
G01*
X102720283Y-85929717D01*
G75*
G02*
X102470283Y-85679717I0J250000D01*
G01*
G37*
G36*
G01*
X102470283Y-86954717D02*
X102470283Y-86370283D01*
G75*
G02*
X102720283Y-86120283I250000J0D01*
G01*
X103304717Y-86120283D01*
G75*
G02*
X103554717Y-86370283I0J-250000D01*
G01*
X103554717Y-86954717D01*
G75*
G02*
X103304717Y-87204717I-250000J0D01*
G01*
X102720283Y-87204717D01*
G75*
G02*
X102470283Y-86954717I0J250000D01*
G01*
G37*
G36*
G01*
X103745283Y-85679717D02*
X103745283Y-85095283D01*
G75*
G02*
X103995283Y-84845283I250000J0D01*
G01*
X104579717Y-84845283D01*
G75*
G02*
X104829717Y-85095283I0J-250000D01*
G01*
X104829717Y-85679717D01*
G75*
G02*
X104579717Y-85929717I-250000J0D01*
G01*
X103995283Y-85929717D01*
G75*
G02*
X103745283Y-85679717I0J250000D01*
G01*
G37*
G36*
G01*
X103745283Y-86954717D02*
X103745283Y-86370283D01*
G75*
G02*
X103995283Y-86120283I250000J0D01*
G01*
X104579717Y-86120283D01*
G75*
G02*
X104829717Y-86370283I0J-250000D01*
G01*
X104829717Y-86954717D01*
G75*
G02*
X104579717Y-87204717I-250000J0D01*
G01*
X103995283Y-87204717D01*
G75*
G02*
X103745283Y-86954717I0J250000D01*
G01*
G37*
G36*
G01*
X99775000Y-83475000D02*
X99775000Y-83375000D01*
G75*
G02*
X99825000Y-83325000I50000J0D01*
G01*
X100600000Y-83325000D01*
G75*
G02*
X100650000Y-83375000I0J-50000D01*
G01*
X100650000Y-83475000D01*
G75*
G02*
X100600000Y-83525000I-50000J0D01*
G01*
X99825000Y-83525000D01*
G75*
G02*
X99775000Y-83475000I0J50000D01*
G01*
G37*
G36*
G01*
X99775000Y-83875000D02*
X99775000Y-83775000D01*
G75*
G02*
X99825000Y-83725000I50000J0D01*
G01*
X100600000Y-83725000D01*
G75*
G02*
X100650000Y-83775000I0J-50000D01*
G01*
X100650000Y-83875000D01*
G75*
G02*
X100600000Y-83925000I-50000J0D01*
G01*
X99825000Y-83925000D01*
G75*
G02*
X99775000Y-83875000I0J50000D01*
G01*
G37*
G36*
G01*
X99775000Y-84275000D02*
X99775000Y-84175000D01*
G75*
G02*
X99825000Y-84125000I50000J0D01*
G01*
X100600000Y-84125000D01*
G75*
G02*
X100650000Y-84175000I0J-50000D01*
G01*
X100650000Y-84275000D01*
G75*
G02*
X100600000Y-84325000I-50000J0D01*
G01*
X99825000Y-84325000D01*
G75*
G02*
X99775000Y-84275000I0J50000D01*
G01*
G37*
G36*
G01*
X99775000Y-84675000D02*
X99775000Y-84575000D01*
G75*
G02*
X99825000Y-84525000I50000J0D01*
G01*
X100600000Y-84525000D01*
G75*
G02*
X100650000Y-84575000I0J-50000D01*
G01*
X100650000Y-84675000D01*
G75*
G02*
X100600000Y-84725000I-50000J0D01*
G01*
X99825000Y-84725000D01*
G75*
G02*
X99775000Y-84675000I0J50000D01*
G01*
G37*
G36*
G01*
X99775000Y-85075000D02*
X99775000Y-84975000D01*
G75*
G02*
X99825000Y-84925000I50000J0D01*
G01*
X100600000Y-84925000D01*
G75*
G02*
X100650000Y-84975000I0J-50000D01*
G01*
X100650000Y-85075000D01*
G75*
G02*
X100600000Y-85125000I-50000J0D01*
G01*
X99825000Y-85125000D01*
G75*
G02*
X99775000Y-85075000I0J50000D01*
G01*
G37*
G36*
G01*
X99775000Y-85475000D02*
X99775000Y-85375000D01*
G75*
G02*
X99825000Y-85325000I50000J0D01*
G01*
X100600000Y-85325000D01*
G75*
G02*
X100650000Y-85375000I0J-50000D01*
G01*
X100650000Y-85475000D01*
G75*
G02*
X100600000Y-85525000I-50000J0D01*
G01*
X99825000Y-85525000D01*
G75*
G02*
X99775000Y-85475000I0J50000D01*
G01*
G37*
G36*
G01*
X99775000Y-85875000D02*
X99775000Y-85775000D01*
G75*
G02*
X99825000Y-85725000I50000J0D01*
G01*
X100600000Y-85725000D01*
G75*
G02*
X100650000Y-85775000I0J-50000D01*
G01*
X100650000Y-85875000D01*
G75*
G02*
X100600000Y-85925000I-50000J0D01*
G01*
X99825000Y-85925000D01*
G75*
G02*
X99775000Y-85875000I0J50000D01*
G01*
G37*
G36*
G01*
X99775000Y-86275000D02*
X99775000Y-86175000D01*
G75*
G02*
X99825000Y-86125000I50000J0D01*
G01*
X100600000Y-86125000D01*
G75*
G02*
X100650000Y-86175000I0J-50000D01*
G01*
X100650000Y-86275000D01*
G75*
G02*
X100600000Y-86325000I-50000J0D01*
G01*
X99825000Y-86325000D01*
G75*
G02*
X99775000Y-86275000I0J50000D01*
G01*
G37*
G36*
G01*
X99775000Y-86675000D02*
X99775000Y-86575000D01*
G75*
G02*
X99825000Y-86525000I50000J0D01*
G01*
X100600000Y-86525000D01*
G75*
G02*
X100650000Y-86575000I0J-50000D01*
G01*
X100650000Y-86675000D01*
G75*
G02*
X100600000Y-86725000I-50000J0D01*
G01*
X99825000Y-86725000D01*
G75*
G02*
X99775000Y-86675000I0J50000D01*
G01*
G37*
G36*
G01*
X99775000Y-87075000D02*
X99775000Y-86975000D01*
G75*
G02*
X99825000Y-86925000I50000J0D01*
G01*
X100600000Y-86925000D01*
G75*
G02*
X100650000Y-86975000I0J-50000D01*
G01*
X100650000Y-87075000D01*
G75*
G02*
X100600000Y-87125000I-50000J0D01*
G01*
X99825000Y-87125000D01*
G75*
G02*
X99775000Y-87075000I0J50000D01*
G01*
G37*
G36*
G01*
X99775000Y-87475000D02*
X99775000Y-87375000D01*
G75*
G02*
X99825000Y-87325000I50000J0D01*
G01*
X100600000Y-87325000D01*
G75*
G02*
X100650000Y-87375000I0J-50000D01*
G01*
X100650000Y-87475000D01*
G75*
G02*
X100600000Y-87525000I-50000J0D01*
G01*
X99825000Y-87525000D01*
G75*
G02*
X99775000Y-87475000I0J50000D01*
G01*
G37*
G36*
G01*
X99775000Y-87875000D02*
X99775000Y-87775000D01*
G75*
G02*
X99825000Y-87725000I50000J0D01*
G01*
X100600000Y-87725000D01*
G75*
G02*
X100650000Y-87775000I0J-50000D01*
G01*
X100650000Y-87875000D01*
G75*
G02*
X100600000Y-87925000I-50000J0D01*
G01*
X99825000Y-87925000D01*
G75*
G02*
X99775000Y-87875000I0J50000D01*
G01*
G37*
G36*
G01*
X99775000Y-88275000D02*
X99775000Y-88175000D01*
G75*
G02*
X99825000Y-88125000I50000J0D01*
G01*
X100600000Y-88125000D01*
G75*
G02*
X100650000Y-88175000I0J-50000D01*
G01*
X100650000Y-88275000D01*
G75*
G02*
X100600000Y-88325000I-50000J0D01*
G01*
X99825000Y-88325000D01*
G75*
G02*
X99775000Y-88275000I0J50000D01*
G01*
G37*
G36*
G01*
X99775000Y-88675000D02*
X99775000Y-88575000D01*
G75*
G02*
X99825000Y-88525000I50000J0D01*
G01*
X100600000Y-88525000D01*
G75*
G02*
X100650000Y-88575000I0J-50000D01*
G01*
X100650000Y-88675000D01*
G75*
G02*
X100600000Y-88725000I-50000J0D01*
G01*
X99825000Y-88725000D01*
G75*
G02*
X99775000Y-88675000I0J50000D01*
G01*
G37*
G36*
G01*
X100950000Y-89850000D02*
X100950000Y-89075000D01*
G75*
G02*
X101000000Y-89025000I50000J0D01*
G01*
X101100000Y-89025000D01*
G75*
G02*
X101150000Y-89075000I0J-50000D01*
G01*
X101150000Y-89850000D01*
G75*
G02*
X101100000Y-89900000I-50000J0D01*
G01*
X101000000Y-89900000D01*
G75*
G02*
X100950000Y-89850000I0J50000D01*
G01*
G37*
G36*
G01*
X101350000Y-89850000D02*
X101350000Y-89075000D01*
G75*
G02*
X101400000Y-89025000I50000J0D01*
G01*
X101500000Y-89025000D01*
G75*
G02*
X101550000Y-89075000I0J-50000D01*
G01*
X101550000Y-89850000D01*
G75*
G02*
X101500000Y-89900000I-50000J0D01*
G01*
X101400000Y-89900000D01*
G75*
G02*
X101350000Y-89850000I0J50000D01*
G01*
G37*
G36*
G01*
X101750000Y-89850000D02*
X101750000Y-89075000D01*
G75*
G02*
X101800000Y-89025000I50000J0D01*
G01*
X101900000Y-89025000D01*
G75*
G02*
X101950000Y-89075000I0J-50000D01*
G01*
X101950000Y-89850000D01*
G75*
G02*
X101900000Y-89900000I-50000J0D01*
G01*
X101800000Y-89900000D01*
G75*
G02*
X101750000Y-89850000I0J50000D01*
G01*
G37*
G36*
G01*
X102150000Y-89850000D02*
X102150000Y-89075000D01*
G75*
G02*
X102200000Y-89025000I50000J0D01*
G01*
X102300000Y-89025000D01*
G75*
G02*
X102350000Y-89075000I0J-50000D01*
G01*
X102350000Y-89850000D01*
G75*
G02*
X102300000Y-89900000I-50000J0D01*
G01*
X102200000Y-89900000D01*
G75*
G02*
X102150000Y-89850000I0J50000D01*
G01*
G37*
G36*
G01*
X102550000Y-89850000D02*
X102550000Y-89075000D01*
G75*
G02*
X102600000Y-89025000I50000J0D01*
G01*
X102700000Y-89025000D01*
G75*
G02*
X102750000Y-89075000I0J-50000D01*
G01*
X102750000Y-89850000D01*
G75*
G02*
X102700000Y-89900000I-50000J0D01*
G01*
X102600000Y-89900000D01*
G75*
G02*
X102550000Y-89850000I0J50000D01*
G01*
G37*
G36*
G01*
X102950000Y-89850000D02*
X102950000Y-89075000D01*
G75*
G02*
X103000000Y-89025000I50000J0D01*
G01*
X103100000Y-89025000D01*
G75*
G02*
X103150000Y-89075000I0J-50000D01*
G01*
X103150000Y-89850000D01*
G75*
G02*
X103100000Y-89900000I-50000J0D01*
G01*
X103000000Y-89900000D01*
G75*
G02*
X102950000Y-89850000I0J50000D01*
G01*
G37*
G36*
G01*
X103350000Y-89850000D02*
X103350000Y-89075000D01*
G75*
G02*
X103400000Y-89025000I50000J0D01*
G01*
X103500000Y-89025000D01*
G75*
G02*
X103550000Y-89075000I0J-50000D01*
G01*
X103550000Y-89850000D01*
G75*
G02*
X103500000Y-89900000I-50000J0D01*
G01*
X103400000Y-89900000D01*
G75*
G02*
X103350000Y-89850000I0J50000D01*
G01*
G37*
G36*
G01*
X103750000Y-89850000D02*
X103750000Y-89075000D01*
G75*
G02*
X103800000Y-89025000I50000J0D01*
G01*
X103900000Y-89025000D01*
G75*
G02*
X103950000Y-89075000I0J-50000D01*
G01*
X103950000Y-89850000D01*
G75*
G02*
X103900000Y-89900000I-50000J0D01*
G01*
X103800000Y-89900000D01*
G75*
G02*
X103750000Y-89850000I0J50000D01*
G01*
G37*
G36*
G01*
X104150000Y-89850000D02*
X104150000Y-89075000D01*
G75*
G02*
X104200000Y-89025000I50000J0D01*
G01*
X104300000Y-89025000D01*
G75*
G02*
X104350000Y-89075000I0J-50000D01*
G01*
X104350000Y-89850000D01*
G75*
G02*
X104300000Y-89900000I-50000J0D01*
G01*
X104200000Y-89900000D01*
G75*
G02*
X104150000Y-89850000I0J50000D01*
G01*
G37*
G36*
G01*
X104550000Y-89850000D02*
X104550000Y-89075000D01*
G75*
G02*
X104600000Y-89025000I50000J0D01*
G01*
X104700000Y-89025000D01*
G75*
G02*
X104750000Y-89075000I0J-50000D01*
G01*
X104750000Y-89850000D01*
G75*
G02*
X104700000Y-89900000I-50000J0D01*
G01*
X104600000Y-89900000D01*
G75*
G02*
X104550000Y-89850000I0J50000D01*
G01*
G37*
G36*
G01*
X104950000Y-89850000D02*
X104950000Y-89075000D01*
G75*
G02*
X105000000Y-89025000I50000J0D01*
G01*
X105100000Y-89025000D01*
G75*
G02*
X105150000Y-89075000I0J-50000D01*
G01*
X105150000Y-89850000D01*
G75*
G02*
X105100000Y-89900000I-50000J0D01*
G01*
X105000000Y-89900000D01*
G75*
G02*
X104950000Y-89850000I0J50000D01*
G01*
G37*
G36*
G01*
X105350000Y-89850000D02*
X105350000Y-89075000D01*
G75*
G02*
X105400000Y-89025000I50000J0D01*
G01*
X105500000Y-89025000D01*
G75*
G02*
X105550000Y-89075000I0J-50000D01*
G01*
X105550000Y-89850000D01*
G75*
G02*
X105500000Y-89900000I-50000J0D01*
G01*
X105400000Y-89900000D01*
G75*
G02*
X105350000Y-89850000I0J50000D01*
G01*
G37*
G36*
G01*
X105750000Y-89850000D02*
X105750000Y-89075000D01*
G75*
G02*
X105800000Y-89025000I50000J0D01*
G01*
X105900000Y-89025000D01*
G75*
G02*
X105950000Y-89075000I0J-50000D01*
G01*
X105950000Y-89850000D01*
G75*
G02*
X105900000Y-89900000I-50000J0D01*
G01*
X105800000Y-89900000D01*
G75*
G02*
X105750000Y-89850000I0J50000D01*
G01*
G37*
G36*
G01*
X106150000Y-89850000D02*
X106150000Y-89075000D01*
G75*
G02*
X106200000Y-89025000I50000J0D01*
G01*
X106300000Y-89025000D01*
G75*
G02*
X106350000Y-89075000I0J-50000D01*
G01*
X106350000Y-89850000D01*
G75*
G02*
X106300000Y-89900000I-50000J0D01*
G01*
X106200000Y-89900000D01*
G75*
G02*
X106150000Y-89850000I0J50000D01*
G01*
G37*
G36*
G01*
X106650000Y-88675000D02*
X106650000Y-88575000D01*
G75*
G02*
X106700000Y-88525000I50000J0D01*
G01*
X107475000Y-88525000D01*
G75*
G02*
X107525000Y-88575000I0J-50000D01*
G01*
X107525000Y-88675000D01*
G75*
G02*
X107475000Y-88725000I-50000J0D01*
G01*
X106700000Y-88725000D01*
G75*
G02*
X106650000Y-88675000I0J50000D01*
G01*
G37*
G36*
G01*
X106650000Y-88275000D02*
X106650000Y-88175000D01*
G75*
G02*
X106700000Y-88125000I50000J0D01*
G01*
X107475000Y-88125000D01*
G75*
G02*
X107525000Y-88175000I0J-50000D01*
G01*
X107525000Y-88275000D01*
G75*
G02*
X107475000Y-88325000I-50000J0D01*
G01*
X106700000Y-88325000D01*
G75*
G02*
X106650000Y-88275000I0J50000D01*
G01*
G37*
G36*
G01*
X106650000Y-87875000D02*
X106650000Y-87775000D01*
G75*
G02*
X106700000Y-87725000I50000J0D01*
G01*
X107475000Y-87725000D01*
G75*
G02*
X107525000Y-87775000I0J-50000D01*
G01*
X107525000Y-87875000D01*
G75*
G02*
X107475000Y-87925000I-50000J0D01*
G01*
X106700000Y-87925000D01*
G75*
G02*
X106650000Y-87875000I0J50000D01*
G01*
G37*
G36*
G01*
X106650000Y-87475000D02*
X106650000Y-87375000D01*
G75*
G02*
X106700000Y-87325000I50000J0D01*
G01*
X107475000Y-87325000D01*
G75*
G02*
X107525000Y-87375000I0J-50000D01*
G01*
X107525000Y-87475000D01*
G75*
G02*
X107475000Y-87525000I-50000J0D01*
G01*
X106700000Y-87525000D01*
G75*
G02*
X106650000Y-87475000I0J50000D01*
G01*
G37*
G36*
G01*
X106650000Y-87075000D02*
X106650000Y-86975000D01*
G75*
G02*
X106700000Y-86925000I50000J0D01*
G01*
X107475000Y-86925000D01*
G75*
G02*
X107525000Y-86975000I0J-50000D01*
G01*
X107525000Y-87075000D01*
G75*
G02*
X107475000Y-87125000I-50000J0D01*
G01*
X106700000Y-87125000D01*
G75*
G02*
X106650000Y-87075000I0J50000D01*
G01*
G37*
G36*
G01*
X106650000Y-86675000D02*
X106650000Y-86575000D01*
G75*
G02*
X106700000Y-86525000I50000J0D01*
G01*
X107475000Y-86525000D01*
G75*
G02*
X107525000Y-86575000I0J-50000D01*
G01*
X107525000Y-86675000D01*
G75*
G02*
X107475000Y-86725000I-50000J0D01*
G01*
X106700000Y-86725000D01*
G75*
G02*
X106650000Y-86675000I0J50000D01*
G01*
G37*
G36*
G01*
X106650000Y-86275000D02*
X106650000Y-86175000D01*
G75*
G02*
X106700000Y-86125000I50000J0D01*
G01*
X107475000Y-86125000D01*
G75*
G02*
X107525000Y-86175000I0J-50000D01*
G01*
X107525000Y-86275000D01*
G75*
G02*
X107475000Y-86325000I-50000J0D01*
G01*
X106700000Y-86325000D01*
G75*
G02*
X106650000Y-86275000I0J50000D01*
G01*
G37*
G36*
G01*
X106650000Y-85875000D02*
X106650000Y-85775000D01*
G75*
G02*
X106700000Y-85725000I50000J0D01*
G01*
X107475000Y-85725000D01*
G75*
G02*
X107525000Y-85775000I0J-50000D01*
G01*
X107525000Y-85875000D01*
G75*
G02*
X107475000Y-85925000I-50000J0D01*
G01*
X106700000Y-85925000D01*
G75*
G02*
X106650000Y-85875000I0J50000D01*
G01*
G37*
G36*
G01*
X106650000Y-85475000D02*
X106650000Y-85375000D01*
G75*
G02*
X106700000Y-85325000I50000J0D01*
G01*
X107475000Y-85325000D01*
G75*
G02*
X107525000Y-85375000I0J-50000D01*
G01*
X107525000Y-85475000D01*
G75*
G02*
X107475000Y-85525000I-50000J0D01*
G01*
X106700000Y-85525000D01*
G75*
G02*
X106650000Y-85475000I0J50000D01*
G01*
G37*
G36*
G01*
X106650000Y-85075000D02*
X106650000Y-84975000D01*
G75*
G02*
X106700000Y-84925000I50000J0D01*
G01*
X107475000Y-84925000D01*
G75*
G02*
X107525000Y-84975000I0J-50000D01*
G01*
X107525000Y-85075000D01*
G75*
G02*
X107475000Y-85125000I-50000J0D01*
G01*
X106700000Y-85125000D01*
G75*
G02*
X106650000Y-85075000I0J50000D01*
G01*
G37*
G36*
G01*
X106650000Y-84675000D02*
X106650000Y-84575000D01*
G75*
G02*
X106700000Y-84525000I50000J0D01*
G01*
X107475000Y-84525000D01*
G75*
G02*
X107525000Y-84575000I0J-50000D01*
G01*
X107525000Y-84675000D01*
G75*
G02*
X107475000Y-84725000I-50000J0D01*
G01*
X106700000Y-84725000D01*
G75*
G02*
X106650000Y-84675000I0J50000D01*
G01*
G37*
G36*
G01*
X106650000Y-84275000D02*
X106650000Y-84175000D01*
G75*
G02*
X106700000Y-84125000I50000J0D01*
G01*
X107475000Y-84125000D01*
G75*
G02*
X107525000Y-84175000I0J-50000D01*
G01*
X107525000Y-84275000D01*
G75*
G02*
X107475000Y-84325000I-50000J0D01*
G01*
X106700000Y-84325000D01*
G75*
G02*
X106650000Y-84275000I0J50000D01*
G01*
G37*
G36*
G01*
X106650000Y-83875000D02*
X106650000Y-83775000D01*
G75*
G02*
X106700000Y-83725000I50000J0D01*
G01*
X107475000Y-83725000D01*
G75*
G02*
X107525000Y-83775000I0J-50000D01*
G01*
X107525000Y-83875000D01*
G75*
G02*
X107475000Y-83925000I-50000J0D01*
G01*
X106700000Y-83925000D01*
G75*
G02*
X106650000Y-83875000I0J50000D01*
G01*
G37*
G36*
G01*
X106650000Y-83475000D02*
X106650000Y-83375000D01*
G75*
G02*
X106700000Y-83325000I50000J0D01*
G01*
X107475000Y-83325000D01*
G75*
G02*
X107525000Y-83375000I0J-50000D01*
G01*
X107525000Y-83475000D01*
G75*
G02*
X107475000Y-83525000I-50000J0D01*
G01*
X106700000Y-83525000D01*
G75*
G02*
X106650000Y-83475000I0J50000D01*
G01*
G37*
G36*
G01*
X106150000Y-82975000D02*
X106150000Y-82200000D01*
G75*
G02*
X106200000Y-82150000I50000J0D01*
G01*
X106300000Y-82150000D01*
G75*
G02*
X106350000Y-82200000I0J-50000D01*
G01*
X106350000Y-82975000D01*
G75*
G02*
X106300000Y-83025000I-50000J0D01*
G01*
X106200000Y-83025000D01*
G75*
G02*
X106150000Y-82975000I0J50000D01*
G01*
G37*
G36*
G01*
X105750000Y-82975000D02*
X105750000Y-82200000D01*
G75*
G02*
X105800000Y-82150000I50000J0D01*
G01*
X105900000Y-82150000D01*
G75*
G02*
X105950000Y-82200000I0J-50000D01*
G01*
X105950000Y-82975000D01*
G75*
G02*
X105900000Y-83025000I-50000J0D01*
G01*
X105800000Y-83025000D01*
G75*
G02*
X105750000Y-82975000I0J50000D01*
G01*
G37*
G36*
G01*
X105350000Y-82975000D02*
X105350000Y-82200000D01*
G75*
G02*
X105400000Y-82150000I50000J0D01*
G01*
X105500000Y-82150000D01*
G75*
G02*
X105550000Y-82200000I0J-50000D01*
G01*
X105550000Y-82975000D01*
G75*
G02*
X105500000Y-83025000I-50000J0D01*
G01*
X105400000Y-83025000D01*
G75*
G02*
X105350000Y-82975000I0J50000D01*
G01*
G37*
G36*
G01*
X104950000Y-82975000D02*
X104950000Y-82200000D01*
G75*
G02*
X105000000Y-82150000I50000J0D01*
G01*
X105100000Y-82150000D01*
G75*
G02*
X105150000Y-82200000I0J-50000D01*
G01*
X105150000Y-82975000D01*
G75*
G02*
X105100000Y-83025000I-50000J0D01*
G01*
X105000000Y-83025000D01*
G75*
G02*
X104950000Y-82975000I0J50000D01*
G01*
G37*
G36*
G01*
X104550000Y-82975000D02*
X104550000Y-82200000D01*
G75*
G02*
X104600000Y-82150000I50000J0D01*
G01*
X104700000Y-82150000D01*
G75*
G02*
X104750000Y-82200000I0J-50000D01*
G01*
X104750000Y-82975000D01*
G75*
G02*
X104700000Y-83025000I-50000J0D01*
G01*
X104600000Y-83025000D01*
G75*
G02*
X104550000Y-82975000I0J50000D01*
G01*
G37*
G36*
G01*
X104150000Y-82975000D02*
X104150000Y-82200000D01*
G75*
G02*
X104200000Y-82150000I50000J0D01*
G01*
X104300000Y-82150000D01*
G75*
G02*
X104350000Y-82200000I0J-50000D01*
G01*
X104350000Y-82975000D01*
G75*
G02*
X104300000Y-83025000I-50000J0D01*
G01*
X104200000Y-83025000D01*
G75*
G02*
X104150000Y-82975000I0J50000D01*
G01*
G37*
G36*
G01*
X103750000Y-82975000D02*
X103750000Y-82200000D01*
G75*
G02*
X103800000Y-82150000I50000J0D01*
G01*
X103900000Y-82150000D01*
G75*
G02*
X103950000Y-82200000I0J-50000D01*
G01*
X103950000Y-82975000D01*
G75*
G02*
X103900000Y-83025000I-50000J0D01*
G01*
X103800000Y-83025000D01*
G75*
G02*
X103750000Y-82975000I0J50000D01*
G01*
G37*
G36*
G01*
X103350000Y-82975000D02*
X103350000Y-82200000D01*
G75*
G02*
X103400000Y-82150000I50000J0D01*
G01*
X103500000Y-82150000D01*
G75*
G02*
X103550000Y-82200000I0J-50000D01*
G01*
X103550000Y-82975000D01*
G75*
G02*
X103500000Y-83025000I-50000J0D01*
G01*
X103400000Y-83025000D01*
G75*
G02*
X103350000Y-82975000I0J50000D01*
G01*
G37*
G36*
G01*
X102950000Y-82975000D02*
X102950000Y-82200000D01*
G75*
G02*
X103000000Y-82150000I50000J0D01*
G01*
X103100000Y-82150000D01*
G75*
G02*
X103150000Y-82200000I0J-50000D01*
G01*
X103150000Y-82975000D01*
G75*
G02*
X103100000Y-83025000I-50000J0D01*
G01*
X103000000Y-83025000D01*
G75*
G02*
X102950000Y-82975000I0J50000D01*
G01*
G37*
G36*
G01*
X102550000Y-82975000D02*
X102550000Y-82200000D01*
G75*
G02*
X102600000Y-82150000I50000J0D01*
G01*
X102700000Y-82150000D01*
G75*
G02*
X102750000Y-82200000I0J-50000D01*
G01*
X102750000Y-82975000D01*
G75*
G02*
X102700000Y-83025000I-50000J0D01*
G01*
X102600000Y-83025000D01*
G75*
G02*
X102550000Y-82975000I0J50000D01*
G01*
G37*
G36*
G01*
X102150000Y-82975000D02*
X102150000Y-82200000D01*
G75*
G02*
X102200000Y-82150000I50000J0D01*
G01*
X102300000Y-82150000D01*
G75*
G02*
X102350000Y-82200000I0J-50000D01*
G01*
X102350000Y-82975000D01*
G75*
G02*
X102300000Y-83025000I-50000J0D01*
G01*
X102200000Y-83025000D01*
G75*
G02*
X102150000Y-82975000I0J50000D01*
G01*
G37*
G36*
G01*
X101750000Y-82975000D02*
X101750000Y-82200000D01*
G75*
G02*
X101800000Y-82150000I50000J0D01*
G01*
X101900000Y-82150000D01*
G75*
G02*
X101950000Y-82200000I0J-50000D01*
G01*
X101950000Y-82975000D01*
G75*
G02*
X101900000Y-83025000I-50000J0D01*
G01*
X101800000Y-83025000D01*
G75*
G02*
X101750000Y-82975000I0J50000D01*
G01*
G37*
G36*
G01*
X101350000Y-82975000D02*
X101350000Y-82200000D01*
G75*
G02*
X101400000Y-82150000I50000J0D01*
G01*
X101500000Y-82150000D01*
G75*
G02*
X101550000Y-82200000I0J-50000D01*
G01*
X101550000Y-82975000D01*
G75*
G02*
X101500000Y-83025000I-50000J0D01*
G01*
X101400000Y-83025000D01*
G75*
G02*
X101350000Y-82975000I0J50000D01*
G01*
G37*
G36*
G01*
X100950000Y-82975000D02*
X100950000Y-82200000D01*
G75*
G02*
X101000000Y-82150000I50000J0D01*
G01*
X101100000Y-82150000D01*
G75*
G02*
X101150000Y-82200000I0J-50000D01*
G01*
X101150000Y-82975000D01*
G75*
G02*
X101100000Y-83025000I-50000J0D01*
G01*
X101000000Y-83025000D01*
G75*
G02*
X100950000Y-82975000I0J50000D01*
G01*
G37*
M02*
