G04 #@! TF.GenerationSoftware,KiCad,Pcbnew,(5.1.10)-1*
G04 #@! TF.CreationDate,2021-09-14T15:49:53+01:00*
G04 #@! TF.ProjectId,EnvOpenPico,456e764f-7065-46e5-9069-636f2e6b6963,REV1*
G04 #@! TF.SameCoordinates,Original*
G04 #@! TF.FileFunction,Copper,L1,Top*
G04 #@! TF.FilePolarity,Positive*
%FSLAX46Y46*%
G04 Gerber Fmt 4.6, Leading zero omitted, Abs format (unit mm)*
G04 Created by KiCad (PCBNEW (5.1.10)-1) date 2021-09-14 15:49:53*
%MOMM*%
%LPD*%
G01*
G04 APERTURE LIST*
G04 #@! TA.AperFunction,ComponentPad*
%ADD10R,3.500000X1.700000*%
G04 #@! TD*
G04 #@! TA.AperFunction,ComponentPad*
%ADD11C,1.700000*%
G04 #@! TD*
G04 #@! TA.AperFunction,ComponentPad*
%ADD12O,1.700000X1.700000*%
G04 #@! TD*
G04 #@! TA.AperFunction,ComponentPad*
%ADD13R,1.700000X1.700000*%
G04 #@! TD*
G04 #@! TA.AperFunction,SMDPad,CuDef*
%ADD14R,0.600000X1.450000*%
G04 #@! TD*
G04 #@! TA.AperFunction,SMDPad,CuDef*
%ADD15R,0.300000X1.450000*%
G04 #@! TD*
G04 #@! TA.AperFunction,ComponentPad*
%ADD16O,1.000000X2.100000*%
G04 #@! TD*
G04 #@! TA.AperFunction,ComponentPad*
%ADD17O,1.000000X1.600000*%
G04 #@! TD*
G04 #@! TA.AperFunction,SMDPad,CuDef*
%ADD18R,0.650000X1.060000*%
G04 #@! TD*
G04 #@! TA.AperFunction,SMDPad,CuDef*
%ADD19R,1.200000X0.900000*%
G04 #@! TD*
G04 #@! TA.AperFunction,SMDPad,CuDef*
%ADD20R,1.400000X1.200000*%
G04 #@! TD*
G04 #@! TA.AperFunction,SMDPad,CuDef*
%ADD21R,1.600000X1.400000*%
G04 #@! TD*
G04 #@! TA.AperFunction,ComponentPad*
%ADD22C,0.600000*%
G04 #@! TD*
G04 #@! TA.AperFunction,ViaPad*
%ADD23C,0.400000*%
G04 #@! TD*
G04 #@! TA.AperFunction,ViaPad*
%ADD24C,0.600000*%
G04 #@! TD*
G04 #@! TA.AperFunction,Conductor*
%ADD25C,0.150000*%
G04 #@! TD*
G04 #@! TA.AperFunction,Conductor*
%ADD26C,0.400000*%
G04 #@! TD*
G04 #@! TA.AperFunction,Conductor*
%ADD27C,0.127000*%
G04 #@! TD*
G04 #@! TA.AperFunction,Conductor*
%ADD28C,0.500000*%
G04 #@! TD*
G04 #@! TA.AperFunction,Conductor*
%ADD29C,0.200000*%
G04 #@! TD*
G04 #@! TA.AperFunction,Conductor*
%ADD30C,0.300000*%
G04 #@! TD*
G04 #@! TA.AperFunction,Conductor*
%ADD31C,0.800000*%
G04 #@! TD*
G04 #@! TA.AperFunction,Conductor*
%ADD32C,0.600000*%
G04 #@! TD*
G04 #@! TA.AperFunction,Conductor*
%ADD33C,0.100000*%
G04 #@! TD*
G04 #@! TA.AperFunction,Conductor*
%ADD34C,0.254000*%
G04 #@! TD*
G04 #@! TA.AperFunction,Conductor*
%ADD35C,0.250000*%
G04 #@! TD*
G04 APERTURE END LIST*
D10*
X93050000Y-58725000D03*
X93050000Y-101905000D03*
X93050000Y-63805000D03*
X93050000Y-84125000D03*
X93050000Y-106985000D03*
X93050000Y-76505000D03*
X93050000Y-81585000D03*
X93050000Y-96825000D03*
X93040000Y-91745000D03*
X93050000Y-66335000D03*
X93050000Y-61255000D03*
X93050000Y-68885000D03*
X93060000Y-79045000D03*
X93050000Y-71425000D03*
X93050000Y-86665000D03*
X93050000Y-89205000D03*
X93050000Y-94285000D03*
X93050000Y-99365000D03*
X93050000Y-73965000D03*
X93050000Y-104445000D03*
D11*
X94750000Y-106985000D03*
D12*
X94750000Y-104445000D03*
D13*
X94750000Y-101905000D03*
D12*
X94750000Y-99365000D03*
X94750000Y-96825000D03*
X94750000Y-94285000D03*
X94750000Y-91745000D03*
D13*
X94750000Y-89205000D03*
D12*
X94750000Y-86665000D03*
X94750000Y-84125000D03*
X94750000Y-81585000D03*
X94750000Y-79045000D03*
D13*
X94750000Y-76505000D03*
D12*
X94750000Y-73965000D03*
X94750000Y-71425000D03*
X94750000Y-68885000D03*
X94750000Y-66345000D03*
D13*
X94750000Y-63805000D03*
D12*
X94750000Y-61265000D03*
X94750000Y-58725000D03*
D10*
X114250000Y-81585000D03*
X114250000Y-66345000D03*
X114250000Y-79045000D03*
X114250000Y-58725000D03*
X114250000Y-63805000D03*
X114250000Y-76505000D03*
X114250000Y-89205000D03*
X114250000Y-61265000D03*
X114250000Y-68885000D03*
X114250000Y-71425000D03*
X114250000Y-73965000D03*
X114250000Y-84125000D03*
X114250000Y-91745000D03*
X114250000Y-86665000D03*
X114250000Y-106985000D03*
X114250000Y-94285000D03*
X114250000Y-104445000D03*
X114250000Y-96825000D03*
X114250000Y-101905000D03*
X114250000Y-99365000D03*
D13*
X112550000Y-58725000D03*
D12*
X112550000Y-61265000D03*
D13*
X112550000Y-63805000D03*
D12*
X112550000Y-66345000D03*
X112550000Y-68885000D03*
X112550000Y-71425000D03*
X112550000Y-73965000D03*
D13*
X112550000Y-76505000D03*
D12*
X112550000Y-79045000D03*
X112550000Y-81585000D03*
X112550000Y-84125000D03*
X112550000Y-86665000D03*
D13*
X112550000Y-89205000D03*
D12*
X112550000Y-91745000D03*
X112550000Y-94285000D03*
X112550000Y-96825000D03*
X112550000Y-99365000D03*
D13*
X112550000Y-101905000D03*
D12*
X112550000Y-104445000D03*
X112550000Y-106985000D03*
G04 #@! TA.AperFunction,SMDPad,CuDef*
G36*
G01*
X105149760Y-78703960D02*
X105519760Y-78703960D01*
G75*
G02*
X105654760Y-78838960I0J-135000D01*
G01*
X105654760Y-79108960D01*
G75*
G02*
X105519760Y-79243960I-135000J0D01*
G01*
X105149760Y-79243960D01*
G75*
G02*
X105014760Y-79108960I0J135000D01*
G01*
X105014760Y-78838960D01*
G75*
G02*
X105149760Y-78703960I135000J0D01*
G01*
G37*
G04 #@! TD.AperFunction*
G04 #@! TA.AperFunction,SMDPad,CuDef*
G36*
G01*
X105149760Y-77683960D02*
X105519760Y-77683960D01*
G75*
G02*
X105654760Y-77818960I0J-135000D01*
G01*
X105654760Y-78088960D01*
G75*
G02*
X105519760Y-78223960I-135000J0D01*
G01*
X105149760Y-78223960D01*
G75*
G02*
X105014760Y-78088960I0J135000D01*
G01*
X105014760Y-77818960D01*
G75*
G02*
X105149760Y-77683960I135000J0D01*
G01*
G37*
G04 #@! TD.AperFunction*
G04 #@! TA.AperFunction,SMDPad,CuDef*
G36*
G01*
X104199760Y-78703960D02*
X104569760Y-78703960D01*
G75*
G02*
X104704760Y-78838960I0J-135000D01*
G01*
X104704760Y-79108960D01*
G75*
G02*
X104569760Y-79243960I-135000J0D01*
G01*
X104199760Y-79243960D01*
G75*
G02*
X104064760Y-79108960I0J135000D01*
G01*
X104064760Y-78838960D01*
G75*
G02*
X104199760Y-78703960I135000J0D01*
G01*
G37*
G04 #@! TD.AperFunction*
G04 #@! TA.AperFunction,SMDPad,CuDef*
G36*
G01*
X104199760Y-77683960D02*
X104569760Y-77683960D01*
G75*
G02*
X104704760Y-77818960I0J-135000D01*
G01*
X104704760Y-78088960D01*
G75*
G02*
X104569760Y-78223960I-135000J0D01*
G01*
X104199760Y-78223960D01*
G75*
G02*
X104064760Y-78088960I0J135000D01*
G01*
X104064760Y-77818960D01*
G75*
G02*
X104199760Y-77683960I135000J0D01*
G01*
G37*
G04 #@! TD.AperFunction*
D14*
X100425000Y-64620000D03*
X106875000Y-64620000D03*
X101200000Y-64620000D03*
X106100000Y-64620000D03*
D15*
X105400000Y-64620000D03*
X101900000Y-64620000D03*
X104900000Y-64620000D03*
X102400000Y-64620000D03*
X104400000Y-64620000D03*
X102900000Y-64620000D03*
X103400000Y-64620000D03*
X103900000Y-64620000D03*
D16*
X107970000Y-63705000D03*
X99330000Y-63705000D03*
D17*
X107970000Y-59525000D03*
X99330000Y-59525000D03*
G04 #@! TA.AperFunction,SMDPad,CuDef*
G36*
G01*
X103730000Y-93795000D02*
X103730000Y-93455000D01*
G75*
G02*
X103870000Y-93315000I140000J0D01*
G01*
X104150000Y-93315000D01*
G75*
G02*
X104290000Y-93455000I0J-140000D01*
G01*
X104290000Y-93795000D01*
G75*
G02*
X104150000Y-93935000I-140000J0D01*
G01*
X103870000Y-93935000D01*
G75*
G02*
X103730000Y-93795000I0J140000D01*
G01*
G37*
G04 #@! TD.AperFunction*
G04 #@! TA.AperFunction,SMDPad,CuDef*
G36*
G01*
X102770000Y-93795000D02*
X102770000Y-93455000D01*
G75*
G02*
X102910000Y-93315000I140000J0D01*
G01*
X103190000Y-93315000D01*
G75*
G02*
X103330000Y-93455000I0J-140000D01*
G01*
X103330000Y-93795000D01*
G75*
G02*
X103190000Y-93935000I-140000J0D01*
G01*
X102910000Y-93935000D01*
G75*
G02*
X102770000Y-93795000I0J140000D01*
G01*
G37*
G04 #@! TD.AperFunction*
G04 #@! TA.AperFunction,SMDPad,CuDef*
G36*
G01*
X104400000Y-95955000D02*
X104060000Y-95955000D01*
G75*
G02*
X103920000Y-95815000I0J140000D01*
G01*
X103920000Y-95535000D01*
G75*
G02*
X104060000Y-95395000I140000J0D01*
G01*
X104400000Y-95395000D01*
G75*
G02*
X104540000Y-95535000I0J-140000D01*
G01*
X104540000Y-95815000D01*
G75*
G02*
X104400000Y-95955000I-140000J0D01*
G01*
G37*
G04 #@! TD.AperFunction*
G04 #@! TA.AperFunction,SMDPad,CuDef*
G36*
G01*
X104400000Y-94995000D02*
X104060000Y-94995000D01*
G75*
G02*
X103920000Y-94855000I0J140000D01*
G01*
X103920000Y-94575000D01*
G75*
G02*
X104060000Y-94435000I140000J0D01*
G01*
X104400000Y-94435000D01*
G75*
G02*
X104540000Y-94575000I0J-140000D01*
G01*
X104540000Y-94855000D01*
G75*
G02*
X104400000Y-94995000I-140000J0D01*
G01*
G37*
G04 #@! TD.AperFunction*
G04 #@! TA.AperFunction,SMDPad,CuDef*
G36*
G01*
X106420000Y-70550000D02*
X106080000Y-70550000D01*
G75*
G02*
X105940000Y-70410000I0J140000D01*
G01*
X105940000Y-70130000D01*
G75*
G02*
X106080000Y-69990000I140000J0D01*
G01*
X106420000Y-69990000D01*
G75*
G02*
X106560000Y-70130000I0J-140000D01*
G01*
X106560000Y-70410000D01*
G75*
G02*
X106420000Y-70550000I-140000J0D01*
G01*
G37*
G04 #@! TD.AperFunction*
G04 #@! TA.AperFunction,SMDPad,CuDef*
G36*
G01*
X106420000Y-71510000D02*
X106080000Y-71510000D01*
G75*
G02*
X105940000Y-71370000I0J140000D01*
G01*
X105940000Y-71090000D01*
G75*
G02*
X106080000Y-70950000I140000J0D01*
G01*
X106420000Y-70950000D01*
G75*
G02*
X106560000Y-71090000I0J-140000D01*
G01*
X106560000Y-71370000D01*
G75*
G02*
X106420000Y-71510000I-140000J0D01*
G01*
G37*
G04 #@! TD.AperFunction*
D18*
X109630000Y-71235000D03*
X107730000Y-71235000D03*
X107730000Y-69035000D03*
X108680000Y-69035000D03*
X109630000Y-69035000D03*
G04 #@! TA.AperFunction,SMDPad,CuDef*
G36*
G01*
X98780000Y-81735000D02*
X98440000Y-81735000D01*
G75*
G02*
X98300000Y-81595000I0J140000D01*
G01*
X98300000Y-81315000D01*
G75*
G02*
X98440000Y-81175000I140000J0D01*
G01*
X98780000Y-81175000D01*
G75*
G02*
X98920000Y-81315000I0J-140000D01*
G01*
X98920000Y-81595000D01*
G75*
G02*
X98780000Y-81735000I-140000J0D01*
G01*
G37*
G04 #@! TD.AperFunction*
G04 #@! TA.AperFunction,SMDPad,CuDef*
G36*
G01*
X98780000Y-80775000D02*
X98440000Y-80775000D01*
G75*
G02*
X98300000Y-80635000I0J140000D01*
G01*
X98300000Y-80355000D01*
G75*
G02*
X98440000Y-80215000I140000J0D01*
G01*
X98780000Y-80215000D01*
G75*
G02*
X98920000Y-80355000I0J-140000D01*
G01*
X98920000Y-80635000D01*
G75*
G02*
X98780000Y-80775000I-140000J0D01*
G01*
G37*
G04 #@! TD.AperFunction*
D19*
X110030000Y-62245000D03*
X110030000Y-58945000D03*
D20*
X100450000Y-96700000D03*
X102650000Y-96700000D03*
X102650000Y-95000000D03*
X100450000Y-95000000D03*
G04 #@! TA.AperFunction,SMDPad,CuDef*
G36*
G01*
X100315000Y-93795000D02*
X100315000Y-93455000D01*
G75*
G02*
X100455000Y-93315000I140000J0D01*
G01*
X100735000Y-93315000D01*
G75*
G02*
X100875000Y-93455000I0J-140000D01*
G01*
X100875000Y-93795000D01*
G75*
G02*
X100735000Y-93935000I-140000J0D01*
G01*
X100455000Y-93935000D01*
G75*
G02*
X100315000Y-93795000I0J140000D01*
G01*
G37*
G04 #@! TD.AperFunction*
G04 #@! TA.AperFunction,SMDPad,CuDef*
G36*
G01*
X101275000Y-93795000D02*
X101275000Y-93455000D01*
G75*
G02*
X101415000Y-93315000I140000J0D01*
G01*
X101695000Y-93315000D01*
G75*
G02*
X101835000Y-93455000I0J-140000D01*
G01*
X101835000Y-93795000D01*
G75*
G02*
X101695000Y-93935000I-140000J0D01*
G01*
X101415000Y-93935000D01*
G75*
G02*
X101275000Y-93795000I0J140000D01*
G01*
G37*
G04 #@! TD.AperFunction*
G04 #@! TA.AperFunction,SMDPad,CuDef*
G36*
G01*
X102335000Y-68305000D02*
X101965000Y-68305000D01*
G75*
G02*
X101830000Y-68170000I0J135000D01*
G01*
X101830000Y-67900000D01*
G75*
G02*
X101965000Y-67765000I135000J0D01*
G01*
X102335000Y-67765000D01*
G75*
G02*
X102470000Y-67900000I0J-135000D01*
G01*
X102470000Y-68170000D01*
G75*
G02*
X102335000Y-68305000I-135000J0D01*
G01*
G37*
G04 #@! TD.AperFunction*
G04 #@! TA.AperFunction,SMDPad,CuDef*
G36*
G01*
X102335000Y-67285000D02*
X101965000Y-67285000D01*
G75*
G02*
X101830000Y-67150000I0J135000D01*
G01*
X101830000Y-66880000D01*
G75*
G02*
X101965000Y-66745000I135000J0D01*
G01*
X102335000Y-66745000D01*
G75*
G02*
X102470000Y-66880000I0J-135000D01*
G01*
X102470000Y-67150000D01*
G75*
G02*
X102335000Y-67285000I-135000J0D01*
G01*
G37*
G04 #@! TD.AperFunction*
G04 #@! TA.AperFunction,SMDPad,CuDef*
G36*
G01*
X108750000Y-77961000D02*
X108750000Y-77621000D01*
G75*
G02*
X108890000Y-77481000I140000J0D01*
G01*
X109170000Y-77481000D01*
G75*
G02*
X109310000Y-77621000I0J-140000D01*
G01*
X109310000Y-77961000D01*
G75*
G02*
X109170000Y-78101000I-140000J0D01*
G01*
X108890000Y-78101000D01*
G75*
G02*
X108750000Y-77961000I0J140000D01*
G01*
G37*
G04 #@! TD.AperFunction*
G04 #@! TA.AperFunction,SMDPad,CuDef*
G36*
G01*
X109710000Y-77961000D02*
X109710000Y-77621000D01*
G75*
G02*
X109850000Y-77481000I140000J0D01*
G01*
X110130000Y-77481000D01*
G75*
G02*
X110270000Y-77621000I0J-140000D01*
G01*
X110270000Y-77961000D01*
G75*
G02*
X110130000Y-78101000I-140000J0D01*
G01*
X109850000Y-78101000D01*
G75*
G02*
X109710000Y-77961000I0J140000D01*
G01*
G37*
G04 #@! TD.AperFunction*
G04 #@! TA.AperFunction,SMDPad,CuDef*
G36*
G01*
X108750000Y-80247000D02*
X108750000Y-79907000D01*
G75*
G02*
X108890000Y-79767000I140000J0D01*
G01*
X109170000Y-79767000D01*
G75*
G02*
X109310000Y-79907000I0J-140000D01*
G01*
X109310000Y-80247000D01*
G75*
G02*
X109170000Y-80387000I-140000J0D01*
G01*
X108890000Y-80387000D01*
G75*
G02*
X108750000Y-80247000I0J140000D01*
G01*
G37*
G04 #@! TD.AperFunction*
G04 #@! TA.AperFunction,SMDPad,CuDef*
G36*
G01*
X109710000Y-80247000D02*
X109710000Y-79907000D01*
G75*
G02*
X109850000Y-79767000I140000J0D01*
G01*
X110130000Y-79767000D01*
G75*
G02*
X110270000Y-79907000I0J-140000D01*
G01*
X110270000Y-80247000D01*
G75*
G02*
X110130000Y-80387000I-140000J0D01*
G01*
X109850000Y-80387000D01*
G75*
G02*
X109710000Y-80247000I0J140000D01*
G01*
G37*
G04 #@! TD.AperFunction*
G04 #@! TA.AperFunction,SMDPad,CuDef*
G36*
G01*
X99838060Y-80998860D02*
X99663060Y-80998860D01*
G75*
G02*
X99575560Y-80911360I0J87500D01*
G01*
X99575560Y-80561360D01*
G75*
G02*
X99663060Y-80473860I87500J0D01*
G01*
X99838060Y-80473860D01*
G75*
G02*
X99925560Y-80561360I0J-87500D01*
G01*
X99925560Y-80911360D01*
G75*
G02*
X99838060Y-80998860I-87500J0D01*
G01*
G37*
G04 #@! TD.AperFunction*
G04 #@! TA.AperFunction,SMDPad,CuDef*
G36*
G01*
X100338060Y-80998860D02*
X100163060Y-80998860D01*
G75*
G02*
X100075560Y-80911360I0J87500D01*
G01*
X100075560Y-80561360D01*
G75*
G02*
X100163060Y-80473860I87500J0D01*
G01*
X100338060Y-80473860D01*
G75*
G02*
X100425560Y-80561360I0J-87500D01*
G01*
X100425560Y-80911360D01*
G75*
G02*
X100338060Y-80998860I-87500J0D01*
G01*
G37*
G04 #@! TD.AperFunction*
G04 #@! TA.AperFunction,SMDPad,CuDef*
G36*
G01*
X100838060Y-80998860D02*
X100663060Y-80998860D01*
G75*
G02*
X100575560Y-80911360I0J87500D01*
G01*
X100575560Y-80561360D01*
G75*
G02*
X100663060Y-80473860I87500J0D01*
G01*
X100838060Y-80473860D01*
G75*
G02*
X100925560Y-80561360I0J-87500D01*
G01*
X100925560Y-80911360D01*
G75*
G02*
X100838060Y-80998860I-87500J0D01*
G01*
G37*
G04 #@! TD.AperFunction*
G04 #@! TA.AperFunction,SMDPad,CuDef*
G36*
G01*
X101338060Y-80998860D02*
X101163060Y-80998860D01*
G75*
G02*
X101075560Y-80911360I0J87500D01*
G01*
X101075560Y-80561360D01*
G75*
G02*
X101163060Y-80473860I87500J0D01*
G01*
X101338060Y-80473860D01*
G75*
G02*
X101425560Y-80561360I0J-87500D01*
G01*
X101425560Y-80911360D01*
G75*
G02*
X101338060Y-80998860I-87500J0D01*
G01*
G37*
G04 #@! TD.AperFunction*
G04 #@! TA.AperFunction,SMDPad,CuDef*
G36*
G01*
X101338060Y-78423860D02*
X101163060Y-78423860D01*
G75*
G02*
X101075560Y-78336360I0J87500D01*
G01*
X101075560Y-77986360D01*
G75*
G02*
X101163060Y-77898860I87500J0D01*
G01*
X101338060Y-77898860D01*
G75*
G02*
X101425560Y-77986360I0J-87500D01*
G01*
X101425560Y-78336360D01*
G75*
G02*
X101338060Y-78423860I-87500J0D01*
G01*
G37*
G04 #@! TD.AperFunction*
G04 #@! TA.AperFunction,SMDPad,CuDef*
G36*
G01*
X100838060Y-78423860D02*
X100663060Y-78423860D01*
G75*
G02*
X100575560Y-78336360I0J87500D01*
G01*
X100575560Y-77986360D01*
G75*
G02*
X100663060Y-77898860I87500J0D01*
G01*
X100838060Y-77898860D01*
G75*
G02*
X100925560Y-77986360I0J-87500D01*
G01*
X100925560Y-78336360D01*
G75*
G02*
X100838060Y-78423860I-87500J0D01*
G01*
G37*
G04 #@! TD.AperFunction*
G04 #@! TA.AperFunction,SMDPad,CuDef*
G36*
G01*
X100338060Y-78423860D02*
X100163060Y-78423860D01*
G75*
G02*
X100075560Y-78336360I0J87500D01*
G01*
X100075560Y-77986360D01*
G75*
G02*
X100163060Y-77898860I87500J0D01*
G01*
X100338060Y-77898860D01*
G75*
G02*
X100425560Y-77986360I0J-87500D01*
G01*
X100425560Y-78336360D01*
G75*
G02*
X100338060Y-78423860I-87500J0D01*
G01*
G37*
G04 #@! TD.AperFunction*
G04 #@! TA.AperFunction,SMDPad,CuDef*
G36*
G01*
X99838060Y-78423860D02*
X99663060Y-78423860D01*
G75*
G02*
X99575560Y-78336360I0J87500D01*
G01*
X99575560Y-77986360D01*
G75*
G02*
X99663060Y-77898860I87500J0D01*
G01*
X99838060Y-77898860D01*
G75*
G02*
X99925560Y-77986360I0J-87500D01*
G01*
X99925560Y-78336360D01*
G75*
G02*
X99838060Y-78423860I-87500J0D01*
G01*
G37*
G04 #@! TD.AperFunction*
D21*
X100500560Y-79448860D03*
G04 #@! TA.AperFunction,SMDPad,CuDef*
G36*
G01*
X108859000Y-72855000D02*
X108859000Y-72515000D01*
G75*
G02*
X108999000Y-72375000I140000J0D01*
G01*
X109279000Y-72375000D01*
G75*
G02*
X109419000Y-72515000I0J-140000D01*
G01*
X109419000Y-72855000D01*
G75*
G02*
X109279000Y-72995000I-140000J0D01*
G01*
X108999000Y-72995000D01*
G75*
G02*
X108859000Y-72855000I0J140000D01*
G01*
G37*
G04 #@! TD.AperFunction*
G04 #@! TA.AperFunction,SMDPad,CuDef*
G36*
G01*
X109819000Y-72855000D02*
X109819000Y-72515000D01*
G75*
G02*
X109959000Y-72375000I140000J0D01*
G01*
X110239000Y-72375000D01*
G75*
G02*
X110379000Y-72515000I0J-140000D01*
G01*
X110379000Y-72855000D01*
G75*
G02*
X110239000Y-72995000I-140000J0D01*
G01*
X109959000Y-72995000D01*
G75*
G02*
X109819000Y-72855000I0J140000D01*
G01*
G37*
G04 #@! TD.AperFunction*
G04 #@! TA.AperFunction,SMDPad,CuDef*
G36*
G01*
X109475000Y-67165000D02*
X109475000Y-67665000D01*
G75*
G02*
X109250000Y-67890000I-225000J0D01*
G01*
X108800000Y-67890000D01*
G75*
G02*
X108575000Y-67665000I0J225000D01*
G01*
X108575000Y-67165000D01*
G75*
G02*
X108800000Y-66940000I225000J0D01*
G01*
X109250000Y-66940000D01*
G75*
G02*
X109475000Y-67165000I0J-225000D01*
G01*
G37*
G04 #@! TD.AperFunction*
G04 #@! TA.AperFunction,SMDPad,CuDef*
G36*
G01*
X107925000Y-67165000D02*
X107925000Y-67665000D01*
G75*
G02*
X107700000Y-67890000I-225000J0D01*
G01*
X107250000Y-67890000D01*
G75*
G02*
X107025000Y-67665000I0J225000D01*
G01*
X107025000Y-67165000D01*
G75*
G02*
X107250000Y-66940000I225000J0D01*
G01*
X107700000Y-66940000D01*
G75*
G02*
X107925000Y-67165000I0J-225000D01*
G01*
G37*
G04 #@! TD.AperFunction*
G04 #@! TA.AperFunction,SMDPad,CuDef*
G36*
G01*
X106436000Y-77612600D02*
X106806000Y-77612600D01*
G75*
G02*
X106941000Y-77747600I0J-135000D01*
G01*
X106941000Y-78017600D01*
G75*
G02*
X106806000Y-78152600I-135000J0D01*
G01*
X106436000Y-78152600D01*
G75*
G02*
X106301000Y-78017600I0J135000D01*
G01*
X106301000Y-77747600D01*
G75*
G02*
X106436000Y-77612600I135000J0D01*
G01*
G37*
G04 #@! TD.AperFunction*
G04 #@! TA.AperFunction,SMDPad,CuDef*
G36*
G01*
X106436000Y-78632600D02*
X106806000Y-78632600D01*
G75*
G02*
X106941000Y-78767600I0J-135000D01*
G01*
X106941000Y-79037600D01*
G75*
G02*
X106806000Y-79172600I-135000J0D01*
G01*
X106436000Y-79172600D01*
G75*
G02*
X106301000Y-79037600I0J135000D01*
G01*
X106301000Y-78767600D01*
G75*
G02*
X106436000Y-78632600I135000J0D01*
G01*
G37*
G04 #@! TD.AperFunction*
G04 #@! TA.AperFunction,SMDPad,CuDef*
G36*
G01*
X106245200Y-74172400D02*
X106795200Y-74172400D01*
G75*
G02*
X106995200Y-74372400I0J-200000D01*
G01*
X106995200Y-74772400D01*
G75*
G02*
X106795200Y-74972400I-200000J0D01*
G01*
X106245200Y-74972400D01*
G75*
G02*
X106045200Y-74772400I0J200000D01*
G01*
X106045200Y-74372400D01*
G75*
G02*
X106245200Y-74172400I200000J0D01*
G01*
G37*
G04 #@! TD.AperFunction*
G04 #@! TA.AperFunction,SMDPad,CuDef*
G36*
G01*
X106245200Y-75822400D02*
X106795200Y-75822400D01*
G75*
G02*
X106995200Y-76022400I0J-200000D01*
G01*
X106995200Y-76422400D01*
G75*
G02*
X106795200Y-76622400I-200000J0D01*
G01*
X106245200Y-76622400D01*
G75*
G02*
X106045200Y-76422400I0J200000D01*
G01*
X106045200Y-76022400D01*
G75*
G02*
X106245200Y-75822400I200000J0D01*
G01*
G37*
G04 #@! TD.AperFunction*
G04 #@! TA.AperFunction,SMDPad,CuDef*
G36*
G01*
X100990000Y-70825000D02*
X99390000Y-70825000D01*
G75*
G02*
X99190000Y-70625000I0J200000D01*
G01*
X99190000Y-70225000D01*
G75*
G02*
X99390000Y-70025000I200000J0D01*
G01*
X100990000Y-70025000D01*
G75*
G02*
X101190000Y-70225000I0J-200000D01*
G01*
X101190000Y-70625000D01*
G75*
G02*
X100990000Y-70825000I-200000J0D01*
G01*
G37*
G04 #@! TD.AperFunction*
G04 #@! TA.AperFunction,SMDPad,CuDef*
G36*
G01*
X100990000Y-75025000D02*
X99390000Y-75025000D01*
G75*
G02*
X99190000Y-74825000I0J200000D01*
G01*
X99190000Y-74425000D01*
G75*
G02*
X99390000Y-74225000I200000J0D01*
G01*
X100990000Y-74225000D01*
G75*
G02*
X101190000Y-74425000I0J-200000D01*
G01*
X101190000Y-74825000D01*
G75*
G02*
X100990000Y-75025000I-200000J0D01*
G01*
G37*
G04 #@! TD.AperFunction*
G04 #@! TA.AperFunction,SMDPad,CuDef*
G36*
G01*
X99890780Y-77427560D02*
X99550780Y-77427560D01*
G75*
G02*
X99410780Y-77287560I0J140000D01*
G01*
X99410780Y-77007560D01*
G75*
G02*
X99550780Y-76867560I140000J0D01*
G01*
X99890780Y-76867560D01*
G75*
G02*
X100030780Y-77007560I0J-140000D01*
G01*
X100030780Y-77287560D01*
G75*
G02*
X99890780Y-77427560I-140000J0D01*
G01*
G37*
G04 #@! TD.AperFunction*
G04 #@! TA.AperFunction,SMDPad,CuDef*
G36*
G01*
X99890780Y-76467560D02*
X99550780Y-76467560D01*
G75*
G02*
X99410780Y-76327560I0J140000D01*
G01*
X99410780Y-76047560D01*
G75*
G02*
X99550780Y-75907560I140000J0D01*
G01*
X99890780Y-75907560D01*
G75*
G02*
X100030780Y-76047560I0J-140000D01*
G01*
X100030780Y-76327560D01*
G75*
G02*
X99890780Y-76467560I-140000J0D01*
G01*
G37*
G04 #@! TD.AperFunction*
G04 #@! TA.AperFunction,SMDPad,CuDef*
G36*
G01*
X106435000Y-68795000D02*
X106065000Y-68795000D01*
G75*
G02*
X105930000Y-68660000I0J135000D01*
G01*
X105930000Y-68390000D01*
G75*
G02*
X106065000Y-68255000I135000J0D01*
G01*
X106435000Y-68255000D01*
G75*
G02*
X106570000Y-68390000I0J-135000D01*
G01*
X106570000Y-68660000D01*
G75*
G02*
X106435000Y-68795000I-135000J0D01*
G01*
G37*
G04 #@! TD.AperFunction*
G04 #@! TA.AperFunction,SMDPad,CuDef*
G36*
G01*
X106435000Y-67775000D02*
X106065000Y-67775000D01*
G75*
G02*
X105930000Y-67640000I0J135000D01*
G01*
X105930000Y-67370000D01*
G75*
G02*
X106065000Y-67235000I135000J0D01*
G01*
X106435000Y-67235000D01*
G75*
G02*
X106570000Y-67370000I0J-135000D01*
G01*
X106570000Y-67640000D01*
G75*
G02*
X106435000Y-67775000I-135000J0D01*
G01*
G37*
G04 #@! TD.AperFunction*
G04 #@! TA.AperFunction,SMDPad,CuDef*
G36*
G01*
X104462000Y-80140400D02*
X104122000Y-80140400D01*
G75*
G02*
X103982000Y-80000400I0J140000D01*
G01*
X103982000Y-79720400D01*
G75*
G02*
X104122000Y-79580400I140000J0D01*
G01*
X104462000Y-79580400D01*
G75*
G02*
X104602000Y-79720400I0J-140000D01*
G01*
X104602000Y-80000400D01*
G75*
G02*
X104462000Y-80140400I-140000J0D01*
G01*
G37*
G04 #@! TD.AperFunction*
G04 #@! TA.AperFunction,SMDPad,CuDef*
G36*
G01*
X104462000Y-81100400D02*
X104122000Y-81100400D01*
G75*
G02*
X103982000Y-80960400I0J140000D01*
G01*
X103982000Y-80680400D01*
G75*
G02*
X104122000Y-80540400I140000J0D01*
G01*
X104462000Y-80540400D01*
G75*
G02*
X104602000Y-80680400I0J-140000D01*
G01*
X104602000Y-80960400D01*
G75*
G02*
X104462000Y-81100400I-140000J0D01*
G01*
G37*
G04 #@! TD.AperFunction*
G04 #@! TA.AperFunction,SMDPad,CuDef*
G36*
G01*
X105902960Y-81676980D02*
X105562960Y-81676980D01*
G75*
G02*
X105422960Y-81536980I0J140000D01*
G01*
X105422960Y-81256980D01*
G75*
G02*
X105562960Y-81116980I140000J0D01*
G01*
X105902960Y-81116980D01*
G75*
G02*
X106042960Y-81256980I0J-140000D01*
G01*
X106042960Y-81536980D01*
G75*
G02*
X105902960Y-81676980I-140000J0D01*
G01*
G37*
G04 #@! TD.AperFunction*
G04 #@! TA.AperFunction,SMDPad,CuDef*
G36*
G01*
X105902960Y-80716980D02*
X105562960Y-80716980D01*
G75*
G02*
X105422960Y-80576980I0J140000D01*
G01*
X105422960Y-80296980D01*
G75*
G02*
X105562960Y-80156980I140000J0D01*
G01*
X105902960Y-80156980D01*
G75*
G02*
X106042960Y-80296980I0J-140000D01*
G01*
X106042960Y-80576980D01*
G75*
G02*
X105902960Y-80716980I-140000J0D01*
G01*
G37*
G04 #@! TD.AperFunction*
G04 #@! TA.AperFunction,SMDPad,CuDef*
G36*
G01*
X103471400Y-81100400D02*
X103131400Y-81100400D01*
G75*
G02*
X102991400Y-80960400I0J140000D01*
G01*
X102991400Y-80680400D01*
G75*
G02*
X103131400Y-80540400I140000J0D01*
G01*
X103471400Y-80540400D01*
G75*
G02*
X103611400Y-80680400I0J-140000D01*
G01*
X103611400Y-80960400D01*
G75*
G02*
X103471400Y-81100400I-140000J0D01*
G01*
G37*
G04 #@! TD.AperFunction*
G04 #@! TA.AperFunction,SMDPad,CuDef*
G36*
G01*
X103471400Y-80140400D02*
X103131400Y-80140400D01*
G75*
G02*
X102991400Y-80000400I0J140000D01*
G01*
X102991400Y-79720400D01*
G75*
G02*
X103131400Y-79580400I140000J0D01*
G01*
X103471400Y-79580400D01*
G75*
G02*
X103611400Y-79720400I0J-140000D01*
G01*
X103611400Y-80000400D01*
G75*
G02*
X103471400Y-80140400I-140000J0D01*
G01*
G37*
G04 #@! TD.AperFunction*
G04 #@! TA.AperFunction,SMDPad,CuDef*
G36*
G01*
X105335000Y-68305000D02*
X104965000Y-68305000D01*
G75*
G02*
X104830000Y-68170000I0J135000D01*
G01*
X104830000Y-67900000D01*
G75*
G02*
X104965000Y-67765000I135000J0D01*
G01*
X105335000Y-67765000D01*
G75*
G02*
X105470000Y-67900000I0J-135000D01*
G01*
X105470000Y-68170000D01*
G75*
G02*
X105335000Y-68305000I-135000J0D01*
G01*
G37*
G04 #@! TD.AperFunction*
G04 #@! TA.AperFunction,SMDPad,CuDef*
G36*
G01*
X105335000Y-67285000D02*
X104965000Y-67285000D01*
G75*
G02*
X104830000Y-67150000I0J135000D01*
G01*
X104830000Y-66880000D01*
G75*
G02*
X104965000Y-66745000I135000J0D01*
G01*
X105335000Y-66745000D01*
G75*
G02*
X105470000Y-66880000I0J-135000D01*
G01*
X105470000Y-67150000D01*
G75*
G02*
X105335000Y-67285000I-135000J0D01*
G01*
G37*
G04 #@! TD.AperFunction*
G04 #@! TA.AperFunction,SMDPad,CuDef*
G36*
G01*
X98650000Y-87555000D02*
X98650000Y-87895000D01*
G75*
G02*
X98510000Y-88035000I-140000J0D01*
G01*
X98230000Y-88035000D01*
G75*
G02*
X98090000Y-87895000I0J140000D01*
G01*
X98090000Y-87555000D01*
G75*
G02*
X98230000Y-87415000I140000J0D01*
G01*
X98510000Y-87415000D01*
G75*
G02*
X98650000Y-87555000I0J-140000D01*
G01*
G37*
G04 #@! TD.AperFunction*
G04 #@! TA.AperFunction,SMDPad,CuDef*
G36*
G01*
X97690000Y-87555000D02*
X97690000Y-87895000D01*
G75*
G02*
X97550000Y-88035000I-140000J0D01*
G01*
X97270000Y-88035000D01*
G75*
G02*
X97130000Y-87895000I0J140000D01*
G01*
X97130000Y-87555000D01*
G75*
G02*
X97270000Y-87415000I140000J0D01*
G01*
X97550000Y-87415000D01*
G75*
G02*
X97690000Y-87555000I0J-140000D01*
G01*
G37*
G04 #@! TD.AperFunction*
G04 #@! TA.AperFunction,SMDPad,CuDef*
G36*
G01*
X106896100Y-81674440D02*
X106556100Y-81674440D01*
G75*
G02*
X106416100Y-81534440I0J140000D01*
G01*
X106416100Y-81254440D01*
G75*
G02*
X106556100Y-81114440I140000J0D01*
G01*
X106896100Y-81114440D01*
G75*
G02*
X107036100Y-81254440I0J-140000D01*
G01*
X107036100Y-81534440D01*
G75*
G02*
X106896100Y-81674440I-140000J0D01*
G01*
G37*
G04 #@! TD.AperFunction*
G04 #@! TA.AperFunction,SMDPad,CuDef*
G36*
G01*
X106896100Y-80714440D02*
X106556100Y-80714440D01*
G75*
G02*
X106416100Y-80574440I0J140000D01*
G01*
X106416100Y-80294440D01*
G75*
G02*
X106556100Y-80154440I140000J0D01*
G01*
X106896100Y-80154440D01*
G75*
G02*
X107036100Y-80294440I0J-140000D01*
G01*
X107036100Y-80574440D01*
G75*
G02*
X106896100Y-80714440I-140000J0D01*
G01*
G37*
G04 #@! TD.AperFunction*
G04 #@! TA.AperFunction,SMDPad,CuDef*
G36*
G01*
X103741000Y-91415400D02*
X104081000Y-91415400D01*
G75*
G02*
X104221000Y-91555400I0J-140000D01*
G01*
X104221000Y-91835400D01*
G75*
G02*
X104081000Y-91975400I-140000J0D01*
G01*
X103741000Y-91975400D01*
G75*
G02*
X103601000Y-91835400I0J140000D01*
G01*
X103601000Y-91555400D01*
G75*
G02*
X103741000Y-91415400I140000J0D01*
G01*
G37*
G04 #@! TD.AperFunction*
G04 #@! TA.AperFunction,SMDPad,CuDef*
G36*
G01*
X103741000Y-92375400D02*
X104081000Y-92375400D01*
G75*
G02*
X104221000Y-92515400I0J-140000D01*
G01*
X104221000Y-92795400D01*
G75*
G02*
X104081000Y-92935400I-140000J0D01*
G01*
X103741000Y-92935400D01*
G75*
G02*
X103601000Y-92795400I0J140000D01*
G01*
X103601000Y-92515400D01*
G75*
G02*
X103741000Y-92375400I140000J0D01*
G01*
G37*
G04 #@! TD.AperFunction*
G04 #@! TA.AperFunction,SMDPad,CuDef*
G36*
G01*
X109850000Y-87545000D02*
X109850000Y-87205000D01*
G75*
G02*
X109990000Y-87065000I140000J0D01*
G01*
X110270000Y-87065000D01*
G75*
G02*
X110410000Y-87205000I0J-140000D01*
G01*
X110410000Y-87545000D01*
G75*
G02*
X110270000Y-87685000I-140000J0D01*
G01*
X109990000Y-87685000D01*
G75*
G02*
X109850000Y-87545000I0J140000D01*
G01*
G37*
G04 #@! TD.AperFunction*
G04 #@! TA.AperFunction,SMDPad,CuDef*
G36*
G01*
X110810000Y-87545000D02*
X110810000Y-87205000D01*
G75*
G02*
X110950000Y-87065000I140000J0D01*
G01*
X111230000Y-87065000D01*
G75*
G02*
X111370000Y-87205000I0J-140000D01*
G01*
X111370000Y-87545000D01*
G75*
G02*
X111230000Y-87685000I-140000J0D01*
G01*
X110950000Y-87685000D01*
G75*
G02*
X110810000Y-87545000I0J140000D01*
G01*
G37*
G04 #@! TD.AperFunction*
G04 #@! TA.AperFunction,SMDPad,CuDef*
G36*
G01*
X98857000Y-77430100D02*
X98517000Y-77430100D01*
G75*
G02*
X98377000Y-77290100I0J140000D01*
G01*
X98377000Y-77010100D01*
G75*
G02*
X98517000Y-76870100I140000J0D01*
G01*
X98857000Y-76870100D01*
G75*
G02*
X98997000Y-77010100I0J-140000D01*
G01*
X98997000Y-77290100D01*
G75*
G02*
X98857000Y-77430100I-140000J0D01*
G01*
G37*
G04 #@! TD.AperFunction*
G04 #@! TA.AperFunction,SMDPad,CuDef*
G36*
G01*
X98857000Y-76470100D02*
X98517000Y-76470100D01*
G75*
G02*
X98377000Y-76330100I0J140000D01*
G01*
X98377000Y-76050100D01*
G75*
G02*
X98517000Y-75910100I140000J0D01*
G01*
X98857000Y-75910100D01*
G75*
G02*
X98997000Y-76050100I0J-140000D01*
G01*
X98997000Y-76330100D01*
G75*
G02*
X98857000Y-76470100I-140000J0D01*
G01*
G37*
G04 #@! TD.AperFunction*
G04 #@! TA.AperFunction,SMDPad,CuDef*
G36*
G01*
X99360000Y-82480000D02*
X99360000Y-82820000D01*
G75*
G02*
X99220000Y-82960000I-140000J0D01*
G01*
X98940000Y-82960000D01*
G75*
G02*
X98800000Y-82820000I0J140000D01*
G01*
X98800000Y-82480000D01*
G75*
G02*
X98940000Y-82340000I140000J0D01*
G01*
X99220000Y-82340000D01*
G75*
G02*
X99360000Y-82480000I0J-140000D01*
G01*
G37*
G04 #@! TD.AperFunction*
G04 #@! TA.AperFunction,SMDPad,CuDef*
G36*
G01*
X98400000Y-82480000D02*
X98400000Y-82820000D01*
G75*
G02*
X98260000Y-82960000I-140000J0D01*
G01*
X97980000Y-82960000D01*
G75*
G02*
X97840000Y-82820000I0J140000D01*
G01*
X97840000Y-82480000D01*
G75*
G02*
X97980000Y-82340000I140000J0D01*
G01*
X98260000Y-82340000D01*
G75*
G02*
X98400000Y-82480000I0J-140000D01*
G01*
G37*
G04 #@! TD.AperFunction*
G04 #@! TA.AperFunction,SMDPad,CuDef*
G36*
G01*
X104830000Y-91415000D02*
X105170000Y-91415000D01*
G75*
G02*
X105310000Y-91555000I0J-140000D01*
G01*
X105310000Y-91835000D01*
G75*
G02*
X105170000Y-91975000I-140000J0D01*
G01*
X104830000Y-91975000D01*
G75*
G02*
X104690000Y-91835000I0J140000D01*
G01*
X104690000Y-91555000D01*
G75*
G02*
X104830000Y-91415000I140000J0D01*
G01*
G37*
G04 #@! TD.AperFunction*
G04 #@! TA.AperFunction,SMDPad,CuDef*
G36*
G01*
X104830000Y-92375000D02*
X105170000Y-92375000D01*
G75*
G02*
X105310000Y-92515000I0J-140000D01*
G01*
X105310000Y-92795000D01*
G75*
G02*
X105170000Y-92935000I-140000J0D01*
G01*
X104830000Y-92935000D01*
G75*
G02*
X104690000Y-92795000I0J140000D01*
G01*
X104690000Y-92515000D01*
G75*
G02*
X104830000Y-92375000I140000J0D01*
G01*
G37*
G04 #@! TD.AperFunction*
G04 #@! TA.AperFunction,SMDPad,CuDef*
G36*
G01*
X109740000Y-85240000D02*
X109740000Y-85610000D01*
G75*
G02*
X109605000Y-85745000I-135000J0D01*
G01*
X109335000Y-85745000D01*
G75*
G02*
X109200000Y-85610000I0J135000D01*
G01*
X109200000Y-85240000D01*
G75*
G02*
X109335000Y-85105000I135000J0D01*
G01*
X109605000Y-85105000D01*
G75*
G02*
X109740000Y-85240000I0J-135000D01*
G01*
G37*
G04 #@! TD.AperFunction*
G04 #@! TA.AperFunction,SMDPad,CuDef*
G36*
G01*
X108720000Y-85240000D02*
X108720000Y-85610000D01*
G75*
G02*
X108585000Y-85745000I-135000J0D01*
G01*
X108315000Y-85745000D01*
G75*
G02*
X108180000Y-85610000I0J135000D01*
G01*
X108180000Y-85240000D01*
G75*
G02*
X108315000Y-85105000I135000J0D01*
G01*
X108585000Y-85105000D01*
G75*
G02*
X108720000Y-85240000I0J-135000D01*
G01*
G37*
G04 #@! TD.AperFunction*
G04 #@! TA.AperFunction,SMDPad,CuDef*
G36*
G01*
X110267500Y-84645000D02*
X110612500Y-84645000D01*
G75*
G02*
X110760000Y-84792500I0J-147500D01*
G01*
X110760000Y-85087500D01*
G75*
G02*
X110612500Y-85235000I-147500J0D01*
G01*
X110267500Y-85235000D01*
G75*
G02*
X110120000Y-85087500I0J147500D01*
G01*
X110120000Y-84792500D01*
G75*
G02*
X110267500Y-84645000I147500J0D01*
G01*
G37*
G04 #@! TD.AperFunction*
G04 #@! TA.AperFunction,SMDPad,CuDef*
G36*
G01*
X110267500Y-85615000D02*
X110612500Y-85615000D01*
G75*
G02*
X110760000Y-85762500I0J-147500D01*
G01*
X110760000Y-86057500D01*
G75*
G02*
X110612500Y-86205000I-147500J0D01*
G01*
X110267500Y-86205000D01*
G75*
G02*
X110120000Y-86057500I0J147500D01*
G01*
X110120000Y-85762500D01*
G75*
G02*
X110267500Y-85615000I147500J0D01*
G01*
G37*
G04 #@! TD.AperFunction*
G04 #@! TA.AperFunction,SMDPad,CuDef*
G36*
G01*
X102040000Y-87481000D02*
X102040000Y-84569000D01*
G75*
G02*
X102184000Y-84425000I144000J0D01*
G01*
X105096000Y-84425000D01*
G75*
G02*
X105240000Y-84569000I0J-144000D01*
G01*
X105240000Y-87481000D01*
G75*
G02*
X105096000Y-87625000I-144000J0D01*
G01*
X102184000Y-87625000D01*
G75*
G02*
X102040000Y-87481000I0J144000D01*
G01*
G37*
G04 #@! TD.AperFunction*
D22*
X102365000Y-84750000D03*
X103640000Y-84750000D03*
X104915000Y-84750000D03*
X102365000Y-86025000D03*
X103640000Y-86025000D03*
X104915000Y-86025000D03*
X102365000Y-87300000D03*
X103640000Y-87300000D03*
X104915000Y-87300000D03*
G04 #@! TA.AperFunction,SMDPad,CuDef*
G36*
G01*
X99765000Y-83475000D02*
X99765000Y-83375000D01*
G75*
G02*
X99815000Y-83325000I50000J0D01*
G01*
X100590000Y-83325000D01*
G75*
G02*
X100640000Y-83375000I0J-50000D01*
G01*
X100640000Y-83475000D01*
G75*
G02*
X100590000Y-83525000I-50000J0D01*
G01*
X99815000Y-83525000D01*
G75*
G02*
X99765000Y-83475000I0J50000D01*
G01*
G37*
G04 #@! TD.AperFunction*
G04 #@! TA.AperFunction,SMDPad,CuDef*
G36*
G01*
X99765000Y-83875000D02*
X99765000Y-83775000D01*
G75*
G02*
X99815000Y-83725000I50000J0D01*
G01*
X100590000Y-83725000D01*
G75*
G02*
X100640000Y-83775000I0J-50000D01*
G01*
X100640000Y-83875000D01*
G75*
G02*
X100590000Y-83925000I-50000J0D01*
G01*
X99815000Y-83925000D01*
G75*
G02*
X99765000Y-83875000I0J50000D01*
G01*
G37*
G04 #@! TD.AperFunction*
G04 #@! TA.AperFunction,SMDPad,CuDef*
G36*
G01*
X99765000Y-84275000D02*
X99765000Y-84175000D01*
G75*
G02*
X99815000Y-84125000I50000J0D01*
G01*
X100590000Y-84125000D01*
G75*
G02*
X100640000Y-84175000I0J-50000D01*
G01*
X100640000Y-84275000D01*
G75*
G02*
X100590000Y-84325000I-50000J0D01*
G01*
X99815000Y-84325000D01*
G75*
G02*
X99765000Y-84275000I0J50000D01*
G01*
G37*
G04 #@! TD.AperFunction*
G04 #@! TA.AperFunction,SMDPad,CuDef*
G36*
G01*
X99765000Y-84675000D02*
X99765000Y-84575000D01*
G75*
G02*
X99815000Y-84525000I50000J0D01*
G01*
X100590000Y-84525000D01*
G75*
G02*
X100640000Y-84575000I0J-50000D01*
G01*
X100640000Y-84675000D01*
G75*
G02*
X100590000Y-84725000I-50000J0D01*
G01*
X99815000Y-84725000D01*
G75*
G02*
X99765000Y-84675000I0J50000D01*
G01*
G37*
G04 #@! TD.AperFunction*
G04 #@! TA.AperFunction,SMDPad,CuDef*
G36*
G01*
X99765000Y-85075000D02*
X99765000Y-84975000D01*
G75*
G02*
X99815000Y-84925000I50000J0D01*
G01*
X100590000Y-84925000D01*
G75*
G02*
X100640000Y-84975000I0J-50000D01*
G01*
X100640000Y-85075000D01*
G75*
G02*
X100590000Y-85125000I-50000J0D01*
G01*
X99815000Y-85125000D01*
G75*
G02*
X99765000Y-85075000I0J50000D01*
G01*
G37*
G04 #@! TD.AperFunction*
G04 #@! TA.AperFunction,SMDPad,CuDef*
G36*
G01*
X99765000Y-85475000D02*
X99765000Y-85375000D01*
G75*
G02*
X99815000Y-85325000I50000J0D01*
G01*
X100590000Y-85325000D01*
G75*
G02*
X100640000Y-85375000I0J-50000D01*
G01*
X100640000Y-85475000D01*
G75*
G02*
X100590000Y-85525000I-50000J0D01*
G01*
X99815000Y-85525000D01*
G75*
G02*
X99765000Y-85475000I0J50000D01*
G01*
G37*
G04 #@! TD.AperFunction*
G04 #@! TA.AperFunction,SMDPad,CuDef*
G36*
G01*
X99765000Y-85875000D02*
X99765000Y-85775000D01*
G75*
G02*
X99815000Y-85725000I50000J0D01*
G01*
X100590000Y-85725000D01*
G75*
G02*
X100640000Y-85775000I0J-50000D01*
G01*
X100640000Y-85875000D01*
G75*
G02*
X100590000Y-85925000I-50000J0D01*
G01*
X99815000Y-85925000D01*
G75*
G02*
X99765000Y-85875000I0J50000D01*
G01*
G37*
G04 #@! TD.AperFunction*
G04 #@! TA.AperFunction,SMDPad,CuDef*
G36*
G01*
X99765000Y-86275000D02*
X99765000Y-86175000D01*
G75*
G02*
X99815000Y-86125000I50000J0D01*
G01*
X100590000Y-86125000D01*
G75*
G02*
X100640000Y-86175000I0J-50000D01*
G01*
X100640000Y-86275000D01*
G75*
G02*
X100590000Y-86325000I-50000J0D01*
G01*
X99815000Y-86325000D01*
G75*
G02*
X99765000Y-86275000I0J50000D01*
G01*
G37*
G04 #@! TD.AperFunction*
G04 #@! TA.AperFunction,SMDPad,CuDef*
G36*
G01*
X99765000Y-86675000D02*
X99765000Y-86575000D01*
G75*
G02*
X99815000Y-86525000I50000J0D01*
G01*
X100590000Y-86525000D01*
G75*
G02*
X100640000Y-86575000I0J-50000D01*
G01*
X100640000Y-86675000D01*
G75*
G02*
X100590000Y-86725000I-50000J0D01*
G01*
X99815000Y-86725000D01*
G75*
G02*
X99765000Y-86675000I0J50000D01*
G01*
G37*
G04 #@! TD.AperFunction*
G04 #@! TA.AperFunction,SMDPad,CuDef*
G36*
G01*
X99765000Y-87075000D02*
X99765000Y-86975000D01*
G75*
G02*
X99815000Y-86925000I50000J0D01*
G01*
X100590000Y-86925000D01*
G75*
G02*
X100640000Y-86975000I0J-50000D01*
G01*
X100640000Y-87075000D01*
G75*
G02*
X100590000Y-87125000I-50000J0D01*
G01*
X99815000Y-87125000D01*
G75*
G02*
X99765000Y-87075000I0J50000D01*
G01*
G37*
G04 #@! TD.AperFunction*
G04 #@! TA.AperFunction,SMDPad,CuDef*
G36*
G01*
X99765000Y-87475000D02*
X99765000Y-87375000D01*
G75*
G02*
X99815000Y-87325000I50000J0D01*
G01*
X100590000Y-87325000D01*
G75*
G02*
X100640000Y-87375000I0J-50000D01*
G01*
X100640000Y-87475000D01*
G75*
G02*
X100590000Y-87525000I-50000J0D01*
G01*
X99815000Y-87525000D01*
G75*
G02*
X99765000Y-87475000I0J50000D01*
G01*
G37*
G04 #@! TD.AperFunction*
G04 #@! TA.AperFunction,SMDPad,CuDef*
G36*
G01*
X99765000Y-87875000D02*
X99765000Y-87775000D01*
G75*
G02*
X99815000Y-87725000I50000J0D01*
G01*
X100590000Y-87725000D01*
G75*
G02*
X100640000Y-87775000I0J-50000D01*
G01*
X100640000Y-87875000D01*
G75*
G02*
X100590000Y-87925000I-50000J0D01*
G01*
X99815000Y-87925000D01*
G75*
G02*
X99765000Y-87875000I0J50000D01*
G01*
G37*
G04 #@! TD.AperFunction*
G04 #@! TA.AperFunction,SMDPad,CuDef*
G36*
G01*
X99765000Y-88275000D02*
X99765000Y-88175000D01*
G75*
G02*
X99815000Y-88125000I50000J0D01*
G01*
X100590000Y-88125000D01*
G75*
G02*
X100640000Y-88175000I0J-50000D01*
G01*
X100640000Y-88275000D01*
G75*
G02*
X100590000Y-88325000I-50000J0D01*
G01*
X99815000Y-88325000D01*
G75*
G02*
X99765000Y-88275000I0J50000D01*
G01*
G37*
G04 #@! TD.AperFunction*
G04 #@! TA.AperFunction,SMDPad,CuDef*
G36*
G01*
X99765000Y-88675000D02*
X99765000Y-88575000D01*
G75*
G02*
X99815000Y-88525000I50000J0D01*
G01*
X100590000Y-88525000D01*
G75*
G02*
X100640000Y-88575000I0J-50000D01*
G01*
X100640000Y-88675000D01*
G75*
G02*
X100590000Y-88725000I-50000J0D01*
G01*
X99815000Y-88725000D01*
G75*
G02*
X99765000Y-88675000I0J50000D01*
G01*
G37*
G04 #@! TD.AperFunction*
G04 #@! TA.AperFunction,SMDPad,CuDef*
G36*
G01*
X100940000Y-89850000D02*
X100940000Y-89075000D01*
G75*
G02*
X100990000Y-89025000I50000J0D01*
G01*
X101090000Y-89025000D01*
G75*
G02*
X101140000Y-89075000I0J-50000D01*
G01*
X101140000Y-89850000D01*
G75*
G02*
X101090000Y-89900000I-50000J0D01*
G01*
X100990000Y-89900000D01*
G75*
G02*
X100940000Y-89850000I0J50000D01*
G01*
G37*
G04 #@! TD.AperFunction*
G04 #@! TA.AperFunction,SMDPad,CuDef*
G36*
G01*
X101340000Y-89850000D02*
X101340000Y-89075000D01*
G75*
G02*
X101390000Y-89025000I50000J0D01*
G01*
X101490000Y-89025000D01*
G75*
G02*
X101540000Y-89075000I0J-50000D01*
G01*
X101540000Y-89850000D01*
G75*
G02*
X101490000Y-89900000I-50000J0D01*
G01*
X101390000Y-89900000D01*
G75*
G02*
X101340000Y-89850000I0J50000D01*
G01*
G37*
G04 #@! TD.AperFunction*
G04 #@! TA.AperFunction,SMDPad,CuDef*
G36*
G01*
X101740000Y-89850000D02*
X101740000Y-89075000D01*
G75*
G02*
X101790000Y-89025000I50000J0D01*
G01*
X101890000Y-89025000D01*
G75*
G02*
X101940000Y-89075000I0J-50000D01*
G01*
X101940000Y-89850000D01*
G75*
G02*
X101890000Y-89900000I-50000J0D01*
G01*
X101790000Y-89900000D01*
G75*
G02*
X101740000Y-89850000I0J50000D01*
G01*
G37*
G04 #@! TD.AperFunction*
G04 #@! TA.AperFunction,SMDPad,CuDef*
G36*
G01*
X102140000Y-89850000D02*
X102140000Y-89075000D01*
G75*
G02*
X102190000Y-89025000I50000J0D01*
G01*
X102290000Y-89025000D01*
G75*
G02*
X102340000Y-89075000I0J-50000D01*
G01*
X102340000Y-89850000D01*
G75*
G02*
X102290000Y-89900000I-50000J0D01*
G01*
X102190000Y-89900000D01*
G75*
G02*
X102140000Y-89850000I0J50000D01*
G01*
G37*
G04 #@! TD.AperFunction*
G04 #@! TA.AperFunction,SMDPad,CuDef*
G36*
G01*
X102540000Y-89850000D02*
X102540000Y-89075000D01*
G75*
G02*
X102590000Y-89025000I50000J0D01*
G01*
X102690000Y-89025000D01*
G75*
G02*
X102740000Y-89075000I0J-50000D01*
G01*
X102740000Y-89850000D01*
G75*
G02*
X102690000Y-89900000I-50000J0D01*
G01*
X102590000Y-89900000D01*
G75*
G02*
X102540000Y-89850000I0J50000D01*
G01*
G37*
G04 #@! TD.AperFunction*
G04 #@! TA.AperFunction,SMDPad,CuDef*
G36*
G01*
X102940000Y-89850000D02*
X102940000Y-89075000D01*
G75*
G02*
X102990000Y-89025000I50000J0D01*
G01*
X103090000Y-89025000D01*
G75*
G02*
X103140000Y-89075000I0J-50000D01*
G01*
X103140000Y-89850000D01*
G75*
G02*
X103090000Y-89900000I-50000J0D01*
G01*
X102990000Y-89900000D01*
G75*
G02*
X102940000Y-89850000I0J50000D01*
G01*
G37*
G04 #@! TD.AperFunction*
G04 #@! TA.AperFunction,SMDPad,CuDef*
G36*
G01*
X103340000Y-89850000D02*
X103340000Y-89075000D01*
G75*
G02*
X103390000Y-89025000I50000J0D01*
G01*
X103490000Y-89025000D01*
G75*
G02*
X103540000Y-89075000I0J-50000D01*
G01*
X103540000Y-89850000D01*
G75*
G02*
X103490000Y-89900000I-50000J0D01*
G01*
X103390000Y-89900000D01*
G75*
G02*
X103340000Y-89850000I0J50000D01*
G01*
G37*
G04 #@! TD.AperFunction*
G04 #@! TA.AperFunction,SMDPad,CuDef*
G36*
G01*
X103740000Y-89850000D02*
X103740000Y-89075000D01*
G75*
G02*
X103790000Y-89025000I50000J0D01*
G01*
X103890000Y-89025000D01*
G75*
G02*
X103940000Y-89075000I0J-50000D01*
G01*
X103940000Y-89850000D01*
G75*
G02*
X103890000Y-89900000I-50000J0D01*
G01*
X103790000Y-89900000D01*
G75*
G02*
X103740000Y-89850000I0J50000D01*
G01*
G37*
G04 #@! TD.AperFunction*
G04 #@! TA.AperFunction,SMDPad,CuDef*
G36*
G01*
X104140000Y-89850000D02*
X104140000Y-89075000D01*
G75*
G02*
X104190000Y-89025000I50000J0D01*
G01*
X104290000Y-89025000D01*
G75*
G02*
X104340000Y-89075000I0J-50000D01*
G01*
X104340000Y-89850000D01*
G75*
G02*
X104290000Y-89900000I-50000J0D01*
G01*
X104190000Y-89900000D01*
G75*
G02*
X104140000Y-89850000I0J50000D01*
G01*
G37*
G04 #@! TD.AperFunction*
G04 #@! TA.AperFunction,SMDPad,CuDef*
G36*
G01*
X104540000Y-89850000D02*
X104540000Y-89075000D01*
G75*
G02*
X104590000Y-89025000I50000J0D01*
G01*
X104690000Y-89025000D01*
G75*
G02*
X104740000Y-89075000I0J-50000D01*
G01*
X104740000Y-89850000D01*
G75*
G02*
X104690000Y-89900000I-50000J0D01*
G01*
X104590000Y-89900000D01*
G75*
G02*
X104540000Y-89850000I0J50000D01*
G01*
G37*
G04 #@! TD.AperFunction*
G04 #@! TA.AperFunction,SMDPad,CuDef*
G36*
G01*
X104940000Y-89850000D02*
X104940000Y-89075000D01*
G75*
G02*
X104990000Y-89025000I50000J0D01*
G01*
X105090000Y-89025000D01*
G75*
G02*
X105140000Y-89075000I0J-50000D01*
G01*
X105140000Y-89850000D01*
G75*
G02*
X105090000Y-89900000I-50000J0D01*
G01*
X104990000Y-89900000D01*
G75*
G02*
X104940000Y-89850000I0J50000D01*
G01*
G37*
G04 #@! TD.AperFunction*
G04 #@! TA.AperFunction,SMDPad,CuDef*
G36*
G01*
X105340000Y-89850000D02*
X105340000Y-89075000D01*
G75*
G02*
X105390000Y-89025000I50000J0D01*
G01*
X105490000Y-89025000D01*
G75*
G02*
X105540000Y-89075000I0J-50000D01*
G01*
X105540000Y-89850000D01*
G75*
G02*
X105490000Y-89900000I-50000J0D01*
G01*
X105390000Y-89900000D01*
G75*
G02*
X105340000Y-89850000I0J50000D01*
G01*
G37*
G04 #@! TD.AperFunction*
G04 #@! TA.AperFunction,SMDPad,CuDef*
G36*
G01*
X105740000Y-89850000D02*
X105740000Y-89075000D01*
G75*
G02*
X105790000Y-89025000I50000J0D01*
G01*
X105890000Y-89025000D01*
G75*
G02*
X105940000Y-89075000I0J-50000D01*
G01*
X105940000Y-89850000D01*
G75*
G02*
X105890000Y-89900000I-50000J0D01*
G01*
X105790000Y-89900000D01*
G75*
G02*
X105740000Y-89850000I0J50000D01*
G01*
G37*
G04 #@! TD.AperFunction*
G04 #@! TA.AperFunction,SMDPad,CuDef*
G36*
G01*
X106140000Y-89850000D02*
X106140000Y-89075000D01*
G75*
G02*
X106190000Y-89025000I50000J0D01*
G01*
X106290000Y-89025000D01*
G75*
G02*
X106340000Y-89075000I0J-50000D01*
G01*
X106340000Y-89850000D01*
G75*
G02*
X106290000Y-89900000I-50000J0D01*
G01*
X106190000Y-89900000D01*
G75*
G02*
X106140000Y-89850000I0J50000D01*
G01*
G37*
G04 #@! TD.AperFunction*
G04 #@! TA.AperFunction,SMDPad,CuDef*
G36*
G01*
X106640000Y-88675000D02*
X106640000Y-88575000D01*
G75*
G02*
X106690000Y-88525000I50000J0D01*
G01*
X107465000Y-88525000D01*
G75*
G02*
X107515000Y-88575000I0J-50000D01*
G01*
X107515000Y-88675000D01*
G75*
G02*
X107465000Y-88725000I-50000J0D01*
G01*
X106690000Y-88725000D01*
G75*
G02*
X106640000Y-88675000I0J50000D01*
G01*
G37*
G04 #@! TD.AperFunction*
G04 #@! TA.AperFunction,SMDPad,CuDef*
G36*
G01*
X106640000Y-88275000D02*
X106640000Y-88175000D01*
G75*
G02*
X106690000Y-88125000I50000J0D01*
G01*
X107465000Y-88125000D01*
G75*
G02*
X107515000Y-88175000I0J-50000D01*
G01*
X107515000Y-88275000D01*
G75*
G02*
X107465000Y-88325000I-50000J0D01*
G01*
X106690000Y-88325000D01*
G75*
G02*
X106640000Y-88275000I0J50000D01*
G01*
G37*
G04 #@! TD.AperFunction*
G04 #@! TA.AperFunction,SMDPad,CuDef*
G36*
G01*
X106640000Y-87875000D02*
X106640000Y-87775000D01*
G75*
G02*
X106690000Y-87725000I50000J0D01*
G01*
X107465000Y-87725000D01*
G75*
G02*
X107515000Y-87775000I0J-50000D01*
G01*
X107515000Y-87875000D01*
G75*
G02*
X107465000Y-87925000I-50000J0D01*
G01*
X106690000Y-87925000D01*
G75*
G02*
X106640000Y-87875000I0J50000D01*
G01*
G37*
G04 #@! TD.AperFunction*
G04 #@! TA.AperFunction,SMDPad,CuDef*
G36*
G01*
X106640000Y-87475000D02*
X106640000Y-87375000D01*
G75*
G02*
X106690000Y-87325000I50000J0D01*
G01*
X107465000Y-87325000D01*
G75*
G02*
X107515000Y-87375000I0J-50000D01*
G01*
X107515000Y-87475000D01*
G75*
G02*
X107465000Y-87525000I-50000J0D01*
G01*
X106690000Y-87525000D01*
G75*
G02*
X106640000Y-87475000I0J50000D01*
G01*
G37*
G04 #@! TD.AperFunction*
G04 #@! TA.AperFunction,SMDPad,CuDef*
G36*
G01*
X106640000Y-87075000D02*
X106640000Y-86975000D01*
G75*
G02*
X106690000Y-86925000I50000J0D01*
G01*
X107465000Y-86925000D01*
G75*
G02*
X107515000Y-86975000I0J-50000D01*
G01*
X107515000Y-87075000D01*
G75*
G02*
X107465000Y-87125000I-50000J0D01*
G01*
X106690000Y-87125000D01*
G75*
G02*
X106640000Y-87075000I0J50000D01*
G01*
G37*
G04 #@! TD.AperFunction*
G04 #@! TA.AperFunction,SMDPad,CuDef*
G36*
G01*
X106640000Y-86675000D02*
X106640000Y-86575000D01*
G75*
G02*
X106690000Y-86525000I50000J0D01*
G01*
X107465000Y-86525000D01*
G75*
G02*
X107515000Y-86575000I0J-50000D01*
G01*
X107515000Y-86675000D01*
G75*
G02*
X107465000Y-86725000I-50000J0D01*
G01*
X106690000Y-86725000D01*
G75*
G02*
X106640000Y-86675000I0J50000D01*
G01*
G37*
G04 #@! TD.AperFunction*
G04 #@! TA.AperFunction,SMDPad,CuDef*
G36*
G01*
X106640000Y-86275000D02*
X106640000Y-86175000D01*
G75*
G02*
X106690000Y-86125000I50000J0D01*
G01*
X107465000Y-86125000D01*
G75*
G02*
X107515000Y-86175000I0J-50000D01*
G01*
X107515000Y-86275000D01*
G75*
G02*
X107465000Y-86325000I-50000J0D01*
G01*
X106690000Y-86325000D01*
G75*
G02*
X106640000Y-86275000I0J50000D01*
G01*
G37*
G04 #@! TD.AperFunction*
G04 #@! TA.AperFunction,SMDPad,CuDef*
G36*
G01*
X106640000Y-85875000D02*
X106640000Y-85775000D01*
G75*
G02*
X106690000Y-85725000I50000J0D01*
G01*
X107465000Y-85725000D01*
G75*
G02*
X107515000Y-85775000I0J-50000D01*
G01*
X107515000Y-85875000D01*
G75*
G02*
X107465000Y-85925000I-50000J0D01*
G01*
X106690000Y-85925000D01*
G75*
G02*
X106640000Y-85875000I0J50000D01*
G01*
G37*
G04 #@! TD.AperFunction*
G04 #@! TA.AperFunction,SMDPad,CuDef*
G36*
G01*
X106640000Y-85475000D02*
X106640000Y-85375000D01*
G75*
G02*
X106690000Y-85325000I50000J0D01*
G01*
X107465000Y-85325000D01*
G75*
G02*
X107515000Y-85375000I0J-50000D01*
G01*
X107515000Y-85475000D01*
G75*
G02*
X107465000Y-85525000I-50000J0D01*
G01*
X106690000Y-85525000D01*
G75*
G02*
X106640000Y-85475000I0J50000D01*
G01*
G37*
G04 #@! TD.AperFunction*
G04 #@! TA.AperFunction,SMDPad,CuDef*
G36*
G01*
X106640000Y-85075000D02*
X106640000Y-84975000D01*
G75*
G02*
X106690000Y-84925000I50000J0D01*
G01*
X107465000Y-84925000D01*
G75*
G02*
X107515000Y-84975000I0J-50000D01*
G01*
X107515000Y-85075000D01*
G75*
G02*
X107465000Y-85125000I-50000J0D01*
G01*
X106690000Y-85125000D01*
G75*
G02*
X106640000Y-85075000I0J50000D01*
G01*
G37*
G04 #@! TD.AperFunction*
G04 #@! TA.AperFunction,SMDPad,CuDef*
G36*
G01*
X106640000Y-84675000D02*
X106640000Y-84575000D01*
G75*
G02*
X106690000Y-84525000I50000J0D01*
G01*
X107465000Y-84525000D01*
G75*
G02*
X107515000Y-84575000I0J-50000D01*
G01*
X107515000Y-84675000D01*
G75*
G02*
X107465000Y-84725000I-50000J0D01*
G01*
X106690000Y-84725000D01*
G75*
G02*
X106640000Y-84675000I0J50000D01*
G01*
G37*
G04 #@! TD.AperFunction*
G04 #@! TA.AperFunction,SMDPad,CuDef*
G36*
G01*
X106640000Y-84275000D02*
X106640000Y-84175000D01*
G75*
G02*
X106690000Y-84125000I50000J0D01*
G01*
X107465000Y-84125000D01*
G75*
G02*
X107515000Y-84175000I0J-50000D01*
G01*
X107515000Y-84275000D01*
G75*
G02*
X107465000Y-84325000I-50000J0D01*
G01*
X106690000Y-84325000D01*
G75*
G02*
X106640000Y-84275000I0J50000D01*
G01*
G37*
G04 #@! TD.AperFunction*
G04 #@! TA.AperFunction,SMDPad,CuDef*
G36*
G01*
X106640000Y-83875000D02*
X106640000Y-83775000D01*
G75*
G02*
X106690000Y-83725000I50000J0D01*
G01*
X107465000Y-83725000D01*
G75*
G02*
X107515000Y-83775000I0J-50000D01*
G01*
X107515000Y-83875000D01*
G75*
G02*
X107465000Y-83925000I-50000J0D01*
G01*
X106690000Y-83925000D01*
G75*
G02*
X106640000Y-83875000I0J50000D01*
G01*
G37*
G04 #@! TD.AperFunction*
G04 #@! TA.AperFunction,SMDPad,CuDef*
G36*
G01*
X106640000Y-83475000D02*
X106640000Y-83375000D01*
G75*
G02*
X106690000Y-83325000I50000J0D01*
G01*
X107465000Y-83325000D01*
G75*
G02*
X107515000Y-83375000I0J-50000D01*
G01*
X107515000Y-83475000D01*
G75*
G02*
X107465000Y-83525000I-50000J0D01*
G01*
X106690000Y-83525000D01*
G75*
G02*
X106640000Y-83475000I0J50000D01*
G01*
G37*
G04 #@! TD.AperFunction*
G04 #@! TA.AperFunction,SMDPad,CuDef*
G36*
G01*
X106140000Y-82975000D02*
X106140000Y-82200000D01*
G75*
G02*
X106190000Y-82150000I50000J0D01*
G01*
X106290000Y-82150000D01*
G75*
G02*
X106340000Y-82200000I0J-50000D01*
G01*
X106340000Y-82975000D01*
G75*
G02*
X106290000Y-83025000I-50000J0D01*
G01*
X106190000Y-83025000D01*
G75*
G02*
X106140000Y-82975000I0J50000D01*
G01*
G37*
G04 #@! TD.AperFunction*
G04 #@! TA.AperFunction,SMDPad,CuDef*
G36*
G01*
X105740000Y-82975000D02*
X105740000Y-82200000D01*
G75*
G02*
X105790000Y-82150000I50000J0D01*
G01*
X105890000Y-82150000D01*
G75*
G02*
X105940000Y-82200000I0J-50000D01*
G01*
X105940000Y-82975000D01*
G75*
G02*
X105890000Y-83025000I-50000J0D01*
G01*
X105790000Y-83025000D01*
G75*
G02*
X105740000Y-82975000I0J50000D01*
G01*
G37*
G04 #@! TD.AperFunction*
G04 #@! TA.AperFunction,SMDPad,CuDef*
G36*
G01*
X105340000Y-82975000D02*
X105340000Y-82200000D01*
G75*
G02*
X105390000Y-82150000I50000J0D01*
G01*
X105490000Y-82150000D01*
G75*
G02*
X105540000Y-82200000I0J-50000D01*
G01*
X105540000Y-82975000D01*
G75*
G02*
X105490000Y-83025000I-50000J0D01*
G01*
X105390000Y-83025000D01*
G75*
G02*
X105340000Y-82975000I0J50000D01*
G01*
G37*
G04 #@! TD.AperFunction*
G04 #@! TA.AperFunction,SMDPad,CuDef*
G36*
G01*
X104940000Y-82975000D02*
X104940000Y-82200000D01*
G75*
G02*
X104990000Y-82150000I50000J0D01*
G01*
X105090000Y-82150000D01*
G75*
G02*
X105140000Y-82200000I0J-50000D01*
G01*
X105140000Y-82975000D01*
G75*
G02*
X105090000Y-83025000I-50000J0D01*
G01*
X104990000Y-83025000D01*
G75*
G02*
X104940000Y-82975000I0J50000D01*
G01*
G37*
G04 #@! TD.AperFunction*
G04 #@! TA.AperFunction,SMDPad,CuDef*
G36*
G01*
X104540000Y-82975000D02*
X104540000Y-82200000D01*
G75*
G02*
X104590000Y-82150000I50000J0D01*
G01*
X104690000Y-82150000D01*
G75*
G02*
X104740000Y-82200000I0J-50000D01*
G01*
X104740000Y-82975000D01*
G75*
G02*
X104690000Y-83025000I-50000J0D01*
G01*
X104590000Y-83025000D01*
G75*
G02*
X104540000Y-82975000I0J50000D01*
G01*
G37*
G04 #@! TD.AperFunction*
G04 #@! TA.AperFunction,SMDPad,CuDef*
G36*
G01*
X104140000Y-82975000D02*
X104140000Y-82200000D01*
G75*
G02*
X104190000Y-82150000I50000J0D01*
G01*
X104290000Y-82150000D01*
G75*
G02*
X104340000Y-82200000I0J-50000D01*
G01*
X104340000Y-82975000D01*
G75*
G02*
X104290000Y-83025000I-50000J0D01*
G01*
X104190000Y-83025000D01*
G75*
G02*
X104140000Y-82975000I0J50000D01*
G01*
G37*
G04 #@! TD.AperFunction*
G04 #@! TA.AperFunction,SMDPad,CuDef*
G36*
G01*
X103740000Y-82975000D02*
X103740000Y-82200000D01*
G75*
G02*
X103790000Y-82150000I50000J0D01*
G01*
X103890000Y-82150000D01*
G75*
G02*
X103940000Y-82200000I0J-50000D01*
G01*
X103940000Y-82975000D01*
G75*
G02*
X103890000Y-83025000I-50000J0D01*
G01*
X103790000Y-83025000D01*
G75*
G02*
X103740000Y-82975000I0J50000D01*
G01*
G37*
G04 #@! TD.AperFunction*
G04 #@! TA.AperFunction,SMDPad,CuDef*
G36*
G01*
X103340000Y-82975000D02*
X103340000Y-82200000D01*
G75*
G02*
X103390000Y-82150000I50000J0D01*
G01*
X103490000Y-82150000D01*
G75*
G02*
X103540000Y-82200000I0J-50000D01*
G01*
X103540000Y-82975000D01*
G75*
G02*
X103490000Y-83025000I-50000J0D01*
G01*
X103390000Y-83025000D01*
G75*
G02*
X103340000Y-82975000I0J50000D01*
G01*
G37*
G04 #@! TD.AperFunction*
G04 #@! TA.AperFunction,SMDPad,CuDef*
G36*
G01*
X102940000Y-82975000D02*
X102940000Y-82200000D01*
G75*
G02*
X102990000Y-82150000I50000J0D01*
G01*
X103090000Y-82150000D01*
G75*
G02*
X103140000Y-82200000I0J-50000D01*
G01*
X103140000Y-82975000D01*
G75*
G02*
X103090000Y-83025000I-50000J0D01*
G01*
X102990000Y-83025000D01*
G75*
G02*
X102940000Y-82975000I0J50000D01*
G01*
G37*
G04 #@! TD.AperFunction*
G04 #@! TA.AperFunction,SMDPad,CuDef*
G36*
G01*
X102540000Y-82975000D02*
X102540000Y-82200000D01*
G75*
G02*
X102590000Y-82150000I50000J0D01*
G01*
X102690000Y-82150000D01*
G75*
G02*
X102740000Y-82200000I0J-50000D01*
G01*
X102740000Y-82975000D01*
G75*
G02*
X102690000Y-83025000I-50000J0D01*
G01*
X102590000Y-83025000D01*
G75*
G02*
X102540000Y-82975000I0J50000D01*
G01*
G37*
G04 #@! TD.AperFunction*
G04 #@! TA.AperFunction,SMDPad,CuDef*
G36*
G01*
X102140000Y-82975000D02*
X102140000Y-82200000D01*
G75*
G02*
X102190000Y-82150000I50000J0D01*
G01*
X102290000Y-82150000D01*
G75*
G02*
X102340000Y-82200000I0J-50000D01*
G01*
X102340000Y-82975000D01*
G75*
G02*
X102290000Y-83025000I-50000J0D01*
G01*
X102190000Y-83025000D01*
G75*
G02*
X102140000Y-82975000I0J50000D01*
G01*
G37*
G04 #@! TD.AperFunction*
G04 #@! TA.AperFunction,SMDPad,CuDef*
G36*
G01*
X101740000Y-82975000D02*
X101740000Y-82200000D01*
G75*
G02*
X101790000Y-82150000I50000J0D01*
G01*
X101890000Y-82150000D01*
G75*
G02*
X101940000Y-82200000I0J-50000D01*
G01*
X101940000Y-82975000D01*
G75*
G02*
X101890000Y-83025000I-50000J0D01*
G01*
X101790000Y-83025000D01*
G75*
G02*
X101740000Y-82975000I0J50000D01*
G01*
G37*
G04 #@! TD.AperFunction*
G04 #@! TA.AperFunction,SMDPad,CuDef*
G36*
G01*
X101340000Y-82975000D02*
X101340000Y-82200000D01*
G75*
G02*
X101390000Y-82150000I50000J0D01*
G01*
X101490000Y-82150000D01*
G75*
G02*
X101540000Y-82200000I0J-50000D01*
G01*
X101540000Y-82975000D01*
G75*
G02*
X101490000Y-83025000I-50000J0D01*
G01*
X101390000Y-83025000D01*
G75*
G02*
X101340000Y-82975000I0J50000D01*
G01*
G37*
G04 #@! TD.AperFunction*
G04 #@! TA.AperFunction,SMDPad,CuDef*
G36*
G01*
X100940000Y-82975000D02*
X100940000Y-82200000D01*
G75*
G02*
X100990000Y-82150000I50000J0D01*
G01*
X101090000Y-82150000D01*
G75*
G02*
X101140000Y-82200000I0J-50000D01*
G01*
X101140000Y-82975000D01*
G75*
G02*
X101090000Y-83025000I-50000J0D01*
G01*
X100990000Y-83025000D01*
G75*
G02*
X100940000Y-82975000I0J50000D01*
G01*
G37*
G04 #@! TD.AperFunction*
D12*
X101150000Y-106925000D03*
G04 #@! TA.AperFunction,ComponentPad*
G36*
G01*
X104115000Y-107775000D02*
X103265000Y-107775000D01*
G75*
G02*
X102840000Y-107350000I0J425000D01*
G01*
X102840000Y-106500000D01*
G75*
G02*
X103265000Y-106075000I425000J0D01*
G01*
X104115000Y-106075000D01*
G75*
G02*
X104540000Y-106500000I0J-425000D01*
G01*
X104540000Y-107350000D01*
G75*
G02*
X104115000Y-107775000I-425000J0D01*
G01*
G37*
G04 #@! TD.AperFunction*
X106230000Y-106925000D03*
D23*
X100470000Y-94675000D03*
X99710000Y-76185000D03*
X101066200Y-79907200D03*
D24*
X108500000Y-90125000D03*
X96450000Y-61925000D03*
X96600000Y-87325000D03*
X97291928Y-84725000D03*
X105103040Y-93639840D03*
X100375000Y-64620000D03*
X100200000Y-89575000D03*
X97725000Y-81875000D03*
D23*
X109990000Y-80895000D03*
X96960000Y-90265000D03*
X96240000Y-65125000D03*
X97770000Y-75745000D03*
X97680000Y-101425000D03*
X110190000Y-101905000D03*
X98320000Y-72915000D03*
X110440000Y-84940000D03*
X106850000Y-64620000D03*
X97990000Y-74235000D03*
X110310000Y-73665000D03*
X105732960Y-80436980D03*
X100800000Y-92225000D03*
D24*
X105065000Y-83725000D03*
X104270000Y-88125000D03*
X104284269Y-90880277D03*
D23*
X105732960Y-81396992D03*
X103301372Y-80820400D03*
D24*
X96700000Y-85335000D03*
X97816938Y-85719993D03*
X98410926Y-85262067D03*
X98660000Y-84525000D03*
X107600000Y-92225000D03*
X100262500Y-82362500D03*
D23*
X107040000Y-69035000D03*
X106250000Y-68524980D03*
X103849995Y-63446195D03*
X102844200Y-63448000D03*
X103349989Y-62965389D03*
X104342800Y-62965406D03*
X106520222Y-76222400D03*
X101125400Y-83490000D03*
D24*
X101170000Y-76206400D03*
D23*
X109060000Y-73685000D03*
D25*
X105200000Y-92455000D02*
X105200000Y-92700002D01*
X112590000Y-89205000D02*
X112568000Y-89205000D01*
X99625001Y-59575000D02*
X99575001Y-59525000D01*
D26*
X100375000Y-64620000D02*
X100375000Y-64620000D01*
D25*
X98120000Y-82650000D02*
X98120000Y-82270000D01*
X98120000Y-82270000D02*
X97725000Y-81875000D01*
X103690000Y-106925000D02*
X103690000Y-105867400D01*
X105735500Y-80434440D02*
X105732960Y-80436980D01*
X106726100Y-80434440D02*
X105735500Y-80434440D01*
X97000000Y-87725000D02*
X96600000Y-87325000D01*
X97410000Y-87725000D02*
X97000000Y-87725000D01*
D27*
X111964200Y-89205000D02*
X112550000Y-89205000D01*
X95900000Y-89205000D02*
X94750000Y-89205000D01*
X96960000Y-90265000D02*
X95900000Y-89205000D01*
X110440000Y-84935000D02*
X110440000Y-84940000D01*
X110440000Y-84940000D02*
X110440000Y-84940000D01*
D28*
X108855000Y-70050000D02*
X110175000Y-70050000D01*
D25*
X105732960Y-80436980D02*
X105732960Y-80436980D01*
D29*
X95490000Y-76505000D02*
X94750000Y-76505000D01*
X96050000Y-77065000D02*
X95490000Y-76505000D01*
D25*
X95830000Y-76505000D02*
X94750000Y-76505000D01*
X96050000Y-76725000D02*
X95830000Y-76505000D01*
X96050000Y-83058808D02*
X96050000Y-76725000D01*
X97291928Y-84300736D02*
X96050000Y-83058808D01*
X97291928Y-84725000D02*
X97291928Y-84300736D01*
D30*
X99710000Y-76185000D02*
X100339200Y-75555800D01*
D27*
X107885000Y-67825000D02*
X107475000Y-67415000D01*
X108680000Y-68620000D02*
X107885000Y-67825000D01*
X108680000Y-69035000D02*
X108680000Y-68620000D01*
X102640000Y-89462500D02*
X102640000Y-90310000D01*
X100800000Y-92150000D02*
X100800000Y-92225000D01*
X102640000Y-90310000D02*
X100800000Y-92150000D01*
D30*
X100440800Y-75454200D02*
X100339200Y-75555800D01*
X101313200Y-75454200D02*
X100440800Y-75454200D01*
D27*
X107970000Y-63705000D02*
X107970000Y-59525000D01*
D25*
X112590000Y-58725000D02*
X112590000Y-59435000D01*
D26*
X112530000Y-59035000D02*
X112530000Y-58725000D01*
D27*
X106250000Y-67505000D02*
X106250000Y-67025000D01*
X106100000Y-66875000D02*
X106100000Y-65120000D01*
X106250000Y-67025000D02*
X106100000Y-66875000D01*
D26*
X106100000Y-67355000D02*
X106250000Y-67505000D01*
X106100000Y-64620000D02*
X106100000Y-67355000D01*
D25*
X105000000Y-91695000D02*
X105000000Y-91596008D01*
D29*
X105000000Y-91596008D02*
X104284269Y-90880277D01*
D25*
X104290000Y-90874546D02*
X104284269Y-90880277D01*
D29*
X104240000Y-90824546D02*
X104290000Y-90874546D01*
X104240000Y-89462500D02*
X104240000Y-90824546D01*
X105440000Y-81689952D02*
X105732960Y-81396992D01*
X105440000Y-82537500D02*
X105440000Y-81689952D01*
D25*
X103440000Y-80959028D02*
X103301372Y-80820400D01*
X103440000Y-82537500D02*
X103440000Y-80959028D01*
D29*
X98687000Y-76190100D02*
X98687000Y-76128000D01*
X98687000Y-76128000D02*
X100190000Y-74625000D01*
D25*
X95925000Y-105790000D02*
X94690000Y-107025000D01*
X96525019Y-96302815D02*
X96525019Y-103074259D01*
X96850028Y-95977804D02*
X96525019Y-96302815D01*
X96850028Y-93873528D02*
X96850028Y-95977804D01*
X99498536Y-91225020D02*
X96850028Y-93873528D01*
X95925000Y-103674278D02*
X95925000Y-105790000D01*
X101233484Y-91225020D02*
X99498536Y-91225020D01*
X96525019Y-103074259D02*
X95925000Y-103674278D01*
X102240000Y-90218504D02*
X101233484Y-91225020D01*
X102240000Y-89512500D02*
X102240000Y-90218504D01*
X96225010Y-96178546D02*
X96225010Y-102949990D01*
X96550020Y-93749258D02*
X96550019Y-95853537D01*
X96225010Y-102949990D02*
X94690000Y-104485000D01*
X101141742Y-90925010D02*
X99374268Y-90925010D01*
X96550019Y-95853537D02*
X96225010Y-96178546D01*
X101840000Y-90226752D02*
X101141742Y-90925010D01*
X99374268Y-90925010D02*
X96550020Y-93749258D01*
X101840000Y-89512500D02*
X101840000Y-90226752D01*
X101050000Y-90625000D02*
X101440000Y-90235000D01*
X101440000Y-90235000D02*
X101440000Y-89512500D01*
X99250000Y-90625000D02*
X101050000Y-90625000D01*
X96250010Y-93624990D02*
X99250000Y-90625000D01*
X96250010Y-95729268D02*
X96250010Y-93624990D01*
X95925000Y-96054278D02*
X96250010Y-95729268D01*
X95925000Y-98170000D02*
X95925000Y-96054278D01*
X94690000Y-99405000D02*
X95925000Y-98170000D01*
X100177500Y-90325000D02*
X101040000Y-89462500D01*
X99114278Y-90325000D02*
X100177500Y-90325000D01*
X95950000Y-93489278D02*
X99114278Y-90325000D01*
X95950000Y-95605000D02*
X95950000Y-93489278D01*
X94690000Y-96865000D02*
X95950000Y-95605000D01*
X95765001Y-93249999D02*
X94690000Y-94325000D01*
X100252500Y-88625000D02*
X100252500Y-88762500D01*
X100252500Y-88762500D02*
X95765001Y-93249999D01*
X99300000Y-89225000D02*
X96740000Y-91785000D01*
X96740000Y-91785000D02*
X94690000Y-91785000D01*
X99300000Y-88550000D02*
X99300000Y-89225000D01*
X99625000Y-88225000D02*
X99300000Y-88550000D01*
X100252500Y-88225000D02*
X99625000Y-88225000D01*
X95617500Y-87632500D02*
X94690000Y-86705000D01*
X96710000Y-88725000D02*
X95617500Y-87632500D01*
X98692861Y-88725000D02*
X96710000Y-88725000D01*
X99592861Y-87825000D02*
X98692861Y-88725000D01*
X100252500Y-87825000D02*
X99592861Y-87825000D01*
X95874988Y-85349988D02*
X94690000Y-84165000D01*
X95874988Y-87465710D02*
X95874988Y-85349988D01*
X96834278Y-88425000D02*
X95874988Y-87465710D01*
X98560000Y-88425000D02*
X96834278Y-88425000D01*
X99560000Y-87425000D02*
X98560000Y-88425000D01*
X100252500Y-87425000D02*
X99560000Y-87425000D01*
X95539999Y-83137833D02*
X95539999Y-82474999D01*
X95539999Y-82474999D02*
X94690000Y-81625000D01*
X96174999Y-83772833D02*
X95539999Y-83137833D01*
X96174999Y-85919999D02*
X96174999Y-83772833D01*
X96880000Y-86625000D02*
X96174999Y-85919999D01*
X100252500Y-86625000D02*
X96880000Y-86625000D01*
X96700000Y-86020722D02*
X96700000Y-85335000D01*
X96950783Y-86271505D02*
X96700000Y-86020722D01*
X100205995Y-86271505D02*
X96950783Y-86271505D01*
X100252500Y-86225000D02*
X100205995Y-86271505D01*
X100252500Y-85825000D02*
X97921945Y-85825000D01*
X97921945Y-85825000D02*
X97816938Y-85719993D01*
X100252500Y-85425000D02*
X98573859Y-85425000D01*
X98573859Y-85425000D02*
X98410926Y-85262067D01*
X100252500Y-85025000D02*
X99160000Y-85025000D01*
X99160000Y-85025000D02*
X98660000Y-84525000D01*
X99525722Y-84625000D02*
X98830720Y-83929998D01*
X100252500Y-84625000D02*
X99525722Y-84625000D01*
X98830720Y-83929998D02*
X97405720Y-83929998D01*
X97405720Y-83929998D02*
X96474970Y-82999248D01*
X96474970Y-82999248D02*
X96474970Y-68169970D01*
X96474970Y-68169970D02*
X94690000Y-66385000D01*
X96000000Y-62615000D02*
X94690000Y-61305000D01*
X96774980Y-63389980D02*
X96000000Y-62615000D01*
X100252500Y-84225000D02*
X99550000Y-84225000D01*
X98954987Y-83629987D02*
X97555709Y-83629987D01*
X97555709Y-83629987D02*
X96774981Y-82849259D01*
X96774981Y-82849259D02*
X96774980Y-63389980D01*
X99550000Y-84225000D02*
X98954987Y-83629987D01*
X96225000Y-60300000D02*
X94690000Y-58765000D01*
X97074990Y-61149990D02*
X96225000Y-60300000D01*
X97074990Y-82724990D02*
X97074990Y-61149990D01*
X97600000Y-83250000D02*
X97074990Y-82724990D01*
X99015000Y-83250000D02*
X97600000Y-83250000D01*
X99590000Y-83825000D02*
X99015000Y-83250000D01*
X100252500Y-83825000D02*
X99590000Y-83825000D01*
X107127500Y-84225000D02*
X107751444Y-84225000D01*
X107850722Y-84125722D02*
X107951454Y-84024990D01*
X107751444Y-84225000D02*
X107850722Y-84125722D01*
X107951454Y-84024990D02*
X109225732Y-84024990D01*
X112510000Y-73965000D02*
X112530000Y-73965000D01*
X111250000Y-75225000D02*
X112510000Y-73965000D01*
X111250000Y-80650722D02*
X111250000Y-75225000D01*
X109225732Y-84024990D02*
X110157861Y-83092861D01*
X110157861Y-83092861D02*
X110449990Y-82800732D01*
X110979990Y-80920732D02*
X111250000Y-80650722D01*
X110979990Y-82270732D02*
X110979990Y-80920732D01*
X110157861Y-83092861D02*
X110979990Y-82270732D01*
X111605000Y-80030000D02*
X112590000Y-79045000D01*
X111605000Y-80720000D02*
X111605000Y-80030000D01*
X111280000Y-82395000D02*
X111280000Y-81045000D01*
X111280000Y-81045000D02*
X111605000Y-80720000D01*
X108800020Y-84325000D02*
X109350000Y-84325000D01*
X109350000Y-84325000D02*
X111280000Y-82395000D01*
X108800010Y-84324990D02*
X108800020Y-84325000D01*
X108075732Y-84324990D02*
X108800010Y-84324990D01*
X107775722Y-84625000D02*
X108075732Y-84324990D01*
X107127500Y-84625000D02*
X107775722Y-84625000D01*
X107127500Y-85025000D02*
X107800000Y-85025000D01*
X107875000Y-84950000D02*
X108200000Y-84625000D01*
X107800000Y-85025000D02*
X107875000Y-84950000D01*
X109490000Y-84625000D02*
X112530000Y-81585000D01*
X108200000Y-84625000D02*
X109490000Y-84625000D01*
X108450000Y-85425000D02*
X107127500Y-85425000D01*
X112550000Y-86625000D02*
X112590000Y-86665000D01*
D29*
X107127500Y-86625000D02*
X112550000Y-86625000D01*
D25*
X111000000Y-90155000D02*
X112590000Y-91745000D01*
X109104998Y-87425000D02*
X111000000Y-89320002D01*
X111000000Y-89320002D02*
X111000000Y-90155000D01*
X107127500Y-87425000D02*
X109104998Y-87425000D01*
X107702684Y-87825000D02*
X107127500Y-87825000D01*
X110699990Y-89444270D02*
X109080720Y-87825000D01*
X110699990Y-90279268D02*
X110699990Y-89444270D01*
X109080720Y-87825000D02*
X107702684Y-87825000D01*
X111300000Y-90879278D02*
X110699990Y-90279268D01*
X111300000Y-92995000D02*
X111300000Y-90879278D01*
X112590000Y-94285000D02*
X111300000Y-92995000D01*
X107678406Y-88225000D02*
X107127500Y-88225000D01*
X107678426Y-88225020D02*
X107678406Y-88225000D01*
X109056462Y-88225020D02*
X107678426Y-88225020D01*
X110399980Y-89568538D02*
X109056462Y-88225020D01*
X110399981Y-90403537D02*
X110399980Y-89568538D01*
X110999990Y-91003546D02*
X110399981Y-90403537D01*
X110999990Y-94424990D02*
X110999990Y-91003546D01*
X112590000Y-96015000D02*
X110999990Y-94424990D01*
X112590000Y-96825000D02*
X112590000Y-96015000D01*
X107127500Y-88625000D02*
X109032164Y-88625000D01*
X110099972Y-89692808D02*
X110099972Y-90527806D01*
X109032164Y-88625000D02*
X110099972Y-89692808D01*
X110099972Y-90527806D02*
X110699980Y-91127814D01*
X110699980Y-91127814D02*
X110699981Y-94549259D01*
X110699981Y-94549259D02*
X111300000Y-95149278D01*
X111300000Y-98075000D02*
X112590000Y-99365000D01*
X111300000Y-95149278D02*
X111300000Y-98075000D01*
X110399972Y-92324972D02*
X109327084Y-91252084D01*
X106250000Y-90402166D02*
X106250000Y-89502500D01*
X110399972Y-94673526D02*
X110399972Y-92324972D01*
X107099918Y-91252084D02*
X106250000Y-90402166D01*
X110999990Y-95273546D02*
X110399972Y-94673526D01*
X110999990Y-98199268D02*
X110999990Y-95273546D01*
X111300000Y-98499278D02*
X110999990Y-98199268D01*
X111300000Y-103155000D02*
X111300000Y-98499278D01*
X109327084Y-91252084D02*
X107099918Y-91252084D01*
X112590000Y-104445000D02*
X111300000Y-103155000D01*
X112590000Y-106985000D02*
X112590000Y-106215000D01*
X112590000Y-106215000D02*
X111300000Y-104925000D01*
X110999990Y-98623546D02*
X110699981Y-98323537D01*
X111300000Y-103579278D02*
X110999990Y-103279268D01*
X111300000Y-104925000D02*
X111300000Y-103579278D01*
X109202816Y-91552094D02*
X106975650Y-91552094D01*
X110999990Y-103279268D02*
X110999990Y-98623546D01*
X110699981Y-98323537D02*
X110699980Y-95424980D01*
X110099962Y-94824962D02*
X110099962Y-92449240D01*
X110699980Y-95424980D02*
X110099962Y-94824962D01*
X110099962Y-92449240D02*
X109202816Y-91552094D01*
X105850000Y-90426444D02*
X105850000Y-89502500D01*
X106975650Y-91552094D02*
X105850000Y-90426444D01*
X107600000Y-92225000D02*
X107700000Y-92225000D01*
X107224278Y-92225000D02*
X107600000Y-92225000D01*
X105440000Y-90440722D02*
X107224278Y-92225000D01*
X105440000Y-89512500D02*
X105440000Y-90440722D01*
D29*
X107650000Y-92275000D02*
X107600000Y-92225000D01*
D25*
X106200000Y-91625000D02*
X106200000Y-91725000D01*
X106200000Y-106895000D02*
X106230000Y-106925000D01*
X106200000Y-91625000D02*
X106200000Y-106895000D01*
X105040000Y-90465000D02*
X106200000Y-91625000D01*
X105040000Y-89512500D02*
X105040000Y-90465000D01*
X104640000Y-90489279D02*
X104640000Y-89462500D01*
X105900000Y-91749279D02*
X104640000Y-90489279D01*
X105900000Y-103125000D02*
X105900000Y-91749279D01*
X103900000Y-105125000D02*
X105900000Y-103125000D01*
X101600000Y-105125000D02*
X103900000Y-105125000D01*
X101150000Y-105575000D02*
X101600000Y-105125000D01*
X101150000Y-106925000D02*
X101150000Y-105575000D01*
X100262500Y-82362500D02*
X100237500Y-82362500D01*
X99750560Y-81850560D02*
X99750560Y-80736360D01*
X100262500Y-82362500D02*
X99750560Y-81850560D01*
D29*
X99220400Y-77683500D02*
X98687000Y-77150100D01*
X99220400Y-80518200D02*
X99220400Y-77683500D01*
X99438560Y-80736360D02*
X99220400Y-80518200D01*
X99750560Y-80736360D02*
X99438560Y-80736360D01*
D25*
X100487500Y-82587500D02*
X100262500Y-82362500D01*
X101040000Y-82587500D02*
X100487500Y-82587500D01*
X104950000Y-80839448D02*
X104943939Y-80833387D01*
X104943939Y-80833387D02*
X104943939Y-79468939D01*
X104950000Y-80956076D02*
X104950000Y-80839448D01*
X104640000Y-81266076D02*
X104950000Y-80956076D01*
X104640000Y-82537500D02*
X104640000Y-81266076D01*
X104418960Y-78943960D02*
X104384760Y-78943960D01*
X104943939Y-79468939D02*
X104418960Y-78943960D01*
X105220950Y-80718646D02*
X105220950Y-79057770D01*
X105227011Y-80724707D02*
X105220950Y-80718646D01*
X105227011Y-81070817D02*
X105227011Y-80724707D01*
X105040000Y-81257828D02*
X105227011Y-81070817D01*
X105040000Y-82537500D02*
X105040000Y-81257828D01*
X105220950Y-79057770D02*
X105334760Y-78943960D01*
X100900490Y-77248930D02*
X100250560Y-77898860D01*
X101691628Y-77248930D02*
X100900490Y-77248930D01*
X102717200Y-78274502D02*
X101691628Y-77248930D01*
X102717200Y-81398800D02*
X102717200Y-78274502D01*
X100250560Y-77898860D02*
X100250560Y-78161360D01*
X103040000Y-81721600D02*
X102717200Y-81398800D01*
X103040000Y-82537500D02*
X103040000Y-81721600D01*
X101100480Y-77548940D02*
X100750560Y-77898860D01*
X102437800Y-78419380D02*
X101567360Y-77548940D01*
X102437800Y-81543678D02*
X102437800Y-78419380D01*
X102640000Y-81745878D02*
X102437800Y-81543678D01*
X102640000Y-82537500D02*
X102640000Y-81745878D01*
X100750560Y-77898860D02*
X100750560Y-78161360D01*
X101567360Y-77548940D02*
X101100480Y-77548940D01*
X101598260Y-78509060D02*
X101250560Y-78161360D01*
X102158400Y-79069200D02*
X101598260Y-78509060D01*
X102158400Y-81688556D02*
X102158400Y-79069200D01*
X102240000Y-81770156D02*
X102158400Y-81688556D01*
X102240000Y-82377000D02*
X102240000Y-81770156D01*
X101059549Y-81307849D02*
X100750560Y-80998860D01*
X100750560Y-80998860D02*
X100750560Y-80736360D01*
X101353416Y-81307849D02*
X101059549Y-81307849D01*
X101840000Y-81794433D02*
X101353416Y-81307849D01*
X101840000Y-82587500D02*
X101840000Y-81794433D01*
X100250560Y-81124180D02*
X100250560Y-80736360D01*
X100734240Y-81607860D02*
X100250560Y-81124180D01*
X101229148Y-81607860D02*
X100734240Y-81607860D01*
X101440000Y-81818712D02*
X101229148Y-81607860D01*
X101440000Y-82587500D02*
X101440000Y-81818712D01*
D27*
X110175000Y-85910000D02*
X110440000Y-85910000D01*
X109690000Y-85425000D02*
X110175000Y-85910000D01*
X109470000Y-85425000D02*
X109690000Y-85425000D01*
X101900000Y-66765000D02*
X101900000Y-65120000D01*
D29*
X101900000Y-66765000D02*
X102150000Y-67015000D01*
X101900000Y-64620000D02*
X101900000Y-66765000D01*
D27*
X104900000Y-66765000D02*
X104900000Y-65120000D01*
D29*
X104900000Y-66765000D02*
X105150000Y-67015000D01*
X104900000Y-64620000D02*
X104900000Y-66765000D01*
D25*
X112530000Y-66945000D02*
X112530000Y-66345000D01*
D27*
X107040000Y-69035000D02*
X107730000Y-69035000D01*
D25*
X102900000Y-63503800D02*
X102844200Y-63448000D01*
X102900000Y-64570000D02*
X102900000Y-63503800D01*
X103900000Y-64570000D02*
X103900000Y-63496200D01*
X103900000Y-63496200D02*
X103849995Y-63446195D01*
D30*
X102900000Y-67900000D02*
X103125000Y-68125000D01*
X102900000Y-64620000D02*
X102900000Y-67900000D01*
D31*
X103125000Y-72410000D02*
X103125000Y-65975000D01*
X104334760Y-73619760D02*
X103125000Y-72410000D01*
X104334760Y-77933960D02*
X104334760Y-73619760D01*
X104384760Y-77983960D02*
X104334760Y-77933960D01*
D25*
X104350000Y-64620000D02*
X104350000Y-62972606D01*
X104350000Y-62972606D02*
X104342800Y-62965406D01*
X103400000Y-63015400D02*
X103349989Y-62965389D01*
X103400000Y-64570000D02*
X103400000Y-63015400D01*
D30*
X104400000Y-67900000D02*
X104400000Y-64620000D01*
X104175000Y-68125000D02*
X104400000Y-67900000D01*
D31*
X104175000Y-71864400D02*
X104175000Y-65975000D01*
X105384760Y-73074160D02*
X104175000Y-71864400D01*
X105384760Y-77933960D02*
X105384760Y-73074160D01*
X105334760Y-77983960D02*
X105384760Y-77933960D01*
D25*
X113188988Y-71735010D02*
X113939990Y-71735010D01*
D27*
X106621000Y-77882600D02*
X106621000Y-76222360D01*
D32*
X109630000Y-69035000D02*
X109630000Y-67565000D01*
D29*
X100252500Y-87025000D02*
X101015000Y-87025000D01*
X107127500Y-87025000D02*
X105940000Y-87025000D01*
X103915000Y-88725000D02*
X105318000Y-88725000D01*
X103915000Y-88725000D02*
X102828000Y-88725000D01*
D25*
X100252500Y-83425000D02*
X101025000Y-83425000D01*
X100252500Y-83425000D02*
X100252500Y-83252500D01*
X100252500Y-83252500D02*
X100147300Y-83147300D01*
X100112500Y-83112500D02*
X100050000Y-83050000D01*
X99725000Y-82725000D02*
X99155000Y-82725000D01*
X99155000Y-82725000D02*
X99080000Y-82650000D01*
X100112500Y-83112500D02*
X99725000Y-82725000D01*
X106673750Y-82971250D02*
X107127500Y-83425000D01*
X100147300Y-83147300D02*
X100112500Y-83112500D01*
D30*
X106726100Y-82151400D02*
X106290000Y-82587500D01*
X106726100Y-81394440D02*
X106726100Y-82151400D01*
D32*
X106726100Y-82458760D02*
X106443680Y-82741180D01*
X106726100Y-81394440D02*
X106726100Y-82458760D01*
D25*
X106443680Y-82741180D02*
X106673750Y-82971250D01*
X106290000Y-82587500D02*
X106443680Y-82741180D01*
X100228840Y-77147560D02*
X100491670Y-76884730D01*
X99720780Y-77147560D02*
X100228840Y-77147560D01*
X101170000Y-76206400D02*
X100491670Y-76884730D01*
X99750560Y-77177340D02*
X99720780Y-77147560D01*
X99750560Y-77705720D02*
X99750560Y-77177340D01*
X99750560Y-77625840D02*
X99750560Y-77705720D01*
X99750560Y-77705720D02*
X99750560Y-78161360D01*
D30*
X99750560Y-78161360D02*
X99750560Y-77147560D01*
D29*
X100252500Y-83425000D02*
X101125400Y-83425000D01*
X99070000Y-87025000D02*
X98370000Y-87725000D01*
X100252500Y-87025000D02*
X99070000Y-87025000D01*
D27*
X103911000Y-91695400D02*
X103793768Y-91578168D01*
D29*
X109780000Y-87025000D02*
X110130000Y-87375000D01*
X108178300Y-87025000D02*
X109780000Y-87025000D01*
X109654160Y-87025000D02*
X109654840Y-87025680D01*
X107127500Y-87025000D02*
X109654160Y-87025000D01*
X103840000Y-88800000D02*
X103915000Y-88725000D01*
X103840000Y-89412500D02*
X103840000Y-88800000D01*
X99080000Y-81925000D02*
X98610000Y-81455000D01*
X99080000Y-82650000D02*
X99080000Y-81925000D01*
D27*
X106621000Y-78902600D02*
X107550000Y-78902600D01*
X106621000Y-74572400D02*
X107550000Y-74572400D01*
D29*
X103840000Y-90522463D02*
X103840000Y-89462500D01*
X103720000Y-90642463D02*
X103840000Y-90522463D01*
X103720000Y-91504400D02*
X103720000Y-90642463D01*
X103911000Y-91695400D02*
X103720000Y-91504400D01*
X104292000Y-80904520D02*
X104292000Y-80820400D01*
X104240000Y-80956520D02*
X104292000Y-80904520D01*
X104240000Y-82537500D02*
X104240000Y-80956520D01*
X103840000Y-81680000D02*
X103840000Y-82537500D01*
X104292000Y-81228000D02*
X103840000Y-81680000D01*
X104292000Y-80820400D02*
X104292000Y-81228000D01*
X100115000Y-96700000D02*
X100400000Y-96415000D01*
D27*
X101555000Y-93650000D02*
X101555000Y-95595000D01*
X102445510Y-92759490D02*
X101555000Y-93650000D01*
X102445510Y-91043650D02*
X102445510Y-92759490D01*
X101555000Y-95595000D02*
X100450000Y-96700000D01*
X103040000Y-90449160D02*
X102445510Y-91043650D01*
X103040000Y-89462500D02*
X103040000Y-90449160D01*
X103440000Y-90460000D02*
X103440000Y-89462500D01*
X103050000Y-90850000D02*
X103440000Y-90460000D01*
X103050000Y-93625000D02*
X103050000Y-90850000D01*
X103945000Y-95000000D02*
X104230000Y-94715000D01*
X102650000Y-95000000D02*
X103945000Y-95000000D01*
X104230000Y-93845000D02*
X104010000Y-93625000D01*
X104230000Y-94715000D02*
X104230000Y-93845000D01*
X106255000Y-71235000D02*
X106250000Y-71230000D01*
X107730000Y-71235000D02*
X106255000Y-71235000D01*
X105526500Y-84211500D02*
X101890000Y-84211500D01*
X101877612Y-84212720D01*
X101865700Y-84216334D01*
X101854721Y-84222202D01*
X101845099Y-84230099D01*
X101837202Y-84239721D01*
X101831334Y-84250700D01*
X101827720Y-84262612D01*
X101826500Y-84275000D01*
X101826500Y-87775000D01*
X101827720Y-87787388D01*
X101831334Y-87799300D01*
X101837202Y-87810279D01*
X101845099Y-87819901D01*
X101854721Y-87827798D01*
X101865700Y-87833666D01*
X101877612Y-87837280D01*
X101890000Y-87838500D01*
X104551500Y-87838500D01*
X104551500Y-88386500D01*
X104003500Y-88386500D01*
X104003500Y-88175000D01*
X104002280Y-88162612D01*
X103998666Y-88150700D01*
X103992798Y-88139721D01*
X103984901Y-88130099D01*
X103975279Y-88122202D01*
X103964300Y-88116334D01*
X103952388Y-88112720D01*
X103940000Y-88111500D01*
X101503500Y-88111500D01*
X101503500Y-83863500D01*
X104440000Y-83863500D01*
X104452388Y-83862280D01*
X104464300Y-83858666D01*
X104475279Y-83852798D01*
X104484901Y-83844901D01*
X104492798Y-83835279D01*
X104498666Y-83824300D01*
X104502280Y-83812388D01*
X104503500Y-83800000D01*
X104503500Y-83238500D01*
X105290000Y-83238500D01*
X105302388Y-83237280D01*
X105314300Y-83233666D01*
X105325279Y-83227798D01*
X105334901Y-83219901D01*
X105342798Y-83210279D01*
X105348666Y-83199300D01*
X105352280Y-83187388D01*
X105353500Y-83175000D01*
X105353500Y-82163500D01*
X105526500Y-82163500D01*
X105526500Y-84211500D01*
G04 #@! TA.AperFunction,Conductor*
D33*
G36*
X105526500Y-84211500D02*
G01*
X101890000Y-84211500D01*
X101877612Y-84212720D01*
X101865700Y-84216334D01*
X101854721Y-84222202D01*
X101845099Y-84230099D01*
X101837202Y-84239721D01*
X101831334Y-84250700D01*
X101827720Y-84262612D01*
X101826500Y-84275000D01*
X101826500Y-87775000D01*
X101827720Y-87787388D01*
X101831334Y-87799300D01*
X101837202Y-87810279D01*
X101845099Y-87819901D01*
X101854721Y-87827798D01*
X101865700Y-87833666D01*
X101877612Y-87837280D01*
X101890000Y-87838500D01*
X104551500Y-87838500D01*
X104551500Y-88386500D01*
X104003500Y-88386500D01*
X104003500Y-88175000D01*
X104002280Y-88162612D01*
X103998666Y-88150700D01*
X103992798Y-88139721D01*
X103984901Y-88130099D01*
X103975279Y-88122202D01*
X103964300Y-88116334D01*
X103952388Y-88112720D01*
X103940000Y-88111500D01*
X101503500Y-88111500D01*
X101503500Y-83863500D01*
X104440000Y-83863500D01*
X104452388Y-83862280D01*
X104464300Y-83858666D01*
X104475279Y-83852798D01*
X104484901Y-83844901D01*
X104492798Y-83835279D01*
X104498666Y-83824300D01*
X104502280Y-83812388D01*
X104503500Y-83800000D01*
X104503500Y-83238500D01*
X105290000Y-83238500D01*
X105302388Y-83237280D01*
X105314300Y-83233666D01*
X105325279Y-83227798D01*
X105334901Y-83219901D01*
X105342798Y-83210279D01*
X105348666Y-83199300D01*
X105352280Y-83187388D01*
X105353500Y-83175000D01*
X105353500Y-82163500D01*
X105526500Y-82163500D01*
X105526500Y-84211500D01*
G37*
G04 #@! TD.AperFunction*
D34*
X113998001Y-62133202D02*
X110900461Y-62129415D01*
X110875663Y-62131829D01*
X110779898Y-62150771D01*
X110756066Y-62157972D01*
X110734064Y-62169706D01*
X110652854Y-62223879D01*
X110633597Y-62239659D01*
X110617767Y-62258924D01*
X110563495Y-62340067D01*
X110551749Y-62362018D01*
X110544503Y-62385878D01*
X110525444Y-62481620D01*
X110523000Y-62506415D01*
X110523000Y-67862491D01*
X110511338Y-67921119D01*
X110485215Y-67960215D01*
X110446119Y-67986338D01*
X110387491Y-67998000D01*
X108709598Y-67998000D01*
X108673837Y-67990876D01*
X108581190Y-67898230D01*
X108574098Y-67862189D01*
X108576386Y-66887201D01*
X108588151Y-66828682D01*
X108614294Y-66789680D01*
X108653359Y-66763627D01*
X108711904Y-66752000D01*
X108715600Y-66752000D01*
X108740376Y-66749560D01*
X108836047Y-66730530D01*
X108859872Y-66723303D01*
X108881828Y-66711567D01*
X108962934Y-66657374D01*
X108982179Y-66641580D01*
X108997974Y-66622334D01*
X109052167Y-66541228D01*
X109063903Y-66519271D01*
X109071130Y-66495447D01*
X109090160Y-66399776D01*
X109092600Y-66375000D01*
X109092600Y-60966886D01*
X109104238Y-60908315D01*
X109129912Y-60869840D01*
X110908087Y-60869840D01*
X110981281Y-60862666D01*
X111076509Y-60843819D01*
X111144154Y-60823441D01*
X111226262Y-60807198D01*
X111250093Y-60799995D01*
X111271494Y-60788659D01*
X111351846Y-60735711D01*
X111370949Y-60720279D01*
X111780304Y-60318300D01*
X111829669Y-60285800D01*
X111887670Y-60274400D01*
X113998001Y-60274400D01*
X113998001Y-62133202D01*
G04 #@! TA.AperFunction,Conductor*
D33*
G36*
X113998001Y-62133202D02*
G01*
X110900461Y-62129415D01*
X110875663Y-62131829D01*
X110779898Y-62150771D01*
X110756066Y-62157972D01*
X110734064Y-62169706D01*
X110652854Y-62223879D01*
X110633597Y-62239659D01*
X110617767Y-62258924D01*
X110563495Y-62340067D01*
X110551749Y-62362018D01*
X110544503Y-62385878D01*
X110525444Y-62481620D01*
X110523000Y-62506415D01*
X110523000Y-67862491D01*
X110511338Y-67921119D01*
X110485215Y-67960215D01*
X110446119Y-67986338D01*
X110387491Y-67998000D01*
X108709598Y-67998000D01*
X108673837Y-67990876D01*
X108581190Y-67898230D01*
X108574098Y-67862189D01*
X108576386Y-66887201D01*
X108588151Y-66828682D01*
X108614294Y-66789680D01*
X108653359Y-66763627D01*
X108711904Y-66752000D01*
X108715600Y-66752000D01*
X108740376Y-66749560D01*
X108836047Y-66730530D01*
X108859872Y-66723303D01*
X108881828Y-66711567D01*
X108962934Y-66657374D01*
X108982179Y-66641580D01*
X108997974Y-66622334D01*
X109052167Y-66541228D01*
X109063903Y-66519271D01*
X109071130Y-66495447D01*
X109090160Y-66399776D01*
X109092600Y-66375000D01*
X109092600Y-60966886D01*
X109104238Y-60908315D01*
X109129912Y-60869840D01*
X110908087Y-60869840D01*
X110981281Y-60862666D01*
X111076509Y-60843819D01*
X111144154Y-60823441D01*
X111226262Y-60807198D01*
X111250093Y-60799995D01*
X111271494Y-60788659D01*
X111351846Y-60735711D01*
X111370949Y-60720279D01*
X111780304Y-60318300D01*
X111829669Y-60285800D01*
X111887670Y-60274400D01*
X113998001Y-60274400D01*
X113998001Y-62133202D01*
G37*
G04 #@! TD.AperFunction*
D27*
X113931056Y-57568168D02*
X113960923Y-57577186D01*
X113988476Y-57591836D01*
X114012654Y-57611556D01*
X114032545Y-57635599D01*
X114047384Y-57663043D01*
X114056611Y-57692852D01*
X114061501Y-57739376D01*
X114061501Y-59768940D01*
X111779553Y-59768940D01*
X111767225Y-59770148D01*
X111671997Y-59788995D01*
X111660081Y-59792597D01*
X111649198Y-59798387D01*
X111568328Y-59852087D01*
X111558726Y-59859914D01*
X111043875Y-60370835D01*
X110978657Y-60414141D01*
X110901863Y-60429340D01*
X108515937Y-60429340D01*
X108548015Y-60403015D01*
X108649673Y-60279143D01*
X108725212Y-60137819D01*
X108771729Y-59984474D01*
X108783500Y-59864962D01*
X108783500Y-59185038D01*
X108771729Y-59065526D01*
X108725212Y-58912181D01*
X108649673Y-58770857D01*
X108548015Y-58646985D01*
X108424143Y-58545327D01*
X108282819Y-58469788D01*
X108129474Y-58423271D01*
X107970000Y-58407564D01*
X107810527Y-58423271D01*
X107657182Y-58469788D01*
X107515858Y-58545327D01*
X107391986Y-58646985D01*
X107290328Y-58770857D01*
X107214788Y-58912181D01*
X107168271Y-59065526D01*
X107156500Y-59185038D01*
X107156500Y-59864961D01*
X107168271Y-59984473D01*
X107214788Y-60137818D01*
X107290327Y-60279142D01*
X107391985Y-60403015D01*
X107515857Y-60504673D01*
X107593001Y-60545907D01*
X107593001Y-60571827D01*
X107566232Y-60611890D01*
X107560364Y-60622869D01*
X107556750Y-60634781D01*
X107537720Y-60730452D01*
X107536500Y-60742840D01*
X107536500Y-61892665D01*
X107521154Y-61969815D01*
X107480996Y-62029916D01*
X107420895Y-62070074D01*
X107343745Y-62085420D01*
X106700000Y-62085420D01*
X106687612Y-62086640D01*
X106591941Y-62105670D01*
X106580029Y-62109284D01*
X106569050Y-62115152D01*
X106487944Y-62169345D01*
X106478322Y-62177242D01*
X106470425Y-62186864D01*
X106416232Y-62267970D01*
X106410364Y-62278949D01*
X106406750Y-62290861D01*
X106387720Y-62386532D01*
X106386500Y-62398920D01*
X106386500Y-62554525D01*
X106353757Y-62561038D01*
X106237557Y-62609169D01*
X106132980Y-62679045D01*
X106044045Y-62767980D01*
X105974169Y-62872557D01*
X105926038Y-62988757D01*
X105901500Y-63112113D01*
X105901500Y-63237887D01*
X105926038Y-63361243D01*
X105974169Y-63477443D01*
X106044045Y-63582020D01*
X106132980Y-63670955D01*
X106237557Y-63740831D01*
X106290263Y-63762662D01*
X106283963Y-63774449D01*
X106266037Y-63833543D01*
X106259984Y-63895000D01*
X106259984Y-65320026D01*
X106193034Y-65333113D01*
X106005538Y-65332409D01*
X105928621Y-65316847D01*
X105868754Y-65276641D01*
X105865016Y-65271030D01*
X105865016Y-63895000D01*
X105858963Y-63833543D01*
X105841037Y-63774449D01*
X105811926Y-63719986D01*
X105803401Y-63709598D01*
X105791188Y-63651221D01*
X105787457Y-63639345D01*
X105780764Y-63627396D01*
X105721384Y-63543988D01*
X105712746Y-63534176D01*
X105144079Y-63008769D01*
X105096305Y-62941746D01*
X105079313Y-62861213D01*
X105078254Y-62398203D01*
X105077009Y-62385835D01*
X105057815Y-62290340D01*
X105054178Y-62278435D01*
X105048308Y-62267499D01*
X104994077Y-62186587D01*
X104986166Y-62176976D01*
X104976562Y-62169112D01*
X104895526Y-62115066D01*
X104884543Y-62109208D01*
X104872663Y-62105612D01*
X104777124Y-62086637D01*
X104764754Y-62085420D01*
X103217196Y-62085420D01*
X103205106Y-62086581D01*
X103111652Y-62104705D01*
X103099723Y-62108262D01*
X103089226Y-62113744D01*
X103009322Y-62165489D01*
X102999805Y-62173036D01*
X101536469Y-63581347D01*
X101528216Y-63591066D01*
X101471531Y-63673317D01*
X101465506Y-63684210D01*
X101461597Y-63696665D01*
X101441640Y-63794544D01*
X101440360Y-63807230D01*
X101440360Y-63840417D01*
X101434984Y-63895000D01*
X101434984Y-65170892D01*
X101425014Y-65221015D01*
X101384856Y-65281116D01*
X101324755Y-65321274D01*
X101247605Y-65336620D01*
X101051455Y-65336620D01*
X101040016Y-65334345D01*
X101040016Y-63895000D01*
X101033963Y-63833543D01*
X101016037Y-63774449D01*
X101009737Y-63762662D01*
X101062443Y-63740831D01*
X101167020Y-63670955D01*
X101255955Y-63582020D01*
X101325831Y-63477443D01*
X101373962Y-63361243D01*
X101398500Y-63237887D01*
X101398500Y-63112113D01*
X101373962Y-62988757D01*
X101366700Y-62971225D01*
X101366700Y-62021197D01*
X101382992Y-61941811D01*
X101429235Y-61875259D01*
X105955521Y-57563500D01*
X113883442Y-57563500D01*
X113931056Y-57568168D01*
G04 #@! TA.AperFunction,Conductor*
D33*
G36*
X113931056Y-57568168D02*
G01*
X113960923Y-57577186D01*
X113988476Y-57591836D01*
X114012654Y-57611556D01*
X114032545Y-57635599D01*
X114047384Y-57663043D01*
X114056611Y-57692852D01*
X114061501Y-57739376D01*
X114061501Y-59768940D01*
X111779553Y-59768940D01*
X111767225Y-59770148D01*
X111671997Y-59788995D01*
X111660081Y-59792597D01*
X111649198Y-59798387D01*
X111568328Y-59852087D01*
X111558726Y-59859914D01*
X111043875Y-60370835D01*
X110978657Y-60414141D01*
X110901863Y-60429340D01*
X108515937Y-60429340D01*
X108548015Y-60403015D01*
X108649673Y-60279143D01*
X108725212Y-60137819D01*
X108771729Y-59984474D01*
X108783500Y-59864962D01*
X108783500Y-59185038D01*
X108771729Y-59065526D01*
X108725212Y-58912181D01*
X108649673Y-58770857D01*
X108548015Y-58646985D01*
X108424143Y-58545327D01*
X108282819Y-58469788D01*
X108129474Y-58423271D01*
X107970000Y-58407564D01*
X107810527Y-58423271D01*
X107657182Y-58469788D01*
X107515858Y-58545327D01*
X107391986Y-58646985D01*
X107290328Y-58770857D01*
X107214788Y-58912181D01*
X107168271Y-59065526D01*
X107156500Y-59185038D01*
X107156500Y-59864961D01*
X107168271Y-59984473D01*
X107214788Y-60137818D01*
X107290327Y-60279142D01*
X107391985Y-60403015D01*
X107515857Y-60504673D01*
X107593001Y-60545907D01*
X107593001Y-60571827D01*
X107566232Y-60611890D01*
X107560364Y-60622869D01*
X107556750Y-60634781D01*
X107537720Y-60730452D01*
X107536500Y-60742840D01*
X107536500Y-61892665D01*
X107521154Y-61969815D01*
X107480996Y-62029916D01*
X107420895Y-62070074D01*
X107343745Y-62085420D01*
X106700000Y-62085420D01*
X106687612Y-62086640D01*
X106591941Y-62105670D01*
X106580029Y-62109284D01*
X106569050Y-62115152D01*
X106487944Y-62169345D01*
X106478322Y-62177242D01*
X106470425Y-62186864D01*
X106416232Y-62267970D01*
X106410364Y-62278949D01*
X106406750Y-62290861D01*
X106387720Y-62386532D01*
X106386500Y-62398920D01*
X106386500Y-62554525D01*
X106353757Y-62561038D01*
X106237557Y-62609169D01*
X106132980Y-62679045D01*
X106044045Y-62767980D01*
X105974169Y-62872557D01*
X105926038Y-62988757D01*
X105901500Y-63112113D01*
X105901500Y-63237887D01*
X105926038Y-63361243D01*
X105974169Y-63477443D01*
X106044045Y-63582020D01*
X106132980Y-63670955D01*
X106237557Y-63740831D01*
X106290263Y-63762662D01*
X106283963Y-63774449D01*
X106266037Y-63833543D01*
X106259984Y-63895000D01*
X106259984Y-65320026D01*
X106193034Y-65333113D01*
X106005538Y-65332409D01*
X105928621Y-65316847D01*
X105868754Y-65276641D01*
X105865016Y-65271030D01*
X105865016Y-63895000D01*
X105858963Y-63833543D01*
X105841037Y-63774449D01*
X105811926Y-63719986D01*
X105803401Y-63709598D01*
X105791188Y-63651221D01*
X105787457Y-63639345D01*
X105780764Y-63627396D01*
X105721384Y-63543988D01*
X105712746Y-63534176D01*
X105144079Y-63008769D01*
X105096305Y-62941746D01*
X105079313Y-62861213D01*
X105078254Y-62398203D01*
X105077009Y-62385835D01*
X105057815Y-62290340D01*
X105054178Y-62278435D01*
X105048308Y-62267499D01*
X104994077Y-62186587D01*
X104986166Y-62176976D01*
X104976562Y-62169112D01*
X104895526Y-62115066D01*
X104884543Y-62109208D01*
X104872663Y-62105612D01*
X104777124Y-62086637D01*
X104764754Y-62085420D01*
X103217196Y-62085420D01*
X103205106Y-62086581D01*
X103111652Y-62104705D01*
X103099723Y-62108262D01*
X103089226Y-62113744D01*
X103009322Y-62165489D01*
X102999805Y-62173036D01*
X101536469Y-63581347D01*
X101528216Y-63591066D01*
X101471531Y-63673317D01*
X101465506Y-63684210D01*
X101461597Y-63696665D01*
X101441640Y-63794544D01*
X101440360Y-63807230D01*
X101440360Y-63840417D01*
X101434984Y-63895000D01*
X101434984Y-65170892D01*
X101425014Y-65221015D01*
X101384856Y-65281116D01*
X101324755Y-65321274D01*
X101247605Y-65336620D01*
X101051455Y-65336620D01*
X101040016Y-65334345D01*
X101040016Y-63895000D01*
X101033963Y-63833543D01*
X101016037Y-63774449D01*
X101009737Y-63762662D01*
X101062443Y-63740831D01*
X101167020Y-63670955D01*
X101255955Y-63582020D01*
X101325831Y-63477443D01*
X101373962Y-63361243D01*
X101398500Y-63237887D01*
X101398500Y-63112113D01*
X101373962Y-62988757D01*
X101366700Y-62971225D01*
X101366700Y-62021197D01*
X101382992Y-61941811D01*
X101429235Y-61875259D01*
X105955521Y-57563500D01*
X113883442Y-57563500D01*
X113931056Y-57568168D01*
G37*
G04 #@! TD.AperFunction*
D27*
X109444700Y-83208384D02*
X109130495Y-83501300D01*
X106491297Y-83501300D01*
X106478909Y-83502520D01*
X106466997Y-83506134D01*
X106456018Y-83512002D01*
X106446396Y-83519899D01*
X106438499Y-83529521D01*
X106432631Y-83540500D01*
X106429017Y-83552412D01*
X106427797Y-83564796D01*
X106427506Y-88813840D01*
X103990999Y-88813840D01*
X103978611Y-88815060D01*
X103966699Y-88818674D01*
X103955720Y-88824542D01*
X103946098Y-88832439D01*
X103938201Y-88842061D01*
X103932333Y-88853040D01*
X103928719Y-88864952D01*
X103927499Y-88877281D01*
X103926559Y-89888260D01*
X103754951Y-89888260D01*
X103752560Y-88874650D01*
X103751310Y-88862265D01*
X103747669Y-88850361D01*
X103741775Y-88839397D01*
X103733855Y-88829793D01*
X103724214Y-88821919D01*
X103713222Y-88816077D01*
X103701301Y-88812491D01*
X103689061Y-88811300D01*
X100846913Y-88811238D01*
X100863800Y-83577705D01*
X100862620Y-83565313D01*
X100859044Y-83553389D01*
X100853212Y-83542392D01*
X100845346Y-83532744D01*
X100835749Y-83524816D01*
X100824790Y-83518912D01*
X100812889Y-83515260D01*
X100800364Y-83514000D01*
X99758900Y-83512952D01*
X99758900Y-83288500D01*
X103640000Y-83288500D01*
X103652388Y-83287280D01*
X103664300Y-83283666D01*
X103675279Y-83277798D01*
X103684901Y-83269901D01*
X103692798Y-83260279D01*
X103698666Y-83249300D01*
X103702280Y-83237388D01*
X103703500Y-83225000D01*
X103703500Y-83085243D01*
X103713044Y-83067388D01*
X103726782Y-83022099D01*
X103731421Y-82975000D01*
X103731421Y-82200000D01*
X103726782Y-82152901D01*
X103722414Y-82138500D01*
X104357586Y-82138500D01*
X104353218Y-82152901D01*
X104348579Y-82200000D01*
X104348579Y-82975000D01*
X104351751Y-83007205D01*
X104334164Y-83016605D01*
X104305296Y-83040296D01*
X104281605Y-83069164D01*
X104264001Y-83102099D01*
X104253160Y-83137835D01*
X104249500Y-83175000D01*
X104249500Y-83609500D01*
X101440000Y-83609500D01*
X101402835Y-83613160D01*
X101367099Y-83624001D01*
X101334164Y-83641605D01*
X101305296Y-83665296D01*
X101281605Y-83694164D01*
X101264001Y-83727099D01*
X101253160Y-83762835D01*
X101249500Y-83800000D01*
X101249500Y-88175000D01*
X101253160Y-88212165D01*
X101264001Y-88247901D01*
X101281605Y-88280836D01*
X101305296Y-88309704D01*
X101334164Y-88333395D01*
X101367099Y-88350999D01*
X101402835Y-88361840D01*
X101440000Y-88365500D01*
X103749500Y-88365500D01*
X103749500Y-88450000D01*
X103753160Y-88487165D01*
X103764001Y-88522901D01*
X103781605Y-88555836D01*
X103805296Y-88584704D01*
X103834164Y-88608395D01*
X103867099Y-88625999D01*
X103902835Y-88636840D01*
X103940000Y-88640500D01*
X104615000Y-88640500D01*
X104652165Y-88636840D01*
X104687901Y-88625999D01*
X104720836Y-88608395D01*
X104749704Y-88584704D01*
X104773395Y-88555836D01*
X104790999Y-88522901D01*
X104801840Y-88487165D01*
X104805500Y-88450000D01*
X104805500Y-87838500D01*
X105390000Y-87838500D01*
X105402388Y-87837280D01*
X105414300Y-87833666D01*
X105425279Y-87827798D01*
X105434901Y-87819901D01*
X105442798Y-87810279D01*
X105448666Y-87799300D01*
X105452280Y-87787388D01*
X105453500Y-87775003D01*
X105453630Y-84644192D01*
X105740405Y-84644470D01*
X105752795Y-84643262D01*
X105764710Y-84639660D01*
X105775694Y-84633803D01*
X105785325Y-84625915D01*
X105793231Y-84616300D01*
X105799110Y-84605327D01*
X105802735Y-84593419D01*
X105803967Y-84580973D01*
X105804097Y-81937772D01*
X106198188Y-81935364D01*
X106210569Y-81934068D01*
X106222458Y-81930382D01*
X106233401Y-81924447D01*
X106242975Y-81916491D01*
X106250813Y-81906820D01*
X106256614Y-81895806D01*
X106260154Y-81883872D01*
X106261300Y-81871865D01*
X106261300Y-80952948D01*
X107158190Y-80960158D01*
X107170587Y-80959037D01*
X107182528Y-80955520D01*
X107193553Y-80949740D01*
X107203239Y-80941921D01*
X107211213Y-80932362D01*
X107217169Y-80921431D01*
X107220878Y-80909549D01*
X107222200Y-80896813D01*
X107222861Y-80621753D01*
X107227521Y-80574440D01*
X107227521Y-80294440D01*
X107223740Y-80256053D01*
X107224740Y-79840173D01*
X107224740Y-79840010D01*
X107223510Y-72128500D01*
X109444700Y-72128500D01*
X109444700Y-83208384D01*
G04 #@! TA.AperFunction,Conductor*
D33*
G36*
X109444700Y-83208384D02*
G01*
X109130495Y-83501300D01*
X106491297Y-83501300D01*
X106478909Y-83502520D01*
X106466997Y-83506134D01*
X106456018Y-83512002D01*
X106446396Y-83519899D01*
X106438499Y-83529521D01*
X106432631Y-83540500D01*
X106429017Y-83552412D01*
X106427797Y-83564796D01*
X106427506Y-88813840D01*
X103990999Y-88813840D01*
X103978611Y-88815060D01*
X103966699Y-88818674D01*
X103955720Y-88824542D01*
X103946098Y-88832439D01*
X103938201Y-88842061D01*
X103932333Y-88853040D01*
X103928719Y-88864952D01*
X103927499Y-88877281D01*
X103926559Y-89888260D01*
X103754951Y-89888260D01*
X103752560Y-88874650D01*
X103751310Y-88862265D01*
X103747669Y-88850361D01*
X103741775Y-88839397D01*
X103733855Y-88829793D01*
X103724214Y-88821919D01*
X103713222Y-88816077D01*
X103701301Y-88812491D01*
X103689061Y-88811300D01*
X100846913Y-88811238D01*
X100863800Y-83577705D01*
X100862620Y-83565313D01*
X100859044Y-83553389D01*
X100853212Y-83542392D01*
X100845346Y-83532744D01*
X100835749Y-83524816D01*
X100824790Y-83518912D01*
X100812889Y-83515260D01*
X100800364Y-83514000D01*
X99758900Y-83512952D01*
X99758900Y-83288500D01*
X103640000Y-83288500D01*
X103652388Y-83287280D01*
X103664300Y-83283666D01*
X103675279Y-83277798D01*
X103684901Y-83269901D01*
X103692798Y-83260279D01*
X103698666Y-83249300D01*
X103702280Y-83237388D01*
X103703500Y-83225000D01*
X103703500Y-83085243D01*
X103713044Y-83067388D01*
X103726782Y-83022099D01*
X103731421Y-82975000D01*
X103731421Y-82200000D01*
X103726782Y-82152901D01*
X103722414Y-82138500D01*
X104357586Y-82138500D01*
X104353218Y-82152901D01*
X104348579Y-82200000D01*
X104348579Y-82975000D01*
X104351751Y-83007205D01*
X104334164Y-83016605D01*
X104305296Y-83040296D01*
X104281605Y-83069164D01*
X104264001Y-83102099D01*
X104253160Y-83137835D01*
X104249500Y-83175000D01*
X104249500Y-83609500D01*
X101440000Y-83609500D01*
X101402835Y-83613160D01*
X101367099Y-83624001D01*
X101334164Y-83641605D01*
X101305296Y-83665296D01*
X101281605Y-83694164D01*
X101264001Y-83727099D01*
X101253160Y-83762835D01*
X101249500Y-83800000D01*
X101249500Y-88175000D01*
X101253160Y-88212165D01*
X101264001Y-88247901D01*
X101281605Y-88280836D01*
X101305296Y-88309704D01*
X101334164Y-88333395D01*
X101367099Y-88350999D01*
X101402835Y-88361840D01*
X101440000Y-88365500D01*
X103749500Y-88365500D01*
X103749500Y-88450000D01*
X103753160Y-88487165D01*
X103764001Y-88522901D01*
X103781605Y-88555836D01*
X103805296Y-88584704D01*
X103834164Y-88608395D01*
X103867099Y-88625999D01*
X103902835Y-88636840D01*
X103940000Y-88640500D01*
X104615000Y-88640500D01*
X104652165Y-88636840D01*
X104687901Y-88625999D01*
X104720836Y-88608395D01*
X104749704Y-88584704D01*
X104773395Y-88555836D01*
X104790999Y-88522901D01*
X104801840Y-88487165D01*
X104805500Y-88450000D01*
X104805500Y-87838500D01*
X105390000Y-87838500D01*
X105402388Y-87837280D01*
X105414300Y-87833666D01*
X105425279Y-87827798D01*
X105434901Y-87819901D01*
X105442798Y-87810279D01*
X105448666Y-87799300D01*
X105452280Y-87787388D01*
X105453500Y-87775003D01*
X105453630Y-84644192D01*
X105740405Y-84644470D01*
X105752795Y-84643262D01*
X105764710Y-84639660D01*
X105775694Y-84633803D01*
X105785325Y-84625915D01*
X105793231Y-84616300D01*
X105799110Y-84605327D01*
X105802735Y-84593419D01*
X105803967Y-84580973D01*
X105804097Y-81937772D01*
X106198188Y-81935364D01*
X106210569Y-81934068D01*
X106222458Y-81930382D01*
X106233401Y-81924447D01*
X106242975Y-81916491D01*
X106250813Y-81906820D01*
X106256614Y-81895806D01*
X106260154Y-81883872D01*
X106261300Y-81871865D01*
X106261300Y-80952948D01*
X107158190Y-80960158D01*
X107170587Y-80959037D01*
X107182528Y-80955520D01*
X107193553Y-80949740D01*
X107203239Y-80941921D01*
X107211213Y-80932362D01*
X107217169Y-80921431D01*
X107220878Y-80909549D01*
X107222200Y-80896813D01*
X107222861Y-80621753D01*
X107227521Y-80574440D01*
X107227521Y-80294440D01*
X107223740Y-80256053D01*
X107224740Y-79840173D01*
X107224740Y-79840010D01*
X107223510Y-72128500D01*
X109444700Y-72128500D01*
X109444700Y-83208384D01*
G37*
G04 #@! TD.AperFunction*
D35*
X99802189Y-77697704D02*
X99776997Y-77728401D01*
X99734090Y-77808675D01*
X99707668Y-77895777D01*
X99699362Y-77980101D01*
X99698563Y-77012533D01*
X99801623Y-77012533D01*
X99802189Y-77697704D01*
G04 #@! TA.AperFunction,Conductor*
D33*
G36*
X99802189Y-77697704D02*
G01*
X99776997Y-77728401D01*
X99734090Y-77808675D01*
X99707668Y-77895777D01*
X99699362Y-77980101D01*
X99698563Y-77012533D01*
X99801623Y-77012533D01*
X99802189Y-77697704D01*
G37*
G04 #@! TD.AperFunction*
D28*
X109524963Y-92687414D02*
X109524962Y-94796719D01*
X109522180Y-94824962D01*
X109524962Y-94853205D01*
X109524962Y-94853207D01*
X109533282Y-94937681D01*
X109560443Y-95027218D01*
X109566161Y-95046069D01*
X109619554Y-95145960D01*
X109631755Y-95160827D01*
X109691408Y-95233516D01*
X109713355Y-95251527D01*
X110124980Y-95663153D01*
X110124982Y-98295284D01*
X110122199Y-98323537D01*
X110133302Y-98436256D01*
X110166180Y-98544644D01*
X110219573Y-98644535D01*
X110248413Y-98679676D01*
X110291428Y-98732091D01*
X110313370Y-98750098D01*
X110424991Y-98861719D01*
X110424990Y-103251025D01*
X110422208Y-103279268D01*
X110424990Y-103307511D01*
X110424990Y-103307513D01*
X110433310Y-103391987D01*
X110460862Y-103482813D01*
X110466189Y-103500375D01*
X110519582Y-103600266D01*
X110544277Y-103630357D01*
X110591436Y-103687822D01*
X110613384Y-103705834D01*
X110725001Y-103817451D01*
X110725000Y-104896756D01*
X110722218Y-104925000D01*
X110725000Y-104953243D01*
X110725000Y-104953245D01*
X110733320Y-105037719D01*
X110759796Y-105125000D01*
X110766199Y-105146107D01*
X110819592Y-105245998D01*
X110826161Y-105254002D01*
X110891446Y-105333554D01*
X110913394Y-105351566D01*
X111320000Y-105758172D01*
X111320000Y-106426764D01*
X111251880Y-106591220D01*
X111200000Y-106852037D01*
X111200000Y-107117963D01*
X111251880Y-107378780D01*
X111320000Y-107543236D01*
X111320000Y-108000000D01*
X107051084Y-108000000D01*
X107090575Y-107973613D01*
X107278613Y-107785575D01*
X107426354Y-107564465D01*
X107528120Y-107318780D01*
X107580000Y-107057963D01*
X107580000Y-106792037D01*
X107528120Y-106531220D01*
X107426354Y-106285535D01*
X107278613Y-106064425D01*
X107090575Y-105876387D01*
X106869465Y-105728646D01*
X106775000Y-105689517D01*
X106775000Y-92588895D01*
X106797717Y-92611612D01*
X106815724Y-92633554D01*
X106837664Y-92651559D01*
X106903279Y-92705408D01*
X106989569Y-92751531D01*
X107001580Y-92757951D01*
X107090030Y-92846401D01*
X107221058Y-92933951D01*
X107366649Y-92994257D01*
X107521207Y-93025000D01*
X107678793Y-93025000D01*
X107833351Y-92994257D01*
X107978942Y-92933951D01*
X108109970Y-92846401D01*
X108221401Y-92734970D01*
X108308951Y-92603942D01*
X108369257Y-92458351D01*
X108400000Y-92303793D01*
X108400000Y-92146207D01*
X108396198Y-92127094D01*
X108964644Y-92127094D01*
X109524963Y-92687414D01*
G04 #@! TA.AperFunction,Conductor*
D33*
G36*
X109524963Y-92687414D02*
G01*
X109524962Y-94796719D01*
X109522180Y-94824962D01*
X109524962Y-94853205D01*
X109524962Y-94853207D01*
X109533282Y-94937681D01*
X109560443Y-95027218D01*
X109566161Y-95046069D01*
X109619554Y-95145960D01*
X109631755Y-95160827D01*
X109691408Y-95233516D01*
X109713355Y-95251527D01*
X110124980Y-95663153D01*
X110124982Y-98295284D01*
X110122199Y-98323537D01*
X110133302Y-98436256D01*
X110166180Y-98544644D01*
X110219573Y-98644535D01*
X110248413Y-98679676D01*
X110291428Y-98732091D01*
X110313370Y-98750098D01*
X110424991Y-98861719D01*
X110424990Y-103251025D01*
X110422208Y-103279268D01*
X110424990Y-103307511D01*
X110424990Y-103307513D01*
X110433310Y-103391987D01*
X110460862Y-103482813D01*
X110466189Y-103500375D01*
X110519582Y-103600266D01*
X110544277Y-103630357D01*
X110591436Y-103687822D01*
X110613384Y-103705834D01*
X110725001Y-103817451D01*
X110725000Y-104896756D01*
X110722218Y-104925000D01*
X110725000Y-104953243D01*
X110725000Y-104953245D01*
X110733320Y-105037719D01*
X110759796Y-105125000D01*
X110766199Y-105146107D01*
X110819592Y-105245998D01*
X110826161Y-105254002D01*
X110891446Y-105333554D01*
X110913394Y-105351566D01*
X111320000Y-105758172D01*
X111320000Y-106426764D01*
X111251880Y-106591220D01*
X111200000Y-106852037D01*
X111200000Y-107117963D01*
X111251880Y-107378780D01*
X111320000Y-107543236D01*
X111320000Y-108000000D01*
X107051084Y-108000000D01*
X107090575Y-107973613D01*
X107278613Y-107785575D01*
X107426354Y-107564465D01*
X107528120Y-107318780D01*
X107580000Y-107057963D01*
X107580000Y-106792037D01*
X107528120Y-106531220D01*
X107426354Y-106285535D01*
X107278613Y-106064425D01*
X107090575Y-105876387D01*
X106869465Y-105728646D01*
X106775000Y-105689517D01*
X106775000Y-92588895D01*
X106797717Y-92611612D01*
X106815724Y-92633554D01*
X106837664Y-92651559D01*
X106903279Y-92705408D01*
X106989569Y-92751531D01*
X107001580Y-92757951D01*
X107090030Y-92846401D01*
X107221058Y-92933951D01*
X107366649Y-92994257D01*
X107521207Y-93025000D01*
X107678793Y-93025000D01*
X107833351Y-92994257D01*
X107978942Y-92933951D01*
X108109970Y-92846401D01*
X108221401Y-92734970D01*
X108308951Y-92603942D01*
X108369257Y-92458351D01*
X108400000Y-92303793D01*
X108400000Y-92146207D01*
X108396198Y-92127094D01*
X108964644Y-92127094D01*
X109524963Y-92687414D01*
G37*
G04 #@! TD.AperFunction*
D28*
X105625001Y-105714370D02*
X105590535Y-105728646D01*
X105369425Y-105876387D01*
X105181387Y-106064425D01*
X105033646Y-106285535D01*
X104931880Y-106531220D01*
X104880000Y-106792037D01*
X104880000Y-107057963D01*
X104931880Y-107318780D01*
X105033646Y-107564465D01*
X105181387Y-107785575D01*
X105369425Y-107973613D01*
X105408916Y-108000000D01*
X101971084Y-108000000D01*
X102010575Y-107973613D01*
X102198613Y-107785575D01*
X102346354Y-107564465D01*
X102448120Y-107318780D01*
X102500000Y-107057963D01*
X102500000Y-106792037D01*
X102448120Y-106531220D01*
X102346354Y-106285535D01*
X102198613Y-106064425D01*
X102010575Y-105876387D01*
X101801491Y-105736682D01*
X101838173Y-105700000D01*
X103871757Y-105700000D01*
X103900000Y-105702782D01*
X103928243Y-105700000D01*
X103928246Y-105700000D01*
X104012720Y-105691680D01*
X104121108Y-105658801D01*
X104220998Y-105605408D01*
X104308554Y-105533554D01*
X104326565Y-105511607D01*
X105625001Y-104213172D01*
X105625001Y-105714370D01*
G04 #@! TA.AperFunction,Conductor*
D33*
G36*
X105625001Y-105714370D02*
G01*
X105590535Y-105728646D01*
X105369425Y-105876387D01*
X105181387Y-106064425D01*
X105033646Y-106285535D01*
X104931880Y-106531220D01*
X104880000Y-106792037D01*
X104880000Y-107057963D01*
X104931880Y-107318780D01*
X105033646Y-107564465D01*
X105181387Y-107785575D01*
X105369425Y-107973613D01*
X105408916Y-108000000D01*
X101971084Y-108000000D01*
X102010575Y-107973613D01*
X102198613Y-107785575D01*
X102346354Y-107564465D01*
X102448120Y-107318780D01*
X102500000Y-107057963D01*
X102500000Y-106792037D01*
X102448120Y-106531220D01*
X102346354Y-106285535D01*
X102198613Y-106064425D01*
X102010575Y-105876387D01*
X101801491Y-105736682D01*
X101838173Y-105700000D01*
X103871757Y-105700000D01*
X103900000Y-105702782D01*
X103928243Y-105700000D01*
X103928246Y-105700000D01*
X104012720Y-105691680D01*
X104121108Y-105658801D01*
X104220998Y-105605408D01*
X104308554Y-105533554D01*
X104326565Y-105511607D01*
X105625001Y-104213172D01*
X105625001Y-105714370D01*
G37*
G04 #@! TD.AperFunction*
D28*
X101882011Y-92526079D02*
X101595510Y-92812581D01*
X101415000Y-92812581D01*
X101289670Y-92824925D01*
X101169157Y-92861482D01*
X101058091Y-92920848D01*
X100960741Y-93000741D01*
X100880848Y-93098091D01*
X100821482Y-93209157D01*
X100784925Y-93329670D01*
X100772581Y-93455000D01*
X100772581Y-93795000D01*
X100784925Y-93920330D01*
X100821482Y-94040843D01*
X100880848Y-94151909D01*
X100960741Y-94249259D01*
X100991500Y-94274503D01*
X100991501Y-95361589D01*
X100755509Y-95597581D01*
X99750000Y-95597581D01*
X99651983Y-95607235D01*
X99557733Y-95635825D01*
X99470871Y-95682254D01*
X99394736Y-95744736D01*
X99332254Y-95820871D01*
X99285825Y-95907733D01*
X99257235Y-96001983D01*
X99247581Y-96100000D01*
X99247581Y-97300000D01*
X99257235Y-97398017D01*
X99285825Y-97492267D01*
X99332254Y-97579129D01*
X99394736Y-97655264D01*
X99470871Y-97717746D01*
X99557733Y-97764175D01*
X99651983Y-97792765D01*
X99750000Y-97802419D01*
X101150000Y-97802419D01*
X101248017Y-97792765D01*
X101342267Y-97764175D01*
X101429129Y-97717746D01*
X101505264Y-97655264D01*
X101567746Y-97579129D01*
X101614175Y-97492267D01*
X101642765Y-97398017D01*
X101652419Y-97300000D01*
X101652419Y-96294491D01*
X101853951Y-96092959D01*
X101950000Y-96102419D01*
X103350000Y-96102419D01*
X103448017Y-96092765D01*
X103542267Y-96064175D01*
X103629129Y-96017746D01*
X103705264Y-95955264D01*
X103767746Y-95879129D01*
X103814175Y-95792267D01*
X103842765Y-95698017D01*
X103852419Y-95600000D01*
X103852419Y-95563500D01*
X103917330Y-95563500D01*
X103945000Y-95566225D01*
X103972670Y-95563500D01*
X103972677Y-95563500D01*
X104055465Y-95555346D01*
X104161685Y-95523125D01*
X104209777Y-95497419D01*
X104400000Y-95497419D01*
X104525330Y-95485075D01*
X104645843Y-95448518D01*
X104756909Y-95389152D01*
X104854259Y-95309259D01*
X104934152Y-95211909D01*
X104993518Y-95100843D01*
X105030075Y-94980330D01*
X105042419Y-94855000D01*
X105042419Y-94575000D01*
X105030075Y-94449670D01*
X104993518Y-94329157D01*
X104934152Y-94218091D01*
X104854259Y-94120741D01*
X104793500Y-94070877D01*
X104793500Y-93872670D01*
X104796225Y-93845000D01*
X104793500Y-93817330D01*
X104793500Y-93817323D01*
X104791860Y-93800674D01*
X104792419Y-93795000D01*
X104792419Y-93455000D01*
X104780075Y-93329670D01*
X104743518Y-93209157D01*
X104684152Y-93098091D01*
X104604259Y-93000741D01*
X104506909Y-92920848D01*
X104395843Y-92861482D01*
X104275330Y-92824925D01*
X104150000Y-92812581D01*
X103870000Y-92812581D01*
X103744670Y-92824925D01*
X103624157Y-92861482D01*
X103613500Y-92867178D01*
X103613500Y-92464817D01*
X103615670Y-92465475D01*
X103741000Y-92477819D01*
X104081000Y-92477819D01*
X104206330Y-92465475D01*
X104326843Y-92428918D01*
X104437909Y-92369552D01*
X104455744Y-92354915D01*
X104473091Y-92369152D01*
X104584157Y-92428518D01*
X104704670Y-92465075D01*
X104830000Y-92477419D01*
X105170000Y-92477419D01*
X105295330Y-92465075D01*
X105325001Y-92456074D01*
X105325000Y-102886827D01*
X103661828Y-104550000D01*
X101628242Y-104550000D01*
X101599999Y-104547218D01*
X101571756Y-104550000D01*
X101571754Y-104550000D01*
X101487280Y-104558320D01*
X101378892Y-104591199D01*
X101279001Y-104644592D01*
X101233153Y-104682218D01*
X101191446Y-104716446D01*
X101173440Y-104738387D01*
X100763389Y-105148439D01*
X100741447Y-105166446D01*
X100723441Y-105188387D01*
X100669592Y-105254002D01*
X100616199Y-105353893D01*
X100600573Y-105405408D01*
X100584377Y-105458801D01*
X100583321Y-105462281D01*
X100572218Y-105575000D01*
X100575001Y-105603253D01*
X100575001Y-105701943D01*
X100510535Y-105728646D01*
X100289425Y-105876387D01*
X100101387Y-106064425D01*
X99953646Y-106285535D01*
X99851880Y-106531220D01*
X99800000Y-106792037D01*
X99800000Y-107057963D01*
X99851880Y-107318780D01*
X99953646Y-107564465D01*
X100101387Y-107785575D01*
X100289425Y-107973613D01*
X100328916Y-108000000D01*
X95980000Y-108000000D01*
X95980000Y-107543236D01*
X96048120Y-107378780D01*
X96100000Y-107117963D01*
X96100000Y-106852037D01*
X96048120Y-106591220D01*
X96015560Y-106512613D01*
X96311612Y-106216561D01*
X96333554Y-106198554D01*
X96380229Y-106141679D01*
X96405408Y-106110999D01*
X96458801Y-106011108D01*
X96464023Y-105993892D01*
X96491680Y-105902720D01*
X96500000Y-105818246D01*
X96500000Y-105818243D01*
X96502782Y-105790000D01*
X96500000Y-105761757D01*
X96500000Y-103912450D01*
X96911631Y-103500820D01*
X96933573Y-103482813D01*
X97004500Y-103396387D01*
X97005427Y-103395258D01*
X97058820Y-103295367D01*
X97061156Y-103287665D01*
X97091699Y-103186979D01*
X97100019Y-103102505D01*
X97100019Y-103102503D01*
X97102801Y-103074260D01*
X97100019Y-103046017D01*
X97100019Y-96540985D01*
X97236631Y-96404373D01*
X97258582Y-96386358D01*
X97330436Y-96298802D01*
X97331197Y-96297380D01*
X97383830Y-96198910D01*
X97409016Y-96115881D01*
X97416708Y-96090524D01*
X97425028Y-96006050D01*
X97425028Y-96006048D01*
X97427810Y-95977802D01*
X97425028Y-95949559D01*
X97425028Y-94111700D01*
X99736709Y-91800020D01*
X101205241Y-91800020D01*
X101233484Y-91802802D01*
X101261727Y-91800020D01*
X101261730Y-91800020D01*
X101346204Y-91791700D01*
X101454592Y-91758821D01*
X101554482Y-91705428D01*
X101642038Y-91633574D01*
X101660049Y-91611627D01*
X101882010Y-91389666D01*
X101882011Y-92526079D01*
G04 #@! TA.AperFunction,Conductor*
D33*
G36*
X101882011Y-92526079D02*
G01*
X101595510Y-92812581D01*
X101415000Y-92812581D01*
X101289670Y-92824925D01*
X101169157Y-92861482D01*
X101058091Y-92920848D01*
X100960741Y-93000741D01*
X100880848Y-93098091D01*
X100821482Y-93209157D01*
X100784925Y-93329670D01*
X100772581Y-93455000D01*
X100772581Y-93795000D01*
X100784925Y-93920330D01*
X100821482Y-94040843D01*
X100880848Y-94151909D01*
X100960741Y-94249259D01*
X100991500Y-94274503D01*
X100991501Y-95361589D01*
X100755509Y-95597581D01*
X99750000Y-95597581D01*
X99651983Y-95607235D01*
X99557733Y-95635825D01*
X99470871Y-95682254D01*
X99394736Y-95744736D01*
X99332254Y-95820871D01*
X99285825Y-95907733D01*
X99257235Y-96001983D01*
X99247581Y-96100000D01*
X99247581Y-97300000D01*
X99257235Y-97398017D01*
X99285825Y-97492267D01*
X99332254Y-97579129D01*
X99394736Y-97655264D01*
X99470871Y-97717746D01*
X99557733Y-97764175D01*
X99651983Y-97792765D01*
X99750000Y-97802419D01*
X101150000Y-97802419D01*
X101248017Y-97792765D01*
X101342267Y-97764175D01*
X101429129Y-97717746D01*
X101505264Y-97655264D01*
X101567746Y-97579129D01*
X101614175Y-97492267D01*
X101642765Y-97398017D01*
X101652419Y-97300000D01*
X101652419Y-96294491D01*
X101853951Y-96092959D01*
X101950000Y-96102419D01*
X103350000Y-96102419D01*
X103448017Y-96092765D01*
X103542267Y-96064175D01*
X103629129Y-96017746D01*
X103705264Y-95955264D01*
X103767746Y-95879129D01*
X103814175Y-95792267D01*
X103842765Y-95698017D01*
X103852419Y-95600000D01*
X103852419Y-95563500D01*
X103917330Y-95563500D01*
X103945000Y-95566225D01*
X103972670Y-95563500D01*
X103972677Y-95563500D01*
X104055465Y-95555346D01*
X104161685Y-95523125D01*
X104209777Y-95497419D01*
X104400000Y-95497419D01*
X104525330Y-95485075D01*
X104645843Y-95448518D01*
X104756909Y-95389152D01*
X104854259Y-95309259D01*
X104934152Y-95211909D01*
X104993518Y-95100843D01*
X105030075Y-94980330D01*
X105042419Y-94855000D01*
X105042419Y-94575000D01*
X105030075Y-94449670D01*
X104993518Y-94329157D01*
X104934152Y-94218091D01*
X104854259Y-94120741D01*
X104793500Y-94070877D01*
X104793500Y-93872670D01*
X104796225Y-93845000D01*
X104793500Y-93817330D01*
X104793500Y-93817323D01*
X104791860Y-93800674D01*
X104792419Y-93795000D01*
X104792419Y-93455000D01*
X104780075Y-93329670D01*
X104743518Y-93209157D01*
X104684152Y-93098091D01*
X104604259Y-93000741D01*
X104506909Y-92920848D01*
X104395843Y-92861482D01*
X104275330Y-92824925D01*
X104150000Y-92812581D01*
X103870000Y-92812581D01*
X103744670Y-92824925D01*
X103624157Y-92861482D01*
X103613500Y-92867178D01*
X103613500Y-92464817D01*
X103615670Y-92465475D01*
X103741000Y-92477819D01*
X104081000Y-92477819D01*
X104206330Y-92465475D01*
X104326843Y-92428918D01*
X104437909Y-92369552D01*
X104455744Y-92354915D01*
X104473091Y-92369152D01*
X104584157Y-92428518D01*
X104704670Y-92465075D01*
X104830000Y-92477419D01*
X105170000Y-92477419D01*
X105295330Y-92465075D01*
X105325001Y-92456074D01*
X105325000Y-102886827D01*
X103661828Y-104550000D01*
X101628242Y-104550000D01*
X101599999Y-104547218D01*
X101571756Y-104550000D01*
X101571754Y-104550000D01*
X101487280Y-104558320D01*
X101378892Y-104591199D01*
X101279001Y-104644592D01*
X101233153Y-104682218D01*
X101191446Y-104716446D01*
X101173440Y-104738387D01*
X100763389Y-105148439D01*
X100741447Y-105166446D01*
X100723441Y-105188387D01*
X100669592Y-105254002D01*
X100616199Y-105353893D01*
X100600573Y-105405408D01*
X100584377Y-105458801D01*
X100583321Y-105462281D01*
X100572218Y-105575000D01*
X100575001Y-105603253D01*
X100575001Y-105701943D01*
X100510535Y-105728646D01*
X100289425Y-105876387D01*
X100101387Y-106064425D01*
X99953646Y-106285535D01*
X99851880Y-106531220D01*
X99800000Y-106792037D01*
X99800000Y-107057963D01*
X99851880Y-107318780D01*
X99953646Y-107564465D01*
X100101387Y-107785575D01*
X100289425Y-107973613D01*
X100328916Y-108000000D01*
X95980000Y-108000000D01*
X95980000Y-107543236D01*
X96048120Y-107378780D01*
X96100000Y-107117963D01*
X96100000Y-106852037D01*
X96048120Y-106591220D01*
X96015560Y-106512613D01*
X96311612Y-106216561D01*
X96333554Y-106198554D01*
X96380229Y-106141679D01*
X96405408Y-106110999D01*
X96458801Y-106011108D01*
X96464023Y-105993892D01*
X96491680Y-105902720D01*
X96500000Y-105818246D01*
X96500000Y-105818243D01*
X96502782Y-105790000D01*
X96500000Y-105761757D01*
X96500000Y-103912450D01*
X96911631Y-103500820D01*
X96933573Y-103482813D01*
X97004500Y-103396387D01*
X97005427Y-103395258D01*
X97058820Y-103295367D01*
X97061156Y-103287665D01*
X97091699Y-103186979D01*
X97100019Y-103102505D01*
X97100019Y-103102503D01*
X97102801Y-103074260D01*
X97100019Y-103046017D01*
X97100019Y-96540985D01*
X97236631Y-96404373D01*
X97258582Y-96386358D01*
X97330436Y-96298802D01*
X97331197Y-96297380D01*
X97383830Y-96198910D01*
X97409016Y-96115881D01*
X97416708Y-96090524D01*
X97425028Y-96006050D01*
X97425028Y-96006048D01*
X97427810Y-95977802D01*
X97425028Y-95949559D01*
X97425028Y-94111700D01*
X99736709Y-91800020D01*
X101205241Y-91800020D01*
X101233484Y-91802802D01*
X101261727Y-91800020D01*
X101261730Y-91800020D01*
X101346204Y-91791700D01*
X101454592Y-91758821D01*
X101554482Y-91705428D01*
X101642038Y-91633574D01*
X101660049Y-91611627D01*
X101882010Y-91389666D01*
X101882011Y-92526079D01*
G37*
G04 #@! TD.AperFunction*
D28*
X95650011Y-102635000D02*
X93425000Y-102635000D01*
X93425000Y-101175000D01*
X95650011Y-101175000D01*
X95650011Y-102635000D01*
G04 #@! TA.AperFunction,Conductor*
D33*
G36*
X95650011Y-102635000D02*
G01*
X93425000Y-102635000D01*
X93425000Y-101175000D01*
X95650011Y-101175000D01*
X95650011Y-102635000D01*
G37*
G04 #@! TD.AperFunction*
D28*
X113875000Y-102635000D02*
X111875000Y-102635000D01*
X111875000Y-101175000D01*
X113875000Y-101175000D01*
X113875000Y-102635000D01*
G04 #@! TA.AperFunction,Conductor*
D33*
G36*
X113875000Y-102635000D02*
G01*
X111875000Y-102635000D01*
X111875000Y-101175000D01*
X113875000Y-101175000D01*
X113875000Y-102635000D01*
G37*
G04 #@! TD.AperFunction*
D28*
X96283439Y-89111612D02*
X96301446Y-89133554D01*
X96323386Y-89151559D01*
X96389001Y-89205408D01*
X96467824Y-89247540D01*
X96488892Y-89258801D01*
X96597280Y-89291680D01*
X96681754Y-89300000D01*
X96681756Y-89300000D01*
X96709999Y-89302782D01*
X96738242Y-89300000D01*
X98411827Y-89300000D01*
X96501828Y-91210000D01*
X95989625Y-91210000D01*
X95980000Y-91186763D01*
X95980000Y-90185000D01*
X95975196Y-90136227D01*
X95960970Y-90089329D01*
X95937867Y-90046107D01*
X95906777Y-90008223D01*
X95868893Y-89977133D01*
X95825671Y-89954030D01*
X95778773Y-89939804D01*
X95730000Y-89935000D01*
X93425000Y-89935000D01*
X93425000Y-88475000D01*
X95646828Y-88475000D01*
X96283439Y-89111612D01*
G04 #@! TA.AperFunction,Conductor*
D33*
G36*
X96283439Y-89111612D02*
G01*
X96301446Y-89133554D01*
X96323386Y-89151559D01*
X96389001Y-89205408D01*
X96467824Y-89247540D01*
X96488892Y-89258801D01*
X96597280Y-89291680D01*
X96681754Y-89300000D01*
X96681756Y-89300000D01*
X96709999Y-89302782D01*
X96738242Y-89300000D01*
X98411827Y-89300000D01*
X96501828Y-91210000D01*
X95989625Y-91210000D01*
X95980000Y-91186763D01*
X95980000Y-90185000D01*
X95975196Y-90136227D01*
X95960970Y-90089329D01*
X95937867Y-90046107D01*
X95906777Y-90008223D01*
X95868893Y-89977133D01*
X95825671Y-89954030D01*
X95778773Y-89939804D01*
X95730000Y-89935000D01*
X93425000Y-89935000D01*
X93425000Y-88475000D01*
X95646828Y-88475000D01*
X96283439Y-89111612D01*
G37*
G04 #@! TD.AperFunction*
D28*
X109524972Y-89930981D02*
X109524972Y-90499563D01*
X109522190Y-90527806D01*
X109524972Y-90556049D01*
X109524972Y-90556052D01*
X109533292Y-90640526D01*
X109552518Y-90703903D01*
X109558561Y-90723825D01*
X109548192Y-90718283D01*
X109439804Y-90685404D01*
X109355330Y-90677084D01*
X109355327Y-90677084D01*
X109327084Y-90674302D01*
X109298841Y-90677084D01*
X107338091Y-90677084D01*
X106825000Y-90163994D01*
X106825000Y-89980202D01*
X106831804Y-89957772D01*
X106842419Y-89850000D01*
X106842419Y-89232650D01*
X106844536Y-89230913D01*
X106847404Y-89227419D01*
X107465000Y-89227419D01*
X107572772Y-89216804D01*
X107628169Y-89200000D01*
X108793992Y-89200000D01*
X109524972Y-89930981D01*
G04 #@! TA.AperFunction,Conductor*
D33*
G36*
X109524972Y-89930981D02*
G01*
X109524972Y-90499563D01*
X109522190Y-90527806D01*
X109524972Y-90556049D01*
X109524972Y-90556052D01*
X109533292Y-90640526D01*
X109552518Y-90703903D01*
X109558561Y-90723825D01*
X109548192Y-90718283D01*
X109439804Y-90685404D01*
X109355330Y-90677084D01*
X109355327Y-90677084D01*
X109327084Y-90674302D01*
X109298841Y-90677084D01*
X107338091Y-90677084D01*
X106825000Y-90163994D01*
X106825000Y-89980202D01*
X106831804Y-89957772D01*
X106842419Y-89850000D01*
X106842419Y-89232650D01*
X106844536Y-89230913D01*
X106847404Y-89227419D01*
X107465000Y-89227419D01*
X107572772Y-89216804D01*
X107628169Y-89200000D01*
X108793992Y-89200000D01*
X109524972Y-89930981D01*
G37*
G04 #@! TD.AperFunction*
D28*
X111320000Y-88225000D02*
X111324804Y-88273773D01*
X111339030Y-88320671D01*
X111362133Y-88363893D01*
X111393223Y-88401777D01*
X111431107Y-88432867D01*
X111474329Y-88455970D01*
X111521227Y-88470196D01*
X111570000Y-88475000D01*
X113875000Y-88475000D01*
X113875000Y-89935000D01*
X111593172Y-89935000D01*
X111575000Y-89916828D01*
X111575000Y-89348245D01*
X111577782Y-89320002D01*
X111575000Y-89291756D01*
X111566680Y-89207282D01*
X111533801Y-89098894D01*
X111480408Y-88999004D01*
X111408554Y-88911448D01*
X111386613Y-88893442D01*
X110591336Y-88098166D01*
X110626909Y-88079152D01*
X110724259Y-87999259D01*
X110804152Y-87901909D01*
X110863518Y-87790843D01*
X110900075Y-87670330D01*
X110912419Y-87545000D01*
X110912419Y-87225000D01*
X111320000Y-87225000D01*
X111320000Y-88225000D01*
G04 #@! TA.AperFunction,Conductor*
D33*
G36*
X111320000Y-88225000D02*
G01*
X111324804Y-88273773D01*
X111339030Y-88320671D01*
X111362133Y-88363893D01*
X111393223Y-88401777D01*
X111431107Y-88432867D01*
X111474329Y-88455970D01*
X111521227Y-88470196D01*
X111570000Y-88475000D01*
X113875000Y-88475000D01*
X113875000Y-89935000D01*
X111593172Y-89935000D01*
X111575000Y-89916828D01*
X111575000Y-89348245D01*
X111577782Y-89320002D01*
X111575000Y-89291756D01*
X111566680Y-89207282D01*
X111533801Y-89098894D01*
X111480408Y-88999004D01*
X111408554Y-88911448D01*
X111386613Y-88893442D01*
X110591336Y-88098166D01*
X110626909Y-88079152D01*
X110724259Y-87999259D01*
X110804152Y-87901909D01*
X110863518Y-87790843D01*
X110900075Y-87670330D01*
X110912419Y-87545000D01*
X110912419Y-87225000D01*
X111320000Y-87225000D01*
X111320000Y-88225000D01*
G37*
G04 #@! TD.AperFunction*
D28*
X96453439Y-87011612D02*
X96471446Y-87033554D01*
X96493386Y-87051559D01*
X96559001Y-87105408D01*
X96658892Y-87158801D01*
X96767280Y-87191680D01*
X96851754Y-87200000D01*
X96851757Y-87200000D01*
X96880000Y-87202782D01*
X96908243Y-87200000D01*
X97694828Y-87200000D01*
X97636482Y-87309157D01*
X97599925Y-87429670D01*
X97587581Y-87555000D01*
X97587581Y-87850000D01*
X97072451Y-87850000D01*
X96449988Y-87227538D01*
X96449988Y-87008161D01*
X96453439Y-87011612D01*
G04 #@! TA.AperFunction,Conductor*
D33*
G36*
X96453439Y-87011612D02*
G01*
X96471446Y-87033554D01*
X96493386Y-87051559D01*
X96559001Y-87105408D01*
X96658892Y-87158801D01*
X96767280Y-87191680D01*
X96851754Y-87200000D01*
X96851757Y-87200000D01*
X96880000Y-87202782D01*
X96908243Y-87200000D01*
X97694828Y-87200000D01*
X97636482Y-87309157D01*
X97599925Y-87429670D01*
X97587581Y-87555000D01*
X97587581Y-87850000D01*
X97072451Y-87850000D01*
X96449988Y-87227538D01*
X96449988Y-87008161D01*
X96453439Y-87011612D01*
G37*
G04 #@! TD.AperFunction*
D28*
X104890021Y-87275000D02*
X102390000Y-87275000D01*
X102390000Y-84775000D01*
X104890125Y-84775000D01*
X104890021Y-87275000D01*
G04 #@! TA.AperFunction,Conductor*
D33*
G36*
X104890021Y-87275000D02*
G01*
X102390000Y-87275000D01*
X102390000Y-84775000D01*
X104890125Y-84775000D01*
X104890021Y-87275000D01*
G37*
G04 #@! TD.AperFunction*
D28*
X111251880Y-83731220D02*
X111200000Y-83992037D01*
X111200000Y-84257963D01*
X111251880Y-84518780D01*
X111320000Y-84683236D01*
X111320000Y-86025000D01*
X111262419Y-86025000D01*
X111262419Y-85762500D01*
X111249931Y-85635707D01*
X111212947Y-85513787D01*
X111152888Y-85401424D01*
X111072062Y-85302938D01*
X110973576Y-85222112D01*
X110861213Y-85162053D01*
X110739293Y-85125069D01*
X110612500Y-85112581D01*
X110267500Y-85112581D01*
X110230231Y-85116252D01*
X110230171Y-85115646D01*
X110193898Y-84996070D01*
X110134995Y-84885869D01*
X110093213Y-84834959D01*
X111290720Y-83637453D01*
X111251880Y-83731220D01*
G04 #@! TA.AperFunction,Conductor*
D33*
G36*
X111251880Y-83731220D02*
G01*
X111200000Y-83992037D01*
X111200000Y-84257963D01*
X111251880Y-84518780D01*
X111320000Y-84683236D01*
X111320000Y-86025000D01*
X111262419Y-86025000D01*
X111262419Y-85762500D01*
X111249931Y-85635707D01*
X111212947Y-85513787D01*
X111152888Y-85401424D01*
X111072062Y-85302938D01*
X110973576Y-85222112D01*
X110861213Y-85162053D01*
X110739293Y-85125069D01*
X110612500Y-85112581D01*
X110267500Y-85112581D01*
X110230231Y-85116252D01*
X110230171Y-85115646D01*
X110193898Y-84996070D01*
X110134995Y-84885869D01*
X110093213Y-84834959D01*
X111290720Y-83637453D01*
X111251880Y-83731220D01*
G37*
G04 #@! TD.AperFunction*
D28*
X96979159Y-84316610D02*
X96997166Y-84338552D01*
X97019106Y-84356557D01*
X97084721Y-84410406D01*
X97135805Y-84437711D01*
X97184612Y-84463799D01*
X97293000Y-84496678D01*
X97377474Y-84504998D01*
X97377476Y-84504998D01*
X97405719Y-84507780D01*
X97433962Y-84504998D01*
X97860000Y-84504998D01*
X97860000Y-84603793D01*
X97872912Y-84668710D01*
X97789525Y-84752097D01*
X97701975Y-84883125D01*
X97682085Y-84931144D01*
X97583587Y-84950736D01*
X97437996Y-85011042D01*
X97433085Y-85014323D01*
X97408951Y-84956058D01*
X97321401Y-84825030D01*
X97209970Y-84713599D01*
X97078942Y-84626049D01*
X96933351Y-84565743D01*
X96778793Y-84535000D01*
X96749999Y-84535000D01*
X96749999Y-84087450D01*
X96979159Y-84316610D01*
G04 #@! TA.AperFunction,Conductor*
D33*
G36*
X96979159Y-84316610D02*
G01*
X96997166Y-84338552D01*
X97019106Y-84356557D01*
X97084721Y-84410406D01*
X97135805Y-84437711D01*
X97184612Y-84463799D01*
X97293000Y-84496678D01*
X97377474Y-84504998D01*
X97377476Y-84504998D01*
X97405719Y-84507780D01*
X97433962Y-84504998D01*
X97860000Y-84504998D01*
X97860000Y-84603793D01*
X97872912Y-84668710D01*
X97789525Y-84752097D01*
X97701975Y-84883125D01*
X97682085Y-84931144D01*
X97583587Y-84950736D01*
X97437996Y-85011042D01*
X97433085Y-85014323D01*
X97408951Y-84956058D01*
X97321401Y-84825030D01*
X97209970Y-84713599D01*
X97078942Y-84626049D01*
X96933351Y-84565743D01*
X96778793Y-84535000D01*
X96749999Y-84535000D01*
X96749999Y-84087450D01*
X96979159Y-84316610D01*
G37*
G04 #@! TD.AperFunction*
D28*
X101035895Y-61471702D02*
X100970155Y-61548426D01*
X100912798Y-61630974D01*
X100862637Y-61722139D01*
X100833616Y-61815761D01*
X100813408Y-61914228D01*
X100803200Y-62014746D01*
X100803200Y-62350000D01*
X100678745Y-62350000D01*
X100519356Y-62381704D01*
X100369216Y-62443894D01*
X100234093Y-62534181D01*
X100119181Y-62649093D01*
X100028894Y-62784216D01*
X99966704Y-62934356D01*
X99935000Y-63093745D01*
X99935000Y-63256255D01*
X99966704Y-63415644D01*
X100028894Y-63565784D01*
X100119181Y-63700907D01*
X100234093Y-63815819D01*
X100295200Y-63856650D01*
X100295200Y-65150120D01*
X100304807Y-65247664D01*
X100323837Y-65343335D01*
X100352290Y-65437132D01*
X100398494Y-65523575D01*
X100452687Y-65604681D01*
X100514871Y-65680451D01*
X100590639Y-65742633D01*
X100671745Y-65796826D01*
X100758188Y-65843030D01*
X100851985Y-65871483D01*
X100947656Y-65890513D01*
X101045200Y-65900120D01*
X101253860Y-65900120D01*
X101300001Y-65895576D01*
X101300001Y-66735517D01*
X101297097Y-66765000D01*
X101308682Y-66882620D01*
X101319802Y-66919277D01*
X101327581Y-66944920D01*
X101327581Y-67150000D01*
X101339829Y-67274354D01*
X101376102Y-67393930D01*
X101435005Y-67504131D01*
X101514277Y-67600723D01*
X101610869Y-67679995D01*
X101721070Y-67738898D01*
X101840646Y-67775171D01*
X101965000Y-67787419D01*
X102225001Y-67787419D01*
X102225000Y-72365793D01*
X102220646Y-72410000D01*
X102225000Y-72454206D01*
X102238023Y-72586430D01*
X102289486Y-72756080D01*
X102373057Y-72912431D01*
X102485525Y-73049475D01*
X102519865Y-73077657D01*
X103434761Y-73992554D01*
X103434760Y-77889753D01*
X103430406Y-77933960D01*
X103434760Y-77978166D01*
X103447783Y-78110390D01*
X103499246Y-78280040D01*
X103582817Y-78436391D01*
X103651150Y-78519656D01*
X103610862Y-78595030D01*
X103574589Y-78714606D01*
X103562341Y-78838960D01*
X103562341Y-79108960D01*
X103574589Y-79233314D01*
X103610862Y-79352890D01*
X103669765Y-79463091D01*
X103749037Y-79559683D01*
X103845629Y-79638955D01*
X103955830Y-79697858D01*
X104075406Y-79734131D01*
X104199760Y-79746379D01*
X104368940Y-79746379D01*
X104368940Y-80037981D01*
X104122000Y-80037981D01*
X103996670Y-80050325D01*
X103876157Y-80086882D01*
X103796700Y-80129353D01*
X103717243Y-80086882D01*
X103596730Y-80050325D01*
X103471400Y-80037981D01*
X103292200Y-80037981D01*
X103292200Y-78302745D01*
X103294982Y-78274502D01*
X103291634Y-78240510D01*
X103283880Y-78161782D01*
X103251001Y-78053394D01*
X103232325Y-78018454D01*
X103197608Y-77953503D01*
X103143759Y-77887888D01*
X103125754Y-77865948D01*
X103103812Y-77847941D01*
X102118193Y-76862323D01*
X102100182Y-76840376D01*
X102012626Y-76768522D01*
X101912736Y-76715129D01*
X101812539Y-76684735D01*
X101878951Y-76585342D01*
X101939257Y-76439751D01*
X101970000Y-76285193D01*
X101970000Y-76127607D01*
X101939257Y-75973049D01*
X101878951Y-75827458D01*
X101791401Y-75696430D01*
X101679970Y-75584999D01*
X101548942Y-75497449D01*
X101403351Y-75437143D01*
X101348193Y-75426171D01*
X101380243Y-75409040D01*
X101486685Y-75321685D01*
X101574040Y-75215243D01*
X101638951Y-75093804D01*
X101678922Y-74962035D01*
X101692419Y-74825000D01*
X101692419Y-74425000D01*
X101678922Y-74287965D01*
X101638951Y-74156196D01*
X101574040Y-74034757D01*
X101486685Y-73928315D01*
X101380243Y-73840960D01*
X101258804Y-73776049D01*
X101127035Y-73736078D01*
X100990000Y-73722581D01*
X99390000Y-73722581D01*
X99252965Y-73736078D01*
X99121196Y-73776049D01*
X98999757Y-73840960D01*
X98893315Y-73928315D01*
X98805960Y-74034757D01*
X98741049Y-74156196D01*
X98701078Y-74287965D01*
X98687581Y-74425000D01*
X98687581Y-74825000D01*
X98701078Y-74962035D01*
X98741049Y-75093804D01*
X98786896Y-75179577D01*
X98558792Y-75407681D01*
X98517000Y-75407681D01*
X98391670Y-75420025D01*
X98271157Y-75456582D01*
X98160091Y-75515948D01*
X98062741Y-75595841D01*
X97982848Y-75693191D01*
X97923482Y-75804257D01*
X97886925Y-75924770D01*
X97874581Y-76050100D01*
X97874581Y-76330100D01*
X97886925Y-76455430D01*
X97923482Y-76575943D01*
X97973810Y-76670100D01*
X97923482Y-76764257D01*
X97886925Y-76884770D01*
X97874581Y-77010100D01*
X97874581Y-77290100D01*
X97886925Y-77415430D01*
X97923482Y-77535943D01*
X97982848Y-77647009D01*
X98062741Y-77744359D01*
X98160091Y-77824252D01*
X98271157Y-77883618D01*
X98391670Y-77920175D01*
X98517000Y-77932519D01*
X98620401Y-77932519D01*
X98620400Y-80488726D01*
X98617497Y-80518200D01*
X98622066Y-80564592D01*
X98629082Y-80635820D01*
X98640233Y-80672581D01*
X98440000Y-80672581D01*
X98314670Y-80684925D01*
X98194157Y-80721482D01*
X98083091Y-80780848D01*
X97985741Y-80860741D01*
X97905848Y-80958091D01*
X97846482Y-81069157D01*
X97809925Y-81189670D01*
X97797581Y-81315000D01*
X97797581Y-81595000D01*
X97809925Y-81720330D01*
X97846482Y-81840843D01*
X97905848Y-81951909D01*
X97985741Y-82049259D01*
X98083091Y-82129152D01*
X98194157Y-82188518D01*
X98314670Y-82225075D01*
X98349503Y-82228506D01*
X98346482Y-82234157D01*
X98309925Y-82354670D01*
X98297581Y-82480000D01*
X98297581Y-82675000D01*
X97838173Y-82675000D01*
X97649990Y-82486818D01*
X97649990Y-61178232D01*
X97652772Y-61149989D01*
X97649990Y-61121744D01*
X97641670Y-61037270D01*
X97608791Y-60928882D01*
X97591454Y-60896447D01*
X97555398Y-60828991D01*
X97501549Y-60763376D01*
X97483544Y-60741436D01*
X97461602Y-60723429D01*
X96651563Y-59913391D01*
X96651559Y-59913386D01*
X95992128Y-59253956D01*
X96048120Y-59118780D01*
X96100000Y-58857963D01*
X96100000Y-58592037D01*
X96048120Y-58331220D01*
X95980000Y-58166764D01*
X95980000Y-57750000D01*
X104942767Y-57750000D01*
X101035895Y-61471702D01*
G04 #@! TA.AperFunction,Conductor*
D33*
G36*
X101035895Y-61471702D02*
G01*
X100970155Y-61548426D01*
X100912798Y-61630974D01*
X100862637Y-61722139D01*
X100833616Y-61815761D01*
X100813408Y-61914228D01*
X100803200Y-62014746D01*
X100803200Y-62350000D01*
X100678745Y-62350000D01*
X100519356Y-62381704D01*
X100369216Y-62443894D01*
X100234093Y-62534181D01*
X100119181Y-62649093D01*
X100028894Y-62784216D01*
X99966704Y-62934356D01*
X99935000Y-63093745D01*
X99935000Y-63256255D01*
X99966704Y-63415644D01*
X100028894Y-63565784D01*
X100119181Y-63700907D01*
X100234093Y-63815819D01*
X100295200Y-63856650D01*
X100295200Y-65150120D01*
X100304807Y-65247664D01*
X100323837Y-65343335D01*
X100352290Y-65437132D01*
X100398494Y-65523575D01*
X100452687Y-65604681D01*
X100514871Y-65680451D01*
X100590639Y-65742633D01*
X100671745Y-65796826D01*
X100758188Y-65843030D01*
X100851985Y-65871483D01*
X100947656Y-65890513D01*
X101045200Y-65900120D01*
X101253860Y-65900120D01*
X101300001Y-65895576D01*
X101300001Y-66735517D01*
X101297097Y-66765000D01*
X101308682Y-66882620D01*
X101319802Y-66919277D01*
X101327581Y-66944920D01*
X101327581Y-67150000D01*
X101339829Y-67274354D01*
X101376102Y-67393930D01*
X101435005Y-67504131D01*
X101514277Y-67600723D01*
X101610869Y-67679995D01*
X101721070Y-67738898D01*
X101840646Y-67775171D01*
X101965000Y-67787419D01*
X102225001Y-67787419D01*
X102225000Y-72365793D01*
X102220646Y-72410000D01*
X102225000Y-72454206D01*
X102238023Y-72586430D01*
X102289486Y-72756080D01*
X102373057Y-72912431D01*
X102485525Y-73049475D01*
X102519865Y-73077657D01*
X103434761Y-73992554D01*
X103434760Y-77889753D01*
X103430406Y-77933960D01*
X103434760Y-77978166D01*
X103447783Y-78110390D01*
X103499246Y-78280040D01*
X103582817Y-78436391D01*
X103651150Y-78519656D01*
X103610862Y-78595030D01*
X103574589Y-78714606D01*
X103562341Y-78838960D01*
X103562341Y-79108960D01*
X103574589Y-79233314D01*
X103610862Y-79352890D01*
X103669765Y-79463091D01*
X103749037Y-79559683D01*
X103845629Y-79638955D01*
X103955830Y-79697858D01*
X104075406Y-79734131D01*
X104199760Y-79746379D01*
X104368940Y-79746379D01*
X104368940Y-80037981D01*
X104122000Y-80037981D01*
X103996670Y-80050325D01*
X103876157Y-80086882D01*
X103796700Y-80129353D01*
X103717243Y-80086882D01*
X103596730Y-80050325D01*
X103471400Y-80037981D01*
X103292200Y-80037981D01*
X103292200Y-78302745D01*
X103294982Y-78274502D01*
X103291634Y-78240510D01*
X103283880Y-78161782D01*
X103251001Y-78053394D01*
X103232325Y-78018454D01*
X103197608Y-77953503D01*
X103143759Y-77887888D01*
X103125754Y-77865948D01*
X103103812Y-77847941D01*
X102118193Y-76862323D01*
X102100182Y-76840376D01*
X102012626Y-76768522D01*
X101912736Y-76715129D01*
X101812539Y-76684735D01*
X101878951Y-76585342D01*
X101939257Y-76439751D01*
X101970000Y-76285193D01*
X101970000Y-76127607D01*
X101939257Y-75973049D01*
X101878951Y-75827458D01*
X101791401Y-75696430D01*
X101679970Y-75584999D01*
X101548942Y-75497449D01*
X101403351Y-75437143D01*
X101348193Y-75426171D01*
X101380243Y-75409040D01*
X101486685Y-75321685D01*
X101574040Y-75215243D01*
X101638951Y-75093804D01*
X101678922Y-74962035D01*
X101692419Y-74825000D01*
X101692419Y-74425000D01*
X101678922Y-74287965D01*
X101638951Y-74156196D01*
X101574040Y-74034757D01*
X101486685Y-73928315D01*
X101380243Y-73840960D01*
X101258804Y-73776049D01*
X101127035Y-73736078D01*
X100990000Y-73722581D01*
X99390000Y-73722581D01*
X99252965Y-73736078D01*
X99121196Y-73776049D01*
X98999757Y-73840960D01*
X98893315Y-73928315D01*
X98805960Y-74034757D01*
X98741049Y-74156196D01*
X98701078Y-74287965D01*
X98687581Y-74425000D01*
X98687581Y-74825000D01*
X98701078Y-74962035D01*
X98741049Y-75093804D01*
X98786896Y-75179577D01*
X98558792Y-75407681D01*
X98517000Y-75407681D01*
X98391670Y-75420025D01*
X98271157Y-75456582D01*
X98160091Y-75515948D01*
X98062741Y-75595841D01*
X97982848Y-75693191D01*
X97923482Y-75804257D01*
X97886925Y-75924770D01*
X97874581Y-76050100D01*
X97874581Y-76330100D01*
X97886925Y-76455430D01*
X97923482Y-76575943D01*
X97973810Y-76670100D01*
X97923482Y-76764257D01*
X97886925Y-76884770D01*
X97874581Y-77010100D01*
X97874581Y-77290100D01*
X97886925Y-77415430D01*
X97923482Y-77535943D01*
X97982848Y-77647009D01*
X98062741Y-77744359D01*
X98160091Y-77824252D01*
X98271157Y-77883618D01*
X98391670Y-77920175D01*
X98517000Y-77932519D01*
X98620401Y-77932519D01*
X98620400Y-80488726D01*
X98617497Y-80518200D01*
X98622066Y-80564592D01*
X98629082Y-80635820D01*
X98640233Y-80672581D01*
X98440000Y-80672581D01*
X98314670Y-80684925D01*
X98194157Y-80721482D01*
X98083091Y-80780848D01*
X97985741Y-80860741D01*
X97905848Y-80958091D01*
X97846482Y-81069157D01*
X97809925Y-81189670D01*
X97797581Y-81315000D01*
X97797581Y-81595000D01*
X97809925Y-81720330D01*
X97846482Y-81840843D01*
X97905848Y-81951909D01*
X97985741Y-82049259D01*
X98083091Y-82129152D01*
X98194157Y-82188518D01*
X98314670Y-82225075D01*
X98349503Y-82228506D01*
X98346482Y-82234157D01*
X98309925Y-82354670D01*
X98297581Y-82480000D01*
X98297581Y-82675000D01*
X97838173Y-82675000D01*
X97649990Y-82486818D01*
X97649990Y-61178232D01*
X97652772Y-61149989D01*
X97649990Y-61121744D01*
X97641670Y-61037270D01*
X97608791Y-60928882D01*
X97591454Y-60896447D01*
X97555398Y-60828991D01*
X97501549Y-60763376D01*
X97483544Y-60741436D01*
X97461602Y-60723429D01*
X96651563Y-59913391D01*
X96651559Y-59913386D01*
X95992128Y-59253956D01*
X96048120Y-59118780D01*
X96100000Y-58857963D01*
X96100000Y-58592037D01*
X96048120Y-58331220D01*
X95980000Y-58166764D01*
X95980000Y-57750000D01*
X104942767Y-57750000D01*
X101035895Y-61471702D01*
G37*
G04 #@! TD.AperFunction*
D28*
X111320000Y-62756929D02*
X111320000Y-62825000D01*
X111324804Y-62873773D01*
X111339030Y-62920671D01*
X111362133Y-62963893D01*
X111393223Y-63001777D01*
X111431107Y-63032867D01*
X111474329Y-63055970D01*
X111521227Y-63070196D01*
X111570000Y-63075000D01*
X113875001Y-63075000D01*
X113875001Y-64535000D01*
X111570000Y-64535000D01*
X111521227Y-64539804D01*
X111474329Y-64554030D01*
X111431107Y-64577133D01*
X111393223Y-64608223D01*
X111362133Y-64646107D01*
X111339030Y-64689329D01*
X111324804Y-64736227D01*
X111320000Y-64785000D01*
X111320000Y-65786764D01*
X111251880Y-65951220D01*
X111200000Y-66212037D01*
X111200000Y-66477963D01*
X111251880Y-66738780D01*
X111320000Y-66903236D01*
X111320000Y-68326764D01*
X111251880Y-68491220D01*
X111200000Y-68752037D01*
X111200000Y-69017963D01*
X111251880Y-69278780D01*
X111320000Y-69443236D01*
X111320000Y-70866764D01*
X111251880Y-71031220D01*
X111200000Y-71292037D01*
X111200000Y-71557963D01*
X111251880Y-71818780D01*
X111320000Y-71983236D01*
X111320000Y-73406764D01*
X111251880Y-73571220D01*
X111200000Y-73832037D01*
X111200000Y-74097963D01*
X111251880Y-74358780D01*
X111266867Y-74394961D01*
X110863389Y-74798439D01*
X110841447Y-74816446D01*
X110823441Y-74838387D01*
X110769592Y-74904002D01*
X110716199Y-75003893D01*
X110683321Y-75112281D01*
X110672218Y-75225000D01*
X110675001Y-75253253D01*
X110675000Y-80412550D01*
X110593379Y-80494171D01*
X110571437Y-80512178D01*
X110553431Y-80534119D01*
X110499582Y-80599734D01*
X110446189Y-80699625D01*
X110431236Y-80748920D01*
X110414021Y-80805674D01*
X110413311Y-80808013D01*
X110402208Y-80920732D01*
X110404991Y-80948985D01*
X110404990Y-82032559D01*
X110063377Y-82374173D01*
X110008200Y-82429350D01*
X110008200Y-72518268D01*
X110010152Y-72518103D01*
X110175656Y-72489917D01*
X110244103Y-72473225D01*
X110334079Y-72434345D01*
X110480923Y-72352965D01*
X110550904Y-72306069D01*
X110606758Y-72261386D01*
X110661501Y-72210429D01*
X110762771Y-72100922D01*
X110795752Y-72061350D01*
X110846573Y-71977537D01*
X110911036Y-71843031D01*
X110930879Y-71795486D01*
X110954716Y-71700411D01*
X110976634Y-71552874D01*
X110982061Y-71478285D01*
X110981110Y-71052067D01*
X110976707Y-70986967D01*
X110959461Y-70857888D01*
X110925552Y-70732153D01*
X110875558Y-70611906D01*
X110810330Y-70499193D01*
X110730980Y-70395935D01*
X110638858Y-70303888D01*
X110535534Y-70224623D01*
X110422768Y-70159489D01*
X110302480Y-70109594D01*
X110176718Y-70075789D01*
X110047626Y-70058649D01*
X110045490Y-70058506D01*
X110053017Y-70057765D01*
X110147267Y-70029175D01*
X110234129Y-69982746D01*
X110310264Y-69920264D01*
X110372746Y-69844129D01*
X110419175Y-69757267D01*
X110447765Y-69663017D01*
X110457419Y-69565000D01*
X110457419Y-68619345D01*
X110497544Y-68615393D01*
X110593215Y-68596363D01*
X110687012Y-68567910D01*
X110773455Y-68521706D01*
X110854561Y-68467513D01*
X110930331Y-68405329D01*
X110992513Y-68329561D01*
X111046706Y-68248455D01*
X111092910Y-68162012D01*
X111121363Y-68068215D01*
X111140393Y-67972544D01*
X111150000Y-67875000D01*
X111150000Y-62756721D01*
X111320000Y-62756929D01*
G04 #@! TA.AperFunction,Conductor*
D33*
G36*
X111320000Y-62756929D02*
G01*
X111320000Y-62825000D01*
X111324804Y-62873773D01*
X111339030Y-62920671D01*
X111362133Y-62963893D01*
X111393223Y-63001777D01*
X111431107Y-63032867D01*
X111474329Y-63055970D01*
X111521227Y-63070196D01*
X111570000Y-63075000D01*
X113875001Y-63075000D01*
X113875001Y-64535000D01*
X111570000Y-64535000D01*
X111521227Y-64539804D01*
X111474329Y-64554030D01*
X111431107Y-64577133D01*
X111393223Y-64608223D01*
X111362133Y-64646107D01*
X111339030Y-64689329D01*
X111324804Y-64736227D01*
X111320000Y-64785000D01*
X111320000Y-65786764D01*
X111251880Y-65951220D01*
X111200000Y-66212037D01*
X111200000Y-66477963D01*
X111251880Y-66738780D01*
X111320000Y-66903236D01*
X111320000Y-68326764D01*
X111251880Y-68491220D01*
X111200000Y-68752037D01*
X111200000Y-69017963D01*
X111251880Y-69278780D01*
X111320000Y-69443236D01*
X111320000Y-70866764D01*
X111251880Y-71031220D01*
X111200000Y-71292037D01*
X111200000Y-71557963D01*
X111251880Y-71818780D01*
X111320000Y-71983236D01*
X111320000Y-73406764D01*
X111251880Y-73571220D01*
X111200000Y-73832037D01*
X111200000Y-74097963D01*
X111251880Y-74358780D01*
X111266867Y-74394961D01*
X110863389Y-74798439D01*
X110841447Y-74816446D01*
X110823441Y-74838387D01*
X110769592Y-74904002D01*
X110716199Y-75003893D01*
X110683321Y-75112281D01*
X110672218Y-75225000D01*
X110675001Y-75253253D01*
X110675000Y-80412550D01*
X110593379Y-80494171D01*
X110571437Y-80512178D01*
X110553431Y-80534119D01*
X110499582Y-80599734D01*
X110446189Y-80699625D01*
X110431236Y-80748920D01*
X110414021Y-80805674D01*
X110413311Y-80808013D01*
X110402208Y-80920732D01*
X110404991Y-80948985D01*
X110404990Y-82032559D01*
X110063377Y-82374173D01*
X110008200Y-82429350D01*
X110008200Y-72518268D01*
X110010152Y-72518103D01*
X110175656Y-72489917D01*
X110244103Y-72473225D01*
X110334079Y-72434345D01*
X110480923Y-72352965D01*
X110550904Y-72306069D01*
X110606758Y-72261386D01*
X110661501Y-72210429D01*
X110762771Y-72100922D01*
X110795752Y-72061350D01*
X110846573Y-71977537D01*
X110911036Y-71843031D01*
X110930879Y-71795486D01*
X110954716Y-71700411D01*
X110976634Y-71552874D01*
X110982061Y-71478285D01*
X110981110Y-71052067D01*
X110976707Y-70986967D01*
X110959461Y-70857888D01*
X110925552Y-70732153D01*
X110875558Y-70611906D01*
X110810330Y-70499193D01*
X110730980Y-70395935D01*
X110638858Y-70303888D01*
X110535534Y-70224623D01*
X110422768Y-70159489D01*
X110302480Y-70109594D01*
X110176718Y-70075789D01*
X110047626Y-70058649D01*
X110045490Y-70058506D01*
X110053017Y-70057765D01*
X110147267Y-70029175D01*
X110234129Y-69982746D01*
X110310264Y-69920264D01*
X110372746Y-69844129D01*
X110419175Y-69757267D01*
X110447765Y-69663017D01*
X110457419Y-69565000D01*
X110457419Y-68619345D01*
X110497544Y-68615393D01*
X110593215Y-68596363D01*
X110687012Y-68567910D01*
X110773455Y-68521706D01*
X110854561Y-68467513D01*
X110930331Y-68405329D01*
X110992513Y-68329561D01*
X111046706Y-68248455D01*
X111092910Y-68162012D01*
X111121363Y-68068215D01*
X111140393Y-67972544D01*
X111150000Y-67875000D01*
X111150000Y-62756721D01*
X111320000Y-62756929D01*
G37*
G04 #@! TD.AperFunction*
D28*
X101047973Y-78914944D02*
X101163060Y-78926279D01*
X101202307Y-78926279D01*
X101583401Y-79307374D01*
X101583400Y-80778793D01*
X101574524Y-80774048D01*
X101466136Y-80741169D01*
X101427979Y-80737411D01*
X101427979Y-80561360D01*
X101416644Y-80446273D01*
X101383074Y-80335608D01*
X101328560Y-80233619D01*
X101255196Y-80144224D01*
X101165801Y-80070860D01*
X101063812Y-80016346D01*
X100953147Y-79982776D01*
X100838060Y-79971441D01*
X100663060Y-79971441D01*
X100547973Y-79982776D01*
X100500560Y-79997159D01*
X100453147Y-79982776D01*
X100338060Y-79971441D01*
X100163060Y-79971441D01*
X100047973Y-79982776D01*
X100000560Y-79997159D01*
X99953147Y-79982776D01*
X99838060Y-79971441D01*
X99820400Y-79971441D01*
X99820400Y-78926279D01*
X99838060Y-78926279D01*
X99848609Y-78925240D01*
X99927790Y-78925240D01*
X100025740Y-78915552D01*
X100037841Y-78911870D01*
X100047973Y-78914944D01*
X100163060Y-78926279D01*
X100338060Y-78926279D01*
X100453147Y-78914944D01*
X100500560Y-78900561D01*
X100547973Y-78914944D01*
X100663060Y-78926279D01*
X100838060Y-78926279D01*
X100953147Y-78914944D01*
X101000560Y-78900561D01*
X101047973Y-78914944D01*
G04 #@! TA.AperFunction,Conductor*
D33*
G36*
X101047973Y-78914944D02*
G01*
X101163060Y-78926279D01*
X101202307Y-78926279D01*
X101583401Y-79307374D01*
X101583400Y-80778793D01*
X101574524Y-80774048D01*
X101466136Y-80741169D01*
X101427979Y-80737411D01*
X101427979Y-80561360D01*
X101416644Y-80446273D01*
X101383074Y-80335608D01*
X101328560Y-80233619D01*
X101255196Y-80144224D01*
X101165801Y-80070860D01*
X101063812Y-80016346D01*
X100953147Y-79982776D01*
X100838060Y-79971441D01*
X100663060Y-79971441D01*
X100547973Y-79982776D01*
X100500560Y-79997159D01*
X100453147Y-79982776D01*
X100338060Y-79971441D01*
X100163060Y-79971441D01*
X100047973Y-79982776D01*
X100000560Y-79997159D01*
X99953147Y-79982776D01*
X99838060Y-79971441D01*
X99820400Y-79971441D01*
X99820400Y-78926279D01*
X99838060Y-78926279D01*
X99848609Y-78925240D01*
X99927790Y-78925240D01*
X100025740Y-78915552D01*
X100037841Y-78911870D01*
X100047973Y-78914944D01*
X100163060Y-78926279D01*
X100338060Y-78926279D01*
X100453147Y-78914944D01*
X100500560Y-78900561D01*
X100547973Y-78914944D01*
X100663060Y-78926279D01*
X100838060Y-78926279D01*
X100953147Y-78914944D01*
X101000560Y-78900561D01*
X101047973Y-78914944D01*
G37*
G04 #@! TD.AperFunction*
D28*
X106081869Y-79567595D02*
X106192070Y-79626498D01*
X106311646Y-79662771D01*
X106436000Y-79675019D01*
X106661214Y-79675019D01*
X106661240Y-79839288D01*
X106659910Y-80392634D01*
X106201820Y-80388951D01*
X106100255Y-80398542D01*
X106006458Y-80426995D01*
X105920015Y-80473200D01*
X105844247Y-80535382D01*
X105795950Y-80594231D01*
X105795950Y-79680615D01*
X105873891Y-79638955D01*
X105970483Y-79559683D01*
X106011432Y-79509788D01*
X106081869Y-79567595D01*
G04 #@! TA.AperFunction,Conductor*
D33*
G36*
X106081869Y-79567595D02*
G01*
X106192070Y-79626498D01*
X106311646Y-79662771D01*
X106436000Y-79675019D01*
X106661214Y-79675019D01*
X106661240Y-79839288D01*
X106659910Y-80392634D01*
X106201820Y-80388951D01*
X106100255Y-80398542D01*
X106006458Y-80426995D01*
X105920015Y-80473200D01*
X105844247Y-80535382D01*
X105795950Y-80594231D01*
X105795950Y-79680615D01*
X105873891Y-79638955D01*
X105970483Y-79559683D01*
X106011432Y-79509788D01*
X106081869Y-79567595D01*
G37*
G04 #@! TD.AperFunction*
D28*
X95899970Y-77302637D02*
X95868893Y-77277133D01*
X95825671Y-77254030D01*
X95778773Y-77239804D01*
X95730000Y-77235000D01*
X93425000Y-77235000D01*
X93425000Y-75775000D01*
X95730000Y-75775000D01*
X95778773Y-75770196D01*
X95825671Y-75755970D01*
X95868893Y-75732867D01*
X95899971Y-75707363D01*
X95899970Y-77302637D01*
G04 #@! TA.AperFunction,Conductor*
D33*
G36*
X95899970Y-77302637D02*
G01*
X95868893Y-77277133D01*
X95825671Y-77254030D01*
X95778773Y-77239804D01*
X95730000Y-77235000D01*
X93425000Y-77235000D01*
X93425000Y-75775000D01*
X95730000Y-75775000D01*
X95778773Y-75770196D01*
X95825671Y-75755970D01*
X95868893Y-75732867D01*
X95899971Y-75707363D01*
X95899970Y-77302637D01*
G37*
G04 #@! TD.AperFunction*
D28*
X113875001Y-77235000D02*
X111825000Y-77235000D01*
X111825000Y-75775000D01*
X113875001Y-75775000D01*
X113875001Y-77235000D01*
G04 #@! TA.AperFunction,Conductor*
D33*
G36*
X113875001Y-77235000D02*
G01*
X111825000Y-77235000D01*
X111825000Y-75775000D01*
X113875001Y-75775000D01*
X113875001Y-77235000D01*
G37*
G04 #@! TD.AperFunction*
D28*
X100660030Y-75584999D02*
X100548599Y-75696430D01*
X100461049Y-75827458D01*
X100400743Y-75973049D01*
X100370000Y-76127607D01*
X100370000Y-76193228D01*
X100144810Y-76418418D01*
X100136623Y-76414042D01*
X100016110Y-76377485D01*
X99890780Y-76365141D01*
X99550780Y-76365141D01*
X99495431Y-76370592D01*
X99499419Y-76330100D01*
X99499419Y-76164108D01*
X100136109Y-75527419D01*
X100746205Y-75527419D01*
X100660030Y-75584999D01*
G04 #@! TA.AperFunction,Conductor*
D33*
G36*
X100660030Y-75584999D02*
G01*
X100548599Y-75696430D01*
X100461049Y-75827458D01*
X100400743Y-75973049D01*
X100370000Y-76127607D01*
X100370000Y-76193228D01*
X100144810Y-76418418D01*
X100136623Y-76414042D01*
X100016110Y-76377485D01*
X99890780Y-76365141D01*
X99550780Y-76365141D01*
X99495431Y-76370592D01*
X99499419Y-76330100D01*
X99499419Y-76164108D01*
X100136109Y-75527419D01*
X100746205Y-75527419D01*
X100660030Y-75584999D01*
G37*
G04 #@! TD.AperFunction*
D28*
X105476102Y-67883930D02*
X105535005Y-67994131D01*
X105552132Y-68015000D01*
X105535005Y-68035869D01*
X105476102Y-68146070D01*
X105439829Y-68265646D01*
X105427581Y-68390000D01*
X105427581Y-68660000D01*
X105439829Y-68784354D01*
X105476102Y-68903930D01*
X105535005Y-69014131D01*
X105614277Y-69110723D01*
X105710869Y-69189995D01*
X105821070Y-69248898D01*
X105940646Y-69285171D01*
X106065000Y-69297419D01*
X106391023Y-69297419D01*
X106419668Y-69366574D01*
X106496274Y-69481224D01*
X106593776Y-69578726D01*
X106708426Y-69655332D01*
X106835818Y-69708099D01*
X106931695Y-69727171D01*
X106940825Y-69757267D01*
X106987254Y-69844129D01*
X107049736Y-69920264D01*
X107125871Y-69982746D01*
X107212733Y-70029175D01*
X107306983Y-70057765D01*
X107405000Y-70067419D01*
X108055000Y-70067419D01*
X108153017Y-70057765D01*
X108247267Y-70029175D01*
X108334129Y-69982746D01*
X108410264Y-69920264D01*
X108472746Y-69844129D01*
X108519175Y-69757267D01*
X108547765Y-69663017D01*
X108557419Y-69565000D01*
X108557419Y-68607005D01*
X108599380Y-68615364D01*
X108697068Y-68625000D01*
X108802581Y-68625000D01*
X108802581Y-69565000D01*
X108812235Y-69663017D01*
X108840825Y-69757267D01*
X108887254Y-69844129D01*
X108949736Y-69920264D01*
X109025871Y-69982746D01*
X109112733Y-70029175D01*
X109191887Y-70053186D01*
X108850408Y-70052705D01*
X108785081Y-70056899D01*
X108655534Y-70073784D01*
X108529303Y-70107448D01*
X108408553Y-70157315D01*
X108295352Y-70222530D01*
X108261522Y-70248445D01*
X108247267Y-70240825D01*
X108153017Y-70212235D01*
X108055000Y-70202581D01*
X107405000Y-70202581D01*
X107306983Y-70212235D01*
X107212733Y-70240825D01*
X107125871Y-70287254D01*
X107049736Y-70349736D01*
X106987254Y-70425871D01*
X106940825Y-70512733D01*
X106912235Y-70606983D01*
X106905881Y-70671500D01*
X106903606Y-70671500D01*
X106874259Y-70635741D01*
X106776909Y-70555848D01*
X106665843Y-70496482D01*
X106545330Y-70459925D01*
X106420000Y-70447581D01*
X106080000Y-70447581D01*
X105954670Y-70459925D01*
X105834157Y-70496482D01*
X105723091Y-70555848D01*
X105625741Y-70635741D01*
X105545848Y-70733091D01*
X105486482Y-70844157D01*
X105449925Y-70964670D01*
X105437581Y-71090000D01*
X105437581Y-71370000D01*
X105449925Y-71495330D01*
X105486482Y-71615843D01*
X105545848Y-71726909D01*
X105625741Y-71824259D01*
X105723091Y-71904152D01*
X105834157Y-71963518D01*
X105954670Y-72000075D01*
X106080000Y-72012419D01*
X106420000Y-72012419D01*
X106545330Y-72000075D01*
X106665843Y-71963518D01*
X106671770Y-71960350D01*
X106669592Y-71967533D01*
X106660000Y-72065080D01*
X106660256Y-73669981D01*
X106284760Y-73669981D01*
X106284760Y-73118366D01*
X106289114Y-73074160D01*
X106271737Y-72897729D01*
X106252972Y-72835871D01*
X106220274Y-72728079D01*
X106136703Y-72571728D01*
X106122260Y-72554129D01*
X106052415Y-72469022D01*
X106052413Y-72469020D01*
X106024235Y-72434685D01*
X105989900Y-72406507D01*
X105075000Y-71491608D01*
X105075000Y-67787419D01*
X105335000Y-67787419D01*
X105443582Y-67776724D01*
X105476102Y-67883930D01*
G04 #@! TA.AperFunction,Conductor*
D33*
G36*
X105476102Y-67883930D02*
G01*
X105535005Y-67994131D01*
X105552132Y-68015000D01*
X105535005Y-68035869D01*
X105476102Y-68146070D01*
X105439829Y-68265646D01*
X105427581Y-68390000D01*
X105427581Y-68660000D01*
X105439829Y-68784354D01*
X105476102Y-68903930D01*
X105535005Y-69014131D01*
X105614277Y-69110723D01*
X105710869Y-69189995D01*
X105821070Y-69248898D01*
X105940646Y-69285171D01*
X106065000Y-69297419D01*
X106391023Y-69297419D01*
X106419668Y-69366574D01*
X106496274Y-69481224D01*
X106593776Y-69578726D01*
X106708426Y-69655332D01*
X106835818Y-69708099D01*
X106931695Y-69727171D01*
X106940825Y-69757267D01*
X106987254Y-69844129D01*
X107049736Y-69920264D01*
X107125871Y-69982746D01*
X107212733Y-70029175D01*
X107306983Y-70057765D01*
X107405000Y-70067419D01*
X108055000Y-70067419D01*
X108153017Y-70057765D01*
X108247267Y-70029175D01*
X108334129Y-69982746D01*
X108410264Y-69920264D01*
X108472746Y-69844129D01*
X108519175Y-69757267D01*
X108547765Y-69663017D01*
X108557419Y-69565000D01*
X108557419Y-68607005D01*
X108599380Y-68615364D01*
X108697068Y-68625000D01*
X108802581Y-68625000D01*
X108802581Y-69565000D01*
X108812235Y-69663017D01*
X108840825Y-69757267D01*
X108887254Y-69844129D01*
X108949736Y-69920264D01*
X109025871Y-69982746D01*
X109112733Y-70029175D01*
X109191887Y-70053186D01*
X108850408Y-70052705D01*
X108785081Y-70056899D01*
X108655534Y-70073784D01*
X108529303Y-70107448D01*
X108408553Y-70157315D01*
X108295352Y-70222530D01*
X108261522Y-70248445D01*
X108247267Y-70240825D01*
X108153017Y-70212235D01*
X108055000Y-70202581D01*
X107405000Y-70202581D01*
X107306983Y-70212235D01*
X107212733Y-70240825D01*
X107125871Y-70287254D01*
X107049736Y-70349736D01*
X106987254Y-70425871D01*
X106940825Y-70512733D01*
X106912235Y-70606983D01*
X106905881Y-70671500D01*
X106903606Y-70671500D01*
X106874259Y-70635741D01*
X106776909Y-70555848D01*
X106665843Y-70496482D01*
X106545330Y-70459925D01*
X106420000Y-70447581D01*
X106080000Y-70447581D01*
X105954670Y-70459925D01*
X105834157Y-70496482D01*
X105723091Y-70555848D01*
X105625741Y-70635741D01*
X105545848Y-70733091D01*
X105486482Y-70844157D01*
X105449925Y-70964670D01*
X105437581Y-71090000D01*
X105437581Y-71370000D01*
X105449925Y-71495330D01*
X105486482Y-71615843D01*
X105545848Y-71726909D01*
X105625741Y-71824259D01*
X105723091Y-71904152D01*
X105834157Y-71963518D01*
X105954670Y-72000075D01*
X106080000Y-72012419D01*
X106420000Y-72012419D01*
X106545330Y-72000075D01*
X106665843Y-71963518D01*
X106671770Y-71960350D01*
X106669592Y-71967533D01*
X106660000Y-72065080D01*
X106660256Y-73669981D01*
X106284760Y-73669981D01*
X106284760Y-73118366D01*
X106289114Y-73074160D01*
X106271737Y-72897729D01*
X106252972Y-72835871D01*
X106220274Y-72728079D01*
X106136703Y-72571728D01*
X106122260Y-72554129D01*
X106052415Y-72469022D01*
X106052413Y-72469020D01*
X106024235Y-72434685D01*
X105989900Y-72406507D01*
X105075000Y-71491608D01*
X105075000Y-67787419D01*
X105335000Y-67787419D01*
X105443582Y-67776724D01*
X105476102Y-67883930D01*
G37*
G04 #@! TD.AperFunction*
D28*
X108465600Y-66165927D02*
X108412944Y-66181866D01*
X108326460Y-66227995D01*
X108245426Y-66282037D01*
X108169810Y-66343945D01*
X108107518Y-66419622D01*
X108053286Y-66500529D01*
X108007067Y-66586634D01*
X107978421Y-66680372D01*
X107959223Y-66775863D01*
X107949416Y-66873241D01*
X107947070Y-67873241D01*
X107956477Y-67970951D01*
X107962701Y-68002581D01*
X107405000Y-68002581D01*
X107306983Y-68012235D01*
X107212733Y-68040825D01*
X107125871Y-68087254D01*
X107049736Y-68149736D01*
X107031683Y-68171734D01*
X107023898Y-68146070D01*
X106964995Y-68035869D01*
X106947868Y-68015000D01*
X106964995Y-67994131D01*
X107023898Y-67883930D01*
X107060171Y-67764354D01*
X107072419Y-67640000D01*
X107072419Y-67370000D01*
X107060171Y-67245646D01*
X107023898Y-67126070D01*
X106964995Y-67015869D01*
X106885723Y-66919277D01*
X106800000Y-66848925D01*
X106800000Y-65645753D01*
X106817746Y-65624129D01*
X106864175Y-65537267D01*
X106892765Y-65443017D01*
X106894083Y-65429631D01*
X106921227Y-65340302D01*
X106940347Y-65244414D01*
X106950000Y-65146639D01*
X106950000Y-63893266D01*
X107065907Y-63815819D01*
X107180819Y-63700907D01*
X107271106Y-63565784D01*
X107333296Y-63415644D01*
X107365000Y-63256255D01*
X107365000Y-63093745D01*
X107333296Y-62934356D01*
X107271106Y-62784216D01*
X107180819Y-62649093D01*
X107180646Y-62648920D01*
X107350000Y-62648920D01*
X107447544Y-62639313D01*
X107543215Y-62620283D01*
X107637012Y-62591830D01*
X107723455Y-62545626D01*
X107804561Y-62491433D01*
X107880331Y-62429249D01*
X107942513Y-62353481D01*
X107996706Y-62272375D01*
X108042910Y-62185932D01*
X108071363Y-62092135D01*
X108090393Y-61996464D01*
X108100000Y-61898920D01*
X108100000Y-60992840D01*
X108465600Y-60992840D01*
X108465600Y-66165927D01*
G04 #@! TA.AperFunction,Conductor*
D33*
G36*
X108465600Y-66165927D02*
G01*
X108412944Y-66181866D01*
X108326460Y-66227995D01*
X108245426Y-66282037D01*
X108169810Y-66343945D01*
X108107518Y-66419622D01*
X108053286Y-66500529D01*
X108007067Y-66586634D01*
X107978421Y-66680372D01*
X107959223Y-66775863D01*
X107949416Y-66873241D01*
X107947070Y-67873241D01*
X107956477Y-67970951D01*
X107962701Y-68002581D01*
X107405000Y-68002581D01*
X107306983Y-68012235D01*
X107212733Y-68040825D01*
X107125871Y-68087254D01*
X107049736Y-68149736D01*
X107031683Y-68171734D01*
X107023898Y-68146070D01*
X106964995Y-68035869D01*
X106947868Y-68015000D01*
X106964995Y-67994131D01*
X107023898Y-67883930D01*
X107060171Y-67764354D01*
X107072419Y-67640000D01*
X107072419Y-67370000D01*
X107060171Y-67245646D01*
X107023898Y-67126070D01*
X106964995Y-67015869D01*
X106885723Y-66919277D01*
X106800000Y-66848925D01*
X106800000Y-65645753D01*
X106817746Y-65624129D01*
X106864175Y-65537267D01*
X106892765Y-65443017D01*
X106894083Y-65429631D01*
X106921227Y-65340302D01*
X106940347Y-65244414D01*
X106950000Y-65146639D01*
X106950000Y-63893266D01*
X107065907Y-63815819D01*
X107180819Y-63700907D01*
X107271106Y-63565784D01*
X107333296Y-63415644D01*
X107365000Y-63256255D01*
X107365000Y-63093745D01*
X107333296Y-62934356D01*
X107271106Y-62784216D01*
X107180819Y-62649093D01*
X107180646Y-62648920D01*
X107350000Y-62648920D01*
X107447544Y-62639313D01*
X107543215Y-62620283D01*
X107637012Y-62591830D01*
X107723455Y-62545626D01*
X107804561Y-62491433D01*
X107880331Y-62429249D01*
X107942513Y-62353481D01*
X107996706Y-62272375D01*
X108042910Y-62185932D01*
X108071363Y-62092135D01*
X108090393Y-61996464D01*
X108100000Y-61898920D01*
X108100000Y-60992840D01*
X108465600Y-60992840D01*
X108465600Y-66165927D01*
G37*
G04 #@! TD.AperFunction*
D28*
X96199980Y-63628153D02*
X96199980Y-67081808D01*
X95992128Y-66873956D01*
X96048120Y-66738780D01*
X96100000Y-66477963D01*
X96100000Y-66212037D01*
X96048120Y-65951220D01*
X95980000Y-65786764D01*
X95980000Y-64785000D01*
X95975196Y-64736227D01*
X95960970Y-64689329D01*
X95937867Y-64646107D01*
X95906777Y-64608223D01*
X95868893Y-64577133D01*
X95825671Y-64554030D01*
X95778773Y-64539804D01*
X95730000Y-64535000D01*
X93425000Y-64535000D01*
X93425000Y-63075000D01*
X95646828Y-63075000D01*
X96199980Y-63628153D01*
G04 #@! TA.AperFunction,Conductor*
D33*
G36*
X96199980Y-63628153D02*
G01*
X96199980Y-67081808D01*
X95992128Y-66873956D01*
X96048120Y-66738780D01*
X96100000Y-66477963D01*
X96100000Y-66212037D01*
X96048120Y-65951220D01*
X95980000Y-65786764D01*
X95980000Y-64785000D01*
X95975196Y-64736227D01*
X95960970Y-64689329D01*
X95937867Y-64646107D01*
X95906777Y-64608223D01*
X95868893Y-64577133D01*
X95825671Y-64554030D01*
X95778773Y-64539804D01*
X95730000Y-64535000D01*
X93425000Y-64535000D01*
X93425000Y-63075000D01*
X95646828Y-63075000D01*
X96199980Y-63628153D01*
G37*
G04 #@! TD.AperFunction*
D28*
X96499991Y-61388164D02*
X96499991Y-62301819D01*
X96426563Y-62228391D01*
X96426559Y-62228386D01*
X95992128Y-61793956D01*
X96048120Y-61658780D01*
X96100000Y-61397963D01*
X96100000Y-61132037D01*
X96064278Y-60952450D01*
X96499991Y-61388164D01*
G04 #@! TA.AperFunction,Conductor*
D33*
G36*
X96499991Y-61388164D02*
G01*
X96499991Y-62301819D01*
X96426563Y-62228391D01*
X96426559Y-62228386D01*
X95992128Y-61793956D01*
X96048120Y-61658780D01*
X96100000Y-61397963D01*
X96100000Y-61132037D01*
X96064278Y-60952450D01*
X96499991Y-61388164D01*
G37*
G04 #@! TD.AperFunction*
D34*
X109973335Y-70681287D02*
X110077656Y-70695138D01*
X110167134Y-70732253D01*
X110243981Y-70791207D01*
X110303008Y-70868018D01*
X110340193Y-70957457D01*
X110354130Y-71061765D01*
X110355041Y-71470164D01*
X110337339Y-71589323D01*
X110289432Y-71689283D01*
X110207639Y-71777729D01*
X110167603Y-71809758D01*
X110049069Y-71875448D01*
X109915474Y-71898200D01*
X109666900Y-71898200D01*
X109634030Y-71902527D01*
X109546580Y-71925959D01*
X109523280Y-71934729D01*
X109502137Y-71947876D01*
X109489647Y-71958829D01*
X109425629Y-72022847D01*
X109409835Y-72042093D01*
X109398099Y-72064049D01*
X109392759Y-72079780D01*
X109369333Y-72167209D01*
X109354714Y-72221729D01*
X109338872Y-72237555D01*
X109300504Y-72247800D01*
X108328688Y-72246785D01*
X108332959Y-72215367D01*
X108360355Y-72151519D01*
X108386648Y-72107696D01*
X108394456Y-72092433D01*
X108447567Y-71968652D01*
X108456700Y-71935682D01*
X108474843Y-71802215D01*
X108476000Y-71785108D01*
X108476000Y-71061038D01*
X108489793Y-70956363D01*
X108527011Y-70866602D01*
X108586211Y-70789545D01*
X108663351Y-70730454D01*
X108753166Y-70693362D01*
X108857857Y-70679717D01*
X109973335Y-70681287D01*
G04 #@! TA.AperFunction,Conductor*
D33*
G36*
X109973335Y-70681287D02*
G01*
X110077656Y-70695138D01*
X110167134Y-70732253D01*
X110243981Y-70791207D01*
X110303008Y-70868018D01*
X110340193Y-70957457D01*
X110354130Y-71061765D01*
X110355041Y-71470164D01*
X110337339Y-71589323D01*
X110289432Y-71689283D01*
X110207639Y-71777729D01*
X110167603Y-71809758D01*
X110049069Y-71875448D01*
X109915474Y-71898200D01*
X109666900Y-71898200D01*
X109634030Y-71902527D01*
X109546580Y-71925959D01*
X109523280Y-71934729D01*
X109502137Y-71947876D01*
X109489647Y-71958829D01*
X109425629Y-72022847D01*
X109409835Y-72042093D01*
X109398099Y-72064049D01*
X109392759Y-72079780D01*
X109369333Y-72167209D01*
X109354714Y-72221729D01*
X109338872Y-72237555D01*
X109300504Y-72247800D01*
X108328688Y-72246785D01*
X108332959Y-72215367D01*
X108360355Y-72151519D01*
X108386648Y-72107696D01*
X108394456Y-72092433D01*
X108447567Y-71968652D01*
X108456700Y-71935682D01*
X108474843Y-71802215D01*
X108476000Y-71785108D01*
X108476000Y-71061038D01*
X108489793Y-70956363D01*
X108527011Y-70866602D01*
X108586211Y-70789545D01*
X108663351Y-70730454D01*
X108753166Y-70693362D01*
X108857857Y-70679717D01*
X109973335Y-70681287D01*
G37*
G04 #@! TD.AperFunction*
M02*
