G04 #@! TF.GenerationSoftware,KiCad,Pcbnew,(5.1.10)-1*
G04 #@! TF.CreationDate,2021-11-11T08:54:43+00:00*
G04 #@! TF.ProjectId,EnvOpenPico,456e764f-7065-46e5-9069-636f2e6b6963,REV1*
G04 #@! TF.SameCoordinates,Original*
G04 #@! TF.FileFunction,Soldermask,Bot*
G04 #@! TF.FilePolarity,Negative*
%FSLAX46Y46*%
G04 Gerber Fmt 4.6, Leading zero omitted, Abs format (unit mm)*
G04 Created by KiCad (PCBNEW (5.1.10)-1) date 2021-11-11 08:54:43*
%MOMM*%
%LPD*%
G01*
G04 APERTURE LIST*
%ADD10O,1.802000X1.802000*%
%ADD11C,1.802000*%
%ADD12C,0.752000*%
%ADD13O,1.102000X2.202000*%
%ADD14O,1.102000X1.702000*%
G04 APERTURE END LIST*
G36*
G01*
X107699000Y-74575000D02*
X107699000Y-72825000D01*
G75*
G02*
X107750000Y-72774000I51000J0D01*
G01*
X109500000Y-72774000D01*
G75*
G02*
X109551000Y-72825000I0J-51000D01*
G01*
X109551000Y-74575000D01*
G75*
G02*
X109500000Y-74626000I-51000J0D01*
G01*
X107750000Y-74626000D01*
G75*
G02*
X107699000Y-74575000I0J51000D01*
G01*
G37*
D10*
X101100000Y-106900000D03*
G36*
G01*
X104090500Y-107801000D02*
X103189500Y-107801000D01*
G75*
G02*
X102739000Y-107350500I0J450500D01*
G01*
X102739000Y-106449500D01*
G75*
G02*
X103189500Y-105999000I450500J0D01*
G01*
X104090500Y-105999000D01*
G75*
G02*
X104541000Y-106449500I0J-450500D01*
G01*
X104541000Y-107350500D01*
G75*
G02*
X104090500Y-107801000I-450500J0D01*
G01*
G37*
X106180000Y-106900000D03*
G36*
G01*
X105674000Y-84575000D02*
X105674000Y-82825000D01*
G75*
G02*
X105725000Y-82774000I51000J0D01*
G01*
X107475000Y-82774000D01*
G75*
G02*
X107526000Y-82825000I0J-51000D01*
G01*
X107526000Y-84575000D01*
G75*
G02*
X107475000Y-84626000I-51000J0D01*
G01*
X105725000Y-84626000D01*
G75*
G02*
X105674000Y-84575000I0J51000D01*
G01*
G37*
G36*
G01*
X99874000Y-85800000D02*
X99874000Y-84050000D01*
G75*
G02*
X99925000Y-83999000I51000J0D01*
G01*
X101675000Y-83999000D01*
G75*
G02*
X101726000Y-84050000I0J-51000D01*
G01*
X101726000Y-85800000D01*
G75*
G02*
X101675000Y-85851000I-51000J0D01*
G01*
X99925000Y-85851000D01*
G75*
G02*
X99874000Y-85800000I0J51000D01*
G01*
G37*
G36*
G01*
X103749000Y-59625000D02*
X103749000Y-57625000D01*
G75*
G02*
X103800000Y-57574000I51000J0D01*
G01*
X105800000Y-57574000D01*
G75*
G02*
X105851000Y-57625000I0J-51000D01*
G01*
X105851000Y-59625000D01*
G75*
G02*
X105800000Y-59676000I-51000J0D01*
G01*
X103800000Y-59676000D01*
G75*
G02*
X103749000Y-59625000I0J51000D01*
G01*
G37*
G36*
G01*
X101449000Y-59625000D02*
X101449000Y-57625000D01*
G75*
G02*
X101500000Y-57574000I51000J0D01*
G01*
X103500000Y-57574000D01*
G75*
G02*
X103551000Y-57625000I0J-51000D01*
G01*
X103551000Y-59625000D01*
G75*
G02*
X103500000Y-59676000I-51000J0D01*
G01*
X101500000Y-59676000D01*
G75*
G02*
X101449000Y-59625000I0J51000D01*
G01*
G37*
G36*
G01*
X116021000Y-80710000D02*
X116021000Y-82410000D01*
G75*
G02*
X115970000Y-82461000I-51000J0D01*
G01*
X112470000Y-82461000D01*
G75*
G02*
X112419000Y-82410000I0J51000D01*
G01*
X112419000Y-80710000D01*
G75*
G02*
X112470000Y-80659000I51000J0D01*
G01*
X115970000Y-80659000D01*
G75*
G02*
X116021000Y-80710000I0J-51000D01*
G01*
G37*
G36*
G01*
X116021000Y-65470000D02*
X116021000Y-67170000D01*
G75*
G02*
X115970000Y-67221000I-51000J0D01*
G01*
X112470000Y-67221000D01*
G75*
G02*
X112419000Y-67170000I0J51000D01*
G01*
X112419000Y-65470000D01*
G75*
G02*
X112470000Y-65419000I51000J0D01*
G01*
X115970000Y-65419000D01*
G75*
G02*
X116021000Y-65470000I0J-51000D01*
G01*
G37*
G36*
G01*
X116021000Y-78170000D02*
X116021000Y-79870000D01*
G75*
G02*
X115970000Y-79921000I-51000J0D01*
G01*
X112470000Y-79921000D01*
G75*
G02*
X112419000Y-79870000I0J51000D01*
G01*
X112419000Y-78170000D01*
G75*
G02*
X112470000Y-78119000I51000J0D01*
G01*
X115970000Y-78119000D01*
G75*
G02*
X116021000Y-78170000I0J-51000D01*
G01*
G37*
G36*
G01*
X116021000Y-57850000D02*
X116021000Y-59550000D01*
G75*
G02*
X115970000Y-59601000I-51000J0D01*
G01*
X112470000Y-59601000D01*
G75*
G02*
X112419000Y-59550000I0J51000D01*
G01*
X112419000Y-57850000D01*
G75*
G02*
X112470000Y-57799000I51000J0D01*
G01*
X115970000Y-57799000D01*
G75*
G02*
X116021000Y-57850000I0J-51000D01*
G01*
G37*
G36*
G01*
X116021000Y-62930000D02*
X116021000Y-64630000D01*
G75*
G02*
X115970000Y-64681000I-51000J0D01*
G01*
X112470000Y-64681000D01*
G75*
G02*
X112419000Y-64630000I0J51000D01*
G01*
X112419000Y-62930000D01*
G75*
G02*
X112470000Y-62879000I51000J0D01*
G01*
X115970000Y-62879000D01*
G75*
G02*
X116021000Y-62930000I0J-51000D01*
G01*
G37*
G36*
G01*
X116021000Y-75630000D02*
X116021000Y-77330000D01*
G75*
G02*
X115970000Y-77381000I-51000J0D01*
G01*
X112470000Y-77381000D01*
G75*
G02*
X112419000Y-77330000I0J51000D01*
G01*
X112419000Y-75630000D01*
G75*
G02*
X112470000Y-75579000I51000J0D01*
G01*
X115970000Y-75579000D01*
G75*
G02*
X116021000Y-75630000I0J-51000D01*
G01*
G37*
G36*
G01*
X116021000Y-88330000D02*
X116021000Y-90030000D01*
G75*
G02*
X115970000Y-90081000I-51000J0D01*
G01*
X112470000Y-90081000D01*
G75*
G02*
X112419000Y-90030000I0J51000D01*
G01*
X112419000Y-88330000D01*
G75*
G02*
X112470000Y-88279000I51000J0D01*
G01*
X115970000Y-88279000D01*
G75*
G02*
X116021000Y-88330000I0J-51000D01*
G01*
G37*
G36*
G01*
X116021000Y-60390000D02*
X116021000Y-62090000D01*
G75*
G02*
X115970000Y-62141000I-51000J0D01*
G01*
X112470000Y-62141000D01*
G75*
G02*
X112419000Y-62090000I0J51000D01*
G01*
X112419000Y-60390000D01*
G75*
G02*
X112470000Y-60339000I51000J0D01*
G01*
X115970000Y-60339000D01*
G75*
G02*
X116021000Y-60390000I0J-51000D01*
G01*
G37*
G36*
G01*
X116021000Y-68010000D02*
X116021000Y-69710000D01*
G75*
G02*
X115970000Y-69761000I-51000J0D01*
G01*
X112470000Y-69761000D01*
G75*
G02*
X112419000Y-69710000I0J51000D01*
G01*
X112419000Y-68010000D01*
G75*
G02*
X112470000Y-67959000I51000J0D01*
G01*
X115970000Y-67959000D01*
G75*
G02*
X116021000Y-68010000I0J-51000D01*
G01*
G37*
G36*
G01*
X116021000Y-70550000D02*
X116021000Y-72250000D01*
G75*
G02*
X115970000Y-72301000I-51000J0D01*
G01*
X112470000Y-72301000D01*
G75*
G02*
X112419000Y-72250000I0J51000D01*
G01*
X112419000Y-70550000D01*
G75*
G02*
X112470000Y-70499000I51000J0D01*
G01*
X115970000Y-70499000D01*
G75*
G02*
X116021000Y-70550000I0J-51000D01*
G01*
G37*
G36*
G01*
X116021000Y-73090000D02*
X116021000Y-74790000D01*
G75*
G02*
X115970000Y-74841000I-51000J0D01*
G01*
X112470000Y-74841000D01*
G75*
G02*
X112419000Y-74790000I0J51000D01*
G01*
X112419000Y-73090000D01*
G75*
G02*
X112470000Y-73039000I51000J0D01*
G01*
X115970000Y-73039000D01*
G75*
G02*
X116021000Y-73090000I0J-51000D01*
G01*
G37*
G36*
G01*
X116021000Y-83250000D02*
X116021000Y-84950000D01*
G75*
G02*
X115970000Y-85001000I-51000J0D01*
G01*
X112470000Y-85001000D01*
G75*
G02*
X112419000Y-84950000I0J51000D01*
G01*
X112419000Y-83250000D01*
G75*
G02*
X112470000Y-83199000I51000J0D01*
G01*
X115970000Y-83199000D01*
G75*
G02*
X116021000Y-83250000I0J-51000D01*
G01*
G37*
G36*
G01*
X116021000Y-90870000D02*
X116021000Y-92570000D01*
G75*
G02*
X115970000Y-92621000I-51000J0D01*
G01*
X112470000Y-92621000D01*
G75*
G02*
X112419000Y-92570000I0J51000D01*
G01*
X112419000Y-90870000D01*
G75*
G02*
X112470000Y-90819000I51000J0D01*
G01*
X115970000Y-90819000D01*
G75*
G02*
X116021000Y-90870000I0J-51000D01*
G01*
G37*
G36*
G01*
X116021000Y-85790000D02*
X116021000Y-87490000D01*
G75*
G02*
X115970000Y-87541000I-51000J0D01*
G01*
X112470000Y-87541000D01*
G75*
G02*
X112419000Y-87490000I0J51000D01*
G01*
X112419000Y-85790000D01*
G75*
G02*
X112470000Y-85739000I51000J0D01*
G01*
X115970000Y-85739000D01*
G75*
G02*
X116021000Y-85790000I0J-51000D01*
G01*
G37*
G36*
G01*
X116021000Y-106110000D02*
X116021000Y-107810000D01*
G75*
G02*
X115970000Y-107861000I-51000J0D01*
G01*
X112470000Y-107861000D01*
G75*
G02*
X112419000Y-107810000I0J51000D01*
G01*
X112419000Y-106110000D01*
G75*
G02*
X112470000Y-106059000I51000J0D01*
G01*
X115970000Y-106059000D01*
G75*
G02*
X116021000Y-106110000I0J-51000D01*
G01*
G37*
G36*
G01*
X116021000Y-93410000D02*
X116021000Y-95110000D01*
G75*
G02*
X115970000Y-95161000I-51000J0D01*
G01*
X112470000Y-95161000D01*
G75*
G02*
X112419000Y-95110000I0J51000D01*
G01*
X112419000Y-93410000D01*
G75*
G02*
X112470000Y-93359000I51000J0D01*
G01*
X115970000Y-93359000D01*
G75*
G02*
X116021000Y-93410000I0J-51000D01*
G01*
G37*
G36*
G01*
X116021000Y-103570000D02*
X116021000Y-105270000D01*
G75*
G02*
X115970000Y-105321000I-51000J0D01*
G01*
X112470000Y-105321000D01*
G75*
G02*
X112419000Y-105270000I0J51000D01*
G01*
X112419000Y-103570000D01*
G75*
G02*
X112470000Y-103519000I51000J0D01*
G01*
X115970000Y-103519000D01*
G75*
G02*
X116021000Y-103570000I0J-51000D01*
G01*
G37*
G36*
G01*
X116021000Y-95950000D02*
X116021000Y-97650000D01*
G75*
G02*
X115970000Y-97701000I-51000J0D01*
G01*
X112470000Y-97701000D01*
G75*
G02*
X112419000Y-97650000I0J51000D01*
G01*
X112419000Y-95950000D01*
G75*
G02*
X112470000Y-95899000I51000J0D01*
G01*
X115970000Y-95899000D01*
G75*
G02*
X116021000Y-95950000I0J-51000D01*
G01*
G37*
G36*
G01*
X116021000Y-101030000D02*
X116021000Y-102730000D01*
G75*
G02*
X115970000Y-102781000I-51000J0D01*
G01*
X112470000Y-102781000D01*
G75*
G02*
X112419000Y-102730000I0J51000D01*
G01*
X112419000Y-101030000D01*
G75*
G02*
X112470000Y-100979000I51000J0D01*
G01*
X115970000Y-100979000D01*
G75*
G02*
X116021000Y-101030000I0J-51000D01*
G01*
G37*
G36*
G01*
X116021000Y-98490000D02*
X116021000Y-100190000D01*
G75*
G02*
X115970000Y-100241000I-51000J0D01*
G01*
X112470000Y-100241000D01*
G75*
G02*
X112419000Y-100190000I0J51000D01*
G01*
X112419000Y-98490000D01*
G75*
G02*
X112470000Y-98439000I51000J0D01*
G01*
X115970000Y-98439000D01*
G75*
G02*
X116021000Y-98490000I0J-51000D01*
G01*
G37*
G36*
G01*
X113421000Y-57850000D02*
X113421000Y-59550000D01*
G75*
G02*
X113370000Y-59601000I-51000J0D01*
G01*
X111670000Y-59601000D01*
G75*
G02*
X111619000Y-59550000I0J51000D01*
G01*
X111619000Y-57850000D01*
G75*
G02*
X111670000Y-57799000I51000J0D01*
G01*
X113370000Y-57799000D01*
G75*
G02*
X113421000Y-57850000I0J-51000D01*
G01*
G37*
X112520000Y-61240000D03*
G36*
G01*
X113421000Y-62930000D02*
X113421000Y-64630000D01*
G75*
G02*
X113370000Y-64681000I-51000J0D01*
G01*
X111670000Y-64681000D01*
G75*
G02*
X111619000Y-64630000I0J51000D01*
G01*
X111619000Y-62930000D01*
G75*
G02*
X111670000Y-62879000I51000J0D01*
G01*
X113370000Y-62879000D01*
G75*
G02*
X113421000Y-62930000I0J-51000D01*
G01*
G37*
X112520000Y-66320000D03*
X112520000Y-68860000D03*
X112520000Y-71400000D03*
X112520000Y-73940000D03*
G36*
G01*
X113421000Y-75630000D02*
X113421000Y-77330000D01*
G75*
G02*
X113370000Y-77381000I-51000J0D01*
G01*
X111670000Y-77381000D01*
G75*
G02*
X111619000Y-77330000I0J51000D01*
G01*
X111619000Y-75630000D01*
G75*
G02*
X111670000Y-75579000I51000J0D01*
G01*
X113370000Y-75579000D01*
G75*
G02*
X113421000Y-75630000I0J-51000D01*
G01*
G37*
X112520000Y-79020000D03*
X112520000Y-81560000D03*
X112520000Y-84100000D03*
X112520000Y-86640000D03*
G36*
G01*
X113421000Y-88330000D02*
X113421000Y-90030000D01*
G75*
G02*
X113370000Y-90081000I-51000J0D01*
G01*
X111670000Y-90081000D01*
G75*
G02*
X111619000Y-90030000I0J51000D01*
G01*
X111619000Y-88330000D01*
G75*
G02*
X111670000Y-88279000I51000J0D01*
G01*
X113370000Y-88279000D01*
G75*
G02*
X113421000Y-88330000I0J-51000D01*
G01*
G37*
X112520000Y-91720000D03*
X112520000Y-94260000D03*
X112520000Y-96800000D03*
X112520000Y-99340000D03*
G36*
G01*
X113421000Y-101030000D02*
X113421000Y-102730000D01*
G75*
G02*
X113370000Y-102781000I-51000J0D01*
G01*
X111670000Y-102781000D01*
G75*
G02*
X111619000Y-102730000I0J51000D01*
G01*
X111619000Y-101030000D01*
G75*
G02*
X111670000Y-100979000I51000J0D01*
G01*
X113370000Y-100979000D01*
G75*
G02*
X113421000Y-101030000I0J-51000D01*
G01*
G37*
X112520000Y-104420000D03*
X112520000Y-106960000D03*
G36*
G01*
X91199000Y-59490000D02*
X91199000Y-57790000D01*
G75*
G02*
X91250000Y-57739000I51000J0D01*
G01*
X94750000Y-57739000D01*
G75*
G02*
X94801000Y-57790000I0J-51000D01*
G01*
X94801000Y-59490000D01*
G75*
G02*
X94750000Y-59541000I-51000J0D01*
G01*
X91250000Y-59541000D01*
G75*
G02*
X91199000Y-59490000I0J51000D01*
G01*
G37*
G36*
G01*
X91199000Y-102670000D02*
X91199000Y-100970000D01*
G75*
G02*
X91250000Y-100919000I51000J0D01*
G01*
X94750000Y-100919000D01*
G75*
G02*
X94801000Y-100970000I0J-51000D01*
G01*
X94801000Y-102670000D01*
G75*
G02*
X94750000Y-102721000I-51000J0D01*
G01*
X91250000Y-102721000D01*
G75*
G02*
X91199000Y-102670000I0J51000D01*
G01*
G37*
G36*
G01*
X91199000Y-64570000D02*
X91199000Y-62870000D01*
G75*
G02*
X91250000Y-62819000I51000J0D01*
G01*
X94750000Y-62819000D01*
G75*
G02*
X94801000Y-62870000I0J-51000D01*
G01*
X94801000Y-64570000D01*
G75*
G02*
X94750000Y-64621000I-51000J0D01*
G01*
X91250000Y-64621000D01*
G75*
G02*
X91199000Y-64570000I0J51000D01*
G01*
G37*
G36*
G01*
X91199000Y-84890000D02*
X91199000Y-83190000D01*
G75*
G02*
X91250000Y-83139000I51000J0D01*
G01*
X94750000Y-83139000D01*
G75*
G02*
X94801000Y-83190000I0J-51000D01*
G01*
X94801000Y-84890000D01*
G75*
G02*
X94750000Y-84941000I-51000J0D01*
G01*
X91250000Y-84941000D01*
G75*
G02*
X91199000Y-84890000I0J51000D01*
G01*
G37*
G36*
G01*
X91199000Y-107750000D02*
X91199000Y-106050000D01*
G75*
G02*
X91250000Y-105999000I51000J0D01*
G01*
X94750000Y-105999000D01*
G75*
G02*
X94801000Y-106050000I0J-51000D01*
G01*
X94801000Y-107750000D01*
G75*
G02*
X94750000Y-107801000I-51000J0D01*
G01*
X91250000Y-107801000D01*
G75*
G02*
X91199000Y-107750000I0J51000D01*
G01*
G37*
G36*
G01*
X91199000Y-77270000D02*
X91199000Y-75570000D01*
G75*
G02*
X91250000Y-75519000I51000J0D01*
G01*
X94750000Y-75519000D01*
G75*
G02*
X94801000Y-75570000I0J-51000D01*
G01*
X94801000Y-77270000D01*
G75*
G02*
X94750000Y-77321000I-51000J0D01*
G01*
X91250000Y-77321000D01*
G75*
G02*
X91199000Y-77270000I0J51000D01*
G01*
G37*
G36*
G01*
X91199000Y-82350000D02*
X91199000Y-80650000D01*
G75*
G02*
X91250000Y-80599000I51000J0D01*
G01*
X94750000Y-80599000D01*
G75*
G02*
X94801000Y-80650000I0J-51000D01*
G01*
X94801000Y-82350000D01*
G75*
G02*
X94750000Y-82401000I-51000J0D01*
G01*
X91250000Y-82401000D01*
G75*
G02*
X91199000Y-82350000I0J51000D01*
G01*
G37*
G36*
G01*
X91199000Y-97590000D02*
X91199000Y-95890000D01*
G75*
G02*
X91250000Y-95839000I51000J0D01*
G01*
X94750000Y-95839000D01*
G75*
G02*
X94801000Y-95890000I0J-51000D01*
G01*
X94801000Y-97590000D01*
G75*
G02*
X94750000Y-97641000I-51000J0D01*
G01*
X91250000Y-97641000D01*
G75*
G02*
X91199000Y-97590000I0J51000D01*
G01*
G37*
G36*
G01*
X91189000Y-92510000D02*
X91189000Y-90810000D01*
G75*
G02*
X91240000Y-90759000I51000J0D01*
G01*
X94740000Y-90759000D01*
G75*
G02*
X94791000Y-90810000I0J-51000D01*
G01*
X94791000Y-92510000D01*
G75*
G02*
X94740000Y-92561000I-51000J0D01*
G01*
X91240000Y-92561000D01*
G75*
G02*
X91189000Y-92510000I0J51000D01*
G01*
G37*
G36*
G01*
X91199000Y-67100000D02*
X91199000Y-65400000D01*
G75*
G02*
X91250000Y-65349000I51000J0D01*
G01*
X94750000Y-65349000D01*
G75*
G02*
X94801000Y-65400000I0J-51000D01*
G01*
X94801000Y-67100000D01*
G75*
G02*
X94750000Y-67151000I-51000J0D01*
G01*
X91250000Y-67151000D01*
G75*
G02*
X91199000Y-67100000I0J51000D01*
G01*
G37*
G36*
G01*
X91199000Y-62020000D02*
X91199000Y-60320000D01*
G75*
G02*
X91250000Y-60269000I51000J0D01*
G01*
X94750000Y-60269000D01*
G75*
G02*
X94801000Y-60320000I0J-51000D01*
G01*
X94801000Y-62020000D01*
G75*
G02*
X94750000Y-62071000I-51000J0D01*
G01*
X91250000Y-62071000D01*
G75*
G02*
X91199000Y-62020000I0J51000D01*
G01*
G37*
G36*
G01*
X91199000Y-69650000D02*
X91199000Y-67950000D01*
G75*
G02*
X91250000Y-67899000I51000J0D01*
G01*
X94750000Y-67899000D01*
G75*
G02*
X94801000Y-67950000I0J-51000D01*
G01*
X94801000Y-69650000D01*
G75*
G02*
X94750000Y-69701000I-51000J0D01*
G01*
X91250000Y-69701000D01*
G75*
G02*
X91199000Y-69650000I0J51000D01*
G01*
G37*
G36*
G01*
X91209000Y-79810000D02*
X91209000Y-78110000D01*
G75*
G02*
X91260000Y-78059000I51000J0D01*
G01*
X94760000Y-78059000D01*
G75*
G02*
X94811000Y-78110000I0J-51000D01*
G01*
X94811000Y-79810000D01*
G75*
G02*
X94760000Y-79861000I-51000J0D01*
G01*
X91260000Y-79861000D01*
G75*
G02*
X91209000Y-79810000I0J51000D01*
G01*
G37*
G36*
G01*
X91199000Y-72190000D02*
X91199000Y-70490000D01*
G75*
G02*
X91250000Y-70439000I51000J0D01*
G01*
X94750000Y-70439000D01*
G75*
G02*
X94801000Y-70490000I0J-51000D01*
G01*
X94801000Y-72190000D01*
G75*
G02*
X94750000Y-72241000I-51000J0D01*
G01*
X91250000Y-72241000D01*
G75*
G02*
X91199000Y-72190000I0J51000D01*
G01*
G37*
G36*
G01*
X91199000Y-87430000D02*
X91199000Y-85730000D01*
G75*
G02*
X91250000Y-85679000I51000J0D01*
G01*
X94750000Y-85679000D01*
G75*
G02*
X94801000Y-85730000I0J-51000D01*
G01*
X94801000Y-87430000D01*
G75*
G02*
X94750000Y-87481000I-51000J0D01*
G01*
X91250000Y-87481000D01*
G75*
G02*
X91199000Y-87430000I0J51000D01*
G01*
G37*
G36*
G01*
X91199000Y-89970000D02*
X91199000Y-88270000D01*
G75*
G02*
X91250000Y-88219000I51000J0D01*
G01*
X94750000Y-88219000D01*
G75*
G02*
X94801000Y-88270000I0J-51000D01*
G01*
X94801000Y-89970000D01*
G75*
G02*
X94750000Y-90021000I-51000J0D01*
G01*
X91250000Y-90021000D01*
G75*
G02*
X91199000Y-89970000I0J51000D01*
G01*
G37*
G36*
G01*
X91199000Y-95050000D02*
X91199000Y-93350000D01*
G75*
G02*
X91250000Y-93299000I51000J0D01*
G01*
X94750000Y-93299000D01*
G75*
G02*
X94801000Y-93350000I0J-51000D01*
G01*
X94801000Y-95050000D01*
G75*
G02*
X94750000Y-95101000I-51000J0D01*
G01*
X91250000Y-95101000D01*
G75*
G02*
X91199000Y-95050000I0J51000D01*
G01*
G37*
G36*
G01*
X91199000Y-100130000D02*
X91199000Y-98430000D01*
G75*
G02*
X91250000Y-98379000I51000J0D01*
G01*
X94750000Y-98379000D01*
G75*
G02*
X94801000Y-98430000I0J-51000D01*
G01*
X94801000Y-100130000D01*
G75*
G02*
X94750000Y-100181000I-51000J0D01*
G01*
X91250000Y-100181000D01*
G75*
G02*
X91199000Y-100130000I0J51000D01*
G01*
G37*
G36*
G01*
X91199000Y-74730000D02*
X91199000Y-73030000D01*
G75*
G02*
X91250000Y-72979000I51000J0D01*
G01*
X94750000Y-72979000D01*
G75*
G02*
X94801000Y-73030000I0J-51000D01*
G01*
X94801000Y-74730000D01*
G75*
G02*
X94750000Y-74781000I-51000J0D01*
G01*
X91250000Y-74781000D01*
G75*
G02*
X91199000Y-74730000I0J51000D01*
G01*
G37*
G36*
G01*
X91199000Y-105210000D02*
X91199000Y-103510000D01*
G75*
G02*
X91250000Y-103459000I51000J0D01*
G01*
X94750000Y-103459000D01*
G75*
G02*
X94801000Y-103510000I0J-51000D01*
G01*
X94801000Y-105210000D01*
G75*
G02*
X94750000Y-105261000I-51000J0D01*
G01*
X91250000Y-105261000D01*
G75*
G02*
X91199000Y-105210000I0J51000D01*
G01*
G37*
D11*
X94700000Y-106900000D03*
D10*
X94700000Y-104360000D03*
G36*
G01*
X93799000Y-102670000D02*
X93799000Y-100970000D01*
G75*
G02*
X93850000Y-100919000I51000J0D01*
G01*
X95550000Y-100919000D01*
G75*
G02*
X95601000Y-100970000I0J-51000D01*
G01*
X95601000Y-102670000D01*
G75*
G02*
X95550000Y-102721000I-51000J0D01*
G01*
X93850000Y-102721000D01*
G75*
G02*
X93799000Y-102670000I0J51000D01*
G01*
G37*
X94700000Y-99280000D03*
X94700000Y-96740000D03*
X94700000Y-94200000D03*
X94700000Y-91660000D03*
G36*
G01*
X93799000Y-89970000D02*
X93799000Y-88270000D01*
G75*
G02*
X93850000Y-88219000I51000J0D01*
G01*
X95550000Y-88219000D01*
G75*
G02*
X95601000Y-88270000I0J-51000D01*
G01*
X95601000Y-89970000D01*
G75*
G02*
X95550000Y-90021000I-51000J0D01*
G01*
X93850000Y-90021000D01*
G75*
G02*
X93799000Y-89970000I0J51000D01*
G01*
G37*
X94700000Y-86580000D03*
X94700000Y-84040000D03*
X94700000Y-81500000D03*
X94700000Y-78960000D03*
G36*
G01*
X93799000Y-77270000D02*
X93799000Y-75570000D01*
G75*
G02*
X93850000Y-75519000I51000J0D01*
G01*
X95550000Y-75519000D01*
G75*
G02*
X95601000Y-75570000I0J-51000D01*
G01*
X95601000Y-77270000D01*
G75*
G02*
X95550000Y-77321000I-51000J0D01*
G01*
X93850000Y-77321000D01*
G75*
G02*
X93799000Y-77270000I0J51000D01*
G01*
G37*
X94700000Y-73880000D03*
X94700000Y-71340000D03*
X94700000Y-68800000D03*
X94700000Y-66260000D03*
G36*
G01*
X93799000Y-64570000D02*
X93799000Y-62870000D01*
G75*
G02*
X93850000Y-62819000I51000J0D01*
G01*
X95550000Y-62819000D01*
G75*
G02*
X95601000Y-62870000I0J-51000D01*
G01*
X95601000Y-64570000D01*
G75*
G02*
X95550000Y-64621000I-51000J0D01*
G01*
X93850000Y-64621000D01*
G75*
G02*
X93799000Y-64570000I0J51000D01*
G01*
G37*
X94700000Y-61180000D03*
X94700000Y-58640000D03*
D12*
X100760000Y-63475000D03*
X106540000Y-63475000D03*
D13*
X107970000Y-64005000D03*
X99330000Y-64005000D03*
D14*
X107970000Y-59825000D03*
X99330000Y-59825000D03*
M02*
