G04 #@! TF.GenerationSoftware,KiCad,Pcbnew,(5.1.10)-1*
G04 #@! TF.CreationDate,2021-11-11T08:54:42+00:00*
G04 #@! TF.ProjectId,EnvOpenPico,456e764f-7065-46e5-9069-636f2e6b6963,REV1*
G04 #@! TF.SameCoordinates,Original*
G04 #@! TF.FileFunction,Soldermask,Top*
G04 #@! TF.FilePolarity,Negative*
%FSLAX46Y46*%
G04 Gerber Fmt 4.6, Leading zero omitted, Abs format (unit mm)*
G04 Created by KiCad (PCBNEW (5.1.10)-1) date 2021-11-11 08:54:42*
%MOMM*%
%LPD*%
G01*
G04 APERTURE LIST*
%ADD10O,1.802000X1.802000*%
%ADD11C,1.802000*%
%ADD12C,0.752000*%
%ADD13C,0.100000*%
G04 APERTURE END LIST*
D10*
X101100000Y-106900000D03*
G36*
G01*
X104090500Y-107801000D02*
X103189500Y-107801000D01*
G75*
G02*
X102739000Y-107350500I0J450500D01*
G01*
X102739000Y-106449500D01*
G75*
G02*
X103189500Y-105999000I450500J0D01*
G01*
X104090500Y-105999000D01*
G75*
G02*
X104541000Y-106449500I0J-450500D01*
G01*
X104541000Y-107350500D01*
G75*
G02*
X104090500Y-107801000I-450500J0D01*
G01*
G37*
X106180000Y-106900000D03*
G36*
G01*
X99863000Y-81001000D02*
X99637000Y-81001000D01*
G75*
G02*
X99524000Y-80888000I0J113000D01*
G01*
X99524000Y-80487000D01*
G75*
G02*
X99637000Y-80374000I113000J0D01*
G01*
X99863000Y-80374000D01*
G75*
G02*
X99976000Y-80487000I0J-113000D01*
G01*
X99976000Y-80888000D01*
G75*
G02*
X99863000Y-81001000I-113000J0D01*
G01*
G37*
G36*
G01*
X100363000Y-81001000D02*
X100137000Y-81001000D01*
G75*
G02*
X100024000Y-80888000I0J113000D01*
G01*
X100024000Y-80487000D01*
G75*
G02*
X100137000Y-80374000I113000J0D01*
G01*
X100363000Y-80374000D01*
G75*
G02*
X100476000Y-80487000I0J-113000D01*
G01*
X100476000Y-80888000D01*
G75*
G02*
X100363000Y-81001000I-113000J0D01*
G01*
G37*
G36*
G01*
X100863000Y-81001000D02*
X100637000Y-81001000D01*
G75*
G02*
X100524000Y-80888000I0J113000D01*
G01*
X100524000Y-80487000D01*
G75*
G02*
X100637000Y-80374000I113000J0D01*
G01*
X100863000Y-80374000D01*
G75*
G02*
X100976000Y-80487000I0J-113000D01*
G01*
X100976000Y-80888000D01*
G75*
G02*
X100863000Y-81001000I-113000J0D01*
G01*
G37*
G36*
G01*
X101363000Y-81001000D02*
X101137000Y-81001000D01*
G75*
G02*
X101024000Y-80888000I0J113000D01*
G01*
X101024000Y-80487000D01*
G75*
G02*
X101137000Y-80374000I113000J0D01*
G01*
X101363000Y-80374000D01*
G75*
G02*
X101476000Y-80487000I0J-113000D01*
G01*
X101476000Y-80888000D01*
G75*
G02*
X101363000Y-81001000I-113000J0D01*
G01*
G37*
G36*
G01*
X101363000Y-78426000D02*
X101137000Y-78426000D01*
G75*
G02*
X101024000Y-78313000I0J113000D01*
G01*
X101024000Y-77912000D01*
G75*
G02*
X101137000Y-77799000I113000J0D01*
G01*
X101363000Y-77799000D01*
G75*
G02*
X101476000Y-77912000I0J-113000D01*
G01*
X101476000Y-78313000D01*
G75*
G02*
X101363000Y-78426000I-113000J0D01*
G01*
G37*
G36*
G01*
X100863000Y-78426000D02*
X100637000Y-78426000D01*
G75*
G02*
X100524000Y-78313000I0J113000D01*
G01*
X100524000Y-77912000D01*
G75*
G02*
X100637000Y-77799000I113000J0D01*
G01*
X100863000Y-77799000D01*
G75*
G02*
X100976000Y-77912000I0J-113000D01*
G01*
X100976000Y-78313000D01*
G75*
G02*
X100863000Y-78426000I-113000J0D01*
G01*
G37*
G36*
G01*
X100363000Y-78426000D02*
X100137000Y-78426000D01*
G75*
G02*
X100024000Y-78313000I0J113000D01*
G01*
X100024000Y-77912000D01*
G75*
G02*
X100137000Y-77799000I113000J0D01*
G01*
X100363000Y-77799000D01*
G75*
G02*
X100476000Y-77912000I0J-113000D01*
G01*
X100476000Y-78313000D01*
G75*
G02*
X100363000Y-78426000I-113000J0D01*
G01*
G37*
G36*
G01*
X99863000Y-78426000D02*
X99637000Y-78426000D01*
G75*
G02*
X99524000Y-78313000I0J113000D01*
G01*
X99524000Y-77912000D01*
G75*
G02*
X99637000Y-77799000I113000J0D01*
G01*
X99863000Y-77799000D01*
G75*
G02*
X99976000Y-77912000I0J-113000D01*
G01*
X99976000Y-78313000D01*
G75*
G02*
X99863000Y-78426000I-113000J0D01*
G01*
G37*
G36*
G01*
X101300000Y-79701000D02*
X99700000Y-79701000D01*
G75*
G02*
X99649000Y-79650000I0J51000D01*
G01*
X99649000Y-79150000D01*
G75*
G02*
X99700000Y-79099000I51000J0D01*
G01*
X101300000Y-79099000D01*
G75*
G02*
X101351000Y-79150000I0J-51000D01*
G01*
X101351000Y-79650000D01*
G75*
G02*
X101300000Y-79701000I-51000J0D01*
G01*
G37*
G36*
G01*
X108025500Y-97651000D02*
X106374500Y-97651000D01*
G75*
G02*
X106149000Y-97425500I0J225500D01*
G01*
X106149000Y-96974500D01*
G75*
G02*
X106374500Y-96749000I225500J0D01*
G01*
X108025500Y-96749000D01*
G75*
G02*
X108251000Y-96974500I0J-225500D01*
G01*
X108251000Y-97425500D01*
G75*
G02*
X108025500Y-97651000I-225500J0D01*
G01*
G37*
G36*
G01*
X108025500Y-93451000D02*
X106374500Y-93451000D01*
G75*
G02*
X106149000Y-93225500I0J225500D01*
G01*
X106149000Y-92774500D01*
G75*
G02*
X106374500Y-92549000I225500J0D01*
G01*
X108025500Y-92549000D01*
G75*
G02*
X108251000Y-92774500I0J-225500D01*
G01*
X108251000Y-93225500D01*
G75*
G02*
X108025500Y-93451000I-225500J0D01*
G01*
G37*
G36*
G01*
X116021000Y-80710000D02*
X116021000Y-82410000D01*
G75*
G02*
X115970000Y-82461000I-51000J0D01*
G01*
X112470000Y-82461000D01*
G75*
G02*
X112419000Y-82410000I0J51000D01*
G01*
X112419000Y-80710000D01*
G75*
G02*
X112470000Y-80659000I51000J0D01*
G01*
X115970000Y-80659000D01*
G75*
G02*
X116021000Y-80710000I0J-51000D01*
G01*
G37*
G36*
G01*
X116021000Y-65470000D02*
X116021000Y-67170000D01*
G75*
G02*
X115970000Y-67221000I-51000J0D01*
G01*
X112470000Y-67221000D01*
G75*
G02*
X112419000Y-67170000I0J51000D01*
G01*
X112419000Y-65470000D01*
G75*
G02*
X112470000Y-65419000I51000J0D01*
G01*
X115970000Y-65419000D01*
G75*
G02*
X116021000Y-65470000I0J-51000D01*
G01*
G37*
G36*
G01*
X116021000Y-78170000D02*
X116021000Y-79870000D01*
G75*
G02*
X115970000Y-79921000I-51000J0D01*
G01*
X112470000Y-79921000D01*
G75*
G02*
X112419000Y-79870000I0J51000D01*
G01*
X112419000Y-78170000D01*
G75*
G02*
X112470000Y-78119000I51000J0D01*
G01*
X115970000Y-78119000D01*
G75*
G02*
X116021000Y-78170000I0J-51000D01*
G01*
G37*
G36*
G01*
X116021000Y-57850000D02*
X116021000Y-59550000D01*
G75*
G02*
X115970000Y-59601000I-51000J0D01*
G01*
X112470000Y-59601000D01*
G75*
G02*
X112419000Y-59550000I0J51000D01*
G01*
X112419000Y-57850000D01*
G75*
G02*
X112470000Y-57799000I51000J0D01*
G01*
X115970000Y-57799000D01*
G75*
G02*
X116021000Y-57850000I0J-51000D01*
G01*
G37*
G36*
G01*
X116021000Y-62930000D02*
X116021000Y-64630000D01*
G75*
G02*
X115970000Y-64681000I-51000J0D01*
G01*
X112470000Y-64681000D01*
G75*
G02*
X112419000Y-64630000I0J51000D01*
G01*
X112419000Y-62930000D01*
G75*
G02*
X112470000Y-62879000I51000J0D01*
G01*
X115970000Y-62879000D01*
G75*
G02*
X116021000Y-62930000I0J-51000D01*
G01*
G37*
G36*
G01*
X116021000Y-75630000D02*
X116021000Y-77330000D01*
G75*
G02*
X115970000Y-77381000I-51000J0D01*
G01*
X112470000Y-77381000D01*
G75*
G02*
X112419000Y-77330000I0J51000D01*
G01*
X112419000Y-75630000D01*
G75*
G02*
X112470000Y-75579000I51000J0D01*
G01*
X115970000Y-75579000D01*
G75*
G02*
X116021000Y-75630000I0J-51000D01*
G01*
G37*
G36*
G01*
X116021000Y-88330000D02*
X116021000Y-90030000D01*
G75*
G02*
X115970000Y-90081000I-51000J0D01*
G01*
X112470000Y-90081000D01*
G75*
G02*
X112419000Y-90030000I0J51000D01*
G01*
X112419000Y-88330000D01*
G75*
G02*
X112470000Y-88279000I51000J0D01*
G01*
X115970000Y-88279000D01*
G75*
G02*
X116021000Y-88330000I0J-51000D01*
G01*
G37*
G36*
G01*
X116021000Y-60390000D02*
X116021000Y-62090000D01*
G75*
G02*
X115970000Y-62141000I-51000J0D01*
G01*
X112470000Y-62141000D01*
G75*
G02*
X112419000Y-62090000I0J51000D01*
G01*
X112419000Y-60390000D01*
G75*
G02*
X112470000Y-60339000I51000J0D01*
G01*
X115970000Y-60339000D01*
G75*
G02*
X116021000Y-60390000I0J-51000D01*
G01*
G37*
G36*
G01*
X116021000Y-68010000D02*
X116021000Y-69710000D01*
G75*
G02*
X115970000Y-69761000I-51000J0D01*
G01*
X112470000Y-69761000D01*
G75*
G02*
X112419000Y-69710000I0J51000D01*
G01*
X112419000Y-68010000D01*
G75*
G02*
X112470000Y-67959000I51000J0D01*
G01*
X115970000Y-67959000D01*
G75*
G02*
X116021000Y-68010000I0J-51000D01*
G01*
G37*
G36*
G01*
X116021000Y-70550000D02*
X116021000Y-72250000D01*
G75*
G02*
X115970000Y-72301000I-51000J0D01*
G01*
X112470000Y-72301000D01*
G75*
G02*
X112419000Y-72250000I0J51000D01*
G01*
X112419000Y-70550000D01*
G75*
G02*
X112470000Y-70499000I51000J0D01*
G01*
X115970000Y-70499000D01*
G75*
G02*
X116021000Y-70550000I0J-51000D01*
G01*
G37*
G36*
G01*
X116021000Y-73090000D02*
X116021000Y-74790000D01*
G75*
G02*
X115970000Y-74841000I-51000J0D01*
G01*
X112470000Y-74841000D01*
G75*
G02*
X112419000Y-74790000I0J51000D01*
G01*
X112419000Y-73090000D01*
G75*
G02*
X112470000Y-73039000I51000J0D01*
G01*
X115970000Y-73039000D01*
G75*
G02*
X116021000Y-73090000I0J-51000D01*
G01*
G37*
G36*
G01*
X116021000Y-83250000D02*
X116021000Y-84950000D01*
G75*
G02*
X115970000Y-85001000I-51000J0D01*
G01*
X112470000Y-85001000D01*
G75*
G02*
X112419000Y-84950000I0J51000D01*
G01*
X112419000Y-83250000D01*
G75*
G02*
X112470000Y-83199000I51000J0D01*
G01*
X115970000Y-83199000D01*
G75*
G02*
X116021000Y-83250000I0J-51000D01*
G01*
G37*
G36*
G01*
X116021000Y-90870000D02*
X116021000Y-92570000D01*
G75*
G02*
X115970000Y-92621000I-51000J0D01*
G01*
X112470000Y-92621000D01*
G75*
G02*
X112419000Y-92570000I0J51000D01*
G01*
X112419000Y-90870000D01*
G75*
G02*
X112470000Y-90819000I51000J0D01*
G01*
X115970000Y-90819000D01*
G75*
G02*
X116021000Y-90870000I0J-51000D01*
G01*
G37*
G36*
G01*
X116021000Y-85790000D02*
X116021000Y-87490000D01*
G75*
G02*
X115970000Y-87541000I-51000J0D01*
G01*
X112470000Y-87541000D01*
G75*
G02*
X112419000Y-87490000I0J51000D01*
G01*
X112419000Y-85790000D01*
G75*
G02*
X112470000Y-85739000I51000J0D01*
G01*
X115970000Y-85739000D01*
G75*
G02*
X116021000Y-85790000I0J-51000D01*
G01*
G37*
G36*
G01*
X116021000Y-106110000D02*
X116021000Y-107810000D01*
G75*
G02*
X115970000Y-107861000I-51000J0D01*
G01*
X112470000Y-107861000D01*
G75*
G02*
X112419000Y-107810000I0J51000D01*
G01*
X112419000Y-106110000D01*
G75*
G02*
X112470000Y-106059000I51000J0D01*
G01*
X115970000Y-106059000D01*
G75*
G02*
X116021000Y-106110000I0J-51000D01*
G01*
G37*
G36*
G01*
X116021000Y-93410000D02*
X116021000Y-95110000D01*
G75*
G02*
X115970000Y-95161000I-51000J0D01*
G01*
X112470000Y-95161000D01*
G75*
G02*
X112419000Y-95110000I0J51000D01*
G01*
X112419000Y-93410000D01*
G75*
G02*
X112470000Y-93359000I51000J0D01*
G01*
X115970000Y-93359000D01*
G75*
G02*
X116021000Y-93410000I0J-51000D01*
G01*
G37*
G36*
G01*
X116021000Y-103570000D02*
X116021000Y-105270000D01*
G75*
G02*
X115970000Y-105321000I-51000J0D01*
G01*
X112470000Y-105321000D01*
G75*
G02*
X112419000Y-105270000I0J51000D01*
G01*
X112419000Y-103570000D01*
G75*
G02*
X112470000Y-103519000I51000J0D01*
G01*
X115970000Y-103519000D01*
G75*
G02*
X116021000Y-103570000I0J-51000D01*
G01*
G37*
G36*
G01*
X116021000Y-95950000D02*
X116021000Y-97650000D01*
G75*
G02*
X115970000Y-97701000I-51000J0D01*
G01*
X112470000Y-97701000D01*
G75*
G02*
X112419000Y-97650000I0J51000D01*
G01*
X112419000Y-95950000D01*
G75*
G02*
X112470000Y-95899000I51000J0D01*
G01*
X115970000Y-95899000D01*
G75*
G02*
X116021000Y-95950000I0J-51000D01*
G01*
G37*
G36*
G01*
X116021000Y-101030000D02*
X116021000Y-102730000D01*
G75*
G02*
X115970000Y-102781000I-51000J0D01*
G01*
X112470000Y-102781000D01*
G75*
G02*
X112419000Y-102730000I0J51000D01*
G01*
X112419000Y-101030000D01*
G75*
G02*
X112470000Y-100979000I51000J0D01*
G01*
X115970000Y-100979000D01*
G75*
G02*
X116021000Y-101030000I0J-51000D01*
G01*
G37*
G36*
G01*
X116021000Y-98490000D02*
X116021000Y-100190000D01*
G75*
G02*
X115970000Y-100241000I-51000J0D01*
G01*
X112470000Y-100241000D01*
G75*
G02*
X112419000Y-100190000I0J51000D01*
G01*
X112419000Y-98490000D01*
G75*
G02*
X112470000Y-98439000I51000J0D01*
G01*
X115970000Y-98439000D01*
G75*
G02*
X116021000Y-98490000I0J-51000D01*
G01*
G37*
G36*
G01*
X113421000Y-57850000D02*
X113421000Y-59550000D01*
G75*
G02*
X113370000Y-59601000I-51000J0D01*
G01*
X111670000Y-59601000D01*
G75*
G02*
X111619000Y-59550000I0J51000D01*
G01*
X111619000Y-57850000D01*
G75*
G02*
X111670000Y-57799000I51000J0D01*
G01*
X113370000Y-57799000D01*
G75*
G02*
X113421000Y-57850000I0J-51000D01*
G01*
G37*
X112520000Y-61240000D03*
G36*
G01*
X113421000Y-62930000D02*
X113421000Y-64630000D01*
G75*
G02*
X113370000Y-64681000I-51000J0D01*
G01*
X111670000Y-64681000D01*
G75*
G02*
X111619000Y-64630000I0J51000D01*
G01*
X111619000Y-62930000D01*
G75*
G02*
X111670000Y-62879000I51000J0D01*
G01*
X113370000Y-62879000D01*
G75*
G02*
X113421000Y-62930000I0J-51000D01*
G01*
G37*
X112520000Y-66320000D03*
X112520000Y-68860000D03*
X112520000Y-71400000D03*
X112520000Y-73940000D03*
G36*
G01*
X113421000Y-75630000D02*
X113421000Y-77330000D01*
G75*
G02*
X113370000Y-77381000I-51000J0D01*
G01*
X111670000Y-77381000D01*
G75*
G02*
X111619000Y-77330000I0J51000D01*
G01*
X111619000Y-75630000D01*
G75*
G02*
X111670000Y-75579000I51000J0D01*
G01*
X113370000Y-75579000D01*
G75*
G02*
X113421000Y-75630000I0J-51000D01*
G01*
G37*
X112520000Y-79020000D03*
X112520000Y-81560000D03*
X112520000Y-84100000D03*
X112520000Y-86640000D03*
G36*
G01*
X113421000Y-88330000D02*
X113421000Y-90030000D01*
G75*
G02*
X113370000Y-90081000I-51000J0D01*
G01*
X111670000Y-90081000D01*
G75*
G02*
X111619000Y-90030000I0J51000D01*
G01*
X111619000Y-88330000D01*
G75*
G02*
X111670000Y-88279000I51000J0D01*
G01*
X113370000Y-88279000D01*
G75*
G02*
X113421000Y-88330000I0J-51000D01*
G01*
G37*
X112520000Y-91720000D03*
X112520000Y-94260000D03*
X112520000Y-96800000D03*
X112520000Y-99340000D03*
G36*
G01*
X113421000Y-101030000D02*
X113421000Y-102730000D01*
G75*
G02*
X113370000Y-102781000I-51000J0D01*
G01*
X111670000Y-102781000D01*
G75*
G02*
X111619000Y-102730000I0J51000D01*
G01*
X111619000Y-101030000D01*
G75*
G02*
X111670000Y-100979000I51000J0D01*
G01*
X113370000Y-100979000D01*
G75*
G02*
X113421000Y-101030000I0J-51000D01*
G01*
G37*
X112520000Y-104420000D03*
X112520000Y-106960000D03*
G36*
G01*
X91199000Y-59490000D02*
X91199000Y-57790000D01*
G75*
G02*
X91250000Y-57739000I51000J0D01*
G01*
X94750000Y-57739000D01*
G75*
G02*
X94801000Y-57790000I0J-51000D01*
G01*
X94801000Y-59490000D01*
G75*
G02*
X94750000Y-59541000I-51000J0D01*
G01*
X91250000Y-59541000D01*
G75*
G02*
X91199000Y-59490000I0J51000D01*
G01*
G37*
G36*
G01*
X91199000Y-102670000D02*
X91199000Y-100970000D01*
G75*
G02*
X91250000Y-100919000I51000J0D01*
G01*
X94750000Y-100919000D01*
G75*
G02*
X94801000Y-100970000I0J-51000D01*
G01*
X94801000Y-102670000D01*
G75*
G02*
X94750000Y-102721000I-51000J0D01*
G01*
X91250000Y-102721000D01*
G75*
G02*
X91199000Y-102670000I0J51000D01*
G01*
G37*
G36*
G01*
X91199000Y-64570000D02*
X91199000Y-62870000D01*
G75*
G02*
X91250000Y-62819000I51000J0D01*
G01*
X94750000Y-62819000D01*
G75*
G02*
X94801000Y-62870000I0J-51000D01*
G01*
X94801000Y-64570000D01*
G75*
G02*
X94750000Y-64621000I-51000J0D01*
G01*
X91250000Y-64621000D01*
G75*
G02*
X91199000Y-64570000I0J51000D01*
G01*
G37*
G36*
G01*
X91199000Y-84890000D02*
X91199000Y-83190000D01*
G75*
G02*
X91250000Y-83139000I51000J0D01*
G01*
X94750000Y-83139000D01*
G75*
G02*
X94801000Y-83190000I0J-51000D01*
G01*
X94801000Y-84890000D01*
G75*
G02*
X94750000Y-84941000I-51000J0D01*
G01*
X91250000Y-84941000D01*
G75*
G02*
X91199000Y-84890000I0J51000D01*
G01*
G37*
G36*
G01*
X91199000Y-107750000D02*
X91199000Y-106050000D01*
G75*
G02*
X91250000Y-105999000I51000J0D01*
G01*
X94750000Y-105999000D01*
G75*
G02*
X94801000Y-106050000I0J-51000D01*
G01*
X94801000Y-107750000D01*
G75*
G02*
X94750000Y-107801000I-51000J0D01*
G01*
X91250000Y-107801000D01*
G75*
G02*
X91199000Y-107750000I0J51000D01*
G01*
G37*
G36*
G01*
X91199000Y-77270000D02*
X91199000Y-75570000D01*
G75*
G02*
X91250000Y-75519000I51000J0D01*
G01*
X94750000Y-75519000D01*
G75*
G02*
X94801000Y-75570000I0J-51000D01*
G01*
X94801000Y-77270000D01*
G75*
G02*
X94750000Y-77321000I-51000J0D01*
G01*
X91250000Y-77321000D01*
G75*
G02*
X91199000Y-77270000I0J51000D01*
G01*
G37*
G36*
G01*
X91199000Y-82350000D02*
X91199000Y-80650000D01*
G75*
G02*
X91250000Y-80599000I51000J0D01*
G01*
X94750000Y-80599000D01*
G75*
G02*
X94801000Y-80650000I0J-51000D01*
G01*
X94801000Y-82350000D01*
G75*
G02*
X94750000Y-82401000I-51000J0D01*
G01*
X91250000Y-82401000D01*
G75*
G02*
X91199000Y-82350000I0J51000D01*
G01*
G37*
G36*
G01*
X91199000Y-97590000D02*
X91199000Y-95890000D01*
G75*
G02*
X91250000Y-95839000I51000J0D01*
G01*
X94750000Y-95839000D01*
G75*
G02*
X94801000Y-95890000I0J-51000D01*
G01*
X94801000Y-97590000D01*
G75*
G02*
X94750000Y-97641000I-51000J0D01*
G01*
X91250000Y-97641000D01*
G75*
G02*
X91199000Y-97590000I0J51000D01*
G01*
G37*
G36*
G01*
X91189000Y-92510000D02*
X91189000Y-90810000D01*
G75*
G02*
X91240000Y-90759000I51000J0D01*
G01*
X94740000Y-90759000D01*
G75*
G02*
X94791000Y-90810000I0J-51000D01*
G01*
X94791000Y-92510000D01*
G75*
G02*
X94740000Y-92561000I-51000J0D01*
G01*
X91240000Y-92561000D01*
G75*
G02*
X91189000Y-92510000I0J51000D01*
G01*
G37*
G36*
G01*
X91199000Y-67100000D02*
X91199000Y-65400000D01*
G75*
G02*
X91250000Y-65349000I51000J0D01*
G01*
X94750000Y-65349000D01*
G75*
G02*
X94801000Y-65400000I0J-51000D01*
G01*
X94801000Y-67100000D01*
G75*
G02*
X94750000Y-67151000I-51000J0D01*
G01*
X91250000Y-67151000D01*
G75*
G02*
X91199000Y-67100000I0J51000D01*
G01*
G37*
G36*
G01*
X91199000Y-62020000D02*
X91199000Y-60320000D01*
G75*
G02*
X91250000Y-60269000I51000J0D01*
G01*
X94750000Y-60269000D01*
G75*
G02*
X94801000Y-60320000I0J-51000D01*
G01*
X94801000Y-62020000D01*
G75*
G02*
X94750000Y-62071000I-51000J0D01*
G01*
X91250000Y-62071000D01*
G75*
G02*
X91199000Y-62020000I0J51000D01*
G01*
G37*
G36*
G01*
X91199000Y-69650000D02*
X91199000Y-67950000D01*
G75*
G02*
X91250000Y-67899000I51000J0D01*
G01*
X94750000Y-67899000D01*
G75*
G02*
X94801000Y-67950000I0J-51000D01*
G01*
X94801000Y-69650000D01*
G75*
G02*
X94750000Y-69701000I-51000J0D01*
G01*
X91250000Y-69701000D01*
G75*
G02*
X91199000Y-69650000I0J51000D01*
G01*
G37*
G36*
G01*
X91209000Y-79810000D02*
X91209000Y-78110000D01*
G75*
G02*
X91260000Y-78059000I51000J0D01*
G01*
X94760000Y-78059000D01*
G75*
G02*
X94811000Y-78110000I0J-51000D01*
G01*
X94811000Y-79810000D01*
G75*
G02*
X94760000Y-79861000I-51000J0D01*
G01*
X91260000Y-79861000D01*
G75*
G02*
X91209000Y-79810000I0J51000D01*
G01*
G37*
G36*
G01*
X91199000Y-72190000D02*
X91199000Y-70490000D01*
G75*
G02*
X91250000Y-70439000I51000J0D01*
G01*
X94750000Y-70439000D01*
G75*
G02*
X94801000Y-70490000I0J-51000D01*
G01*
X94801000Y-72190000D01*
G75*
G02*
X94750000Y-72241000I-51000J0D01*
G01*
X91250000Y-72241000D01*
G75*
G02*
X91199000Y-72190000I0J51000D01*
G01*
G37*
G36*
G01*
X91199000Y-87430000D02*
X91199000Y-85730000D01*
G75*
G02*
X91250000Y-85679000I51000J0D01*
G01*
X94750000Y-85679000D01*
G75*
G02*
X94801000Y-85730000I0J-51000D01*
G01*
X94801000Y-87430000D01*
G75*
G02*
X94750000Y-87481000I-51000J0D01*
G01*
X91250000Y-87481000D01*
G75*
G02*
X91199000Y-87430000I0J51000D01*
G01*
G37*
G36*
G01*
X91199000Y-89970000D02*
X91199000Y-88270000D01*
G75*
G02*
X91250000Y-88219000I51000J0D01*
G01*
X94750000Y-88219000D01*
G75*
G02*
X94801000Y-88270000I0J-51000D01*
G01*
X94801000Y-89970000D01*
G75*
G02*
X94750000Y-90021000I-51000J0D01*
G01*
X91250000Y-90021000D01*
G75*
G02*
X91199000Y-89970000I0J51000D01*
G01*
G37*
G36*
G01*
X91199000Y-95050000D02*
X91199000Y-93350000D01*
G75*
G02*
X91250000Y-93299000I51000J0D01*
G01*
X94750000Y-93299000D01*
G75*
G02*
X94801000Y-93350000I0J-51000D01*
G01*
X94801000Y-95050000D01*
G75*
G02*
X94750000Y-95101000I-51000J0D01*
G01*
X91250000Y-95101000D01*
G75*
G02*
X91199000Y-95050000I0J51000D01*
G01*
G37*
G36*
G01*
X91199000Y-100130000D02*
X91199000Y-98430000D01*
G75*
G02*
X91250000Y-98379000I51000J0D01*
G01*
X94750000Y-98379000D01*
G75*
G02*
X94801000Y-98430000I0J-51000D01*
G01*
X94801000Y-100130000D01*
G75*
G02*
X94750000Y-100181000I-51000J0D01*
G01*
X91250000Y-100181000D01*
G75*
G02*
X91199000Y-100130000I0J51000D01*
G01*
G37*
G36*
G01*
X91199000Y-74730000D02*
X91199000Y-73030000D01*
G75*
G02*
X91250000Y-72979000I51000J0D01*
G01*
X94750000Y-72979000D01*
G75*
G02*
X94801000Y-73030000I0J-51000D01*
G01*
X94801000Y-74730000D01*
G75*
G02*
X94750000Y-74781000I-51000J0D01*
G01*
X91250000Y-74781000D01*
G75*
G02*
X91199000Y-74730000I0J51000D01*
G01*
G37*
G36*
G01*
X91199000Y-105210000D02*
X91199000Y-103510000D01*
G75*
G02*
X91250000Y-103459000I51000J0D01*
G01*
X94750000Y-103459000D01*
G75*
G02*
X94801000Y-103510000I0J-51000D01*
G01*
X94801000Y-105210000D01*
G75*
G02*
X94750000Y-105261000I-51000J0D01*
G01*
X91250000Y-105261000D01*
G75*
G02*
X91199000Y-105210000I0J51000D01*
G01*
G37*
D11*
X94700000Y-106900000D03*
D10*
X94700000Y-104360000D03*
G36*
G01*
X93799000Y-102670000D02*
X93799000Y-100970000D01*
G75*
G02*
X93850000Y-100919000I51000J0D01*
G01*
X95550000Y-100919000D01*
G75*
G02*
X95601000Y-100970000I0J-51000D01*
G01*
X95601000Y-102670000D01*
G75*
G02*
X95550000Y-102721000I-51000J0D01*
G01*
X93850000Y-102721000D01*
G75*
G02*
X93799000Y-102670000I0J51000D01*
G01*
G37*
X94700000Y-99280000D03*
X94700000Y-96740000D03*
X94700000Y-94200000D03*
X94700000Y-91660000D03*
G36*
G01*
X93799000Y-89970000D02*
X93799000Y-88270000D01*
G75*
G02*
X93850000Y-88219000I51000J0D01*
G01*
X95550000Y-88219000D01*
G75*
G02*
X95601000Y-88270000I0J-51000D01*
G01*
X95601000Y-89970000D01*
G75*
G02*
X95550000Y-90021000I-51000J0D01*
G01*
X93850000Y-90021000D01*
G75*
G02*
X93799000Y-89970000I0J51000D01*
G01*
G37*
X94700000Y-86580000D03*
X94700000Y-84040000D03*
X94700000Y-81500000D03*
X94700000Y-78960000D03*
G36*
G01*
X93799000Y-77270000D02*
X93799000Y-75570000D01*
G75*
G02*
X93850000Y-75519000I51000J0D01*
G01*
X95550000Y-75519000D01*
G75*
G02*
X95601000Y-75570000I0J-51000D01*
G01*
X95601000Y-77270000D01*
G75*
G02*
X95550000Y-77321000I-51000J0D01*
G01*
X93850000Y-77321000D01*
G75*
G02*
X93799000Y-77270000I0J51000D01*
G01*
G37*
X94700000Y-73880000D03*
X94700000Y-71340000D03*
X94700000Y-68800000D03*
X94700000Y-66260000D03*
G36*
G01*
X93799000Y-64570000D02*
X93799000Y-62870000D01*
G75*
G02*
X93850000Y-62819000I51000J0D01*
G01*
X95550000Y-62819000D01*
G75*
G02*
X95601000Y-62870000I0J-51000D01*
G01*
X95601000Y-64570000D01*
G75*
G02*
X95550000Y-64621000I-51000J0D01*
G01*
X93850000Y-64621000D01*
G75*
G02*
X93799000Y-64570000I0J51000D01*
G01*
G37*
X94700000Y-61180000D03*
X94700000Y-58640000D03*
G36*
G01*
X98388500Y-64979000D02*
X97967500Y-64979000D01*
G75*
G02*
X97807000Y-64818500I0J160500D01*
G01*
X97807000Y-64497500D01*
G75*
G02*
X97967500Y-64337000I160500J0D01*
G01*
X98388500Y-64337000D01*
G75*
G02*
X98549000Y-64497500I0J-160500D01*
G01*
X98549000Y-64818500D01*
G75*
G02*
X98388500Y-64979000I-160500J0D01*
G01*
G37*
G36*
G01*
X98388500Y-65999000D02*
X97967500Y-65999000D01*
G75*
G02*
X97807000Y-65838500I0J160500D01*
G01*
X97807000Y-65517500D01*
G75*
G02*
X97967500Y-65357000I160500J0D01*
G01*
X98388500Y-65357000D01*
G75*
G02*
X98549000Y-65517500I0J-160500D01*
G01*
X98549000Y-65838500D01*
G75*
G02*
X98388500Y-65999000I-160500J0D01*
G01*
G37*
G36*
G01*
X99381750Y-67201000D02*
X98818250Y-67201000D01*
G75*
G02*
X98574000Y-66956750I0J244250D01*
G01*
X98574000Y-66468250D01*
G75*
G02*
X98818250Y-66224000I244250J0D01*
G01*
X99381750Y-66224000D01*
G75*
G02*
X99626000Y-66468250I0J-244250D01*
G01*
X99626000Y-66956750D01*
G75*
G02*
X99381750Y-67201000I-244250J0D01*
G01*
G37*
G36*
G01*
X99381750Y-68776000D02*
X98818250Y-68776000D01*
G75*
G02*
X98574000Y-68531750I0J244250D01*
G01*
X98574000Y-68043250D01*
G75*
G02*
X98818250Y-67799000I244250J0D01*
G01*
X99381750Y-67799000D01*
G75*
G02*
X99626000Y-68043250I0J-244250D01*
G01*
X99626000Y-68531750D01*
G75*
G02*
X99381750Y-68776000I-244250J0D01*
G01*
G37*
G36*
G01*
X100518250Y-67799000D02*
X101081750Y-67799000D01*
G75*
G02*
X101326000Y-68043250I0J-244250D01*
G01*
X101326000Y-68531750D01*
G75*
G02*
X101081750Y-68776000I-244250J0D01*
G01*
X100518250Y-68776000D01*
G75*
G02*
X100274000Y-68531750I0J244250D01*
G01*
X100274000Y-68043250D01*
G75*
G02*
X100518250Y-67799000I244250J0D01*
G01*
G37*
G36*
G01*
X100518250Y-66224000D02*
X101081750Y-66224000D01*
G75*
G02*
X101326000Y-66468250I0J-244250D01*
G01*
X101326000Y-66956750D01*
G75*
G02*
X101081750Y-67201000I-244250J0D01*
G01*
X100518250Y-67201000D01*
G75*
G02*
X100274000Y-66956750I0J244250D01*
G01*
X100274000Y-66468250D01*
G75*
G02*
X100518250Y-66224000I244250J0D01*
G01*
G37*
G36*
G01*
X100925500Y-75051000D02*
X99274500Y-75051000D01*
G75*
G02*
X99049000Y-74825500I0J225500D01*
G01*
X99049000Y-74374500D01*
G75*
G02*
X99274500Y-74149000I225500J0D01*
G01*
X100925500Y-74149000D01*
G75*
G02*
X101151000Y-74374500I0J-225500D01*
G01*
X101151000Y-74825500D01*
G75*
G02*
X100925500Y-75051000I-225500J0D01*
G01*
G37*
G36*
G01*
X100925500Y-70851000D02*
X99274500Y-70851000D01*
G75*
G02*
X99049000Y-70625500I0J225500D01*
G01*
X99049000Y-70174500D01*
G75*
G02*
X99274500Y-69949000I225500J0D01*
G01*
X100925500Y-69949000D01*
G75*
G02*
X101151000Y-70174500I0J-225500D01*
G01*
X101151000Y-70625500D01*
G75*
G02*
X100925500Y-70851000I-225500J0D01*
G01*
G37*
G36*
G01*
X105089500Y-78589000D02*
X105510500Y-78589000D01*
G75*
G02*
X105671000Y-78749500I0J-160500D01*
G01*
X105671000Y-79070500D01*
G75*
G02*
X105510500Y-79231000I-160500J0D01*
G01*
X105089500Y-79231000D01*
G75*
G02*
X104929000Y-79070500I0J160500D01*
G01*
X104929000Y-78749500D01*
G75*
G02*
X105089500Y-78589000I160500J0D01*
G01*
G37*
G36*
G01*
X105089500Y-77569000D02*
X105510500Y-77569000D01*
G75*
G02*
X105671000Y-77729500I0J-160500D01*
G01*
X105671000Y-78050500D01*
G75*
G02*
X105510500Y-78211000I-160500J0D01*
G01*
X105089500Y-78211000D01*
G75*
G02*
X104929000Y-78050500I0J160500D01*
G01*
X104929000Y-77729500D01*
G75*
G02*
X105089500Y-77569000I160500J0D01*
G01*
G37*
G36*
G01*
X104089500Y-78589000D02*
X104510500Y-78589000D01*
G75*
G02*
X104671000Y-78749500I0J-160500D01*
G01*
X104671000Y-79070500D01*
G75*
G02*
X104510500Y-79231000I-160500J0D01*
G01*
X104089500Y-79231000D01*
G75*
G02*
X103929000Y-79070500I0J160500D01*
G01*
X103929000Y-78749500D01*
G75*
G02*
X104089500Y-78589000I160500J0D01*
G01*
G37*
G36*
G01*
X104089500Y-77569000D02*
X104510500Y-77569000D01*
G75*
G02*
X104671000Y-77729500I0J-160500D01*
G01*
X104671000Y-78050500D01*
G75*
G02*
X104510500Y-78211000I-160500J0D01*
G01*
X104089500Y-78211000D01*
G75*
G02*
X103929000Y-78050500I0J160500D01*
G01*
X103929000Y-77729500D01*
G75*
G02*
X104089500Y-77569000I160500J0D01*
G01*
G37*
G36*
G01*
X100776000Y-64195000D02*
X100776000Y-65645000D01*
G75*
G02*
X100725000Y-65696000I-51000J0D01*
G01*
X100125000Y-65696000D01*
G75*
G02*
X100074000Y-65645000I0J51000D01*
G01*
X100074000Y-64195000D01*
G75*
G02*
X100125000Y-64144000I51000J0D01*
G01*
X100725000Y-64144000D01*
G75*
G02*
X100776000Y-64195000I0J-51000D01*
G01*
G37*
G36*
G01*
X107226000Y-64195000D02*
X107226000Y-65645000D01*
G75*
G02*
X107175000Y-65696000I-51000J0D01*
G01*
X106575000Y-65696000D01*
G75*
G02*
X106524000Y-65645000I0J51000D01*
G01*
X106524000Y-64195000D01*
G75*
G02*
X106575000Y-64144000I51000J0D01*
G01*
X107175000Y-64144000D01*
G75*
G02*
X107226000Y-64195000I0J-51000D01*
G01*
G37*
G36*
G01*
X101551000Y-64195000D02*
X101551000Y-65645000D01*
G75*
G02*
X101500000Y-65696000I-51000J0D01*
G01*
X100900000Y-65696000D01*
G75*
G02*
X100849000Y-65645000I0J51000D01*
G01*
X100849000Y-64195000D01*
G75*
G02*
X100900000Y-64144000I51000J0D01*
G01*
X101500000Y-64144000D01*
G75*
G02*
X101551000Y-64195000I0J-51000D01*
G01*
G37*
G36*
G01*
X106451000Y-64195000D02*
X106451000Y-65645000D01*
G75*
G02*
X106400000Y-65696000I-51000J0D01*
G01*
X105800000Y-65696000D01*
G75*
G02*
X105749000Y-65645000I0J51000D01*
G01*
X105749000Y-64195000D01*
G75*
G02*
X105800000Y-64144000I51000J0D01*
G01*
X106400000Y-64144000D01*
G75*
G02*
X106451000Y-64195000I0J-51000D01*
G01*
G37*
G36*
G01*
X105601000Y-64195000D02*
X105601000Y-65645000D01*
G75*
G02*
X105550000Y-65696000I-51000J0D01*
G01*
X105250000Y-65696000D01*
G75*
G02*
X105199000Y-65645000I0J51000D01*
G01*
X105199000Y-64195000D01*
G75*
G02*
X105250000Y-64144000I51000J0D01*
G01*
X105550000Y-64144000D01*
G75*
G02*
X105601000Y-64195000I0J-51000D01*
G01*
G37*
G36*
G01*
X102101000Y-64195000D02*
X102101000Y-65645000D01*
G75*
G02*
X102050000Y-65696000I-51000J0D01*
G01*
X101750000Y-65696000D01*
G75*
G02*
X101699000Y-65645000I0J51000D01*
G01*
X101699000Y-64195000D01*
G75*
G02*
X101750000Y-64144000I51000J0D01*
G01*
X102050000Y-64144000D01*
G75*
G02*
X102101000Y-64195000I0J-51000D01*
G01*
G37*
G36*
G01*
X105101000Y-64195000D02*
X105101000Y-65645000D01*
G75*
G02*
X105050000Y-65696000I-51000J0D01*
G01*
X104750000Y-65696000D01*
G75*
G02*
X104699000Y-65645000I0J51000D01*
G01*
X104699000Y-64195000D01*
G75*
G02*
X104750000Y-64144000I51000J0D01*
G01*
X105050000Y-64144000D01*
G75*
G02*
X105101000Y-64195000I0J-51000D01*
G01*
G37*
G36*
G01*
X102601000Y-64195000D02*
X102601000Y-65645000D01*
G75*
G02*
X102550000Y-65696000I-51000J0D01*
G01*
X102250000Y-65696000D01*
G75*
G02*
X102199000Y-65645000I0J51000D01*
G01*
X102199000Y-64195000D01*
G75*
G02*
X102250000Y-64144000I51000J0D01*
G01*
X102550000Y-64144000D01*
G75*
G02*
X102601000Y-64195000I0J-51000D01*
G01*
G37*
G36*
G01*
X104601000Y-64195000D02*
X104601000Y-65645000D01*
G75*
G02*
X104550000Y-65696000I-51000J0D01*
G01*
X104250000Y-65696000D01*
G75*
G02*
X104199000Y-65645000I0J51000D01*
G01*
X104199000Y-64195000D01*
G75*
G02*
X104250000Y-64144000I51000J0D01*
G01*
X104550000Y-64144000D01*
G75*
G02*
X104601000Y-64195000I0J-51000D01*
G01*
G37*
G36*
G01*
X103101000Y-64195000D02*
X103101000Y-65645000D01*
G75*
G02*
X103050000Y-65696000I-51000J0D01*
G01*
X102750000Y-65696000D01*
G75*
G02*
X102699000Y-65645000I0J51000D01*
G01*
X102699000Y-64195000D01*
G75*
G02*
X102750000Y-64144000I51000J0D01*
G01*
X103050000Y-64144000D01*
G75*
G02*
X103101000Y-64195000I0J-51000D01*
G01*
G37*
G36*
G01*
X103601000Y-64195000D02*
X103601000Y-65645000D01*
G75*
G02*
X103550000Y-65696000I-51000J0D01*
G01*
X103250000Y-65696000D01*
G75*
G02*
X103199000Y-65645000I0J51000D01*
G01*
X103199000Y-64195000D01*
G75*
G02*
X103250000Y-64144000I51000J0D01*
G01*
X103550000Y-64144000D01*
G75*
G02*
X103601000Y-64195000I0J-51000D01*
G01*
G37*
G36*
G01*
X104101000Y-64195000D02*
X104101000Y-65645000D01*
G75*
G02*
X104050000Y-65696000I-51000J0D01*
G01*
X103750000Y-65696000D01*
G75*
G02*
X103699000Y-65645000I0J51000D01*
G01*
X103699000Y-64195000D01*
G75*
G02*
X103750000Y-64144000I51000J0D01*
G01*
X104050000Y-64144000D01*
G75*
G02*
X104101000Y-64195000I0J-51000D01*
G01*
G37*
D12*
X100760000Y-63475000D03*
X106540000Y-63475000D03*
G36*
G01*
X103649000Y-93795500D02*
X103649000Y-93404500D01*
G75*
G02*
X103814500Y-93239000I165500J0D01*
G01*
X104145500Y-93239000D01*
G75*
G02*
X104311000Y-93404500I0J-165500D01*
G01*
X104311000Y-93795500D01*
G75*
G02*
X104145500Y-93961000I-165500J0D01*
G01*
X103814500Y-93961000D01*
G75*
G02*
X103649000Y-93795500I0J165500D01*
G01*
G37*
G36*
G01*
X102689000Y-93795500D02*
X102689000Y-93404500D01*
G75*
G02*
X102854500Y-93239000I165500J0D01*
G01*
X103185500Y-93239000D01*
G75*
G02*
X103351000Y-93404500I0J-165500D01*
G01*
X103351000Y-93795500D01*
G75*
G02*
X103185500Y-93961000I-165500J0D01*
G01*
X102854500Y-93961000D01*
G75*
G02*
X102689000Y-93795500I0J165500D01*
G01*
G37*
G36*
G01*
X104395500Y-95911000D02*
X104004500Y-95911000D01*
G75*
G02*
X103839000Y-95745500I0J165500D01*
G01*
X103839000Y-95414500D01*
G75*
G02*
X104004500Y-95249000I165500J0D01*
G01*
X104395500Y-95249000D01*
G75*
G02*
X104561000Y-95414500I0J-165500D01*
G01*
X104561000Y-95745500D01*
G75*
G02*
X104395500Y-95911000I-165500J0D01*
G01*
G37*
G36*
G01*
X104395500Y-94951000D02*
X104004500Y-94951000D01*
G75*
G02*
X103839000Y-94785500I0J165500D01*
G01*
X103839000Y-94454500D01*
G75*
G02*
X104004500Y-94289000I165500J0D01*
G01*
X104395500Y-94289000D01*
G75*
G02*
X104561000Y-94454500I0J-165500D01*
G01*
X104561000Y-94785500D01*
G75*
G02*
X104395500Y-94951000I-165500J0D01*
G01*
G37*
G36*
G01*
X106420500Y-70601000D02*
X106029500Y-70601000D01*
G75*
G02*
X105864000Y-70435500I0J165500D01*
G01*
X105864000Y-70104500D01*
G75*
G02*
X106029500Y-69939000I165500J0D01*
G01*
X106420500Y-69939000D01*
G75*
G02*
X106586000Y-70104500I0J-165500D01*
G01*
X106586000Y-70435500D01*
G75*
G02*
X106420500Y-70601000I-165500J0D01*
G01*
G37*
G36*
G01*
X106420500Y-71561000D02*
X106029500Y-71561000D01*
G75*
G02*
X105864000Y-71395500I0J165500D01*
G01*
X105864000Y-71064500D01*
G75*
G02*
X106029500Y-70899000I165500J0D01*
G01*
X106420500Y-70899000D01*
G75*
G02*
X106586000Y-71064500I0J-165500D01*
G01*
X106586000Y-71395500D01*
G75*
G02*
X106420500Y-71561000I-165500J0D01*
G01*
G37*
G36*
G01*
X109224999Y-70619000D02*
X109875001Y-70619000D01*
G75*
G02*
X109926000Y-70669999I0J-50999D01*
G01*
X109926000Y-71730001D01*
G75*
G02*
X109875001Y-71781000I-50999J0D01*
G01*
X109224999Y-71781000D01*
G75*
G02*
X109174000Y-71730001I0J50999D01*
G01*
X109174000Y-70669999D01*
G75*
G02*
X109224999Y-70619000I50999J0D01*
G01*
G37*
G36*
G01*
X107324999Y-70619000D02*
X107975001Y-70619000D01*
G75*
G02*
X108026000Y-70669999I0J-50999D01*
G01*
X108026000Y-71730001D01*
G75*
G02*
X107975001Y-71781000I-50999J0D01*
G01*
X107324999Y-71781000D01*
G75*
G02*
X107274000Y-71730001I0J50999D01*
G01*
X107274000Y-70669999D01*
G75*
G02*
X107324999Y-70619000I50999J0D01*
G01*
G37*
G36*
G01*
X107324999Y-68419000D02*
X107975001Y-68419000D01*
G75*
G02*
X108026000Y-68469999I0J-50999D01*
G01*
X108026000Y-69530001D01*
G75*
G02*
X107975001Y-69581000I-50999J0D01*
G01*
X107324999Y-69581000D01*
G75*
G02*
X107274000Y-69530001I0J50999D01*
G01*
X107274000Y-68469999D01*
G75*
G02*
X107324999Y-68419000I50999J0D01*
G01*
G37*
G36*
G01*
X108274999Y-68419000D02*
X108925001Y-68419000D01*
G75*
G02*
X108976000Y-68469999I0J-50999D01*
G01*
X108976000Y-69530001D01*
G75*
G02*
X108925001Y-69581000I-50999J0D01*
G01*
X108274999Y-69581000D01*
G75*
G02*
X108224000Y-69530001I0J50999D01*
G01*
X108224000Y-68469999D01*
G75*
G02*
X108274999Y-68419000I50999J0D01*
G01*
G37*
G36*
G01*
X109224999Y-68419000D02*
X109875001Y-68419000D01*
G75*
G02*
X109926000Y-68469999I0J-50999D01*
G01*
X109926000Y-69530001D01*
G75*
G02*
X109875001Y-69581000I-50999J0D01*
G01*
X109224999Y-69581000D01*
G75*
G02*
X109174000Y-69530001I0J50999D01*
G01*
X109174000Y-68469999D01*
G75*
G02*
X109224999Y-68419000I50999J0D01*
G01*
G37*
G36*
G01*
X98795500Y-81711000D02*
X98404500Y-81711000D01*
G75*
G02*
X98239000Y-81545500I0J165500D01*
G01*
X98239000Y-81214500D01*
G75*
G02*
X98404500Y-81049000I165500J0D01*
G01*
X98795500Y-81049000D01*
G75*
G02*
X98961000Y-81214500I0J-165500D01*
G01*
X98961000Y-81545500D01*
G75*
G02*
X98795500Y-81711000I-165500J0D01*
G01*
G37*
G36*
G01*
X98795500Y-80751000D02*
X98404500Y-80751000D01*
G75*
G02*
X98239000Y-80585500I0J165500D01*
G01*
X98239000Y-80254500D01*
G75*
G02*
X98404500Y-80089000I165500J0D01*
G01*
X98795500Y-80089000D01*
G75*
G02*
X98961000Y-80254500I0J-165500D01*
G01*
X98961000Y-80585500D01*
G75*
G02*
X98795500Y-80751000I-165500J0D01*
G01*
G37*
G36*
G01*
X110600000Y-62651000D02*
X109400000Y-62651000D01*
G75*
G02*
X109349000Y-62600000I0J51000D01*
G01*
X109349000Y-61700000D01*
G75*
G02*
X109400000Y-61649000I51000J0D01*
G01*
X110600000Y-61649000D01*
G75*
G02*
X110651000Y-61700000I0J-51000D01*
G01*
X110651000Y-62600000D01*
G75*
G02*
X110600000Y-62651000I-51000J0D01*
G01*
G37*
G36*
G01*
X110600000Y-59351000D02*
X109400000Y-59351000D01*
G75*
G02*
X109349000Y-59300000I0J51000D01*
G01*
X109349000Y-58400000D01*
G75*
G02*
X109400000Y-58349000I51000J0D01*
G01*
X110600000Y-58349000D01*
G75*
G02*
X110651000Y-58400000I0J-51000D01*
G01*
X110651000Y-59300000D01*
G75*
G02*
X110600000Y-59351000I-51000J0D01*
G01*
G37*
G36*
G01*
X99649000Y-97250001D02*
X99649000Y-96049999D01*
G75*
G02*
X99699999Y-95999000I50999J0D01*
G01*
X101100001Y-95999000D01*
G75*
G02*
X101151000Y-96049999I0J-50999D01*
G01*
X101151000Y-97250001D01*
G75*
G02*
X101100001Y-97301000I-50999J0D01*
G01*
X99699999Y-97301000D01*
G75*
G02*
X99649000Y-97250001I0J50999D01*
G01*
G37*
G36*
G01*
X101849000Y-97250001D02*
X101849000Y-96049999D01*
G75*
G02*
X101899999Y-95999000I50999J0D01*
G01*
X103300001Y-95999000D01*
G75*
G02*
X103351000Y-96049999I0J-50999D01*
G01*
X103351000Y-97250001D01*
G75*
G02*
X103300001Y-97301000I-50999J0D01*
G01*
X101899999Y-97301000D01*
G75*
G02*
X101849000Y-97250001I0J50999D01*
G01*
G37*
G36*
G01*
X101849000Y-95550001D02*
X101849000Y-94349999D01*
G75*
G02*
X101899999Y-94299000I50999J0D01*
G01*
X103300001Y-94299000D01*
G75*
G02*
X103351000Y-94349999I0J-50999D01*
G01*
X103351000Y-95550001D01*
G75*
G02*
X103300001Y-95601000I-50999J0D01*
G01*
X101899999Y-95601000D01*
G75*
G02*
X101849000Y-95550001I0J50999D01*
G01*
G37*
G36*
G01*
X99649000Y-95550001D02*
X99649000Y-94349999D01*
G75*
G02*
X99699999Y-94299000I50999J0D01*
G01*
X101100001Y-94299000D01*
G75*
G02*
X101151000Y-94349999I0J-50999D01*
G01*
X101151000Y-95550001D01*
G75*
G02*
X101100001Y-95601000I-50999J0D01*
G01*
X99699999Y-95601000D01*
G75*
G02*
X99649000Y-95550001I0J50999D01*
G01*
G37*
G36*
G01*
X100189000Y-93795500D02*
X100189000Y-93404500D01*
G75*
G02*
X100354500Y-93239000I165500J0D01*
G01*
X100685500Y-93239000D01*
G75*
G02*
X100851000Y-93404500I0J-165500D01*
G01*
X100851000Y-93795500D01*
G75*
G02*
X100685500Y-93961000I-165500J0D01*
G01*
X100354500Y-93961000D01*
G75*
G02*
X100189000Y-93795500I0J165500D01*
G01*
G37*
G36*
G01*
X101149000Y-93795500D02*
X101149000Y-93404500D01*
G75*
G02*
X101314500Y-93239000I165500J0D01*
G01*
X101645500Y-93239000D01*
G75*
G02*
X101811000Y-93404500I0J-165500D01*
G01*
X101811000Y-93795500D01*
G75*
G02*
X101645500Y-93961000I-165500J0D01*
G01*
X101314500Y-93961000D01*
G75*
G02*
X101149000Y-93795500I0J165500D01*
G01*
G37*
G36*
G01*
X102310500Y-68331000D02*
X101889500Y-68331000D01*
G75*
G02*
X101729000Y-68170500I0J160500D01*
G01*
X101729000Y-67849500D01*
G75*
G02*
X101889500Y-67689000I160500J0D01*
G01*
X102310500Y-67689000D01*
G75*
G02*
X102471000Y-67849500I0J-160500D01*
G01*
X102471000Y-68170500D01*
G75*
G02*
X102310500Y-68331000I-160500J0D01*
G01*
G37*
G36*
G01*
X102310500Y-67311000D02*
X101889500Y-67311000D01*
G75*
G02*
X101729000Y-67150500I0J160500D01*
G01*
X101729000Y-66829500D01*
G75*
G02*
X101889500Y-66669000I160500J0D01*
G01*
X102310500Y-66669000D01*
G75*
G02*
X102471000Y-66829500I0J-160500D01*
G01*
X102471000Y-67150500D01*
G75*
G02*
X102310500Y-67311000I-160500J0D01*
G01*
G37*
G36*
G01*
X108689000Y-77895500D02*
X108689000Y-77504500D01*
G75*
G02*
X108854500Y-77339000I165500J0D01*
G01*
X109185500Y-77339000D01*
G75*
G02*
X109351000Y-77504500I0J-165500D01*
G01*
X109351000Y-77895500D01*
G75*
G02*
X109185500Y-78061000I-165500J0D01*
G01*
X108854500Y-78061000D01*
G75*
G02*
X108689000Y-77895500I0J165500D01*
G01*
G37*
G36*
G01*
X109649000Y-77895500D02*
X109649000Y-77504500D01*
G75*
G02*
X109814500Y-77339000I165500J0D01*
G01*
X110145500Y-77339000D01*
G75*
G02*
X110311000Y-77504500I0J-165500D01*
G01*
X110311000Y-77895500D01*
G75*
G02*
X110145500Y-78061000I-165500J0D01*
G01*
X109814500Y-78061000D01*
G75*
G02*
X109649000Y-77895500I0J165500D01*
G01*
G37*
G36*
G01*
X108689000Y-80195500D02*
X108689000Y-79804500D01*
G75*
G02*
X108854500Y-79639000I165500J0D01*
G01*
X109185500Y-79639000D01*
G75*
G02*
X109351000Y-79804500I0J-165500D01*
G01*
X109351000Y-80195500D01*
G75*
G02*
X109185500Y-80361000I-165500J0D01*
G01*
X108854500Y-80361000D01*
G75*
G02*
X108689000Y-80195500I0J165500D01*
G01*
G37*
G36*
G01*
X109649000Y-80195500D02*
X109649000Y-79804500D01*
G75*
G02*
X109814500Y-79639000I165500J0D01*
G01*
X110145500Y-79639000D01*
G75*
G02*
X110311000Y-79804500I0J-165500D01*
G01*
X110311000Y-80195500D01*
G75*
G02*
X110145500Y-80361000I-165500J0D01*
G01*
X109814500Y-80361000D01*
G75*
G02*
X109649000Y-80195500I0J165500D01*
G01*
G37*
G36*
G01*
X108789000Y-72795500D02*
X108789000Y-72404500D01*
G75*
G02*
X108954500Y-72239000I165500J0D01*
G01*
X109285500Y-72239000D01*
G75*
G02*
X109451000Y-72404500I0J-165500D01*
G01*
X109451000Y-72795500D01*
G75*
G02*
X109285500Y-72961000I-165500J0D01*
G01*
X108954500Y-72961000D01*
G75*
G02*
X108789000Y-72795500I0J165500D01*
G01*
G37*
G36*
G01*
X109749000Y-72795500D02*
X109749000Y-72404500D01*
G75*
G02*
X109914500Y-72239000I165500J0D01*
G01*
X110245500Y-72239000D01*
G75*
G02*
X110411000Y-72404500I0J-165500D01*
G01*
X110411000Y-72795500D01*
G75*
G02*
X110245500Y-72961000I-165500J0D01*
G01*
X109914500Y-72961000D01*
G75*
G02*
X109749000Y-72795500I0J165500D01*
G01*
G37*
G36*
G01*
X109476000Y-67124500D02*
X109476000Y-67675500D01*
G75*
G02*
X109225500Y-67926000I-250500J0D01*
G01*
X108724500Y-67926000D01*
G75*
G02*
X108474000Y-67675500I0J250500D01*
G01*
X108474000Y-67124500D01*
G75*
G02*
X108724500Y-66874000I250500J0D01*
G01*
X109225500Y-66874000D01*
G75*
G02*
X109476000Y-67124500I0J-250500D01*
G01*
G37*
G36*
G01*
X107926000Y-67124500D02*
X107926000Y-67675500D01*
G75*
G02*
X107675500Y-67926000I-250500J0D01*
G01*
X107174500Y-67926000D01*
G75*
G02*
X106924000Y-67675500I0J250500D01*
G01*
X106924000Y-67124500D01*
G75*
G02*
X107174500Y-66874000I250500J0D01*
G01*
X107675500Y-66874000D01*
G75*
G02*
X107926000Y-67124500I0J-250500D01*
G01*
G37*
G36*
G01*
X106389500Y-77469000D02*
X106810500Y-77469000D01*
G75*
G02*
X106971000Y-77629500I0J-160500D01*
G01*
X106971000Y-77950500D01*
G75*
G02*
X106810500Y-78111000I-160500J0D01*
G01*
X106389500Y-78111000D01*
G75*
G02*
X106229000Y-77950500I0J160500D01*
G01*
X106229000Y-77629500D01*
G75*
G02*
X106389500Y-77469000I160500J0D01*
G01*
G37*
G36*
G01*
X106389500Y-78489000D02*
X106810500Y-78489000D01*
G75*
G02*
X106971000Y-78649500I0J-160500D01*
G01*
X106971000Y-78970500D01*
G75*
G02*
X106810500Y-79131000I-160500J0D01*
G01*
X106389500Y-79131000D01*
G75*
G02*
X106229000Y-78970500I0J160500D01*
G01*
X106229000Y-78649500D01*
G75*
G02*
X106389500Y-78489000I160500J0D01*
G01*
G37*
G36*
G01*
X106199500Y-74024000D02*
X106800500Y-74024000D01*
G75*
G02*
X107026000Y-74249500I0J-225500D01*
G01*
X107026000Y-74700500D01*
G75*
G02*
X106800500Y-74926000I-225500J0D01*
G01*
X106199500Y-74926000D01*
G75*
G02*
X105974000Y-74700500I0J225500D01*
G01*
X105974000Y-74249500D01*
G75*
G02*
X106199500Y-74024000I225500J0D01*
G01*
G37*
G36*
G01*
X106199500Y-75674000D02*
X106800500Y-75674000D01*
G75*
G02*
X107026000Y-75899500I0J-225500D01*
G01*
X107026000Y-76350500D01*
G75*
G02*
X106800500Y-76576000I-225500J0D01*
G01*
X106199500Y-76576000D01*
G75*
G02*
X105974000Y-76350500I0J225500D01*
G01*
X105974000Y-75899500D01*
G75*
G02*
X106199500Y-75674000I225500J0D01*
G01*
G37*
G36*
G01*
X98695500Y-78351000D02*
X98304500Y-78351000D01*
G75*
G02*
X98139000Y-78185500I0J165500D01*
G01*
X98139000Y-77854500D01*
G75*
G02*
X98304500Y-77689000I165500J0D01*
G01*
X98695500Y-77689000D01*
G75*
G02*
X98861000Y-77854500I0J-165500D01*
G01*
X98861000Y-78185500D01*
G75*
G02*
X98695500Y-78351000I-165500J0D01*
G01*
G37*
G36*
G01*
X98695500Y-79311000D02*
X98304500Y-79311000D01*
G75*
G02*
X98139000Y-79145500I0J165500D01*
G01*
X98139000Y-78814500D01*
G75*
G02*
X98304500Y-78649000I165500J0D01*
G01*
X98695500Y-78649000D01*
G75*
G02*
X98861000Y-78814500I0J-165500D01*
G01*
X98861000Y-79145500D01*
G75*
G02*
X98695500Y-79311000I-165500J0D01*
G01*
G37*
G36*
G01*
X99895500Y-77411000D02*
X99504500Y-77411000D01*
G75*
G02*
X99339000Y-77245500I0J165500D01*
G01*
X99339000Y-76914500D01*
G75*
G02*
X99504500Y-76749000I165500J0D01*
G01*
X99895500Y-76749000D01*
G75*
G02*
X100061000Y-76914500I0J-165500D01*
G01*
X100061000Y-77245500D01*
G75*
G02*
X99895500Y-77411000I-165500J0D01*
G01*
G37*
G36*
G01*
X99895500Y-76451000D02*
X99504500Y-76451000D01*
G75*
G02*
X99339000Y-76285500I0J165500D01*
G01*
X99339000Y-75954500D01*
G75*
G02*
X99504500Y-75789000I165500J0D01*
G01*
X99895500Y-75789000D01*
G75*
G02*
X100061000Y-75954500I0J-165500D01*
G01*
X100061000Y-76285500D01*
G75*
G02*
X99895500Y-76451000I-165500J0D01*
G01*
G37*
G36*
G01*
X106410500Y-68831000D02*
X105989500Y-68831000D01*
G75*
G02*
X105829000Y-68670500I0J160500D01*
G01*
X105829000Y-68349500D01*
G75*
G02*
X105989500Y-68189000I160500J0D01*
G01*
X106410500Y-68189000D01*
G75*
G02*
X106571000Y-68349500I0J-160500D01*
G01*
X106571000Y-68670500D01*
G75*
G02*
X106410500Y-68831000I-160500J0D01*
G01*
G37*
G36*
G01*
X106410500Y-67811000D02*
X105989500Y-67811000D01*
G75*
G02*
X105829000Y-67650500I0J160500D01*
G01*
X105829000Y-67329500D01*
G75*
G02*
X105989500Y-67169000I160500J0D01*
G01*
X106410500Y-67169000D01*
G75*
G02*
X106571000Y-67329500I0J-160500D01*
G01*
X106571000Y-67650500D01*
G75*
G02*
X106410500Y-67811000I-160500J0D01*
G01*
G37*
G36*
G01*
X104395500Y-80151000D02*
X104004500Y-80151000D01*
G75*
G02*
X103839000Y-79985500I0J165500D01*
G01*
X103839000Y-79654500D01*
G75*
G02*
X104004500Y-79489000I165500J0D01*
G01*
X104395500Y-79489000D01*
G75*
G02*
X104561000Y-79654500I0J-165500D01*
G01*
X104561000Y-79985500D01*
G75*
G02*
X104395500Y-80151000I-165500J0D01*
G01*
G37*
G36*
G01*
X104395500Y-81111000D02*
X104004500Y-81111000D01*
G75*
G02*
X103839000Y-80945500I0J165500D01*
G01*
X103839000Y-80614500D01*
G75*
G02*
X104004500Y-80449000I165500J0D01*
G01*
X104395500Y-80449000D01*
G75*
G02*
X104561000Y-80614500I0J-165500D01*
G01*
X104561000Y-80945500D01*
G75*
G02*
X104395500Y-81111000I-165500J0D01*
G01*
G37*
G36*
G01*
X105895500Y-81711000D02*
X105504500Y-81711000D01*
G75*
G02*
X105339000Y-81545500I0J165500D01*
G01*
X105339000Y-81214500D01*
G75*
G02*
X105504500Y-81049000I165500J0D01*
G01*
X105895500Y-81049000D01*
G75*
G02*
X106061000Y-81214500I0J-165500D01*
G01*
X106061000Y-81545500D01*
G75*
G02*
X105895500Y-81711000I-165500J0D01*
G01*
G37*
G36*
G01*
X105895500Y-80751000D02*
X105504500Y-80751000D01*
G75*
G02*
X105339000Y-80585500I0J165500D01*
G01*
X105339000Y-80254500D01*
G75*
G02*
X105504500Y-80089000I165500J0D01*
G01*
X105895500Y-80089000D01*
G75*
G02*
X106061000Y-80254500I0J-165500D01*
G01*
X106061000Y-80585500D01*
G75*
G02*
X105895500Y-80751000I-165500J0D01*
G01*
G37*
G36*
G01*
X103445500Y-81111000D02*
X103054500Y-81111000D01*
G75*
G02*
X102889000Y-80945500I0J165500D01*
G01*
X102889000Y-80614500D01*
G75*
G02*
X103054500Y-80449000I165500J0D01*
G01*
X103445500Y-80449000D01*
G75*
G02*
X103611000Y-80614500I0J-165500D01*
G01*
X103611000Y-80945500D01*
G75*
G02*
X103445500Y-81111000I-165500J0D01*
G01*
G37*
G36*
G01*
X103445500Y-80151000D02*
X103054500Y-80151000D01*
G75*
G02*
X102889000Y-79985500I0J165500D01*
G01*
X102889000Y-79654500D01*
G75*
G02*
X103054500Y-79489000I165500J0D01*
G01*
X103445500Y-79489000D01*
G75*
G02*
X103611000Y-79654500I0J-165500D01*
G01*
X103611000Y-79985500D01*
G75*
G02*
X103445500Y-80151000I-165500J0D01*
G01*
G37*
G36*
G01*
X105310500Y-68331000D02*
X104889500Y-68331000D01*
G75*
G02*
X104729000Y-68170500I0J160500D01*
G01*
X104729000Y-67849500D01*
G75*
G02*
X104889500Y-67689000I160500J0D01*
G01*
X105310500Y-67689000D01*
G75*
G02*
X105471000Y-67849500I0J-160500D01*
G01*
X105471000Y-68170500D01*
G75*
G02*
X105310500Y-68331000I-160500J0D01*
G01*
G37*
G36*
G01*
X105310500Y-67311000D02*
X104889500Y-67311000D01*
G75*
G02*
X104729000Y-67150500I0J160500D01*
G01*
X104729000Y-66829500D01*
G75*
G02*
X104889500Y-66669000I160500J0D01*
G01*
X105310500Y-66669000D01*
G75*
G02*
X105471000Y-66829500I0J-160500D01*
G01*
X105471000Y-67150500D01*
G75*
G02*
X105310500Y-67311000I-160500J0D01*
G01*
G37*
G36*
G01*
X98611000Y-87504500D02*
X98611000Y-87895500D01*
G75*
G02*
X98445500Y-88061000I-165500J0D01*
G01*
X98114500Y-88061000D01*
G75*
G02*
X97949000Y-87895500I0J165500D01*
G01*
X97949000Y-87504500D01*
G75*
G02*
X98114500Y-87339000I165500J0D01*
G01*
X98445500Y-87339000D01*
G75*
G02*
X98611000Y-87504500I0J-165500D01*
G01*
G37*
G36*
G01*
X97651000Y-87504500D02*
X97651000Y-87895500D01*
G75*
G02*
X97485500Y-88061000I-165500J0D01*
G01*
X97154500Y-88061000D01*
G75*
G02*
X96989000Y-87895500I0J165500D01*
G01*
X96989000Y-87504500D01*
G75*
G02*
X97154500Y-87339000I165500J0D01*
G01*
X97485500Y-87339000D01*
G75*
G02*
X97651000Y-87504500I0J-165500D01*
G01*
G37*
G36*
G01*
X106895500Y-81711000D02*
X106504500Y-81711000D01*
G75*
G02*
X106339000Y-81545500I0J165500D01*
G01*
X106339000Y-81214500D01*
G75*
G02*
X106504500Y-81049000I165500J0D01*
G01*
X106895500Y-81049000D01*
G75*
G02*
X107061000Y-81214500I0J-165500D01*
G01*
X107061000Y-81545500D01*
G75*
G02*
X106895500Y-81711000I-165500J0D01*
G01*
G37*
G36*
G01*
X106895500Y-80751000D02*
X106504500Y-80751000D01*
G75*
G02*
X106339000Y-80585500I0J165500D01*
G01*
X106339000Y-80254500D01*
G75*
G02*
X106504500Y-80089000I165500J0D01*
G01*
X106895500Y-80089000D01*
G75*
G02*
X107061000Y-80254500I0J-165500D01*
G01*
X107061000Y-80585500D01*
G75*
G02*
X106895500Y-80751000I-165500J0D01*
G01*
G37*
G36*
G01*
X103704500Y-91289000D02*
X104095500Y-91289000D01*
G75*
G02*
X104261000Y-91454500I0J-165500D01*
G01*
X104261000Y-91785500D01*
G75*
G02*
X104095500Y-91951000I-165500J0D01*
G01*
X103704500Y-91951000D01*
G75*
G02*
X103539000Y-91785500I0J165500D01*
G01*
X103539000Y-91454500D01*
G75*
G02*
X103704500Y-91289000I165500J0D01*
G01*
G37*
G36*
G01*
X103704500Y-92249000D02*
X104095500Y-92249000D01*
G75*
G02*
X104261000Y-92414500I0J-165500D01*
G01*
X104261000Y-92745500D01*
G75*
G02*
X104095500Y-92911000I-165500J0D01*
G01*
X103704500Y-92911000D01*
G75*
G02*
X103539000Y-92745500I0J165500D01*
G01*
X103539000Y-92414500D01*
G75*
G02*
X103704500Y-92249000I165500J0D01*
G01*
G37*
G36*
G01*
X109789000Y-87495500D02*
X109789000Y-87104500D01*
G75*
G02*
X109954500Y-86939000I165500J0D01*
G01*
X110285500Y-86939000D01*
G75*
G02*
X110451000Y-87104500I0J-165500D01*
G01*
X110451000Y-87495500D01*
G75*
G02*
X110285500Y-87661000I-165500J0D01*
G01*
X109954500Y-87661000D01*
G75*
G02*
X109789000Y-87495500I0J165500D01*
G01*
G37*
G36*
G01*
X110749000Y-87495500D02*
X110749000Y-87104500D01*
G75*
G02*
X110914500Y-86939000I165500J0D01*
G01*
X111245500Y-86939000D01*
G75*
G02*
X111411000Y-87104500I0J-165500D01*
G01*
X111411000Y-87495500D01*
G75*
G02*
X111245500Y-87661000I-165500J0D01*
G01*
X110914500Y-87661000D01*
G75*
G02*
X110749000Y-87495500I0J165500D01*
G01*
G37*
G36*
G01*
X98795500Y-77411000D02*
X98404500Y-77411000D01*
G75*
G02*
X98239000Y-77245500I0J165500D01*
G01*
X98239000Y-76914500D01*
G75*
G02*
X98404500Y-76749000I165500J0D01*
G01*
X98795500Y-76749000D01*
G75*
G02*
X98961000Y-76914500I0J-165500D01*
G01*
X98961000Y-77245500D01*
G75*
G02*
X98795500Y-77411000I-165500J0D01*
G01*
G37*
G36*
G01*
X98795500Y-76451000D02*
X98404500Y-76451000D01*
G75*
G02*
X98239000Y-76285500I0J165500D01*
G01*
X98239000Y-75954500D01*
G75*
G02*
X98404500Y-75789000I165500J0D01*
G01*
X98795500Y-75789000D01*
G75*
G02*
X98961000Y-75954500I0J-165500D01*
G01*
X98961000Y-76285500D01*
G75*
G02*
X98795500Y-76451000I-165500J0D01*
G01*
G37*
G36*
G01*
X99411000Y-82404500D02*
X99411000Y-82795500D01*
G75*
G02*
X99245500Y-82961000I-165500J0D01*
G01*
X98914500Y-82961000D01*
G75*
G02*
X98749000Y-82795500I0J165500D01*
G01*
X98749000Y-82404500D01*
G75*
G02*
X98914500Y-82239000I165500J0D01*
G01*
X99245500Y-82239000D01*
G75*
G02*
X99411000Y-82404500I0J-165500D01*
G01*
G37*
G36*
G01*
X98451000Y-82404500D02*
X98451000Y-82795500D01*
G75*
G02*
X98285500Y-82961000I-165500J0D01*
G01*
X97954500Y-82961000D01*
G75*
G02*
X97789000Y-82795500I0J165500D01*
G01*
X97789000Y-82404500D01*
G75*
G02*
X97954500Y-82239000I165500J0D01*
G01*
X98285500Y-82239000D01*
G75*
G02*
X98451000Y-82404500I0J-165500D01*
G01*
G37*
G36*
G01*
X104804500Y-91289000D02*
X105195500Y-91289000D01*
G75*
G02*
X105361000Y-91454500I0J-165500D01*
G01*
X105361000Y-91785500D01*
G75*
G02*
X105195500Y-91951000I-165500J0D01*
G01*
X104804500Y-91951000D01*
G75*
G02*
X104639000Y-91785500I0J165500D01*
G01*
X104639000Y-91454500D01*
G75*
G02*
X104804500Y-91289000I165500J0D01*
G01*
G37*
G36*
G01*
X104804500Y-92249000D02*
X105195500Y-92249000D01*
G75*
G02*
X105361000Y-92414500I0J-165500D01*
G01*
X105361000Y-92745500D01*
G75*
G02*
X105195500Y-92911000I-165500J0D01*
G01*
X104804500Y-92911000D01*
G75*
G02*
X104639000Y-92745500I0J165500D01*
G01*
X104639000Y-92414500D01*
G75*
G02*
X104804500Y-92249000I165500J0D01*
G01*
G37*
G36*
G01*
X109731000Y-85189500D02*
X109731000Y-85610500D01*
G75*
G02*
X109570500Y-85771000I-160500J0D01*
G01*
X109249500Y-85771000D01*
G75*
G02*
X109089000Y-85610500I0J160500D01*
G01*
X109089000Y-85189500D01*
G75*
G02*
X109249500Y-85029000I160500J0D01*
G01*
X109570500Y-85029000D01*
G75*
G02*
X109731000Y-85189500I0J-160500D01*
G01*
G37*
G36*
G01*
X108711000Y-85189500D02*
X108711000Y-85610500D01*
G75*
G02*
X108550500Y-85771000I-160500J0D01*
G01*
X108229500Y-85771000D01*
G75*
G02*
X108069000Y-85610500I0J160500D01*
G01*
X108069000Y-85189500D01*
G75*
G02*
X108229500Y-85029000I160500J0D01*
G01*
X108550500Y-85029000D01*
G75*
G02*
X108711000Y-85189500I0J-160500D01*
G01*
G37*
G36*
G01*
X101999000Y-87527410D02*
X101999000Y-84522590D01*
G75*
G02*
X102147590Y-84374000I148590J0D01*
G01*
X105152410Y-84374000D01*
G75*
G02*
X105301000Y-84522590I0J-148590D01*
G01*
X105301000Y-87527410D01*
G75*
G02*
X105152410Y-87676000I-148590J0D01*
G01*
X102147590Y-87676000D01*
G75*
G02*
X101999000Y-87527410I0J148590D01*
G01*
G37*
G36*
G01*
X99724000Y-83500500D02*
X99724000Y-83349500D01*
G75*
G02*
X99799500Y-83274000I75500J0D01*
G01*
X100625500Y-83274000D01*
G75*
G02*
X100701000Y-83349500I0J-75500D01*
G01*
X100701000Y-83500500D01*
G75*
G02*
X100625500Y-83576000I-75500J0D01*
G01*
X99799500Y-83576000D01*
G75*
G02*
X99724000Y-83500500I0J75500D01*
G01*
G37*
G36*
G01*
X99724000Y-83900500D02*
X99724000Y-83749500D01*
G75*
G02*
X99799500Y-83674000I75500J0D01*
G01*
X100625500Y-83674000D01*
G75*
G02*
X100701000Y-83749500I0J-75500D01*
G01*
X100701000Y-83900500D01*
G75*
G02*
X100625500Y-83976000I-75500J0D01*
G01*
X99799500Y-83976000D01*
G75*
G02*
X99724000Y-83900500I0J75500D01*
G01*
G37*
G36*
G01*
X99724000Y-84300500D02*
X99724000Y-84149500D01*
G75*
G02*
X99799500Y-84074000I75500J0D01*
G01*
X100625500Y-84074000D01*
G75*
G02*
X100701000Y-84149500I0J-75500D01*
G01*
X100701000Y-84300500D01*
G75*
G02*
X100625500Y-84376000I-75500J0D01*
G01*
X99799500Y-84376000D01*
G75*
G02*
X99724000Y-84300500I0J75500D01*
G01*
G37*
G36*
G01*
X99724000Y-84700500D02*
X99724000Y-84549500D01*
G75*
G02*
X99799500Y-84474000I75500J0D01*
G01*
X100625500Y-84474000D01*
G75*
G02*
X100701000Y-84549500I0J-75500D01*
G01*
X100701000Y-84700500D01*
G75*
G02*
X100625500Y-84776000I-75500J0D01*
G01*
X99799500Y-84776000D01*
G75*
G02*
X99724000Y-84700500I0J75500D01*
G01*
G37*
G36*
G01*
X99724000Y-85100500D02*
X99724000Y-84949500D01*
G75*
G02*
X99799500Y-84874000I75500J0D01*
G01*
X100625500Y-84874000D01*
G75*
G02*
X100701000Y-84949500I0J-75500D01*
G01*
X100701000Y-85100500D01*
G75*
G02*
X100625500Y-85176000I-75500J0D01*
G01*
X99799500Y-85176000D01*
G75*
G02*
X99724000Y-85100500I0J75500D01*
G01*
G37*
G36*
G01*
X99724000Y-85500500D02*
X99724000Y-85349500D01*
G75*
G02*
X99799500Y-85274000I75500J0D01*
G01*
X100625500Y-85274000D01*
G75*
G02*
X100701000Y-85349500I0J-75500D01*
G01*
X100701000Y-85500500D01*
G75*
G02*
X100625500Y-85576000I-75500J0D01*
G01*
X99799500Y-85576000D01*
G75*
G02*
X99724000Y-85500500I0J75500D01*
G01*
G37*
G36*
G01*
X99724000Y-85900500D02*
X99724000Y-85749500D01*
G75*
G02*
X99799500Y-85674000I75500J0D01*
G01*
X100625500Y-85674000D01*
G75*
G02*
X100701000Y-85749500I0J-75500D01*
G01*
X100701000Y-85900500D01*
G75*
G02*
X100625500Y-85976000I-75500J0D01*
G01*
X99799500Y-85976000D01*
G75*
G02*
X99724000Y-85900500I0J75500D01*
G01*
G37*
G36*
G01*
X99724000Y-86300500D02*
X99724000Y-86149500D01*
G75*
G02*
X99799500Y-86074000I75500J0D01*
G01*
X100625500Y-86074000D01*
G75*
G02*
X100701000Y-86149500I0J-75500D01*
G01*
X100701000Y-86300500D01*
G75*
G02*
X100625500Y-86376000I-75500J0D01*
G01*
X99799500Y-86376000D01*
G75*
G02*
X99724000Y-86300500I0J75500D01*
G01*
G37*
G36*
G01*
X99724000Y-86700500D02*
X99724000Y-86549500D01*
G75*
G02*
X99799500Y-86474000I75500J0D01*
G01*
X100625500Y-86474000D01*
G75*
G02*
X100701000Y-86549500I0J-75500D01*
G01*
X100701000Y-86700500D01*
G75*
G02*
X100625500Y-86776000I-75500J0D01*
G01*
X99799500Y-86776000D01*
G75*
G02*
X99724000Y-86700500I0J75500D01*
G01*
G37*
G36*
G01*
X99724000Y-87100500D02*
X99724000Y-86949500D01*
G75*
G02*
X99799500Y-86874000I75500J0D01*
G01*
X100625500Y-86874000D01*
G75*
G02*
X100701000Y-86949500I0J-75500D01*
G01*
X100701000Y-87100500D01*
G75*
G02*
X100625500Y-87176000I-75500J0D01*
G01*
X99799500Y-87176000D01*
G75*
G02*
X99724000Y-87100500I0J75500D01*
G01*
G37*
G36*
G01*
X99724000Y-87500500D02*
X99724000Y-87349500D01*
G75*
G02*
X99799500Y-87274000I75500J0D01*
G01*
X100625500Y-87274000D01*
G75*
G02*
X100701000Y-87349500I0J-75500D01*
G01*
X100701000Y-87500500D01*
G75*
G02*
X100625500Y-87576000I-75500J0D01*
G01*
X99799500Y-87576000D01*
G75*
G02*
X99724000Y-87500500I0J75500D01*
G01*
G37*
G36*
G01*
X99724000Y-87900500D02*
X99724000Y-87749500D01*
G75*
G02*
X99799500Y-87674000I75500J0D01*
G01*
X100625500Y-87674000D01*
G75*
G02*
X100701000Y-87749500I0J-75500D01*
G01*
X100701000Y-87900500D01*
G75*
G02*
X100625500Y-87976000I-75500J0D01*
G01*
X99799500Y-87976000D01*
G75*
G02*
X99724000Y-87900500I0J75500D01*
G01*
G37*
G36*
G01*
X99724000Y-88300500D02*
X99724000Y-88149500D01*
G75*
G02*
X99799500Y-88074000I75500J0D01*
G01*
X100625500Y-88074000D01*
G75*
G02*
X100701000Y-88149500I0J-75500D01*
G01*
X100701000Y-88300500D01*
G75*
G02*
X100625500Y-88376000I-75500J0D01*
G01*
X99799500Y-88376000D01*
G75*
G02*
X99724000Y-88300500I0J75500D01*
G01*
G37*
G36*
G01*
X99724000Y-88700500D02*
X99724000Y-88549500D01*
G75*
G02*
X99799500Y-88474000I75500J0D01*
G01*
X100625500Y-88474000D01*
G75*
G02*
X100701000Y-88549500I0J-75500D01*
G01*
X100701000Y-88700500D01*
G75*
G02*
X100625500Y-88776000I-75500J0D01*
G01*
X99799500Y-88776000D01*
G75*
G02*
X99724000Y-88700500I0J75500D01*
G01*
G37*
G36*
G01*
X100899000Y-89875500D02*
X100899000Y-89049500D01*
G75*
G02*
X100974500Y-88974000I75500J0D01*
G01*
X101125500Y-88974000D01*
G75*
G02*
X101201000Y-89049500I0J-75500D01*
G01*
X101201000Y-89875500D01*
G75*
G02*
X101125500Y-89951000I-75500J0D01*
G01*
X100974500Y-89951000D01*
G75*
G02*
X100899000Y-89875500I0J75500D01*
G01*
G37*
G36*
G01*
X101299000Y-89875500D02*
X101299000Y-89049500D01*
G75*
G02*
X101374500Y-88974000I75500J0D01*
G01*
X101525500Y-88974000D01*
G75*
G02*
X101601000Y-89049500I0J-75500D01*
G01*
X101601000Y-89875500D01*
G75*
G02*
X101525500Y-89951000I-75500J0D01*
G01*
X101374500Y-89951000D01*
G75*
G02*
X101299000Y-89875500I0J75500D01*
G01*
G37*
G36*
G01*
X101699000Y-89875500D02*
X101699000Y-89049500D01*
G75*
G02*
X101774500Y-88974000I75500J0D01*
G01*
X101925500Y-88974000D01*
G75*
G02*
X102001000Y-89049500I0J-75500D01*
G01*
X102001000Y-89875500D01*
G75*
G02*
X101925500Y-89951000I-75500J0D01*
G01*
X101774500Y-89951000D01*
G75*
G02*
X101699000Y-89875500I0J75500D01*
G01*
G37*
G36*
G01*
X102099000Y-89875500D02*
X102099000Y-89049500D01*
G75*
G02*
X102174500Y-88974000I75500J0D01*
G01*
X102325500Y-88974000D01*
G75*
G02*
X102401000Y-89049500I0J-75500D01*
G01*
X102401000Y-89875500D01*
G75*
G02*
X102325500Y-89951000I-75500J0D01*
G01*
X102174500Y-89951000D01*
G75*
G02*
X102099000Y-89875500I0J75500D01*
G01*
G37*
G36*
G01*
X102499000Y-89875500D02*
X102499000Y-89049500D01*
G75*
G02*
X102574500Y-88974000I75500J0D01*
G01*
X102725500Y-88974000D01*
G75*
G02*
X102801000Y-89049500I0J-75500D01*
G01*
X102801000Y-89875500D01*
G75*
G02*
X102725500Y-89951000I-75500J0D01*
G01*
X102574500Y-89951000D01*
G75*
G02*
X102499000Y-89875500I0J75500D01*
G01*
G37*
G36*
G01*
X102899000Y-89875500D02*
X102899000Y-89049500D01*
G75*
G02*
X102974500Y-88974000I75500J0D01*
G01*
X103125500Y-88974000D01*
G75*
G02*
X103201000Y-89049500I0J-75500D01*
G01*
X103201000Y-89875500D01*
G75*
G02*
X103125500Y-89951000I-75500J0D01*
G01*
X102974500Y-89951000D01*
G75*
G02*
X102899000Y-89875500I0J75500D01*
G01*
G37*
G36*
G01*
X103299000Y-89875500D02*
X103299000Y-89049500D01*
G75*
G02*
X103374500Y-88974000I75500J0D01*
G01*
X103525500Y-88974000D01*
G75*
G02*
X103601000Y-89049500I0J-75500D01*
G01*
X103601000Y-89875500D01*
G75*
G02*
X103525500Y-89951000I-75500J0D01*
G01*
X103374500Y-89951000D01*
G75*
G02*
X103299000Y-89875500I0J75500D01*
G01*
G37*
G36*
G01*
X103699000Y-89875500D02*
X103699000Y-89049500D01*
G75*
G02*
X103774500Y-88974000I75500J0D01*
G01*
X103925500Y-88974000D01*
G75*
G02*
X104001000Y-89049500I0J-75500D01*
G01*
X104001000Y-89875500D01*
G75*
G02*
X103925500Y-89951000I-75500J0D01*
G01*
X103774500Y-89951000D01*
G75*
G02*
X103699000Y-89875500I0J75500D01*
G01*
G37*
G36*
G01*
X104099000Y-89875500D02*
X104099000Y-89049500D01*
G75*
G02*
X104174500Y-88974000I75500J0D01*
G01*
X104325500Y-88974000D01*
G75*
G02*
X104401000Y-89049500I0J-75500D01*
G01*
X104401000Y-89875500D01*
G75*
G02*
X104325500Y-89951000I-75500J0D01*
G01*
X104174500Y-89951000D01*
G75*
G02*
X104099000Y-89875500I0J75500D01*
G01*
G37*
G36*
G01*
X104499000Y-89875500D02*
X104499000Y-89049500D01*
G75*
G02*
X104574500Y-88974000I75500J0D01*
G01*
X104725500Y-88974000D01*
G75*
G02*
X104801000Y-89049500I0J-75500D01*
G01*
X104801000Y-89875500D01*
G75*
G02*
X104725500Y-89951000I-75500J0D01*
G01*
X104574500Y-89951000D01*
G75*
G02*
X104499000Y-89875500I0J75500D01*
G01*
G37*
G36*
G01*
X104899000Y-89875500D02*
X104899000Y-89049500D01*
G75*
G02*
X104974500Y-88974000I75500J0D01*
G01*
X105125500Y-88974000D01*
G75*
G02*
X105201000Y-89049500I0J-75500D01*
G01*
X105201000Y-89875500D01*
G75*
G02*
X105125500Y-89951000I-75500J0D01*
G01*
X104974500Y-89951000D01*
G75*
G02*
X104899000Y-89875500I0J75500D01*
G01*
G37*
G36*
G01*
X105299000Y-89875500D02*
X105299000Y-89049500D01*
G75*
G02*
X105374500Y-88974000I75500J0D01*
G01*
X105525500Y-88974000D01*
G75*
G02*
X105601000Y-89049500I0J-75500D01*
G01*
X105601000Y-89875500D01*
G75*
G02*
X105525500Y-89951000I-75500J0D01*
G01*
X105374500Y-89951000D01*
G75*
G02*
X105299000Y-89875500I0J75500D01*
G01*
G37*
G36*
G01*
X105699000Y-89875500D02*
X105699000Y-89049500D01*
G75*
G02*
X105774500Y-88974000I75500J0D01*
G01*
X105925500Y-88974000D01*
G75*
G02*
X106001000Y-89049500I0J-75500D01*
G01*
X106001000Y-89875500D01*
G75*
G02*
X105925500Y-89951000I-75500J0D01*
G01*
X105774500Y-89951000D01*
G75*
G02*
X105699000Y-89875500I0J75500D01*
G01*
G37*
G36*
G01*
X106099000Y-89875500D02*
X106099000Y-89049500D01*
G75*
G02*
X106174500Y-88974000I75500J0D01*
G01*
X106325500Y-88974000D01*
G75*
G02*
X106401000Y-89049500I0J-75500D01*
G01*
X106401000Y-89875500D01*
G75*
G02*
X106325500Y-89951000I-75500J0D01*
G01*
X106174500Y-89951000D01*
G75*
G02*
X106099000Y-89875500I0J75500D01*
G01*
G37*
G36*
G01*
X106599000Y-88700500D02*
X106599000Y-88549500D01*
G75*
G02*
X106674500Y-88474000I75500J0D01*
G01*
X107500500Y-88474000D01*
G75*
G02*
X107576000Y-88549500I0J-75500D01*
G01*
X107576000Y-88700500D01*
G75*
G02*
X107500500Y-88776000I-75500J0D01*
G01*
X106674500Y-88776000D01*
G75*
G02*
X106599000Y-88700500I0J75500D01*
G01*
G37*
G36*
G01*
X106599000Y-88300500D02*
X106599000Y-88149500D01*
G75*
G02*
X106674500Y-88074000I75500J0D01*
G01*
X107500500Y-88074000D01*
G75*
G02*
X107576000Y-88149500I0J-75500D01*
G01*
X107576000Y-88300500D01*
G75*
G02*
X107500500Y-88376000I-75500J0D01*
G01*
X106674500Y-88376000D01*
G75*
G02*
X106599000Y-88300500I0J75500D01*
G01*
G37*
G36*
G01*
X106599000Y-87900500D02*
X106599000Y-87749500D01*
G75*
G02*
X106674500Y-87674000I75500J0D01*
G01*
X107500500Y-87674000D01*
G75*
G02*
X107576000Y-87749500I0J-75500D01*
G01*
X107576000Y-87900500D01*
G75*
G02*
X107500500Y-87976000I-75500J0D01*
G01*
X106674500Y-87976000D01*
G75*
G02*
X106599000Y-87900500I0J75500D01*
G01*
G37*
G36*
G01*
X106599000Y-87500500D02*
X106599000Y-87349500D01*
G75*
G02*
X106674500Y-87274000I75500J0D01*
G01*
X107500500Y-87274000D01*
G75*
G02*
X107576000Y-87349500I0J-75500D01*
G01*
X107576000Y-87500500D01*
G75*
G02*
X107500500Y-87576000I-75500J0D01*
G01*
X106674500Y-87576000D01*
G75*
G02*
X106599000Y-87500500I0J75500D01*
G01*
G37*
G36*
G01*
X106599000Y-87100500D02*
X106599000Y-86949500D01*
G75*
G02*
X106674500Y-86874000I75500J0D01*
G01*
X107500500Y-86874000D01*
G75*
G02*
X107576000Y-86949500I0J-75500D01*
G01*
X107576000Y-87100500D01*
G75*
G02*
X107500500Y-87176000I-75500J0D01*
G01*
X106674500Y-87176000D01*
G75*
G02*
X106599000Y-87100500I0J75500D01*
G01*
G37*
G36*
G01*
X106599000Y-86700500D02*
X106599000Y-86549500D01*
G75*
G02*
X106674500Y-86474000I75500J0D01*
G01*
X107500500Y-86474000D01*
G75*
G02*
X107576000Y-86549500I0J-75500D01*
G01*
X107576000Y-86700500D01*
G75*
G02*
X107500500Y-86776000I-75500J0D01*
G01*
X106674500Y-86776000D01*
G75*
G02*
X106599000Y-86700500I0J75500D01*
G01*
G37*
G36*
G01*
X106599000Y-86300500D02*
X106599000Y-86149500D01*
G75*
G02*
X106674500Y-86074000I75500J0D01*
G01*
X107500500Y-86074000D01*
G75*
G02*
X107576000Y-86149500I0J-75500D01*
G01*
X107576000Y-86300500D01*
G75*
G02*
X107500500Y-86376000I-75500J0D01*
G01*
X106674500Y-86376000D01*
G75*
G02*
X106599000Y-86300500I0J75500D01*
G01*
G37*
G36*
G01*
X106599000Y-85900500D02*
X106599000Y-85749500D01*
G75*
G02*
X106674500Y-85674000I75500J0D01*
G01*
X107500500Y-85674000D01*
G75*
G02*
X107576000Y-85749500I0J-75500D01*
G01*
X107576000Y-85900500D01*
G75*
G02*
X107500500Y-85976000I-75500J0D01*
G01*
X106674500Y-85976000D01*
G75*
G02*
X106599000Y-85900500I0J75500D01*
G01*
G37*
G36*
G01*
X106599000Y-85500500D02*
X106599000Y-85349500D01*
G75*
G02*
X106674500Y-85274000I75500J0D01*
G01*
X107500500Y-85274000D01*
G75*
G02*
X107576000Y-85349500I0J-75500D01*
G01*
X107576000Y-85500500D01*
G75*
G02*
X107500500Y-85576000I-75500J0D01*
G01*
X106674500Y-85576000D01*
G75*
G02*
X106599000Y-85500500I0J75500D01*
G01*
G37*
G36*
G01*
X106599000Y-85100500D02*
X106599000Y-84949500D01*
G75*
G02*
X106674500Y-84874000I75500J0D01*
G01*
X107500500Y-84874000D01*
G75*
G02*
X107576000Y-84949500I0J-75500D01*
G01*
X107576000Y-85100500D01*
G75*
G02*
X107500500Y-85176000I-75500J0D01*
G01*
X106674500Y-85176000D01*
G75*
G02*
X106599000Y-85100500I0J75500D01*
G01*
G37*
G36*
G01*
X106599000Y-84700500D02*
X106599000Y-84549500D01*
G75*
G02*
X106674500Y-84474000I75500J0D01*
G01*
X107500500Y-84474000D01*
G75*
G02*
X107576000Y-84549500I0J-75500D01*
G01*
X107576000Y-84700500D01*
G75*
G02*
X107500500Y-84776000I-75500J0D01*
G01*
X106674500Y-84776000D01*
G75*
G02*
X106599000Y-84700500I0J75500D01*
G01*
G37*
G36*
G01*
X106599000Y-84300500D02*
X106599000Y-84149500D01*
G75*
G02*
X106674500Y-84074000I75500J0D01*
G01*
X107500500Y-84074000D01*
G75*
G02*
X107576000Y-84149500I0J-75500D01*
G01*
X107576000Y-84300500D01*
G75*
G02*
X107500500Y-84376000I-75500J0D01*
G01*
X106674500Y-84376000D01*
G75*
G02*
X106599000Y-84300500I0J75500D01*
G01*
G37*
G36*
G01*
X106599000Y-83900500D02*
X106599000Y-83749500D01*
G75*
G02*
X106674500Y-83674000I75500J0D01*
G01*
X107500500Y-83674000D01*
G75*
G02*
X107576000Y-83749500I0J-75500D01*
G01*
X107576000Y-83900500D01*
G75*
G02*
X107500500Y-83976000I-75500J0D01*
G01*
X106674500Y-83976000D01*
G75*
G02*
X106599000Y-83900500I0J75500D01*
G01*
G37*
G36*
G01*
X106599000Y-83500500D02*
X106599000Y-83349500D01*
G75*
G02*
X106674500Y-83274000I75500J0D01*
G01*
X107500500Y-83274000D01*
G75*
G02*
X107576000Y-83349500I0J-75500D01*
G01*
X107576000Y-83500500D01*
G75*
G02*
X107500500Y-83576000I-75500J0D01*
G01*
X106674500Y-83576000D01*
G75*
G02*
X106599000Y-83500500I0J75500D01*
G01*
G37*
G36*
G01*
X106099000Y-83000500D02*
X106099000Y-82174500D01*
G75*
G02*
X106174500Y-82099000I75500J0D01*
G01*
X106325500Y-82099000D01*
G75*
G02*
X106401000Y-82174500I0J-75500D01*
G01*
X106401000Y-83000500D01*
G75*
G02*
X106325500Y-83076000I-75500J0D01*
G01*
X106174500Y-83076000D01*
G75*
G02*
X106099000Y-83000500I0J75500D01*
G01*
G37*
G36*
G01*
X105699000Y-83000500D02*
X105699000Y-82174500D01*
G75*
G02*
X105774500Y-82099000I75500J0D01*
G01*
X105925500Y-82099000D01*
G75*
G02*
X106001000Y-82174500I0J-75500D01*
G01*
X106001000Y-83000500D01*
G75*
G02*
X105925500Y-83076000I-75500J0D01*
G01*
X105774500Y-83076000D01*
G75*
G02*
X105699000Y-83000500I0J75500D01*
G01*
G37*
G36*
G01*
X105299000Y-83000500D02*
X105299000Y-82174500D01*
G75*
G02*
X105374500Y-82099000I75500J0D01*
G01*
X105525500Y-82099000D01*
G75*
G02*
X105601000Y-82174500I0J-75500D01*
G01*
X105601000Y-83000500D01*
G75*
G02*
X105525500Y-83076000I-75500J0D01*
G01*
X105374500Y-83076000D01*
G75*
G02*
X105299000Y-83000500I0J75500D01*
G01*
G37*
G36*
G01*
X104899000Y-83000500D02*
X104899000Y-82174500D01*
G75*
G02*
X104974500Y-82099000I75500J0D01*
G01*
X105125500Y-82099000D01*
G75*
G02*
X105201000Y-82174500I0J-75500D01*
G01*
X105201000Y-83000500D01*
G75*
G02*
X105125500Y-83076000I-75500J0D01*
G01*
X104974500Y-83076000D01*
G75*
G02*
X104899000Y-83000500I0J75500D01*
G01*
G37*
G36*
G01*
X104499000Y-83000500D02*
X104499000Y-82174500D01*
G75*
G02*
X104574500Y-82099000I75500J0D01*
G01*
X104725500Y-82099000D01*
G75*
G02*
X104801000Y-82174500I0J-75500D01*
G01*
X104801000Y-83000500D01*
G75*
G02*
X104725500Y-83076000I-75500J0D01*
G01*
X104574500Y-83076000D01*
G75*
G02*
X104499000Y-83000500I0J75500D01*
G01*
G37*
G36*
G01*
X104099000Y-83000500D02*
X104099000Y-82174500D01*
G75*
G02*
X104174500Y-82099000I75500J0D01*
G01*
X104325500Y-82099000D01*
G75*
G02*
X104401000Y-82174500I0J-75500D01*
G01*
X104401000Y-83000500D01*
G75*
G02*
X104325500Y-83076000I-75500J0D01*
G01*
X104174500Y-83076000D01*
G75*
G02*
X104099000Y-83000500I0J75500D01*
G01*
G37*
G36*
G01*
X103699000Y-83000500D02*
X103699000Y-82174500D01*
G75*
G02*
X103774500Y-82099000I75500J0D01*
G01*
X103925500Y-82099000D01*
G75*
G02*
X104001000Y-82174500I0J-75500D01*
G01*
X104001000Y-83000500D01*
G75*
G02*
X103925500Y-83076000I-75500J0D01*
G01*
X103774500Y-83076000D01*
G75*
G02*
X103699000Y-83000500I0J75500D01*
G01*
G37*
G36*
G01*
X103299000Y-83000500D02*
X103299000Y-82174500D01*
G75*
G02*
X103374500Y-82099000I75500J0D01*
G01*
X103525500Y-82099000D01*
G75*
G02*
X103601000Y-82174500I0J-75500D01*
G01*
X103601000Y-83000500D01*
G75*
G02*
X103525500Y-83076000I-75500J0D01*
G01*
X103374500Y-83076000D01*
G75*
G02*
X103299000Y-83000500I0J75500D01*
G01*
G37*
G36*
G01*
X102899000Y-83000500D02*
X102899000Y-82174500D01*
G75*
G02*
X102974500Y-82099000I75500J0D01*
G01*
X103125500Y-82099000D01*
G75*
G02*
X103201000Y-82174500I0J-75500D01*
G01*
X103201000Y-83000500D01*
G75*
G02*
X103125500Y-83076000I-75500J0D01*
G01*
X102974500Y-83076000D01*
G75*
G02*
X102899000Y-83000500I0J75500D01*
G01*
G37*
G36*
G01*
X102499000Y-83000500D02*
X102499000Y-82174500D01*
G75*
G02*
X102574500Y-82099000I75500J0D01*
G01*
X102725500Y-82099000D01*
G75*
G02*
X102801000Y-82174500I0J-75500D01*
G01*
X102801000Y-83000500D01*
G75*
G02*
X102725500Y-83076000I-75500J0D01*
G01*
X102574500Y-83076000D01*
G75*
G02*
X102499000Y-83000500I0J75500D01*
G01*
G37*
G36*
G01*
X102099000Y-83000500D02*
X102099000Y-82174500D01*
G75*
G02*
X102174500Y-82099000I75500J0D01*
G01*
X102325500Y-82099000D01*
G75*
G02*
X102401000Y-82174500I0J-75500D01*
G01*
X102401000Y-83000500D01*
G75*
G02*
X102325500Y-83076000I-75500J0D01*
G01*
X102174500Y-83076000D01*
G75*
G02*
X102099000Y-83000500I0J75500D01*
G01*
G37*
G36*
G01*
X101699000Y-83000500D02*
X101699000Y-82174500D01*
G75*
G02*
X101774500Y-82099000I75500J0D01*
G01*
X101925500Y-82099000D01*
G75*
G02*
X102001000Y-82174500I0J-75500D01*
G01*
X102001000Y-83000500D01*
G75*
G02*
X101925500Y-83076000I-75500J0D01*
G01*
X101774500Y-83076000D01*
G75*
G02*
X101699000Y-83000500I0J75500D01*
G01*
G37*
G36*
G01*
X101299000Y-83000500D02*
X101299000Y-82174500D01*
G75*
G02*
X101374500Y-82099000I75500J0D01*
G01*
X101525500Y-82099000D01*
G75*
G02*
X101601000Y-82174500I0J-75500D01*
G01*
X101601000Y-83000500D01*
G75*
G02*
X101525500Y-83076000I-75500J0D01*
G01*
X101374500Y-83076000D01*
G75*
G02*
X101299000Y-83000500I0J75500D01*
G01*
G37*
G36*
G01*
X100899000Y-83000500D02*
X100899000Y-82174500D01*
G75*
G02*
X100974500Y-82099000I75500J0D01*
G01*
X101125500Y-82099000D01*
G75*
G02*
X101201000Y-82174500I0J-75500D01*
G01*
X101201000Y-83000500D01*
G75*
G02*
X101125500Y-83076000I-75500J0D01*
G01*
X100974500Y-83076000D01*
G75*
G02*
X100899000Y-83000500I0J75500D01*
G01*
G37*
D13*
G36*
X100383488Y-80372010D02*
G01*
X100403306Y-80373962D01*
X100403691Y-80374038D01*
X100420633Y-80379177D01*
X100420995Y-80379327D01*
X100436599Y-80387668D01*
X100436925Y-80387886D01*
X100450608Y-80399115D01*
X100450885Y-80399392D01*
X100462455Y-80413491D01*
X100462572Y-80413649D01*
X100466769Y-80419930D01*
X100472726Y-80425888D01*
X100479734Y-80430570D01*
X100487518Y-80433795D01*
X100495787Y-80435440D01*
X100504211Y-80435440D01*
X100512479Y-80433796D01*
X100520264Y-80430571D01*
X100527272Y-80425889D01*
X100533230Y-80419932D01*
X100537428Y-80413648D01*
X100537545Y-80413490D01*
X100549115Y-80399392D01*
X100549392Y-80399115D01*
X100563075Y-80387886D01*
X100563401Y-80387668D01*
X100579005Y-80379327D01*
X100579367Y-80379177D01*
X100596309Y-80374038D01*
X100596694Y-80373962D01*
X100616512Y-80372010D01*
X100616708Y-80372000D01*
X100637000Y-80372000D01*
X100638732Y-80373000D01*
X100638732Y-80375000D01*
X100637196Y-80375990D01*
X100615350Y-80378141D01*
X100594526Y-80384459D01*
X100575337Y-80394715D01*
X100558518Y-80408518D01*
X100544715Y-80425337D01*
X100534459Y-80444526D01*
X100528141Y-80465350D01*
X100526000Y-80487094D01*
X100526000Y-80887906D01*
X100528141Y-80909650D01*
X100534459Y-80930474D01*
X100544715Y-80949663D01*
X100558518Y-80966482D01*
X100575337Y-80980285D01*
X100594526Y-80990541D01*
X100615350Y-80996859D01*
X100637196Y-80999010D01*
X100638822Y-81000175D01*
X100638626Y-81002165D01*
X100637000Y-81003000D01*
X100616708Y-81003000D01*
X100616512Y-81002990D01*
X100596694Y-81001038D01*
X100596309Y-81000962D01*
X100579367Y-80995823D01*
X100579005Y-80995673D01*
X100563401Y-80987332D01*
X100563075Y-80987114D01*
X100549392Y-80975885D01*
X100549115Y-80975608D01*
X100537545Y-80961509D01*
X100537428Y-80961351D01*
X100533231Y-80955070D01*
X100527274Y-80949112D01*
X100520266Y-80944430D01*
X100512482Y-80941205D01*
X100504213Y-80939560D01*
X100495789Y-80939560D01*
X100487521Y-80941204D01*
X100479736Y-80944429D01*
X100472728Y-80949111D01*
X100466770Y-80955068D01*
X100462572Y-80961352D01*
X100462455Y-80961510D01*
X100450885Y-80975608D01*
X100450608Y-80975885D01*
X100436925Y-80987114D01*
X100436599Y-80987332D01*
X100420995Y-80995673D01*
X100420633Y-80995823D01*
X100403691Y-81000962D01*
X100403306Y-81001038D01*
X100383488Y-81002990D01*
X100383292Y-81003000D01*
X100363000Y-81003000D01*
X100361268Y-81002000D01*
X100361268Y-81000000D01*
X100362804Y-80999010D01*
X100384650Y-80996859D01*
X100405474Y-80990541D01*
X100424663Y-80980285D01*
X100441482Y-80966482D01*
X100455285Y-80949663D01*
X100465541Y-80930474D01*
X100471859Y-80909650D01*
X100474000Y-80887906D01*
X100474000Y-80487094D01*
X100471859Y-80465350D01*
X100465541Y-80444526D01*
X100455285Y-80425337D01*
X100441482Y-80408518D01*
X100424663Y-80394715D01*
X100405474Y-80384459D01*
X100384650Y-80378141D01*
X100362804Y-80375990D01*
X100361178Y-80374825D01*
X100361374Y-80372835D01*
X100363000Y-80372000D01*
X100383292Y-80372000D01*
X100383488Y-80372010D01*
G37*
G36*
X100883488Y-80372010D02*
G01*
X100903306Y-80373962D01*
X100903691Y-80374038D01*
X100920633Y-80379177D01*
X100920995Y-80379327D01*
X100936599Y-80387668D01*
X100936925Y-80387886D01*
X100950608Y-80399115D01*
X100950885Y-80399392D01*
X100962455Y-80413491D01*
X100962572Y-80413649D01*
X100966769Y-80419930D01*
X100972726Y-80425888D01*
X100979734Y-80430570D01*
X100987518Y-80433795D01*
X100995787Y-80435440D01*
X101004211Y-80435440D01*
X101012479Y-80433796D01*
X101020264Y-80430571D01*
X101027272Y-80425889D01*
X101033230Y-80419932D01*
X101037428Y-80413648D01*
X101037545Y-80413490D01*
X101049115Y-80399392D01*
X101049392Y-80399115D01*
X101063075Y-80387886D01*
X101063401Y-80387668D01*
X101079005Y-80379327D01*
X101079367Y-80379177D01*
X101096309Y-80374038D01*
X101096694Y-80373962D01*
X101116512Y-80372010D01*
X101116708Y-80372000D01*
X101137000Y-80372000D01*
X101138732Y-80373000D01*
X101138732Y-80375000D01*
X101137196Y-80375990D01*
X101115350Y-80378141D01*
X101094526Y-80384459D01*
X101075337Y-80394715D01*
X101058518Y-80408518D01*
X101044715Y-80425337D01*
X101034459Y-80444526D01*
X101028141Y-80465350D01*
X101026000Y-80487094D01*
X101026000Y-80887906D01*
X101028141Y-80909650D01*
X101034459Y-80930474D01*
X101044715Y-80949663D01*
X101058518Y-80966482D01*
X101075337Y-80980285D01*
X101094526Y-80990541D01*
X101115350Y-80996859D01*
X101137196Y-80999010D01*
X101138822Y-81000175D01*
X101138626Y-81002165D01*
X101137000Y-81003000D01*
X101116708Y-81003000D01*
X101116512Y-81002990D01*
X101096694Y-81001038D01*
X101096309Y-81000962D01*
X101079367Y-80995823D01*
X101079005Y-80995673D01*
X101063401Y-80987332D01*
X101063075Y-80987114D01*
X101049392Y-80975885D01*
X101049115Y-80975608D01*
X101037545Y-80961509D01*
X101037428Y-80961351D01*
X101033231Y-80955070D01*
X101027274Y-80949112D01*
X101020266Y-80944430D01*
X101012482Y-80941205D01*
X101004213Y-80939560D01*
X100995789Y-80939560D01*
X100987521Y-80941204D01*
X100979736Y-80944429D01*
X100972728Y-80949111D01*
X100966770Y-80955068D01*
X100962572Y-80961352D01*
X100962455Y-80961510D01*
X100950885Y-80975608D01*
X100950608Y-80975885D01*
X100936925Y-80987114D01*
X100936599Y-80987332D01*
X100920995Y-80995673D01*
X100920633Y-80995823D01*
X100903691Y-81000962D01*
X100903306Y-81001038D01*
X100883488Y-81002990D01*
X100883292Y-81003000D01*
X100863000Y-81003000D01*
X100861268Y-81002000D01*
X100861268Y-81000000D01*
X100862804Y-80999010D01*
X100884650Y-80996859D01*
X100905474Y-80990541D01*
X100924663Y-80980285D01*
X100941482Y-80966482D01*
X100955285Y-80949663D01*
X100965541Y-80930474D01*
X100971859Y-80909650D01*
X100974000Y-80887906D01*
X100974000Y-80487094D01*
X100971859Y-80465350D01*
X100965541Y-80444526D01*
X100955285Y-80425337D01*
X100941482Y-80408518D01*
X100924663Y-80394715D01*
X100905474Y-80384459D01*
X100884650Y-80378141D01*
X100862804Y-80375990D01*
X100861178Y-80374825D01*
X100861374Y-80372835D01*
X100863000Y-80372000D01*
X100883292Y-80372000D01*
X100883488Y-80372010D01*
G37*
G36*
X99883488Y-80372010D02*
G01*
X99903306Y-80373962D01*
X99903691Y-80374038D01*
X99920633Y-80379177D01*
X99920995Y-80379327D01*
X99936599Y-80387668D01*
X99936925Y-80387886D01*
X99950608Y-80399115D01*
X99950885Y-80399392D01*
X99962455Y-80413491D01*
X99962572Y-80413649D01*
X99966769Y-80419930D01*
X99972726Y-80425888D01*
X99979734Y-80430570D01*
X99987518Y-80433795D01*
X99995787Y-80435440D01*
X100004211Y-80435440D01*
X100012479Y-80433796D01*
X100020264Y-80430571D01*
X100027272Y-80425889D01*
X100033230Y-80419932D01*
X100037428Y-80413648D01*
X100037545Y-80413490D01*
X100049115Y-80399392D01*
X100049392Y-80399115D01*
X100063075Y-80387886D01*
X100063401Y-80387668D01*
X100079005Y-80379327D01*
X100079367Y-80379177D01*
X100096309Y-80374038D01*
X100096694Y-80373962D01*
X100116512Y-80372010D01*
X100116708Y-80372000D01*
X100137000Y-80372000D01*
X100138732Y-80373000D01*
X100138732Y-80375000D01*
X100137196Y-80375990D01*
X100115350Y-80378141D01*
X100094526Y-80384459D01*
X100075337Y-80394715D01*
X100058518Y-80408518D01*
X100044715Y-80425337D01*
X100034459Y-80444526D01*
X100028141Y-80465350D01*
X100026000Y-80487094D01*
X100026000Y-80887906D01*
X100028141Y-80909650D01*
X100034459Y-80930474D01*
X100044715Y-80949663D01*
X100058518Y-80966482D01*
X100075337Y-80980285D01*
X100094526Y-80990541D01*
X100115350Y-80996859D01*
X100137196Y-80999010D01*
X100138822Y-81000175D01*
X100138626Y-81002165D01*
X100137000Y-81003000D01*
X100116708Y-81003000D01*
X100116512Y-81002990D01*
X100096694Y-81001038D01*
X100096309Y-81000962D01*
X100079367Y-80995823D01*
X100079005Y-80995673D01*
X100063401Y-80987332D01*
X100063075Y-80987114D01*
X100049392Y-80975885D01*
X100049115Y-80975608D01*
X100037545Y-80961509D01*
X100037428Y-80961351D01*
X100033231Y-80955070D01*
X100027274Y-80949112D01*
X100020266Y-80944430D01*
X100012482Y-80941205D01*
X100004213Y-80939560D01*
X99995789Y-80939560D01*
X99987521Y-80941204D01*
X99979736Y-80944429D01*
X99972728Y-80949111D01*
X99966770Y-80955068D01*
X99962572Y-80961352D01*
X99962455Y-80961510D01*
X99950885Y-80975608D01*
X99950608Y-80975885D01*
X99936925Y-80987114D01*
X99936599Y-80987332D01*
X99920995Y-80995673D01*
X99920633Y-80995823D01*
X99903691Y-81000962D01*
X99903306Y-81001038D01*
X99883488Y-81002990D01*
X99883292Y-81003000D01*
X99863000Y-81003000D01*
X99861268Y-81002000D01*
X99861268Y-81000000D01*
X99862804Y-80999010D01*
X99884650Y-80996859D01*
X99905474Y-80990541D01*
X99924663Y-80980285D01*
X99941482Y-80966482D01*
X99955285Y-80949663D01*
X99965541Y-80930474D01*
X99971859Y-80909650D01*
X99974000Y-80887906D01*
X99974000Y-80487094D01*
X99971859Y-80465350D01*
X99965541Y-80444526D01*
X99955285Y-80425337D01*
X99941482Y-80408518D01*
X99924663Y-80394715D01*
X99905474Y-80384459D01*
X99884650Y-80378141D01*
X99862804Y-80375990D01*
X99861178Y-80374825D01*
X99861374Y-80372835D01*
X99863000Y-80372000D01*
X99883292Y-80372000D01*
X99883488Y-80372010D01*
G37*
G36*
X100383488Y-77797010D02*
G01*
X100403306Y-77798962D01*
X100403691Y-77799038D01*
X100420633Y-77804177D01*
X100420995Y-77804327D01*
X100436599Y-77812668D01*
X100436925Y-77812886D01*
X100450608Y-77824115D01*
X100450885Y-77824392D01*
X100462455Y-77838491D01*
X100462572Y-77838649D01*
X100466769Y-77844930D01*
X100472726Y-77850888D01*
X100479734Y-77855570D01*
X100487518Y-77858795D01*
X100495787Y-77860440D01*
X100504211Y-77860440D01*
X100512479Y-77858796D01*
X100520264Y-77855571D01*
X100527272Y-77850889D01*
X100533230Y-77844932D01*
X100537428Y-77838648D01*
X100537545Y-77838490D01*
X100549115Y-77824392D01*
X100549392Y-77824115D01*
X100563075Y-77812886D01*
X100563401Y-77812668D01*
X100579005Y-77804327D01*
X100579367Y-77804177D01*
X100596309Y-77799038D01*
X100596694Y-77798962D01*
X100616512Y-77797010D01*
X100616708Y-77797000D01*
X100637000Y-77797000D01*
X100638732Y-77798000D01*
X100638732Y-77800000D01*
X100637196Y-77800990D01*
X100615350Y-77803141D01*
X100594526Y-77809459D01*
X100575337Y-77819715D01*
X100558518Y-77833518D01*
X100544715Y-77850337D01*
X100534459Y-77869526D01*
X100528141Y-77890350D01*
X100526000Y-77912094D01*
X100526000Y-78312906D01*
X100528141Y-78334650D01*
X100534459Y-78355474D01*
X100544715Y-78374663D01*
X100558518Y-78391482D01*
X100575337Y-78405285D01*
X100594526Y-78415541D01*
X100615350Y-78421859D01*
X100637196Y-78424010D01*
X100638822Y-78425175D01*
X100638626Y-78427165D01*
X100637000Y-78428000D01*
X100616708Y-78428000D01*
X100616512Y-78427990D01*
X100596694Y-78426038D01*
X100596309Y-78425962D01*
X100579367Y-78420823D01*
X100579005Y-78420673D01*
X100563401Y-78412332D01*
X100563075Y-78412114D01*
X100549392Y-78400885D01*
X100549115Y-78400608D01*
X100537545Y-78386509D01*
X100537428Y-78386351D01*
X100533231Y-78380070D01*
X100527274Y-78374112D01*
X100520266Y-78369430D01*
X100512482Y-78366205D01*
X100504213Y-78364560D01*
X100495789Y-78364560D01*
X100487521Y-78366204D01*
X100479736Y-78369429D01*
X100472728Y-78374111D01*
X100466770Y-78380068D01*
X100462572Y-78386352D01*
X100462455Y-78386510D01*
X100450885Y-78400608D01*
X100450608Y-78400885D01*
X100436925Y-78412114D01*
X100436599Y-78412332D01*
X100420995Y-78420673D01*
X100420633Y-78420823D01*
X100403691Y-78425962D01*
X100403306Y-78426038D01*
X100383488Y-78427990D01*
X100383292Y-78428000D01*
X100363000Y-78428000D01*
X100361268Y-78427000D01*
X100361268Y-78425000D01*
X100362804Y-78424010D01*
X100384650Y-78421859D01*
X100405474Y-78415541D01*
X100424663Y-78405285D01*
X100441482Y-78391482D01*
X100455285Y-78374663D01*
X100465541Y-78355474D01*
X100471859Y-78334650D01*
X100474000Y-78312906D01*
X100474000Y-77912094D01*
X100471859Y-77890350D01*
X100465541Y-77869526D01*
X100455285Y-77850337D01*
X100441482Y-77833518D01*
X100424663Y-77819715D01*
X100405474Y-77809459D01*
X100384650Y-77803141D01*
X100362804Y-77800990D01*
X100361178Y-77799825D01*
X100361374Y-77797835D01*
X100363000Y-77797000D01*
X100383292Y-77797000D01*
X100383488Y-77797010D01*
G37*
G36*
X100883488Y-77797010D02*
G01*
X100903306Y-77798962D01*
X100903691Y-77799038D01*
X100920633Y-77804177D01*
X100920995Y-77804327D01*
X100936599Y-77812668D01*
X100936925Y-77812886D01*
X100950608Y-77824115D01*
X100950885Y-77824392D01*
X100962455Y-77838491D01*
X100962572Y-77838649D01*
X100966769Y-77844930D01*
X100972726Y-77850888D01*
X100979734Y-77855570D01*
X100987518Y-77858795D01*
X100995787Y-77860440D01*
X101004211Y-77860440D01*
X101012479Y-77858796D01*
X101020264Y-77855571D01*
X101027272Y-77850889D01*
X101033230Y-77844932D01*
X101037428Y-77838648D01*
X101037545Y-77838490D01*
X101049115Y-77824392D01*
X101049392Y-77824115D01*
X101063075Y-77812886D01*
X101063401Y-77812668D01*
X101079005Y-77804327D01*
X101079367Y-77804177D01*
X101096309Y-77799038D01*
X101096694Y-77798962D01*
X101116512Y-77797010D01*
X101116708Y-77797000D01*
X101137000Y-77797000D01*
X101138732Y-77798000D01*
X101138732Y-77800000D01*
X101137196Y-77800990D01*
X101115350Y-77803141D01*
X101094526Y-77809459D01*
X101075337Y-77819715D01*
X101058518Y-77833518D01*
X101044715Y-77850337D01*
X101034459Y-77869526D01*
X101028141Y-77890350D01*
X101026000Y-77912094D01*
X101026000Y-78312906D01*
X101028141Y-78334650D01*
X101034459Y-78355474D01*
X101044715Y-78374663D01*
X101058518Y-78391482D01*
X101075337Y-78405285D01*
X101094526Y-78415541D01*
X101115350Y-78421859D01*
X101137196Y-78424010D01*
X101138822Y-78425175D01*
X101138626Y-78427165D01*
X101137000Y-78428000D01*
X101116708Y-78428000D01*
X101116512Y-78427990D01*
X101096694Y-78426038D01*
X101096309Y-78425962D01*
X101079367Y-78420823D01*
X101079005Y-78420673D01*
X101063401Y-78412332D01*
X101063075Y-78412114D01*
X101049392Y-78400885D01*
X101049115Y-78400608D01*
X101037545Y-78386509D01*
X101037428Y-78386351D01*
X101033231Y-78380070D01*
X101027274Y-78374112D01*
X101020266Y-78369430D01*
X101012482Y-78366205D01*
X101004213Y-78364560D01*
X100995789Y-78364560D01*
X100987521Y-78366204D01*
X100979736Y-78369429D01*
X100972728Y-78374111D01*
X100966770Y-78380068D01*
X100962572Y-78386352D01*
X100962455Y-78386510D01*
X100950885Y-78400608D01*
X100950608Y-78400885D01*
X100936925Y-78412114D01*
X100936599Y-78412332D01*
X100920995Y-78420673D01*
X100920633Y-78420823D01*
X100903691Y-78425962D01*
X100903306Y-78426038D01*
X100883488Y-78427990D01*
X100883292Y-78428000D01*
X100863000Y-78428000D01*
X100861268Y-78427000D01*
X100861268Y-78425000D01*
X100862804Y-78424010D01*
X100884650Y-78421859D01*
X100905474Y-78415541D01*
X100924663Y-78405285D01*
X100941482Y-78391482D01*
X100955285Y-78374663D01*
X100965541Y-78355474D01*
X100971859Y-78334650D01*
X100974000Y-78312906D01*
X100974000Y-77912094D01*
X100971859Y-77890350D01*
X100965541Y-77869526D01*
X100955285Y-77850337D01*
X100941482Y-77833518D01*
X100924663Y-77819715D01*
X100905474Y-77809459D01*
X100884650Y-77803141D01*
X100862804Y-77800990D01*
X100861178Y-77799825D01*
X100861374Y-77797835D01*
X100863000Y-77797000D01*
X100883292Y-77797000D01*
X100883488Y-77797010D01*
G37*
G36*
X99883488Y-77797010D02*
G01*
X99903306Y-77798962D01*
X99903691Y-77799038D01*
X99920633Y-77804177D01*
X99920995Y-77804327D01*
X99936599Y-77812668D01*
X99936925Y-77812886D01*
X99950608Y-77824115D01*
X99950885Y-77824392D01*
X99962455Y-77838491D01*
X99962572Y-77838649D01*
X99966769Y-77844930D01*
X99972726Y-77850888D01*
X99979734Y-77855570D01*
X99987518Y-77858795D01*
X99995787Y-77860440D01*
X100004211Y-77860440D01*
X100012479Y-77858796D01*
X100020264Y-77855571D01*
X100027272Y-77850889D01*
X100033230Y-77844932D01*
X100037428Y-77838648D01*
X100037545Y-77838490D01*
X100049115Y-77824392D01*
X100049392Y-77824115D01*
X100063075Y-77812886D01*
X100063401Y-77812668D01*
X100079005Y-77804327D01*
X100079367Y-77804177D01*
X100096309Y-77799038D01*
X100096694Y-77798962D01*
X100116512Y-77797010D01*
X100116708Y-77797000D01*
X100137000Y-77797000D01*
X100138732Y-77798000D01*
X100138732Y-77800000D01*
X100137196Y-77800990D01*
X100115350Y-77803141D01*
X100094526Y-77809459D01*
X100075337Y-77819715D01*
X100058518Y-77833518D01*
X100044715Y-77850337D01*
X100034459Y-77869526D01*
X100028141Y-77890350D01*
X100026000Y-77912094D01*
X100026000Y-78312906D01*
X100028141Y-78334650D01*
X100034459Y-78355474D01*
X100044715Y-78374663D01*
X100058518Y-78391482D01*
X100075337Y-78405285D01*
X100094526Y-78415541D01*
X100115350Y-78421859D01*
X100137196Y-78424010D01*
X100138822Y-78425175D01*
X100138626Y-78427165D01*
X100137000Y-78428000D01*
X100116708Y-78428000D01*
X100116512Y-78427990D01*
X100096694Y-78426038D01*
X100096309Y-78425962D01*
X100079367Y-78420823D01*
X100079005Y-78420673D01*
X100063401Y-78412332D01*
X100063075Y-78412114D01*
X100049392Y-78400885D01*
X100049115Y-78400608D01*
X100037545Y-78386509D01*
X100037428Y-78386351D01*
X100033231Y-78380070D01*
X100027274Y-78374112D01*
X100020266Y-78369430D01*
X100012482Y-78366205D01*
X100004213Y-78364560D01*
X99995789Y-78364560D01*
X99987521Y-78366204D01*
X99979736Y-78369429D01*
X99972728Y-78374111D01*
X99966770Y-78380068D01*
X99962572Y-78386352D01*
X99962455Y-78386510D01*
X99950885Y-78400608D01*
X99950608Y-78400885D01*
X99936925Y-78412114D01*
X99936599Y-78412332D01*
X99920995Y-78420673D01*
X99920633Y-78420823D01*
X99903691Y-78425962D01*
X99903306Y-78426038D01*
X99883488Y-78427990D01*
X99883292Y-78428000D01*
X99863000Y-78428000D01*
X99861268Y-78427000D01*
X99861268Y-78425000D01*
X99862804Y-78424010D01*
X99884650Y-78421859D01*
X99905474Y-78415541D01*
X99924663Y-78405285D01*
X99941482Y-78391482D01*
X99955285Y-78374663D01*
X99965541Y-78355474D01*
X99971859Y-78334650D01*
X99974000Y-78312906D01*
X99974000Y-77912094D01*
X99971859Y-77890350D01*
X99965541Y-77869526D01*
X99955285Y-77850337D01*
X99941482Y-77833518D01*
X99924663Y-77819715D01*
X99905474Y-77809459D01*
X99884650Y-77803141D01*
X99862804Y-77800990D01*
X99861178Y-77799825D01*
X99861374Y-77797835D01*
X99863000Y-77797000D01*
X99883292Y-77797000D01*
X99883488Y-77797010D01*
G37*
G36*
X106525732Y-64143000D02*
G01*
X106526000Y-64144000D01*
X106526000Y-65696000D01*
X106525000Y-65697732D01*
X106524000Y-65698000D01*
X106451000Y-65698000D01*
X106449268Y-65697000D01*
X106449000Y-65696000D01*
X106449000Y-64144000D01*
X106450000Y-64142268D01*
X106451000Y-64142000D01*
X106524000Y-64142000D01*
X106525732Y-64143000D01*
G37*
G36*
X100850732Y-64143000D02*
G01*
X100851000Y-64144000D01*
X100851000Y-65696000D01*
X100850000Y-65697732D01*
X100849000Y-65698000D01*
X100776000Y-65698000D01*
X100774268Y-65697000D01*
X100774000Y-65696000D01*
X100774000Y-64144000D01*
X100775000Y-64142268D01*
X100776000Y-64142000D01*
X100849000Y-64142000D01*
X100850732Y-64143000D01*
G37*
M02*
