M48
; DRILL file {KiCad (5.1.9)-1} date 06/11/21 11:43:49
; FORMAT={-:-/ absolute / metric / decimal}
; #@! TF.CreationDate,2021-06-11T11:43:49+01:00
; #@! TF.GenerationSoftware,Kicad,Pcbnew,(5.1.9)-1
; #@! TF.FileFunction,Plated,1,2,PTH
FMAT,2
METRIC
T1C0.200
T2C0.350
T3C0.600
T4C1.000
%
G90
G05
T1
X102.85Y-64.65
X103.35Y-64.65
X103.86Y-64.65
X104.36Y-64.65
X106.28Y-70.515
T2
X96.45Y-61.925
X96.6Y-87.325
X96.7Y-85.335
X97.292Y-84.725
X97.725Y-81.875
X97.817Y-85.72
X97.9Y-64.65
X98.411Y-85.262
X98.66Y-84.525
X98.7Y-92.925
X99.73Y-71.14
X100.2Y-89.575
X100.262Y-82.362
X100.375Y-64.62
X100.375Y-65.95
X100.425Y-74.5
X101.66Y-73.145
X101.85Y-92.1
X102.04Y-66.185
X102.11Y-78.545
X102.415Y-84.75
X102.415Y-86.025
X102.415Y-87.3
X103.26Y-81.155
X103.49Y-62.915
X103.6Y-66.105
X103.69Y-84.75
X103.69Y-86.025
X103.69Y-87.3
X103.7Y-93.525
X104.284Y-90.88
X104.34Y-88.125
X104.55Y-62.575
X104.85Y-93.7
X104.965Y-84.75
X104.965Y-86.025
X104.965Y-87.3
X105.05Y-71.085
X105.065Y-83.725
X105.5Y-104.625
X105.57Y-74.5
X105.68Y-66.535
X106.25Y-80.655
X106.925Y-81.35
X107.6Y-92.225
X107.79Y-68.575
X108.5Y-90.125
X108.8Y-93.175
X108.81Y-68.575
X109.65Y-85.425
X110.1Y-87.175
X110.2Y-64.975
X110.3Y-70.525
X110.39Y-84.545
X110.4Y-73.325
T4
X93.04Y-91.745
X93.05Y-58.725
X93.05Y-61.255
X93.05Y-63.805
X93.05Y-66.335
X93.05Y-68.885
X93.05Y-71.425
X93.05Y-73.965
X93.05Y-76.505
X93.05Y-81.585
X93.05Y-84.125
X93.05Y-86.665
X93.05Y-89.205
X93.05Y-94.285
X93.05Y-96.825
X93.05Y-99.365
X93.05Y-101.905
X93.05Y-104.445
X93.05Y-106.985
X93.06Y-79.045
X94.75Y-58.725
X94.75Y-61.265
X94.75Y-63.805
X94.75Y-66.345
X94.75Y-68.885
X94.75Y-71.425
X94.75Y-73.965
X94.75Y-76.505
X94.75Y-79.045
X94.75Y-81.585
X94.75Y-84.125
X94.75Y-86.665
X94.75Y-89.205
X94.75Y-91.745
X94.75Y-94.285
X94.75Y-96.825
X94.75Y-99.365
X94.75Y-101.905
X94.75Y-104.445
X94.75Y-106.985
X101.15Y-106.925
X103.69Y-106.925
X106.23Y-106.925
X112.55Y-58.725
X112.55Y-61.265
X112.55Y-63.805
X112.55Y-66.345
X112.55Y-68.885
X112.55Y-71.425
X112.55Y-73.965
X112.55Y-76.505
X112.55Y-79.045
X112.55Y-81.585
X112.55Y-84.125
X112.55Y-86.665
X112.55Y-89.205
X112.55Y-91.745
X112.55Y-94.285
X112.55Y-96.825
X112.55Y-99.365
X112.55Y-101.905
X112.55Y-104.445
X112.55Y-106.985
X114.25Y-58.725
X114.25Y-61.265
X114.25Y-63.805
X114.25Y-66.345
X114.25Y-68.885
X114.25Y-71.425
X114.25Y-73.965
X114.25Y-76.505
X114.25Y-79.045
X114.25Y-81.585
X114.25Y-84.125
X114.25Y-86.665
X114.25Y-89.205
X114.25Y-91.745
X114.25Y-94.285
X114.25Y-96.825
X114.25Y-99.365
X114.25Y-101.905
X114.25Y-104.445
X114.25Y-106.985
T3
X99.28Y-59.825G85X99.28Y-59.225
G05
X99.28Y-64.255G85X99.28Y-63.155
G05
X107.92Y-59.825G85X107.92Y-59.225
G05
X107.92Y-64.255G85X107.92Y-63.155
G05
T0
M30
