G04 #@! TF.GenerationSoftware,KiCad,Pcbnew,(5.1.9)-1*
G04 #@! TF.CreationDate,2021-06-11T11:43:51+01:00*
G04 #@! TF.ProjectId,EnvOpenPico,456e764f-7065-46e5-9069-636f2e6b6963,REV1*
G04 #@! TF.SameCoordinates,Original*
G04 #@! TF.FileFunction,Copper,L1,Top*
G04 #@! TF.FilePolarity,Positive*
%FSLAX46Y46*%
G04 Gerber Fmt 4.6, Leading zero omitted, Abs format (unit mm)*
G04 Created by KiCad (PCBNEW (5.1.9)-1) date 2021-06-11 11:43:51*
%MOMM*%
%LPD*%
G01*
G04 APERTURE LIST*
G04 #@! TA.AperFunction,SMDPad,CuDef*
%ADD10R,0.810000X0.270000*%
G04 #@! TD*
G04 #@! TA.AperFunction,SMDPad,CuDef*
%ADD11R,1.200000X2.000000*%
G04 #@! TD*
G04 #@! TA.AperFunction,ComponentPad*
%ADD12O,1.700000X1.700000*%
G04 #@! TD*
G04 #@! TA.AperFunction,ComponentPad*
%ADD13R,1.700000X1.700000*%
G04 #@! TD*
G04 #@! TA.AperFunction,ComponentPad*
%ADD14R,3.500000X1.700000*%
G04 #@! TD*
G04 #@! TA.AperFunction,ComponentPad*
%ADD15C,1.700000*%
G04 #@! TD*
G04 #@! TA.AperFunction,SMDPad,CuDef*
%ADD16R,1.600000X0.200000*%
G04 #@! TD*
G04 #@! TA.AperFunction,SMDPad,CuDef*
%ADD17R,0.600000X1.450000*%
G04 #@! TD*
G04 #@! TA.AperFunction,SMDPad,CuDef*
%ADD18R,0.300000X1.450000*%
G04 #@! TD*
G04 #@! TA.AperFunction,ComponentPad*
%ADD19O,1.000000X2.100000*%
G04 #@! TD*
G04 #@! TA.AperFunction,ComponentPad*
%ADD20O,1.000000X1.600000*%
G04 #@! TD*
G04 #@! TA.AperFunction,SMDPad,CuDef*
%ADD21R,1.700000X0.900000*%
G04 #@! TD*
G04 #@! TA.AperFunction,SMDPad,CuDef*
%ADD22R,1.400000X1.150000*%
G04 #@! TD*
G04 #@! TA.AperFunction,ComponentPad*
%ADD23C,0.600000*%
G04 #@! TD*
G04 #@! TA.AperFunction,ViaPad*
%ADD24C,0.600000*%
G04 #@! TD*
G04 #@! TA.AperFunction,ViaPad*
%ADD25C,0.400000*%
G04 #@! TD*
G04 #@! TA.AperFunction,Conductor*
%ADD26C,0.150000*%
G04 #@! TD*
G04 #@! TA.AperFunction,Conductor*
%ADD27C,0.400000*%
G04 #@! TD*
G04 #@! TA.AperFunction,Conductor*
%ADD28C,0.300000*%
G04 #@! TD*
G04 #@! TA.AperFunction,Conductor*
%ADD29C,0.800000*%
G04 #@! TD*
G04 #@! TA.AperFunction,Conductor*
%ADD30C,0.200000*%
G04 #@! TD*
G04 #@! TA.AperFunction,Conductor*
%ADD31C,0.127000*%
G04 #@! TD*
G04 #@! TA.AperFunction,Conductor*
%ADD32C,0.254000*%
G04 #@! TD*
G04 APERTURE END LIST*
G04 #@! TA.AperFunction,SMDPad,CuDef*
G36*
G01*
X105180000Y-80000000D02*
X105520000Y-80000000D01*
G75*
G02*
X105660000Y-80140000I0J-140000D01*
G01*
X105660000Y-80420000D01*
G75*
G02*
X105520000Y-80560000I-140000J0D01*
G01*
X105180000Y-80560000D01*
G75*
G02*
X105040000Y-80420000I0J140000D01*
G01*
X105040000Y-80140000D01*
G75*
G02*
X105180000Y-80000000I140000J0D01*
G01*
G37*
G04 #@! TD.AperFunction*
G04 #@! TA.AperFunction,SMDPad,CuDef*
G36*
G01*
X105180000Y-79040000D02*
X105520000Y-79040000D01*
G75*
G02*
X105660000Y-79180000I0J-140000D01*
G01*
X105660000Y-79460000D01*
G75*
G02*
X105520000Y-79600000I-140000J0D01*
G01*
X105180000Y-79600000D01*
G75*
G02*
X105040000Y-79460000I0J140000D01*
G01*
X105040000Y-79180000D01*
G75*
G02*
X105180000Y-79040000I140000J0D01*
G01*
G37*
G04 #@! TD.AperFunction*
D10*
X108705000Y-71525000D03*
X108705000Y-71025000D03*
X108705000Y-70525000D03*
X108705000Y-70025000D03*
X108705000Y-69525000D03*
X106295000Y-69525000D03*
X106295000Y-70025000D03*
X106295000Y-70525000D03*
X106295000Y-71025000D03*
X106295000Y-71525000D03*
D11*
X107500000Y-70525000D03*
G04 #@! TA.AperFunction,SMDPad,CuDef*
G36*
G01*
X109080000Y-68280000D02*
X109080000Y-68650000D01*
G75*
G02*
X108945000Y-68785000I-135000J0D01*
G01*
X108675000Y-68785000D01*
G75*
G02*
X108540000Y-68650000I0J135000D01*
G01*
X108540000Y-68280000D01*
G75*
G02*
X108675000Y-68145000I135000J0D01*
G01*
X108945000Y-68145000D01*
G75*
G02*
X109080000Y-68280000I0J-135000D01*
G01*
G37*
G04 #@! TD.AperFunction*
G04 #@! TA.AperFunction,SMDPad,CuDef*
G36*
G01*
X108060000Y-68280000D02*
X108060000Y-68650000D01*
G75*
G02*
X107925000Y-68785000I-135000J0D01*
G01*
X107655000Y-68785000D01*
G75*
G02*
X107520000Y-68650000I0J135000D01*
G01*
X107520000Y-68280000D01*
G75*
G02*
X107655000Y-68145000I135000J0D01*
G01*
X107925000Y-68145000D01*
G75*
G02*
X108060000Y-68280000I0J-135000D01*
G01*
G37*
G04 #@! TD.AperFunction*
G04 #@! TA.AperFunction,SMDPad,CuDef*
G36*
G01*
X110706250Y-72050000D02*
X109943750Y-72050000D01*
G75*
G02*
X109725000Y-71831250I0J218750D01*
G01*
X109725000Y-71393750D01*
G75*
G02*
X109943750Y-71175000I218750J0D01*
G01*
X110706250Y-71175000D01*
G75*
G02*
X110925000Y-71393750I0J-218750D01*
G01*
X110925000Y-71831250D01*
G75*
G02*
X110706250Y-72050000I-218750J0D01*
G01*
G37*
G04 #@! TD.AperFunction*
G04 #@! TA.AperFunction,SMDPad,CuDef*
G36*
G01*
X110706250Y-69925000D02*
X109943750Y-69925000D01*
G75*
G02*
X109725000Y-69706250I0J218750D01*
G01*
X109725000Y-69268750D01*
G75*
G02*
X109943750Y-69050000I218750J0D01*
G01*
X110706250Y-69050000D01*
G75*
G02*
X110925000Y-69268750I0J-218750D01*
G01*
X110925000Y-69706250D01*
G75*
G02*
X110706250Y-69925000I-218750J0D01*
G01*
G37*
G04 #@! TD.AperFunction*
G04 #@! TA.AperFunction,SMDPad,CuDef*
G36*
G01*
X103580000Y-80565000D02*
X103240000Y-80565000D01*
G75*
G02*
X103100000Y-80425000I0J140000D01*
G01*
X103100000Y-80145000D01*
G75*
G02*
X103240000Y-80005000I140000J0D01*
G01*
X103580000Y-80005000D01*
G75*
G02*
X103720000Y-80145000I0J-140000D01*
G01*
X103720000Y-80425000D01*
G75*
G02*
X103580000Y-80565000I-140000J0D01*
G01*
G37*
G04 #@! TD.AperFunction*
G04 #@! TA.AperFunction,SMDPad,CuDef*
G36*
G01*
X103580000Y-79605000D02*
X103240000Y-79605000D01*
G75*
G02*
X103100000Y-79465000I0J140000D01*
G01*
X103100000Y-79185000D01*
G75*
G02*
X103240000Y-79045000I140000J0D01*
G01*
X103580000Y-79045000D01*
G75*
G02*
X103720000Y-79185000I0J-140000D01*
G01*
X103720000Y-79465000D01*
G75*
G02*
X103580000Y-79605000I-140000J0D01*
G01*
G37*
G04 #@! TD.AperFunction*
G04 #@! TA.AperFunction,SMDPad,CuDef*
G36*
G01*
X99830000Y-73895000D02*
X99830000Y-74235000D01*
G75*
G02*
X99690000Y-74375000I-140000J0D01*
G01*
X99410000Y-74375000D01*
G75*
G02*
X99270000Y-74235000I0J140000D01*
G01*
X99270000Y-73895000D01*
G75*
G02*
X99410000Y-73755000I140000J0D01*
G01*
X99690000Y-73755000D01*
G75*
G02*
X99830000Y-73895000I0J-140000D01*
G01*
G37*
G04 #@! TD.AperFunction*
G04 #@! TA.AperFunction,SMDPad,CuDef*
G36*
G01*
X98870000Y-73895000D02*
X98870000Y-74235000D01*
G75*
G02*
X98730000Y-74375000I-140000J0D01*
G01*
X98450000Y-74375000D01*
G75*
G02*
X98310000Y-74235000I0J140000D01*
G01*
X98310000Y-73895000D01*
G75*
G02*
X98450000Y-73755000I140000J0D01*
G01*
X98730000Y-73755000D01*
G75*
G02*
X98870000Y-73895000I0J-140000D01*
G01*
G37*
G04 #@! TD.AperFunction*
G04 #@! TA.AperFunction,SMDPad,CuDef*
G36*
G01*
X107560000Y-73865000D02*
X107560000Y-74205000D01*
G75*
G02*
X107420000Y-74345000I-140000J0D01*
G01*
X107140000Y-74345000D01*
G75*
G02*
X107000000Y-74205000I0J140000D01*
G01*
X107000000Y-73865000D01*
G75*
G02*
X107140000Y-73725000I140000J0D01*
G01*
X107420000Y-73725000D01*
G75*
G02*
X107560000Y-73865000I0J-140000D01*
G01*
G37*
G04 #@! TD.AperFunction*
G04 #@! TA.AperFunction,SMDPad,CuDef*
G36*
G01*
X106600000Y-73865000D02*
X106600000Y-74205000D01*
G75*
G02*
X106460000Y-74345000I-140000J0D01*
G01*
X106180000Y-74345000D01*
G75*
G02*
X106040000Y-74205000I0J140000D01*
G01*
X106040000Y-73865000D01*
G75*
G02*
X106180000Y-73725000I140000J0D01*
G01*
X106460000Y-73725000D01*
G75*
G02*
X106600000Y-73865000I0J-140000D01*
G01*
G37*
G04 #@! TD.AperFunction*
G04 #@! TA.AperFunction,SMDPad,CuDef*
G36*
G01*
X102600000Y-79600000D02*
X102260000Y-79600000D01*
G75*
G02*
X102120000Y-79460000I0J140000D01*
G01*
X102120000Y-79180000D01*
G75*
G02*
X102260000Y-79040000I140000J0D01*
G01*
X102600000Y-79040000D01*
G75*
G02*
X102740000Y-79180000I0J-140000D01*
G01*
X102740000Y-79460000D01*
G75*
G02*
X102600000Y-79600000I-140000J0D01*
G01*
G37*
G04 #@! TD.AperFunction*
G04 #@! TA.AperFunction,SMDPad,CuDef*
G36*
G01*
X102600000Y-80560000D02*
X102260000Y-80560000D01*
G75*
G02*
X102120000Y-80420000I0J140000D01*
G01*
X102120000Y-80140000D01*
G75*
G02*
X102260000Y-80000000I140000J0D01*
G01*
X102600000Y-80000000D01*
G75*
G02*
X102740000Y-80140000I0J-140000D01*
G01*
X102740000Y-80420000D01*
G75*
G02*
X102600000Y-80560000I-140000J0D01*
G01*
G37*
G04 #@! TD.AperFunction*
G04 #@! TA.AperFunction,SMDPad,CuDef*
G36*
G01*
X107420000Y-79595000D02*
X107080000Y-79595000D01*
G75*
G02*
X106940000Y-79455000I0J140000D01*
G01*
X106940000Y-79175000D01*
G75*
G02*
X107080000Y-79035000I140000J0D01*
G01*
X107420000Y-79035000D01*
G75*
G02*
X107560000Y-79175000I0J-140000D01*
G01*
X107560000Y-79455000D01*
G75*
G02*
X107420000Y-79595000I-140000J0D01*
G01*
G37*
G04 #@! TD.AperFunction*
G04 #@! TA.AperFunction,SMDPad,CuDef*
G36*
G01*
X107420000Y-80555000D02*
X107080000Y-80555000D01*
G75*
G02*
X106940000Y-80415000I0J140000D01*
G01*
X106940000Y-80135000D01*
G75*
G02*
X107080000Y-79995000I140000J0D01*
G01*
X107420000Y-79995000D01*
G75*
G02*
X107560000Y-80135000I0J-140000D01*
G01*
X107560000Y-80415000D01*
G75*
G02*
X107420000Y-80555000I-140000J0D01*
G01*
G37*
G04 #@! TD.AperFunction*
G04 #@! TA.AperFunction,SMDPad,CuDef*
G36*
G01*
X109856250Y-62635000D02*
X109343750Y-62635000D01*
G75*
G02*
X109125000Y-62416250I0J218750D01*
G01*
X109125000Y-61978750D01*
G75*
G02*
X109343750Y-61760000I218750J0D01*
G01*
X109856250Y-61760000D01*
G75*
G02*
X110075000Y-61978750I0J-218750D01*
G01*
X110075000Y-62416250D01*
G75*
G02*
X109856250Y-62635000I-218750J0D01*
G01*
G37*
G04 #@! TD.AperFunction*
G04 #@! TA.AperFunction,SMDPad,CuDef*
G36*
G01*
X109856250Y-64210000D02*
X109343750Y-64210000D01*
G75*
G02*
X109125000Y-63991250I0J218750D01*
G01*
X109125000Y-63553750D01*
G75*
G02*
X109343750Y-63335000I218750J0D01*
G01*
X109856250Y-63335000D01*
G75*
G02*
X110075000Y-63553750I0J-218750D01*
G01*
X110075000Y-63991250D01*
G75*
G02*
X109856250Y-64210000I-218750J0D01*
G01*
G37*
G04 #@! TD.AperFunction*
D12*
X112550000Y-106985000D03*
X112550000Y-104445000D03*
X112550000Y-101905000D03*
X112550000Y-99365000D03*
X112550000Y-96825000D03*
X112550000Y-94285000D03*
X112550000Y-91745000D03*
X112550000Y-89205000D03*
X112550000Y-86665000D03*
X112550000Y-84125000D03*
X112550000Y-81585000D03*
X112550000Y-79045000D03*
X112550000Y-76505000D03*
X112550000Y-73965000D03*
X112550000Y-71425000D03*
X112550000Y-68885000D03*
X112550000Y-66345000D03*
X112550000Y-63805000D03*
X112550000Y-61265000D03*
D13*
X112550000Y-58725000D03*
D14*
X114250000Y-99365000D03*
X114250000Y-101905000D03*
X114250000Y-96825000D03*
X114250000Y-104445000D03*
X114250000Y-94285000D03*
X114250000Y-106985000D03*
X114250000Y-86665000D03*
X114250000Y-91745000D03*
X114250000Y-84125000D03*
X114250000Y-73965000D03*
X114250000Y-71425000D03*
X114250000Y-68885000D03*
X114250000Y-61265000D03*
X114250000Y-89205000D03*
X114250000Y-76505000D03*
X114250000Y-63805000D03*
X114250000Y-58725000D03*
X114250000Y-79045000D03*
X114250000Y-66345000D03*
X114250000Y-81585000D03*
D12*
X94750000Y-58725000D03*
X94750000Y-61265000D03*
D13*
X94750000Y-63805000D03*
D12*
X94750000Y-66345000D03*
X94750000Y-68885000D03*
X94750000Y-71425000D03*
X94750000Y-73965000D03*
D13*
X94750000Y-76505000D03*
D12*
X94750000Y-79045000D03*
X94750000Y-81585000D03*
X94750000Y-84125000D03*
X94750000Y-86665000D03*
D13*
X94750000Y-89205000D03*
D12*
X94750000Y-91745000D03*
X94750000Y-94285000D03*
X94750000Y-96825000D03*
X94750000Y-99365000D03*
D13*
X94750000Y-101905000D03*
D12*
X94750000Y-104445000D03*
D15*
X94750000Y-106985000D03*
D14*
X93050000Y-104445000D03*
X93050000Y-73965000D03*
X93050000Y-99365000D03*
X93050000Y-94285000D03*
X93050000Y-89205000D03*
X93050000Y-86665000D03*
X93050000Y-71425000D03*
X93060000Y-79045000D03*
X93050000Y-68885000D03*
X93050000Y-61255000D03*
X93050000Y-66335000D03*
X93040000Y-91745000D03*
X93050000Y-96825000D03*
X93050000Y-81585000D03*
X93050000Y-76505000D03*
X93050000Y-106985000D03*
X93050000Y-84125000D03*
X93050000Y-63805000D03*
X93050000Y-101905000D03*
X93050000Y-58725000D03*
D16*
X99050000Y-77225000D03*
G04 #@! TA.AperFunction,SMDPad,CuDef*
G36*
G01*
X98387500Y-76200000D02*
X98212500Y-76200000D01*
G75*
G02*
X98125000Y-76112500I0J87500D01*
G01*
X98125000Y-75762500D01*
G75*
G02*
X98212500Y-75675000I87500J0D01*
G01*
X98387500Y-75675000D01*
G75*
G02*
X98475000Y-75762500I0J-87500D01*
G01*
X98475000Y-76112500D01*
G75*
G02*
X98387500Y-76200000I-87500J0D01*
G01*
G37*
G04 #@! TD.AperFunction*
G04 #@! TA.AperFunction,SMDPad,CuDef*
G36*
G01*
X98887500Y-76200000D02*
X98712500Y-76200000D01*
G75*
G02*
X98625000Y-76112500I0J87500D01*
G01*
X98625000Y-75762500D01*
G75*
G02*
X98712500Y-75675000I87500J0D01*
G01*
X98887500Y-75675000D01*
G75*
G02*
X98975000Y-75762500I0J-87500D01*
G01*
X98975000Y-76112500D01*
G75*
G02*
X98887500Y-76200000I-87500J0D01*
G01*
G37*
G04 #@! TD.AperFunction*
G04 #@! TA.AperFunction,SMDPad,CuDef*
G36*
G01*
X99387500Y-76200000D02*
X99212500Y-76200000D01*
G75*
G02*
X99125000Y-76112500I0J87500D01*
G01*
X99125000Y-75762500D01*
G75*
G02*
X99212500Y-75675000I87500J0D01*
G01*
X99387500Y-75675000D01*
G75*
G02*
X99475000Y-75762500I0J-87500D01*
G01*
X99475000Y-76112500D01*
G75*
G02*
X99387500Y-76200000I-87500J0D01*
G01*
G37*
G04 #@! TD.AperFunction*
G04 #@! TA.AperFunction,SMDPad,CuDef*
G36*
G01*
X99887500Y-76200000D02*
X99712500Y-76200000D01*
G75*
G02*
X99625000Y-76112500I0J87500D01*
G01*
X99625000Y-75762500D01*
G75*
G02*
X99712500Y-75675000I87500J0D01*
G01*
X99887500Y-75675000D01*
G75*
G02*
X99975000Y-75762500I0J-87500D01*
G01*
X99975000Y-76112500D01*
G75*
G02*
X99887500Y-76200000I-87500J0D01*
G01*
G37*
G04 #@! TD.AperFunction*
G04 #@! TA.AperFunction,SMDPad,CuDef*
G36*
G01*
X99887500Y-78775000D02*
X99712500Y-78775000D01*
G75*
G02*
X99625000Y-78687500I0J87500D01*
G01*
X99625000Y-78337500D01*
G75*
G02*
X99712500Y-78250000I87500J0D01*
G01*
X99887500Y-78250000D01*
G75*
G02*
X99975000Y-78337500I0J-87500D01*
G01*
X99975000Y-78687500D01*
G75*
G02*
X99887500Y-78775000I-87500J0D01*
G01*
G37*
G04 #@! TD.AperFunction*
G04 #@! TA.AperFunction,SMDPad,CuDef*
G36*
G01*
X99387500Y-78775000D02*
X99212500Y-78775000D01*
G75*
G02*
X99125000Y-78687500I0J87500D01*
G01*
X99125000Y-78337500D01*
G75*
G02*
X99212500Y-78250000I87500J0D01*
G01*
X99387500Y-78250000D01*
G75*
G02*
X99475000Y-78337500I0J-87500D01*
G01*
X99475000Y-78687500D01*
G75*
G02*
X99387500Y-78775000I-87500J0D01*
G01*
G37*
G04 #@! TD.AperFunction*
G04 #@! TA.AperFunction,SMDPad,CuDef*
G36*
G01*
X98887500Y-78775000D02*
X98712500Y-78775000D01*
G75*
G02*
X98625000Y-78687500I0J87500D01*
G01*
X98625000Y-78337500D01*
G75*
G02*
X98712500Y-78250000I87500J0D01*
G01*
X98887500Y-78250000D01*
G75*
G02*
X98975000Y-78337500I0J-87500D01*
G01*
X98975000Y-78687500D01*
G75*
G02*
X98887500Y-78775000I-87500J0D01*
G01*
G37*
G04 #@! TD.AperFunction*
G04 #@! TA.AperFunction,SMDPad,CuDef*
G36*
G01*
X98387500Y-78775000D02*
X98212500Y-78775000D01*
G75*
G02*
X98125000Y-78687500I0J87500D01*
G01*
X98125000Y-78337500D01*
G75*
G02*
X98212500Y-78250000I87500J0D01*
G01*
X98387500Y-78250000D01*
G75*
G02*
X98475000Y-78337500I0J-87500D01*
G01*
X98475000Y-78687500D01*
G75*
G02*
X98387500Y-78775000I-87500J0D01*
G01*
G37*
G04 #@! TD.AperFunction*
D17*
X100375000Y-64620000D03*
X106825000Y-64620000D03*
X101150000Y-64620000D03*
X106050000Y-64620000D03*
D18*
X105350000Y-64620000D03*
X101850000Y-64620000D03*
X104850000Y-64620000D03*
X102350000Y-64620000D03*
X104350000Y-64620000D03*
X102850000Y-64620000D03*
X103350000Y-64620000D03*
X103850000Y-64620000D03*
D19*
X107920000Y-63705000D03*
X99280000Y-63705000D03*
D20*
X107920000Y-59525000D03*
X99280000Y-59525000D03*
G04 #@! TA.AperFunction,SMDPad,CuDef*
G36*
G01*
X101720000Y-68390000D02*
X101720000Y-68020000D01*
G75*
G02*
X101855000Y-67885000I135000J0D01*
G01*
X102125000Y-67885000D01*
G75*
G02*
X102260000Y-68020000I0J-135000D01*
G01*
X102260000Y-68390000D01*
G75*
G02*
X102125000Y-68525000I-135000J0D01*
G01*
X101855000Y-68525000D01*
G75*
G02*
X101720000Y-68390000I0J135000D01*
G01*
G37*
G04 #@! TD.AperFunction*
G04 #@! TA.AperFunction,SMDPad,CuDef*
G36*
G01*
X100700000Y-68390000D02*
X100700000Y-68020000D01*
G75*
G02*
X100835000Y-67885000I135000J0D01*
G01*
X101105000Y-67885000D01*
G75*
G02*
X101240000Y-68020000I0J-135000D01*
G01*
X101240000Y-68390000D01*
G75*
G02*
X101105000Y-68525000I-135000J0D01*
G01*
X100835000Y-68525000D01*
G75*
G02*
X100700000Y-68390000I0J135000D01*
G01*
G37*
G04 #@! TD.AperFunction*
G04 #@! TA.AperFunction,SMDPad,CuDef*
G36*
G01*
X101720000Y-67350000D02*
X101720000Y-66980000D01*
G75*
G02*
X101855000Y-66845000I135000J0D01*
G01*
X102125000Y-66845000D01*
G75*
G02*
X102260000Y-66980000I0J-135000D01*
G01*
X102260000Y-67350000D01*
G75*
G02*
X102125000Y-67485000I-135000J0D01*
G01*
X101855000Y-67485000D01*
G75*
G02*
X101720000Y-67350000I0J135000D01*
G01*
G37*
G04 #@! TD.AperFunction*
G04 #@! TA.AperFunction,SMDPad,CuDef*
G36*
G01*
X100700000Y-67350000D02*
X100700000Y-66980000D01*
G75*
G02*
X100835000Y-66845000I135000J0D01*
G01*
X101105000Y-66845000D01*
G75*
G02*
X101240000Y-66980000I0J-135000D01*
G01*
X101240000Y-67350000D01*
G75*
G02*
X101105000Y-67485000I-135000J0D01*
G01*
X100835000Y-67485000D01*
G75*
G02*
X100700000Y-67350000I0J135000D01*
G01*
G37*
G04 #@! TD.AperFunction*
D21*
X98830000Y-66590000D03*
X98830000Y-69990000D03*
G04 #@! TA.AperFunction,SMDPad,CuDef*
G36*
G01*
X98975000Y-72030000D02*
X98975000Y-72370000D01*
G75*
G02*
X98835000Y-72510000I-140000J0D01*
G01*
X98555000Y-72510000D01*
G75*
G02*
X98415000Y-72370000I0J140000D01*
G01*
X98415000Y-72030000D01*
G75*
G02*
X98555000Y-71890000I140000J0D01*
G01*
X98835000Y-71890000D01*
G75*
G02*
X98975000Y-72030000I0J-140000D01*
G01*
G37*
G04 #@! TD.AperFunction*
G04 #@! TA.AperFunction,SMDPad,CuDef*
G36*
G01*
X99935000Y-72030000D02*
X99935000Y-72370000D01*
G75*
G02*
X99795000Y-72510000I-140000J0D01*
G01*
X99515000Y-72510000D01*
G75*
G02*
X99375000Y-72370000I0J140000D01*
G01*
X99375000Y-72030000D01*
G75*
G02*
X99515000Y-71890000I140000J0D01*
G01*
X99795000Y-71890000D01*
G75*
G02*
X99935000Y-72030000I0J-140000D01*
G01*
G37*
G04 #@! TD.AperFunction*
D22*
X98425000Y-95350000D03*
X100625000Y-95350000D03*
X100625000Y-96950000D03*
X98425000Y-96950000D03*
G04 #@! TA.AperFunction,SMDPad,CuDef*
G36*
G01*
X97690000Y-87415000D02*
X97690000Y-87755000D01*
G75*
G02*
X97550000Y-87895000I-140000J0D01*
G01*
X97270000Y-87895000D01*
G75*
G02*
X97130000Y-87755000I0J140000D01*
G01*
X97130000Y-87415000D01*
G75*
G02*
X97270000Y-87275000I140000J0D01*
G01*
X97550000Y-87275000D01*
G75*
G02*
X97690000Y-87415000I0J-140000D01*
G01*
G37*
G04 #@! TD.AperFunction*
G04 #@! TA.AperFunction,SMDPad,CuDef*
G36*
G01*
X98650000Y-87415000D02*
X98650000Y-87755000D01*
G75*
G02*
X98510000Y-87895000I-140000J0D01*
G01*
X98230000Y-87895000D01*
G75*
G02*
X98090000Y-87755000I0J140000D01*
G01*
X98090000Y-87415000D01*
G75*
G02*
X98230000Y-87275000I140000J0D01*
G01*
X98510000Y-87275000D01*
G75*
G02*
X98650000Y-87415000I0J-140000D01*
G01*
G37*
G04 #@! TD.AperFunction*
G04 #@! TA.AperFunction,SMDPad,CuDef*
G36*
G01*
X98950000Y-94070000D02*
X98950000Y-93730000D01*
G75*
G02*
X99090000Y-93590000I140000J0D01*
G01*
X99370000Y-93590000D01*
G75*
G02*
X99510000Y-93730000I0J-140000D01*
G01*
X99510000Y-94070000D01*
G75*
G02*
X99370000Y-94210000I-140000J0D01*
G01*
X99090000Y-94210000D01*
G75*
G02*
X98950000Y-94070000I0J140000D01*
G01*
G37*
G04 #@! TD.AperFunction*
G04 #@! TA.AperFunction,SMDPad,CuDef*
G36*
G01*
X97990000Y-94070000D02*
X97990000Y-93730000D01*
G75*
G02*
X98130000Y-93590000I140000J0D01*
G01*
X98410000Y-93590000D01*
G75*
G02*
X98550000Y-93730000I0J-140000D01*
G01*
X98550000Y-94070000D01*
G75*
G02*
X98410000Y-94210000I-140000J0D01*
G01*
X98130000Y-94210000D01*
G75*
G02*
X97990000Y-94070000I0J140000D01*
G01*
G37*
G04 #@! TD.AperFunction*
G04 #@! TA.AperFunction,SMDPad,CuDef*
G36*
G01*
X108403000Y-79597000D02*
X108063000Y-79597000D01*
G75*
G02*
X107923000Y-79457000I0J140000D01*
G01*
X107923000Y-79177000D01*
G75*
G02*
X108063000Y-79037000I140000J0D01*
G01*
X108403000Y-79037000D01*
G75*
G02*
X108543000Y-79177000I0J-140000D01*
G01*
X108543000Y-79457000D01*
G75*
G02*
X108403000Y-79597000I-140000J0D01*
G01*
G37*
G04 #@! TD.AperFunction*
G04 #@! TA.AperFunction,SMDPad,CuDef*
G36*
G01*
X108403000Y-80557000D02*
X108063000Y-80557000D01*
G75*
G02*
X107923000Y-80417000I0J140000D01*
G01*
X107923000Y-80137000D01*
G75*
G02*
X108063000Y-79997000I140000J0D01*
G01*
X108403000Y-79997000D01*
G75*
G02*
X108543000Y-80137000I0J-140000D01*
G01*
X108543000Y-80417000D01*
G75*
G02*
X108403000Y-80557000I-140000J0D01*
G01*
G37*
G04 #@! TD.AperFunction*
G04 #@! TA.AperFunction,SMDPad,CuDef*
G36*
G01*
X103580000Y-92375000D02*
X103920000Y-92375000D01*
G75*
G02*
X104060000Y-92515000I0J-140000D01*
G01*
X104060000Y-92795000D01*
G75*
G02*
X103920000Y-92935000I-140000J0D01*
G01*
X103580000Y-92935000D01*
G75*
G02*
X103440000Y-92795000I0J140000D01*
G01*
X103440000Y-92515000D01*
G75*
G02*
X103580000Y-92375000I140000J0D01*
G01*
G37*
G04 #@! TD.AperFunction*
G04 #@! TA.AperFunction,SMDPad,CuDef*
G36*
G01*
X103580000Y-91415000D02*
X103920000Y-91415000D01*
G75*
G02*
X104060000Y-91555000I0J-140000D01*
G01*
X104060000Y-91835000D01*
G75*
G02*
X103920000Y-91975000I-140000J0D01*
G01*
X103580000Y-91975000D01*
G75*
G02*
X103440000Y-91835000I0J140000D01*
G01*
X103440000Y-91555000D01*
G75*
G02*
X103580000Y-91415000I140000J0D01*
G01*
G37*
G04 #@! TD.AperFunction*
G04 #@! TA.AperFunction,SMDPad,CuDef*
G36*
G01*
X109000000Y-87195000D02*
X109000000Y-86855000D01*
G75*
G02*
X109140000Y-86715000I140000J0D01*
G01*
X109420000Y-86715000D01*
G75*
G02*
X109560000Y-86855000I0J-140000D01*
G01*
X109560000Y-87195000D01*
G75*
G02*
X109420000Y-87335000I-140000J0D01*
G01*
X109140000Y-87335000D01*
G75*
G02*
X109000000Y-87195000I0J140000D01*
G01*
G37*
G04 #@! TD.AperFunction*
G04 #@! TA.AperFunction,SMDPad,CuDef*
G36*
G01*
X108040000Y-87195000D02*
X108040000Y-86855000D01*
G75*
G02*
X108180000Y-86715000I140000J0D01*
G01*
X108460000Y-86715000D01*
G75*
G02*
X108600000Y-86855000I0J-140000D01*
G01*
X108600000Y-87195000D01*
G75*
G02*
X108460000Y-87335000I-140000J0D01*
G01*
X108180000Y-87335000D01*
G75*
G02*
X108040000Y-87195000I0J140000D01*
G01*
G37*
G04 #@! TD.AperFunction*
G04 #@! TA.AperFunction,SMDPad,CuDef*
G36*
G01*
X104230000Y-80000000D02*
X104570000Y-80000000D01*
G75*
G02*
X104710000Y-80140000I0J-140000D01*
G01*
X104710000Y-80420000D01*
G75*
G02*
X104570000Y-80560000I-140000J0D01*
G01*
X104230000Y-80560000D01*
G75*
G02*
X104090000Y-80420000I0J140000D01*
G01*
X104090000Y-80140000D01*
G75*
G02*
X104230000Y-80000000I140000J0D01*
G01*
G37*
G04 #@! TD.AperFunction*
G04 #@! TA.AperFunction,SMDPad,CuDef*
G36*
G01*
X104230000Y-79040000D02*
X104570000Y-79040000D01*
G75*
G02*
X104710000Y-79180000I0J-140000D01*
G01*
X104710000Y-79460000D01*
G75*
G02*
X104570000Y-79600000I-140000J0D01*
G01*
X104230000Y-79600000D01*
G75*
G02*
X104090000Y-79460000I0J140000D01*
G01*
X104090000Y-79180000D01*
G75*
G02*
X104230000Y-79040000I140000J0D01*
G01*
G37*
G04 #@! TD.AperFunction*
G04 #@! TA.AperFunction,SMDPad,CuDef*
G36*
G01*
X97920000Y-71060000D02*
X97920000Y-71400000D01*
G75*
G02*
X97780000Y-71540000I-140000J0D01*
G01*
X97500000Y-71540000D01*
G75*
G02*
X97360000Y-71400000I0J140000D01*
G01*
X97360000Y-71060000D01*
G75*
G02*
X97500000Y-70920000I140000J0D01*
G01*
X97780000Y-70920000D01*
G75*
G02*
X97920000Y-71060000I0J-140000D01*
G01*
G37*
G04 #@! TD.AperFunction*
G04 #@! TA.AperFunction,SMDPad,CuDef*
G36*
G01*
X98880000Y-71060000D02*
X98880000Y-71400000D01*
G75*
G02*
X98740000Y-71540000I-140000J0D01*
G01*
X98460000Y-71540000D01*
G75*
G02*
X98320000Y-71400000I0J140000D01*
G01*
X98320000Y-71060000D01*
G75*
G02*
X98460000Y-70920000I140000J0D01*
G01*
X98740000Y-70920000D01*
G75*
G02*
X98880000Y-71060000I0J-140000D01*
G01*
G37*
G04 #@! TD.AperFunction*
G04 #@! TA.AperFunction,SMDPad,CuDef*
G36*
G01*
X98400000Y-82480000D02*
X98400000Y-82820000D01*
G75*
G02*
X98260000Y-82960000I-140000J0D01*
G01*
X97980000Y-82960000D01*
G75*
G02*
X97840000Y-82820000I0J140000D01*
G01*
X97840000Y-82480000D01*
G75*
G02*
X97980000Y-82340000I140000J0D01*
G01*
X98260000Y-82340000D01*
G75*
G02*
X98400000Y-82480000I0J-140000D01*
G01*
G37*
G04 #@! TD.AperFunction*
G04 #@! TA.AperFunction,SMDPad,CuDef*
G36*
G01*
X99360000Y-82480000D02*
X99360000Y-82820000D01*
G75*
G02*
X99220000Y-82960000I-140000J0D01*
G01*
X98940000Y-82960000D01*
G75*
G02*
X98800000Y-82820000I0J140000D01*
G01*
X98800000Y-82480000D01*
G75*
G02*
X98940000Y-82340000I140000J0D01*
G01*
X99220000Y-82340000D01*
G75*
G02*
X99360000Y-82480000I0J-140000D01*
G01*
G37*
G04 #@! TD.AperFunction*
G04 #@! TA.AperFunction,SMDPad,CuDef*
G36*
G01*
X104830000Y-92375000D02*
X105170000Y-92375000D01*
G75*
G02*
X105310000Y-92515000I0J-140000D01*
G01*
X105310000Y-92795000D01*
G75*
G02*
X105170000Y-92935000I-140000J0D01*
G01*
X104830000Y-92935000D01*
G75*
G02*
X104690000Y-92795000I0J140000D01*
G01*
X104690000Y-92515000D01*
G75*
G02*
X104830000Y-92375000I140000J0D01*
G01*
G37*
G04 #@! TD.AperFunction*
G04 #@! TA.AperFunction,SMDPad,CuDef*
G36*
G01*
X104830000Y-91415000D02*
X105170000Y-91415000D01*
G75*
G02*
X105310000Y-91555000I0J-140000D01*
G01*
X105310000Y-91835000D01*
G75*
G02*
X105170000Y-91975000I-140000J0D01*
G01*
X104830000Y-91975000D01*
G75*
G02*
X104690000Y-91835000I0J140000D01*
G01*
X104690000Y-91555000D01*
G75*
G02*
X104830000Y-91415000I140000J0D01*
G01*
G37*
G04 #@! TD.AperFunction*
G04 #@! TA.AperFunction,SMDPad,CuDef*
G36*
G01*
X100700000Y-93730000D02*
X100700000Y-94070000D01*
G75*
G02*
X100560000Y-94210000I-140000J0D01*
G01*
X100280000Y-94210000D01*
G75*
G02*
X100140000Y-94070000I0J140000D01*
G01*
X100140000Y-93730000D01*
G75*
G02*
X100280000Y-93590000I140000J0D01*
G01*
X100560000Y-93590000D01*
G75*
G02*
X100700000Y-93730000I0J-140000D01*
G01*
G37*
G04 #@! TD.AperFunction*
G04 #@! TA.AperFunction,SMDPad,CuDef*
G36*
G01*
X101660000Y-93730000D02*
X101660000Y-94070000D01*
G75*
G02*
X101520000Y-94210000I-140000J0D01*
G01*
X101240000Y-94210000D01*
G75*
G02*
X101100000Y-94070000I0J140000D01*
G01*
X101100000Y-93730000D01*
G75*
G02*
X101240000Y-93590000I140000J0D01*
G01*
X101520000Y-93590000D01*
G75*
G02*
X101660000Y-93730000I0J-140000D01*
G01*
G37*
G04 #@! TD.AperFunction*
G04 #@! TA.AperFunction,SMDPad,CuDef*
G36*
G01*
X110370000Y-65245000D02*
X110030000Y-65245000D01*
G75*
G02*
X109890000Y-65105000I0J140000D01*
G01*
X109890000Y-64825000D01*
G75*
G02*
X110030000Y-64685000I140000J0D01*
G01*
X110370000Y-64685000D01*
G75*
G02*
X110510000Y-64825000I0J-140000D01*
G01*
X110510000Y-65105000D01*
G75*
G02*
X110370000Y-65245000I-140000J0D01*
G01*
G37*
G04 #@! TD.AperFunction*
G04 #@! TA.AperFunction,SMDPad,CuDef*
G36*
G01*
X110370000Y-66205000D02*
X110030000Y-66205000D01*
G75*
G02*
X109890000Y-66065000I0J140000D01*
G01*
X109890000Y-65785000D01*
G75*
G02*
X110030000Y-65645000I140000J0D01*
G01*
X110370000Y-65645000D01*
G75*
G02*
X110510000Y-65785000I0J-140000D01*
G01*
X110510000Y-66065000D01*
G75*
G02*
X110370000Y-66205000I-140000J0D01*
G01*
G37*
G04 #@! TD.AperFunction*
G04 #@! TA.AperFunction,SMDPad,CuDef*
G36*
G01*
X108960000Y-85240000D02*
X108960000Y-85610000D01*
G75*
G02*
X108825000Y-85745000I-135000J0D01*
G01*
X108555000Y-85745000D01*
G75*
G02*
X108420000Y-85610000I0J135000D01*
G01*
X108420000Y-85240000D01*
G75*
G02*
X108555000Y-85105000I135000J0D01*
G01*
X108825000Y-85105000D01*
G75*
G02*
X108960000Y-85240000I0J-135000D01*
G01*
G37*
G04 #@! TD.AperFunction*
G04 #@! TA.AperFunction,SMDPad,CuDef*
G36*
G01*
X109980000Y-85240000D02*
X109980000Y-85610000D01*
G75*
G02*
X109845000Y-85745000I-135000J0D01*
G01*
X109575000Y-85745000D01*
G75*
G02*
X109440000Y-85610000I0J135000D01*
G01*
X109440000Y-85240000D01*
G75*
G02*
X109575000Y-85105000I135000J0D01*
G01*
X109845000Y-85105000D01*
G75*
G02*
X109980000Y-85240000I0J-135000D01*
G01*
G37*
G04 #@! TD.AperFunction*
G04 #@! TA.AperFunction,SMDPad,CuDef*
G36*
G01*
X97727500Y-63240000D02*
X98072500Y-63240000D01*
G75*
G02*
X98220000Y-63387500I0J-147500D01*
G01*
X98220000Y-63682500D01*
G75*
G02*
X98072500Y-63830000I-147500J0D01*
G01*
X97727500Y-63830000D01*
G75*
G02*
X97580000Y-63682500I0J147500D01*
G01*
X97580000Y-63387500D01*
G75*
G02*
X97727500Y-63240000I147500J0D01*
G01*
G37*
G04 #@! TD.AperFunction*
G04 #@! TA.AperFunction,SMDPad,CuDef*
G36*
G01*
X97727500Y-62270000D02*
X98072500Y-62270000D01*
G75*
G02*
X98220000Y-62417500I0J-147500D01*
G01*
X98220000Y-62712500D01*
G75*
G02*
X98072500Y-62860000I-147500J0D01*
G01*
X97727500Y-62860000D01*
G75*
G02*
X97580000Y-62712500I0J147500D01*
G01*
X97580000Y-62417500D01*
G75*
G02*
X97727500Y-62270000I147500J0D01*
G01*
G37*
G04 #@! TD.AperFunction*
G04 #@! TA.AperFunction,SMDPad,CuDef*
G36*
G01*
X100990000Y-82975000D02*
X100990000Y-82200000D01*
G75*
G02*
X101040000Y-82150000I50000J0D01*
G01*
X101140000Y-82150000D01*
G75*
G02*
X101190000Y-82200000I0J-50000D01*
G01*
X101190000Y-82975000D01*
G75*
G02*
X101140000Y-83025000I-50000J0D01*
G01*
X101040000Y-83025000D01*
G75*
G02*
X100990000Y-82975000I0J50000D01*
G01*
G37*
G04 #@! TD.AperFunction*
G04 #@! TA.AperFunction,SMDPad,CuDef*
G36*
G01*
X101390000Y-82975000D02*
X101390000Y-82200000D01*
G75*
G02*
X101440000Y-82150000I50000J0D01*
G01*
X101540000Y-82150000D01*
G75*
G02*
X101590000Y-82200000I0J-50000D01*
G01*
X101590000Y-82975000D01*
G75*
G02*
X101540000Y-83025000I-50000J0D01*
G01*
X101440000Y-83025000D01*
G75*
G02*
X101390000Y-82975000I0J50000D01*
G01*
G37*
G04 #@! TD.AperFunction*
G04 #@! TA.AperFunction,SMDPad,CuDef*
G36*
G01*
X101790000Y-82975000D02*
X101790000Y-82200000D01*
G75*
G02*
X101840000Y-82150000I50000J0D01*
G01*
X101940000Y-82150000D01*
G75*
G02*
X101990000Y-82200000I0J-50000D01*
G01*
X101990000Y-82975000D01*
G75*
G02*
X101940000Y-83025000I-50000J0D01*
G01*
X101840000Y-83025000D01*
G75*
G02*
X101790000Y-82975000I0J50000D01*
G01*
G37*
G04 #@! TD.AperFunction*
G04 #@! TA.AperFunction,SMDPad,CuDef*
G36*
G01*
X102190000Y-82975000D02*
X102190000Y-82200000D01*
G75*
G02*
X102240000Y-82150000I50000J0D01*
G01*
X102340000Y-82150000D01*
G75*
G02*
X102390000Y-82200000I0J-50000D01*
G01*
X102390000Y-82975000D01*
G75*
G02*
X102340000Y-83025000I-50000J0D01*
G01*
X102240000Y-83025000D01*
G75*
G02*
X102190000Y-82975000I0J50000D01*
G01*
G37*
G04 #@! TD.AperFunction*
G04 #@! TA.AperFunction,SMDPad,CuDef*
G36*
G01*
X102590000Y-82975000D02*
X102590000Y-82200000D01*
G75*
G02*
X102640000Y-82150000I50000J0D01*
G01*
X102740000Y-82150000D01*
G75*
G02*
X102790000Y-82200000I0J-50000D01*
G01*
X102790000Y-82975000D01*
G75*
G02*
X102740000Y-83025000I-50000J0D01*
G01*
X102640000Y-83025000D01*
G75*
G02*
X102590000Y-82975000I0J50000D01*
G01*
G37*
G04 #@! TD.AperFunction*
G04 #@! TA.AperFunction,SMDPad,CuDef*
G36*
G01*
X102990000Y-82975000D02*
X102990000Y-82200000D01*
G75*
G02*
X103040000Y-82150000I50000J0D01*
G01*
X103140000Y-82150000D01*
G75*
G02*
X103190000Y-82200000I0J-50000D01*
G01*
X103190000Y-82975000D01*
G75*
G02*
X103140000Y-83025000I-50000J0D01*
G01*
X103040000Y-83025000D01*
G75*
G02*
X102990000Y-82975000I0J50000D01*
G01*
G37*
G04 #@! TD.AperFunction*
G04 #@! TA.AperFunction,SMDPad,CuDef*
G36*
G01*
X103390000Y-82975000D02*
X103390000Y-82200000D01*
G75*
G02*
X103440000Y-82150000I50000J0D01*
G01*
X103540000Y-82150000D01*
G75*
G02*
X103590000Y-82200000I0J-50000D01*
G01*
X103590000Y-82975000D01*
G75*
G02*
X103540000Y-83025000I-50000J0D01*
G01*
X103440000Y-83025000D01*
G75*
G02*
X103390000Y-82975000I0J50000D01*
G01*
G37*
G04 #@! TD.AperFunction*
G04 #@! TA.AperFunction,SMDPad,CuDef*
G36*
G01*
X103790000Y-82975000D02*
X103790000Y-82200000D01*
G75*
G02*
X103840000Y-82150000I50000J0D01*
G01*
X103940000Y-82150000D01*
G75*
G02*
X103990000Y-82200000I0J-50000D01*
G01*
X103990000Y-82975000D01*
G75*
G02*
X103940000Y-83025000I-50000J0D01*
G01*
X103840000Y-83025000D01*
G75*
G02*
X103790000Y-82975000I0J50000D01*
G01*
G37*
G04 #@! TD.AperFunction*
G04 #@! TA.AperFunction,SMDPad,CuDef*
G36*
G01*
X104190000Y-82975000D02*
X104190000Y-82200000D01*
G75*
G02*
X104240000Y-82150000I50000J0D01*
G01*
X104340000Y-82150000D01*
G75*
G02*
X104390000Y-82200000I0J-50000D01*
G01*
X104390000Y-82975000D01*
G75*
G02*
X104340000Y-83025000I-50000J0D01*
G01*
X104240000Y-83025000D01*
G75*
G02*
X104190000Y-82975000I0J50000D01*
G01*
G37*
G04 #@! TD.AperFunction*
G04 #@! TA.AperFunction,SMDPad,CuDef*
G36*
G01*
X104590000Y-82975000D02*
X104590000Y-82200000D01*
G75*
G02*
X104640000Y-82150000I50000J0D01*
G01*
X104740000Y-82150000D01*
G75*
G02*
X104790000Y-82200000I0J-50000D01*
G01*
X104790000Y-82975000D01*
G75*
G02*
X104740000Y-83025000I-50000J0D01*
G01*
X104640000Y-83025000D01*
G75*
G02*
X104590000Y-82975000I0J50000D01*
G01*
G37*
G04 #@! TD.AperFunction*
G04 #@! TA.AperFunction,SMDPad,CuDef*
G36*
G01*
X104990000Y-82975000D02*
X104990000Y-82200000D01*
G75*
G02*
X105040000Y-82150000I50000J0D01*
G01*
X105140000Y-82150000D01*
G75*
G02*
X105190000Y-82200000I0J-50000D01*
G01*
X105190000Y-82975000D01*
G75*
G02*
X105140000Y-83025000I-50000J0D01*
G01*
X105040000Y-83025000D01*
G75*
G02*
X104990000Y-82975000I0J50000D01*
G01*
G37*
G04 #@! TD.AperFunction*
G04 #@! TA.AperFunction,SMDPad,CuDef*
G36*
G01*
X105390000Y-82975000D02*
X105390000Y-82200000D01*
G75*
G02*
X105440000Y-82150000I50000J0D01*
G01*
X105540000Y-82150000D01*
G75*
G02*
X105590000Y-82200000I0J-50000D01*
G01*
X105590000Y-82975000D01*
G75*
G02*
X105540000Y-83025000I-50000J0D01*
G01*
X105440000Y-83025000D01*
G75*
G02*
X105390000Y-82975000I0J50000D01*
G01*
G37*
G04 #@! TD.AperFunction*
G04 #@! TA.AperFunction,SMDPad,CuDef*
G36*
G01*
X105790000Y-82975000D02*
X105790000Y-82200000D01*
G75*
G02*
X105840000Y-82150000I50000J0D01*
G01*
X105940000Y-82150000D01*
G75*
G02*
X105990000Y-82200000I0J-50000D01*
G01*
X105990000Y-82975000D01*
G75*
G02*
X105940000Y-83025000I-50000J0D01*
G01*
X105840000Y-83025000D01*
G75*
G02*
X105790000Y-82975000I0J50000D01*
G01*
G37*
G04 #@! TD.AperFunction*
G04 #@! TA.AperFunction,SMDPad,CuDef*
G36*
G01*
X106190000Y-82975000D02*
X106190000Y-82200000D01*
G75*
G02*
X106240000Y-82150000I50000J0D01*
G01*
X106340000Y-82150000D01*
G75*
G02*
X106390000Y-82200000I0J-50000D01*
G01*
X106390000Y-82975000D01*
G75*
G02*
X106340000Y-83025000I-50000J0D01*
G01*
X106240000Y-83025000D01*
G75*
G02*
X106190000Y-82975000I0J50000D01*
G01*
G37*
G04 #@! TD.AperFunction*
G04 #@! TA.AperFunction,SMDPad,CuDef*
G36*
G01*
X106690000Y-83475000D02*
X106690000Y-83375000D01*
G75*
G02*
X106740000Y-83325000I50000J0D01*
G01*
X107515000Y-83325000D01*
G75*
G02*
X107565000Y-83375000I0J-50000D01*
G01*
X107565000Y-83475000D01*
G75*
G02*
X107515000Y-83525000I-50000J0D01*
G01*
X106740000Y-83525000D01*
G75*
G02*
X106690000Y-83475000I0J50000D01*
G01*
G37*
G04 #@! TD.AperFunction*
G04 #@! TA.AperFunction,SMDPad,CuDef*
G36*
G01*
X106690000Y-83875000D02*
X106690000Y-83775000D01*
G75*
G02*
X106740000Y-83725000I50000J0D01*
G01*
X107515000Y-83725000D01*
G75*
G02*
X107565000Y-83775000I0J-50000D01*
G01*
X107565000Y-83875000D01*
G75*
G02*
X107515000Y-83925000I-50000J0D01*
G01*
X106740000Y-83925000D01*
G75*
G02*
X106690000Y-83875000I0J50000D01*
G01*
G37*
G04 #@! TD.AperFunction*
G04 #@! TA.AperFunction,SMDPad,CuDef*
G36*
G01*
X106690000Y-84275000D02*
X106690000Y-84175000D01*
G75*
G02*
X106740000Y-84125000I50000J0D01*
G01*
X107515000Y-84125000D01*
G75*
G02*
X107565000Y-84175000I0J-50000D01*
G01*
X107565000Y-84275000D01*
G75*
G02*
X107515000Y-84325000I-50000J0D01*
G01*
X106740000Y-84325000D01*
G75*
G02*
X106690000Y-84275000I0J50000D01*
G01*
G37*
G04 #@! TD.AperFunction*
G04 #@! TA.AperFunction,SMDPad,CuDef*
G36*
G01*
X106690000Y-84675000D02*
X106690000Y-84575000D01*
G75*
G02*
X106740000Y-84525000I50000J0D01*
G01*
X107515000Y-84525000D01*
G75*
G02*
X107565000Y-84575000I0J-50000D01*
G01*
X107565000Y-84675000D01*
G75*
G02*
X107515000Y-84725000I-50000J0D01*
G01*
X106740000Y-84725000D01*
G75*
G02*
X106690000Y-84675000I0J50000D01*
G01*
G37*
G04 #@! TD.AperFunction*
G04 #@! TA.AperFunction,SMDPad,CuDef*
G36*
G01*
X106690000Y-85075000D02*
X106690000Y-84975000D01*
G75*
G02*
X106740000Y-84925000I50000J0D01*
G01*
X107515000Y-84925000D01*
G75*
G02*
X107565000Y-84975000I0J-50000D01*
G01*
X107565000Y-85075000D01*
G75*
G02*
X107515000Y-85125000I-50000J0D01*
G01*
X106740000Y-85125000D01*
G75*
G02*
X106690000Y-85075000I0J50000D01*
G01*
G37*
G04 #@! TD.AperFunction*
G04 #@! TA.AperFunction,SMDPad,CuDef*
G36*
G01*
X106690000Y-85475000D02*
X106690000Y-85375000D01*
G75*
G02*
X106740000Y-85325000I50000J0D01*
G01*
X107515000Y-85325000D01*
G75*
G02*
X107565000Y-85375000I0J-50000D01*
G01*
X107565000Y-85475000D01*
G75*
G02*
X107515000Y-85525000I-50000J0D01*
G01*
X106740000Y-85525000D01*
G75*
G02*
X106690000Y-85475000I0J50000D01*
G01*
G37*
G04 #@! TD.AperFunction*
G04 #@! TA.AperFunction,SMDPad,CuDef*
G36*
G01*
X106690000Y-85875000D02*
X106690000Y-85775000D01*
G75*
G02*
X106740000Y-85725000I50000J0D01*
G01*
X107515000Y-85725000D01*
G75*
G02*
X107565000Y-85775000I0J-50000D01*
G01*
X107565000Y-85875000D01*
G75*
G02*
X107515000Y-85925000I-50000J0D01*
G01*
X106740000Y-85925000D01*
G75*
G02*
X106690000Y-85875000I0J50000D01*
G01*
G37*
G04 #@! TD.AperFunction*
G04 #@! TA.AperFunction,SMDPad,CuDef*
G36*
G01*
X106690000Y-86275000D02*
X106690000Y-86175000D01*
G75*
G02*
X106740000Y-86125000I50000J0D01*
G01*
X107515000Y-86125000D01*
G75*
G02*
X107565000Y-86175000I0J-50000D01*
G01*
X107565000Y-86275000D01*
G75*
G02*
X107515000Y-86325000I-50000J0D01*
G01*
X106740000Y-86325000D01*
G75*
G02*
X106690000Y-86275000I0J50000D01*
G01*
G37*
G04 #@! TD.AperFunction*
G04 #@! TA.AperFunction,SMDPad,CuDef*
G36*
G01*
X106690000Y-86675000D02*
X106690000Y-86575000D01*
G75*
G02*
X106740000Y-86525000I50000J0D01*
G01*
X107515000Y-86525000D01*
G75*
G02*
X107565000Y-86575000I0J-50000D01*
G01*
X107565000Y-86675000D01*
G75*
G02*
X107515000Y-86725000I-50000J0D01*
G01*
X106740000Y-86725000D01*
G75*
G02*
X106690000Y-86675000I0J50000D01*
G01*
G37*
G04 #@! TD.AperFunction*
G04 #@! TA.AperFunction,SMDPad,CuDef*
G36*
G01*
X106690000Y-87075000D02*
X106690000Y-86975000D01*
G75*
G02*
X106740000Y-86925000I50000J0D01*
G01*
X107515000Y-86925000D01*
G75*
G02*
X107565000Y-86975000I0J-50000D01*
G01*
X107565000Y-87075000D01*
G75*
G02*
X107515000Y-87125000I-50000J0D01*
G01*
X106740000Y-87125000D01*
G75*
G02*
X106690000Y-87075000I0J50000D01*
G01*
G37*
G04 #@! TD.AperFunction*
G04 #@! TA.AperFunction,SMDPad,CuDef*
G36*
G01*
X106690000Y-87475000D02*
X106690000Y-87375000D01*
G75*
G02*
X106740000Y-87325000I50000J0D01*
G01*
X107515000Y-87325000D01*
G75*
G02*
X107565000Y-87375000I0J-50000D01*
G01*
X107565000Y-87475000D01*
G75*
G02*
X107515000Y-87525000I-50000J0D01*
G01*
X106740000Y-87525000D01*
G75*
G02*
X106690000Y-87475000I0J50000D01*
G01*
G37*
G04 #@! TD.AperFunction*
G04 #@! TA.AperFunction,SMDPad,CuDef*
G36*
G01*
X106690000Y-87875000D02*
X106690000Y-87775000D01*
G75*
G02*
X106740000Y-87725000I50000J0D01*
G01*
X107515000Y-87725000D01*
G75*
G02*
X107565000Y-87775000I0J-50000D01*
G01*
X107565000Y-87875000D01*
G75*
G02*
X107515000Y-87925000I-50000J0D01*
G01*
X106740000Y-87925000D01*
G75*
G02*
X106690000Y-87875000I0J50000D01*
G01*
G37*
G04 #@! TD.AperFunction*
G04 #@! TA.AperFunction,SMDPad,CuDef*
G36*
G01*
X106690000Y-88275000D02*
X106690000Y-88175000D01*
G75*
G02*
X106740000Y-88125000I50000J0D01*
G01*
X107515000Y-88125000D01*
G75*
G02*
X107565000Y-88175000I0J-50000D01*
G01*
X107565000Y-88275000D01*
G75*
G02*
X107515000Y-88325000I-50000J0D01*
G01*
X106740000Y-88325000D01*
G75*
G02*
X106690000Y-88275000I0J50000D01*
G01*
G37*
G04 #@! TD.AperFunction*
G04 #@! TA.AperFunction,SMDPad,CuDef*
G36*
G01*
X106690000Y-88675000D02*
X106690000Y-88575000D01*
G75*
G02*
X106740000Y-88525000I50000J0D01*
G01*
X107515000Y-88525000D01*
G75*
G02*
X107565000Y-88575000I0J-50000D01*
G01*
X107565000Y-88675000D01*
G75*
G02*
X107515000Y-88725000I-50000J0D01*
G01*
X106740000Y-88725000D01*
G75*
G02*
X106690000Y-88675000I0J50000D01*
G01*
G37*
G04 #@! TD.AperFunction*
G04 #@! TA.AperFunction,SMDPad,CuDef*
G36*
G01*
X106190000Y-89850000D02*
X106190000Y-89075000D01*
G75*
G02*
X106240000Y-89025000I50000J0D01*
G01*
X106340000Y-89025000D01*
G75*
G02*
X106390000Y-89075000I0J-50000D01*
G01*
X106390000Y-89850000D01*
G75*
G02*
X106340000Y-89900000I-50000J0D01*
G01*
X106240000Y-89900000D01*
G75*
G02*
X106190000Y-89850000I0J50000D01*
G01*
G37*
G04 #@! TD.AperFunction*
G04 #@! TA.AperFunction,SMDPad,CuDef*
G36*
G01*
X105790000Y-89850000D02*
X105790000Y-89075000D01*
G75*
G02*
X105840000Y-89025000I50000J0D01*
G01*
X105940000Y-89025000D01*
G75*
G02*
X105990000Y-89075000I0J-50000D01*
G01*
X105990000Y-89850000D01*
G75*
G02*
X105940000Y-89900000I-50000J0D01*
G01*
X105840000Y-89900000D01*
G75*
G02*
X105790000Y-89850000I0J50000D01*
G01*
G37*
G04 #@! TD.AperFunction*
G04 #@! TA.AperFunction,SMDPad,CuDef*
G36*
G01*
X105390000Y-89850000D02*
X105390000Y-89075000D01*
G75*
G02*
X105440000Y-89025000I50000J0D01*
G01*
X105540000Y-89025000D01*
G75*
G02*
X105590000Y-89075000I0J-50000D01*
G01*
X105590000Y-89850000D01*
G75*
G02*
X105540000Y-89900000I-50000J0D01*
G01*
X105440000Y-89900000D01*
G75*
G02*
X105390000Y-89850000I0J50000D01*
G01*
G37*
G04 #@! TD.AperFunction*
G04 #@! TA.AperFunction,SMDPad,CuDef*
G36*
G01*
X104990000Y-89850000D02*
X104990000Y-89075000D01*
G75*
G02*
X105040000Y-89025000I50000J0D01*
G01*
X105140000Y-89025000D01*
G75*
G02*
X105190000Y-89075000I0J-50000D01*
G01*
X105190000Y-89850000D01*
G75*
G02*
X105140000Y-89900000I-50000J0D01*
G01*
X105040000Y-89900000D01*
G75*
G02*
X104990000Y-89850000I0J50000D01*
G01*
G37*
G04 #@! TD.AperFunction*
G04 #@! TA.AperFunction,SMDPad,CuDef*
G36*
G01*
X104590000Y-89850000D02*
X104590000Y-89075000D01*
G75*
G02*
X104640000Y-89025000I50000J0D01*
G01*
X104740000Y-89025000D01*
G75*
G02*
X104790000Y-89075000I0J-50000D01*
G01*
X104790000Y-89850000D01*
G75*
G02*
X104740000Y-89900000I-50000J0D01*
G01*
X104640000Y-89900000D01*
G75*
G02*
X104590000Y-89850000I0J50000D01*
G01*
G37*
G04 #@! TD.AperFunction*
G04 #@! TA.AperFunction,SMDPad,CuDef*
G36*
G01*
X104190000Y-89850000D02*
X104190000Y-89075000D01*
G75*
G02*
X104240000Y-89025000I50000J0D01*
G01*
X104340000Y-89025000D01*
G75*
G02*
X104390000Y-89075000I0J-50000D01*
G01*
X104390000Y-89850000D01*
G75*
G02*
X104340000Y-89900000I-50000J0D01*
G01*
X104240000Y-89900000D01*
G75*
G02*
X104190000Y-89850000I0J50000D01*
G01*
G37*
G04 #@! TD.AperFunction*
G04 #@! TA.AperFunction,SMDPad,CuDef*
G36*
G01*
X103790000Y-89850000D02*
X103790000Y-89075000D01*
G75*
G02*
X103840000Y-89025000I50000J0D01*
G01*
X103940000Y-89025000D01*
G75*
G02*
X103990000Y-89075000I0J-50000D01*
G01*
X103990000Y-89850000D01*
G75*
G02*
X103940000Y-89900000I-50000J0D01*
G01*
X103840000Y-89900000D01*
G75*
G02*
X103790000Y-89850000I0J50000D01*
G01*
G37*
G04 #@! TD.AperFunction*
G04 #@! TA.AperFunction,SMDPad,CuDef*
G36*
G01*
X103390000Y-89850000D02*
X103390000Y-89075000D01*
G75*
G02*
X103440000Y-89025000I50000J0D01*
G01*
X103540000Y-89025000D01*
G75*
G02*
X103590000Y-89075000I0J-50000D01*
G01*
X103590000Y-89850000D01*
G75*
G02*
X103540000Y-89900000I-50000J0D01*
G01*
X103440000Y-89900000D01*
G75*
G02*
X103390000Y-89850000I0J50000D01*
G01*
G37*
G04 #@! TD.AperFunction*
G04 #@! TA.AperFunction,SMDPad,CuDef*
G36*
G01*
X102990000Y-89850000D02*
X102990000Y-89075000D01*
G75*
G02*
X103040000Y-89025000I50000J0D01*
G01*
X103140000Y-89025000D01*
G75*
G02*
X103190000Y-89075000I0J-50000D01*
G01*
X103190000Y-89850000D01*
G75*
G02*
X103140000Y-89900000I-50000J0D01*
G01*
X103040000Y-89900000D01*
G75*
G02*
X102990000Y-89850000I0J50000D01*
G01*
G37*
G04 #@! TD.AperFunction*
G04 #@! TA.AperFunction,SMDPad,CuDef*
G36*
G01*
X102590000Y-89850000D02*
X102590000Y-89075000D01*
G75*
G02*
X102640000Y-89025000I50000J0D01*
G01*
X102740000Y-89025000D01*
G75*
G02*
X102790000Y-89075000I0J-50000D01*
G01*
X102790000Y-89850000D01*
G75*
G02*
X102740000Y-89900000I-50000J0D01*
G01*
X102640000Y-89900000D01*
G75*
G02*
X102590000Y-89850000I0J50000D01*
G01*
G37*
G04 #@! TD.AperFunction*
G04 #@! TA.AperFunction,SMDPad,CuDef*
G36*
G01*
X102190000Y-89850000D02*
X102190000Y-89075000D01*
G75*
G02*
X102240000Y-89025000I50000J0D01*
G01*
X102340000Y-89025000D01*
G75*
G02*
X102390000Y-89075000I0J-50000D01*
G01*
X102390000Y-89850000D01*
G75*
G02*
X102340000Y-89900000I-50000J0D01*
G01*
X102240000Y-89900000D01*
G75*
G02*
X102190000Y-89850000I0J50000D01*
G01*
G37*
G04 #@! TD.AperFunction*
G04 #@! TA.AperFunction,SMDPad,CuDef*
G36*
G01*
X101790000Y-89850000D02*
X101790000Y-89075000D01*
G75*
G02*
X101840000Y-89025000I50000J0D01*
G01*
X101940000Y-89025000D01*
G75*
G02*
X101990000Y-89075000I0J-50000D01*
G01*
X101990000Y-89850000D01*
G75*
G02*
X101940000Y-89900000I-50000J0D01*
G01*
X101840000Y-89900000D01*
G75*
G02*
X101790000Y-89850000I0J50000D01*
G01*
G37*
G04 #@! TD.AperFunction*
G04 #@! TA.AperFunction,SMDPad,CuDef*
G36*
G01*
X101390000Y-89850000D02*
X101390000Y-89075000D01*
G75*
G02*
X101440000Y-89025000I50000J0D01*
G01*
X101540000Y-89025000D01*
G75*
G02*
X101590000Y-89075000I0J-50000D01*
G01*
X101590000Y-89850000D01*
G75*
G02*
X101540000Y-89900000I-50000J0D01*
G01*
X101440000Y-89900000D01*
G75*
G02*
X101390000Y-89850000I0J50000D01*
G01*
G37*
G04 #@! TD.AperFunction*
G04 #@! TA.AperFunction,SMDPad,CuDef*
G36*
G01*
X100990000Y-89850000D02*
X100990000Y-89075000D01*
G75*
G02*
X101040000Y-89025000I50000J0D01*
G01*
X101140000Y-89025000D01*
G75*
G02*
X101190000Y-89075000I0J-50000D01*
G01*
X101190000Y-89850000D01*
G75*
G02*
X101140000Y-89900000I-50000J0D01*
G01*
X101040000Y-89900000D01*
G75*
G02*
X100990000Y-89850000I0J50000D01*
G01*
G37*
G04 #@! TD.AperFunction*
G04 #@! TA.AperFunction,SMDPad,CuDef*
G36*
G01*
X99815000Y-88675000D02*
X99815000Y-88575000D01*
G75*
G02*
X99865000Y-88525000I50000J0D01*
G01*
X100640000Y-88525000D01*
G75*
G02*
X100690000Y-88575000I0J-50000D01*
G01*
X100690000Y-88675000D01*
G75*
G02*
X100640000Y-88725000I-50000J0D01*
G01*
X99865000Y-88725000D01*
G75*
G02*
X99815000Y-88675000I0J50000D01*
G01*
G37*
G04 #@! TD.AperFunction*
G04 #@! TA.AperFunction,SMDPad,CuDef*
G36*
G01*
X99815000Y-88275000D02*
X99815000Y-88175000D01*
G75*
G02*
X99865000Y-88125000I50000J0D01*
G01*
X100640000Y-88125000D01*
G75*
G02*
X100690000Y-88175000I0J-50000D01*
G01*
X100690000Y-88275000D01*
G75*
G02*
X100640000Y-88325000I-50000J0D01*
G01*
X99865000Y-88325000D01*
G75*
G02*
X99815000Y-88275000I0J50000D01*
G01*
G37*
G04 #@! TD.AperFunction*
G04 #@! TA.AperFunction,SMDPad,CuDef*
G36*
G01*
X99815000Y-87875000D02*
X99815000Y-87775000D01*
G75*
G02*
X99865000Y-87725000I50000J0D01*
G01*
X100640000Y-87725000D01*
G75*
G02*
X100690000Y-87775000I0J-50000D01*
G01*
X100690000Y-87875000D01*
G75*
G02*
X100640000Y-87925000I-50000J0D01*
G01*
X99865000Y-87925000D01*
G75*
G02*
X99815000Y-87875000I0J50000D01*
G01*
G37*
G04 #@! TD.AperFunction*
G04 #@! TA.AperFunction,SMDPad,CuDef*
G36*
G01*
X99815000Y-87475000D02*
X99815000Y-87375000D01*
G75*
G02*
X99865000Y-87325000I50000J0D01*
G01*
X100640000Y-87325000D01*
G75*
G02*
X100690000Y-87375000I0J-50000D01*
G01*
X100690000Y-87475000D01*
G75*
G02*
X100640000Y-87525000I-50000J0D01*
G01*
X99865000Y-87525000D01*
G75*
G02*
X99815000Y-87475000I0J50000D01*
G01*
G37*
G04 #@! TD.AperFunction*
G04 #@! TA.AperFunction,SMDPad,CuDef*
G36*
G01*
X99815000Y-87075000D02*
X99815000Y-86975000D01*
G75*
G02*
X99865000Y-86925000I50000J0D01*
G01*
X100640000Y-86925000D01*
G75*
G02*
X100690000Y-86975000I0J-50000D01*
G01*
X100690000Y-87075000D01*
G75*
G02*
X100640000Y-87125000I-50000J0D01*
G01*
X99865000Y-87125000D01*
G75*
G02*
X99815000Y-87075000I0J50000D01*
G01*
G37*
G04 #@! TD.AperFunction*
G04 #@! TA.AperFunction,SMDPad,CuDef*
G36*
G01*
X99815000Y-86675000D02*
X99815000Y-86575000D01*
G75*
G02*
X99865000Y-86525000I50000J0D01*
G01*
X100640000Y-86525000D01*
G75*
G02*
X100690000Y-86575000I0J-50000D01*
G01*
X100690000Y-86675000D01*
G75*
G02*
X100640000Y-86725000I-50000J0D01*
G01*
X99865000Y-86725000D01*
G75*
G02*
X99815000Y-86675000I0J50000D01*
G01*
G37*
G04 #@! TD.AperFunction*
G04 #@! TA.AperFunction,SMDPad,CuDef*
G36*
G01*
X99815000Y-86275000D02*
X99815000Y-86175000D01*
G75*
G02*
X99865000Y-86125000I50000J0D01*
G01*
X100640000Y-86125000D01*
G75*
G02*
X100690000Y-86175000I0J-50000D01*
G01*
X100690000Y-86275000D01*
G75*
G02*
X100640000Y-86325000I-50000J0D01*
G01*
X99865000Y-86325000D01*
G75*
G02*
X99815000Y-86275000I0J50000D01*
G01*
G37*
G04 #@! TD.AperFunction*
G04 #@! TA.AperFunction,SMDPad,CuDef*
G36*
G01*
X99815000Y-85875000D02*
X99815000Y-85775000D01*
G75*
G02*
X99865000Y-85725000I50000J0D01*
G01*
X100640000Y-85725000D01*
G75*
G02*
X100690000Y-85775000I0J-50000D01*
G01*
X100690000Y-85875000D01*
G75*
G02*
X100640000Y-85925000I-50000J0D01*
G01*
X99865000Y-85925000D01*
G75*
G02*
X99815000Y-85875000I0J50000D01*
G01*
G37*
G04 #@! TD.AperFunction*
G04 #@! TA.AperFunction,SMDPad,CuDef*
G36*
G01*
X99815000Y-85475000D02*
X99815000Y-85375000D01*
G75*
G02*
X99865000Y-85325000I50000J0D01*
G01*
X100640000Y-85325000D01*
G75*
G02*
X100690000Y-85375000I0J-50000D01*
G01*
X100690000Y-85475000D01*
G75*
G02*
X100640000Y-85525000I-50000J0D01*
G01*
X99865000Y-85525000D01*
G75*
G02*
X99815000Y-85475000I0J50000D01*
G01*
G37*
G04 #@! TD.AperFunction*
G04 #@! TA.AperFunction,SMDPad,CuDef*
G36*
G01*
X99815000Y-85075000D02*
X99815000Y-84975000D01*
G75*
G02*
X99865000Y-84925000I50000J0D01*
G01*
X100640000Y-84925000D01*
G75*
G02*
X100690000Y-84975000I0J-50000D01*
G01*
X100690000Y-85075000D01*
G75*
G02*
X100640000Y-85125000I-50000J0D01*
G01*
X99865000Y-85125000D01*
G75*
G02*
X99815000Y-85075000I0J50000D01*
G01*
G37*
G04 #@! TD.AperFunction*
G04 #@! TA.AperFunction,SMDPad,CuDef*
G36*
G01*
X99815000Y-84675000D02*
X99815000Y-84575000D01*
G75*
G02*
X99865000Y-84525000I50000J0D01*
G01*
X100640000Y-84525000D01*
G75*
G02*
X100690000Y-84575000I0J-50000D01*
G01*
X100690000Y-84675000D01*
G75*
G02*
X100640000Y-84725000I-50000J0D01*
G01*
X99865000Y-84725000D01*
G75*
G02*
X99815000Y-84675000I0J50000D01*
G01*
G37*
G04 #@! TD.AperFunction*
G04 #@! TA.AperFunction,SMDPad,CuDef*
G36*
G01*
X99815000Y-84275000D02*
X99815000Y-84175000D01*
G75*
G02*
X99865000Y-84125000I50000J0D01*
G01*
X100640000Y-84125000D01*
G75*
G02*
X100690000Y-84175000I0J-50000D01*
G01*
X100690000Y-84275000D01*
G75*
G02*
X100640000Y-84325000I-50000J0D01*
G01*
X99865000Y-84325000D01*
G75*
G02*
X99815000Y-84275000I0J50000D01*
G01*
G37*
G04 #@! TD.AperFunction*
G04 #@! TA.AperFunction,SMDPad,CuDef*
G36*
G01*
X99815000Y-83875000D02*
X99815000Y-83775000D01*
G75*
G02*
X99865000Y-83725000I50000J0D01*
G01*
X100640000Y-83725000D01*
G75*
G02*
X100690000Y-83775000I0J-50000D01*
G01*
X100690000Y-83875000D01*
G75*
G02*
X100640000Y-83925000I-50000J0D01*
G01*
X99865000Y-83925000D01*
G75*
G02*
X99815000Y-83875000I0J50000D01*
G01*
G37*
G04 #@! TD.AperFunction*
G04 #@! TA.AperFunction,SMDPad,CuDef*
G36*
G01*
X99815000Y-83475000D02*
X99815000Y-83375000D01*
G75*
G02*
X99865000Y-83325000I50000J0D01*
G01*
X100640000Y-83325000D01*
G75*
G02*
X100690000Y-83375000I0J-50000D01*
G01*
X100690000Y-83475000D01*
G75*
G02*
X100640000Y-83525000I-50000J0D01*
G01*
X99865000Y-83525000D01*
G75*
G02*
X99815000Y-83475000I0J50000D01*
G01*
G37*
G04 #@! TD.AperFunction*
D23*
X104965000Y-87300000D03*
X103690000Y-87300000D03*
X102415000Y-87300000D03*
X104965000Y-86025000D03*
X103690000Y-86025000D03*
X102415000Y-86025000D03*
X104965000Y-84750000D03*
X103690000Y-84750000D03*
X102415000Y-84750000D03*
G04 #@! TA.AperFunction,SMDPad,CuDef*
G36*
G01*
X102090000Y-87481000D02*
X102090000Y-84569000D01*
G75*
G02*
X102234000Y-84425000I144000J0D01*
G01*
X105146000Y-84425000D01*
G75*
G02*
X105290000Y-84569000I0J-144000D01*
G01*
X105290000Y-87481000D01*
G75*
G02*
X105146000Y-87625000I-144000J0D01*
G01*
X102234000Y-87625000D01*
G75*
G02*
X102090000Y-87481000I0J144000D01*
G01*
G37*
G04 #@! TD.AperFunction*
D12*
X106230000Y-106925000D03*
X103690000Y-106925000D03*
D13*
X101150000Y-106925000D03*
D24*
X110200000Y-64975000D03*
X110100000Y-87175000D03*
X108500000Y-90125000D03*
X105500000Y-104625000D03*
X96450000Y-61925000D03*
X96600000Y-87325000D03*
X100375006Y-65950006D03*
X97291928Y-84725000D03*
X101850000Y-92100000D03*
X108800000Y-93175000D03*
X104850000Y-93700000D03*
X100375000Y-64620000D03*
X100200000Y-89575000D03*
X97725000Y-81875000D03*
X110300000Y-70525000D03*
X106250000Y-80655000D03*
X105680000Y-66535000D03*
X105050000Y-71085000D03*
X110390000Y-84545000D03*
X103600000Y-66105000D03*
X102110000Y-78545000D03*
X101660000Y-73145000D03*
X103490000Y-62915000D03*
D25*
X106280000Y-70515000D03*
D24*
X108810000Y-68575000D03*
X103700000Y-93525000D03*
X98700000Y-92925000D03*
X110400000Y-73325000D03*
X100425000Y-74500000D03*
X105570000Y-74500002D03*
X105065000Y-83725000D03*
X104340000Y-88125000D03*
X104284269Y-90880277D03*
X106925000Y-81350000D03*
X103260000Y-81155000D03*
X96700000Y-85335000D03*
X97816938Y-85719993D03*
X98410926Y-85262067D03*
X98660000Y-84525000D03*
X107600000Y-92225000D03*
X99730000Y-71140000D03*
X100262500Y-82362500D03*
D25*
X102850000Y-64650000D03*
X103860000Y-64650000D03*
X103350000Y-64650000D03*
X104360000Y-64650000D03*
D24*
X109650000Y-85425000D03*
X97900000Y-64650000D03*
X104550000Y-62575000D03*
X102040000Y-66185000D03*
X107789946Y-68575000D03*
D26*
X110100000Y-87025000D02*
X109280000Y-87025000D01*
X104000000Y-92699998D02*
X104500002Y-93200000D01*
X105200000Y-92455000D02*
X105200000Y-92700002D01*
X105000000Y-92700002D02*
X104500002Y-93200000D01*
X112590000Y-89205000D02*
X112568000Y-89205000D01*
X112568000Y-89205000D02*
X110882000Y-87519000D01*
X99625001Y-59575000D02*
X99575001Y-59525000D01*
D27*
X100375000Y-64620000D02*
X100375000Y-64620000D01*
D26*
X96860000Y-87585000D02*
X96600000Y-87325000D01*
X97410000Y-87585000D02*
X96860000Y-87585000D01*
X96000000Y-82525000D02*
X96000000Y-83008808D01*
X97291928Y-84300736D02*
X97291928Y-84725000D01*
X96000000Y-83008808D02*
X97291928Y-84300736D01*
X102690000Y-90185736D02*
X101850000Y-91025736D01*
X102690000Y-89462500D02*
X102690000Y-90185736D01*
X101850000Y-91025736D02*
X101850000Y-92100000D01*
X104500002Y-93200000D02*
X104850000Y-93549998D01*
X104850000Y-93549998D02*
X104850000Y-93700000D01*
D27*
X100375000Y-64620000D02*
X100375000Y-65950000D01*
D26*
X98120000Y-82650000D02*
X98120000Y-82270000D01*
X98120000Y-82270000D02*
X97725000Y-81875000D01*
X110300000Y-70525000D02*
X108780000Y-70525000D01*
X107075000Y-71025000D02*
X107575000Y-70525000D01*
X106370000Y-71025000D02*
X107075000Y-71025000D01*
X108780000Y-70525000D02*
X107575000Y-70525000D01*
X107075000Y-70025000D02*
X106370000Y-70025000D01*
X107575000Y-70525000D02*
X107075000Y-70025000D01*
D28*
X106900000Y-64695000D02*
X106825000Y-64620000D01*
X106900000Y-67825000D02*
X106900000Y-64695000D01*
X105450000Y-69800000D02*
X105450000Y-69275000D01*
X105450000Y-69275000D02*
X106900000Y-67825000D01*
X105675000Y-70025000D02*
X105450000Y-69800000D01*
X106370000Y-70025000D02*
X105675000Y-70025000D01*
D26*
X100800000Y-67015000D02*
X100715000Y-67015000D01*
X100375006Y-66675006D02*
X100375006Y-65950006D01*
X100715000Y-67015000D02*
X100375006Y-66675006D01*
X100990000Y-68185000D02*
X100970000Y-68205000D01*
X100990000Y-67185000D02*
X100990000Y-68185000D01*
X100970000Y-67165000D02*
X100990000Y-67185000D01*
X100865000Y-67165000D02*
X100715000Y-67015000D01*
X100970000Y-67165000D02*
X100865000Y-67165000D01*
X107252000Y-79317000D02*
X107250000Y-79315000D01*
X108233000Y-79317000D02*
X107252000Y-79317000D01*
X106250000Y-80315000D02*
X106250000Y-80655000D01*
X107250000Y-79315000D02*
X106250000Y-80315000D01*
X112590000Y-58725000D02*
X112590000Y-59435000D01*
X106050000Y-64620000D02*
X106050000Y-63925000D01*
D27*
X105350000Y-63225000D02*
X105350000Y-61725000D01*
X106050000Y-63925000D02*
X105350000Y-63225000D01*
X103557998Y-61324998D02*
X104949998Y-61324998D01*
X104949998Y-61324998D02*
X105350000Y-61725000D01*
D26*
X108810000Y-69495000D02*
X108780000Y-69525000D01*
X108810000Y-68575000D02*
X108810000Y-68575000D01*
D28*
X102807998Y-61324998D02*
X103557998Y-61324998D01*
X101450000Y-62682996D02*
X102807998Y-61324998D01*
X101450000Y-63432996D02*
X101450000Y-62682996D01*
X101150000Y-63732996D02*
X101450000Y-63432996D01*
X101150000Y-64620000D02*
X101150000Y-63732996D01*
D29*
X110140000Y-63675000D02*
X112550000Y-61265000D01*
X109600000Y-63675000D02*
X110140000Y-63675000D01*
X109130000Y-66235020D02*
X109130000Y-64145000D01*
X109130000Y-64145000D02*
X109600000Y-63675000D01*
X108970010Y-66395010D02*
X109130000Y-66235020D01*
D27*
X105822500Y-62197500D02*
X109600000Y-62197500D01*
X104949998Y-61324998D02*
X105822500Y-62197500D01*
X112530000Y-59035000D02*
X112530000Y-58725000D01*
X109600000Y-61965000D02*
X112530000Y-59035000D01*
X109600000Y-62197500D02*
X109600000Y-61965000D01*
D26*
X108810000Y-68575000D02*
X108810000Y-69495000D01*
X103090000Y-90235000D02*
X103090000Y-89462500D01*
X102700000Y-90625000D02*
X103090000Y-90235000D01*
X101875000Y-93275000D02*
X102700000Y-92450000D01*
X100800000Y-93275000D02*
X101875000Y-93275000D01*
X100416000Y-93659000D02*
X100800000Y-93275000D01*
X102700000Y-92450000D02*
X102700000Y-90625000D01*
X100416000Y-95341000D02*
X100416000Y-93659000D01*
D30*
X100252500Y-87025000D02*
X101015000Y-87025000D01*
X107127500Y-87025000D02*
X105940000Y-87025000D01*
X103915000Y-88725000D02*
X105318000Y-88725000D01*
X103915000Y-88725000D02*
X102828000Y-88725000D01*
X103890000Y-88750000D02*
X103915000Y-88725000D01*
X103890000Y-89462500D02*
X103890000Y-88750000D01*
D26*
X108320000Y-87025000D02*
X107127500Y-87025000D01*
X100252500Y-83425000D02*
X101025000Y-83425000D01*
X100252500Y-83425000D02*
X100252500Y-83252500D01*
X100252500Y-83252500D02*
X100112500Y-83112500D01*
X100112500Y-83112500D02*
X100050000Y-83050000D01*
X99725000Y-82725000D02*
X99155000Y-82725000D01*
X99155000Y-82725000D02*
X99080000Y-82650000D01*
X100112500Y-83112500D02*
X99725000Y-82725000D01*
X103700000Y-93525000D02*
X103700000Y-93525000D01*
X98225000Y-95350000D02*
X98225000Y-93952000D01*
X98930000Y-87025000D02*
X98370000Y-87585000D01*
X100252500Y-87025000D02*
X98930000Y-87025000D01*
X103050000Y-92875000D02*
X103700000Y-93525000D01*
X103050000Y-91900000D02*
X103050000Y-92875000D01*
X103750000Y-91695000D02*
X103255000Y-91695000D01*
X103255000Y-91695000D02*
X103050000Y-91900000D01*
X103759267Y-91685733D02*
X103750000Y-91695000D01*
X103759267Y-90628275D02*
X103759267Y-91685733D01*
X103890000Y-90497542D02*
X103759267Y-90628275D01*
X103890000Y-89462500D02*
X103890000Y-90497542D01*
X98245000Y-94150000D02*
X98245000Y-93380000D01*
X98245000Y-93380000D02*
X98700000Y-92925000D01*
X98975742Y-74724980D02*
X100200020Y-74724980D01*
X98300000Y-75400722D02*
X98975742Y-74724980D01*
X100200020Y-74724980D02*
X100425000Y-74500000D01*
X98300000Y-75937500D02*
X98300000Y-75400722D01*
X100425000Y-74500000D02*
X100425000Y-74500000D01*
X108780000Y-71705000D02*
X110400000Y-73325000D01*
X108780000Y-71525000D02*
X108780000Y-71705000D01*
X106370000Y-71525000D02*
X108170000Y-73325000D01*
X108170000Y-73325000D02*
X110400000Y-73325000D01*
X100425000Y-72970000D02*
X99655000Y-72200000D01*
X100425000Y-74500000D02*
X100425000Y-72970000D01*
D28*
X99985000Y-74500000D02*
X99550000Y-74065000D01*
X100425000Y-74500000D02*
X99985000Y-74500000D01*
X103890000Y-80765000D02*
X103410000Y-80285000D01*
X103890000Y-82587500D02*
X103890000Y-80765000D01*
D26*
X105570000Y-71770000D02*
X105570000Y-74500002D01*
X106370000Y-71525000D02*
X105815000Y-71525000D01*
X105815000Y-71525000D02*
X105570000Y-71770000D01*
X106673750Y-82971250D02*
X107043750Y-82971250D01*
X106290000Y-82587500D02*
X106673750Y-82971250D01*
X106673750Y-82971250D02*
X107127500Y-83425000D01*
X108233000Y-81782000D02*
X108233000Y-80277000D01*
X107043750Y-82971250D02*
X108233000Y-81782000D01*
X108233000Y-81782000D02*
X109063000Y-81782000D01*
X109063000Y-81782000D02*
X110280000Y-80565000D01*
X110280000Y-77035000D02*
X107280000Y-74035000D01*
X110280000Y-80565000D02*
X110280000Y-77035000D01*
X110280000Y-73445000D02*
X110400000Y-73325000D01*
X110280000Y-77035000D02*
X110280000Y-73445000D01*
D30*
X104290000Y-89462500D02*
X104290000Y-90874546D01*
D26*
X105000000Y-91695000D02*
X105000000Y-91596008D01*
D30*
X105000000Y-91596008D02*
X104284269Y-90880277D01*
D26*
X104290000Y-90874546D02*
X104284269Y-90880277D01*
X106930000Y-81355000D02*
X106925000Y-81350000D01*
D30*
X106600000Y-81675000D02*
X106925000Y-81350000D01*
X105675000Y-81675000D02*
X106600000Y-81675000D01*
X105490000Y-81860000D02*
X105675000Y-81675000D01*
X105490000Y-82587500D02*
X105490000Y-81860000D01*
D26*
X107250000Y-80405000D02*
X107225000Y-80380000D01*
X107250000Y-80950000D02*
X107250000Y-80405000D01*
X106925000Y-81275000D02*
X107250000Y-80950000D01*
X106925000Y-81350000D02*
X106925000Y-81275000D01*
X102600000Y-80665000D02*
X102600000Y-80235000D01*
X103090000Y-81155000D02*
X102600000Y-80665000D01*
X103260000Y-81155000D02*
X103090000Y-81155000D01*
X103490000Y-81385000D02*
X103260000Y-81155000D01*
X103490000Y-82587500D02*
X103490000Y-81385000D01*
X97640000Y-71180000D02*
X98830000Y-69990000D01*
X97640000Y-71230000D02*
X97640000Y-71180000D01*
X94690000Y-107025000D02*
X95925000Y-105790000D01*
X95925000Y-103674278D02*
X96525019Y-103074259D01*
X95925000Y-105790000D02*
X95925000Y-103674278D01*
X96525019Y-103074259D02*
X96525019Y-96302815D01*
X96525019Y-96302815D02*
X96850028Y-95977804D01*
X96850028Y-95977804D02*
X96850028Y-93873528D01*
X102290000Y-89937480D02*
X101002460Y-91225020D01*
X102290000Y-89462500D02*
X102290000Y-89937480D01*
X101002460Y-91225020D02*
X99498536Y-91225020D01*
X99498536Y-91225020D02*
X96850028Y-93873528D01*
X96225010Y-102949990D02*
X94690000Y-104485000D01*
X96225010Y-96178546D02*
X96225010Y-102949990D01*
X96550020Y-93749258D02*
X96550019Y-95853537D01*
X96550019Y-95853537D02*
X96225010Y-96178546D01*
X99374268Y-90925010D02*
X96550020Y-93749258D01*
X100878192Y-90925010D02*
X99374268Y-90925010D01*
X101890000Y-89913202D02*
X100878192Y-90925010D01*
X101890000Y-89462500D02*
X101890000Y-89913202D01*
X94690000Y-99405000D02*
X95925000Y-98170000D01*
X95925000Y-96054278D02*
X96250010Y-95729268D01*
X95925000Y-98170000D02*
X95925000Y-96054278D01*
X96250010Y-95729268D02*
X96250010Y-93624990D01*
X96250010Y-93624990D02*
X99250000Y-90625000D01*
X101490000Y-89888924D02*
X101490000Y-89462500D01*
X100753924Y-90625000D02*
X101490000Y-89888924D01*
X99250000Y-90625000D02*
X100753924Y-90625000D01*
X100227500Y-90325000D02*
X101090000Y-89462500D01*
X95950000Y-95605000D02*
X95950000Y-93489278D01*
X99114278Y-90325000D02*
X100227500Y-90325000D01*
X94690000Y-96865000D02*
X95950000Y-95605000D01*
X95950000Y-93489278D02*
X99114278Y-90325000D01*
X95765001Y-93249999D02*
X94690000Y-94325000D01*
X100252500Y-88625000D02*
X100252500Y-88762500D01*
X100252500Y-88762500D02*
X95765001Y-93249999D01*
X99300000Y-89225000D02*
X96740000Y-91785000D01*
X96740000Y-91785000D02*
X94690000Y-91785000D01*
X99300000Y-88550000D02*
X99300000Y-89225000D01*
X99625000Y-88225000D02*
X99300000Y-88550000D01*
X100252500Y-88225000D02*
X99625000Y-88225000D01*
X95617500Y-87632500D02*
X94690000Y-86705000D01*
X96710000Y-88725000D02*
X95617500Y-87632500D01*
X98692861Y-88725000D02*
X96710000Y-88725000D01*
X99592861Y-87825000D02*
X98692861Y-88725000D01*
X100252500Y-87825000D02*
X99592861Y-87825000D01*
X95874988Y-85349988D02*
X94690000Y-84165000D01*
X95874988Y-87465710D02*
X95874988Y-85349988D01*
X96834278Y-88425000D02*
X95874988Y-87465710D01*
X98560000Y-88425000D02*
X96834278Y-88425000D01*
X99560000Y-87425000D02*
X98560000Y-88425000D01*
X100252500Y-87425000D02*
X99560000Y-87425000D01*
X98340000Y-86975000D02*
X97230000Y-86975000D01*
X100252500Y-86625000D02*
X98690000Y-86625000D01*
X98690000Y-86625000D02*
X98340000Y-86975000D01*
X97230000Y-86975000D02*
X96174999Y-85919999D01*
X96174999Y-85919999D02*
X96174999Y-83772833D01*
X95539999Y-83137833D02*
X95539999Y-82474999D01*
X96174999Y-83772833D02*
X95539999Y-83137833D01*
X95539999Y-82474999D02*
X94690000Y-81625000D01*
X96700000Y-86020722D02*
X96700000Y-85335000D01*
X96950783Y-86271505D02*
X96700000Y-86020722D01*
X100205995Y-86271505D02*
X96950783Y-86271505D01*
X100252500Y-86225000D02*
X100205995Y-86271505D01*
X100252500Y-85825000D02*
X97921945Y-85825000D01*
X97921945Y-85825000D02*
X97816938Y-85719993D01*
X100252500Y-85425000D02*
X98573859Y-85425000D01*
X98573859Y-85425000D02*
X98410926Y-85262067D01*
X100252500Y-85025000D02*
X99160000Y-85025000D01*
X99160000Y-85025000D02*
X98660000Y-84525000D01*
X99525722Y-84625000D02*
X98830720Y-83929998D01*
X100252500Y-84625000D02*
X99525722Y-84625000D01*
X98830720Y-83929998D02*
X97405720Y-83929998D01*
X97405720Y-83929998D02*
X96474970Y-82999248D01*
X96474970Y-82999248D02*
X96474970Y-68169970D01*
X96474970Y-68169970D02*
X94690000Y-66385000D01*
X96000000Y-62615000D02*
X94690000Y-61305000D01*
X96774980Y-63389980D02*
X96000000Y-62615000D01*
X100252500Y-84225000D02*
X99550000Y-84225000D01*
X98954987Y-83629987D02*
X97555709Y-83629987D01*
X97555709Y-83629987D02*
X96774981Y-82849259D01*
X96774981Y-82849259D02*
X96774980Y-63389980D01*
X99550000Y-84225000D02*
X98954987Y-83629987D01*
X96225000Y-60300000D02*
X94690000Y-58765000D01*
X97074990Y-61149990D02*
X96225000Y-60300000D01*
X97074990Y-82724990D02*
X97074990Y-61149990D01*
X97600000Y-83250000D02*
X97074990Y-82724990D01*
X99015000Y-83250000D02*
X97600000Y-83250000D01*
X99590000Y-83825000D02*
X99015000Y-83250000D01*
X100252500Y-83825000D02*
X99590000Y-83825000D01*
X107127500Y-84225000D02*
X107751444Y-84225000D01*
X107850722Y-84125722D02*
X107951454Y-84024990D01*
X107751444Y-84225000D02*
X107850722Y-84125722D01*
X107951454Y-84024990D02*
X109225732Y-84024990D01*
X112510000Y-73965000D02*
X112530000Y-73965000D01*
X111250000Y-75225000D02*
X112510000Y-73965000D01*
X111250000Y-80650722D02*
X111250000Y-75225000D01*
X109225732Y-84024990D02*
X110157861Y-83092861D01*
X110157861Y-83092861D02*
X110449990Y-82800732D01*
X110979990Y-80920732D02*
X111250000Y-80650722D01*
X110979990Y-82270732D02*
X110979990Y-80920732D01*
X110157861Y-83092861D02*
X110979990Y-82270732D01*
X111605000Y-80030000D02*
X112590000Y-79045000D01*
X111605000Y-80720000D02*
X111605000Y-80030000D01*
X111280000Y-82395000D02*
X111280000Y-81045000D01*
X111280000Y-81045000D02*
X111605000Y-80720000D01*
X108800020Y-84325000D02*
X109350000Y-84325000D01*
X109350000Y-84325000D02*
X111280000Y-82395000D01*
X108800010Y-84324990D02*
X108800020Y-84325000D01*
X108075732Y-84324990D02*
X108800010Y-84324990D01*
X107775722Y-84625000D02*
X108075732Y-84324990D01*
X107127500Y-84625000D02*
X107775722Y-84625000D01*
X107127500Y-85025000D02*
X107800000Y-85025000D01*
X107875000Y-84950000D02*
X108200000Y-84625000D01*
X107800000Y-85025000D02*
X107875000Y-84950000D01*
X109490000Y-84625000D02*
X112530000Y-81585000D01*
X108200000Y-84625000D02*
X109490000Y-84625000D01*
X108690000Y-85425000D02*
X107127500Y-85425000D01*
X107700010Y-86489990D02*
X112414990Y-86489990D01*
X112414990Y-86489990D02*
X112590000Y-86665000D01*
X107565000Y-86625000D02*
X107700010Y-86489990D01*
X107127500Y-86625000D02*
X107565000Y-86625000D01*
X111000000Y-90155000D02*
X112590000Y-91745000D01*
X111000000Y-89320002D02*
X111000000Y-90155000D01*
X109304998Y-87625000D02*
X111000000Y-89320002D01*
X107926962Y-87625000D02*
X109304998Y-87625000D01*
X107726962Y-87425000D02*
X107926962Y-87625000D01*
X107127500Y-87425000D02*
X107726962Y-87425000D01*
X107702684Y-87825000D02*
X107127500Y-87825000D01*
X107802694Y-87925010D02*
X107702684Y-87825000D01*
X109180730Y-87925010D02*
X107802694Y-87925010D01*
X110699990Y-89444270D02*
X109180730Y-87925010D01*
X110699990Y-90279268D02*
X110699990Y-89444270D01*
X111300000Y-90879278D02*
X110699990Y-90279268D01*
X111300000Y-92995000D02*
X111300000Y-90879278D01*
X112590000Y-94285000D02*
X111300000Y-92995000D01*
X107678406Y-88225000D02*
X107127500Y-88225000D01*
X107678426Y-88225020D02*
X107678406Y-88225000D01*
X109056462Y-88225020D02*
X107678426Y-88225020D01*
X110399980Y-89568538D02*
X109056462Y-88225020D01*
X110399981Y-90403537D02*
X110399980Y-89568538D01*
X110999990Y-91003546D02*
X110399981Y-90403537D01*
X110999990Y-94424990D02*
X110999990Y-91003546D01*
X112590000Y-96015000D02*
X110999990Y-94424990D01*
X112590000Y-96825000D02*
X112590000Y-96015000D01*
X107127500Y-88625000D02*
X109032164Y-88625000D01*
X110099972Y-89692808D02*
X110099972Y-90527806D01*
X109032164Y-88625000D02*
X110099972Y-89692808D01*
X110099972Y-90527806D02*
X110699980Y-91127814D01*
X110699980Y-91127814D02*
X110699981Y-94549259D01*
X110699981Y-94549259D02*
X111300000Y-95149278D01*
X111300000Y-98075000D02*
X112590000Y-99365000D01*
X111300000Y-95149278D02*
X111300000Y-98075000D01*
X106290000Y-90442166D02*
X106290000Y-90325000D01*
X109327084Y-91252084D02*
X107099918Y-91252084D01*
X110399972Y-92324972D02*
X109327084Y-91252084D01*
X110399972Y-94673526D02*
X110399972Y-92324972D01*
X110999990Y-95273546D02*
X110399972Y-94673526D01*
X106290000Y-90325000D02*
X106290000Y-89462500D01*
X110999990Y-98199268D02*
X110999990Y-95273546D01*
X111300000Y-98499278D02*
X110999990Y-98199268D01*
X107099918Y-91252084D02*
X106290000Y-90442166D01*
X111300000Y-103155000D02*
X111300000Y-98499278D01*
X112590000Y-104445000D02*
X111300000Y-103155000D01*
X105890000Y-90466444D02*
X105890000Y-89462500D01*
X110099962Y-92449240D02*
X109202816Y-91552094D01*
X109202816Y-91552094D02*
X106975650Y-91552094D01*
X110099962Y-94824962D02*
X110099962Y-92449240D01*
X106975650Y-91552094D02*
X105890000Y-90466444D01*
X111300000Y-103579278D02*
X110999990Y-103279268D01*
X110999990Y-98623546D02*
X110699981Y-98323537D01*
X111300000Y-104925000D02*
X111300000Y-103579278D01*
X110699981Y-98323537D02*
X110699980Y-95424980D01*
X112590000Y-106215000D02*
X111300000Y-104925000D01*
X110699980Y-95424980D02*
X110099962Y-94824962D01*
X110999990Y-103279268D02*
X110999990Y-98623546D01*
X112590000Y-106985000D02*
X112590000Y-106215000D01*
X105490000Y-89462500D02*
X105490000Y-90490722D01*
X105490000Y-90490722D02*
X105812139Y-90812861D01*
X105812139Y-90812861D02*
X106112139Y-91112861D01*
X106112139Y-91112861D02*
X107224278Y-92225000D01*
X107224278Y-92225000D02*
X107600000Y-92225000D01*
X107600000Y-92225000D02*
X107700000Y-92225000D01*
X106200000Y-91625000D02*
X106200000Y-91725000D01*
X105090000Y-90515000D02*
X106200000Y-91625000D01*
X105090000Y-89462500D02*
X105090000Y-90515000D01*
X106200000Y-106895000D02*
X106230000Y-106925000D01*
X106200000Y-91625000D02*
X106200000Y-106895000D01*
X104690000Y-90539279D02*
X104690000Y-89462500D01*
X105900000Y-91749279D02*
X104690000Y-90539279D01*
X105900000Y-103125000D02*
X105900000Y-91749279D01*
X103900000Y-105125000D02*
X105900000Y-103125000D01*
X101600000Y-105125000D02*
X103900000Y-105125000D01*
X101150000Y-105575000D02*
X101600000Y-105125000D01*
X101150000Y-106925000D02*
X101150000Y-105575000D01*
X99730000Y-71140000D02*
X99600000Y-71140000D01*
X99470000Y-71270000D02*
X98690000Y-71270000D01*
X99600000Y-71140000D02*
X99470000Y-71270000D01*
X101090000Y-82587500D02*
X100487500Y-82587500D01*
X100487500Y-82587500D02*
X100262500Y-82362500D01*
X100262500Y-82362500D02*
X100237500Y-82362500D01*
X98300000Y-80400000D02*
X100262500Y-82362500D01*
X98300000Y-78512500D02*
X98300000Y-80400000D01*
X98695000Y-71325000D02*
X98600000Y-71230000D01*
X98695000Y-72200000D02*
X98695000Y-71325000D01*
X104690000Y-80570000D02*
X104400000Y-80280000D01*
X104690000Y-82587500D02*
X104690000Y-80570000D01*
X105090000Y-80540000D02*
X105350000Y-80280000D01*
X105090000Y-82587500D02*
X105090000Y-80540000D01*
X103090000Y-82587500D02*
X103090000Y-81817888D01*
X99100000Y-75025000D02*
X98800000Y-75325000D01*
X103090000Y-81817888D02*
X101672072Y-80399960D01*
X98800000Y-75325000D02*
X98800000Y-75937500D01*
X101073516Y-80399960D02*
X101025020Y-80351464D01*
X101672072Y-80399960D02*
X101073516Y-80399960D01*
X101025020Y-80351464D02*
X101025020Y-75800742D01*
X99400722Y-75025000D02*
X99100000Y-75025000D01*
X101025020Y-75800742D02*
X100249268Y-75024990D01*
X100249268Y-75024990D02*
X99400732Y-75024990D01*
X99400732Y-75024990D02*
X99400722Y-75025000D01*
X99300000Y-75550000D02*
X99300000Y-75937500D01*
X99525000Y-75325000D02*
X99300000Y-75550000D01*
X100725010Y-76158052D02*
X100725000Y-76158042D01*
X100725010Y-80475732D02*
X100725010Y-76158052D01*
X100949248Y-80699970D02*
X100725010Y-80475732D01*
X100125000Y-75325000D02*
X99525000Y-75325000D01*
X100725000Y-75925000D02*
X100125000Y-75325000D01*
X101547804Y-80699970D02*
X100949248Y-80699970D01*
X102690000Y-81842166D02*
X101547804Y-80699970D01*
X102690000Y-82587500D02*
X102690000Y-81842166D01*
X100725000Y-76158042D02*
X100725000Y-75925000D01*
X102290000Y-82587500D02*
X102290000Y-81866444D01*
X102290000Y-81866444D02*
X101423536Y-80999980D01*
X100824980Y-80999980D02*
X100425000Y-80600000D01*
X101423536Y-80999980D02*
X100824980Y-80999980D01*
X100425000Y-76562500D02*
X99800000Y-75937500D01*
X100425000Y-80600000D02*
X100425000Y-76562500D01*
X101890000Y-82587500D02*
X101890000Y-81890722D01*
X101890000Y-81890722D02*
X101299268Y-81299990D01*
X101299268Y-81299990D02*
X100048546Y-81299990D01*
X100048546Y-81299990D02*
X99300000Y-80551444D01*
X99300000Y-80551444D02*
X99300000Y-78512500D01*
X101490000Y-82587500D02*
X101490000Y-81915000D01*
X101490000Y-81915000D02*
X101175000Y-81600000D01*
X101175000Y-81600000D02*
X99924278Y-81600000D01*
X99924278Y-81600000D02*
X98800000Y-80475722D01*
X98800000Y-80475722D02*
X98800000Y-78512500D01*
D29*
X103150000Y-67325000D02*
X103150000Y-67050000D01*
X104400000Y-79320000D02*
X104400000Y-78796752D01*
X103150000Y-77546752D02*
X103150000Y-67325000D01*
X104400000Y-78796752D02*
X103150000Y-77546752D01*
D28*
X102849999Y-67024999D02*
X102849999Y-64620000D01*
X103150000Y-67325000D02*
X102849999Y-67024999D01*
D29*
X105350000Y-79320000D02*
X105350000Y-78403248D01*
X105350000Y-78403248D02*
X104100000Y-77153248D01*
X104100000Y-77153248D02*
X104100000Y-67325000D01*
X104100000Y-67325000D02*
X104100000Y-67050000D01*
D28*
X104360001Y-67064999D02*
X104360001Y-64620000D01*
X104100000Y-67325000D02*
X104360001Y-67064999D01*
D26*
X97900000Y-64650000D02*
X97900000Y-63535000D01*
X101845000Y-64625000D02*
X101850000Y-64620000D01*
X101459990Y-67674990D02*
X101990000Y-68205000D01*
X101459990Y-67504142D02*
X101459990Y-67674990D01*
X101465010Y-67499122D02*
X101459990Y-67504142D01*
X101465010Y-66830878D02*
X101465010Y-67499122D01*
X101459990Y-66825858D02*
X101465010Y-66830878D01*
X101459990Y-65885010D02*
X101459990Y-66825858D01*
X101850000Y-65495000D02*
X101459990Y-65885010D01*
X101850000Y-64620000D02*
X101850000Y-65495000D01*
X104850000Y-64620000D02*
X104850000Y-62875000D01*
X104850000Y-62875000D02*
X104550000Y-62575000D01*
X104550000Y-62575000D02*
X104550000Y-62575000D01*
X101970000Y-66255000D02*
X102040000Y-66185000D01*
X101970000Y-67145000D02*
X101970000Y-66255000D01*
X101990000Y-67165000D02*
X101970000Y-67145000D01*
X112530000Y-66945000D02*
X112530000Y-66345000D01*
X107590000Y-68575000D02*
X107590000Y-68575000D01*
X106370000Y-69525000D02*
X106370000Y-69240000D01*
X107035000Y-68575000D02*
X107789946Y-68575000D01*
X106370000Y-69240000D02*
X107035000Y-68575000D01*
X109787500Y-70025000D02*
X110325000Y-69487500D01*
X108780000Y-70025000D02*
X109787500Y-70025000D01*
X109737500Y-71025000D02*
X110325000Y-71612500D01*
X108780000Y-71025000D02*
X109737500Y-71025000D01*
D31*
X105576500Y-82189512D02*
X105575467Y-82200000D01*
X105575467Y-82975000D01*
X105576500Y-82985488D01*
X105576500Y-84211500D01*
X105156488Y-84211500D01*
X105146000Y-84210467D01*
X102234000Y-84210467D01*
X102223512Y-84211500D01*
X101940000Y-84211500D01*
X101927612Y-84212720D01*
X101915700Y-84216334D01*
X101904721Y-84222202D01*
X101895099Y-84230099D01*
X101887202Y-84239721D01*
X101881334Y-84250700D01*
X101877720Y-84262612D01*
X101876500Y-84275000D01*
X101876500Y-84558512D01*
X101875467Y-84569000D01*
X101875467Y-87481000D01*
X101876500Y-87491488D01*
X101876500Y-87775000D01*
X101877720Y-87787388D01*
X101881334Y-87799300D01*
X101887202Y-87810279D01*
X101895099Y-87819901D01*
X101904721Y-87827798D01*
X101915700Y-87833666D01*
X101927612Y-87837280D01*
X101940000Y-87838500D01*
X102223512Y-87838500D01*
X102234000Y-87839533D01*
X104601500Y-87839533D01*
X104601500Y-88386500D01*
X104053500Y-88386500D01*
X104053500Y-88175000D01*
X104052280Y-88162612D01*
X104048666Y-88150700D01*
X104042798Y-88139721D01*
X104034901Y-88130099D01*
X104025279Y-88122202D01*
X104014300Y-88116334D01*
X104002388Y-88112720D01*
X103990000Y-88111500D01*
X101553500Y-88111500D01*
X101553500Y-83863500D01*
X104490000Y-83863500D01*
X104502388Y-83862280D01*
X104514300Y-83858666D01*
X104525279Y-83852798D01*
X104534901Y-83844901D01*
X104542798Y-83835279D01*
X104548666Y-83824300D01*
X104552280Y-83812388D01*
X104553500Y-83800000D01*
X104553500Y-83238500D01*
X104629512Y-83238500D01*
X104640000Y-83239533D01*
X104740000Y-83239533D01*
X104750488Y-83238500D01*
X105029512Y-83238500D01*
X105040000Y-83239533D01*
X105140000Y-83239533D01*
X105150488Y-83238500D01*
X105340000Y-83238500D01*
X105352388Y-83237280D01*
X105364300Y-83233666D01*
X105375279Y-83227798D01*
X105384901Y-83219901D01*
X105392798Y-83210279D01*
X105398666Y-83199300D01*
X105402280Y-83187388D01*
X105403500Y-83175000D01*
X105403500Y-82985488D01*
X105404533Y-82975000D01*
X105404533Y-82200000D01*
X105403500Y-82189512D01*
X105403500Y-82163500D01*
X105576500Y-82163500D01*
X105576500Y-82189512D01*
G04 #@! TA.AperFunction,Conductor*
D26*
G36*
X105576500Y-82189512D02*
G01*
X105575467Y-82200000D01*
X105575467Y-82975000D01*
X105576500Y-82985488D01*
X105576500Y-84211500D01*
X105156488Y-84211500D01*
X105146000Y-84210467D01*
X102234000Y-84210467D01*
X102223512Y-84211500D01*
X101940000Y-84211500D01*
X101927612Y-84212720D01*
X101915700Y-84216334D01*
X101904721Y-84222202D01*
X101895099Y-84230099D01*
X101887202Y-84239721D01*
X101881334Y-84250700D01*
X101877720Y-84262612D01*
X101876500Y-84275000D01*
X101876500Y-84558512D01*
X101875467Y-84569000D01*
X101875467Y-87481000D01*
X101876500Y-87491488D01*
X101876500Y-87775000D01*
X101877720Y-87787388D01*
X101881334Y-87799300D01*
X101887202Y-87810279D01*
X101895099Y-87819901D01*
X101904721Y-87827798D01*
X101915700Y-87833666D01*
X101927612Y-87837280D01*
X101940000Y-87838500D01*
X102223512Y-87838500D01*
X102234000Y-87839533D01*
X104601500Y-87839533D01*
X104601500Y-88386500D01*
X104053500Y-88386500D01*
X104053500Y-88175000D01*
X104052280Y-88162612D01*
X104048666Y-88150700D01*
X104042798Y-88139721D01*
X104034901Y-88130099D01*
X104025279Y-88122202D01*
X104014300Y-88116334D01*
X104002388Y-88112720D01*
X103990000Y-88111500D01*
X101553500Y-88111500D01*
X101553500Y-83863500D01*
X104490000Y-83863500D01*
X104502388Y-83862280D01*
X104514300Y-83858666D01*
X104525279Y-83852798D01*
X104534901Y-83844901D01*
X104542798Y-83835279D01*
X104548666Y-83824300D01*
X104552280Y-83812388D01*
X104553500Y-83800000D01*
X104553500Y-83238500D01*
X104629512Y-83238500D01*
X104640000Y-83239533D01*
X104740000Y-83239533D01*
X104750488Y-83238500D01*
X105029512Y-83238500D01*
X105040000Y-83239533D01*
X105140000Y-83239533D01*
X105150488Y-83238500D01*
X105340000Y-83238500D01*
X105352388Y-83237280D01*
X105364300Y-83233666D01*
X105375279Y-83227798D01*
X105384901Y-83219901D01*
X105392798Y-83210279D01*
X105398666Y-83199300D01*
X105402280Y-83187388D01*
X105403500Y-83175000D01*
X105403500Y-82985488D01*
X105404533Y-82975000D01*
X105404533Y-82200000D01*
X105403500Y-82189512D01*
X105403500Y-82163500D01*
X105576500Y-82163500D01*
X105576500Y-82189512D01*
G37*
G04 #@! TD.AperFunction*
D32*
X109647963Y-92636465D02*
X109647962Y-94802757D01*
X109645775Y-94824962D01*
X109654502Y-94913569D01*
X109671510Y-94969635D01*
X109680348Y-94998771D01*
X109722319Y-95077294D01*
X109778803Y-95146121D01*
X109796062Y-95160285D01*
X110247980Y-95612204D01*
X110247982Y-98301322D01*
X110245794Y-98323537D01*
X110254521Y-98412144D01*
X110280367Y-98497346D01*
X110322338Y-98575869D01*
X110322339Y-98575870D01*
X110378823Y-98644696D01*
X110396077Y-98658856D01*
X110547991Y-98810770D01*
X110547990Y-103257063D01*
X110545803Y-103279268D01*
X110554530Y-103367875D01*
X110562885Y-103395418D01*
X110580376Y-103453077D01*
X110622347Y-103531600D01*
X110678831Y-103600427D01*
X110696090Y-103614591D01*
X110848001Y-103766502D01*
X110848000Y-104902795D01*
X110845813Y-104925000D01*
X110848393Y-104951191D01*
X110854540Y-105013606D01*
X110880386Y-105098809D01*
X110922357Y-105177332D01*
X110978841Y-105246159D01*
X110996100Y-105260323D01*
X111767768Y-106031992D01*
X111596927Y-106202833D01*
X111462647Y-106403798D01*
X111370153Y-106627097D01*
X111323000Y-106864151D01*
X111323000Y-107105849D01*
X111370153Y-107342903D01*
X111462647Y-107566202D01*
X111596927Y-107767167D01*
X111767833Y-107938073D01*
X111968798Y-108072353D01*
X112091070Y-108123000D01*
X110115936Y-108123000D01*
X110341533Y-107972261D01*
X110547261Y-107766533D01*
X110708901Y-107524622D01*
X110820240Y-107255825D01*
X110877000Y-106970472D01*
X110877000Y-106679528D01*
X110820240Y-106394175D01*
X110708901Y-106125378D01*
X110547261Y-105883467D01*
X110341533Y-105677739D01*
X110099622Y-105516099D01*
X109830825Y-105404760D01*
X109545472Y-105348000D01*
X109254528Y-105348000D01*
X108969175Y-105404760D01*
X108700378Y-105516099D01*
X108458467Y-105677739D01*
X108252739Y-105883467D01*
X108091099Y-106125378D01*
X107979760Y-106394175D01*
X107923000Y-106679528D01*
X107923000Y-106970472D01*
X107979760Y-107255825D01*
X108091099Y-107524622D01*
X108252739Y-107766533D01*
X108458467Y-107972261D01*
X108684064Y-108123000D01*
X106496642Y-108123000D01*
X106587903Y-108104847D01*
X106811202Y-108012353D01*
X107012167Y-107878073D01*
X107183073Y-107707167D01*
X107317353Y-107506202D01*
X107409847Y-107282903D01*
X107457000Y-107045849D01*
X107457000Y-106804151D01*
X107409847Y-106567097D01*
X107317353Y-106343798D01*
X107183073Y-106142833D01*
X107012167Y-105971927D01*
X106811202Y-105837647D01*
X106652000Y-105771703D01*
X106652000Y-92291946D01*
X106888959Y-92528905D01*
X106903119Y-92546159D01*
X106971945Y-92602643D01*
X107011546Y-92623810D01*
X107050468Y-92644614D01*
X107070144Y-92650583D01*
X107074140Y-92656563D01*
X107168437Y-92750860D01*
X107279320Y-92824950D01*
X107402526Y-92875984D01*
X107533321Y-92902000D01*
X107666679Y-92902000D01*
X107797474Y-92875984D01*
X107920680Y-92824950D01*
X108031563Y-92750860D01*
X108125860Y-92656563D01*
X108199950Y-92545680D01*
X108250984Y-92422474D01*
X108277000Y-92291679D01*
X108277000Y-92158321D01*
X108250984Y-92027526D01*
X108241278Y-92004094D01*
X109015593Y-92004094D01*
X109647963Y-92636465D01*
G04 #@! TA.AperFunction,Conductor*
D26*
G36*
X109647963Y-92636465D02*
G01*
X109647962Y-94802757D01*
X109645775Y-94824962D01*
X109654502Y-94913569D01*
X109671510Y-94969635D01*
X109680348Y-94998771D01*
X109722319Y-95077294D01*
X109778803Y-95146121D01*
X109796062Y-95160285D01*
X110247980Y-95612204D01*
X110247982Y-98301322D01*
X110245794Y-98323537D01*
X110254521Y-98412144D01*
X110280367Y-98497346D01*
X110322338Y-98575869D01*
X110322339Y-98575870D01*
X110378823Y-98644696D01*
X110396077Y-98658856D01*
X110547991Y-98810770D01*
X110547990Y-103257063D01*
X110545803Y-103279268D01*
X110554530Y-103367875D01*
X110562885Y-103395418D01*
X110580376Y-103453077D01*
X110622347Y-103531600D01*
X110678831Y-103600427D01*
X110696090Y-103614591D01*
X110848001Y-103766502D01*
X110848000Y-104902795D01*
X110845813Y-104925000D01*
X110848393Y-104951191D01*
X110854540Y-105013606D01*
X110880386Y-105098809D01*
X110922357Y-105177332D01*
X110978841Y-105246159D01*
X110996100Y-105260323D01*
X111767768Y-106031992D01*
X111596927Y-106202833D01*
X111462647Y-106403798D01*
X111370153Y-106627097D01*
X111323000Y-106864151D01*
X111323000Y-107105849D01*
X111370153Y-107342903D01*
X111462647Y-107566202D01*
X111596927Y-107767167D01*
X111767833Y-107938073D01*
X111968798Y-108072353D01*
X112091070Y-108123000D01*
X110115936Y-108123000D01*
X110341533Y-107972261D01*
X110547261Y-107766533D01*
X110708901Y-107524622D01*
X110820240Y-107255825D01*
X110877000Y-106970472D01*
X110877000Y-106679528D01*
X110820240Y-106394175D01*
X110708901Y-106125378D01*
X110547261Y-105883467D01*
X110341533Y-105677739D01*
X110099622Y-105516099D01*
X109830825Y-105404760D01*
X109545472Y-105348000D01*
X109254528Y-105348000D01*
X108969175Y-105404760D01*
X108700378Y-105516099D01*
X108458467Y-105677739D01*
X108252739Y-105883467D01*
X108091099Y-106125378D01*
X107979760Y-106394175D01*
X107923000Y-106679528D01*
X107923000Y-106970472D01*
X107979760Y-107255825D01*
X108091099Y-107524622D01*
X108252739Y-107766533D01*
X108458467Y-107972261D01*
X108684064Y-108123000D01*
X106496642Y-108123000D01*
X106587903Y-108104847D01*
X106811202Y-108012353D01*
X107012167Y-107878073D01*
X107183073Y-107707167D01*
X107317353Y-107506202D01*
X107409847Y-107282903D01*
X107457000Y-107045849D01*
X107457000Y-106804151D01*
X107409847Y-106567097D01*
X107317353Y-106343798D01*
X107183073Y-106142833D01*
X107012167Y-105971927D01*
X106811202Y-105837647D01*
X106652000Y-105771703D01*
X106652000Y-92291946D01*
X106888959Y-92528905D01*
X106903119Y-92546159D01*
X106971945Y-92602643D01*
X107011546Y-92623810D01*
X107050468Y-92644614D01*
X107070144Y-92650583D01*
X107074140Y-92656563D01*
X107168437Y-92750860D01*
X107279320Y-92824950D01*
X107402526Y-92875984D01*
X107533321Y-92902000D01*
X107666679Y-92902000D01*
X107797474Y-92875984D01*
X107920680Y-92824950D01*
X108031563Y-92750860D01*
X108125860Y-92656563D01*
X108199950Y-92545680D01*
X108250984Y-92422474D01*
X108277000Y-92291679D01*
X108277000Y-92158321D01*
X108250984Y-92027526D01*
X108241278Y-92004094D01*
X109015593Y-92004094D01*
X109647963Y-92636465D01*
G37*
G04 #@! TD.AperFunction*
D32*
X102245813Y-90625000D02*
X102248001Y-90647215D01*
X102248000Y-92262775D01*
X101687777Y-92823000D01*
X100822204Y-92823000D01*
X100799999Y-92820813D01*
X100711392Y-92829540D01*
X100650538Y-92848000D01*
X100626190Y-92855386D01*
X100547667Y-92897357D01*
X100478841Y-92953841D01*
X100464681Y-92971095D01*
X100218548Y-93217228D01*
X100178782Y-93221145D01*
X100081455Y-93250669D01*
X99991757Y-93298614D01*
X99913136Y-93363136D01*
X99848614Y-93441757D01*
X99800669Y-93531455D01*
X99771145Y-93628782D01*
X99761176Y-93730000D01*
X99761176Y-94070000D01*
X99771145Y-94171218D01*
X99800669Y-94268545D01*
X99848614Y-94358243D01*
X99883129Y-94400300D01*
X99851095Y-94403455D01*
X99780030Y-94425012D01*
X99714537Y-94460019D01*
X99657131Y-94507131D01*
X99610019Y-94564537D01*
X99575012Y-94630030D01*
X99553455Y-94701095D01*
X99546176Y-94775000D01*
X99546176Y-95925000D01*
X99553455Y-95998905D01*
X99575012Y-96069970D01*
X99610019Y-96135463D01*
X99657131Y-96192869D01*
X99714537Y-96239981D01*
X99780030Y-96274988D01*
X99851095Y-96296545D01*
X99925000Y-96303824D01*
X101325000Y-96303824D01*
X101398905Y-96296545D01*
X101469970Y-96274988D01*
X101535463Y-96239981D01*
X101592869Y-96192869D01*
X101639981Y-96135463D01*
X101674988Y-96069970D01*
X101696545Y-95998905D01*
X101703824Y-95925000D01*
X101703824Y-94775000D01*
X101696545Y-94701095D01*
X101674988Y-94630030D01*
X101639981Y-94564537D01*
X101592869Y-94507131D01*
X101535463Y-94460019D01*
X101469970Y-94425012D01*
X101398905Y-94403455D01*
X101325000Y-94396176D01*
X100960255Y-94396176D01*
X100991386Y-94358243D01*
X101039331Y-94268545D01*
X101068855Y-94171218D01*
X101078824Y-94070000D01*
X101078824Y-93730000D01*
X101078529Y-93727000D01*
X101852795Y-93727000D01*
X101875000Y-93729187D01*
X101897205Y-93727000D01*
X101963607Y-93720460D01*
X102048810Y-93694614D01*
X102127333Y-93652643D01*
X102196159Y-93596159D01*
X102210323Y-93578900D01*
X102668712Y-93120512D01*
X102672358Y-93127333D01*
X102728842Y-93196159D01*
X102746096Y-93210319D01*
X103023000Y-93487223D01*
X103023000Y-93591679D01*
X103049016Y-93722474D01*
X103100050Y-93845680D01*
X103174140Y-93956563D01*
X103268437Y-94050860D01*
X103379320Y-94124950D01*
X103502526Y-94175984D01*
X103633321Y-94202000D01*
X103766679Y-94202000D01*
X103897474Y-94175984D01*
X104020680Y-94124950D01*
X104131563Y-94050860D01*
X104225860Y-93956563D01*
X104299950Y-93845680D01*
X104350984Y-93722474D01*
X104377000Y-93591679D01*
X104377000Y-93458321D01*
X104350984Y-93327526D01*
X104299950Y-93204320D01*
X104225860Y-93093437D01*
X104131563Y-92999140D01*
X104020680Y-92925050D01*
X103897474Y-92874016D01*
X103766679Y-92848000D01*
X103662223Y-92848000D01*
X103502000Y-92687777D01*
X103502000Y-92346142D01*
X103580000Y-92353824D01*
X103920000Y-92353824D01*
X104021218Y-92343855D01*
X104118545Y-92314331D01*
X104208243Y-92266386D01*
X104286864Y-92201864D01*
X104351386Y-92123243D01*
X104375000Y-92079065D01*
X104398614Y-92123243D01*
X104463136Y-92201864D01*
X104541757Y-92266386D01*
X104631455Y-92314331D01*
X104728782Y-92343855D01*
X104830000Y-92353824D01*
X105170000Y-92353824D01*
X105271218Y-92343855D01*
X105368545Y-92314331D01*
X105448001Y-92271861D01*
X105448000Y-102937775D01*
X103712777Y-104673000D01*
X101622204Y-104673000D01*
X101599999Y-104670813D01*
X101511392Y-104679540D01*
X101426190Y-104705386D01*
X101347667Y-104747357D01*
X101278841Y-104803841D01*
X101264685Y-104821090D01*
X100846095Y-105239682D01*
X100828842Y-105253841D01*
X100772358Y-105322667D01*
X100730386Y-105401191D01*
X100704540Y-105486393D01*
X100695813Y-105575000D01*
X100698001Y-105597215D01*
X100698001Y-105696176D01*
X100300000Y-105696176D01*
X100226095Y-105703455D01*
X100155030Y-105725012D01*
X100089537Y-105760019D01*
X100032131Y-105807131D01*
X99985019Y-105864537D01*
X99950012Y-105930030D01*
X99928455Y-106001095D01*
X99921176Y-106075000D01*
X99921176Y-107775000D01*
X99928455Y-107848905D01*
X99950012Y-107919970D01*
X99985019Y-107985463D01*
X100032131Y-108042869D01*
X100089537Y-108089981D01*
X100151311Y-108123000D01*
X98715936Y-108123000D01*
X98941533Y-107972261D01*
X99147261Y-107766533D01*
X99308901Y-107524622D01*
X99420240Y-107255825D01*
X99477000Y-106970472D01*
X99477000Y-106679528D01*
X99420240Y-106394175D01*
X99308901Y-106125378D01*
X99147261Y-105883467D01*
X98941533Y-105677739D01*
X98699622Y-105516099D01*
X98430825Y-105404760D01*
X98145472Y-105348000D01*
X97854528Y-105348000D01*
X97569175Y-105404760D01*
X97300378Y-105516099D01*
X97058467Y-105677739D01*
X96852739Y-105883467D01*
X96691099Y-106125378D01*
X96579760Y-106394175D01*
X96523000Y-106679528D01*
X96523000Y-106970472D01*
X96579760Y-107255825D01*
X96691099Y-107524622D01*
X96852739Y-107766533D01*
X97058467Y-107972261D01*
X97284064Y-108123000D01*
X95208930Y-108123000D01*
X95331202Y-108072353D01*
X95532167Y-107938073D01*
X95703073Y-107767167D01*
X95837353Y-107566202D01*
X95929847Y-107342903D01*
X95977000Y-107105849D01*
X95977000Y-106864151D01*
X95929847Y-106627097D01*
X95870471Y-106483752D01*
X96228906Y-106125318D01*
X96246159Y-106111159D01*
X96302643Y-106042333D01*
X96344614Y-105963810D01*
X96360842Y-105910313D01*
X96370460Y-105878608D01*
X96379187Y-105790000D01*
X96377000Y-105767795D01*
X96377000Y-103861501D01*
X96828925Y-103409577D01*
X96846178Y-103395418D01*
X96902662Y-103326592D01*
X96944633Y-103248069D01*
X96958719Y-103201635D01*
X96970479Y-103162867D01*
X96979206Y-103074260D01*
X96977019Y-103052055D01*
X96977019Y-96490038D01*
X97153935Y-96313121D01*
X97171187Y-96298963D01*
X97227671Y-96230137D01*
X97269642Y-96151614D01*
X97295488Y-96066411D01*
X97302028Y-96000009D01*
X97302028Y-96000008D01*
X97304215Y-95977803D01*
X97302028Y-95955598D01*
X97302028Y-94060751D01*
X97611176Y-93751603D01*
X97611176Y-94070000D01*
X97621145Y-94171218D01*
X97650669Y-94268545D01*
X97698614Y-94358243D01*
X97729745Y-94396176D01*
X97725000Y-94396176D01*
X97651095Y-94403455D01*
X97580030Y-94425012D01*
X97514537Y-94460019D01*
X97457131Y-94507131D01*
X97410019Y-94564537D01*
X97375012Y-94630030D01*
X97353455Y-94701095D01*
X97346176Y-94775000D01*
X97346176Y-95925000D01*
X97353455Y-95998905D01*
X97375012Y-96069970D01*
X97410019Y-96135463D01*
X97421949Y-96150000D01*
X97410019Y-96164537D01*
X97375012Y-96230030D01*
X97353455Y-96301095D01*
X97346176Y-96375000D01*
X97346176Y-97525000D01*
X97353455Y-97598905D01*
X97375012Y-97669970D01*
X97410019Y-97735463D01*
X97457131Y-97792869D01*
X97514537Y-97839981D01*
X97580030Y-97874988D01*
X97651095Y-97896545D01*
X97725000Y-97903824D01*
X99125000Y-97903824D01*
X99198905Y-97896545D01*
X99269970Y-97874988D01*
X99335463Y-97839981D01*
X99392869Y-97792869D01*
X99439981Y-97735463D01*
X99474988Y-97669970D01*
X99496545Y-97598905D01*
X99503824Y-97525000D01*
X99503824Y-96375000D01*
X99496545Y-96301095D01*
X99474988Y-96230030D01*
X99439981Y-96164537D01*
X99428051Y-96150000D01*
X99439981Y-96135463D01*
X99474988Y-96069970D01*
X99496545Y-95998905D01*
X99503824Y-95925000D01*
X99503824Y-94775000D01*
X99496545Y-94701095D01*
X99474988Y-94630030D01*
X99439981Y-94564537D01*
X99392869Y-94507131D01*
X99335463Y-94460019D01*
X99269970Y-94425012D01*
X99198905Y-94403455D01*
X99125000Y-94396176D01*
X98810255Y-94396176D01*
X98841386Y-94358243D01*
X98889331Y-94268545D01*
X98918855Y-94171218D01*
X98928824Y-94070000D01*
X98928824Y-93730000D01*
X98918855Y-93628782D01*
X98902240Y-93574010D01*
X99020680Y-93524950D01*
X99131563Y-93450860D01*
X99225860Y-93356563D01*
X99299950Y-93245680D01*
X99350984Y-93122474D01*
X99377000Y-92991679D01*
X99377000Y-92858321D01*
X99350984Y-92727526D01*
X99299950Y-92604320D01*
X99225860Y-92493437D01*
X99131563Y-92399140D01*
X99030901Y-92331879D01*
X99685760Y-91677020D01*
X100980255Y-91677020D01*
X101002460Y-91679207D01*
X101024665Y-91677020D01*
X101091067Y-91670480D01*
X101176270Y-91644634D01*
X101254793Y-91602663D01*
X101323619Y-91546179D01*
X101337783Y-91528920D01*
X102246262Y-90620442D01*
X102245813Y-90625000D01*
G04 #@! TA.AperFunction,Conductor*
D26*
G36*
X102245813Y-90625000D02*
G01*
X102248001Y-90647215D01*
X102248000Y-92262775D01*
X101687777Y-92823000D01*
X100822204Y-92823000D01*
X100799999Y-92820813D01*
X100711392Y-92829540D01*
X100650538Y-92848000D01*
X100626190Y-92855386D01*
X100547667Y-92897357D01*
X100478841Y-92953841D01*
X100464681Y-92971095D01*
X100218548Y-93217228D01*
X100178782Y-93221145D01*
X100081455Y-93250669D01*
X99991757Y-93298614D01*
X99913136Y-93363136D01*
X99848614Y-93441757D01*
X99800669Y-93531455D01*
X99771145Y-93628782D01*
X99761176Y-93730000D01*
X99761176Y-94070000D01*
X99771145Y-94171218D01*
X99800669Y-94268545D01*
X99848614Y-94358243D01*
X99883129Y-94400300D01*
X99851095Y-94403455D01*
X99780030Y-94425012D01*
X99714537Y-94460019D01*
X99657131Y-94507131D01*
X99610019Y-94564537D01*
X99575012Y-94630030D01*
X99553455Y-94701095D01*
X99546176Y-94775000D01*
X99546176Y-95925000D01*
X99553455Y-95998905D01*
X99575012Y-96069970D01*
X99610019Y-96135463D01*
X99657131Y-96192869D01*
X99714537Y-96239981D01*
X99780030Y-96274988D01*
X99851095Y-96296545D01*
X99925000Y-96303824D01*
X101325000Y-96303824D01*
X101398905Y-96296545D01*
X101469970Y-96274988D01*
X101535463Y-96239981D01*
X101592869Y-96192869D01*
X101639981Y-96135463D01*
X101674988Y-96069970D01*
X101696545Y-95998905D01*
X101703824Y-95925000D01*
X101703824Y-94775000D01*
X101696545Y-94701095D01*
X101674988Y-94630030D01*
X101639981Y-94564537D01*
X101592869Y-94507131D01*
X101535463Y-94460019D01*
X101469970Y-94425012D01*
X101398905Y-94403455D01*
X101325000Y-94396176D01*
X100960255Y-94396176D01*
X100991386Y-94358243D01*
X101039331Y-94268545D01*
X101068855Y-94171218D01*
X101078824Y-94070000D01*
X101078824Y-93730000D01*
X101078529Y-93727000D01*
X101852795Y-93727000D01*
X101875000Y-93729187D01*
X101897205Y-93727000D01*
X101963607Y-93720460D01*
X102048810Y-93694614D01*
X102127333Y-93652643D01*
X102196159Y-93596159D01*
X102210323Y-93578900D01*
X102668712Y-93120512D01*
X102672358Y-93127333D01*
X102728842Y-93196159D01*
X102746096Y-93210319D01*
X103023000Y-93487223D01*
X103023000Y-93591679D01*
X103049016Y-93722474D01*
X103100050Y-93845680D01*
X103174140Y-93956563D01*
X103268437Y-94050860D01*
X103379320Y-94124950D01*
X103502526Y-94175984D01*
X103633321Y-94202000D01*
X103766679Y-94202000D01*
X103897474Y-94175984D01*
X104020680Y-94124950D01*
X104131563Y-94050860D01*
X104225860Y-93956563D01*
X104299950Y-93845680D01*
X104350984Y-93722474D01*
X104377000Y-93591679D01*
X104377000Y-93458321D01*
X104350984Y-93327526D01*
X104299950Y-93204320D01*
X104225860Y-93093437D01*
X104131563Y-92999140D01*
X104020680Y-92925050D01*
X103897474Y-92874016D01*
X103766679Y-92848000D01*
X103662223Y-92848000D01*
X103502000Y-92687777D01*
X103502000Y-92346142D01*
X103580000Y-92353824D01*
X103920000Y-92353824D01*
X104021218Y-92343855D01*
X104118545Y-92314331D01*
X104208243Y-92266386D01*
X104286864Y-92201864D01*
X104351386Y-92123243D01*
X104375000Y-92079065D01*
X104398614Y-92123243D01*
X104463136Y-92201864D01*
X104541757Y-92266386D01*
X104631455Y-92314331D01*
X104728782Y-92343855D01*
X104830000Y-92353824D01*
X105170000Y-92353824D01*
X105271218Y-92343855D01*
X105368545Y-92314331D01*
X105448001Y-92271861D01*
X105448000Y-102937775D01*
X103712777Y-104673000D01*
X101622204Y-104673000D01*
X101599999Y-104670813D01*
X101511392Y-104679540D01*
X101426190Y-104705386D01*
X101347667Y-104747357D01*
X101278841Y-104803841D01*
X101264685Y-104821090D01*
X100846095Y-105239682D01*
X100828842Y-105253841D01*
X100772358Y-105322667D01*
X100730386Y-105401191D01*
X100704540Y-105486393D01*
X100695813Y-105575000D01*
X100698001Y-105597215D01*
X100698001Y-105696176D01*
X100300000Y-105696176D01*
X100226095Y-105703455D01*
X100155030Y-105725012D01*
X100089537Y-105760019D01*
X100032131Y-105807131D01*
X99985019Y-105864537D01*
X99950012Y-105930030D01*
X99928455Y-106001095D01*
X99921176Y-106075000D01*
X99921176Y-107775000D01*
X99928455Y-107848905D01*
X99950012Y-107919970D01*
X99985019Y-107985463D01*
X100032131Y-108042869D01*
X100089537Y-108089981D01*
X100151311Y-108123000D01*
X98715936Y-108123000D01*
X98941533Y-107972261D01*
X99147261Y-107766533D01*
X99308901Y-107524622D01*
X99420240Y-107255825D01*
X99477000Y-106970472D01*
X99477000Y-106679528D01*
X99420240Y-106394175D01*
X99308901Y-106125378D01*
X99147261Y-105883467D01*
X98941533Y-105677739D01*
X98699622Y-105516099D01*
X98430825Y-105404760D01*
X98145472Y-105348000D01*
X97854528Y-105348000D01*
X97569175Y-105404760D01*
X97300378Y-105516099D01*
X97058467Y-105677739D01*
X96852739Y-105883467D01*
X96691099Y-106125378D01*
X96579760Y-106394175D01*
X96523000Y-106679528D01*
X96523000Y-106970472D01*
X96579760Y-107255825D01*
X96691099Y-107524622D01*
X96852739Y-107766533D01*
X97058467Y-107972261D01*
X97284064Y-108123000D01*
X95208930Y-108123000D01*
X95331202Y-108072353D01*
X95532167Y-107938073D01*
X95703073Y-107767167D01*
X95837353Y-107566202D01*
X95929847Y-107342903D01*
X95977000Y-107105849D01*
X95977000Y-106864151D01*
X95929847Y-106627097D01*
X95870471Y-106483752D01*
X96228906Y-106125318D01*
X96246159Y-106111159D01*
X96302643Y-106042333D01*
X96344614Y-105963810D01*
X96360842Y-105910313D01*
X96370460Y-105878608D01*
X96379187Y-105790000D01*
X96377000Y-105767795D01*
X96377000Y-103861501D01*
X96828925Y-103409577D01*
X96846178Y-103395418D01*
X96902662Y-103326592D01*
X96944633Y-103248069D01*
X96958719Y-103201635D01*
X96970479Y-103162867D01*
X96979206Y-103074260D01*
X96977019Y-103052055D01*
X96977019Y-96490038D01*
X97153935Y-96313121D01*
X97171187Y-96298963D01*
X97227671Y-96230137D01*
X97269642Y-96151614D01*
X97295488Y-96066411D01*
X97302028Y-96000009D01*
X97302028Y-96000008D01*
X97304215Y-95977803D01*
X97302028Y-95955598D01*
X97302028Y-94060751D01*
X97611176Y-93751603D01*
X97611176Y-94070000D01*
X97621145Y-94171218D01*
X97650669Y-94268545D01*
X97698614Y-94358243D01*
X97729745Y-94396176D01*
X97725000Y-94396176D01*
X97651095Y-94403455D01*
X97580030Y-94425012D01*
X97514537Y-94460019D01*
X97457131Y-94507131D01*
X97410019Y-94564537D01*
X97375012Y-94630030D01*
X97353455Y-94701095D01*
X97346176Y-94775000D01*
X97346176Y-95925000D01*
X97353455Y-95998905D01*
X97375012Y-96069970D01*
X97410019Y-96135463D01*
X97421949Y-96150000D01*
X97410019Y-96164537D01*
X97375012Y-96230030D01*
X97353455Y-96301095D01*
X97346176Y-96375000D01*
X97346176Y-97525000D01*
X97353455Y-97598905D01*
X97375012Y-97669970D01*
X97410019Y-97735463D01*
X97457131Y-97792869D01*
X97514537Y-97839981D01*
X97580030Y-97874988D01*
X97651095Y-97896545D01*
X97725000Y-97903824D01*
X99125000Y-97903824D01*
X99198905Y-97896545D01*
X99269970Y-97874988D01*
X99335463Y-97839981D01*
X99392869Y-97792869D01*
X99439981Y-97735463D01*
X99474988Y-97669970D01*
X99496545Y-97598905D01*
X99503824Y-97525000D01*
X99503824Y-96375000D01*
X99496545Y-96301095D01*
X99474988Y-96230030D01*
X99439981Y-96164537D01*
X99428051Y-96150000D01*
X99439981Y-96135463D01*
X99474988Y-96069970D01*
X99496545Y-95998905D01*
X99503824Y-95925000D01*
X99503824Y-94775000D01*
X99496545Y-94701095D01*
X99474988Y-94630030D01*
X99439981Y-94564537D01*
X99392869Y-94507131D01*
X99335463Y-94460019D01*
X99269970Y-94425012D01*
X99198905Y-94403455D01*
X99125000Y-94396176D01*
X98810255Y-94396176D01*
X98841386Y-94358243D01*
X98889331Y-94268545D01*
X98918855Y-94171218D01*
X98928824Y-94070000D01*
X98928824Y-93730000D01*
X98918855Y-93628782D01*
X98902240Y-93574010D01*
X99020680Y-93524950D01*
X99131563Y-93450860D01*
X99225860Y-93356563D01*
X99299950Y-93245680D01*
X99350984Y-93122474D01*
X99377000Y-92991679D01*
X99377000Y-92858321D01*
X99350984Y-92727526D01*
X99299950Y-92604320D01*
X99225860Y-92493437D01*
X99131563Y-92399140D01*
X99030901Y-92331879D01*
X99685760Y-91677020D01*
X100980255Y-91677020D01*
X101002460Y-91679207D01*
X101024665Y-91677020D01*
X101091067Y-91670480D01*
X101176270Y-91644634D01*
X101254793Y-91602663D01*
X101323619Y-91546179D01*
X101337783Y-91528920D01*
X102246262Y-90620442D01*
X102245813Y-90625000D01*
G37*
G04 #@! TD.AperFunction*
D32*
X105748001Y-105796556D02*
X105648798Y-105837647D01*
X105447833Y-105971927D01*
X105276927Y-106142833D01*
X105142647Y-106343798D01*
X105050153Y-106567097D01*
X105003000Y-106804151D01*
X105003000Y-107045849D01*
X105050153Y-107282903D01*
X105142647Y-107506202D01*
X105276927Y-107707167D01*
X105447833Y-107878073D01*
X105648798Y-108012353D01*
X105872097Y-108104847D01*
X105963358Y-108123000D01*
X102148689Y-108123000D01*
X102210463Y-108089981D01*
X102267869Y-108042869D01*
X102314981Y-107985463D01*
X102349988Y-107919970D01*
X102371545Y-107848905D01*
X102378824Y-107775000D01*
X102378824Y-106075000D01*
X102371545Y-106001095D01*
X102349988Y-105930030D01*
X102314981Y-105864537D01*
X102267869Y-105807131D01*
X102210463Y-105760019D01*
X102144970Y-105725012D01*
X102073905Y-105703455D01*
X102000000Y-105696176D01*
X101668048Y-105696176D01*
X101787224Y-105577000D01*
X103877795Y-105577000D01*
X103900000Y-105579187D01*
X103922205Y-105577000D01*
X103988607Y-105570460D01*
X104073810Y-105544614D01*
X104152333Y-105502643D01*
X104221159Y-105446159D01*
X104235323Y-105428900D01*
X105748001Y-103916224D01*
X105748001Y-105796556D01*
G04 #@! TA.AperFunction,Conductor*
D26*
G36*
X105748001Y-105796556D02*
G01*
X105648798Y-105837647D01*
X105447833Y-105971927D01*
X105276927Y-106142833D01*
X105142647Y-106343798D01*
X105050153Y-106567097D01*
X105003000Y-106804151D01*
X105003000Y-107045849D01*
X105050153Y-107282903D01*
X105142647Y-107506202D01*
X105276927Y-107707167D01*
X105447833Y-107878073D01*
X105648798Y-108012353D01*
X105872097Y-108104847D01*
X105963358Y-108123000D01*
X102148689Y-108123000D01*
X102210463Y-108089981D01*
X102267869Y-108042869D01*
X102314981Y-107985463D01*
X102349988Y-107919970D01*
X102371545Y-107848905D01*
X102378824Y-107775000D01*
X102378824Y-106075000D01*
X102371545Y-106001095D01*
X102349988Y-105930030D01*
X102314981Y-105864537D01*
X102267869Y-105807131D01*
X102210463Y-105760019D01*
X102144970Y-105725012D01*
X102073905Y-105703455D01*
X102000000Y-105696176D01*
X101668048Y-105696176D01*
X101787224Y-105577000D01*
X103877795Y-105577000D01*
X103900000Y-105579187D01*
X103922205Y-105577000D01*
X103988607Y-105570460D01*
X104073810Y-105544614D01*
X104152333Y-105502643D01*
X104221159Y-105446159D01*
X104235323Y-105428900D01*
X105748001Y-103916224D01*
X105748001Y-105796556D01*
G37*
G04 #@! TD.AperFunction*
D32*
X95773011Y-102762765D02*
X95222964Y-103312813D01*
X95107903Y-103265153D01*
X94870849Y-103218000D01*
X94818519Y-103218000D01*
X94800000Y-103216176D01*
X93502000Y-103216176D01*
X93502000Y-100593824D01*
X94800000Y-100593824D01*
X94818519Y-100592000D01*
X94870849Y-100592000D01*
X95107903Y-100544847D01*
X95331202Y-100452353D01*
X95532167Y-100318073D01*
X95703073Y-100147167D01*
X95773011Y-100042498D01*
X95773011Y-102762765D01*
G04 #@! TA.AperFunction,Conductor*
D26*
G36*
X95773011Y-102762765D02*
G01*
X95222964Y-103312813D01*
X95107903Y-103265153D01*
X94870849Y-103218000D01*
X94818519Y-103218000D01*
X94800000Y-103216176D01*
X93502000Y-103216176D01*
X93502000Y-100593824D01*
X94800000Y-100593824D01*
X94818519Y-100592000D01*
X94870849Y-100592000D01*
X95107903Y-100544847D01*
X95331202Y-100452353D01*
X95532167Y-100318073D01*
X95703073Y-100147167D01*
X95773011Y-100042498D01*
X95773011Y-102762765D01*
G37*
G04 #@! TD.AperFunction*
D32*
X111767833Y-100318073D02*
X111968798Y-100452353D01*
X112192097Y-100544847D01*
X112429151Y-100592000D01*
X112481481Y-100592000D01*
X112500000Y-100593824D01*
X113788000Y-100593824D01*
X113788000Y-103216176D01*
X112500000Y-103216176D01*
X112481481Y-103218000D01*
X112429151Y-103218000D01*
X112192097Y-103265153D01*
X112091179Y-103306955D01*
X111752000Y-102967777D01*
X111752000Y-100302240D01*
X111767833Y-100318073D01*
G04 #@! TA.AperFunction,Conductor*
D26*
G36*
X111767833Y-100318073D02*
G01*
X111968798Y-100452353D01*
X112192097Y-100544847D01*
X112429151Y-100592000D01*
X112481481Y-100592000D01*
X112500000Y-100593824D01*
X113788000Y-100593824D01*
X113788000Y-103216176D01*
X112500000Y-103216176D01*
X112481481Y-103218000D01*
X112429151Y-103218000D01*
X112192097Y-103265153D01*
X112091179Y-103306955D01*
X111752000Y-102967777D01*
X111752000Y-100302240D01*
X111767833Y-100318073D01*
G37*
G04 #@! TD.AperFunction*
D32*
X109647972Y-89880032D02*
X109647973Y-90505591D01*
X109645785Y-90527806D01*
X109654512Y-90616413D01*
X109680358Y-90701615D01*
X109717356Y-90770833D01*
X109722330Y-90780139D01*
X109778814Y-90848965D01*
X109796067Y-90863124D01*
X110247980Y-91315039D01*
X110247980Y-91533757D01*
X109662407Y-90948184D01*
X109648243Y-90930925D01*
X109579417Y-90874441D01*
X109500894Y-90832470D01*
X109415691Y-90806624D01*
X109349289Y-90800084D01*
X109327084Y-90797897D01*
X109304879Y-90800084D01*
X107287142Y-90800084D01*
X106742000Y-90254943D01*
X106742000Y-89994924D01*
X106760584Y-89933659D01*
X106768824Y-89850000D01*
X106768824Y-89247564D01*
X106806579Y-89216579D01*
X106853464Y-89159450D01*
X106883197Y-89103824D01*
X107515000Y-89103824D01*
X107598659Y-89095584D01*
X107659924Y-89077000D01*
X108844941Y-89077000D01*
X109647972Y-89880032D01*
G04 #@! TA.AperFunction,Conductor*
D26*
G36*
X109647972Y-89880032D02*
G01*
X109647973Y-90505591D01*
X109645785Y-90527806D01*
X109654512Y-90616413D01*
X109680358Y-90701615D01*
X109717356Y-90770833D01*
X109722330Y-90780139D01*
X109778814Y-90848965D01*
X109796067Y-90863124D01*
X110247980Y-91315039D01*
X110247980Y-91533757D01*
X109662407Y-90948184D01*
X109648243Y-90930925D01*
X109579417Y-90874441D01*
X109500894Y-90832470D01*
X109415691Y-90806624D01*
X109349289Y-90800084D01*
X109327084Y-90797897D01*
X109304879Y-90800084D01*
X107287142Y-90800084D01*
X106742000Y-90254943D01*
X106742000Y-89994924D01*
X106760584Y-89933659D01*
X106768824Y-89850000D01*
X106768824Y-89247564D01*
X106806579Y-89216579D01*
X106853464Y-89159450D01*
X106883197Y-89103824D01*
X107515000Y-89103824D01*
X107598659Y-89095584D01*
X107659924Y-89077000D01*
X108844941Y-89077000D01*
X109647972Y-89880032D01*
G37*
G04 #@! TD.AperFunction*
D32*
X95313588Y-87967813D02*
X95313599Y-87967822D01*
X96374685Y-89028910D01*
X96388841Y-89046159D01*
X96457667Y-89102643D01*
X96536190Y-89144614D01*
X96601562Y-89164444D01*
X96621392Y-89170460D01*
X96709999Y-89179187D01*
X96732204Y-89177000D01*
X98670656Y-89177000D01*
X98692861Y-89179187D01*
X98708089Y-89177687D01*
X96552777Y-91333000D01*
X95907439Y-91333000D01*
X95837353Y-91163798D01*
X95703073Y-90962833D01*
X95532167Y-90791927D01*
X95331202Y-90657647D01*
X95107903Y-90565153D01*
X94870849Y-90518000D01*
X94808519Y-90518000D01*
X94790000Y-90516176D01*
X93502000Y-90516176D01*
X93502000Y-87893824D01*
X94800000Y-87893824D01*
X94818519Y-87892000D01*
X94870849Y-87892000D01*
X95107903Y-87844847D01*
X95166394Y-87820619D01*
X95313588Y-87967813D01*
G04 #@! TA.AperFunction,Conductor*
D26*
G36*
X95313588Y-87967813D02*
G01*
X95313599Y-87967822D01*
X96374685Y-89028910D01*
X96388841Y-89046159D01*
X96457667Y-89102643D01*
X96536190Y-89144614D01*
X96601562Y-89164444D01*
X96621392Y-89170460D01*
X96709999Y-89179187D01*
X96732204Y-89177000D01*
X98670656Y-89177000D01*
X98692861Y-89179187D01*
X98708089Y-89177687D01*
X96552777Y-91333000D01*
X95907439Y-91333000D01*
X95837353Y-91163798D01*
X95703073Y-90962833D01*
X95532167Y-90791927D01*
X95331202Y-90657647D01*
X95107903Y-90565153D01*
X94870849Y-90518000D01*
X94808519Y-90518000D01*
X94790000Y-90516176D01*
X93502000Y-90516176D01*
X93502000Y-87893824D01*
X94800000Y-87893824D01*
X94818519Y-87892000D01*
X94870849Y-87892000D01*
X95107903Y-87844847D01*
X95166394Y-87820619D01*
X95313588Y-87967813D01*
G37*
G04 #@! TD.AperFunction*
D32*
X111370153Y-87022903D02*
X111462647Y-87246202D01*
X111596927Y-87447167D01*
X111767833Y-87618073D01*
X111968798Y-87752353D01*
X112192097Y-87844847D01*
X112429151Y-87892000D01*
X112481481Y-87892000D01*
X112500000Y-87893824D01*
X113788000Y-87893824D01*
X113788000Y-90516176D01*
X112500000Y-90516176D01*
X112481481Y-90518000D01*
X112429151Y-90518000D01*
X112192097Y-90565153D01*
X112091179Y-90606955D01*
X111452000Y-89967777D01*
X111452000Y-89342207D01*
X111454187Y-89320002D01*
X111445460Y-89231394D01*
X111419614Y-89146192D01*
X111396336Y-89102642D01*
X111377643Y-89067669D01*
X111321159Y-88998843D01*
X111303906Y-88984684D01*
X109640321Y-87321100D01*
X109626157Y-87303841D01*
X109557331Y-87247357D01*
X109478808Y-87205386D01*
X109393605Y-87179540D01*
X109327203Y-87173000D01*
X109304998Y-87170813D01*
X109282793Y-87173000D01*
X108978824Y-87173000D01*
X108978824Y-86941990D01*
X111354058Y-86941990D01*
X111370153Y-87022903D01*
G04 #@! TA.AperFunction,Conductor*
D26*
G36*
X111370153Y-87022903D02*
G01*
X111462647Y-87246202D01*
X111596927Y-87447167D01*
X111767833Y-87618073D01*
X111968798Y-87752353D01*
X112192097Y-87844847D01*
X112429151Y-87892000D01*
X112481481Y-87892000D01*
X112500000Y-87893824D01*
X113788000Y-87893824D01*
X113788000Y-90516176D01*
X112500000Y-90516176D01*
X112481481Y-90518000D01*
X112429151Y-90518000D01*
X112192097Y-90565153D01*
X112091179Y-90606955D01*
X111452000Y-89967777D01*
X111452000Y-89342207D01*
X111454187Y-89320002D01*
X111445460Y-89231394D01*
X111419614Y-89146192D01*
X111396336Y-89102642D01*
X111377643Y-89067669D01*
X111321159Y-88998843D01*
X111303906Y-88984684D01*
X109640321Y-87321100D01*
X109626157Y-87303841D01*
X109557331Y-87247357D01*
X109478808Y-87205386D01*
X109393605Y-87179540D01*
X109327203Y-87173000D01*
X109304998Y-87170813D01*
X109282793Y-87173000D01*
X108978824Y-87173000D01*
X108978824Y-86941990D01*
X111354058Y-86941990D01*
X111370153Y-87022903D01*
G37*
G04 #@! TD.AperFunction*
D32*
X100473421Y-89216579D02*
X100530550Y-89263464D01*
X100595728Y-89298303D01*
X100610493Y-89302782D01*
X100040277Y-89873000D01*
X99781224Y-89873000D01*
X100457295Y-89196929D01*
X100473421Y-89216579D01*
G04 #@! TA.AperFunction,Conductor*
D26*
G36*
X100473421Y-89216579D02*
G01*
X100530550Y-89263464D01*
X100595728Y-89298303D01*
X100610493Y-89302782D01*
X100040277Y-89873000D01*
X99781224Y-89873000D01*
X100457295Y-89196929D01*
X100473421Y-89216579D01*
G37*
G04 #@! TD.AperFunction*
D32*
X96894681Y-87278905D02*
X96908841Y-87296159D01*
X96977667Y-87352643D01*
X97054190Y-87393545D01*
X97056190Y-87394614D01*
X97141392Y-87420460D01*
X97230000Y-87429187D01*
X97252205Y-87427000D01*
X97711176Y-87427000D01*
X97711176Y-87755000D01*
X97721145Y-87856218D01*
X97750669Y-87953545D01*
X97761068Y-87973000D01*
X97021502Y-87973000D01*
X96326988Y-87278487D01*
X96326988Y-86711211D01*
X96894681Y-87278905D01*
G04 #@! TA.AperFunction,Conductor*
D26*
G36*
X96894681Y-87278905D02*
G01*
X96908841Y-87296159D01*
X96977667Y-87352643D01*
X97054190Y-87393545D01*
X97056190Y-87394614D01*
X97141392Y-87420460D01*
X97230000Y-87429187D01*
X97252205Y-87427000D01*
X97711176Y-87427000D01*
X97711176Y-87755000D01*
X97721145Y-87856218D01*
X97750669Y-87953545D01*
X97761068Y-87973000D01*
X97021502Y-87973000D01*
X96326988Y-87278487D01*
X96326988Y-86711211D01*
X96894681Y-87278905D01*
G37*
G04 #@! TD.AperFunction*
D32*
X105063000Y-87398000D02*
X102317000Y-87398000D01*
X102317000Y-84652000D01*
X105063000Y-84652000D01*
X105063000Y-87398000D01*
G04 #@! TA.AperFunction,Conductor*
D26*
G36*
X105063000Y-87398000D02*
G01*
X102317000Y-87398000D01*
X102317000Y-84652000D01*
X105063000Y-84652000D01*
X105063000Y-87398000D01*
G37*
G04 #@! TD.AperFunction*
D32*
X112192097Y-82764847D02*
X112429151Y-82812000D01*
X112481481Y-82812000D01*
X112500000Y-82813824D01*
X113788001Y-82813824D01*
X113788000Y-82896176D01*
X112500000Y-82896176D01*
X112481481Y-82898000D01*
X112429151Y-82898000D01*
X112192097Y-82945153D01*
X111968798Y-83037647D01*
X111767833Y-83171927D01*
X111596927Y-83342833D01*
X111462647Y-83543798D01*
X111370153Y-83767097D01*
X111323000Y-84004151D01*
X111323000Y-84245849D01*
X111370153Y-84482903D01*
X111462647Y-84706202D01*
X111596927Y-84907167D01*
X111767833Y-85078073D01*
X111968798Y-85212353D01*
X112192097Y-85304847D01*
X112429151Y-85352000D01*
X112481481Y-85352000D01*
X112500000Y-85353824D01*
X113788000Y-85353824D01*
X113788000Y-85436176D01*
X112500000Y-85436176D01*
X112481481Y-85438000D01*
X112429151Y-85438000D01*
X112192097Y-85485153D01*
X111968798Y-85577647D01*
X111767833Y-85711927D01*
X111596927Y-85882833D01*
X111493255Y-86037990D01*
X110129041Y-86037990D01*
X110130465Y-86037229D01*
X110208328Y-85973328D01*
X110272229Y-85895465D01*
X110319711Y-85806632D01*
X110348951Y-85710242D01*
X110358824Y-85610000D01*
X110358824Y-85240000D01*
X110348951Y-85139758D01*
X110319711Y-85043368D01*
X110272229Y-84954535D01*
X110208328Y-84876672D01*
X110130465Y-84812771D01*
X110041632Y-84765289D01*
X110001199Y-84753024D01*
X112048753Y-82705472D01*
X112192097Y-82764847D01*
G04 #@! TA.AperFunction,Conductor*
D26*
G36*
X112192097Y-82764847D02*
G01*
X112429151Y-82812000D01*
X112481481Y-82812000D01*
X112500000Y-82813824D01*
X113788001Y-82813824D01*
X113788000Y-82896176D01*
X112500000Y-82896176D01*
X112481481Y-82898000D01*
X112429151Y-82898000D01*
X112192097Y-82945153D01*
X111968798Y-83037647D01*
X111767833Y-83171927D01*
X111596927Y-83342833D01*
X111462647Y-83543798D01*
X111370153Y-83767097D01*
X111323000Y-84004151D01*
X111323000Y-84245849D01*
X111370153Y-84482903D01*
X111462647Y-84706202D01*
X111596927Y-84907167D01*
X111767833Y-85078073D01*
X111968798Y-85212353D01*
X112192097Y-85304847D01*
X112429151Y-85352000D01*
X112481481Y-85352000D01*
X112500000Y-85353824D01*
X113788000Y-85353824D01*
X113788000Y-85436176D01*
X112500000Y-85436176D01*
X112481481Y-85438000D01*
X112429151Y-85438000D01*
X112192097Y-85485153D01*
X111968798Y-85577647D01*
X111767833Y-85711927D01*
X111596927Y-85882833D01*
X111493255Y-86037990D01*
X110129041Y-86037990D01*
X110130465Y-86037229D01*
X110208328Y-85973328D01*
X110272229Y-85895465D01*
X110319711Y-85806632D01*
X110348951Y-85710242D01*
X110358824Y-85610000D01*
X110358824Y-85240000D01*
X110348951Y-85139758D01*
X110319711Y-85043368D01*
X110272229Y-84954535D01*
X110208328Y-84876672D01*
X110130465Y-84812771D01*
X110041632Y-84765289D01*
X110001199Y-84753024D01*
X112048753Y-82705472D01*
X112192097Y-82764847D01*
G37*
G04 #@! TD.AperFunction*
D32*
X97070405Y-84233908D02*
X97084561Y-84251157D01*
X97153387Y-84307641D01*
X97231910Y-84349612D01*
X97297282Y-84369442D01*
X97317112Y-84375458D01*
X97405719Y-84384185D01*
X97427924Y-84381998D01*
X97998181Y-84381998D01*
X97983000Y-84458321D01*
X97983000Y-84591679D01*
X98007948Y-84717107D01*
X97979363Y-84736207D01*
X97885066Y-84830504D01*
X97810976Y-84941387D01*
X97768889Y-85042993D01*
X97750259Y-85042993D01*
X97619464Y-85069009D01*
X97496258Y-85120043D01*
X97385375Y-85194133D01*
X97366081Y-85213427D01*
X97350984Y-85137526D01*
X97299950Y-85014320D01*
X97225860Y-84903437D01*
X97131563Y-84809140D01*
X97020680Y-84735050D01*
X96897474Y-84684016D01*
X96766679Y-84658000D01*
X96633321Y-84658000D01*
X96626999Y-84659257D01*
X96626999Y-83795038D01*
X96627406Y-83790908D01*
X97070405Y-84233908D01*
G04 #@! TA.AperFunction,Conductor*
D26*
G36*
X97070405Y-84233908D02*
G01*
X97084561Y-84251157D01*
X97153387Y-84307641D01*
X97231910Y-84349612D01*
X97297282Y-84369442D01*
X97317112Y-84375458D01*
X97405719Y-84384185D01*
X97427924Y-84381998D01*
X97998181Y-84381998D01*
X97983000Y-84458321D01*
X97983000Y-84591679D01*
X98007948Y-84717107D01*
X97979363Y-84736207D01*
X97885066Y-84830504D01*
X97810976Y-84941387D01*
X97768889Y-85042993D01*
X97750259Y-85042993D01*
X97619464Y-85069009D01*
X97496258Y-85120043D01*
X97385375Y-85194133D01*
X97366081Y-85213427D01*
X97350984Y-85137526D01*
X97299950Y-85014320D01*
X97225860Y-84903437D01*
X97131563Y-84809140D01*
X97020680Y-84735050D01*
X96897474Y-84684016D01*
X96766679Y-84658000D01*
X96633321Y-84658000D01*
X96626999Y-84659257D01*
X96626999Y-83795038D01*
X96627406Y-83790908D01*
X97070405Y-84233908D01*
G37*
G04 #@! TD.AperFunction*
D32*
X96022971Y-68357195D02*
X96022970Y-82977043D01*
X96022563Y-82981174D01*
X95991999Y-82950610D01*
X95991999Y-82497203D01*
X95994186Y-82474998D01*
X95985459Y-82386391D01*
X95959613Y-82301189D01*
X95945023Y-82273893D01*
X95917642Y-82222666D01*
X95861158Y-82153840D01*
X95847214Y-82142396D01*
X95929847Y-81942903D01*
X95977000Y-81705849D01*
X95977000Y-81464151D01*
X95929847Y-81227097D01*
X95837353Y-81003798D01*
X95703073Y-80802833D01*
X95532167Y-80631927D01*
X95331202Y-80497647D01*
X95107903Y-80405153D01*
X94870849Y-80358000D01*
X94818519Y-80358000D01*
X94800000Y-80356176D01*
X93502000Y-80356176D01*
X93502000Y-80273824D01*
X94810000Y-80273824D01*
X94828519Y-80272000D01*
X94870849Y-80272000D01*
X95107903Y-80224847D01*
X95331202Y-80132353D01*
X95532167Y-79998073D01*
X95703073Y-79827167D01*
X95837353Y-79626202D01*
X95929847Y-79402903D01*
X95977000Y-79165849D01*
X95977000Y-78924151D01*
X95929847Y-78687097D01*
X95837353Y-78463798D01*
X95703073Y-78262833D01*
X95532167Y-78091927D01*
X95331202Y-77957647D01*
X95107903Y-77865153D01*
X94870849Y-77818000D01*
X94828519Y-77818000D01*
X94810000Y-77816176D01*
X93502000Y-77816176D01*
X93502000Y-75193824D01*
X94800000Y-75193824D01*
X94818519Y-75192000D01*
X94870849Y-75192000D01*
X95107903Y-75144847D01*
X95331202Y-75052353D01*
X95532167Y-74918073D01*
X95703073Y-74747167D01*
X95837353Y-74546202D01*
X95929847Y-74322903D01*
X95977000Y-74085849D01*
X95977000Y-73844151D01*
X95929847Y-73607097D01*
X95837353Y-73383798D01*
X95703073Y-73182833D01*
X95532167Y-73011927D01*
X95331202Y-72877647D01*
X95107903Y-72785153D01*
X94870849Y-72738000D01*
X94818519Y-72738000D01*
X94800000Y-72736176D01*
X93502000Y-72736176D01*
X93502000Y-72653824D01*
X94800000Y-72653824D01*
X94818519Y-72652000D01*
X94870849Y-72652000D01*
X95107903Y-72604847D01*
X95331202Y-72512353D01*
X95532167Y-72378073D01*
X95703073Y-72207167D01*
X95837353Y-72006202D01*
X95929847Y-71782903D01*
X95977000Y-71545849D01*
X95977000Y-71304151D01*
X95929847Y-71067097D01*
X95837353Y-70843798D01*
X95703073Y-70642833D01*
X95532167Y-70471927D01*
X95331202Y-70337647D01*
X95107903Y-70245153D01*
X94870849Y-70198000D01*
X94818519Y-70198000D01*
X94800000Y-70196176D01*
X93502000Y-70196176D01*
X93502000Y-70113824D01*
X94800000Y-70113824D01*
X94818519Y-70112000D01*
X94870849Y-70112000D01*
X95107903Y-70064847D01*
X95331202Y-69972353D01*
X95532167Y-69838073D01*
X95703073Y-69667167D01*
X95837353Y-69466202D01*
X95929847Y-69242903D01*
X95977000Y-69005849D01*
X95977000Y-68764151D01*
X95929847Y-68527097D01*
X95837353Y-68303798D01*
X95703073Y-68102833D01*
X95532167Y-67931927D01*
X95331202Y-67797647D01*
X95107903Y-67705153D01*
X94870849Y-67658000D01*
X94818519Y-67658000D01*
X94800000Y-67656176D01*
X93502000Y-67656176D01*
X93502000Y-67563824D01*
X94588047Y-67563824D01*
X94629151Y-67572000D01*
X94870849Y-67572000D01*
X95107903Y-67524847D01*
X95166395Y-67500619D01*
X96022971Y-68357195D01*
G04 #@! TA.AperFunction,Conductor*
D26*
G36*
X96022971Y-68357195D02*
G01*
X96022970Y-82977043D01*
X96022563Y-82981174D01*
X95991999Y-82950610D01*
X95991999Y-82497203D01*
X95994186Y-82474998D01*
X95985459Y-82386391D01*
X95959613Y-82301189D01*
X95945023Y-82273893D01*
X95917642Y-82222666D01*
X95861158Y-82153840D01*
X95847214Y-82142396D01*
X95929847Y-81942903D01*
X95977000Y-81705849D01*
X95977000Y-81464151D01*
X95929847Y-81227097D01*
X95837353Y-81003798D01*
X95703073Y-80802833D01*
X95532167Y-80631927D01*
X95331202Y-80497647D01*
X95107903Y-80405153D01*
X94870849Y-80358000D01*
X94818519Y-80358000D01*
X94800000Y-80356176D01*
X93502000Y-80356176D01*
X93502000Y-80273824D01*
X94810000Y-80273824D01*
X94828519Y-80272000D01*
X94870849Y-80272000D01*
X95107903Y-80224847D01*
X95331202Y-80132353D01*
X95532167Y-79998073D01*
X95703073Y-79827167D01*
X95837353Y-79626202D01*
X95929847Y-79402903D01*
X95977000Y-79165849D01*
X95977000Y-78924151D01*
X95929847Y-78687097D01*
X95837353Y-78463798D01*
X95703073Y-78262833D01*
X95532167Y-78091927D01*
X95331202Y-77957647D01*
X95107903Y-77865153D01*
X94870849Y-77818000D01*
X94828519Y-77818000D01*
X94810000Y-77816176D01*
X93502000Y-77816176D01*
X93502000Y-75193824D01*
X94800000Y-75193824D01*
X94818519Y-75192000D01*
X94870849Y-75192000D01*
X95107903Y-75144847D01*
X95331202Y-75052353D01*
X95532167Y-74918073D01*
X95703073Y-74747167D01*
X95837353Y-74546202D01*
X95929847Y-74322903D01*
X95977000Y-74085849D01*
X95977000Y-73844151D01*
X95929847Y-73607097D01*
X95837353Y-73383798D01*
X95703073Y-73182833D01*
X95532167Y-73011927D01*
X95331202Y-72877647D01*
X95107903Y-72785153D01*
X94870849Y-72738000D01*
X94818519Y-72738000D01*
X94800000Y-72736176D01*
X93502000Y-72736176D01*
X93502000Y-72653824D01*
X94800000Y-72653824D01*
X94818519Y-72652000D01*
X94870849Y-72652000D01*
X95107903Y-72604847D01*
X95331202Y-72512353D01*
X95532167Y-72378073D01*
X95703073Y-72207167D01*
X95837353Y-72006202D01*
X95929847Y-71782903D01*
X95977000Y-71545849D01*
X95977000Y-71304151D01*
X95929847Y-71067097D01*
X95837353Y-70843798D01*
X95703073Y-70642833D01*
X95532167Y-70471927D01*
X95331202Y-70337647D01*
X95107903Y-70245153D01*
X94870849Y-70198000D01*
X94818519Y-70198000D01*
X94800000Y-70196176D01*
X93502000Y-70196176D01*
X93502000Y-70113824D01*
X94800000Y-70113824D01*
X94818519Y-70112000D01*
X94870849Y-70112000D01*
X95107903Y-70064847D01*
X95331202Y-69972353D01*
X95532167Y-69838073D01*
X95703073Y-69667167D01*
X95837353Y-69466202D01*
X95929847Y-69242903D01*
X95977000Y-69005849D01*
X95977000Y-68764151D01*
X95929847Y-68527097D01*
X95837353Y-68303798D01*
X95703073Y-68102833D01*
X95532167Y-67931927D01*
X95331202Y-67797647D01*
X95107903Y-67705153D01*
X94870849Y-67658000D01*
X94818519Y-67658000D01*
X94800000Y-67656176D01*
X93502000Y-67656176D01*
X93502000Y-67563824D01*
X94588047Y-67563824D01*
X94629151Y-67572000D01*
X94870849Y-67572000D01*
X95107903Y-67524847D01*
X95166395Y-67500619D01*
X96022971Y-68357195D01*
G37*
G04 #@! TD.AperFunction*
D32*
X98075669Y-71831455D02*
X98046145Y-71928782D01*
X98036176Y-72030000D01*
X98036176Y-72370000D01*
X98046145Y-72471218D01*
X98075669Y-72568545D01*
X98123614Y-72658243D01*
X98188136Y-72736864D01*
X98266757Y-72801386D01*
X98356455Y-72849331D01*
X98453782Y-72878855D01*
X98555000Y-72888824D01*
X98835000Y-72888824D01*
X98936218Y-72878855D01*
X99033545Y-72849331D01*
X99123243Y-72801386D01*
X99175000Y-72758911D01*
X99226757Y-72801386D01*
X99316455Y-72849331D01*
X99413782Y-72878855D01*
X99515000Y-72888824D01*
X99704600Y-72888824D01*
X99973001Y-73157225D01*
X99973001Y-73460812D01*
X99888545Y-73415669D01*
X99791218Y-73386145D01*
X99690000Y-73376176D01*
X99410000Y-73376176D01*
X99308782Y-73386145D01*
X99211455Y-73415669D01*
X99121757Y-73463614D01*
X99043136Y-73528136D01*
X98978614Y-73606757D01*
X98930669Y-73696455D01*
X98901145Y-73793782D01*
X98891176Y-73895000D01*
X98891176Y-74235000D01*
X98895480Y-74278698D01*
X98887134Y-74279520D01*
X98828357Y-74297350D01*
X98801932Y-74305366D01*
X98723409Y-74347337D01*
X98654583Y-74403821D01*
X98640423Y-74421075D01*
X97996096Y-75065403D01*
X97978842Y-75079563D01*
X97925265Y-75144847D01*
X97922358Y-75148389D01*
X97880386Y-75226913D01*
X97854540Y-75312115D01*
X97845813Y-75400722D01*
X97848001Y-75422936D01*
X97848001Y-75475112D01*
X97824766Y-75503424D01*
X97781673Y-75584046D01*
X97755136Y-75671525D01*
X97746176Y-75762500D01*
X97746176Y-76112500D01*
X97755136Y-76203475D01*
X97781673Y-76290954D01*
X97824766Y-76371576D01*
X97882759Y-76442241D01*
X97953424Y-76500234D01*
X98034046Y-76543327D01*
X98121525Y-76569864D01*
X98212500Y-76578824D01*
X98387500Y-76578824D01*
X98478475Y-76569864D01*
X98550000Y-76548167D01*
X98621525Y-76569864D01*
X98712500Y-76578824D01*
X98887500Y-76578824D01*
X98978475Y-76569864D01*
X99050000Y-76548167D01*
X99121525Y-76569864D01*
X99212500Y-76578824D01*
X99387500Y-76578824D01*
X99478475Y-76569864D01*
X99550000Y-76548167D01*
X99621525Y-76569864D01*
X99712500Y-76578824D01*
X99802100Y-76578824D01*
X99973001Y-76749725D01*
X99973001Y-76768348D01*
X99923905Y-76753455D01*
X99850000Y-76746176D01*
X98250000Y-76746176D01*
X98176095Y-76753455D01*
X98105030Y-76775012D01*
X98039537Y-76810019D01*
X97982131Y-76857131D01*
X97935019Y-76914537D01*
X97900012Y-76980030D01*
X97878455Y-77051095D01*
X97871176Y-77125000D01*
X97871176Y-77325000D01*
X97878455Y-77398905D01*
X97900012Y-77469970D01*
X97935019Y-77535463D01*
X97982131Y-77592869D01*
X98039537Y-77639981D01*
X98105030Y-77674988D01*
X98176095Y-77696545D01*
X98250000Y-77703824D01*
X99850000Y-77703824D01*
X99923905Y-77696545D01*
X99973001Y-77681652D01*
X99973000Y-80577795D01*
X99972334Y-80584555D01*
X99752000Y-80364221D01*
X99752000Y-78974887D01*
X99775234Y-78946576D01*
X99818327Y-78865954D01*
X99844864Y-78778475D01*
X99853824Y-78687500D01*
X99853824Y-78337500D01*
X99844864Y-78246525D01*
X99818327Y-78159046D01*
X99775234Y-78078424D01*
X99717241Y-78007759D01*
X99646576Y-77949766D01*
X99565954Y-77906673D01*
X99478475Y-77880136D01*
X99387500Y-77871176D01*
X99212500Y-77871176D01*
X99121525Y-77880136D01*
X99050000Y-77901833D01*
X98978475Y-77880136D01*
X98887500Y-77871176D01*
X98712500Y-77871176D01*
X98621525Y-77880136D01*
X98550000Y-77901833D01*
X98478475Y-77880136D01*
X98387500Y-77871176D01*
X98212500Y-77871176D01*
X98121525Y-77880136D01*
X98034046Y-77906673D01*
X97953424Y-77949766D01*
X97882759Y-78007759D01*
X97824766Y-78078424D01*
X97781673Y-78159046D01*
X97755136Y-78246525D01*
X97746176Y-78337500D01*
X97746176Y-78687500D01*
X97755136Y-78778475D01*
X97781673Y-78865954D01*
X97824766Y-78946576D01*
X97848000Y-78974887D01*
X97848001Y-80377785D01*
X97845813Y-80400000D01*
X97854540Y-80488607D01*
X97880386Y-80573809D01*
X97907955Y-80625386D01*
X97922358Y-80652333D01*
X97978842Y-80721159D01*
X97996096Y-80735319D01*
X99222165Y-81961389D01*
X99220000Y-81961176D01*
X98940000Y-81961176D01*
X98838782Y-81971145D01*
X98741455Y-82000669D01*
X98651757Y-82048614D01*
X98573136Y-82113136D01*
X98508614Y-82191757D01*
X98460669Y-82281455D01*
X98431145Y-82378782D01*
X98421176Y-82480000D01*
X98421176Y-82798000D01*
X97787224Y-82798000D01*
X97526990Y-82537766D01*
X97526990Y-71918824D01*
X97780000Y-71918824D01*
X97881218Y-71908855D01*
X97978545Y-71879331D01*
X98068243Y-71831386D01*
X98081538Y-71820475D01*
X98075669Y-71831455D01*
G04 #@! TA.AperFunction,Conductor*
D26*
G36*
X98075669Y-71831455D02*
G01*
X98046145Y-71928782D01*
X98036176Y-72030000D01*
X98036176Y-72370000D01*
X98046145Y-72471218D01*
X98075669Y-72568545D01*
X98123614Y-72658243D01*
X98188136Y-72736864D01*
X98266757Y-72801386D01*
X98356455Y-72849331D01*
X98453782Y-72878855D01*
X98555000Y-72888824D01*
X98835000Y-72888824D01*
X98936218Y-72878855D01*
X99033545Y-72849331D01*
X99123243Y-72801386D01*
X99175000Y-72758911D01*
X99226757Y-72801386D01*
X99316455Y-72849331D01*
X99413782Y-72878855D01*
X99515000Y-72888824D01*
X99704600Y-72888824D01*
X99973001Y-73157225D01*
X99973001Y-73460812D01*
X99888545Y-73415669D01*
X99791218Y-73386145D01*
X99690000Y-73376176D01*
X99410000Y-73376176D01*
X99308782Y-73386145D01*
X99211455Y-73415669D01*
X99121757Y-73463614D01*
X99043136Y-73528136D01*
X98978614Y-73606757D01*
X98930669Y-73696455D01*
X98901145Y-73793782D01*
X98891176Y-73895000D01*
X98891176Y-74235000D01*
X98895480Y-74278698D01*
X98887134Y-74279520D01*
X98828357Y-74297350D01*
X98801932Y-74305366D01*
X98723409Y-74347337D01*
X98654583Y-74403821D01*
X98640423Y-74421075D01*
X97996096Y-75065403D01*
X97978842Y-75079563D01*
X97925265Y-75144847D01*
X97922358Y-75148389D01*
X97880386Y-75226913D01*
X97854540Y-75312115D01*
X97845813Y-75400722D01*
X97848001Y-75422936D01*
X97848001Y-75475112D01*
X97824766Y-75503424D01*
X97781673Y-75584046D01*
X97755136Y-75671525D01*
X97746176Y-75762500D01*
X97746176Y-76112500D01*
X97755136Y-76203475D01*
X97781673Y-76290954D01*
X97824766Y-76371576D01*
X97882759Y-76442241D01*
X97953424Y-76500234D01*
X98034046Y-76543327D01*
X98121525Y-76569864D01*
X98212500Y-76578824D01*
X98387500Y-76578824D01*
X98478475Y-76569864D01*
X98550000Y-76548167D01*
X98621525Y-76569864D01*
X98712500Y-76578824D01*
X98887500Y-76578824D01*
X98978475Y-76569864D01*
X99050000Y-76548167D01*
X99121525Y-76569864D01*
X99212500Y-76578824D01*
X99387500Y-76578824D01*
X99478475Y-76569864D01*
X99550000Y-76548167D01*
X99621525Y-76569864D01*
X99712500Y-76578824D01*
X99802100Y-76578824D01*
X99973001Y-76749725D01*
X99973001Y-76768348D01*
X99923905Y-76753455D01*
X99850000Y-76746176D01*
X98250000Y-76746176D01*
X98176095Y-76753455D01*
X98105030Y-76775012D01*
X98039537Y-76810019D01*
X97982131Y-76857131D01*
X97935019Y-76914537D01*
X97900012Y-76980030D01*
X97878455Y-77051095D01*
X97871176Y-77125000D01*
X97871176Y-77325000D01*
X97878455Y-77398905D01*
X97900012Y-77469970D01*
X97935019Y-77535463D01*
X97982131Y-77592869D01*
X98039537Y-77639981D01*
X98105030Y-77674988D01*
X98176095Y-77696545D01*
X98250000Y-77703824D01*
X99850000Y-77703824D01*
X99923905Y-77696545D01*
X99973001Y-77681652D01*
X99973000Y-80577795D01*
X99972334Y-80584555D01*
X99752000Y-80364221D01*
X99752000Y-78974887D01*
X99775234Y-78946576D01*
X99818327Y-78865954D01*
X99844864Y-78778475D01*
X99853824Y-78687500D01*
X99853824Y-78337500D01*
X99844864Y-78246525D01*
X99818327Y-78159046D01*
X99775234Y-78078424D01*
X99717241Y-78007759D01*
X99646576Y-77949766D01*
X99565954Y-77906673D01*
X99478475Y-77880136D01*
X99387500Y-77871176D01*
X99212500Y-77871176D01*
X99121525Y-77880136D01*
X99050000Y-77901833D01*
X98978475Y-77880136D01*
X98887500Y-77871176D01*
X98712500Y-77871176D01*
X98621525Y-77880136D01*
X98550000Y-77901833D01*
X98478475Y-77880136D01*
X98387500Y-77871176D01*
X98212500Y-77871176D01*
X98121525Y-77880136D01*
X98034046Y-77906673D01*
X97953424Y-77949766D01*
X97882759Y-78007759D01*
X97824766Y-78078424D01*
X97781673Y-78159046D01*
X97755136Y-78246525D01*
X97746176Y-78337500D01*
X97746176Y-78687500D01*
X97755136Y-78778475D01*
X97781673Y-78865954D01*
X97824766Y-78946576D01*
X97848000Y-78974887D01*
X97848001Y-80377785D01*
X97845813Y-80400000D01*
X97854540Y-80488607D01*
X97880386Y-80573809D01*
X97907955Y-80625386D01*
X97922358Y-80652333D01*
X97978842Y-80721159D01*
X97996096Y-80735319D01*
X99222165Y-81961389D01*
X99220000Y-81961176D01*
X98940000Y-81961176D01*
X98838782Y-81971145D01*
X98741455Y-82000669D01*
X98651757Y-82048614D01*
X98573136Y-82113136D01*
X98508614Y-82191757D01*
X98460669Y-82281455D01*
X98431145Y-82378782D01*
X98421176Y-82480000D01*
X98421176Y-82798000D01*
X97787224Y-82798000D01*
X97526990Y-82537766D01*
X97526990Y-71918824D01*
X97780000Y-71918824D01*
X97881218Y-71908855D01*
X97978545Y-71879331D01*
X98068243Y-71831386D01*
X98081538Y-71820475D01*
X98075669Y-71831455D01*
G37*
G04 #@! TD.AperFunction*
D32*
X108921201Y-62838799D02*
X109011756Y-62913115D01*
X109115068Y-62968336D01*
X109170001Y-62985000D01*
X109115068Y-63001664D01*
X109011756Y-63056885D01*
X108921201Y-63131201D01*
X108846885Y-63221756D01*
X108791664Y-63325068D01*
X108765788Y-63410369D01*
X108607565Y-63568592D01*
X108577921Y-63592920D01*
X108553593Y-63622564D01*
X108553591Y-63622566D01*
X108480823Y-63711234D01*
X108408673Y-63846217D01*
X108397238Y-63883915D01*
X108369977Y-63973784D01*
X108364244Y-63992682D01*
X108349241Y-64145000D01*
X108353001Y-64183173D01*
X108353001Y-65148000D01*
X107550000Y-65148000D01*
X107476451Y-65155244D01*
X107405728Y-65176697D01*
X107340550Y-65211536D01*
X107283421Y-65258421D01*
X107236536Y-65315550D01*
X107201697Y-65380728D01*
X107180244Y-65451451D01*
X107173000Y-65525000D01*
X107173000Y-67525000D01*
X107180244Y-67598549D01*
X107201697Y-67669272D01*
X107236536Y-67734450D01*
X107283421Y-67791579D01*
X107340550Y-67838464D01*
X107368660Y-67853489D01*
X107291672Y-67916672D01*
X107227771Y-67994535D01*
X107180289Y-68083368D01*
X107168267Y-68123000D01*
X107057204Y-68123000D01*
X107034999Y-68120813D01*
X106946392Y-68129540D01*
X106886313Y-68147765D01*
X106861190Y-68155386D01*
X106782667Y-68197357D01*
X106713841Y-68253841D01*
X106699681Y-68271095D01*
X106066096Y-68904681D01*
X106048842Y-68918841D01*
X105992358Y-68987667D01*
X105979792Y-69011176D01*
X105890000Y-69011176D01*
X105816095Y-69018455D01*
X105745030Y-69040012D01*
X105679537Y-69075019D01*
X105622131Y-69122131D01*
X105575019Y-69179537D01*
X105540012Y-69245030D01*
X105518455Y-69316095D01*
X105511176Y-69390000D01*
X105511176Y-69660000D01*
X105518455Y-69733905D01*
X105540012Y-69804970D01*
X105575019Y-69870463D01*
X105622131Y-69927869D01*
X105679537Y-69974981D01*
X105745030Y-70009988D01*
X105794519Y-70025000D01*
X105745030Y-70040012D01*
X105679537Y-70075019D01*
X105622131Y-70122131D01*
X105575019Y-70179537D01*
X105540012Y-70245030D01*
X105518455Y-70316095D01*
X105511176Y-70390000D01*
X105511176Y-70660000D01*
X105518455Y-70733905D01*
X105540012Y-70804970D01*
X105575019Y-70870463D01*
X105622131Y-70927869D01*
X105679537Y-70974981D01*
X105704156Y-70988140D01*
X105695728Y-70990697D01*
X105630550Y-71025536D01*
X105573421Y-71072421D01*
X105526536Y-71129550D01*
X105491697Y-71194728D01*
X105486055Y-71213329D01*
X105479681Y-71221096D01*
X105266100Y-71434677D01*
X105248841Y-71448841D01*
X105192357Y-71517668D01*
X105185129Y-71531191D01*
X105150386Y-71596191D01*
X105124540Y-71681393D01*
X105115813Y-71770000D01*
X105118000Y-71792205D01*
X105118001Y-73994578D01*
X105044140Y-74068439D01*
X104970050Y-74179322D01*
X104919016Y-74302528D01*
X104893000Y-74433323D01*
X104893000Y-74566681D01*
X104919016Y-74697476D01*
X104970050Y-74820682D01*
X105044140Y-74931565D01*
X105138437Y-75025862D01*
X105249320Y-75099952D01*
X105372526Y-75150986D01*
X105503321Y-75177002D01*
X105636679Y-75177002D01*
X105767474Y-75150986D01*
X105890680Y-75099952D01*
X106001563Y-75025862D01*
X106095860Y-74931565D01*
X106169950Y-74820682D01*
X106220984Y-74697476D01*
X106247000Y-74566681D01*
X106247000Y-74433323D01*
X106220984Y-74302528D01*
X106169950Y-74179322D01*
X106095860Y-74068439D01*
X106022000Y-73994579D01*
X106022000Y-73392000D01*
X106393000Y-73392000D01*
X106393000Y-78805000D01*
X106400244Y-78878549D01*
X106421697Y-78949272D01*
X106456536Y-79014450D01*
X106503421Y-79071579D01*
X106560550Y-79118464D01*
X106625728Y-79153303D01*
X106696451Y-79174756D01*
X106770000Y-79182000D01*
X108433000Y-79182000D01*
X108433000Y-79468000D01*
X108040000Y-79468000D01*
X107959741Y-79476642D01*
X107889420Y-79499378D01*
X107824886Y-79535395D01*
X107768619Y-79583311D01*
X107671534Y-79683992D01*
X107618545Y-79655669D01*
X107521218Y-79626145D01*
X107420000Y-79616176D01*
X107080000Y-79616176D01*
X106978782Y-79626145D01*
X106881455Y-79655669D01*
X106791757Y-79703614D01*
X106713136Y-79768136D01*
X106648614Y-79846757D01*
X106600669Y-79936455D01*
X106571145Y-80033782D01*
X106561176Y-80135000D01*
X106561176Y-80415000D01*
X106571145Y-80516218D01*
X106600669Y-80613545D01*
X106648614Y-80703243D01*
X106666045Y-80724483D01*
X106604320Y-80750050D01*
X106493437Y-80824140D01*
X106399140Y-80918437D01*
X106325050Y-81029320D01*
X106274016Y-81152526D01*
X106264971Y-81198000D01*
X105698423Y-81198000D01*
X105675000Y-81195693D01*
X105651577Y-81198000D01*
X105581492Y-81204903D01*
X105542000Y-81216883D01*
X105542000Y-80936657D01*
X105621218Y-80928855D01*
X105718545Y-80899331D01*
X105808243Y-80851386D01*
X105886864Y-80786864D01*
X105951386Y-80708243D01*
X105999331Y-80618545D01*
X106028855Y-80521218D01*
X106038824Y-80420000D01*
X106038824Y-80140000D01*
X106028855Y-80038782D01*
X105999331Y-79941455D01*
X105951386Y-79851757D01*
X105935072Y-79831878D01*
X105999177Y-79753766D01*
X106071327Y-79618784D01*
X106115757Y-79472319D01*
X106127000Y-79358166D01*
X106127000Y-78441411D01*
X106130759Y-78403248D01*
X106127000Y-78365082D01*
X106115757Y-78250929D01*
X106071327Y-78104464D01*
X106019637Y-78007759D01*
X105999177Y-77969481D01*
X105926409Y-77880813D01*
X105926408Y-77880812D01*
X105902080Y-77851168D01*
X105872436Y-77826840D01*
X104877000Y-76831405D01*
X104877000Y-67176138D01*
X104879375Y-67168309D01*
X104887001Y-67090880D01*
X104887001Y-67090879D01*
X104889550Y-67064999D01*
X104887001Y-67039118D01*
X104887001Y-65723824D01*
X105000000Y-65723824D01*
X105073905Y-65716545D01*
X105100000Y-65708629D01*
X105126095Y-65716545D01*
X105200000Y-65723824D01*
X105500000Y-65723824D01*
X105573905Y-65716545D01*
X105625000Y-65701046D01*
X105676095Y-65716545D01*
X105750000Y-65723824D01*
X106350000Y-65723824D01*
X106423905Y-65716545D01*
X106494970Y-65694988D01*
X106560463Y-65659981D01*
X106617869Y-65612869D01*
X106664981Y-65555463D01*
X106699988Y-65489970D01*
X106721545Y-65418905D01*
X106728824Y-65345000D01*
X106728824Y-63895000D01*
X106723233Y-63838232D01*
X106822522Y-63797105D01*
X106937499Y-63720279D01*
X107035279Y-63622499D01*
X107112105Y-63507522D01*
X107165023Y-63379766D01*
X107192000Y-63244141D01*
X107192000Y-63105859D01*
X107165023Y-62970234D01*
X107112105Y-62842478D01*
X107066683Y-62774500D01*
X108868433Y-62774500D01*
X108921201Y-62838799D01*
G04 #@! TA.AperFunction,Conductor*
D26*
G36*
X108921201Y-62838799D02*
G01*
X109011756Y-62913115D01*
X109115068Y-62968336D01*
X109170001Y-62985000D01*
X109115068Y-63001664D01*
X109011756Y-63056885D01*
X108921201Y-63131201D01*
X108846885Y-63221756D01*
X108791664Y-63325068D01*
X108765788Y-63410369D01*
X108607565Y-63568592D01*
X108577921Y-63592920D01*
X108553593Y-63622564D01*
X108553591Y-63622566D01*
X108480823Y-63711234D01*
X108408673Y-63846217D01*
X108397238Y-63883915D01*
X108369977Y-63973784D01*
X108364244Y-63992682D01*
X108349241Y-64145000D01*
X108353001Y-64183173D01*
X108353001Y-65148000D01*
X107550000Y-65148000D01*
X107476451Y-65155244D01*
X107405728Y-65176697D01*
X107340550Y-65211536D01*
X107283421Y-65258421D01*
X107236536Y-65315550D01*
X107201697Y-65380728D01*
X107180244Y-65451451D01*
X107173000Y-65525000D01*
X107173000Y-67525000D01*
X107180244Y-67598549D01*
X107201697Y-67669272D01*
X107236536Y-67734450D01*
X107283421Y-67791579D01*
X107340550Y-67838464D01*
X107368660Y-67853489D01*
X107291672Y-67916672D01*
X107227771Y-67994535D01*
X107180289Y-68083368D01*
X107168267Y-68123000D01*
X107057204Y-68123000D01*
X107034999Y-68120813D01*
X106946392Y-68129540D01*
X106886313Y-68147765D01*
X106861190Y-68155386D01*
X106782667Y-68197357D01*
X106713841Y-68253841D01*
X106699681Y-68271095D01*
X106066096Y-68904681D01*
X106048842Y-68918841D01*
X105992358Y-68987667D01*
X105979792Y-69011176D01*
X105890000Y-69011176D01*
X105816095Y-69018455D01*
X105745030Y-69040012D01*
X105679537Y-69075019D01*
X105622131Y-69122131D01*
X105575019Y-69179537D01*
X105540012Y-69245030D01*
X105518455Y-69316095D01*
X105511176Y-69390000D01*
X105511176Y-69660000D01*
X105518455Y-69733905D01*
X105540012Y-69804970D01*
X105575019Y-69870463D01*
X105622131Y-69927869D01*
X105679537Y-69974981D01*
X105745030Y-70009988D01*
X105794519Y-70025000D01*
X105745030Y-70040012D01*
X105679537Y-70075019D01*
X105622131Y-70122131D01*
X105575019Y-70179537D01*
X105540012Y-70245030D01*
X105518455Y-70316095D01*
X105511176Y-70390000D01*
X105511176Y-70660000D01*
X105518455Y-70733905D01*
X105540012Y-70804970D01*
X105575019Y-70870463D01*
X105622131Y-70927869D01*
X105679537Y-70974981D01*
X105704156Y-70988140D01*
X105695728Y-70990697D01*
X105630550Y-71025536D01*
X105573421Y-71072421D01*
X105526536Y-71129550D01*
X105491697Y-71194728D01*
X105486055Y-71213329D01*
X105479681Y-71221096D01*
X105266100Y-71434677D01*
X105248841Y-71448841D01*
X105192357Y-71517668D01*
X105185129Y-71531191D01*
X105150386Y-71596191D01*
X105124540Y-71681393D01*
X105115813Y-71770000D01*
X105118000Y-71792205D01*
X105118001Y-73994578D01*
X105044140Y-74068439D01*
X104970050Y-74179322D01*
X104919016Y-74302528D01*
X104893000Y-74433323D01*
X104893000Y-74566681D01*
X104919016Y-74697476D01*
X104970050Y-74820682D01*
X105044140Y-74931565D01*
X105138437Y-75025862D01*
X105249320Y-75099952D01*
X105372526Y-75150986D01*
X105503321Y-75177002D01*
X105636679Y-75177002D01*
X105767474Y-75150986D01*
X105890680Y-75099952D01*
X106001563Y-75025862D01*
X106095860Y-74931565D01*
X106169950Y-74820682D01*
X106220984Y-74697476D01*
X106247000Y-74566681D01*
X106247000Y-74433323D01*
X106220984Y-74302528D01*
X106169950Y-74179322D01*
X106095860Y-74068439D01*
X106022000Y-73994579D01*
X106022000Y-73392000D01*
X106393000Y-73392000D01*
X106393000Y-78805000D01*
X106400244Y-78878549D01*
X106421697Y-78949272D01*
X106456536Y-79014450D01*
X106503421Y-79071579D01*
X106560550Y-79118464D01*
X106625728Y-79153303D01*
X106696451Y-79174756D01*
X106770000Y-79182000D01*
X108433000Y-79182000D01*
X108433000Y-79468000D01*
X108040000Y-79468000D01*
X107959741Y-79476642D01*
X107889420Y-79499378D01*
X107824886Y-79535395D01*
X107768619Y-79583311D01*
X107671534Y-79683992D01*
X107618545Y-79655669D01*
X107521218Y-79626145D01*
X107420000Y-79616176D01*
X107080000Y-79616176D01*
X106978782Y-79626145D01*
X106881455Y-79655669D01*
X106791757Y-79703614D01*
X106713136Y-79768136D01*
X106648614Y-79846757D01*
X106600669Y-79936455D01*
X106571145Y-80033782D01*
X106561176Y-80135000D01*
X106561176Y-80415000D01*
X106571145Y-80516218D01*
X106600669Y-80613545D01*
X106648614Y-80703243D01*
X106666045Y-80724483D01*
X106604320Y-80750050D01*
X106493437Y-80824140D01*
X106399140Y-80918437D01*
X106325050Y-81029320D01*
X106274016Y-81152526D01*
X106264971Y-81198000D01*
X105698423Y-81198000D01*
X105675000Y-81195693D01*
X105651577Y-81198000D01*
X105581492Y-81204903D01*
X105542000Y-81216883D01*
X105542000Y-80936657D01*
X105621218Y-80928855D01*
X105718545Y-80899331D01*
X105808243Y-80851386D01*
X105886864Y-80786864D01*
X105951386Y-80708243D01*
X105999331Y-80618545D01*
X106028855Y-80521218D01*
X106038824Y-80420000D01*
X106038824Y-80140000D01*
X106028855Y-80038782D01*
X105999331Y-79941455D01*
X105951386Y-79851757D01*
X105935072Y-79831878D01*
X105999177Y-79753766D01*
X106071327Y-79618784D01*
X106115757Y-79472319D01*
X106127000Y-79358166D01*
X106127000Y-78441411D01*
X106130759Y-78403248D01*
X106127000Y-78365082D01*
X106115757Y-78250929D01*
X106071327Y-78104464D01*
X106019637Y-78007759D01*
X105999177Y-77969481D01*
X105926409Y-77880813D01*
X105926408Y-77880812D01*
X105902080Y-77851168D01*
X105872436Y-77826840D01*
X104877000Y-76831405D01*
X104877000Y-67176138D01*
X104879375Y-67168309D01*
X104887001Y-67090880D01*
X104887001Y-67090879D01*
X104889550Y-67064999D01*
X104887001Y-67039118D01*
X104887001Y-65723824D01*
X105000000Y-65723824D01*
X105073905Y-65716545D01*
X105100000Y-65708629D01*
X105126095Y-65716545D01*
X105200000Y-65723824D01*
X105500000Y-65723824D01*
X105573905Y-65716545D01*
X105625000Y-65701046D01*
X105676095Y-65716545D01*
X105750000Y-65723824D01*
X106350000Y-65723824D01*
X106423905Y-65716545D01*
X106494970Y-65694988D01*
X106560463Y-65659981D01*
X106617869Y-65612869D01*
X106664981Y-65555463D01*
X106699988Y-65489970D01*
X106721545Y-65418905D01*
X106728824Y-65345000D01*
X106728824Y-63895000D01*
X106723233Y-63838232D01*
X106822522Y-63797105D01*
X106937499Y-63720279D01*
X107035279Y-63622499D01*
X107112105Y-63507522D01*
X107165023Y-63379766D01*
X107192000Y-63244141D01*
X107192000Y-63105859D01*
X107165023Y-62970234D01*
X107112105Y-62842478D01*
X107066683Y-62774500D01*
X108868433Y-62774500D01*
X108921201Y-62838799D01*
G37*
G04 #@! TD.AperFunction*
D32*
X109158467Y-57777739D02*
X108952739Y-57983467D01*
X108791099Y-58225378D01*
X108679760Y-58494175D01*
X108623000Y-58779528D01*
X108623000Y-59070472D01*
X108679760Y-59355825D01*
X108791099Y-59624622D01*
X108952739Y-59866533D01*
X109158467Y-60072261D01*
X109400378Y-60233901D01*
X109669175Y-60345240D01*
X109954528Y-60402000D01*
X110245472Y-60402000D01*
X110372208Y-60376791D01*
X109367823Y-61381176D01*
X109343750Y-61381176D01*
X109227169Y-61392658D01*
X109115068Y-61426664D01*
X109011756Y-61481885D01*
X108921201Y-61556201D01*
X108868433Y-61620500D01*
X106061502Y-61620500D01*
X105778037Y-61337035D01*
X105759974Y-61315026D01*
X105737967Y-61296965D01*
X105378037Y-60937036D01*
X105359972Y-60915024D01*
X105272113Y-60842919D01*
X105171874Y-60789341D01*
X105107768Y-60769895D01*
X105063109Y-60756347D01*
X105008043Y-60750924D01*
X104978334Y-60747998D01*
X104978329Y-60747998D01*
X104949998Y-60745208D01*
X104921667Y-60747998D01*
X103529662Y-60747998D01*
X103444886Y-60756348D01*
X103336122Y-60789341D01*
X103319926Y-60797998D01*
X102833878Y-60797998D01*
X102807997Y-60795449D01*
X102704688Y-60805624D01*
X102605348Y-60835759D01*
X102513796Y-60884694D01*
X102433550Y-60950550D01*
X102417047Y-60970659D01*
X101095662Y-62292045D01*
X101075553Y-62308548D01*
X101031140Y-62362666D01*
X101009696Y-62388795D01*
X100960761Y-62480347D01*
X100950337Y-62514711D01*
X100914766Y-62499977D01*
X100779141Y-62473000D01*
X100640859Y-62473000D01*
X100505234Y-62499977D01*
X100377478Y-62552895D01*
X100262501Y-62629721D01*
X100164721Y-62727501D01*
X100087895Y-62842478D01*
X100034977Y-62970234D01*
X100008000Y-63105859D01*
X100008000Y-63244141D01*
X100034977Y-63379766D01*
X100087895Y-63507522D01*
X100164721Y-63622499D01*
X100262501Y-63720279D01*
X100377478Y-63797105D01*
X100476767Y-63838232D01*
X100471176Y-63895000D01*
X100471176Y-65345000D01*
X100478455Y-65418905D01*
X100500012Y-65489970D01*
X100535019Y-65555463D01*
X100582131Y-65612869D01*
X100639537Y-65659981D01*
X100705030Y-65694988D01*
X100776095Y-65716545D01*
X100850000Y-65723824D01*
X101036547Y-65723824D01*
X101014530Y-65796403D01*
X101005803Y-65885010D01*
X101007990Y-65907216D01*
X101007991Y-66803643D01*
X101005803Y-66825858D01*
X101013010Y-66899033D01*
X101013011Y-67430959D01*
X101005803Y-67504142D01*
X101007990Y-67526347D01*
X101007990Y-67652785D01*
X101005803Y-67674990D01*
X101007990Y-67697194D01*
X101007990Y-67697195D01*
X101014530Y-67763597D01*
X101040376Y-67848800D01*
X101082347Y-67927323D01*
X101138832Y-67996149D01*
X101156085Y-68010308D01*
X101341176Y-68195400D01*
X101341176Y-68390000D01*
X101351049Y-68490242D01*
X101380289Y-68586632D01*
X101427771Y-68675465D01*
X101491672Y-68753328D01*
X101569535Y-68817229D01*
X101658368Y-68864711D01*
X101754758Y-68893951D01*
X101855000Y-68903824D01*
X102125000Y-68903824D01*
X102225242Y-68893951D01*
X102321632Y-68864711D01*
X102373001Y-68837254D01*
X102373000Y-77508589D01*
X102369241Y-77546752D01*
X102373000Y-77584915D01*
X102373000Y-77584917D01*
X102384243Y-77699070D01*
X102415596Y-77802425D01*
X102428673Y-77845535D01*
X102500823Y-77980518D01*
X102548203Y-78038251D01*
X102597920Y-78098832D01*
X102627569Y-78123164D01*
X103623000Y-79118596D01*
X103623000Y-79358165D01*
X103634243Y-79472318D01*
X103678673Y-79618783D01*
X103689257Y-79638584D01*
X103681218Y-79636145D01*
X103580000Y-79626176D01*
X103240000Y-79626176D01*
X103138782Y-79636145D01*
X103041455Y-79665669D01*
X102951757Y-79713614D01*
X102923046Y-79737176D01*
X102888243Y-79708614D01*
X102798545Y-79660669D01*
X102701218Y-79631145D01*
X102600000Y-79621176D01*
X102260000Y-79621176D01*
X102158782Y-79631145D01*
X102061455Y-79660669D01*
X101971757Y-79708614D01*
X101893136Y-79773136D01*
X101828614Y-79851757D01*
X101780669Y-79941455D01*
X101775361Y-79958954D01*
X101760679Y-79954500D01*
X101694277Y-79947960D01*
X101672072Y-79945773D01*
X101649867Y-79947960D01*
X101477020Y-79947960D01*
X101477020Y-75822947D01*
X101479207Y-75800742D01*
X101470480Y-75712134D01*
X101444634Y-75626932D01*
X101416625Y-75574531D01*
X101402663Y-75548409D01*
X101346179Y-75479583D01*
X101328925Y-75465423D01*
X100872962Y-75009461D01*
X100950860Y-74931563D01*
X101024950Y-74820680D01*
X101075984Y-74697474D01*
X101102000Y-74566679D01*
X101102000Y-74433321D01*
X101075984Y-74302526D01*
X101024950Y-74179320D01*
X100950860Y-74068437D01*
X100877000Y-73994577D01*
X100877000Y-72992202D01*
X100879187Y-72969999D01*
X100876957Y-72947357D01*
X100870460Y-72881393D01*
X100844614Y-72796190D01*
X100802643Y-72717667D01*
X100746159Y-72648841D01*
X100728910Y-72634685D01*
X100313824Y-72219600D01*
X100313824Y-72030000D01*
X100303855Y-71928782D01*
X100274331Y-71831455D01*
X100226386Y-71741757D01*
X100162956Y-71664467D01*
X100255860Y-71571563D01*
X100329950Y-71460680D01*
X100380984Y-71337474D01*
X100407000Y-71206679D01*
X100407000Y-71073321D01*
X100380984Y-70942526D01*
X100329950Y-70819320D01*
X100255860Y-70708437D01*
X100161563Y-70614140D01*
X100050680Y-70540050D01*
X100044403Y-70537450D01*
X100051545Y-70513905D01*
X100058824Y-70440000D01*
X100058824Y-69540000D01*
X100051545Y-69466095D01*
X100029988Y-69395030D01*
X99994981Y-69329537D01*
X99947869Y-69272131D01*
X99890463Y-69225019D01*
X99824970Y-69190012D01*
X99753905Y-69168455D01*
X99680000Y-69161176D01*
X97980000Y-69161176D01*
X97906095Y-69168455D01*
X97835030Y-69190012D01*
X97769537Y-69225019D01*
X97712131Y-69272131D01*
X97665019Y-69329537D01*
X97630012Y-69395030D01*
X97608455Y-69466095D01*
X97601176Y-69540000D01*
X97601176Y-70440000D01*
X97608455Y-70513905D01*
X97616727Y-70541176D01*
X97526990Y-70541176D01*
X97526990Y-65214984D01*
X97579320Y-65249950D01*
X97702526Y-65300984D01*
X97833321Y-65327000D01*
X97966679Y-65327000D01*
X98097474Y-65300984D01*
X98220680Y-65249950D01*
X98331563Y-65175860D01*
X98425860Y-65081563D01*
X98499950Y-64970680D01*
X98550984Y-64847474D01*
X98577000Y-64716679D01*
X98577000Y-64583321D01*
X98550984Y-64452526D01*
X98499950Y-64329320D01*
X98425860Y-64218437D01*
X98352000Y-64144577D01*
X98352000Y-64127023D01*
X98364910Y-64120122D01*
X98444667Y-64054667D01*
X98510122Y-63974910D01*
X98558760Y-63883915D01*
X98588711Y-63785181D01*
X98598824Y-63682500D01*
X98598824Y-63387500D01*
X98588711Y-63284819D01*
X98558760Y-63186085D01*
X98510122Y-63095090D01*
X98444667Y-63015333D01*
X98364910Y-62949878D01*
X98273915Y-62901240D01*
X98175181Y-62871289D01*
X98072500Y-62861176D01*
X97727500Y-62861176D01*
X97624819Y-62871289D01*
X97526990Y-62900965D01*
X97526990Y-61172194D01*
X97529177Y-61149989D01*
X97520450Y-61061382D01*
X97511172Y-61030797D01*
X97494604Y-60976180D01*
X97452633Y-60897657D01*
X97396149Y-60828831D01*
X97378900Y-60814675D01*
X96902597Y-60338373D01*
X96919175Y-60345240D01*
X97204528Y-60402000D01*
X97495472Y-60402000D01*
X97780825Y-60345240D01*
X98049622Y-60233901D01*
X98291533Y-60072261D01*
X98497261Y-59866533D01*
X98658901Y-59624622D01*
X98770240Y-59355825D01*
X98827000Y-59070472D01*
X98827000Y-58779528D01*
X98770240Y-58494175D01*
X98658901Y-58225378D01*
X98497261Y-57983467D01*
X98291533Y-57777739D01*
X98065936Y-57627000D01*
X109384064Y-57627000D01*
X109158467Y-57777739D01*
G04 #@! TA.AperFunction,Conductor*
D26*
G36*
X109158467Y-57777739D02*
G01*
X108952739Y-57983467D01*
X108791099Y-58225378D01*
X108679760Y-58494175D01*
X108623000Y-58779528D01*
X108623000Y-59070472D01*
X108679760Y-59355825D01*
X108791099Y-59624622D01*
X108952739Y-59866533D01*
X109158467Y-60072261D01*
X109400378Y-60233901D01*
X109669175Y-60345240D01*
X109954528Y-60402000D01*
X110245472Y-60402000D01*
X110372208Y-60376791D01*
X109367823Y-61381176D01*
X109343750Y-61381176D01*
X109227169Y-61392658D01*
X109115068Y-61426664D01*
X109011756Y-61481885D01*
X108921201Y-61556201D01*
X108868433Y-61620500D01*
X106061502Y-61620500D01*
X105778037Y-61337035D01*
X105759974Y-61315026D01*
X105737967Y-61296965D01*
X105378037Y-60937036D01*
X105359972Y-60915024D01*
X105272113Y-60842919D01*
X105171874Y-60789341D01*
X105107768Y-60769895D01*
X105063109Y-60756347D01*
X105008043Y-60750924D01*
X104978334Y-60747998D01*
X104978329Y-60747998D01*
X104949998Y-60745208D01*
X104921667Y-60747998D01*
X103529662Y-60747998D01*
X103444886Y-60756348D01*
X103336122Y-60789341D01*
X103319926Y-60797998D01*
X102833878Y-60797998D01*
X102807997Y-60795449D01*
X102704688Y-60805624D01*
X102605348Y-60835759D01*
X102513796Y-60884694D01*
X102433550Y-60950550D01*
X102417047Y-60970659D01*
X101095662Y-62292045D01*
X101075553Y-62308548D01*
X101031140Y-62362666D01*
X101009696Y-62388795D01*
X100960761Y-62480347D01*
X100950337Y-62514711D01*
X100914766Y-62499977D01*
X100779141Y-62473000D01*
X100640859Y-62473000D01*
X100505234Y-62499977D01*
X100377478Y-62552895D01*
X100262501Y-62629721D01*
X100164721Y-62727501D01*
X100087895Y-62842478D01*
X100034977Y-62970234D01*
X100008000Y-63105859D01*
X100008000Y-63244141D01*
X100034977Y-63379766D01*
X100087895Y-63507522D01*
X100164721Y-63622499D01*
X100262501Y-63720279D01*
X100377478Y-63797105D01*
X100476767Y-63838232D01*
X100471176Y-63895000D01*
X100471176Y-65345000D01*
X100478455Y-65418905D01*
X100500012Y-65489970D01*
X100535019Y-65555463D01*
X100582131Y-65612869D01*
X100639537Y-65659981D01*
X100705030Y-65694988D01*
X100776095Y-65716545D01*
X100850000Y-65723824D01*
X101036547Y-65723824D01*
X101014530Y-65796403D01*
X101005803Y-65885010D01*
X101007990Y-65907216D01*
X101007991Y-66803643D01*
X101005803Y-66825858D01*
X101013010Y-66899033D01*
X101013011Y-67430959D01*
X101005803Y-67504142D01*
X101007990Y-67526347D01*
X101007990Y-67652785D01*
X101005803Y-67674990D01*
X101007990Y-67697194D01*
X101007990Y-67697195D01*
X101014530Y-67763597D01*
X101040376Y-67848800D01*
X101082347Y-67927323D01*
X101138832Y-67996149D01*
X101156085Y-68010308D01*
X101341176Y-68195400D01*
X101341176Y-68390000D01*
X101351049Y-68490242D01*
X101380289Y-68586632D01*
X101427771Y-68675465D01*
X101491672Y-68753328D01*
X101569535Y-68817229D01*
X101658368Y-68864711D01*
X101754758Y-68893951D01*
X101855000Y-68903824D01*
X102125000Y-68903824D01*
X102225242Y-68893951D01*
X102321632Y-68864711D01*
X102373001Y-68837254D01*
X102373000Y-77508589D01*
X102369241Y-77546752D01*
X102373000Y-77584915D01*
X102373000Y-77584917D01*
X102384243Y-77699070D01*
X102415596Y-77802425D01*
X102428673Y-77845535D01*
X102500823Y-77980518D01*
X102548203Y-78038251D01*
X102597920Y-78098832D01*
X102627569Y-78123164D01*
X103623000Y-79118596D01*
X103623000Y-79358165D01*
X103634243Y-79472318D01*
X103678673Y-79618783D01*
X103689257Y-79638584D01*
X103681218Y-79636145D01*
X103580000Y-79626176D01*
X103240000Y-79626176D01*
X103138782Y-79636145D01*
X103041455Y-79665669D01*
X102951757Y-79713614D01*
X102923046Y-79737176D01*
X102888243Y-79708614D01*
X102798545Y-79660669D01*
X102701218Y-79631145D01*
X102600000Y-79621176D01*
X102260000Y-79621176D01*
X102158782Y-79631145D01*
X102061455Y-79660669D01*
X101971757Y-79708614D01*
X101893136Y-79773136D01*
X101828614Y-79851757D01*
X101780669Y-79941455D01*
X101775361Y-79958954D01*
X101760679Y-79954500D01*
X101694277Y-79947960D01*
X101672072Y-79945773D01*
X101649867Y-79947960D01*
X101477020Y-79947960D01*
X101477020Y-75822947D01*
X101479207Y-75800742D01*
X101470480Y-75712134D01*
X101444634Y-75626932D01*
X101416625Y-75574531D01*
X101402663Y-75548409D01*
X101346179Y-75479583D01*
X101328925Y-75465423D01*
X100872962Y-75009461D01*
X100950860Y-74931563D01*
X101024950Y-74820680D01*
X101075984Y-74697474D01*
X101102000Y-74566679D01*
X101102000Y-74433321D01*
X101075984Y-74302526D01*
X101024950Y-74179320D01*
X100950860Y-74068437D01*
X100877000Y-73994577D01*
X100877000Y-72992202D01*
X100879187Y-72969999D01*
X100876957Y-72947357D01*
X100870460Y-72881393D01*
X100844614Y-72796190D01*
X100802643Y-72717667D01*
X100746159Y-72648841D01*
X100728910Y-72634685D01*
X100313824Y-72219600D01*
X100313824Y-72030000D01*
X100303855Y-71928782D01*
X100274331Y-71831455D01*
X100226386Y-71741757D01*
X100162956Y-71664467D01*
X100255860Y-71571563D01*
X100329950Y-71460680D01*
X100380984Y-71337474D01*
X100407000Y-71206679D01*
X100407000Y-71073321D01*
X100380984Y-70942526D01*
X100329950Y-70819320D01*
X100255860Y-70708437D01*
X100161563Y-70614140D01*
X100050680Y-70540050D01*
X100044403Y-70537450D01*
X100051545Y-70513905D01*
X100058824Y-70440000D01*
X100058824Y-69540000D01*
X100051545Y-69466095D01*
X100029988Y-69395030D01*
X99994981Y-69329537D01*
X99947869Y-69272131D01*
X99890463Y-69225019D01*
X99824970Y-69190012D01*
X99753905Y-69168455D01*
X99680000Y-69161176D01*
X97980000Y-69161176D01*
X97906095Y-69168455D01*
X97835030Y-69190012D01*
X97769537Y-69225019D01*
X97712131Y-69272131D01*
X97665019Y-69329537D01*
X97630012Y-69395030D01*
X97608455Y-69466095D01*
X97601176Y-69540000D01*
X97601176Y-70440000D01*
X97608455Y-70513905D01*
X97616727Y-70541176D01*
X97526990Y-70541176D01*
X97526990Y-65214984D01*
X97579320Y-65249950D01*
X97702526Y-65300984D01*
X97833321Y-65327000D01*
X97966679Y-65327000D01*
X98097474Y-65300984D01*
X98220680Y-65249950D01*
X98331563Y-65175860D01*
X98425860Y-65081563D01*
X98499950Y-64970680D01*
X98550984Y-64847474D01*
X98577000Y-64716679D01*
X98577000Y-64583321D01*
X98550984Y-64452526D01*
X98499950Y-64329320D01*
X98425860Y-64218437D01*
X98352000Y-64144577D01*
X98352000Y-64127023D01*
X98364910Y-64120122D01*
X98444667Y-64054667D01*
X98510122Y-63974910D01*
X98558760Y-63883915D01*
X98588711Y-63785181D01*
X98598824Y-63682500D01*
X98598824Y-63387500D01*
X98588711Y-63284819D01*
X98558760Y-63186085D01*
X98510122Y-63095090D01*
X98444667Y-63015333D01*
X98364910Y-62949878D01*
X98273915Y-62901240D01*
X98175181Y-62871289D01*
X98072500Y-62861176D01*
X97727500Y-62861176D01*
X97624819Y-62871289D01*
X97526990Y-62900965D01*
X97526990Y-61172194D01*
X97529177Y-61149989D01*
X97520450Y-61061382D01*
X97511172Y-61030797D01*
X97494604Y-60976180D01*
X97452633Y-60897657D01*
X97396149Y-60828831D01*
X97378900Y-60814675D01*
X96902597Y-60338373D01*
X96919175Y-60345240D01*
X97204528Y-60402000D01*
X97495472Y-60402000D01*
X97780825Y-60345240D01*
X98049622Y-60233901D01*
X98291533Y-60072261D01*
X98497261Y-59866533D01*
X98658901Y-59624622D01*
X98770240Y-59355825D01*
X98827000Y-59070472D01*
X98827000Y-58779528D01*
X98770240Y-58494175D01*
X98658901Y-58225378D01*
X98497261Y-57983467D01*
X98291533Y-57777739D01*
X98065936Y-57627000D01*
X109384064Y-57627000D01*
X109158467Y-57777739D01*
G37*
G04 #@! TD.AperFunction*
D32*
X112192097Y-75144847D02*
X112429151Y-75192000D01*
X112481481Y-75192000D01*
X112500000Y-75193824D01*
X113788001Y-75193824D01*
X113788001Y-77816176D01*
X112500000Y-77816176D01*
X112481481Y-77818000D01*
X112429151Y-77818000D01*
X112192097Y-77865153D01*
X111968798Y-77957647D01*
X111767833Y-78091927D01*
X111702000Y-78157760D01*
X111702000Y-75412223D01*
X112034610Y-75079613D01*
X112192097Y-75144847D01*
G04 #@! TA.AperFunction,Conductor*
D26*
G36*
X112192097Y-75144847D02*
G01*
X112429151Y-75192000D01*
X112481481Y-75192000D01*
X112500000Y-75193824D01*
X113788001Y-75193824D01*
X113788001Y-77816176D01*
X112500000Y-77816176D01*
X112481481Y-77818000D01*
X112429151Y-77818000D01*
X112192097Y-77865153D01*
X111968798Y-77957647D01*
X111767833Y-78091927D01*
X111702000Y-78157760D01*
X111702000Y-75412223D01*
X112034610Y-75079613D01*
X112192097Y-75144847D01*
G37*
G04 #@! TD.AperFunction*
D32*
X112429151Y-62492000D02*
X112481481Y-62492000D01*
X112500000Y-62493824D01*
X113788001Y-62493824D01*
X113788001Y-65116176D01*
X112500000Y-65116176D01*
X112481481Y-65118000D01*
X112429151Y-65118000D01*
X112192097Y-65165153D01*
X111968798Y-65257647D01*
X111767833Y-65391927D01*
X111596927Y-65562833D01*
X111462647Y-65763798D01*
X111370153Y-65987097D01*
X111323000Y-66224151D01*
X111323000Y-66465849D01*
X111370153Y-66702903D01*
X111462647Y-66926202D01*
X111596927Y-67127167D01*
X111767833Y-67298073D01*
X111968798Y-67432353D01*
X112192097Y-67524847D01*
X112429151Y-67572000D01*
X112481481Y-67572000D01*
X112500000Y-67573824D01*
X113788001Y-67573824D01*
X113788001Y-67656176D01*
X112500000Y-67656176D01*
X112481481Y-67658000D01*
X112429151Y-67658000D01*
X112192097Y-67705153D01*
X111968798Y-67797647D01*
X111767833Y-67931927D01*
X111596927Y-68102833D01*
X111462647Y-68303798D01*
X111370153Y-68527097D01*
X111323000Y-68764151D01*
X111323000Y-69005849D01*
X111370153Y-69242903D01*
X111462647Y-69466202D01*
X111596927Y-69667167D01*
X111767833Y-69838073D01*
X111968798Y-69972353D01*
X112192097Y-70064847D01*
X112429151Y-70112000D01*
X112481481Y-70112000D01*
X112500000Y-70113824D01*
X113788001Y-70113824D01*
X113788001Y-70196176D01*
X112500000Y-70196176D01*
X112481481Y-70198000D01*
X112429151Y-70198000D01*
X112192097Y-70245153D01*
X111968798Y-70337647D01*
X111767833Y-70471927D01*
X111596927Y-70642833D01*
X111462647Y-70843798D01*
X111370153Y-71067097D01*
X111323000Y-71304151D01*
X111323000Y-71545849D01*
X111370153Y-71782903D01*
X111462647Y-72006202D01*
X111596927Y-72207167D01*
X111767833Y-72378073D01*
X111968798Y-72512353D01*
X112192097Y-72604847D01*
X112429151Y-72652000D01*
X112481481Y-72652000D01*
X112500000Y-72653824D01*
X113788001Y-72653824D01*
X113788001Y-72736176D01*
X112500000Y-72736176D01*
X112481481Y-72738000D01*
X112429151Y-72738000D01*
X112192097Y-72785153D01*
X111968798Y-72877647D01*
X111767833Y-73011927D01*
X111596927Y-73182833D01*
X111462647Y-73383798D01*
X111370153Y-73607097D01*
X111323000Y-73844151D01*
X111323000Y-74085849D01*
X111370153Y-74322903D01*
X111411955Y-74423821D01*
X111130758Y-74705019D01*
X111131983Y-72249920D01*
X111203115Y-72163244D01*
X111258336Y-72059932D01*
X111292342Y-71947831D01*
X111303824Y-71831250D01*
X111303824Y-71393750D01*
X111292342Y-71277169D01*
X111258336Y-71165068D01*
X111203115Y-71061756D01*
X111128799Y-70971201D01*
X111038244Y-70896885D01*
X110934932Y-70841664D01*
X110822831Y-70807658D01*
X110706250Y-70796176D01*
X110147899Y-70796176D01*
X110072823Y-70721100D01*
X110058659Y-70703841D01*
X109989833Y-70647357D01*
X109911310Y-70605386D01*
X109826107Y-70579540D01*
X109759705Y-70573000D01*
X109737500Y-70570813D01*
X109715295Y-70573000D01*
X109316686Y-70573000D01*
X109254970Y-70540012D01*
X109205481Y-70525000D01*
X109254970Y-70509988D01*
X109316686Y-70477000D01*
X109765295Y-70477000D01*
X109787500Y-70479187D01*
X109809705Y-70477000D01*
X109876107Y-70470460D01*
X109961310Y-70444614D01*
X110039833Y-70402643D01*
X110108659Y-70346159D01*
X110122823Y-70328900D01*
X110147899Y-70303824D01*
X110706250Y-70303824D01*
X110822831Y-70292342D01*
X110934932Y-70258336D01*
X111038244Y-70203115D01*
X111128799Y-70128799D01*
X111203115Y-70038244D01*
X111258336Y-69934932D01*
X111292342Y-69822831D01*
X111303824Y-69706250D01*
X111303824Y-69268750D01*
X111292342Y-69152169D01*
X111258336Y-69040068D01*
X111203115Y-68936756D01*
X111128799Y-68846201D01*
X111038244Y-68771885D01*
X110934932Y-68716664D01*
X110822831Y-68682658D01*
X110706250Y-68671176D01*
X109943750Y-68671176D01*
X109827169Y-68682658D01*
X109715068Y-68716664D01*
X109627000Y-68763737D01*
X109627000Y-67502000D01*
X110850000Y-67502000D01*
X110923549Y-67494756D01*
X110994272Y-67473303D01*
X111059450Y-67438464D01*
X111116579Y-67391579D01*
X111163464Y-67334450D01*
X111198303Y-67269272D01*
X111219756Y-67198549D01*
X111227000Y-67125000D01*
X111227000Y-65525000D01*
X111219756Y-65451451D01*
X111198303Y-65380728D01*
X111163464Y-65315550D01*
X111116579Y-65258421D01*
X111059450Y-65211536D01*
X110994272Y-65176697D01*
X110923549Y-65155244D01*
X110850000Y-65148000D01*
X109907000Y-65148000D01*
X109907000Y-64583826D01*
X109972831Y-64577342D01*
X110084932Y-64543336D01*
X110188244Y-64488115D01*
X110239627Y-64445947D01*
X110292319Y-64440757D01*
X110438784Y-64396327D01*
X110573766Y-64324177D01*
X110692080Y-64227080D01*
X110716412Y-64197431D01*
X112423056Y-62490788D01*
X112429151Y-62492000D01*
G04 #@! TA.AperFunction,Conductor*
D26*
G36*
X112429151Y-62492000D02*
G01*
X112481481Y-62492000D01*
X112500000Y-62493824D01*
X113788001Y-62493824D01*
X113788001Y-65116176D01*
X112500000Y-65116176D01*
X112481481Y-65118000D01*
X112429151Y-65118000D01*
X112192097Y-65165153D01*
X111968798Y-65257647D01*
X111767833Y-65391927D01*
X111596927Y-65562833D01*
X111462647Y-65763798D01*
X111370153Y-65987097D01*
X111323000Y-66224151D01*
X111323000Y-66465849D01*
X111370153Y-66702903D01*
X111462647Y-66926202D01*
X111596927Y-67127167D01*
X111767833Y-67298073D01*
X111968798Y-67432353D01*
X112192097Y-67524847D01*
X112429151Y-67572000D01*
X112481481Y-67572000D01*
X112500000Y-67573824D01*
X113788001Y-67573824D01*
X113788001Y-67656176D01*
X112500000Y-67656176D01*
X112481481Y-67658000D01*
X112429151Y-67658000D01*
X112192097Y-67705153D01*
X111968798Y-67797647D01*
X111767833Y-67931927D01*
X111596927Y-68102833D01*
X111462647Y-68303798D01*
X111370153Y-68527097D01*
X111323000Y-68764151D01*
X111323000Y-69005849D01*
X111370153Y-69242903D01*
X111462647Y-69466202D01*
X111596927Y-69667167D01*
X111767833Y-69838073D01*
X111968798Y-69972353D01*
X112192097Y-70064847D01*
X112429151Y-70112000D01*
X112481481Y-70112000D01*
X112500000Y-70113824D01*
X113788001Y-70113824D01*
X113788001Y-70196176D01*
X112500000Y-70196176D01*
X112481481Y-70198000D01*
X112429151Y-70198000D01*
X112192097Y-70245153D01*
X111968798Y-70337647D01*
X111767833Y-70471927D01*
X111596927Y-70642833D01*
X111462647Y-70843798D01*
X111370153Y-71067097D01*
X111323000Y-71304151D01*
X111323000Y-71545849D01*
X111370153Y-71782903D01*
X111462647Y-72006202D01*
X111596927Y-72207167D01*
X111767833Y-72378073D01*
X111968798Y-72512353D01*
X112192097Y-72604847D01*
X112429151Y-72652000D01*
X112481481Y-72652000D01*
X112500000Y-72653824D01*
X113788001Y-72653824D01*
X113788001Y-72736176D01*
X112500000Y-72736176D01*
X112481481Y-72738000D01*
X112429151Y-72738000D01*
X112192097Y-72785153D01*
X111968798Y-72877647D01*
X111767833Y-73011927D01*
X111596927Y-73182833D01*
X111462647Y-73383798D01*
X111370153Y-73607097D01*
X111323000Y-73844151D01*
X111323000Y-74085849D01*
X111370153Y-74322903D01*
X111411955Y-74423821D01*
X111130758Y-74705019D01*
X111131983Y-72249920D01*
X111203115Y-72163244D01*
X111258336Y-72059932D01*
X111292342Y-71947831D01*
X111303824Y-71831250D01*
X111303824Y-71393750D01*
X111292342Y-71277169D01*
X111258336Y-71165068D01*
X111203115Y-71061756D01*
X111128799Y-70971201D01*
X111038244Y-70896885D01*
X110934932Y-70841664D01*
X110822831Y-70807658D01*
X110706250Y-70796176D01*
X110147899Y-70796176D01*
X110072823Y-70721100D01*
X110058659Y-70703841D01*
X109989833Y-70647357D01*
X109911310Y-70605386D01*
X109826107Y-70579540D01*
X109759705Y-70573000D01*
X109737500Y-70570813D01*
X109715295Y-70573000D01*
X109316686Y-70573000D01*
X109254970Y-70540012D01*
X109205481Y-70525000D01*
X109254970Y-70509988D01*
X109316686Y-70477000D01*
X109765295Y-70477000D01*
X109787500Y-70479187D01*
X109809705Y-70477000D01*
X109876107Y-70470460D01*
X109961310Y-70444614D01*
X110039833Y-70402643D01*
X110108659Y-70346159D01*
X110122823Y-70328900D01*
X110147899Y-70303824D01*
X110706250Y-70303824D01*
X110822831Y-70292342D01*
X110934932Y-70258336D01*
X111038244Y-70203115D01*
X111128799Y-70128799D01*
X111203115Y-70038244D01*
X111258336Y-69934932D01*
X111292342Y-69822831D01*
X111303824Y-69706250D01*
X111303824Y-69268750D01*
X111292342Y-69152169D01*
X111258336Y-69040068D01*
X111203115Y-68936756D01*
X111128799Y-68846201D01*
X111038244Y-68771885D01*
X110934932Y-68716664D01*
X110822831Y-68682658D01*
X110706250Y-68671176D01*
X109943750Y-68671176D01*
X109827169Y-68682658D01*
X109715068Y-68716664D01*
X109627000Y-68763737D01*
X109627000Y-67502000D01*
X110850000Y-67502000D01*
X110923549Y-67494756D01*
X110994272Y-67473303D01*
X111059450Y-67438464D01*
X111116579Y-67391579D01*
X111163464Y-67334450D01*
X111198303Y-67269272D01*
X111219756Y-67198549D01*
X111227000Y-67125000D01*
X111227000Y-65525000D01*
X111219756Y-65451451D01*
X111198303Y-65380728D01*
X111163464Y-65315550D01*
X111116579Y-65258421D01*
X111059450Y-65211536D01*
X110994272Y-65176697D01*
X110923549Y-65155244D01*
X110850000Y-65148000D01*
X109907000Y-65148000D01*
X109907000Y-64583826D01*
X109972831Y-64577342D01*
X110084932Y-64543336D01*
X110188244Y-64488115D01*
X110239627Y-64445947D01*
X110292319Y-64440757D01*
X110438784Y-64396327D01*
X110573766Y-64324177D01*
X110692080Y-64227080D01*
X110716412Y-64197431D01*
X112423056Y-62490788D01*
X112429151Y-62492000D01*
G37*
G04 #@! TD.AperFunction*
D32*
X107358383Y-69100860D02*
X107469266Y-69174950D01*
X107592472Y-69225984D01*
X107723267Y-69252000D01*
X107856625Y-69252000D01*
X107923000Y-69238798D01*
X107923000Y-69371481D01*
X107921176Y-69390000D01*
X107921176Y-69660000D01*
X107923000Y-69678519D01*
X107923000Y-69725000D01*
X107930244Y-69798549D01*
X107932011Y-69804373D01*
X107928455Y-69816095D01*
X107921176Y-69890000D01*
X107921176Y-70160000D01*
X107928455Y-70233905D01*
X107950012Y-70304970D01*
X107985019Y-70370463D01*
X108032131Y-70427869D01*
X108089537Y-70474981D01*
X108155030Y-70509988D01*
X108204519Y-70525000D01*
X108155030Y-70540012D01*
X108089537Y-70575019D01*
X108032131Y-70622131D01*
X107985019Y-70679537D01*
X107950012Y-70745030D01*
X107928455Y-70816095D01*
X107921176Y-70890000D01*
X107921176Y-71158286D01*
X107901697Y-71194728D01*
X107880244Y-71265451D01*
X107873492Y-71334000D01*
X107126508Y-71334000D01*
X107119756Y-71265451D01*
X107098303Y-71194728D01*
X107063464Y-71129550D01*
X107016579Y-71072421D01*
X106959450Y-71025536D01*
X106894272Y-70990697D01*
X106885844Y-70988140D01*
X106910463Y-70974981D01*
X106967869Y-70927869D01*
X107014981Y-70870463D01*
X107049988Y-70804970D01*
X107071545Y-70733905D01*
X107078824Y-70660000D01*
X107078824Y-70390000D01*
X107071545Y-70316095D01*
X107049988Y-70245030D01*
X107014981Y-70179537D01*
X106967869Y-70122131D01*
X106910463Y-70075019D01*
X106844970Y-70040012D01*
X106795481Y-70025000D01*
X106844970Y-70009988D01*
X106910463Y-69974981D01*
X106967869Y-69927869D01*
X107014981Y-69870463D01*
X107049988Y-69804970D01*
X107071545Y-69733905D01*
X107078824Y-69660000D01*
X107078824Y-69390000D01*
X107071545Y-69316095D01*
X107049988Y-69245030D01*
X107034036Y-69215187D01*
X107222224Y-69027000D01*
X107284523Y-69027000D01*
X107358383Y-69100860D01*
G04 #@! TA.AperFunction,Conductor*
D26*
G36*
X107358383Y-69100860D02*
G01*
X107469266Y-69174950D01*
X107592472Y-69225984D01*
X107723267Y-69252000D01*
X107856625Y-69252000D01*
X107923000Y-69238798D01*
X107923000Y-69371481D01*
X107921176Y-69390000D01*
X107921176Y-69660000D01*
X107923000Y-69678519D01*
X107923000Y-69725000D01*
X107930244Y-69798549D01*
X107932011Y-69804373D01*
X107928455Y-69816095D01*
X107921176Y-69890000D01*
X107921176Y-70160000D01*
X107928455Y-70233905D01*
X107950012Y-70304970D01*
X107985019Y-70370463D01*
X108032131Y-70427869D01*
X108089537Y-70474981D01*
X108155030Y-70509988D01*
X108204519Y-70525000D01*
X108155030Y-70540012D01*
X108089537Y-70575019D01*
X108032131Y-70622131D01*
X107985019Y-70679537D01*
X107950012Y-70745030D01*
X107928455Y-70816095D01*
X107921176Y-70890000D01*
X107921176Y-71158286D01*
X107901697Y-71194728D01*
X107880244Y-71265451D01*
X107873492Y-71334000D01*
X107126508Y-71334000D01*
X107119756Y-71265451D01*
X107098303Y-71194728D01*
X107063464Y-71129550D01*
X107016579Y-71072421D01*
X106959450Y-71025536D01*
X106894272Y-70990697D01*
X106885844Y-70988140D01*
X106910463Y-70974981D01*
X106967869Y-70927869D01*
X107014981Y-70870463D01*
X107049988Y-70804970D01*
X107071545Y-70733905D01*
X107078824Y-70660000D01*
X107078824Y-70390000D01*
X107071545Y-70316095D01*
X107049988Y-70245030D01*
X107014981Y-70179537D01*
X106967869Y-70122131D01*
X106910463Y-70075019D01*
X106844970Y-70040012D01*
X106795481Y-70025000D01*
X106844970Y-70009988D01*
X106910463Y-69974981D01*
X106967869Y-69927869D01*
X107014981Y-69870463D01*
X107049988Y-69804970D01*
X107071545Y-69733905D01*
X107078824Y-69660000D01*
X107078824Y-69390000D01*
X107071545Y-69316095D01*
X107049988Y-69245030D01*
X107034036Y-69215187D01*
X107222224Y-69027000D01*
X107284523Y-69027000D01*
X107358383Y-69100860D01*
G37*
G04 #@! TD.AperFunction*
D32*
X95696089Y-62950313D02*
X95696094Y-62950317D01*
X96322980Y-63577205D01*
X96322980Y-67378757D01*
X95847040Y-66902816D01*
X95929847Y-66702903D01*
X95977000Y-66465849D01*
X95977000Y-66224151D01*
X95929847Y-65987097D01*
X95837353Y-65763798D01*
X95703073Y-65562833D01*
X95532167Y-65391927D01*
X95331202Y-65257647D01*
X95107903Y-65165153D01*
X94923248Y-65128423D01*
X94873905Y-65113455D01*
X94800000Y-65106176D01*
X93502000Y-65106176D01*
X93502000Y-62483824D01*
X94588047Y-62483824D01*
X94629151Y-62492000D01*
X94870849Y-62492000D01*
X95107903Y-62444847D01*
X95166395Y-62420619D01*
X95696089Y-62950313D01*
G04 #@! TA.AperFunction,Conductor*
D26*
G36*
X95696089Y-62950313D02*
G01*
X95696094Y-62950317D01*
X96322980Y-63577205D01*
X96322980Y-67378757D01*
X95847040Y-66902816D01*
X95929847Y-66702903D01*
X95977000Y-66465849D01*
X95977000Y-66224151D01*
X95929847Y-65987097D01*
X95837353Y-65763798D01*
X95703073Y-65562833D01*
X95532167Y-65391927D01*
X95331202Y-65257647D01*
X95107903Y-65165153D01*
X94923248Y-65128423D01*
X94873905Y-65113455D01*
X94800000Y-65106176D01*
X93502000Y-65106176D01*
X93502000Y-62483824D01*
X94588047Y-62483824D01*
X94629151Y-62492000D01*
X94870849Y-62492000D01*
X95107903Y-62444847D01*
X95166395Y-62420619D01*
X95696089Y-62950313D01*
G37*
G04 #@! TD.AperFunction*
D32*
X103626095Y-65716545D02*
X103700000Y-65723824D01*
X103833002Y-65723824D01*
X103833001Y-66319031D01*
X103801217Y-66328673D01*
X103666235Y-66400823D01*
X103625000Y-66434663D01*
X103583766Y-66400823D01*
X103448784Y-66328673D01*
X103376999Y-66306897D01*
X103376999Y-65723824D01*
X103500000Y-65723824D01*
X103573905Y-65716545D01*
X103600000Y-65708629D01*
X103626095Y-65716545D01*
G04 #@! TA.AperFunction,Conductor*
D26*
G36*
X103626095Y-65716545D02*
G01*
X103700000Y-65723824D01*
X103833002Y-65723824D01*
X103833001Y-66319031D01*
X103801217Y-66328673D01*
X103666235Y-66400823D01*
X103625000Y-66434663D01*
X103583766Y-66400823D01*
X103448784Y-66328673D01*
X103376999Y-66306897D01*
X103376999Y-65723824D01*
X103500000Y-65723824D01*
X103573905Y-65716545D01*
X103600000Y-65708629D01*
X103626095Y-65716545D01*
G37*
G04 #@! TD.AperFunction*
D32*
X103336122Y-61860655D02*
X103444886Y-61893648D01*
X103529662Y-61901998D01*
X104463221Y-61901998D01*
X104352526Y-61924016D01*
X104229320Y-61975050D01*
X104118437Y-62049140D01*
X104024140Y-62143437D01*
X103950050Y-62254320D01*
X103899016Y-62377526D01*
X103873000Y-62508321D01*
X103873000Y-62641679D01*
X103899016Y-62772474D01*
X103950050Y-62895680D01*
X104024140Y-63006563D01*
X104118437Y-63100860D01*
X104229320Y-63174950D01*
X104352526Y-63225984D01*
X104398001Y-63235029D01*
X104398001Y-63516176D01*
X104200000Y-63516176D01*
X104126095Y-63523455D01*
X104100000Y-63531371D01*
X104073905Y-63523455D01*
X104000000Y-63516176D01*
X103700000Y-63516176D01*
X103626095Y-63523455D01*
X103600000Y-63531371D01*
X103573905Y-63523455D01*
X103500000Y-63516176D01*
X103200000Y-63516176D01*
X103126095Y-63523455D01*
X103100000Y-63531371D01*
X103073905Y-63523455D01*
X103000000Y-63516176D01*
X102700000Y-63516176D01*
X102626095Y-63523455D01*
X102600000Y-63531371D01*
X102573905Y-63523455D01*
X102500000Y-63516176D01*
X102200000Y-63516176D01*
X102126095Y-63523455D01*
X102100000Y-63531371D01*
X102073905Y-63523455D01*
X102000000Y-63516176D01*
X101971357Y-63516176D01*
X101977000Y-63458877D01*
X101977000Y-63458876D01*
X101979549Y-63432997D01*
X101977000Y-63407116D01*
X101977000Y-62901285D01*
X103026288Y-61851998D01*
X103319926Y-61851998D01*
X103336122Y-61860655D01*
G04 #@! TA.AperFunction,Conductor*
D26*
G36*
X103336122Y-61860655D02*
G01*
X103444886Y-61893648D01*
X103529662Y-61901998D01*
X104463221Y-61901998D01*
X104352526Y-61924016D01*
X104229320Y-61975050D01*
X104118437Y-62049140D01*
X104024140Y-62143437D01*
X103950050Y-62254320D01*
X103899016Y-62377526D01*
X103873000Y-62508321D01*
X103873000Y-62641679D01*
X103899016Y-62772474D01*
X103950050Y-62895680D01*
X104024140Y-63006563D01*
X104118437Y-63100860D01*
X104229320Y-63174950D01*
X104352526Y-63225984D01*
X104398001Y-63235029D01*
X104398001Y-63516176D01*
X104200000Y-63516176D01*
X104126095Y-63523455D01*
X104100000Y-63531371D01*
X104073905Y-63523455D01*
X104000000Y-63516176D01*
X103700000Y-63516176D01*
X103626095Y-63523455D01*
X103600000Y-63531371D01*
X103573905Y-63523455D01*
X103500000Y-63516176D01*
X103200000Y-63516176D01*
X103126095Y-63523455D01*
X103100000Y-63531371D01*
X103073905Y-63523455D01*
X103000000Y-63516176D01*
X102700000Y-63516176D01*
X102626095Y-63523455D01*
X102600000Y-63531371D01*
X102573905Y-63523455D01*
X102500000Y-63516176D01*
X102200000Y-63516176D01*
X102126095Y-63523455D01*
X102100000Y-63531371D01*
X102073905Y-63523455D01*
X102000000Y-63516176D01*
X101971357Y-63516176D01*
X101977000Y-63458877D01*
X101977000Y-63458876D01*
X101979549Y-63432997D01*
X101977000Y-63407116D01*
X101977000Y-62901285D01*
X103026288Y-61851998D01*
X103319926Y-61851998D01*
X103336122Y-61860655D01*
G37*
G04 #@! TD.AperFunction*
D32*
X95921089Y-60635313D02*
X95921094Y-60635317D01*
X96622991Y-61337216D01*
X96622991Y-62598767D01*
X96335317Y-62311094D01*
X96335313Y-62311089D01*
X95847040Y-61822816D01*
X95929847Y-61622903D01*
X95977000Y-61385849D01*
X95977000Y-61144151D01*
X95929847Y-60907097D01*
X95837353Y-60683798D01*
X95703073Y-60482833D01*
X95532167Y-60311927D01*
X95331202Y-60177647D01*
X95107903Y-60085153D01*
X94923248Y-60048423D01*
X94873905Y-60033455D01*
X94800000Y-60026176D01*
X93502000Y-60026176D01*
X93502000Y-59953824D01*
X94800000Y-59953824D01*
X94818519Y-59952000D01*
X94870849Y-59952000D01*
X95107903Y-59904847D01*
X95166395Y-59880619D01*
X95921089Y-60635313D01*
G04 #@! TA.AperFunction,Conductor*
D26*
G36*
X95921089Y-60635313D02*
G01*
X95921094Y-60635317D01*
X96622991Y-61337216D01*
X96622991Y-62598767D01*
X96335317Y-62311094D01*
X96335313Y-62311089D01*
X95847040Y-61822816D01*
X95929847Y-61622903D01*
X95977000Y-61385849D01*
X95977000Y-61144151D01*
X95929847Y-60907097D01*
X95837353Y-60683798D01*
X95703073Y-60482833D01*
X95532167Y-60311927D01*
X95331202Y-60177647D01*
X95107903Y-60085153D01*
X94923248Y-60048423D01*
X94873905Y-60033455D01*
X94800000Y-60026176D01*
X93502000Y-60026176D01*
X93502000Y-59953824D01*
X94800000Y-59953824D01*
X94818519Y-59952000D01*
X94870849Y-59952000D01*
X95107903Y-59904847D01*
X95166395Y-59880619D01*
X95921089Y-60635313D01*
G37*
G04 #@! TD.AperFunction*
D32*
X110723000Y-66998000D02*
X109250000Y-66998000D01*
X109225224Y-67000440D01*
X109201399Y-67007667D01*
X109179443Y-67019403D01*
X109160197Y-67035197D01*
X109144403Y-67054443D01*
X109132667Y-67076399D01*
X109125440Y-67100224D01*
X109123000Y-67125000D01*
X109123000Y-69512456D01*
X109110000Y-69511176D01*
X108477462Y-69511176D01*
X108471545Y-69451095D01*
X108449988Y-69380030D01*
X108427000Y-69337023D01*
X108427000Y-68806104D01*
X108440930Y-68772474D01*
X108466946Y-68641679D01*
X108466946Y-68508321D01*
X108440930Y-68377526D01*
X108438824Y-68372442D01*
X108438824Y-68280000D01*
X108428951Y-68179758D01*
X108427000Y-68173327D01*
X108427000Y-67525000D01*
X108424560Y-67500224D01*
X108417333Y-67476399D01*
X108405597Y-67454443D01*
X108389803Y-67435197D01*
X108370557Y-67419403D01*
X108348601Y-67407667D01*
X108324776Y-67400440D01*
X108300000Y-67398000D01*
X107677000Y-67398000D01*
X107677000Y-65652000D01*
X110723000Y-65652000D01*
X110723000Y-66998000D01*
G04 #@! TA.AperFunction,Conductor*
D26*
G36*
X110723000Y-66998000D02*
G01*
X109250000Y-66998000D01*
X109225224Y-67000440D01*
X109201399Y-67007667D01*
X109179443Y-67019403D01*
X109160197Y-67035197D01*
X109144403Y-67054443D01*
X109132667Y-67076399D01*
X109125440Y-67100224D01*
X109123000Y-67125000D01*
X109123000Y-69512456D01*
X109110000Y-69511176D01*
X108477462Y-69511176D01*
X108471545Y-69451095D01*
X108449988Y-69380030D01*
X108427000Y-69337023D01*
X108427000Y-68806104D01*
X108440930Y-68772474D01*
X108466946Y-68641679D01*
X108466946Y-68508321D01*
X108440930Y-68377526D01*
X108438824Y-68372442D01*
X108438824Y-68280000D01*
X108428951Y-68179758D01*
X108427000Y-68173327D01*
X108427000Y-67525000D01*
X108424560Y-67500224D01*
X108417333Y-67476399D01*
X108405597Y-67454443D01*
X108389803Y-67435197D01*
X108370557Y-67419403D01*
X108348601Y-67407667D01*
X108324776Y-67400440D01*
X108300000Y-67398000D01*
X107677000Y-67398000D01*
X107677000Y-65652000D01*
X110723000Y-65652000D01*
X110723000Y-66998000D01*
G37*
G04 #@! TD.AperFunction*
D32*
X103901197Y-88815129D02*
X103890000Y-88828772D01*
X103871381Y-88806084D01*
X103901197Y-88815129D01*
G04 #@! TA.AperFunction,Conductor*
D26*
G36*
X103901197Y-88815129D02*
G01*
X103890000Y-88828772D01*
X103871381Y-88806084D01*
X103901197Y-88815129D01*
G37*
G04 #@! TD.AperFunction*
D32*
X104211176Y-82923341D02*
X104176536Y-82965550D01*
X104141697Y-83030728D01*
X104120244Y-83101451D01*
X104113000Y-83175000D01*
X104113000Y-83423000D01*
X101490000Y-83423000D01*
X101416451Y-83430244D01*
X101345728Y-83451697D01*
X101280550Y-83486536D01*
X101223421Y-83533421D01*
X101176536Y-83590550D01*
X101141697Y-83655728D01*
X101120244Y-83726451D01*
X101113000Y-83800000D01*
X101113000Y-88175000D01*
X101120244Y-88248549D01*
X101141697Y-88319272D01*
X101176536Y-88384450D01*
X101223421Y-88441579D01*
X101280550Y-88488464D01*
X101345728Y-88523303D01*
X101416451Y-88544756D01*
X101490000Y-88552000D01*
X103628874Y-88552000D01*
X103641697Y-88594272D01*
X103676536Y-88659450D01*
X103688562Y-88674104D01*
X103623659Y-88654416D01*
X103540000Y-88646176D01*
X103440000Y-88646176D01*
X103356341Y-88654416D01*
X103290000Y-88674540D01*
X103223659Y-88654416D01*
X103140000Y-88646176D01*
X103040000Y-88646176D01*
X102956341Y-88654416D01*
X102890000Y-88674540D01*
X102823659Y-88654416D01*
X102740000Y-88646176D01*
X102640000Y-88646176D01*
X102556341Y-88654416D01*
X102490000Y-88674540D01*
X102423659Y-88654416D01*
X102340000Y-88646176D01*
X102240000Y-88646176D01*
X102156341Y-88654416D01*
X102090000Y-88674540D01*
X102023659Y-88654416D01*
X101940000Y-88646176D01*
X101840000Y-88646176D01*
X101756341Y-88654416D01*
X101690000Y-88674540D01*
X101623659Y-88654416D01*
X101540000Y-88646176D01*
X101440000Y-88646176D01*
X101356341Y-88654416D01*
X101290000Y-88674540D01*
X101223659Y-88654416D01*
X101140000Y-88646176D01*
X101068824Y-88646176D01*
X101068824Y-88575000D01*
X101060584Y-88491341D01*
X101040460Y-88425000D01*
X101060584Y-88358659D01*
X101068824Y-88275000D01*
X101068824Y-88175000D01*
X101060584Y-88091341D01*
X101040460Y-88025000D01*
X101060584Y-87958659D01*
X101068824Y-87875000D01*
X101068824Y-87775000D01*
X101060584Y-87691341D01*
X101040460Y-87625000D01*
X101060584Y-87558659D01*
X101068824Y-87475000D01*
X101068824Y-87375000D01*
X101060584Y-87291341D01*
X101036182Y-87210896D01*
X100996554Y-87136758D01*
X100943224Y-87071776D01*
X100886228Y-87025000D01*
X100943224Y-86978224D01*
X100996554Y-86913242D01*
X101036182Y-86839104D01*
X101060584Y-86758659D01*
X101068824Y-86675000D01*
X101068824Y-86575000D01*
X101060584Y-86491341D01*
X101040460Y-86425000D01*
X101060584Y-86358659D01*
X101068824Y-86275000D01*
X101068824Y-86175000D01*
X101060584Y-86091341D01*
X101040460Y-86025000D01*
X101060584Y-85958659D01*
X101068824Y-85875000D01*
X101068824Y-85775000D01*
X101060584Y-85691341D01*
X101040460Y-85625000D01*
X101060584Y-85558659D01*
X101068824Y-85475000D01*
X101068824Y-85375000D01*
X101060584Y-85291341D01*
X101040460Y-85225000D01*
X101060584Y-85158659D01*
X101068824Y-85075000D01*
X101068824Y-84975000D01*
X101060584Y-84891341D01*
X101040460Y-84825000D01*
X101060584Y-84758659D01*
X101068824Y-84675000D01*
X101068824Y-84575000D01*
X101060584Y-84491341D01*
X101040460Y-84425000D01*
X101060584Y-84358659D01*
X101068824Y-84275000D01*
X101068824Y-84175000D01*
X101060584Y-84091341D01*
X101040460Y-84025000D01*
X101060584Y-83958659D01*
X101068824Y-83875000D01*
X101068824Y-83775000D01*
X101060584Y-83691341D01*
X101036182Y-83610896D01*
X100996554Y-83536758D01*
X100943224Y-83471776D01*
X100878242Y-83418446D01*
X100804104Y-83378818D01*
X100723659Y-83354416D01*
X100699130Y-83352000D01*
X100840009Y-83352000D01*
X100875896Y-83371182D01*
X100956341Y-83395584D01*
X101040000Y-83403824D01*
X101140000Y-83403824D01*
X101223659Y-83395584D01*
X101290000Y-83375460D01*
X101356341Y-83395584D01*
X101440000Y-83403824D01*
X101540000Y-83403824D01*
X101623659Y-83395584D01*
X101690000Y-83375460D01*
X101756341Y-83395584D01*
X101840000Y-83403824D01*
X101940000Y-83403824D01*
X102023659Y-83395584D01*
X102090000Y-83375460D01*
X102156341Y-83395584D01*
X102240000Y-83403824D01*
X102340000Y-83403824D01*
X102423659Y-83395584D01*
X102490000Y-83375460D01*
X102556341Y-83395584D01*
X102640000Y-83403824D01*
X102740000Y-83403824D01*
X102823659Y-83395584D01*
X102890000Y-83375460D01*
X102956341Y-83395584D01*
X103040000Y-83403824D01*
X103140000Y-83403824D01*
X103223659Y-83395584D01*
X103290000Y-83375460D01*
X103356341Y-83395584D01*
X103440000Y-83403824D01*
X103540000Y-83403824D01*
X103623659Y-83395584D01*
X103704104Y-83371182D01*
X103778242Y-83331554D01*
X103843224Y-83278224D01*
X103896554Y-83213242D01*
X103936182Y-83139104D01*
X103960584Y-83058659D01*
X103968824Y-82975000D01*
X103968824Y-82202000D01*
X104211176Y-82202000D01*
X104211176Y-82923341D01*
G04 #@! TA.AperFunction,Conductor*
D26*
G36*
X104211176Y-82923341D02*
G01*
X104176536Y-82965550D01*
X104141697Y-83030728D01*
X104120244Y-83101451D01*
X104113000Y-83175000D01*
X104113000Y-83423000D01*
X101490000Y-83423000D01*
X101416451Y-83430244D01*
X101345728Y-83451697D01*
X101280550Y-83486536D01*
X101223421Y-83533421D01*
X101176536Y-83590550D01*
X101141697Y-83655728D01*
X101120244Y-83726451D01*
X101113000Y-83800000D01*
X101113000Y-88175000D01*
X101120244Y-88248549D01*
X101141697Y-88319272D01*
X101176536Y-88384450D01*
X101223421Y-88441579D01*
X101280550Y-88488464D01*
X101345728Y-88523303D01*
X101416451Y-88544756D01*
X101490000Y-88552000D01*
X103628874Y-88552000D01*
X103641697Y-88594272D01*
X103676536Y-88659450D01*
X103688562Y-88674104D01*
X103623659Y-88654416D01*
X103540000Y-88646176D01*
X103440000Y-88646176D01*
X103356341Y-88654416D01*
X103290000Y-88674540D01*
X103223659Y-88654416D01*
X103140000Y-88646176D01*
X103040000Y-88646176D01*
X102956341Y-88654416D01*
X102890000Y-88674540D01*
X102823659Y-88654416D01*
X102740000Y-88646176D01*
X102640000Y-88646176D01*
X102556341Y-88654416D01*
X102490000Y-88674540D01*
X102423659Y-88654416D01*
X102340000Y-88646176D01*
X102240000Y-88646176D01*
X102156341Y-88654416D01*
X102090000Y-88674540D01*
X102023659Y-88654416D01*
X101940000Y-88646176D01*
X101840000Y-88646176D01*
X101756341Y-88654416D01*
X101690000Y-88674540D01*
X101623659Y-88654416D01*
X101540000Y-88646176D01*
X101440000Y-88646176D01*
X101356341Y-88654416D01*
X101290000Y-88674540D01*
X101223659Y-88654416D01*
X101140000Y-88646176D01*
X101068824Y-88646176D01*
X101068824Y-88575000D01*
X101060584Y-88491341D01*
X101040460Y-88425000D01*
X101060584Y-88358659D01*
X101068824Y-88275000D01*
X101068824Y-88175000D01*
X101060584Y-88091341D01*
X101040460Y-88025000D01*
X101060584Y-87958659D01*
X101068824Y-87875000D01*
X101068824Y-87775000D01*
X101060584Y-87691341D01*
X101040460Y-87625000D01*
X101060584Y-87558659D01*
X101068824Y-87475000D01*
X101068824Y-87375000D01*
X101060584Y-87291341D01*
X101036182Y-87210896D01*
X100996554Y-87136758D01*
X100943224Y-87071776D01*
X100886228Y-87025000D01*
X100943224Y-86978224D01*
X100996554Y-86913242D01*
X101036182Y-86839104D01*
X101060584Y-86758659D01*
X101068824Y-86675000D01*
X101068824Y-86575000D01*
X101060584Y-86491341D01*
X101040460Y-86425000D01*
X101060584Y-86358659D01*
X101068824Y-86275000D01*
X101068824Y-86175000D01*
X101060584Y-86091341D01*
X101040460Y-86025000D01*
X101060584Y-85958659D01*
X101068824Y-85875000D01*
X101068824Y-85775000D01*
X101060584Y-85691341D01*
X101040460Y-85625000D01*
X101060584Y-85558659D01*
X101068824Y-85475000D01*
X101068824Y-85375000D01*
X101060584Y-85291341D01*
X101040460Y-85225000D01*
X101060584Y-85158659D01*
X101068824Y-85075000D01*
X101068824Y-84975000D01*
X101060584Y-84891341D01*
X101040460Y-84825000D01*
X101060584Y-84758659D01*
X101068824Y-84675000D01*
X101068824Y-84575000D01*
X101060584Y-84491341D01*
X101040460Y-84425000D01*
X101060584Y-84358659D01*
X101068824Y-84275000D01*
X101068824Y-84175000D01*
X101060584Y-84091341D01*
X101040460Y-84025000D01*
X101060584Y-83958659D01*
X101068824Y-83875000D01*
X101068824Y-83775000D01*
X101060584Y-83691341D01*
X101036182Y-83610896D01*
X100996554Y-83536758D01*
X100943224Y-83471776D01*
X100878242Y-83418446D01*
X100804104Y-83378818D01*
X100723659Y-83354416D01*
X100699130Y-83352000D01*
X100840009Y-83352000D01*
X100875896Y-83371182D01*
X100956341Y-83395584D01*
X101040000Y-83403824D01*
X101140000Y-83403824D01*
X101223659Y-83395584D01*
X101290000Y-83375460D01*
X101356341Y-83395584D01*
X101440000Y-83403824D01*
X101540000Y-83403824D01*
X101623659Y-83395584D01*
X101690000Y-83375460D01*
X101756341Y-83395584D01*
X101840000Y-83403824D01*
X101940000Y-83403824D01*
X102023659Y-83395584D01*
X102090000Y-83375460D01*
X102156341Y-83395584D01*
X102240000Y-83403824D01*
X102340000Y-83403824D01*
X102423659Y-83395584D01*
X102490000Y-83375460D01*
X102556341Y-83395584D01*
X102640000Y-83403824D01*
X102740000Y-83403824D01*
X102823659Y-83395584D01*
X102890000Y-83375460D01*
X102956341Y-83395584D01*
X103040000Y-83403824D01*
X103140000Y-83403824D01*
X103223659Y-83395584D01*
X103290000Y-83375460D01*
X103356341Y-83395584D01*
X103440000Y-83403824D01*
X103540000Y-83403824D01*
X103623659Y-83395584D01*
X103704104Y-83371182D01*
X103778242Y-83331554D01*
X103843224Y-83278224D01*
X103896554Y-83213242D01*
X103936182Y-83139104D01*
X103960584Y-83058659D01*
X103968824Y-82975000D01*
X103968824Y-82202000D01*
X104211176Y-82202000D01*
X104211176Y-82923341D01*
G37*
G04 #@! TD.AperFunction*
D32*
X106528455Y-71598905D02*
X106550012Y-71669970D01*
X106585019Y-71735463D01*
X106632131Y-71792869D01*
X106689537Y-71839981D01*
X106755030Y-71874988D01*
X106826095Y-71896545D01*
X106900000Y-71903824D01*
X108100000Y-71903824D01*
X108173905Y-71896545D01*
X108244970Y-71874988D01*
X108310463Y-71839981D01*
X108367869Y-71792869D01*
X108414981Y-71735463D01*
X108449988Y-71669970D01*
X108471545Y-71598905D01*
X108477462Y-71538824D01*
X109043000Y-71538824D01*
X109043000Y-72225000D01*
X109045440Y-72249776D01*
X109052667Y-72273601D01*
X109064403Y-72295557D01*
X109080197Y-72314803D01*
X109099443Y-72330597D01*
X109121399Y-72342333D01*
X109145224Y-72349560D01*
X109170801Y-72351997D01*
X109650771Y-72348969D01*
X109715068Y-72383336D01*
X109827169Y-72417342D01*
X109943750Y-72428824D01*
X110627893Y-72428824D01*
X110623795Y-80642266D01*
X110602348Y-80668399D01*
X110560376Y-80746923D01*
X110534530Y-80832125D01*
X110525803Y-80920732D01*
X110527991Y-80942947D01*
X110527990Y-82083508D01*
X110146080Y-82465419D01*
X109853960Y-82757539D01*
X109853949Y-82757548D01*
X109195165Y-83416333D01*
X109102156Y-83498000D01*
X107839746Y-83498000D01*
X107818224Y-83471776D01*
X107753242Y-83418446D01*
X107679104Y-83378818D01*
X107598659Y-83354416D01*
X107515000Y-83346176D01*
X106740000Y-83346176D01*
X106656341Y-83354416D01*
X106575896Y-83378818D01*
X106501758Y-83418446D01*
X106436776Y-83471776D01*
X106383446Y-83536758D01*
X106343818Y-83610896D01*
X106319416Y-83691341D01*
X106311176Y-83775000D01*
X106311176Y-83875000D01*
X106319416Y-83958659D01*
X106339540Y-84025000D01*
X106319416Y-84091341D01*
X106311176Y-84175000D01*
X106311176Y-84275000D01*
X106319416Y-84358659D01*
X106339540Y-84425000D01*
X106319416Y-84491341D01*
X106311176Y-84575000D01*
X106311176Y-84675000D01*
X106319416Y-84758659D01*
X106339540Y-84825000D01*
X106319416Y-84891341D01*
X106311176Y-84975000D01*
X106311176Y-85075000D01*
X106319416Y-85158659D01*
X106339540Y-85225000D01*
X106319416Y-85291341D01*
X106311176Y-85375000D01*
X106311176Y-85475000D01*
X106319416Y-85558659D01*
X106339540Y-85625000D01*
X106319416Y-85691341D01*
X106311176Y-85775000D01*
X106311176Y-85875000D01*
X106319416Y-85958659D01*
X106339540Y-86025000D01*
X106319416Y-86091341D01*
X106311176Y-86175000D01*
X106311176Y-86275000D01*
X106319416Y-86358659D01*
X106339540Y-86425000D01*
X106319416Y-86491341D01*
X106311176Y-86575000D01*
X106311176Y-86675000D01*
X106319416Y-86758659D01*
X106343818Y-86839104D01*
X106383446Y-86913242D01*
X106413000Y-86949253D01*
X106413000Y-87100747D01*
X106383446Y-87136758D01*
X106343818Y-87210896D01*
X106319416Y-87291341D01*
X106311176Y-87375000D01*
X106311176Y-87475000D01*
X106319416Y-87558659D01*
X106339540Y-87625000D01*
X106319416Y-87691341D01*
X106311176Y-87775000D01*
X106311176Y-87875000D01*
X106319416Y-87958659D01*
X106339540Y-88025000D01*
X106319416Y-88091341D01*
X106311176Y-88175000D01*
X106311176Y-88275000D01*
X106319416Y-88358659D01*
X106339540Y-88425000D01*
X106319416Y-88491341D01*
X106311176Y-88575000D01*
X106311176Y-88646176D01*
X106240000Y-88646176D01*
X106156341Y-88654416D01*
X106090000Y-88674540D01*
X106023659Y-88654416D01*
X105940000Y-88646176D01*
X105840000Y-88646176D01*
X105756341Y-88654416D01*
X105690000Y-88674540D01*
X105623659Y-88654416D01*
X105540000Y-88646176D01*
X105440000Y-88646176D01*
X105356341Y-88654416D01*
X105290000Y-88674540D01*
X105223659Y-88654416D01*
X105140000Y-88646176D01*
X105040000Y-88646176D01*
X104982534Y-88651836D01*
X105013303Y-88594272D01*
X105034756Y-88523549D01*
X105042000Y-88450000D01*
X105042000Y-88003824D01*
X105146000Y-88003824D01*
X105247998Y-87993778D01*
X105346076Y-87964026D01*
X105436465Y-87915712D01*
X105454969Y-87900526D01*
X105464776Y-87899560D01*
X105488601Y-87892333D01*
X105510557Y-87880597D01*
X105529803Y-87864803D01*
X105545597Y-87845557D01*
X105557333Y-87823601D01*
X105564560Y-87799776D01*
X105565526Y-87789969D01*
X105580712Y-87771465D01*
X105629026Y-87681076D01*
X105658778Y-87582998D01*
X105668824Y-87481000D01*
X105668824Y-84649161D01*
X105713549Y-84644756D01*
X105784272Y-84623303D01*
X105849450Y-84588464D01*
X105906579Y-84541579D01*
X105953464Y-84484450D01*
X105988303Y-84419272D01*
X106009756Y-84348549D01*
X106017000Y-84275000D01*
X106017000Y-82152000D01*
X106576585Y-82152000D01*
X106600000Y-82154306D01*
X106623415Y-82152000D01*
X106623423Y-82152000D01*
X106693508Y-82145097D01*
X106783423Y-82117822D01*
X106866289Y-82073529D01*
X106922984Y-82027000D01*
X106991679Y-82027000D01*
X107117366Y-82002000D01*
X107130000Y-82002000D01*
X107154776Y-81999560D01*
X107178601Y-81992333D01*
X107200557Y-81980597D01*
X107217586Y-81966966D01*
X107227581Y-81957447D01*
X107245680Y-81949950D01*
X107356563Y-81875860D01*
X107450860Y-81781563D01*
X107518411Y-81680466D01*
X107847586Y-81366966D01*
X107863845Y-81348111D01*
X107876113Y-81326447D01*
X107883919Y-81302806D01*
X107886995Y-81276104D01*
X107892648Y-80626048D01*
X107899331Y-80613545D01*
X107928855Y-80516218D01*
X107938824Y-80415000D01*
X107938824Y-80135000D01*
X107938635Y-80133080D01*
X108090275Y-79975824D01*
X108403000Y-79975824D01*
X108441826Y-79972000D01*
X108810000Y-79972000D01*
X108834776Y-79969560D01*
X108858601Y-79962333D01*
X108880557Y-79950597D01*
X108899803Y-79934803D01*
X108915597Y-79915557D01*
X108927333Y-79893601D01*
X108934560Y-79869776D01*
X108937000Y-79845000D01*
X108937000Y-78805000D01*
X108934560Y-78780224D01*
X108927333Y-78756399D01*
X108915597Y-78734443D01*
X108899803Y-78715197D01*
X108880557Y-78699403D01*
X108858601Y-78687667D01*
X108834776Y-78680440D01*
X108810000Y-78678000D01*
X108536705Y-78678000D01*
X108504218Y-78668145D01*
X108403000Y-78658176D01*
X108063000Y-78658176D01*
X107961782Y-78668145D01*
X107929295Y-78678000D01*
X107560298Y-78678000D01*
X107521218Y-78666145D01*
X107420000Y-78656176D01*
X107080000Y-78656176D01*
X106978782Y-78666145D01*
X106939702Y-78678000D01*
X106897000Y-78678000D01*
X106897000Y-74482740D01*
X106939331Y-74403545D01*
X106968855Y-74306218D01*
X106978824Y-74205000D01*
X106978824Y-73865000D01*
X106968855Y-73763782D01*
X106939331Y-73666455D01*
X106897000Y-73587260D01*
X106897000Y-73015000D01*
X106894560Y-72990224D01*
X106887333Y-72966399D01*
X106875597Y-72944443D01*
X106859803Y-72925197D01*
X106840557Y-72909403D01*
X106818601Y-72897667D01*
X106794776Y-72890440D01*
X106770000Y-72888000D01*
X105967000Y-72888000D01*
X105967000Y-71538824D01*
X106522538Y-71538824D01*
X106528455Y-71598905D01*
G04 #@! TA.AperFunction,Conductor*
D26*
G36*
X106528455Y-71598905D02*
G01*
X106550012Y-71669970D01*
X106585019Y-71735463D01*
X106632131Y-71792869D01*
X106689537Y-71839981D01*
X106755030Y-71874988D01*
X106826095Y-71896545D01*
X106900000Y-71903824D01*
X108100000Y-71903824D01*
X108173905Y-71896545D01*
X108244970Y-71874988D01*
X108310463Y-71839981D01*
X108367869Y-71792869D01*
X108414981Y-71735463D01*
X108449988Y-71669970D01*
X108471545Y-71598905D01*
X108477462Y-71538824D01*
X109043000Y-71538824D01*
X109043000Y-72225000D01*
X109045440Y-72249776D01*
X109052667Y-72273601D01*
X109064403Y-72295557D01*
X109080197Y-72314803D01*
X109099443Y-72330597D01*
X109121399Y-72342333D01*
X109145224Y-72349560D01*
X109170801Y-72351997D01*
X109650771Y-72348969D01*
X109715068Y-72383336D01*
X109827169Y-72417342D01*
X109943750Y-72428824D01*
X110627893Y-72428824D01*
X110623795Y-80642266D01*
X110602348Y-80668399D01*
X110560376Y-80746923D01*
X110534530Y-80832125D01*
X110525803Y-80920732D01*
X110527991Y-80942947D01*
X110527990Y-82083508D01*
X110146080Y-82465419D01*
X109853960Y-82757539D01*
X109853949Y-82757548D01*
X109195165Y-83416333D01*
X109102156Y-83498000D01*
X107839746Y-83498000D01*
X107818224Y-83471776D01*
X107753242Y-83418446D01*
X107679104Y-83378818D01*
X107598659Y-83354416D01*
X107515000Y-83346176D01*
X106740000Y-83346176D01*
X106656341Y-83354416D01*
X106575896Y-83378818D01*
X106501758Y-83418446D01*
X106436776Y-83471776D01*
X106383446Y-83536758D01*
X106343818Y-83610896D01*
X106319416Y-83691341D01*
X106311176Y-83775000D01*
X106311176Y-83875000D01*
X106319416Y-83958659D01*
X106339540Y-84025000D01*
X106319416Y-84091341D01*
X106311176Y-84175000D01*
X106311176Y-84275000D01*
X106319416Y-84358659D01*
X106339540Y-84425000D01*
X106319416Y-84491341D01*
X106311176Y-84575000D01*
X106311176Y-84675000D01*
X106319416Y-84758659D01*
X106339540Y-84825000D01*
X106319416Y-84891341D01*
X106311176Y-84975000D01*
X106311176Y-85075000D01*
X106319416Y-85158659D01*
X106339540Y-85225000D01*
X106319416Y-85291341D01*
X106311176Y-85375000D01*
X106311176Y-85475000D01*
X106319416Y-85558659D01*
X106339540Y-85625000D01*
X106319416Y-85691341D01*
X106311176Y-85775000D01*
X106311176Y-85875000D01*
X106319416Y-85958659D01*
X106339540Y-86025000D01*
X106319416Y-86091341D01*
X106311176Y-86175000D01*
X106311176Y-86275000D01*
X106319416Y-86358659D01*
X106339540Y-86425000D01*
X106319416Y-86491341D01*
X106311176Y-86575000D01*
X106311176Y-86675000D01*
X106319416Y-86758659D01*
X106343818Y-86839104D01*
X106383446Y-86913242D01*
X106413000Y-86949253D01*
X106413000Y-87100747D01*
X106383446Y-87136758D01*
X106343818Y-87210896D01*
X106319416Y-87291341D01*
X106311176Y-87375000D01*
X106311176Y-87475000D01*
X106319416Y-87558659D01*
X106339540Y-87625000D01*
X106319416Y-87691341D01*
X106311176Y-87775000D01*
X106311176Y-87875000D01*
X106319416Y-87958659D01*
X106339540Y-88025000D01*
X106319416Y-88091341D01*
X106311176Y-88175000D01*
X106311176Y-88275000D01*
X106319416Y-88358659D01*
X106339540Y-88425000D01*
X106319416Y-88491341D01*
X106311176Y-88575000D01*
X106311176Y-88646176D01*
X106240000Y-88646176D01*
X106156341Y-88654416D01*
X106090000Y-88674540D01*
X106023659Y-88654416D01*
X105940000Y-88646176D01*
X105840000Y-88646176D01*
X105756341Y-88654416D01*
X105690000Y-88674540D01*
X105623659Y-88654416D01*
X105540000Y-88646176D01*
X105440000Y-88646176D01*
X105356341Y-88654416D01*
X105290000Y-88674540D01*
X105223659Y-88654416D01*
X105140000Y-88646176D01*
X105040000Y-88646176D01*
X104982534Y-88651836D01*
X105013303Y-88594272D01*
X105034756Y-88523549D01*
X105042000Y-88450000D01*
X105042000Y-88003824D01*
X105146000Y-88003824D01*
X105247998Y-87993778D01*
X105346076Y-87964026D01*
X105436465Y-87915712D01*
X105454969Y-87900526D01*
X105464776Y-87899560D01*
X105488601Y-87892333D01*
X105510557Y-87880597D01*
X105529803Y-87864803D01*
X105545597Y-87845557D01*
X105557333Y-87823601D01*
X105564560Y-87799776D01*
X105565526Y-87789969D01*
X105580712Y-87771465D01*
X105629026Y-87681076D01*
X105658778Y-87582998D01*
X105668824Y-87481000D01*
X105668824Y-84649161D01*
X105713549Y-84644756D01*
X105784272Y-84623303D01*
X105849450Y-84588464D01*
X105906579Y-84541579D01*
X105953464Y-84484450D01*
X105988303Y-84419272D01*
X106009756Y-84348549D01*
X106017000Y-84275000D01*
X106017000Y-82152000D01*
X106576585Y-82152000D01*
X106600000Y-82154306D01*
X106623415Y-82152000D01*
X106623423Y-82152000D01*
X106693508Y-82145097D01*
X106783423Y-82117822D01*
X106866289Y-82073529D01*
X106922984Y-82027000D01*
X106991679Y-82027000D01*
X107117366Y-82002000D01*
X107130000Y-82002000D01*
X107154776Y-81999560D01*
X107178601Y-81992333D01*
X107200557Y-81980597D01*
X107217586Y-81966966D01*
X107227581Y-81957447D01*
X107245680Y-81949950D01*
X107356563Y-81875860D01*
X107450860Y-81781563D01*
X107518411Y-81680466D01*
X107847586Y-81366966D01*
X107863845Y-81348111D01*
X107876113Y-81326447D01*
X107883919Y-81302806D01*
X107886995Y-81276104D01*
X107892648Y-80626048D01*
X107899331Y-80613545D01*
X107928855Y-80516218D01*
X107938824Y-80415000D01*
X107938824Y-80135000D01*
X107938635Y-80133080D01*
X108090275Y-79975824D01*
X108403000Y-79975824D01*
X108441826Y-79972000D01*
X108810000Y-79972000D01*
X108834776Y-79969560D01*
X108858601Y-79962333D01*
X108880557Y-79950597D01*
X108899803Y-79934803D01*
X108915597Y-79915557D01*
X108927333Y-79893601D01*
X108934560Y-79869776D01*
X108937000Y-79845000D01*
X108937000Y-78805000D01*
X108934560Y-78780224D01*
X108927333Y-78756399D01*
X108915597Y-78734443D01*
X108899803Y-78715197D01*
X108880557Y-78699403D01*
X108858601Y-78687667D01*
X108834776Y-78680440D01*
X108810000Y-78678000D01*
X108536705Y-78678000D01*
X108504218Y-78668145D01*
X108403000Y-78658176D01*
X108063000Y-78658176D01*
X107961782Y-78668145D01*
X107929295Y-78678000D01*
X107560298Y-78678000D01*
X107521218Y-78666145D01*
X107420000Y-78656176D01*
X107080000Y-78656176D01*
X106978782Y-78666145D01*
X106939702Y-78678000D01*
X106897000Y-78678000D01*
X106897000Y-74482740D01*
X106939331Y-74403545D01*
X106968855Y-74306218D01*
X106978824Y-74205000D01*
X106978824Y-73865000D01*
X106968855Y-73763782D01*
X106939331Y-73666455D01*
X106897000Y-73587260D01*
X106897000Y-73015000D01*
X106894560Y-72990224D01*
X106887333Y-72966399D01*
X106875597Y-72944443D01*
X106859803Y-72925197D01*
X106840557Y-72909403D01*
X106818601Y-72897667D01*
X106794776Y-72890440D01*
X106770000Y-72888000D01*
X105967000Y-72888000D01*
X105967000Y-71538824D01*
X106522538Y-71538824D01*
X106528455Y-71598905D01*
G37*
G04 #@! TD.AperFunction*
M02*
