G04 #@! TF.GenerationSoftware,KiCad,Pcbnew,(5.1.9)-1*
G04 #@! TF.CreationDate,2021-05-15T18:25:28+01:00*
G04 #@! TF.ProjectId,EnvOpenPico,456e764f-7065-46e5-9069-636f2e6b6963,REV1*
G04 #@! TF.SameCoordinates,Original*
G04 #@! TF.FileFunction,Legend,Bot*
G04 #@! TF.FilePolarity,Positive*
%FSLAX46Y46*%
G04 Gerber Fmt 4.6, Leading zero omitted, Abs format (unit mm)*
G04 Created by KiCad (PCBNEW (5.1.9)-1) date 2021-05-15 18:25:28*
%MOMM*%
%LPD*%
G01*
G04 APERTURE LIST*
%ADD10C,0.150000*%
%ADD11C,0.120000*%
%ADD12C,0.752000*%
%ADD13O,1.102000X2.202000*%
%ADD14O,1.102000X1.702000*%
%ADD15C,2.302000*%
%ADD16O,1.802000X1.802000*%
%ADD17C,1.802000*%
G04 APERTURE END LIST*
D10*
X105197619Y-60052380D02*
X105530952Y-59576190D01*
X105769047Y-60052380D02*
X105769047Y-59052380D01*
X105388095Y-59052380D01*
X105292857Y-59100000D01*
X105245238Y-59147619D01*
X105197619Y-59242857D01*
X105197619Y-59385714D01*
X105245238Y-59480952D01*
X105292857Y-59528571D01*
X105388095Y-59576190D01*
X105769047Y-59576190D01*
X104769047Y-59528571D02*
X104435714Y-59528571D01*
X104292857Y-60052380D02*
X104769047Y-60052380D01*
X104769047Y-59052380D01*
X104292857Y-59052380D01*
X104007142Y-59052380D02*
X103673809Y-60052380D01*
X103340476Y-59052380D01*
X103054761Y-59385714D02*
X102340476Y-59385714D01*
X102769047Y-58957142D02*
X103054761Y-60242857D01*
X102435714Y-59814285D02*
X103150000Y-59814285D01*
X102721428Y-60242857D02*
X102435714Y-58957142D01*
X101816666Y-59052380D02*
X101721428Y-59052380D01*
X101626190Y-59100000D01*
X101578571Y-59147619D01*
X101530952Y-59242857D01*
X101483333Y-59433333D01*
X101483333Y-59671428D01*
X101530952Y-59861904D01*
X101578571Y-59957142D01*
X101626190Y-60004761D01*
X101721428Y-60052380D01*
X101816666Y-60052380D01*
X101911904Y-60004761D01*
X101959523Y-59957142D01*
X102007142Y-59861904D01*
X102054761Y-59671428D01*
X102054761Y-59433333D01*
X102007142Y-59242857D01*
X101959523Y-59147619D01*
X101911904Y-59100000D01*
X101816666Y-59052380D01*
X107602380Y-58602380D02*
X107602380Y-57602380D01*
X107221428Y-57602380D01*
X107126190Y-57650000D01*
X107078571Y-57697619D01*
X107030952Y-57792857D01*
X107030952Y-57935714D01*
X107078571Y-58030952D01*
X107126190Y-58078571D01*
X107221428Y-58126190D01*
X107602380Y-58126190D01*
X106030952Y-58602380D02*
X106364285Y-58126190D01*
X106602380Y-58602380D02*
X106602380Y-57602380D01*
X106221428Y-57602380D01*
X106126190Y-57650000D01*
X106078571Y-57697619D01*
X106030952Y-57792857D01*
X106030952Y-57935714D01*
X106078571Y-58030952D01*
X106126190Y-58078571D01*
X106221428Y-58126190D01*
X106602380Y-58126190D01*
X105411904Y-57602380D02*
X105221428Y-57602380D01*
X105126190Y-57650000D01*
X105030952Y-57745238D01*
X104983333Y-57935714D01*
X104983333Y-58269047D01*
X105030952Y-58459523D01*
X105126190Y-58554761D01*
X105221428Y-58602380D01*
X105411904Y-58602380D01*
X105507142Y-58554761D01*
X105602380Y-58459523D01*
X105650000Y-58269047D01*
X105650000Y-57935714D01*
X105602380Y-57745238D01*
X105507142Y-57650000D01*
X105411904Y-57602380D01*
X104697619Y-57602380D02*
X104126190Y-57602380D01*
X104411904Y-58602380D02*
X104411904Y-57602380D01*
X103602380Y-57602380D02*
X103411904Y-57602380D01*
X103316666Y-57650000D01*
X103221428Y-57745238D01*
X103173809Y-57935714D01*
X103173809Y-58269047D01*
X103221428Y-58459523D01*
X103316666Y-58554761D01*
X103411904Y-58602380D01*
X103602380Y-58602380D01*
X103697619Y-58554761D01*
X103792857Y-58459523D01*
X103840476Y-58269047D01*
X103840476Y-57935714D01*
X103792857Y-57745238D01*
X103697619Y-57650000D01*
X103602380Y-57602380D01*
X102888095Y-57602380D02*
X102316666Y-57602380D01*
X102602380Y-58602380D02*
X102602380Y-57602380D01*
X101792857Y-58126190D02*
X101792857Y-58602380D01*
X102126190Y-57602380D02*
X101792857Y-58126190D01*
X101459523Y-57602380D01*
X101126190Y-58602380D02*
X101126190Y-57602380D01*
X100745238Y-57602380D01*
X100650000Y-57650000D01*
X100602380Y-57697619D01*
X100554761Y-57792857D01*
X100554761Y-57935714D01*
X100602380Y-58030952D01*
X100650000Y-58078571D01*
X100745238Y-58126190D01*
X101126190Y-58126190D01*
X100126190Y-58078571D02*
X99792857Y-58078571D01*
X99650000Y-58602380D02*
X100126190Y-58602380D01*
X100126190Y-57602380D01*
X99650000Y-57602380D01*
D11*
X113860000Y-57395000D02*
X112530000Y-57395000D01*
X113860000Y-58725000D02*
X113860000Y-57395000D01*
X113860000Y-59995000D02*
X111200000Y-59995000D01*
X111200000Y-59995000D02*
X111200000Y-108315000D01*
X113860000Y-59995000D02*
X113860000Y-108315000D01*
X113860000Y-108315000D02*
X111200000Y-108315000D01*
X93420000Y-108315000D02*
X94750000Y-108315000D01*
X93420000Y-106985000D02*
X93420000Y-108315000D01*
X93420000Y-105715000D02*
X96080000Y-105715000D01*
X96080000Y-105715000D02*
X96080000Y-57395000D01*
X93420000Y-105715000D02*
X93420000Y-57395000D01*
X93420000Y-57395000D02*
X96080000Y-57395000D01*
%LPC*%
D12*
X100710000Y-63175000D03*
X106490000Y-63175000D03*
D13*
X107920000Y-63705000D03*
X99280000Y-63705000D03*
D14*
X107920000Y-59525000D03*
X99280000Y-59525000D03*
D15*
X110100000Y-58925000D03*
X97350000Y-58925000D03*
X109400000Y-106825000D03*
X98000000Y-106825000D03*
D16*
X106230000Y-106925000D03*
X103690000Y-106925000D03*
G36*
G01*
X102000000Y-107826000D02*
X100300000Y-107826000D01*
G75*
G02*
X100249000Y-107775000I0J51000D01*
G01*
X100249000Y-106075000D01*
G75*
G02*
X100300000Y-106024000I51000J0D01*
G01*
X102000000Y-106024000D01*
G75*
G02*
X102051000Y-106075000I0J-51000D01*
G01*
X102051000Y-107775000D01*
G75*
G02*
X102000000Y-107826000I-51000J0D01*
G01*
G37*
X112530000Y-106985000D03*
X112530000Y-104445000D03*
G36*
G01*
X113431000Y-101055000D02*
X113431000Y-102755000D01*
G75*
G02*
X113380000Y-102806000I-51000J0D01*
G01*
X111680000Y-102806000D01*
G75*
G02*
X111629000Y-102755000I0J51000D01*
G01*
X111629000Y-101055000D01*
G75*
G02*
X111680000Y-101004000I51000J0D01*
G01*
X113380000Y-101004000D01*
G75*
G02*
X113431000Y-101055000I0J-51000D01*
G01*
G37*
X112530000Y-99365000D03*
X112530000Y-96825000D03*
X112530000Y-94285000D03*
X112530000Y-91745000D03*
G36*
G01*
X113431000Y-88355000D02*
X113431000Y-90055000D01*
G75*
G02*
X113380000Y-90106000I-51000J0D01*
G01*
X111680000Y-90106000D01*
G75*
G02*
X111629000Y-90055000I0J51000D01*
G01*
X111629000Y-88355000D01*
G75*
G02*
X111680000Y-88304000I51000J0D01*
G01*
X113380000Y-88304000D01*
G75*
G02*
X113431000Y-88355000I0J-51000D01*
G01*
G37*
X112530000Y-86665000D03*
X112530000Y-84125000D03*
X112530000Y-81585000D03*
X112530000Y-79045000D03*
G36*
G01*
X113431000Y-75655000D02*
X113431000Y-77355000D01*
G75*
G02*
X113380000Y-77406000I-51000J0D01*
G01*
X111680000Y-77406000D01*
G75*
G02*
X111629000Y-77355000I0J51000D01*
G01*
X111629000Y-75655000D01*
G75*
G02*
X111680000Y-75604000I51000J0D01*
G01*
X113380000Y-75604000D01*
G75*
G02*
X113431000Y-75655000I0J-51000D01*
G01*
G37*
X112530000Y-73965000D03*
X112530000Y-71425000D03*
X112530000Y-68885000D03*
X112530000Y-66345000D03*
G36*
G01*
X113431000Y-62955000D02*
X113431000Y-64655000D01*
G75*
G02*
X113380000Y-64706000I-51000J0D01*
G01*
X111680000Y-64706000D01*
G75*
G02*
X111629000Y-64655000I0J51000D01*
G01*
X111629000Y-62955000D01*
G75*
G02*
X111680000Y-62904000I51000J0D01*
G01*
X113380000Y-62904000D01*
G75*
G02*
X113431000Y-62955000I0J-51000D01*
G01*
G37*
X112530000Y-61265000D03*
X112530000Y-58725000D03*
X94750000Y-58725000D03*
X94750000Y-61265000D03*
G36*
G01*
X93849000Y-64655000D02*
X93849000Y-62955000D01*
G75*
G02*
X93900000Y-62904000I51000J0D01*
G01*
X95600000Y-62904000D01*
G75*
G02*
X95651000Y-62955000I0J-51000D01*
G01*
X95651000Y-64655000D01*
G75*
G02*
X95600000Y-64706000I-51000J0D01*
G01*
X93900000Y-64706000D01*
G75*
G02*
X93849000Y-64655000I0J51000D01*
G01*
G37*
X94750000Y-66345000D03*
X94750000Y-68885000D03*
X94750000Y-71425000D03*
X94750000Y-73965000D03*
G36*
G01*
X93849000Y-77355000D02*
X93849000Y-75655000D01*
G75*
G02*
X93900000Y-75604000I51000J0D01*
G01*
X95600000Y-75604000D01*
G75*
G02*
X95651000Y-75655000I0J-51000D01*
G01*
X95651000Y-77355000D01*
G75*
G02*
X95600000Y-77406000I-51000J0D01*
G01*
X93900000Y-77406000D01*
G75*
G02*
X93849000Y-77355000I0J51000D01*
G01*
G37*
X94750000Y-79045000D03*
X94750000Y-81585000D03*
X94750000Y-84125000D03*
X94750000Y-86665000D03*
G36*
G01*
X93849000Y-90055000D02*
X93849000Y-88355000D01*
G75*
G02*
X93900000Y-88304000I51000J0D01*
G01*
X95600000Y-88304000D01*
G75*
G02*
X95651000Y-88355000I0J-51000D01*
G01*
X95651000Y-90055000D01*
G75*
G02*
X95600000Y-90106000I-51000J0D01*
G01*
X93900000Y-90106000D01*
G75*
G02*
X93849000Y-90055000I0J51000D01*
G01*
G37*
X94750000Y-91745000D03*
X94750000Y-94285000D03*
X94750000Y-96825000D03*
X94750000Y-99365000D03*
G36*
G01*
X93849000Y-102755000D02*
X93849000Y-101055000D01*
G75*
G02*
X93900000Y-101004000I51000J0D01*
G01*
X95600000Y-101004000D01*
G75*
G02*
X95651000Y-101055000I0J-51000D01*
G01*
X95651000Y-102755000D01*
G75*
G02*
X95600000Y-102806000I-51000J0D01*
G01*
X93900000Y-102806000D01*
G75*
G02*
X93849000Y-102755000I0J51000D01*
G01*
G37*
X94750000Y-104445000D03*
D17*
X94750000Y-106985000D03*
M02*
