G04 #@! TF.GenerationSoftware,KiCad,Pcbnew,(5.1.9)-1*
G04 #@! TF.CreationDate,2021-05-15T18:25:28+01:00*
G04 #@! TF.ProjectId,EnvOpenPico,456e764f-7065-46e5-9069-636f2e6b6963,REV1*
G04 #@! TF.SameCoordinates,Original*
G04 #@! TF.FileFunction,Soldermask,Bot*
G04 #@! TF.FilePolarity,Negative*
%FSLAX46Y46*%
G04 Gerber Fmt 4.6, Leading zero omitted, Abs format (unit mm)*
G04 Created by KiCad (PCBNEW (5.1.9)-1) date 2021-05-15 18:25:28*
%MOMM*%
%LPD*%
G01*
G04 APERTURE LIST*
%ADD10C,0.752000*%
%ADD11O,1.102000X2.202000*%
%ADD12O,1.102000X1.702000*%
%ADD13C,2.302000*%
%ADD14O,1.802000X1.802000*%
%ADD15C,1.802000*%
G04 APERTURE END LIST*
D10*
X100710000Y-63175000D03*
X106490000Y-63175000D03*
D11*
X107920000Y-63705000D03*
X99280000Y-63705000D03*
D12*
X107920000Y-59525000D03*
X99280000Y-59525000D03*
D13*
X110100000Y-58925000D03*
X97350000Y-58925000D03*
X109400000Y-106825000D03*
X98000000Y-106825000D03*
D14*
X106230000Y-106925000D03*
X103690000Y-106925000D03*
G36*
G01*
X102000000Y-107826000D02*
X100300000Y-107826000D01*
G75*
G02*
X100249000Y-107775000I0J51000D01*
G01*
X100249000Y-106075000D01*
G75*
G02*
X100300000Y-106024000I51000J0D01*
G01*
X102000000Y-106024000D01*
G75*
G02*
X102051000Y-106075000I0J-51000D01*
G01*
X102051000Y-107775000D01*
G75*
G02*
X102000000Y-107826000I-51000J0D01*
G01*
G37*
X112530000Y-106985000D03*
X112530000Y-104445000D03*
G36*
G01*
X113431000Y-101055000D02*
X113431000Y-102755000D01*
G75*
G02*
X113380000Y-102806000I-51000J0D01*
G01*
X111680000Y-102806000D01*
G75*
G02*
X111629000Y-102755000I0J51000D01*
G01*
X111629000Y-101055000D01*
G75*
G02*
X111680000Y-101004000I51000J0D01*
G01*
X113380000Y-101004000D01*
G75*
G02*
X113431000Y-101055000I0J-51000D01*
G01*
G37*
X112530000Y-99365000D03*
X112530000Y-96825000D03*
X112530000Y-94285000D03*
X112530000Y-91745000D03*
G36*
G01*
X113431000Y-88355000D02*
X113431000Y-90055000D01*
G75*
G02*
X113380000Y-90106000I-51000J0D01*
G01*
X111680000Y-90106000D01*
G75*
G02*
X111629000Y-90055000I0J51000D01*
G01*
X111629000Y-88355000D01*
G75*
G02*
X111680000Y-88304000I51000J0D01*
G01*
X113380000Y-88304000D01*
G75*
G02*
X113431000Y-88355000I0J-51000D01*
G01*
G37*
X112530000Y-86665000D03*
X112530000Y-84125000D03*
X112530000Y-81585000D03*
X112530000Y-79045000D03*
G36*
G01*
X113431000Y-75655000D02*
X113431000Y-77355000D01*
G75*
G02*
X113380000Y-77406000I-51000J0D01*
G01*
X111680000Y-77406000D01*
G75*
G02*
X111629000Y-77355000I0J51000D01*
G01*
X111629000Y-75655000D01*
G75*
G02*
X111680000Y-75604000I51000J0D01*
G01*
X113380000Y-75604000D01*
G75*
G02*
X113431000Y-75655000I0J-51000D01*
G01*
G37*
X112530000Y-73965000D03*
X112530000Y-71425000D03*
X112530000Y-68885000D03*
X112530000Y-66345000D03*
G36*
G01*
X113431000Y-62955000D02*
X113431000Y-64655000D01*
G75*
G02*
X113380000Y-64706000I-51000J0D01*
G01*
X111680000Y-64706000D01*
G75*
G02*
X111629000Y-64655000I0J51000D01*
G01*
X111629000Y-62955000D01*
G75*
G02*
X111680000Y-62904000I51000J0D01*
G01*
X113380000Y-62904000D01*
G75*
G02*
X113431000Y-62955000I0J-51000D01*
G01*
G37*
X112530000Y-61265000D03*
X112530000Y-58725000D03*
X94750000Y-58725000D03*
X94750000Y-61265000D03*
G36*
G01*
X93849000Y-64655000D02*
X93849000Y-62955000D01*
G75*
G02*
X93900000Y-62904000I51000J0D01*
G01*
X95600000Y-62904000D01*
G75*
G02*
X95651000Y-62955000I0J-51000D01*
G01*
X95651000Y-64655000D01*
G75*
G02*
X95600000Y-64706000I-51000J0D01*
G01*
X93900000Y-64706000D01*
G75*
G02*
X93849000Y-64655000I0J51000D01*
G01*
G37*
X94750000Y-66345000D03*
X94750000Y-68885000D03*
X94750000Y-71425000D03*
X94750000Y-73965000D03*
G36*
G01*
X93849000Y-77355000D02*
X93849000Y-75655000D01*
G75*
G02*
X93900000Y-75604000I51000J0D01*
G01*
X95600000Y-75604000D01*
G75*
G02*
X95651000Y-75655000I0J-51000D01*
G01*
X95651000Y-77355000D01*
G75*
G02*
X95600000Y-77406000I-51000J0D01*
G01*
X93900000Y-77406000D01*
G75*
G02*
X93849000Y-77355000I0J51000D01*
G01*
G37*
X94750000Y-79045000D03*
X94750000Y-81585000D03*
X94750000Y-84125000D03*
X94750000Y-86665000D03*
G36*
G01*
X93849000Y-90055000D02*
X93849000Y-88355000D01*
G75*
G02*
X93900000Y-88304000I51000J0D01*
G01*
X95600000Y-88304000D01*
G75*
G02*
X95651000Y-88355000I0J-51000D01*
G01*
X95651000Y-90055000D01*
G75*
G02*
X95600000Y-90106000I-51000J0D01*
G01*
X93900000Y-90106000D01*
G75*
G02*
X93849000Y-90055000I0J51000D01*
G01*
G37*
X94750000Y-91745000D03*
X94750000Y-94285000D03*
X94750000Y-96825000D03*
X94750000Y-99365000D03*
G36*
G01*
X93849000Y-102755000D02*
X93849000Y-101055000D01*
G75*
G02*
X93900000Y-101004000I51000J0D01*
G01*
X95600000Y-101004000D01*
G75*
G02*
X95651000Y-101055000I0J-51000D01*
G01*
X95651000Y-102755000D01*
G75*
G02*
X95600000Y-102806000I-51000J0D01*
G01*
X93900000Y-102806000D01*
G75*
G02*
X93849000Y-102755000I0J51000D01*
G01*
G37*
X94750000Y-104445000D03*
D15*
X94750000Y-106985000D03*
M02*
