%FSLAX45Y45*%
G04 Gerber Fmt 4.5, Leading zero omitted, Abs format (unit mm)*
G04 Created by KiCad (PCBNEW (5.1.10)-1) date 2021-06-28 05:28:14*
%MOMM*%
%LPD*%
G01*
G04 APERTURE LIST*
%TA.AperFunction,Profile*%
%ADD10C,0.050000*%
%TD*%
%ADD11C,0.200000*%
%ADD12C,0.300000*%
G04 APERTURE END LIST*
D10*
X11419000Y-10802500D02*
G75*
G02*
X11369000Y-10852500I-50000J0D01*
G01*
X9360000Y-10852500D02*
G75*
G02*
X9310000Y-10802500I0J50000D01*
G01*
X9310000Y-5772500D02*
G75*
G02*
X9360000Y-5722500I50000J0D01*
G01*
X11369000Y-5722500D02*
G75*
G02*
X11419000Y-5772500I0J-50000D01*
G01*
X11419000Y-10802500D02*
X11419000Y-5772500D01*
X9360000Y-5722500D02*
X11369000Y-5722500D01*
X9310000Y-10802500D02*
X9310000Y-5772500D01*
X9360000Y-10852500D02*
X11369000Y-10852500D01*
D11*
X10038500Y-6285000D02*
X10103500Y-6350000D01*
X10103500Y-6285000D02*
X10038500Y-6350000D01*
X10616500Y-6285000D02*
X10681500Y-6350000D01*
X10681500Y-6285000D02*
X10616500Y-6350000D01*
D12*
X9593928Y-11320714D02*
X9593928Y-11020714D01*
X9665357Y-11020714D01*
X9708214Y-11035000D01*
X9736786Y-11063572D01*
X9751071Y-11092143D01*
X9765357Y-11149286D01*
X9765357Y-11192143D01*
X9751071Y-11249286D01*
X9736786Y-11277857D01*
X9708214Y-11306429D01*
X9665357Y-11320714D01*
X9593928Y-11320714D01*
X9893928Y-11320714D02*
X9893928Y-11120714D01*
X9893928Y-11177857D02*
X9908214Y-11149286D01*
X9922500Y-11135000D01*
X9951071Y-11120714D01*
X9979643Y-11120714D01*
X10079643Y-11320714D02*
X10079643Y-11120714D01*
X10079643Y-11020714D02*
X10065357Y-11035000D01*
X10079643Y-11049286D01*
X10093928Y-11035000D01*
X10079643Y-11020714D01*
X10079643Y-11049286D01*
X10265357Y-11320714D02*
X10236786Y-11306429D01*
X10222500Y-11277857D01*
X10222500Y-11020714D01*
X10422500Y-11320714D02*
X10393928Y-11306429D01*
X10379643Y-11277857D01*
X10379643Y-11020714D01*
X10765357Y-11320714D02*
X10765357Y-11020714D01*
X10865357Y-11235000D01*
X10965357Y-11020714D01*
X10965357Y-11320714D01*
X11236786Y-11320714D02*
X11236786Y-11163572D01*
X11222500Y-11135000D01*
X11193928Y-11120714D01*
X11136786Y-11120714D01*
X11108214Y-11135000D01*
X11236786Y-11306429D02*
X11208214Y-11320714D01*
X11136786Y-11320714D01*
X11108214Y-11306429D01*
X11093928Y-11277857D01*
X11093928Y-11249286D01*
X11108214Y-11220714D01*
X11136786Y-11206429D01*
X11208214Y-11206429D01*
X11236786Y-11192143D01*
X11379643Y-11120714D02*
X11379643Y-11420714D01*
X11379643Y-11135000D02*
X11408214Y-11120714D01*
X11465357Y-11120714D01*
X11493928Y-11135000D01*
X11508214Y-11149286D01*
X11522500Y-11177857D01*
X11522500Y-11263571D01*
X11508214Y-11292143D01*
X11493928Y-11306429D01*
X11465357Y-11320714D01*
X11408214Y-11320714D01*
X11379643Y-11306429D01*
X11651071Y-11292143D02*
X11665357Y-11306429D01*
X11651071Y-11320714D01*
X11636786Y-11306429D01*
X11651071Y-11292143D01*
X11651071Y-11320714D01*
X11651071Y-11135000D02*
X11665357Y-11149286D01*
X11651071Y-11163572D01*
X11636786Y-11149286D01*
X11651071Y-11135000D01*
X11651071Y-11163572D01*
X9242500Y-11782500D02*
X9307500Y-11847500D01*
X9307500Y-11782500D02*
X9242500Y-11847500D01*
X9651071Y-11650714D02*
X9679643Y-11650714D01*
X9708214Y-11665000D01*
X9722500Y-11679286D01*
X9736786Y-11707857D01*
X9751071Y-11765000D01*
X9751071Y-11836429D01*
X9736786Y-11893571D01*
X9722500Y-11922143D01*
X9708214Y-11936429D01*
X9679643Y-11950714D01*
X9651071Y-11950714D01*
X9622500Y-11936429D01*
X9608214Y-11922143D01*
X9593928Y-11893571D01*
X9579643Y-11836429D01*
X9579643Y-11765000D01*
X9593928Y-11707857D01*
X9608214Y-11679286D01*
X9622500Y-11665000D01*
X9651071Y-11650714D01*
X9879643Y-11922143D02*
X9893928Y-11936429D01*
X9879643Y-11950714D01*
X9865357Y-11936429D01*
X9879643Y-11922143D01*
X9879643Y-11950714D01*
X10151071Y-11650714D02*
X10093928Y-11650714D01*
X10065357Y-11665000D01*
X10051071Y-11679286D01*
X10022500Y-11722143D01*
X10008214Y-11779286D01*
X10008214Y-11893571D01*
X10022500Y-11922143D01*
X10036786Y-11936429D01*
X10065357Y-11950714D01*
X10122500Y-11950714D01*
X10151071Y-11936429D01*
X10165357Y-11922143D01*
X10179643Y-11893571D01*
X10179643Y-11822143D01*
X10165357Y-11793571D01*
X10151071Y-11779286D01*
X10122500Y-11765000D01*
X10065357Y-11765000D01*
X10036786Y-11779286D01*
X10022500Y-11793571D01*
X10008214Y-11822143D01*
X10451071Y-11650714D02*
X10308214Y-11650714D01*
X10293928Y-11793571D01*
X10308214Y-11779286D01*
X10336786Y-11765000D01*
X10408214Y-11765000D01*
X10436786Y-11779286D01*
X10451071Y-11793571D01*
X10465357Y-11822143D01*
X10465357Y-11893571D01*
X10451071Y-11922143D01*
X10436786Y-11936429D01*
X10408214Y-11950714D01*
X10336786Y-11950714D01*
X10308214Y-11936429D01*
X10293928Y-11922143D01*
X10651071Y-11650714D02*
X10679643Y-11650714D01*
X10708214Y-11665000D01*
X10722500Y-11679286D01*
X10736786Y-11707857D01*
X10751071Y-11765000D01*
X10751071Y-11836429D01*
X10736786Y-11893571D01*
X10722500Y-11922143D01*
X10708214Y-11936429D01*
X10679643Y-11950714D01*
X10651071Y-11950714D01*
X10622500Y-11936429D01*
X10608214Y-11922143D01*
X10593928Y-11893571D01*
X10579643Y-11836429D01*
X10579643Y-11765000D01*
X10593928Y-11707857D01*
X10608214Y-11679286D01*
X10622500Y-11665000D01*
X10651071Y-11650714D01*
X10879643Y-11950714D02*
X10879643Y-11750714D01*
X10879643Y-11779286D02*
X10893928Y-11765000D01*
X10922500Y-11750714D01*
X10965357Y-11750714D01*
X10993928Y-11765000D01*
X11008214Y-11793571D01*
X11008214Y-11950714D01*
X11008214Y-11793571D02*
X11022500Y-11765000D01*
X11051071Y-11750714D01*
X11093928Y-11750714D01*
X11122500Y-11765000D01*
X11136786Y-11793571D01*
X11136786Y-11950714D01*
X11279643Y-11950714D02*
X11279643Y-11750714D01*
X11279643Y-11779286D02*
X11293928Y-11765000D01*
X11322500Y-11750714D01*
X11365357Y-11750714D01*
X11393928Y-11765000D01*
X11408214Y-11793571D01*
X11408214Y-11950714D01*
X11408214Y-11793571D02*
X11422500Y-11765000D01*
X11451071Y-11750714D01*
X11493928Y-11750714D01*
X11522500Y-11765000D01*
X11536786Y-11793571D01*
X11536786Y-11950714D01*
X12122500Y-11636429D02*
X11865357Y-12022143D01*
X12508214Y-11650714D02*
X12536786Y-11650714D01*
X12565357Y-11665000D01*
X12579643Y-11679286D01*
X12593928Y-11707857D01*
X12608214Y-11765000D01*
X12608214Y-11836429D01*
X12593928Y-11893571D01*
X12579643Y-11922143D01*
X12565357Y-11936429D01*
X12536786Y-11950714D01*
X12508214Y-11950714D01*
X12479643Y-11936429D01*
X12465357Y-11922143D01*
X12451071Y-11893571D01*
X12436786Y-11836429D01*
X12436786Y-11765000D01*
X12451071Y-11707857D01*
X12465357Y-11679286D01*
X12479643Y-11665000D01*
X12508214Y-11650714D01*
X12736786Y-11922143D02*
X12751071Y-11936429D01*
X12736786Y-11950714D01*
X12722500Y-11936429D01*
X12736786Y-11922143D01*
X12736786Y-11950714D01*
X12936786Y-11650714D02*
X12965357Y-11650714D01*
X12993928Y-11665000D01*
X13008214Y-11679286D01*
X13022500Y-11707857D01*
X13036786Y-11765000D01*
X13036786Y-11836429D01*
X13022500Y-11893571D01*
X13008214Y-11922143D01*
X12993928Y-11936429D01*
X12965357Y-11950714D01*
X12936786Y-11950714D01*
X12908214Y-11936429D01*
X12893928Y-11922143D01*
X12879643Y-11893571D01*
X12865357Y-11836429D01*
X12865357Y-11765000D01*
X12879643Y-11707857D01*
X12893928Y-11679286D01*
X12908214Y-11665000D01*
X12936786Y-11650714D01*
X13151071Y-11679286D02*
X13165357Y-11665000D01*
X13193928Y-11650714D01*
X13265357Y-11650714D01*
X13293928Y-11665000D01*
X13308214Y-11679286D01*
X13322500Y-11707857D01*
X13322500Y-11736429D01*
X13308214Y-11779286D01*
X13136786Y-11950714D01*
X13322500Y-11950714D01*
X13593928Y-11650714D02*
X13451071Y-11650714D01*
X13436786Y-11793571D01*
X13451071Y-11779286D01*
X13479643Y-11765000D01*
X13551071Y-11765000D01*
X13579643Y-11779286D01*
X13593928Y-11793571D01*
X13608214Y-11822143D01*
X13608214Y-11893571D01*
X13593928Y-11922143D01*
X13579643Y-11936429D01*
X13551071Y-11950714D01*
X13479643Y-11950714D01*
X13451071Y-11936429D01*
X13436786Y-11922143D01*
X13865357Y-11650714D02*
X13808214Y-11650714D01*
X13779643Y-11665000D01*
X13765357Y-11679286D01*
X13736786Y-11722143D01*
X13722500Y-11779286D01*
X13722500Y-11893571D01*
X13736786Y-11922143D01*
X13751071Y-11936429D01*
X13779643Y-11950714D01*
X13836786Y-11950714D01*
X13865357Y-11936429D01*
X13879643Y-11922143D01*
X13893928Y-11893571D01*
X13893928Y-11822143D01*
X13879643Y-11793571D01*
X13865357Y-11779286D01*
X13836786Y-11765000D01*
X13779643Y-11765000D01*
X13751071Y-11779286D01*
X13736786Y-11793571D01*
X13722500Y-11822143D01*
X14008214Y-11650714D02*
X14008214Y-11707857D01*
X14122500Y-11650714D02*
X14122500Y-11707857D01*
X14565357Y-12065000D02*
X14551071Y-12050714D01*
X14522500Y-12007857D01*
X14508214Y-11979286D01*
X14493928Y-11936429D01*
X14479643Y-11865000D01*
X14479643Y-11807857D01*
X14493928Y-11736429D01*
X14508214Y-11693571D01*
X14522500Y-11665000D01*
X14551071Y-11622143D01*
X14565357Y-11607857D01*
X14665357Y-11679286D02*
X14679643Y-11665000D01*
X14708214Y-11650714D01*
X14779643Y-11650714D01*
X14808214Y-11665000D01*
X14822500Y-11679286D01*
X14836786Y-11707857D01*
X14836786Y-11736429D01*
X14822500Y-11779286D01*
X14651071Y-11950714D01*
X14836786Y-11950714D01*
X15193928Y-11950714D02*
X15193928Y-11650714D01*
X15322500Y-11950714D02*
X15322500Y-11793571D01*
X15308214Y-11765000D01*
X15279643Y-11750714D01*
X15236786Y-11750714D01*
X15208214Y-11765000D01*
X15193928Y-11779286D01*
X15508214Y-11950714D02*
X15479643Y-11936429D01*
X15465357Y-11922143D01*
X15451071Y-11893571D01*
X15451071Y-11807857D01*
X15465357Y-11779286D01*
X15479643Y-11765000D01*
X15508214Y-11750714D01*
X15551071Y-11750714D01*
X15579643Y-11765000D01*
X15593928Y-11779286D01*
X15608214Y-11807857D01*
X15608214Y-11893571D01*
X15593928Y-11922143D01*
X15579643Y-11936429D01*
X15551071Y-11950714D01*
X15508214Y-11950714D01*
X15779643Y-11950714D02*
X15751071Y-11936429D01*
X15736786Y-11907857D01*
X15736786Y-11650714D01*
X16008214Y-11936429D02*
X15979643Y-11950714D01*
X15922500Y-11950714D01*
X15893928Y-11936429D01*
X15879643Y-11907857D01*
X15879643Y-11793571D01*
X15893928Y-11765000D01*
X15922500Y-11750714D01*
X15979643Y-11750714D01*
X16008214Y-11765000D01*
X16022500Y-11793571D01*
X16022500Y-11822143D01*
X15879643Y-11850714D01*
X16136786Y-11936429D02*
X16165357Y-11950714D01*
X16222500Y-11950714D01*
X16251071Y-11936429D01*
X16265357Y-11907857D01*
X16265357Y-11893571D01*
X16251071Y-11865000D01*
X16222500Y-11850714D01*
X16179643Y-11850714D01*
X16151071Y-11836429D01*
X16136786Y-11807857D01*
X16136786Y-11793571D01*
X16151071Y-11765000D01*
X16179643Y-11750714D01*
X16222500Y-11750714D01*
X16251071Y-11765000D01*
X16365357Y-12065000D02*
X16379643Y-12050714D01*
X16408214Y-12007857D01*
X16422500Y-11979286D01*
X16436786Y-11936429D01*
X16451071Y-11865000D01*
X16451071Y-11807857D01*
X16436786Y-11736429D01*
X16422500Y-11693571D01*
X16408214Y-11665000D01*
X16379643Y-11622143D01*
X16365357Y-11607857D01*
X16908214Y-12065000D02*
X16893928Y-12050714D01*
X16865357Y-12007857D01*
X16851071Y-11979286D01*
X16836786Y-11936429D01*
X16822500Y-11865000D01*
X16822500Y-11807857D01*
X16836786Y-11736429D01*
X16851071Y-11693571D01*
X16865357Y-11665000D01*
X16893928Y-11622143D01*
X16908214Y-11607857D01*
X17022500Y-11750714D02*
X17022500Y-11950714D01*
X17022500Y-11779286D02*
X17036786Y-11765000D01*
X17065357Y-11750714D01*
X17108214Y-11750714D01*
X17136786Y-11765000D01*
X17151071Y-11793571D01*
X17151071Y-11950714D01*
X17336786Y-11950714D02*
X17308214Y-11936429D01*
X17293928Y-11922143D01*
X17279643Y-11893571D01*
X17279643Y-11807857D01*
X17293928Y-11779286D01*
X17308214Y-11765000D01*
X17336786Y-11750714D01*
X17379643Y-11750714D01*
X17408214Y-11765000D01*
X17422500Y-11779286D01*
X17436786Y-11807857D01*
X17436786Y-11893571D01*
X17422500Y-11922143D01*
X17408214Y-11936429D01*
X17379643Y-11950714D01*
X17336786Y-11950714D01*
X17522500Y-11750714D02*
X17636786Y-11750714D01*
X17565357Y-11650714D02*
X17565357Y-11907857D01*
X17579643Y-11936429D01*
X17608214Y-11950714D01*
X17636786Y-11950714D01*
X17965357Y-11750714D02*
X17965357Y-12050714D01*
X17965357Y-11765000D02*
X17993928Y-11750714D01*
X18051071Y-11750714D01*
X18079643Y-11765000D01*
X18093928Y-11779286D01*
X18108214Y-11807857D01*
X18108214Y-11893571D01*
X18093928Y-11922143D01*
X18079643Y-11936429D01*
X18051071Y-11950714D01*
X17993928Y-11950714D01*
X17965357Y-11936429D01*
X18279643Y-11950714D02*
X18251071Y-11936429D01*
X18236786Y-11907857D01*
X18236786Y-11650714D01*
X18522500Y-11950714D02*
X18522500Y-11793571D01*
X18508214Y-11765000D01*
X18479643Y-11750714D01*
X18422500Y-11750714D01*
X18393928Y-11765000D01*
X18522500Y-11936429D02*
X18493928Y-11950714D01*
X18422500Y-11950714D01*
X18393928Y-11936429D01*
X18379643Y-11907857D01*
X18379643Y-11879286D01*
X18393928Y-11850714D01*
X18422500Y-11836429D01*
X18493928Y-11836429D01*
X18522500Y-11822143D01*
X18622500Y-11750714D02*
X18736786Y-11750714D01*
X18665357Y-11650714D02*
X18665357Y-11907857D01*
X18679643Y-11936429D01*
X18708214Y-11950714D01*
X18736786Y-11950714D01*
X18951071Y-11936429D02*
X18922500Y-11950714D01*
X18865357Y-11950714D01*
X18836786Y-11936429D01*
X18822500Y-11907857D01*
X18822500Y-11793571D01*
X18836786Y-11765000D01*
X18865357Y-11750714D01*
X18922500Y-11750714D01*
X18951071Y-11765000D01*
X18965357Y-11793571D01*
X18965357Y-11822143D01*
X18822500Y-11850714D01*
X19222500Y-11950714D02*
X19222500Y-11650714D01*
X19222500Y-11936429D02*
X19193928Y-11950714D01*
X19136786Y-11950714D01*
X19108214Y-11936429D01*
X19093928Y-11922143D01*
X19079643Y-11893571D01*
X19079643Y-11807857D01*
X19093928Y-11779286D01*
X19108214Y-11765000D01*
X19136786Y-11750714D01*
X19193928Y-11750714D01*
X19222500Y-11765000D01*
X19336786Y-12065000D02*
X19351071Y-12050714D01*
X19379643Y-12007857D01*
X19393928Y-11979286D01*
X19408214Y-11936429D01*
X19422500Y-11865000D01*
X19422500Y-11807857D01*
X19408214Y-11736429D01*
X19393928Y-11693571D01*
X19379643Y-11665000D01*
X19351071Y-11622143D01*
X19336786Y-11607857D01*
M02*
