G04 #@! TF.GenerationSoftware,KiCad,Pcbnew,(5.1.9)-1*
G04 #@! TF.CreationDate,2021-05-15T18:25:28+01:00*
G04 #@! TF.ProjectId,EnvOpenPico,456e764f-7065-46e5-9069-636f2e6b6963,REV1*
G04 #@! TF.SameCoordinates,Original*
G04 #@! TF.FileFunction,OtherDrawing,Comment*
%FSLAX46Y46*%
G04 Gerber Fmt 4.6, Leading zero omitted, Abs format (unit mm)*
G04 Created by KiCad (PCBNEW (5.1.9)-1) date 2021-05-15 18:25:28*
%MOMM*%
%LPD*%
G01*
G04 APERTURE LIST*
%ADD10C,0.150000*%
G04 APERTURE END LIST*
D10*
X94798571Y-53402380D02*
X94227142Y-53402380D01*
X94512857Y-53402380D02*
X94512857Y-52402380D01*
X94417619Y-52545238D01*
X94322380Y-52640476D01*
X94227142Y-52688095D01*
X95417619Y-52402380D02*
X95512857Y-52402380D01*
X95608095Y-52450000D01*
X95655714Y-52497619D01*
X95703333Y-52592857D01*
X95750952Y-52783333D01*
X95750952Y-53021428D01*
X95703333Y-53211904D01*
X95655714Y-53307142D01*
X95608095Y-53354761D01*
X95512857Y-53402380D01*
X95417619Y-53402380D01*
X95322380Y-53354761D01*
X95274761Y-53307142D01*
X95227142Y-53211904D01*
X95179523Y-53021428D01*
X95179523Y-52783333D01*
X95227142Y-52592857D01*
X95274761Y-52497619D01*
X95322380Y-52450000D01*
X95417619Y-52402380D01*
X96179523Y-53307142D02*
X96227142Y-53354761D01*
X96179523Y-53402380D01*
X96131904Y-53354761D01*
X96179523Y-53307142D01*
X96179523Y-53402380D01*
X97131904Y-52402380D02*
X96655714Y-52402380D01*
X96608095Y-52878571D01*
X96655714Y-52830952D01*
X96750952Y-52783333D01*
X96989047Y-52783333D01*
X97084285Y-52830952D01*
X97131904Y-52878571D01*
X97179523Y-52973809D01*
X97179523Y-53211904D01*
X97131904Y-53307142D01*
X97084285Y-53354761D01*
X96989047Y-53402380D01*
X96750952Y-53402380D01*
X96655714Y-53354761D01*
X96608095Y-53307142D01*
X98036666Y-52735714D02*
X98036666Y-53402380D01*
X97798571Y-52354761D02*
X97560476Y-53069047D01*
X98179523Y-53069047D01*
X98750952Y-52402380D02*
X98846190Y-52402380D01*
X98941428Y-52450000D01*
X98989047Y-52497619D01*
X99036666Y-52592857D01*
X99084285Y-52783333D01*
X99084285Y-53021428D01*
X99036666Y-53211904D01*
X98989047Y-53307142D01*
X98941428Y-53354761D01*
X98846190Y-53402380D01*
X98750952Y-53402380D01*
X98655714Y-53354761D01*
X98608095Y-53307142D01*
X98560476Y-53211904D01*
X98512857Y-53021428D01*
X98512857Y-52783333D01*
X98560476Y-52592857D01*
X98608095Y-52497619D01*
X98655714Y-52450000D01*
X98750952Y-52402380D01*
X100274761Y-53402380D02*
X100274761Y-52735714D01*
X100274761Y-52830952D02*
X100322380Y-52783333D01*
X100417619Y-52735714D01*
X100560476Y-52735714D01*
X100655714Y-52783333D01*
X100703333Y-52878571D01*
X100703333Y-53402380D01*
X100703333Y-52878571D02*
X100750952Y-52783333D01*
X100846190Y-52735714D01*
X100989047Y-52735714D01*
X101084285Y-52783333D01*
X101131904Y-52878571D01*
X101131904Y-53402380D01*
X101608095Y-53402380D02*
X101608095Y-52735714D01*
X101608095Y-52830952D02*
X101655714Y-52783333D01*
X101750952Y-52735714D01*
X101893809Y-52735714D01*
X101989047Y-52783333D01*
X102036666Y-52878571D01*
X102036666Y-53402380D01*
X102036666Y-52878571D02*
X102084285Y-52783333D01*
X102179523Y-52735714D01*
X102322380Y-52735714D01*
X102417619Y-52783333D01*
X102465238Y-52878571D01*
X102465238Y-53402380D01*
X93100000Y-54250000D02*
X103640000Y-54250000D01*
X93100000Y-57725000D02*
X93100000Y-53663579D01*
X103640000Y-57725000D02*
X103640000Y-53663579D01*
X103640000Y-54250000D02*
X102513496Y-54836421D01*
X103640000Y-54250000D02*
X102513496Y-53663579D01*
X93100000Y-54250000D02*
X94226504Y-54836421D01*
X93100000Y-54250000D02*
X94226504Y-53663579D01*
X100522619Y-71491666D02*
X100475000Y-71444047D01*
X100427380Y-71348809D01*
X100427380Y-71110714D01*
X100475000Y-71015476D01*
X100522619Y-70967857D01*
X100617857Y-70920238D01*
X100713095Y-70920238D01*
X100855952Y-70967857D01*
X101427380Y-71539285D01*
X101427380Y-70920238D01*
X101332142Y-70491666D02*
X101379761Y-70444047D01*
X101427380Y-70491666D01*
X101379761Y-70539285D01*
X101332142Y-70491666D01*
X101427380Y-70491666D01*
X101427380Y-69491666D02*
X101427380Y-70063095D01*
X101427380Y-69777380D02*
X100427380Y-69777380D01*
X100570238Y-69872619D01*
X100665476Y-69967857D01*
X100713095Y-70063095D01*
X100427380Y-68586904D02*
X100427380Y-69063095D01*
X100903571Y-69110714D01*
X100855952Y-69063095D01*
X100808333Y-68967857D01*
X100808333Y-68729761D01*
X100855952Y-68634523D01*
X100903571Y-68586904D01*
X100998809Y-68539285D01*
X101236904Y-68539285D01*
X101332142Y-68586904D01*
X101379761Y-68634523D01*
X101427380Y-68729761D01*
X101427380Y-68967857D01*
X101379761Y-69063095D01*
X101332142Y-69110714D01*
X100427380Y-67920238D02*
X100427380Y-67825000D01*
X100475000Y-67729761D01*
X100522619Y-67682142D01*
X100617857Y-67634523D01*
X100808333Y-67586904D01*
X101046428Y-67586904D01*
X101236904Y-67634523D01*
X101332142Y-67682142D01*
X101379761Y-67729761D01*
X101427380Y-67825000D01*
X101427380Y-67920238D01*
X101379761Y-68015476D01*
X101332142Y-68063095D01*
X101236904Y-68110714D01*
X101046428Y-68158333D01*
X100808333Y-68158333D01*
X100617857Y-68110714D01*
X100522619Y-68063095D01*
X100475000Y-68015476D01*
X100427380Y-67920238D01*
X101427380Y-66396428D02*
X100760714Y-66396428D01*
X100855952Y-66396428D02*
X100808333Y-66348809D01*
X100760714Y-66253571D01*
X100760714Y-66110714D01*
X100808333Y-66015476D01*
X100903571Y-65967857D01*
X101427380Y-65967857D01*
X100903571Y-65967857D02*
X100808333Y-65920238D01*
X100760714Y-65825000D01*
X100760714Y-65682142D01*
X100808333Y-65586904D01*
X100903571Y-65539285D01*
X101427380Y-65539285D01*
X101427380Y-65063095D02*
X100760714Y-65063095D01*
X100855952Y-65063095D02*
X100808333Y-65015476D01*
X100760714Y-64920238D01*
X100760714Y-64777380D01*
X100808333Y-64682142D01*
X100903571Y-64634523D01*
X101427380Y-64634523D01*
X100903571Y-64634523D02*
X100808333Y-64586904D01*
X100760714Y-64491666D01*
X100760714Y-64348809D01*
X100808333Y-64253571D01*
X100903571Y-64205952D01*
X101427380Y-64205952D01*
X99675000Y-68900000D02*
X99675000Y-66750000D01*
X98675000Y-68900000D02*
X100261421Y-68900000D01*
X98675000Y-66750000D02*
X100261421Y-66750000D01*
X99675000Y-66750000D02*
X100261421Y-67876504D01*
X99675000Y-66750000D02*
X99088579Y-67876504D01*
X99675000Y-68900000D02*
X100261421Y-67773496D01*
X99675000Y-68900000D02*
X99088579Y-67773496D01*
X100068571Y-48077380D02*
X99497142Y-48077380D01*
X99782857Y-48077380D02*
X99782857Y-47077380D01*
X99687619Y-47220238D01*
X99592380Y-47315476D01*
X99497142Y-47363095D01*
X100401904Y-47077380D02*
X101068571Y-47077380D01*
X100640000Y-48077380D01*
X101449523Y-47982142D02*
X101497142Y-48029761D01*
X101449523Y-48077380D01*
X101401904Y-48029761D01*
X101449523Y-47982142D01*
X101449523Y-48077380D01*
X101830476Y-47077380D02*
X102497142Y-47077380D01*
X102068571Y-48077380D01*
X103020952Y-47505952D02*
X102925714Y-47458333D01*
X102878095Y-47410714D01*
X102830476Y-47315476D01*
X102830476Y-47267857D01*
X102878095Y-47172619D01*
X102925714Y-47125000D01*
X103020952Y-47077380D01*
X103211428Y-47077380D01*
X103306666Y-47125000D01*
X103354285Y-47172619D01*
X103401904Y-47267857D01*
X103401904Y-47315476D01*
X103354285Y-47410714D01*
X103306666Y-47458333D01*
X103211428Y-47505952D01*
X103020952Y-47505952D01*
X102925714Y-47553571D01*
X102878095Y-47601190D01*
X102830476Y-47696428D01*
X102830476Y-47886904D01*
X102878095Y-47982142D01*
X102925714Y-48029761D01*
X103020952Y-48077380D01*
X103211428Y-48077380D01*
X103306666Y-48029761D01*
X103354285Y-47982142D01*
X103401904Y-47886904D01*
X103401904Y-47696428D01*
X103354285Y-47601190D01*
X103306666Y-47553571D01*
X103211428Y-47505952D01*
X104020952Y-47077380D02*
X104116190Y-47077380D01*
X104211428Y-47125000D01*
X104259047Y-47172619D01*
X104306666Y-47267857D01*
X104354285Y-47458333D01*
X104354285Y-47696428D01*
X104306666Y-47886904D01*
X104259047Y-47982142D01*
X104211428Y-48029761D01*
X104116190Y-48077380D01*
X104020952Y-48077380D01*
X103925714Y-48029761D01*
X103878095Y-47982142D01*
X103830476Y-47886904D01*
X103782857Y-47696428D01*
X103782857Y-47458333D01*
X103830476Y-47267857D01*
X103878095Y-47172619D01*
X103925714Y-47125000D01*
X104020952Y-47077380D01*
X105544761Y-48077380D02*
X105544761Y-47410714D01*
X105544761Y-47505952D02*
X105592380Y-47458333D01*
X105687619Y-47410714D01*
X105830476Y-47410714D01*
X105925714Y-47458333D01*
X105973333Y-47553571D01*
X105973333Y-48077380D01*
X105973333Y-47553571D02*
X106020952Y-47458333D01*
X106116190Y-47410714D01*
X106259047Y-47410714D01*
X106354285Y-47458333D01*
X106401904Y-47553571D01*
X106401904Y-48077380D01*
X106878095Y-48077380D02*
X106878095Y-47410714D01*
X106878095Y-47505952D02*
X106925714Y-47458333D01*
X107020952Y-47410714D01*
X107163809Y-47410714D01*
X107259047Y-47458333D01*
X107306666Y-47553571D01*
X107306666Y-48077380D01*
X107306666Y-47553571D02*
X107354285Y-47458333D01*
X107449523Y-47410714D01*
X107592380Y-47410714D01*
X107687619Y-47458333D01*
X107735238Y-47553571D01*
X107735238Y-48077380D01*
X112530000Y-48925000D02*
X94750000Y-48925000D01*
X112530000Y-58725000D02*
X112530000Y-48338579D01*
X94750000Y-58725000D02*
X94750000Y-48338579D01*
X94750000Y-48925000D02*
X95876504Y-48338579D01*
X94750000Y-48925000D02*
X95876504Y-49511421D01*
X112530000Y-48925000D02*
X111403496Y-48338579D01*
X112530000Y-48925000D02*
X111403496Y-49511421D01*
X100128571Y-51677380D02*
X99557142Y-51677380D01*
X99842857Y-51677380D02*
X99842857Y-50677380D01*
X99747619Y-50820238D01*
X99652380Y-50915476D01*
X99557142Y-50963095D01*
X101080952Y-51677380D02*
X100509523Y-51677380D01*
X100795238Y-51677380D02*
X100795238Y-50677380D01*
X100700000Y-50820238D01*
X100604761Y-50915476D01*
X100509523Y-50963095D01*
X101509523Y-51582142D02*
X101557142Y-51629761D01*
X101509523Y-51677380D01*
X101461904Y-51629761D01*
X101509523Y-51582142D01*
X101509523Y-51677380D01*
X102414285Y-51010714D02*
X102414285Y-51677380D01*
X102176190Y-50629761D02*
X101938095Y-51344047D01*
X102557142Y-51344047D01*
X103128571Y-50677380D02*
X103223809Y-50677380D01*
X103319047Y-50725000D01*
X103366666Y-50772619D01*
X103414285Y-50867857D01*
X103461904Y-51058333D01*
X103461904Y-51296428D01*
X103414285Y-51486904D01*
X103366666Y-51582142D01*
X103319047Y-51629761D01*
X103223809Y-51677380D01*
X103128571Y-51677380D01*
X103033333Y-51629761D01*
X102985714Y-51582142D01*
X102938095Y-51486904D01*
X102890476Y-51296428D01*
X102890476Y-51058333D01*
X102938095Y-50867857D01*
X102985714Y-50772619D01*
X103033333Y-50725000D01*
X103128571Y-50677380D01*
X104080952Y-50677380D02*
X104176190Y-50677380D01*
X104271428Y-50725000D01*
X104319047Y-50772619D01*
X104366666Y-50867857D01*
X104414285Y-51058333D01*
X104414285Y-51296428D01*
X104366666Y-51486904D01*
X104319047Y-51582142D01*
X104271428Y-51629761D01*
X104176190Y-51677380D01*
X104080952Y-51677380D01*
X103985714Y-51629761D01*
X103938095Y-51582142D01*
X103890476Y-51486904D01*
X103842857Y-51296428D01*
X103842857Y-51058333D01*
X103890476Y-50867857D01*
X103938095Y-50772619D01*
X103985714Y-50725000D01*
X104080952Y-50677380D01*
X105604761Y-51677380D02*
X105604761Y-51010714D01*
X105604761Y-51105952D02*
X105652380Y-51058333D01*
X105747619Y-51010714D01*
X105890476Y-51010714D01*
X105985714Y-51058333D01*
X106033333Y-51153571D01*
X106033333Y-51677380D01*
X106033333Y-51153571D02*
X106080952Y-51058333D01*
X106176190Y-51010714D01*
X106319047Y-51010714D01*
X106414285Y-51058333D01*
X106461904Y-51153571D01*
X106461904Y-51677380D01*
X106938095Y-51677380D02*
X106938095Y-51010714D01*
X106938095Y-51105952D02*
X106985714Y-51058333D01*
X107080952Y-51010714D01*
X107223809Y-51010714D01*
X107319047Y-51058333D01*
X107366666Y-51153571D01*
X107366666Y-51677380D01*
X107366666Y-51153571D02*
X107414285Y-51058333D01*
X107509523Y-51010714D01*
X107652380Y-51010714D01*
X107747619Y-51058333D01*
X107795238Y-51153571D01*
X107795238Y-51677380D01*
X98000000Y-52525000D02*
X109400000Y-52525000D01*
X98000000Y-58925000D02*
X98000000Y-51938579D01*
X109400000Y-58925000D02*
X109400000Y-51938579D01*
X109400000Y-52525000D02*
X108273496Y-53111421D01*
X109400000Y-52525000D02*
X108273496Y-51938579D01*
X98000000Y-52525000D02*
X99126504Y-53111421D01*
X98000000Y-52525000D02*
X99126504Y-51938579D01*
X99502142Y-41522619D02*
X99549761Y-41475000D01*
X99645000Y-41427380D01*
X99883095Y-41427380D01*
X99978333Y-41475000D01*
X100025952Y-41522619D01*
X100073571Y-41617857D01*
X100073571Y-41713095D01*
X100025952Y-41855952D01*
X99454523Y-42427380D01*
X100073571Y-42427380D01*
X101025952Y-42427380D02*
X100454523Y-42427380D01*
X100740238Y-42427380D02*
X100740238Y-41427380D01*
X100645000Y-41570238D01*
X100549761Y-41665476D01*
X100454523Y-41713095D01*
X101454523Y-42332142D02*
X101502142Y-42379761D01*
X101454523Y-42427380D01*
X101406904Y-42379761D01*
X101454523Y-42332142D01*
X101454523Y-42427380D01*
X102121190Y-41427380D02*
X102216428Y-41427380D01*
X102311666Y-41475000D01*
X102359285Y-41522619D01*
X102406904Y-41617857D01*
X102454523Y-41808333D01*
X102454523Y-42046428D01*
X102406904Y-42236904D01*
X102359285Y-42332142D01*
X102311666Y-42379761D01*
X102216428Y-42427380D01*
X102121190Y-42427380D01*
X102025952Y-42379761D01*
X101978333Y-42332142D01*
X101930714Y-42236904D01*
X101883095Y-42046428D01*
X101883095Y-41808333D01*
X101930714Y-41617857D01*
X101978333Y-41522619D01*
X102025952Y-41475000D01*
X102121190Y-41427380D01*
X102930714Y-42427380D02*
X103121190Y-42427380D01*
X103216428Y-42379761D01*
X103264047Y-42332142D01*
X103359285Y-42189285D01*
X103406904Y-41998809D01*
X103406904Y-41617857D01*
X103359285Y-41522619D01*
X103311666Y-41475000D01*
X103216428Y-41427380D01*
X103025952Y-41427380D01*
X102930714Y-41475000D01*
X102883095Y-41522619D01*
X102835476Y-41617857D01*
X102835476Y-41855952D01*
X102883095Y-41951190D01*
X102930714Y-41998809D01*
X103025952Y-42046428D01*
X103216428Y-42046428D01*
X103311666Y-41998809D01*
X103359285Y-41951190D01*
X103406904Y-41855952D01*
X104025952Y-41427380D02*
X104121190Y-41427380D01*
X104216428Y-41475000D01*
X104264047Y-41522619D01*
X104311666Y-41617857D01*
X104359285Y-41808333D01*
X104359285Y-42046428D01*
X104311666Y-42236904D01*
X104264047Y-42332142D01*
X104216428Y-42379761D01*
X104121190Y-42427380D01*
X104025952Y-42427380D01*
X103930714Y-42379761D01*
X103883095Y-42332142D01*
X103835476Y-42236904D01*
X103787857Y-42046428D01*
X103787857Y-41808333D01*
X103835476Y-41617857D01*
X103883095Y-41522619D01*
X103930714Y-41475000D01*
X104025952Y-41427380D01*
X105549761Y-42427380D02*
X105549761Y-41760714D01*
X105549761Y-41855952D02*
X105597380Y-41808333D01*
X105692619Y-41760714D01*
X105835476Y-41760714D01*
X105930714Y-41808333D01*
X105978333Y-41903571D01*
X105978333Y-42427380D01*
X105978333Y-41903571D02*
X106025952Y-41808333D01*
X106121190Y-41760714D01*
X106264047Y-41760714D01*
X106359285Y-41808333D01*
X106406904Y-41903571D01*
X106406904Y-42427380D01*
X106883095Y-42427380D02*
X106883095Y-41760714D01*
X106883095Y-41855952D02*
X106930714Y-41808333D01*
X107025952Y-41760714D01*
X107168809Y-41760714D01*
X107264047Y-41808333D01*
X107311666Y-41903571D01*
X107311666Y-42427380D01*
X107311666Y-41903571D02*
X107359285Y-41808333D01*
X107454523Y-41760714D01*
X107597380Y-41760714D01*
X107692619Y-41808333D01*
X107740238Y-41903571D01*
X107740238Y-42427380D01*
X93100000Y-43275000D02*
X114190000Y-43275000D01*
X93100000Y-57225000D02*
X93100000Y-42688579D01*
X114190000Y-57225000D02*
X114190000Y-42688579D01*
X114190000Y-43275000D02*
X113063496Y-43861421D01*
X114190000Y-43275000D02*
X113063496Y-42688579D01*
X93100000Y-43275000D02*
X94226504Y-43861421D01*
X93100000Y-43275000D02*
X94226504Y-42688579D01*
X90342380Y-86494047D02*
X90342380Y-86970238D01*
X90818571Y-87017857D01*
X90770952Y-86970238D01*
X90723333Y-86875000D01*
X90723333Y-86636904D01*
X90770952Y-86541666D01*
X90818571Y-86494047D01*
X90913809Y-86446428D01*
X91151904Y-86446428D01*
X91247142Y-86494047D01*
X91294761Y-86541666D01*
X91342380Y-86636904D01*
X91342380Y-86875000D01*
X91294761Y-86970238D01*
X91247142Y-87017857D01*
X91342380Y-85494047D02*
X91342380Y-86065476D01*
X91342380Y-85779761D02*
X90342380Y-85779761D01*
X90485238Y-85875000D01*
X90580476Y-85970238D01*
X90628095Y-86065476D01*
X91247142Y-85065476D02*
X91294761Y-85017857D01*
X91342380Y-85065476D01*
X91294761Y-85113095D01*
X91247142Y-85065476D01*
X91342380Y-85065476D01*
X90342380Y-84684523D02*
X90342380Y-84065476D01*
X90723333Y-84398809D01*
X90723333Y-84255952D01*
X90770952Y-84160714D01*
X90818571Y-84113095D01*
X90913809Y-84065476D01*
X91151904Y-84065476D01*
X91247142Y-84113095D01*
X91294761Y-84160714D01*
X91342380Y-84255952D01*
X91342380Y-84541666D01*
X91294761Y-84636904D01*
X91247142Y-84684523D01*
X90342380Y-83446428D02*
X90342380Y-83351190D01*
X90390000Y-83255952D01*
X90437619Y-83208333D01*
X90532857Y-83160714D01*
X90723333Y-83113095D01*
X90961428Y-83113095D01*
X91151904Y-83160714D01*
X91247142Y-83208333D01*
X91294761Y-83255952D01*
X91342380Y-83351190D01*
X91342380Y-83446428D01*
X91294761Y-83541666D01*
X91247142Y-83589285D01*
X91151904Y-83636904D01*
X90961428Y-83684523D01*
X90723333Y-83684523D01*
X90532857Y-83636904D01*
X90437619Y-83589285D01*
X90390000Y-83541666D01*
X90342380Y-83446428D01*
X90342380Y-82494047D02*
X90342380Y-82398809D01*
X90390000Y-82303571D01*
X90437619Y-82255952D01*
X90532857Y-82208333D01*
X90723333Y-82160714D01*
X90961428Y-82160714D01*
X91151904Y-82208333D01*
X91247142Y-82255952D01*
X91294761Y-82303571D01*
X91342380Y-82398809D01*
X91342380Y-82494047D01*
X91294761Y-82589285D01*
X91247142Y-82636904D01*
X91151904Y-82684523D01*
X90961428Y-82732142D01*
X90723333Y-82732142D01*
X90532857Y-82684523D01*
X90437619Y-82636904D01*
X90390000Y-82589285D01*
X90342380Y-82494047D01*
X91342380Y-80970238D02*
X90675714Y-80970238D01*
X90770952Y-80970238D02*
X90723333Y-80922619D01*
X90675714Y-80827380D01*
X90675714Y-80684523D01*
X90723333Y-80589285D01*
X90818571Y-80541666D01*
X91342380Y-80541666D01*
X90818571Y-80541666D02*
X90723333Y-80494047D01*
X90675714Y-80398809D01*
X90675714Y-80255952D01*
X90723333Y-80160714D01*
X90818571Y-80113095D01*
X91342380Y-80113095D01*
X91342380Y-79636904D02*
X90675714Y-79636904D01*
X90770952Y-79636904D02*
X90723333Y-79589285D01*
X90675714Y-79494047D01*
X90675714Y-79351190D01*
X90723333Y-79255952D01*
X90818571Y-79208333D01*
X91342380Y-79208333D01*
X90818571Y-79208333D02*
X90723333Y-79160714D01*
X90675714Y-79065476D01*
X90675714Y-78922619D01*
X90723333Y-78827380D01*
X90818571Y-78779761D01*
X91342380Y-78779761D01*
X92190000Y-108525000D02*
X92190000Y-57225000D01*
X93190000Y-108525000D02*
X91603579Y-108525000D01*
X93190000Y-57225000D02*
X91603579Y-57225000D01*
X92190000Y-57225000D02*
X92776421Y-58351504D01*
X92190000Y-57225000D02*
X91603579Y-58351504D01*
X92190000Y-108525000D02*
X92776421Y-107398496D01*
X92190000Y-108525000D02*
X91603579Y-107398496D01*
M02*
