G04 #@! TF.GenerationSoftware,KiCad,Pcbnew,(5.1.9)-1*
G04 #@! TF.CreationDate,2021-06-11T11:43:51+01:00*
G04 #@! TF.ProjectId,EnvOpenPico,456e764f-7065-46e5-9069-636f2e6b6963,REV1*
G04 #@! TF.SameCoordinates,Original*
G04 #@! TF.FileFunction,Copper,L2,Bot*
G04 #@! TF.FilePolarity,Positive*
%FSLAX46Y46*%
G04 Gerber Fmt 4.6, Leading zero omitted, Abs format (unit mm)*
G04 Created by KiCad (PCBNEW (5.1.9)-1) date 2021-06-11 11:43:51*
%MOMM*%
%LPD*%
G01*
G04 APERTURE LIST*
G04 #@! TA.AperFunction,ComponentPad*
%ADD10O,1.700000X1.700000*%
G04 #@! TD*
G04 #@! TA.AperFunction,ComponentPad*
%ADD11R,1.700000X1.700000*%
G04 #@! TD*
G04 #@! TA.AperFunction,ComponentPad*
%ADD12R,3.500000X1.700000*%
G04 #@! TD*
G04 #@! TA.AperFunction,ComponentPad*
%ADD13C,1.700000*%
G04 #@! TD*
G04 #@! TA.AperFunction,ComponentPad*
%ADD14O,1.000000X2.100000*%
G04 #@! TD*
G04 #@! TA.AperFunction,ComponentPad*
%ADD15O,1.000000X1.600000*%
G04 #@! TD*
G04 #@! TA.AperFunction,ComponentPad*
%ADD16C,0.600000*%
G04 #@! TD*
G04 #@! TA.AperFunction,ViaPad*
%ADD17C,0.600000*%
G04 #@! TD*
G04 #@! TA.AperFunction,ViaPad*
%ADD18C,0.400000*%
G04 #@! TD*
G04 #@! TA.AperFunction,Conductor*
%ADD19C,0.150000*%
G04 #@! TD*
G04 #@! TA.AperFunction,Conductor*
%ADD20C,0.800000*%
G04 #@! TD*
G04 #@! TA.AperFunction,Conductor*
%ADD21C,0.300000*%
G04 #@! TD*
G04 #@! TA.AperFunction,Conductor*
%ADD22C,0.254000*%
G04 #@! TD*
G04 APERTURE END LIST*
D10*
X112550000Y-106985000D03*
X112550000Y-104445000D03*
X112550000Y-101905000D03*
X112550000Y-99365000D03*
X112550000Y-96825000D03*
X112550000Y-94285000D03*
X112550000Y-91745000D03*
X112550000Y-89205000D03*
X112550000Y-86665000D03*
X112550000Y-84125000D03*
X112550000Y-81585000D03*
X112550000Y-79045000D03*
X112550000Y-76505000D03*
X112550000Y-73965000D03*
X112550000Y-71425000D03*
X112550000Y-68885000D03*
X112550000Y-66345000D03*
X112550000Y-63805000D03*
X112550000Y-61265000D03*
D11*
X112550000Y-58725000D03*
D12*
X114250000Y-99365000D03*
X114250000Y-101905000D03*
X114250000Y-96825000D03*
X114250000Y-104445000D03*
X114250000Y-94285000D03*
X114250000Y-106985000D03*
X114250000Y-86665000D03*
X114250000Y-91745000D03*
X114250000Y-84125000D03*
X114250000Y-73965000D03*
X114250000Y-71425000D03*
X114250000Y-68885000D03*
X114250000Y-61265000D03*
X114250000Y-89205000D03*
X114250000Y-76505000D03*
X114250000Y-63805000D03*
X114250000Y-58725000D03*
X114250000Y-79045000D03*
X114250000Y-66345000D03*
X114250000Y-81585000D03*
D10*
X94750000Y-58725000D03*
X94750000Y-61265000D03*
D11*
X94750000Y-63805000D03*
D10*
X94750000Y-66345000D03*
X94750000Y-68885000D03*
X94750000Y-71425000D03*
X94750000Y-73965000D03*
D11*
X94750000Y-76505000D03*
D10*
X94750000Y-79045000D03*
X94750000Y-81585000D03*
X94750000Y-84125000D03*
X94750000Y-86665000D03*
D11*
X94750000Y-89205000D03*
D10*
X94750000Y-91745000D03*
X94750000Y-94285000D03*
X94750000Y-96825000D03*
X94750000Y-99365000D03*
D11*
X94750000Y-101905000D03*
D10*
X94750000Y-104445000D03*
D13*
X94750000Y-106985000D03*
D12*
X93050000Y-104445000D03*
X93050000Y-73965000D03*
X93050000Y-99365000D03*
X93050000Y-94285000D03*
X93050000Y-89205000D03*
X93050000Y-86665000D03*
X93050000Y-71425000D03*
X93060000Y-79045000D03*
X93050000Y-68885000D03*
X93050000Y-61255000D03*
X93050000Y-66335000D03*
X93040000Y-91745000D03*
X93050000Y-96825000D03*
X93050000Y-81585000D03*
X93050000Y-76505000D03*
X93050000Y-106985000D03*
X93050000Y-84125000D03*
X93050000Y-63805000D03*
X93050000Y-101905000D03*
X93050000Y-58725000D03*
D14*
X107920000Y-63705000D03*
X99280000Y-63705000D03*
D15*
X107920000Y-59525000D03*
X99280000Y-59525000D03*
D16*
X104965000Y-87300000D03*
X103690000Y-87300000D03*
X102415000Y-87300000D03*
X104965000Y-86025000D03*
X103690000Y-86025000D03*
X102415000Y-86025000D03*
X104965000Y-84750000D03*
X103690000Y-84750000D03*
X102415000Y-84750000D03*
D10*
X106230000Y-106925000D03*
X103690000Y-106925000D03*
D11*
X101150000Y-106925000D03*
D17*
X110200000Y-64975000D03*
X110100000Y-87175000D03*
X108500000Y-90125000D03*
X105500000Y-104625000D03*
X96450000Y-61925000D03*
X96600000Y-87325000D03*
X100375006Y-65950006D03*
X97291928Y-84725000D03*
X101850000Y-92100000D03*
X108800000Y-93175000D03*
X104850000Y-93700000D03*
X100375000Y-64620000D03*
X100200000Y-89575000D03*
X97725000Y-81875000D03*
X110300000Y-70525000D03*
X106250000Y-80655000D03*
X105680000Y-66535000D03*
X105050000Y-71085000D03*
X110390000Y-84545000D03*
X103600000Y-66105000D03*
X102110000Y-78545000D03*
X101660000Y-73145000D03*
X103490000Y-62915000D03*
D18*
X106280000Y-70515000D03*
D17*
X108810000Y-68575000D03*
X103700000Y-93525000D03*
X98700000Y-92925000D03*
X110400000Y-73325000D03*
X100425000Y-74500000D03*
X105570000Y-74500002D03*
X105065000Y-83725000D03*
X104340000Y-88125000D03*
X104284269Y-90880277D03*
X106925000Y-81350000D03*
X103260000Y-81155000D03*
X96700000Y-85335000D03*
X97816938Y-85719993D03*
X98410926Y-85262067D03*
X98660000Y-84525000D03*
X107600000Y-92225000D03*
X99730000Y-71140000D03*
X100262500Y-82362500D03*
D18*
X102850000Y-64650000D03*
X103860000Y-64650000D03*
X103350000Y-64650000D03*
X104360000Y-64650000D03*
D17*
X109650000Y-85425000D03*
X97900000Y-64650000D03*
X104550000Y-62575000D03*
X102040000Y-66185000D03*
X107789946Y-68575000D03*
D19*
X112590000Y-89205000D02*
X112244000Y-89205000D01*
X112244000Y-89205000D02*
X110628000Y-90821000D01*
X112590000Y-88719000D02*
X111390000Y-87519000D01*
X112590000Y-89205000D02*
X112590000Y-88719000D01*
X97291928Y-84725000D02*
X97291928Y-85863072D01*
X97291928Y-85863072D02*
X97290000Y-85865000D01*
X97290000Y-85865000D02*
X97290000Y-86655000D01*
X106870000Y-70515000D02*
X108810000Y-68575000D01*
X106280000Y-70515000D02*
X106870000Y-70515000D01*
X103100000Y-92925000D02*
X98700000Y-92925000D01*
X103700000Y-93525000D02*
X103100000Y-92925000D01*
D20*
X112550000Y-68885000D02*
X110140000Y-68885000D01*
X110140000Y-68885000D02*
X109425001Y-69599999D01*
X109425001Y-69599999D02*
X109425001Y-72350001D01*
X109425001Y-72350001D02*
X110400000Y-73325000D01*
D19*
X100425000Y-74500000D02*
X105569998Y-74500000D01*
X105569998Y-74500000D02*
X105570000Y-74500002D01*
X104290000Y-88100000D02*
X104290000Y-88100000D01*
X104840000Y-83950000D02*
X105065000Y-83725000D01*
X104665000Y-83950000D02*
X104840000Y-83950000D01*
X104665000Y-83950000D02*
X105065000Y-83950000D01*
X104340000Y-88000000D02*
X104284269Y-88055731D01*
X104284269Y-90456013D02*
X104284269Y-90880277D01*
X104284269Y-88055731D02*
X104284269Y-90456013D01*
X105475000Y-81725000D02*
X105850000Y-81350000D01*
X105475000Y-83550000D02*
X105475000Y-81725000D01*
X105850000Y-81350000D02*
X106925000Y-81350000D01*
X105300000Y-83725000D02*
X105475000Y-83550000D01*
X105065000Y-83725000D02*
X105300000Y-83725000D01*
X106925000Y-81350000D02*
X106930000Y-81355000D01*
X104665000Y-83950000D02*
X103260000Y-82545000D01*
X103260000Y-82545000D02*
X103260000Y-81155000D01*
X95710000Y-79085000D02*
X96700000Y-80075000D01*
X96700000Y-80075000D02*
X96700000Y-85335000D01*
X94690000Y-79085000D02*
X95710000Y-79085000D01*
X96945000Y-74005000D02*
X94690000Y-74005000D01*
X98960000Y-76020000D02*
X96945000Y-74005000D01*
X98960000Y-83013719D02*
X98960000Y-76020000D01*
X97816938Y-84156781D02*
X98960000Y-83013719D01*
X97816938Y-85719993D02*
X97816938Y-84156781D01*
X95952081Y-71425000D02*
X94750000Y-71425000D01*
X99269978Y-74742897D02*
X95952081Y-71425000D01*
X98134999Y-84262999D02*
X99269978Y-83128020D01*
X98134999Y-84986140D02*
X98134999Y-84262999D01*
X98410926Y-85262067D02*
X98134999Y-84986140D01*
X99269978Y-83128020D02*
X99269978Y-74742897D01*
X99569989Y-83615011D02*
X98660000Y-84525000D01*
X94750000Y-68885000D02*
X99569989Y-73704989D01*
X99569989Y-73704989D02*
X99569989Y-83615011D01*
X111800000Y-84125000D02*
X112590000Y-84125000D01*
X110800000Y-85125000D02*
X111800000Y-84125000D01*
X110800000Y-89025000D02*
X110800000Y-85125000D01*
X107600000Y-92225000D02*
X110800000Y-89025000D01*
X99730000Y-71140000D02*
X99730000Y-71140000D01*
X100262500Y-82362500D02*
X99870000Y-81970000D01*
X99870000Y-81970000D02*
X99870000Y-71280000D01*
X99870000Y-71280000D02*
X99730000Y-71140000D01*
D21*
X103860000Y-64410000D02*
X103860000Y-64650000D01*
X103599999Y-64149999D02*
X103860000Y-64410000D01*
X103067159Y-64149999D02*
X103599999Y-64149999D01*
X102850000Y-64367158D02*
X103067159Y-64149999D01*
X102850000Y-64650000D02*
X102850000Y-64367158D01*
X103350000Y-64880002D02*
X103350000Y-64650000D01*
X103619999Y-65150001D02*
X103350000Y-64880002D01*
X104142841Y-65150001D02*
X103619999Y-65150001D01*
X104360000Y-64932842D02*
X104142841Y-65150001D01*
X104360000Y-64650000D02*
X104360000Y-64932842D01*
D19*
X98199999Y-64949999D02*
X97900000Y-64650000D01*
X109700000Y-85425000D02*
X109700000Y-83915000D01*
X101200000Y-66802004D02*
X100052004Y-66802004D01*
X109700000Y-83915000D02*
X110450000Y-83165000D01*
X107280000Y-72615000D02*
X107230000Y-72615000D01*
X110450000Y-75950000D02*
X107280000Y-72780000D01*
X107280000Y-72780000D02*
X107280000Y-72615000D01*
X107230000Y-72615000D02*
X105720000Y-71105000D01*
X105720000Y-71105000D02*
X105720000Y-69365000D01*
X110450000Y-83165000D02*
X110450000Y-75950000D01*
X105720000Y-69365000D02*
X104504990Y-68149990D01*
X102547986Y-68149990D02*
X101200000Y-66802004D01*
X104504990Y-68149990D02*
X102547986Y-68149990D01*
X100052004Y-66802004D02*
X98199999Y-64949999D01*
X104550000Y-62575000D02*
X103900000Y-61925000D01*
X103900000Y-61925000D02*
X103175000Y-61925000D01*
X102040000Y-63060000D02*
X102040000Y-66185000D01*
X103175000Y-61925000D02*
X102040000Y-63060000D01*
X112550000Y-66345000D02*
X110019946Y-66345000D01*
X110019946Y-66345000D02*
X107789946Y-68575000D01*
D22*
X109158467Y-57777739D02*
X108952739Y-57983467D01*
X108791099Y-58225378D01*
X108679760Y-58494175D01*
X108623000Y-58779528D01*
X108623000Y-59070472D01*
X108679760Y-59355825D01*
X108791099Y-59624622D01*
X108952739Y-59866533D01*
X109158467Y-60072261D01*
X109400378Y-60233901D01*
X109669175Y-60345240D01*
X109954528Y-60402000D01*
X110245472Y-60402000D01*
X110530825Y-60345240D01*
X110799622Y-60233901D01*
X111041533Y-60072261D01*
X111247261Y-59866533D01*
X111348507Y-59715008D01*
X111350012Y-59719970D01*
X111385019Y-59785463D01*
X111432131Y-59842869D01*
X111489537Y-59889981D01*
X111555030Y-59924988D01*
X111626095Y-59946545D01*
X111700000Y-59953824D01*
X113788001Y-59953824D01*
X113788001Y-60036176D01*
X112500000Y-60036176D01*
X112481481Y-60038000D01*
X112429151Y-60038000D01*
X112192097Y-60085153D01*
X111968798Y-60177647D01*
X111767833Y-60311927D01*
X111596927Y-60482833D01*
X111462647Y-60683798D01*
X111370153Y-60907097D01*
X111323000Y-61144151D01*
X111323000Y-61385849D01*
X111370153Y-61622903D01*
X111462647Y-61846202D01*
X111596927Y-62047167D01*
X111767833Y-62218073D01*
X111968798Y-62352353D01*
X112192097Y-62444847D01*
X112429151Y-62492000D01*
X112481481Y-62492000D01*
X112500000Y-62493824D01*
X113788001Y-62493824D01*
X113788001Y-65116176D01*
X112500000Y-65116176D01*
X112481481Y-65118000D01*
X112429151Y-65118000D01*
X112192097Y-65165153D01*
X111968798Y-65257647D01*
X111767833Y-65391927D01*
X111596927Y-65562833D01*
X111462647Y-65763798D01*
X111409129Y-65893000D01*
X110042150Y-65893000D01*
X110019945Y-65890813D01*
X109931338Y-65899540D01*
X109911508Y-65905556D01*
X109846136Y-65925386D01*
X109767613Y-65967357D01*
X109698787Y-66023841D01*
X109684632Y-66041089D01*
X107827723Y-67898000D01*
X107723267Y-67898000D01*
X107592472Y-67924016D01*
X107469266Y-67975050D01*
X107358383Y-68049140D01*
X107264086Y-68143437D01*
X107189996Y-68254320D01*
X107138962Y-68377526D01*
X107112946Y-68508321D01*
X107112946Y-68641679D01*
X107138962Y-68772474D01*
X107189996Y-68895680D01*
X107264086Y-69006563D01*
X107358383Y-69100860D01*
X107469266Y-69174950D01*
X107541080Y-69204696D01*
X106682777Y-70063000D01*
X106642106Y-70063000D01*
X106553312Y-70003669D01*
X106448305Y-69960174D01*
X106336830Y-69938000D01*
X106223170Y-69938000D01*
X106172000Y-69948178D01*
X106172000Y-69387205D01*
X106174187Y-69365000D01*
X106165460Y-69276392D01*
X106139614Y-69191190D01*
X106135655Y-69183784D01*
X106097643Y-69112667D01*
X106041159Y-69043841D01*
X106023905Y-69029681D01*
X104840313Y-67846090D01*
X104826149Y-67828831D01*
X104757323Y-67772347D01*
X104678800Y-67730376D01*
X104593597Y-67704530D01*
X104527195Y-67697990D01*
X104504990Y-67695803D01*
X104482785Y-67697990D01*
X102735211Y-67697990D01*
X101880821Y-66843601D01*
X101973321Y-66862000D01*
X102106679Y-66862000D01*
X102237474Y-66835984D01*
X102360680Y-66784950D01*
X102471563Y-66710860D01*
X102565860Y-66616563D01*
X102639950Y-66505680D01*
X102690984Y-66382474D01*
X102717000Y-66251679D01*
X102717000Y-66118321D01*
X102690984Y-65987526D01*
X102639950Y-65864320D01*
X102565860Y-65753437D01*
X102492000Y-65679577D01*
X102492000Y-65104744D01*
X102576688Y-65161331D01*
X102681695Y-65204826D01*
X102793170Y-65227000D01*
X102906830Y-65227000D01*
X102946542Y-65219101D01*
X102975552Y-65254450D01*
X102995666Y-65270957D01*
X103229044Y-65504335D01*
X103245551Y-65524449D01*
X103325797Y-65590305D01*
X103417349Y-65639240D01*
X103516689Y-65669375D01*
X103594118Y-65677001D01*
X103594120Y-65677001D01*
X103619998Y-65679550D01*
X103645876Y-65677001D01*
X104116960Y-65677001D01*
X104142841Y-65679550D01*
X104168722Y-65677001D01*
X104246151Y-65669375D01*
X104345491Y-65639240D01*
X104437043Y-65590305D01*
X104517289Y-65524449D01*
X104533796Y-65504335D01*
X104714334Y-65323797D01*
X104734448Y-65307290D01*
X104800304Y-65227044D01*
X104836597Y-65159143D01*
X104849239Y-65135492D01*
X104879374Y-65036152D01*
X104889549Y-64932843D01*
X104887000Y-64906962D01*
X104887000Y-64885483D01*
X104914826Y-64818305D01*
X104937000Y-64706830D01*
X104937000Y-64593170D01*
X104914826Y-64481695D01*
X104871331Y-64376688D01*
X104808185Y-64282184D01*
X104727816Y-64201815D01*
X104633312Y-64138669D01*
X104528305Y-64095174D01*
X104416830Y-64073000D01*
X104303170Y-64073000D01*
X104270512Y-64079496D01*
X104234448Y-64035552D01*
X104214334Y-64019045D01*
X103990954Y-63795665D01*
X103974447Y-63775551D01*
X103894201Y-63709695D01*
X103802649Y-63660760D01*
X103703309Y-63630625D01*
X103625880Y-63622999D01*
X103599999Y-63620450D01*
X103574118Y-63622999D01*
X103093039Y-63622999D01*
X103067158Y-63620450D01*
X102963849Y-63630625D01*
X102864509Y-63660760D01*
X102772957Y-63709695D01*
X102692711Y-63775551D01*
X102676204Y-63795665D01*
X102495662Y-63976207D01*
X102492000Y-63979212D01*
X102492000Y-63247223D01*
X103362225Y-62377000D01*
X103712777Y-62377000D01*
X103873000Y-62537223D01*
X103873000Y-62641679D01*
X103899016Y-62772474D01*
X103950050Y-62895680D01*
X104024140Y-63006563D01*
X104118437Y-63100860D01*
X104229320Y-63174950D01*
X104352526Y-63225984D01*
X104483321Y-63252000D01*
X104616679Y-63252000D01*
X104747474Y-63225984D01*
X104870680Y-63174950D01*
X104974081Y-63105859D01*
X105788000Y-63105859D01*
X105788000Y-63244141D01*
X105814977Y-63379766D01*
X105867895Y-63507522D01*
X105944721Y-63622499D01*
X106042501Y-63720279D01*
X106157478Y-63797105D01*
X106285234Y-63850023D01*
X106420859Y-63877000D01*
X106559141Y-63877000D01*
X106694766Y-63850023D01*
X106822522Y-63797105D01*
X106937499Y-63720279D01*
X107035279Y-63622499D01*
X107112105Y-63507522D01*
X107165023Y-63379766D01*
X107192000Y-63244141D01*
X107192000Y-63105859D01*
X107165023Y-62970234D01*
X107112105Y-62842478D01*
X107035279Y-62727501D01*
X106937499Y-62629721D01*
X106822522Y-62552895D01*
X106694766Y-62499977D01*
X106559141Y-62473000D01*
X106420859Y-62473000D01*
X106285234Y-62499977D01*
X106157478Y-62552895D01*
X106042501Y-62629721D01*
X105944721Y-62727501D01*
X105867895Y-62842478D01*
X105814977Y-62970234D01*
X105788000Y-63105859D01*
X104974081Y-63105859D01*
X104981563Y-63100860D01*
X105075860Y-63006563D01*
X105149950Y-62895680D01*
X105200984Y-62772474D01*
X105227000Y-62641679D01*
X105227000Y-62508321D01*
X105200984Y-62377526D01*
X105149950Y-62254320D01*
X105075860Y-62143437D01*
X104981563Y-62049140D01*
X104870680Y-61975050D01*
X104747474Y-61924016D01*
X104616679Y-61898000D01*
X104512223Y-61898000D01*
X104235323Y-61621100D01*
X104221159Y-61603841D01*
X104152333Y-61547357D01*
X104073810Y-61505386D01*
X103988607Y-61479540D01*
X103922205Y-61473000D01*
X103900000Y-61470813D01*
X103877795Y-61473000D01*
X103197204Y-61473000D01*
X103174999Y-61470813D01*
X103086392Y-61479540D01*
X103066562Y-61485556D01*
X103001190Y-61505386D01*
X102922667Y-61547357D01*
X102853841Y-61603841D01*
X102839685Y-61621090D01*
X101736100Y-62724677D01*
X101718841Y-62738841D01*
X101662358Y-62807667D01*
X101620386Y-62886191D01*
X101594540Y-62971393D01*
X101585813Y-63060000D01*
X101588000Y-63082205D01*
X101588001Y-65679576D01*
X101514140Y-65753437D01*
X101440050Y-65864320D01*
X101389016Y-65987526D01*
X101363000Y-66118321D01*
X101363000Y-66251679D01*
X101389016Y-66382474D01*
X101393295Y-66392805D01*
X101373810Y-66382390D01*
X101288607Y-66356544D01*
X101222205Y-66350004D01*
X101200000Y-66347817D01*
X101177795Y-66350004D01*
X100239228Y-66350004D01*
X98577000Y-64687777D01*
X98577000Y-64583321D01*
X98550984Y-64452526D01*
X98499950Y-64329320D01*
X98425860Y-64218437D01*
X98331563Y-64124140D01*
X98220680Y-64050050D01*
X98097474Y-63999016D01*
X97966679Y-63973000D01*
X97833321Y-63973000D01*
X97702526Y-63999016D01*
X97579320Y-64050050D01*
X97468437Y-64124140D01*
X97374140Y-64218437D01*
X97300050Y-64329320D01*
X97249016Y-64452526D01*
X97223000Y-64583321D01*
X97223000Y-64716679D01*
X97249016Y-64847474D01*
X97300050Y-64970680D01*
X97374140Y-65081563D01*
X97468437Y-65175860D01*
X97579320Y-65249950D01*
X97702526Y-65300984D01*
X97833321Y-65327000D01*
X97937777Y-65327000D01*
X99716685Y-67105909D01*
X99730845Y-67123163D01*
X99799671Y-67179647D01*
X99878194Y-67221618D01*
X99963396Y-67247464D01*
X100052004Y-67256191D01*
X100074209Y-67254004D01*
X101012777Y-67254004D01*
X102212671Y-68453900D01*
X102226827Y-68471149D01*
X102295653Y-68527633D01*
X102336914Y-68549687D01*
X102374176Y-68569604D01*
X102459378Y-68595450D01*
X102547985Y-68604177D01*
X102570190Y-68601990D01*
X104317767Y-68601990D01*
X105268001Y-69552225D01*
X105268000Y-71082795D01*
X105265813Y-71105000D01*
X105274540Y-71193607D01*
X105285157Y-71228607D01*
X105300386Y-71278809D01*
X105342357Y-71357332D01*
X105398841Y-71426159D01*
X105416100Y-71440323D01*
X106833465Y-72857690D01*
X106834540Y-72868607D01*
X106860386Y-72953809D01*
X106902357Y-73032332D01*
X106958841Y-73101159D01*
X106976100Y-73115323D01*
X109998001Y-76137225D01*
X109998000Y-82977775D01*
X109396095Y-83579681D01*
X109378842Y-83593841D01*
X109325925Y-83658321D01*
X109322358Y-83662667D01*
X109280386Y-83741191D01*
X109254540Y-83826393D01*
X109245813Y-83915000D01*
X109248001Y-83937215D01*
X109248000Y-84879386D01*
X109218437Y-84899140D01*
X109124140Y-84993437D01*
X109050050Y-85104320D01*
X108999016Y-85227526D01*
X108973000Y-85358321D01*
X108973000Y-85491679D01*
X108999016Y-85622474D01*
X109050050Y-85745680D01*
X109124140Y-85856563D01*
X109218437Y-85950860D01*
X109329320Y-86024950D01*
X109452526Y-86075984D01*
X109583321Y-86102000D01*
X109716679Y-86102000D01*
X109847474Y-86075984D01*
X109970680Y-86024950D01*
X110081563Y-85950860D01*
X110175860Y-85856563D01*
X110249950Y-85745680D01*
X110300984Y-85622474D01*
X110327000Y-85491679D01*
X110327000Y-85358321D01*
X110300984Y-85227526D01*
X110249950Y-85104320D01*
X110175860Y-84993437D01*
X110152000Y-84969577D01*
X110152000Y-84102223D01*
X110753911Y-83500314D01*
X110771159Y-83486159D01*
X110827643Y-83417333D01*
X110869614Y-83338810D01*
X110883378Y-83293437D01*
X110895460Y-83253608D01*
X110904187Y-83165001D01*
X110902000Y-83142796D01*
X110902000Y-75972205D01*
X110904187Y-75950000D01*
X110895460Y-75861392D01*
X110869614Y-75776190D01*
X110837489Y-75716088D01*
X110827643Y-75697667D01*
X110771159Y-75628841D01*
X110753905Y-75614681D01*
X107731998Y-72592775D01*
X107725460Y-72526393D01*
X107699614Y-72441190D01*
X107657643Y-72362667D01*
X107601159Y-72293841D01*
X107532333Y-72237357D01*
X107453810Y-72195386D01*
X107447782Y-72193558D01*
X106344665Y-71090442D01*
X106448305Y-71069826D01*
X106553312Y-71026331D01*
X106642106Y-70967000D01*
X106847795Y-70967000D01*
X106870000Y-70969187D01*
X106892205Y-70967000D01*
X106958607Y-70960460D01*
X107043810Y-70934614D01*
X107122333Y-70892643D01*
X107191159Y-70836159D01*
X107205323Y-70818900D01*
X108695255Y-69328970D01*
X108659244Y-69447681D01*
X108650725Y-69534177D01*
X108644242Y-69599999D01*
X108648001Y-69638163D01*
X108648002Y-72311828D01*
X108644242Y-72350001D01*
X108654963Y-72458842D01*
X108659245Y-72502320D01*
X108672722Y-72546749D01*
X108703674Y-72648784D01*
X108775824Y-72783767D01*
X108848592Y-72872435D01*
X108872922Y-72902081D01*
X108902566Y-72926409D01*
X109877565Y-73901409D01*
X109966233Y-73974177D01*
X110101217Y-74046327D01*
X110247681Y-74090756D01*
X110400000Y-74105759D01*
X110552318Y-74090756D01*
X110698783Y-74046327D01*
X110833766Y-73974177D01*
X110952080Y-73877080D01*
X111049177Y-73758766D01*
X111121327Y-73623783D01*
X111165756Y-73477318D01*
X111180759Y-73325000D01*
X111165756Y-73172681D01*
X111121327Y-73026217D01*
X111049177Y-72891233D01*
X110976409Y-72802565D01*
X110202001Y-72028158D01*
X110202001Y-69921842D01*
X110461844Y-69662000D01*
X111593475Y-69662000D01*
X111596927Y-69667167D01*
X111767833Y-69838073D01*
X111968798Y-69972353D01*
X112192097Y-70064847D01*
X112429151Y-70112000D01*
X112481481Y-70112000D01*
X112500000Y-70113824D01*
X113788001Y-70113824D01*
X113788001Y-70196176D01*
X112500000Y-70196176D01*
X112481481Y-70198000D01*
X112429151Y-70198000D01*
X112192097Y-70245153D01*
X111968798Y-70337647D01*
X111767833Y-70471927D01*
X111596927Y-70642833D01*
X111462647Y-70843798D01*
X111370153Y-71067097D01*
X111323000Y-71304151D01*
X111323000Y-71545849D01*
X111370153Y-71782903D01*
X111462647Y-72006202D01*
X111596927Y-72207167D01*
X111767833Y-72378073D01*
X111968798Y-72512353D01*
X112192097Y-72604847D01*
X112429151Y-72652000D01*
X112481481Y-72652000D01*
X112500000Y-72653824D01*
X113788001Y-72653824D01*
X113788001Y-72736176D01*
X112500000Y-72736176D01*
X112481481Y-72738000D01*
X112429151Y-72738000D01*
X112192097Y-72785153D01*
X111968798Y-72877647D01*
X111767833Y-73011927D01*
X111596927Y-73182833D01*
X111462647Y-73383798D01*
X111370153Y-73607097D01*
X111323000Y-73844151D01*
X111323000Y-74085849D01*
X111370153Y-74322903D01*
X111462647Y-74546202D01*
X111596927Y-74747167D01*
X111767833Y-74918073D01*
X111968798Y-75052353D01*
X112192097Y-75144847D01*
X112429151Y-75192000D01*
X112481481Y-75192000D01*
X112500000Y-75193824D01*
X113788001Y-75193824D01*
X113788001Y-77816176D01*
X112500000Y-77816176D01*
X112481481Y-77818000D01*
X112429151Y-77818000D01*
X112192097Y-77865153D01*
X111968798Y-77957647D01*
X111767833Y-78091927D01*
X111596927Y-78262833D01*
X111462647Y-78463798D01*
X111370153Y-78687097D01*
X111323000Y-78924151D01*
X111323000Y-79165849D01*
X111370153Y-79402903D01*
X111462647Y-79626202D01*
X111596927Y-79827167D01*
X111767833Y-79998073D01*
X111968798Y-80132353D01*
X112192097Y-80224847D01*
X112429151Y-80272000D01*
X112481481Y-80272000D01*
X112500000Y-80273824D01*
X113788001Y-80273824D01*
X113788001Y-80356176D01*
X112500000Y-80356176D01*
X112481481Y-80358000D01*
X112429151Y-80358000D01*
X112192097Y-80405153D01*
X111968798Y-80497647D01*
X111767833Y-80631927D01*
X111596927Y-80802833D01*
X111462647Y-81003798D01*
X111370153Y-81227097D01*
X111323000Y-81464151D01*
X111323000Y-81705849D01*
X111370153Y-81942903D01*
X111462647Y-82166202D01*
X111596927Y-82367167D01*
X111767833Y-82538073D01*
X111968798Y-82672353D01*
X112192097Y-82764847D01*
X112429151Y-82812000D01*
X112481481Y-82812000D01*
X112500000Y-82813824D01*
X113788001Y-82813824D01*
X113788000Y-82896176D01*
X112500000Y-82896176D01*
X112481481Y-82898000D01*
X112429151Y-82898000D01*
X112192097Y-82945153D01*
X111968798Y-83037647D01*
X111767833Y-83171927D01*
X111596927Y-83342833D01*
X111462647Y-83543798D01*
X111370153Y-83767097D01*
X111333274Y-83952503D01*
X110496096Y-84789681D01*
X110478842Y-84803841D01*
X110432497Y-84860313D01*
X110422358Y-84872667D01*
X110380386Y-84951191D01*
X110354540Y-85036393D01*
X110345813Y-85125000D01*
X110348001Y-85147215D01*
X110348000Y-88837775D01*
X107637777Y-91548000D01*
X107533321Y-91548000D01*
X107402526Y-91574016D01*
X107279320Y-91625050D01*
X107168437Y-91699140D01*
X107074140Y-91793437D01*
X107000050Y-91904320D01*
X106949016Y-92027526D01*
X106923000Y-92158321D01*
X106923000Y-92291679D01*
X106949016Y-92422474D01*
X107000050Y-92545680D01*
X107074140Y-92656563D01*
X107168437Y-92750860D01*
X107279320Y-92824950D01*
X107402526Y-92875984D01*
X107533321Y-92902000D01*
X107666679Y-92902000D01*
X107797474Y-92875984D01*
X107920680Y-92824950D01*
X108031563Y-92750860D01*
X108125860Y-92656563D01*
X108199950Y-92545680D01*
X108250984Y-92422474D01*
X108277000Y-92291679D01*
X108277000Y-92187223D01*
X111103912Y-89360313D01*
X111121159Y-89346159D01*
X111177643Y-89277333D01*
X111219614Y-89198810D01*
X111245460Y-89113607D01*
X111252000Y-89047205D01*
X111252000Y-89047204D01*
X111254187Y-89025001D01*
X111252000Y-89002796D01*
X111252000Y-85312223D01*
X111626992Y-84937232D01*
X111767833Y-85078073D01*
X111968798Y-85212353D01*
X112192097Y-85304847D01*
X112429151Y-85352000D01*
X112481481Y-85352000D01*
X112500000Y-85353824D01*
X113788000Y-85353824D01*
X113788000Y-85436176D01*
X112500000Y-85436176D01*
X112481481Y-85438000D01*
X112429151Y-85438000D01*
X112192097Y-85485153D01*
X111968798Y-85577647D01*
X111767833Y-85711927D01*
X111596927Y-85882833D01*
X111462647Y-86083798D01*
X111370153Y-86307097D01*
X111323000Y-86544151D01*
X111323000Y-86785849D01*
X111370153Y-87022903D01*
X111462647Y-87246202D01*
X111596927Y-87447167D01*
X111767833Y-87618073D01*
X111968798Y-87752353D01*
X112192097Y-87844847D01*
X112429151Y-87892000D01*
X112481481Y-87892000D01*
X112500000Y-87893824D01*
X113788000Y-87893824D01*
X113788000Y-90516176D01*
X112500000Y-90516176D01*
X112481481Y-90518000D01*
X112429151Y-90518000D01*
X112192097Y-90565153D01*
X111968798Y-90657647D01*
X111767833Y-90791927D01*
X111596927Y-90962833D01*
X111462647Y-91163798D01*
X111370153Y-91387097D01*
X111323000Y-91624151D01*
X111323000Y-91865849D01*
X111370153Y-92102903D01*
X111462647Y-92326202D01*
X111596927Y-92527167D01*
X111767833Y-92698073D01*
X111968798Y-92832353D01*
X112192097Y-92924847D01*
X112429151Y-92972000D01*
X112481481Y-92972000D01*
X112500000Y-92973824D01*
X113788000Y-92973824D01*
X113788000Y-93056176D01*
X112500000Y-93056176D01*
X112481481Y-93058000D01*
X112429151Y-93058000D01*
X112192097Y-93105153D01*
X111968798Y-93197647D01*
X111767833Y-93331927D01*
X111596927Y-93502833D01*
X111462647Y-93703798D01*
X111370153Y-93927097D01*
X111323000Y-94164151D01*
X111323000Y-94405849D01*
X111370153Y-94642903D01*
X111462647Y-94866202D01*
X111596927Y-95067167D01*
X111767833Y-95238073D01*
X111968798Y-95372353D01*
X112192097Y-95464847D01*
X112429151Y-95512000D01*
X112481481Y-95512000D01*
X112500000Y-95513824D01*
X113788000Y-95513824D01*
X113788000Y-95596176D01*
X112500000Y-95596176D01*
X112481481Y-95598000D01*
X112429151Y-95598000D01*
X112192097Y-95645153D01*
X111968798Y-95737647D01*
X111767833Y-95871927D01*
X111596927Y-96042833D01*
X111462647Y-96243798D01*
X111370153Y-96467097D01*
X111323000Y-96704151D01*
X111323000Y-96945849D01*
X111370153Y-97182903D01*
X111462647Y-97406202D01*
X111596927Y-97607167D01*
X111767833Y-97778073D01*
X111968798Y-97912353D01*
X112192097Y-98004847D01*
X112429151Y-98052000D01*
X112481481Y-98052000D01*
X112500000Y-98053824D01*
X113788000Y-98053824D01*
X113788000Y-98136176D01*
X112500000Y-98136176D01*
X112481481Y-98138000D01*
X112429151Y-98138000D01*
X112192097Y-98185153D01*
X111968798Y-98277647D01*
X111767833Y-98411927D01*
X111596927Y-98582833D01*
X111462647Y-98783798D01*
X111370153Y-99007097D01*
X111323000Y-99244151D01*
X111323000Y-99485849D01*
X111370153Y-99722903D01*
X111462647Y-99946202D01*
X111596927Y-100147167D01*
X111767833Y-100318073D01*
X111968798Y-100452353D01*
X112192097Y-100544847D01*
X112429151Y-100592000D01*
X112481481Y-100592000D01*
X112500000Y-100593824D01*
X113788000Y-100593824D01*
X113788000Y-103216176D01*
X112500000Y-103216176D01*
X112481481Y-103218000D01*
X112429151Y-103218000D01*
X112192097Y-103265153D01*
X111968798Y-103357647D01*
X111767833Y-103491927D01*
X111596927Y-103662833D01*
X111462647Y-103863798D01*
X111370153Y-104087097D01*
X111323000Y-104324151D01*
X111323000Y-104565849D01*
X111370153Y-104802903D01*
X111462647Y-105026202D01*
X111596927Y-105227167D01*
X111767833Y-105398073D01*
X111968798Y-105532353D01*
X112192097Y-105624847D01*
X112429151Y-105672000D01*
X112481481Y-105672000D01*
X112500000Y-105673824D01*
X113788000Y-105673824D01*
X113788000Y-105756176D01*
X112500000Y-105756176D01*
X112481481Y-105758000D01*
X112429151Y-105758000D01*
X112192097Y-105805153D01*
X111968798Y-105897647D01*
X111767833Y-106031927D01*
X111596927Y-106202833D01*
X111462647Y-106403798D01*
X111370153Y-106627097D01*
X111323000Y-106864151D01*
X111323000Y-107105849D01*
X111370153Y-107342903D01*
X111462647Y-107566202D01*
X111596927Y-107767167D01*
X111767833Y-107938073D01*
X111968798Y-108072353D01*
X112091070Y-108123000D01*
X110115936Y-108123000D01*
X110341533Y-107972261D01*
X110547261Y-107766533D01*
X110708901Y-107524622D01*
X110820240Y-107255825D01*
X110877000Y-106970472D01*
X110877000Y-106679528D01*
X110820240Y-106394175D01*
X110708901Y-106125378D01*
X110547261Y-105883467D01*
X110341533Y-105677739D01*
X110099622Y-105516099D01*
X109830825Y-105404760D01*
X109545472Y-105348000D01*
X109254528Y-105348000D01*
X108969175Y-105404760D01*
X108700378Y-105516099D01*
X108458467Y-105677739D01*
X108252739Y-105883467D01*
X108091099Y-106125378D01*
X107979760Y-106394175D01*
X107923000Y-106679528D01*
X107923000Y-106970472D01*
X107979760Y-107255825D01*
X108091099Y-107524622D01*
X108252739Y-107766533D01*
X108458467Y-107972261D01*
X108684064Y-108123000D01*
X106496642Y-108123000D01*
X106587903Y-108104847D01*
X106811202Y-108012353D01*
X107012167Y-107878073D01*
X107183073Y-107707167D01*
X107317353Y-107506202D01*
X107409847Y-107282903D01*
X107457000Y-107045849D01*
X107457000Y-106804151D01*
X107409847Y-106567097D01*
X107317353Y-106343798D01*
X107183073Y-106142833D01*
X107012167Y-105971927D01*
X106811202Y-105837647D01*
X106587903Y-105745153D01*
X106350849Y-105698000D01*
X106109151Y-105698000D01*
X105872097Y-105745153D01*
X105648798Y-105837647D01*
X105447833Y-105971927D01*
X105276927Y-106142833D01*
X105142647Y-106343798D01*
X105050153Y-106567097D01*
X105003000Y-106804151D01*
X105003000Y-107045849D01*
X105050153Y-107282903D01*
X105142647Y-107506202D01*
X105276927Y-107707167D01*
X105447833Y-107878073D01*
X105648798Y-108012353D01*
X105872097Y-108104847D01*
X105963358Y-108123000D01*
X102148689Y-108123000D01*
X102210463Y-108089981D01*
X102267869Y-108042869D01*
X102314981Y-107985463D01*
X102349988Y-107919970D01*
X102371545Y-107848905D01*
X102378824Y-107775000D01*
X102378824Y-106075000D01*
X102371545Y-106001095D01*
X102349988Y-105930030D01*
X102314981Y-105864537D01*
X102267869Y-105807131D01*
X102210463Y-105760019D01*
X102144970Y-105725012D01*
X102073905Y-105703455D01*
X102000000Y-105696176D01*
X100300000Y-105696176D01*
X100226095Y-105703455D01*
X100155030Y-105725012D01*
X100089537Y-105760019D01*
X100032131Y-105807131D01*
X99985019Y-105864537D01*
X99950012Y-105930030D01*
X99928455Y-106001095D01*
X99921176Y-106075000D01*
X99921176Y-107775000D01*
X99928455Y-107848905D01*
X99950012Y-107919970D01*
X99985019Y-107985463D01*
X100032131Y-108042869D01*
X100089537Y-108089981D01*
X100151311Y-108123000D01*
X98715936Y-108123000D01*
X98941533Y-107972261D01*
X99147261Y-107766533D01*
X99308901Y-107524622D01*
X99420240Y-107255825D01*
X99477000Y-106970472D01*
X99477000Y-106679528D01*
X99420240Y-106394175D01*
X99308901Y-106125378D01*
X99147261Y-105883467D01*
X98941533Y-105677739D01*
X98699622Y-105516099D01*
X98430825Y-105404760D01*
X98145472Y-105348000D01*
X97854528Y-105348000D01*
X97569175Y-105404760D01*
X97300378Y-105516099D01*
X97058467Y-105677739D01*
X96852739Y-105883467D01*
X96691099Y-106125378D01*
X96579760Y-106394175D01*
X96523000Y-106679528D01*
X96523000Y-106970472D01*
X96579760Y-107255825D01*
X96691099Y-107524622D01*
X96852739Y-107766533D01*
X97058467Y-107972261D01*
X97284064Y-108123000D01*
X95208930Y-108123000D01*
X95331202Y-108072353D01*
X95532167Y-107938073D01*
X95703073Y-107767167D01*
X95837353Y-107566202D01*
X95929847Y-107342903D01*
X95977000Y-107105849D01*
X95977000Y-106864151D01*
X95929847Y-106627097D01*
X95837353Y-106403798D01*
X95703073Y-106202833D01*
X95532167Y-106031927D01*
X95331202Y-105897647D01*
X95107903Y-105805153D01*
X94870849Y-105758000D01*
X94818519Y-105758000D01*
X94800000Y-105756176D01*
X93502000Y-105756176D01*
X93502000Y-105673824D01*
X94800000Y-105673824D01*
X94818519Y-105672000D01*
X94870849Y-105672000D01*
X95107903Y-105624847D01*
X95331202Y-105532353D01*
X95532167Y-105398073D01*
X95703073Y-105227167D01*
X95837353Y-105026202D01*
X95929847Y-104802903D01*
X95977000Y-104565849D01*
X95977000Y-104324151D01*
X95929847Y-104087097D01*
X95837353Y-103863798D01*
X95703073Y-103662833D01*
X95532167Y-103491927D01*
X95331202Y-103357647D01*
X95107903Y-103265153D01*
X94870849Y-103218000D01*
X94818519Y-103218000D01*
X94800000Y-103216176D01*
X93502000Y-103216176D01*
X93502000Y-100593824D01*
X94800000Y-100593824D01*
X94818519Y-100592000D01*
X94870849Y-100592000D01*
X95107903Y-100544847D01*
X95331202Y-100452353D01*
X95532167Y-100318073D01*
X95703073Y-100147167D01*
X95837353Y-99946202D01*
X95929847Y-99722903D01*
X95977000Y-99485849D01*
X95977000Y-99244151D01*
X95929847Y-99007097D01*
X95837353Y-98783798D01*
X95703073Y-98582833D01*
X95532167Y-98411927D01*
X95331202Y-98277647D01*
X95107903Y-98185153D01*
X94870849Y-98138000D01*
X94818519Y-98138000D01*
X94800000Y-98136176D01*
X93502000Y-98136176D01*
X93502000Y-98053824D01*
X94800000Y-98053824D01*
X94818519Y-98052000D01*
X94870849Y-98052000D01*
X95107903Y-98004847D01*
X95331202Y-97912353D01*
X95532167Y-97778073D01*
X95703073Y-97607167D01*
X95837353Y-97406202D01*
X95929847Y-97182903D01*
X95977000Y-96945849D01*
X95977000Y-96704151D01*
X95929847Y-96467097D01*
X95837353Y-96243798D01*
X95703073Y-96042833D01*
X95532167Y-95871927D01*
X95331202Y-95737647D01*
X95107903Y-95645153D01*
X94870849Y-95598000D01*
X94818519Y-95598000D01*
X94800000Y-95596176D01*
X93502000Y-95596176D01*
X93502000Y-95513824D01*
X94800000Y-95513824D01*
X94818519Y-95512000D01*
X94870849Y-95512000D01*
X95107903Y-95464847D01*
X95331202Y-95372353D01*
X95532167Y-95238073D01*
X95703073Y-95067167D01*
X95837353Y-94866202D01*
X95929847Y-94642903D01*
X95977000Y-94405849D01*
X95977000Y-94164151D01*
X95929847Y-93927097D01*
X95837353Y-93703798D01*
X95703073Y-93502833D01*
X95532167Y-93331927D01*
X95331202Y-93197647D01*
X95107903Y-93105153D01*
X94870849Y-93058000D01*
X94818519Y-93058000D01*
X94800000Y-93056176D01*
X93502000Y-93056176D01*
X93502000Y-92973824D01*
X94790000Y-92973824D01*
X94808519Y-92972000D01*
X94870849Y-92972000D01*
X95107903Y-92924847D01*
X95268510Y-92858321D01*
X98023000Y-92858321D01*
X98023000Y-92991679D01*
X98049016Y-93122474D01*
X98100050Y-93245680D01*
X98174140Y-93356563D01*
X98268437Y-93450860D01*
X98379320Y-93524950D01*
X98502526Y-93575984D01*
X98633321Y-93602000D01*
X98766679Y-93602000D01*
X98897474Y-93575984D01*
X99020680Y-93524950D01*
X99131563Y-93450860D01*
X99205423Y-93377000D01*
X102912777Y-93377000D01*
X103023000Y-93487224D01*
X103023000Y-93591679D01*
X103049016Y-93722474D01*
X103100050Y-93845680D01*
X103174140Y-93956563D01*
X103268437Y-94050860D01*
X103379320Y-94124950D01*
X103502526Y-94175984D01*
X103633321Y-94202000D01*
X103766679Y-94202000D01*
X103897474Y-94175984D01*
X104020680Y-94124950D01*
X104131563Y-94050860D01*
X104225860Y-93956563D01*
X104299950Y-93845680D01*
X104350984Y-93722474D01*
X104377000Y-93591679D01*
X104377000Y-93458321D01*
X104350984Y-93327526D01*
X104299950Y-93204320D01*
X104225860Y-93093437D01*
X104131563Y-92999140D01*
X104020680Y-92925050D01*
X103897474Y-92874016D01*
X103766679Y-92848000D01*
X103662224Y-92848000D01*
X103435323Y-92621100D01*
X103421159Y-92603841D01*
X103352333Y-92547357D01*
X103273810Y-92505386D01*
X103188607Y-92479540D01*
X103122205Y-92473000D01*
X103100000Y-92470813D01*
X103077795Y-92473000D01*
X99205423Y-92473000D01*
X99131563Y-92399140D01*
X99020680Y-92325050D01*
X98897474Y-92274016D01*
X98766679Y-92248000D01*
X98633321Y-92248000D01*
X98502526Y-92274016D01*
X98379320Y-92325050D01*
X98268437Y-92399140D01*
X98174140Y-92493437D01*
X98100050Y-92604320D01*
X98049016Y-92727526D01*
X98023000Y-92858321D01*
X95268510Y-92858321D01*
X95331202Y-92832353D01*
X95532167Y-92698073D01*
X95703073Y-92527167D01*
X95837353Y-92326202D01*
X95929847Y-92102903D01*
X95977000Y-91865849D01*
X95977000Y-91624151D01*
X95929847Y-91387097D01*
X95837353Y-91163798D01*
X95703073Y-90962833D01*
X95553838Y-90813598D01*
X103607269Y-90813598D01*
X103607269Y-90946956D01*
X103633285Y-91077751D01*
X103684319Y-91200957D01*
X103758409Y-91311840D01*
X103852706Y-91406137D01*
X103963589Y-91480227D01*
X104086795Y-91531261D01*
X104217590Y-91557277D01*
X104350948Y-91557277D01*
X104481743Y-91531261D01*
X104604949Y-91480227D01*
X104715832Y-91406137D01*
X104810129Y-91311840D01*
X104884219Y-91200957D01*
X104935253Y-91077751D01*
X104961269Y-90946956D01*
X104961269Y-90813598D01*
X104935253Y-90682803D01*
X104884219Y-90559597D01*
X104810129Y-90448714D01*
X104736269Y-90374854D01*
X104736269Y-88674443D01*
X104771563Y-88650860D01*
X104865860Y-88556563D01*
X104939950Y-88445680D01*
X104990984Y-88322474D01*
X105017000Y-88191679D01*
X105017000Y-88058321D01*
X104990984Y-87927526D01*
X104939950Y-87804320D01*
X104865860Y-87693437D01*
X104771563Y-87599140D01*
X104660680Y-87525050D01*
X104537474Y-87474016D01*
X104406679Y-87448000D01*
X104273321Y-87448000D01*
X104142526Y-87474016D01*
X104019320Y-87525050D01*
X103908437Y-87599140D01*
X103814140Y-87693437D01*
X103740050Y-87804320D01*
X103689016Y-87927526D01*
X103663000Y-88058321D01*
X103663000Y-88191679D01*
X103689016Y-88322474D01*
X103740050Y-88445680D01*
X103814140Y-88556563D01*
X103832269Y-88574692D01*
X103832270Y-90374853D01*
X103758409Y-90448714D01*
X103684319Y-90559597D01*
X103633285Y-90682803D01*
X103607269Y-90813598D01*
X95553838Y-90813598D01*
X95532167Y-90791927D01*
X95331202Y-90657647D01*
X95107903Y-90565153D01*
X94870849Y-90518000D01*
X94808519Y-90518000D01*
X94790000Y-90516176D01*
X93502000Y-90516176D01*
X93502000Y-87893824D01*
X94800000Y-87893824D01*
X94818519Y-87892000D01*
X94870849Y-87892000D01*
X95107903Y-87844847D01*
X95331202Y-87752353D01*
X95532167Y-87618073D01*
X95703073Y-87447167D01*
X95837353Y-87246202D01*
X95929847Y-87022903D01*
X95977000Y-86785849D01*
X95977000Y-86544151D01*
X95929847Y-86307097D01*
X95837353Y-86083798D01*
X95703073Y-85882833D01*
X95532167Y-85711927D01*
X95331202Y-85577647D01*
X95107903Y-85485153D01*
X94870849Y-85438000D01*
X94818519Y-85438000D01*
X94800000Y-85436176D01*
X93502000Y-85436176D01*
X93502000Y-85353824D01*
X94800000Y-85353824D01*
X94818519Y-85352000D01*
X94870849Y-85352000D01*
X95107903Y-85304847D01*
X95331202Y-85212353D01*
X95532167Y-85078073D01*
X95703073Y-84907167D01*
X95837353Y-84706202D01*
X95929847Y-84482903D01*
X95977000Y-84245849D01*
X95977000Y-84004151D01*
X95929847Y-83767097D01*
X95837353Y-83543798D01*
X95703073Y-83342833D01*
X95532167Y-83171927D01*
X95331202Y-83037647D01*
X95107903Y-82945153D01*
X94870849Y-82898000D01*
X94818519Y-82898000D01*
X94800000Y-82896176D01*
X93502000Y-82896176D01*
X93502000Y-82813824D01*
X94800000Y-82813824D01*
X94818519Y-82812000D01*
X94870849Y-82812000D01*
X95107903Y-82764847D01*
X95331202Y-82672353D01*
X95532167Y-82538073D01*
X95703073Y-82367167D01*
X95837353Y-82166202D01*
X95929847Y-81942903D01*
X95977000Y-81705849D01*
X95977000Y-81464151D01*
X95929847Y-81227097D01*
X95837353Y-81003798D01*
X95703073Y-80802833D01*
X95532167Y-80631927D01*
X95331202Y-80497647D01*
X95107903Y-80405153D01*
X94870849Y-80358000D01*
X94818519Y-80358000D01*
X94800000Y-80356176D01*
X93502000Y-80356176D01*
X93502000Y-80273824D01*
X94810000Y-80273824D01*
X94828519Y-80272000D01*
X94870849Y-80272000D01*
X95107903Y-80224847D01*
X95331202Y-80132353D01*
X95532167Y-79998073D01*
X95703073Y-79827167D01*
X95747081Y-79761304D01*
X96248000Y-80262225D01*
X96248001Y-84829576D01*
X96174140Y-84903437D01*
X96100050Y-85014320D01*
X96049016Y-85137526D01*
X96023000Y-85268321D01*
X96023000Y-85401679D01*
X96049016Y-85532474D01*
X96100050Y-85655680D01*
X96174140Y-85766563D01*
X96268437Y-85860860D01*
X96379320Y-85934950D01*
X96502526Y-85985984D01*
X96633321Y-86012000D01*
X96766679Y-86012000D01*
X96897474Y-85985984D01*
X97020680Y-85934950D01*
X97131563Y-85860860D01*
X97150857Y-85841566D01*
X97165954Y-85917467D01*
X97216988Y-86040673D01*
X97291078Y-86151556D01*
X97385375Y-86245853D01*
X97496258Y-86319943D01*
X97619464Y-86370977D01*
X97750259Y-86396993D01*
X97883617Y-86396993D01*
X98014412Y-86370977D01*
X98137618Y-86319943D01*
X98248501Y-86245853D01*
X98342798Y-86151556D01*
X98416888Y-86040673D01*
X98458975Y-85939067D01*
X98477605Y-85939067D01*
X98608400Y-85913051D01*
X98731606Y-85862017D01*
X98842489Y-85787927D01*
X98936786Y-85693630D01*
X99010876Y-85582747D01*
X99061910Y-85459541D01*
X99087926Y-85328746D01*
X99087926Y-85195388D01*
X99062978Y-85069960D01*
X99091563Y-85050860D01*
X99185860Y-84956563D01*
X99259950Y-84845680D01*
X99310984Y-84722474D01*
X99337000Y-84591679D01*
X99337000Y-84487223D01*
X99873894Y-83950330D01*
X99891148Y-83936170D01*
X99947632Y-83867344D01*
X99989603Y-83788821D01*
X100002181Y-83747357D01*
X100015449Y-83703619D01*
X100024176Y-83615011D01*
X100021989Y-83592806D01*
X100021989Y-82995657D01*
X100065026Y-83013484D01*
X100195821Y-83039500D01*
X100329179Y-83039500D01*
X100459974Y-83013484D01*
X100583180Y-82962450D01*
X100694063Y-82888360D01*
X100788360Y-82794063D01*
X100862450Y-82683180D01*
X100913484Y-82559974D01*
X100939500Y-82429179D01*
X100939500Y-82295821D01*
X100913484Y-82165026D01*
X100862450Y-82041820D01*
X100788360Y-81930937D01*
X100694063Y-81836640D01*
X100583180Y-81762550D01*
X100459974Y-81711516D01*
X100329179Y-81685500D01*
X100322000Y-81685500D01*
X100322000Y-81088321D01*
X102583000Y-81088321D01*
X102583000Y-81221679D01*
X102609016Y-81352474D01*
X102660050Y-81475680D01*
X102734140Y-81586563D01*
X102808001Y-81660424D01*
X102808000Y-82522795D01*
X102805813Y-82545000D01*
X102814540Y-82633607D01*
X102818137Y-82645463D01*
X102840386Y-82718809D01*
X102882357Y-82797332D01*
X102938841Y-82866159D01*
X102956100Y-82880323D01*
X104329681Y-84253905D01*
X104343841Y-84271159D01*
X104412667Y-84327643D01*
X104456723Y-84351191D01*
X104491190Y-84369614D01*
X104576392Y-84395460D01*
X104664999Y-84404187D01*
X104687204Y-84402000D01*
X104817795Y-84402000D01*
X104840000Y-84404187D01*
X104862205Y-84402000D01*
X105131679Y-84402000D01*
X105262474Y-84375984D01*
X105385680Y-84324950D01*
X105496563Y-84250860D01*
X105590860Y-84156563D01*
X105664950Y-84045680D01*
X105697765Y-83966459D01*
X105778905Y-83885318D01*
X105796159Y-83871159D01*
X105852643Y-83802333D01*
X105894614Y-83723810D01*
X105918190Y-83646090D01*
X105920460Y-83638608D01*
X105929187Y-83550001D01*
X105927000Y-83527796D01*
X105927000Y-81912224D01*
X106037224Y-81802000D01*
X106419577Y-81802000D01*
X106493437Y-81875860D01*
X106604320Y-81949950D01*
X106727526Y-82000984D01*
X106858321Y-82027000D01*
X106991679Y-82027000D01*
X107122474Y-82000984D01*
X107245680Y-81949950D01*
X107356563Y-81875860D01*
X107450860Y-81781563D01*
X107524950Y-81670680D01*
X107575984Y-81547474D01*
X107602000Y-81416679D01*
X107602000Y-81283321D01*
X107575984Y-81152526D01*
X107524950Y-81029320D01*
X107450860Y-80918437D01*
X107356563Y-80824140D01*
X107245680Y-80750050D01*
X107122474Y-80699016D01*
X106991679Y-80673000D01*
X106858321Y-80673000D01*
X106727526Y-80699016D01*
X106604320Y-80750050D01*
X106493437Y-80824140D01*
X106419577Y-80898000D01*
X105872204Y-80898000D01*
X105849999Y-80895813D01*
X105761392Y-80904540D01*
X105676190Y-80930386D01*
X105597667Y-80972357D01*
X105528841Y-81028841D01*
X105514685Y-81046090D01*
X105171095Y-81389682D01*
X105153842Y-81403841D01*
X105121207Y-81443607D01*
X105097358Y-81472667D01*
X105055386Y-81551191D01*
X105029540Y-81636393D01*
X105020813Y-81725000D01*
X105023001Y-81747215D01*
X105023000Y-83048000D01*
X104998321Y-83048000D01*
X104867526Y-83074016D01*
X104744320Y-83125050D01*
X104633437Y-83199140D01*
X104593400Y-83239177D01*
X103712000Y-82357777D01*
X103712000Y-81660423D01*
X103785860Y-81586563D01*
X103859950Y-81475680D01*
X103910984Y-81352474D01*
X103937000Y-81221679D01*
X103937000Y-81088321D01*
X103910984Y-80957526D01*
X103859950Y-80834320D01*
X103785860Y-80723437D01*
X103691563Y-80629140D01*
X103580680Y-80555050D01*
X103457474Y-80504016D01*
X103326679Y-80478000D01*
X103193321Y-80478000D01*
X103062526Y-80504016D01*
X102939320Y-80555050D01*
X102828437Y-80629140D01*
X102734140Y-80723437D01*
X102660050Y-80834320D01*
X102609016Y-80957526D01*
X102583000Y-81088321D01*
X100322000Y-81088321D01*
X100322000Y-75169776D01*
X100358321Y-75177000D01*
X100491679Y-75177000D01*
X100622474Y-75150984D01*
X100745680Y-75099950D01*
X100856563Y-75025860D01*
X100930423Y-74952000D01*
X105064575Y-74952000D01*
X105138437Y-75025862D01*
X105249320Y-75099952D01*
X105372526Y-75150986D01*
X105503321Y-75177002D01*
X105636679Y-75177002D01*
X105767474Y-75150986D01*
X105890680Y-75099952D01*
X106001563Y-75025862D01*
X106095860Y-74931565D01*
X106169950Y-74820682D01*
X106220984Y-74697476D01*
X106247000Y-74566681D01*
X106247000Y-74433323D01*
X106220984Y-74302528D01*
X106169950Y-74179322D01*
X106095860Y-74068439D01*
X106001563Y-73974142D01*
X105890680Y-73900052D01*
X105767474Y-73849018D01*
X105636679Y-73823002D01*
X105503321Y-73823002D01*
X105372526Y-73849018D01*
X105249320Y-73900052D01*
X105138437Y-73974142D01*
X105064579Y-74048000D01*
X100930423Y-74048000D01*
X100856563Y-73974140D01*
X100745680Y-73900050D01*
X100622474Y-73849016D01*
X100491679Y-73823000D01*
X100358321Y-73823000D01*
X100322000Y-73830224D01*
X100322000Y-71472578D01*
X100329950Y-71460680D01*
X100380984Y-71337474D01*
X100407000Y-71206679D01*
X100407000Y-71073321D01*
X100380984Y-70942526D01*
X100329950Y-70819320D01*
X100255860Y-70708437D01*
X100161563Y-70614140D01*
X100050680Y-70540050D01*
X99927474Y-70489016D01*
X99796679Y-70463000D01*
X99663321Y-70463000D01*
X99532526Y-70489016D01*
X99409320Y-70540050D01*
X99298437Y-70614140D01*
X99204140Y-70708437D01*
X99130050Y-70819320D01*
X99079016Y-70942526D01*
X99053000Y-71073321D01*
X99053000Y-71206679D01*
X99079016Y-71337474D01*
X99130050Y-71460680D01*
X99204140Y-71571563D01*
X99298437Y-71665860D01*
X99409320Y-71739950D01*
X99418001Y-71743546D01*
X99418001Y-72913777D01*
X95876329Y-69372106D01*
X95929847Y-69242903D01*
X95977000Y-69005849D01*
X95977000Y-68764151D01*
X95929847Y-68527097D01*
X95837353Y-68303798D01*
X95703073Y-68102833D01*
X95532167Y-67931927D01*
X95331202Y-67797647D01*
X95107903Y-67705153D01*
X94870849Y-67658000D01*
X94818519Y-67658000D01*
X94800000Y-67656176D01*
X93502000Y-67656176D01*
X93502000Y-67563824D01*
X94588047Y-67563824D01*
X94629151Y-67572000D01*
X94870849Y-67572000D01*
X95107903Y-67524847D01*
X95331202Y-67432353D01*
X95532167Y-67298073D01*
X95703073Y-67127167D01*
X95837353Y-66926202D01*
X95929847Y-66702903D01*
X95977000Y-66465849D01*
X95977000Y-66224151D01*
X95929847Y-65987097D01*
X95837353Y-65763798D01*
X95703073Y-65562833D01*
X95532167Y-65391927D01*
X95331202Y-65257647D01*
X95107903Y-65165153D01*
X94923248Y-65128423D01*
X94873905Y-65113455D01*
X94800000Y-65106176D01*
X93502000Y-65106176D01*
X93502000Y-63105859D01*
X100008000Y-63105859D01*
X100008000Y-63244141D01*
X100034977Y-63379766D01*
X100087895Y-63507522D01*
X100164721Y-63622499D01*
X100262501Y-63720279D01*
X100377478Y-63797105D01*
X100505234Y-63850023D01*
X100640859Y-63877000D01*
X100779141Y-63877000D01*
X100914766Y-63850023D01*
X101042522Y-63797105D01*
X101157499Y-63720279D01*
X101255279Y-63622499D01*
X101332105Y-63507522D01*
X101385023Y-63379766D01*
X101412000Y-63244141D01*
X101412000Y-63105859D01*
X101385023Y-62970234D01*
X101332105Y-62842478D01*
X101255279Y-62727501D01*
X101157499Y-62629721D01*
X101042522Y-62552895D01*
X100914766Y-62499977D01*
X100779141Y-62473000D01*
X100640859Y-62473000D01*
X100505234Y-62499977D01*
X100377478Y-62552895D01*
X100262501Y-62629721D01*
X100164721Y-62727501D01*
X100087895Y-62842478D01*
X100034977Y-62970234D01*
X100008000Y-63105859D01*
X93502000Y-63105859D01*
X93502000Y-62483824D01*
X94588047Y-62483824D01*
X94629151Y-62492000D01*
X94870849Y-62492000D01*
X95107903Y-62444847D01*
X95331202Y-62352353D01*
X95532167Y-62218073D01*
X95703073Y-62047167D01*
X95837353Y-61846202D01*
X95929847Y-61622903D01*
X95977000Y-61385849D01*
X95977000Y-61144151D01*
X95929847Y-60907097D01*
X95837353Y-60683798D01*
X95703073Y-60482833D01*
X95532167Y-60311927D01*
X95331202Y-60177647D01*
X95107903Y-60085153D01*
X94923248Y-60048423D01*
X94873905Y-60033455D01*
X94800000Y-60026176D01*
X93502000Y-60026176D01*
X93502000Y-59953824D01*
X94800000Y-59953824D01*
X94818519Y-59952000D01*
X94870849Y-59952000D01*
X95107903Y-59904847D01*
X95331202Y-59812353D01*
X95532167Y-59678073D01*
X95703073Y-59507167D01*
X95837353Y-59306202D01*
X95893113Y-59171587D01*
X95929760Y-59355825D01*
X96041099Y-59624622D01*
X96202739Y-59866533D01*
X96408467Y-60072261D01*
X96650378Y-60233901D01*
X96919175Y-60345240D01*
X97204528Y-60402000D01*
X97495472Y-60402000D01*
X97780825Y-60345240D01*
X98049622Y-60233901D01*
X98291533Y-60072261D01*
X98497261Y-59866533D01*
X98658901Y-59624622D01*
X98770240Y-59355825D01*
X98827000Y-59070472D01*
X98827000Y-58779528D01*
X98770240Y-58494175D01*
X98658901Y-58225378D01*
X98497261Y-57983467D01*
X98291533Y-57777739D01*
X98065936Y-57627000D01*
X109384064Y-57627000D01*
X109158467Y-57777739D01*
G04 #@! TA.AperFunction,Conductor*
D19*
G36*
X109158467Y-57777739D02*
G01*
X108952739Y-57983467D01*
X108791099Y-58225378D01*
X108679760Y-58494175D01*
X108623000Y-58779528D01*
X108623000Y-59070472D01*
X108679760Y-59355825D01*
X108791099Y-59624622D01*
X108952739Y-59866533D01*
X109158467Y-60072261D01*
X109400378Y-60233901D01*
X109669175Y-60345240D01*
X109954528Y-60402000D01*
X110245472Y-60402000D01*
X110530825Y-60345240D01*
X110799622Y-60233901D01*
X111041533Y-60072261D01*
X111247261Y-59866533D01*
X111348507Y-59715008D01*
X111350012Y-59719970D01*
X111385019Y-59785463D01*
X111432131Y-59842869D01*
X111489537Y-59889981D01*
X111555030Y-59924988D01*
X111626095Y-59946545D01*
X111700000Y-59953824D01*
X113788001Y-59953824D01*
X113788001Y-60036176D01*
X112500000Y-60036176D01*
X112481481Y-60038000D01*
X112429151Y-60038000D01*
X112192097Y-60085153D01*
X111968798Y-60177647D01*
X111767833Y-60311927D01*
X111596927Y-60482833D01*
X111462647Y-60683798D01*
X111370153Y-60907097D01*
X111323000Y-61144151D01*
X111323000Y-61385849D01*
X111370153Y-61622903D01*
X111462647Y-61846202D01*
X111596927Y-62047167D01*
X111767833Y-62218073D01*
X111968798Y-62352353D01*
X112192097Y-62444847D01*
X112429151Y-62492000D01*
X112481481Y-62492000D01*
X112500000Y-62493824D01*
X113788001Y-62493824D01*
X113788001Y-65116176D01*
X112500000Y-65116176D01*
X112481481Y-65118000D01*
X112429151Y-65118000D01*
X112192097Y-65165153D01*
X111968798Y-65257647D01*
X111767833Y-65391927D01*
X111596927Y-65562833D01*
X111462647Y-65763798D01*
X111409129Y-65893000D01*
X110042150Y-65893000D01*
X110019945Y-65890813D01*
X109931338Y-65899540D01*
X109911508Y-65905556D01*
X109846136Y-65925386D01*
X109767613Y-65967357D01*
X109698787Y-66023841D01*
X109684632Y-66041089D01*
X107827723Y-67898000D01*
X107723267Y-67898000D01*
X107592472Y-67924016D01*
X107469266Y-67975050D01*
X107358383Y-68049140D01*
X107264086Y-68143437D01*
X107189996Y-68254320D01*
X107138962Y-68377526D01*
X107112946Y-68508321D01*
X107112946Y-68641679D01*
X107138962Y-68772474D01*
X107189996Y-68895680D01*
X107264086Y-69006563D01*
X107358383Y-69100860D01*
X107469266Y-69174950D01*
X107541080Y-69204696D01*
X106682777Y-70063000D01*
X106642106Y-70063000D01*
X106553312Y-70003669D01*
X106448305Y-69960174D01*
X106336830Y-69938000D01*
X106223170Y-69938000D01*
X106172000Y-69948178D01*
X106172000Y-69387205D01*
X106174187Y-69365000D01*
X106165460Y-69276392D01*
X106139614Y-69191190D01*
X106135655Y-69183784D01*
X106097643Y-69112667D01*
X106041159Y-69043841D01*
X106023905Y-69029681D01*
X104840313Y-67846090D01*
X104826149Y-67828831D01*
X104757323Y-67772347D01*
X104678800Y-67730376D01*
X104593597Y-67704530D01*
X104527195Y-67697990D01*
X104504990Y-67695803D01*
X104482785Y-67697990D01*
X102735211Y-67697990D01*
X101880821Y-66843601D01*
X101973321Y-66862000D01*
X102106679Y-66862000D01*
X102237474Y-66835984D01*
X102360680Y-66784950D01*
X102471563Y-66710860D01*
X102565860Y-66616563D01*
X102639950Y-66505680D01*
X102690984Y-66382474D01*
X102717000Y-66251679D01*
X102717000Y-66118321D01*
X102690984Y-65987526D01*
X102639950Y-65864320D01*
X102565860Y-65753437D01*
X102492000Y-65679577D01*
X102492000Y-65104744D01*
X102576688Y-65161331D01*
X102681695Y-65204826D01*
X102793170Y-65227000D01*
X102906830Y-65227000D01*
X102946542Y-65219101D01*
X102975552Y-65254450D01*
X102995666Y-65270957D01*
X103229044Y-65504335D01*
X103245551Y-65524449D01*
X103325797Y-65590305D01*
X103417349Y-65639240D01*
X103516689Y-65669375D01*
X103594118Y-65677001D01*
X103594120Y-65677001D01*
X103619998Y-65679550D01*
X103645876Y-65677001D01*
X104116960Y-65677001D01*
X104142841Y-65679550D01*
X104168722Y-65677001D01*
X104246151Y-65669375D01*
X104345491Y-65639240D01*
X104437043Y-65590305D01*
X104517289Y-65524449D01*
X104533796Y-65504335D01*
X104714334Y-65323797D01*
X104734448Y-65307290D01*
X104800304Y-65227044D01*
X104836597Y-65159143D01*
X104849239Y-65135492D01*
X104879374Y-65036152D01*
X104889549Y-64932843D01*
X104887000Y-64906962D01*
X104887000Y-64885483D01*
X104914826Y-64818305D01*
X104937000Y-64706830D01*
X104937000Y-64593170D01*
X104914826Y-64481695D01*
X104871331Y-64376688D01*
X104808185Y-64282184D01*
X104727816Y-64201815D01*
X104633312Y-64138669D01*
X104528305Y-64095174D01*
X104416830Y-64073000D01*
X104303170Y-64073000D01*
X104270512Y-64079496D01*
X104234448Y-64035552D01*
X104214334Y-64019045D01*
X103990954Y-63795665D01*
X103974447Y-63775551D01*
X103894201Y-63709695D01*
X103802649Y-63660760D01*
X103703309Y-63630625D01*
X103625880Y-63622999D01*
X103599999Y-63620450D01*
X103574118Y-63622999D01*
X103093039Y-63622999D01*
X103067158Y-63620450D01*
X102963849Y-63630625D01*
X102864509Y-63660760D01*
X102772957Y-63709695D01*
X102692711Y-63775551D01*
X102676204Y-63795665D01*
X102495662Y-63976207D01*
X102492000Y-63979212D01*
X102492000Y-63247223D01*
X103362225Y-62377000D01*
X103712777Y-62377000D01*
X103873000Y-62537223D01*
X103873000Y-62641679D01*
X103899016Y-62772474D01*
X103950050Y-62895680D01*
X104024140Y-63006563D01*
X104118437Y-63100860D01*
X104229320Y-63174950D01*
X104352526Y-63225984D01*
X104483321Y-63252000D01*
X104616679Y-63252000D01*
X104747474Y-63225984D01*
X104870680Y-63174950D01*
X104974081Y-63105859D01*
X105788000Y-63105859D01*
X105788000Y-63244141D01*
X105814977Y-63379766D01*
X105867895Y-63507522D01*
X105944721Y-63622499D01*
X106042501Y-63720279D01*
X106157478Y-63797105D01*
X106285234Y-63850023D01*
X106420859Y-63877000D01*
X106559141Y-63877000D01*
X106694766Y-63850023D01*
X106822522Y-63797105D01*
X106937499Y-63720279D01*
X107035279Y-63622499D01*
X107112105Y-63507522D01*
X107165023Y-63379766D01*
X107192000Y-63244141D01*
X107192000Y-63105859D01*
X107165023Y-62970234D01*
X107112105Y-62842478D01*
X107035279Y-62727501D01*
X106937499Y-62629721D01*
X106822522Y-62552895D01*
X106694766Y-62499977D01*
X106559141Y-62473000D01*
X106420859Y-62473000D01*
X106285234Y-62499977D01*
X106157478Y-62552895D01*
X106042501Y-62629721D01*
X105944721Y-62727501D01*
X105867895Y-62842478D01*
X105814977Y-62970234D01*
X105788000Y-63105859D01*
X104974081Y-63105859D01*
X104981563Y-63100860D01*
X105075860Y-63006563D01*
X105149950Y-62895680D01*
X105200984Y-62772474D01*
X105227000Y-62641679D01*
X105227000Y-62508321D01*
X105200984Y-62377526D01*
X105149950Y-62254320D01*
X105075860Y-62143437D01*
X104981563Y-62049140D01*
X104870680Y-61975050D01*
X104747474Y-61924016D01*
X104616679Y-61898000D01*
X104512223Y-61898000D01*
X104235323Y-61621100D01*
X104221159Y-61603841D01*
X104152333Y-61547357D01*
X104073810Y-61505386D01*
X103988607Y-61479540D01*
X103922205Y-61473000D01*
X103900000Y-61470813D01*
X103877795Y-61473000D01*
X103197204Y-61473000D01*
X103174999Y-61470813D01*
X103086392Y-61479540D01*
X103066562Y-61485556D01*
X103001190Y-61505386D01*
X102922667Y-61547357D01*
X102853841Y-61603841D01*
X102839685Y-61621090D01*
X101736100Y-62724677D01*
X101718841Y-62738841D01*
X101662358Y-62807667D01*
X101620386Y-62886191D01*
X101594540Y-62971393D01*
X101585813Y-63060000D01*
X101588000Y-63082205D01*
X101588001Y-65679576D01*
X101514140Y-65753437D01*
X101440050Y-65864320D01*
X101389016Y-65987526D01*
X101363000Y-66118321D01*
X101363000Y-66251679D01*
X101389016Y-66382474D01*
X101393295Y-66392805D01*
X101373810Y-66382390D01*
X101288607Y-66356544D01*
X101222205Y-66350004D01*
X101200000Y-66347817D01*
X101177795Y-66350004D01*
X100239228Y-66350004D01*
X98577000Y-64687777D01*
X98577000Y-64583321D01*
X98550984Y-64452526D01*
X98499950Y-64329320D01*
X98425860Y-64218437D01*
X98331563Y-64124140D01*
X98220680Y-64050050D01*
X98097474Y-63999016D01*
X97966679Y-63973000D01*
X97833321Y-63973000D01*
X97702526Y-63999016D01*
X97579320Y-64050050D01*
X97468437Y-64124140D01*
X97374140Y-64218437D01*
X97300050Y-64329320D01*
X97249016Y-64452526D01*
X97223000Y-64583321D01*
X97223000Y-64716679D01*
X97249016Y-64847474D01*
X97300050Y-64970680D01*
X97374140Y-65081563D01*
X97468437Y-65175860D01*
X97579320Y-65249950D01*
X97702526Y-65300984D01*
X97833321Y-65327000D01*
X97937777Y-65327000D01*
X99716685Y-67105909D01*
X99730845Y-67123163D01*
X99799671Y-67179647D01*
X99878194Y-67221618D01*
X99963396Y-67247464D01*
X100052004Y-67256191D01*
X100074209Y-67254004D01*
X101012777Y-67254004D01*
X102212671Y-68453900D01*
X102226827Y-68471149D01*
X102295653Y-68527633D01*
X102336914Y-68549687D01*
X102374176Y-68569604D01*
X102459378Y-68595450D01*
X102547985Y-68604177D01*
X102570190Y-68601990D01*
X104317767Y-68601990D01*
X105268001Y-69552225D01*
X105268000Y-71082795D01*
X105265813Y-71105000D01*
X105274540Y-71193607D01*
X105285157Y-71228607D01*
X105300386Y-71278809D01*
X105342357Y-71357332D01*
X105398841Y-71426159D01*
X105416100Y-71440323D01*
X106833465Y-72857690D01*
X106834540Y-72868607D01*
X106860386Y-72953809D01*
X106902357Y-73032332D01*
X106958841Y-73101159D01*
X106976100Y-73115323D01*
X109998001Y-76137225D01*
X109998000Y-82977775D01*
X109396095Y-83579681D01*
X109378842Y-83593841D01*
X109325925Y-83658321D01*
X109322358Y-83662667D01*
X109280386Y-83741191D01*
X109254540Y-83826393D01*
X109245813Y-83915000D01*
X109248001Y-83937215D01*
X109248000Y-84879386D01*
X109218437Y-84899140D01*
X109124140Y-84993437D01*
X109050050Y-85104320D01*
X108999016Y-85227526D01*
X108973000Y-85358321D01*
X108973000Y-85491679D01*
X108999016Y-85622474D01*
X109050050Y-85745680D01*
X109124140Y-85856563D01*
X109218437Y-85950860D01*
X109329320Y-86024950D01*
X109452526Y-86075984D01*
X109583321Y-86102000D01*
X109716679Y-86102000D01*
X109847474Y-86075984D01*
X109970680Y-86024950D01*
X110081563Y-85950860D01*
X110175860Y-85856563D01*
X110249950Y-85745680D01*
X110300984Y-85622474D01*
X110327000Y-85491679D01*
X110327000Y-85358321D01*
X110300984Y-85227526D01*
X110249950Y-85104320D01*
X110175860Y-84993437D01*
X110152000Y-84969577D01*
X110152000Y-84102223D01*
X110753911Y-83500314D01*
X110771159Y-83486159D01*
X110827643Y-83417333D01*
X110869614Y-83338810D01*
X110883378Y-83293437D01*
X110895460Y-83253608D01*
X110904187Y-83165001D01*
X110902000Y-83142796D01*
X110902000Y-75972205D01*
X110904187Y-75950000D01*
X110895460Y-75861392D01*
X110869614Y-75776190D01*
X110837489Y-75716088D01*
X110827643Y-75697667D01*
X110771159Y-75628841D01*
X110753905Y-75614681D01*
X107731998Y-72592775D01*
X107725460Y-72526393D01*
X107699614Y-72441190D01*
X107657643Y-72362667D01*
X107601159Y-72293841D01*
X107532333Y-72237357D01*
X107453810Y-72195386D01*
X107447782Y-72193558D01*
X106344665Y-71090442D01*
X106448305Y-71069826D01*
X106553312Y-71026331D01*
X106642106Y-70967000D01*
X106847795Y-70967000D01*
X106870000Y-70969187D01*
X106892205Y-70967000D01*
X106958607Y-70960460D01*
X107043810Y-70934614D01*
X107122333Y-70892643D01*
X107191159Y-70836159D01*
X107205323Y-70818900D01*
X108695255Y-69328970D01*
X108659244Y-69447681D01*
X108650725Y-69534177D01*
X108644242Y-69599999D01*
X108648001Y-69638163D01*
X108648002Y-72311828D01*
X108644242Y-72350001D01*
X108654963Y-72458842D01*
X108659245Y-72502320D01*
X108672722Y-72546749D01*
X108703674Y-72648784D01*
X108775824Y-72783767D01*
X108848592Y-72872435D01*
X108872922Y-72902081D01*
X108902566Y-72926409D01*
X109877565Y-73901409D01*
X109966233Y-73974177D01*
X110101217Y-74046327D01*
X110247681Y-74090756D01*
X110400000Y-74105759D01*
X110552318Y-74090756D01*
X110698783Y-74046327D01*
X110833766Y-73974177D01*
X110952080Y-73877080D01*
X111049177Y-73758766D01*
X111121327Y-73623783D01*
X111165756Y-73477318D01*
X111180759Y-73325000D01*
X111165756Y-73172681D01*
X111121327Y-73026217D01*
X111049177Y-72891233D01*
X110976409Y-72802565D01*
X110202001Y-72028158D01*
X110202001Y-69921842D01*
X110461844Y-69662000D01*
X111593475Y-69662000D01*
X111596927Y-69667167D01*
X111767833Y-69838073D01*
X111968798Y-69972353D01*
X112192097Y-70064847D01*
X112429151Y-70112000D01*
X112481481Y-70112000D01*
X112500000Y-70113824D01*
X113788001Y-70113824D01*
X113788001Y-70196176D01*
X112500000Y-70196176D01*
X112481481Y-70198000D01*
X112429151Y-70198000D01*
X112192097Y-70245153D01*
X111968798Y-70337647D01*
X111767833Y-70471927D01*
X111596927Y-70642833D01*
X111462647Y-70843798D01*
X111370153Y-71067097D01*
X111323000Y-71304151D01*
X111323000Y-71545849D01*
X111370153Y-71782903D01*
X111462647Y-72006202D01*
X111596927Y-72207167D01*
X111767833Y-72378073D01*
X111968798Y-72512353D01*
X112192097Y-72604847D01*
X112429151Y-72652000D01*
X112481481Y-72652000D01*
X112500000Y-72653824D01*
X113788001Y-72653824D01*
X113788001Y-72736176D01*
X112500000Y-72736176D01*
X112481481Y-72738000D01*
X112429151Y-72738000D01*
X112192097Y-72785153D01*
X111968798Y-72877647D01*
X111767833Y-73011927D01*
X111596927Y-73182833D01*
X111462647Y-73383798D01*
X111370153Y-73607097D01*
X111323000Y-73844151D01*
X111323000Y-74085849D01*
X111370153Y-74322903D01*
X111462647Y-74546202D01*
X111596927Y-74747167D01*
X111767833Y-74918073D01*
X111968798Y-75052353D01*
X112192097Y-75144847D01*
X112429151Y-75192000D01*
X112481481Y-75192000D01*
X112500000Y-75193824D01*
X113788001Y-75193824D01*
X113788001Y-77816176D01*
X112500000Y-77816176D01*
X112481481Y-77818000D01*
X112429151Y-77818000D01*
X112192097Y-77865153D01*
X111968798Y-77957647D01*
X111767833Y-78091927D01*
X111596927Y-78262833D01*
X111462647Y-78463798D01*
X111370153Y-78687097D01*
X111323000Y-78924151D01*
X111323000Y-79165849D01*
X111370153Y-79402903D01*
X111462647Y-79626202D01*
X111596927Y-79827167D01*
X111767833Y-79998073D01*
X111968798Y-80132353D01*
X112192097Y-80224847D01*
X112429151Y-80272000D01*
X112481481Y-80272000D01*
X112500000Y-80273824D01*
X113788001Y-80273824D01*
X113788001Y-80356176D01*
X112500000Y-80356176D01*
X112481481Y-80358000D01*
X112429151Y-80358000D01*
X112192097Y-80405153D01*
X111968798Y-80497647D01*
X111767833Y-80631927D01*
X111596927Y-80802833D01*
X111462647Y-81003798D01*
X111370153Y-81227097D01*
X111323000Y-81464151D01*
X111323000Y-81705849D01*
X111370153Y-81942903D01*
X111462647Y-82166202D01*
X111596927Y-82367167D01*
X111767833Y-82538073D01*
X111968798Y-82672353D01*
X112192097Y-82764847D01*
X112429151Y-82812000D01*
X112481481Y-82812000D01*
X112500000Y-82813824D01*
X113788001Y-82813824D01*
X113788000Y-82896176D01*
X112500000Y-82896176D01*
X112481481Y-82898000D01*
X112429151Y-82898000D01*
X112192097Y-82945153D01*
X111968798Y-83037647D01*
X111767833Y-83171927D01*
X111596927Y-83342833D01*
X111462647Y-83543798D01*
X111370153Y-83767097D01*
X111333274Y-83952503D01*
X110496096Y-84789681D01*
X110478842Y-84803841D01*
X110432497Y-84860313D01*
X110422358Y-84872667D01*
X110380386Y-84951191D01*
X110354540Y-85036393D01*
X110345813Y-85125000D01*
X110348001Y-85147215D01*
X110348000Y-88837775D01*
X107637777Y-91548000D01*
X107533321Y-91548000D01*
X107402526Y-91574016D01*
X107279320Y-91625050D01*
X107168437Y-91699140D01*
X107074140Y-91793437D01*
X107000050Y-91904320D01*
X106949016Y-92027526D01*
X106923000Y-92158321D01*
X106923000Y-92291679D01*
X106949016Y-92422474D01*
X107000050Y-92545680D01*
X107074140Y-92656563D01*
X107168437Y-92750860D01*
X107279320Y-92824950D01*
X107402526Y-92875984D01*
X107533321Y-92902000D01*
X107666679Y-92902000D01*
X107797474Y-92875984D01*
X107920680Y-92824950D01*
X108031563Y-92750860D01*
X108125860Y-92656563D01*
X108199950Y-92545680D01*
X108250984Y-92422474D01*
X108277000Y-92291679D01*
X108277000Y-92187223D01*
X111103912Y-89360313D01*
X111121159Y-89346159D01*
X111177643Y-89277333D01*
X111219614Y-89198810D01*
X111245460Y-89113607D01*
X111252000Y-89047205D01*
X111252000Y-89047204D01*
X111254187Y-89025001D01*
X111252000Y-89002796D01*
X111252000Y-85312223D01*
X111626992Y-84937232D01*
X111767833Y-85078073D01*
X111968798Y-85212353D01*
X112192097Y-85304847D01*
X112429151Y-85352000D01*
X112481481Y-85352000D01*
X112500000Y-85353824D01*
X113788000Y-85353824D01*
X113788000Y-85436176D01*
X112500000Y-85436176D01*
X112481481Y-85438000D01*
X112429151Y-85438000D01*
X112192097Y-85485153D01*
X111968798Y-85577647D01*
X111767833Y-85711927D01*
X111596927Y-85882833D01*
X111462647Y-86083798D01*
X111370153Y-86307097D01*
X111323000Y-86544151D01*
X111323000Y-86785849D01*
X111370153Y-87022903D01*
X111462647Y-87246202D01*
X111596927Y-87447167D01*
X111767833Y-87618073D01*
X111968798Y-87752353D01*
X112192097Y-87844847D01*
X112429151Y-87892000D01*
X112481481Y-87892000D01*
X112500000Y-87893824D01*
X113788000Y-87893824D01*
X113788000Y-90516176D01*
X112500000Y-90516176D01*
X112481481Y-90518000D01*
X112429151Y-90518000D01*
X112192097Y-90565153D01*
X111968798Y-90657647D01*
X111767833Y-90791927D01*
X111596927Y-90962833D01*
X111462647Y-91163798D01*
X111370153Y-91387097D01*
X111323000Y-91624151D01*
X111323000Y-91865849D01*
X111370153Y-92102903D01*
X111462647Y-92326202D01*
X111596927Y-92527167D01*
X111767833Y-92698073D01*
X111968798Y-92832353D01*
X112192097Y-92924847D01*
X112429151Y-92972000D01*
X112481481Y-92972000D01*
X112500000Y-92973824D01*
X113788000Y-92973824D01*
X113788000Y-93056176D01*
X112500000Y-93056176D01*
X112481481Y-93058000D01*
X112429151Y-93058000D01*
X112192097Y-93105153D01*
X111968798Y-93197647D01*
X111767833Y-93331927D01*
X111596927Y-93502833D01*
X111462647Y-93703798D01*
X111370153Y-93927097D01*
X111323000Y-94164151D01*
X111323000Y-94405849D01*
X111370153Y-94642903D01*
X111462647Y-94866202D01*
X111596927Y-95067167D01*
X111767833Y-95238073D01*
X111968798Y-95372353D01*
X112192097Y-95464847D01*
X112429151Y-95512000D01*
X112481481Y-95512000D01*
X112500000Y-95513824D01*
X113788000Y-95513824D01*
X113788000Y-95596176D01*
X112500000Y-95596176D01*
X112481481Y-95598000D01*
X112429151Y-95598000D01*
X112192097Y-95645153D01*
X111968798Y-95737647D01*
X111767833Y-95871927D01*
X111596927Y-96042833D01*
X111462647Y-96243798D01*
X111370153Y-96467097D01*
X111323000Y-96704151D01*
X111323000Y-96945849D01*
X111370153Y-97182903D01*
X111462647Y-97406202D01*
X111596927Y-97607167D01*
X111767833Y-97778073D01*
X111968798Y-97912353D01*
X112192097Y-98004847D01*
X112429151Y-98052000D01*
X112481481Y-98052000D01*
X112500000Y-98053824D01*
X113788000Y-98053824D01*
X113788000Y-98136176D01*
X112500000Y-98136176D01*
X112481481Y-98138000D01*
X112429151Y-98138000D01*
X112192097Y-98185153D01*
X111968798Y-98277647D01*
X111767833Y-98411927D01*
X111596927Y-98582833D01*
X111462647Y-98783798D01*
X111370153Y-99007097D01*
X111323000Y-99244151D01*
X111323000Y-99485849D01*
X111370153Y-99722903D01*
X111462647Y-99946202D01*
X111596927Y-100147167D01*
X111767833Y-100318073D01*
X111968798Y-100452353D01*
X112192097Y-100544847D01*
X112429151Y-100592000D01*
X112481481Y-100592000D01*
X112500000Y-100593824D01*
X113788000Y-100593824D01*
X113788000Y-103216176D01*
X112500000Y-103216176D01*
X112481481Y-103218000D01*
X112429151Y-103218000D01*
X112192097Y-103265153D01*
X111968798Y-103357647D01*
X111767833Y-103491927D01*
X111596927Y-103662833D01*
X111462647Y-103863798D01*
X111370153Y-104087097D01*
X111323000Y-104324151D01*
X111323000Y-104565849D01*
X111370153Y-104802903D01*
X111462647Y-105026202D01*
X111596927Y-105227167D01*
X111767833Y-105398073D01*
X111968798Y-105532353D01*
X112192097Y-105624847D01*
X112429151Y-105672000D01*
X112481481Y-105672000D01*
X112500000Y-105673824D01*
X113788000Y-105673824D01*
X113788000Y-105756176D01*
X112500000Y-105756176D01*
X112481481Y-105758000D01*
X112429151Y-105758000D01*
X112192097Y-105805153D01*
X111968798Y-105897647D01*
X111767833Y-106031927D01*
X111596927Y-106202833D01*
X111462647Y-106403798D01*
X111370153Y-106627097D01*
X111323000Y-106864151D01*
X111323000Y-107105849D01*
X111370153Y-107342903D01*
X111462647Y-107566202D01*
X111596927Y-107767167D01*
X111767833Y-107938073D01*
X111968798Y-108072353D01*
X112091070Y-108123000D01*
X110115936Y-108123000D01*
X110341533Y-107972261D01*
X110547261Y-107766533D01*
X110708901Y-107524622D01*
X110820240Y-107255825D01*
X110877000Y-106970472D01*
X110877000Y-106679528D01*
X110820240Y-106394175D01*
X110708901Y-106125378D01*
X110547261Y-105883467D01*
X110341533Y-105677739D01*
X110099622Y-105516099D01*
X109830825Y-105404760D01*
X109545472Y-105348000D01*
X109254528Y-105348000D01*
X108969175Y-105404760D01*
X108700378Y-105516099D01*
X108458467Y-105677739D01*
X108252739Y-105883467D01*
X108091099Y-106125378D01*
X107979760Y-106394175D01*
X107923000Y-106679528D01*
X107923000Y-106970472D01*
X107979760Y-107255825D01*
X108091099Y-107524622D01*
X108252739Y-107766533D01*
X108458467Y-107972261D01*
X108684064Y-108123000D01*
X106496642Y-108123000D01*
X106587903Y-108104847D01*
X106811202Y-108012353D01*
X107012167Y-107878073D01*
X107183073Y-107707167D01*
X107317353Y-107506202D01*
X107409847Y-107282903D01*
X107457000Y-107045849D01*
X107457000Y-106804151D01*
X107409847Y-106567097D01*
X107317353Y-106343798D01*
X107183073Y-106142833D01*
X107012167Y-105971927D01*
X106811202Y-105837647D01*
X106587903Y-105745153D01*
X106350849Y-105698000D01*
X106109151Y-105698000D01*
X105872097Y-105745153D01*
X105648798Y-105837647D01*
X105447833Y-105971927D01*
X105276927Y-106142833D01*
X105142647Y-106343798D01*
X105050153Y-106567097D01*
X105003000Y-106804151D01*
X105003000Y-107045849D01*
X105050153Y-107282903D01*
X105142647Y-107506202D01*
X105276927Y-107707167D01*
X105447833Y-107878073D01*
X105648798Y-108012353D01*
X105872097Y-108104847D01*
X105963358Y-108123000D01*
X102148689Y-108123000D01*
X102210463Y-108089981D01*
X102267869Y-108042869D01*
X102314981Y-107985463D01*
X102349988Y-107919970D01*
X102371545Y-107848905D01*
X102378824Y-107775000D01*
X102378824Y-106075000D01*
X102371545Y-106001095D01*
X102349988Y-105930030D01*
X102314981Y-105864537D01*
X102267869Y-105807131D01*
X102210463Y-105760019D01*
X102144970Y-105725012D01*
X102073905Y-105703455D01*
X102000000Y-105696176D01*
X100300000Y-105696176D01*
X100226095Y-105703455D01*
X100155030Y-105725012D01*
X100089537Y-105760019D01*
X100032131Y-105807131D01*
X99985019Y-105864537D01*
X99950012Y-105930030D01*
X99928455Y-106001095D01*
X99921176Y-106075000D01*
X99921176Y-107775000D01*
X99928455Y-107848905D01*
X99950012Y-107919970D01*
X99985019Y-107985463D01*
X100032131Y-108042869D01*
X100089537Y-108089981D01*
X100151311Y-108123000D01*
X98715936Y-108123000D01*
X98941533Y-107972261D01*
X99147261Y-107766533D01*
X99308901Y-107524622D01*
X99420240Y-107255825D01*
X99477000Y-106970472D01*
X99477000Y-106679528D01*
X99420240Y-106394175D01*
X99308901Y-106125378D01*
X99147261Y-105883467D01*
X98941533Y-105677739D01*
X98699622Y-105516099D01*
X98430825Y-105404760D01*
X98145472Y-105348000D01*
X97854528Y-105348000D01*
X97569175Y-105404760D01*
X97300378Y-105516099D01*
X97058467Y-105677739D01*
X96852739Y-105883467D01*
X96691099Y-106125378D01*
X96579760Y-106394175D01*
X96523000Y-106679528D01*
X96523000Y-106970472D01*
X96579760Y-107255825D01*
X96691099Y-107524622D01*
X96852739Y-107766533D01*
X97058467Y-107972261D01*
X97284064Y-108123000D01*
X95208930Y-108123000D01*
X95331202Y-108072353D01*
X95532167Y-107938073D01*
X95703073Y-107767167D01*
X95837353Y-107566202D01*
X95929847Y-107342903D01*
X95977000Y-107105849D01*
X95977000Y-106864151D01*
X95929847Y-106627097D01*
X95837353Y-106403798D01*
X95703073Y-106202833D01*
X95532167Y-106031927D01*
X95331202Y-105897647D01*
X95107903Y-105805153D01*
X94870849Y-105758000D01*
X94818519Y-105758000D01*
X94800000Y-105756176D01*
X93502000Y-105756176D01*
X93502000Y-105673824D01*
X94800000Y-105673824D01*
X94818519Y-105672000D01*
X94870849Y-105672000D01*
X95107903Y-105624847D01*
X95331202Y-105532353D01*
X95532167Y-105398073D01*
X95703073Y-105227167D01*
X95837353Y-105026202D01*
X95929847Y-104802903D01*
X95977000Y-104565849D01*
X95977000Y-104324151D01*
X95929847Y-104087097D01*
X95837353Y-103863798D01*
X95703073Y-103662833D01*
X95532167Y-103491927D01*
X95331202Y-103357647D01*
X95107903Y-103265153D01*
X94870849Y-103218000D01*
X94818519Y-103218000D01*
X94800000Y-103216176D01*
X93502000Y-103216176D01*
X93502000Y-100593824D01*
X94800000Y-100593824D01*
X94818519Y-100592000D01*
X94870849Y-100592000D01*
X95107903Y-100544847D01*
X95331202Y-100452353D01*
X95532167Y-100318073D01*
X95703073Y-100147167D01*
X95837353Y-99946202D01*
X95929847Y-99722903D01*
X95977000Y-99485849D01*
X95977000Y-99244151D01*
X95929847Y-99007097D01*
X95837353Y-98783798D01*
X95703073Y-98582833D01*
X95532167Y-98411927D01*
X95331202Y-98277647D01*
X95107903Y-98185153D01*
X94870849Y-98138000D01*
X94818519Y-98138000D01*
X94800000Y-98136176D01*
X93502000Y-98136176D01*
X93502000Y-98053824D01*
X94800000Y-98053824D01*
X94818519Y-98052000D01*
X94870849Y-98052000D01*
X95107903Y-98004847D01*
X95331202Y-97912353D01*
X95532167Y-97778073D01*
X95703073Y-97607167D01*
X95837353Y-97406202D01*
X95929847Y-97182903D01*
X95977000Y-96945849D01*
X95977000Y-96704151D01*
X95929847Y-96467097D01*
X95837353Y-96243798D01*
X95703073Y-96042833D01*
X95532167Y-95871927D01*
X95331202Y-95737647D01*
X95107903Y-95645153D01*
X94870849Y-95598000D01*
X94818519Y-95598000D01*
X94800000Y-95596176D01*
X93502000Y-95596176D01*
X93502000Y-95513824D01*
X94800000Y-95513824D01*
X94818519Y-95512000D01*
X94870849Y-95512000D01*
X95107903Y-95464847D01*
X95331202Y-95372353D01*
X95532167Y-95238073D01*
X95703073Y-95067167D01*
X95837353Y-94866202D01*
X95929847Y-94642903D01*
X95977000Y-94405849D01*
X95977000Y-94164151D01*
X95929847Y-93927097D01*
X95837353Y-93703798D01*
X95703073Y-93502833D01*
X95532167Y-93331927D01*
X95331202Y-93197647D01*
X95107903Y-93105153D01*
X94870849Y-93058000D01*
X94818519Y-93058000D01*
X94800000Y-93056176D01*
X93502000Y-93056176D01*
X93502000Y-92973824D01*
X94790000Y-92973824D01*
X94808519Y-92972000D01*
X94870849Y-92972000D01*
X95107903Y-92924847D01*
X95268510Y-92858321D01*
X98023000Y-92858321D01*
X98023000Y-92991679D01*
X98049016Y-93122474D01*
X98100050Y-93245680D01*
X98174140Y-93356563D01*
X98268437Y-93450860D01*
X98379320Y-93524950D01*
X98502526Y-93575984D01*
X98633321Y-93602000D01*
X98766679Y-93602000D01*
X98897474Y-93575984D01*
X99020680Y-93524950D01*
X99131563Y-93450860D01*
X99205423Y-93377000D01*
X102912777Y-93377000D01*
X103023000Y-93487224D01*
X103023000Y-93591679D01*
X103049016Y-93722474D01*
X103100050Y-93845680D01*
X103174140Y-93956563D01*
X103268437Y-94050860D01*
X103379320Y-94124950D01*
X103502526Y-94175984D01*
X103633321Y-94202000D01*
X103766679Y-94202000D01*
X103897474Y-94175984D01*
X104020680Y-94124950D01*
X104131563Y-94050860D01*
X104225860Y-93956563D01*
X104299950Y-93845680D01*
X104350984Y-93722474D01*
X104377000Y-93591679D01*
X104377000Y-93458321D01*
X104350984Y-93327526D01*
X104299950Y-93204320D01*
X104225860Y-93093437D01*
X104131563Y-92999140D01*
X104020680Y-92925050D01*
X103897474Y-92874016D01*
X103766679Y-92848000D01*
X103662224Y-92848000D01*
X103435323Y-92621100D01*
X103421159Y-92603841D01*
X103352333Y-92547357D01*
X103273810Y-92505386D01*
X103188607Y-92479540D01*
X103122205Y-92473000D01*
X103100000Y-92470813D01*
X103077795Y-92473000D01*
X99205423Y-92473000D01*
X99131563Y-92399140D01*
X99020680Y-92325050D01*
X98897474Y-92274016D01*
X98766679Y-92248000D01*
X98633321Y-92248000D01*
X98502526Y-92274016D01*
X98379320Y-92325050D01*
X98268437Y-92399140D01*
X98174140Y-92493437D01*
X98100050Y-92604320D01*
X98049016Y-92727526D01*
X98023000Y-92858321D01*
X95268510Y-92858321D01*
X95331202Y-92832353D01*
X95532167Y-92698073D01*
X95703073Y-92527167D01*
X95837353Y-92326202D01*
X95929847Y-92102903D01*
X95977000Y-91865849D01*
X95977000Y-91624151D01*
X95929847Y-91387097D01*
X95837353Y-91163798D01*
X95703073Y-90962833D01*
X95553838Y-90813598D01*
X103607269Y-90813598D01*
X103607269Y-90946956D01*
X103633285Y-91077751D01*
X103684319Y-91200957D01*
X103758409Y-91311840D01*
X103852706Y-91406137D01*
X103963589Y-91480227D01*
X104086795Y-91531261D01*
X104217590Y-91557277D01*
X104350948Y-91557277D01*
X104481743Y-91531261D01*
X104604949Y-91480227D01*
X104715832Y-91406137D01*
X104810129Y-91311840D01*
X104884219Y-91200957D01*
X104935253Y-91077751D01*
X104961269Y-90946956D01*
X104961269Y-90813598D01*
X104935253Y-90682803D01*
X104884219Y-90559597D01*
X104810129Y-90448714D01*
X104736269Y-90374854D01*
X104736269Y-88674443D01*
X104771563Y-88650860D01*
X104865860Y-88556563D01*
X104939950Y-88445680D01*
X104990984Y-88322474D01*
X105017000Y-88191679D01*
X105017000Y-88058321D01*
X104990984Y-87927526D01*
X104939950Y-87804320D01*
X104865860Y-87693437D01*
X104771563Y-87599140D01*
X104660680Y-87525050D01*
X104537474Y-87474016D01*
X104406679Y-87448000D01*
X104273321Y-87448000D01*
X104142526Y-87474016D01*
X104019320Y-87525050D01*
X103908437Y-87599140D01*
X103814140Y-87693437D01*
X103740050Y-87804320D01*
X103689016Y-87927526D01*
X103663000Y-88058321D01*
X103663000Y-88191679D01*
X103689016Y-88322474D01*
X103740050Y-88445680D01*
X103814140Y-88556563D01*
X103832269Y-88574692D01*
X103832270Y-90374853D01*
X103758409Y-90448714D01*
X103684319Y-90559597D01*
X103633285Y-90682803D01*
X103607269Y-90813598D01*
X95553838Y-90813598D01*
X95532167Y-90791927D01*
X95331202Y-90657647D01*
X95107903Y-90565153D01*
X94870849Y-90518000D01*
X94808519Y-90518000D01*
X94790000Y-90516176D01*
X93502000Y-90516176D01*
X93502000Y-87893824D01*
X94800000Y-87893824D01*
X94818519Y-87892000D01*
X94870849Y-87892000D01*
X95107903Y-87844847D01*
X95331202Y-87752353D01*
X95532167Y-87618073D01*
X95703073Y-87447167D01*
X95837353Y-87246202D01*
X95929847Y-87022903D01*
X95977000Y-86785849D01*
X95977000Y-86544151D01*
X95929847Y-86307097D01*
X95837353Y-86083798D01*
X95703073Y-85882833D01*
X95532167Y-85711927D01*
X95331202Y-85577647D01*
X95107903Y-85485153D01*
X94870849Y-85438000D01*
X94818519Y-85438000D01*
X94800000Y-85436176D01*
X93502000Y-85436176D01*
X93502000Y-85353824D01*
X94800000Y-85353824D01*
X94818519Y-85352000D01*
X94870849Y-85352000D01*
X95107903Y-85304847D01*
X95331202Y-85212353D01*
X95532167Y-85078073D01*
X95703073Y-84907167D01*
X95837353Y-84706202D01*
X95929847Y-84482903D01*
X95977000Y-84245849D01*
X95977000Y-84004151D01*
X95929847Y-83767097D01*
X95837353Y-83543798D01*
X95703073Y-83342833D01*
X95532167Y-83171927D01*
X95331202Y-83037647D01*
X95107903Y-82945153D01*
X94870849Y-82898000D01*
X94818519Y-82898000D01*
X94800000Y-82896176D01*
X93502000Y-82896176D01*
X93502000Y-82813824D01*
X94800000Y-82813824D01*
X94818519Y-82812000D01*
X94870849Y-82812000D01*
X95107903Y-82764847D01*
X95331202Y-82672353D01*
X95532167Y-82538073D01*
X95703073Y-82367167D01*
X95837353Y-82166202D01*
X95929847Y-81942903D01*
X95977000Y-81705849D01*
X95977000Y-81464151D01*
X95929847Y-81227097D01*
X95837353Y-81003798D01*
X95703073Y-80802833D01*
X95532167Y-80631927D01*
X95331202Y-80497647D01*
X95107903Y-80405153D01*
X94870849Y-80358000D01*
X94818519Y-80358000D01*
X94800000Y-80356176D01*
X93502000Y-80356176D01*
X93502000Y-80273824D01*
X94810000Y-80273824D01*
X94828519Y-80272000D01*
X94870849Y-80272000D01*
X95107903Y-80224847D01*
X95331202Y-80132353D01*
X95532167Y-79998073D01*
X95703073Y-79827167D01*
X95747081Y-79761304D01*
X96248000Y-80262225D01*
X96248001Y-84829576D01*
X96174140Y-84903437D01*
X96100050Y-85014320D01*
X96049016Y-85137526D01*
X96023000Y-85268321D01*
X96023000Y-85401679D01*
X96049016Y-85532474D01*
X96100050Y-85655680D01*
X96174140Y-85766563D01*
X96268437Y-85860860D01*
X96379320Y-85934950D01*
X96502526Y-85985984D01*
X96633321Y-86012000D01*
X96766679Y-86012000D01*
X96897474Y-85985984D01*
X97020680Y-85934950D01*
X97131563Y-85860860D01*
X97150857Y-85841566D01*
X97165954Y-85917467D01*
X97216988Y-86040673D01*
X97291078Y-86151556D01*
X97385375Y-86245853D01*
X97496258Y-86319943D01*
X97619464Y-86370977D01*
X97750259Y-86396993D01*
X97883617Y-86396993D01*
X98014412Y-86370977D01*
X98137618Y-86319943D01*
X98248501Y-86245853D01*
X98342798Y-86151556D01*
X98416888Y-86040673D01*
X98458975Y-85939067D01*
X98477605Y-85939067D01*
X98608400Y-85913051D01*
X98731606Y-85862017D01*
X98842489Y-85787927D01*
X98936786Y-85693630D01*
X99010876Y-85582747D01*
X99061910Y-85459541D01*
X99087926Y-85328746D01*
X99087926Y-85195388D01*
X99062978Y-85069960D01*
X99091563Y-85050860D01*
X99185860Y-84956563D01*
X99259950Y-84845680D01*
X99310984Y-84722474D01*
X99337000Y-84591679D01*
X99337000Y-84487223D01*
X99873894Y-83950330D01*
X99891148Y-83936170D01*
X99947632Y-83867344D01*
X99989603Y-83788821D01*
X100002181Y-83747357D01*
X100015449Y-83703619D01*
X100024176Y-83615011D01*
X100021989Y-83592806D01*
X100021989Y-82995657D01*
X100065026Y-83013484D01*
X100195821Y-83039500D01*
X100329179Y-83039500D01*
X100459974Y-83013484D01*
X100583180Y-82962450D01*
X100694063Y-82888360D01*
X100788360Y-82794063D01*
X100862450Y-82683180D01*
X100913484Y-82559974D01*
X100939500Y-82429179D01*
X100939500Y-82295821D01*
X100913484Y-82165026D01*
X100862450Y-82041820D01*
X100788360Y-81930937D01*
X100694063Y-81836640D01*
X100583180Y-81762550D01*
X100459974Y-81711516D01*
X100329179Y-81685500D01*
X100322000Y-81685500D01*
X100322000Y-81088321D01*
X102583000Y-81088321D01*
X102583000Y-81221679D01*
X102609016Y-81352474D01*
X102660050Y-81475680D01*
X102734140Y-81586563D01*
X102808001Y-81660424D01*
X102808000Y-82522795D01*
X102805813Y-82545000D01*
X102814540Y-82633607D01*
X102818137Y-82645463D01*
X102840386Y-82718809D01*
X102882357Y-82797332D01*
X102938841Y-82866159D01*
X102956100Y-82880323D01*
X104329681Y-84253905D01*
X104343841Y-84271159D01*
X104412667Y-84327643D01*
X104456723Y-84351191D01*
X104491190Y-84369614D01*
X104576392Y-84395460D01*
X104664999Y-84404187D01*
X104687204Y-84402000D01*
X104817795Y-84402000D01*
X104840000Y-84404187D01*
X104862205Y-84402000D01*
X105131679Y-84402000D01*
X105262474Y-84375984D01*
X105385680Y-84324950D01*
X105496563Y-84250860D01*
X105590860Y-84156563D01*
X105664950Y-84045680D01*
X105697765Y-83966459D01*
X105778905Y-83885318D01*
X105796159Y-83871159D01*
X105852643Y-83802333D01*
X105894614Y-83723810D01*
X105918190Y-83646090D01*
X105920460Y-83638608D01*
X105929187Y-83550001D01*
X105927000Y-83527796D01*
X105927000Y-81912224D01*
X106037224Y-81802000D01*
X106419577Y-81802000D01*
X106493437Y-81875860D01*
X106604320Y-81949950D01*
X106727526Y-82000984D01*
X106858321Y-82027000D01*
X106991679Y-82027000D01*
X107122474Y-82000984D01*
X107245680Y-81949950D01*
X107356563Y-81875860D01*
X107450860Y-81781563D01*
X107524950Y-81670680D01*
X107575984Y-81547474D01*
X107602000Y-81416679D01*
X107602000Y-81283321D01*
X107575984Y-81152526D01*
X107524950Y-81029320D01*
X107450860Y-80918437D01*
X107356563Y-80824140D01*
X107245680Y-80750050D01*
X107122474Y-80699016D01*
X106991679Y-80673000D01*
X106858321Y-80673000D01*
X106727526Y-80699016D01*
X106604320Y-80750050D01*
X106493437Y-80824140D01*
X106419577Y-80898000D01*
X105872204Y-80898000D01*
X105849999Y-80895813D01*
X105761392Y-80904540D01*
X105676190Y-80930386D01*
X105597667Y-80972357D01*
X105528841Y-81028841D01*
X105514685Y-81046090D01*
X105171095Y-81389682D01*
X105153842Y-81403841D01*
X105121207Y-81443607D01*
X105097358Y-81472667D01*
X105055386Y-81551191D01*
X105029540Y-81636393D01*
X105020813Y-81725000D01*
X105023001Y-81747215D01*
X105023000Y-83048000D01*
X104998321Y-83048000D01*
X104867526Y-83074016D01*
X104744320Y-83125050D01*
X104633437Y-83199140D01*
X104593400Y-83239177D01*
X103712000Y-82357777D01*
X103712000Y-81660423D01*
X103785860Y-81586563D01*
X103859950Y-81475680D01*
X103910984Y-81352474D01*
X103937000Y-81221679D01*
X103937000Y-81088321D01*
X103910984Y-80957526D01*
X103859950Y-80834320D01*
X103785860Y-80723437D01*
X103691563Y-80629140D01*
X103580680Y-80555050D01*
X103457474Y-80504016D01*
X103326679Y-80478000D01*
X103193321Y-80478000D01*
X103062526Y-80504016D01*
X102939320Y-80555050D01*
X102828437Y-80629140D01*
X102734140Y-80723437D01*
X102660050Y-80834320D01*
X102609016Y-80957526D01*
X102583000Y-81088321D01*
X100322000Y-81088321D01*
X100322000Y-75169776D01*
X100358321Y-75177000D01*
X100491679Y-75177000D01*
X100622474Y-75150984D01*
X100745680Y-75099950D01*
X100856563Y-75025860D01*
X100930423Y-74952000D01*
X105064575Y-74952000D01*
X105138437Y-75025862D01*
X105249320Y-75099952D01*
X105372526Y-75150986D01*
X105503321Y-75177002D01*
X105636679Y-75177002D01*
X105767474Y-75150986D01*
X105890680Y-75099952D01*
X106001563Y-75025862D01*
X106095860Y-74931565D01*
X106169950Y-74820682D01*
X106220984Y-74697476D01*
X106247000Y-74566681D01*
X106247000Y-74433323D01*
X106220984Y-74302528D01*
X106169950Y-74179322D01*
X106095860Y-74068439D01*
X106001563Y-73974142D01*
X105890680Y-73900052D01*
X105767474Y-73849018D01*
X105636679Y-73823002D01*
X105503321Y-73823002D01*
X105372526Y-73849018D01*
X105249320Y-73900052D01*
X105138437Y-73974142D01*
X105064579Y-74048000D01*
X100930423Y-74048000D01*
X100856563Y-73974140D01*
X100745680Y-73900050D01*
X100622474Y-73849016D01*
X100491679Y-73823000D01*
X100358321Y-73823000D01*
X100322000Y-73830224D01*
X100322000Y-71472578D01*
X100329950Y-71460680D01*
X100380984Y-71337474D01*
X100407000Y-71206679D01*
X100407000Y-71073321D01*
X100380984Y-70942526D01*
X100329950Y-70819320D01*
X100255860Y-70708437D01*
X100161563Y-70614140D01*
X100050680Y-70540050D01*
X99927474Y-70489016D01*
X99796679Y-70463000D01*
X99663321Y-70463000D01*
X99532526Y-70489016D01*
X99409320Y-70540050D01*
X99298437Y-70614140D01*
X99204140Y-70708437D01*
X99130050Y-70819320D01*
X99079016Y-70942526D01*
X99053000Y-71073321D01*
X99053000Y-71206679D01*
X99079016Y-71337474D01*
X99130050Y-71460680D01*
X99204140Y-71571563D01*
X99298437Y-71665860D01*
X99409320Y-71739950D01*
X99418001Y-71743546D01*
X99418001Y-72913777D01*
X95876329Y-69372106D01*
X95929847Y-69242903D01*
X95977000Y-69005849D01*
X95977000Y-68764151D01*
X95929847Y-68527097D01*
X95837353Y-68303798D01*
X95703073Y-68102833D01*
X95532167Y-67931927D01*
X95331202Y-67797647D01*
X95107903Y-67705153D01*
X94870849Y-67658000D01*
X94818519Y-67658000D01*
X94800000Y-67656176D01*
X93502000Y-67656176D01*
X93502000Y-67563824D01*
X94588047Y-67563824D01*
X94629151Y-67572000D01*
X94870849Y-67572000D01*
X95107903Y-67524847D01*
X95331202Y-67432353D01*
X95532167Y-67298073D01*
X95703073Y-67127167D01*
X95837353Y-66926202D01*
X95929847Y-66702903D01*
X95977000Y-66465849D01*
X95977000Y-66224151D01*
X95929847Y-65987097D01*
X95837353Y-65763798D01*
X95703073Y-65562833D01*
X95532167Y-65391927D01*
X95331202Y-65257647D01*
X95107903Y-65165153D01*
X94923248Y-65128423D01*
X94873905Y-65113455D01*
X94800000Y-65106176D01*
X93502000Y-65106176D01*
X93502000Y-63105859D01*
X100008000Y-63105859D01*
X100008000Y-63244141D01*
X100034977Y-63379766D01*
X100087895Y-63507522D01*
X100164721Y-63622499D01*
X100262501Y-63720279D01*
X100377478Y-63797105D01*
X100505234Y-63850023D01*
X100640859Y-63877000D01*
X100779141Y-63877000D01*
X100914766Y-63850023D01*
X101042522Y-63797105D01*
X101157499Y-63720279D01*
X101255279Y-63622499D01*
X101332105Y-63507522D01*
X101385023Y-63379766D01*
X101412000Y-63244141D01*
X101412000Y-63105859D01*
X101385023Y-62970234D01*
X101332105Y-62842478D01*
X101255279Y-62727501D01*
X101157499Y-62629721D01*
X101042522Y-62552895D01*
X100914766Y-62499977D01*
X100779141Y-62473000D01*
X100640859Y-62473000D01*
X100505234Y-62499977D01*
X100377478Y-62552895D01*
X100262501Y-62629721D01*
X100164721Y-62727501D01*
X100087895Y-62842478D01*
X100034977Y-62970234D01*
X100008000Y-63105859D01*
X93502000Y-63105859D01*
X93502000Y-62483824D01*
X94588047Y-62483824D01*
X94629151Y-62492000D01*
X94870849Y-62492000D01*
X95107903Y-62444847D01*
X95331202Y-62352353D01*
X95532167Y-62218073D01*
X95703073Y-62047167D01*
X95837353Y-61846202D01*
X95929847Y-61622903D01*
X95977000Y-61385849D01*
X95977000Y-61144151D01*
X95929847Y-60907097D01*
X95837353Y-60683798D01*
X95703073Y-60482833D01*
X95532167Y-60311927D01*
X95331202Y-60177647D01*
X95107903Y-60085153D01*
X94923248Y-60048423D01*
X94873905Y-60033455D01*
X94800000Y-60026176D01*
X93502000Y-60026176D01*
X93502000Y-59953824D01*
X94800000Y-59953824D01*
X94818519Y-59952000D01*
X94870849Y-59952000D01*
X95107903Y-59904847D01*
X95331202Y-59812353D01*
X95532167Y-59678073D01*
X95703073Y-59507167D01*
X95837353Y-59306202D01*
X95893113Y-59171587D01*
X95929760Y-59355825D01*
X96041099Y-59624622D01*
X96202739Y-59866533D01*
X96408467Y-60072261D01*
X96650378Y-60233901D01*
X96919175Y-60345240D01*
X97204528Y-60402000D01*
X97495472Y-60402000D01*
X97780825Y-60345240D01*
X98049622Y-60233901D01*
X98291533Y-60072261D01*
X98497261Y-59866533D01*
X98658901Y-59624622D01*
X98770240Y-59355825D01*
X98827000Y-59070472D01*
X98827000Y-58779528D01*
X98770240Y-58494175D01*
X98658901Y-58225378D01*
X98497261Y-57983467D01*
X98291533Y-57777739D01*
X98065936Y-57627000D01*
X109384064Y-57627000D01*
X109158467Y-57777739D01*
G37*
G04 #@! TD.AperFunction*
D22*
X98508001Y-76207226D02*
X98508000Y-82826495D01*
X97513034Y-83821462D01*
X97495780Y-83835622D01*
X97443924Y-83898809D01*
X97439296Y-83904448D01*
X97397324Y-83982972D01*
X97371478Y-84068174D01*
X97362751Y-84156781D01*
X97364939Y-84178996D01*
X97364938Y-85207681D01*
X97350984Y-85137526D01*
X97299950Y-85014320D01*
X97225860Y-84903437D01*
X97152000Y-84829577D01*
X97152000Y-80097202D01*
X97154187Y-80074999D01*
X97146610Y-79998073D01*
X97145460Y-79986393D01*
X97119614Y-79901190D01*
X97077643Y-79822667D01*
X97021159Y-79753841D01*
X97003911Y-79739687D01*
X96045323Y-78781100D01*
X96031159Y-78763841D01*
X95962333Y-78707357D01*
X95930492Y-78690338D01*
X95929847Y-78687097D01*
X95837353Y-78463798D01*
X95703073Y-78262833D01*
X95532167Y-78091927D01*
X95331202Y-77957647D01*
X95107903Y-77865153D01*
X94870849Y-77818000D01*
X94828519Y-77818000D01*
X94810000Y-77816176D01*
X93502000Y-77816176D01*
X93502000Y-75193824D01*
X94800000Y-75193824D01*
X94818519Y-75192000D01*
X94870849Y-75192000D01*
X95107903Y-75144847D01*
X95331202Y-75052353D01*
X95532167Y-74918073D01*
X95703073Y-74747167D01*
X95837353Y-74546202D01*
X95874302Y-74457000D01*
X96757777Y-74457000D01*
X98508001Y-76207226D01*
G04 #@! TA.AperFunction,Conductor*
D19*
G36*
X98508001Y-76207226D02*
G01*
X98508000Y-82826495D01*
X97513034Y-83821462D01*
X97495780Y-83835622D01*
X97443924Y-83898809D01*
X97439296Y-83904448D01*
X97397324Y-83982972D01*
X97371478Y-84068174D01*
X97362751Y-84156781D01*
X97364939Y-84178996D01*
X97364938Y-85207681D01*
X97350984Y-85137526D01*
X97299950Y-85014320D01*
X97225860Y-84903437D01*
X97152000Y-84829577D01*
X97152000Y-80097202D01*
X97154187Y-80074999D01*
X97146610Y-79998073D01*
X97145460Y-79986393D01*
X97119614Y-79901190D01*
X97077643Y-79822667D01*
X97021159Y-79753841D01*
X97003911Y-79739687D01*
X96045323Y-78781100D01*
X96031159Y-78763841D01*
X95962333Y-78707357D01*
X95930492Y-78690338D01*
X95929847Y-78687097D01*
X95837353Y-78463798D01*
X95703073Y-78262833D01*
X95532167Y-78091927D01*
X95331202Y-77957647D01*
X95107903Y-77865153D01*
X94870849Y-77818000D01*
X94828519Y-77818000D01*
X94810000Y-77816176D01*
X93502000Y-77816176D01*
X93502000Y-75193824D01*
X94800000Y-75193824D01*
X94818519Y-75192000D01*
X94870849Y-75192000D01*
X95107903Y-75144847D01*
X95331202Y-75052353D01*
X95532167Y-74918073D01*
X95703073Y-74747167D01*
X95837353Y-74546202D01*
X95874302Y-74457000D01*
X96757777Y-74457000D01*
X98508001Y-76207226D01*
G37*
G04 #@! TD.AperFunction*
M02*
