G04 #@! TF.GenerationSoftware,KiCad,Pcbnew,(5.1.9)-1*
G04 #@! TF.CreationDate,2021-05-15T18:25:28+01:00*
G04 #@! TF.ProjectId,EnvOpenPico,456e764f-7065-46e5-9069-636f2e6b6963,REV1*
G04 #@! TF.SameCoordinates,Original*
G04 #@! TF.FileFunction,Copper,L2,Bot*
G04 #@! TF.FilePolarity,Positive*
%FSLAX46Y46*%
G04 Gerber Fmt 4.6, Leading zero omitted, Abs format (unit mm)*
G04 Created by KiCad (PCBNEW (5.1.9)-1) date 2021-05-15 18:25:28*
%MOMM*%
%LPD*%
G01*
G04 APERTURE LIST*
G04 #@! TA.AperFunction,ComponentPad*
%ADD10O,1.000000X2.100000*%
G04 #@! TD*
G04 #@! TA.AperFunction,ComponentPad*
%ADD11O,1.000000X1.600000*%
G04 #@! TD*
G04 #@! TA.AperFunction,ComponentPad*
%ADD12C,0.600000*%
G04 #@! TD*
G04 #@! TA.AperFunction,ComponentPad*
%ADD13O,1.700000X1.700000*%
G04 #@! TD*
G04 #@! TA.AperFunction,ComponentPad*
%ADD14R,1.700000X1.700000*%
G04 #@! TD*
G04 #@! TA.AperFunction,ComponentPad*
%ADD15C,1.700000*%
G04 #@! TD*
G04 #@! TA.AperFunction,ViaPad*
%ADD16C,0.600000*%
G04 #@! TD*
G04 #@! TA.AperFunction,Conductor*
%ADD17C,0.150000*%
G04 #@! TD*
G04 #@! TA.AperFunction,Conductor*
%ADD18C,0.200000*%
G04 #@! TD*
G04 #@! TA.AperFunction,Conductor*
%ADD19C,0.254000*%
G04 #@! TD*
G04 APERTURE END LIST*
D10*
X107920000Y-63705000D03*
X99280000Y-63705000D03*
D11*
X107920000Y-59525000D03*
X99280000Y-59525000D03*
D12*
X104965000Y-87300000D03*
X103690000Y-87300000D03*
X102415000Y-87300000D03*
X104965000Y-86025000D03*
X103690000Y-86025000D03*
X102415000Y-86025000D03*
X104965000Y-84750000D03*
X103690000Y-84750000D03*
X102415000Y-84750000D03*
D13*
X106230000Y-106925000D03*
X103690000Y-106925000D03*
D14*
X101150000Y-106925000D03*
D13*
X112530000Y-106985000D03*
X112530000Y-104445000D03*
D14*
X112530000Y-101905000D03*
D13*
X112530000Y-99365000D03*
X112530000Y-96825000D03*
X112530000Y-94285000D03*
X112530000Y-91745000D03*
D14*
X112530000Y-89205000D03*
D13*
X112530000Y-86665000D03*
X112530000Y-84125000D03*
X112530000Y-81585000D03*
X112530000Y-79045000D03*
D14*
X112530000Y-76505000D03*
D13*
X112530000Y-73965000D03*
X112530000Y-71425000D03*
X112530000Y-68885000D03*
X112530000Y-66345000D03*
D14*
X112530000Y-63805000D03*
D13*
X112530000Y-61265000D03*
X112530000Y-58725000D03*
X94750000Y-58725000D03*
X94750000Y-61265000D03*
D14*
X94750000Y-63805000D03*
D13*
X94750000Y-66345000D03*
X94750000Y-68885000D03*
X94750000Y-71425000D03*
X94750000Y-73965000D03*
D14*
X94750000Y-76505000D03*
D13*
X94750000Y-79045000D03*
X94750000Y-81585000D03*
X94750000Y-84125000D03*
X94750000Y-86665000D03*
D14*
X94750000Y-89205000D03*
D13*
X94750000Y-91745000D03*
X94750000Y-94285000D03*
X94750000Y-96825000D03*
X94750000Y-99365000D03*
D14*
X94750000Y-101905000D03*
D13*
X94750000Y-104445000D03*
D15*
X94750000Y-106985000D03*
D16*
X104050000Y-79625000D03*
X101950000Y-79825000D03*
X107725000Y-80400000D03*
X109000000Y-67700000D03*
X106825000Y-64625000D03*
X110100000Y-87025000D03*
X108500000Y-90125000D03*
X105500000Y-104625000D03*
X96450000Y-61925000D03*
X96600000Y-87325000D03*
X109600000Y-80525000D03*
X100375006Y-65950006D03*
X104350000Y-69325000D03*
X97291928Y-84725000D03*
X101850000Y-92100000D03*
X108800000Y-93175000D03*
X104850000Y-93700000D03*
X100375000Y-64620000D03*
X106550000Y-72050008D03*
X100200000Y-89575000D03*
X97725000Y-81875000D03*
X103250000Y-72425000D03*
X106540000Y-66085000D03*
X101100000Y-68650000D03*
X103700000Y-93525000D03*
X108109994Y-77525000D03*
X104125000Y-77525000D03*
X98700000Y-92925000D03*
X106560000Y-69290000D03*
X102300000Y-72425000D03*
X105065000Y-83725000D03*
X104340000Y-88125000D03*
X104284269Y-90880277D03*
X103800000Y-81525000D03*
X106925000Y-81350000D03*
X96700000Y-85335000D03*
X97816938Y-85719993D03*
X98410926Y-85262067D03*
X98660000Y-84525000D03*
X107600000Y-92225000D03*
X99730000Y-71140000D03*
X100262500Y-82362500D03*
X103354997Y-66260003D03*
X103870010Y-63275000D03*
X104840000Y-65905000D03*
X109310000Y-72750000D03*
X110625000Y-84500000D03*
X97900000Y-64650000D03*
X104550000Y-62575000D03*
X102960000Y-67590000D03*
X107175000Y-68275000D03*
D17*
X112590000Y-89205000D02*
X112244000Y-89205000D01*
X112244000Y-89205000D02*
X110628000Y-90821000D01*
X112590000Y-88719000D02*
X111390000Y-87519000D01*
X112590000Y-89205000D02*
X112590000Y-88719000D01*
X97291928Y-84725000D02*
X97291928Y-85863072D01*
X97291928Y-85863072D02*
X97290000Y-85865000D01*
X97290000Y-85865000D02*
X97290000Y-86655000D01*
X106120000Y-77525000D02*
X106120000Y-77525000D01*
X104125000Y-77525000D02*
X108109994Y-77525000D01*
X103100000Y-92925000D02*
X98700000Y-92925000D01*
X103700000Y-93525000D02*
X103100000Y-92925000D01*
X105720000Y-68450000D02*
X106560000Y-69290000D01*
X104160000Y-68450000D02*
X105720000Y-68450000D01*
X103505000Y-69105000D02*
X101555000Y-69105000D01*
X104160000Y-68450000D02*
X103505000Y-69105000D01*
X101555000Y-69105000D02*
X101100000Y-68650000D01*
X103505000Y-69105000D02*
X102300000Y-70310000D01*
X102300000Y-70310000D02*
X102300000Y-72425000D01*
X104290000Y-88100000D02*
X104290000Y-88100000D01*
X104840000Y-83950000D02*
X105065000Y-83725000D01*
X104665000Y-83950000D02*
X104840000Y-83950000D01*
X104665000Y-83950000D02*
X105065000Y-83950000D01*
X103800000Y-83085000D02*
X103800000Y-81525000D01*
X104665000Y-83950000D02*
X103800000Y-83085000D01*
X104340000Y-88000000D02*
X104284269Y-88055731D01*
X104284269Y-90456013D02*
X104284269Y-90880277D01*
X104284269Y-88055731D02*
X104284269Y-90456013D01*
X105475000Y-81725000D02*
X105850000Y-81350000D01*
X105475000Y-83550000D02*
X105475000Y-81725000D01*
X105850000Y-81350000D02*
X106925000Y-81350000D01*
X105300000Y-83725000D02*
X105475000Y-83550000D01*
X105065000Y-83725000D02*
X105300000Y-83725000D01*
X95710000Y-79085000D02*
X96700000Y-80075000D01*
X96700000Y-80075000D02*
X96700000Y-85335000D01*
X94690000Y-79085000D02*
X95710000Y-79085000D01*
X96945000Y-74005000D02*
X94690000Y-74005000D01*
X98960000Y-76020000D02*
X96945000Y-74005000D01*
X98960000Y-83013719D02*
X98960000Y-76020000D01*
X97816938Y-84156781D02*
X98960000Y-83013719D01*
X97816938Y-85719993D02*
X97816938Y-84156781D01*
X95952081Y-71425000D02*
X94750000Y-71425000D01*
X99269978Y-74742897D02*
X95952081Y-71425000D01*
X98134999Y-84262999D02*
X99269978Y-83128020D01*
X98134999Y-84986140D02*
X98134999Y-84262999D01*
X98410926Y-85262067D02*
X98134999Y-84986140D01*
X99269978Y-83128020D02*
X99269978Y-74742897D01*
X99569989Y-83615011D02*
X98660000Y-84525000D01*
X94750000Y-68885000D02*
X99569989Y-73704989D01*
X99569989Y-73704989D02*
X99569989Y-83615011D01*
X111800000Y-84125000D02*
X112590000Y-84125000D01*
X110800000Y-85125000D02*
X111800000Y-84125000D01*
X110800000Y-89025000D02*
X110800000Y-85125000D01*
X107600000Y-92225000D02*
X110800000Y-89025000D01*
X99730000Y-71140000D02*
X99730000Y-71140000D01*
X100262500Y-82362500D02*
X99870000Y-81970000D01*
X99870000Y-81970000D02*
X99870000Y-71280000D01*
X99870000Y-71280000D02*
X99730000Y-71140000D01*
D18*
X103870010Y-63275000D02*
X104840000Y-64244990D01*
X104840000Y-64244990D02*
X104840000Y-65905000D01*
D17*
X109310000Y-72105000D02*
X109310000Y-72750000D01*
X112530000Y-68885000D02*
X109310000Y-72105000D01*
X98500000Y-65250000D02*
X97900000Y-64650000D01*
X101525000Y-67050000D02*
X101525000Y-65575000D01*
X101262500Y-67312500D02*
X101525000Y-67050000D01*
X101262500Y-67832500D02*
X101262500Y-67312500D01*
X101525000Y-65575000D02*
X101200000Y-65250000D01*
X101579990Y-68149990D02*
X101262500Y-67832500D01*
X106249990Y-68149990D02*
X101579990Y-68149990D01*
X107280000Y-72780000D02*
X107280000Y-69180000D01*
X101200000Y-65250000D02*
X98500000Y-65250000D01*
X107280000Y-69180000D02*
X106249990Y-68149990D01*
X110450000Y-75950000D02*
X107280000Y-72780000D01*
X110450000Y-84325000D02*
X110450000Y-75950000D01*
X110625000Y-84500000D02*
X110450000Y-84325000D01*
X103575000Y-62575000D02*
X104550000Y-62575000D01*
X102575000Y-67300000D02*
X102575000Y-63575000D01*
X102575000Y-63575000D02*
X103575000Y-62575000D01*
X102865000Y-67590000D02*
X102575000Y-67300000D01*
X102960000Y-67590000D02*
X102960000Y-67590000D01*
X102960000Y-67590000D02*
X102865000Y-67590000D01*
X107175000Y-68275000D02*
X107175000Y-66875000D01*
X107705000Y-66345000D02*
X112530000Y-66345000D01*
X107175000Y-66875000D02*
X107705000Y-66345000D01*
D19*
X94168798Y-57637647D02*
X93967833Y-57771927D01*
X93796927Y-57942833D01*
X93662647Y-58143798D01*
X93570153Y-58367097D01*
X93523000Y-58604151D01*
X93523000Y-58845849D01*
X93570153Y-59082903D01*
X93662647Y-59306202D01*
X93796927Y-59507167D01*
X93967833Y-59678073D01*
X94168798Y-59812353D01*
X94392097Y-59904847D01*
X94629151Y-59952000D01*
X94870849Y-59952000D01*
X95107903Y-59904847D01*
X95331202Y-59812353D01*
X95532167Y-59678073D01*
X95703073Y-59507167D01*
X95837353Y-59306202D01*
X95893113Y-59171587D01*
X95929760Y-59355825D01*
X96041099Y-59624622D01*
X96202739Y-59866533D01*
X96408467Y-60072261D01*
X96650378Y-60233901D01*
X96919175Y-60345240D01*
X97204528Y-60402000D01*
X97495472Y-60402000D01*
X97780825Y-60345240D01*
X98049622Y-60233901D01*
X98291533Y-60072261D01*
X98497261Y-59866533D01*
X98658901Y-59624622D01*
X98770240Y-59355825D01*
X98827000Y-59070472D01*
X98827000Y-58779528D01*
X98770240Y-58494175D01*
X98658901Y-58225378D01*
X98497261Y-57983467D01*
X98291533Y-57777739D01*
X98065936Y-57627000D01*
X109384064Y-57627000D01*
X109158467Y-57777739D01*
X108952739Y-57983467D01*
X108791099Y-58225378D01*
X108679760Y-58494175D01*
X108623000Y-58779528D01*
X108623000Y-59070472D01*
X108679760Y-59355825D01*
X108791099Y-59624622D01*
X108952739Y-59866533D01*
X109158467Y-60072261D01*
X109400378Y-60233901D01*
X109669175Y-60345240D01*
X109954528Y-60402000D01*
X110245472Y-60402000D01*
X110530825Y-60345240D01*
X110799622Y-60233901D01*
X111041533Y-60072261D01*
X111247261Y-59866533D01*
X111408901Y-59624622D01*
X111503235Y-59396879D01*
X111576927Y-59507167D01*
X111747833Y-59678073D01*
X111948798Y-59812353D01*
X112172097Y-59904847D01*
X112409151Y-59952000D01*
X112650849Y-59952000D01*
X112887903Y-59904847D01*
X113111202Y-59812353D01*
X113312167Y-59678073D01*
X113483073Y-59507167D01*
X113617353Y-59306202D01*
X113709847Y-59082903D01*
X113757000Y-58845849D01*
X113757000Y-58604151D01*
X113709847Y-58367097D01*
X113617353Y-58143798D01*
X113483073Y-57942833D01*
X113312167Y-57771927D01*
X113111202Y-57637647D01*
X113085498Y-57627000D01*
X113670335Y-57627000D01*
X113708663Y-57630758D01*
X113726609Y-57636176D01*
X113743166Y-57644979D01*
X113757695Y-57656829D01*
X113769648Y-57671279D01*
X113778566Y-57687772D01*
X113784110Y-57705680D01*
X113788001Y-57742702D01*
X113788000Y-108005335D01*
X113784242Y-108043663D01*
X113778824Y-108061609D01*
X113770021Y-108078166D01*
X113758171Y-108092695D01*
X113743722Y-108104648D01*
X113727227Y-108113567D01*
X113709319Y-108119110D01*
X113672308Y-108123000D01*
X112988930Y-108123000D01*
X113111202Y-108072353D01*
X113312167Y-107938073D01*
X113483073Y-107767167D01*
X113617353Y-107566202D01*
X113709847Y-107342903D01*
X113757000Y-107105849D01*
X113757000Y-106864151D01*
X113709847Y-106627097D01*
X113617353Y-106403798D01*
X113483073Y-106202833D01*
X113312167Y-106031927D01*
X113111202Y-105897647D01*
X112887903Y-105805153D01*
X112650849Y-105758000D01*
X112409151Y-105758000D01*
X112172097Y-105805153D01*
X111948798Y-105897647D01*
X111747833Y-106031927D01*
X111576927Y-106202833D01*
X111442647Y-106403798D01*
X111350153Y-106627097D01*
X111303000Y-106864151D01*
X111303000Y-107105849D01*
X111350153Y-107342903D01*
X111442647Y-107566202D01*
X111576927Y-107767167D01*
X111747833Y-107938073D01*
X111948798Y-108072353D01*
X112071070Y-108123000D01*
X110115936Y-108123000D01*
X110341533Y-107972261D01*
X110547261Y-107766533D01*
X110708901Y-107524622D01*
X110820240Y-107255825D01*
X110877000Y-106970472D01*
X110877000Y-106679528D01*
X110820240Y-106394175D01*
X110708901Y-106125378D01*
X110547261Y-105883467D01*
X110341533Y-105677739D01*
X110099622Y-105516099D01*
X109830825Y-105404760D01*
X109545472Y-105348000D01*
X109254528Y-105348000D01*
X108969175Y-105404760D01*
X108700378Y-105516099D01*
X108458467Y-105677739D01*
X108252739Y-105883467D01*
X108091099Y-106125378D01*
X107979760Y-106394175D01*
X107923000Y-106679528D01*
X107923000Y-106970472D01*
X107979760Y-107255825D01*
X108091099Y-107524622D01*
X108252739Y-107766533D01*
X108458467Y-107972261D01*
X108684064Y-108123000D01*
X106496642Y-108123000D01*
X106587903Y-108104847D01*
X106811202Y-108012353D01*
X107012167Y-107878073D01*
X107183073Y-107707167D01*
X107317353Y-107506202D01*
X107409847Y-107282903D01*
X107457000Y-107045849D01*
X107457000Y-106804151D01*
X107409847Y-106567097D01*
X107317353Y-106343798D01*
X107183073Y-106142833D01*
X107012167Y-105971927D01*
X106811202Y-105837647D01*
X106587903Y-105745153D01*
X106350849Y-105698000D01*
X106109151Y-105698000D01*
X105872097Y-105745153D01*
X105648798Y-105837647D01*
X105447833Y-105971927D01*
X105276927Y-106142833D01*
X105142647Y-106343798D01*
X105050153Y-106567097D01*
X105003000Y-106804151D01*
X105003000Y-107045849D01*
X105050153Y-107282903D01*
X105142647Y-107506202D01*
X105276927Y-107707167D01*
X105447833Y-107878073D01*
X105648798Y-108012353D01*
X105872097Y-108104847D01*
X105963358Y-108123000D01*
X102148689Y-108123000D01*
X102210463Y-108089981D01*
X102267869Y-108042869D01*
X102314981Y-107985463D01*
X102349988Y-107919970D01*
X102371545Y-107848905D01*
X102378824Y-107775000D01*
X102378824Y-106075000D01*
X102371545Y-106001095D01*
X102349988Y-105930030D01*
X102314981Y-105864537D01*
X102267869Y-105807131D01*
X102210463Y-105760019D01*
X102144970Y-105725012D01*
X102073905Y-105703455D01*
X102000000Y-105696176D01*
X100300000Y-105696176D01*
X100226095Y-105703455D01*
X100155030Y-105725012D01*
X100089537Y-105760019D01*
X100032131Y-105807131D01*
X99985019Y-105864537D01*
X99950012Y-105930030D01*
X99928455Y-106001095D01*
X99921176Y-106075000D01*
X99921176Y-107775000D01*
X99928455Y-107848905D01*
X99950012Y-107919970D01*
X99985019Y-107985463D01*
X100032131Y-108042869D01*
X100089537Y-108089981D01*
X100151311Y-108123000D01*
X98715936Y-108123000D01*
X98941533Y-107972261D01*
X99147261Y-107766533D01*
X99308901Y-107524622D01*
X99420240Y-107255825D01*
X99477000Y-106970472D01*
X99477000Y-106679528D01*
X99420240Y-106394175D01*
X99308901Y-106125378D01*
X99147261Y-105883467D01*
X98941533Y-105677739D01*
X98699622Y-105516099D01*
X98430825Y-105404760D01*
X98145472Y-105348000D01*
X97854528Y-105348000D01*
X97569175Y-105404760D01*
X97300378Y-105516099D01*
X97058467Y-105677739D01*
X96852739Y-105883467D01*
X96691099Y-106125378D01*
X96579760Y-106394175D01*
X96523000Y-106679528D01*
X96523000Y-106970472D01*
X96579760Y-107255825D01*
X96691099Y-107524622D01*
X96852739Y-107766533D01*
X97058467Y-107972261D01*
X97284064Y-108123000D01*
X95208930Y-108123000D01*
X95331202Y-108072353D01*
X95532167Y-107938073D01*
X95703073Y-107767167D01*
X95837353Y-107566202D01*
X95929847Y-107342903D01*
X95977000Y-107105849D01*
X95977000Y-106864151D01*
X95929847Y-106627097D01*
X95837353Y-106403798D01*
X95703073Y-106202833D01*
X95532167Y-106031927D01*
X95331202Y-105897647D01*
X95107903Y-105805153D01*
X94870849Y-105758000D01*
X94629151Y-105758000D01*
X94392097Y-105805153D01*
X94168798Y-105897647D01*
X93967833Y-106031927D01*
X93796927Y-106202833D01*
X93662647Y-106403798D01*
X93570153Y-106627097D01*
X93523000Y-106864151D01*
X93523000Y-107105849D01*
X93570153Y-107342903D01*
X93662647Y-107566202D01*
X93796927Y-107767167D01*
X93967833Y-107938073D01*
X94168798Y-108072353D01*
X94291070Y-108123000D01*
X93619665Y-108123000D01*
X93581337Y-108119242D01*
X93563391Y-108113824D01*
X93546834Y-108105021D01*
X93532305Y-108093171D01*
X93520352Y-108078722D01*
X93511433Y-108062227D01*
X93505890Y-108044319D01*
X93502000Y-108007308D01*
X93502000Y-104324151D01*
X93523000Y-104324151D01*
X93523000Y-104565849D01*
X93570153Y-104802903D01*
X93662647Y-105026202D01*
X93796927Y-105227167D01*
X93967833Y-105398073D01*
X94168798Y-105532353D01*
X94392097Y-105624847D01*
X94629151Y-105672000D01*
X94870849Y-105672000D01*
X95107903Y-105624847D01*
X95331202Y-105532353D01*
X95532167Y-105398073D01*
X95703073Y-105227167D01*
X95837353Y-105026202D01*
X95929847Y-104802903D01*
X95977000Y-104565849D01*
X95977000Y-104324151D01*
X111303000Y-104324151D01*
X111303000Y-104565849D01*
X111350153Y-104802903D01*
X111442647Y-105026202D01*
X111576927Y-105227167D01*
X111747833Y-105398073D01*
X111948798Y-105532353D01*
X112172097Y-105624847D01*
X112409151Y-105672000D01*
X112650849Y-105672000D01*
X112887903Y-105624847D01*
X113111202Y-105532353D01*
X113312167Y-105398073D01*
X113483073Y-105227167D01*
X113617353Y-105026202D01*
X113709847Y-104802903D01*
X113757000Y-104565849D01*
X113757000Y-104324151D01*
X113709847Y-104087097D01*
X113617353Y-103863798D01*
X113483073Y-103662833D01*
X113312167Y-103491927D01*
X113111202Y-103357647D01*
X112887903Y-103265153D01*
X112650849Y-103218000D01*
X112409151Y-103218000D01*
X112172097Y-103265153D01*
X111948798Y-103357647D01*
X111747833Y-103491927D01*
X111576927Y-103662833D01*
X111442647Y-103863798D01*
X111350153Y-104087097D01*
X111303000Y-104324151D01*
X95977000Y-104324151D01*
X95929847Y-104087097D01*
X95837353Y-103863798D01*
X95703073Y-103662833D01*
X95532167Y-103491927D01*
X95331202Y-103357647D01*
X95107903Y-103265153D01*
X94870849Y-103218000D01*
X94629151Y-103218000D01*
X94392097Y-103265153D01*
X94168798Y-103357647D01*
X93967833Y-103491927D01*
X93796927Y-103662833D01*
X93662647Y-103863798D01*
X93570153Y-104087097D01*
X93523000Y-104324151D01*
X93502000Y-104324151D01*
X93502000Y-99244151D01*
X93523000Y-99244151D01*
X93523000Y-99485849D01*
X93570153Y-99722903D01*
X93662647Y-99946202D01*
X93796927Y-100147167D01*
X93967833Y-100318073D01*
X94168798Y-100452353D01*
X94392097Y-100544847D01*
X94629151Y-100592000D01*
X94870849Y-100592000D01*
X95107903Y-100544847D01*
X95331202Y-100452353D01*
X95532167Y-100318073D01*
X95703073Y-100147167D01*
X95837353Y-99946202D01*
X95929847Y-99722903D01*
X95977000Y-99485849D01*
X95977000Y-99244151D01*
X111303000Y-99244151D01*
X111303000Y-99485849D01*
X111350153Y-99722903D01*
X111442647Y-99946202D01*
X111576927Y-100147167D01*
X111747833Y-100318073D01*
X111948798Y-100452353D01*
X112172097Y-100544847D01*
X112409151Y-100592000D01*
X112650849Y-100592000D01*
X112887903Y-100544847D01*
X113111202Y-100452353D01*
X113312167Y-100318073D01*
X113483073Y-100147167D01*
X113617353Y-99946202D01*
X113709847Y-99722903D01*
X113757000Y-99485849D01*
X113757000Y-99244151D01*
X113709847Y-99007097D01*
X113617353Y-98783798D01*
X113483073Y-98582833D01*
X113312167Y-98411927D01*
X113111202Y-98277647D01*
X112887903Y-98185153D01*
X112650849Y-98138000D01*
X112409151Y-98138000D01*
X112172097Y-98185153D01*
X111948798Y-98277647D01*
X111747833Y-98411927D01*
X111576927Y-98582833D01*
X111442647Y-98783798D01*
X111350153Y-99007097D01*
X111303000Y-99244151D01*
X95977000Y-99244151D01*
X95929847Y-99007097D01*
X95837353Y-98783798D01*
X95703073Y-98582833D01*
X95532167Y-98411927D01*
X95331202Y-98277647D01*
X95107903Y-98185153D01*
X94870849Y-98138000D01*
X94629151Y-98138000D01*
X94392097Y-98185153D01*
X94168798Y-98277647D01*
X93967833Y-98411927D01*
X93796927Y-98582833D01*
X93662647Y-98783798D01*
X93570153Y-99007097D01*
X93523000Y-99244151D01*
X93502000Y-99244151D01*
X93502000Y-96704151D01*
X93523000Y-96704151D01*
X93523000Y-96945849D01*
X93570153Y-97182903D01*
X93662647Y-97406202D01*
X93796927Y-97607167D01*
X93967833Y-97778073D01*
X94168798Y-97912353D01*
X94392097Y-98004847D01*
X94629151Y-98052000D01*
X94870849Y-98052000D01*
X95107903Y-98004847D01*
X95331202Y-97912353D01*
X95532167Y-97778073D01*
X95703073Y-97607167D01*
X95837353Y-97406202D01*
X95929847Y-97182903D01*
X95977000Y-96945849D01*
X95977000Y-96704151D01*
X111303000Y-96704151D01*
X111303000Y-96945849D01*
X111350153Y-97182903D01*
X111442647Y-97406202D01*
X111576927Y-97607167D01*
X111747833Y-97778073D01*
X111948798Y-97912353D01*
X112172097Y-98004847D01*
X112409151Y-98052000D01*
X112650849Y-98052000D01*
X112887903Y-98004847D01*
X113111202Y-97912353D01*
X113312167Y-97778073D01*
X113483073Y-97607167D01*
X113617353Y-97406202D01*
X113709847Y-97182903D01*
X113757000Y-96945849D01*
X113757000Y-96704151D01*
X113709847Y-96467097D01*
X113617353Y-96243798D01*
X113483073Y-96042833D01*
X113312167Y-95871927D01*
X113111202Y-95737647D01*
X112887903Y-95645153D01*
X112650849Y-95598000D01*
X112409151Y-95598000D01*
X112172097Y-95645153D01*
X111948798Y-95737647D01*
X111747833Y-95871927D01*
X111576927Y-96042833D01*
X111442647Y-96243798D01*
X111350153Y-96467097D01*
X111303000Y-96704151D01*
X95977000Y-96704151D01*
X95929847Y-96467097D01*
X95837353Y-96243798D01*
X95703073Y-96042833D01*
X95532167Y-95871927D01*
X95331202Y-95737647D01*
X95107903Y-95645153D01*
X94870849Y-95598000D01*
X94629151Y-95598000D01*
X94392097Y-95645153D01*
X94168798Y-95737647D01*
X93967833Y-95871927D01*
X93796927Y-96042833D01*
X93662647Y-96243798D01*
X93570153Y-96467097D01*
X93523000Y-96704151D01*
X93502000Y-96704151D01*
X93502000Y-94164151D01*
X93523000Y-94164151D01*
X93523000Y-94405849D01*
X93570153Y-94642903D01*
X93662647Y-94866202D01*
X93796927Y-95067167D01*
X93967833Y-95238073D01*
X94168798Y-95372353D01*
X94392097Y-95464847D01*
X94629151Y-95512000D01*
X94870849Y-95512000D01*
X95107903Y-95464847D01*
X95331202Y-95372353D01*
X95532167Y-95238073D01*
X95703073Y-95067167D01*
X95837353Y-94866202D01*
X95929847Y-94642903D01*
X95977000Y-94405849D01*
X95977000Y-94164151D01*
X95929847Y-93927097D01*
X95837353Y-93703798D01*
X95703073Y-93502833D01*
X95532167Y-93331927D01*
X95331202Y-93197647D01*
X95107903Y-93105153D01*
X94870849Y-93058000D01*
X94629151Y-93058000D01*
X94392097Y-93105153D01*
X94168798Y-93197647D01*
X93967833Y-93331927D01*
X93796927Y-93502833D01*
X93662647Y-93703798D01*
X93570153Y-93927097D01*
X93523000Y-94164151D01*
X93502000Y-94164151D01*
X93502000Y-91624151D01*
X93523000Y-91624151D01*
X93523000Y-91865849D01*
X93570153Y-92102903D01*
X93662647Y-92326202D01*
X93796927Y-92527167D01*
X93967833Y-92698073D01*
X94168798Y-92832353D01*
X94392097Y-92924847D01*
X94629151Y-92972000D01*
X94870849Y-92972000D01*
X95107903Y-92924847D01*
X95268510Y-92858321D01*
X98023000Y-92858321D01*
X98023000Y-92991679D01*
X98049016Y-93122474D01*
X98100050Y-93245680D01*
X98174140Y-93356563D01*
X98268437Y-93450860D01*
X98379320Y-93524950D01*
X98502526Y-93575984D01*
X98633321Y-93602000D01*
X98766679Y-93602000D01*
X98897474Y-93575984D01*
X99020680Y-93524950D01*
X99131563Y-93450860D01*
X99205423Y-93377000D01*
X102912777Y-93377000D01*
X103023000Y-93487224D01*
X103023000Y-93591679D01*
X103049016Y-93722474D01*
X103100050Y-93845680D01*
X103174140Y-93956563D01*
X103268437Y-94050860D01*
X103379320Y-94124950D01*
X103502526Y-94175984D01*
X103633321Y-94202000D01*
X103766679Y-94202000D01*
X103897474Y-94175984D01*
X103926041Y-94164151D01*
X111303000Y-94164151D01*
X111303000Y-94405849D01*
X111350153Y-94642903D01*
X111442647Y-94866202D01*
X111576927Y-95067167D01*
X111747833Y-95238073D01*
X111948798Y-95372353D01*
X112172097Y-95464847D01*
X112409151Y-95512000D01*
X112650849Y-95512000D01*
X112887903Y-95464847D01*
X113111202Y-95372353D01*
X113312167Y-95238073D01*
X113483073Y-95067167D01*
X113617353Y-94866202D01*
X113709847Y-94642903D01*
X113757000Y-94405849D01*
X113757000Y-94164151D01*
X113709847Y-93927097D01*
X113617353Y-93703798D01*
X113483073Y-93502833D01*
X113312167Y-93331927D01*
X113111202Y-93197647D01*
X112887903Y-93105153D01*
X112650849Y-93058000D01*
X112409151Y-93058000D01*
X112172097Y-93105153D01*
X111948798Y-93197647D01*
X111747833Y-93331927D01*
X111576927Y-93502833D01*
X111442647Y-93703798D01*
X111350153Y-93927097D01*
X111303000Y-94164151D01*
X103926041Y-94164151D01*
X104020680Y-94124950D01*
X104131563Y-94050860D01*
X104225860Y-93956563D01*
X104299950Y-93845680D01*
X104350984Y-93722474D01*
X104377000Y-93591679D01*
X104377000Y-93458321D01*
X104350984Y-93327526D01*
X104299950Y-93204320D01*
X104225860Y-93093437D01*
X104131563Y-92999140D01*
X104020680Y-92925050D01*
X103897474Y-92874016D01*
X103766679Y-92848000D01*
X103662224Y-92848000D01*
X103435323Y-92621100D01*
X103421159Y-92603841D01*
X103352333Y-92547357D01*
X103273810Y-92505386D01*
X103188607Y-92479540D01*
X103122205Y-92473000D01*
X103100000Y-92470813D01*
X103077795Y-92473000D01*
X99205423Y-92473000D01*
X99131563Y-92399140D01*
X99020680Y-92325050D01*
X98897474Y-92274016D01*
X98766679Y-92248000D01*
X98633321Y-92248000D01*
X98502526Y-92274016D01*
X98379320Y-92325050D01*
X98268437Y-92399140D01*
X98174140Y-92493437D01*
X98100050Y-92604320D01*
X98049016Y-92727526D01*
X98023000Y-92858321D01*
X95268510Y-92858321D01*
X95331202Y-92832353D01*
X95532167Y-92698073D01*
X95703073Y-92527167D01*
X95837353Y-92326202D01*
X95929847Y-92102903D01*
X95977000Y-91865849D01*
X95977000Y-91624151D01*
X95929847Y-91387097D01*
X95837353Y-91163798D01*
X95703073Y-90962833D01*
X95553838Y-90813598D01*
X103607269Y-90813598D01*
X103607269Y-90946956D01*
X103633285Y-91077751D01*
X103684319Y-91200957D01*
X103758409Y-91311840D01*
X103852706Y-91406137D01*
X103963589Y-91480227D01*
X104086795Y-91531261D01*
X104217590Y-91557277D01*
X104350948Y-91557277D01*
X104481743Y-91531261D01*
X104604949Y-91480227D01*
X104715832Y-91406137D01*
X104810129Y-91311840D01*
X104884219Y-91200957D01*
X104935253Y-91077751D01*
X104961269Y-90946956D01*
X104961269Y-90813598D01*
X104935253Y-90682803D01*
X104884219Y-90559597D01*
X104810129Y-90448714D01*
X104736269Y-90374854D01*
X104736269Y-88674443D01*
X104771563Y-88650860D01*
X104865860Y-88556563D01*
X104939950Y-88445680D01*
X104990984Y-88322474D01*
X105017000Y-88191679D01*
X105017000Y-88058321D01*
X104990984Y-87927526D01*
X104939950Y-87804320D01*
X104865860Y-87693437D01*
X104771563Y-87599140D01*
X104660680Y-87525050D01*
X104537474Y-87474016D01*
X104406679Y-87448000D01*
X104273321Y-87448000D01*
X104142526Y-87474016D01*
X104019320Y-87525050D01*
X103908437Y-87599140D01*
X103814140Y-87693437D01*
X103740050Y-87804320D01*
X103689016Y-87927526D01*
X103663000Y-88058321D01*
X103663000Y-88191679D01*
X103689016Y-88322474D01*
X103740050Y-88445680D01*
X103814140Y-88556563D01*
X103832269Y-88574692D01*
X103832270Y-90374853D01*
X103758409Y-90448714D01*
X103684319Y-90559597D01*
X103633285Y-90682803D01*
X103607269Y-90813598D01*
X95553838Y-90813598D01*
X95532167Y-90791927D01*
X95331202Y-90657647D01*
X95107903Y-90565153D01*
X94870849Y-90518000D01*
X94629151Y-90518000D01*
X94392097Y-90565153D01*
X94168798Y-90657647D01*
X93967833Y-90791927D01*
X93796927Y-90962833D01*
X93662647Y-91163798D01*
X93570153Y-91387097D01*
X93523000Y-91624151D01*
X93502000Y-91624151D01*
X93502000Y-86544151D01*
X93523000Y-86544151D01*
X93523000Y-86785849D01*
X93570153Y-87022903D01*
X93662647Y-87246202D01*
X93796927Y-87447167D01*
X93967833Y-87618073D01*
X94168798Y-87752353D01*
X94392097Y-87844847D01*
X94629151Y-87892000D01*
X94870849Y-87892000D01*
X95107903Y-87844847D01*
X95331202Y-87752353D01*
X95532167Y-87618073D01*
X95703073Y-87447167D01*
X95837353Y-87246202D01*
X95929847Y-87022903D01*
X95977000Y-86785849D01*
X95977000Y-86544151D01*
X95929847Y-86307097D01*
X95837353Y-86083798D01*
X95703073Y-85882833D01*
X95532167Y-85711927D01*
X95331202Y-85577647D01*
X95107903Y-85485153D01*
X94870849Y-85438000D01*
X94629151Y-85438000D01*
X94392097Y-85485153D01*
X94168798Y-85577647D01*
X93967833Y-85711927D01*
X93796927Y-85882833D01*
X93662647Y-86083798D01*
X93570153Y-86307097D01*
X93523000Y-86544151D01*
X93502000Y-86544151D01*
X93502000Y-84004151D01*
X93523000Y-84004151D01*
X93523000Y-84245849D01*
X93570153Y-84482903D01*
X93662647Y-84706202D01*
X93796927Y-84907167D01*
X93967833Y-85078073D01*
X94168798Y-85212353D01*
X94392097Y-85304847D01*
X94629151Y-85352000D01*
X94870849Y-85352000D01*
X95107903Y-85304847D01*
X95331202Y-85212353D01*
X95532167Y-85078073D01*
X95703073Y-84907167D01*
X95837353Y-84706202D01*
X95929847Y-84482903D01*
X95977000Y-84245849D01*
X95977000Y-84004151D01*
X95929847Y-83767097D01*
X95837353Y-83543798D01*
X95703073Y-83342833D01*
X95532167Y-83171927D01*
X95331202Y-83037647D01*
X95107903Y-82945153D01*
X94870849Y-82898000D01*
X94629151Y-82898000D01*
X94392097Y-82945153D01*
X94168798Y-83037647D01*
X93967833Y-83171927D01*
X93796927Y-83342833D01*
X93662647Y-83543798D01*
X93570153Y-83767097D01*
X93523000Y-84004151D01*
X93502000Y-84004151D01*
X93502000Y-81464151D01*
X93523000Y-81464151D01*
X93523000Y-81705849D01*
X93570153Y-81942903D01*
X93662647Y-82166202D01*
X93796927Y-82367167D01*
X93967833Y-82538073D01*
X94168798Y-82672353D01*
X94392097Y-82764847D01*
X94629151Y-82812000D01*
X94870849Y-82812000D01*
X95107903Y-82764847D01*
X95331202Y-82672353D01*
X95532167Y-82538073D01*
X95703073Y-82367167D01*
X95837353Y-82166202D01*
X95929847Y-81942903D01*
X95977000Y-81705849D01*
X95977000Y-81464151D01*
X95929847Y-81227097D01*
X95837353Y-81003798D01*
X95703073Y-80802833D01*
X95532167Y-80631927D01*
X95331202Y-80497647D01*
X95107903Y-80405153D01*
X94870849Y-80358000D01*
X94629151Y-80358000D01*
X94392097Y-80405153D01*
X94168798Y-80497647D01*
X93967833Y-80631927D01*
X93796927Y-80802833D01*
X93662647Y-81003798D01*
X93570153Y-81227097D01*
X93523000Y-81464151D01*
X93502000Y-81464151D01*
X93502000Y-68764151D01*
X93523000Y-68764151D01*
X93523000Y-69005849D01*
X93570153Y-69242903D01*
X93662647Y-69466202D01*
X93796927Y-69667167D01*
X93967833Y-69838073D01*
X94168798Y-69972353D01*
X94392097Y-70064847D01*
X94629151Y-70112000D01*
X94870849Y-70112000D01*
X95107903Y-70064847D01*
X95237106Y-70011329D01*
X99117989Y-73892213D01*
X99117989Y-73951684D01*
X96287404Y-71121100D01*
X96273240Y-71103841D01*
X96204414Y-71047357D01*
X96125891Y-71005386D01*
X96040688Y-70979540D01*
X95974286Y-70973000D01*
X95952081Y-70970813D01*
X95929876Y-70973000D01*
X95890871Y-70973000D01*
X95837353Y-70843798D01*
X95703073Y-70642833D01*
X95532167Y-70471927D01*
X95331202Y-70337647D01*
X95107903Y-70245153D01*
X94870849Y-70198000D01*
X94629151Y-70198000D01*
X94392097Y-70245153D01*
X94168798Y-70337647D01*
X93967833Y-70471927D01*
X93796927Y-70642833D01*
X93662647Y-70843798D01*
X93570153Y-71067097D01*
X93523000Y-71304151D01*
X93523000Y-71545849D01*
X93570153Y-71782903D01*
X93662647Y-72006202D01*
X93796927Y-72207167D01*
X93967833Y-72378073D01*
X94168798Y-72512353D01*
X94392097Y-72604847D01*
X94629151Y-72652000D01*
X94870849Y-72652000D01*
X95107903Y-72604847D01*
X95331202Y-72512353D01*
X95532167Y-72378073D01*
X95703073Y-72207167D01*
X95837353Y-72006202D01*
X95853962Y-71966104D01*
X98817979Y-74930122D01*
X98817979Y-75238754D01*
X97280323Y-73701100D01*
X97266159Y-73683841D01*
X97197333Y-73627357D01*
X97118810Y-73585386D01*
X97033607Y-73559540D01*
X96967205Y-73553000D01*
X96945000Y-73550813D01*
X96922795Y-73553000D01*
X95907439Y-73553000D01*
X95837353Y-73383798D01*
X95703073Y-73182833D01*
X95532167Y-73011927D01*
X95331202Y-72877647D01*
X95107903Y-72785153D01*
X94870849Y-72738000D01*
X94629151Y-72738000D01*
X94392097Y-72785153D01*
X94168798Y-72877647D01*
X93967833Y-73011927D01*
X93796927Y-73182833D01*
X93662647Y-73383798D01*
X93570153Y-73607097D01*
X93523000Y-73844151D01*
X93523000Y-74085849D01*
X93570153Y-74322903D01*
X93662647Y-74546202D01*
X93796927Y-74747167D01*
X93967833Y-74918073D01*
X94168798Y-75052353D01*
X94392097Y-75144847D01*
X94629151Y-75192000D01*
X94870849Y-75192000D01*
X95107903Y-75144847D01*
X95331202Y-75052353D01*
X95532167Y-74918073D01*
X95703073Y-74747167D01*
X95837353Y-74546202D01*
X95874302Y-74457000D01*
X96757777Y-74457000D01*
X98508001Y-76207226D01*
X98508000Y-82826495D01*
X97513034Y-83821462D01*
X97495780Y-83835622D01*
X97443924Y-83898809D01*
X97439296Y-83904448D01*
X97397324Y-83982972D01*
X97371478Y-84068174D01*
X97362751Y-84156781D01*
X97364939Y-84178996D01*
X97364938Y-85207681D01*
X97350984Y-85137526D01*
X97299950Y-85014320D01*
X97225860Y-84903437D01*
X97152000Y-84829577D01*
X97152000Y-80097202D01*
X97154187Y-80074999D01*
X97146610Y-79998073D01*
X97145460Y-79986393D01*
X97119614Y-79901190D01*
X97077643Y-79822667D01*
X97021159Y-79753841D01*
X97003911Y-79739687D01*
X96045323Y-78781100D01*
X96031159Y-78763841D01*
X95962333Y-78707357D01*
X95930492Y-78690338D01*
X95929847Y-78687097D01*
X95837353Y-78463798D01*
X95703073Y-78262833D01*
X95532167Y-78091927D01*
X95331202Y-77957647D01*
X95107903Y-77865153D01*
X94870849Y-77818000D01*
X94629151Y-77818000D01*
X94392097Y-77865153D01*
X94168798Y-77957647D01*
X93967833Y-78091927D01*
X93796927Y-78262833D01*
X93662647Y-78463798D01*
X93570153Y-78687097D01*
X93523000Y-78924151D01*
X93523000Y-79165849D01*
X93570153Y-79402903D01*
X93662647Y-79626202D01*
X93796927Y-79827167D01*
X93967833Y-79998073D01*
X94168798Y-80132353D01*
X94392097Y-80224847D01*
X94629151Y-80272000D01*
X94870849Y-80272000D01*
X95107903Y-80224847D01*
X95331202Y-80132353D01*
X95532167Y-79998073D01*
X95703073Y-79827167D01*
X95747081Y-79761304D01*
X96248000Y-80262225D01*
X96248001Y-84829576D01*
X96174140Y-84903437D01*
X96100050Y-85014320D01*
X96049016Y-85137526D01*
X96023000Y-85268321D01*
X96023000Y-85401679D01*
X96049016Y-85532474D01*
X96100050Y-85655680D01*
X96174140Y-85766563D01*
X96268437Y-85860860D01*
X96379320Y-85934950D01*
X96502526Y-85985984D01*
X96633321Y-86012000D01*
X96766679Y-86012000D01*
X96897474Y-85985984D01*
X97020680Y-85934950D01*
X97131563Y-85860860D01*
X97150857Y-85841566D01*
X97165954Y-85917467D01*
X97216988Y-86040673D01*
X97291078Y-86151556D01*
X97385375Y-86245853D01*
X97496258Y-86319943D01*
X97619464Y-86370977D01*
X97750259Y-86396993D01*
X97883617Y-86396993D01*
X98014412Y-86370977D01*
X98137618Y-86319943D01*
X98248501Y-86245853D01*
X98342798Y-86151556D01*
X98416888Y-86040673D01*
X98458975Y-85939067D01*
X98477605Y-85939067D01*
X98608400Y-85913051D01*
X98731606Y-85862017D01*
X98842489Y-85787927D01*
X98936786Y-85693630D01*
X99010876Y-85582747D01*
X99061910Y-85459541D01*
X99087926Y-85328746D01*
X99087926Y-85195388D01*
X99062978Y-85069960D01*
X99091563Y-85050860D01*
X99185860Y-84956563D01*
X99259950Y-84845680D01*
X99310984Y-84722474D01*
X99337000Y-84591679D01*
X99337000Y-84487223D01*
X99873894Y-83950330D01*
X99891148Y-83936170D01*
X99947632Y-83867344D01*
X99989603Y-83788821D01*
X100009324Y-83723809D01*
X100015449Y-83703619D01*
X100024176Y-83615011D01*
X100021989Y-83592806D01*
X100021989Y-82995657D01*
X100065026Y-83013484D01*
X100195821Y-83039500D01*
X100329179Y-83039500D01*
X100459974Y-83013484D01*
X100583180Y-82962450D01*
X100694063Y-82888360D01*
X100788360Y-82794063D01*
X100862450Y-82683180D01*
X100913484Y-82559974D01*
X100939500Y-82429179D01*
X100939500Y-82295821D01*
X100913484Y-82165026D01*
X100862450Y-82041820D01*
X100788360Y-81930937D01*
X100694063Y-81836640D01*
X100583180Y-81762550D01*
X100459974Y-81711516D01*
X100329179Y-81685500D01*
X100322000Y-81685500D01*
X100322000Y-81458321D01*
X103123000Y-81458321D01*
X103123000Y-81591679D01*
X103149016Y-81722474D01*
X103200050Y-81845680D01*
X103274140Y-81956563D01*
X103348001Y-82030424D01*
X103348000Y-83062795D01*
X103345813Y-83085000D01*
X103354540Y-83173607D01*
X103371296Y-83228842D01*
X103380386Y-83258809D01*
X103422357Y-83337332D01*
X103478841Y-83406159D01*
X103496100Y-83420323D01*
X104329681Y-84253905D01*
X104343841Y-84271159D01*
X104412667Y-84327643D01*
X104491190Y-84369614D01*
X104576392Y-84395460D01*
X104665000Y-84404187D01*
X104687205Y-84402000D01*
X104817795Y-84402000D01*
X104840000Y-84404187D01*
X104862205Y-84402000D01*
X105131679Y-84402000D01*
X105262474Y-84375984D01*
X105385680Y-84324950D01*
X105496563Y-84250860D01*
X105590860Y-84156563D01*
X105664950Y-84045680D01*
X105697765Y-83966459D01*
X105778905Y-83885318D01*
X105796159Y-83871159D01*
X105852643Y-83802333D01*
X105894614Y-83723810D01*
X105918190Y-83646090D01*
X105920460Y-83638608D01*
X105929187Y-83550001D01*
X105927000Y-83527796D01*
X105927000Y-81912224D01*
X106037224Y-81802000D01*
X106419577Y-81802000D01*
X106493437Y-81875860D01*
X106604320Y-81949950D01*
X106727526Y-82000984D01*
X106858321Y-82027000D01*
X106991679Y-82027000D01*
X107122474Y-82000984D01*
X107245680Y-81949950D01*
X107356563Y-81875860D01*
X107450860Y-81781563D01*
X107524950Y-81670680D01*
X107575984Y-81547474D01*
X107602000Y-81416679D01*
X107602000Y-81283321D01*
X107575984Y-81152526D01*
X107524950Y-81029320D01*
X107450860Y-80918437D01*
X107356563Y-80824140D01*
X107245680Y-80750050D01*
X107122474Y-80699016D01*
X106991679Y-80673000D01*
X106858321Y-80673000D01*
X106727526Y-80699016D01*
X106604320Y-80750050D01*
X106493437Y-80824140D01*
X106419577Y-80898000D01*
X105872204Y-80898000D01*
X105849999Y-80895813D01*
X105761392Y-80904540D01*
X105693780Y-80925050D01*
X105676190Y-80930386D01*
X105597667Y-80972357D01*
X105528841Y-81028841D01*
X105514685Y-81046090D01*
X105171095Y-81389682D01*
X105153842Y-81403841D01*
X105104347Y-81464151D01*
X105097358Y-81472667D01*
X105055386Y-81551191D01*
X105029540Y-81636393D01*
X105020813Y-81725000D01*
X105023001Y-81747215D01*
X105023000Y-83048000D01*
X104998321Y-83048000D01*
X104867526Y-83074016D01*
X104744320Y-83125050D01*
X104633437Y-83199140D01*
X104593400Y-83239177D01*
X104252000Y-82897777D01*
X104252000Y-82030423D01*
X104325860Y-81956563D01*
X104399950Y-81845680D01*
X104450984Y-81722474D01*
X104477000Y-81591679D01*
X104477000Y-81458321D01*
X104450984Y-81327526D01*
X104399950Y-81204320D01*
X104325860Y-81093437D01*
X104231563Y-80999140D01*
X104120680Y-80925050D01*
X103997474Y-80874016D01*
X103866679Y-80848000D01*
X103733321Y-80848000D01*
X103602526Y-80874016D01*
X103479320Y-80925050D01*
X103368437Y-80999140D01*
X103274140Y-81093437D01*
X103200050Y-81204320D01*
X103149016Y-81327526D01*
X103123000Y-81458321D01*
X100322000Y-81458321D01*
X100322000Y-77458321D01*
X103448000Y-77458321D01*
X103448000Y-77591679D01*
X103474016Y-77722474D01*
X103525050Y-77845680D01*
X103599140Y-77956563D01*
X103693437Y-78050860D01*
X103804320Y-78124950D01*
X103927526Y-78175984D01*
X104058321Y-78202000D01*
X104191679Y-78202000D01*
X104322474Y-78175984D01*
X104445680Y-78124950D01*
X104556563Y-78050860D01*
X104630423Y-77977000D01*
X107604571Y-77977000D01*
X107678431Y-78050860D01*
X107789314Y-78124950D01*
X107912520Y-78175984D01*
X108043315Y-78202000D01*
X108176673Y-78202000D01*
X108307468Y-78175984D01*
X108430674Y-78124950D01*
X108541557Y-78050860D01*
X108635854Y-77956563D01*
X108709944Y-77845680D01*
X108760978Y-77722474D01*
X108786994Y-77591679D01*
X108786994Y-77458321D01*
X108760978Y-77327526D01*
X108709944Y-77204320D01*
X108635854Y-77093437D01*
X108541557Y-76999140D01*
X108430674Y-76925050D01*
X108307468Y-76874016D01*
X108176673Y-76848000D01*
X108043315Y-76848000D01*
X107912520Y-76874016D01*
X107789314Y-76925050D01*
X107678431Y-76999140D01*
X107604571Y-77073000D01*
X104630423Y-77073000D01*
X104556563Y-76999140D01*
X104445680Y-76925050D01*
X104322474Y-76874016D01*
X104191679Y-76848000D01*
X104058321Y-76848000D01*
X103927526Y-76874016D01*
X103804320Y-76925050D01*
X103693437Y-76999140D01*
X103599140Y-77093437D01*
X103525050Y-77204320D01*
X103474016Y-77327526D01*
X103448000Y-77458321D01*
X100322000Y-77458321D01*
X100322000Y-71472578D01*
X100329950Y-71460680D01*
X100380984Y-71337474D01*
X100407000Y-71206679D01*
X100407000Y-71073321D01*
X100380984Y-70942526D01*
X100329950Y-70819320D01*
X100255860Y-70708437D01*
X100161563Y-70614140D01*
X100050680Y-70540050D01*
X99927474Y-70489016D01*
X99796679Y-70463000D01*
X99663321Y-70463000D01*
X99532526Y-70489016D01*
X99409320Y-70540050D01*
X99298437Y-70614140D01*
X99204140Y-70708437D01*
X99130050Y-70819320D01*
X99079016Y-70942526D01*
X99053000Y-71073321D01*
X99053000Y-71206679D01*
X99079016Y-71337474D01*
X99130050Y-71460680D01*
X99204140Y-71571563D01*
X99298437Y-71665860D01*
X99409320Y-71739950D01*
X99418001Y-71743546D01*
X99418001Y-72913777D01*
X95876329Y-69372106D01*
X95929847Y-69242903D01*
X95977000Y-69005849D01*
X95977000Y-68764151D01*
X95929847Y-68527097D01*
X95837353Y-68303798D01*
X95703073Y-68102833D01*
X95532167Y-67931927D01*
X95331202Y-67797647D01*
X95107903Y-67705153D01*
X94870849Y-67658000D01*
X94629151Y-67658000D01*
X94392097Y-67705153D01*
X94168798Y-67797647D01*
X93967833Y-67931927D01*
X93796927Y-68102833D01*
X93662647Y-68303798D01*
X93570153Y-68527097D01*
X93523000Y-68764151D01*
X93502000Y-68764151D01*
X93502000Y-66224151D01*
X93523000Y-66224151D01*
X93523000Y-66465849D01*
X93570153Y-66702903D01*
X93662647Y-66926202D01*
X93796927Y-67127167D01*
X93967833Y-67298073D01*
X94168798Y-67432353D01*
X94392097Y-67524847D01*
X94629151Y-67572000D01*
X94870849Y-67572000D01*
X95107903Y-67524847D01*
X95331202Y-67432353D01*
X95532167Y-67298073D01*
X95703073Y-67127167D01*
X95837353Y-66926202D01*
X95929847Y-66702903D01*
X95977000Y-66465849D01*
X95977000Y-66224151D01*
X95929847Y-65987097D01*
X95837353Y-65763798D01*
X95703073Y-65562833D01*
X95532167Y-65391927D01*
X95331202Y-65257647D01*
X95107903Y-65165153D01*
X94870849Y-65118000D01*
X94629151Y-65118000D01*
X94392097Y-65165153D01*
X94168798Y-65257647D01*
X93967833Y-65391927D01*
X93796927Y-65562833D01*
X93662647Y-65763798D01*
X93570153Y-65987097D01*
X93523000Y-66224151D01*
X93502000Y-66224151D01*
X93502000Y-64583321D01*
X97223000Y-64583321D01*
X97223000Y-64716679D01*
X97249016Y-64847474D01*
X97300050Y-64970680D01*
X97374140Y-65081563D01*
X97468437Y-65175860D01*
X97579320Y-65249950D01*
X97702526Y-65300984D01*
X97833321Y-65327000D01*
X97937776Y-65327000D01*
X98164685Y-65553910D01*
X98178841Y-65571159D01*
X98247667Y-65627643D01*
X98314952Y-65663607D01*
X98326190Y-65669614D01*
X98411392Y-65695460D01*
X98499999Y-65704187D01*
X98522204Y-65702000D01*
X101012776Y-65702000D01*
X101073001Y-65762225D01*
X101073000Y-66862776D01*
X100958595Y-66977182D01*
X100941342Y-66991341D01*
X100894179Y-67048809D01*
X100884858Y-67060167D01*
X100842886Y-67138691D01*
X100817040Y-67223893D01*
X100808313Y-67312500D01*
X100810501Y-67334714D01*
X100810500Y-67810294D01*
X100808313Y-67832500D01*
X100817040Y-67921107D01*
X100831157Y-67967643D01*
X100842886Y-68006309D01*
X100850505Y-68020564D01*
X100779320Y-68050050D01*
X100668437Y-68124140D01*
X100574140Y-68218437D01*
X100500050Y-68329320D01*
X100449016Y-68452526D01*
X100423000Y-68583321D01*
X100423000Y-68716679D01*
X100449016Y-68847474D01*
X100500050Y-68970680D01*
X100574140Y-69081563D01*
X100668437Y-69175860D01*
X100779320Y-69249950D01*
X100902526Y-69300984D01*
X101033321Y-69327000D01*
X101137775Y-69327000D01*
X101219685Y-69408910D01*
X101233841Y-69426159D01*
X101302667Y-69482643D01*
X101363789Y-69515313D01*
X101381190Y-69524614D01*
X101466392Y-69550460D01*
X101554999Y-69559187D01*
X101577204Y-69557000D01*
X102413776Y-69557000D01*
X101996100Y-69974677D01*
X101978841Y-69988841D01*
X101922358Y-70057667D01*
X101880386Y-70136191D01*
X101854540Y-70221393D01*
X101845813Y-70310000D01*
X101848000Y-70332205D01*
X101848001Y-71919576D01*
X101774140Y-71993437D01*
X101700050Y-72104320D01*
X101649016Y-72227526D01*
X101623000Y-72358321D01*
X101623000Y-72491679D01*
X101649016Y-72622474D01*
X101700050Y-72745680D01*
X101774140Y-72856563D01*
X101868437Y-72950860D01*
X101979320Y-73024950D01*
X102102526Y-73075984D01*
X102233321Y-73102000D01*
X102366679Y-73102000D01*
X102497474Y-73075984D01*
X102620680Y-73024950D01*
X102731563Y-72950860D01*
X102825860Y-72856563D01*
X102899950Y-72745680D01*
X102950984Y-72622474D01*
X102977000Y-72491679D01*
X102977000Y-72358321D01*
X102950984Y-72227526D01*
X102899950Y-72104320D01*
X102825860Y-71993437D01*
X102752000Y-71919577D01*
X102752000Y-70497223D01*
X103808912Y-69440313D01*
X103826159Y-69426159D01*
X103840323Y-69408900D01*
X104347224Y-68902000D01*
X105532777Y-68902000D01*
X105883000Y-69252224D01*
X105883000Y-69356679D01*
X105909016Y-69487474D01*
X105960050Y-69610680D01*
X106034140Y-69721563D01*
X106128437Y-69815860D01*
X106239320Y-69889950D01*
X106362526Y-69940984D01*
X106493321Y-69967000D01*
X106626679Y-69967000D01*
X106757474Y-69940984D01*
X106828001Y-69911771D01*
X106828000Y-72757795D01*
X106825813Y-72780000D01*
X106834540Y-72868607D01*
X106851286Y-72923810D01*
X106860386Y-72953809D01*
X106902357Y-73032332D01*
X106958841Y-73101159D01*
X106976100Y-73115323D01*
X109998001Y-76137225D01*
X109998000Y-84244624D01*
X109974016Y-84302526D01*
X109948000Y-84433321D01*
X109948000Y-84566679D01*
X109974016Y-84697474D01*
X110025050Y-84820680D01*
X110099140Y-84931563D01*
X110193437Y-85025860D01*
X110304320Y-85099950D01*
X110346557Y-85117445D01*
X110345813Y-85125000D01*
X110348001Y-85147215D01*
X110348000Y-88837775D01*
X107637777Y-91548000D01*
X107533321Y-91548000D01*
X107402526Y-91574016D01*
X107279320Y-91625050D01*
X107168437Y-91699140D01*
X107074140Y-91793437D01*
X107000050Y-91904320D01*
X106949016Y-92027526D01*
X106923000Y-92158321D01*
X106923000Y-92291679D01*
X106949016Y-92422474D01*
X107000050Y-92545680D01*
X107074140Y-92656563D01*
X107168437Y-92750860D01*
X107279320Y-92824950D01*
X107402526Y-92875984D01*
X107533321Y-92902000D01*
X107666679Y-92902000D01*
X107797474Y-92875984D01*
X107920680Y-92824950D01*
X108031563Y-92750860D01*
X108125860Y-92656563D01*
X108199950Y-92545680D01*
X108250984Y-92422474D01*
X108277000Y-92291679D01*
X108277000Y-92187223D01*
X108840072Y-91624151D01*
X111303000Y-91624151D01*
X111303000Y-91865849D01*
X111350153Y-92102903D01*
X111442647Y-92326202D01*
X111576927Y-92527167D01*
X111747833Y-92698073D01*
X111948798Y-92832353D01*
X112172097Y-92924847D01*
X112409151Y-92972000D01*
X112650849Y-92972000D01*
X112887903Y-92924847D01*
X113111202Y-92832353D01*
X113312167Y-92698073D01*
X113483073Y-92527167D01*
X113617353Y-92326202D01*
X113709847Y-92102903D01*
X113757000Y-91865849D01*
X113757000Y-91624151D01*
X113709847Y-91387097D01*
X113617353Y-91163798D01*
X113483073Y-90962833D01*
X113312167Y-90791927D01*
X113111202Y-90657647D01*
X112887903Y-90565153D01*
X112650849Y-90518000D01*
X112409151Y-90518000D01*
X112172097Y-90565153D01*
X111948798Y-90657647D01*
X111747833Y-90791927D01*
X111576927Y-90962833D01*
X111442647Y-91163798D01*
X111350153Y-91387097D01*
X111303000Y-91624151D01*
X108840072Y-91624151D01*
X111103912Y-89360313D01*
X111121159Y-89346159D01*
X111177643Y-89277333D01*
X111219614Y-89198810D01*
X111245460Y-89113607D01*
X111252000Y-89047205D01*
X111252000Y-89047204D01*
X111254187Y-89025001D01*
X111252000Y-89002796D01*
X111252000Y-86544151D01*
X111303000Y-86544151D01*
X111303000Y-86785849D01*
X111350153Y-87022903D01*
X111442647Y-87246202D01*
X111576927Y-87447167D01*
X111747833Y-87618073D01*
X111948798Y-87752353D01*
X112172097Y-87844847D01*
X112409151Y-87892000D01*
X112650849Y-87892000D01*
X112887903Y-87844847D01*
X113111202Y-87752353D01*
X113312167Y-87618073D01*
X113483073Y-87447167D01*
X113617353Y-87246202D01*
X113709847Y-87022903D01*
X113757000Y-86785849D01*
X113757000Y-86544151D01*
X113709847Y-86307097D01*
X113617353Y-86083798D01*
X113483073Y-85882833D01*
X113312167Y-85711927D01*
X113111202Y-85577647D01*
X112887903Y-85485153D01*
X112650849Y-85438000D01*
X112409151Y-85438000D01*
X112172097Y-85485153D01*
X111948798Y-85577647D01*
X111747833Y-85711927D01*
X111576927Y-85882833D01*
X111442647Y-86083798D01*
X111350153Y-86307097D01*
X111303000Y-86544151D01*
X111252000Y-86544151D01*
X111252000Y-85312223D01*
X111616992Y-84947232D01*
X111747833Y-85078073D01*
X111948798Y-85212353D01*
X112172097Y-85304847D01*
X112409151Y-85352000D01*
X112650849Y-85352000D01*
X112887903Y-85304847D01*
X113111202Y-85212353D01*
X113312167Y-85078073D01*
X113483073Y-84907167D01*
X113617353Y-84706202D01*
X113709847Y-84482903D01*
X113757000Y-84245849D01*
X113757000Y-84004151D01*
X113709847Y-83767097D01*
X113617353Y-83543798D01*
X113483073Y-83342833D01*
X113312167Y-83171927D01*
X113111202Y-83037647D01*
X112887903Y-82945153D01*
X112650849Y-82898000D01*
X112409151Y-82898000D01*
X112172097Y-82945153D01*
X111948798Y-83037647D01*
X111747833Y-83171927D01*
X111576927Y-83342833D01*
X111442647Y-83543798D01*
X111350153Y-83767097D01*
X111308307Y-83977469D01*
X111177488Y-84108288D01*
X111150860Y-84068437D01*
X111056563Y-83974140D01*
X110945680Y-83900050D01*
X110902000Y-83881957D01*
X110902000Y-81464151D01*
X111303000Y-81464151D01*
X111303000Y-81705849D01*
X111350153Y-81942903D01*
X111442647Y-82166202D01*
X111576927Y-82367167D01*
X111747833Y-82538073D01*
X111948798Y-82672353D01*
X112172097Y-82764847D01*
X112409151Y-82812000D01*
X112650849Y-82812000D01*
X112887903Y-82764847D01*
X113111202Y-82672353D01*
X113312167Y-82538073D01*
X113483073Y-82367167D01*
X113617353Y-82166202D01*
X113709847Y-81942903D01*
X113757000Y-81705849D01*
X113757000Y-81464151D01*
X113709847Y-81227097D01*
X113617353Y-81003798D01*
X113483073Y-80802833D01*
X113312167Y-80631927D01*
X113111202Y-80497647D01*
X112887903Y-80405153D01*
X112650849Y-80358000D01*
X112409151Y-80358000D01*
X112172097Y-80405153D01*
X111948798Y-80497647D01*
X111747833Y-80631927D01*
X111576927Y-80802833D01*
X111442647Y-81003798D01*
X111350153Y-81227097D01*
X111303000Y-81464151D01*
X110902000Y-81464151D01*
X110902000Y-78924151D01*
X111303000Y-78924151D01*
X111303000Y-79165849D01*
X111350153Y-79402903D01*
X111442647Y-79626202D01*
X111576927Y-79827167D01*
X111747833Y-79998073D01*
X111948798Y-80132353D01*
X112172097Y-80224847D01*
X112409151Y-80272000D01*
X112650849Y-80272000D01*
X112887903Y-80224847D01*
X113111202Y-80132353D01*
X113312167Y-79998073D01*
X113483073Y-79827167D01*
X113617353Y-79626202D01*
X113709847Y-79402903D01*
X113757000Y-79165849D01*
X113757000Y-78924151D01*
X113709847Y-78687097D01*
X113617353Y-78463798D01*
X113483073Y-78262833D01*
X113312167Y-78091927D01*
X113111202Y-77957647D01*
X112887903Y-77865153D01*
X112650849Y-77818000D01*
X112409151Y-77818000D01*
X112172097Y-77865153D01*
X111948798Y-77957647D01*
X111747833Y-78091927D01*
X111576927Y-78262833D01*
X111442647Y-78463798D01*
X111350153Y-78687097D01*
X111303000Y-78924151D01*
X110902000Y-78924151D01*
X110902000Y-75972205D01*
X110904187Y-75950000D01*
X110895460Y-75861392D01*
X110869614Y-75776190D01*
X110837489Y-75716088D01*
X110827643Y-75697667D01*
X110771159Y-75628841D01*
X110753905Y-75614681D01*
X108983375Y-73844151D01*
X111303000Y-73844151D01*
X111303000Y-74085849D01*
X111350153Y-74322903D01*
X111442647Y-74546202D01*
X111576927Y-74747167D01*
X111747833Y-74918073D01*
X111948798Y-75052353D01*
X112172097Y-75144847D01*
X112409151Y-75192000D01*
X112650849Y-75192000D01*
X112887903Y-75144847D01*
X113111202Y-75052353D01*
X113312167Y-74918073D01*
X113483073Y-74747167D01*
X113617353Y-74546202D01*
X113709847Y-74322903D01*
X113757000Y-74085849D01*
X113757000Y-73844151D01*
X113709847Y-73607097D01*
X113617353Y-73383798D01*
X113483073Y-73182833D01*
X113312167Y-73011927D01*
X113111202Y-72877647D01*
X112887903Y-72785153D01*
X112650849Y-72738000D01*
X112409151Y-72738000D01*
X112172097Y-72785153D01*
X111948798Y-72877647D01*
X111747833Y-73011927D01*
X111576927Y-73182833D01*
X111442647Y-73383798D01*
X111350153Y-73607097D01*
X111303000Y-73844151D01*
X108983375Y-73844151D01*
X107822545Y-72683321D01*
X108633000Y-72683321D01*
X108633000Y-72816679D01*
X108659016Y-72947474D01*
X108710050Y-73070680D01*
X108784140Y-73181563D01*
X108878437Y-73275860D01*
X108989320Y-73349950D01*
X109112526Y-73400984D01*
X109243321Y-73427000D01*
X109376679Y-73427000D01*
X109507474Y-73400984D01*
X109630680Y-73349950D01*
X109741563Y-73275860D01*
X109835860Y-73181563D01*
X109909950Y-73070680D01*
X109960984Y-72947474D01*
X109987000Y-72816679D01*
X109987000Y-72683321D01*
X109960984Y-72552526D01*
X109909950Y-72429320D01*
X109835860Y-72318437D01*
X109785823Y-72268400D01*
X110750072Y-71304151D01*
X111303000Y-71304151D01*
X111303000Y-71545849D01*
X111350153Y-71782903D01*
X111442647Y-72006202D01*
X111576927Y-72207167D01*
X111747833Y-72378073D01*
X111948798Y-72512353D01*
X112172097Y-72604847D01*
X112409151Y-72652000D01*
X112650849Y-72652000D01*
X112887903Y-72604847D01*
X113111202Y-72512353D01*
X113312167Y-72378073D01*
X113483073Y-72207167D01*
X113617353Y-72006202D01*
X113709847Y-71782903D01*
X113757000Y-71545849D01*
X113757000Y-71304151D01*
X113709847Y-71067097D01*
X113617353Y-70843798D01*
X113483073Y-70642833D01*
X113312167Y-70471927D01*
X113111202Y-70337647D01*
X112887903Y-70245153D01*
X112650849Y-70198000D01*
X112409151Y-70198000D01*
X112172097Y-70245153D01*
X111948798Y-70337647D01*
X111747833Y-70471927D01*
X111576927Y-70642833D01*
X111442647Y-70843798D01*
X111350153Y-71067097D01*
X111303000Y-71304151D01*
X110750072Y-71304151D01*
X112042894Y-70011329D01*
X112172097Y-70064847D01*
X112409151Y-70112000D01*
X112650849Y-70112000D01*
X112887903Y-70064847D01*
X113111202Y-69972353D01*
X113312167Y-69838073D01*
X113483073Y-69667167D01*
X113617353Y-69466202D01*
X113709847Y-69242903D01*
X113757000Y-69005849D01*
X113757000Y-68764151D01*
X113709847Y-68527097D01*
X113617353Y-68303798D01*
X113483073Y-68102833D01*
X113312167Y-67931927D01*
X113111202Y-67797647D01*
X112887903Y-67705153D01*
X112650849Y-67658000D01*
X112409151Y-67658000D01*
X112172097Y-67705153D01*
X111948798Y-67797647D01*
X111747833Y-67931927D01*
X111576927Y-68102833D01*
X111442647Y-68303798D01*
X111350153Y-68527097D01*
X111303000Y-68764151D01*
X111303000Y-69005849D01*
X111350153Y-69242903D01*
X111403671Y-69372106D01*
X109006100Y-71769677D01*
X108988841Y-71783841D01*
X108932357Y-71852668D01*
X108890387Y-71931190D01*
X108890386Y-71931191D01*
X108864540Y-72016393D01*
X108855813Y-72105000D01*
X108858000Y-72127206D01*
X108858000Y-72244577D01*
X108784140Y-72318437D01*
X108710050Y-72429320D01*
X108659016Y-72552526D01*
X108633000Y-72683321D01*
X107822545Y-72683321D01*
X107732000Y-72592777D01*
X107732000Y-69202204D01*
X107734187Y-69179999D01*
X107725460Y-69091392D01*
X107699614Y-69006190D01*
X107682198Y-68973607D01*
X107657643Y-68927667D01*
X107601159Y-68858841D01*
X107583910Y-68844685D01*
X107566712Y-68827487D01*
X107606563Y-68800860D01*
X107700860Y-68706563D01*
X107774950Y-68595680D01*
X107825984Y-68472474D01*
X107852000Y-68341679D01*
X107852000Y-68208321D01*
X107825984Y-68077526D01*
X107774950Y-67954320D01*
X107700860Y-67843437D01*
X107627000Y-67769577D01*
X107627000Y-67062224D01*
X107892224Y-66797000D01*
X111389129Y-66797000D01*
X111442647Y-66926202D01*
X111576927Y-67127167D01*
X111747833Y-67298073D01*
X111948798Y-67432353D01*
X112172097Y-67524847D01*
X112409151Y-67572000D01*
X112650849Y-67572000D01*
X112887903Y-67524847D01*
X113111202Y-67432353D01*
X113312167Y-67298073D01*
X113483073Y-67127167D01*
X113617353Y-66926202D01*
X113709847Y-66702903D01*
X113757000Y-66465849D01*
X113757000Y-66224151D01*
X113709847Y-65987097D01*
X113617353Y-65763798D01*
X113483073Y-65562833D01*
X113312167Y-65391927D01*
X113111202Y-65257647D01*
X112887903Y-65165153D01*
X112650849Y-65118000D01*
X112409151Y-65118000D01*
X112172097Y-65165153D01*
X111948798Y-65257647D01*
X111747833Y-65391927D01*
X111576927Y-65562833D01*
X111442647Y-65763798D01*
X111389129Y-65893000D01*
X107727204Y-65893000D01*
X107704999Y-65890813D01*
X107616392Y-65899540D01*
X107580879Y-65910313D01*
X107531190Y-65925386D01*
X107452667Y-65967357D01*
X107383841Y-66023841D01*
X107369685Y-66041090D01*
X107206548Y-66204228D01*
X107217000Y-66151679D01*
X107217000Y-66018321D01*
X107190984Y-65887526D01*
X107139950Y-65764320D01*
X107065860Y-65653437D01*
X106971563Y-65559140D01*
X106860680Y-65485050D01*
X106737474Y-65434016D01*
X106606679Y-65408000D01*
X106473321Y-65408000D01*
X106342526Y-65434016D01*
X106219320Y-65485050D01*
X106108437Y-65559140D01*
X106014140Y-65653437D01*
X105940050Y-65764320D01*
X105889016Y-65887526D01*
X105863000Y-66018321D01*
X105863000Y-66151679D01*
X105889016Y-66282474D01*
X105940050Y-66405680D01*
X106014140Y-66516563D01*
X106108437Y-66610860D01*
X106219320Y-66684950D01*
X106342526Y-66735984D01*
X106473321Y-66762000D01*
X106606679Y-66762000D01*
X106737474Y-66735984D01*
X106745889Y-66732498D01*
X106729540Y-66786393D01*
X106720813Y-66875000D01*
X106723001Y-66897215D01*
X106723000Y-67769577D01*
X106649140Y-67843437D01*
X106622512Y-67883289D01*
X106585313Y-67846090D01*
X106571149Y-67828831D01*
X106502323Y-67772347D01*
X106423800Y-67730376D01*
X106338597Y-67704530D01*
X106272195Y-67697990D01*
X106249990Y-67695803D01*
X106227785Y-67697990D01*
X103628783Y-67697990D01*
X103637000Y-67656679D01*
X103637000Y-67523321D01*
X103610984Y-67392526D01*
X103559950Y-67269320D01*
X103485860Y-67158437D01*
X103391563Y-67064140D01*
X103280680Y-66990050D01*
X103157474Y-66939016D01*
X103027000Y-66913064D01*
X103027000Y-66855064D01*
X103034317Y-66859953D01*
X103157523Y-66910987D01*
X103288318Y-66937003D01*
X103421676Y-66937003D01*
X103552471Y-66910987D01*
X103675677Y-66859953D01*
X103786560Y-66785863D01*
X103880857Y-66691566D01*
X103954947Y-66580683D01*
X104005981Y-66457477D01*
X104031997Y-66326682D01*
X104031997Y-66193324D01*
X104005981Y-66062529D01*
X103954947Y-65939323D01*
X103880857Y-65828440D01*
X103786560Y-65734143D01*
X103675677Y-65660053D01*
X103552471Y-65609019D01*
X103421676Y-65583003D01*
X103288318Y-65583003D01*
X103157523Y-65609019D01*
X103034317Y-65660053D01*
X103027000Y-65664942D01*
X103027000Y-63762223D01*
X103247649Y-63541575D01*
X103270060Y-63595680D01*
X103344150Y-63706563D01*
X103438447Y-63800860D01*
X103549330Y-63874950D01*
X103672536Y-63925984D01*
X103803331Y-63952000D01*
X103872431Y-63952000D01*
X104363000Y-64442570D01*
X104363001Y-65424576D01*
X104314140Y-65473437D01*
X104240050Y-65584320D01*
X104189016Y-65707526D01*
X104163000Y-65838321D01*
X104163000Y-65971679D01*
X104189016Y-66102474D01*
X104240050Y-66225680D01*
X104314140Y-66336563D01*
X104408437Y-66430860D01*
X104519320Y-66504950D01*
X104642526Y-66555984D01*
X104773321Y-66582000D01*
X104906679Y-66582000D01*
X105037474Y-66555984D01*
X105160680Y-66504950D01*
X105271563Y-66430860D01*
X105365860Y-66336563D01*
X105439950Y-66225680D01*
X105490984Y-66102474D01*
X105517000Y-65971679D01*
X105517000Y-65838321D01*
X105490984Y-65707526D01*
X105439950Y-65584320D01*
X105365860Y-65473437D01*
X105317000Y-65424577D01*
X105317000Y-64268404D01*
X105319306Y-64244989D01*
X105317000Y-64221574D01*
X105317000Y-64221567D01*
X105310097Y-64151482D01*
X105282822Y-64061567D01*
X105238529Y-63978701D01*
X105178921Y-63906069D01*
X105160729Y-63891139D01*
X104547010Y-63277421D01*
X104547010Y-63252000D01*
X104616679Y-63252000D01*
X104747474Y-63225984D01*
X104870680Y-63174950D01*
X104974081Y-63105859D01*
X105788000Y-63105859D01*
X105788000Y-63244141D01*
X105814977Y-63379766D01*
X105867895Y-63507522D01*
X105944721Y-63622499D01*
X106042501Y-63720279D01*
X106157478Y-63797105D01*
X106285234Y-63850023D01*
X106420859Y-63877000D01*
X106559141Y-63877000D01*
X106694766Y-63850023D01*
X106822522Y-63797105D01*
X106937499Y-63720279D01*
X107035279Y-63622499D01*
X107112105Y-63507522D01*
X107165023Y-63379766D01*
X107192000Y-63244141D01*
X107192000Y-63105859D01*
X107165023Y-62970234D01*
X107112105Y-62842478D01*
X107035279Y-62727501D01*
X106937499Y-62629721D01*
X106822522Y-62552895D01*
X106694766Y-62499977D01*
X106559141Y-62473000D01*
X106420859Y-62473000D01*
X106285234Y-62499977D01*
X106157478Y-62552895D01*
X106042501Y-62629721D01*
X105944721Y-62727501D01*
X105867895Y-62842478D01*
X105814977Y-62970234D01*
X105788000Y-63105859D01*
X104974081Y-63105859D01*
X104981563Y-63100860D01*
X105075860Y-63006563D01*
X105149950Y-62895680D01*
X105200984Y-62772474D01*
X105227000Y-62641679D01*
X105227000Y-62508321D01*
X105200984Y-62377526D01*
X105149950Y-62254320D01*
X105075860Y-62143437D01*
X104981563Y-62049140D01*
X104870680Y-61975050D01*
X104747474Y-61924016D01*
X104616679Y-61898000D01*
X104483321Y-61898000D01*
X104352526Y-61924016D01*
X104229320Y-61975050D01*
X104118437Y-62049140D01*
X104044577Y-62123000D01*
X103597205Y-62123000D01*
X103575000Y-62120813D01*
X103486392Y-62129540D01*
X103401190Y-62155386D01*
X103322667Y-62197357D01*
X103253841Y-62253841D01*
X103239681Y-62271095D01*
X102271096Y-63239681D01*
X102253842Y-63253841D01*
X102197358Y-63322667D01*
X102155386Y-63401191D01*
X102129540Y-63486393D01*
X102120813Y-63575000D01*
X102123001Y-63597215D01*
X102123000Y-67277795D01*
X102120813Y-67300000D01*
X102123000Y-67322204D01*
X102129540Y-67388606D01*
X102155386Y-67473809D01*
X102197357Y-67552332D01*
X102253841Y-67621159D01*
X102271100Y-67635323D01*
X102283000Y-67647223D01*
X102283000Y-67656679D01*
X102291217Y-67697990D01*
X101767214Y-67697990D01*
X101714500Y-67645277D01*
X101714500Y-67499724D01*
X101828906Y-67385318D01*
X101846159Y-67371159D01*
X101902643Y-67302333D01*
X101944614Y-67223810D01*
X101964445Y-67158437D01*
X101970460Y-67138608D01*
X101979187Y-67050001D01*
X101977000Y-67027796D01*
X101977000Y-65597204D01*
X101979187Y-65574999D01*
X101970460Y-65486392D01*
X101964444Y-65466562D01*
X101944614Y-65401190D01*
X101902643Y-65322667D01*
X101846159Y-65253841D01*
X101828910Y-65239685D01*
X101535323Y-64946099D01*
X101521159Y-64928841D01*
X101452333Y-64872357D01*
X101373810Y-64830386D01*
X101288607Y-64804540D01*
X101222205Y-64798000D01*
X101200000Y-64795813D01*
X101177795Y-64798000D01*
X98687225Y-64798000D01*
X98577000Y-64687776D01*
X98577000Y-64583321D01*
X98550984Y-64452526D01*
X98499950Y-64329320D01*
X98425860Y-64218437D01*
X98331563Y-64124140D01*
X98220680Y-64050050D01*
X98097474Y-63999016D01*
X97966679Y-63973000D01*
X97833321Y-63973000D01*
X97702526Y-63999016D01*
X97579320Y-64050050D01*
X97468437Y-64124140D01*
X97374140Y-64218437D01*
X97300050Y-64329320D01*
X97249016Y-64452526D01*
X97223000Y-64583321D01*
X93502000Y-64583321D01*
X93502000Y-63105859D01*
X100008000Y-63105859D01*
X100008000Y-63244141D01*
X100034977Y-63379766D01*
X100087895Y-63507522D01*
X100164721Y-63622499D01*
X100262501Y-63720279D01*
X100377478Y-63797105D01*
X100505234Y-63850023D01*
X100640859Y-63877000D01*
X100779141Y-63877000D01*
X100914766Y-63850023D01*
X101042522Y-63797105D01*
X101157499Y-63720279D01*
X101255279Y-63622499D01*
X101332105Y-63507522D01*
X101385023Y-63379766D01*
X101412000Y-63244141D01*
X101412000Y-63105859D01*
X101385023Y-62970234D01*
X101332105Y-62842478D01*
X101255279Y-62727501D01*
X101157499Y-62629721D01*
X101042522Y-62552895D01*
X100914766Y-62499977D01*
X100779141Y-62473000D01*
X100640859Y-62473000D01*
X100505234Y-62499977D01*
X100377478Y-62552895D01*
X100262501Y-62629721D01*
X100164721Y-62727501D01*
X100087895Y-62842478D01*
X100034977Y-62970234D01*
X100008000Y-63105859D01*
X93502000Y-63105859D01*
X93502000Y-61144151D01*
X93523000Y-61144151D01*
X93523000Y-61385849D01*
X93570153Y-61622903D01*
X93662647Y-61846202D01*
X93796927Y-62047167D01*
X93967833Y-62218073D01*
X94168798Y-62352353D01*
X94392097Y-62444847D01*
X94629151Y-62492000D01*
X94870849Y-62492000D01*
X95107903Y-62444847D01*
X95331202Y-62352353D01*
X95532167Y-62218073D01*
X95703073Y-62047167D01*
X95837353Y-61846202D01*
X95929847Y-61622903D01*
X95977000Y-61385849D01*
X95977000Y-61144151D01*
X111303000Y-61144151D01*
X111303000Y-61385849D01*
X111350153Y-61622903D01*
X111442647Y-61846202D01*
X111576927Y-62047167D01*
X111747833Y-62218073D01*
X111948798Y-62352353D01*
X112172097Y-62444847D01*
X112409151Y-62492000D01*
X112650849Y-62492000D01*
X112887903Y-62444847D01*
X113111202Y-62352353D01*
X113312167Y-62218073D01*
X113483073Y-62047167D01*
X113617353Y-61846202D01*
X113709847Y-61622903D01*
X113757000Y-61385849D01*
X113757000Y-61144151D01*
X113709847Y-60907097D01*
X113617353Y-60683798D01*
X113483073Y-60482833D01*
X113312167Y-60311927D01*
X113111202Y-60177647D01*
X112887903Y-60085153D01*
X112650849Y-60038000D01*
X112409151Y-60038000D01*
X112172097Y-60085153D01*
X111948798Y-60177647D01*
X111747833Y-60311927D01*
X111576927Y-60482833D01*
X111442647Y-60683798D01*
X111350153Y-60907097D01*
X111303000Y-61144151D01*
X95977000Y-61144151D01*
X95929847Y-60907097D01*
X95837353Y-60683798D01*
X95703073Y-60482833D01*
X95532167Y-60311927D01*
X95331202Y-60177647D01*
X95107903Y-60085153D01*
X94870849Y-60038000D01*
X94629151Y-60038000D01*
X94392097Y-60085153D01*
X94168798Y-60177647D01*
X93967833Y-60311927D01*
X93796927Y-60482833D01*
X93662647Y-60683798D01*
X93570153Y-60907097D01*
X93523000Y-61144151D01*
X93502000Y-61144151D01*
X93502000Y-57744665D01*
X93505758Y-57706337D01*
X93511176Y-57688391D01*
X93519979Y-57671834D01*
X93531829Y-57657305D01*
X93546279Y-57645352D01*
X93562772Y-57636434D01*
X93580680Y-57630890D01*
X93617692Y-57627000D01*
X94194502Y-57627000D01*
X94168798Y-57637647D01*
G04 #@! TA.AperFunction,Conductor*
D17*
G36*
X94168798Y-57637647D02*
G01*
X93967833Y-57771927D01*
X93796927Y-57942833D01*
X93662647Y-58143798D01*
X93570153Y-58367097D01*
X93523000Y-58604151D01*
X93523000Y-58845849D01*
X93570153Y-59082903D01*
X93662647Y-59306202D01*
X93796927Y-59507167D01*
X93967833Y-59678073D01*
X94168798Y-59812353D01*
X94392097Y-59904847D01*
X94629151Y-59952000D01*
X94870849Y-59952000D01*
X95107903Y-59904847D01*
X95331202Y-59812353D01*
X95532167Y-59678073D01*
X95703073Y-59507167D01*
X95837353Y-59306202D01*
X95893113Y-59171587D01*
X95929760Y-59355825D01*
X96041099Y-59624622D01*
X96202739Y-59866533D01*
X96408467Y-60072261D01*
X96650378Y-60233901D01*
X96919175Y-60345240D01*
X97204528Y-60402000D01*
X97495472Y-60402000D01*
X97780825Y-60345240D01*
X98049622Y-60233901D01*
X98291533Y-60072261D01*
X98497261Y-59866533D01*
X98658901Y-59624622D01*
X98770240Y-59355825D01*
X98827000Y-59070472D01*
X98827000Y-58779528D01*
X98770240Y-58494175D01*
X98658901Y-58225378D01*
X98497261Y-57983467D01*
X98291533Y-57777739D01*
X98065936Y-57627000D01*
X109384064Y-57627000D01*
X109158467Y-57777739D01*
X108952739Y-57983467D01*
X108791099Y-58225378D01*
X108679760Y-58494175D01*
X108623000Y-58779528D01*
X108623000Y-59070472D01*
X108679760Y-59355825D01*
X108791099Y-59624622D01*
X108952739Y-59866533D01*
X109158467Y-60072261D01*
X109400378Y-60233901D01*
X109669175Y-60345240D01*
X109954528Y-60402000D01*
X110245472Y-60402000D01*
X110530825Y-60345240D01*
X110799622Y-60233901D01*
X111041533Y-60072261D01*
X111247261Y-59866533D01*
X111408901Y-59624622D01*
X111503235Y-59396879D01*
X111576927Y-59507167D01*
X111747833Y-59678073D01*
X111948798Y-59812353D01*
X112172097Y-59904847D01*
X112409151Y-59952000D01*
X112650849Y-59952000D01*
X112887903Y-59904847D01*
X113111202Y-59812353D01*
X113312167Y-59678073D01*
X113483073Y-59507167D01*
X113617353Y-59306202D01*
X113709847Y-59082903D01*
X113757000Y-58845849D01*
X113757000Y-58604151D01*
X113709847Y-58367097D01*
X113617353Y-58143798D01*
X113483073Y-57942833D01*
X113312167Y-57771927D01*
X113111202Y-57637647D01*
X113085498Y-57627000D01*
X113670335Y-57627000D01*
X113708663Y-57630758D01*
X113726609Y-57636176D01*
X113743166Y-57644979D01*
X113757695Y-57656829D01*
X113769648Y-57671279D01*
X113778566Y-57687772D01*
X113784110Y-57705680D01*
X113788001Y-57742702D01*
X113788000Y-108005335D01*
X113784242Y-108043663D01*
X113778824Y-108061609D01*
X113770021Y-108078166D01*
X113758171Y-108092695D01*
X113743722Y-108104648D01*
X113727227Y-108113567D01*
X113709319Y-108119110D01*
X113672308Y-108123000D01*
X112988930Y-108123000D01*
X113111202Y-108072353D01*
X113312167Y-107938073D01*
X113483073Y-107767167D01*
X113617353Y-107566202D01*
X113709847Y-107342903D01*
X113757000Y-107105849D01*
X113757000Y-106864151D01*
X113709847Y-106627097D01*
X113617353Y-106403798D01*
X113483073Y-106202833D01*
X113312167Y-106031927D01*
X113111202Y-105897647D01*
X112887903Y-105805153D01*
X112650849Y-105758000D01*
X112409151Y-105758000D01*
X112172097Y-105805153D01*
X111948798Y-105897647D01*
X111747833Y-106031927D01*
X111576927Y-106202833D01*
X111442647Y-106403798D01*
X111350153Y-106627097D01*
X111303000Y-106864151D01*
X111303000Y-107105849D01*
X111350153Y-107342903D01*
X111442647Y-107566202D01*
X111576927Y-107767167D01*
X111747833Y-107938073D01*
X111948798Y-108072353D01*
X112071070Y-108123000D01*
X110115936Y-108123000D01*
X110341533Y-107972261D01*
X110547261Y-107766533D01*
X110708901Y-107524622D01*
X110820240Y-107255825D01*
X110877000Y-106970472D01*
X110877000Y-106679528D01*
X110820240Y-106394175D01*
X110708901Y-106125378D01*
X110547261Y-105883467D01*
X110341533Y-105677739D01*
X110099622Y-105516099D01*
X109830825Y-105404760D01*
X109545472Y-105348000D01*
X109254528Y-105348000D01*
X108969175Y-105404760D01*
X108700378Y-105516099D01*
X108458467Y-105677739D01*
X108252739Y-105883467D01*
X108091099Y-106125378D01*
X107979760Y-106394175D01*
X107923000Y-106679528D01*
X107923000Y-106970472D01*
X107979760Y-107255825D01*
X108091099Y-107524622D01*
X108252739Y-107766533D01*
X108458467Y-107972261D01*
X108684064Y-108123000D01*
X106496642Y-108123000D01*
X106587903Y-108104847D01*
X106811202Y-108012353D01*
X107012167Y-107878073D01*
X107183073Y-107707167D01*
X107317353Y-107506202D01*
X107409847Y-107282903D01*
X107457000Y-107045849D01*
X107457000Y-106804151D01*
X107409847Y-106567097D01*
X107317353Y-106343798D01*
X107183073Y-106142833D01*
X107012167Y-105971927D01*
X106811202Y-105837647D01*
X106587903Y-105745153D01*
X106350849Y-105698000D01*
X106109151Y-105698000D01*
X105872097Y-105745153D01*
X105648798Y-105837647D01*
X105447833Y-105971927D01*
X105276927Y-106142833D01*
X105142647Y-106343798D01*
X105050153Y-106567097D01*
X105003000Y-106804151D01*
X105003000Y-107045849D01*
X105050153Y-107282903D01*
X105142647Y-107506202D01*
X105276927Y-107707167D01*
X105447833Y-107878073D01*
X105648798Y-108012353D01*
X105872097Y-108104847D01*
X105963358Y-108123000D01*
X102148689Y-108123000D01*
X102210463Y-108089981D01*
X102267869Y-108042869D01*
X102314981Y-107985463D01*
X102349988Y-107919970D01*
X102371545Y-107848905D01*
X102378824Y-107775000D01*
X102378824Y-106075000D01*
X102371545Y-106001095D01*
X102349988Y-105930030D01*
X102314981Y-105864537D01*
X102267869Y-105807131D01*
X102210463Y-105760019D01*
X102144970Y-105725012D01*
X102073905Y-105703455D01*
X102000000Y-105696176D01*
X100300000Y-105696176D01*
X100226095Y-105703455D01*
X100155030Y-105725012D01*
X100089537Y-105760019D01*
X100032131Y-105807131D01*
X99985019Y-105864537D01*
X99950012Y-105930030D01*
X99928455Y-106001095D01*
X99921176Y-106075000D01*
X99921176Y-107775000D01*
X99928455Y-107848905D01*
X99950012Y-107919970D01*
X99985019Y-107985463D01*
X100032131Y-108042869D01*
X100089537Y-108089981D01*
X100151311Y-108123000D01*
X98715936Y-108123000D01*
X98941533Y-107972261D01*
X99147261Y-107766533D01*
X99308901Y-107524622D01*
X99420240Y-107255825D01*
X99477000Y-106970472D01*
X99477000Y-106679528D01*
X99420240Y-106394175D01*
X99308901Y-106125378D01*
X99147261Y-105883467D01*
X98941533Y-105677739D01*
X98699622Y-105516099D01*
X98430825Y-105404760D01*
X98145472Y-105348000D01*
X97854528Y-105348000D01*
X97569175Y-105404760D01*
X97300378Y-105516099D01*
X97058467Y-105677739D01*
X96852739Y-105883467D01*
X96691099Y-106125378D01*
X96579760Y-106394175D01*
X96523000Y-106679528D01*
X96523000Y-106970472D01*
X96579760Y-107255825D01*
X96691099Y-107524622D01*
X96852739Y-107766533D01*
X97058467Y-107972261D01*
X97284064Y-108123000D01*
X95208930Y-108123000D01*
X95331202Y-108072353D01*
X95532167Y-107938073D01*
X95703073Y-107767167D01*
X95837353Y-107566202D01*
X95929847Y-107342903D01*
X95977000Y-107105849D01*
X95977000Y-106864151D01*
X95929847Y-106627097D01*
X95837353Y-106403798D01*
X95703073Y-106202833D01*
X95532167Y-106031927D01*
X95331202Y-105897647D01*
X95107903Y-105805153D01*
X94870849Y-105758000D01*
X94629151Y-105758000D01*
X94392097Y-105805153D01*
X94168798Y-105897647D01*
X93967833Y-106031927D01*
X93796927Y-106202833D01*
X93662647Y-106403798D01*
X93570153Y-106627097D01*
X93523000Y-106864151D01*
X93523000Y-107105849D01*
X93570153Y-107342903D01*
X93662647Y-107566202D01*
X93796927Y-107767167D01*
X93967833Y-107938073D01*
X94168798Y-108072353D01*
X94291070Y-108123000D01*
X93619665Y-108123000D01*
X93581337Y-108119242D01*
X93563391Y-108113824D01*
X93546834Y-108105021D01*
X93532305Y-108093171D01*
X93520352Y-108078722D01*
X93511433Y-108062227D01*
X93505890Y-108044319D01*
X93502000Y-108007308D01*
X93502000Y-104324151D01*
X93523000Y-104324151D01*
X93523000Y-104565849D01*
X93570153Y-104802903D01*
X93662647Y-105026202D01*
X93796927Y-105227167D01*
X93967833Y-105398073D01*
X94168798Y-105532353D01*
X94392097Y-105624847D01*
X94629151Y-105672000D01*
X94870849Y-105672000D01*
X95107903Y-105624847D01*
X95331202Y-105532353D01*
X95532167Y-105398073D01*
X95703073Y-105227167D01*
X95837353Y-105026202D01*
X95929847Y-104802903D01*
X95977000Y-104565849D01*
X95977000Y-104324151D01*
X111303000Y-104324151D01*
X111303000Y-104565849D01*
X111350153Y-104802903D01*
X111442647Y-105026202D01*
X111576927Y-105227167D01*
X111747833Y-105398073D01*
X111948798Y-105532353D01*
X112172097Y-105624847D01*
X112409151Y-105672000D01*
X112650849Y-105672000D01*
X112887903Y-105624847D01*
X113111202Y-105532353D01*
X113312167Y-105398073D01*
X113483073Y-105227167D01*
X113617353Y-105026202D01*
X113709847Y-104802903D01*
X113757000Y-104565849D01*
X113757000Y-104324151D01*
X113709847Y-104087097D01*
X113617353Y-103863798D01*
X113483073Y-103662833D01*
X113312167Y-103491927D01*
X113111202Y-103357647D01*
X112887903Y-103265153D01*
X112650849Y-103218000D01*
X112409151Y-103218000D01*
X112172097Y-103265153D01*
X111948798Y-103357647D01*
X111747833Y-103491927D01*
X111576927Y-103662833D01*
X111442647Y-103863798D01*
X111350153Y-104087097D01*
X111303000Y-104324151D01*
X95977000Y-104324151D01*
X95929847Y-104087097D01*
X95837353Y-103863798D01*
X95703073Y-103662833D01*
X95532167Y-103491927D01*
X95331202Y-103357647D01*
X95107903Y-103265153D01*
X94870849Y-103218000D01*
X94629151Y-103218000D01*
X94392097Y-103265153D01*
X94168798Y-103357647D01*
X93967833Y-103491927D01*
X93796927Y-103662833D01*
X93662647Y-103863798D01*
X93570153Y-104087097D01*
X93523000Y-104324151D01*
X93502000Y-104324151D01*
X93502000Y-99244151D01*
X93523000Y-99244151D01*
X93523000Y-99485849D01*
X93570153Y-99722903D01*
X93662647Y-99946202D01*
X93796927Y-100147167D01*
X93967833Y-100318073D01*
X94168798Y-100452353D01*
X94392097Y-100544847D01*
X94629151Y-100592000D01*
X94870849Y-100592000D01*
X95107903Y-100544847D01*
X95331202Y-100452353D01*
X95532167Y-100318073D01*
X95703073Y-100147167D01*
X95837353Y-99946202D01*
X95929847Y-99722903D01*
X95977000Y-99485849D01*
X95977000Y-99244151D01*
X111303000Y-99244151D01*
X111303000Y-99485849D01*
X111350153Y-99722903D01*
X111442647Y-99946202D01*
X111576927Y-100147167D01*
X111747833Y-100318073D01*
X111948798Y-100452353D01*
X112172097Y-100544847D01*
X112409151Y-100592000D01*
X112650849Y-100592000D01*
X112887903Y-100544847D01*
X113111202Y-100452353D01*
X113312167Y-100318073D01*
X113483073Y-100147167D01*
X113617353Y-99946202D01*
X113709847Y-99722903D01*
X113757000Y-99485849D01*
X113757000Y-99244151D01*
X113709847Y-99007097D01*
X113617353Y-98783798D01*
X113483073Y-98582833D01*
X113312167Y-98411927D01*
X113111202Y-98277647D01*
X112887903Y-98185153D01*
X112650849Y-98138000D01*
X112409151Y-98138000D01*
X112172097Y-98185153D01*
X111948798Y-98277647D01*
X111747833Y-98411927D01*
X111576927Y-98582833D01*
X111442647Y-98783798D01*
X111350153Y-99007097D01*
X111303000Y-99244151D01*
X95977000Y-99244151D01*
X95929847Y-99007097D01*
X95837353Y-98783798D01*
X95703073Y-98582833D01*
X95532167Y-98411927D01*
X95331202Y-98277647D01*
X95107903Y-98185153D01*
X94870849Y-98138000D01*
X94629151Y-98138000D01*
X94392097Y-98185153D01*
X94168798Y-98277647D01*
X93967833Y-98411927D01*
X93796927Y-98582833D01*
X93662647Y-98783798D01*
X93570153Y-99007097D01*
X93523000Y-99244151D01*
X93502000Y-99244151D01*
X93502000Y-96704151D01*
X93523000Y-96704151D01*
X93523000Y-96945849D01*
X93570153Y-97182903D01*
X93662647Y-97406202D01*
X93796927Y-97607167D01*
X93967833Y-97778073D01*
X94168798Y-97912353D01*
X94392097Y-98004847D01*
X94629151Y-98052000D01*
X94870849Y-98052000D01*
X95107903Y-98004847D01*
X95331202Y-97912353D01*
X95532167Y-97778073D01*
X95703073Y-97607167D01*
X95837353Y-97406202D01*
X95929847Y-97182903D01*
X95977000Y-96945849D01*
X95977000Y-96704151D01*
X111303000Y-96704151D01*
X111303000Y-96945849D01*
X111350153Y-97182903D01*
X111442647Y-97406202D01*
X111576927Y-97607167D01*
X111747833Y-97778073D01*
X111948798Y-97912353D01*
X112172097Y-98004847D01*
X112409151Y-98052000D01*
X112650849Y-98052000D01*
X112887903Y-98004847D01*
X113111202Y-97912353D01*
X113312167Y-97778073D01*
X113483073Y-97607167D01*
X113617353Y-97406202D01*
X113709847Y-97182903D01*
X113757000Y-96945849D01*
X113757000Y-96704151D01*
X113709847Y-96467097D01*
X113617353Y-96243798D01*
X113483073Y-96042833D01*
X113312167Y-95871927D01*
X113111202Y-95737647D01*
X112887903Y-95645153D01*
X112650849Y-95598000D01*
X112409151Y-95598000D01*
X112172097Y-95645153D01*
X111948798Y-95737647D01*
X111747833Y-95871927D01*
X111576927Y-96042833D01*
X111442647Y-96243798D01*
X111350153Y-96467097D01*
X111303000Y-96704151D01*
X95977000Y-96704151D01*
X95929847Y-96467097D01*
X95837353Y-96243798D01*
X95703073Y-96042833D01*
X95532167Y-95871927D01*
X95331202Y-95737647D01*
X95107903Y-95645153D01*
X94870849Y-95598000D01*
X94629151Y-95598000D01*
X94392097Y-95645153D01*
X94168798Y-95737647D01*
X93967833Y-95871927D01*
X93796927Y-96042833D01*
X93662647Y-96243798D01*
X93570153Y-96467097D01*
X93523000Y-96704151D01*
X93502000Y-96704151D01*
X93502000Y-94164151D01*
X93523000Y-94164151D01*
X93523000Y-94405849D01*
X93570153Y-94642903D01*
X93662647Y-94866202D01*
X93796927Y-95067167D01*
X93967833Y-95238073D01*
X94168798Y-95372353D01*
X94392097Y-95464847D01*
X94629151Y-95512000D01*
X94870849Y-95512000D01*
X95107903Y-95464847D01*
X95331202Y-95372353D01*
X95532167Y-95238073D01*
X95703073Y-95067167D01*
X95837353Y-94866202D01*
X95929847Y-94642903D01*
X95977000Y-94405849D01*
X95977000Y-94164151D01*
X95929847Y-93927097D01*
X95837353Y-93703798D01*
X95703073Y-93502833D01*
X95532167Y-93331927D01*
X95331202Y-93197647D01*
X95107903Y-93105153D01*
X94870849Y-93058000D01*
X94629151Y-93058000D01*
X94392097Y-93105153D01*
X94168798Y-93197647D01*
X93967833Y-93331927D01*
X93796927Y-93502833D01*
X93662647Y-93703798D01*
X93570153Y-93927097D01*
X93523000Y-94164151D01*
X93502000Y-94164151D01*
X93502000Y-91624151D01*
X93523000Y-91624151D01*
X93523000Y-91865849D01*
X93570153Y-92102903D01*
X93662647Y-92326202D01*
X93796927Y-92527167D01*
X93967833Y-92698073D01*
X94168798Y-92832353D01*
X94392097Y-92924847D01*
X94629151Y-92972000D01*
X94870849Y-92972000D01*
X95107903Y-92924847D01*
X95268510Y-92858321D01*
X98023000Y-92858321D01*
X98023000Y-92991679D01*
X98049016Y-93122474D01*
X98100050Y-93245680D01*
X98174140Y-93356563D01*
X98268437Y-93450860D01*
X98379320Y-93524950D01*
X98502526Y-93575984D01*
X98633321Y-93602000D01*
X98766679Y-93602000D01*
X98897474Y-93575984D01*
X99020680Y-93524950D01*
X99131563Y-93450860D01*
X99205423Y-93377000D01*
X102912777Y-93377000D01*
X103023000Y-93487224D01*
X103023000Y-93591679D01*
X103049016Y-93722474D01*
X103100050Y-93845680D01*
X103174140Y-93956563D01*
X103268437Y-94050860D01*
X103379320Y-94124950D01*
X103502526Y-94175984D01*
X103633321Y-94202000D01*
X103766679Y-94202000D01*
X103897474Y-94175984D01*
X103926041Y-94164151D01*
X111303000Y-94164151D01*
X111303000Y-94405849D01*
X111350153Y-94642903D01*
X111442647Y-94866202D01*
X111576927Y-95067167D01*
X111747833Y-95238073D01*
X111948798Y-95372353D01*
X112172097Y-95464847D01*
X112409151Y-95512000D01*
X112650849Y-95512000D01*
X112887903Y-95464847D01*
X113111202Y-95372353D01*
X113312167Y-95238073D01*
X113483073Y-95067167D01*
X113617353Y-94866202D01*
X113709847Y-94642903D01*
X113757000Y-94405849D01*
X113757000Y-94164151D01*
X113709847Y-93927097D01*
X113617353Y-93703798D01*
X113483073Y-93502833D01*
X113312167Y-93331927D01*
X113111202Y-93197647D01*
X112887903Y-93105153D01*
X112650849Y-93058000D01*
X112409151Y-93058000D01*
X112172097Y-93105153D01*
X111948798Y-93197647D01*
X111747833Y-93331927D01*
X111576927Y-93502833D01*
X111442647Y-93703798D01*
X111350153Y-93927097D01*
X111303000Y-94164151D01*
X103926041Y-94164151D01*
X104020680Y-94124950D01*
X104131563Y-94050860D01*
X104225860Y-93956563D01*
X104299950Y-93845680D01*
X104350984Y-93722474D01*
X104377000Y-93591679D01*
X104377000Y-93458321D01*
X104350984Y-93327526D01*
X104299950Y-93204320D01*
X104225860Y-93093437D01*
X104131563Y-92999140D01*
X104020680Y-92925050D01*
X103897474Y-92874016D01*
X103766679Y-92848000D01*
X103662224Y-92848000D01*
X103435323Y-92621100D01*
X103421159Y-92603841D01*
X103352333Y-92547357D01*
X103273810Y-92505386D01*
X103188607Y-92479540D01*
X103122205Y-92473000D01*
X103100000Y-92470813D01*
X103077795Y-92473000D01*
X99205423Y-92473000D01*
X99131563Y-92399140D01*
X99020680Y-92325050D01*
X98897474Y-92274016D01*
X98766679Y-92248000D01*
X98633321Y-92248000D01*
X98502526Y-92274016D01*
X98379320Y-92325050D01*
X98268437Y-92399140D01*
X98174140Y-92493437D01*
X98100050Y-92604320D01*
X98049016Y-92727526D01*
X98023000Y-92858321D01*
X95268510Y-92858321D01*
X95331202Y-92832353D01*
X95532167Y-92698073D01*
X95703073Y-92527167D01*
X95837353Y-92326202D01*
X95929847Y-92102903D01*
X95977000Y-91865849D01*
X95977000Y-91624151D01*
X95929847Y-91387097D01*
X95837353Y-91163798D01*
X95703073Y-90962833D01*
X95553838Y-90813598D01*
X103607269Y-90813598D01*
X103607269Y-90946956D01*
X103633285Y-91077751D01*
X103684319Y-91200957D01*
X103758409Y-91311840D01*
X103852706Y-91406137D01*
X103963589Y-91480227D01*
X104086795Y-91531261D01*
X104217590Y-91557277D01*
X104350948Y-91557277D01*
X104481743Y-91531261D01*
X104604949Y-91480227D01*
X104715832Y-91406137D01*
X104810129Y-91311840D01*
X104884219Y-91200957D01*
X104935253Y-91077751D01*
X104961269Y-90946956D01*
X104961269Y-90813598D01*
X104935253Y-90682803D01*
X104884219Y-90559597D01*
X104810129Y-90448714D01*
X104736269Y-90374854D01*
X104736269Y-88674443D01*
X104771563Y-88650860D01*
X104865860Y-88556563D01*
X104939950Y-88445680D01*
X104990984Y-88322474D01*
X105017000Y-88191679D01*
X105017000Y-88058321D01*
X104990984Y-87927526D01*
X104939950Y-87804320D01*
X104865860Y-87693437D01*
X104771563Y-87599140D01*
X104660680Y-87525050D01*
X104537474Y-87474016D01*
X104406679Y-87448000D01*
X104273321Y-87448000D01*
X104142526Y-87474016D01*
X104019320Y-87525050D01*
X103908437Y-87599140D01*
X103814140Y-87693437D01*
X103740050Y-87804320D01*
X103689016Y-87927526D01*
X103663000Y-88058321D01*
X103663000Y-88191679D01*
X103689016Y-88322474D01*
X103740050Y-88445680D01*
X103814140Y-88556563D01*
X103832269Y-88574692D01*
X103832270Y-90374853D01*
X103758409Y-90448714D01*
X103684319Y-90559597D01*
X103633285Y-90682803D01*
X103607269Y-90813598D01*
X95553838Y-90813598D01*
X95532167Y-90791927D01*
X95331202Y-90657647D01*
X95107903Y-90565153D01*
X94870849Y-90518000D01*
X94629151Y-90518000D01*
X94392097Y-90565153D01*
X94168798Y-90657647D01*
X93967833Y-90791927D01*
X93796927Y-90962833D01*
X93662647Y-91163798D01*
X93570153Y-91387097D01*
X93523000Y-91624151D01*
X93502000Y-91624151D01*
X93502000Y-86544151D01*
X93523000Y-86544151D01*
X93523000Y-86785849D01*
X93570153Y-87022903D01*
X93662647Y-87246202D01*
X93796927Y-87447167D01*
X93967833Y-87618073D01*
X94168798Y-87752353D01*
X94392097Y-87844847D01*
X94629151Y-87892000D01*
X94870849Y-87892000D01*
X95107903Y-87844847D01*
X95331202Y-87752353D01*
X95532167Y-87618073D01*
X95703073Y-87447167D01*
X95837353Y-87246202D01*
X95929847Y-87022903D01*
X95977000Y-86785849D01*
X95977000Y-86544151D01*
X95929847Y-86307097D01*
X95837353Y-86083798D01*
X95703073Y-85882833D01*
X95532167Y-85711927D01*
X95331202Y-85577647D01*
X95107903Y-85485153D01*
X94870849Y-85438000D01*
X94629151Y-85438000D01*
X94392097Y-85485153D01*
X94168798Y-85577647D01*
X93967833Y-85711927D01*
X93796927Y-85882833D01*
X93662647Y-86083798D01*
X93570153Y-86307097D01*
X93523000Y-86544151D01*
X93502000Y-86544151D01*
X93502000Y-84004151D01*
X93523000Y-84004151D01*
X93523000Y-84245849D01*
X93570153Y-84482903D01*
X93662647Y-84706202D01*
X93796927Y-84907167D01*
X93967833Y-85078073D01*
X94168798Y-85212353D01*
X94392097Y-85304847D01*
X94629151Y-85352000D01*
X94870849Y-85352000D01*
X95107903Y-85304847D01*
X95331202Y-85212353D01*
X95532167Y-85078073D01*
X95703073Y-84907167D01*
X95837353Y-84706202D01*
X95929847Y-84482903D01*
X95977000Y-84245849D01*
X95977000Y-84004151D01*
X95929847Y-83767097D01*
X95837353Y-83543798D01*
X95703073Y-83342833D01*
X95532167Y-83171927D01*
X95331202Y-83037647D01*
X95107903Y-82945153D01*
X94870849Y-82898000D01*
X94629151Y-82898000D01*
X94392097Y-82945153D01*
X94168798Y-83037647D01*
X93967833Y-83171927D01*
X93796927Y-83342833D01*
X93662647Y-83543798D01*
X93570153Y-83767097D01*
X93523000Y-84004151D01*
X93502000Y-84004151D01*
X93502000Y-81464151D01*
X93523000Y-81464151D01*
X93523000Y-81705849D01*
X93570153Y-81942903D01*
X93662647Y-82166202D01*
X93796927Y-82367167D01*
X93967833Y-82538073D01*
X94168798Y-82672353D01*
X94392097Y-82764847D01*
X94629151Y-82812000D01*
X94870849Y-82812000D01*
X95107903Y-82764847D01*
X95331202Y-82672353D01*
X95532167Y-82538073D01*
X95703073Y-82367167D01*
X95837353Y-82166202D01*
X95929847Y-81942903D01*
X95977000Y-81705849D01*
X95977000Y-81464151D01*
X95929847Y-81227097D01*
X95837353Y-81003798D01*
X95703073Y-80802833D01*
X95532167Y-80631927D01*
X95331202Y-80497647D01*
X95107903Y-80405153D01*
X94870849Y-80358000D01*
X94629151Y-80358000D01*
X94392097Y-80405153D01*
X94168798Y-80497647D01*
X93967833Y-80631927D01*
X93796927Y-80802833D01*
X93662647Y-81003798D01*
X93570153Y-81227097D01*
X93523000Y-81464151D01*
X93502000Y-81464151D01*
X93502000Y-68764151D01*
X93523000Y-68764151D01*
X93523000Y-69005849D01*
X93570153Y-69242903D01*
X93662647Y-69466202D01*
X93796927Y-69667167D01*
X93967833Y-69838073D01*
X94168798Y-69972353D01*
X94392097Y-70064847D01*
X94629151Y-70112000D01*
X94870849Y-70112000D01*
X95107903Y-70064847D01*
X95237106Y-70011329D01*
X99117989Y-73892213D01*
X99117989Y-73951684D01*
X96287404Y-71121100D01*
X96273240Y-71103841D01*
X96204414Y-71047357D01*
X96125891Y-71005386D01*
X96040688Y-70979540D01*
X95974286Y-70973000D01*
X95952081Y-70970813D01*
X95929876Y-70973000D01*
X95890871Y-70973000D01*
X95837353Y-70843798D01*
X95703073Y-70642833D01*
X95532167Y-70471927D01*
X95331202Y-70337647D01*
X95107903Y-70245153D01*
X94870849Y-70198000D01*
X94629151Y-70198000D01*
X94392097Y-70245153D01*
X94168798Y-70337647D01*
X93967833Y-70471927D01*
X93796927Y-70642833D01*
X93662647Y-70843798D01*
X93570153Y-71067097D01*
X93523000Y-71304151D01*
X93523000Y-71545849D01*
X93570153Y-71782903D01*
X93662647Y-72006202D01*
X93796927Y-72207167D01*
X93967833Y-72378073D01*
X94168798Y-72512353D01*
X94392097Y-72604847D01*
X94629151Y-72652000D01*
X94870849Y-72652000D01*
X95107903Y-72604847D01*
X95331202Y-72512353D01*
X95532167Y-72378073D01*
X95703073Y-72207167D01*
X95837353Y-72006202D01*
X95853962Y-71966104D01*
X98817979Y-74930122D01*
X98817979Y-75238754D01*
X97280323Y-73701100D01*
X97266159Y-73683841D01*
X97197333Y-73627357D01*
X97118810Y-73585386D01*
X97033607Y-73559540D01*
X96967205Y-73553000D01*
X96945000Y-73550813D01*
X96922795Y-73553000D01*
X95907439Y-73553000D01*
X95837353Y-73383798D01*
X95703073Y-73182833D01*
X95532167Y-73011927D01*
X95331202Y-72877647D01*
X95107903Y-72785153D01*
X94870849Y-72738000D01*
X94629151Y-72738000D01*
X94392097Y-72785153D01*
X94168798Y-72877647D01*
X93967833Y-73011927D01*
X93796927Y-73182833D01*
X93662647Y-73383798D01*
X93570153Y-73607097D01*
X93523000Y-73844151D01*
X93523000Y-74085849D01*
X93570153Y-74322903D01*
X93662647Y-74546202D01*
X93796927Y-74747167D01*
X93967833Y-74918073D01*
X94168798Y-75052353D01*
X94392097Y-75144847D01*
X94629151Y-75192000D01*
X94870849Y-75192000D01*
X95107903Y-75144847D01*
X95331202Y-75052353D01*
X95532167Y-74918073D01*
X95703073Y-74747167D01*
X95837353Y-74546202D01*
X95874302Y-74457000D01*
X96757777Y-74457000D01*
X98508001Y-76207226D01*
X98508000Y-82826495D01*
X97513034Y-83821462D01*
X97495780Y-83835622D01*
X97443924Y-83898809D01*
X97439296Y-83904448D01*
X97397324Y-83982972D01*
X97371478Y-84068174D01*
X97362751Y-84156781D01*
X97364939Y-84178996D01*
X97364938Y-85207681D01*
X97350984Y-85137526D01*
X97299950Y-85014320D01*
X97225860Y-84903437D01*
X97152000Y-84829577D01*
X97152000Y-80097202D01*
X97154187Y-80074999D01*
X97146610Y-79998073D01*
X97145460Y-79986393D01*
X97119614Y-79901190D01*
X97077643Y-79822667D01*
X97021159Y-79753841D01*
X97003911Y-79739687D01*
X96045323Y-78781100D01*
X96031159Y-78763841D01*
X95962333Y-78707357D01*
X95930492Y-78690338D01*
X95929847Y-78687097D01*
X95837353Y-78463798D01*
X95703073Y-78262833D01*
X95532167Y-78091927D01*
X95331202Y-77957647D01*
X95107903Y-77865153D01*
X94870849Y-77818000D01*
X94629151Y-77818000D01*
X94392097Y-77865153D01*
X94168798Y-77957647D01*
X93967833Y-78091927D01*
X93796927Y-78262833D01*
X93662647Y-78463798D01*
X93570153Y-78687097D01*
X93523000Y-78924151D01*
X93523000Y-79165849D01*
X93570153Y-79402903D01*
X93662647Y-79626202D01*
X93796927Y-79827167D01*
X93967833Y-79998073D01*
X94168798Y-80132353D01*
X94392097Y-80224847D01*
X94629151Y-80272000D01*
X94870849Y-80272000D01*
X95107903Y-80224847D01*
X95331202Y-80132353D01*
X95532167Y-79998073D01*
X95703073Y-79827167D01*
X95747081Y-79761304D01*
X96248000Y-80262225D01*
X96248001Y-84829576D01*
X96174140Y-84903437D01*
X96100050Y-85014320D01*
X96049016Y-85137526D01*
X96023000Y-85268321D01*
X96023000Y-85401679D01*
X96049016Y-85532474D01*
X96100050Y-85655680D01*
X96174140Y-85766563D01*
X96268437Y-85860860D01*
X96379320Y-85934950D01*
X96502526Y-85985984D01*
X96633321Y-86012000D01*
X96766679Y-86012000D01*
X96897474Y-85985984D01*
X97020680Y-85934950D01*
X97131563Y-85860860D01*
X97150857Y-85841566D01*
X97165954Y-85917467D01*
X97216988Y-86040673D01*
X97291078Y-86151556D01*
X97385375Y-86245853D01*
X97496258Y-86319943D01*
X97619464Y-86370977D01*
X97750259Y-86396993D01*
X97883617Y-86396993D01*
X98014412Y-86370977D01*
X98137618Y-86319943D01*
X98248501Y-86245853D01*
X98342798Y-86151556D01*
X98416888Y-86040673D01*
X98458975Y-85939067D01*
X98477605Y-85939067D01*
X98608400Y-85913051D01*
X98731606Y-85862017D01*
X98842489Y-85787927D01*
X98936786Y-85693630D01*
X99010876Y-85582747D01*
X99061910Y-85459541D01*
X99087926Y-85328746D01*
X99087926Y-85195388D01*
X99062978Y-85069960D01*
X99091563Y-85050860D01*
X99185860Y-84956563D01*
X99259950Y-84845680D01*
X99310984Y-84722474D01*
X99337000Y-84591679D01*
X99337000Y-84487223D01*
X99873894Y-83950330D01*
X99891148Y-83936170D01*
X99947632Y-83867344D01*
X99989603Y-83788821D01*
X100009324Y-83723809D01*
X100015449Y-83703619D01*
X100024176Y-83615011D01*
X100021989Y-83592806D01*
X100021989Y-82995657D01*
X100065026Y-83013484D01*
X100195821Y-83039500D01*
X100329179Y-83039500D01*
X100459974Y-83013484D01*
X100583180Y-82962450D01*
X100694063Y-82888360D01*
X100788360Y-82794063D01*
X100862450Y-82683180D01*
X100913484Y-82559974D01*
X100939500Y-82429179D01*
X100939500Y-82295821D01*
X100913484Y-82165026D01*
X100862450Y-82041820D01*
X100788360Y-81930937D01*
X100694063Y-81836640D01*
X100583180Y-81762550D01*
X100459974Y-81711516D01*
X100329179Y-81685500D01*
X100322000Y-81685500D01*
X100322000Y-81458321D01*
X103123000Y-81458321D01*
X103123000Y-81591679D01*
X103149016Y-81722474D01*
X103200050Y-81845680D01*
X103274140Y-81956563D01*
X103348001Y-82030424D01*
X103348000Y-83062795D01*
X103345813Y-83085000D01*
X103354540Y-83173607D01*
X103371296Y-83228842D01*
X103380386Y-83258809D01*
X103422357Y-83337332D01*
X103478841Y-83406159D01*
X103496100Y-83420323D01*
X104329681Y-84253905D01*
X104343841Y-84271159D01*
X104412667Y-84327643D01*
X104491190Y-84369614D01*
X104576392Y-84395460D01*
X104665000Y-84404187D01*
X104687205Y-84402000D01*
X104817795Y-84402000D01*
X104840000Y-84404187D01*
X104862205Y-84402000D01*
X105131679Y-84402000D01*
X105262474Y-84375984D01*
X105385680Y-84324950D01*
X105496563Y-84250860D01*
X105590860Y-84156563D01*
X105664950Y-84045680D01*
X105697765Y-83966459D01*
X105778905Y-83885318D01*
X105796159Y-83871159D01*
X105852643Y-83802333D01*
X105894614Y-83723810D01*
X105918190Y-83646090D01*
X105920460Y-83638608D01*
X105929187Y-83550001D01*
X105927000Y-83527796D01*
X105927000Y-81912224D01*
X106037224Y-81802000D01*
X106419577Y-81802000D01*
X106493437Y-81875860D01*
X106604320Y-81949950D01*
X106727526Y-82000984D01*
X106858321Y-82027000D01*
X106991679Y-82027000D01*
X107122474Y-82000984D01*
X107245680Y-81949950D01*
X107356563Y-81875860D01*
X107450860Y-81781563D01*
X107524950Y-81670680D01*
X107575984Y-81547474D01*
X107602000Y-81416679D01*
X107602000Y-81283321D01*
X107575984Y-81152526D01*
X107524950Y-81029320D01*
X107450860Y-80918437D01*
X107356563Y-80824140D01*
X107245680Y-80750050D01*
X107122474Y-80699016D01*
X106991679Y-80673000D01*
X106858321Y-80673000D01*
X106727526Y-80699016D01*
X106604320Y-80750050D01*
X106493437Y-80824140D01*
X106419577Y-80898000D01*
X105872204Y-80898000D01*
X105849999Y-80895813D01*
X105761392Y-80904540D01*
X105693780Y-80925050D01*
X105676190Y-80930386D01*
X105597667Y-80972357D01*
X105528841Y-81028841D01*
X105514685Y-81046090D01*
X105171095Y-81389682D01*
X105153842Y-81403841D01*
X105104347Y-81464151D01*
X105097358Y-81472667D01*
X105055386Y-81551191D01*
X105029540Y-81636393D01*
X105020813Y-81725000D01*
X105023001Y-81747215D01*
X105023000Y-83048000D01*
X104998321Y-83048000D01*
X104867526Y-83074016D01*
X104744320Y-83125050D01*
X104633437Y-83199140D01*
X104593400Y-83239177D01*
X104252000Y-82897777D01*
X104252000Y-82030423D01*
X104325860Y-81956563D01*
X104399950Y-81845680D01*
X104450984Y-81722474D01*
X104477000Y-81591679D01*
X104477000Y-81458321D01*
X104450984Y-81327526D01*
X104399950Y-81204320D01*
X104325860Y-81093437D01*
X104231563Y-80999140D01*
X104120680Y-80925050D01*
X103997474Y-80874016D01*
X103866679Y-80848000D01*
X103733321Y-80848000D01*
X103602526Y-80874016D01*
X103479320Y-80925050D01*
X103368437Y-80999140D01*
X103274140Y-81093437D01*
X103200050Y-81204320D01*
X103149016Y-81327526D01*
X103123000Y-81458321D01*
X100322000Y-81458321D01*
X100322000Y-77458321D01*
X103448000Y-77458321D01*
X103448000Y-77591679D01*
X103474016Y-77722474D01*
X103525050Y-77845680D01*
X103599140Y-77956563D01*
X103693437Y-78050860D01*
X103804320Y-78124950D01*
X103927526Y-78175984D01*
X104058321Y-78202000D01*
X104191679Y-78202000D01*
X104322474Y-78175984D01*
X104445680Y-78124950D01*
X104556563Y-78050860D01*
X104630423Y-77977000D01*
X107604571Y-77977000D01*
X107678431Y-78050860D01*
X107789314Y-78124950D01*
X107912520Y-78175984D01*
X108043315Y-78202000D01*
X108176673Y-78202000D01*
X108307468Y-78175984D01*
X108430674Y-78124950D01*
X108541557Y-78050860D01*
X108635854Y-77956563D01*
X108709944Y-77845680D01*
X108760978Y-77722474D01*
X108786994Y-77591679D01*
X108786994Y-77458321D01*
X108760978Y-77327526D01*
X108709944Y-77204320D01*
X108635854Y-77093437D01*
X108541557Y-76999140D01*
X108430674Y-76925050D01*
X108307468Y-76874016D01*
X108176673Y-76848000D01*
X108043315Y-76848000D01*
X107912520Y-76874016D01*
X107789314Y-76925050D01*
X107678431Y-76999140D01*
X107604571Y-77073000D01*
X104630423Y-77073000D01*
X104556563Y-76999140D01*
X104445680Y-76925050D01*
X104322474Y-76874016D01*
X104191679Y-76848000D01*
X104058321Y-76848000D01*
X103927526Y-76874016D01*
X103804320Y-76925050D01*
X103693437Y-76999140D01*
X103599140Y-77093437D01*
X103525050Y-77204320D01*
X103474016Y-77327526D01*
X103448000Y-77458321D01*
X100322000Y-77458321D01*
X100322000Y-71472578D01*
X100329950Y-71460680D01*
X100380984Y-71337474D01*
X100407000Y-71206679D01*
X100407000Y-71073321D01*
X100380984Y-70942526D01*
X100329950Y-70819320D01*
X100255860Y-70708437D01*
X100161563Y-70614140D01*
X100050680Y-70540050D01*
X99927474Y-70489016D01*
X99796679Y-70463000D01*
X99663321Y-70463000D01*
X99532526Y-70489016D01*
X99409320Y-70540050D01*
X99298437Y-70614140D01*
X99204140Y-70708437D01*
X99130050Y-70819320D01*
X99079016Y-70942526D01*
X99053000Y-71073321D01*
X99053000Y-71206679D01*
X99079016Y-71337474D01*
X99130050Y-71460680D01*
X99204140Y-71571563D01*
X99298437Y-71665860D01*
X99409320Y-71739950D01*
X99418001Y-71743546D01*
X99418001Y-72913777D01*
X95876329Y-69372106D01*
X95929847Y-69242903D01*
X95977000Y-69005849D01*
X95977000Y-68764151D01*
X95929847Y-68527097D01*
X95837353Y-68303798D01*
X95703073Y-68102833D01*
X95532167Y-67931927D01*
X95331202Y-67797647D01*
X95107903Y-67705153D01*
X94870849Y-67658000D01*
X94629151Y-67658000D01*
X94392097Y-67705153D01*
X94168798Y-67797647D01*
X93967833Y-67931927D01*
X93796927Y-68102833D01*
X93662647Y-68303798D01*
X93570153Y-68527097D01*
X93523000Y-68764151D01*
X93502000Y-68764151D01*
X93502000Y-66224151D01*
X93523000Y-66224151D01*
X93523000Y-66465849D01*
X93570153Y-66702903D01*
X93662647Y-66926202D01*
X93796927Y-67127167D01*
X93967833Y-67298073D01*
X94168798Y-67432353D01*
X94392097Y-67524847D01*
X94629151Y-67572000D01*
X94870849Y-67572000D01*
X95107903Y-67524847D01*
X95331202Y-67432353D01*
X95532167Y-67298073D01*
X95703073Y-67127167D01*
X95837353Y-66926202D01*
X95929847Y-66702903D01*
X95977000Y-66465849D01*
X95977000Y-66224151D01*
X95929847Y-65987097D01*
X95837353Y-65763798D01*
X95703073Y-65562833D01*
X95532167Y-65391927D01*
X95331202Y-65257647D01*
X95107903Y-65165153D01*
X94870849Y-65118000D01*
X94629151Y-65118000D01*
X94392097Y-65165153D01*
X94168798Y-65257647D01*
X93967833Y-65391927D01*
X93796927Y-65562833D01*
X93662647Y-65763798D01*
X93570153Y-65987097D01*
X93523000Y-66224151D01*
X93502000Y-66224151D01*
X93502000Y-64583321D01*
X97223000Y-64583321D01*
X97223000Y-64716679D01*
X97249016Y-64847474D01*
X97300050Y-64970680D01*
X97374140Y-65081563D01*
X97468437Y-65175860D01*
X97579320Y-65249950D01*
X97702526Y-65300984D01*
X97833321Y-65327000D01*
X97937776Y-65327000D01*
X98164685Y-65553910D01*
X98178841Y-65571159D01*
X98247667Y-65627643D01*
X98314952Y-65663607D01*
X98326190Y-65669614D01*
X98411392Y-65695460D01*
X98499999Y-65704187D01*
X98522204Y-65702000D01*
X101012776Y-65702000D01*
X101073001Y-65762225D01*
X101073000Y-66862776D01*
X100958595Y-66977182D01*
X100941342Y-66991341D01*
X100894179Y-67048809D01*
X100884858Y-67060167D01*
X100842886Y-67138691D01*
X100817040Y-67223893D01*
X100808313Y-67312500D01*
X100810501Y-67334714D01*
X100810500Y-67810294D01*
X100808313Y-67832500D01*
X100817040Y-67921107D01*
X100831157Y-67967643D01*
X100842886Y-68006309D01*
X100850505Y-68020564D01*
X100779320Y-68050050D01*
X100668437Y-68124140D01*
X100574140Y-68218437D01*
X100500050Y-68329320D01*
X100449016Y-68452526D01*
X100423000Y-68583321D01*
X100423000Y-68716679D01*
X100449016Y-68847474D01*
X100500050Y-68970680D01*
X100574140Y-69081563D01*
X100668437Y-69175860D01*
X100779320Y-69249950D01*
X100902526Y-69300984D01*
X101033321Y-69327000D01*
X101137775Y-69327000D01*
X101219685Y-69408910D01*
X101233841Y-69426159D01*
X101302667Y-69482643D01*
X101363789Y-69515313D01*
X101381190Y-69524614D01*
X101466392Y-69550460D01*
X101554999Y-69559187D01*
X101577204Y-69557000D01*
X102413776Y-69557000D01*
X101996100Y-69974677D01*
X101978841Y-69988841D01*
X101922358Y-70057667D01*
X101880386Y-70136191D01*
X101854540Y-70221393D01*
X101845813Y-70310000D01*
X101848000Y-70332205D01*
X101848001Y-71919576D01*
X101774140Y-71993437D01*
X101700050Y-72104320D01*
X101649016Y-72227526D01*
X101623000Y-72358321D01*
X101623000Y-72491679D01*
X101649016Y-72622474D01*
X101700050Y-72745680D01*
X101774140Y-72856563D01*
X101868437Y-72950860D01*
X101979320Y-73024950D01*
X102102526Y-73075984D01*
X102233321Y-73102000D01*
X102366679Y-73102000D01*
X102497474Y-73075984D01*
X102620680Y-73024950D01*
X102731563Y-72950860D01*
X102825860Y-72856563D01*
X102899950Y-72745680D01*
X102950984Y-72622474D01*
X102977000Y-72491679D01*
X102977000Y-72358321D01*
X102950984Y-72227526D01*
X102899950Y-72104320D01*
X102825860Y-71993437D01*
X102752000Y-71919577D01*
X102752000Y-70497223D01*
X103808912Y-69440313D01*
X103826159Y-69426159D01*
X103840323Y-69408900D01*
X104347224Y-68902000D01*
X105532777Y-68902000D01*
X105883000Y-69252224D01*
X105883000Y-69356679D01*
X105909016Y-69487474D01*
X105960050Y-69610680D01*
X106034140Y-69721563D01*
X106128437Y-69815860D01*
X106239320Y-69889950D01*
X106362526Y-69940984D01*
X106493321Y-69967000D01*
X106626679Y-69967000D01*
X106757474Y-69940984D01*
X106828001Y-69911771D01*
X106828000Y-72757795D01*
X106825813Y-72780000D01*
X106834540Y-72868607D01*
X106851286Y-72923810D01*
X106860386Y-72953809D01*
X106902357Y-73032332D01*
X106958841Y-73101159D01*
X106976100Y-73115323D01*
X109998001Y-76137225D01*
X109998000Y-84244624D01*
X109974016Y-84302526D01*
X109948000Y-84433321D01*
X109948000Y-84566679D01*
X109974016Y-84697474D01*
X110025050Y-84820680D01*
X110099140Y-84931563D01*
X110193437Y-85025860D01*
X110304320Y-85099950D01*
X110346557Y-85117445D01*
X110345813Y-85125000D01*
X110348001Y-85147215D01*
X110348000Y-88837775D01*
X107637777Y-91548000D01*
X107533321Y-91548000D01*
X107402526Y-91574016D01*
X107279320Y-91625050D01*
X107168437Y-91699140D01*
X107074140Y-91793437D01*
X107000050Y-91904320D01*
X106949016Y-92027526D01*
X106923000Y-92158321D01*
X106923000Y-92291679D01*
X106949016Y-92422474D01*
X107000050Y-92545680D01*
X107074140Y-92656563D01*
X107168437Y-92750860D01*
X107279320Y-92824950D01*
X107402526Y-92875984D01*
X107533321Y-92902000D01*
X107666679Y-92902000D01*
X107797474Y-92875984D01*
X107920680Y-92824950D01*
X108031563Y-92750860D01*
X108125860Y-92656563D01*
X108199950Y-92545680D01*
X108250984Y-92422474D01*
X108277000Y-92291679D01*
X108277000Y-92187223D01*
X108840072Y-91624151D01*
X111303000Y-91624151D01*
X111303000Y-91865849D01*
X111350153Y-92102903D01*
X111442647Y-92326202D01*
X111576927Y-92527167D01*
X111747833Y-92698073D01*
X111948798Y-92832353D01*
X112172097Y-92924847D01*
X112409151Y-92972000D01*
X112650849Y-92972000D01*
X112887903Y-92924847D01*
X113111202Y-92832353D01*
X113312167Y-92698073D01*
X113483073Y-92527167D01*
X113617353Y-92326202D01*
X113709847Y-92102903D01*
X113757000Y-91865849D01*
X113757000Y-91624151D01*
X113709847Y-91387097D01*
X113617353Y-91163798D01*
X113483073Y-90962833D01*
X113312167Y-90791927D01*
X113111202Y-90657647D01*
X112887903Y-90565153D01*
X112650849Y-90518000D01*
X112409151Y-90518000D01*
X112172097Y-90565153D01*
X111948798Y-90657647D01*
X111747833Y-90791927D01*
X111576927Y-90962833D01*
X111442647Y-91163798D01*
X111350153Y-91387097D01*
X111303000Y-91624151D01*
X108840072Y-91624151D01*
X111103912Y-89360313D01*
X111121159Y-89346159D01*
X111177643Y-89277333D01*
X111219614Y-89198810D01*
X111245460Y-89113607D01*
X111252000Y-89047205D01*
X111252000Y-89047204D01*
X111254187Y-89025001D01*
X111252000Y-89002796D01*
X111252000Y-86544151D01*
X111303000Y-86544151D01*
X111303000Y-86785849D01*
X111350153Y-87022903D01*
X111442647Y-87246202D01*
X111576927Y-87447167D01*
X111747833Y-87618073D01*
X111948798Y-87752353D01*
X112172097Y-87844847D01*
X112409151Y-87892000D01*
X112650849Y-87892000D01*
X112887903Y-87844847D01*
X113111202Y-87752353D01*
X113312167Y-87618073D01*
X113483073Y-87447167D01*
X113617353Y-87246202D01*
X113709847Y-87022903D01*
X113757000Y-86785849D01*
X113757000Y-86544151D01*
X113709847Y-86307097D01*
X113617353Y-86083798D01*
X113483073Y-85882833D01*
X113312167Y-85711927D01*
X113111202Y-85577647D01*
X112887903Y-85485153D01*
X112650849Y-85438000D01*
X112409151Y-85438000D01*
X112172097Y-85485153D01*
X111948798Y-85577647D01*
X111747833Y-85711927D01*
X111576927Y-85882833D01*
X111442647Y-86083798D01*
X111350153Y-86307097D01*
X111303000Y-86544151D01*
X111252000Y-86544151D01*
X111252000Y-85312223D01*
X111616992Y-84947232D01*
X111747833Y-85078073D01*
X111948798Y-85212353D01*
X112172097Y-85304847D01*
X112409151Y-85352000D01*
X112650849Y-85352000D01*
X112887903Y-85304847D01*
X113111202Y-85212353D01*
X113312167Y-85078073D01*
X113483073Y-84907167D01*
X113617353Y-84706202D01*
X113709847Y-84482903D01*
X113757000Y-84245849D01*
X113757000Y-84004151D01*
X113709847Y-83767097D01*
X113617353Y-83543798D01*
X113483073Y-83342833D01*
X113312167Y-83171927D01*
X113111202Y-83037647D01*
X112887903Y-82945153D01*
X112650849Y-82898000D01*
X112409151Y-82898000D01*
X112172097Y-82945153D01*
X111948798Y-83037647D01*
X111747833Y-83171927D01*
X111576927Y-83342833D01*
X111442647Y-83543798D01*
X111350153Y-83767097D01*
X111308307Y-83977469D01*
X111177488Y-84108288D01*
X111150860Y-84068437D01*
X111056563Y-83974140D01*
X110945680Y-83900050D01*
X110902000Y-83881957D01*
X110902000Y-81464151D01*
X111303000Y-81464151D01*
X111303000Y-81705849D01*
X111350153Y-81942903D01*
X111442647Y-82166202D01*
X111576927Y-82367167D01*
X111747833Y-82538073D01*
X111948798Y-82672353D01*
X112172097Y-82764847D01*
X112409151Y-82812000D01*
X112650849Y-82812000D01*
X112887903Y-82764847D01*
X113111202Y-82672353D01*
X113312167Y-82538073D01*
X113483073Y-82367167D01*
X113617353Y-82166202D01*
X113709847Y-81942903D01*
X113757000Y-81705849D01*
X113757000Y-81464151D01*
X113709847Y-81227097D01*
X113617353Y-81003798D01*
X113483073Y-80802833D01*
X113312167Y-80631927D01*
X113111202Y-80497647D01*
X112887903Y-80405153D01*
X112650849Y-80358000D01*
X112409151Y-80358000D01*
X112172097Y-80405153D01*
X111948798Y-80497647D01*
X111747833Y-80631927D01*
X111576927Y-80802833D01*
X111442647Y-81003798D01*
X111350153Y-81227097D01*
X111303000Y-81464151D01*
X110902000Y-81464151D01*
X110902000Y-78924151D01*
X111303000Y-78924151D01*
X111303000Y-79165849D01*
X111350153Y-79402903D01*
X111442647Y-79626202D01*
X111576927Y-79827167D01*
X111747833Y-79998073D01*
X111948798Y-80132353D01*
X112172097Y-80224847D01*
X112409151Y-80272000D01*
X112650849Y-80272000D01*
X112887903Y-80224847D01*
X113111202Y-80132353D01*
X113312167Y-79998073D01*
X113483073Y-79827167D01*
X113617353Y-79626202D01*
X113709847Y-79402903D01*
X113757000Y-79165849D01*
X113757000Y-78924151D01*
X113709847Y-78687097D01*
X113617353Y-78463798D01*
X113483073Y-78262833D01*
X113312167Y-78091927D01*
X113111202Y-77957647D01*
X112887903Y-77865153D01*
X112650849Y-77818000D01*
X112409151Y-77818000D01*
X112172097Y-77865153D01*
X111948798Y-77957647D01*
X111747833Y-78091927D01*
X111576927Y-78262833D01*
X111442647Y-78463798D01*
X111350153Y-78687097D01*
X111303000Y-78924151D01*
X110902000Y-78924151D01*
X110902000Y-75972205D01*
X110904187Y-75950000D01*
X110895460Y-75861392D01*
X110869614Y-75776190D01*
X110837489Y-75716088D01*
X110827643Y-75697667D01*
X110771159Y-75628841D01*
X110753905Y-75614681D01*
X108983375Y-73844151D01*
X111303000Y-73844151D01*
X111303000Y-74085849D01*
X111350153Y-74322903D01*
X111442647Y-74546202D01*
X111576927Y-74747167D01*
X111747833Y-74918073D01*
X111948798Y-75052353D01*
X112172097Y-75144847D01*
X112409151Y-75192000D01*
X112650849Y-75192000D01*
X112887903Y-75144847D01*
X113111202Y-75052353D01*
X113312167Y-74918073D01*
X113483073Y-74747167D01*
X113617353Y-74546202D01*
X113709847Y-74322903D01*
X113757000Y-74085849D01*
X113757000Y-73844151D01*
X113709847Y-73607097D01*
X113617353Y-73383798D01*
X113483073Y-73182833D01*
X113312167Y-73011927D01*
X113111202Y-72877647D01*
X112887903Y-72785153D01*
X112650849Y-72738000D01*
X112409151Y-72738000D01*
X112172097Y-72785153D01*
X111948798Y-72877647D01*
X111747833Y-73011927D01*
X111576927Y-73182833D01*
X111442647Y-73383798D01*
X111350153Y-73607097D01*
X111303000Y-73844151D01*
X108983375Y-73844151D01*
X107822545Y-72683321D01*
X108633000Y-72683321D01*
X108633000Y-72816679D01*
X108659016Y-72947474D01*
X108710050Y-73070680D01*
X108784140Y-73181563D01*
X108878437Y-73275860D01*
X108989320Y-73349950D01*
X109112526Y-73400984D01*
X109243321Y-73427000D01*
X109376679Y-73427000D01*
X109507474Y-73400984D01*
X109630680Y-73349950D01*
X109741563Y-73275860D01*
X109835860Y-73181563D01*
X109909950Y-73070680D01*
X109960984Y-72947474D01*
X109987000Y-72816679D01*
X109987000Y-72683321D01*
X109960984Y-72552526D01*
X109909950Y-72429320D01*
X109835860Y-72318437D01*
X109785823Y-72268400D01*
X110750072Y-71304151D01*
X111303000Y-71304151D01*
X111303000Y-71545849D01*
X111350153Y-71782903D01*
X111442647Y-72006202D01*
X111576927Y-72207167D01*
X111747833Y-72378073D01*
X111948798Y-72512353D01*
X112172097Y-72604847D01*
X112409151Y-72652000D01*
X112650849Y-72652000D01*
X112887903Y-72604847D01*
X113111202Y-72512353D01*
X113312167Y-72378073D01*
X113483073Y-72207167D01*
X113617353Y-72006202D01*
X113709847Y-71782903D01*
X113757000Y-71545849D01*
X113757000Y-71304151D01*
X113709847Y-71067097D01*
X113617353Y-70843798D01*
X113483073Y-70642833D01*
X113312167Y-70471927D01*
X113111202Y-70337647D01*
X112887903Y-70245153D01*
X112650849Y-70198000D01*
X112409151Y-70198000D01*
X112172097Y-70245153D01*
X111948798Y-70337647D01*
X111747833Y-70471927D01*
X111576927Y-70642833D01*
X111442647Y-70843798D01*
X111350153Y-71067097D01*
X111303000Y-71304151D01*
X110750072Y-71304151D01*
X112042894Y-70011329D01*
X112172097Y-70064847D01*
X112409151Y-70112000D01*
X112650849Y-70112000D01*
X112887903Y-70064847D01*
X113111202Y-69972353D01*
X113312167Y-69838073D01*
X113483073Y-69667167D01*
X113617353Y-69466202D01*
X113709847Y-69242903D01*
X113757000Y-69005849D01*
X113757000Y-68764151D01*
X113709847Y-68527097D01*
X113617353Y-68303798D01*
X113483073Y-68102833D01*
X113312167Y-67931927D01*
X113111202Y-67797647D01*
X112887903Y-67705153D01*
X112650849Y-67658000D01*
X112409151Y-67658000D01*
X112172097Y-67705153D01*
X111948798Y-67797647D01*
X111747833Y-67931927D01*
X111576927Y-68102833D01*
X111442647Y-68303798D01*
X111350153Y-68527097D01*
X111303000Y-68764151D01*
X111303000Y-69005849D01*
X111350153Y-69242903D01*
X111403671Y-69372106D01*
X109006100Y-71769677D01*
X108988841Y-71783841D01*
X108932357Y-71852668D01*
X108890387Y-71931190D01*
X108890386Y-71931191D01*
X108864540Y-72016393D01*
X108855813Y-72105000D01*
X108858000Y-72127206D01*
X108858000Y-72244577D01*
X108784140Y-72318437D01*
X108710050Y-72429320D01*
X108659016Y-72552526D01*
X108633000Y-72683321D01*
X107822545Y-72683321D01*
X107732000Y-72592777D01*
X107732000Y-69202204D01*
X107734187Y-69179999D01*
X107725460Y-69091392D01*
X107699614Y-69006190D01*
X107682198Y-68973607D01*
X107657643Y-68927667D01*
X107601159Y-68858841D01*
X107583910Y-68844685D01*
X107566712Y-68827487D01*
X107606563Y-68800860D01*
X107700860Y-68706563D01*
X107774950Y-68595680D01*
X107825984Y-68472474D01*
X107852000Y-68341679D01*
X107852000Y-68208321D01*
X107825984Y-68077526D01*
X107774950Y-67954320D01*
X107700860Y-67843437D01*
X107627000Y-67769577D01*
X107627000Y-67062224D01*
X107892224Y-66797000D01*
X111389129Y-66797000D01*
X111442647Y-66926202D01*
X111576927Y-67127167D01*
X111747833Y-67298073D01*
X111948798Y-67432353D01*
X112172097Y-67524847D01*
X112409151Y-67572000D01*
X112650849Y-67572000D01*
X112887903Y-67524847D01*
X113111202Y-67432353D01*
X113312167Y-67298073D01*
X113483073Y-67127167D01*
X113617353Y-66926202D01*
X113709847Y-66702903D01*
X113757000Y-66465849D01*
X113757000Y-66224151D01*
X113709847Y-65987097D01*
X113617353Y-65763798D01*
X113483073Y-65562833D01*
X113312167Y-65391927D01*
X113111202Y-65257647D01*
X112887903Y-65165153D01*
X112650849Y-65118000D01*
X112409151Y-65118000D01*
X112172097Y-65165153D01*
X111948798Y-65257647D01*
X111747833Y-65391927D01*
X111576927Y-65562833D01*
X111442647Y-65763798D01*
X111389129Y-65893000D01*
X107727204Y-65893000D01*
X107704999Y-65890813D01*
X107616392Y-65899540D01*
X107580879Y-65910313D01*
X107531190Y-65925386D01*
X107452667Y-65967357D01*
X107383841Y-66023841D01*
X107369685Y-66041090D01*
X107206548Y-66204228D01*
X107217000Y-66151679D01*
X107217000Y-66018321D01*
X107190984Y-65887526D01*
X107139950Y-65764320D01*
X107065860Y-65653437D01*
X106971563Y-65559140D01*
X106860680Y-65485050D01*
X106737474Y-65434016D01*
X106606679Y-65408000D01*
X106473321Y-65408000D01*
X106342526Y-65434016D01*
X106219320Y-65485050D01*
X106108437Y-65559140D01*
X106014140Y-65653437D01*
X105940050Y-65764320D01*
X105889016Y-65887526D01*
X105863000Y-66018321D01*
X105863000Y-66151679D01*
X105889016Y-66282474D01*
X105940050Y-66405680D01*
X106014140Y-66516563D01*
X106108437Y-66610860D01*
X106219320Y-66684950D01*
X106342526Y-66735984D01*
X106473321Y-66762000D01*
X106606679Y-66762000D01*
X106737474Y-66735984D01*
X106745889Y-66732498D01*
X106729540Y-66786393D01*
X106720813Y-66875000D01*
X106723001Y-66897215D01*
X106723000Y-67769577D01*
X106649140Y-67843437D01*
X106622512Y-67883289D01*
X106585313Y-67846090D01*
X106571149Y-67828831D01*
X106502323Y-67772347D01*
X106423800Y-67730376D01*
X106338597Y-67704530D01*
X106272195Y-67697990D01*
X106249990Y-67695803D01*
X106227785Y-67697990D01*
X103628783Y-67697990D01*
X103637000Y-67656679D01*
X103637000Y-67523321D01*
X103610984Y-67392526D01*
X103559950Y-67269320D01*
X103485860Y-67158437D01*
X103391563Y-67064140D01*
X103280680Y-66990050D01*
X103157474Y-66939016D01*
X103027000Y-66913064D01*
X103027000Y-66855064D01*
X103034317Y-66859953D01*
X103157523Y-66910987D01*
X103288318Y-66937003D01*
X103421676Y-66937003D01*
X103552471Y-66910987D01*
X103675677Y-66859953D01*
X103786560Y-66785863D01*
X103880857Y-66691566D01*
X103954947Y-66580683D01*
X104005981Y-66457477D01*
X104031997Y-66326682D01*
X104031997Y-66193324D01*
X104005981Y-66062529D01*
X103954947Y-65939323D01*
X103880857Y-65828440D01*
X103786560Y-65734143D01*
X103675677Y-65660053D01*
X103552471Y-65609019D01*
X103421676Y-65583003D01*
X103288318Y-65583003D01*
X103157523Y-65609019D01*
X103034317Y-65660053D01*
X103027000Y-65664942D01*
X103027000Y-63762223D01*
X103247649Y-63541575D01*
X103270060Y-63595680D01*
X103344150Y-63706563D01*
X103438447Y-63800860D01*
X103549330Y-63874950D01*
X103672536Y-63925984D01*
X103803331Y-63952000D01*
X103872431Y-63952000D01*
X104363000Y-64442570D01*
X104363001Y-65424576D01*
X104314140Y-65473437D01*
X104240050Y-65584320D01*
X104189016Y-65707526D01*
X104163000Y-65838321D01*
X104163000Y-65971679D01*
X104189016Y-66102474D01*
X104240050Y-66225680D01*
X104314140Y-66336563D01*
X104408437Y-66430860D01*
X104519320Y-66504950D01*
X104642526Y-66555984D01*
X104773321Y-66582000D01*
X104906679Y-66582000D01*
X105037474Y-66555984D01*
X105160680Y-66504950D01*
X105271563Y-66430860D01*
X105365860Y-66336563D01*
X105439950Y-66225680D01*
X105490984Y-66102474D01*
X105517000Y-65971679D01*
X105517000Y-65838321D01*
X105490984Y-65707526D01*
X105439950Y-65584320D01*
X105365860Y-65473437D01*
X105317000Y-65424577D01*
X105317000Y-64268404D01*
X105319306Y-64244989D01*
X105317000Y-64221574D01*
X105317000Y-64221567D01*
X105310097Y-64151482D01*
X105282822Y-64061567D01*
X105238529Y-63978701D01*
X105178921Y-63906069D01*
X105160729Y-63891139D01*
X104547010Y-63277421D01*
X104547010Y-63252000D01*
X104616679Y-63252000D01*
X104747474Y-63225984D01*
X104870680Y-63174950D01*
X104974081Y-63105859D01*
X105788000Y-63105859D01*
X105788000Y-63244141D01*
X105814977Y-63379766D01*
X105867895Y-63507522D01*
X105944721Y-63622499D01*
X106042501Y-63720279D01*
X106157478Y-63797105D01*
X106285234Y-63850023D01*
X106420859Y-63877000D01*
X106559141Y-63877000D01*
X106694766Y-63850023D01*
X106822522Y-63797105D01*
X106937499Y-63720279D01*
X107035279Y-63622499D01*
X107112105Y-63507522D01*
X107165023Y-63379766D01*
X107192000Y-63244141D01*
X107192000Y-63105859D01*
X107165023Y-62970234D01*
X107112105Y-62842478D01*
X107035279Y-62727501D01*
X106937499Y-62629721D01*
X106822522Y-62552895D01*
X106694766Y-62499977D01*
X106559141Y-62473000D01*
X106420859Y-62473000D01*
X106285234Y-62499977D01*
X106157478Y-62552895D01*
X106042501Y-62629721D01*
X105944721Y-62727501D01*
X105867895Y-62842478D01*
X105814977Y-62970234D01*
X105788000Y-63105859D01*
X104974081Y-63105859D01*
X104981563Y-63100860D01*
X105075860Y-63006563D01*
X105149950Y-62895680D01*
X105200984Y-62772474D01*
X105227000Y-62641679D01*
X105227000Y-62508321D01*
X105200984Y-62377526D01*
X105149950Y-62254320D01*
X105075860Y-62143437D01*
X104981563Y-62049140D01*
X104870680Y-61975050D01*
X104747474Y-61924016D01*
X104616679Y-61898000D01*
X104483321Y-61898000D01*
X104352526Y-61924016D01*
X104229320Y-61975050D01*
X104118437Y-62049140D01*
X104044577Y-62123000D01*
X103597205Y-62123000D01*
X103575000Y-62120813D01*
X103486392Y-62129540D01*
X103401190Y-62155386D01*
X103322667Y-62197357D01*
X103253841Y-62253841D01*
X103239681Y-62271095D01*
X102271096Y-63239681D01*
X102253842Y-63253841D01*
X102197358Y-63322667D01*
X102155386Y-63401191D01*
X102129540Y-63486393D01*
X102120813Y-63575000D01*
X102123001Y-63597215D01*
X102123000Y-67277795D01*
X102120813Y-67300000D01*
X102123000Y-67322204D01*
X102129540Y-67388606D01*
X102155386Y-67473809D01*
X102197357Y-67552332D01*
X102253841Y-67621159D01*
X102271100Y-67635323D01*
X102283000Y-67647223D01*
X102283000Y-67656679D01*
X102291217Y-67697990D01*
X101767214Y-67697990D01*
X101714500Y-67645277D01*
X101714500Y-67499724D01*
X101828906Y-67385318D01*
X101846159Y-67371159D01*
X101902643Y-67302333D01*
X101944614Y-67223810D01*
X101964445Y-67158437D01*
X101970460Y-67138608D01*
X101979187Y-67050001D01*
X101977000Y-67027796D01*
X101977000Y-65597204D01*
X101979187Y-65574999D01*
X101970460Y-65486392D01*
X101964444Y-65466562D01*
X101944614Y-65401190D01*
X101902643Y-65322667D01*
X101846159Y-65253841D01*
X101828910Y-65239685D01*
X101535323Y-64946099D01*
X101521159Y-64928841D01*
X101452333Y-64872357D01*
X101373810Y-64830386D01*
X101288607Y-64804540D01*
X101222205Y-64798000D01*
X101200000Y-64795813D01*
X101177795Y-64798000D01*
X98687225Y-64798000D01*
X98577000Y-64687776D01*
X98577000Y-64583321D01*
X98550984Y-64452526D01*
X98499950Y-64329320D01*
X98425860Y-64218437D01*
X98331563Y-64124140D01*
X98220680Y-64050050D01*
X98097474Y-63999016D01*
X97966679Y-63973000D01*
X97833321Y-63973000D01*
X97702526Y-63999016D01*
X97579320Y-64050050D01*
X97468437Y-64124140D01*
X97374140Y-64218437D01*
X97300050Y-64329320D01*
X97249016Y-64452526D01*
X97223000Y-64583321D01*
X93502000Y-64583321D01*
X93502000Y-63105859D01*
X100008000Y-63105859D01*
X100008000Y-63244141D01*
X100034977Y-63379766D01*
X100087895Y-63507522D01*
X100164721Y-63622499D01*
X100262501Y-63720279D01*
X100377478Y-63797105D01*
X100505234Y-63850023D01*
X100640859Y-63877000D01*
X100779141Y-63877000D01*
X100914766Y-63850023D01*
X101042522Y-63797105D01*
X101157499Y-63720279D01*
X101255279Y-63622499D01*
X101332105Y-63507522D01*
X101385023Y-63379766D01*
X101412000Y-63244141D01*
X101412000Y-63105859D01*
X101385023Y-62970234D01*
X101332105Y-62842478D01*
X101255279Y-62727501D01*
X101157499Y-62629721D01*
X101042522Y-62552895D01*
X100914766Y-62499977D01*
X100779141Y-62473000D01*
X100640859Y-62473000D01*
X100505234Y-62499977D01*
X100377478Y-62552895D01*
X100262501Y-62629721D01*
X100164721Y-62727501D01*
X100087895Y-62842478D01*
X100034977Y-62970234D01*
X100008000Y-63105859D01*
X93502000Y-63105859D01*
X93502000Y-61144151D01*
X93523000Y-61144151D01*
X93523000Y-61385849D01*
X93570153Y-61622903D01*
X93662647Y-61846202D01*
X93796927Y-62047167D01*
X93967833Y-62218073D01*
X94168798Y-62352353D01*
X94392097Y-62444847D01*
X94629151Y-62492000D01*
X94870849Y-62492000D01*
X95107903Y-62444847D01*
X95331202Y-62352353D01*
X95532167Y-62218073D01*
X95703073Y-62047167D01*
X95837353Y-61846202D01*
X95929847Y-61622903D01*
X95977000Y-61385849D01*
X95977000Y-61144151D01*
X111303000Y-61144151D01*
X111303000Y-61385849D01*
X111350153Y-61622903D01*
X111442647Y-61846202D01*
X111576927Y-62047167D01*
X111747833Y-62218073D01*
X111948798Y-62352353D01*
X112172097Y-62444847D01*
X112409151Y-62492000D01*
X112650849Y-62492000D01*
X112887903Y-62444847D01*
X113111202Y-62352353D01*
X113312167Y-62218073D01*
X113483073Y-62047167D01*
X113617353Y-61846202D01*
X113709847Y-61622903D01*
X113757000Y-61385849D01*
X113757000Y-61144151D01*
X113709847Y-60907097D01*
X113617353Y-60683798D01*
X113483073Y-60482833D01*
X113312167Y-60311927D01*
X113111202Y-60177647D01*
X112887903Y-60085153D01*
X112650849Y-60038000D01*
X112409151Y-60038000D01*
X112172097Y-60085153D01*
X111948798Y-60177647D01*
X111747833Y-60311927D01*
X111576927Y-60482833D01*
X111442647Y-60683798D01*
X111350153Y-60907097D01*
X111303000Y-61144151D01*
X95977000Y-61144151D01*
X95929847Y-60907097D01*
X95837353Y-60683798D01*
X95703073Y-60482833D01*
X95532167Y-60311927D01*
X95331202Y-60177647D01*
X95107903Y-60085153D01*
X94870849Y-60038000D01*
X94629151Y-60038000D01*
X94392097Y-60085153D01*
X94168798Y-60177647D01*
X93967833Y-60311927D01*
X93796927Y-60482833D01*
X93662647Y-60683798D01*
X93570153Y-60907097D01*
X93523000Y-61144151D01*
X93502000Y-61144151D01*
X93502000Y-57744665D01*
X93505758Y-57706337D01*
X93511176Y-57688391D01*
X93519979Y-57671834D01*
X93531829Y-57657305D01*
X93546279Y-57645352D01*
X93562772Y-57636434D01*
X93580680Y-57630890D01*
X93617692Y-57627000D01*
X94194502Y-57627000D01*
X94168798Y-57637647D01*
G37*
G04 #@! TD.AperFunction*
M02*
