%FSLAX45Y45*%
G04 Gerber Fmt 4.5, Leading zero omitted, Abs format (unit mm)*
G04 Created by KiCad (PCBNEW (5.1.9)-1) date 2021-06-07 20:00:42*
%MOMM*%
%LPD*%
G01*
G04 APERTURE LIST*
%TA.AperFunction,Profile*%
%ADD10C,0.050000*%
%TD*%
%ADD11C,0.200000*%
%ADD12C,0.300000*%
G04 APERTURE END LIST*
D10*
X11419000Y-10802500D02*
G75*
G02*
X11369000Y-10852500I-50000J0D01*
G01*
X9360000Y-10852500D02*
G75*
G02*
X9310000Y-10802500I0J50000D01*
G01*
X9310000Y-5772500D02*
G75*
G02*
X9360000Y-5722500I50000J0D01*
G01*
X11369000Y-5722500D02*
G75*
G02*
X11419000Y-5772500I0J-50000D01*
G01*
X11419000Y-10802500D02*
X11419000Y-5772500D01*
X9360000Y-5722500D02*
X11369000Y-5722500D01*
X9310000Y-10802500D02*
X9310000Y-5772500D01*
X9360000Y-10852500D02*
X11369000Y-10852500D01*
D11*
X9627500Y-6175000D02*
X9662500Y-6210000D01*
X9662500Y-6175000D02*
X9627500Y-6210000D01*
X9642500Y-8715000D02*
X9677500Y-8750000D01*
X9677500Y-8715000D02*
X9642500Y-8750000D01*
X9652500Y-8516000D02*
X9687500Y-8551000D01*
X9687500Y-8516000D02*
X9652500Y-8551000D01*
X9711693Y-8455000D02*
X9746693Y-8490000D01*
X9746693Y-8455000D02*
X9711693Y-8490000D01*
X9755000Y-8170000D02*
X9790000Y-8205000D01*
X9790000Y-8170000D02*
X9755000Y-8205000D01*
X9764194Y-8554499D02*
X9799194Y-8589499D01*
X9799194Y-8554499D02*
X9764194Y-8589499D01*
X9772500Y-6447500D02*
X9807500Y-6482500D01*
X9807500Y-6447500D02*
X9772500Y-6482500D01*
X9823593Y-8508707D02*
X9858593Y-8543707D01*
X9858593Y-8508707D02*
X9823593Y-8543707D01*
X9848500Y-8435000D02*
X9883500Y-8470000D01*
X9883500Y-8435000D02*
X9848500Y-8470000D01*
X9852500Y-9275000D02*
X9887500Y-9310000D01*
X9887500Y-9275000D02*
X9852500Y-9310000D01*
X9955500Y-7096500D02*
X9990500Y-7131500D01*
X9990500Y-7096500D02*
X9955500Y-7131500D01*
X10002500Y-8940000D02*
X10037500Y-8975000D01*
X10037500Y-8940000D02*
X10002500Y-8975000D01*
X10008750Y-8218750D02*
X10043750Y-8253750D01*
X10043750Y-8218750D02*
X10008750Y-8253750D01*
X10020000Y-6444500D02*
X10055000Y-6479500D01*
X10055000Y-6444500D02*
X10020000Y-6479500D01*
X10020001Y-6577501D02*
X10055001Y-6612501D01*
X10055001Y-6577501D02*
X10020001Y-6612501D01*
X10092500Y-6847500D02*
X10127500Y-6882500D01*
X10127500Y-6847500D02*
X10092500Y-6882500D01*
X10147500Y-7823700D02*
X10182500Y-7858700D01*
X10182500Y-7823700D02*
X10147500Y-7858700D01*
X10167500Y-9192500D02*
X10202500Y-9227500D01*
X10202500Y-9192500D02*
X10167500Y-9227500D01*
X10212500Y-7225000D02*
X10247500Y-7260000D01*
X10247500Y-7225000D02*
X10212500Y-7260000D01*
X10224000Y-8457500D02*
X10259000Y-8492500D01*
X10259000Y-8457500D02*
X10224000Y-8492500D01*
X10224000Y-8585000D02*
X10259000Y-8620000D01*
X10259000Y-8585000D02*
X10224000Y-8620000D01*
X10224000Y-8712500D02*
X10259000Y-8747500D01*
X10259000Y-8712500D02*
X10224000Y-8747500D01*
X10278500Y-6741500D02*
X10313500Y-6776500D01*
X10313500Y-6741500D02*
X10278500Y-6776500D01*
X10307500Y-7225000D02*
X10342500Y-7260000D01*
X10342500Y-7225000D02*
X10307500Y-7260000D01*
X10318000Y-6608500D02*
X10353000Y-6643500D01*
X10353000Y-6608500D02*
X10318000Y-6643500D01*
X10351500Y-8457500D02*
X10386500Y-8492500D01*
X10386500Y-8457500D02*
X10351500Y-8492500D01*
X10351500Y-8585000D02*
X10386500Y-8620000D01*
X10386500Y-8585000D02*
X10351500Y-8620000D01*
X10351500Y-8712500D02*
X10386500Y-8747500D01*
X10386500Y-8712500D02*
X10351500Y-8747500D01*
X10352500Y-9335000D02*
X10387500Y-9370000D01*
X10387500Y-9335000D02*
X10352500Y-9370000D01*
X10362500Y-8135000D02*
X10397500Y-8170000D01*
X10397500Y-8135000D02*
X10362500Y-8170000D01*
X10369501Y-6310000D02*
X10404501Y-6345000D01*
X10404501Y-6310000D02*
X10369501Y-6345000D01*
X10387500Y-7945000D02*
X10422500Y-7980000D01*
X10422500Y-7945000D02*
X10387500Y-7980000D01*
X10395000Y-7735000D02*
X10430000Y-7770000D01*
X10430000Y-7735000D02*
X10395000Y-7770000D01*
X10410927Y-9070528D02*
X10445927Y-9105528D01*
X10445927Y-9070528D02*
X10410927Y-9105528D01*
X10416500Y-8795000D02*
X10451500Y-8830000D01*
X10451500Y-8795000D02*
X10416500Y-8830000D01*
X10417500Y-6915000D02*
X10452500Y-6950000D01*
X10452500Y-6915000D02*
X10417500Y-6950000D01*
X10437500Y-6240000D02*
X10472500Y-6275000D01*
X10472500Y-6240000D02*
X10437500Y-6275000D01*
X10466500Y-6573000D02*
X10501500Y-6608000D01*
X10501500Y-6573000D02*
X10466500Y-6608000D01*
X10467500Y-9352500D02*
X10502500Y-9387500D01*
X10502500Y-9352500D02*
X10467500Y-9387500D01*
X10479000Y-8457500D02*
X10514000Y-8492500D01*
X10514000Y-8457500D02*
X10479000Y-8492500D01*
X10479000Y-8585000D02*
X10514000Y-8620000D01*
X10514000Y-8585000D02*
X10479000Y-8620000D01*
X10479000Y-8712500D02*
X10514000Y-8747500D01*
X10514000Y-8712500D02*
X10479000Y-8747500D01*
X10489000Y-8355000D02*
X10524000Y-8390000D01*
X10524000Y-8355000D02*
X10489000Y-8390000D01*
X10532500Y-10445000D02*
X10567500Y-10480000D01*
X10567500Y-10445000D02*
X10532500Y-10480000D01*
X10636500Y-6591000D02*
X10671500Y-6626000D01*
X10671500Y-6591000D02*
X10636500Y-6626000D01*
X10637500Y-7187501D02*
X10672500Y-7222501D01*
X10672500Y-7187501D02*
X10637500Y-7222501D01*
X10638500Y-6911500D02*
X10673500Y-6946500D01*
X10673500Y-6911500D02*
X10638500Y-6946500D01*
X10665000Y-6445000D02*
X10700000Y-6480000D01*
X10700000Y-6445000D02*
X10665000Y-6480000D01*
X10675000Y-8117500D02*
X10710000Y-8152500D01*
X10710000Y-8117500D02*
X10675000Y-8152500D01*
X10700000Y-6810000D02*
X10735000Y-6845000D01*
X10735000Y-6810000D02*
X10700000Y-6845000D01*
X10742500Y-9205000D02*
X10777500Y-9240000D01*
X10777500Y-9205000D02*
X10742500Y-9240000D01*
X10755000Y-8022500D02*
X10790000Y-8057500D01*
X10790000Y-8022500D02*
X10755000Y-8057500D01*
X10793499Y-7735000D02*
X10828499Y-7770000D01*
X10828499Y-7735000D02*
X10793499Y-7770000D01*
X10832500Y-8995000D02*
X10867500Y-9030000D01*
X10867500Y-8995000D02*
X10832500Y-9030000D01*
X10862500Y-9300000D02*
X10897500Y-9335000D01*
X10897500Y-9300000D02*
X10862500Y-9335000D01*
X10882500Y-6752500D02*
X10917500Y-6787500D01*
X10917500Y-6752500D02*
X10882500Y-6787500D01*
X10913500Y-7257500D02*
X10948500Y-7292500D01*
X10948500Y-7257500D02*
X10913500Y-7292500D01*
X10942500Y-8035000D02*
X10977500Y-8070000D01*
X10977500Y-8035000D02*
X10942500Y-8070000D01*
X10992500Y-8685000D02*
X11027500Y-8720000D01*
X11027500Y-8685000D02*
X10992500Y-8720000D01*
X11045000Y-8432500D02*
X11080000Y-8467500D01*
X11080000Y-8432500D02*
X11045000Y-8467500D01*
X9958000Y-5952500D02*
G75*
G03*
X9958000Y-5952500I-30000J0D01*
G01*
X9948000Y-5982500D02*
X9948000Y-5922500D01*
X9908000Y-5982500D02*
X9908000Y-5922500D01*
X9948000Y-5922500D02*
G75*
G03*
X9908000Y-5922500I-20000J0D01*
G01*
X9908000Y-5982500D02*
G75*
G03*
X9948000Y-5982500I20000J0D01*
G01*
X9958000Y-6370500D02*
G75*
G03*
X9958000Y-6370500I-30000J0D01*
G01*
X9948000Y-6425500D02*
X9948000Y-6315500D01*
X9908000Y-6425500D02*
X9908000Y-6315500D01*
X9948000Y-6315500D02*
G75*
G03*
X9908000Y-6315500I-20000J0D01*
G01*
X9908000Y-6425500D02*
G75*
G03*
X9948000Y-6425500I20000J0D01*
G01*
X10822000Y-5952500D02*
G75*
G03*
X10822000Y-5952500I-30000J0D01*
G01*
X10812000Y-5982500D02*
X10812000Y-5922500D01*
X10772000Y-5982500D02*
X10772000Y-5922500D01*
X10812000Y-5922500D02*
G75*
G03*
X10772000Y-5922500I-20000J0D01*
G01*
X10772000Y-5982500D02*
G75*
G03*
X10812000Y-5982500I20000J0D01*
G01*
X10822000Y-6370500D02*
G75*
G03*
X10822000Y-6370500I-30000J0D01*
G01*
X10812000Y-6425500D02*
X10812000Y-6315500D01*
X10772000Y-6425500D02*
X10772000Y-6315500D01*
X10812000Y-6315500D02*
G75*
G03*
X10772000Y-6315500I-20000J0D01*
G01*
X10772000Y-6425500D02*
G75*
G03*
X10812000Y-6425500I20000J0D01*
G01*
X9304000Y-9124500D02*
X9304000Y-9224500D01*
X9254000Y-9174500D02*
X9354000Y-9174500D01*
X9305000Y-5822500D02*
X9305000Y-5922500D01*
X9255000Y-5872500D02*
X9355000Y-5872500D01*
X9305000Y-6075500D02*
X9305000Y-6175500D01*
X9255000Y-6125500D02*
X9355000Y-6125500D01*
X9305000Y-6330500D02*
X9305000Y-6430500D01*
X9255000Y-6380500D02*
X9355000Y-6380500D01*
X9305000Y-6583500D02*
X9305000Y-6683500D01*
X9255000Y-6633500D02*
X9355000Y-6633500D01*
X9305000Y-6838500D02*
X9305000Y-6938500D01*
X9255000Y-6888500D02*
X9355000Y-6888500D01*
X9305000Y-7092500D02*
X9305000Y-7192500D01*
X9255000Y-7142500D02*
X9355000Y-7142500D01*
X9305000Y-7346500D02*
X9305000Y-7446500D01*
X9255000Y-7396500D02*
X9355000Y-7396500D01*
X9305000Y-7600500D02*
X9305000Y-7700500D01*
X9255000Y-7650500D02*
X9355000Y-7650500D01*
X9305000Y-8108500D02*
X9305000Y-8208500D01*
X9255000Y-8158500D02*
X9355000Y-8158500D01*
X9305000Y-8362500D02*
X9305000Y-8462500D01*
X9255000Y-8412500D02*
X9355000Y-8412500D01*
X9305000Y-8616500D02*
X9305000Y-8716500D01*
X9255000Y-8666500D02*
X9355000Y-8666500D01*
X9305000Y-8870500D02*
X9305000Y-8970500D01*
X9255000Y-8920500D02*
X9355000Y-8920500D01*
X9305000Y-9378500D02*
X9305000Y-9478500D01*
X9255000Y-9428500D02*
X9355000Y-9428500D01*
X9305000Y-9632500D02*
X9305000Y-9732500D01*
X9255000Y-9682500D02*
X9355000Y-9682500D01*
X9305000Y-9886500D02*
X9305000Y-9986500D01*
X9255000Y-9936500D02*
X9355000Y-9936500D01*
X9305000Y-10140500D02*
X9305000Y-10240500D01*
X9255000Y-10190500D02*
X9355000Y-10190500D01*
X9305000Y-10394500D02*
X9305000Y-10494500D01*
X9255000Y-10444500D02*
X9355000Y-10444500D01*
X9305000Y-10648500D02*
X9305000Y-10748500D01*
X9255000Y-10698500D02*
X9355000Y-10698500D01*
X9306000Y-7854500D02*
X9306000Y-7954500D01*
X9256000Y-7904500D02*
X9356000Y-7904500D01*
X9475000Y-5822500D02*
X9475000Y-5922500D01*
X9425000Y-5872500D02*
X9525000Y-5872500D01*
X9475000Y-6076500D02*
X9475000Y-6176500D01*
X9425000Y-6126500D02*
X9525000Y-6126500D01*
X9475000Y-6330500D02*
X9475000Y-6430500D01*
X9425000Y-6380500D02*
X9525000Y-6380500D01*
X9475000Y-6584500D02*
X9475000Y-6684500D01*
X9425000Y-6634500D02*
X9525000Y-6634500D01*
X9475000Y-6838500D02*
X9475000Y-6938500D01*
X9425000Y-6888500D02*
X9525000Y-6888500D01*
X9475000Y-7092500D02*
X9475000Y-7192500D01*
X9425000Y-7142500D02*
X9525000Y-7142500D01*
X9475000Y-7346500D02*
X9475000Y-7446500D01*
X9425000Y-7396500D02*
X9525000Y-7396500D01*
X9475000Y-7600500D02*
X9475000Y-7700500D01*
X9425000Y-7650500D02*
X9525000Y-7650500D01*
X9475000Y-7854500D02*
X9475000Y-7954500D01*
X9425000Y-7904500D02*
X9525000Y-7904500D01*
X9475000Y-8108500D02*
X9475000Y-8208500D01*
X9425000Y-8158500D02*
X9525000Y-8158500D01*
X9475000Y-8362500D02*
X9475000Y-8462500D01*
X9425000Y-8412500D02*
X9525000Y-8412500D01*
X9475000Y-8616500D02*
X9475000Y-8716500D01*
X9425000Y-8666500D02*
X9525000Y-8666500D01*
X9475000Y-8870500D02*
X9475000Y-8970500D01*
X9425000Y-8920500D02*
X9525000Y-8920500D01*
X9475000Y-9124500D02*
X9475000Y-9224500D01*
X9425000Y-9174500D02*
X9525000Y-9174500D01*
X9475000Y-9378500D02*
X9475000Y-9478500D01*
X9425000Y-9428500D02*
X9525000Y-9428500D01*
X9475000Y-9632500D02*
X9475000Y-9732500D01*
X9425000Y-9682500D02*
X9525000Y-9682500D01*
X9475000Y-9886500D02*
X9475000Y-9986500D01*
X9425000Y-9936500D02*
X9525000Y-9936500D01*
X9475000Y-10140500D02*
X9475000Y-10240500D01*
X9425000Y-10190500D02*
X9525000Y-10190500D01*
X9475000Y-10394500D02*
X9475000Y-10494500D01*
X9425000Y-10444500D02*
X9525000Y-10444500D01*
X9475000Y-10648500D02*
X9475000Y-10748500D01*
X9425000Y-10698500D02*
X9525000Y-10698500D01*
X10115000Y-10642500D02*
X10115000Y-10742500D01*
X10065000Y-10692500D02*
X10165000Y-10692500D01*
X10369000Y-10642500D02*
X10369000Y-10742500D01*
X10319000Y-10692500D02*
X10419000Y-10692500D01*
X10623000Y-10642500D02*
X10623000Y-10742500D01*
X10573000Y-10692500D02*
X10673000Y-10692500D01*
X11255000Y-5822500D02*
X11255000Y-5922500D01*
X11205000Y-5872500D02*
X11305000Y-5872500D01*
X11255000Y-6076500D02*
X11255000Y-6176500D01*
X11205000Y-6126500D02*
X11305000Y-6126500D01*
X11255000Y-6330500D02*
X11255000Y-6430500D01*
X11205000Y-6380500D02*
X11305000Y-6380500D01*
X11255000Y-6584500D02*
X11255000Y-6684500D01*
X11205000Y-6634500D02*
X11305000Y-6634500D01*
X11255000Y-6838500D02*
X11255000Y-6938500D01*
X11205000Y-6888500D02*
X11305000Y-6888500D01*
X11255000Y-7092500D02*
X11255000Y-7192500D01*
X11205000Y-7142500D02*
X11305000Y-7142500D01*
X11255000Y-7346500D02*
X11255000Y-7446500D01*
X11205000Y-7396500D02*
X11305000Y-7396500D01*
X11255000Y-7600500D02*
X11255000Y-7700500D01*
X11205000Y-7650500D02*
X11305000Y-7650500D01*
X11255000Y-7854500D02*
X11255000Y-7954500D01*
X11205000Y-7904500D02*
X11305000Y-7904500D01*
X11255000Y-8108500D02*
X11255000Y-8208500D01*
X11205000Y-8158500D02*
X11305000Y-8158500D01*
X11255000Y-8362500D02*
X11255000Y-8462500D01*
X11205000Y-8412500D02*
X11305000Y-8412500D01*
X11255000Y-8616500D02*
X11255000Y-8716500D01*
X11205000Y-8666500D02*
X11305000Y-8666500D01*
X11255000Y-8870500D02*
X11255000Y-8970500D01*
X11205000Y-8920500D02*
X11305000Y-8920500D01*
X11255000Y-9124500D02*
X11255000Y-9224500D01*
X11205000Y-9174500D02*
X11305000Y-9174500D01*
X11255000Y-9378500D02*
X11255000Y-9478500D01*
X11205000Y-9428500D02*
X11305000Y-9428500D01*
X11255000Y-9632500D02*
X11255000Y-9732500D01*
X11205000Y-9682500D02*
X11305000Y-9682500D01*
X11255000Y-9886500D02*
X11255000Y-9986500D01*
X11205000Y-9936500D02*
X11305000Y-9936500D01*
X11255000Y-10140500D02*
X11255000Y-10240500D01*
X11205000Y-10190500D02*
X11305000Y-10190500D01*
X11255000Y-10394500D02*
X11255000Y-10494500D01*
X11205000Y-10444500D02*
X11305000Y-10444500D01*
X11255000Y-10648500D02*
X11255000Y-10748500D01*
X11205000Y-10698500D02*
X11305000Y-10698500D01*
X11425000Y-5822500D02*
X11425000Y-5922500D01*
X11375000Y-5872500D02*
X11475000Y-5872500D01*
X11425000Y-6076500D02*
X11425000Y-6176500D01*
X11375000Y-6126500D02*
X11475000Y-6126500D01*
X11425000Y-6330500D02*
X11425000Y-6430500D01*
X11375000Y-6380500D02*
X11475000Y-6380500D01*
X11425000Y-6584500D02*
X11425000Y-6684500D01*
X11375000Y-6634500D02*
X11475000Y-6634500D01*
X11425000Y-6838500D02*
X11425000Y-6938500D01*
X11375000Y-6888500D02*
X11475000Y-6888500D01*
X11425000Y-7092500D02*
X11425000Y-7192500D01*
X11375000Y-7142500D02*
X11475000Y-7142500D01*
X11425000Y-7346500D02*
X11425000Y-7446500D01*
X11375000Y-7396500D02*
X11475000Y-7396500D01*
X11425000Y-7600500D02*
X11425000Y-7700500D01*
X11375000Y-7650500D02*
X11475000Y-7650500D01*
X11425000Y-7854500D02*
X11425000Y-7954500D01*
X11375000Y-7904500D02*
X11475000Y-7904500D01*
X11425000Y-8108500D02*
X11425000Y-8208500D01*
X11375000Y-8158500D02*
X11475000Y-8158500D01*
X11425000Y-8362500D02*
X11425000Y-8462500D01*
X11375000Y-8412500D02*
X11475000Y-8412500D01*
X11425000Y-8616500D02*
X11425000Y-8716500D01*
X11375000Y-8666500D02*
X11475000Y-8666500D01*
X11425000Y-8870500D02*
X11425000Y-8970500D01*
X11375000Y-8920500D02*
X11475000Y-8920500D01*
X11425000Y-9124500D02*
X11425000Y-9224500D01*
X11375000Y-9174500D02*
X11475000Y-9174500D01*
X11425000Y-9378500D02*
X11425000Y-9478500D01*
X11375000Y-9428500D02*
X11475000Y-9428500D01*
X11425000Y-9632500D02*
X11425000Y-9732500D01*
X11375000Y-9682500D02*
X11475000Y-9682500D01*
X11425000Y-9886500D02*
X11425000Y-9986500D01*
X11375000Y-9936500D02*
X11475000Y-9936500D01*
X11425000Y-10140500D02*
X11425000Y-10240500D01*
X11375000Y-10190500D02*
X11475000Y-10190500D01*
X11425000Y-10394500D02*
X11425000Y-10494500D01*
X11375000Y-10444500D02*
X11475000Y-10444500D01*
X11425000Y-10648500D02*
X11425000Y-10748500D01*
X11375000Y-10698500D02*
X11475000Y-10698500D01*
D12*
X9511429Y-11320714D02*
X9511429Y-11020714D01*
X9582857Y-11020714D01*
X9625714Y-11035000D01*
X9654286Y-11063572D01*
X9668571Y-11092143D01*
X9682857Y-11149286D01*
X9682857Y-11192143D01*
X9668571Y-11249286D01*
X9654286Y-11277857D01*
X9625714Y-11306429D01*
X9582857Y-11320714D01*
X9511429Y-11320714D01*
X9811429Y-11320714D02*
X9811429Y-11120714D01*
X9811429Y-11177857D02*
X9825714Y-11149286D01*
X9840000Y-11135000D01*
X9868571Y-11120714D01*
X9897143Y-11120714D01*
X9997143Y-11320714D02*
X9997143Y-11120714D01*
X9997143Y-11020714D02*
X9982857Y-11035000D01*
X9997143Y-11049286D01*
X10011429Y-11035000D01*
X9997143Y-11020714D01*
X9997143Y-11049286D01*
X10182857Y-11320714D02*
X10154286Y-11306429D01*
X10140000Y-11277857D01*
X10140000Y-11020714D01*
X10340000Y-11320714D02*
X10311429Y-11306429D01*
X10297143Y-11277857D01*
X10297143Y-11020714D01*
X10682857Y-11320714D02*
X10682857Y-11020714D01*
X10782857Y-11235000D01*
X10882857Y-11020714D01*
X10882857Y-11320714D01*
X11154286Y-11320714D02*
X11154286Y-11163572D01*
X11140000Y-11135000D01*
X11111429Y-11120714D01*
X11054286Y-11120714D01*
X11025714Y-11135000D01*
X11154286Y-11306429D02*
X11125714Y-11320714D01*
X11054286Y-11320714D01*
X11025714Y-11306429D01*
X11011429Y-11277857D01*
X11011429Y-11249286D01*
X11025714Y-11220714D01*
X11054286Y-11206429D01*
X11125714Y-11206429D01*
X11154286Y-11192143D01*
X11297143Y-11120714D02*
X11297143Y-11420714D01*
X11297143Y-11135000D02*
X11325714Y-11120714D01*
X11382857Y-11120714D01*
X11411428Y-11135000D01*
X11425714Y-11149286D01*
X11440000Y-11177857D01*
X11440000Y-11263571D01*
X11425714Y-11292143D01*
X11411428Y-11306429D01*
X11382857Y-11320714D01*
X11325714Y-11320714D01*
X11297143Y-11306429D01*
X11568571Y-11292143D02*
X11582857Y-11306429D01*
X11568571Y-11320714D01*
X11554286Y-11306429D01*
X11568571Y-11292143D01*
X11568571Y-11320714D01*
X11568571Y-11135000D02*
X11582857Y-11149286D01*
X11568571Y-11163572D01*
X11554286Y-11149286D01*
X11568571Y-11135000D01*
X11568571Y-11163572D01*
X9190000Y-11797500D02*
X9225000Y-11832500D01*
X9225000Y-11797500D02*
X9190000Y-11832500D01*
X9568571Y-11650714D02*
X9597143Y-11650714D01*
X9625714Y-11665000D01*
X9640000Y-11679286D01*
X9654286Y-11707857D01*
X9668571Y-11765000D01*
X9668571Y-11836429D01*
X9654286Y-11893571D01*
X9640000Y-11922143D01*
X9625714Y-11936429D01*
X9597143Y-11950714D01*
X9568571Y-11950714D01*
X9540000Y-11936429D01*
X9525714Y-11922143D01*
X9511429Y-11893571D01*
X9497143Y-11836429D01*
X9497143Y-11765000D01*
X9511429Y-11707857D01*
X9525714Y-11679286D01*
X9540000Y-11665000D01*
X9568571Y-11650714D01*
X9797143Y-11922143D02*
X9811429Y-11936429D01*
X9797143Y-11950714D01*
X9782857Y-11936429D01*
X9797143Y-11922143D01*
X9797143Y-11950714D01*
X9911429Y-11650714D02*
X10097143Y-11650714D01*
X9997143Y-11765000D01*
X10040000Y-11765000D01*
X10068571Y-11779286D01*
X10082857Y-11793571D01*
X10097143Y-11822143D01*
X10097143Y-11893571D01*
X10082857Y-11922143D01*
X10068571Y-11936429D01*
X10040000Y-11950714D01*
X9954286Y-11950714D01*
X9925714Y-11936429D01*
X9911429Y-11922143D01*
X10368571Y-11650714D02*
X10225714Y-11650714D01*
X10211429Y-11793571D01*
X10225714Y-11779286D01*
X10254286Y-11765000D01*
X10325714Y-11765000D01*
X10354286Y-11779286D01*
X10368571Y-11793571D01*
X10382857Y-11822143D01*
X10382857Y-11893571D01*
X10368571Y-11922143D01*
X10354286Y-11936429D01*
X10325714Y-11950714D01*
X10254286Y-11950714D01*
X10225714Y-11936429D01*
X10211429Y-11922143D01*
X10511429Y-11950714D02*
X10511429Y-11750714D01*
X10511429Y-11779286D02*
X10525714Y-11765000D01*
X10554286Y-11750714D01*
X10597143Y-11750714D01*
X10625714Y-11765000D01*
X10640000Y-11793571D01*
X10640000Y-11950714D01*
X10640000Y-11793571D02*
X10654286Y-11765000D01*
X10682857Y-11750714D01*
X10725714Y-11750714D01*
X10754286Y-11765000D01*
X10768571Y-11793571D01*
X10768571Y-11950714D01*
X10911429Y-11950714D02*
X10911429Y-11750714D01*
X10911429Y-11779286D02*
X10925714Y-11765000D01*
X10954286Y-11750714D01*
X10997143Y-11750714D01*
X11025714Y-11765000D01*
X11040000Y-11793571D01*
X11040000Y-11950714D01*
X11040000Y-11793571D02*
X11054286Y-11765000D01*
X11082857Y-11750714D01*
X11125714Y-11750714D01*
X11154286Y-11765000D01*
X11168571Y-11793571D01*
X11168571Y-11950714D01*
X11754286Y-11636429D02*
X11497143Y-12022143D01*
X12140000Y-11650714D02*
X12168571Y-11650714D01*
X12197143Y-11665000D01*
X12211428Y-11679286D01*
X12225714Y-11707857D01*
X12240000Y-11765000D01*
X12240000Y-11836429D01*
X12225714Y-11893571D01*
X12211428Y-11922143D01*
X12197143Y-11936429D01*
X12168571Y-11950714D01*
X12140000Y-11950714D01*
X12111428Y-11936429D01*
X12097143Y-11922143D01*
X12082857Y-11893571D01*
X12068571Y-11836429D01*
X12068571Y-11765000D01*
X12082857Y-11707857D01*
X12097143Y-11679286D01*
X12111428Y-11665000D01*
X12140000Y-11650714D01*
X12368571Y-11922143D02*
X12382857Y-11936429D01*
X12368571Y-11950714D01*
X12354286Y-11936429D01*
X12368571Y-11922143D01*
X12368571Y-11950714D01*
X12568571Y-11650714D02*
X12597143Y-11650714D01*
X12625714Y-11665000D01*
X12640000Y-11679286D01*
X12654286Y-11707857D01*
X12668571Y-11765000D01*
X12668571Y-11836429D01*
X12654286Y-11893571D01*
X12640000Y-11922143D01*
X12625714Y-11936429D01*
X12597143Y-11950714D01*
X12568571Y-11950714D01*
X12540000Y-11936429D01*
X12525714Y-11922143D01*
X12511428Y-11893571D01*
X12497143Y-11836429D01*
X12497143Y-11765000D01*
X12511428Y-11707857D01*
X12525714Y-11679286D01*
X12540000Y-11665000D01*
X12568571Y-11650714D01*
X12954286Y-11950714D02*
X12782857Y-11950714D01*
X12868571Y-11950714D02*
X12868571Y-11650714D01*
X12840000Y-11693571D01*
X12811428Y-11722143D01*
X12782857Y-11736429D01*
X13211428Y-11750714D02*
X13211428Y-11950714D01*
X13140000Y-11636429D02*
X13068571Y-11850714D01*
X13254286Y-11850714D01*
X13354286Y-11650714D02*
X13354286Y-11707857D01*
X13468571Y-11650714D02*
X13468571Y-11707857D01*
X13911428Y-12065000D02*
X13897143Y-12050714D01*
X13868571Y-12007857D01*
X13854286Y-11979286D01*
X13840000Y-11936429D01*
X13825714Y-11865000D01*
X13825714Y-11807857D01*
X13840000Y-11736429D01*
X13854286Y-11693571D01*
X13868571Y-11665000D01*
X13897143Y-11622143D01*
X13911428Y-11607857D01*
X14154286Y-11650714D02*
X14097143Y-11650714D01*
X14068571Y-11665000D01*
X14054286Y-11679286D01*
X14025714Y-11722143D01*
X14011428Y-11779286D01*
X14011428Y-11893571D01*
X14025714Y-11922143D01*
X14040000Y-11936429D01*
X14068571Y-11950714D01*
X14125714Y-11950714D01*
X14154286Y-11936429D01*
X14168571Y-11922143D01*
X14182857Y-11893571D01*
X14182857Y-11822143D01*
X14168571Y-11793571D01*
X14154286Y-11779286D01*
X14125714Y-11765000D01*
X14068571Y-11765000D01*
X14040000Y-11779286D01*
X14025714Y-11793571D01*
X14011428Y-11822143D01*
X14368571Y-11650714D02*
X14397143Y-11650714D01*
X14425714Y-11665000D01*
X14440000Y-11679286D01*
X14454286Y-11707857D01*
X14468571Y-11765000D01*
X14468571Y-11836429D01*
X14454286Y-11893571D01*
X14440000Y-11922143D01*
X14425714Y-11936429D01*
X14397143Y-11950714D01*
X14368571Y-11950714D01*
X14340000Y-11936429D01*
X14325714Y-11922143D01*
X14311428Y-11893571D01*
X14297143Y-11836429D01*
X14297143Y-11765000D01*
X14311428Y-11707857D01*
X14325714Y-11679286D01*
X14340000Y-11665000D01*
X14368571Y-11650714D01*
X14825714Y-11950714D02*
X14825714Y-11650714D01*
X14954286Y-11950714D02*
X14954286Y-11793571D01*
X14940000Y-11765000D01*
X14911428Y-11750714D01*
X14868571Y-11750714D01*
X14840000Y-11765000D01*
X14825714Y-11779286D01*
X15140000Y-11950714D02*
X15111428Y-11936429D01*
X15097143Y-11922143D01*
X15082857Y-11893571D01*
X15082857Y-11807857D01*
X15097143Y-11779286D01*
X15111428Y-11765000D01*
X15140000Y-11750714D01*
X15182857Y-11750714D01*
X15211428Y-11765000D01*
X15225714Y-11779286D01*
X15240000Y-11807857D01*
X15240000Y-11893571D01*
X15225714Y-11922143D01*
X15211428Y-11936429D01*
X15182857Y-11950714D01*
X15140000Y-11950714D01*
X15411428Y-11950714D02*
X15382857Y-11936429D01*
X15368571Y-11907857D01*
X15368571Y-11650714D01*
X15640000Y-11936429D02*
X15611428Y-11950714D01*
X15554286Y-11950714D01*
X15525714Y-11936429D01*
X15511428Y-11907857D01*
X15511428Y-11793571D01*
X15525714Y-11765000D01*
X15554286Y-11750714D01*
X15611428Y-11750714D01*
X15640000Y-11765000D01*
X15654286Y-11793571D01*
X15654286Y-11822143D01*
X15511428Y-11850714D01*
X15768571Y-11936429D02*
X15797143Y-11950714D01*
X15854286Y-11950714D01*
X15882857Y-11936429D01*
X15897143Y-11907857D01*
X15897143Y-11893571D01*
X15882857Y-11865000D01*
X15854286Y-11850714D01*
X15811428Y-11850714D01*
X15782857Y-11836429D01*
X15768571Y-11807857D01*
X15768571Y-11793571D01*
X15782857Y-11765000D01*
X15811428Y-11750714D01*
X15854286Y-11750714D01*
X15882857Y-11765000D01*
X15997143Y-12065000D02*
X16011428Y-12050714D01*
X16040000Y-12007857D01*
X16054286Y-11979286D01*
X16068571Y-11936429D01*
X16082857Y-11865000D01*
X16082857Y-11807857D01*
X16068571Y-11736429D01*
X16054286Y-11693571D01*
X16040000Y-11665000D01*
X16011428Y-11622143D01*
X15997143Y-11607857D01*
X9225000Y-12211000D02*
G75*
G03*
X9225000Y-12211000I-30000J0D01*
G01*
X9568571Y-12046714D02*
X9597143Y-12046714D01*
X9625714Y-12061000D01*
X9640000Y-12075286D01*
X9654286Y-12103857D01*
X9668571Y-12161000D01*
X9668571Y-12232429D01*
X9654286Y-12289571D01*
X9640000Y-12318143D01*
X9625714Y-12332429D01*
X9597143Y-12346714D01*
X9568571Y-12346714D01*
X9540000Y-12332429D01*
X9525714Y-12318143D01*
X9511429Y-12289571D01*
X9497143Y-12232429D01*
X9497143Y-12161000D01*
X9511429Y-12103857D01*
X9525714Y-12075286D01*
X9540000Y-12061000D01*
X9568571Y-12046714D01*
X9797143Y-12318143D02*
X9811429Y-12332429D01*
X9797143Y-12346714D01*
X9782857Y-12332429D01*
X9797143Y-12318143D01*
X9797143Y-12346714D01*
X10068571Y-12046714D02*
X10011429Y-12046714D01*
X9982857Y-12061000D01*
X9968571Y-12075286D01*
X9940000Y-12118143D01*
X9925714Y-12175286D01*
X9925714Y-12289571D01*
X9940000Y-12318143D01*
X9954286Y-12332429D01*
X9982857Y-12346714D01*
X10040000Y-12346714D01*
X10068571Y-12332429D01*
X10082857Y-12318143D01*
X10097143Y-12289571D01*
X10097143Y-12218143D01*
X10082857Y-12189571D01*
X10068571Y-12175286D01*
X10040000Y-12161000D01*
X9982857Y-12161000D01*
X9954286Y-12175286D01*
X9940000Y-12189571D01*
X9925714Y-12218143D01*
X10282857Y-12046714D02*
X10311429Y-12046714D01*
X10340000Y-12061000D01*
X10354286Y-12075286D01*
X10368571Y-12103857D01*
X10382857Y-12161000D01*
X10382857Y-12232429D01*
X10368571Y-12289571D01*
X10354286Y-12318143D01*
X10340000Y-12332429D01*
X10311429Y-12346714D01*
X10282857Y-12346714D01*
X10254286Y-12332429D01*
X10240000Y-12318143D01*
X10225714Y-12289571D01*
X10211429Y-12232429D01*
X10211429Y-12161000D01*
X10225714Y-12103857D01*
X10240000Y-12075286D01*
X10254286Y-12061000D01*
X10282857Y-12046714D01*
X10511429Y-12346714D02*
X10511429Y-12146714D01*
X10511429Y-12175286D02*
X10525714Y-12161000D01*
X10554286Y-12146714D01*
X10597143Y-12146714D01*
X10625714Y-12161000D01*
X10640000Y-12189571D01*
X10640000Y-12346714D01*
X10640000Y-12189571D02*
X10654286Y-12161000D01*
X10682857Y-12146714D01*
X10725714Y-12146714D01*
X10754286Y-12161000D01*
X10768571Y-12189571D01*
X10768571Y-12346714D01*
X10911429Y-12346714D02*
X10911429Y-12146714D01*
X10911429Y-12175286D02*
X10925714Y-12161000D01*
X10954286Y-12146714D01*
X10997143Y-12146714D01*
X11025714Y-12161000D01*
X11040000Y-12189571D01*
X11040000Y-12346714D01*
X11040000Y-12189571D02*
X11054286Y-12161000D01*
X11082857Y-12146714D01*
X11125714Y-12146714D01*
X11154286Y-12161000D01*
X11168571Y-12189571D01*
X11168571Y-12346714D01*
X11754286Y-12032429D02*
X11497143Y-12418143D01*
X12140000Y-12046714D02*
X12168571Y-12046714D01*
X12197143Y-12061000D01*
X12211428Y-12075286D01*
X12225714Y-12103857D01*
X12240000Y-12161000D01*
X12240000Y-12232429D01*
X12225714Y-12289571D01*
X12211428Y-12318143D01*
X12197143Y-12332429D01*
X12168571Y-12346714D01*
X12140000Y-12346714D01*
X12111428Y-12332429D01*
X12097143Y-12318143D01*
X12082857Y-12289571D01*
X12068571Y-12232429D01*
X12068571Y-12161000D01*
X12082857Y-12103857D01*
X12097143Y-12075286D01*
X12111428Y-12061000D01*
X12140000Y-12046714D01*
X12368571Y-12318143D02*
X12382857Y-12332429D01*
X12368571Y-12346714D01*
X12354286Y-12332429D01*
X12368571Y-12318143D01*
X12368571Y-12346714D01*
X12568571Y-12046714D02*
X12597143Y-12046714D01*
X12625714Y-12061000D01*
X12640000Y-12075286D01*
X12654286Y-12103857D01*
X12668571Y-12161000D01*
X12668571Y-12232429D01*
X12654286Y-12289571D01*
X12640000Y-12318143D01*
X12625714Y-12332429D01*
X12597143Y-12346714D01*
X12568571Y-12346714D01*
X12540000Y-12332429D01*
X12525714Y-12318143D01*
X12511428Y-12289571D01*
X12497143Y-12232429D01*
X12497143Y-12161000D01*
X12511428Y-12103857D01*
X12525714Y-12075286D01*
X12540000Y-12061000D01*
X12568571Y-12046714D01*
X12782857Y-12075286D02*
X12797143Y-12061000D01*
X12825714Y-12046714D01*
X12897143Y-12046714D01*
X12925714Y-12061000D01*
X12940000Y-12075286D01*
X12954286Y-12103857D01*
X12954286Y-12132429D01*
X12940000Y-12175286D01*
X12768571Y-12346714D01*
X12954286Y-12346714D01*
X13211428Y-12146714D02*
X13211428Y-12346714D01*
X13140000Y-12032429D02*
X13068571Y-12246714D01*
X13254286Y-12246714D01*
X13354286Y-12046714D02*
X13354286Y-12103857D01*
X13468571Y-12046714D02*
X13468571Y-12103857D01*
X13911428Y-12461000D02*
X13897143Y-12446714D01*
X13868571Y-12403857D01*
X13854286Y-12375286D01*
X13840000Y-12332429D01*
X13825714Y-12261000D01*
X13825714Y-12203857D01*
X13840000Y-12132429D01*
X13854286Y-12089571D01*
X13868571Y-12061000D01*
X13897143Y-12018143D01*
X13911428Y-12003857D01*
X14082857Y-12046714D02*
X14111428Y-12046714D01*
X14140000Y-12061000D01*
X14154286Y-12075286D01*
X14168571Y-12103857D01*
X14182857Y-12161000D01*
X14182857Y-12232429D01*
X14168571Y-12289571D01*
X14154286Y-12318143D01*
X14140000Y-12332429D01*
X14111428Y-12346714D01*
X14082857Y-12346714D01*
X14054286Y-12332429D01*
X14040000Y-12318143D01*
X14025714Y-12289571D01*
X14011428Y-12232429D01*
X14011428Y-12161000D01*
X14025714Y-12103857D01*
X14040000Y-12075286D01*
X14054286Y-12061000D01*
X14082857Y-12046714D01*
X14540000Y-12346714D02*
X14540000Y-12046714D01*
X14668571Y-12346714D02*
X14668571Y-12189571D01*
X14654286Y-12161000D01*
X14625714Y-12146714D01*
X14582857Y-12146714D01*
X14554286Y-12161000D01*
X14540000Y-12175286D01*
X14854286Y-12346714D02*
X14825714Y-12332429D01*
X14811428Y-12318143D01*
X14797143Y-12289571D01*
X14797143Y-12203857D01*
X14811428Y-12175286D01*
X14825714Y-12161000D01*
X14854286Y-12146714D01*
X14897143Y-12146714D01*
X14925714Y-12161000D01*
X14940000Y-12175286D01*
X14954286Y-12203857D01*
X14954286Y-12289571D01*
X14940000Y-12318143D01*
X14925714Y-12332429D01*
X14897143Y-12346714D01*
X14854286Y-12346714D01*
X15125714Y-12346714D02*
X15097143Y-12332429D01*
X15082857Y-12303857D01*
X15082857Y-12046714D01*
X15354286Y-12332429D02*
X15325714Y-12346714D01*
X15268571Y-12346714D01*
X15240000Y-12332429D01*
X15225714Y-12303857D01*
X15225714Y-12189571D01*
X15240000Y-12161000D01*
X15268571Y-12146714D01*
X15325714Y-12146714D01*
X15354286Y-12161000D01*
X15368571Y-12189571D01*
X15368571Y-12218143D01*
X15225714Y-12246714D01*
X15482857Y-12332429D02*
X15511428Y-12346714D01*
X15568571Y-12346714D01*
X15597143Y-12332429D01*
X15611428Y-12303857D01*
X15611428Y-12289571D01*
X15597143Y-12261000D01*
X15568571Y-12246714D01*
X15525714Y-12246714D01*
X15497143Y-12232429D01*
X15482857Y-12203857D01*
X15482857Y-12189571D01*
X15497143Y-12161000D01*
X15525714Y-12146714D01*
X15568571Y-12146714D01*
X15597143Y-12161000D01*
X15968571Y-12232429D02*
X16197143Y-12232429D01*
X16082857Y-12346714D02*
X16082857Y-12118143D01*
X16697143Y-12146714D02*
X16697143Y-12346714D01*
X16625714Y-12032429D02*
X16554286Y-12246714D01*
X16740000Y-12246714D01*
X17068571Y-12332429D02*
X17097143Y-12346714D01*
X17154286Y-12346714D01*
X17182857Y-12332429D01*
X17197143Y-12303857D01*
X17197143Y-12289571D01*
X17182857Y-12261000D01*
X17154286Y-12246714D01*
X17111429Y-12246714D01*
X17082857Y-12232429D01*
X17068571Y-12203857D01*
X17068571Y-12189571D01*
X17082857Y-12161000D01*
X17111429Y-12146714D01*
X17154286Y-12146714D01*
X17182857Y-12161000D01*
X17368571Y-12346714D02*
X17340000Y-12332429D01*
X17325714Y-12303857D01*
X17325714Y-12046714D01*
X17525714Y-12346714D02*
X17497143Y-12332429D01*
X17482857Y-12318143D01*
X17468571Y-12289571D01*
X17468571Y-12203857D01*
X17482857Y-12175286D01*
X17497143Y-12161000D01*
X17525714Y-12146714D01*
X17568571Y-12146714D01*
X17597143Y-12161000D01*
X17611429Y-12175286D01*
X17625714Y-12203857D01*
X17625714Y-12289571D01*
X17611429Y-12318143D01*
X17597143Y-12332429D01*
X17568571Y-12346714D01*
X17525714Y-12346714D01*
X17711429Y-12146714D02*
X17825714Y-12146714D01*
X17754286Y-12046714D02*
X17754286Y-12303857D01*
X17768571Y-12332429D01*
X17797143Y-12346714D01*
X17825714Y-12346714D01*
X17911429Y-12332429D02*
X17940000Y-12346714D01*
X17997143Y-12346714D01*
X18025714Y-12332429D01*
X18040000Y-12303857D01*
X18040000Y-12289571D01*
X18025714Y-12261000D01*
X17997143Y-12246714D01*
X17954286Y-12246714D01*
X17925714Y-12232429D01*
X17911429Y-12203857D01*
X17911429Y-12189571D01*
X17925714Y-12161000D01*
X17954286Y-12146714D01*
X17997143Y-12146714D01*
X18025714Y-12161000D01*
X18140000Y-12461000D02*
X18154286Y-12446714D01*
X18182857Y-12403857D01*
X18197143Y-12375286D01*
X18211429Y-12332429D01*
X18225714Y-12261000D01*
X18225714Y-12203857D01*
X18211429Y-12132429D01*
X18197143Y-12089571D01*
X18182857Y-12061000D01*
X18154286Y-12018143D01*
X18140000Y-12003857D01*
X9175000Y-12557000D02*
X9175000Y-12657000D01*
X9125000Y-12607000D02*
X9225000Y-12607000D01*
X9668571Y-12742714D02*
X9497143Y-12742714D01*
X9582857Y-12742714D02*
X9582857Y-12442714D01*
X9554286Y-12485571D01*
X9525714Y-12514143D01*
X9497143Y-12528429D01*
X9797143Y-12714143D02*
X9811429Y-12728429D01*
X9797143Y-12742714D01*
X9782857Y-12728429D01*
X9797143Y-12714143D01*
X9797143Y-12742714D01*
X9997143Y-12442714D02*
X10025714Y-12442714D01*
X10054286Y-12457000D01*
X10068571Y-12471286D01*
X10082857Y-12499857D01*
X10097143Y-12557000D01*
X10097143Y-12628429D01*
X10082857Y-12685571D01*
X10068571Y-12714143D01*
X10054286Y-12728429D01*
X10025714Y-12742714D01*
X9997143Y-12742714D01*
X9968571Y-12728429D01*
X9954286Y-12714143D01*
X9940000Y-12685571D01*
X9925714Y-12628429D01*
X9925714Y-12557000D01*
X9940000Y-12499857D01*
X9954286Y-12471286D01*
X9968571Y-12457000D01*
X9997143Y-12442714D01*
X10282857Y-12442714D02*
X10311429Y-12442714D01*
X10340000Y-12457000D01*
X10354286Y-12471286D01*
X10368571Y-12499857D01*
X10382857Y-12557000D01*
X10382857Y-12628429D01*
X10368571Y-12685571D01*
X10354286Y-12714143D01*
X10340000Y-12728429D01*
X10311429Y-12742714D01*
X10282857Y-12742714D01*
X10254286Y-12728429D01*
X10240000Y-12714143D01*
X10225714Y-12685571D01*
X10211429Y-12628429D01*
X10211429Y-12557000D01*
X10225714Y-12499857D01*
X10240000Y-12471286D01*
X10254286Y-12457000D01*
X10282857Y-12442714D01*
X10511429Y-12742714D02*
X10511429Y-12542714D01*
X10511429Y-12571286D02*
X10525714Y-12557000D01*
X10554286Y-12542714D01*
X10597143Y-12542714D01*
X10625714Y-12557000D01*
X10640000Y-12585571D01*
X10640000Y-12742714D01*
X10640000Y-12585571D02*
X10654286Y-12557000D01*
X10682857Y-12542714D01*
X10725714Y-12542714D01*
X10754286Y-12557000D01*
X10768571Y-12585571D01*
X10768571Y-12742714D01*
X10911429Y-12742714D02*
X10911429Y-12542714D01*
X10911429Y-12571286D02*
X10925714Y-12557000D01*
X10954286Y-12542714D01*
X10997143Y-12542714D01*
X11025714Y-12557000D01*
X11040000Y-12585571D01*
X11040000Y-12742714D01*
X11040000Y-12585571D02*
X11054286Y-12557000D01*
X11082857Y-12542714D01*
X11125714Y-12542714D01*
X11154286Y-12557000D01*
X11168571Y-12585571D01*
X11168571Y-12742714D01*
X11754286Y-12428429D02*
X11497143Y-12814143D01*
X12140000Y-12442714D02*
X12168571Y-12442714D01*
X12197143Y-12457000D01*
X12211428Y-12471286D01*
X12225714Y-12499857D01*
X12240000Y-12557000D01*
X12240000Y-12628429D01*
X12225714Y-12685571D01*
X12211428Y-12714143D01*
X12197143Y-12728429D01*
X12168571Y-12742714D01*
X12140000Y-12742714D01*
X12111428Y-12728429D01*
X12097143Y-12714143D01*
X12082857Y-12685571D01*
X12068571Y-12628429D01*
X12068571Y-12557000D01*
X12082857Y-12499857D01*
X12097143Y-12471286D01*
X12111428Y-12457000D01*
X12140000Y-12442714D01*
X12368571Y-12714143D02*
X12382857Y-12728429D01*
X12368571Y-12742714D01*
X12354286Y-12728429D01*
X12368571Y-12714143D01*
X12368571Y-12742714D01*
X12568571Y-12442714D02*
X12597143Y-12442714D01*
X12625714Y-12457000D01*
X12640000Y-12471286D01*
X12654286Y-12499857D01*
X12668571Y-12557000D01*
X12668571Y-12628429D01*
X12654286Y-12685571D01*
X12640000Y-12714143D01*
X12625714Y-12728429D01*
X12597143Y-12742714D01*
X12568571Y-12742714D01*
X12540000Y-12728429D01*
X12525714Y-12714143D01*
X12511428Y-12685571D01*
X12497143Y-12628429D01*
X12497143Y-12557000D01*
X12511428Y-12499857D01*
X12525714Y-12471286D01*
X12540000Y-12457000D01*
X12568571Y-12442714D01*
X12768571Y-12442714D02*
X12954286Y-12442714D01*
X12854286Y-12557000D01*
X12897143Y-12557000D01*
X12925714Y-12571286D01*
X12940000Y-12585571D01*
X12954286Y-12614143D01*
X12954286Y-12685571D01*
X12940000Y-12714143D01*
X12925714Y-12728429D01*
X12897143Y-12742714D01*
X12811428Y-12742714D01*
X12782857Y-12728429D01*
X12768571Y-12714143D01*
X13097143Y-12742714D02*
X13154286Y-12742714D01*
X13182857Y-12728429D01*
X13197143Y-12714143D01*
X13225714Y-12671286D01*
X13240000Y-12614143D01*
X13240000Y-12499857D01*
X13225714Y-12471286D01*
X13211428Y-12457000D01*
X13182857Y-12442714D01*
X13125714Y-12442714D01*
X13097143Y-12457000D01*
X13082857Y-12471286D01*
X13068571Y-12499857D01*
X13068571Y-12571286D01*
X13082857Y-12599857D01*
X13097143Y-12614143D01*
X13125714Y-12628429D01*
X13182857Y-12628429D01*
X13211428Y-12614143D01*
X13225714Y-12599857D01*
X13240000Y-12571286D01*
X13354286Y-12442714D02*
X13354286Y-12499857D01*
X13468571Y-12442714D02*
X13468571Y-12499857D01*
X13911428Y-12857000D02*
X13897143Y-12842714D01*
X13868571Y-12799857D01*
X13854286Y-12771286D01*
X13840000Y-12728429D01*
X13825714Y-12657000D01*
X13825714Y-12599857D01*
X13840000Y-12528429D01*
X13854286Y-12485571D01*
X13868571Y-12457000D01*
X13897143Y-12414143D01*
X13911428Y-12399857D01*
X14068571Y-12571286D02*
X14040000Y-12557000D01*
X14025714Y-12542714D01*
X14011428Y-12514143D01*
X14011428Y-12499857D01*
X14025714Y-12471286D01*
X14040000Y-12457000D01*
X14068571Y-12442714D01*
X14125714Y-12442714D01*
X14154286Y-12457000D01*
X14168571Y-12471286D01*
X14182857Y-12499857D01*
X14182857Y-12514143D01*
X14168571Y-12542714D01*
X14154286Y-12557000D01*
X14125714Y-12571286D01*
X14068571Y-12571286D01*
X14040000Y-12585571D01*
X14025714Y-12599857D01*
X14011428Y-12628429D01*
X14011428Y-12685571D01*
X14025714Y-12714143D01*
X14040000Y-12728429D01*
X14068571Y-12742714D01*
X14125714Y-12742714D01*
X14154286Y-12728429D01*
X14168571Y-12714143D01*
X14182857Y-12685571D01*
X14182857Y-12628429D01*
X14168571Y-12599857D01*
X14154286Y-12585571D01*
X14125714Y-12571286D01*
X14282857Y-12442714D02*
X14468571Y-12442714D01*
X14368571Y-12557000D01*
X14411428Y-12557000D01*
X14440000Y-12571286D01*
X14454286Y-12585571D01*
X14468571Y-12614143D01*
X14468571Y-12685571D01*
X14454286Y-12714143D01*
X14440000Y-12728429D01*
X14411428Y-12742714D01*
X14325714Y-12742714D01*
X14297143Y-12728429D01*
X14282857Y-12714143D01*
X14825714Y-12742714D02*
X14825714Y-12442714D01*
X14954286Y-12742714D02*
X14954286Y-12585571D01*
X14940000Y-12557000D01*
X14911428Y-12542714D01*
X14868571Y-12542714D01*
X14840000Y-12557000D01*
X14825714Y-12571286D01*
X15140000Y-12742714D02*
X15111428Y-12728429D01*
X15097143Y-12714143D01*
X15082857Y-12685571D01*
X15082857Y-12599857D01*
X15097143Y-12571286D01*
X15111428Y-12557000D01*
X15140000Y-12542714D01*
X15182857Y-12542714D01*
X15211428Y-12557000D01*
X15225714Y-12571286D01*
X15240000Y-12599857D01*
X15240000Y-12685571D01*
X15225714Y-12714143D01*
X15211428Y-12728429D01*
X15182857Y-12742714D01*
X15140000Y-12742714D01*
X15411428Y-12742714D02*
X15382857Y-12728429D01*
X15368571Y-12699857D01*
X15368571Y-12442714D01*
X15640000Y-12728429D02*
X15611428Y-12742714D01*
X15554286Y-12742714D01*
X15525714Y-12728429D01*
X15511428Y-12699857D01*
X15511428Y-12585571D01*
X15525714Y-12557000D01*
X15554286Y-12542714D01*
X15611428Y-12542714D01*
X15640000Y-12557000D01*
X15654286Y-12585571D01*
X15654286Y-12614143D01*
X15511428Y-12642714D01*
X15768571Y-12728429D02*
X15797143Y-12742714D01*
X15854286Y-12742714D01*
X15882857Y-12728429D01*
X15897143Y-12699857D01*
X15897143Y-12685571D01*
X15882857Y-12657000D01*
X15854286Y-12642714D01*
X15811428Y-12642714D01*
X15782857Y-12628429D01*
X15768571Y-12599857D01*
X15768571Y-12585571D01*
X15782857Y-12557000D01*
X15811428Y-12542714D01*
X15854286Y-12542714D01*
X15882857Y-12557000D01*
X15997143Y-12857000D02*
X16011428Y-12842714D01*
X16040000Y-12799857D01*
X16054286Y-12771286D01*
X16068571Y-12728429D01*
X16082857Y-12657000D01*
X16082857Y-12599857D01*
X16068571Y-12528429D01*
X16054286Y-12485571D01*
X16040000Y-12457000D01*
X16011428Y-12414143D01*
X15997143Y-12399857D01*
M02*
