G04 #@! TF.GenerationSoftware,KiCad,Pcbnew,(5.1.9)-1*
G04 #@! TF.CreationDate,2021-05-14T16:57:38+01:00*
G04 #@! TF.ProjectId,EnvOpenPico,456e764f-7065-46e5-9069-636f2e6b6963,REV1*
G04 #@! TF.SameCoordinates,Original*
G04 #@! TF.FileFunction,Other,User*
%FSLAX46Y46*%
G04 Gerber Fmt 4.6, Leading zero omitted, Abs format (unit mm)*
G04 Created by KiCad (PCBNEW (5.1.9)-1) date 2021-05-14 16:57:38*
%MOMM*%
%LPD*%
G01*
G04 APERTURE LIST*
%ADD10C,0.050000*%
G04 APERTURE END LIST*
D10*
X108560000Y-72080000D02*
X110020000Y-72080000D01*
X110020000Y-72080000D02*
X110020000Y-75040000D01*
X110020000Y-75040000D02*
X108560000Y-75040000D01*
X108560000Y-75040000D02*
X108560000Y-72080000D01*
X105850000Y-66670000D02*
X106790000Y-66670000D01*
X106790000Y-66670000D02*
X106790000Y-68530000D01*
X106790000Y-68530000D02*
X105850000Y-68530000D01*
X105850000Y-68530000D02*
X105850000Y-66670000D01*
X100710000Y-67070000D02*
X100710000Y-66130000D01*
X100710000Y-66130000D02*
X102570000Y-66130000D01*
X102570000Y-66130000D02*
X102570000Y-67070000D01*
X102570000Y-67070000D02*
X100710000Y-67070000D01*
X101530000Y-68080000D02*
X101530000Y-67140000D01*
X101530000Y-67140000D02*
X103390000Y-67140000D01*
X103390000Y-67140000D02*
X103390000Y-68080000D01*
X103390000Y-68080000D02*
X101530000Y-68080000D01*
X97180000Y-70690000D02*
X100480000Y-70690000D01*
X97180000Y-65890000D02*
X97180000Y-70690000D01*
X100480000Y-65890000D02*
X97180000Y-65890000D01*
X100480000Y-70690000D02*
X100480000Y-65890000D01*
X100640000Y-69340000D02*
X101560000Y-69340000D01*
X101560000Y-69340000D02*
X101560000Y-71160000D01*
X101560000Y-71160000D02*
X100640000Y-71160000D01*
X100640000Y-71160000D02*
X100640000Y-69340000D01*
X102850000Y-81250000D02*
X96350000Y-81250000D01*
X102850000Y-71750000D02*
X102850000Y-81250000D01*
X96350000Y-71750000D02*
X102850000Y-71750000D01*
X96350000Y-81250000D02*
X96350000Y-71750000D01*
X107200000Y-66900000D02*
X110800000Y-66900000D01*
X107200000Y-70700000D02*
X107200000Y-66900000D01*
X110800000Y-70700000D02*
X107200000Y-70700000D01*
X110800000Y-66900000D02*
X110800000Y-70700000D01*
X106090000Y-71560000D02*
X106090000Y-69740000D01*
X107010000Y-71560000D02*
X106090000Y-71560000D01*
X107010000Y-69740000D02*
X107010000Y-71560000D01*
X106090000Y-69740000D02*
X107010000Y-69740000D01*
X110635000Y-71040000D02*
X110635000Y-71960000D01*
X110635000Y-71960000D02*
X108815000Y-71960000D01*
X108815000Y-71960000D02*
X108815000Y-71040000D01*
X108815000Y-71040000D02*
X110635000Y-71040000D01*
X101625000Y-94450000D02*
X97425000Y-94450000D01*
X101625000Y-97850000D02*
X101625000Y-94450000D01*
X97425000Y-97850000D02*
X101625000Y-97850000D01*
X97425000Y-94450000D02*
X97425000Y-97850000D01*
X112550000Y-58925000D02*
G75*
G03*
X112550000Y-58925000I-2450000J0D01*
G01*
X99800000Y-58925000D02*
G75*
G03*
X99800000Y-58925000I-2450000J0D01*
G01*
X111850000Y-106825000D02*
G75*
G03*
X111850000Y-106825000I-2450000J0D01*
G01*
X100450000Y-106825000D02*
G75*
G03*
X100450000Y-106825000I-2450000J0D01*
G01*
X104535000Y-81010000D02*
X103615000Y-81010000D01*
X103615000Y-81010000D02*
X103615000Y-79190000D01*
X103615000Y-79190000D02*
X104535000Y-79190000D01*
X104535000Y-79190000D02*
X104535000Y-81010000D01*
X98800000Y-87125000D02*
X98800000Y-88045000D01*
X98800000Y-88045000D02*
X96980000Y-88045000D01*
X96980000Y-88045000D02*
X96980000Y-87125000D01*
X96980000Y-87125000D02*
X98800000Y-87125000D01*
X97840000Y-94360000D02*
X97840000Y-93440000D01*
X97840000Y-93440000D02*
X99660000Y-93440000D01*
X99660000Y-93440000D02*
X99660000Y-94360000D01*
X99660000Y-94360000D02*
X97840000Y-94360000D01*
X110060000Y-82785000D02*
X109140000Y-82785000D01*
X109140000Y-82785000D02*
X109140000Y-80965000D01*
X109140000Y-80965000D02*
X110060000Y-80965000D01*
X110060000Y-80965000D02*
X110060000Y-82785000D01*
X103290000Y-91265000D02*
X104210000Y-91265000D01*
X104210000Y-91265000D02*
X104210000Y-93085000D01*
X104210000Y-93085000D02*
X103290000Y-93085000D01*
X103290000Y-93085000D02*
X103290000Y-91265000D01*
X107890000Y-87485000D02*
X107890000Y-86565000D01*
X107890000Y-86565000D02*
X109710000Y-86565000D01*
X109710000Y-86565000D02*
X109710000Y-87485000D01*
X109710000Y-87485000D02*
X107890000Y-87485000D01*
X105770000Y-79015000D02*
X106690000Y-79015000D01*
X106690000Y-79015000D02*
X106690000Y-80835000D01*
X106690000Y-80835000D02*
X105770000Y-80835000D01*
X105770000Y-80835000D02*
X105770000Y-79015000D01*
X104790000Y-79015000D02*
X105710000Y-79015000D01*
X105710000Y-79015000D02*
X105710000Y-80835000D01*
X105710000Y-80835000D02*
X104790000Y-80835000D01*
X104790000Y-80835000D02*
X104790000Y-79015000D01*
X99030000Y-70770000D02*
X99030000Y-71690000D01*
X99030000Y-71690000D02*
X97210000Y-71690000D01*
X97210000Y-71690000D02*
X97210000Y-70770000D01*
X97210000Y-70770000D02*
X99030000Y-70770000D01*
X99510000Y-82190000D02*
X99510000Y-83110000D01*
X99510000Y-83110000D02*
X97690000Y-83110000D01*
X97690000Y-83110000D02*
X97690000Y-82190000D01*
X97690000Y-82190000D02*
X99510000Y-82190000D01*
X108185000Y-81785000D02*
X107265000Y-81785000D01*
X107265000Y-81785000D02*
X107265000Y-79965000D01*
X107265000Y-79965000D02*
X108185000Y-79965000D01*
X108185000Y-79965000D02*
X108185000Y-81785000D01*
X104540000Y-91265000D02*
X105460000Y-91265000D01*
X105460000Y-91265000D02*
X105460000Y-93085000D01*
X105460000Y-93085000D02*
X104540000Y-93085000D01*
X104540000Y-93085000D02*
X104540000Y-91265000D01*
X104585000Y-77185000D02*
X103665000Y-77185000D01*
X103665000Y-77185000D02*
X103665000Y-75365000D01*
X103665000Y-75365000D02*
X104585000Y-75365000D01*
X104585000Y-75365000D02*
X104585000Y-77185000D01*
X101810000Y-93440000D02*
X101810000Y-94360000D01*
X101810000Y-94360000D02*
X99990000Y-94360000D01*
X99990000Y-94360000D02*
X99990000Y-93440000D01*
X99990000Y-93440000D02*
X101810000Y-93440000D01*
X110660000Y-66355000D02*
X109740000Y-66355000D01*
X109740000Y-66355000D02*
X109740000Y-64535000D01*
X109740000Y-64535000D02*
X110660000Y-64535000D01*
X110660000Y-64535000D02*
X110660000Y-66355000D01*
X110480000Y-84955000D02*
X110480000Y-85895000D01*
X110480000Y-85895000D02*
X108620000Y-85895000D01*
X108620000Y-85895000D02*
X108620000Y-84955000D01*
X108620000Y-84955000D02*
X110480000Y-84955000D01*
X97430000Y-62120000D02*
X98370000Y-62120000D01*
X98370000Y-62120000D02*
X98370000Y-63980000D01*
X98370000Y-63980000D02*
X97430000Y-63980000D01*
X97430000Y-63980000D02*
X97430000Y-62120000D01*
X99570000Y-81905000D02*
X99570000Y-90145000D01*
X99570000Y-90145000D02*
X107810000Y-90145000D01*
X107810000Y-90145000D02*
X107810000Y-81905000D01*
X107810000Y-81905000D02*
X99570000Y-81905000D01*
X99350000Y-108725000D02*
X108000000Y-108725000D01*
X108000000Y-108725000D02*
X108000000Y-105125000D01*
X108000000Y-105125000D02*
X99350000Y-105125000D01*
X99350000Y-105125000D02*
X99350000Y-108725000D01*
M02*
