G04 #@! TF.GenerationSoftware,KiCad,Pcbnew,(5.1.9)-1*
G04 #@! TF.CreationDate,2021-05-15T18:25:28+01:00*
G04 #@! TF.ProjectId,EnvOpenPico,456e764f-7065-46e5-9069-636f2e6b6963,REV1*
G04 #@! TF.SameCoordinates,Original*
G04 #@! TF.FileFunction,Paste,Top*
G04 #@! TF.FilePolarity,Positive*
%FSLAX46Y46*%
G04 Gerber Fmt 4.6, Leading zero omitted, Abs format (unit mm)*
G04 Created by KiCad (PCBNEW (5.1.9)-1) date 2021-05-15 18:25:28*
%MOMM*%
%LPD*%
G01*
G04 APERTURE LIST*
%ADD10R,0.600000X1.450000*%
%ADD11R,0.300000X1.450000*%
%ADD12R,1.700000X0.900000*%
%ADD13R,0.650000X1.060000*%
%ADD14R,1.400000X1.150000*%
G04 APERTURE END LIST*
G36*
G01*
X101740000Y-76960000D02*
X100510000Y-76960000D01*
G75*
G02*
X100260000Y-76710000I0J250000D01*
G01*
X100260000Y-75840000D01*
G75*
G02*
X100510000Y-75590000I250000J0D01*
G01*
X101740000Y-75590000D01*
G75*
G02*
X101990000Y-75840000I0J-250000D01*
G01*
X101990000Y-76710000D01*
G75*
G02*
X101740000Y-76960000I-250000J0D01*
G01*
G37*
G36*
G01*
X99590000Y-76960000D02*
X98360000Y-76960000D01*
G75*
G02*
X98110000Y-76710000I0J250000D01*
G01*
X98110000Y-75840000D01*
G75*
G02*
X98360000Y-75590000I250000J0D01*
G01*
X99590000Y-75590000D01*
G75*
G02*
X99840000Y-75840000I0J-250000D01*
G01*
X99840000Y-76710000D01*
G75*
G02*
X99590000Y-76960000I-250000J0D01*
G01*
G37*
G36*
G01*
X101740000Y-78660000D02*
X100510000Y-78660000D01*
G75*
G02*
X100260000Y-78410000I0J250000D01*
G01*
X100260000Y-77540000D01*
G75*
G02*
X100510000Y-77290000I250000J0D01*
G01*
X101740000Y-77290000D01*
G75*
G02*
X101990000Y-77540000I0J-250000D01*
G01*
X101990000Y-78410000D01*
G75*
G02*
X101740000Y-78660000I-250000J0D01*
G01*
G37*
G36*
G01*
X99590000Y-78660000D02*
X98360000Y-78660000D01*
G75*
G02*
X98110000Y-78410000I0J250000D01*
G01*
X98110000Y-77540000D01*
G75*
G02*
X98360000Y-77290000I250000J0D01*
G01*
X99590000Y-77290000D01*
G75*
G02*
X99840000Y-77540000I0J-250000D01*
G01*
X99840000Y-78410000D01*
G75*
G02*
X99590000Y-78660000I-250000J0D01*
G01*
G37*
G36*
G01*
X98270000Y-74800000D02*
X98020000Y-74800000D01*
G75*
G02*
X97895000Y-74675000I0J125000D01*
G01*
X97895000Y-74175000D01*
G75*
G02*
X98020000Y-74050000I125000J0D01*
G01*
X98270000Y-74050000D01*
G75*
G02*
X98395000Y-74175000I0J-125000D01*
G01*
X98395000Y-74675000D01*
G75*
G02*
X98270000Y-74800000I-125000J0D01*
G01*
G37*
G36*
G01*
X99540000Y-74800000D02*
X99290000Y-74800000D01*
G75*
G02*
X99165000Y-74675000I0J125000D01*
G01*
X99165000Y-74175000D01*
G75*
G02*
X99290000Y-74050000I125000J0D01*
G01*
X99540000Y-74050000D01*
G75*
G02*
X99665000Y-74175000I0J-125000D01*
G01*
X99665000Y-74675000D01*
G75*
G02*
X99540000Y-74800000I-125000J0D01*
G01*
G37*
G36*
G01*
X100810000Y-74800000D02*
X100560000Y-74800000D01*
G75*
G02*
X100435000Y-74675000I0J125000D01*
G01*
X100435000Y-74175000D01*
G75*
G02*
X100560000Y-74050000I125000J0D01*
G01*
X100810000Y-74050000D01*
G75*
G02*
X100935000Y-74175000I0J-125000D01*
G01*
X100935000Y-74675000D01*
G75*
G02*
X100810000Y-74800000I-125000J0D01*
G01*
G37*
G36*
G01*
X102080000Y-74800000D02*
X101830000Y-74800000D01*
G75*
G02*
X101705000Y-74675000I0J125000D01*
G01*
X101705000Y-74175000D01*
G75*
G02*
X101830000Y-74050000I125000J0D01*
G01*
X102080000Y-74050000D01*
G75*
G02*
X102205000Y-74175000I0J-125000D01*
G01*
X102205000Y-74675000D01*
G75*
G02*
X102080000Y-74800000I-125000J0D01*
G01*
G37*
G36*
G01*
X102080000Y-80200000D02*
X101830000Y-80200000D01*
G75*
G02*
X101705000Y-80075000I0J125000D01*
G01*
X101705000Y-79575000D01*
G75*
G02*
X101830000Y-79450000I125000J0D01*
G01*
X102080000Y-79450000D01*
G75*
G02*
X102205000Y-79575000I0J-125000D01*
G01*
X102205000Y-80075000D01*
G75*
G02*
X102080000Y-80200000I-125000J0D01*
G01*
G37*
G36*
G01*
X100810000Y-80200000D02*
X100560000Y-80200000D01*
G75*
G02*
X100435000Y-80075000I0J125000D01*
G01*
X100435000Y-79575000D01*
G75*
G02*
X100560000Y-79450000I125000J0D01*
G01*
X100810000Y-79450000D01*
G75*
G02*
X100935000Y-79575000I0J-125000D01*
G01*
X100935000Y-80075000D01*
G75*
G02*
X100810000Y-80200000I-125000J0D01*
G01*
G37*
G36*
G01*
X99540000Y-80200000D02*
X99290000Y-80200000D01*
G75*
G02*
X99165000Y-80075000I0J125000D01*
G01*
X99165000Y-79575000D01*
G75*
G02*
X99290000Y-79450000I125000J0D01*
G01*
X99540000Y-79450000D01*
G75*
G02*
X99665000Y-79575000I0J-125000D01*
G01*
X99665000Y-80075000D01*
G75*
G02*
X99540000Y-80200000I-125000J0D01*
G01*
G37*
G36*
G01*
X98270000Y-80200000D02*
X98020000Y-80200000D01*
G75*
G02*
X97895000Y-80075000I0J125000D01*
G01*
X97895000Y-79575000D01*
G75*
G02*
X98020000Y-79450000I125000J0D01*
G01*
X98270000Y-79450000D01*
G75*
G02*
X98395000Y-79575000I0J-125000D01*
G01*
X98395000Y-80075000D01*
G75*
G02*
X98270000Y-80200000I-125000J0D01*
G01*
G37*
D10*
X100375000Y-64620000D03*
X106825000Y-64620000D03*
X101150000Y-64620000D03*
X106050000Y-64620000D03*
D11*
X105350000Y-64620000D03*
X101850000Y-64620000D03*
X104850000Y-64620000D03*
X102350000Y-64620000D03*
X104350000Y-64620000D03*
X102850000Y-64620000D03*
X103350000Y-64620000D03*
X103850000Y-64620000D03*
G36*
G01*
X109033750Y-73910000D02*
X109546250Y-73910000D01*
G75*
G02*
X109765000Y-74128750I0J-218750D01*
G01*
X109765000Y-74566250D01*
G75*
G02*
X109546250Y-74785000I-218750J0D01*
G01*
X109033750Y-74785000D01*
G75*
G02*
X108815000Y-74566250I0J218750D01*
G01*
X108815000Y-74128750D01*
G75*
G02*
X109033750Y-73910000I218750J0D01*
G01*
G37*
G36*
G01*
X109033750Y-72335000D02*
X109546250Y-72335000D01*
G75*
G02*
X109765000Y-72553750I0J-218750D01*
G01*
X109765000Y-72991250D01*
G75*
G02*
X109546250Y-73210000I-218750J0D01*
G01*
X109033750Y-73210000D01*
G75*
G02*
X108815000Y-72991250I0J218750D01*
G01*
X108815000Y-72553750D01*
G75*
G02*
X109033750Y-72335000I218750J0D01*
G01*
G37*
G36*
G01*
X106135000Y-67840000D02*
X106505000Y-67840000D01*
G75*
G02*
X106640000Y-67975000I0J-135000D01*
G01*
X106640000Y-68245000D01*
G75*
G02*
X106505000Y-68380000I-135000J0D01*
G01*
X106135000Y-68380000D01*
G75*
G02*
X106000000Y-68245000I0J135000D01*
G01*
X106000000Y-67975000D01*
G75*
G02*
X106135000Y-67840000I135000J0D01*
G01*
G37*
G36*
G01*
X106135000Y-66820000D02*
X106505000Y-66820000D01*
G75*
G02*
X106640000Y-66955000I0J-135000D01*
G01*
X106640000Y-67225000D01*
G75*
G02*
X106505000Y-67360000I-135000J0D01*
G01*
X106135000Y-67360000D01*
G75*
G02*
X106000000Y-67225000I0J135000D01*
G01*
X106000000Y-66955000D01*
G75*
G02*
X106135000Y-66820000I135000J0D01*
G01*
G37*
G36*
G01*
X101880000Y-66785000D02*
X101880000Y-66415000D01*
G75*
G02*
X102015000Y-66280000I135000J0D01*
G01*
X102285000Y-66280000D01*
G75*
G02*
X102420000Y-66415000I0J-135000D01*
G01*
X102420000Y-66785000D01*
G75*
G02*
X102285000Y-66920000I-135000J0D01*
G01*
X102015000Y-66920000D01*
G75*
G02*
X101880000Y-66785000I0J135000D01*
G01*
G37*
G36*
G01*
X100860000Y-66785000D02*
X100860000Y-66415000D01*
G75*
G02*
X100995000Y-66280000I135000J0D01*
G01*
X101265000Y-66280000D01*
G75*
G02*
X101400000Y-66415000I0J-135000D01*
G01*
X101400000Y-66785000D01*
G75*
G02*
X101265000Y-66920000I-135000J0D01*
G01*
X100995000Y-66920000D01*
G75*
G02*
X100860000Y-66785000I0J135000D01*
G01*
G37*
G36*
G01*
X102700000Y-67795000D02*
X102700000Y-67425000D01*
G75*
G02*
X102835000Y-67290000I135000J0D01*
G01*
X103105000Y-67290000D01*
G75*
G02*
X103240000Y-67425000I0J-135000D01*
G01*
X103240000Y-67795000D01*
G75*
G02*
X103105000Y-67930000I-135000J0D01*
G01*
X102835000Y-67930000D01*
G75*
G02*
X102700000Y-67795000I0J135000D01*
G01*
G37*
G36*
G01*
X101680000Y-67795000D02*
X101680000Y-67425000D01*
G75*
G02*
X101815000Y-67290000I135000J0D01*
G01*
X102085000Y-67290000D01*
G75*
G02*
X102220000Y-67425000I0J-135000D01*
G01*
X102220000Y-67795000D01*
G75*
G02*
X102085000Y-67930000I-135000J0D01*
G01*
X101815000Y-67930000D01*
G75*
G02*
X101680000Y-67795000I0J135000D01*
G01*
G37*
D12*
X98830000Y-66590000D03*
X98830000Y-69990000D03*
G36*
G01*
X100930000Y-70450000D02*
X101270000Y-70450000D01*
G75*
G02*
X101410000Y-70590000I0J-140000D01*
G01*
X101410000Y-70870000D01*
G75*
G02*
X101270000Y-71010000I-140000J0D01*
G01*
X100930000Y-71010000D01*
G75*
G02*
X100790000Y-70870000I0J140000D01*
G01*
X100790000Y-70590000D01*
G75*
G02*
X100930000Y-70450000I140000J0D01*
G01*
G37*
G36*
G01*
X100930000Y-69490000D02*
X101270000Y-69490000D01*
G75*
G02*
X101410000Y-69630000I0J-140000D01*
G01*
X101410000Y-69910000D01*
G75*
G02*
X101270000Y-70050000I-140000J0D01*
G01*
X100930000Y-70050000D01*
G75*
G02*
X100790000Y-69910000I0J140000D01*
G01*
X100790000Y-69630000D01*
G75*
G02*
X100930000Y-69490000I140000J0D01*
G01*
G37*
D13*
X109950000Y-69900000D03*
X108050000Y-69900000D03*
X108050000Y-67700000D03*
X109000000Y-67700000D03*
X109950000Y-67700000D03*
G36*
G01*
X106380000Y-70850000D02*
X106720000Y-70850000D01*
G75*
G02*
X106860000Y-70990000I0J-140000D01*
G01*
X106860000Y-71270000D01*
G75*
G02*
X106720000Y-71410000I-140000J0D01*
G01*
X106380000Y-71410000D01*
G75*
G02*
X106240000Y-71270000I0J140000D01*
G01*
X106240000Y-70990000D01*
G75*
G02*
X106380000Y-70850000I140000J0D01*
G01*
G37*
G36*
G01*
X106380000Y-69890000D02*
X106720000Y-69890000D01*
G75*
G02*
X106860000Y-70030000I0J-140000D01*
G01*
X106860000Y-70310000D01*
G75*
G02*
X106720000Y-70450000I-140000J0D01*
G01*
X106380000Y-70450000D01*
G75*
G02*
X106240000Y-70310000I0J140000D01*
G01*
X106240000Y-70030000D01*
G75*
G02*
X106380000Y-69890000I140000J0D01*
G01*
G37*
G36*
G01*
X109525000Y-71330000D02*
X109525000Y-71670000D01*
G75*
G02*
X109385000Y-71810000I-140000J0D01*
G01*
X109105000Y-71810000D01*
G75*
G02*
X108965000Y-71670000I0J140000D01*
G01*
X108965000Y-71330000D01*
G75*
G02*
X109105000Y-71190000I140000J0D01*
G01*
X109385000Y-71190000D01*
G75*
G02*
X109525000Y-71330000I0J-140000D01*
G01*
G37*
G36*
G01*
X110485000Y-71330000D02*
X110485000Y-71670000D01*
G75*
G02*
X110345000Y-71810000I-140000J0D01*
G01*
X110065000Y-71810000D01*
G75*
G02*
X109925000Y-71670000I0J140000D01*
G01*
X109925000Y-71330000D01*
G75*
G02*
X110065000Y-71190000I140000J0D01*
G01*
X110345000Y-71190000D01*
G75*
G02*
X110485000Y-71330000I0J-140000D01*
G01*
G37*
D14*
X98425000Y-95350000D03*
X100625000Y-95350000D03*
X100625000Y-96950000D03*
X98425000Y-96950000D03*
G36*
G01*
X104245000Y-79900000D02*
X103905000Y-79900000D01*
G75*
G02*
X103765000Y-79760000I0J140000D01*
G01*
X103765000Y-79480000D01*
G75*
G02*
X103905000Y-79340000I140000J0D01*
G01*
X104245000Y-79340000D01*
G75*
G02*
X104385000Y-79480000I0J-140000D01*
G01*
X104385000Y-79760000D01*
G75*
G02*
X104245000Y-79900000I-140000J0D01*
G01*
G37*
G36*
G01*
X104245000Y-80860000D02*
X103905000Y-80860000D01*
G75*
G02*
X103765000Y-80720000I0J140000D01*
G01*
X103765000Y-80440000D01*
G75*
G02*
X103905000Y-80300000I140000J0D01*
G01*
X104245000Y-80300000D01*
G75*
G02*
X104385000Y-80440000I0J-140000D01*
G01*
X104385000Y-80720000D01*
G75*
G02*
X104245000Y-80860000I-140000J0D01*
G01*
G37*
G36*
G01*
X97690000Y-87415000D02*
X97690000Y-87755000D01*
G75*
G02*
X97550000Y-87895000I-140000J0D01*
G01*
X97270000Y-87895000D01*
G75*
G02*
X97130000Y-87755000I0J140000D01*
G01*
X97130000Y-87415000D01*
G75*
G02*
X97270000Y-87275000I140000J0D01*
G01*
X97550000Y-87275000D01*
G75*
G02*
X97690000Y-87415000I0J-140000D01*
G01*
G37*
G36*
G01*
X98650000Y-87415000D02*
X98650000Y-87755000D01*
G75*
G02*
X98510000Y-87895000I-140000J0D01*
G01*
X98230000Y-87895000D01*
G75*
G02*
X98090000Y-87755000I0J140000D01*
G01*
X98090000Y-87415000D01*
G75*
G02*
X98230000Y-87275000I140000J0D01*
G01*
X98510000Y-87275000D01*
G75*
G02*
X98650000Y-87415000I0J-140000D01*
G01*
G37*
G36*
G01*
X98950000Y-94070000D02*
X98950000Y-93730000D01*
G75*
G02*
X99090000Y-93590000I140000J0D01*
G01*
X99370000Y-93590000D01*
G75*
G02*
X99510000Y-93730000I0J-140000D01*
G01*
X99510000Y-94070000D01*
G75*
G02*
X99370000Y-94210000I-140000J0D01*
G01*
X99090000Y-94210000D01*
G75*
G02*
X98950000Y-94070000I0J140000D01*
G01*
G37*
G36*
G01*
X97990000Y-94070000D02*
X97990000Y-93730000D01*
G75*
G02*
X98130000Y-93590000I140000J0D01*
G01*
X98410000Y-93590000D01*
G75*
G02*
X98550000Y-93730000I0J-140000D01*
G01*
X98550000Y-94070000D01*
G75*
G02*
X98410000Y-94210000I-140000J0D01*
G01*
X98130000Y-94210000D01*
G75*
G02*
X97990000Y-94070000I0J140000D01*
G01*
G37*
G36*
G01*
X109770000Y-81675000D02*
X109430000Y-81675000D01*
G75*
G02*
X109290000Y-81535000I0J140000D01*
G01*
X109290000Y-81255000D01*
G75*
G02*
X109430000Y-81115000I140000J0D01*
G01*
X109770000Y-81115000D01*
G75*
G02*
X109910000Y-81255000I0J-140000D01*
G01*
X109910000Y-81535000D01*
G75*
G02*
X109770000Y-81675000I-140000J0D01*
G01*
G37*
G36*
G01*
X109770000Y-82635000D02*
X109430000Y-82635000D01*
G75*
G02*
X109290000Y-82495000I0J140000D01*
G01*
X109290000Y-82215000D01*
G75*
G02*
X109430000Y-82075000I140000J0D01*
G01*
X109770000Y-82075000D01*
G75*
G02*
X109910000Y-82215000I0J-140000D01*
G01*
X109910000Y-82495000D01*
G75*
G02*
X109770000Y-82635000I-140000J0D01*
G01*
G37*
G36*
G01*
X103580000Y-92375000D02*
X103920000Y-92375000D01*
G75*
G02*
X104060000Y-92515000I0J-140000D01*
G01*
X104060000Y-92795000D01*
G75*
G02*
X103920000Y-92935000I-140000J0D01*
G01*
X103580000Y-92935000D01*
G75*
G02*
X103440000Y-92795000I0J140000D01*
G01*
X103440000Y-92515000D01*
G75*
G02*
X103580000Y-92375000I140000J0D01*
G01*
G37*
G36*
G01*
X103580000Y-91415000D02*
X103920000Y-91415000D01*
G75*
G02*
X104060000Y-91555000I0J-140000D01*
G01*
X104060000Y-91835000D01*
G75*
G02*
X103920000Y-91975000I-140000J0D01*
G01*
X103580000Y-91975000D01*
G75*
G02*
X103440000Y-91835000I0J140000D01*
G01*
X103440000Y-91555000D01*
G75*
G02*
X103580000Y-91415000I140000J0D01*
G01*
G37*
G36*
G01*
X109000000Y-87195000D02*
X109000000Y-86855000D01*
G75*
G02*
X109140000Y-86715000I140000J0D01*
G01*
X109420000Y-86715000D01*
G75*
G02*
X109560000Y-86855000I0J-140000D01*
G01*
X109560000Y-87195000D01*
G75*
G02*
X109420000Y-87335000I-140000J0D01*
G01*
X109140000Y-87335000D01*
G75*
G02*
X109000000Y-87195000I0J140000D01*
G01*
G37*
G36*
G01*
X108040000Y-87195000D02*
X108040000Y-86855000D01*
G75*
G02*
X108180000Y-86715000I140000J0D01*
G01*
X108460000Y-86715000D01*
G75*
G02*
X108600000Y-86855000I0J-140000D01*
G01*
X108600000Y-87195000D01*
G75*
G02*
X108460000Y-87335000I-140000J0D01*
G01*
X108180000Y-87335000D01*
G75*
G02*
X108040000Y-87195000I0J140000D01*
G01*
G37*
G36*
G01*
X106060000Y-80125000D02*
X106400000Y-80125000D01*
G75*
G02*
X106540000Y-80265000I0J-140000D01*
G01*
X106540000Y-80545000D01*
G75*
G02*
X106400000Y-80685000I-140000J0D01*
G01*
X106060000Y-80685000D01*
G75*
G02*
X105920000Y-80545000I0J140000D01*
G01*
X105920000Y-80265000D01*
G75*
G02*
X106060000Y-80125000I140000J0D01*
G01*
G37*
G36*
G01*
X106060000Y-79165000D02*
X106400000Y-79165000D01*
G75*
G02*
X106540000Y-79305000I0J-140000D01*
G01*
X106540000Y-79585000D01*
G75*
G02*
X106400000Y-79725000I-140000J0D01*
G01*
X106060000Y-79725000D01*
G75*
G02*
X105920000Y-79585000I0J140000D01*
G01*
X105920000Y-79305000D01*
G75*
G02*
X106060000Y-79165000I140000J0D01*
G01*
G37*
G36*
G01*
X105080000Y-80125000D02*
X105420000Y-80125000D01*
G75*
G02*
X105560000Y-80265000I0J-140000D01*
G01*
X105560000Y-80545000D01*
G75*
G02*
X105420000Y-80685000I-140000J0D01*
G01*
X105080000Y-80685000D01*
G75*
G02*
X104940000Y-80545000I0J140000D01*
G01*
X104940000Y-80265000D01*
G75*
G02*
X105080000Y-80125000I140000J0D01*
G01*
G37*
G36*
G01*
X105080000Y-79165000D02*
X105420000Y-79165000D01*
G75*
G02*
X105560000Y-79305000I0J-140000D01*
G01*
X105560000Y-79585000D01*
G75*
G02*
X105420000Y-79725000I-140000J0D01*
G01*
X105080000Y-79725000D01*
G75*
G02*
X104940000Y-79585000I0J140000D01*
G01*
X104940000Y-79305000D01*
G75*
G02*
X105080000Y-79165000I140000J0D01*
G01*
G37*
G36*
G01*
X97920000Y-71060000D02*
X97920000Y-71400000D01*
G75*
G02*
X97780000Y-71540000I-140000J0D01*
G01*
X97500000Y-71540000D01*
G75*
G02*
X97360000Y-71400000I0J140000D01*
G01*
X97360000Y-71060000D01*
G75*
G02*
X97500000Y-70920000I140000J0D01*
G01*
X97780000Y-70920000D01*
G75*
G02*
X97920000Y-71060000I0J-140000D01*
G01*
G37*
G36*
G01*
X98880000Y-71060000D02*
X98880000Y-71400000D01*
G75*
G02*
X98740000Y-71540000I-140000J0D01*
G01*
X98460000Y-71540000D01*
G75*
G02*
X98320000Y-71400000I0J140000D01*
G01*
X98320000Y-71060000D01*
G75*
G02*
X98460000Y-70920000I140000J0D01*
G01*
X98740000Y-70920000D01*
G75*
G02*
X98880000Y-71060000I0J-140000D01*
G01*
G37*
G36*
G01*
X98400000Y-82480000D02*
X98400000Y-82820000D01*
G75*
G02*
X98260000Y-82960000I-140000J0D01*
G01*
X97980000Y-82960000D01*
G75*
G02*
X97840000Y-82820000I0J140000D01*
G01*
X97840000Y-82480000D01*
G75*
G02*
X97980000Y-82340000I140000J0D01*
G01*
X98260000Y-82340000D01*
G75*
G02*
X98400000Y-82480000I0J-140000D01*
G01*
G37*
G36*
G01*
X99360000Y-82480000D02*
X99360000Y-82820000D01*
G75*
G02*
X99220000Y-82960000I-140000J0D01*
G01*
X98940000Y-82960000D01*
G75*
G02*
X98800000Y-82820000I0J140000D01*
G01*
X98800000Y-82480000D01*
G75*
G02*
X98940000Y-82340000I140000J0D01*
G01*
X99220000Y-82340000D01*
G75*
G02*
X99360000Y-82480000I0J-140000D01*
G01*
G37*
G36*
G01*
X107895000Y-80675000D02*
X107555000Y-80675000D01*
G75*
G02*
X107415000Y-80535000I0J140000D01*
G01*
X107415000Y-80255000D01*
G75*
G02*
X107555000Y-80115000I140000J0D01*
G01*
X107895000Y-80115000D01*
G75*
G02*
X108035000Y-80255000I0J-140000D01*
G01*
X108035000Y-80535000D01*
G75*
G02*
X107895000Y-80675000I-140000J0D01*
G01*
G37*
G36*
G01*
X107895000Y-81635000D02*
X107555000Y-81635000D01*
G75*
G02*
X107415000Y-81495000I0J140000D01*
G01*
X107415000Y-81215000D01*
G75*
G02*
X107555000Y-81075000I140000J0D01*
G01*
X107895000Y-81075000D01*
G75*
G02*
X108035000Y-81215000I0J-140000D01*
G01*
X108035000Y-81495000D01*
G75*
G02*
X107895000Y-81635000I-140000J0D01*
G01*
G37*
G36*
G01*
X104830000Y-92375000D02*
X105170000Y-92375000D01*
G75*
G02*
X105310000Y-92515000I0J-140000D01*
G01*
X105310000Y-92795000D01*
G75*
G02*
X105170000Y-92935000I-140000J0D01*
G01*
X104830000Y-92935000D01*
G75*
G02*
X104690000Y-92795000I0J140000D01*
G01*
X104690000Y-92515000D01*
G75*
G02*
X104830000Y-92375000I140000J0D01*
G01*
G37*
G36*
G01*
X104830000Y-91415000D02*
X105170000Y-91415000D01*
G75*
G02*
X105310000Y-91555000I0J-140000D01*
G01*
X105310000Y-91835000D01*
G75*
G02*
X105170000Y-91975000I-140000J0D01*
G01*
X104830000Y-91975000D01*
G75*
G02*
X104690000Y-91835000I0J140000D01*
G01*
X104690000Y-91555000D01*
G75*
G02*
X104830000Y-91415000I140000J0D01*
G01*
G37*
G36*
G01*
X104295000Y-76075000D02*
X103955000Y-76075000D01*
G75*
G02*
X103815000Y-75935000I0J140000D01*
G01*
X103815000Y-75655000D01*
G75*
G02*
X103955000Y-75515000I140000J0D01*
G01*
X104295000Y-75515000D01*
G75*
G02*
X104435000Y-75655000I0J-140000D01*
G01*
X104435000Y-75935000D01*
G75*
G02*
X104295000Y-76075000I-140000J0D01*
G01*
G37*
G36*
G01*
X104295000Y-77035000D02*
X103955000Y-77035000D01*
G75*
G02*
X103815000Y-76895000I0J140000D01*
G01*
X103815000Y-76615000D01*
G75*
G02*
X103955000Y-76475000I140000J0D01*
G01*
X104295000Y-76475000D01*
G75*
G02*
X104435000Y-76615000I0J-140000D01*
G01*
X104435000Y-76895000D01*
G75*
G02*
X104295000Y-77035000I-140000J0D01*
G01*
G37*
G36*
G01*
X100700000Y-93730000D02*
X100700000Y-94070000D01*
G75*
G02*
X100560000Y-94210000I-140000J0D01*
G01*
X100280000Y-94210000D01*
G75*
G02*
X100140000Y-94070000I0J140000D01*
G01*
X100140000Y-93730000D01*
G75*
G02*
X100280000Y-93590000I140000J0D01*
G01*
X100560000Y-93590000D01*
G75*
G02*
X100700000Y-93730000I0J-140000D01*
G01*
G37*
G36*
G01*
X101660000Y-93730000D02*
X101660000Y-94070000D01*
G75*
G02*
X101520000Y-94210000I-140000J0D01*
G01*
X101240000Y-94210000D01*
G75*
G02*
X101100000Y-94070000I0J140000D01*
G01*
X101100000Y-93730000D01*
G75*
G02*
X101240000Y-93590000I140000J0D01*
G01*
X101520000Y-93590000D01*
G75*
G02*
X101660000Y-93730000I0J-140000D01*
G01*
G37*
G36*
G01*
X110370000Y-65245000D02*
X110030000Y-65245000D01*
G75*
G02*
X109890000Y-65105000I0J140000D01*
G01*
X109890000Y-64825000D01*
G75*
G02*
X110030000Y-64685000I140000J0D01*
G01*
X110370000Y-64685000D01*
G75*
G02*
X110510000Y-64825000I0J-140000D01*
G01*
X110510000Y-65105000D01*
G75*
G02*
X110370000Y-65245000I-140000J0D01*
G01*
G37*
G36*
G01*
X110370000Y-66205000D02*
X110030000Y-66205000D01*
G75*
G02*
X109890000Y-66065000I0J140000D01*
G01*
X109890000Y-65785000D01*
G75*
G02*
X110030000Y-65645000I140000J0D01*
G01*
X110370000Y-65645000D01*
G75*
G02*
X110510000Y-65785000I0J-140000D01*
G01*
X110510000Y-66065000D01*
G75*
G02*
X110370000Y-66205000I-140000J0D01*
G01*
G37*
G36*
G01*
X109310000Y-85240000D02*
X109310000Y-85610000D01*
G75*
G02*
X109175000Y-85745000I-135000J0D01*
G01*
X108905000Y-85745000D01*
G75*
G02*
X108770000Y-85610000I0J135000D01*
G01*
X108770000Y-85240000D01*
G75*
G02*
X108905000Y-85105000I135000J0D01*
G01*
X109175000Y-85105000D01*
G75*
G02*
X109310000Y-85240000I0J-135000D01*
G01*
G37*
G36*
G01*
X110330000Y-85240000D02*
X110330000Y-85610000D01*
G75*
G02*
X110195000Y-85745000I-135000J0D01*
G01*
X109925000Y-85745000D01*
G75*
G02*
X109790000Y-85610000I0J135000D01*
G01*
X109790000Y-85240000D01*
G75*
G02*
X109925000Y-85105000I135000J0D01*
G01*
X110195000Y-85105000D01*
G75*
G02*
X110330000Y-85240000I0J-135000D01*
G01*
G37*
G36*
G01*
X97727500Y-63240000D02*
X98072500Y-63240000D01*
G75*
G02*
X98220000Y-63387500I0J-147500D01*
G01*
X98220000Y-63682500D01*
G75*
G02*
X98072500Y-63830000I-147500J0D01*
G01*
X97727500Y-63830000D01*
G75*
G02*
X97580000Y-63682500I0J147500D01*
G01*
X97580000Y-63387500D01*
G75*
G02*
X97727500Y-63240000I147500J0D01*
G01*
G37*
G36*
G01*
X97727500Y-62270000D02*
X98072500Y-62270000D01*
G75*
G02*
X98220000Y-62417500I0J-147500D01*
G01*
X98220000Y-62712500D01*
G75*
G02*
X98072500Y-62860000I-147500J0D01*
G01*
X97727500Y-62860000D01*
G75*
G02*
X97580000Y-62712500I0J147500D01*
G01*
X97580000Y-62417500D01*
G75*
G02*
X97727500Y-62270000I147500J0D01*
G01*
G37*
G36*
G01*
X100990000Y-82975000D02*
X100990000Y-82200000D01*
G75*
G02*
X101040000Y-82150000I50000J0D01*
G01*
X101140000Y-82150000D01*
G75*
G02*
X101190000Y-82200000I0J-50000D01*
G01*
X101190000Y-82975000D01*
G75*
G02*
X101140000Y-83025000I-50000J0D01*
G01*
X101040000Y-83025000D01*
G75*
G02*
X100990000Y-82975000I0J50000D01*
G01*
G37*
G36*
G01*
X101390000Y-82975000D02*
X101390000Y-82200000D01*
G75*
G02*
X101440000Y-82150000I50000J0D01*
G01*
X101540000Y-82150000D01*
G75*
G02*
X101590000Y-82200000I0J-50000D01*
G01*
X101590000Y-82975000D01*
G75*
G02*
X101540000Y-83025000I-50000J0D01*
G01*
X101440000Y-83025000D01*
G75*
G02*
X101390000Y-82975000I0J50000D01*
G01*
G37*
G36*
G01*
X101790000Y-82975000D02*
X101790000Y-82200000D01*
G75*
G02*
X101840000Y-82150000I50000J0D01*
G01*
X101940000Y-82150000D01*
G75*
G02*
X101990000Y-82200000I0J-50000D01*
G01*
X101990000Y-82975000D01*
G75*
G02*
X101940000Y-83025000I-50000J0D01*
G01*
X101840000Y-83025000D01*
G75*
G02*
X101790000Y-82975000I0J50000D01*
G01*
G37*
G36*
G01*
X102190000Y-82975000D02*
X102190000Y-82200000D01*
G75*
G02*
X102240000Y-82150000I50000J0D01*
G01*
X102340000Y-82150000D01*
G75*
G02*
X102390000Y-82200000I0J-50000D01*
G01*
X102390000Y-82975000D01*
G75*
G02*
X102340000Y-83025000I-50000J0D01*
G01*
X102240000Y-83025000D01*
G75*
G02*
X102190000Y-82975000I0J50000D01*
G01*
G37*
G36*
G01*
X102590000Y-82975000D02*
X102590000Y-82200000D01*
G75*
G02*
X102640000Y-82150000I50000J0D01*
G01*
X102740000Y-82150000D01*
G75*
G02*
X102790000Y-82200000I0J-50000D01*
G01*
X102790000Y-82975000D01*
G75*
G02*
X102740000Y-83025000I-50000J0D01*
G01*
X102640000Y-83025000D01*
G75*
G02*
X102590000Y-82975000I0J50000D01*
G01*
G37*
G36*
G01*
X102990000Y-82975000D02*
X102990000Y-82200000D01*
G75*
G02*
X103040000Y-82150000I50000J0D01*
G01*
X103140000Y-82150000D01*
G75*
G02*
X103190000Y-82200000I0J-50000D01*
G01*
X103190000Y-82975000D01*
G75*
G02*
X103140000Y-83025000I-50000J0D01*
G01*
X103040000Y-83025000D01*
G75*
G02*
X102990000Y-82975000I0J50000D01*
G01*
G37*
G36*
G01*
X103390000Y-82975000D02*
X103390000Y-82200000D01*
G75*
G02*
X103440000Y-82150000I50000J0D01*
G01*
X103540000Y-82150000D01*
G75*
G02*
X103590000Y-82200000I0J-50000D01*
G01*
X103590000Y-82975000D01*
G75*
G02*
X103540000Y-83025000I-50000J0D01*
G01*
X103440000Y-83025000D01*
G75*
G02*
X103390000Y-82975000I0J50000D01*
G01*
G37*
G36*
G01*
X103790000Y-82975000D02*
X103790000Y-82200000D01*
G75*
G02*
X103840000Y-82150000I50000J0D01*
G01*
X103940000Y-82150000D01*
G75*
G02*
X103990000Y-82200000I0J-50000D01*
G01*
X103990000Y-82975000D01*
G75*
G02*
X103940000Y-83025000I-50000J0D01*
G01*
X103840000Y-83025000D01*
G75*
G02*
X103790000Y-82975000I0J50000D01*
G01*
G37*
G36*
G01*
X104190000Y-82975000D02*
X104190000Y-82200000D01*
G75*
G02*
X104240000Y-82150000I50000J0D01*
G01*
X104340000Y-82150000D01*
G75*
G02*
X104390000Y-82200000I0J-50000D01*
G01*
X104390000Y-82975000D01*
G75*
G02*
X104340000Y-83025000I-50000J0D01*
G01*
X104240000Y-83025000D01*
G75*
G02*
X104190000Y-82975000I0J50000D01*
G01*
G37*
G36*
G01*
X104590000Y-82975000D02*
X104590000Y-82200000D01*
G75*
G02*
X104640000Y-82150000I50000J0D01*
G01*
X104740000Y-82150000D01*
G75*
G02*
X104790000Y-82200000I0J-50000D01*
G01*
X104790000Y-82975000D01*
G75*
G02*
X104740000Y-83025000I-50000J0D01*
G01*
X104640000Y-83025000D01*
G75*
G02*
X104590000Y-82975000I0J50000D01*
G01*
G37*
G36*
G01*
X104990000Y-82975000D02*
X104990000Y-82200000D01*
G75*
G02*
X105040000Y-82150000I50000J0D01*
G01*
X105140000Y-82150000D01*
G75*
G02*
X105190000Y-82200000I0J-50000D01*
G01*
X105190000Y-82975000D01*
G75*
G02*
X105140000Y-83025000I-50000J0D01*
G01*
X105040000Y-83025000D01*
G75*
G02*
X104990000Y-82975000I0J50000D01*
G01*
G37*
G36*
G01*
X105390000Y-82975000D02*
X105390000Y-82200000D01*
G75*
G02*
X105440000Y-82150000I50000J0D01*
G01*
X105540000Y-82150000D01*
G75*
G02*
X105590000Y-82200000I0J-50000D01*
G01*
X105590000Y-82975000D01*
G75*
G02*
X105540000Y-83025000I-50000J0D01*
G01*
X105440000Y-83025000D01*
G75*
G02*
X105390000Y-82975000I0J50000D01*
G01*
G37*
G36*
G01*
X105790000Y-82975000D02*
X105790000Y-82200000D01*
G75*
G02*
X105840000Y-82150000I50000J0D01*
G01*
X105940000Y-82150000D01*
G75*
G02*
X105990000Y-82200000I0J-50000D01*
G01*
X105990000Y-82975000D01*
G75*
G02*
X105940000Y-83025000I-50000J0D01*
G01*
X105840000Y-83025000D01*
G75*
G02*
X105790000Y-82975000I0J50000D01*
G01*
G37*
G36*
G01*
X106190000Y-82975000D02*
X106190000Y-82200000D01*
G75*
G02*
X106240000Y-82150000I50000J0D01*
G01*
X106340000Y-82150000D01*
G75*
G02*
X106390000Y-82200000I0J-50000D01*
G01*
X106390000Y-82975000D01*
G75*
G02*
X106340000Y-83025000I-50000J0D01*
G01*
X106240000Y-83025000D01*
G75*
G02*
X106190000Y-82975000I0J50000D01*
G01*
G37*
G36*
G01*
X106690000Y-83475000D02*
X106690000Y-83375000D01*
G75*
G02*
X106740000Y-83325000I50000J0D01*
G01*
X107515000Y-83325000D01*
G75*
G02*
X107565000Y-83375000I0J-50000D01*
G01*
X107565000Y-83475000D01*
G75*
G02*
X107515000Y-83525000I-50000J0D01*
G01*
X106740000Y-83525000D01*
G75*
G02*
X106690000Y-83475000I0J50000D01*
G01*
G37*
G36*
G01*
X106690000Y-83875000D02*
X106690000Y-83775000D01*
G75*
G02*
X106740000Y-83725000I50000J0D01*
G01*
X107515000Y-83725000D01*
G75*
G02*
X107565000Y-83775000I0J-50000D01*
G01*
X107565000Y-83875000D01*
G75*
G02*
X107515000Y-83925000I-50000J0D01*
G01*
X106740000Y-83925000D01*
G75*
G02*
X106690000Y-83875000I0J50000D01*
G01*
G37*
G36*
G01*
X106690000Y-84275000D02*
X106690000Y-84175000D01*
G75*
G02*
X106740000Y-84125000I50000J0D01*
G01*
X107515000Y-84125000D01*
G75*
G02*
X107565000Y-84175000I0J-50000D01*
G01*
X107565000Y-84275000D01*
G75*
G02*
X107515000Y-84325000I-50000J0D01*
G01*
X106740000Y-84325000D01*
G75*
G02*
X106690000Y-84275000I0J50000D01*
G01*
G37*
G36*
G01*
X106690000Y-84675000D02*
X106690000Y-84575000D01*
G75*
G02*
X106740000Y-84525000I50000J0D01*
G01*
X107515000Y-84525000D01*
G75*
G02*
X107565000Y-84575000I0J-50000D01*
G01*
X107565000Y-84675000D01*
G75*
G02*
X107515000Y-84725000I-50000J0D01*
G01*
X106740000Y-84725000D01*
G75*
G02*
X106690000Y-84675000I0J50000D01*
G01*
G37*
G36*
G01*
X106690000Y-85075000D02*
X106690000Y-84975000D01*
G75*
G02*
X106740000Y-84925000I50000J0D01*
G01*
X107515000Y-84925000D01*
G75*
G02*
X107565000Y-84975000I0J-50000D01*
G01*
X107565000Y-85075000D01*
G75*
G02*
X107515000Y-85125000I-50000J0D01*
G01*
X106740000Y-85125000D01*
G75*
G02*
X106690000Y-85075000I0J50000D01*
G01*
G37*
G36*
G01*
X106690000Y-85475000D02*
X106690000Y-85375000D01*
G75*
G02*
X106740000Y-85325000I50000J0D01*
G01*
X107515000Y-85325000D01*
G75*
G02*
X107565000Y-85375000I0J-50000D01*
G01*
X107565000Y-85475000D01*
G75*
G02*
X107515000Y-85525000I-50000J0D01*
G01*
X106740000Y-85525000D01*
G75*
G02*
X106690000Y-85475000I0J50000D01*
G01*
G37*
G36*
G01*
X106690000Y-85875000D02*
X106690000Y-85775000D01*
G75*
G02*
X106740000Y-85725000I50000J0D01*
G01*
X107515000Y-85725000D01*
G75*
G02*
X107565000Y-85775000I0J-50000D01*
G01*
X107565000Y-85875000D01*
G75*
G02*
X107515000Y-85925000I-50000J0D01*
G01*
X106740000Y-85925000D01*
G75*
G02*
X106690000Y-85875000I0J50000D01*
G01*
G37*
G36*
G01*
X106690000Y-86275000D02*
X106690000Y-86175000D01*
G75*
G02*
X106740000Y-86125000I50000J0D01*
G01*
X107515000Y-86125000D01*
G75*
G02*
X107565000Y-86175000I0J-50000D01*
G01*
X107565000Y-86275000D01*
G75*
G02*
X107515000Y-86325000I-50000J0D01*
G01*
X106740000Y-86325000D01*
G75*
G02*
X106690000Y-86275000I0J50000D01*
G01*
G37*
G36*
G01*
X106690000Y-86675000D02*
X106690000Y-86575000D01*
G75*
G02*
X106740000Y-86525000I50000J0D01*
G01*
X107515000Y-86525000D01*
G75*
G02*
X107565000Y-86575000I0J-50000D01*
G01*
X107565000Y-86675000D01*
G75*
G02*
X107515000Y-86725000I-50000J0D01*
G01*
X106740000Y-86725000D01*
G75*
G02*
X106690000Y-86675000I0J50000D01*
G01*
G37*
G36*
G01*
X106690000Y-87075000D02*
X106690000Y-86975000D01*
G75*
G02*
X106740000Y-86925000I50000J0D01*
G01*
X107515000Y-86925000D01*
G75*
G02*
X107565000Y-86975000I0J-50000D01*
G01*
X107565000Y-87075000D01*
G75*
G02*
X107515000Y-87125000I-50000J0D01*
G01*
X106740000Y-87125000D01*
G75*
G02*
X106690000Y-87075000I0J50000D01*
G01*
G37*
G36*
G01*
X106690000Y-87475000D02*
X106690000Y-87375000D01*
G75*
G02*
X106740000Y-87325000I50000J0D01*
G01*
X107515000Y-87325000D01*
G75*
G02*
X107565000Y-87375000I0J-50000D01*
G01*
X107565000Y-87475000D01*
G75*
G02*
X107515000Y-87525000I-50000J0D01*
G01*
X106740000Y-87525000D01*
G75*
G02*
X106690000Y-87475000I0J50000D01*
G01*
G37*
G36*
G01*
X106690000Y-87875000D02*
X106690000Y-87775000D01*
G75*
G02*
X106740000Y-87725000I50000J0D01*
G01*
X107515000Y-87725000D01*
G75*
G02*
X107565000Y-87775000I0J-50000D01*
G01*
X107565000Y-87875000D01*
G75*
G02*
X107515000Y-87925000I-50000J0D01*
G01*
X106740000Y-87925000D01*
G75*
G02*
X106690000Y-87875000I0J50000D01*
G01*
G37*
G36*
G01*
X106690000Y-88275000D02*
X106690000Y-88175000D01*
G75*
G02*
X106740000Y-88125000I50000J0D01*
G01*
X107515000Y-88125000D01*
G75*
G02*
X107565000Y-88175000I0J-50000D01*
G01*
X107565000Y-88275000D01*
G75*
G02*
X107515000Y-88325000I-50000J0D01*
G01*
X106740000Y-88325000D01*
G75*
G02*
X106690000Y-88275000I0J50000D01*
G01*
G37*
G36*
G01*
X106690000Y-88675000D02*
X106690000Y-88575000D01*
G75*
G02*
X106740000Y-88525000I50000J0D01*
G01*
X107515000Y-88525000D01*
G75*
G02*
X107565000Y-88575000I0J-50000D01*
G01*
X107565000Y-88675000D01*
G75*
G02*
X107515000Y-88725000I-50000J0D01*
G01*
X106740000Y-88725000D01*
G75*
G02*
X106690000Y-88675000I0J50000D01*
G01*
G37*
G36*
G01*
X106190000Y-89850000D02*
X106190000Y-89075000D01*
G75*
G02*
X106240000Y-89025000I50000J0D01*
G01*
X106340000Y-89025000D01*
G75*
G02*
X106390000Y-89075000I0J-50000D01*
G01*
X106390000Y-89850000D01*
G75*
G02*
X106340000Y-89900000I-50000J0D01*
G01*
X106240000Y-89900000D01*
G75*
G02*
X106190000Y-89850000I0J50000D01*
G01*
G37*
G36*
G01*
X105790000Y-89850000D02*
X105790000Y-89075000D01*
G75*
G02*
X105840000Y-89025000I50000J0D01*
G01*
X105940000Y-89025000D01*
G75*
G02*
X105990000Y-89075000I0J-50000D01*
G01*
X105990000Y-89850000D01*
G75*
G02*
X105940000Y-89900000I-50000J0D01*
G01*
X105840000Y-89900000D01*
G75*
G02*
X105790000Y-89850000I0J50000D01*
G01*
G37*
G36*
G01*
X105390000Y-89850000D02*
X105390000Y-89075000D01*
G75*
G02*
X105440000Y-89025000I50000J0D01*
G01*
X105540000Y-89025000D01*
G75*
G02*
X105590000Y-89075000I0J-50000D01*
G01*
X105590000Y-89850000D01*
G75*
G02*
X105540000Y-89900000I-50000J0D01*
G01*
X105440000Y-89900000D01*
G75*
G02*
X105390000Y-89850000I0J50000D01*
G01*
G37*
G36*
G01*
X104990000Y-89850000D02*
X104990000Y-89075000D01*
G75*
G02*
X105040000Y-89025000I50000J0D01*
G01*
X105140000Y-89025000D01*
G75*
G02*
X105190000Y-89075000I0J-50000D01*
G01*
X105190000Y-89850000D01*
G75*
G02*
X105140000Y-89900000I-50000J0D01*
G01*
X105040000Y-89900000D01*
G75*
G02*
X104990000Y-89850000I0J50000D01*
G01*
G37*
G36*
G01*
X104590000Y-89850000D02*
X104590000Y-89075000D01*
G75*
G02*
X104640000Y-89025000I50000J0D01*
G01*
X104740000Y-89025000D01*
G75*
G02*
X104790000Y-89075000I0J-50000D01*
G01*
X104790000Y-89850000D01*
G75*
G02*
X104740000Y-89900000I-50000J0D01*
G01*
X104640000Y-89900000D01*
G75*
G02*
X104590000Y-89850000I0J50000D01*
G01*
G37*
G36*
G01*
X104190000Y-89850000D02*
X104190000Y-89075000D01*
G75*
G02*
X104240000Y-89025000I50000J0D01*
G01*
X104340000Y-89025000D01*
G75*
G02*
X104390000Y-89075000I0J-50000D01*
G01*
X104390000Y-89850000D01*
G75*
G02*
X104340000Y-89900000I-50000J0D01*
G01*
X104240000Y-89900000D01*
G75*
G02*
X104190000Y-89850000I0J50000D01*
G01*
G37*
G36*
G01*
X103790000Y-89850000D02*
X103790000Y-89075000D01*
G75*
G02*
X103840000Y-89025000I50000J0D01*
G01*
X103940000Y-89025000D01*
G75*
G02*
X103990000Y-89075000I0J-50000D01*
G01*
X103990000Y-89850000D01*
G75*
G02*
X103940000Y-89900000I-50000J0D01*
G01*
X103840000Y-89900000D01*
G75*
G02*
X103790000Y-89850000I0J50000D01*
G01*
G37*
G36*
G01*
X103390000Y-89850000D02*
X103390000Y-89075000D01*
G75*
G02*
X103440000Y-89025000I50000J0D01*
G01*
X103540000Y-89025000D01*
G75*
G02*
X103590000Y-89075000I0J-50000D01*
G01*
X103590000Y-89850000D01*
G75*
G02*
X103540000Y-89900000I-50000J0D01*
G01*
X103440000Y-89900000D01*
G75*
G02*
X103390000Y-89850000I0J50000D01*
G01*
G37*
G36*
G01*
X102990000Y-89850000D02*
X102990000Y-89075000D01*
G75*
G02*
X103040000Y-89025000I50000J0D01*
G01*
X103140000Y-89025000D01*
G75*
G02*
X103190000Y-89075000I0J-50000D01*
G01*
X103190000Y-89850000D01*
G75*
G02*
X103140000Y-89900000I-50000J0D01*
G01*
X103040000Y-89900000D01*
G75*
G02*
X102990000Y-89850000I0J50000D01*
G01*
G37*
G36*
G01*
X102590000Y-89850000D02*
X102590000Y-89075000D01*
G75*
G02*
X102640000Y-89025000I50000J0D01*
G01*
X102740000Y-89025000D01*
G75*
G02*
X102790000Y-89075000I0J-50000D01*
G01*
X102790000Y-89850000D01*
G75*
G02*
X102740000Y-89900000I-50000J0D01*
G01*
X102640000Y-89900000D01*
G75*
G02*
X102590000Y-89850000I0J50000D01*
G01*
G37*
G36*
G01*
X102190000Y-89850000D02*
X102190000Y-89075000D01*
G75*
G02*
X102240000Y-89025000I50000J0D01*
G01*
X102340000Y-89025000D01*
G75*
G02*
X102390000Y-89075000I0J-50000D01*
G01*
X102390000Y-89850000D01*
G75*
G02*
X102340000Y-89900000I-50000J0D01*
G01*
X102240000Y-89900000D01*
G75*
G02*
X102190000Y-89850000I0J50000D01*
G01*
G37*
G36*
G01*
X101790000Y-89850000D02*
X101790000Y-89075000D01*
G75*
G02*
X101840000Y-89025000I50000J0D01*
G01*
X101940000Y-89025000D01*
G75*
G02*
X101990000Y-89075000I0J-50000D01*
G01*
X101990000Y-89850000D01*
G75*
G02*
X101940000Y-89900000I-50000J0D01*
G01*
X101840000Y-89900000D01*
G75*
G02*
X101790000Y-89850000I0J50000D01*
G01*
G37*
G36*
G01*
X101390000Y-89850000D02*
X101390000Y-89075000D01*
G75*
G02*
X101440000Y-89025000I50000J0D01*
G01*
X101540000Y-89025000D01*
G75*
G02*
X101590000Y-89075000I0J-50000D01*
G01*
X101590000Y-89850000D01*
G75*
G02*
X101540000Y-89900000I-50000J0D01*
G01*
X101440000Y-89900000D01*
G75*
G02*
X101390000Y-89850000I0J50000D01*
G01*
G37*
G36*
G01*
X100990000Y-89850000D02*
X100990000Y-89075000D01*
G75*
G02*
X101040000Y-89025000I50000J0D01*
G01*
X101140000Y-89025000D01*
G75*
G02*
X101190000Y-89075000I0J-50000D01*
G01*
X101190000Y-89850000D01*
G75*
G02*
X101140000Y-89900000I-50000J0D01*
G01*
X101040000Y-89900000D01*
G75*
G02*
X100990000Y-89850000I0J50000D01*
G01*
G37*
G36*
G01*
X99815000Y-88675000D02*
X99815000Y-88575000D01*
G75*
G02*
X99865000Y-88525000I50000J0D01*
G01*
X100640000Y-88525000D01*
G75*
G02*
X100690000Y-88575000I0J-50000D01*
G01*
X100690000Y-88675000D01*
G75*
G02*
X100640000Y-88725000I-50000J0D01*
G01*
X99865000Y-88725000D01*
G75*
G02*
X99815000Y-88675000I0J50000D01*
G01*
G37*
G36*
G01*
X99815000Y-88275000D02*
X99815000Y-88175000D01*
G75*
G02*
X99865000Y-88125000I50000J0D01*
G01*
X100640000Y-88125000D01*
G75*
G02*
X100690000Y-88175000I0J-50000D01*
G01*
X100690000Y-88275000D01*
G75*
G02*
X100640000Y-88325000I-50000J0D01*
G01*
X99865000Y-88325000D01*
G75*
G02*
X99815000Y-88275000I0J50000D01*
G01*
G37*
G36*
G01*
X99815000Y-87875000D02*
X99815000Y-87775000D01*
G75*
G02*
X99865000Y-87725000I50000J0D01*
G01*
X100640000Y-87725000D01*
G75*
G02*
X100690000Y-87775000I0J-50000D01*
G01*
X100690000Y-87875000D01*
G75*
G02*
X100640000Y-87925000I-50000J0D01*
G01*
X99865000Y-87925000D01*
G75*
G02*
X99815000Y-87875000I0J50000D01*
G01*
G37*
G36*
G01*
X99815000Y-87475000D02*
X99815000Y-87375000D01*
G75*
G02*
X99865000Y-87325000I50000J0D01*
G01*
X100640000Y-87325000D01*
G75*
G02*
X100690000Y-87375000I0J-50000D01*
G01*
X100690000Y-87475000D01*
G75*
G02*
X100640000Y-87525000I-50000J0D01*
G01*
X99865000Y-87525000D01*
G75*
G02*
X99815000Y-87475000I0J50000D01*
G01*
G37*
G36*
G01*
X99815000Y-87075000D02*
X99815000Y-86975000D01*
G75*
G02*
X99865000Y-86925000I50000J0D01*
G01*
X100640000Y-86925000D01*
G75*
G02*
X100690000Y-86975000I0J-50000D01*
G01*
X100690000Y-87075000D01*
G75*
G02*
X100640000Y-87125000I-50000J0D01*
G01*
X99865000Y-87125000D01*
G75*
G02*
X99815000Y-87075000I0J50000D01*
G01*
G37*
G36*
G01*
X99815000Y-86675000D02*
X99815000Y-86575000D01*
G75*
G02*
X99865000Y-86525000I50000J0D01*
G01*
X100640000Y-86525000D01*
G75*
G02*
X100690000Y-86575000I0J-50000D01*
G01*
X100690000Y-86675000D01*
G75*
G02*
X100640000Y-86725000I-50000J0D01*
G01*
X99865000Y-86725000D01*
G75*
G02*
X99815000Y-86675000I0J50000D01*
G01*
G37*
G36*
G01*
X99815000Y-86275000D02*
X99815000Y-86175000D01*
G75*
G02*
X99865000Y-86125000I50000J0D01*
G01*
X100640000Y-86125000D01*
G75*
G02*
X100690000Y-86175000I0J-50000D01*
G01*
X100690000Y-86275000D01*
G75*
G02*
X100640000Y-86325000I-50000J0D01*
G01*
X99865000Y-86325000D01*
G75*
G02*
X99815000Y-86275000I0J50000D01*
G01*
G37*
G36*
G01*
X99815000Y-85875000D02*
X99815000Y-85775000D01*
G75*
G02*
X99865000Y-85725000I50000J0D01*
G01*
X100640000Y-85725000D01*
G75*
G02*
X100690000Y-85775000I0J-50000D01*
G01*
X100690000Y-85875000D01*
G75*
G02*
X100640000Y-85925000I-50000J0D01*
G01*
X99865000Y-85925000D01*
G75*
G02*
X99815000Y-85875000I0J50000D01*
G01*
G37*
G36*
G01*
X99815000Y-85475000D02*
X99815000Y-85375000D01*
G75*
G02*
X99865000Y-85325000I50000J0D01*
G01*
X100640000Y-85325000D01*
G75*
G02*
X100690000Y-85375000I0J-50000D01*
G01*
X100690000Y-85475000D01*
G75*
G02*
X100640000Y-85525000I-50000J0D01*
G01*
X99865000Y-85525000D01*
G75*
G02*
X99815000Y-85475000I0J50000D01*
G01*
G37*
G36*
G01*
X99815000Y-85075000D02*
X99815000Y-84975000D01*
G75*
G02*
X99865000Y-84925000I50000J0D01*
G01*
X100640000Y-84925000D01*
G75*
G02*
X100690000Y-84975000I0J-50000D01*
G01*
X100690000Y-85075000D01*
G75*
G02*
X100640000Y-85125000I-50000J0D01*
G01*
X99865000Y-85125000D01*
G75*
G02*
X99815000Y-85075000I0J50000D01*
G01*
G37*
G36*
G01*
X99815000Y-84675000D02*
X99815000Y-84575000D01*
G75*
G02*
X99865000Y-84525000I50000J0D01*
G01*
X100640000Y-84525000D01*
G75*
G02*
X100690000Y-84575000I0J-50000D01*
G01*
X100690000Y-84675000D01*
G75*
G02*
X100640000Y-84725000I-50000J0D01*
G01*
X99865000Y-84725000D01*
G75*
G02*
X99815000Y-84675000I0J50000D01*
G01*
G37*
G36*
G01*
X99815000Y-84275000D02*
X99815000Y-84175000D01*
G75*
G02*
X99865000Y-84125000I50000J0D01*
G01*
X100640000Y-84125000D01*
G75*
G02*
X100690000Y-84175000I0J-50000D01*
G01*
X100690000Y-84275000D01*
G75*
G02*
X100640000Y-84325000I-50000J0D01*
G01*
X99865000Y-84325000D01*
G75*
G02*
X99815000Y-84275000I0J50000D01*
G01*
G37*
G36*
G01*
X99815000Y-83875000D02*
X99815000Y-83775000D01*
G75*
G02*
X99865000Y-83725000I50000J0D01*
G01*
X100640000Y-83725000D01*
G75*
G02*
X100690000Y-83775000I0J-50000D01*
G01*
X100690000Y-83875000D01*
G75*
G02*
X100640000Y-83925000I-50000J0D01*
G01*
X99865000Y-83925000D01*
G75*
G02*
X99815000Y-83875000I0J50000D01*
G01*
G37*
G36*
G01*
X99815000Y-83475000D02*
X99815000Y-83375000D01*
G75*
G02*
X99865000Y-83325000I50000J0D01*
G01*
X100640000Y-83325000D01*
G75*
G02*
X100690000Y-83375000I0J-50000D01*
G01*
X100690000Y-83475000D01*
G75*
G02*
X100640000Y-83525000I-50000J0D01*
G01*
X99865000Y-83525000D01*
G75*
G02*
X99815000Y-83475000I0J50000D01*
G01*
G37*
G36*
G01*
X103785283Y-86954717D02*
X103785283Y-86370283D01*
G75*
G02*
X104035283Y-86120283I250000J0D01*
G01*
X104619717Y-86120283D01*
G75*
G02*
X104869717Y-86370283I0J-250000D01*
G01*
X104869717Y-86954717D01*
G75*
G02*
X104619717Y-87204717I-250000J0D01*
G01*
X104035283Y-87204717D01*
G75*
G02*
X103785283Y-86954717I0J250000D01*
G01*
G37*
G36*
G01*
X103785283Y-85679717D02*
X103785283Y-85095283D01*
G75*
G02*
X104035283Y-84845283I250000J0D01*
G01*
X104619717Y-84845283D01*
G75*
G02*
X104869717Y-85095283I0J-250000D01*
G01*
X104869717Y-85679717D01*
G75*
G02*
X104619717Y-85929717I-250000J0D01*
G01*
X104035283Y-85929717D01*
G75*
G02*
X103785283Y-85679717I0J250000D01*
G01*
G37*
G36*
G01*
X102510283Y-86954717D02*
X102510283Y-86370283D01*
G75*
G02*
X102760283Y-86120283I250000J0D01*
G01*
X103344717Y-86120283D01*
G75*
G02*
X103594717Y-86370283I0J-250000D01*
G01*
X103594717Y-86954717D01*
G75*
G02*
X103344717Y-87204717I-250000J0D01*
G01*
X102760283Y-87204717D01*
G75*
G02*
X102510283Y-86954717I0J250000D01*
G01*
G37*
G36*
G01*
X102510283Y-85679717D02*
X102510283Y-85095283D01*
G75*
G02*
X102760283Y-84845283I250000J0D01*
G01*
X103344717Y-84845283D01*
G75*
G02*
X103594717Y-85095283I0J-250000D01*
G01*
X103594717Y-85679717D01*
G75*
G02*
X103344717Y-85929717I-250000J0D01*
G01*
X102760283Y-85929717D01*
G75*
G02*
X102510283Y-85679717I0J250000D01*
G01*
G37*
M02*
