G04 #@! TF.GenerationSoftware,KiCad,Pcbnew,(5.1.9)-1*
G04 #@! TF.CreationDate,2021-06-11T11:43:51+01:00*
G04 #@! TF.ProjectId,EnvOpenPico,456e764f-7065-46e5-9069-636f2e6b6963,REV1*
G04 #@! TF.SameCoordinates,Original*
G04 #@! TF.FileFunction,Soldermask,Top*
G04 #@! TF.FilePolarity,Negative*
%FSLAX46Y46*%
G04 Gerber Fmt 4.6, Leading zero omitted, Abs format (unit mm)*
G04 Created by KiCad (PCBNEW (5.1.9)-1) date 2021-06-11 11:43:51*
%MOMM*%
%LPD*%
G01*
G04 APERTURE LIST*
%ADD10O,1.802000X1.802000*%
%ADD11C,1.802000*%
%ADD12C,0.752000*%
%ADD13C,2.302000*%
%ADD14C,0.150000*%
G04 APERTURE END LIST*
G36*
G01*
X105154500Y-79949000D02*
X105545500Y-79949000D01*
G75*
G02*
X105711000Y-80114500I0J-165500D01*
G01*
X105711000Y-80445500D01*
G75*
G02*
X105545500Y-80611000I-165500J0D01*
G01*
X105154500Y-80611000D01*
G75*
G02*
X104989000Y-80445500I0J165500D01*
G01*
X104989000Y-80114500D01*
G75*
G02*
X105154500Y-79949000I165500J0D01*
G01*
G37*
G36*
G01*
X105154500Y-78989000D02*
X105545500Y-78989000D01*
G75*
G02*
X105711000Y-79154500I0J-165500D01*
G01*
X105711000Y-79485500D01*
G75*
G02*
X105545500Y-79651000I-165500J0D01*
G01*
X105154500Y-79651000D01*
G75*
G02*
X104989000Y-79485500I0J165500D01*
G01*
X104989000Y-79154500D01*
G75*
G02*
X105154500Y-78989000I165500J0D01*
G01*
G37*
G36*
G01*
X109161000Y-71389999D02*
X109161000Y-71660001D01*
G75*
G02*
X109110001Y-71711000I-50999J0D01*
G01*
X108299999Y-71711000D01*
G75*
G02*
X108249000Y-71660001I0J50999D01*
G01*
X108249000Y-71389999D01*
G75*
G02*
X108299999Y-71339000I50999J0D01*
G01*
X109110001Y-71339000D01*
G75*
G02*
X109161000Y-71389999I0J-50999D01*
G01*
G37*
G36*
G01*
X109161000Y-70889999D02*
X109161000Y-71160001D01*
G75*
G02*
X109110001Y-71211000I-50999J0D01*
G01*
X108299999Y-71211000D01*
G75*
G02*
X108249000Y-71160001I0J50999D01*
G01*
X108249000Y-70889999D01*
G75*
G02*
X108299999Y-70839000I50999J0D01*
G01*
X109110001Y-70839000D01*
G75*
G02*
X109161000Y-70889999I0J-50999D01*
G01*
G37*
G36*
G01*
X109161000Y-70389999D02*
X109161000Y-70660001D01*
G75*
G02*
X109110001Y-70711000I-50999J0D01*
G01*
X108299999Y-70711000D01*
G75*
G02*
X108249000Y-70660001I0J50999D01*
G01*
X108249000Y-70389999D01*
G75*
G02*
X108299999Y-70339000I50999J0D01*
G01*
X109110001Y-70339000D01*
G75*
G02*
X109161000Y-70389999I0J-50999D01*
G01*
G37*
G36*
G01*
X109161000Y-69889999D02*
X109161000Y-70160001D01*
G75*
G02*
X109110001Y-70211000I-50999J0D01*
G01*
X108299999Y-70211000D01*
G75*
G02*
X108249000Y-70160001I0J50999D01*
G01*
X108249000Y-69889999D01*
G75*
G02*
X108299999Y-69839000I50999J0D01*
G01*
X109110001Y-69839000D01*
G75*
G02*
X109161000Y-69889999I0J-50999D01*
G01*
G37*
G36*
G01*
X109161000Y-69389999D02*
X109161000Y-69660001D01*
G75*
G02*
X109110001Y-69711000I-50999J0D01*
G01*
X108299999Y-69711000D01*
G75*
G02*
X108249000Y-69660001I0J50999D01*
G01*
X108249000Y-69389999D01*
G75*
G02*
X108299999Y-69339000I50999J0D01*
G01*
X109110001Y-69339000D01*
G75*
G02*
X109161000Y-69389999I0J-50999D01*
G01*
G37*
G36*
G01*
X106751000Y-69389999D02*
X106751000Y-69660001D01*
G75*
G02*
X106700001Y-69711000I-50999J0D01*
G01*
X105889999Y-69711000D01*
G75*
G02*
X105839000Y-69660001I0J50999D01*
G01*
X105839000Y-69389999D01*
G75*
G02*
X105889999Y-69339000I50999J0D01*
G01*
X106700001Y-69339000D01*
G75*
G02*
X106751000Y-69389999I0J-50999D01*
G01*
G37*
G36*
G01*
X106751000Y-69889999D02*
X106751000Y-70160001D01*
G75*
G02*
X106700001Y-70211000I-50999J0D01*
G01*
X105889999Y-70211000D01*
G75*
G02*
X105839000Y-70160001I0J50999D01*
G01*
X105839000Y-69889999D01*
G75*
G02*
X105889999Y-69839000I50999J0D01*
G01*
X106700001Y-69839000D01*
G75*
G02*
X106751000Y-69889999I0J-50999D01*
G01*
G37*
G36*
G01*
X106751000Y-70389999D02*
X106751000Y-70660001D01*
G75*
G02*
X106700001Y-70711000I-50999J0D01*
G01*
X105889999Y-70711000D01*
G75*
G02*
X105839000Y-70660001I0J50999D01*
G01*
X105839000Y-70389999D01*
G75*
G02*
X105889999Y-70339000I50999J0D01*
G01*
X106700001Y-70339000D01*
G75*
G02*
X106751000Y-70389999I0J-50999D01*
G01*
G37*
G36*
G01*
X106751000Y-70889999D02*
X106751000Y-71160001D01*
G75*
G02*
X106700001Y-71211000I-50999J0D01*
G01*
X105889999Y-71211000D01*
G75*
G02*
X105839000Y-71160001I0J50999D01*
G01*
X105839000Y-70889999D01*
G75*
G02*
X105889999Y-70839000I50999J0D01*
G01*
X106700001Y-70839000D01*
G75*
G02*
X106751000Y-70889999I0J-50999D01*
G01*
G37*
G36*
G01*
X106751000Y-71389999D02*
X106751000Y-71660001D01*
G75*
G02*
X106700001Y-71711000I-50999J0D01*
G01*
X105889999Y-71711000D01*
G75*
G02*
X105839000Y-71660001I0J50999D01*
G01*
X105839000Y-71389999D01*
G75*
G02*
X105889999Y-71339000I50999J0D01*
G01*
X106700001Y-71339000D01*
G75*
G02*
X106751000Y-71389999I0J-50999D01*
G01*
G37*
G36*
G01*
X108151000Y-69524999D02*
X108151000Y-71525001D01*
G75*
G02*
X108100001Y-71576000I-50999J0D01*
G01*
X106899999Y-71576000D01*
G75*
G02*
X106849000Y-71525001I0J50999D01*
G01*
X106849000Y-69524999D01*
G75*
G02*
X106899999Y-69474000I50999J0D01*
G01*
X108100001Y-69474000D01*
G75*
G02*
X108151000Y-69524999I0J-50999D01*
G01*
G37*
G36*
G01*
X109131000Y-68254500D02*
X109131000Y-68675500D01*
G75*
G02*
X108970500Y-68836000I-160500J0D01*
G01*
X108649500Y-68836000D01*
G75*
G02*
X108489000Y-68675500I0J160500D01*
G01*
X108489000Y-68254500D01*
G75*
G02*
X108649500Y-68094000I160500J0D01*
G01*
X108970500Y-68094000D01*
G75*
G02*
X109131000Y-68254500I0J-160500D01*
G01*
G37*
G36*
G01*
X108111000Y-68254500D02*
X108111000Y-68675500D01*
G75*
G02*
X107950500Y-68836000I-160500J0D01*
G01*
X107629500Y-68836000D01*
G75*
G02*
X107469000Y-68675500I0J160500D01*
G01*
X107469000Y-68254500D01*
G75*
G02*
X107629500Y-68094000I160500J0D01*
G01*
X107950500Y-68094000D01*
G75*
G02*
X108111000Y-68254500I0J-160500D01*
G01*
G37*
G36*
G01*
X110731750Y-72101000D02*
X109918250Y-72101000D01*
G75*
G02*
X109674000Y-71856750I0J244250D01*
G01*
X109674000Y-71368250D01*
G75*
G02*
X109918250Y-71124000I244250J0D01*
G01*
X110731750Y-71124000D01*
G75*
G02*
X110976000Y-71368250I0J-244250D01*
G01*
X110976000Y-71856750D01*
G75*
G02*
X110731750Y-72101000I-244250J0D01*
G01*
G37*
G36*
G01*
X110731750Y-69976000D02*
X109918250Y-69976000D01*
G75*
G02*
X109674000Y-69731750I0J244250D01*
G01*
X109674000Y-69243250D01*
G75*
G02*
X109918250Y-68999000I244250J0D01*
G01*
X110731750Y-68999000D01*
G75*
G02*
X110976000Y-69243250I0J-244250D01*
G01*
X110976000Y-69731750D01*
G75*
G02*
X110731750Y-69976000I-244250J0D01*
G01*
G37*
G36*
G01*
X103605500Y-80616000D02*
X103214500Y-80616000D01*
G75*
G02*
X103049000Y-80450500I0J165500D01*
G01*
X103049000Y-80119500D01*
G75*
G02*
X103214500Y-79954000I165500J0D01*
G01*
X103605500Y-79954000D01*
G75*
G02*
X103771000Y-80119500I0J-165500D01*
G01*
X103771000Y-80450500D01*
G75*
G02*
X103605500Y-80616000I-165500J0D01*
G01*
G37*
G36*
G01*
X103605500Y-79656000D02*
X103214500Y-79656000D01*
G75*
G02*
X103049000Y-79490500I0J165500D01*
G01*
X103049000Y-79159500D01*
G75*
G02*
X103214500Y-78994000I165500J0D01*
G01*
X103605500Y-78994000D01*
G75*
G02*
X103771000Y-79159500I0J-165500D01*
G01*
X103771000Y-79490500D01*
G75*
G02*
X103605500Y-79656000I-165500J0D01*
G01*
G37*
G36*
G01*
X99881000Y-73869500D02*
X99881000Y-74260500D01*
G75*
G02*
X99715500Y-74426000I-165500J0D01*
G01*
X99384500Y-74426000D01*
G75*
G02*
X99219000Y-74260500I0J165500D01*
G01*
X99219000Y-73869500D01*
G75*
G02*
X99384500Y-73704000I165500J0D01*
G01*
X99715500Y-73704000D01*
G75*
G02*
X99881000Y-73869500I0J-165500D01*
G01*
G37*
G36*
G01*
X98921000Y-73869500D02*
X98921000Y-74260500D01*
G75*
G02*
X98755500Y-74426000I-165500J0D01*
G01*
X98424500Y-74426000D01*
G75*
G02*
X98259000Y-74260500I0J165500D01*
G01*
X98259000Y-73869500D01*
G75*
G02*
X98424500Y-73704000I165500J0D01*
G01*
X98755500Y-73704000D01*
G75*
G02*
X98921000Y-73869500I0J-165500D01*
G01*
G37*
G36*
G01*
X107611000Y-73839500D02*
X107611000Y-74230500D01*
G75*
G02*
X107445500Y-74396000I-165500J0D01*
G01*
X107114500Y-74396000D01*
G75*
G02*
X106949000Y-74230500I0J165500D01*
G01*
X106949000Y-73839500D01*
G75*
G02*
X107114500Y-73674000I165500J0D01*
G01*
X107445500Y-73674000D01*
G75*
G02*
X107611000Y-73839500I0J-165500D01*
G01*
G37*
G36*
G01*
X106651000Y-73839500D02*
X106651000Y-74230500D01*
G75*
G02*
X106485500Y-74396000I-165500J0D01*
G01*
X106154500Y-74396000D01*
G75*
G02*
X105989000Y-74230500I0J165500D01*
G01*
X105989000Y-73839500D01*
G75*
G02*
X106154500Y-73674000I165500J0D01*
G01*
X106485500Y-73674000D01*
G75*
G02*
X106651000Y-73839500I0J-165500D01*
G01*
G37*
G36*
G01*
X102625500Y-79651000D02*
X102234500Y-79651000D01*
G75*
G02*
X102069000Y-79485500I0J165500D01*
G01*
X102069000Y-79154500D01*
G75*
G02*
X102234500Y-78989000I165500J0D01*
G01*
X102625500Y-78989000D01*
G75*
G02*
X102791000Y-79154500I0J-165500D01*
G01*
X102791000Y-79485500D01*
G75*
G02*
X102625500Y-79651000I-165500J0D01*
G01*
G37*
G36*
G01*
X102625500Y-80611000D02*
X102234500Y-80611000D01*
G75*
G02*
X102069000Y-80445500I0J165500D01*
G01*
X102069000Y-80114500D01*
G75*
G02*
X102234500Y-79949000I165500J0D01*
G01*
X102625500Y-79949000D01*
G75*
G02*
X102791000Y-80114500I0J-165500D01*
G01*
X102791000Y-80445500D01*
G75*
G02*
X102625500Y-80611000I-165500J0D01*
G01*
G37*
G36*
G01*
X107445500Y-79646000D02*
X107054500Y-79646000D01*
G75*
G02*
X106889000Y-79480500I0J165500D01*
G01*
X106889000Y-79149500D01*
G75*
G02*
X107054500Y-78984000I165500J0D01*
G01*
X107445500Y-78984000D01*
G75*
G02*
X107611000Y-79149500I0J-165500D01*
G01*
X107611000Y-79480500D01*
G75*
G02*
X107445500Y-79646000I-165500J0D01*
G01*
G37*
G36*
G01*
X107445500Y-80606000D02*
X107054500Y-80606000D01*
G75*
G02*
X106889000Y-80440500I0J165500D01*
G01*
X106889000Y-80109500D01*
G75*
G02*
X107054500Y-79944000I165500J0D01*
G01*
X107445500Y-79944000D01*
G75*
G02*
X107611000Y-80109500I0J-165500D01*
G01*
X107611000Y-80440500D01*
G75*
G02*
X107445500Y-80606000I-165500J0D01*
G01*
G37*
G36*
G01*
X109881750Y-62686000D02*
X109318250Y-62686000D01*
G75*
G02*
X109074000Y-62441750I0J244250D01*
G01*
X109074000Y-61953250D01*
G75*
G02*
X109318250Y-61709000I244250J0D01*
G01*
X109881750Y-61709000D01*
G75*
G02*
X110126000Y-61953250I0J-244250D01*
G01*
X110126000Y-62441750D01*
G75*
G02*
X109881750Y-62686000I-244250J0D01*
G01*
G37*
G36*
G01*
X109881750Y-64261000D02*
X109318250Y-64261000D01*
G75*
G02*
X109074000Y-64016750I0J244250D01*
G01*
X109074000Y-63528250D01*
G75*
G02*
X109318250Y-63284000I244250J0D01*
G01*
X109881750Y-63284000D01*
G75*
G02*
X110126000Y-63528250I0J-244250D01*
G01*
X110126000Y-64016750D01*
G75*
G02*
X109881750Y-64261000I-244250J0D01*
G01*
G37*
D10*
X112550000Y-106985000D03*
X112550000Y-104445000D03*
X112550000Y-101905000D03*
X112550000Y-99365000D03*
X112550000Y-96825000D03*
X112550000Y-94285000D03*
X112550000Y-91745000D03*
X112550000Y-89205000D03*
X112550000Y-86665000D03*
X112550000Y-84125000D03*
X112550000Y-81585000D03*
X112550000Y-79045000D03*
X112550000Y-76505000D03*
X112550000Y-73965000D03*
X112550000Y-71425000D03*
X112550000Y-68885000D03*
X112550000Y-66345000D03*
X112550000Y-63805000D03*
X112550000Y-61265000D03*
G36*
G01*
X113451000Y-57875000D02*
X113451000Y-59575000D01*
G75*
G02*
X113400000Y-59626000I-51000J0D01*
G01*
X111700000Y-59626000D01*
G75*
G02*
X111649000Y-59575000I0J51000D01*
G01*
X111649000Y-57875000D01*
G75*
G02*
X111700000Y-57824000I51000J0D01*
G01*
X113400000Y-57824000D01*
G75*
G02*
X113451000Y-57875000I0J-51000D01*
G01*
G37*
G36*
G01*
X116051000Y-98515000D02*
X116051000Y-100215000D01*
G75*
G02*
X116000000Y-100266000I-51000J0D01*
G01*
X112500000Y-100266000D01*
G75*
G02*
X112449000Y-100215000I0J51000D01*
G01*
X112449000Y-98515000D01*
G75*
G02*
X112500000Y-98464000I51000J0D01*
G01*
X116000000Y-98464000D01*
G75*
G02*
X116051000Y-98515000I0J-51000D01*
G01*
G37*
G36*
G01*
X116051000Y-101055000D02*
X116051000Y-102755000D01*
G75*
G02*
X116000000Y-102806000I-51000J0D01*
G01*
X112500000Y-102806000D01*
G75*
G02*
X112449000Y-102755000I0J51000D01*
G01*
X112449000Y-101055000D01*
G75*
G02*
X112500000Y-101004000I51000J0D01*
G01*
X116000000Y-101004000D01*
G75*
G02*
X116051000Y-101055000I0J-51000D01*
G01*
G37*
G36*
G01*
X116051000Y-95975000D02*
X116051000Y-97675000D01*
G75*
G02*
X116000000Y-97726000I-51000J0D01*
G01*
X112500000Y-97726000D01*
G75*
G02*
X112449000Y-97675000I0J51000D01*
G01*
X112449000Y-95975000D01*
G75*
G02*
X112500000Y-95924000I51000J0D01*
G01*
X116000000Y-95924000D01*
G75*
G02*
X116051000Y-95975000I0J-51000D01*
G01*
G37*
G36*
G01*
X116051000Y-103595000D02*
X116051000Y-105295000D01*
G75*
G02*
X116000000Y-105346000I-51000J0D01*
G01*
X112500000Y-105346000D01*
G75*
G02*
X112449000Y-105295000I0J51000D01*
G01*
X112449000Y-103595000D01*
G75*
G02*
X112500000Y-103544000I51000J0D01*
G01*
X116000000Y-103544000D01*
G75*
G02*
X116051000Y-103595000I0J-51000D01*
G01*
G37*
G36*
G01*
X116051000Y-93435000D02*
X116051000Y-95135000D01*
G75*
G02*
X116000000Y-95186000I-51000J0D01*
G01*
X112500000Y-95186000D01*
G75*
G02*
X112449000Y-95135000I0J51000D01*
G01*
X112449000Y-93435000D01*
G75*
G02*
X112500000Y-93384000I51000J0D01*
G01*
X116000000Y-93384000D01*
G75*
G02*
X116051000Y-93435000I0J-51000D01*
G01*
G37*
G36*
G01*
X116051000Y-106135000D02*
X116051000Y-107835000D01*
G75*
G02*
X116000000Y-107886000I-51000J0D01*
G01*
X112500000Y-107886000D01*
G75*
G02*
X112449000Y-107835000I0J51000D01*
G01*
X112449000Y-106135000D01*
G75*
G02*
X112500000Y-106084000I51000J0D01*
G01*
X116000000Y-106084000D01*
G75*
G02*
X116051000Y-106135000I0J-51000D01*
G01*
G37*
G36*
G01*
X116051000Y-85815000D02*
X116051000Y-87515000D01*
G75*
G02*
X116000000Y-87566000I-51000J0D01*
G01*
X112500000Y-87566000D01*
G75*
G02*
X112449000Y-87515000I0J51000D01*
G01*
X112449000Y-85815000D01*
G75*
G02*
X112500000Y-85764000I51000J0D01*
G01*
X116000000Y-85764000D01*
G75*
G02*
X116051000Y-85815000I0J-51000D01*
G01*
G37*
G36*
G01*
X116051000Y-90895000D02*
X116051000Y-92595000D01*
G75*
G02*
X116000000Y-92646000I-51000J0D01*
G01*
X112500000Y-92646000D01*
G75*
G02*
X112449000Y-92595000I0J51000D01*
G01*
X112449000Y-90895000D01*
G75*
G02*
X112500000Y-90844000I51000J0D01*
G01*
X116000000Y-90844000D01*
G75*
G02*
X116051000Y-90895000I0J-51000D01*
G01*
G37*
G36*
G01*
X116051000Y-83275000D02*
X116051000Y-84975000D01*
G75*
G02*
X116000000Y-85026000I-51000J0D01*
G01*
X112500000Y-85026000D01*
G75*
G02*
X112449000Y-84975000I0J51000D01*
G01*
X112449000Y-83275000D01*
G75*
G02*
X112500000Y-83224000I51000J0D01*
G01*
X116000000Y-83224000D01*
G75*
G02*
X116051000Y-83275000I0J-51000D01*
G01*
G37*
G36*
G01*
X116051000Y-73115000D02*
X116051000Y-74815000D01*
G75*
G02*
X116000000Y-74866000I-51000J0D01*
G01*
X112500000Y-74866000D01*
G75*
G02*
X112449000Y-74815000I0J51000D01*
G01*
X112449000Y-73115000D01*
G75*
G02*
X112500000Y-73064000I51000J0D01*
G01*
X116000000Y-73064000D01*
G75*
G02*
X116051000Y-73115000I0J-51000D01*
G01*
G37*
G36*
G01*
X116051000Y-70575000D02*
X116051000Y-72275000D01*
G75*
G02*
X116000000Y-72326000I-51000J0D01*
G01*
X112500000Y-72326000D01*
G75*
G02*
X112449000Y-72275000I0J51000D01*
G01*
X112449000Y-70575000D01*
G75*
G02*
X112500000Y-70524000I51000J0D01*
G01*
X116000000Y-70524000D01*
G75*
G02*
X116051000Y-70575000I0J-51000D01*
G01*
G37*
G36*
G01*
X116051000Y-68035000D02*
X116051000Y-69735000D01*
G75*
G02*
X116000000Y-69786000I-51000J0D01*
G01*
X112500000Y-69786000D01*
G75*
G02*
X112449000Y-69735000I0J51000D01*
G01*
X112449000Y-68035000D01*
G75*
G02*
X112500000Y-67984000I51000J0D01*
G01*
X116000000Y-67984000D01*
G75*
G02*
X116051000Y-68035000I0J-51000D01*
G01*
G37*
G36*
G01*
X116051000Y-60415000D02*
X116051000Y-62115000D01*
G75*
G02*
X116000000Y-62166000I-51000J0D01*
G01*
X112500000Y-62166000D01*
G75*
G02*
X112449000Y-62115000I0J51000D01*
G01*
X112449000Y-60415000D01*
G75*
G02*
X112500000Y-60364000I51000J0D01*
G01*
X116000000Y-60364000D01*
G75*
G02*
X116051000Y-60415000I0J-51000D01*
G01*
G37*
G36*
G01*
X116051000Y-88355000D02*
X116051000Y-90055000D01*
G75*
G02*
X116000000Y-90106000I-51000J0D01*
G01*
X112500000Y-90106000D01*
G75*
G02*
X112449000Y-90055000I0J51000D01*
G01*
X112449000Y-88355000D01*
G75*
G02*
X112500000Y-88304000I51000J0D01*
G01*
X116000000Y-88304000D01*
G75*
G02*
X116051000Y-88355000I0J-51000D01*
G01*
G37*
G36*
G01*
X116051000Y-75655000D02*
X116051000Y-77355000D01*
G75*
G02*
X116000000Y-77406000I-51000J0D01*
G01*
X112500000Y-77406000D01*
G75*
G02*
X112449000Y-77355000I0J51000D01*
G01*
X112449000Y-75655000D01*
G75*
G02*
X112500000Y-75604000I51000J0D01*
G01*
X116000000Y-75604000D01*
G75*
G02*
X116051000Y-75655000I0J-51000D01*
G01*
G37*
G36*
G01*
X116051000Y-62955000D02*
X116051000Y-64655000D01*
G75*
G02*
X116000000Y-64706000I-51000J0D01*
G01*
X112500000Y-64706000D01*
G75*
G02*
X112449000Y-64655000I0J51000D01*
G01*
X112449000Y-62955000D01*
G75*
G02*
X112500000Y-62904000I51000J0D01*
G01*
X116000000Y-62904000D01*
G75*
G02*
X116051000Y-62955000I0J-51000D01*
G01*
G37*
G36*
G01*
X116051000Y-57875000D02*
X116051000Y-59575000D01*
G75*
G02*
X116000000Y-59626000I-51000J0D01*
G01*
X112500000Y-59626000D01*
G75*
G02*
X112449000Y-59575000I0J51000D01*
G01*
X112449000Y-57875000D01*
G75*
G02*
X112500000Y-57824000I51000J0D01*
G01*
X116000000Y-57824000D01*
G75*
G02*
X116051000Y-57875000I0J-51000D01*
G01*
G37*
G36*
G01*
X116051000Y-78195000D02*
X116051000Y-79895000D01*
G75*
G02*
X116000000Y-79946000I-51000J0D01*
G01*
X112500000Y-79946000D01*
G75*
G02*
X112449000Y-79895000I0J51000D01*
G01*
X112449000Y-78195000D01*
G75*
G02*
X112500000Y-78144000I51000J0D01*
G01*
X116000000Y-78144000D01*
G75*
G02*
X116051000Y-78195000I0J-51000D01*
G01*
G37*
G36*
G01*
X116051000Y-65495000D02*
X116051000Y-67195000D01*
G75*
G02*
X116000000Y-67246000I-51000J0D01*
G01*
X112500000Y-67246000D01*
G75*
G02*
X112449000Y-67195000I0J51000D01*
G01*
X112449000Y-65495000D01*
G75*
G02*
X112500000Y-65444000I51000J0D01*
G01*
X116000000Y-65444000D01*
G75*
G02*
X116051000Y-65495000I0J-51000D01*
G01*
G37*
G36*
G01*
X116051000Y-80735000D02*
X116051000Y-82435000D01*
G75*
G02*
X116000000Y-82486000I-51000J0D01*
G01*
X112500000Y-82486000D01*
G75*
G02*
X112449000Y-82435000I0J51000D01*
G01*
X112449000Y-80735000D01*
G75*
G02*
X112500000Y-80684000I51000J0D01*
G01*
X116000000Y-80684000D01*
G75*
G02*
X116051000Y-80735000I0J-51000D01*
G01*
G37*
X94750000Y-58725000D03*
X94750000Y-61265000D03*
G36*
G01*
X93849000Y-64655000D02*
X93849000Y-62955000D01*
G75*
G02*
X93900000Y-62904000I51000J0D01*
G01*
X95600000Y-62904000D01*
G75*
G02*
X95651000Y-62955000I0J-51000D01*
G01*
X95651000Y-64655000D01*
G75*
G02*
X95600000Y-64706000I-51000J0D01*
G01*
X93900000Y-64706000D01*
G75*
G02*
X93849000Y-64655000I0J51000D01*
G01*
G37*
X94750000Y-66345000D03*
X94750000Y-68885000D03*
X94750000Y-71425000D03*
X94750000Y-73965000D03*
G36*
G01*
X93849000Y-77355000D02*
X93849000Y-75655000D01*
G75*
G02*
X93900000Y-75604000I51000J0D01*
G01*
X95600000Y-75604000D01*
G75*
G02*
X95651000Y-75655000I0J-51000D01*
G01*
X95651000Y-77355000D01*
G75*
G02*
X95600000Y-77406000I-51000J0D01*
G01*
X93900000Y-77406000D01*
G75*
G02*
X93849000Y-77355000I0J51000D01*
G01*
G37*
X94750000Y-79045000D03*
X94750000Y-81585000D03*
X94750000Y-84125000D03*
X94750000Y-86665000D03*
G36*
G01*
X93849000Y-90055000D02*
X93849000Y-88355000D01*
G75*
G02*
X93900000Y-88304000I51000J0D01*
G01*
X95600000Y-88304000D01*
G75*
G02*
X95651000Y-88355000I0J-51000D01*
G01*
X95651000Y-90055000D01*
G75*
G02*
X95600000Y-90106000I-51000J0D01*
G01*
X93900000Y-90106000D01*
G75*
G02*
X93849000Y-90055000I0J51000D01*
G01*
G37*
X94750000Y-91745000D03*
X94750000Y-94285000D03*
X94750000Y-96825000D03*
X94750000Y-99365000D03*
G36*
G01*
X93849000Y-102755000D02*
X93849000Y-101055000D01*
G75*
G02*
X93900000Y-101004000I51000J0D01*
G01*
X95600000Y-101004000D01*
G75*
G02*
X95651000Y-101055000I0J-51000D01*
G01*
X95651000Y-102755000D01*
G75*
G02*
X95600000Y-102806000I-51000J0D01*
G01*
X93900000Y-102806000D01*
G75*
G02*
X93849000Y-102755000I0J51000D01*
G01*
G37*
X94750000Y-104445000D03*
D11*
X94750000Y-106985000D03*
G36*
G01*
X91249000Y-105295000D02*
X91249000Y-103595000D01*
G75*
G02*
X91300000Y-103544000I51000J0D01*
G01*
X94800000Y-103544000D01*
G75*
G02*
X94851000Y-103595000I0J-51000D01*
G01*
X94851000Y-105295000D01*
G75*
G02*
X94800000Y-105346000I-51000J0D01*
G01*
X91300000Y-105346000D01*
G75*
G02*
X91249000Y-105295000I0J51000D01*
G01*
G37*
G36*
G01*
X91249000Y-74815000D02*
X91249000Y-73115000D01*
G75*
G02*
X91300000Y-73064000I51000J0D01*
G01*
X94800000Y-73064000D01*
G75*
G02*
X94851000Y-73115000I0J-51000D01*
G01*
X94851000Y-74815000D01*
G75*
G02*
X94800000Y-74866000I-51000J0D01*
G01*
X91300000Y-74866000D01*
G75*
G02*
X91249000Y-74815000I0J51000D01*
G01*
G37*
G36*
G01*
X91249000Y-100215000D02*
X91249000Y-98515000D01*
G75*
G02*
X91300000Y-98464000I51000J0D01*
G01*
X94800000Y-98464000D01*
G75*
G02*
X94851000Y-98515000I0J-51000D01*
G01*
X94851000Y-100215000D01*
G75*
G02*
X94800000Y-100266000I-51000J0D01*
G01*
X91300000Y-100266000D01*
G75*
G02*
X91249000Y-100215000I0J51000D01*
G01*
G37*
G36*
G01*
X91249000Y-95135000D02*
X91249000Y-93435000D01*
G75*
G02*
X91300000Y-93384000I51000J0D01*
G01*
X94800000Y-93384000D01*
G75*
G02*
X94851000Y-93435000I0J-51000D01*
G01*
X94851000Y-95135000D01*
G75*
G02*
X94800000Y-95186000I-51000J0D01*
G01*
X91300000Y-95186000D01*
G75*
G02*
X91249000Y-95135000I0J51000D01*
G01*
G37*
G36*
G01*
X91249000Y-90055000D02*
X91249000Y-88355000D01*
G75*
G02*
X91300000Y-88304000I51000J0D01*
G01*
X94800000Y-88304000D01*
G75*
G02*
X94851000Y-88355000I0J-51000D01*
G01*
X94851000Y-90055000D01*
G75*
G02*
X94800000Y-90106000I-51000J0D01*
G01*
X91300000Y-90106000D01*
G75*
G02*
X91249000Y-90055000I0J51000D01*
G01*
G37*
G36*
G01*
X91249000Y-87515000D02*
X91249000Y-85815000D01*
G75*
G02*
X91300000Y-85764000I51000J0D01*
G01*
X94800000Y-85764000D01*
G75*
G02*
X94851000Y-85815000I0J-51000D01*
G01*
X94851000Y-87515000D01*
G75*
G02*
X94800000Y-87566000I-51000J0D01*
G01*
X91300000Y-87566000D01*
G75*
G02*
X91249000Y-87515000I0J51000D01*
G01*
G37*
G36*
G01*
X91249000Y-72275000D02*
X91249000Y-70575000D01*
G75*
G02*
X91300000Y-70524000I51000J0D01*
G01*
X94800000Y-70524000D01*
G75*
G02*
X94851000Y-70575000I0J-51000D01*
G01*
X94851000Y-72275000D01*
G75*
G02*
X94800000Y-72326000I-51000J0D01*
G01*
X91300000Y-72326000D01*
G75*
G02*
X91249000Y-72275000I0J51000D01*
G01*
G37*
G36*
G01*
X91259000Y-79895000D02*
X91259000Y-78195000D01*
G75*
G02*
X91310000Y-78144000I51000J0D01*
G01*
X94810000Y-78144000D01*
G75*
G02*
X94861000Y-78195000I0J-51000D01*
G01*
X94861000Y-79895000D01*
G75*
G02*
X94810000Y-79946000I-51000J0D01*
G01*
X91310000Y-79946000D01*
G75*
G02*
X91259000Y-79895000I0J51000D01*
G01*
G37*
G36*
G01*
X91249000Y-69735000D02*
X91249000Y-68035000D01*
G75*
G02*
X91300000Y-67984000I51000J0D01*
G01*
X94800000Y-67984000D01*
G75*
G02*
X94851000Y-68035000I0J-51000D01*
G01*
X94851000Y-69735000D01*
G75*
G02*
X94800000Y-69786000I-51000J0D01*
G01*
X91300000Y-69786000D01*
G75*
G02*
X91249000Y-69735000I0J51000D01*
G01*
G37*
G36*
G01*
X91249000Y-62105000D02*
X91249000Y-60405000D01*
G75*
G02*
X91300000Y-60354000I51000J0D01*
G01*
X94800000Y-60354000D01*
G75*
G02*
X94851000Y-60405000I0J-51000D01*
G01*
X94851000Y-62105000D01*
G75*
G02*
X94800000Y-62156000I-51000J0D01*
G01*
X91300000Y-62156000D01*
G75*
G02*
X91249000Y-62105000I0J51000D01*
G01*
G37*
G36*
G01*
X91249000Y-67185000D02*
X91249000Y-65485000D01*
G75*
G02*
X91300000Y-65434000I51000J0D01*
G01*
X94800000Y-65434000D01*
G75*
G02*
X94851000Y-65485000I0J-51000D01*
G01*
X94851000Y-67185000D01*
G75*
G02*
X94800000Y-67236000I-51000J0D01*
G01*
X91300000Y-67236000D01*
G75*
G02*
X91249000Y-67185000I0J51000D01*
G01*
G37*
G36*
G01*
X91239000Y-92595000D02*
X91239000Y-90895000D01*
G75*
G02*
X91290000Y-90844000I51000J0D01*
G01*
X94790000Y-90844000D01*
G75*
G02*
X94841000Y-90895000I0J-51000D01*
G01*
X94841000Y-92595000D01*
G75*
G02*
X94790000Y-92646000I-51000J0D01*
G01*
X91290000Y-92646000D01*
G75*
G02*
X91239000Y-92595000I0J51000D01*
G01*
G37*
G36*
G01*
X91249000Y-97675000D02*
X91249000Y-95975000D01*
G75*
G02*
X91300000Y-95924000I51000J0D01*
G01*
X94800000Y-95924000D01*
G75*
G02*
X94851000Y-95975000I0J-51000D01*
G01*
X94851000Y-97675000D01*
G75*
G02*
X94800000Y-97726000I-51000J0D01*
G01*
X91300000Y-97726000D01*
G75*
G02*
X91249000Y-97675000I0J51000D01*
G01*
G37*
G36*
G01*
X91249000Y-82435000D02*
X91249000Y-80735000D01*
G75*
G02*
X91300000Y-80684000I51000J0D01*
G01*
X94800000Y-80684000D01*
G75*
G02*
X94851000Y-80735000I0J-51000D01*
G01*
X94851000Y-82435000D01*
G75*
G02*
X94800000Y-82486000I-51000J0D01*
G01*
X91300000Y-82486000D01*
G75*
G02*
X91249000Y-82435000I0J51000D01*
G01*
G37*
G36*
G01*
X91249000Y-77355000D02*
X91249000Y-75655000D01*
G75*
G02*
X91300000Y-75604000I51000J0D01*
G01*
X94800000Y-75604000D01*
G75*
G02*
X94851000Y-75655000I0J-51000D01*
G01*
X94851000Y-77355000D01*
G75*
G02*
X94800000Y-77406000I-51000J0D01*
G01*
X91300000Y-77406000D01*
G75*
G02*
X91249000Y-77355000I0J51000D01*
G01*
G37*
G36*
G01*
X91249000Y-107835000D02*
X91249000Y-106135000D01*
G75*
G02*
X91300000Y-106084000I51000J0D01*
G01*
X94800000Y-106084000D01*
G75*
G02*
X94851000Y-106135000I0J-51000D01*
G01*
X94851000Y-107835000D01*
G75*
G02*
X94800000Y-107886000I-51000J0D01*
G01*
X91300000Y-107886000D01*
G75*
G02*
X91249000Y-107835000I0J51000D01*
G01*
G37*
G36*
G01*
X91249000Y-84975000D02*
X91249000Y-83275000D01*
G75*
G02*
X91300000Y-83224000I51000J0D01*
G01*
X94800000Y-83224000D01*
G75*
G02*
X94851000Y-83275000I0J-51000D01*
G01*
X94851000Y-84975000D01*
G75*
G02*
X94800000Y-85026000I-51000J0D01*
G01*
X91300000Y-85026000D01*
G75*
G02*
X91249000Y-84975000I0J51000D01*
G01*
G37*
G36*
G01*
X91249000Y-64655000D02*
X91249000Y-62955000D01*
G75*
G02*
X91300000Y-62904000I51000J0D01*
G01*
X94800000Y-62904000D01*
G75*
G02*
X94851000Y-62955000I0J-51000D01*
G01*
X94851000Y-64655000D01*
G75*
G02*
X94800000Y-64706000I-51000J0D01*
G01*
X91300000Y-64706000D01*
G75*
G02*
X91249000Y-64655000I0J51000D01*
G01*
G37*
G36*
G01*
X91249000Y-102755000D02*
X91249000Y-101055000D01*
G75*
G02*
X91300000Y-101004000I51000J0D01*
G01*
X94800000Y-101004000D01*
G75*
G02*
X94851000Y-101055000I0J-51000D01*
G01*
X94851000Y-102755000D01*
G75*
G02*
X94800000Y-102806000I-51000J0D01*
G01*
X91300000Y-102806000D01*
G75*
G02*
X91249000Y-102755000I0J51000D01*
G01*
G37*
G36*
G01*
X91249000Y-59575000D02*
X91249000Y-57875000D01*
G75*
G02*
X91300000Y-57824000I51000J0D01*
G01*
X94800000Y-57824000D01*
G75*
G02*
X94851000Y-57875000I0J-51000D01*
G01*
X94851000Y-59575000D01*
G75*
G02*
X94800000Y-59626000I-51000J0D01*
G01*
X91300000Y-59626000D01*
G75*
G02*
X91249000Y-59575000I0J51000D01*
G01*
G37*
G36*
G01*
X99850000Y-77376000D02*
X98250000Y-77376000D01*
G75*
G02*
X98199000Y-77325000I0J51000D01*
G01*
X98199000Y-77125000D01*
G75*
G02*
X98250000Y-77074000I51000J0D01*
G01*
X99850000Y-77074000D01*
G75*
G02*
X99901000Y-77125000I0J-51000D01*
G01*
X99901000Y-77325000D01*
G75*
G02*
X99850000Y-77376000I-51000J0D01*
G01*
G37*
G36*
G01*
X98413000Y-76251000D02*
X98187000Y-76251000D01*
G75*
G02*
X98074000Y-76138000I0J113000D01*
G01*
X98074000Y-75737000D01*
G75*
G02*
X98187000Y-75624000I113000J0D01*
G01*
X98413000Y-75624000D01*
G75*
G02*
X98526000Y-75737000I0J-113000D01*
G01*
X98526000Y-76138000D01*
G75*
G02*
X98413000Y-76251000I-113000J0D01*
G01*
G37*
G36*
G01*
X98913000Y-76251000D02*
X98687000Y-76251000D01*
G75*
G02*
X98574000Y-76138000I0J113000D01*
G01*
X98574000Y-75737000D01*
G75*
G02*
X98687000Y-75624000I113000J0D01*
G01*
X98913000Y-75624000D01*
G75*
G02*
X99026000Y-75737000I0J-113000D01*
G01*
X99026000Y-76138000D01*
G75*
G02*
X98913000Y-76251000I-113000J0D01*
G01*
G37*
G36*
G01*
X99413000Y-76251000D02*
X99187000Y-76251000D01*
G75*
G02*
X99074000Y-76138000I0J113000D01*
G01*
X99074000Y-75737000D01*
G75*
G02*
X99187000Y-75624000I113000J0D01*
G01*
X99413000Y-75624000D01*
G75*
G02*
X99526000Y-75737000I0J-113000D01*
G01*
X99526000Y-76138000D01*
G75*
G02*
X99413000Y-76251000I-113000J0D01*
G01*
G37*
G36*
G01*
X99913000Y-76251000D02*
X99687000Y-76251000D01*
G75*
G02*
X99574000Y-76138000I0J113000D01*
G01*
X99574000Y-75737000D01*
G75*
G02*
X99687000Y-75624000I113000J0D01*
G01*
X99913000Y-75624000D01*
G75*
G02*
X100026000Y-75737000I0J-113000D01*
G01*
X100026000Y-76138000D01*
G75*
G02*
X99913000Y-76251000I-113000J0D01*
G01*
G37*
G36*
G01*
X99913000Y-78826000D02*
X99687000Y-78826000D01*
G75*
G02*
X99574000Y-78713000I0J113000D01*
G01*
X99574000Y-78312000D01*
G75*
G02*
X99687000Y-78199000I113000J0D01*
G01*
X99913000Y-78199000D01*
G75*
G02*
X100026000Y-78312000I0J-113000D01*
G01*
X100026000Y-78713000D01*
G75*
G02*
X99913000Y-78826000I-113000J0D01*
G01*
G37*
G36*
G01*
X99413000Y-78826000D02*
X99187000Y-78826000D01*
G75*
G02*
X99074000Y-78713000I0J113000D01*
G01*
X99074000Y-78312000D01*
G75*
G02*
X99187000Y-78199000I113000J0D01*
G01*
X99413000Y-78199000D01*
G75*
G02*
X99526000Y-78312000I0J-113000D01*
G01*
X99526000Y-78713000D01*
G75*
G02*
X99413000Y-78826000I-113000J0D01*
G01*
G37*
G36*
G01*
X98913000Y-78826000D02*
X98687000Y-78826000D01*
G75*
G02*
X98574000Y-78713000I0J113000D01*
G01*
X98574000Y-78312000D01*
G75*
G02*
X98687000Y-78199000I113000J0D01*
G01*
X98913000Y-78199000D01*
G75*
G02*
X99026000Y-78312000I0J-113000D01*
G01*
X99026000Y-78713000D01*
G75*
G02*
X98913000Y-78826000I-113000J0D01*
G01*
G37*
G36*
G01*
X98413000Y-78826000D02*
X98187000Y-78826000D01*
G75*
G02*
X98074000Y-78713000I0J113000D01*
G01*
X98074000Y-78312000D01*
G75*
G02*
X98187000Y-78199000I113000J0D01*
G01*
X98413000Y-78199000D01*
G75*
G02*
X98526000Y-78312000I0J-113000D01*
G01*
X98526000Y-78713000D01*
G75*
G02*
X98413000Y-78826000I-113000J0D01*
G01*
G37*
G36*
G01*
X100726000Y-63895000D02*
X100726000Y-65345000D01*
G75*
G02*
X100675000Y-65396000I-51000J0D01*
G01*
X100075000Y-65396000D01*
G75*
G02*
X100024000Y-65345000I0J51000D01*
G01*
X100024000Y-63895000D01*
G75*
G02*
X100075000Y-63844000I51000J0D01*
G01*
X100675000Y-63844000D01*
G75*
G02*
X100726000Y-63895000I0J-51000D01*
G01*
G37*
G36*
G01*
X107176000Y-63895000D02*
X107176000Y-65345000D01*
G75*
G02*
X107125000Y-65396000I-51000J0D01*
G01*
X106525000Y-65396000D01*
G75*
G02*
X106474000Y-65345000I0J51000D01*
G01*
X106474000Y-63895000D01*
G75*
G02*
X106525000Y-63844000I51000J0D01*
G01*
X107125000Y-63844000D01*
G75*
G02*
X107176000Y-63895000I0J-51000D01*
G01*
G37*
G36*
G01*
X101501000Y-63895000D02*
X101501000Y-65345000D01*
G75*
G02*
X101450000Y-65396000I-51000J0D01*
G01*
X100850000Y-65396000D01*
G75*
G02*
X100799000Y-65345000I0J51000D01*
G01*
X100799000Y-63895000D01*
G75*
G02*
X100850000Y-63844000I51000J0D01*
G01*
X101450000Y-63844000D01*
G75*
G02*
X101501000Y-63895000I0J-51000D01*
G01*
G37*
G36*
G01*
X106401000Y-63895000D02*
X106401000Y-65345000D01*
G75*
G02*
X106350000Y-65396000I-51000J0D01*
G01*
X105750000Y-65396000D01*
G75*
G02*
X105699000Y-65345000I0J51000D01*
G01*
X105699000Y-63895000D01*
G75*
G02*
X105750000Y-63844000I51000J0D01*
G01*
X106350000Y-63844000D01*
G75*
G02*
X106401000Y-63895000I0J-51000D01*
G01*
G37*
G36*
G01*
X105551000Y-63895000D02*
X105551000Y-65345000D01*
G75*
G02*
X105500000Y-65396000I-51000J0D01*
G01*
X105200000Y-65396000D01*
G75*
G02*
X105149000Y-65345000I0J51000D01*
G01*
X105149000Y-63895000D01*
G75*
G02*
X105200000Y-63844000I51000J0D01*
G01*
X105500000Y-63844000D01*
G75*
G02*
X105551000Y-63895000I0J-51000D01*
G01*
G37*
G36*
G01*
X102051000Y-63895000D02*
X102051000Y-65345000D01*
G75*
G02*
X102000000Y-65396000I-51000J0D01*
G01*
X101700000Y-65396000D01*
G75*
G02*
X101649000Y-65345000I0J51000D01*
G01*
X101649000Y-63895000D01*
G75*
G02*
X101700000Y-63844000I51000J0D01*
G01*
X102000000Y-63844000D01*
G75*
G02*
X102051000Y-63895000I0J-51000D01*
G01*
G37*
G36*
G01*
X105051000Y-63895000D02*
X105051000Y-65345000D01*
G75*
G02*
X105000000Y-65396000I-51000J0D01*
G01*
X104700000Y-65396000D01*
G75*
G02*
X104649000Y-65345000I0J51000D01*
G01*
X104649000Y-63895000D01*
G75*
G02*
X104700000Y-63844000I51000J0D01*
G01*
X105000000Y-63844000D01*
G75*
G02*
X105051000Y-63895000I0J-51000D01*
G01*
G37*
G36*
G01*
X102551000Y-63895000D02*
X102551000Y-65345000D01*
G75*
G02*
X102500000Y-65396000I-51000J0D01*
G01*
X102200000Y-65396000D01*
G75*
G02*
X102149000Y-65345000I0J51000D01*
G01*
X102149000Y-63895000D01*
G75*
G02*
X102200000Y-63844000I51000J0D01*
G01*
X102500000Y-63844000D01*
G75*
G02*
X102551000Y-63895000I0J-51000D01*
G01*
G37*
G36*
G01*
X104551000Y-63895000D02*
X104551000Y-65345000D01*
G75*
G02*
X104500000Y-65396000I-51000J0D01*
G01*
X104200000Y-65396000D01*
G75*
G02*
X104149000Y-65345000I0J51000D01*
G01*
X104149000Y-63895000D01*
G75*
G02*
X104200000Y-63844000I51000J0D01*
G01*
X104500000Y-63844000D01*
G75*
G02*
X104551000Y-63895000I0J-51000D01*
G01*
G37*
G36*
G01*
X103051000Y-63895000D02*
X103051000Y-65345000D01*
G75*
G02*
X103000000Y-65396000I-51000J0D01*
G01*
X102700000Y-65396000D01*
G75*
G02*
X102649000Y-65345000I0J51000D01*
G01*
X102649000Y-63895000D01*
G75*
G02*
X102700000Y-63844000I51000J0D01*
G01*
X103000000Y-63844000D01*
G75*
G02*
X103051000Y-63895000I0J-51000D01*
G01*
G37*
G36*
G01*
X103551000Y-63895000D02*
X103551000Y-65345000D01*
G75*
G02*
X103500000Y-65396000I-51000J0D01*
G01*
X103200000Y-65396000D01*
G75*
G02*
X103149000Y-65345000I0J51000D01*
G01*
X103149000Y-63895000D01*
G75*
G02*
X103200000Y-63844000I51000J0D01*
G01*
X103500000Y-63844000D01*
G75*
G02*
X103551000Y-63895000I0J-51000D01*
G01*
G37*
G36*
G01*
X104051000Y-63895000D02*
X104051000Y-65345000D01*
G75*
G02*
X104000000Y-65396000I-51000J0D01*
G01*
X103700000Y-65396000D01*
G75*
G02*
X103649000Y-65345000I0J51000D01*
G01*
X103649000Y-63895000D01*
G75*
G02*
X103700000Y-63844000I51000J0D01*
G01*
X104000000Y-63844000D01*
G75*
G02*
X104051000Y-63895000I0J-51000D01*
G01*
G37*
D12*
X100710000Y-63175000D03*
X106490000Y-63175000D03*
G36*
G01*
X101669000Y-68415500D02*
X101669000Y-67994500D01*
G75*
G02*
X101829500Y-67834000I160500J0D01*
G01*
X102150500Y-67834000D01*
G75*
G02*
X102311000Y-67994500I0J-160500D01*
G01*
X102311000Y-68415500D01*
G75*
G02*
X102150500Y-68576000I-160500J0D01*
G01*
X101829500Y-68576000D01*
G75*
G02*
X101669000Y-68415500I0J160500D01*
G01*
G37*
G36*
G01*
X100649000Y-68415500D02*
X100649000Y-67994500D01*
G75*
G02*
X100809500Y-67834000I160500J0D01*
G01*
X101130500Y-67834000D01*
G75*
G02*
X101291000Y-67994500I0J-160500D01*
G01*
X101291000Y-68415500D01*
G75*
G02*
X101130500Y-68576000I-160500J0D01*
G01*
X100809500Y-68576000D01*
G75*
G02*
X100649000Y-68415500I0J160500D01*
G01*
G37*
G36*
G01*
X101669000Y-67375500D02*
X101669000Y-66954500D01*
G75*
G02*
X101829500Y-66794000I160500J0D01*
G01*
X102150500Y-66794000D01*
G75*
G02*
X102311000Y-66954500I0J-160500D01*
G01*
X102311000Y-67375500D01*
G75*
G02*
X102150500Y-67536000I-160500J0D01*
G01*
X101829500Y-67536000D01*
G75*
G02*
X101669000Y-67375500I0J160500D01*
G01*
G37*
G36*
G01*
X100649000Y-67375500D02*
X100649000Y-66954500D01*
G75*
G02*
X100809500Y-66794000I160500J0D01*
G01*
X101130500Y-66794000D01*
G75*
G02*
X101291000Y-66954500I0J-160500D01*
G01*
X101291000Y-67375500D01*
G75*
G02*
X101130500Y-67536000I-160500J0D01*
G01*
X100809500Y-67536000D01*
G75*
G02*
X100649000Y-67375500I0J160500D01*
G01*
G37*
G36*
G01*
X99680000Y-67091000D02*
X97980000Y-67091000D01*
G75*
G02*
X97929000Y-67040000I0J51000D01*
G01*
X97929000Y-66140000D01*
G75*
G02*
X97980000Y-66089000I51000J0D01*
G01*
X99680000Y-66089000D01*
G75*
G02*
X99731000Y-66140000I0J-51000D01*
G01*
X99731000Y-67040000D01*
G75*
G02*
X99680000Y-67091000I-51000J0D01*
G01*
G37*
G36*
G01*
X99680000Y-70491000D02*
X97980000Y-70491000D01*
G75*
G02*
X97929000Y-70440000I0J51000D01*
G01*
X97929000Y-69540000D01*
G75*
G02*
X97980000Y-69489000I51000J0D01*
G01*
X99680000Y-69489000D01*
G75*
G02*
X99731000Y-69540000I0J-51000D01*
G01*
X99731000Y-70440000D01*
G75*
G02*
X99680000Y-70491000I-51000J0D01*
G01*
G37*
G36*
G01*
X99026000Y-72004500D02*
X99026000Y-72395500D01*
G75*
G02*
X98860500Y-72561000I-165500J0D01*
G01*
X98529500Y-72561000D01*
G75*
G02*
X98364000Y-72395500I0J165500D01*
G01*
X98364000Y-72004500D01*
G75*
G02*
X98529500Y-71839000I165500J0D01*
G01*
X98860500Y-71839000D01*
G75*
G02*
X99026000Y-72004500I0J-165500D01*
G01*
G37*
G36*
G01*
X99986000Y-72004500D02*
X99986000Y-72395500D01*
G75*
G02*
X99820500Y-72561000I-165500J0D01*
G01*
X99489500Y-72561000D01*
G75*
G02*
X99324000Y-72395500I0J165500D01*
G01*
X99324000Y-72004500D01*
G75*
G02*
X99489500Y-71839000I165500J0D01*
G01*
X99820500Y-71839000D01*
G75*
G02*
X99986000Y-72004500I0J-165500D01*
G01*
G37*
G36*
G01*
X97674000Y-95925000D02*
X97674000Y-94775000D01*
G75*
G02*
X97725000Y-94724000I51000J0D01*
G01*
X99125000Y-94724000D01*
G75*
G02*
X99176000Y-94775000I0J-51000D01*
G01*
X99176000Y-95925000D01*
G75*
G02*
X99125000Y-95976000I-51000J0D01*
G01*
X97725000Y-95976000D01*
G75*
G02*
X97674000Y-95925000I0J51000D01*
G01*
G37*
G36*
G01*
X99874000Y-95925000D02*
X99874000Y-94775000D01*
G75*
G02*
X99925000Y-94724000I51000J0D01*
G01*
X101325000Y-94724000D01*
G75*
G02*
X101376000Y-94775000I0J-51000D01*
G01*
X101376000Y-95925000D01*
G75*
G02*
X101325000Y-95976000I-51000J0D01*
G01*
X99925000Y-95976000D01*
G75*
G02*
X99874000Y-95925000I0J51000D01*
G01*
G37*
G36*
G01*
X99874000Y-97525000D02*
X99874000Y-96375000D01*
G75*
G02*
X99925000Y-96324000I51000J0D01*
G01*
X101325000Y-96324000D01*
G75*
G02*
X101376000Y-96375000I0J-51000D01*
G01*
X101376000Y-97525000D01*
G75*
G02*
X101325000Y-97576000I-51000J0D01*
G01*
X99925000Y-97576000D01*
G75*
G02*
X99874000Y-97525000I0J51000D01*
G01*
G37*
G36*
G01*
X97674000Y-97525000D02*
X97674000Y-96375000D01*
G75*
G02*
X97725000Y-96324000I51000J0D01*
G01*
X99125000Y-96324000D01*
G75*
G02*
X99176000Y-96375000I0J-51000D01*
G01*
X99176000Y-97525000D01*
G75*
G02*
X99125000Y-97576000I-51000J0D01*
G01*
X97725000Y-97576000D01*
G75*
G02*
X97674000Y-97525000I0J51000D01*
G01*
G37*
D13*
X110100000Y-58925000D03*
X97350000Y-58925000D03*
X109400000Y-106825000D03*
X98000000Y-106825000D03*
G36*
G01*
X97741000Y-87389500D02*
X97741000Y-87780500D01*
G75*
G02*
X97575500Y-87946000I-165500J0D01*
G01*
X97244500Y-87946000D01*
G75*
G02*
X97079000Y-87780500I0J165500D01*
G01*
X97079000Y-87389500D01*
G75*
G02*
X97244500Y-87224000I165500J0D01*
G01*
X97575500Y-87224000D01*
G75*
G02*
X97741000Y-87389500I0J-165500D01*
G01*
G37*
G36*
G01*
X98701000Y-87389500D02*
X98701000Y-87780500D01*
G75*
G02*
X98535500Y-87946000I-165500J0D01*
G01*
X98204500Y-87946000D01*
G75*
G02*
X98039000Y-87780500I0J165500D01*
G01*
X98039000Y-87389500D01*
G75*
G02*
X98204500Y-87224000I165500J0D01*
G01*
X98535500Y-87224000D01*
G75*
G02*
X98701000Y-87389500I0J-165500D01*
G01*
G37*
G36*
G01*
X98899000Y-94095500D02*
X98899000Y-93704500D01*
G75*
G02*
X99064500Y-93539000I165500J0D01*
G01*
X99395500Y-93539000D01*
G75*
G02*
X99561000Y-93704500I0J-165500D01*
G01*
X99561000Y-94095500D01*
G75*
G02*
X99395500Y-94261000I-165500J0D01*
G01*
X99064500Y-94261000D01*
G75*
G02*
X98899000Y-94095500I0J165500D01*
G01*
G37*
G36*
G01*
X97939000Y-94095500D02*
X97939000Y-93704500D01*
G75*
G02*
X98104500Y-93539000I165500J0D01*
G01*
X98435500Y-93539000D01*
G75*
G02*
X98601000Y-93704500I0J-165500D01*
G01*
X98601000Y-94095500D01*
G75*
G02*
X98435500Y-94261000I-165500J0D01*
G01*
X98104500Y-94261000D01*
G75*
G02*
X97939000Y-94095500I0J165500D01*
G01*
G37*
G36*
G01*
X108428500Y-79648000D02*
X108037500Y-79648000D01*
G75*
G02*
X107872000Y-79482500I0J165500D01*
G01*
X107872000Y-79151500D01*
G75*
G02*
X108037500Y-78986000I165500J0D01*
G01*
X108428500Y-78986000D01*
G75*
G02*
X108594000Y-79151500I0J-165500D01*
G01*
X108594000Y-79482500D01*
G75*
G02*
X108428500Y-79648000I-165500J0D01*
G01*
G37*
G36*
G01*
X108428500Y-80608000D02*
X108037500Y-80608000D01*
G75*
G02*
X107872000Y-80442500I0J165500D01*
G01*
X107872000Y-80111500D01*
G75*
G02*
X108037500Y-79946000I165500J0D01*
G01*
X108428500Y-79946000D01*
G75*
G02*
X108594000Y-80111500I0J-165500D01*
G01*
X108594000Y-80442500D01*
G75*
G02*
X108428500Y-80608000I-165500J0D01*
G01*
G37*
G36*
G01*
X103554500Y-92324000D02*
X103945500Y-92324000D01*
G75*
G02*
X104111000Y-92489500I0J-165500D01*
G01*
X104111000Y-92820500D01*
G75*
G02*
X103945500Y-92986000I-165500J0D01*
G01*
X103554500Y-92986000D01*
G75*
G02*
X103389000Y-92820500I0J165500D01*
G01*
X103389000Y-92489500D01*
G75*
G02*
X103554500Y-92324000I165500J0D01*
G01*
G37*
G36*
G01*
X103554500Y-91364000D02*
X103945500Y-91364000D01*
G75*
G02*
X104111000Y-91529500I0J-165500D01*
G01*
X104111000Y-91860500D01*
G75*
G02*
X103945500Y-92026000I-165500J0D01*
G01*
X103554500Y-92026000D01*
G75*
G02*
X103389000Y-91860500I0J165500D01*
G01*
X103389000Y-91529500D01*
G75*
G02*
X103554500Y-91364000I165500J0D01*
G01*
G37*
G36*
G01*
X108949000Y-87220500D02*
X108949000Y-86829500D01*
G75*
G02*
X109114500Y-86664000I165500J0D01*
G01*
X109445500Y-86664000D01*
G75*
G02*
X109611000Y-86829500I0J-165500D01*
G01*
X109611000Y-87220500D01*
G75*
G02*
X109445500Y-87386000I-165500J0D01*
G01*
X109114500Y-87386000D01*
G75*
G02*
X108949000Y-87220500I0J165500D01*
G01*
G37*
G36*
G01*
X107989000Y-87220500D02*
X107989000Y-86829500D01*
G75*
G02*
X108154500Y-86664000I165500J0D01*
G01*
X108485500Y-86664000D01*
G75*
G02*
X108651000Y-86829500I0J-165500D01*
G01*
X108651000Y-87220500D01*
G75*
G02*
X108485500Y-87386000I-165500J0D01*
G01*
X108154500Y-87386000D01*
G75*
G02*
X107989000Y-87220500I0J165500D01*
G01*
G37*
G36*
G01*
X104204500Y-79949000D02*
X104595500Y-79949000D01*
G75*
G02*
X104761000Y-80114500I0J-165500D01*
G01*
X104761000Y-80445500D01*
G75*
G02*
X104595500Y-80611000I-165500J0D01*
G01*
X104204500Y-80611000D01*
G75*
G02*
X104039000Y-80445500I0J165500D01*
G01*
X104039000Y-80114500D01*
G75*
G02*
X104204500Y-79949000I165500J0D01*
G01*
G37*
G36*
G01*
X104204500Y-78989000D02*
X104595500Y-78989000D01*
G75*
G02*
X104761000Y-79154500I0J-165500D01*
G01*
X104761000Y-79485500D01*
G75*
G02*
X104595500Y-79651000I-165500J0D01*
G01*
X104204500Y-79651000D01*
G75*
G02*
X104039000Y-79485500I0J165500D01*
G01*
X104039000Y-79154500D01*
G75*
G02*
X104204500Y-78989000I165500J0D01*
G01*
G37*
G36*
G01*
X97971000Y-71034500D02*
X97971000Y-71425500D01*
G75*
G02*
X97805500Y-71591000I-165500J0D01*
G01*
X97474500Y-71591000D01*
G75*
G02*
X97309000Y-71425500I0J165500D01*
G01*
X97309000Y-71034500D01*
G75*
G02*
X97474500Y-70869000I165500J0D01*
G01*
X97805500Y-70869000D01*
G75*
G02*
X97971000Y-71034500I0J-165500D01*
G01*
G37*
G36*
G01*
X98931000Y-71034500D02*
X98931000Y-71425500D01*
G75*
G02*
X98765500Y-71591000I-165500J0D01*
G01*
X98434500Y-71591000D01*
G75*
G02*
X98269000Y-71425500I0J165500D01*
G01*
X98269000Y-71034500D01*
G75*
G02*
X98434500Y-70869000I165500J0D01*
G01*
X98765500Y-70869000D01*
G75*
G02*
X98931000Y-71034500I0J-165500D01*
G01*
G37*
G36*
G01*
X98451000Y-82454500D02*
X98451000Y-82845500D01*
G75*
G02*
X98285500Y-83011000I-165500J0D01*
G01*
X97954500Y-83011000D01*
G75*
G02*
X97789000Y-82845500I0J165500D01*
G01*
X97789000Y-82454500D01*
G75*
G02*
X97954500Y-82289000I165500J0D01*
G01*
X98285500Y-82289000D01*
G75*
G02*
X98451000Y-82454500I0J-165500D01*
G01*
G37*
G36*
G01*
X99411000Y-82454500D02*
X99411000Y-82845500D01*
G75*
G02*
X99245500Y-83011000I-165500J0D01*
G01*
X98914500Y-83011000D01*
G75*
G02*
X98749000Y-82845500I0J165500D01*
G01*
X98749000Y-82454500D01*
G75*
G02*
X98914500Y-82289000I165500J0D01*
G01*
X99245500Y-82289000D01*
G75*
G02*
X99411000Y-82454500I0J-165500D01*
G01*
G37*
G36*
G01*
X104804500Y-92324000D02*
X105195500Y-92324000D01*
G75*
G02*
X105361000Y-92489500I0J-165500D01*
G01*
X105361000Y-92820500D01*
G75*
G02*
X105195500Y-92986000I-165500J0D01*
G01*
X104804500Y-92986000D01*
G75*
G02*
X104639000Y-92820500I0J165500D01*
G01*
X104639000Y-92489500D01*
G75*
G02*
X104804500Y-92324000I165500J0D01*
G01*
G37*
G36*
G01*
X104804500Y-91364000D02*
X105195500Y-91364000D01*
G75*
G02*
X105361000Y-91529500I0J-165500D01*
G01*
X105361000Y-91860500D01*
G75*
G02*
X105195500Y-92026000I-165500J0D01*
G01*
X104804500Y-92026000D01*
G75*
G02*
X104639000Y-91860500I0J165500D01*
G01*
X104639000Y-91529500D01*
G75*
G02*
X104804500Y-91364000I165500J0D01*
G01*
G37*
G36*
G01*
X100751000Y-93704500D02*
X100751000Y-94095500D01*
G75*
G02*
X100585500Y-94261000I-165500J0D01*
G01*
X100254500Y-94261000D01*
G75*
G02*
X100089000Y-94095500I0J165500D01*
G01*
X100089000Y-93704500D01*
G75*
G02*
X100254500Y-93539000I165500J0D01*
G01*
X100585500Y-93539000D01*
G75*
G02*
X100751000Y-93704500I0J-165500D01*
G01*
G37*
G36*
G01*
X101711000Y-93704500D02*
X101711000Y-94095500D01*
G75*
G02*
X101545500Y-94261000I-165500J0D01*
G01*
X101214500Y-94261000D01*
G75*
G02*
X101049000Y-94095500I0J165500D01*
G01*
X101049000Y-93704500D01*
G75*
G02*
X101214500Y-93539000I165500J0D01*
G01*
X101545500Y-93539000D01*
G75*
G02*
X101711000Y-93704500I0J-165500D01*
G01*
G37*
G36*
G01*
X110395500Y-65296000D02*
X110004500Y-65296000D01*
G75*
G02*
X109839000Y-65130500I0J165500D01*
G01*
X109839000Y-64799500D01*
G75*
G02*
X110004500Y-64634000I165500J0D01*
G01*
X110395500Y-64634000D01*
G75*
G02*
X110561000Y-64799500I0J-165500D01*
G01*
X110561000Y-65130500D01*
G75*
G02*
X110395500Y-65296000I-165500J0D01*
G01*
G37*
G36*
G01*
X110395500Y-66256000D02*
X110004500Y-66256000D01*
G75*
G02*
X109839000Y-66090500I0J165500D01*
G01*
X109839000Y-65759500D01*
G75*
G02*
X110004500Y-65594000I165500J0D01*
G01*
X110395500Y-65594000D01*
G75*
G02*
X110561000Y-65759500I0J-165500D01*
G01*
X110561000Y-66090500D01*
G75*
G02*
X110395500Y-66256000I-165500J0D01*
G01*
G37*
G36*
G01*
X109011000Y-85214500D02*
X109011000Y-85635500D01*
G75*
G02*
X108850500Y-85796000I-160500J0D01*
G01*
X108529500Y-85796000D01*
G75*
G02*
X108369000Y-85635500I0J160500D01*
G01*
X108369000Y-85214500D01*
G75*
G02*
X108529500Y-85054000I160500J0D01*
G01*
X108850500Y-85054000D01*
G75*
G02*
X109011000Y-85214500I0J-160500D01*
G01*
G37*
G36*
G01*
X110031000Y-85214500D02*
X110031000Y-85635500D01*
G75*
G02*
X109870500Y-85796000I-160500J0D01*
G01*
X109549500Y-85796000D01*
G75*
G02*
X109389000Y-85635500I0J160500D01*
G01*
X109389000Y-85214500D01*
G75*
G02*
X109549500Y-85054000I160500J0D01*
G01*
X109870500Y-85054000D01*
G75*
G02*
X110031000Y-85214500I0J-160500D01*
G01*
G37*
G36*
G01*
X97702000Y-63189000D02*
X98098000Y-63189000D01*
G75*
G02*
X98271000Y-63362000I0J-173000D01*
G01*
X98271000Y-63708000D01*
G75*
G02*
X98098000Y-63881000I-173000J0D01*
G01*
X97702000Y-63881000D01*
G75*
G02*
X97529000Y-63708000I0J173000D01*
G01*
X97529000Y-63362000D01*
G75*
G02*
X97702000Y-63189000I173000J0D01*
G01*
G37*
G36*
G01*
X97702000Y-62219000D02*
X98098000Y-62219000D01*
G75*
G02*
X98271000Y-62392000I0J-173000D01*
G01*
X98271000Y-62738000D01*
G75*
G02*
X98098000Y-62911000I-173000J0D01*
G01*
X97702000Y-62911000D01*
G75*
G02*
X97529000Y-62738000I0J173000D01*
G01*
X97529000Y-62392000D01*
G75*
G02*
X97702000Y-62219000I173000J0D01*
G01*
G37*
G36*
G01*
X100939000Y-83000500D02*
X100939000Y-82174500D01*
G75*
G02*
X101014500Y-82099000I75500J0D01*
G01*
X101165500Y-82099000D01*
G75*
G02*
X101241000Y-82174500I0J-75500D01*
G01*
X101241000Y-83000500D01*
G75*
G02*
X101165500Y-83076000I-75500J0D01*
G01*
X101014500Y-83076000D01*
G75*
G02*
X100939000Y-83000500I0J75500D01*
G01*
G37*
G36*
G01*
X101339000Y-83000500D02*
X101339000Y-82174500D01*
G75*
G02*
X101414500Y-82099000I75500J0D01*
G01*
X101565500Y-82099000D01*
G75*
G02*
X101641000Y-82174500I0J-75500D01*
G01*
X101641000Y-83000500D01*
G75*
G02*
X101565500Y-83076000I-75500J0D01*
G01*
X101414500Y-83076000D01*
G75*
G02*
X101339000Y-83000500I0J75500D01*
G01*
G37*
G36*
G01*
X101739000Y-83000500D02*
X101739000Y-82174500D01*
G75*
G02*
X101814500Y-82099000I75500J0D01*
G01*
X101965500Y-82099000D01*
G75*
G02*
X102041000Y-82174500I0J-75500D01*
G01*
X102041000Y-83000500D01*
G75*
G02*
X101965500Y-83076000I-75500J0D01*
G01*
X101814500Y-83076000D01*
G75*
G02*
X101739000Y-83000500I0J75500D01*
G01*
G37*
G36*
G01*
X102139000Y-83000500D02*
X102139000Y-82174500D01*
G75*
G02*
X102214500Y-82099000I75500J0D01*
G01*
X102365500Y-82099000D01*
G75*
G02*
X102441000Y-82174500I0J-75500D01*
G01*
X102441000Y-83000500D01*
G75*
G02*
X102365500Y-83076000I-75500J0D01*
G01*
X102214500Y-83076000D01*
G75*
G02*
X102139000Y-83000500I0J75500D01*
G01*
G37*
G36*
G01*
X102539000Y-83000500D02*
X102539000Y-82174500D01*
G75*
G02*
X102614500Y-82099000I75500J0D01*
G01*
X102765500Y-82099000D01*
G75*
G02*
X102841000Y-82174500I0J-75500D01*
G01*
X102841000Y-83000500D01*
G75*
G02*
X102765500Y-83076000I-75500J0D01*
G01*
X102614500Y-83076000D01*
G75*
G02*
X102539000Y-83000500I0J75500D01*
G01*
G37*
G36*
G01*
X102939000Y-83000500D02*
X102939000Y-82174500D01*
G75*
G02*
X103014500Y-82099000I75500J0D01*
G01*
X103165500Y-82099000D01*
G75*
G02*
X103241000Y-82174500I0J-75500D01*
G01*
X103241000Y-83000500D01*
G75*
G02*
X103165500Y-83076000I-75500J0D01*
G01*
X103014500Y-83076000D01*
G75*
G02*
X102939000Y-83000500I0J75500D01*
G01*
G37*
G36*
G01*
X103339000Y-83000500D02*
X103339000Y-82174500D01*
G75*
G02*
X103414500Y-82099000I75500J0D01*
G01*
X103565500Y-82099000D01*
G75*
G02*
X103641000Y-82174500I0J-75500D01*
G01*
X103641000Y-83000500D01*
G75*
G02*
X103565500Y-83076000I-75500J0D01*
G01*
X103414500Y-83076000D01*
G75*
G02*
X103339000Y-83000500I0J75500D01*
G01*
G37*
G36*
G01*
X103739000Y-83000500D02*
X103739000Y-82174500D01*
G75*
G02*
X103814500Y-82099000I75500J0D01*
G01*
X103965500Y-82099000D01*
G75*
G02*
X104041000Y-82174500I0J-75500D01*
G01*
X104041000Y-83000500D01*
G75*
G02*
X103965500Y-83076000I-75500J0D01*
G01*
X103814500Y-83076000D01*
G75*
G02*
X103739000Y-83000500I0J75500D01*
G01*
G37*
G36*
G01*
X104139000Y-83000500D02*
X104139000Y-82174500D01*
G75*
G02*
X104214500Y-82099000I75500J0D01*
G01*
X104365500Y-82099000D01*
G75*
G02*
X104441000Y-82174500I0J-75500D01*
G01*
X104441000Y-83000500D01*
G75*
G02*
X104365500Y-83076000I-75500J0D01*
G01*
X104214500Y-83076000D01*
G75*
G02*
X104139000Y-83000500I0J75500D01*
G01*
G37*
G36*
G01*
X104539000Y-83000500D02*
X104539000Y-82174500D01*
G75*
G02*
X104614500Y-82099000I75500J0D01*
G01*
X104765500Y-82099000D01*
G75*
G02*
X104841000Y-82174500I0J-75500D01*
G01*
X104841000Y-83000500D01*
G75*
G02*
X104765500Y-83076000I-75500J0D01*
G01*
X104614500Y-83076000D01*
G75*
G02*
X104539000Y-83000500I0J75500D01*
G01*
G37*
G36*
G01*
X104939000Y-83000500D02*
X104939000Y-82174500D01*
G75*
G02*
X105014500Y-82099000I75500J0D01*
G01*
X105165500Y-82099000D01*
G75*
G02*
X105241000Y-82174500I0J-75500D01*
G01*
X105241000Y-83000500D01*
G75*
G02*
X105165500Y-83076000I-75500J0D01*
G01*
X105014500Y-83076000D01*
G75*
G02*
X104939000Y-83000500I0J75500D01*
G01*
G37*
G36*
G01*
X105339000Y-83000500D02*
X105339000Y-82174500D01*
G75*
G02*
X105414500Y-82099000I75500J0D01*
G01*
X105565500Y-82099000D01*
G75*
G02*
X105641000Y-82174500I0J-75500D01*
G01*
X105641000Y-83000500D01*
G75*
G02*
X105565500Y-83076000I-75500J0D01*
G01*
X105414500Y-83076000D01*
G75*
G02*
X105339000Y-83000500I0J75500D01*
G01*
G37*
G36*
G01*
X105739000Y-83000500D02*
X105739000Y-82174500D01*
G75*
G02*
X105814500Y-82099000I75500J0D01*
G01*
X105965500Y-82099000D01*
G75*
G02*
X106041000Y-82174500I0J-75500D01*
G01*
X106041000Y-83000500D01*
G75*
G02*
X105965500Y-83076000I-75500J0D01*
G01*
X105814500Y-83076000D01*
G75*
G02*
X105739000Y-83000500I0J75500D01*
G01*
G37*
G36*
G01*
X106139000Y-83000500D02*
X106139000Y-82174500D01*
G75*
G02*
X106214500Y-82099000I75500J0D01*
G01*
X106365500Y-82099000D01*
G75*
G02*
X106441000Y-82174500I0J-75500D01*
G01*
X106441000Y-83000500D01*
G75*
G02*
X106365500Y-83076000I-75500J0D01*
G01*
X106214500Y-83076000D01*
G75*
G02*
X106139000Y-83000500I0J75500D01*
G01*
G37*
G36*
G01*
X106639000Y-83500500D02*
X106639000Y-83349500D01*
G75*
G02*
X106714500Y-83274000I75500J0D01*
G01*
X107540500Y-83274000D01*
G75*
G02*
X107616000Y-83349500I0J-75500D01*
G01*
X107616000Y-83500500D01*
G75*
G02*
X107540500Y-83576000I-75500J0D01*
G01*
X106714500Y-83576000D01*
G75*
G02*
X106639000Y-83500500I0J75500D01*
G01*
G37*
G36*
G01*
X106639000Y-83900500D02*
X106639000Y-83749500D01*
G75*
G02*
X106714500Y-83674000I75500J0D01*
G01*
X107540500Y-83674000D01*
G75*
G02*
X107616000Y-83749500I0J-75500D01*
G01*
X107616000Y-83900500D01*
G75*
G02*
X107540500Y-83976000I-75500J0D01*
G01*
X106714500Y-83976000D01*
G75*
G02*
X106639000Y-83900500I0J75500D01*
G01*
G37*
G36*
G01*
X106639000Y-84300500D02*
X106639000Y-84149500D01*
G75*
G02*
X106714500Y-84074000I75500J0D01*
G01*
X107540500Y-84074000D01*
G75*
G02*
X107616000Y-84149500I0J-75500D01*
G01*
X107616000Y-84300500D01*
G75*
G02*
X107540500Y-84376000I-75500J0D01*
G01*
X106714500Y-84376000D01*
G75*
G02*
X106639000Y-84300500I0J75500D01*
G01*
G37*
G36*
G01*
X106639000Y-84700500D02*
X106639000Y-84549500D01*
G75*
G02*
X106714500Y-84474000I75500J0D01*
G01*
X107540500Y-84474000D01*
G75*
G02*
X107616000Y-84549500I0J-75500D01*
G01*
X107616000Y-84700500D01*
G75*
G02*
X107540500Y-84776000I-75500J0D01*
G01*
X106714500Y-84776000D01*
G75*
G02*
X106639000Y-84700500I0J75500D01*
G01*
G37*
G36*
G01*
X106639000Y-85100500D02*
X106639000Y-84949500D01*
G75*
G02*
X106714500Y-84874000I75500J0D01*
G01*
X107540500Y-84874000D01*
G75*
G02*
X107616000Y-84949500I0J-75500D01*
G01*
X107616000Y-85100500D01*
G75*
G02*
X107540500Y-85176000I-75500J0D01*
G01*
X106714500Y-85176000D01*
G75*
G02*
X106639000Y-85100500I0J75500D01*
G01*
G37*
G36*
G01*
X106639000Y-85500500D02*
X106639000Y-85349500D01*
G75*
G02*
X106714500Y-85274000I75500J0D01*
G01*
X107540500Y-85274000D01*
G75*
G02*
X107616000Y-85349500I0J-75500D01*
G01*
X107616000Y-85500500D01*
G75*
G02*
X107540500Y-85576000I-75500J0D01*
G01*
X106714500Y-85576000D01*
G75*
G02*
X106639000Y-85500500I0J75500D01*
G01*
G37*
G36*
G01*
X106639000Y-85900500D02*
X106639000Y-85749500D01*
G75*
G02*
X106714500Y-85674000I75500J0D01*
G01*
X107540500Y-85674000D01*
G75*
G02*
X107616000Y-85749500I0J-75500D01*
G01*
X107616000Y-85900500D01*
G75*
G02*
X107540500Y-85976000I-75500J0D01*
G01*
X106714500Y-85976000D01*
G75*
G02*
X106639000Y-85900500I0J75500D01*
G01*
G37*
G36*
G01*
X106639000Y-86300500D02*
X106639000Y-86149500D01*
G75*
G02*
X106714500Y-86074000I75500J0D01*
G01*
X107540500Y-86074000D01*
G75*
G02*
X107616000Y-86149500I0J-75500D01*
G01*
X107616000Y-86300500D01*
G75*
G02*
X107540500Y-86376000I-75500J0D01*
G01*
X106714500Y-86376000D01*
G75*
G02*
X106639000Y-86300500I0J75500D01*
G01*
G37*
G36*
G01*
X106639000Y-86700500D02*
X106639000Y-86549500D01*
G75*
G02*
X106714500Y-86474000I75500J0D01*
G01*
X107540500Y-86474000D01*
G75*
G02*
X107616000Y-86549500I0J-75500D01*
G01*
X107616000Y-86700500D01*
G75*
G02*
X107540500Y-86776000I-75500J0D01*
G01*
X106714500Y-86776000D01*
G75*
G02*
X106639000Y-86700500I0J75500D01*
G01*
G37*
G36*
G01*
X106639000Y-87100500D02*
X106639000Y-86949500D01*
G75*
G02*
X106714500Y-86874000I75500J0D01*
G01*
X107540500Y-86874000D01*
G75*
G02*
X107616000Y-86949500I0J-75500D01*
G01*
X107616000Y-87100500D01*
G75*
G02*
X107540500Y-87176000I-75500J0D01*
G01*
X106714500Y-87176000D01*
G75*
G02*
X106639000Y-87100500I0J75500D01*
G01*
G37*
G36*
G01*
X106639000Y-87500500D02*
X106639000Y-87349500D01*
G75*
G02*
X106714500Y-87274000I75500J0D01*
G01*
X107540500Y-87274000D01*
G75*
G02*
X107616000Y-87349500I0J-75500D01*
G01*
X107616000Y-87500500D01*
G75*
G02*
X107540500Y-87576000I-75500J0D01*
G01*
X106714500Y-87576000D01*
G75*
G02*
X106639000Y-87500500I0J75500D01*
G01*
G37*
G36*
G01*
X106639000Y-87900500D02*
X106639000Y-87749500D01*
G75*
G02*
X106714500Y-87674000I75500J0D01*
G01*
X107540500Y-87674000D01*
G75*
G02*
X107616000Y-87749500I0J-75500D01*
G01*
X107616000Y-87900500D01*
G75*
G02*
X107540500Y-87976000I-75500J0D01*
G01*
X106714500Y-87976000D01*
G75*
G02*
X106639000Y-87900500I0J75500D01*
G01*
G37*
G36*
G01*
X106639000Y-88300500D02*
X106639000Y-88149500D01*
G75*
G02*
X106714500Y-88074000I75500J0D01*
G01*
X107540500Y-88074000D01*
G75*
G02*
X107616000Y-88149500I0J-75500D01*
G01*
X107616000Y-88300500D01*
G75*
G02*
X107540500Y-88376000I-75500J0D01*
G01*
X106714500Y-88376000D01*
G75*
G02*
X106639000Y-88300500I0J75500D01*
G01*
G37*
G36*
G01*
X106639000Y-88700500D02*
X106639000Y-88549500D01*
G75*
G02*
X106714500Y-88474000I75500J0D01*
G01*
X107540500Y-88474000D01*
G75*
G02*
X107616000Y-88549500I0J-75500D01*
G01*
X107616000Y-88700500D01*
G75*
G02*
X107540500Y-88776000I-75500J0D01*
G01*
X106714500Y-88776000D01*
G75*
G02*
X106639000Y-88700500I0J75500D01*
G01*
G37*
G36*
G01*
X106139000Y-89875500D02*
X106139000Y-89049500D01*
G75*
G02*
X106214500Y-88974000I75500J0D01*
G01*
X106365500Y-88974000D01*
G75*
G02*
X106441000Y-89049500I0J-75500D01*
G01*
X106441000Y-89875500D01*
G75*
G02*
X106365500Y-89951000I-75500J0D01*
G01*
X106214500Y-89951000D01*
G75*
G02*
X106139000Y-89875500I0J75500D01*
G01*
G37*
G36*
G01*
X105739000Y-89875500D02*
X105739000Y-89049500D01*
G75*
G02*
X105814500Y-88974000I75500J0D01*
G01*
X105965500Y-88974000D01*
G75*
G02*
X106041000Y-89049500I0J-75500D01*
G01*
X106041000Y-89875500D01*
G75*
G02*
X105965500Y-89951000I-75500J0D01*
G01*
X105814500Y-89951000D01*
G75*
G02*
X105739000Y-89875500I0J75500D01*
G01*
G37*
G36*
G01*
X105339000Y-89875500D02*
X105339000Y-89049500D01*
G75*
G02*
X105414500Y-88974000I75500J0D01*
G01*
X105565500Y-88974000D01*
G75*
G02*
X105641000Y-89049500I0J-75500D01*
G01*
X105641000Y-89875500D01*
G75*
G02*
X105565500Y-89951000I-75500J0D01*
G01*
X105414500Y-89951000D01*
G75*
G02*
X105339000Y-89875500I0J75500D01*
G01*
G37*
G36*
G01*
X104939000Y-89875500D02*
X104939000Y-89049500D01*
G75*
G02*
X105014500Y-88974000I75500J0D01*
G01*
X105165500Y-88974000D01*
G75*
G02*
X105241000Y-89049500I0J-75500D01*
G01*
X105241000Y-89875500D01*
G75*
G02*
X105165500Y-89951000I-75500J0D01*
G01*
X105014500Y-89951000D01*
G75*
G02*
X104939000Y-89875500I0J75500D01*
G01*
G37*
G36*
G01*
X104539000Y-89875500D02*
X104539000Y-89049500D01*
G75*
G02*
X104614500Y-88974000I75500J0D01*
G01*
X104765500Y-88974000D01*
G75*
G02*
X104841000Y-89049500I0J-75500D01*
G01*
X104841000Y-89875500D01*
G75*
G02*
X104765500Y-89951000I-75500J0D01*
G01*
X104614500Y-89951000D01*
G75*
G02*
X104539000Y-89875500I0J75500D01*
G01*
G37*
G36*
G01*
X104139000Y-89875500D02*
X104139000Y-89049500D01*
G75*
G02*
X104214500Y-88974000I75500J0D01*
G01*
X104365500Y-88974000D01*
G75*
G02*
X104441000Y-89049500I0J-75500D01*
G01*
X104441000Y-89875500D01*
G75*
G02*
X104365500Y-89951000I-75500J0D01*
G01*
X104214500Y-89951000D01*
G75*
G02*
X104139000Y-89875500I0J75500D01*
G01*
G37*
G36*
G01*
X103739000Y-89875500D02*
X103739000Y-89049500D01*
G75*
G02*
X103814500Y-88974000I75500J0D01*
G01*
X103965500Y-88974000D01*
G75*
G02*
X104041000Y-89049500I0J-75500D01*
G01*
X104041000Y-89875500D01*
G75*
G02*
X103965500Y-89951000I-75500J0D01*
G01*
X103814500Y-89951000D01*
G75*
G02*
X103739000Y-89875500I0J75500D01*
G01*
G37*
G36*
G01*
X103339000Y-89875500D02*
X103339000Y-89049500D01*
G75*
G02*
X103414500Y-88974000I75500J0D01*
G01*
X103565500Y-88974000D01*
G75*
G02*
X103641000Y-89049500I0J-75500D01*
G01*
X103641000Y-89875500D01*
G75*
G02*
X103565500Y-89951000I-75500J0D01*
G01*
X103414500Y-89951000D01*
G75*
G02*
X103339000Y-89875500I0J75500D01*
G01*
G37*
G36*
G01*
X102939000Y-89875500D02*
X102939000Y-89049500D01*
G75*
G02*
X103014500Y-88974000I75500J0D01*
G01*
X103165500Y-88974000D01*
G75*
G02*
X103241000Y-89049500I0J-75500D01*
G01*
X103241000Y-89875500D01*
G75*
G02*
X103165500Y-89951000I-75500J0D01*
G01*
X103014500Y-89951000D01*
G75*
G02*
X102939000Y-89875500I0J75500D01*
G01*
G37*
G36*
G01*
X102539000Y-89875500D02*
X102539000Y-89049500D01*
G75*
G02*
X102614500Y-88974000I75500J0D01*
G01*
X102765500Y-88974000D01*
G75*
G02*
X102841000Y-89049500I0J-75500D01*
G01*
X102841000Y-89875500D01*
G75*
G02*
X102765500Y-89951000I-75500J0D01*
G01*
X102614500Y-89951000D01*
G75*
G02*
X102539000Y-89875500I0J75500D01*
G01*
G37*
G36*
G01*
X102139000Y-89875500D02*
X102139000Y-89049500D01*
G75*
G02*
X102214500Y-88974000I75500J0D01*
G01*
X102365500Y-88974000D01*
G75*
G02*
X102441000Y-89049500I0J-75500D01*
G01*
X102441000Y-89875500D01*
G75*
G02*
X102365500Y-89951000I-75500J0D01*
G01*
X102214500Y-89951000D01*
G75*
G02*
X102139000Y-89875500I0J75500D01*
G01*
G37*
G36*
G01*
X101739000Y-89875500D02*
X101739000Y-89049500D01*
G75*
G02*
X101814500Y-88974000I75500J0D01*
G01*
X101965500Y-88974000D01*
G75*
G02*
X102041000Y-89049500I0J-75500D01*
G01*
X102041000Y-89875500D01*
G75*
G02*
X101965500Y-89951000I-75500J0D01*
G01*
X101814500Y-89951000D01*
G75*
G02*
X101739000Y-89875500I0J75500D01*
G01*
G37*
G36*
G01*
X101339000Y-89875500D02*
X101339000Y-89049500D01*
G75*
G02*
X101414500Y-88974000I75500J0D01*
G01*
X101565500Y-88974000D01*
G75*
G02*
X101641000Y-89049500I0J-75500D01*
G01*
X101641000Y-89875500D01*
G75*
G02*
X101565500Y-89951000I-75500J0D01*
G01*
X101414500Y-89951000D01*
G75*
G02*
X101339000Y-89875500I0J75500D01*
G01*
G37*
G36*
G01*
X100939000Y-89875500D02*
X100939000Y-89049500D01*
G75*
G02*
X101014500Y-88974000I75500J0D01*
G01*
X101165500Y-88974000D01*
G75*
G02*
X101241000Y-89049500I0J-75500D01*
G01*
X101241000Y-89875500D01*
G75*
G02*
X101165500Y-89951000I-75500J0D01*
G01*
X101014500Y-89951000D01*
G75*
G02*
X100939000Y-89875500I0J75500D01*
G01*
G37*
G36*
G01*
X99764000Y-88700500D02*
X99764000Y-88549500D01*
G75*
G02*
X99839500Y-88474000I75500J0D01*
G01*
X100665500Y-88474000D01*
G75*
G02*
X100741000Y-88549500I0J-75500D01*
G01*
X100741000Y-88700500D01*
G75*
G02*
X100665500Y-88776000I-75500J0D01*
G01*
X99839500Y-88776000D01*
G75*
G02*
X99764000Y-88700500I0J75500D01*
G01*
G37*
G36*
G01*
X99764000Y-88300500D02*
X99764000Y-88149500D01*
G75*
G02*
X99839500Y-88074000I75500J0D01*
G01*
X100665500Y-88074000D01*
G75*
G02*
X100741000Y-88149500I0J-75500D01*
G01*
X100741000Y-88300500D01*
G75*
G02*
X100665500Y-88376000I-75500J0D01*
G01*
X99839500Y-88376000D01*
G75*
G02*
X99764000Y-88300500I0J75500D01*
G01*
G37*
G36*
G01*
X99764000Y-87900500D02*
X99764000Y-87749500D01*
G75*
G02*
X99839500Y-87674000I75500J0D01*
G01*
X100665500Y-87674000D01*
G75*
G02*
X100741000Y-87749500I0J-75500D01*
G01*
X100741000Y-87900500D01*
G75*
G02*
X100665500Y-87976000I-75500J0D01*
G01*
X99839500Y-87976000D01*
G75*
G02*
X99764000Y-87900500I0J75500D01*
G01*
G37*
G36*
G01*
X99764000Y-87500500D02*
X99764000Y-87349500D01*
G75*
G02*
X99839500Y-87274000I75500J0D01*
G01*
X100665500Y-87274000D01*
G75*
G02*
X100741000Y-87349500I0J-75500D01*
G01*
X100741000Y-87500500D01*
G75*
G02*
X100665500Y-87576000I-75500J0D01*
G01*
X99839500Y-87576000D01*
G75*
G02*
X99764000Y-87500500I0J75500D01*
G01*
G37*
G36*
G01*
X99764000Y-87100500D02*
X99764000Y-86949500D01*
G75*
G02*
X99839500Y-86874000I75500J0D01*
G01*
X100665500Y-86874000D01*
G75*
G02*
X100741000Y-86949500I0J-75500D01*
G01*
X100741000Y-87100500D01*
G75*
G02*
X100665500Y-87176000I-75500J0D01*
G01*
X99839500Y-87176000D01*
G75*
G02*
X99764000Y-87100500I0J75500D01*
G01*
G37*
G36*
G01*
X99764000Y-86700500D02*
X99764000Y-86549500D01*
G75*
G02*
X99839500Y-86474000I75500J0D01*
G01*
X100665500Y-86474000D01*
G75*
G02*
X100741000Y-86549500I0J-75500D01*
G01*
X100741000Y-86700500D01*
G75*
G02*
X100665500Y-86776000I-75500J0D01*
G01*
X99839500Y-86776000D01*
G75*
G02*
X99764000Y-86700500I0J75500D01*
G01*
G37*
G36*
G01*
X99764000Y-86300500D02*
X99764000Y-86149500D01*
G75*
G02*
X99839500Y-86074000I75500J0D01*
G01*
X100665500Y-86074000D01*
G75*
G02*
X100741000Y-86149500I0J-75500D01*
G01*
X100741000Y-86300500D01*
G75*
G02*
X100665500Y-86376000I-75500J0D01*
G01*
X99839500Y-86376000D01*
G75*
G02*
X99764000Y-86300500I0J75500D01*
G01*
G37*
G36*
G01*
X99764000Y-85900500D02*
X99764000Y-85749500D01*
G75*
G02*
X99839500Y-85674000I75500J0D01*
G01*
X100665500Y-85674000D01*
G75*
G02*
X100741000Y-85749500I0J-75500D01*
G01*
X100741000Y-85900500D01*
G75*
G02*
X100665500Y-85976000I-75500J0D01*
G01*
X99839500Y-85976000D01*
G75*
G02*
X99764000Y-85900500I0J75500D01*
G01*
G37*
G36*
G01*
X99764000Y-85500500D02*
X99764000Y-85349500D01*
G75*
G02*
X99839500Y-85274000I75500J0D01*
G01*
X100665500Y-85274000D01*
G75*
G02*
X100741000Y-85349500I0J-75500D01*
G01*
X100741000Y-85500500D01*
G75*
G02*
X100665500Y-85576000I-75500J0D01*
G01*
X99839500Y-85576000D01*
G75*
G02*
X99764000Y-85500500I0J75500D01*
G01*
G37*
G36*
G01*
X99764000Y-85100500D02*
X99764000Y-84949500D01*
G75*
G02*
X99839500Y-84874000I75500J0D01*
G01*
X100665500Y-84874000D01*
G75*
G02*
X100741000Y-84949500I0J-75500D01*
G01*
X100741000Y-85100500D01*
G75*
G02*
X100665500Y-85176000I-75500J0D01*
G01*
X99839500Y-85176000D01*
G75*
G02*
X99764000Y-85100500I0J75500D01*
G01*
G37*
G36*
G01*
X99764000Y-84700500D02*
X99764000Y-84549500D01*
G75*
G02*
X99839500Y-84474000I75500J0D01*
G01*
X100665500Y-84474000D01*
G75*
G02*
X100741000Y-84549500I0J-75500D01*
G01*
X100741000Y-84700500D01*
G75*
G02*
X100665500Y-84776000I-75500J0D01*
G01*
X99839500Y-84776000D01*
G75*
G02*
X99764000Y-84700500I0J75500D01*
G01*
G37*
G36*
G01*
X99764000Y-84300500D02*
X99764000Y-84149500D01*
G75*
G02*
X99839500Y-84074000I75500J0D01*
G01*
X100665500Y-84074000D01*
G75*
G02*
X100741000Y-84149500I0J-75500D01*
G01*
X100741000Y-84300500D01*
G75*
G02*
X100665500Y-84376000I-75500J0D01*
G01*
X99839500Y-84376000D01*
G75*
G02*
X99764000Y-84300500I0J75500D01*
G01*
G37*
G36*
G01*
X99764000Y-83900500D02*
X99764000Y-83749500D01*
G75*
G02*
X99839500Y-83674000I75500J0D01*
G01*
X100665500Y-83674000D01*
G75*
G02*
X100741000Y-83749500I0J-75500D01*
G01*
X100741000Y-83900500D01*
G75*
G02*
X100665500Y-83976000I-75500J0D01*
G01*
X99839500Y-83976000D01*
G75*
G02*
X99764000Y-83900500I0J75500D01*
G01*
G37*
G36*
G01*
X99764000Y-83500500D02*
X99764000Y-83349500D01*
G75*
G02*
X99839500Y-83274000I75500J0D01*
G01*
X100665500Y-83274000D01*
G75*
G02*
X100741000Y-83349500I0J-75500D01*
G01*
X100741000Y-83500500D01*
G75*
G02*
X100665500Y-83576000I-75500J0D01*
G01*
X99839500Y-83576000D01*
G75*
G02*
X99764000Y-83500500I0J75500D01*
G01*
G37*
G36*
G01*
X102039000Y-87527410D02*
X102039000Y-84522590D01*
G75*
G02*
X102187590Y-84374000I148590J0D01*
G01*
X105192410Y-84374000D01*
G75*
G02*
X105341000Y-84522590I0J-148590D01*
G01*
X105341000Y-87527410D01*
G75*
G02*
X105192410Y-87676000I-148590J0D01*
G01*
X102187590Y-87676000D01*
G75*
G02*
X102039000Y-87527410I0J148590D01*
G01*
G37*
D10*
X106230000Y-106925000D03*
X103690000Y-106925000D03*
G36*
G01*
X102000000Y-107826000D02*
X100300000Y-107826000D01*
G75*
G02*
X100249000Y-107775000I0J51000D01*
G01*
X100249000Y-106075000D01*
G75*
G02*
X100300000Y-106024000I51000J0D01*
G01*
X102000000Y-106024000D01*
G75*
G02*
X102051000Y-106075000I0J-51000D01*
G01*
X102051000Y-107775000D01*
G75*
G02*
X102000000Y-107826000I-51000J0D01*
G01*
G37*
D14*
G36*
X99433488Y-78197010D02*
G01*
X99453306Y-78198962D01*
X99453691Y-78199038D01*
X99470633Y-78204177D01*
X99470995Y-78204327D01*
X99486599Y-78212668D01*
X99486925Y-78212886D01*
X99500608Y-78224115D01*
X99500885Y-78224392D01*
X99512455Y-78238491D01*
X99512572Y-78238649D01*
X99516769Y-78244930D01*
X99522726Y-78250888D01*
X99529734Y-78255570D01*
X99537518Y-78258795D01*
X99545787Y-78260440D01*
X99554211Y-78260440D01*
X99562479Y-78258796D01*
X99570264Y-78255571D01*
X99577272Y-78250889D01*
X99583230Y-78244932D01*
X99587428Y-78238648D01*
X99587545Y-78238490D01*
X99599115Y-78224392D01*
X99599392Y-78224115D01*
X99613075Y-78212886D01*
X99613401Y-78212668D01*
X99629005Y-78204327D01*
X99629367Y-78204177D01*
X99646309Y-78199038D01*
X99646694Y-78198962D01*
X99666512Y-78197010D01*
X99666708Y-78197000D01*
X99687000Y-78197000D01*
X99688732Y-78198000D01*
X99688732Y-78200000D01*
X99687196Y-78200990D01*
X99665350Y-78203141D01*
X99644526Y-78209459D01*
X99625337Y-78219715D01*
X99608518Y-78233518D01*
X99594715Y-78250337D01*
X99584459Y-78269526D01*
X99578141Y-78290350D01*
X99576000Y-78312094D01*
X99576000Y-78712906D01*
X99578141Y-78734650D01*
X99584459Y-78755474D01*
X99594715Y-78774663D01*
X99608518Y-78791482D01*
X99625337Y-78805285D01*
X99644526Y-78815541D01*
X99665350Y-78821859D01*
X99687196Y-78824010D01*
X99688822Y-78825175D01*
X99688626Y-78827165D01*
X99687000Y-78828000D01*
X99666708Y-78828000D01*
X99666512Y-78827990D01*
X99646694Y-78826038D01*
X99646309Y-78825962D01*
X99629367Y-78820823D01*
X99629005Y-78820673D01*
X99613401Y-78812332D01*
X99613075Y-78812114D01*
X99599392Y-78800885D01*
X99599115Y-78800608D01*
X99587545Y-78786509D01*
X99587428Y-78786351D01*
X99583231Y-78780070D01*
X99577274Y-78774112D01*
X99570266Y-78769430D01*
X99562482Y-78766205D01*
X99554213Y-78764560D01*
X99545789Y-78764560D01*
X99537521Y-78766204D01*
X99529736Y-78769429D01*
X99522728Y-78774111D01*
X99516770Y-78780068D01*
X99512572Y-78786352D01*
X99512455Y-78786510D01*
X99500885Y-78800608D01*
X99500608Y-78800885D01*
X99486925Y-78812114D01*
X99486599Y-78812332D01*
X99470995Y-78820673D01*
X99470633Y-78820823D01*
X99453691Y-78825962D01*
X99453306Y-78826038D01*
X99433488Y-78827990D01*
X99433292Y-78828000D01*
X99413000Y-78828000D01*
X99411268Y-78827000D01*
X99411268Y-78825000D01*
X99412804Y-78824010D01*
X99434650Y-78821859D01*
X99455474Y-78815541D01*
X99474663Y-78805285D01*
X99491482Y-78791482D01*
X99505285Y-78774663D01*
X99515541Y-78755474D01*
X99521859Y-78734650D01*
X99524000Y-78712906D01*
X99524000Y-78312094D01*
X99521859Y-78290350D01*
X99515541Y-78269526D01*
X99505285Y-78250337D01*
X99491482Y-78233518D01*
X99474663Y-78219715D01*
X99455474Y-78209459D01*
X99434650Y-78203141D01*
X99412804Y-78200990D01*
X99411178Y-78199825D01*
X99411374Y-78197835D01*
X99413000Y-78197000D01*
X99433292Y-78197000D01*
X99433488Y-78197010D01*
G37*
G36*
X98933488Y-78197010D02*
G01*
X98953306Y-78198962D01*
X98953691Y-78199038D01*
X98970633Y-78204177D01*
X98970995Y-78204327D01*
X98986599Y-78212668D01*
X98986925Y-78212886D01*
X99000608Y-78224115D01*
X99000885Y-78224392D01*
X99012455Y-78238491D01*
X99012572Y-78238649D01*
X99016769Y-78244930D01*
X99022726Y-78250888D01*
X99029734Y-78255570D01*
X99037518Y-78258795D01*
X99045787Y-78260440D01*
X99054211Y-78260440D01*
X99062479Y-78258796D01*
X99070264Y-78255571D01*
X99077272Y-78250889D01*
X99083230Y-78244932D01*
X99087428Y-78238648D01*
X99087545Y-78238490D01*
X99099115Y-78224392D01*
X99099392Y-78224115D01*
X99113075Y-78212886D01*
X99113401Y-78212668D01*
X99129005Y-78204327D01*
X99129367Y-78204177D01*
X99146309Y-78199038D01*
X99146694Y-78198962D01*
X99166512Y-78197010D01*
X99166708Y-78197000D01*
X99187000Y-78197000D01*
X99188732Y-78198000D01*
X99188732Y-78200000D01*
X99187196Y-78200990D01*
X99165350Y-78203141D01*
X99144526Y-78209459D01*
X99125337Y-78219715D01*
X99108518Y-78233518D01*
X99094715Y-78250337D01*
X99084459Y-78269526D01*
X99078141Y-78290350D01*
X99076000Y-78312094D01*
X99076000Y-78712906D01*
X99078141Y-78734650D01*
X99084459Y-78755474D01*
X99094715Y-78774663D01*
X99108518Y-78791482D01*
X99125337Y-78805285D01*
X99144526Y-78815541D01*
X99165350Y-78821859D01*
X99187196Y-78824010D01*
X99188822Y-78825175D01*
X99188626Y-78827165D01*
X99187000Y-78828000D01*
X99166708Y-78828000D01*
X99166512Y-78827990D01*
X99146694Y-78826038D01*
X99146309Y-78825962D01*
X99129367Y-78820823D01*
X99129005Y-78820673D01*
X99113401Y-78812332D01*
X99113075Y-78812114D01*
X99099392Y-78800885D01*
X99099115Y-78800608D01*
X99087545Y-78786509D01*
X99087428Y-78786351D01*
X99083231Y-78780070D01*
X99077274Y-78774112D01*
X99070266Y-78769430D01*
X99062482Y-78766205D01*
X99054213Y-78764560D01*
X99045789Y-78764560D01*
X99037521Y-78766204D01*
X99029736Y-78769429D01*
X99022728Y-78774111D01*
X99016770Y-78780068D01*
X99012572Y-78786352D01*
X99012455Y-78786510D01*
X99000885Y-78800608D01*
X99000608Y-78800885D01*
X98986925Y-78812114D01*
X98986599Y-78812332D01*
X98970995Y-78820673D01*
X98970633Y-78820823D01*
X98953691Y-78825962D01*
X98953306Y-78826038D01*
X98933488Y-78827990D01*
X98933292Y-78828000D01*
X98913000Y-78828000D01*
X98911268Y-78827000D01*
X98911268Y-78825000D01*
X98912804Y-78824010D01*
X98934650Y-78821859D01*
X98955474Y-78815541D01*
X98974663Y-78805285D01*
X98991482Y-78791482D01*
X99005285Y-78774663D01*
X99015541Y-78755474D01*
X99021859Y-78734650D01*
X99024000Y-78712906D01*
X99024000Y-78312094D01*
X99021859Y-78290350D01*
X99015541Y-78269526D01*
X99005285Y-78250337D01*
X98991482Y-78233518D01*
X98974663Y-78219715D01*
X98955474Y-78209459D01*
X98934650Y-78203141D01*
X98912804Y-78200990D01*
X98911178Y-78199825D01*
X98911374Y-78197835D01*
X98913000Y-78197000D01*
X98933292Y-78197000D01*
X98933488Y-78197010D01*
G37*
G36*
X98433488Y-78197010D02*
G01*
X98453306Y-78198962D01*
X98453691Y-78199038D01*
X98470633Y-78204177D01*
X98470995Y-78204327D01*
X98486599Y-78212668D01*
X98486925Y-78212886D01*
X98500608Y-78224115D01*
X98500885Y-78224392D01*
X98512455Y-78238491D01*
X98512572Y-78238649D01*
X98516769Y-78244930D01*
X98522726Y-78250888D01*
X98529734Y-78255570D01*
X98537518Y-78258795D01*
X98545787Y-78260440D01*
X98554211Y-78260440D01*
X98562479Y-78258796D01*
X98570264Y-78255571D01*
X98577272Y-78250889D01*
X98583230Y-78244932D01*
X98587428Y-78238648D01*
X98587545Y-78238490D01*
X98599115Y-78224392D01*
X98599392Y-78224115D01*
X98613075Y-78212886D01*
X98613401Y-78212668D01*
X98629005Y-78204327D01*
X98629367Y-78204177D01*
X98646309Y-78199038D01*
X98646694Y-78198962D01*
X98666512Y-78197010D01*
X98666708Y-78197000D01*
X98687000Y-78197000D01*
X98688732Y-78198000D01*
X98688732Y-78200000D01*
X98687196Y-78200990D01*
X98665350Y-78203141D01*
X98644526Y-78209459D01*
X98625337Y-78219715D01*
X98608518Y-78233518D01*
X98594715Y-78250337D01*
X98584459Y-78269526D01*
X98578141Y-78290350D01*
X98576000Y-78312094D01*
X98576000Y-78712906D01*
X98578141Y-78734650D01*
X98584459Y-78755474D01*
X98594715Y-78774663D01*
X98608518Y-78791482D01*
X98625337Y-78805285D01*
X98644526Y-78815541D01*
X98665350Y-78821859D01*
X98687196Y-78824010D01*
X98688822Y-78825175D01*
X98688626Y-78827165D01*
X98687000Y-78828000D01*
X98666708Y-78828000D01*
X98666512Y-78827990D01*
X98646694Y-78826038D01*
X98646309Y-78825962D01*
X98629367Y-78820823D01*
X98629005Y-78820673D01*
X98613401Y-78812332D01*
X98613075Y-78812114D01*
X98599392Y-78800885D01*
X98599115Y-78800608D01*
X98587545Y-78786509D01*
X98587428Y-78786351D01*
X98583231Y-78780070D01*
X98577274Y-78774112D01*
X98570266Y-78769430D01*
X98562482Y-78766205D01*
X98554213Y-78764560D01*
X98545789Y-78764560D01*
X98537521Y-78766204D01*
X98529736Y-78769429D01*
X98522728Y-78774111D01*
X98516770Y-78780068D01*
X98512572Y-78786352D01*
X98512455Y-78786510D01*
X98500885Y-78800608D01*
X98500608Y-78800885D01*
X98486925Y-78812114D01*
X98486599Y-78812332D01*
X98470995Y-78820673D01*
X98470633Y-78820823D01*
X98453691Y-78825962D01*
X98453306Y-78826038D01*
X98433488Y-78827990D01*
X98433292Y-78828000D01*
X98413000Y-78828000D01*
X98411268Y-78827000D01*
X98411268Y-78825000D01*
X98412804Y-78824010D01*
X98434650Y-78821859D01*
X98455474Y-78815541D01*
X98474663Y-78805285D01*
X98491482Y-78791482D01*
X98505285Y-78774663D01*
X98515541Y-78755474D01*
X98521859Y-78734650D01*
X98524000Y-78712906D01*
X98524000Y-78312094D01*
X98521859Y-78290350D01*
X98515541Y-78269526D01*
X98505285Y-78250337D01*
X98491482Y-78233518D01*
X98474663Y-78219715D01*
X98455474Y-78209459D01*
X98434650Y-78203141D01*
X98412804Y-78200990D01*
X98411178Y-78199825D01*
X98411374Y-78197835D01*
X98413000Y-78197000D01*
X98433292Y-78197000D01*
X98433488Y-78197010D01*
G37*
G36*
X98433488Y-75622010D02*
G01*
X98453306Y-75623962D01*
X98453691Y-75624038D01*
X98470633Y-75629177D01*
X98470995Y-75629327D01*
X98486599Y-75637668D01*
X98486925Y-75637886D01*
X98500608Y-75649115D01*
X98500885Y-75649392D01*
X98512455Y-75663491D01*
X98512572Y-75663649D01*
X98516769Y-75669930D01*
X98522726Y-75675888D01*
X98529734Y-75680570D01*
X98537518Y-75683795D01*
X98545787Y-75685440D01*
X98554211Y-75685440D01*
X98562479Y-75683796D01*
X98570264Y-75680571D01*
X98577272Y-75675889D01*
X98583230Y-75669932D01*
X98587428Y-75663648D01*
X98587545Y-75663490D01*
X98599115Y-75649392D01*
X98599392Y-75649115D01*
X98613075Y-75637886D01*
X98613401Y-75637668D01*
X98629005Y-75629327D01*
X98629367Y-75629177D01*
X98646309Y-75624038D01*
X98646694Y-75623962D01*
X98666512Y-75622010D01*
X98666708Y-75622000D01*
X98687000Y-75622000D01*
X98688732Y-75623000D01*
X98688732Y-75625000D01*
X98687196Y-75625990D01*
X98665350Y-75628141D01*
X98644526Y-75634459D01*
X98625337Y-75644715D01*
X98608518Y-75658518D01*
X98594715Y-75675337D01*
X98584459Y-75694526D01*
X98578141Y-75715350D01*
X98576000Y-75737094D01*
X98576000Y-76137906D01*
X98578141Y-76159650D01*
X98584459Y-76180474D01*
X98594715Y-76199663D01*
X98608518Y-76216482D01*
X98625337Y-76230285D01*
X98644526Y-76240541D01*
X98665350Y-76246859D01*
X98687196Y-76249010D01*
X98688822Y-76250175D01*
X98688626Y-76252165D01*
X98687000Y-76253000D01*
X98666708Y-76253000D01*
X98666512Y-76252990D01*
X98646694Y-76251038D01*
X98646309Y-76250962D01*
X98629367Y-76245823D01*
X98629005Y-76245673D01*
X98613401Y-76237332D01*
X98613075Y-76237114D01*
X98599392Y-76225885D01*
X98599115Y-76225608D01*
X98587545Y-76211509D01*
X98587428Y-76211351D01*
X98583231Y-76205070D01*
X98577274Y-76199112D01*
X98570266Y-76194430D01*
X98562482Y-76191205D01*
X98554213Y-76189560D01*
X98545789Y-76189560D01*
X98537521Y-76191204D01*
X98529736Y-76194429D01*
X98522728Y-76199111D01*
X98516770Y-76205068D01*
X98512572Y-76211352D01*
X98512455Y-76211510D01*
X98500885Y-76225608D01*
X98500608Y-76225885D01*
X98486925Y-76237114D01*
X98486599Y-76237332D01*
X98470995Y-76245673D01*
X98470633Y-76245823D01*
X98453691Y-76250962D01*
X98453306Y-76251038D01*
X98433488Y-76252990D01*
X98433292Y-76253000D01*
X98413000Y-76253000D01*
X98411268Y-76252000D01*
X98411268Y-76250000D01*
X98412804Y-76249010D01*
X98434650Y-76246859D01*
X98455474Y-76240541D01*
X98474663Y-76230285D01*
X98491482Y-76216482D01*
X98505285Y-76199663D01*
X98515541Y-76180474D01*
X98521859Y-76159650D01*
X98524000Y-76137906D01*
X98524000Y-75737094D01*
X98521859Y-75715350D01*
X98515541Y-75694526D01*
X98505285Y-75675337D01*
X98491482Y-75658518D01*
X98474663Y-75644715D01*
X98455474Y-75634459D01*
X98434650Y-75628141D01*
X98412804Y-75625990D01*
X98411178Y-75624825D01*
X98411374Y-75622835D01*
X98413000Y-75622000D01*
X98433292Y-75622000D01*
X98433488Y-75622010D01*
G37*
G36*
X99433488Y-75622010D02*
G01*
X99453306Y-75623962D01*
X99453691Y-75624038D01*
X99470633Y-75629177D01*
X99470995Y-75629327D01*
X99486599Y-75637668D01*
X99486925Y-75637886D01*
X99500608Y-75649115D01*
X99500885Y-75649392D01*
X99512455Y-75663491D01*
X99512572Y-75663649D01*
X99516769Y-75669930D01*
X99522726Y-75675888D01*
X99529734Y-75680570D01*
X99537518Y-75683795D01*
X99545787Y-75685440D01*
X99554211Y-75685440D01*
X99562479Y-75683796D01*
X99570264Y-75680571D01*
X99577272Y-75675889D01*
X99583230Y-75669932D01*
X99587428Y-75663648D01*
X99587545Y-75663490D01*
X99599115Y-75649392D01*
X99599392Y-75649115D01*
X99613075Y-75637886D01*
X99613401Y-75637668D01*
X99629005Y-75629327D01*
X99629367Y-75629177D01*
X99646309Y-75624038D01*
X99646694Y-75623962D01*
X99666512Y-75622010D01*
X99666708Y-75622000D01*
X99687000Y-75622000D01*
X99688732Y-75623000D01*
X99688732Y-75625000D01*
X99687196Y-75625990D01*
X99665350Y-75628141D01*
X99644526Y-75634459D01*
X99625337Y-75644715D01*
X99608518Y-75658518D01*
X99594715Y-75675337D01*
X99584459Y-75694526D01*
X99578141Y-75715350D01*
X99576000Y-75737094D01*
X99576000Y-76137906D01*
X99578141Y-76159650D01*
X99584459Y-76180474D01*
X99594715Y-76199663D01*
X99608518Y-76216482D01*
X99625337Y-76230285D01*
X99644526Y-76240541D01*
X99665350Y-76246859D01*
X99687196Y-76249010D01*
X99688822Y-76250175D01*
X99688626Y-76252165D01*
X99687000Y-76253000D01*
X99666708Y-76253000D01*
X99666512Y-76252990D01*
X99646694Y-76251038D01*
X99646309Y-76250962D01*
X99629367Y-76245823D01*
X99629005Y-76245673D01*
X99613401Y-76237332D01*
X99613075Y-76237114D01*
X99599392Y-76225885D01*
X99599115Y-76225608D01*
X99587545Y-76211509D01*
X99587428Y-76211351D01*
X99583231Y-76205070D01*
X99577274Y-76199112D01*
X99570266Y-76194430D01*
X99562482Y-76191205D01*
X99554213Y-76189560D01*
X99545789Y-76189560D01*
X99537521Y-76191204D01*
X99529736Y-76194429D01*
X99522728Y-76199111D01*
X99516770Y-76205068D01*
X99512572Y-76211352D01*
X99512455Y-76211510D01*
X99500885Y-76225608D01*
X99500608Y-76225885D01*
X99486925Y-76237114D01*
X99486599Y-76237332D01*
X99470995Y-76245673D01*
X99470633Y-76245823D01*
X99453691Y-76250962D01*
X99453306Y-76251038D01*
X99433488Y-76252990D01*
X99433292Y-76253000D01*
X99413000Y-76253000D01*
X99411268Y-76252000D01*
X99411268Y-76250000D01*
X99412804Y-76249010D01*
X99434650Y-76246859D01*
X99455474Y-76240541D01*
X99474663Y-76230285D01*
X99491482Y-76216482D01*
X99505285Y-76199663D01*
X99515541Y-76180474D01*
X99521859Y-76159650D01*
X99524000Y-76137906D01*
X99524000Y-75737094D01*
X99521859Y-75715350D01*
X99515541Y-75694526D01*
X99505285Y-75675337D01*
X99491482Y-75658518D01*
X99474663Y-75644715D01*
X99455474Y-75634459D01*
X99434650Y-75628141D01*
X99412804Y-75625990D01*
X99411178Y-75624825D01*
X99411374Y-75622835D01*
X99413000Y-75622000D01*
X99433292Y-75622000D01*
X99433488Y-75622010D01*
G37*
G36*
X98933488Y-75622010D02*
G01*
X98953306Y-75623962D01*
X98953691Y-75624038D01*
X98970633Y-75629177D01*
X98970995Y-75629327D01*
X98986599Y-75637668D01*
X98986925Y-75637886D01*
X99000608Y-75649115D01*
X99000885Y-75649392D01*
X99012455Y-75663491D01*
X99012572Y-75663649D01*
X99016769Y-75669930D01*
X99022726Y-75675888D01*
X99029734Y-75680570D01*
X99037518Y-75683795D01*
X99045787Y-75685440D01*
X99054211Y-75685440D01*
X99062479Y-75683796D01*
X99070264Y-75680571D01*
X99077272Y-75675889D01*
X99083230Y-75669932D01*
X99087428Y-75663648D01*
X99087545Y-75663490D01*
X99099115Y-75649392D01*
X99099392Y-75649115D01*
X99113075Y-75637886D01*
X99113401Y-75637668D01*
X99129005Y-75629327D01*
X99129367Y-75629177D01*
X99146309Y-75624038D01*
X99146694Y-75623962D01*
X99166512Y-75622010D01*
X99166708Y-75622000D01*
X99187000Y-75622000D01*
X99188732Y-75623000D01*
X99188732Y-75625000D01*
X99187196Y-75625990D01*
X99165350Y-75628141D01*
X99144526Y-75634459D01*
X99125337Y-75644715D01*
X99108518Y-75658518D01*
X99094715Y-75675337D01*
X99084459Y-75694526D01*
X99078141Y-75715350D01*
X99076000Y-75737094D01*
X99076000Y-76137906D01*
X99078141Y-76159650D01*
X99084459Y-76180474D01*
X99094715Y-76199663D01*
X99108518Y-76216482D01*
X99125337Y-76230285D01*
X99144526Y-76240541D01*
X99165350Y-76246859D01*
X99187196Y-76249010D01*
X99188822Y-76250175D01*
X99188626Y-76252165D01*
X99187000Y-76253000D01*
X99166708Y-76253000D01*
X99166512Y-76252990D01*
X99146694Y-76251038D01*
X99146309Y-76250962D01*
X99129367Y-76245823D01*
X99129005Y-76245673D01*
X99113401Y-76237332D01*
X99113075Y-76237114D01*
X99099392Y-76225885D01*
X99099115Y-76225608D01*
X99087545Y-76211509D01*
X99087428Y-76211351D01*
X99083231Y-76205070D01*
X99077274Y-76199112D01*
X99070266Y-76194430D01*
X99062482Y-76191205D01*
X99054213Y-76189560D01*
X99045789Y-76189560D01*
X99037521Y-76191204D01*
X99029736Y-76194429D01*
X99022728Y-76199111D01*
X99016770Y-76205068D01*
X99012572Y-76211352D01*
X99012455Y-76211510D01*
X99000885Y-76225608D01*
X99000608Y-76225885D01*
X98986925Y-76237114D01*
X98986599Y-76237332D01*
X98970995Y-76245673D01*
X98970633Y-76245823D01*
X98953691Y-76250962D01*
X98953306Y-76251038D01*
X98933488Y-76252990D01*
X98933292Y-76253000D01*
X98913000Y-76253000D01*
X98911268Y-76252000D01*
X98911268Y-76250000D01*
X98912804Y-76249010D01*
X98934650Y-76246859D01*
X98955474Y-76240541D01*
X98974663Y-76230285D01*
X98991482Y-76216482D01*
X99005285Y-76199663D01*
X99015541Y-76180474D01*
X99021859Y-76159650D01*
X99024000Y-76137906D01*
X99024000Y-75737094D01*
X99021859Y-75715350D01*
X99015541Y-75694526D01*
X99005285Y-75675337D01*
X98991482Y-75658518D01*
X98974663Y-75644715D01*
X98955474Y-75634459D01*
X98934650Y-75628141D01*
X98912804Y-75625990D01*
X98911178Y-75624825D01*
X98911374Y-75622835D01*
X98913000Y-75622000D01*
X98933292Y-75622000D01*
X98933488Y-75622010D01*
G37*
G36*
X106475732Y-63843000D02*
G01*
X106476000Y-63844000D01*
X106476000Y-65396000D01*
X106475000Y-65397732D01*
X106474000Y-65398000D01*
X106401000Y-65398000D01*
X106399268Y-65397000D01*
X106399000Y-65396000D01*
X106399000Y-63844000D01*
X106400000Y-63842268D01*
X106401000Y-63842000D01*
X106474000Y-63842000D01*
X106475732Y-63843000D01*
G37*
G36*
X100800732Y-63843000D02*
G01*
X100801000Y-63844000D01*
X100801000Y-65396000D01*
X100800000Y-65397732D01*
X100799000Y-65398000D01*
X100726000Y-65398000D01*
X100724268Y-65397000D01*
X100724000Y-65396000D01*
X100724000Y-63844000D01*
X100725000Y-63842268D01*
X100726000Y-63842000D01*
X100799000Y-63842000D01*
X100800732Y-63843000D01*
G37*
M02*
