G04 #@! TF.GenerationSoftware,KiCad,Pcbnew,(5.1.9)-1*
G04 #@! TF.CreationDate,2021-05-15T18:25:28+01:00*
G04 #@! TF.ProjectId,EnvOpenPico,456e764f-7065-46e5-9069-636f2e6b6963,REV1*
G04 #@! TF.SameCoordinates,Original*
G04 #@! TF.FileFunction,Other,Fab,Bot*
%FSLAX46Y46*%
G04 Gerber Fmt 4.6, Leading zero omitted, Abs format (unit mm)*
G04 Created by KiCad (PCBNEW (5.1.9)-1) date 2021-05-15 18:25:28*
%MOMM*%
%LPD*%
G01*
G04 APERTURE LIST*
%ADD10C,0.100000*%
%ADD11C,0.150000*%
G04 APERTURE END LIST*
D10*
X113800000Y-58090000D02*
X113165000Y-57455000D01*
X113800000Y-108255000D02*
X113800000Y-58090000D01*
X111260000Y-108255000D02*
X113800000Y-108255000D01*
X111260000Y-57455000D02*
X111260000Y-108255000D01*
X113165000Y-57455000D02*
X111260000Y-57455000D01*
X93480000Y-107620000D02*
X94115000Y-108255000D01*
X93480000Y-57455000D02*
X93480000Y-107620000D01*
X96020000Y-57455000D02*
X93480000Y-57455000D01*
X96020000Y-108255000D02*
X96020000Y-57455000D01*
X94115000Y-108255000D02*
X96020000Y-108255000D01*
D11*
X111982380Y-82521666D02*
X112696666Y-82521666D01*
X112839523Y-82474047D01*
X112934761Y-82378809D01*
X112982380Y-82235952D01*
X112982380Y-82140714D01*
X112315714Y-83426428D02*
X112982380Y-83426428D01*
X111934761Y-83188333D02*
X112649047Y-82950238D01*
X112649047Y-83569285D01*
X94202380Y-82521666D02*
X94916666Y-82521666D01*
X95059523Y-82474047D01*
X95154761Y-82378809D01*
X95202380Y-82235952D01*
X95202380Y-82140714D01*
X94202380Y-82902619D02*
X94202380Y-83521666D01*
X94583333Y-83188333D01*
X94583333Y-83331190D01*
X94630952Y-83426428D01*
X94678571Y-83474047D01*
X94773809Y-83521666D01*
X95011904Y-83521666D01*
X95107142Y-83474047D01*
X95154761Y-83426428D01*
X95202380Y-83331190D01*
X95202380Y-83045476D01*
X95154761Y-82950238D01*
X95107142Y-82902619D01*
M02*
