G04 #@! TF.GenerationSoftware,KiCad,Pcbnew,(5.1.9)-1*
G04 #@! TF.CreationDate,2021-05-15T18:25:28+01:00*
G04 #@! TF.ProjectId,EnvOpenPico,456e764f-7065-46e5-9069-636f2e6b6963,REV1*
G04 #@! TF.SameCoordinates,Original*
G04 #@! TF.FileFunction,Other,Comment*
%FSLAX46Y46*%
G04 Gerber Fmt 4.6, Leading zero omitted, Abs format (unit mm)*
G04 Created by KiCad (PCBNEW (5.1.9)-1) date 2021-05-15 18:25:28*
%MOMM*%
%LPD*%
G01*
G04 APERTURE LIST*
%ADD10C,0.150000*%
G04 APERTURE END LIST*
D10*
X79984761Y-39727380D02*
X80080000Y-39727380D01*
X80175238Y-39775000D01*
X80222857Y-39822619D01*
X80270476Y-39917857D01*
X80318095Y-40108333D01*
X80318095Y-40346428D01*
X80270476Y-40536904D01*
X80222857Y-40632142D01*
X80175238Y-40679761D01*
X80080000Y-40727380D01*
X79984761Y-40727380D01*
X79889523Y-40679761D01*
X79841904Y-40632142D01*
X79794285Y-40536904D01*
X79746666Y-40346428D01*
X79746666Y-40108333D01*
X79794285Y-39917857D01*
X79841904Y-39822619D01*
X79889523Y-39775000D01*
X79984761Y-39727380D01*
X80746666Y-40632142D02*
X80794285Y-40679761D01*
X80746666Y-40727380D01*
X80699047Y-40679761D01*
X80746666Y-40632142D01*
X80746666Y-40727380D01*
X81413333Y-39727380D02*
X81508571Y-39727380D01*
X81603809Y-39775000D01*
X81651428Y-39822619D01*
X81699047Y-39917857D01*
X81746666Y-40108333D01*
X81746666Y-40346428D01*
X81699047Y-40536904D01*
X81651428Y-40632142D01*
X81603809Y-40679761D01*
X81508571Y-40727380D01*
X81413333Y-40727380D01*
X81318095Y-40679761D01*
X81270476Y-40632142D01*
X81222857Y-40536904D01*
X81175238Y-40346428D01*
X81175238Y-40108333D01*
X81222857Y-39917857D01*
X81270476Y-39822619D01*
X81318095Y-39775000D01*
X81413333Y-39727380D01*
X82222857Y-40727380D02*
X82413333Y-40727380D01*
X82508571Y-40679761D01*
X82556190Y-40632142D01*
X82651428Y-40489285D01*
X82699047Y-40298809D01*
X82699047Y-39917857D01*
X82651428Y-39822619D01*
X82603809Y-39775000D01*
X82508571Y-39727380D01*
X82318095Y-39727380D01*
X82222857Y-39775000D01*
X82175238Y-39822619D01*
X82127619Y-39917857D01*
X82127619Y-40155952D01*
X82175238Y-40251190D01*
X82222857Y-40298809D01*
X82318095Y-40346428D01*
X82508571Y-40346428D01*
X82603809Y-40298809D01*
X82651428Y-40251190D01*
X82699047Y-40155952D01*
X83127619Y-40727380D02*
X83127619Y-40060714D01*
X83127619Y-40155952D02*
X83175238Y-40108333D01*
X83270476Y-40060714D01*
X83413333Y-40060714D01*
X83508571Y-40108333D01*
X83556190Y-40203571D01*
X83556190Y-40727380D01*
X83556190Y-40203571D02*
X83603809Y-40108333D01*
X83699047Y-40060714D01*
X83841904Y-40060714D01*
X83937142Y-40108333D01*
X83984761Y-40203571D01*
X83984761Y-40727380D01*
X84460952Y-40727380D02*
X84460952Y-40060714D01*
X84460952Y-40155952D02*
X84508571Y-40108333D01*
X84603809Y-40060714D01*
X84746666Y-40060714D01*
X84841904Y-40108333D01*
X84889523Y-40203571D01*
X84889523Y-40727380D01*
X84889523Y-40203571D02*
X84937142Y-40108333D01*
X85032380Y-40060714D01*
X85175238Y-40060714D01*
X85270476Y-40108333D01*
X85318095Y-40203571D01*
X85318095Y-40727380D01*
X86460952Y-40060714D02*
X86651428Y-40727380D01*
X86841904Y-40251190D01*
X87032380Y-40727380D01*
X87222857Y-40060714D01*
X87603809Y-40727380D02*
X87603809Y-40060714D01*
X87603809Y-39727380D02*
X87556190Y-39775000D01*
X87603809Y-39822619D01*
X87651428Y-39775000D01*
X87603809Y-39727380D01*
X87603809Y-39822619D01*
X88508571Y-40727380D02*
X88508571Y-39727380D01*
X88508571Y-40679761D02*
X88413333Y-40727380D01*
X88222857Y-40727380D01*
X88127619Y-40679761D01*
X88080000Y-40632142D01*
X88032380Y-40536904D01*
X88032380Y-40251190D01*
X88080000Y-40155952D01*
X88127619Y-40108333D01*
X88222857Y-40060714D01*
X88413333Y-40060714D01*
X88508571Y-40108333D01*
X88841904Y-40060714D02*
X89222857Y-40060714D01*
X88984761Y-39727380D02*
X88984761Y-40584523D01*
X89032380Y-40679761D01*
X89127619Y-40727380D01*
X89222857Y-40727380D01*
X89556190Y-40727380D02*
X89556190Y-39727380D01*
X89984761Y-40727380D02*
X89984761Y-40203571D01*
X89937142Y-40108333D01*
X89841904Y-40060714D01*
X89699047Y-40060714D01*
X89603809Y-40108333D01*
X89556190Y-40155952D01*
X91651428Y-40727380D02*
X91651428Y-39727380D01*
X91651428Y-40679761D02*
X91556190Y-40727380D01*
X91365714Y-40727380D01*
X91270476Y-40679761D01*
X91222857Y-40632142D01*
X91175238Y-40536904D01*
X91175238Y-40251190D01*
X91222857Y-40155952D01*
X91270476Y-40108333D01*
X91365714Y-40060714D01*
X91556190Y-40060714D01*
X91651428Y-40108333D01*
X92127619Y-40727380D02*
X92127619Y-40060714D01*
X92127619Y-39727380D02*
X92080000Y-39775000D01*
X92127619Y-39822619D01*
X92175238Y-39775000D01*
X92127619Y-39727380D01*
X92127619Y-39822619D01*
X92460952Y-40060714D02*
X92841904Y-40060714D01*
X92603809Y-40727380D02*
X92603809Y-39870238D01*
X92651428Y-39775000D01*
X92746666Y-39727380D01*
X92841904Y-39727380D01*
X93032380Y-40060714D02*
X93413333Y-40060714D01*
X93175238Y-40727380D02*
X93175238Y-39870238D01*
X93222857Y-39775000D01*
X93318095Y-39727380D01*
X93413333Y-39727380D01*
X94127619Y-40679761D02*
X94032380Y-40727380D01*
X93841904Y-40727380D01*
X93746666Y-40679761D01*
X93699047Y-40584523D01*
X93699047Y-40203571D01*
X93746666Y-40108333D01*
X93841904Y-40060714D01*
X94032380Y-40060714D01*
X94127619Y-40108333D01*
X94175238Y-40203571D01*
X94175238Y-40298809D01*
X93699047Y-40394047D01*
X94603809Y-40727380D02*
X94603809Y-40060714D01*
X94603809Y-40251190D02*
X94651428Y-40155952D01*
X94699047Y-40108333D01*
X94794285Y-40060714D01*
X94889523Y-40060714D01*
X95603809Y-40679761D02*
X95508571Y-40727380D01*
X95318095Y-40727380D01*
X95222857Y-40679761D01*
X95175238Y-40584523D01*
X95175238Y-40203571D01*
X95222857Y-40108333D01*
X95318095Y-40060714D01*
X95508571Y-40060714D01*
X95603809Y-40108333D01*
X95651428Y-40203571D01*
X95651428Y-40298809D01*
X95175238Y-40394047D01*
X96080000Y-40060714D02*
X96080000Y-40727380D01*
X96080000Y-40155952D02*
X96127619Y-40108333D01*
X96222857Y-40060714D01*
X96365714Y-40060714D01*
X96460952Y-40108333D01*
X96508571Y-40203571D01*
X96508571Y-40727380D01*
X97413333Y-40679761D02*
X97318095Y-40727380D01*
X97127619Y-40727380D01*
X97032380Y-40679761D01*
X96984761Y-40632142D01*
X96937142Y-40536904D01*
X96937142Y-40251190D01*
X96984761Y-40155952D01*
X97032380Y-40108333D01*
X97127619Y-40060714D01*
X97318095Y-40060714D01*
X97413333Y-40108333D01*
X98222857Y-40679761D02*
X98127619Y-40727380D01*
X97937142Y-40727380D01*
X97841904Y-40679761D01*
X97794285Y-40584523D01*
X97794285Y-40203571D01*
X97841904Y-40108333D01*
X97937142Y-40060714D01*
X98127619Y-40060714D01*
X98222857Y-40108333D01*
X98270476Y-40203571D01*
X98270476Y-40298809D01*
X97794285Y-40394047D01*
X99460952Y-40727380D02*
X99460952Y-40060714D01*
X99460952Y-39727380D02*
X99413333Y-39775000D01*
X99460952Y-39822619D01*
X99508571Y-39775000D01*
X99460952Y-39727380D01*
X99460952Y-39822619D01*
X99889523Y-40679761D02*
X99984761Y-40727380D01*
X100175238Y-40727380D01*
X100270476Y-40679761D01*
X100318095Y-40584523D01*
X100318095Y-40536904D01*
X100270476Y-40441666D01*
X100175238Y-40394047D01*
X100032380Y-40394047D01*
X99937142Y-40346428D01*
X99889523Y-40251190D01*
X99889523Y-40203571D01*
X99937142Y-40108333D01*
X100032380Y-40060714D01*
X100175238Y-40060714D01*
X100270476Y-40108333D01*
X101508571Y-40060714D02*
X101508571Y-40727380D01*
X101508571Y-40155952D02*
X101556190Y-40108333D01*
X101651428Y-40060714D01*
X101794285Y-40060714D01*
X101889523Y-40108333D01*
X101937142Y-40203571D01*
X101937142Y-40727380D01*
X102794285Y-40679761D02*
X102699047Y-40727380D01*
X102508571Y-40727380D01*
X102413333Y-40679761D01*
X102365714Y-40584523D01*
X102365714Y-40203571D01*
X102413333Y-40108333D01*
X102508571Y-40060714D01*
X102699047Y-40060714D01*
X102794285Y-40108333D01*
X102841904Y-40203571D01*
X102841904Y-40298809D01*
X102365714Y-40394047D01*
X103651428Y-40679761D02*
X103556190Y-40727380D01*
X103365714Y-40727380D01*
X103270476Y-40679761D01*
X103222857Y-40584523D01*
X103222857Y-40203571D01*
X103270476Y-40108333D01*
X103365714Y-40060714D01*
X103556190Y-40060714D01*
X103651428Y-40108333D01*
X103699047Y-40203571D01*
X103699047Y-40298809D01*
X103222857Y-40394047D01*
X104556190Y-40727380D02*
X104556190Y-39727380D01*
X104556190Y-40679761D02*
X104460952Y-40727380D01*
X104270476Y-40727380D01*
X104175238Y-40679761D01*
X104127619Y-40632142D01*
X104080000Y-40536904D01*
X104080000Y-40251190D01*
X104127619Y-40155952D01*
X104175238Y-40108333D01*
X104270476Y-40060714D01*
X104460952Y-40060714D01*
X104556190Y-40108333D01*
X105413333Y-40679761D02*
X105318095Y-40727380D01*
X105127619Y-40727380D01*
X105032380Y-40679761D01*
X104984761Y-40584523D01*
X104984761Y-40203571D01*
X105032380Y-40108333D01*
X105127619Y-40060714D01*
X105318095Y-40060714D01*
X105413333Y-40108333D01*
X105460952Y-40203571D01*
X105460952Y-40298809D01*
X104984761Y-40394047D01*
X106318095Y-40727380D02*
X106318095Y-39727380D01*
X106318095Y-40679761D02*
X106222857Y-40727380D01*
X106032380Y-40727380D01*
X105937142Y-40679761D01*
X105889523Y-40632142D01*
X105841904Y-40536904D01*
X105841904Y-40251190D01*
X105889523Y-40155952D01*
X105937142Y-40108333D01*
X106032380Y-40060714D01*
X106222857Y-40060714D01*
X106318095Y-40108333D01*
X107413333Y-40060714D02*
X107794285Y-40060714D01*
X107556190Y-40727380D02*
X107556190Y-39870238D01*
X107603809Y-39775000D01*
X107699047Y-39727380D01*
X107794285Y-39727380D01*
X108270476Y-40727380D02*
X108175238Y-40679761D01*
X108127619Y-40632142D01*
X108080000Y-40536904D01*
X108080000Y-40251190D01*
X108127619Y-40155952D01*
X108175238Y-40108333D01*
X108270476Y-40060714D01*
X108413333Y-40060714D01*
X108508571Y-40108333D01*
X108556190Y-40155952D01*
X108603809Y-40251190D01*
X108603809Y-40536904D01*
X108556190Y-40632142D01*
X108508571Y-40679761D01*
X108413333Y-40727380D01*
X108270476Y-40727380D01*
X109032380Y-40727380D02*
X109032380Y-40060714D01*
X109032380Y-40251190D02*
X109080000Y-40155952D01*
X109127619Y-40108333D01*
X109222857Y-40060714D01*
X109318095Y-40060714D01*
X110841904Y-40060714D02*
X110841904Y-40870238D01*
X110794285Y-40965476D01*
X110746666Y-41013095D01*
X110651428Y-41060714D01*
X110508571Y-41060714D01*
X110413333Y-41013095D01*
X110841904Y-40679761D02*
X110746666Y-40727380D01*
X110556190Y-40727380D01*
X110460952Y-40679761D01*
X110413333Y-40632142D01*
X110365714Y-40536904D01*
X110365714Y-40251190D01*
X110413333Y-40155952D01*
X110460952Y-40108333D01*
X110556190Y-40060714D01*
X110746666Y-40060714D01*
X110841904Y-40108333D01*
X111318095Y-40727380D02*
X111318095Y-40060714D01*
X111318095Y-40251190D02*
X111365714Y-40155952D01*
X111413333Y-40108333D01*
X111508571Y-40060714D01*
X111603809Y-40060714D01*
X112079999Y-40727380D02*
X111984761Y-40679761D01*
X111937142Y-40632142D01*
X111889523Y-40536904D01*
X111889523Y-40251190D01*
X111937142Y-40155952D01*
X111984761Y-40108333D01*
X112079999Y-40060714D01*
X112222857Y-40060714D01*
X112318095Y-40108333D01*
X112365714Y-40155952D01*
X112413333Y-40251190D01*
X112413333Y-40536904D01*
X112365714Y-40632142D01*
X112318095Y-40679761D01*
X112222857Y-40727380D01*
X112079999Y-40727380D01*
X113270476Y-40060714D02*
X113270476Y-40727380D01*
X112841904Y-40060714D02*
X112841904Y-40584523D01*
X112889523Y-40679761D01*
X112984761Y-40727380D01*
X113127619Y-40727380D01*
X113222857Y-40679761D01*
X113270476Y-40632142D01*
X113746666Y-40060714D02*
X113746666Y-40727380D01*
X113746666Y-40155952D02*
X113794285Y-40108333D01*
X113889523Y-40060714D01*
X114032380Y-40060714D01*
X114127619Y-40108333D01*
X114175238Y-40203571D01*
X114175238Y-40727380D01*
X115079999Y-40727380D02*
X115079999Y-39727380D01*
X115079999Y-40679761D02*
X114984761Y-40727380D01*
X114794285Y-40727380D01*
X114699047Y-40679761D01*
X114651428Y-40632142D01*
X114603809Y-40536904D01*
X114603809Y-40251190D01*
X114651428Y-40155952D01*
X114699047Y-40108333D01*
X114794285Y-40060714D01*
X114984761Y-40060714D01*
X115079999Y-40108333D01*
X116318095Y-40060714D02*
X116318095Y-41060714D01*
X116318095Y-40108333D02*
X116413333Y-40060714D01*
X116603809Y-40060714D01*
X116699047Y-40108333D01*
X116746666Y-40155952D01*
X116794285Y-40251190D01*
X116794285Y-40536904D01*
X116746666Y-40632142D01*
X116699047Y-40679761D01*
X116603809Y-40727380D01*
X116413333Y-40727380D01*
X116318095Y-40679761D01*
X117365714Y-40727380D02*
X117270476Y-40679761D01*
X117222857Y-40584523D01*
X117222857Y-39727380D01*
X118175238Y-40727380D02*
X118175238Y-40203571D01*
X118127619Y-40108333D01*
X118032380Y-40060714D01*
X117841904Y-40060714D01*
X117746666Y-40108333D01*
X118175238Y-40679761D02*
X118079999Y-40727380D01*
X117841904Y-40727380D01*
X117746666Y-40679761D01*
X117699047Y-40584523D01*
X117699047Y-40489285D01*
X117746666Y-40394047D01*
X117841904Y-40346428D01*
X118079999Y-40346428D01*
X118175238Y-40298809D01*
X118651428Y-40060714D02*
X118651428Y-40727380D01*
X118651428Y-40155952D02*
X118699047Y-40108333D01*
X118794285Y-40060714D01*
X118937142Y-40060714D01*
X119032380Y-40108333D01*
X119079999Y-40203571D01*
X119079999Y-40727380D01*
X119937142Y-40679761D02*
X119841904Y-40727380D01*
X119651428Y-40727380D01*
X119556190Y-40679761D01*
X119508571Y-40584523D01*
X119508571Y-40203571D01*
X119556190Y-40108333D01*
X119651428Y-40060714D01*
X119841904Y-40060714D01*
X119937142Y-40108333D01*
X119984761Y-40203571D01*
X119984761Y-40298809D01*
X119508571Y-40394047D01*
X121603809Y-40679761D02*
X121508571Y-40727380D01*
X121318095Y-40727380D01*
X121222857Y-40679761D01*
X121175238Y-40632142D01*
X121127619Y-40536904D01*
X121127619Y-40251190D01*
X121175238Y-40155952D01*
X121222857Y-40108333D01*
X121318095Y-40060714D01*
X121508571Y-40060714D01*
X121603809Y-40108333D01*
X122175238Y-40727380D02*
X122079999Y-40679761D01*
X122032380Y-40632142D01*
X121984761Y-40536904D01*
X121984761Y-40251190D01*
X122032380Y-40155952D01*
X122079999Y-40108333D01*
X122175238Y-40060714D01*
X122318095Y-40060714D01*
X122413333Y-40108333D01*
X122460952Y-40155952D01*
X122508571Y-40251190D01*
X122508571Y-40536904D01*
X122460952Y-40632142D01*
X122413333Y-40679761D01*
X122318095Y-40727380D01*
X122175238Y-40727380D01*
X122841904Y-40060714D02*
X123079999Y-40727380D01*
X123318095Y-40060714D01*
X124079999Y-40679761D02*
X123984761Y-40727380D01*
X123794285Y-40727380D01*
X123699047Y-40679761D01*
X123651428Y-40584523D01*
X123651428Y-40203571D01*
X123699047Y-40108333D01*
X123794285Y-40060714D01*
X123984761Y-40060714D01*
X124079999Y-40108333D01*
X124127619Y-40203571D01*
X124127619Y-40298809D01*
X123651428Y-40394047D01*
X124556190Y-40727380D02*
X124556190Y-40060714D01*
X124556190Y-40251190D02*
X124603809Y-40155952D01*
X124651428Y-40108333D01*
X124746666Y-40060714D01*
X124841904Y-40060714D01*
X125603809Y-40727380D02*
X125603809Y-40203571D01*
X125556190Y-40108333D01*
X125460952Y-40060714D01*
X125270476Y-40060714D01*
X125175238Y-40108333D01*
X125603809Y-40679761D02*
X125508571Y-40727380D01*
X125270476Y-40727380D01*
X125175238Y-40679761D01*
X125127619Y-40584523D01*
X125127619Y-40489285D01*
X125175238Y-40394047D01*
X125270476Y-40346428D01*
X125508571Y-40346428D01*
X125603809Y-40298809D01*
X126508571Y-40060714D02*
X126508571Y-40870238D01*
X126460952Y-40965476D01*
X126413333Y-41013095D01*
X126318095Y-41060714D01*
X126175238Y-41060714D01*
X126079999Y-41013095D01*
X126508571Y-40679761D02*
X126413333Y-40727380D01*
X126222857Y-40727380D01*
X126127619Y-40679761D01*
X126079999Y-40632142D01*
X126032380Y-40536904D01*
X126032380Y-40251190D01*
X126079999Y-40155952D01*
X126127619Y-40108333D01*
X126222857Y-40060714D01*
X126413333Y-40060714D01*
X126508571Y-40108333D01*
X127365714Y-40679761D02*
X127270476Y-40727380D01*
X127079999Y-40727380D01*
X126984761Y-40679761D01*
X126937142Y-40584523D01*
X126937142Y-40203571D01*
X126984761Y-40108333D01*
X127079999Y-40060714D01*
X127270476Y-40060714D01*
X127365714Y-40108333D01*
X127413333Y-40203571D01*
X127413333Y-40298809D01*
X126937142Y-40394047D01*
X115692738Y-60777380D02*
X116026071Y-61777380D01*
X116359404Y-60777380D01*
X116645119Y-61729761D02*
X116787976Y-61777380D01*
X117026071Y-61777380D01*
X117121309Y-61729761D01*
X117168928Y-61682142D01*
X117216547Y-61586904D01*
X117216547Y-61491666D01*
X117168928Y-61396428D01*
X117121309Y-61348809D01*
X117026071Y-61301190D01*
X116835595Y-61253571D01*
X116740357Y-61205952D01*
X116692738Y-61158333D01*
X116645119Y-61063095D01*
X116645119Y-60967857D01*
X116692738Y-60872619D01*
X116740357Y-60825000D01*
X116835595Y-60777380D01*
X117073690Y-60777380D01*
X117216547Y-60825000D01*
X117835595Y-61301190D02*
X117835595Y-61777380D01*
X117502261Y-60777380D02*
X117835595Y-61301190D01*
X118168928Y-60777380D01*
X118454642Y-61729761D02*
X118597500Y-61777380D01*
X118835595Y-61777380D01*
X118930833Y-61729761D01*
X118978452Y-61682142D01*
X119026071Y-61586904D01*
X119026071Y-61491666D01*
X118978452Y-61396428D01*
X118930833Y-61348809D01*
X118835595Y-61301190D01*
X118645119Y-61253571D01*
X118549880Y-61205952D01*
X118502261Y-61158333D01*
X118454642Y-61063095D01*
X118454642Y-60967857D01*
X118502261Y-60872619D01*
X118549880Y-60825000D01*
X118645119Y-60777380D01*
X118883214Y-60777380D01*
X119026071Y-60825000D01*
X120216547Y-61777380D02*
X120216547Y-61110714D01*
X120216547Y-60777380D02*
X120168928Y-60825000D01*
X120216547Y-60872619D01*
X120264166Y-60825000D01*
X120216547Y-60777380D01*
X120216547Y-60872619D01*
X120645119Y-61729761D02*
X120740357Y-61777380D01*
X120930833Y-61777380D01*
X121026071Y-61729761D01*
X121073690Y-61634523D01*
X121073690Y-61586904D01*
X121026071Y-61491666D01*
X120930833Y-61444047D01*
X120787976Y-61444047D01*
X120692738Y-61396428D01*
X120645119Y-61301190D01*
X120645119Y-61253571D01*
X120692738Y-61158333D01*
X120787976Y-61110714D01*
X120930833Y-61110714D01*
X121026071Y-61158333D01*
X122264166Y-61110714D02*
X122264166Y-61777380D01*
X122264166Y-61205952D02*
X122311785Y-61158333D01*
X122407023Y-61110714D01*
X122549880Y-61110714D01*
X122645119Y-61158333D01*
X122692738Y-61253571D01*
X122692738Y-61777380D01*
X123311785Y-61777380D02*
X123216547Y-61729761D01*
X123168928Y-61682142D01*
X123121309Y-61586904D01*
X123121309Y-61301190D01*
X123168928Y-61205952D01*
X123216547Y-61158333D01*
X123311785Y-61110714D01*
X123454642Y-61110714D01*
X123549880Y-61158333D01*
X123597500Y-61205952D01*
X123645119Y-61301190D01*
X123645119Y-61586904D01*
X123597500Y-61682142D01*
X123549880Y-61729761D01*
X123454642Y-61777380D01*
X123311785Y-61777380D01*
X123930833Y-61110714D02*
X124311785Y-61110714D01*
X124073690Y-60777380D02*
X124073690Y-61634523D01*
X124121309Y-61729761D01*
X124216547Y-61777380D01*
X124311785Y-61777380D01*
X125407023Y-61777380D02*
X125407023Y-61110714D01*
X125407023Y-60777380D02*
X125359404Y-60825000D01*
X125407023Y-60872619D01*
X125454642Y-60825000D01*
X125407023Y-60777380D01*
X125407023Y-60872619D01*
X125883214Y-61777380D02*
X125883214Y-61110714D01*
X125883214Y-61205952D02*
X125930833Y-61158333D01*
X126026071Y-61110714D01*
X126168928Y-61110714D01*
X126264166Y-61158333D01*
X126311785Y-61253571D01*
X126311785Y-61777380D01*
X126311785Y-61253571D02*
X126359404Y-61158333D01*
X126454642Y-61110714D01*
X126597500Y-61110714D01*
X126692738Y-61158333D01*
X126740357Y-61253571D01*
X126740357Y-61777380D01*
X127216547Y-61110714D02*
X127216547Y-62110714D01*
X127216547Y-61158333D02*
X127311785Y-61110714D01*
X127502261Y-61110714D01*
X127597500Y-61158333D01*
X127645119Y-61205952D01*
X127692738Y-61301190D01*
X127692738Y-61586904D01*
X127645119Y-61682142D01*
X127597500Y-61729761D01*
X127502261Y-61777380D01*
X127311785Y-61777380D01*
X127216547Y-61729761D01*
X128264166Y-61777380D02*
X128168928Y-61729761D01*
X128121309Y-61634523D01*
X128121309Y-60777380D01*
X129026071Y-61729761D02*
X128930833Y-61777380D01*
X128740357Y-61777380D01*
X128645119Y-61729761D01*
X128597500Y-61634523D01*
X128597500Y-61253571D01*
X128645119Y-61158333D01*
X128740357Y-61110714D01*
X128930833Y-61110714D01*
X129026071Y-61158333D01*
X129073690Y-61253571D01*
X129073690Y-61348809D01*
X128597500Y-61444047D01*
X129502261Y-61777380D02*
X129502261Y-61110714D01*
X129502261Y-61205952D02*
X129549880Y-61158333D01*
X129645119Y-61110714D01*
X129787976Y-61110714D01*
X129883214Y-61158333D01*
X129930833Y-61253571D01*
X129930833Y-61777380D01*
X129930833Y-61253571D02*
X129978452Y-61158333D01*
X130073690Y-61110714D01*
X130216547Y-61110714D01*
X130311785Y-61158333D01*
X130359404Y-61253571D01*
X130359404Y-61777380D01*
X131216547Y-61729761D02*
X131121309Y-61777380D01*
X130930833Y-61777380D01*
X130835595Y-61729761D01*
X130787976Y-61634523D01*
X130787976Y-61253571D01*
X130835595Y-61158333D01*
X130930833Y-61110714D01*
X131121309Y-61110714D01*
X131216547Y-61158333D01*
X131264166Y-61253571D01*
X131264166Y-61348809D01*
X130787976Y-61444047D01*
X131692738Y-61110714D02*
X131692738Y-61777380D01*
X131692738Y-61205952D02*
X131740357Y-61158333D01*
X131835595Y-61110714D01*
X131978452Y-61110714D01*
X132073690Y-61158333D01*
X132121309Y-61253571D01*
X132121309Y-61777380D01*
X132454642Y-61110714D02*
X132835595Y-61110714D01*
X132597500Y-60777380D02*
X132597500Y-61634523D01*
X132645119Y-61729761D01*
X132740357Y-61777380D01*
X132835595Y-61777380D01*
X133549880Y-61729761D02*
X133454642Y-61777380D01*
X133264166Y-61777380D01*
X133168928Y-61729761D01*
X133121309Y-61634523D01*
X133121309Y-61253571D01*
X133168928Y-61158333D01*
X133264166Y-61110714D01*
X133454642Y-61110714D01*
X133549880Y-61158333D01*
X133597500Y-61253571D01*
X133597500Y-61348809D01*
X133121309Y-61444047D01*
X134454642Y-61777380D02*
X134454642Y-60777380D01*
X134454642Y-61729761D02*
X134359404Y-61777380D01*
X134168928Y-61777380D01*
X134073690Y-61729761D01*
X134026071Y-61682142D01*
X133978452Y-61586904D01*
X133978452Y-61301190D01*
X134026071Y-61205952D01*
X134073690Y-61158333D01*
X134168928Y-61110714D01*
X134359404Y-61110714D01*
X134454642Y-61158333D01*
X115740357Y-65877380D02*
X116359404Y-65877380D01*
X116026071Y-66258333D01*
X116168928Y-66258333D01*
X116264166Y-66305952D01*
X116311785Y-66353571D01*
X116359404Y-66448809D01*
X116359404Y-66686904D01*
X116311785Y-66782142D01*
X116264166Y-66829761D01*
X116168928Y-66877380D01*
X115883214Y-66877380D01*
X115787976Y-66829761D01*
X115740357Y-66782142D01*
X116787976Y-66782142D02*
X116835595Y-66829761D01*
X116787976Y-66877380D01*
X116740357Y-66829761D01*
X116787976Y-66782142D01*
X116787976Y-66877380D01*
X117168928Y-65877380D02*
X117787976Y-65877380D01*
X117454642Y-66258333D01*
X117597500Y-66258333D01*
X117692738Y-66305952D01*
X117740357Y-66353571D01*
X117787976Y-66448809D01*
X117787976Y-66686904D01*
X117740357Y-66782142D01*
X117692738Y-66829761D01*
X117597500Y-66877380D01*
X117311785Y-66877380D01*
X117216547Y-66829761D01*
X117168928Y-66782142D01*
X118073690Y-65877380D02*
X118407023Y-66877380D01*
X118740357Y-65877380D01*
X118835595Y-66972619D02*
X119597500Y-66972619D01*
X119835595Y-66353571D02*
X120168928Y-66353571D01*
X120311785Y-66877380D02*
X119835595Y-66877380D01*
X119835595Y-65877380D01*
X120311785Y-65877380D01*
X120740357Y-66877380D02*
X120740357Y-65877380D01*
X121311785Y-66877380D01*
X121311785Y-65877380D01*
X122549880Y-66877380D02*
X122549880Y-66210714D01*
X122549880Y-65877380D02*
X122502261Y-65925000D01*
X122549880Y-65972619D01*
X122597500Y-65925000D01*
X122549880Y-65877380D01*
X122549880Y-65972619D01*
X122978452Y-66829761D02*
X123073690Y-66877380D01*
X123264166Y-66877380D01*
X123359404Y-66829761D01*
X123407023Y-66734523D01*
X123407023Y-66686904D01*
X123359404Y-66591666D01*
X123264166Y-66544047D01*
X123121309Y-66544047D01*
X123026071Y-66496428D01*
X122978452Y-66401190D01*
X122978452Y-66353571D01*
X123026071Y-66258333D01*
X123121309Y-66210714D01*
X123264166Y-66210714D01*
X123359404Y-66258333D01*
X124597500Y-66210714D02*
X124597500Y-66877380D01*
X124597500Y-66305952D02*
X124645119Y-66258333D01*
X124740357Y-66210714D01*
X124883214Y-66210714D01*
X124978452Y-66258333D01*
X125026071Y-66353571D01*
X125026071Y-66877380D01*
X125645119Y-66877380D02*
X125549880Y-66829761D01*
X125502261Y-66782142D01*
X125454642Y-66686904D01*
X125454642Y-66401190D01*
X125502261Y-66305952D01*
X125549880Y-66258333D01*
X125645119Y-66210714D01*
X125787976Y-66210714D01*
X125883214Y-66258333D01*
X125930833Y-66305952D01*
X125978452Y-66401190D01*
X125978452Y-66686904D01*
X125930833Y-66782142D01*
X125883214Y-66829761D01*
X125787976Y-66877380D01*
X125645119Y-66877380D01*
X126264166Y-66210714D02*
X126645119Y-66210714D01*
X126407023Y-65877380D02*
X126407023Y-66734523D01*
X126454642Y-66829761D01*
X126549880Y-66877380D01*
X126645119Y-66877380D01*
X127740357Y-66877380D02*
X127740357Y-66210714D01*
X127740357Y-65877380D02*
X127692738Y-65925000D01*
X127740357Y-65972619D01*
X127787976Y-65925000D01*
X127740357Y-65877380D01*
X127740357Y-65972619D01*
X128216547Y-66877380D02*
X128216547Y-66210714D01*
X128216547Y-66305952D02*
X128264166Y-66258333D01*
X128359404Y-66210714D01*
X128502261Y-66210714D01*
X128597500Y-66258333D01*
X128645119Y-66353571D01*
X128645119Y-66877380D01*
X128645119Y-66353571D02*
X128692738Y-66258333D01*
X128787976Y-66210714D01*
X128930833Y-66210714D01*
X129026071Y-66258333D01*
X129073690Y-66353571D01*
X129073690Y-66877380D01*
X129549880Y-66210714D02*
X129549880Y-67210714D01*
X129549880Y-66258333D02*
X129645119Y-66210714D01*
X129835595Y-66210714D01*
X129930833Y-66258333D01*
X129978452Y-66305952D01*
X130026071Y-66401190D01*
X130026071Y-66686904D01*
X129978452Y-66782142D01*
X129930833Y-66829761D01*
X129835595Y-66877380D01*
X129645119Y-66877380D01*
X129549880Y-66829761D01*
X130597500Y-66877380D02*
X130502261Y-66829761D01*
X130454642Y-66734523D01*
X130454642Y-65877380D01*
X131359404Y-66829761D02*
X131264166Y-66877380D01*
X131073690Y-66877380D01*
X130978452Y-66829761D01*
X130930833Y-66734523D01*
X130930833Y-66353571D01*
X130978452Y-66258333D01*
X131073690Y-66210714D01*
X131264166Y-66210714D01*
X131359404Y-66258333D01*
X131407023Y-66353571D01*
X131407023Y-66448809D01*
X130930833Y-66544047D01*
X131835595Y-66877380D02*
X131835595Y-66210714D01*
X131835595Y-66305952D02*
X131883214Y-66258333D01*
X131978452Y-66210714D01*
X132121309Y-66210714D01*
X132216547Y-66258333D01*
X132264166Y-66353571D01*
X132264166Y-66877380D01*
X132264166Y-66353571D02*
X132311785Y-66258333D01*
X132407023Y-66210714D01*
X132549880Y-66210714D01*
X132645119Y-66258333D01*
X132692738Y-66353571D01*
X132692738Y-66877380D01*
X133549880Y-66829761D02*
X133454642Y-66877380D01*
X133264166Y-66877380D01*
X133168928Y-66829761D01*
X133121309Y-66734523D01*
X133121309Y-66353571D01*
X133168928Y-66258333D01*
X133264166Y-66210714D01*
X133454642Y-66210714D01*
X133549880Y-66258333D01*
X133597500Y-66353571D01*
X133597500Y-66448809D01*
X133121309Y-66544047D01*
X134026071Y-66210714D02*
X134026071Y-66877380D01*
X134026071Y-66305952D02*
X134073690Y-66258333D01*
X134168928Y-66210714D01*
X134311785Y-66210714D01*
X134407023Y-66258333D01*
X134454642Y-66353571D01*
X134454642Y-66877380D01*
X134787976Y-66210714D02*
X135168928Y-66210714D01*
X134930833Y-65877380D02*
X134930833Y-66734523D01*
X134978452Y-66829761D01*
X135073690Y-66877380D01*
X135168928Y-66877380D01*
X135883214Y-66829761D02*
X135787976Y-66877380D01*
X135597500Y-66877380D01*
X135502261Y-66829761D01*
X135454642Y-66734523D01*
X135454642Y-66353571D01*
X135502261Y-66258333D01*
X135597500Y-66210714D01*
X135787976Y-66210714D01*
X135883214Y-66258333D01*
X135930833Y-66353571D01*
X135930833Y-66448809D01*
X135454642Y-66544047D01*
X136787976Y-66877380D02*
X136787976Y-65877380D01*
X136787976Y-66829761D02*
X136692738Y-66877380D01*
X136502261Y-66877380D01*
X136407023Y-66829761D01*
X136359404Y-66782142D01*
X136311785Y-66686904D01*
X136311785Y-66401190D01*
X136359404Y-66305952D01*
X136407023Y-66258333D01*
X136502261Y-66210714D01*
X136692738Y-66210714D01*
X136787976Y-66258333D01*
X115687976Y-71691666D02*
X116164166Y-71691666D01*
X115592738Y-71977380D02*
X115926071Y-70977380D01*
X116259404Y-71977380D01*
X116592738Y-71977380D02*
X116592738Y-70977380D01*
X116830833Y-70977380D01*
X116973690Y-71025000D01*
X117068928Y-71120238D01*
X117116547Y-71215476D01*
X117164166Y-71405952D01*
X117164166Y-71548809D01*
X117116547Y-71739285D01*
X117068928Y-71834523D01*
X116973690Y-71929761D01*
X116830833Y-71977380D01*
X116592738Y-71977380D01*
X118164166Y-71882142D02*
X118116547Y-71929761D01*
X117973690Y-71977380D01*
X117878452Y-71977380D01*
X117735595Y-71929761D01*
X117640357Y-71834523D01*
X117592738Y-71739285D01*
X117545119Y-71548809D01*
X117545119Y-71405952D01*
X117592738Y-71215476D01*
X117640357Y-71120238D01*
X117735595Y-71025000D01*
X117878452Y-70977380D01*
X117973690Y-70977380D01*
X118116547Y-71025000D01*
X118164166Y-71072619D01*
X118354642Y-72072619D02*
X119116547Y-72072619D01*
X119211785Y-70977380D02*
X119545119Y-71977380D01*
X119878452Y-70977380D01*
X120783214Y-71977380D02*
X120449880Y-71501190D01*
X120211785Y-71977380D02*
X120211785Y-70977380D01*
X120592738Y-70977380D01*
X120687976Y-71025000D01*
X120735595Y-71072619D01*
X120783214Y-71167857D01*
X120783214Y-71310714D01*
X120735595Y-71405952D01*
X120687976Y-71453571D01*
X120592738Y-71501190D01*
X120211785Y-71501190D01*
X121211785Y-71453571D02*
X121545119Y-71453571D01*
X121687976Y-71977380D02*
X121211785Y-71977380D01*
X121211785Y-70977380D01*
X121687976Y-70977380D01*
X122449880Y-71453571D02*
X122116547Y-71453571D01*
X122116547Y-71977380D02*
X122116547Y-70977380D01*
X122592738Y-70977380D01*
X123735595Y-71977380D02*
X123735595Y-71310714D01*
X123735595Y-70977380D02*
X123687976Y-71025000D01*
X123735595Y-71072619D01*
X123783214Y-71025000D01*
X123735595Y-70977380D01*
X123735595Y-71072619D01*
X124164166Y-71929761D02*
X124259404Y-71977380D01*
X124449880Y-71977380D01*
X124545119Y-71929761D01*
X124592738Y-71834523D01*
X124592738Y-71786904D01*
X124545119Y-71691666D01*
X124449880Y-71644047D01*
X124307023Y-71644047D01*
X124211785Y-71596428D01*
X124164166Y-71501190D01*
X124164166Y-71453571D01*
X124211785Y-71358333D01*
X124307023Y-71310714D01*
X124449880Y-71310714D01*
X124545119Y-71358333D01*
X125783214Y-71310714D02*
X125783214Y-71977380D01*
X125783214Y-71405952D02*
X125830833Y-71358333D01*
X125926071Y-71310714D01*
X126068928Y-71310714D01*
X126164166Y-71358333D01*
X126211785Y-71453571D01*
X126211785Y-71977380D01*
X126830833Y-71977380D02*
X126735595Y-71929761D01*
X126687976Y-71882142D01*
X126640357Y-71786904D01*
X126640357Y-71501190D01*
X126687976Y-71405952D01*
X126735595Y-71358333D01*
X126830833Y-71310714D01*
X126973690Y-71310714D01*
X127068928Y-71358333D01*
X127116547Y-71405952D01*
X127164166Y-71501190D01*
X127164166Y-71786904D01*
X127116547Y-71882142D01*
X127068928Y-71929761D01*
X126973690Y-71977380D01*
X126830833Y-71977380D01*
X127449880Y-71310714D02*
X127830833Y-71310714D01*
X127592738Y-70977380D02*
X127592738Y-71834523D01*
X127640357Y-71929761D01*
X127735595Y-71977380D01*
X127830833Y-71977380D01*
X128926071Y-71977380D02*
X128926071Y-71310714D01*
X128926071Y-70977380D02*
X128878452Y-71025000D01*
X128926071Y-71072619D01*
X128973690Y-71025000D01*
X128926071Y-70977380D01*
X128926071Y-71072619D01*
X129402261Y-71977380D02*
X129402261Y-71310714D01*
X129402261Y-71405952D02*
X129449880Y-71358333D01*
X129545119Y-71310714D01*
X129687976Y-71310714D01*
X129783214Y-71358333D01*
X129830833Y-71453571D01*
X129830833Y-71977380D01*
X129830833Y-71453571D02*
X129878452Y-71358333D01*
X129973690Y-71310714D01*
X130116547Y-71310714D01*
X130211785Y-71358333D01*
X130259404Y-71453571D01*
X130259404Y-71977380D01*
X130735595Y-71310714D02*
X130735595Y-72310714D01*
X130735595Y-71358333D02*
X130830833Y-71310714D01*
X131021309Y-71310714D01*
X131116547Y-71358333D01*
X131164166Y-71405952D01*
X131211785Y-71501190D01*
X131211785Y-71786904D01*
X131164166Y-71882142D01*
X131116547Y-71929761D01*
X131021309Y-71977380D01*
X130830833Y-71977380D01*
X130735595Y-71929761D01*
X131783214Y-71977380D02*
X131687976Y-71929761D01*
X131640357Y-71834523D01*
X131640357Y-70977380D01*
X132545119Y-71929761D02*
X132449880Y-71977380D01*
X132259404Y-71977380D01*
X132164166Y-71929761D01*
X132116547Y-71834523D01*
X132116547Y-71453571D01*
X132164166Y-71358333D01*
X132259404Y-71310714D01*
X132449880Y-71310714D01*
X132545119Y-71358333D01*
X132592738Y-71453571D01*
X132592738Y-71548809D01*
X132116547Y-71644047D01*
X133021309Y-71977380D02*
X133021309Y-71310714D01*
X133021309Y-71405952D02*
X133068928Y-71358333D01*
X133164166Y-71310714D01*
X133307023Y-71310714D01*
X133402261Y-71358333D01*
X133449880Y-71453571D01*
X133449880Y-71977380D01*
X133449880Y-71453571D02*
X133497500Y-71358333D01*
X133592738Y-71310714D01*
X133735595Y-71310714D01*
X133830833Y-71358333D01*
X133878452Y-71453571D01*
X133878452Y-71977380D01*
X134735595Y-71929761D02*
X134640357Y-71977380D01*
X134449880Y-71977380D01*
X134354642Y-71929761D01*
X134307023Y-71834523D01*
X134307023Y-71453571D01*
X134354642Y-71358333D01*
X134449880Y-71310714D01*
X134640357Y-71310714D01*
X134735595Y-71358333D01*
X134783214Y-71453571D01*
X134783214Y-71548809D01*
X134307023Y-71644047D01*
X135211785Y-71310714D02*
X135211785Y-71977380D01*
X135211785Y-71405952D02*
X135259404Y-71358333D01*
X135354642Y-71310714D01*
X135497500Y-71310714D01*
X135592738Y-71358333D01*
X135640357Y-71453571D01*
X135640357Y-71977380D01*
X135973690Y-71310714D02*
X136354642Y-71310714D01*
X136116547Y-70977380D02*
X136116547Y-71834523D01*
X136164166Y-71929761D01*
X136259404Y-71977380D01*
X136354642Y-71977380D01*
X137068928Y-71929761D02*
X136973690Y-71977380D01*
X136783214Y-71977380D01*
X136687976Y-71929761D01*
X136640357Y-71834523D01*
X136640357Y-71453571D01*
X136687976Y-71358333D01*
X136783214Y-71310714D01*
X136973690Y-71310714D01*
X137068928Y-71358333D01*
X137116547Y-71453571D01*
X137116547Y-71548809D01*
X136640357Y-71644047D01*
X137973690Y-71977380D02*
X137973690Y-70977380D01*
X137973690Y-71929761D02*
X137878452Y-71977380D01*
X137687976Y-71977380D01*
X137592738Y-71929761D01*
X137545119Y-71882142D01*
X137497500Y-71786904D01*
X137497500Y-71501190D01*
X137545119Y-71405952D01*
X137592738Y-71358333D01*
X137687976Y-71310714D01*
X137878452Y-71310714D01*
X137973690Y-71358333D01*
X127525595Y-45327380D02*
X127525595Y-44327380D01*
X127858928Y-44660714D02*
X128239880Y-44660714D01*
X128001785Y-45327380D02*
X128001785Y-44470238D01*
X128049404Y-44375000D01*
X128144642Y-44327380D01*
X128239880Y-44327380D01*
X129239880Y-44660714D02*
X129477976Y-45327380D01*
X129716071Y-44660714D02*
X129477976Y-45327380D01*
X129382738Y-45565476D01*
X129335119Y-45613095D01*
X129239880Y-45660714D01*
X130239880Y-45327380D02*
X130144642Y-45279761D01*
X130097023Y-45232142D01*
X130049404Y-45136904D01*
X130049404Y-44851190D01*
X130097023Y-44755952D01*
X130144642Y-44708333D01*
X130239880Y-44660714D01*
X130382738Y-44660714D01*
X130477976Y-44708333D01*
X130525595Y-44755952D01*
X130573214Y-44851190D01*
X130573214Y-45136904D01*
X130525595Y-45232142D01*
X130477976Y-45279761D01*
X130382738Y-45327380D01*
X130239880Y-45327380D01*
X131430357Y-44660714D02*
X131430357Y-45327380D01*
X131001785Y-44660714D02*
X131001785Y-45184523D01*
X131049404Y-45279761D01*
X131144642Y-45327380D01*
X131287500Y-45327380D01*
X131382738Y-45279761D01*
X131430357Y-45232142D01*
X132668452Y-45327380D02*
X132668452Y-44660714D01*
X132668452Y-44851190D02*
X132716071Y-44755952D01*
X132763690Y-44708333D01*
X132858928Y-44660714D01*
X132954166Y-44660714D01*
X133668452Y-45279761D02*
X133573214Y-45327380D01*
X133382738Y-45327380D01*
X133287500Y-45279761D01*
X133239880Y-45184523D01*
X133239880Y-44803571D01*
X133287500Y-44708333D01*
X133382738Y-44660714D01*
X133573214Y-44660714D01*
X133668452Y-44708333D01*
X133716071Y-44803571D01*
X133716071Y-44898809D01*
X133239880Y-44994047D01*
X134144642Y-44660714D02*
X134144642Y-45660714D01*
X134144642Y-44708333D02*
X134239880Y-44660714D01*
X134430357Y-44660714D01*
X134525595Y-44708333D01*
X134573214Y-44755952D01*
X134620833Y-44851190D01*
X134620833Y-45136904D01*
X134573214Y-45232142D01*
X134525595Y-45279761D01*
X134430357Y-45327380D01*
X134239880Y-45327380D01*
X134144642Y-45279761D01*
X135192261Y-45327380D02*
X135097023Y-45279761D01*
X135049404Y-45184523D01*
X135049404Y-44327380D01*
X136001785Y-45327380D02*
X136001785Y-44803571D01*
X135954166Y-44708333D01*
X135858928Y-44660714D01*
X135668452Y-44660714D01*
X135573214Y-44708333D01*
X136001785Y-45279761D02*
X135906547Y-45327380D01*
X135668452Y-45327380D01*
X135573214Y-45279761D01*
X135525595Y-45184523D01*
X135525595Y-45089285D01*
X135573214Y-44994047D01*
X135668452Y-44946428D01*
X135906547Y-44946428D01*
X136001785Y-44898809D01*
X136906547Y-45279761D02*
X136811309Y-45327380D01*
X136620833Y-45327380D01*
X136525595Y-45279761D01*
X136477976Y-45232142D01*
X136430357Y-45136904D01*
X136430357Y-44851190D01*
X136477976Y-44755952D01*
X136525595Y-44708333D01*
X136620833Y-44660714D01*
X136811309Y-44660714D01*
X136906547Y-44708333D01*
X137716071Y-45279761D02*
X137620833Y-45327380D01*
X137430357Y-45327380D01*
X137335119Y-45279761D01*
X137287500Y-45184523D01*
X137287500Y-44803571D01*
X137335119Y-44708333D01*
X137430357Y-44660714D01*
X137620833Y-44660714D01*
X137716071Y-44708333D01*
X137763690Y-44803571D01*
X137763690Y-44898809D01*
X137287500Y-44994047D01*
X139382738Y-45279761D02*
X139287500Y-45327380D01*
X139097023Y-45327380D01*
X139001785Y-45279761D01*
X138954166Y-45232142D01*
X138906547Y-45136904D01*
X138906547Y-44851190D01*
X138954166Y-44755952D01*
X139001785Y-44708333D01*
X139097023Y-44660714D01*
X139287500Y-44660714D01*
X139382738Y-44708333D01*
X139954166Y-45327380D02*
X139858928Y-45279761D01*
X139811309Y-45232142D01*
X139763690Y-45136904D01*
X139763690Y-44851190D01*
X139811309Y-44755952D01*
X139858928Y-44708333D01*
X139954166Y-44660714D01*
X140097023Y-44660714D01*
X140192261Y-44708333D01*
X140239880Y-44755952D01*
X140287500Y-44851190D01*
X140287500Y-45136904D01*
X140239880Y-45232142D01*
X140192261Y-45279761D01*
X140097023Y-45327380D01*
X139954166Y-45327380D01*
X140716071Y-45327380D02*
X140716071Y-44660714D01*
X140716071Y-44755952D02*
X140763690Y-44708333D01*
X140858928Y-44660714D01*
X141001785Y-44660714D01*
X141097023Y-44708333D01*
X141144642Y-44803571D01*
X141144642Y-45327380D01*
X141144642Y-44803571D02*
X141192261Y-44708333D01*
X141287500Y-44660714D01*
X141430357Y-44660714D01*
X141525595Y-44708333D01*
X141573214Y-44803571D01*
X141573214Y-45327380D01*
X142049404Y-44660714D02*
X142049404Y-45660714D01*
X142049404Y-44708333D02*
X142144642Y-44660714D01*
X142335119Y-44660714D01*
X142430357Y-44708333D01*
X142477976Y-44755952D01*
X142525595Y-44851190D01*
X142525595Y-45136904D01*
X142477976Y-45232142D01*
X142430357Y-45279761D01*
X142335119Y-45327380D01*
X142144642Y-45327380D01*
X142049404Y-45279761D01*
X143097023Y-45327380D02*
X143001785Y-45279761D01*
X142954166Y-45232142D01*
X142906547Y-45136904D01*
X142906547Y-44851190D01*
X142954166Y-44755952D01*
X143001785Y-44708333D01*
X143097023Y-44660714D01*
X143239880Y-44660714D01*
X143335119Y-44708333D01*
X143382738Y-44755952D01*
X143430357Y-44851190D01*
X143430357Y-45136904D01*
X143382738Y-45232142D01*
X143335119Y-45279761D01*
X143239880Y-45327380D01*
X143097023Y-45327380D01*
X143858928Y-44660714D02*
X143858928Y-45327380D01*
X143858928Y-44755952D02*
X143906547Y-44708333D01*
X144001785Y-44660714D01*
X144144642Y-44660714D01*
X144239880Y-44708333D01*
X144287500Y-44803571D01*
X144287500Y-45327380D01*
X145144642Y-45279761D02*
X145049404Y-45327380D01*
X144858928Y-45327380D01*
X144763690Y-45279761D01*
X144716071Y-45184523D01*
X144716071Y-44803571D01*
X144763690Y-44708333D01*
X144858928Y-44660714D01*
X145049404Y-44660714D01*
X145144642Y-44708333D01*
X145192261Y-44803571D01*
X145192261Y-44898809D01*
X144716071Y-44994047D01*
X145620833Y-44660714D02*
X145620833Y-45327380D01*
X145620833Y-44755952D02*
X145668452Y-44708333D01*
X145763690Y-44660714D01*
X145906547Y-44660714D01*
X146001785Y-44708333D01*
X146049404Y-44803571D01*
X146049404Y-45327380D01*
X146382738Y-44660714D02*
X146763690Y-44660714D01*
X146525595Y-44327380D02*
X146525595Y-45184523D01*
X146573214Y-45279761D01*
X146668452Y-45327380D01*
X146763690Y-45327380D01*
X147049404Y-45279761D02*
X147144642Y-45327380D01*
X147335119Y-45327380D01*
X147430357Y-45279761D01*
X147477976Y-45184523D01*
X147477976Y-45136904D01*
X147430357Y-45041666D01*
X147335119Y-44994047D01*
X147192261Y-44994047D01*
X147097023Y-44946428D01*
X147049404Y-44851190D01*
X147049404Y-44803571D01*
X147097023Y-44708333D01*
X147192261Y-44660714D01*
X147335119Y-44660714D01*
X147430357Y-44708333D01*
X148573214Y-44660714D02*
X148763690Y-45327380D01*
X148954166Y-44851190D01*
X149144642Y-45327380D01*
X149335119Y-44660714D01*
X149716071Y-45327380D02*
X149716071Y-44660714D01*
X149716071Y-44327380D02*
X149668452Y-44375000D01*
X149716071Y-44422619D01*
X149763690Y-44375000D01*
X149716071Y-44327380D01*
X149716071Y-44422619D01*
X150049404Y-44660714D02*
X150430357Y-44660714D01*
X150192261Y-44327380D02*
X150192261Y-45184523D01*
X150239880Y-45279761D01*
X150335119Y-45327380D01*
X150430357Y-45327380D01*
X150763690Y-45327380D02*
X150763690Y-44327380D01*
X151192261Y-45327380D02*
X151192261Y-44803571D01*
X151144642Y-44708333D01*
X151049404Y-44660714D01*
X150906547Y-44660714D01*
X150811309Y-44708333D01*
X150763690Y-44755952D01*
X152382738Y-45279761D02*
X152477976Y-45327380D01*
X152668452Y-45327380D01*
X152763690Y-45279761D01*
X152811309Y-45184523D01*
X152811309Y-45136904D01*
X152763690Y-45041666D01*
X152668452Y-44994047D01*
X152525595Y-44994047D01*
X152430357Y-44946428D01*
X152382738Y-44851190D01*
X152382738Y-44803571D01*
X152430357Y-44708333D01*
X152525595Y-44660714D01*
X152668452Y-44660714D01*
X152763690Y-44708333D01*
X153239880Y-45327380D02*
X153239880Y-44660714D01*
X153239880Y-44755952D02*
X153287500Y-44708333D01*
X153382738Y-44660714D01*
X153525595Y-44660714D01*
X153620833Y-44708333D01*
X153668452Y-44803571D01*
X153668452Y-45327380D01*
X153668452Y-44803571D02*
X153716071Y-44708333D01*
X153811309Y-44660714D01*
X153954166Y-44660714D01*
X154049404Y-44708333D01*
X154097023Y-44803571D01*
X154097023Y-45327380D01*
X155001785Y-45327380D02*
X155001785Y-44803571D01*
X154954166Y-44708333D01*
X154858928Y-44660714D01*
X154668452Y-44660714D01*
X154573214Y-44708333D01*
X155001785Y-45279761D02*
X154906547Y-45327380D01*
X154668452Y-45327380D01*
X154573214Y-45279761D01*
X154525595Y-45184523D01*
X154525595Y-45089285D01*
X154573214Y-44994047D01*
X154668452Y-44946428D01*
X154906547Y-44946428D01*
X155001785Y-44898809D01*
X155620833Y-45327380D02*
X155525595Y-45279761D01*
X155477976Y-45184523D01*
X155477976Y-44327380D01*
X156144642Y-45327380D02*
X156049404Y-45279761D01*
X156001785Y-45184523D01*
X156001785Y-44327380D01*
X156906547Y-45279761D02*
X156811309Y-45327380D01*
X156620833Y-45327380D01*
X156525595Y-45279761D01*
X156477976Y-45184523D01*
X156477976Y-44803571D01*
X156525595Y-44708333D01*
X156620833Y-44660714D01*
X156811309Y-44660714D01*
X156906547Y-44708333D01*
X156954166Y-44803571D01*
X156954166Y-44898809D01*
X156477976Y-44994047D01*
X157382738Y-45327380D02*
X157382738Y-44660714D01*
X157382738Y-44851190D02*
X157430357Y-44755952D01*
X157477976Y-44708333D01*
X157573214Y-44660714D01*
X157668452Y-44660714D01*
X158668452Y-44660714D02*
X158906547Y-45327380D01*
X159144642Y-44660714D01*
X159906547Y-45279761D02*
X159811309Y-45327380D01*
X159620833Y-45327380D01*
X159525595Y-45279761D01*
X159477976Y-45184523D01*
X159477976Y-44803571D01*
X159525595Y-44708333D01*
X159620833Y-44660714D01*
X159811309Y-44660714D01*
X159906547Y-44708333D01*
X159954166Y-44803571D01*
X159954166Y-44898809D01*
X159477976Y-44994047D01*
X160382738Y-45327380D02*
X160382738Y-44660714D01*
X160382738Y-44851190D02*
X160430357Y-44755952D01*
X160477976Y-44708333D01*
X160573214Y-44660714D01*
X160668452Y-44660714D01*
X160954166Y-45279761D02*
X161049404Y-45327380D01*
X161239880Y-45327380D01*
X161335119Y-45279761D01*
X161382738Y-45184523D01*
X161382738Y-45136904D01*
X161335119Y-45041666D01*
X161239880Y-44994047D01*
X161097023Y-44994047D01*
X161001785Y-44946428D01*
X160954166Y-44851190D01*
X160954166Y-44803571D01*
X161001785Y-44708333D01*
X161097023Y-44660714D01*
X161239880Y-44660714D01*
X161335119Y-44708333D01*
X161811309Y-45327380D02*
X161811309Y-44660714D01*
X161811309Y-44327380D02*
X161763690Y-44375000D01*
X161811309Y-44422619D01*
X161858928Y-44375000D01*
X161811309Y-44327380D01*
X161811309Y-44422619D01*
X162430357Y-45327380D02*
X162335119Y-45279761D01*
X162287500Y-45232142D01*
X162239880Y-45136904D01*
X162239880Y-44851190D01*
X162287500Y-44755952D01*
X162335119Y-44708333D01*
X162430357Y-44660714D01*
X162573214Y-44660714D01*
X162668452Y-44708333D01*
X162716071Y-44755952D01*
X162763690Y-44851190D01*
X162763690Y-45136904D01*
X162716071Y-45232142D01*
X162668452Y-45279761D01*
X162573214Y-45327380D01*
X162430357Y-45327380D01*
X163192261Y-44660714D02*
X163192261Y-45327380D01*
X163192261Y-44755952D02*
X163239880Y-44708333D01*
X163335119Y-44660714D01*
X163477976Y-44660714D01*
X163573214Y-44708333D01*
X163620833Y-44803571D01*
X163620833Y-45327380D01*
X164049404Y-45279761D02*
X164144642Y-45327380D01*
X164335119Y-45327380D01*
X164430357Y-45279761D01*
X164477976Y-45184523D01*
X164477976Y-45136904D01*
X164430357Y-45041666D01*
X164335119Y-44994047D01*
X164192261Y-44994047D01*
X164097023Y-44946428D01*
X164049404Y-44851190D01*
X164049404Y-44803571D01*
X164097023Y-44708333D01*
X164192261Y-44660714D01*
X164335119Y-44660714D01*
X164430357Y-44708333D01*
X127525595Y-46310714D02*
X127525595Y-47310714D01*
X127525595Y-46358333D02*
X127620833Y-46310714D01*
X127811309Y-46310714D01*
X127906547Y-46358333D01*
X127954166Y-46405952D01*
X128001785Y-46501190D01*
X128001785Y-46786904D01*
X127954166Y-46882142D01*
X127906547Y-46929761D01*
X127811309Y-46977380D01*
X127620833Y-46977380D01*
X127525595Y-46929761D01*
X128573214Y-46977380D02*
X128477976Y-46929761D01*
X128430357Y-46834523D01*
X128430357Y-45977380D01*
X129335119Y-46929761D02*
X129239880Y-46977380D01*
X129049404Y-46977380D01*
X128954166Y-46929761D01*
X128906547Y-46834523D01*
X128906547Y-46453571D01*
X128954166Y-46358333D01*
X129049404Y-46310714D01*
X129239880Y-46310714D01*
X129335119Y-46358333D01*
X129382738Y-46453571D01*
X129382738Y-46548809D01*
X128906547Y-46644047D01*
X130239880Y-46977380D02*
X130239880Y-46453571D01*
X130192261Y-46358333D01*
X130097023Y-46310714D01*
X129906547Y-46310714D01*
X129811309Y-46358333D01*
X130239880Y-46929761D02*
X130144642Y-46977380D01*
X129906547Y-46977380D01*
X129811309Y-46929761D01*
X129763690Y-46834523D01*
X129763690Y-46739285D01*
X129811309Y-46644047D01*
X129906547Y-46596428D01*
X130144642Y-46596428D01*
X130239880Y-46548809D01*
X130668452Y-46929761D02*
X130763690Y-46977380D01*
X130954166Y-46977380D01*
X131049404Y-46929761D01*
X131097023Y-46834523D01*
X131097023Y-46786904D01*
X131049404Y-46691666D01*
X130954166Y-46644047D01*
X130811309Y-46644047D01*
X130716071Y-46596428D01*
X130668452Y-46501190D01*
X130668452Y-46453571D01*
X130716071Y-46358333D01*
X130811309Y-46310714D01*
X130954166Y-46310714D01*
X131049404Y-46358333D01*
X131906547Y-46929761D02*
X131811309Y-46977380D01*
X131620833Y-46977380D01*
X131525595Y-46929761D01*
X131477976Y-46834523D01*
X131477976Y-46453571D01*
X131525595Y-46358333D01*
X131620833Y-46310714D01*
X131811309Y-46310714D01*
X131906547Y-46358333D01*
X131954166Y-46453571D01*
X131954166Y-46548809D01*
X131477976Y-46644047D01*
X133525595Y-46929761D02*
X133430357Y-46977380D01*
X133239880Y-46977380D01*
X133144642Y-46929761D01*
X133097023Y-46834523D01*
X133097023Y-46453571D01*
X133144642Y-46358333D01*
X133239880Y-46310714D01*
X133430357Y-46310714D01*
X133525595Y-46358333D01*
X133573214Y-46453571D01*
X133573214Y-46548809D01*
X133097023Y-46644047D01*
X134001785Y-46310714D02*
X134001785Y-46977380D01*
X134001785Y-46405952D02*
X134049404Y-46358333D01*
X134144642Y-46310714D01*
X134287500Y-46310714D01*
X134382738Y-46358333D01*
X134430357Y-46453571D01*
X134430357Y-46977380D01*
X134858928Y-46929761D02*
X134954166Y-46977380D01*
X135144642Y-46977380D01*
X135239880Y-46929761D01*
X135287500Y-46834523D01*
X135287500Y-46786904D01*
X135239880Y-46691666D01*
X135144642Y-46644047D01*
X135001785Y-46644047D01*
X134906547Y-46596428D01*
X134858928Y-46501190D01*
X134858928Y-46453571D01*
X134906547Y-46358333D01*
X135001785Y-46310714D01*
X135144642Y-46310714D01*
X135239880Y-46358333D01*
X136144642Y-46310714D02*
X136144642Y-46977380D01*
X135716071Y-46310714D02*
X135716071Y-46834523D01*
X135763690Y-46929761D01*
X135858928Y-46977380D01*
X136001785Y-46977380D01*
X136097023Y-46929761D01*
X136144642Y-46882142D01*
X136620833Y-46977380D02*
X136620833Y-46310714D01*
X136620833Y-46501190D02*
X136668452Y-46405952D01*
X136716071Y-46358333D01*
X136811309Y-46310714D01*
X136906547Y-46310714D01*
X137620833Y-46929761D02*
X137525595Y-46977380D01*
X137335119Y-46977380D01*
X137239880Y-46929761D01*
X137192261Y-46834523D01*
X137192261Y-46453571D01*
X137239880Y-46358333D01*
X137335119Y-46310714D01*
X137525595Y-46310714D01*
X137620833Y-46358333D01*
X137668452Y-46453571D01*
X137668452Y-46548809D01*
X137192261Y-46644047D01*
X138716071Y-46310714D02*
X139097023Y-46310714D01*
X138858928Y-45977380D02*
X138858928Y-46834523D01*
X138906547Y-46929761D01*
X139001785Y-46977380D01*
X139097023Y-46977380D01*
X139430357Y-46977380D02*
X139430357Y-45977380D01*
X139858928Y-46977380D02*
X139858928Y-46453571D01*
X139811309Y-46358333D01*
X139716071Y-46310714D01*
X139573214Y-46310714D01*
X139477976Y-46358333D01*
X139430357Y-46405952D01*
X140716071Y-46929761D02*
X140620833Y-46977380D01*
X140430357Y-46977380D01*
X140335119Y-46929761D01*
X140287500Y-46834523D01*
X140287500Y-46453571D01*
X140335119Y-46358333D01*
X140430357Y-46310714D01*
X140620833Y-46310714D01*
X140716071Y-46358333D01*
X140763690Y-46453571D01*
X140763690Y-46548809D01*
X140287500Y-46644047D01*
X141097023Y-46310714D02*
X141335119Y-46977380D01*
X141573214Y-46310714D02*
X141335119Y-46977380D01*
X141239880Y-47215476D01*
X141192261Y-47263095D01*
X141097023Y-47310714D01*
X143144642Y-46977380D02*
X143144642Y-46453571D01*
X143097023Y-46358333D01*
X143001785Y-46310714D01*
X142811309Y-46310714D01*
X142716071Y-46358333D01*
X143144642Y-46929761D02*
X143049404Y-46977380D01*
X142811309Y-46977380D01*
X142716071Y-46929761D01*
X142668452Y-46834523D01*
X142668452Y-46739285D01*
X142716071Y-46644047D01*
X142811309Y-46596428D01*
X143049404Y-46596428D01*
X143144642Y-46548809D01*
X143620833Y-46977380D02*
X143620833Y-46310714D01*
X143620833Y-46501190D02*
X143668452Y-46405952D01*
X143716071Y-46358333D01*
X143811309Y-46310714D01*
X143906547Y-46310714D01*
X144620833Y-46929761D02*
X144525595Y-46977380D01*
X144335119Y-46977380D01*
X144239880Y-46929761D01*
X144192261Y-46834523D01*
X144192261Y-46453571D01*
X144239880Y-46358333D01*
X144335119Y-46310714D01*
X144525595Y-46310714D01*
X144620833Y-46358333D01*
X144668452Y-46453571D01*
X144668452Y-46548809D01*
X144192261Y-46644047D01*
X146287500Y-46977380D02*
X146287500Y-46453571D01*
X146239880Y-46358333D01*
X146144642Y-46310714D01*
X145954166Y-46310714D01*
X145858928Y-46358333D01*
X146287500Y-46929761D02*
X146192261Y-46977380D01*
X145954166Y-46977380D01*
X145858928Y-46929761D01*
X145811309Y-46834523D01*
X145811309Y-46739285D01*
X145858928Y-46644047D01*
X145954166Y-46596428D01*
X146192261Y-46596428D01*
X146287500Y-46548809D01*
X146668452Y-46310714D02*
X146906547Y-46977380D01*
X147144642Y-46310714D01*
X147954166Y-46977380D02*
X147954166Y-46453571D01*
X147906547Y-46358333D01*
X147811309Y-46310714D01*
X147620833Y-46310714D01*
X147525595Y-46358333D01*
X147954166Y-46929761D02*
X147858928Y-46977380D01*
X147620833Y-46977380D01*
X147525595Y-46929761D01*
X147477976Y-46834523D01*
X147477976Y-46739285D01*
X147525595Y-46644047D01*
X147620833Y-46596428D01*
X147858928Y-46596428D01*
X147954166Y-46548809D01*
X148573214Y-46977380D02*
X148477976Y-46929761D01*
X148430357Y-46834523D01*
X148430357Y-45977380D01*
X148954166Y-46977380D02*
X148954166Y-46310714D01*
X148954166Y-45977380D02*
X148906547Y-46025000D01*
X148954166Y-46072619D01*
X149001785Y-46025000D01*
X148954166Y-45977380D01*
X148954166Y-46072619D01*
X149430357Y-46977380D02*
X149430357Y-45977380D01*
X149430357Y-46358333D02*
X149525595Y-46310714D01*
X149716071Y-46310714D01*
X149811309Y-46358333D01*
X149858928Y-46405952D01*
X149906547Y-46501190D01*
X149906547Y-46786904D01*
X149858928Y-46882142D01*
X149811309Y-46929761D01*
X149716071Y-46977380D01*
X149525595Y-46977380D01*
X149430357Y-46929761D01*
X150763690Y-46977380D02*
X150763690Y-46453571D01*
X150716071Y-46358333D01*
X150620833Y-46310714D01*
X150430357Y-46310714D01*
X150335119Y-46358333D01*
X150763690Y-46929761D02*
X150668452Y-46977380D01*
X150430357Y-46977380D01*
X150335119Y-46929761D01*
X150287500Y-46834523D01*
X150287500Y-46739285D01*
X150335119Y-46644047D01*
X150430357Y-46596428D01*
X150668452Y-46596428D01*
X150763690Y-46548809D01*
X151382738Y-46977380D02*
X151287500Y-46929761D01*
X151239880Y-46834523D01*
X151239880Y-45977380D01*
X152144642Y-46929761D02*
X152049404Y-46977380D01*
X151858928Y-46977380D01*
X151763690Y-46929761D01*
X151716071Y-46834523D01*
X151716071Y-46453571D01*
X151763690Y-46358333D01*
X151858928Y-46310714D01*
X152049404Y-46310714D01*
X152144642Y-46358333D01*
X152192261Y-46453571D01*
X152192261Y-46548809D01*
X151716071Y-46644047D01*
X153287500Y-46310714D02*
X153525595Y-46977380D01*
X153763690Y-46310714D01*
X154144642Y-46977380D02*
X154144642Y-46310714D01*
X154144642Y-45977380D02*
X154097023Y-46025000D01*
X154144642Y-46072619D01*
X154192261Y-46025000D01*
X154144642Y-45977380D01*
X154144642Y-46072619D01*
X155049404Y-46977380D02*
X155049404Y-46453571D01*
X155001785Y-46358333D01*
X154906547Y-46310714D01*
X154716071Y-46310714D01*
X154620833Y-46358333D01*
X155049404Y-46929761D02*
X154954166Y-46977380D01*
X154716071Y-46977380D01*
X154620833Y-46929761D01*
X154573214Y-46834523D01*
X154573214Y-46739285D01*
X154620833Y-46644047D01*
X154716071Y-46596428D01*
X154954166Y-46596428D01*
X155049404Y-46548809D01*
X156573214Y-45977380D02*
X156573214Y-46691666D01*
X156525595Y-46834523D01*
X156430357Y-46929761D01*
X156287500Y-46977380D01*
X156192261Y-46977380D01*
X157525595Y-46977380D02*
X157049404Y-46977380D01*
X157049404Y-45977380D01*
X158430357Y-46882142D02*
X158382738Y-46929761D01*
X158239880Y-46977380D01*
X158144642Y-46977380D01*
X158001785Y-46929761D01*
X157906547Y-46834523D01*
X157858928Y-46739285D01*
X157811309Y-46548809D01*
X157811309Y-46405952D01*
X157858928Y-46215476D01*
X157906547Y-46120238D01*
X158001785Y-46025000D01*
X158144642Y-45977380D01*
X158239880Y-45977380D01*
X158382738Y-46025000D01*
X158430357Y-46072619D01*
X158858928Y-46977380D02*
X158858928Y-45977380D01*
X159239880Y-45977380D01*
X159335119Y-46025000D01*
X159382738Y-46072619D01*
X159430357Y-46167857D01*
X159430357Y-46310714D01*
X159382738Y-46405952D01*
X159335119Y-46453571D01*
X159239880Y-46501190D01*
X158858928Y-46501190D01*
X160430357Y-46882142D02*
X160382738Y-46929761D01*
X160239880Y-46977380D01*
X160144642Y-46977380D01*
X160001785Y-46929761D01*
X159906547Y-46834523D01*
X159858928Y-46739285D01*
X159811309Y-46548809D01*
X159811309Y-46405952D01*
X159858928Y-46215476D01*
X159906547Y-46120238D01*
X160001785Y-46025000D01*
X160144642Y-45977380D01*
X160239880Y-45977380D01*
X160382738Y-46025000D01*
X160430357Y-46072619D01*
X161192261Y-46453571D02*
X161335119Y-46501190D01*
X161382738Y-46548809D01*
X161430357Y-46644047D01*
X161430357Y-46786904D01*
X161382738Y-46882142D01*
X161335119Y-46929761D01*
X161239880Y-46977380D01*
X160858928Y-46977380D01*
X160858928Y-45977380D01*
X161192261Y-45977380D01*
X161287500Y-46025000D01*
X161335119Y-46072619D01*
X161382738Y-46167857D01*
X161382738Y-46263095D01*
X161335119Y-46358333D01*
X161287500Y-46405952D01*
X161192261Y-46453571D01*
X160858928Y-46453571D01*
X162477976Y-46310714D02*
X162858928Y-46310714D01*
X162620833Y-46977380D02*
X162620833Y-46120238D01*
X162668452Y-46025000D01*
X162763690Y-45977380D01*
X162858928Y-45977380D01*
X163335119Y-46977380D02*
X163239880Y-46929761D01*
X163192261Y-46882142D01*
X163144642Y-46786904D01*
X163144642Y-46501190D01*
X163192261Y-46405952D01*
X163239880Y-46358333D01*
X163335119Y-46310714D01*
X163477976Y-46310714D01*
X163573214Y-46358333D01*
X163620833Y-46405952D01*
X163668452Y-46501190D01*
X163668452Y-46786904D01*
X163620833Y-46882142D01*
X163573214Y-46929761D01*
X163477976Y-46977380D01*
X163335119Y-46977380D01*
X164097023Y-46977380D02*
X164097023Y-46310714D01*
X164097023Y-46501190D02*
X164144642Y-46405952D01*
X164192261Y-46358333D01*
X164287499Y-46310714D01*
X164382738Y-46310714D01*
X127477976Y-48579761D02*
X127620833Y-48627380D01*
X127858928Y-48627380D01*
X127954166Y-48579761D01*
X128001785Y-48532142D01*
X128049404Y-48436904D01*
X128049404Y-48341666D01*
X128001785Y-48246428D01*
X127954166Y-48198809D01*
X127858928Y-48151190D01*
X127668452Y-48103571D01*
X127573214Y-48055952D01*
X127525595Y-48008333D01*
X127477976Y-47913095D01*
X127477976Y-47817857D01*
X127525595Y-47722619D01*
X127573214Y-47675000D01*
X127668452Y-47627380D01*
X127906547Y-47627380D01*
X128049404Y-47675000D01*
X128477976Y-48627380D02*
X128477976Y-47627380D01*
X128811309Y-48341666D01*
X129144642Y-47627380D01*
X129144642Y-48627380D01*
X129620833Y-48627380D02*
X129620833Y-47627380D01*
X129858928Y-47627380D01*
X130001785Y-47675000D01*
X130097023Y-47770238D01*
X130144642Y-47865476D01*
X130192261Y-48055952D01*
X130192261Y-48198809D01*
X130144642Y-48389285D01*
X130097023Y-48484523D01*
X130001785Y-48579761D01*
X129858928Y-48627380D01*
X129620833Y-48627380D01*
X131382738Y-48627380D02*
X131382738Y-47960714D01*
X131382738Y-47627380D02*
X131335119Y-47675000D01*
X131382738Y-47722619D01*
X131430357Y-47675000D01*
X131382738Y-47627380D01*
X131382738Y-47722619D01*
X131858928Y-47960714D02*
X131858928Y-48627380D01*
X131858928Y-48055952D02*
X131906547Y-48008333D01*
X132001785Y-47960714D01*
X132144642Y-47960714D01*
X132239880Y-48008333D01*
X132287500Y-48103571D01*
X132287500Y-48627380D01*
X132716071Y-48579761D02*
X132811309Y-48627380D01*
X133001785Y-48627380D01*
X133097023Y-48579761D01*
X133144642Y-48484523D01*
X133144642Y-48436904D01*
X133097023Y-48341666D01*
X133001785Y-48294047D01*
X132858928Y-48294047D01*
X132763690Y-48246428D01*
X132716071Y-48151190D01*
X132716071Y-48103571D01*
X132763690Y-48008333D01*
X132858928Y-47960714D01*
X133001785Y-47960714D01*
X133097023Y-48008333D01*
X133430357Y-47960714D02*
X133811309Y-47960714D01*
X133573214Y-47627380D02*
X133573214Y-48484523D01*
X133620833Y-48579761D01*
X133716071Y-48627380D01*
X133811309Y-48627380D01*
X134573214Y-48627380D02*
X134573214Y-48103571D01*
X134525595Y-48008333D01*
X134430357Y-47960714D01*
X134239880Y-47960714D01*
X134144642Y-48008333D01*
X134573214Y-48579761D02*
X134477976Y-48627380D01*
X134239880Y-48627380D01*
X134144642Y-48579761D01*
X134097023Y-48484523D01*
X134097023Y-48389285D01*
X134144642Y-48294047D01*
X134239880Y-48246428D01*
X134477976Y-48246428D01*
X134573214Y-48198809D01*
X135192261Y-48627380D02*
X135097023Y-48579761D01*
X135049404Y-48484523D01*
X135049404Y-47627380D01*
X135716071Y-48627380D02*
X135620833Y-48579761D01*
X135573214Y-48484523D01*
X135573214Y-47627380D01*
X136525595Y-48627380D02*
X136525595Y-48103571D01*
X136477976Y-48008333D01*
X136382738Y-47960714D01*
X136192261Y-47960714D01*
X136097023Y-48008333D01*
X136525595Y-48579761D02*
X136430357Y-48627380D01*
X136192261Y-48627380D01*
X136097023Y-48579761D01*
X136049404Y-48484523D01*
X136049404Y-48389285D01*
X136097023Y-48294047D01*
X136192261Y-48246428D01*
X136430357Y-48246428D01*
X136525595Y-48198809D01*
X136858928Y-47960714D02*
X137239880Y-47960714D01*
X137001785Y-47627380D02*
X137001785Y-48484523D01*
X137049404Y-48579761D01*
X137144642Y-48627380D01*
X137239880Y-48627380D01*
X137573214Y-48627380D02*
X137573214Y-47960714D01*
X137573214Y-47627380D02*
X137525595Y-47675000D01*
X137573214Y-47722619D01*
X137620833Y-47675000D01*
X137573214Y-47627380D01*
X137573214Y-47722619D01*
X138192261Y-48627380D02*
X138097023Y-48579761D01*
X138049404Y-48532142D01*
X138001785Y-48436904D01*
X138001785Y-48151190D01*
X138049404Y-48055952D01*
X138097023Y-48008333D01*
X138192261Y-47960714D01*
X138335119Y-47960714D01*
X138430357Y-48008333D01*
X138477976Y-48055952D01*
X138525595Y-48151190D01*
X138525595Y-48436904D01*
X138477976Y-48532142D01*
X138430357Y-48579761D01*
X138335119Y-48627380D01*
X138192261Y-48627380D01*
X138954166Y-47960714D02*
X138954166Y-48627380D01*
X138954166Y-48055952D02*
X139001785Y-48008333D01*
X139097023Y-47960714D01*
X139239880Y-47960714D01*
X139335119Y-48008333D01*
X139382738Y-48103571D01*
X139382738Y-48627380D01*
X116526666Y-38087380D02*
X116526666Y-37087380D01*
X116764761Y-37087380D01*
X116907619Y-37135000D01*
X117002857Y-37230238D01*
X117050476Y-37325476D01*
X117098095Y-37515952D01*
X117098095Y-37658809D01*
X117050476Y-37849285D01*
X117002857Y-37944523D01*
X116907619Y-38039761D01*
X116764761Y-38087380D01*
X116526666Y-38087380D01*
X117717142Y-37087380D02*
X117907619Y-37087380D01*
X118002857Y-37135000D01*
X118098095Y-37230238D01*
X118145714Y-37420714D01*
X118145714Y-37754047D01*
X118098095Y-37944523D01*
X118002857Y-38039761D01*
X117907619Y-38087380D01*
X117717142Y-38087380D01*
X117621904Y-38039761D01*
X117526666Y-37944523D01*
X117479047Y-37754047D01*
X117479047Y-37420714D01*
X117526666Y-37230238D01*
X117621904Y-37135000D01*
X117717142Y-37087380D01*
X119336190Y-38087380D02*
X119336190Y-37087380D01*
X119907619Y-38087380D01*
X119907619Y-37087380D01*
X120574285Y-37087380D02*
X120764761Y-37087380D01*
X120860000Y-37135000D01*
X120955238Y-37230238D01*
X121002857Y-37420714D01*
X121002857Y-37754047D01*
X120955238Y-37944523D01*
X120860000Y-38039761D01*
X120764761Y-38087380D01*
X120574285Y-38087380D01*
X120479047Y-38039761D01*
X120383809Y-37944523D01*
X120336190Y-37754047D01*
X120336190Y-37420714D01*
X120383809Y-37230238D01*
X120479047Y-37135000D01*
X120574285Y-37087380D01*
X121288571Y-37087380D02*
X121860000Y-37087380D01*
X121574285Y-38087380D02*
X121574285Y-37087380D01*
X123526666Y-37992142D02*
X123479047Y-38039761D01*
X123336190Y-38087380D01*
X123240952Y-38087380D01*
X123098095Y-38039761D01*
X123002857Y-37944523D01*
X122955238Y-37849285D01*
X122907619Y-37658809D01*
X122907619Y-37515952D01*
X122955238Y-37325476D01*
X123002857Y-37230238D01*
X123098095Y-37135000D01*
X123240952Y-37087380D01*
X123336190Y-37087380D01*
X123479047Y-37135000D01*
X123526666Y-37182619D01*
X123955238Y-38087380D02*
X123955238Y-37087380D01*
X123955238Y-37563571D02*
X124526666Y-37563571D01*
X124526666Y-38087380D02*
X124526666Y-37087380D01*
X124955238Y-37801666D02*
X125431428Y-37801666D01*
X124860000Y-38087380D02*
X125193333Y-37087380D01*
X125526666Y-38087380D01*
X125860000Y-38087380D02*
X125860000Y-37087380D01*
X126431428Y-38087380D01*
X126431428Y-37087380D01*
X127431428Y-37135000D02*
X127336190Y-37087380D01*
X127193333Y-37087380D01*
X127050476Y-37135000D01*
X126955238Y-37230238D01*
X126907619Y-37325476D01*
X126860000Y-37515952D01*
X126860000Y-37658809D01*
X126907619Y-37849285D01*
X126955238Y-37944523D01*
X127050476Y-38039761D01*
X127193333Y-38087380D01*
X127288571Y-38087380D01*
X127431428Y-38039761D01*
X127479047Y-37992142D01*
X127479047Y-37658809D01*
X127288571Y-37658809D01*
X127907619Y-37563571D02*
X128240952Y-37563571D01*
X128383809Y-38087380D02*
X127907619Y-38087380D01*
X127907619Y-37087380D01*
X128383809Y-37087380D01*
X129431428Y-37087380D02*
X130002857Y-37087380D01*
X129717142Y-38087380D02*
X129717142Y-37087380D01*
X130336190Y-38087380D02*
X130336190Y-37087380D01*
X130336190Y-37563571D02*
X130907619Y-37563571D01*
X130907619Y-38087380D02*
X130907619Y-37087380D01*
X131383809Y-37563571D02*
X131717142Y-37563571D01*
X131860000Y-38087380D02*
X131383809Y-38087380D01*
X131383809Y-37087380D01*
X131860000Y-37087380D01*
X133002857Y-38039761D02*
X133145714Y-38087380D01*
X133383809Y-38087380D01*
X133479047Y-38039761D01*
X133526666Y-37992142D01*
X133574285Y-37896904D01*
X133574285Y-37801666D01*
X133526666Y-37706428D01*
X133479047Y-37658809D01*
X133383809Y-37611190D01*
X133193333Y-37563571D01*
X133098095Y-37515952D01*
X133050476Y-37468333D01*
X133002857Y-37373095D01*
X133002857Y-37277857D01*
X133050476Y-37182619D01*
X133098095Y-37135000D01*
X133193333Y-37087380D01*
X133431428Y-37087380D01*
X133574285Y-37135000D01*
X134002857Y-38087380D02*
X134002857Y-37087380D01*
X134383809Y-37087380D02*
X135050476Y-37087380D01*
X134383809Y-38087380D01*
X135050476Y-38087380D01*
X135431428Y-37563571D02*
X135764761Y-37563571D01*
X135907619Y-38087380D02*
X135431428Y-38087380D01*
X135431428Y-37087380D01*
X135907619Y-37087380D01*
X137288571Y-37087380D02*
X137479047Y-37087380D01*
X137574285Y-37135000D01*
X137669523Y-37230238D01*
X137717142Y-37420714D01*
X137717142Y-37754047D01*
X137669523Y-37944523D01*
X137574285Y-38039761D01*
X137479047Y-38087380D01*
X137288571Y-38087380D01*
X137193333Y-38039761D01*
X137098095Y-37944523D01*
X137050476Y-37754047D01*
X137050476Y-37420714D01*
X137098095Y-37230238D01*
X137193333Y-37135000D01*
X137288571Y-37087380D01*
X138479047Y-37563571D02*
X138145714Y-37563571D01*
X138145714Y-38087380D02*
X138145714Y-37087380D01*
X138621904Y-37087380D01*
X139621904Y-37087380D02*
X140193333Y-37087380D01*
X139907619Y-38087380D02*
X139907619Y-37087380D01*
X140526666Y-38087380D02*
X140526666Y-37087380D01*
X140526666Y-37563571D02*
X141098095Y-37563571D01*
X141098095Y-38087380D02*
X141098095Y-37087380D01*
X141574285Y-37563571D02*
X141907619Y-37563571D01*
X142050476Y-38087380D02*
X141574285Y-38087380D01*
X141574285Y-37087380D01*
X142050476Y-37087380D01*
X143240952Y-38087380D02*
X143240952Y-37087380D01*
X143621904Y-37087380D01*
X143717142Y-37135000D01*
X143764761Y-37182619D01*
X143812380Y-37277857D01*
X143812380Y-37420714D01*
X143764761Y-37515952D01*
X143717142Y-37563571D01*
X143621904Y-37611190D01*
X143240952Y-37611190D01*
X144812380Y-37992142D02*
X144764761Y-38039761D01*
X144621904Y-38087380D01*
X144526666Y-38087380D01*
X144383809Y-38039761D01*
X144288571Y-37944523D01*
X144240952Y-37849285D01*
X144193333Y-37658809D01*
X144193333Y-37515952D01*
X144240952Y-37325476D01*
X144288571Y-37230238D01*
X144383809Y-37135000D01*
X144526666Y-37087380D01*
X144621904Y-37087380D01*
X144764761Y-37135000D01*
X144812380Y-37182619D01*
X145574285Y-37563571D02*
X145717142Y-37611190D01*
X145764761Y-37658809D01*
X145812380Y-37754047D01*
X145812380Y-37896904D01*
X145764761Y-37992142D01*
X145717142Y-38039761D01*
X145621904Y-38087380D01*
X145240952Y-38087380D01*
X145240952Y-37087380D01*
X145574285Y-37087380D01*
X145669523Y-37135000D01*
X145717142Y-37182619D01*
X145764761Y-37277857D01*
X145764761Y-37373095D01*
X145717142Y-37468333D01*
X145669523Y-37515952D01*
X145574285Y-37563571D01*
X145240952Y-37563571D01*
X147193333Y-37087380D02*
X147383809Y-37087380D01*
X147479047Y-37135000D01*
X147574285Y-37230238D01*
X147621904Y-37420714D01*
X147621904Y-37754047D01*
X147574285Y-37944523D01*
X147479047Y-38039761D01*
X147383809Y-38087380D01*
X147193333Y-38087380D01*
X147098095Y-38039761D01*
X147002857Y-37944523D01*
X146955238Y-37754047D01*
X146955238Y-37420714D01*
X147002857Y-37230238D01*
X147098095Y-37135000D01*
X147193333Y-37087380D01*
X148621904Y-38087380D02*
X148288571Y-37611190D01*
X148050476Y-38087380D02*
X148050476Y-37087380D01*
X148431428Y-37087380D01*
X148526666Y-37135000D01*
X148574285Y-37182619D01*
X148621904Y-37277857D01*
X148621904Y-37420714D01*
X148574285Y-37515952D01*
X148526666Y-37563571D01*
X148431428Y-37611190D01*
X148050476Y-37611190D01*
X149669523Y-37087380D02*
X150240952Y-37087380D01*
X149955238Y-38087380D02*
X149955238Y-37087380D01*
X150574285Y-38087380D02*
X150574285Y-37087380D01*
X150574285Y-37563571D02*
X151145714Y-37563571D01*
X151145714Y-38087380D02*
X151145714Y-37087380D01*
X151621904Y-37563571D02*
X151955238Y-37563571D01*
X152098095Y-38087380D02*
X151621904Y-38087380D01*
X151621904Y-37087380D01*
X152098095Y-37087380D01*
X153288571Y-38087380D02*
X153288571Y-37087380D01*
X153669523Y-37087380D01*
X153764761Y-37135000D01*
X153812380Y-37182619D01*
X153860000Y-37277857D01*
X153860000Y-37420714D01*
X153812380Y-37515952D01*
X153764761Y-37563571D01*
X153669523Y-37611190D01*
X153288571Y-37611190D01*
X154288571Y-38087380D02*
X154288571Y-37087380D01*
X154764761Y-38087380D02*
X154764761Y-37087380D01*
X155336190Y-38087380D01*
X155336190Y-37087380D01*
X156002857Y-37087380D02*
X156193333Y-37087380D01*
X156288571Y-37135000D01*
X156383809Y-37230238D01*
X156431428Y-37420714D01*
X156431428Y-37754047D01*
X156383809Y-37944523D01*
X156288571Y-38039761D01*
X156193333Y-38087380D01*
X156002857Y-38087380D01*
X155907619Y-38039761D01*
X155812380Y-37944523D01*
X155764761Y-37754047D01*
X155764761Y-37420714D01*
X155812380Y-37230238D01*
X155907619Y-37135000D01*
X156002857Y-37087380D01*
X156860000Y-37087380D02*
X156860000Y-37896904D01*
X156907619Y-37992142D01*
X156955238Y-38039761D01*
X157050476Y-38087380D01*
X157240952Y-38087380D01*
X157336190Y-38039761D01*
X157383809Y-37992142D01*
X157431428Y-37896904D01*
X157431428Y-37087380D01*
X157764761Y-37087380D02*
X158336190Y-37087380D01*
X158050476Y-38087380D02*
X158050476Y-37087380D01*
X112300000Y-58925000D02*
G75*
G03*
X112300000Y-58925000I-2200000J0D01*
G01*
X99550000Y-58925000D02*
G75*
G03*
X99550000Y-58925000I-2200000J0D01*
G01*
X111600000Y-106825000D02*
G75*
G03*
X111600000Y-106825000I-2200000J0D01*
G01*
X100200000Y-106825000D02*
G75*
G03*
X100200000Y-106825000I-2200000J0D01*
G01*
M02*
