G04 #@! TF.GenerationSoftware,KiCad,Pcbnew,(5.1.10)-1*
G04 #@! TF.CreationDate,2021-06-30T21:37:18+01:00*
G04 #@! TF.ProjectId,EnvOpenPico,456e764f-7065-46e5-9069-636f2e6b6963,REV1*
G04 #@! TF.SameCoordinates,Original*
G04 #@! TF.FileFunction,Legend,Top*
G04 #@! TF.FilePolarity,Positive*
%FSLAX46Y46*%
G04 Gerber Fmt 4.6, Leading zero omitted, Abs format (unit mm)*
G04 Created by KiCad (PCBNEW (5.1.10)-1) date 2021-06-30 21:37:18*
%MOMM*%
%LPD*%
G01*
G04 APERTURE LIST*
%ADD10C,0.150000*%
%ADD11C,0.100000*%
%ADD12C,0.153000*%
%ADD13C,0.250000*%
%ADD14C,0.120000*%
%ADD15O,1.802000X1.802000*%
%ADD16C,1.802000*%
%ADD17C,0.752000*%
G04 APERTURE END LIST*
D10*
X97707023Y-102927380D02*
X97373690Y-102451190D01*
X97135595Y-102927380D02*
X97135595Y-101927380D01*
X97516547Y-101927380D01*
X97611785Y-101975000D01*
X97659404Y-102022619D01*
X97707023Y-102117857D01*
X97707023Y-102260714D01*
X97659404Y-102355952D01*
X97611785Y-102403571D01*
X97516547Y-102451190D01*
X97135595Y-102451190D01*
X98135595Y-102403571D02*
X98468928Y-102403571D01*
X98611785Y-102927380D02*
X98135595Y-102927380D01*
X98135595Y-101927380D01*
X98611785Y-101927380D01*
X98897500Y-101927380D02*
X99230833Y-102927380D01*
X99564166Y-101927380D01*
X99849880Y-102260714D02*
X100564166Y-102260714D01*
X100135595Y-101832142D02*
X99849880Y-103117857D01*
X100468928Y-102689285D02*
X99754642Y-102689285D01*
X100183214Y-103117857D02*
X100468928Y-101832142D01*
X101087976Y-101927380D02*
X101183214Y-101927380D01*
X101278452Y-101975000D01*
X101326071Y-102022619D01*
X101373690Y-102117857D01*
X101421309Y-102308333D01*
X101421309Y-102546428D01*
X101373690Y-102736904D01*
X101326071Y-102832142D01*
X101278452Y-102879761D01*
X101183214Y-102927380D01*
X101087976Y-102927380D01*
X100992738Y-102879761D01*
X100945119Y-102832142D01*
X100897500Y-102736904D01*
X100849880Y-102546428D01*
X100849880Y-102308333D01*
X100897500Y-102117857D01*
X100945119Y-102022619D01*
X100992738Y-101975000D01*
X101087976Y-101927380D01*
X97135595Y-101527380D02*
X97135595Y-100527380D01*
X97516547Y-100527380D01*
X97611785Y-100575000D01*
X97659404Y-100622619D01*
X97707023Y-100717857D01*
X97707023Y-100860714D01*
X97659404Y-100955952D01*
X97611785Y-101003571D01*
X97516547Y-101051190D01*
X97135595Y-101051190D01*
X98707023Y-101527380D02*
X98373690Y-101051190D01*
X98135595Y-101527380D02*
X98135595Y-100527380D01*
X98516547Y-100527380D01*
X98611785Y-100575000D01*
X98659404Y-100622619D01*
X98707023Y-100717857D01*
X98707023Y-100860714D01*
X98659404Y-100955952D01*
X98611785Y-101003571D01*
X98516547Y-101051190D01*
X98135595Y-101051190D01*
X99326071Y-100527380D02*
X99516547Y-100527380D01*
X99611785Y-100575000D01*
X99707023Y-100670238D01*
X99754642Y-100860714D01*
X99754642Y-101194047D01*
X99707023Y-101384523D01*
X99611785Y-101479761D01*
X99516547Y-101527380D01*
X99326071Y-101527380D01*
X99230833Y-101479761D01*
X99135595Y-101384523D01*
X99087976Y-101194047D01*
X99087976Y-100860714D01*
X99135595Y-100670238D01*
X99230833Y-100575000D01*
X99326071Y-100527380D01*
X100040357Y-100527380D02*
X100611785Y-100527380D01*
X100326071Y-101527380D02*
X100326071Y-100527380D01*
X101135595Y-100527380D02*
X101326071Y-100527380D01*
X101421309Y-100575000D01*
X101516547Y-100670238D01*
X101564166Y-100860714D01*
X101564166Y-101194047D01*
X101516547Y-101384523D01*
X101421309Y-101479761D01*
X101326071Y-101527380D01*
X101135595Y-101527380D01*
X101040357Y-101479761D01*
X100945119Y-101384523D01*
X100897500Y-101194047D01*
X100897500Y-100860714D01*
X100945119Y-100670238D01*
X101040357Y-100575000D01*
X101135595Y-100527380D01*
X101849880Y-100527380D02*
X102421309Y-100527380D01*
X102135595Y-101527380D02*
X102135595Y-100527380D01*
X102945119Y-101051190D02*
X102945119Y-101527380D01*
X102611785Y-100527380D02*
X102945119Y-101051190D01*
X103278452Y-100527380D01*
X103611785Y-101527380D02*
X103611785Y-100527380D01*
X103992738Y-100527380D01*
X104087976Y-100575000D01*
X104135595Y-100622619D01*
X104183214Y-100717857D01*
X104183214Y-100860714D01*
X104135595Y-100955952D01*
X104087976Y-101003571D01*
X103992738Y-101051190D01*
X103611785Y-101051190D01*
X104611785Y-101003571D02*
X104945119Y-101003571D01*
X105087976Y-101527380D02*
X104611785Y-101527380D01*
X104611785Y-100527380D01*
X105087976Y-100527380D01*
D11*
G36*
X101150000Y-104925000D02*
G01*
X100600000Y-104225000D01*
X101700000Y-104225000D01*
X101150000Y-104925000D01*
G37*
X101150000Y-104925000D02*
X100600000Y-104225000D01*
X101700000Y-104225000D01*
X101150000Y-104925000D01*
D12*
X102159523Y-104836904D02*
X102159523Y-104036904D01*
X102350000Y-104036904D01*
X102464285Y-104075000D01*
X102540476Y-104151190D01*
X102578571Y-104227380D01*
X102616666Y-104379761D01*
X102616666Y-104494047D01*
X102578571Y-104646428D01*
X102540476Y-104722619D01*
X102464285Y-104798809D01*
X102350000Y-104836904D01*
X102159523Y-104836904D01*
X102959523Y-104417857D02*
X103226190Y-104417857D01*
X103340476Y-104836904D02*
X102959523Y-104836904D01*
X102959523Y-104036904D01*
X103340476Y-104036904D01*
X103950000Y-104417857D02*
X104064285Y-104455952D01*
X104102380Y-104494047D01*
X104140476Y-104570238D01*
X104140476Y-104684523D01*
X104102380Y-104760714D01*
X104064285Y-104798809D01*
X103988095Y-104836904D01*
X103683333Y-104836904D01*
X103683333Y-104036904D01*
X103950000Y-104036904D01*
X104026190Y-104075000D01*
X104064285Y-104113095D01*
X104102380Y-104189285D01*
X104102380Y-104265476D01*
X104064285Y-104341666D01*
X104026190Y-104379761D01*
X103950000Y-104417857D01*
X103683333Y-104417857D01*
X104483333Y-104036904D02*
X104483333Y-104684523D01*
X104521428Y-104760714D01*
X104559523Y-104798809D01*
X104635714Y-104836904D01*
X104788095Y-104836904D01*
X104864285Y-104798809D01*
X104902380Y-104760714D01*
X104940476Y-104684523D01*
X104940476Y-104036904D01*
X105740476Y-104075000D02*
X105664285Y-104036904D01*
X105549999Y-104036904D01*
X105435714Y-104075000D01*
X105359523Y-104151190D01*
X105321428Y-104227380D01*
X105283333Y-104379761D01*
X105283333Y-104494047D01*
X105321428Y-104646428D01*
X105359523Y-104722619D01*
X105435714Y-104798809D01*
X105549999Y-104836904D01*
X105626190Y-104836904D01*
X105740476Y-104798809D01*
X105778571Y-104760714D01*
X105778571Y-104494047D01*
X105626190Y-104494047D01*
D13*
X96914285Y-98967857D02*
X97414285Y-98967857D01*
X97628571Y-99753571D02*
X96914285Y-99753571D01*
X96914285Y-98253571D01*
X97628571Y-98253571D01*
X98271428Y-98753571D02*
X98271428Y-99753571D01*
X98271428Y-98896428D02*
X98342857Y-98825000D01*
X98485714Y-98753571D01*
X98700000Y-98753571D01*
X98842857Y-98825000D01*
X98914285Y-98967857D01*
X98914285Y-99753571D01*
X99485714Y-98753571D02*
X99842857Y-99753571D01*
X100200000Y-98753571D01*
X101057142Y-98253571D02*
X101342857Y-98253571D01*
X101485714Y-98325000D01*
X101628571Y-98467857D01*
X101700000Y-98753571D01*
X101700000Y-99253571D01*
X101628571Y-99539285D01*
X101485714Y-99682142D01*
X101342857Y-99753571D01*
X101057142Y-99753571D01*
X100914285Y-99682142D01*
X100771428Y-99539285D01*
X100700000Y-99253571D01*
X100700000Y-98753571D01*
X100771428Y-98467857D01*
X100914285Y-98325000D01*
X101057142Y-98253571D01*
X102342857Y-98753571D02*
X102342857Y-100253571D01*
X102342857Y-98825000D02*
X102485714Y-98753571D01*
X102771428Y-98753571D01*
X102914285Y-98825000D01*
X102985714Y-98896428D01*
X103057142Y-99039285D01*
X103057142Y-99467857D01*
X102985714Y-99610714D01*
X102914285Y-99682142D01*
X102771428Y-99753571D01*
X102485714Y-99753571D01*
X102342857Y-99682142D01*
X104271428Y-99682142D02*
X104128571Y-99753571D01*
X103842857Y-99753571D01*
X103700000Y-99682142D01*
X103628571Y-99539285D01*
X103628571Y-98967857D01*
X103700000Y-98825000D01*
X103842857Y-98753571D01*
X104128571Y-98753571D01*
X104271428Y-98825000D01*
X104342857Y-98967857D01*
X104342857Y-99110714D01*
X103628571Y-99253571D01*
X104985714Y-98753571D02*
X104985714Y-99753571D01*
X104985714Y-98896428D02*
X105057142Y-98825000D01*
X105200000Y-98753571D01*
X105414285Y-98753571D01*
X105557142Y-98825000D01*
X105628571Y-98967857D01*
X105628571Y-99753571D01*
X106342857Y-99753571D02*
X106342857Y-98253571D01*
X106914285Y-98253571D01*
X107057142Y-98325000D01*
X107128571Y-98396428D01*
X107200000Y-98539285D01*
X107200000Y-98753571D01*
X107128571Y-98896428D01*
X107057142Y-98967857D01*
X106914285Y-99039285D01*
X106342857Y-99039285D01*
X107842857Y-99753571D02*
X107842857Y-98753571D01*
X107842857Y-98253571D02*
X107771428Y-98325000D01*
X107842857Y-98396428D01*
X107914285Y-98325000D01*
X107842857Y-98253571D01*
X107842857Y-98396428D01*
X109200000Y-99682142D02*
X109057142Y-99753571D01*
X108771428Y-99753571D01*
X108628571Y-99682142D01*
X108557142Y-99610714D01*
X108485714Y-99467857D01*
X108485714Y-99039285D01*
X108557142Y-98896428D01*
X108628571Y-98825000D01*
X108771428Y-98753571D01*
X109057142Y-98753571D01*
X109200000Y-98825000D01*
X110057142Y-99753571D02*
X109914285Y-99682142D01*
X109842857Y-99610714D01*
X109771428Y-99467857D01*
X109771428Y-99039285D01*
X109842857Y-98896428D01*
X109914285Y-98825000D01*
X110057142Y-98753571D01*
X110271428Y-98753571D01*
X110414285Y-98825000D01*
X110485714Y-98896428D01*
X110557142Y-99039285D01*
X110557142Y-99467857D01*
X110485714Y-99610714D01*
X110414285Y-99682142D01*
X110271428Y-99753571D01*
X110057142Y-99753571D01*
D14*
X96770000Y-70025000D02*
X96770000Y-65885000D01*
X99610000Y-65885000D02*
X99910000Y-65885000D01*
X99910000Y-65885000D02*
X99910000Y-70025000D01*
X97070000Y-70025000D02*
X96770000Y-70025000D01*
X99910000Y-70025000D02*
X99610000Y-70025000D01*
X96770000Y-65885000D02*
X97070000Y-65885000D01*
X101702164Y-70475000D02*
X101917836Y-70475000D01*
X101702164Y-69755000D02*
X101917836Y-69755000D01*
D10*
X97100000Y-79225000D02*
X97100000Y-80975000D01*
X102405000Y-79225000D02*
X102405000Y-73725000D01*
X96895000Y-79225000D02*
X96895000Y-73725000D01*
X102405000Y-79225000D02*
X102105000Y-79225000D01*
X102405000Y-73725000D02*
X102105000Y-73725000D01*
X96895000Y-73725000D02*
X97195000Y-73725000D01*
X96895000Y-79225000D02*
X97100000Y-79225000D01*
D14*
X109071359Y-67295000D02*
X109378641Y-67295000D01*
X109071359Y-68055000D02*
X109378641Y-68055000D01*
X110735000Y-69975378D02*
X110735000Y-70774622D01*
X109615000Y-69975378D02*
X109615000Y-70774622D01*
X108260000Y-73017164D02*
X108260000Y-73232836D01*
X107540000Y-73017164D02*
X107540000Y-73232836D01*
X108910000Y-68795000D02*
X108910000Y-68565000D01*
X108910000Y-68565000D02*
X107935000Y-68565000D01*
X105690000Y-68795000D02*
X105690000Y-68565000D01*
X106665000Y-68565000D02*
X105690000Y-68565000D01*
X106665000Y-71785000D02*
X105690000Y-71785000D01*
X105690000Y-71785000D02*
X105690000Y-71555000D01*
X108940000Y-71785000D02*
X107935000Y-71785000D01*
X107357836Y-68035000D02*
X107142164Y-68035000D01*
X107357836Y-67315000D02*
X107142164Y-67315000D01*
X106610000Y-73017164D02*
X106610000Y-73232836D01*
X105890000Y-73017164D02*
X105890000Y-73232836D01*
X105710000Y-79692164D02*
X105710000Y-79907836D01*
X104990000Y-79692164D02*
X104990000Y-79907836D01*
X103065000Y-79932836D02*
X103065000Y-79717164D01*
X103785000Y-79932836D02*
X103785000Y-79717164D01*
X103785000Y-77787164D02*
X103785000Y-78002836D01*
X103065000Y-77787164D02*
X103065000Y-78002836D01*
X106890000Y-79902836D02*
X106890000Y-79687164D01*
X107610000Y-79902836D02*
X107610000Y-79687164D01*
X110335000Y-64470000D02*
X110335000Y-62185000D01*
X108865000Y-64470000D02*
X110335000Y-64470000D01*
X108865000Y-62185000D02*
X108865000Y-64470000D01*
X101326359Y-67825000D02*
X101633641Y-67825000D01*
X101326359Y-68585000D02*
X101633641Y-68585000D01*
X101326359Y-66785000D02*
X101633641Y-66785000D01*
X101326359Y-67545000D02*
X101633641Y-67545000D01*
X97997836Y-87945000D02*
X97782164Y-87945000D01*
X97997836Y-87225000D02*
X97782164Y-87225000D01*
X98642164Y-93540000D02*
X98857836Y-93540000D01*
X98642164Y-94260000D02*
X98857836Y-94260000D01*
X107873000Y-79904836D02*
X107873000Y-79689164D01*
X108593000Y-79904836D02*
X108593000Y-79689164D01*
X104110000Y-92067164D02*
X104110000Y-92282836D01*
X103390000Y-92067164D02*
X103390000Y-92282836D01*
X108692164Y-86665000D02*
X108907836Y-86665000D01*
X108692164Y-87385000D02*
X108907836Y-87385000D01*
X104760000Y-79692164D02*
X104760000Y-79907836D01*
X104040000Y-79692164D02*
X104040000Y-79907836D01*
X98227836Y-71590000D02*
X98012164Y-71590000D01*
X98227836Y-70870000D02*
X98012164Y-70870000D01*
X98707836Y-83010000D02*
X98492164Y-83010000D01*
X98707836Y-82290000D02*
X98492164Y-82290000D01*
X105360000Y-92067164D02*
X105360000Y-92282836D01*
X104640000Y-92067164D02*
X104640000Y-92282836D01*
X101007836Y-94260000D02*
X100792164Y-94260000D01*
X101007836Y-93540000D02*
X100792164Y-93540000D01*
X109840000Y-65552836D02*
X109840000Y-65337164D01*
X110560000Y-65552836D02*
X110560000Y-65337164D01*
%LPC*%
G36*
G01*
X99165500Y-70506000D02*
X97514500Y-70506000D01*
G75*
G02*
X97289000Y-70280500I0J225500D01*
G01*
X97289000Y-69829500D01*
G75*
G02*
X97514500Y-69604000I225500J0D01*
G01*
X99165500Y-69604000D01*
G75*
G02*
X99391000Y-69829500I0J-225500D01*
G01*
X99391000Y-70280500D01*
G75*
G02*
X99165500Y-70506000I-225500J0D01*
G01*
G37*
G36*
G01*
X99165500Y-66306000D02*
X97514500Y-66306000D01*
G75*
G02*
X97289000Y-66080500I0J225500D01*
G01*
X97289000Y-65629500D01*
G75*
G02*
X97514500Y-65404000I225500J0D01*
G01*
X99165500Y-65404000D01*
G75*
G02*
X99391000Y-65629500I0J-225500D01*
G01*
X99391000Y-66080500D01*
G75*
G02*
X99165500Y-66306000I-225500J0D01*
G01*
G37*
G36*
G01*
X101959000Y-70310500D02*
X101959000Y-69919500D01*
G75*
G02*
X102124500Y-69754000I165500J0D01*
G01*
X102455500Y-69754000D01*
G75*
G02*
X102621000Y-69919500I0J-165500D01*
G01*
X102621000Y-70310500D01*
G75*
G02*
X102455500Y-70476000I-165500J0D01*
G01*
X102124500Y-70476000D01*
G75*
G02*
X101959000Y-70310500I0J165500D01*
G01*
G37*
G36*
G01*
X100999000Y-70310500D02*
X100999000Y-69919500D01*
G75*
G02*
X101164500Y-69754000I165500J0D01*
G01*
X101495500Y-69754000D01*
G75*
G02*
X101661000Y-69919500I0J-165500D01*
G01*
X101661000Y-70310500D01*
G75*
G02*
X101495500Y-70476000I-165500J0D01*
G01*
X101164500Y-70476000D01*
G75*
G02*
X100999000Y-70310500I0J165500D01*
G01*
G37*
G36*
G01*
X98070001Y-73726000D02*
X97419999Y-73726000D01*
G75*
G02*
X97369000Y-73675001I0J50999D01*
G01*
X97369000Y-71974999D01*
G75*
G02*
X97419999Y-71924000I50999J0D01*
G01*
X98070001Y-71924000D01*
G75*
G02*
X98121000Y-71974999I0J-50999D01*
G01*
X98121000Y-73675001D01*
G75*
G02*
X98070001Y-73726000I-50999J0D01*
G01*
G37*
G36*
G01*
X99340001Y-73726000D02*
X98689999Y-73726000D01*
G75*
G02*
X98639000Y-73675001I0J50999D01*
G01*
X98639000Y-71974999D01*
G75*
G02*
X98689999Y-71924000I50999J0D01*
G01*
X99340001Y-71924000D01*
G75*
G02*
X99391000Y-71974999I0J-50999D01*
G01*
X99391000Y-73675001D01*
G75*
G02*
X99340001Y-73726000I-50999J0D01*
G01*
G37*
G36*
G01*
X100610001Y-73726000D02*
X99959999Y-73726000D01*
G75*
G02*
X99909000Y-73675001I0J50999D01*
G01*
X99909000Y-71974999D01*
G75*
G02*
X99959999Y-71924000I50999J0D01*
G01*
X100610001Y-71924000D01*
G75*
G02*
X100661000Y-71974999I0J-50999D01*
G01*
X100661000Y-73675001D01*
G75*
G02*
X100610001Y-73726000I-50999J0D01*
G01*
G37*
G36*
G01*
X101880001Y-73726000D02*
X101229999Y-73726000D01*
G75*
G02*
X101179000Y-73675001I0J50999D01*
G01*
X101179000Y-71974999D01*
G75*
G02*
X101229999Y-71924000I50999J0D01*
G01*
X101880001Y-71924000D01*
G75*
G02*
X101931000Y-71974999I0J-50999D01*
G01*
X101931000Y-73675001D01*
G75*
G02*
X101880001Y-73726000I-50999J0D01*
G01*
G37*
G36*
G01*
X101880001Y-81026000D02*
X101229999Y-81026000D01*
G75*
G02*
X101179000Y-80975001I0J50999D01*
G01*
X101179000Y-79274999D01*
G75*
G02*
X101229999Y-79224000I50999J0D01*
G01*
X101880001Y-79224000D01*
G75*
G02*
X101931000Y-79274999I0J-50999D01*
G01*
X101931000Y-80975001D01*
G75*
G02*
X101880001Y-81026000I-50999J0D01*
G01*
G37*
G36*
G01*
X100610001Y-81026000D02*
X99959999Y-81026000D01*
G75*
G02*
X99909000Y-80975001I0J50999D01*
G01*
X99909000Y-79274999D01*
G75*
G02*
X99959999Y-79224000I50999J0D01*
G01*
X100610001Y-79224000D01*
G75*
G02*
X100661000Y-79274999I0J-50999D01*
G01*
X100661000Y-80975001D01*
G75*
G02*
X100610001Y-81026000I-50999J0D01*
G01*
G37*
G36*
G01*
X99340001Y-81026000D02*
X98689999Y-81026000D01*
G75*
G02*
X98639000Y-80975001I0J50999D01*
G01*
X98639000Y-79274999D01*
G75*
G02*
X98689999Y-79224000I50999J0D01*
G01*
X99340001Y-79224000D01*
G75*
G02*
X99391000Y-79274999I0J-50999D01*
G01*
X99391000Y-80975001D01*
G75*
G02*
X99340001Y-81026000I-50999J0D01*
G01*
G37*
G36*
G01*
X98070001Y-81026000D02*
X97419999Y-81026000D01*
G75*
G02*
X97369000Y-80975001I0J50999D01*
G01*
X97369000Y-79274999D01*
G75*
G02*
X97419999Y-79224000I50999J0D01*
G01*
X98070001Y-79224000D01*
G75*
G02*
X98121000Y-79274999I0J-50999D01*
G01*
X98121000Y-80975001D01*
G75*
G02*
X98070001Y-81026000I-50999J0D01*
G01*
G37*
G36*
G01*
X109414000Y-67885500D02*
X109414000Y-67464500D01*
G75*
G02*
X109574500Y-67304000I160500J0D01*
G01*
X109895500Y-67304000D01*
G75*
G02*
X110056000Y-67464500I0J-160500D01*
G01*
X110056000Y-67885500D01*
G75*
G02*
X109895500Y-68046000I-160500J0D01*
G01*
X109574500Y-68046000D01*
G75*
G02*
X109414000Y-67885500I0J160500D01*
G01*
G37*
G36*
G01*
X108394000Y-67885500D02*
X108394000Y-67464500D01*
G75*
G02*
X108554500Y-67304000I160500J0D01*
G01*
X108875500Y-67304000D01*
G75*
G02*
X109036000Y-67464500I0J-160500D01*
G01*
X109036000Y-67885500D01*
G75*
G02*
X108875500Y-68046000I-160500J0D01*
G01*
X108554500Y-68046000D01*
G75*
G02*
X108394000Y-67885500I0J160500D01*
G01*
G37*
G36*
G01*
X109768250Y-70949000D02*
X110581750Y-70949000D01*
G75*
G02*
X110826000Y-71193250I0J-244250D01*
G01*
X110826000Y-71681750D01*
G75*
G02*
X110581750Y-71926000I-244250J0D01*
G01*
X109768250Y-71926000D01*
G75*
G02*
X109524000Y-71681750I0J244250D01*
G01*
X109524000Y-71193250D01*
G75*
G02*
X109768250Y-70949000I244250J0D01*
G01*
G37*
G36*
G01*
X109768250Y-68824000D02*
X110581750Y-68824000D01*
G75*
G02*
X110826000Y-69068250I0J-244250D01*
G01*
X110826000Y-69556750D01*
G75*
G02*
X110581750Y-69801000I-244250J0D01*
G01*
X109768250Y-69801000D01*
G75*
G02*
X109524000Y-69556750I0J244250D01*
G01*
X109524000Y-69068250D01*
G75*
G02*
X109768250Y-68824000I244250J0D01*
G01*
G37*
G36*
G01*
X107704500Y-73274000D02*
X108095500Y-73274000D01*
G75*
G02*
X108261000Y-73439500I0J-165500D01*
G01*
X108261000Y-73770500D01*
G75*
G02*
X108095500Y-73936000I-165500J0D01*
G01*
X107704500Y-73936000D01*
G75*
G02*
X107539000Y-73770500I0J165500D01*
G01*
X107539000Y-73439500D01*
G75*
G02*
X107704500Y-73274000I165500J0D01*
G01*
G37*
G36*
G01*
X107704500Y-72314000D02*
X108095500Y-72314000D01*
G75*
G02*
X108261000Y-72479500I0J-165500D01*
G01*
X108261000Y-72810500D01*
G75*
G02*
X108095500Y-72976000I-165500J0D01*
G01*
X107704500Y-72976000D01*
G75*
G02*
X107539000Y-72810500I0J165500D01*
G01*
X107539000Y-72479500D01*
G75*
G02*
X107704500Y-72314000I165500J0D01*
G01*
G37*
D10*
G36*
X107415050Y-71925020D02*
G01*
X107405483Y-71922118D01*
X107396666Y-71917405D01*
X107388938Y-71911062D01*
X107382595Y-71903334D01*
X107377882Y-71894517D01*
X107374980Y-71884950D01*
X107374000Y-71875000D01*
X107374000Y-71426000D01*
X107226000Y-71426000D01*
X107226000Y-71875000D01*
X107225020Y-71884950D01*
X107222118Y-71894517D01*
X107217405Y-71903334D01*
X107211062Y-71911062D01*
X107203334Y-71917405D01*
X107194517Y-71922118D01*
X107184950Y-71925020D01*
X107175000Y-71926000D01*
X106925000Y-71926000D01*
X106915050Y-71925020D01*
X106905483Y-71922118D01*
X106896666Y-71917405D01*
X106888938Y-71911062D01*
X106882595Y-71903334D01*
X106877882Y-71894517D01*
X106874980Y-71884950D01*
X106874000Y-71875000D01*
X106874000Y-71426000D01*
X106475000Y-71426000D01*
X106465050Y-71425020D01*
X106455483Y-71422118D01*
X106446666Y-71417405D01*
X106438938Y-71411062D01*
X106432595Y-71403334D01*
X106427882Y-71394517D01*
X106424980Y-71384950D01*
X106424000Y-71375000D01*
X106424000Y-68975000D01*
X106424980Y-68965050D01*
X106427882Y-68955483D01*
X106432595Y-68946666D01*
X106438938Y-68938938D01*
X106446666Y-68932595D01*
X106455483Y-68927882D01*
X106465050Y-68924980D01*
X106475000Y-68924000D01*
X106874000Y-68924000D01*
X106874000Y-68475000D01*
X106874980Y-68465050D01*
X106877882Y-68455483D01*
X106882595Y-68446666D01*
X106888938Y-68438938D01*
X106896666Y-68432595D01*
X106905483Y-68427882D01*
X106915050Y-68424980D01*
X106925000Y-68424000D01*
X107175000Y-68424000D01*
X107184950Y-68424980D01*
X107194517Y-68427882D01*
X107203334Y-68432595D01*
X107211062Y-68438938D01*
X107217405Y-68446666D01*
X107222118Y-68455483D01*
X107225020Y-68465050D01*
X107226000Y-68475000D01*
X107226000Y-68924000D01*
X107374000Y-68924000D01*
X107374000Y-68475000D01*
X107374980Y-68465050D01*
X107377882Y-68455483D01*
X107382595Y-68446666D01*
X107388938Y-68438938D01*
X107396666Y-68432595D01*
X107405483Y-68427882D01*
X107415050Y-68424980D01*
X107425000Y-68424000D01*
X107675000Y-68424000D01*
X107684950Y-68424980D01*
X107694517Y-68427882D01*
X107703334Y-68432595D01*
X107711062Y-68438938D01*
X107717405Y-68446666D01*
X107722118Y-68455483D01*
X107725020Y-68465050D01*
X107726000Y-68475000D01*
X107726000Y-68924000D01*
X108125000Y-68924000D01*
X108134950Y-68924980D01*
X108144517Y-68927882D01*
X108153334Y-68932595D01*
X108161062Y-68938938D01*
X108167405Y-68946666D01*
X108172118Y-68955483D01*
X108175020Y-68965050D01*
X108176000Y-68975000D01*
X108176000Y-71375000D01*
X108175020Y-71384950D01*
X108172118Y-71394517D01*
X108167405Y-71403334D01*
X108161062Y-71411062D01*
X108153334Y-71417405D01*
X108144517Y-71422118D01*
X108134950Y-71425020D01*
X108125000Y-71426000D01*
X107726000Y-71426000D01*
X107726000Y-71875000D01*
X107725020Y-71884950D01*
X107722118Y-71894517D01*
X107717405Y-71903334D01*
X107711062Y-71911062D01*
X107703334Y-71917405D01*
X107694517Y-71922118D01*
X107684950Y-71925020D01*
X107675000Y-71926000D01*
X107425000Y-71926000D01*
X107415050Y-71925020D01*
G37*
G36*
G01*
X106251000Y-71055000D02*
X106251000Y-71295000D01*
G75*
G02*
X106200000Y-71346000I-51000J0D01*
G01*
X105600000Y-71346000D01*
G75*
G02*
X105549000Y-71295000I0J51000D01*
G01*
X105549000Y-71055000D01*
G75*
G02*
X105600000Y-71004000I51000J0D01*
G01*
X106200000Y-71004000D01*
G75*
G02*
X106251000Y-71055000I0J-51000D01*
G01*
G37*
G36*
G01*
X106251000Y-70555000D02*
X106251000Y-70795000D01*
G75*
G02*
X106200000Y-70846000I-51000J0D01*
G01*
X105600000Y-70846000D01*
G75*
G02*
X105549000Y-70795000I0J51000D01*
G01*
X105549000Y-70555000D01*
G75*
G02*
X105600000Y-70504000I51000J0D01*
G01*
X106200000Y-70504000D01*
G75*
G02*
X106251000Y-70555000I0J-51000D01*
G01*
G37*
G36*
G01*
X106251000Y-70055000D02*
X106251000Y-70295000D01*
G75*
G02*
X106200000Y-70346000I-51000J0D01*
G01*
X105600000Y-70346000D01*
G75*
G02*
X105549000Y-70295000I0J51000D01*
G01*
X105549000Y-70055000D01*
G75*
G02*
X105600000Y-70004000I51000J0D01*
G01*
X106200000Y-70004000D01*
G75*
G02*
X106251000Y-70055000I0J-51000D01*
G01*
G37*
G36*
G01*
X106251000Y-69555000D02*
X106251000Y-69795000D01*
G75*
G02*
X106200000Y-69846000I-51000J0D01*
G01*
X105600000Y-69846000D01*
G75*
G02*
X105549000Y-69795000I0J51000D01*
G01*
X105549000Y-69555000D01*
G75*
G02*
X105600000Y-69504000I51000J0D01*
G01*
X106200000Y-69504000D01*
G75*
G02*
X106251000Y-69555000I0J-51000D01*
G01*
G37*
G36*
G01*
X106251000Y-69055000D02*
X106251000Y-69295000D01*
G75*
G02*
X106200000Y-69346000I-51000J0D01*
G01*
X105600000Y-69346000D01*
G75*
G02*
X105549000Y-69295000I0J51000D01*
G01*
X105549000Y-69055000D01*
G75*
G02*
X105600000Y-69004000I51000J0D01*
G01*
X106200000Y-69004000D01*
G75*
G02*
X106251000Y-69055000I0J-51000D01*
G01*
G37*
G36*
G01*
X109051000Y-69055000D02*
X109051000Y-69295000D01*
G75*
G02*
X109000000Y-69346000I-51000J0D01*
G01*
X108400000Y-69346000D01*
G75*
G02*
X108349000Y-69295000I0J51000D01*
G01*
X108349000Y-69055000D01*
G75*
G02*
X108400000Y-69004000I51000J0D01*
G01*
X109000000Y-69004000D01*
G75*
G02*
X109051000Y-69055000I0J-51000D01*
G01*
G37*
G36*
G01*
X109051000Y-69555000D02*
X109051000Y-69795000D01*
G75*
G02*
X109000000Y-69846000I-51000J0D01*
G01*
X108400000Y-69846000D01*
G75*
G02*
X108349000Y-69795000I0J51000D01*
G01*
X108349000Y-69555000D01*
G75*
G02*
X108400000Y-69504000I51000J0D01*
G01*
X109000000Y-69504000D01*
G75*
G02*
X109051000Y-69555000I0J-51000D01*
G01*
G37*
G36*
G01*
X109051000Y-70055000D02*
X109051000Y-70295000D01*
G75*
G02*
X109000000Y-70346000I-51000J0D01*
G01*
X108400000Y-70346000D01*
G75*
G02*
X108349000Y-70295000I0J51000D01*
G01*
X108349000Y-70055000D01*
G75*
G02*
X108400000Y-70004000I51000J0D01*
G01*
X109000000Y-70004000D01*
G75*
G02*
X109051000Y-70055000I0J-51000D01*
G01*
G37*
G36*
G01*
X109051000Y-70555000D02*
X109051000Y-70795000D01*
G75*
G02*
X109000000Y-70846000I-51000J0D01*
G01*
X108400000Y-70846000D01*
G75*
G02*
X108349000Y-70795000I0J51000D01*
G01*
X108349000Y-70555000D01*
G75*
G02*
X108400000Y-70504000I51000J0D01*
G01*
X109000000Y-70504000D01*
G75*
G02*
X109051000Y-70555000I0J-51000D01*
G01*
G37*
G36*
G01*
X109051000Y-71055000D02*
X109051000Y-71295000D01*
G75*
G02*
X109000000Y-71346000I-51000J0D01*
G01*
X108400000Y-71346000D01*
G75*
G02*
X108349000Y-71295000I0J51000D01*
G01*
X108349000Y-71055000D01*
G75*
G02*
X108400000Y-71004000I51000J0D01*
G01*
X109000000Y-71004000D01*
G75*
G02*
X109051000Y-71055000I0J-51000D01*
G01*
G37*
G36*
G01*
X107101000Y-67479500D02*
X107101000Y-67870500D01*
G75*
G02*
X106935500Y-68036000I-165500J0D01*
G01*
X106604500Y-68036000D01*
G75*
G02*
X106439000Y-67870500I0J165500D01*
G01*
X106439000Y-67479500D01*
G75*
G02*
X106604500Y-67314000I165500J0D01*
G01*
X106935500Y-67314000D01*
G75*
G02*
X107101000Y-67479500I0J-165500D01*
G01*
G37*
G36*
G01*
X108061000Y-67479500D02*
X108061000Y-67870500D01*
G75*
G02*
X107895500Y-68036000I-165500J0D01*
G01*
X107564500Y-68036000D01*
G75*
G02*
X107399000Y-67870500I0J165500D01*
G01*
X107399000Y-67479500D01*
G75*
G02*
X107564500Y-67314000I165500J0D01*
G01*
X107895500Y-67314000D01*
G75*
G02*
X108061000Y-67479500I0J-165500D01*
G01*
G37*
G36*
G01*
X106054500Y-73274000D02*
X106445500Y-73274000D01*
G75*
G02*
X106611000Y-73439500I0J-165500D01*
G01*
X106611000Y-73770500D01*
G75*
G02*
X106445500Y-73936000I-165500J0D01*
G01*
X106054500Y-73936000D01*
G75*
G02*
X105889000Y-73770500I0J165500D01*
G01*
X105889000Y-73439500D01*
G75*
G02*
X106054500Y-73274000I165500J0D01*
G01*
G37*
G36*
G01*
X106054500Y-72314000D02*
X106445500Y-72314000D01*
G75*
G02*
X106611000Y-72479500I0J-165500D01*
G01*
X106611000Y-72810500D01*
G75*
G02*
X106445500Y-72976000I-165500J0D01*
G01*
X106054500Y-72976000D01*
G75*
G02*
X105889000Y-72810500I0J165500D01*
G01*
X105889000Y-72479500D01*
G75*
G02*
X106054500Y-72314000I165500J0D01*
G01*
G37*
G36*
G01*
X105154500Y-79949000D02*
X105545500Y-79949000D01*
G75*
G02*
X105711000Y-80114500I0J-165500D01*
G01*
X105711000Y-80445500D01*
G75*
G02*
X105545500Y-80611000I-165500J0D01*
G01*
X105154500Y-80611000D01*
G75*
G02*
X104989000Y-80445500I0J165500D01*
G01*
X104989000Y-80114500D01*
G75*
G02*
X105154500Y-79949000I165500J0D01*
G01*
G37*
G36*
G01*
X105154500Y-78989000D02*
X105545500Y-78989000D01*
G75*
G02*
X105711000Y-79154500I0J-165500D01*
G01*
X105711000Y-79485500D01*
G75*
G02*
X105545500Y-79651000I-165500J0D01*
G01*
X105154500Y-79651000D01*
G75*
G02*
X104989000Y-79485500I0J165500D01*
G01*
X104989000Y-79154500D01*
G75*
G02*
X105154500Y-78989000I165500J0D01*
G01*
G37*
G36*
G01*
X103620500Y-80636000D02*
X103229500Y-80636000D01*
G75*
G02*
X103064000Y-80470500I0J165500D01*
G01*
X103064000Y-80139500D01*
G75*
G02*
X103229500Y-79974000I165500J0D01*
G01*
X103620500Y-79974000D01*
G75*
G02*
X103786000Y-80139500I0J-165500D01*
G01*
X103786000Y-80470500D01*
G75*
G02*
X103620500Y-80636000I-165500J0D01*
G01*
G37*
G36*
G01*
X103620500Y-79676000D02*
X103229500Y-79676000D01*
G75*
G02*
X103064000Y-79510500I0J165500D01*
G01*
X103064000Y-79179500D01*
G75*
G02*
X103229500Y-79014000I165500J0D01*
G01*
X103620500Y-79014000D01*
G75*
G02*
X103786000Y-79179500I0J-165500D01*
G01*
X103786000Y-79510500D01*
G75*
G02*
X103620500Y-79676000I-165500J0D01*
G01*
G37*
G36*
G01*
X103229500Y-78044000D02*
X103620500Y-78044000D01*
G75*
G02*
X103786000Y-78209500I0J-165500D01*
G01*
X103786000Y-78540500D01*
G75*
G02*
X103620500Y-78706000I-165500J0D01*
G01*
X103229500Y-78706000D01*
G75*
G02*
X103064000Y-78540500I0J165500D01*
G01*
X103064000Y-78209500D01*
G75*
G02*
X103229500Y-78044000I165500J0D01*
G01*
G37*
G36*
G01*
X103229500Y-77084000D02*
X103620500Y-77084000D01*
G75*
G02*
X103786000Y-77249500I0J-165500D01*
G01*
X103786000Y-77580500D01*
G75*
G02*
X103620500Y-77746000I-165500J0D01*
G01*
X103229500Y-77746000D01*
G75*
G02*
X103064000Y-77580500I0J165500D01*
G01*
X103064000Y-77249500D01*
G75*
G02*
X103229500Y-77084000I165500J0D01*
G01*
G37*
G36*
G01*
X107445500Y-79646000D02*
X107054500Y-79646000D01*
G75*
G02*
X106889000Y-79480500I0J165500D01*
G01*
X106889000Y-79149500D01*
G75*
G02*
X107054500Y-78984000I165500J0D01*
G01*
X107445500Y-78984000D01*
G75*
G02*
X107611000Y-79149500I0J-165500D01*
G01*
X107611000Y-79480500D01*
G75*
G02*
X107445500Y-79646000I-165500J0D01*
G01*
G37*
G36*
G01*
X107445500Y-80606000D02*
X107054500Y-80606000D01*
G75*
G02*
X106889000Y-80440500I0J165500D01*
G01*
X106889000Y-80109500D01*
G75*
G02*
X107054500Y-79944000I165500J0D01*
G01*
X107445500Y-79944000D01*
G75*
G02*
X107611000Y-80109500I0J-165500D01*
G01*
X107611000Y-80440500D01*
G75*
G02*
X107445500Y-80606000I-165500J0D01*
G01*
G37*
G36*
G01*
X109881750Y-62686000D02*
X109318250Y-62686000D01*
G75*
G02*
X109074000Y-62441750I0J244250D01*
G01*
X109074000Y-61953250D01*
G75*
G02*
X109318250Y-61709000I244250J0D01*
G01*
X109881750Y-61709000D01*
G75*
G02*
X110126000Y-61953250I0J-244250D01*
G01*
X110126000Y-62441750D01*
G75*
G02*
X109881750Y-62686000I-244250J0D01*
G01*
G37*
G36*
G01*
X109881750Y-64261000D02*
X109318250Y-64261000D01*
G75*
G02*
X109074000Y-64016750I0J244250D01*
G01*
X109074000Y-63528250D01*
G75*
G02*
X109318250Y-63284000I244250J0D01*
G01*
X109881750Y-63284000D01*
G75*
G02*
X110126000Y-63528250I0J-244250D01*
G01*
X110126000Y-64016750D01*
G75*
G02*
X109881750Y-64261000I-244250J0D01*
G01*
G37*
D15*
X112550000Y-106985000D03*
X112550000Y-104445000D03*
X112550000Y-101905000D03*
X112550000Y-99365000D03*
X112550000Y-96825000D03*
X112550000Y-94285000D03*
X112550000Y-91745000D03*
X112550000Y-89205000D03*
X112550000Y-86665000D03*
X112550000Y-84125000D03*
X112550000Y-81585000D03*
X112550000Y-79045000D03*
X112550000Y-76505000D03*
X112550000Y-73965000D03*
X112550000Y-71425000D03*
X112550000Y-68885000D03*
X112550000Y-66345000D03*
X112550000Y-63805000D03*
X112550000Y-61265000D03*
G36*
G01*
X113451000Y-57875000D02*
X113451000Y-59575000D01*
G75*
G02*
X113400000Y-59626000I-51000J0D01*
G01*
X111700000Y-59626000D01*
G75*
G02*
X111649000Y-59575000I0J51000D01*
G01*
X111649000Y-57875000D01*
G75*
G02*
X111700000Y-57824000I51000J0D01*
G01*
X113400000Y-57824000D01*
G75*
G02*
X113451000Y-57875000I0J-51000D01*
G01*
G37*
G36*
G01*
X116051000Y-98515000D02*
X116051000Y-100215000D01*
G75*
G02*
X116000000Y-100266000I-51000J0D01*
G01*
X112500000Y-100266000D01*
G75*
G02*
X112449000Y-100215000I0J51000D01*
G01*
X112449000Y-98515000D01*
G75*
G02*
X112500000Y-98464000I51000J0D01*
G01*
X116000000Y-98464000D01*
G75*
G02*
X116051000Y-98515000I0J-51000D01*
G01*
G37*
G36*
G01*
X116051000Y-101055000D02*
X116051000Y-102755000D01*
G75*
G02*
X116000000Y-102806000I-51000J0D01*
G01*
X112500000Y-102806000D01*
G75*
G02*
X112449000Y-102755000I0J51000D01*
G01*
X112449000Y-101055000D01*
G75*
G02*
X112500000Y-101004000I51000J0D01*
G01*
X116000000Y-101004000D01*
G75*
G02*
X116051000Y-101055000I0J-51000D01*
G01*
G37*
G36*
G01*
X116051000Y-95975000D02*
X116051000Y-97675000D01*
G75*
G02*
X116000000Y-97726000I-51000J0D01*
G01*
X112500000Y-97726000D01*
G75*
G02*
X112449000Y-97675000I0J51000D01*
G01*
X112449000Y-95975000D01*
G75*
G02*
X112500000Y-95924000I51000J0D01*
G01*
X116000000Y-95924000D01*
G75*
G02*
X116051000Y-95975000I0J-51000D01*
G01*
G37*
G36*
G01*
X116051000Y-103595000D02*
X116051000Y-105295000D01*
G75*
G02*
X116000000Y-105346000I-51000J0D01*
G01*
X112500000Y-105346000D01*
G75*
G02*
X112449000Y-105295000I0J51000D01*
G01*
X112449000Y-103595000D01*
G75*
G02*
X112500000Y-103544000I51000J0D01*
G01*
X116000000Y-103544000D01*
G75*
G02*
X116051000Y-103595000I0J-51000D01*
G01*
G37*
G36*
G01*
X116051000Y-93435000D02*
X116051000Y-95135000D01*
G75*
G02*
X116000000Y-95186000I-51000J0D01*
G01*
X112500000Y-95186000D01*
G75*
G02*
X112449000Y-95135000I0J51000D01*
G01*
X112449000Y-93435000D01*
G75*
G02*
X112500000Y-93384000I51000J0D01*
G01*
X116000000Y-93384000D01*
G75*
G02*
X116051000Y-93435000I0J-51000D01*
G01*
G37*
G36*
G01*
X116051000Y-106135000D02*
X116051000Y-107835000D01*
G75*
G02*
X116000000Y-107886000I-51000J0D01*
G01*
X112500000Y-107886000D01*
G75*
G02*
X112449000Y-107835000I0J51000D01*
G01*
X112449000Y-106135000D01*
G75*
G02*
X112500000Y-106084000I51000J0D01*
G01*
X116000000Y-106084000D01*
G75*
G02*
X116051000Y-106135000I0J-51000D01*
G01*
G37*
G36*
G01*
X116051000Y-85815000D02*
X116051000Y-87515000D01*
G75*
G02*
X116000000Y-87566000I-51000J0D01*
G01*
X112500000Y-87566000D01*
G75*
G02*
X112449000Y-87515000I0J51000D01*
G01*
X112449000Y-85815000D01*
G75*
G02*
X112500000Y-85764000I51000J0D01*
G01*
X116000000Y-85764000D01*
G75*
G02*
X116051000Y-85815000I0J-51000D01*
G01*
G37*
G36*
G01*
X116051000Y-90895000D02*
X116051000Y-92595000D01*
G75*
G02*
X116000000Y-92646000I-51000J0D01*
G01*
X112500000Y-92646000D01*
G75*
G02*
X112449000Y-92595000I0J51000D01*
G01*
X112449000Y-90895000D01*
G75*
G02*
X112500000Y-90844000I51000J0D01*
G01*
X116000000Y-90844000D01*
G75*
G02*
X116051000Y-90895000I0J-51000D01*
G01*
G37*
G36*
G01*
X116051000Y-83275000D02*
X116051000Y-84975000D01*
G75*
G02*
X116000000Y-85026000I-51000J0D01*
G01*
X112500000Y-85026000D01*
G75*
G02*
X112449000Y-84975000I0J51000D01*
G01*
X112449000Y-83275000D01*
G75*
G02*
X112500000Y-83224000I51000J0D01*
G01*
X116000000Y-83224000D01*
G75*
G02*
X116051000Y-83275000I0J-51000D01*
G01*
G37*
G36*
G01*
X116051000Y-73115000D02*
X116051000Y-74815000D01*
G75*
G02*
X116000000Y-74866000I-51000J0D01*
G01*
X112500000Y-74866000D01*
G75*
G02*
X112449000Y-74815000I0J51000D01*
G01*
X112449000Y-73115000D01*
G75*
G02*
X112500000Y-73064000I51000J0D01*
G01*
X116000000Y-73064000D01*
G75*
G02*
X116051000Y-73115000I0J-51000D01*
G01*
G37*
G36*
G01*
X116051000Y-70575000D02*
X116051000Y-72275000D01*
G75*
G02*
X116000000Y-72326000I-51000J0D01*
G01*
X112500000Y-72326000D01*
G75*
G02*
X112449000Y-72275000I0J51000D01*
G01*
X112449000Y-70575000D01*
G75*
G02*
X112500000Y-70524000I51000J0D01*
G01*
X116000000Y-70524000D01*
G75*
G02*
X116051000Y-70575000I0J-51000D01*
G01*
G37*
G36*
G01*
X116051000Y-68035000D02*
X116051000Y-69735000D01*
G75*
G02*
X116000000Y-69786000I-51000J0D01*
G01*
X112500000Y-69786000D01*
G75*
G02*
X112449000Y-69735000I0J51000D01*
G01*
X112449000Y-68035000D01*
G75*
G02*
X112500000Y-67984000I51000J0D01*
G01*
X116000000Y-67984000D01*
G75*
G02*
X116051000Y-68035000I0J-51000D01*
G01*
G37*
G36*
G01*
X116051000Y-60415000D02*
X116051000Y-62115000D01*
G75*
G02*
X116000000Y-62166000I-51000J0D01*
G01*
X112500000Y-62166000D01*
G75*
G02*
X112449000Y-62115000I0J51000D01*
G01*
X112449000Y-60415000D01*
G75*
G02*
X112500000Y-60364000I51000J0D01*
G01*
X116000000Y-60364000D01*
G75*
G02*
X116051000Y-60415000I0J-51000D01*
G01*
G37*
G36*
G01*
X116051000Y-88355000D02*
X116051000Y-90055000D01*
G75*
G02*
X116000000Y-90106000I-51000J0D01*
G01*
X112500000Y-90106000D01*
G75*
G02*
X112449000Y-90055000I0J51000D01*
G01*
X112449000Y-88355000D01*
G75*
G02*
X112500000Y-88304000I51000J0D01*
G01*
X116000000Y-88304000D01*
G75*
G02*
X116051000Y-88355000I0J-51000D01*
G01*
G37*
G36*
G01*
X116051000Y-75655000D02*
X116051000Y-77355000D01*
G75*
G02*
X116000000Y-77406000I-51000J0D01*
G01*
X112500000Y-77406000D01*
G75*
G02*
X112449000Y-77355000I0J51000D01*
G01*
X112449000Y-75655000D01*
G75*
G02*
X112500000Y-75604000I51000J0D01*
G01*
X116000000Y-75604000D01*
G75*
G02*
X116051000Y-75655000I0J-51000D01*
G01*
G37*
G36*
G01*
X116051000Y-62955000D02*
X116051000Y-64655000D01*
G75*
G02*
X116000000Y-64706000I-51000J0D01*
G01*
X112500000Y-64706000D01*
G75*
G02*
X112449000Y-64655000I0J51000D01*
G01*
X112449000Y-62955000D01*
G75*
G02*
X112500000Y-62904000I51000J0D01*
G01*
X116000000Y-62904000D01*
G75*
G02*
X116051000Y-62955000I0J-51000D01*
G01*
G37*
G36*
G01*
X116051000Y-57875000D02*
X116051000Y-59575000D01*
G75*
G02*
X116000000Y-59626000I-51000J0D01*
G01*
X112500000Y-59626000D01*
G75*
G02*
X112449000Y-59575000I0J51000D01*
G01*
X112449000Y-57875000D01*
G75*
G02*
X112500000Y-57824000I51000J0D01*
G01*
X116000000Y-57824000D01*
G75*
G02*
X116051000Y-57875000I0J-51000D01*
G01*
G37*
G36*
G01*
X116051000Y-78195000D02*
X116051000Y-79895000D01*
G75*
G02*
X116000000Y-79946000I-51000J0D01*
G01*
X112500000Y-79946000D01*
G75*
G02*
X112449000Y-79895000I0J51000D01*
G01*
X112449000Y-78195000D01*
G75*
G02*
X112500000Y-78144000I51000J0D01*
G01*
X116000000Y-78144000D01*
G75*
G02*
X116051000Y-78195000I0J-51000D01*
G01*
G37*
G36*
G01*
X116051000Y-65495000D02*
X116051000Y-67195000D01*
G75*
G02*
X116000000Y-67246000I-51000J0D01*
G01*
X112500000Y-67246000D01*
G75*
G02*
X112449000Y-67195000I0J51000D01*
G01*
X112449000Y-65495000D01*
G75*
G02*
X112500000Y-65444000I51000J0D01*
G01*
X116000000Y-65444000D01*
G75*
G02*
X116051000Y-65495000I0J-51000D01*
G01*
G37*
G36*
G01*
X116051000Y-80735000D02*
X116051000Y-82435000D01*
G75*
G02*
X116000000Y-82486000I-51000J0D01*
G01*
X112500000Y-82486000D01*
G75*
G02*
X112449000Y-82435000I0J51000D01*
G01*
X112449000Y-80735000D01*
G75*
G02*
X112500000Y-80684000I51000J0D01*
G01*
X116000000Y-80684000D01*
G75*
G02*
X116051000Y-80735000I0J-51000D01*
G01*
G37*
X94750000Y-58725000D03*
X94750000Y-61265000D03*
G36*
G01*
X93849000Y-64655000D02*
X93849000Y-62955000D01*
G75*
G02*
X93900000Y-62904000I51000J0D01*
G01*
X95600000Y-62904000D01*
G75*
G02*
X95651000Y-62955000I0J-51000D01*
G01*
X95651000Y-64655000D01*
G75*
G02*
X95600000Y-64706000I-51000J0D01*
G01*
X93900000Y-64706000D01*
G75*
G02*
X93849000Y-64655000I0J51000D01*
G01*
G37*
X94750000Y-66345000D03*
X94750000Y-68885000D03*
X94750000Y-71425000D03*
X94750000Y-73965000D03*
G36*
G01*
X93849000Y-77355000D02*
X93849000Y-75655000D01*
G75*
G02*
X93900000Y-75604000I51000J0D01*
G01*
X95600000Y-75604000D01*
G75*
G02*
X95651000Y-75655000I0J-51000D01*
G01*
X95651000Y-77355000D01*
G75*
G02*
X95600000Y-77406000I-51000J0D01*
G01*
X93900000Y-77406000D01*
G75*
G02*
X93849000Y-77355000I0J51000D01*
G01*
G37*
X94750000Y-79045000D03*
X94750000Y-81585000D03*
X94750000Y-84125000D03*
X94750000Y-86665000D03*
G36*
G01*
X93849000Y-90055000D02*
X93849000Y-88355000D01*
G75*
G02*
X93900000Y-88304000I51000J0D01*
G01*
X95600000Y-88304000D01*
G75*
G02*
X95651000Y-88355000I0J-51000D01*
G01*
X95651000Y-90055000D01*
G75*
G02*
X95600000Y-90106000I-51000J0D01*
G01*
X93900000Y-90106000D01*
G75*
G02*
X93849000Y-90055000I0J51000D01*
G01*
G37*
X94750000Y-91745000D03*
X94750000Y-94285000D03*
X94750000Y-96825000D03*
X94750000Y-99365000D03*
G36*
G01*
X93849000Y-102755000D02*
X93849000Y-101055000D01*
G75*
G02*
X93900000Y-101004000I51000J0D01*
G01*
X95600000Y-101004000D01*
G75*
G02*
X95651000Y-101055000I0J-51000D01*
G01*
X95651000Y-102755000D01*
G75*
G02*
X95600000Y-102806000I-51000J0D01*
G01*
X93900000Y-102806000D01*
G75*
G02*
X93849000Y-102755000I0J51000D01*
G01*
G37*
X94750000Y-104445000D03*
D16*
X94750000Y-106985000D03*
G36*
G01*
X91249000Y-105295000D02*
X91249000Y-103595000D01*
G75*
G02*
X91300000Y-103544000I51000J0D01*
G01*
X94800000Y-103544000D01*
G75*
G02*
X94851000Y-103595000I0J-51000D01*
G01*
X94851000Y-105295000D01*
G75*
G02*
X94800000Y-105346000I-51000J0D01*
G01*
X91300000Y-105346000D01*
G75*
G02*
X91249000Y-105295000I0J51000D01*
G01*
G37*
G36*
G01*
X91249000Y-74815000D02*
X91249000Y-73115000D01*
G75*
G02*
X91300000Y-73064000I51000J0D01*
G01*
X94800000Y-73064000D01*
G75*
G02*
X94851000Y-73115000I0J-51000D01*
G01*
X94851000Y-74815000D01*
G75*
G02*
X94800000Y-74866000I-51000J0D01*
G01*
X91300000Y-74866000D01*
G75*
G02*
X91249000Y-74815000I0J51000D01*
G01*
G37*
G36*
G01*
X91249000Y-100215000D02*
X91249000Y-98515000D01*
G75*
G02*
X91300000Y-98464000I51000J0D01*
G01*
X94800000Y-98464000D01*
G75*
G02*
X94851000Y-98515000I0J-51000D01*
G01*
X94851000Y-100215000D01*
G75*
G02*
X94800000Y-100266000I-51000J0D01*
G01*
X91300000Y-100266000D01*
G75*
G02*
X91249000Y-100215000I0J51000D01*
G01*
G37*
G36*
G01*
X91249000Y-95135000D02*
X91249000Y-93435000D01*
G75*
G02*
X91300000Y-93384000I51000J0D01*
G01*
X94800000Y-93384000D01*
G75*
G02*
X94851000Y-93435000I0J-51000D01*
G01*
X94851000Y-95135000D01*
G75*
G02*
X94800000Y-95186000I-51000J0D01*
G01*
X91300000Y-95186000D01*
G75*
G02*
X91249000Y-95135000I0J51000D01*
G01*
G37*
G36*
G01*
X91249000Y-90055000D02*
X91249000Y-88355000D01*
G75*
G02*
X91300000Y-88304000I51000J0D01*
G01*
X94800000Y-88304000D01*
G75*
G02*
X94851000Y-88355000I0J-51000D01*
G01*
X94851000Y-90055000D01*
G75*
G02*
X94800000Y-90106000I-51000J0D01*
G01*
X91300000Y-90106000D01*
G75*
G02*
X91249000Y-90055000I0J51000D01*
G01*
G37*
G36*
G01*
X91249000Y-87515000D02*
X91249000Y-85815000D01*
G75*
G02*
X91300000Y-85764000I51000J0D01*
G01*
X94800000Y-85764000D01*
G75*
G02*
X94851000Y-85815000I0J-51000D01*
G01*
X94851000Y-87515000D01*
G75*
G02*
X94800000Y-87566000I-51000J0D01*
G01*
X91300000Y-87566000D01*
G75*
G02*
X91249000Y-87515000I0J51000D01*
G01*
G37*
G36*
G01*
X91249000Y-72275000D02*
X91249000Y-70575000D01*
G75*
G02*
X91300000Y-70524000I51000J0D01*
G01*
X94800000Y-70524000D01*
G75*
G02*
X94851000Y-70575000I0J-51000D01*
G01*
X94851000Y-72275000D01*
G75*
G02*
X94800000Y-72326000I-51000J0D01*
G01*
X91300000Y-72326000D01*
G75*
G02*
X91249000Y-72275000I0J51000D01*
G01*
G37*
G36*
G01*
X91259000Y-79895000D02*
X91259000Y-78195000D01*
G75*
G02*
X91310000Y-78144000I51000J0D01*
G01*
X94810000Y-78144000D01*
G75*
G02*
X94861000Y-78195000I0J-51000D01*
G01*
X94861000Y-79895000D01*
G75*
G02*
X94810000Y-79946000I-51000J0D01*
G01*
X91310000Y-79946000D01*
G75*
G02*
X91259000Y-79895000I0J51000D01*
G01*
G37*
G36*
G01*
X91249000Y-69735000D02*
X91249000Y-68035000D01*
G75*
G02*
X91300000Y-67984000I51000J0D01*
G01*
X94800000Y-67984000D01*
G75*
G02*
X94851000Y-68035000I0J-51000D01*
G01*
X94851000Y-69735000D01*
G75*
G02*
X94800000Y-69786000I-51000J0D01*
G01*
X91300000Y-69786000D01*
G75*
G02*
X91249000Y-69735000I0J51000D01*
G01*
G37*
G36*
G01*
X91249000Y-62105000D02*
X91249000Y-60405000D01*
G75*
G02*
X91300000Y-60354000I51000J0D01*
G01*
X94800000Y-60354000D01*
G75*
G02*
X94851000Y-60405000I0J-51000D01*
G01*
X94851000Y-62105000D01*
G75*
G02*
X94800000Y-62156000I-51000J0D01*
G01*
X91300000Y-62156000D01*
G75*
G02*
X91249000Y-62105000I0J51000D01*
G01*
G37*
G36*
G01*
X91249000Y-67185000D02*
X91249000Y-65485000D01*
G75*
G02*
X91300000Y-65434000I51000J0D01*
G01*
X94800000Y-65434000D01*
G75*
G02*
X94851000Y-65485000I0J-51000D01*
G01*
X94851000Y-67185000D01*
G75*
G02*
X94800000Y-67236000I-51000J0D01*
G01*
X91300000Y-67236000D01*
G75*
G02*
X91249000Y-67185000I0J51000D01*
G01*
G37*
G36*
G01*
X91239000Y-92595000D02*
X91239000Y-90895000D01*
G75*
G02*
X91290000Y-90844000I51000J0D01*
G01*
X94790000Y-90844000D01*
G75*
G02*
X94841000Y-90895000I0J-51000D01*
G01*
X94841000Y-92595000D01*
G75*
G02*
X94790000Y-92646000I-51000J0D01*
G01*
X91290000Y-92646000D01*
G75*
G02*
X91239000Y-92595000I0J51000D01*
G01*
G37*
G36*
G01*
X91249000Y-97675000D02*
X91249000Y-95975000D01*
G75*
G02*
X91300000Y-95924000I51000J0D01*
G01*
X94800000Y-95924000D01*
G75*
G02*
X94851000Y-95975000I0J-51000D01*
G01*
X94851000Y-97675000D01*
G75*
G02*
X94800000Y-97726000I-51000J0D01*
G01*
X91300000Y-97726000D01*
G75*
G02*
X91249000Y-97675000I0J51000D01*
G01*
G37*
G36*
G01*
X91249000Y-82435000D02*
X91249000Y-80735000D01*
G75*
G02*
X91300000Y-80684000I51000J0D01*
G01*
X94800000Y-80684000D01*
G75*
G02*
X94851000Y-80735000I0J-51000D01*
G01*
X94851000Y-82435000D01*
G75*
G02*
X94800000Y-82486000I-51000J0D01*
G01*
X91300000Y-82486000D01*
G75*
G02*
X91249000Y-82435000I0J51000D01*
G01*
G37*
G36*
G01*
X91249000Y-77355000D02*
X91249000Y-75655000D01*
G75*
G02*
X91300000Y-75604000I51000J0D01*
G01*
X94800000Y-75604000D01*
G75*
G02*
X94851000Y-75655000I0J-51000D01*
G01*
X94851000Y-77355000D01*
G75*
G02*
X94800000Y-77406000I-51000J0D01*
G01*
X91300000Y-77406000D01*
G75*
G02*
X91249000Y-77355000I0J51000D01*
G01*
G37*
G36*
G01*
X91249000Y-107835000D02*
X91249000Y-106135000D01*
G75*
G02*
X91300000Y-106084000I51000J0D01*
G01*
X94800000Y-106084000D01*
G75*
G02*
X94851000Y-106135000I0J-51000D01*
G01*
X94851000Y-107835000D01*
G75*
G02*
X94800000Y-107886000I-51000J0D01*
G01*
X91300000Y-107886000D01*
G75*
G02*
X91249000Y-107835000I0J51000D01*
G01*
G37*
G36*
G01*
X91249000Y-84975000D02*
X91249000Y-83275000D01*
G75*
G02*
X91300000Y-83224000I51000J0D01*
G01*
X94800000Y-83224000D01*
G75*
G02*
X94851000Y-83275000I0J-51000D01*
G01*
X94851000Y-84975000D01*
G75*
G02*
X94800000Y-85026000I-51000J0D01*
G01*
X91300000Y-85026000D01*
G75*
G02*
X91249000Y-84975000I0J51000D01*
G01*
G37*
G36*
G01*
X91249000Y-64655000D02*
X91249000Y-62955000D01*
G75*
G02*
X91300000Y-62904000I51000J0D01*
G01*
X94800000Y-62904000D01*
G75*
G02*
X94851000Y-62955000I0J-51000D01*
G01*
X94851000Y-64655000D01*
G75*
G02*
X94800000Y-64706000I-51000J0D01*
G01*
X91300000Y-64706000D01*
G75*
G02*
X91249000Y-64655000I0J51000D01*
G01*
G37*
G36*
G01*
X91249000Y-102755000D02*
X91249000Y-101055000D01*
G75*
G02*
X91300000Y-101004000I51000J0D01*
G01*
X94800000Y-101004000D01*
G75*
G02*
X94851000Y-101055000I0J-51000D01*
G01*
X94851000Y-102755000D01*
G75*
G02*
X94800000Y-102806000I-51000J0D01*
G01*
X91300000Y-102806000D01*
G75*
G02*
X91249000Y-102755000I0J51000D01*
G01*
G37*
G36*
G01*
X91249000Y-59575000D02*
X91249000Y-57875000D01*
G75*
G02*
X91300000Y-57824000I51000J0D01*
G01*
X94800000Y-57824000D01*
G75*
G02*
X94851000Y-57875000I0J-51000D01*
G01*
X94851000Y-59575000D01*
G75*
G02*
X94800000Y-59626000I-51000J0D01*
G01*
X91300000Y-59626000D01*
G75*
G02*
X91249000Y-59575000I0J51000D01*
G01*
G37*
G36*
G01*
X100726000Y-63895000D02*
X100726000Y-65345000D01*
G75*
G02*
X100675000Y-65396000I-51000J0D01*
G01*
X100075000Y-65396000D01*
G75*
G02*
X100024000Y-65345000I0J51000D01*
G01*
X100024000Y-63895000D01*
G75*
G02*
X100075000Y-63844000I51000J0D01*
G01*
X100675000Y-63844000D01*
G75*
G02*
X100726000Y-63895000I0J-51000D01*
G01*
G37*
G36*
G01*
X107176000Y-63895000D02*
X107176000Y-65345000D01*
G75*
G02*
X107125000Y-65396000I-51000J0D01*
G01*
X106525000Y-65396000D01*
G75*
G02*
X106474000Y-65345000I0J51000D01*
G01*
X106474000Y-63895000D01*
G75*
G02*
X106525000Y-63844000I51000J0D01*
G01*
X107125000Y-63844000D01*
G75*
G02*
X107176000Y-63895000I0J-51000D01*
G01*
G37*
G36*
G01*
X101501000Y-63895000D02*
X101501000Y-65345000D01*
G75*
G02*
X101450000Y-65396000I-51000J0D01*
G01*
X100850000Y-65396000D01*
G75*
G02*
X100799000Y-65345000I0J51000D01*
G01*
X100799000Y-63895000D01*
G75*
G02*
X100850000Y-63844000I51000J0D01*
G01*
X101450000Y-63844000D01*
G75*
G02*
X101501000Y-63895000I0J-51000D01*
G01*
G37*
G36*
G01*
X106401000Y-63895000D02*
X106401000Y-65345000D01*
G75*
G02*
X106350000Y-65396000I-51000J0D01*
G01*
X105750000Y-65396000D01*
G75*
G02*
X105699000Y-65345000I0J51000D01*
G01*
X105699000Y-63895000D01*
G75*
G02*
X105750000Y-63844000I51000J0D01*
G01*
X106350000Y-63844000D01*
G75*
G02*
X106401000Y-63895000I0J-51000D01*
G01*
G37*
G36*
G01*
X105551000Y-63895000D02*
X105551000Y-65345000D01*
G75*
G02*
X105500000Y-65396000I-51000J0D01*
G01*
X105200000Y-65396000D01*
G75*
G02*
X105149000Y-65345000I0J51000D01*
G01*
X105149000Y-63895000D01*
G75*
G02*
X105200000Y-63844000I51000J0D01*
G01*
X105500000Y-63844000D01*
G75*
G02*
X105551000Y-63895000I0J-51000D01*
G01*
G37*
G36*
G01*
X102051000Y-63895000D02*
X102051000Y-65345000D01*
G75*
G02*
X102000000Y-65396000I-51000J0D01*
G01*
X101700000Y-65396000D01*
G75*
G02*
X101649000Y-65345000I0J51000D01*
G01*
X101649000Y-63895000D01*
G75*
G02*
X101700000Y-63844000I51000J0D01*
G01*
X102000000Y-63844000D01*
G75*
G02*
X102051000Y-63895000I0J-51000D01*
G01*
G37*
G36*
G01*
X105051000Y-63895000D02*
X105051000Y-65345000D01*
G75*
G02*
X105000000Y-65396000I-51000J0D01*
G01*
X104700000Y-65396000D01*
G75*
G02*
X104649000Y-65345000I0J51000D01*
G01*
X104649000Y-63895000D01*
G75*
G02*
X104700000Y-63844000I51000J0D01*
G01*
X105000000Y-63844000D01*
G75*
G02*
X105051000Y-63895000I0J-51000D01*
G01*
G37*
G36*
G01*
X102551000Y-63895000D02*
X102551000Y-65345000D01*
G75*
G02*
X102500000Y-65396000I-51000J0D01*
G01*
X102200000Y-65396000D01*
G75*
G02*
X102149000Y-65345000I0J51000D01*
G01*
X102149000Y-63895000D01*
G75*
G02*
X102200000Y-63844000I51000J0D01*
G01*
X102500000Y-63844000D01*
G75*
G02*
X102551000Y-63895000I0J-51000D01*
G01*
G37*
G36*
G01*
X104551000Y-63895000D02*
X104551000Y-65345000D01*
G75*
G02*
X104500000Y-65396000I-51000J0D01*
G01*
X104200000Y-65396000D01*
G75*
G02*
X104149000Y-65345000I0J51000D01*
G01*
X104149000Y-63895000D01*
G75*
G02*
X104200000Y-63844000I51000J0D01*
G01*
X104500000Y-63844000D01*
G75*
G02*
X104551000Y-63895000I0J-51000D01*
G01*
G37*
G36*
G01*
X103051000Y-63895000D02*
X103051000Y-65345000D01*
G75*
G02*
X103000000Y-65396000I-51000J0D01*
G01*
X102700000Y-65396000D01*
G75*
G02*
X102649000Y-65345000I0J51000D01*
G01*
X102649000Y-63895000D01*
G75*
G02*
X102700000Y-63844000I51000J0D01*
G01*
X103000000Y-63844000D01*
G75*
G02*
X103051000Y-63895000I0J-51000D01*
G01*
G37*
G36*
G01*
X103551000Y-63895000D02*
X103551000Y-65345000D01*
G75*
G02*
X103500000Y-65396000I-51000J0D01*
G01*
X103200000Y-65396000D01*
G75*
G02*
X103149000Y-65345000I0J51000D01*
G01*
X103149000Y-63895000D01*
G75*
G02*
X103200000Y-63844000I51000J0D01*
G01*
X103500000Y-63844000D01*
G75*
G02*
X103551000Y-63895000I0J-51000D01*
G01*
G37*
G36*
G01*
X104051000Y-63895000D02*
X104051000Y-65345000D01*
G75*
G02*
X104000000Y-65396000I-51000J0D01*
G01*
X103700000Y-65396000D01*
G75*
G02*
X103649000Y-65345000I0J51000D01*
G01*
X103649000Y-63895000D01*
G75*
G02*
X103700000Y-63844000I51000J0D01*
G01*
X104000000Y-63844000D01*
G75*
G02*
X104051000Y-63895000I0J-51000D01*
G01*
G37*
D17*
X100710000Y-63175000D03*
X106490000Y-63175000D03*
G36*
G01*
X101669000Y-68415500D02*
X101669000Y-67994500D01*
G75*
G02*
X101829500Y-67834000I160500J0D01*
G01*
X102150500Y-67834000D01*
G75*
G02*
X102311000Y-67994500I0J-160500D01*
G01*
X102311000Y-68415500D01*
G75*
G02*
X102150500Y-68576000I-160500J0D01*
G01*
X101829500Y-68576000D01*
G75*
G02*
X101669000Y-68415500I0J160500D01*
G01*
G37*
G36*
G01*
X100649000Y-68415500D02*
X100649000Y-67994500D01*
G75*
G02*
X100809500Y-67834000I160500J0D01*
G01*
X101130500Y-67834000D01*
G75*
G02*
X101291000Y-67994500I0J-160500D01*
G01*
X101291000Y-68415500D01*
G75*
G02*
X101130500Y-68576000I-160500J0D01*
G01*
X100809500Y-68576000D01*
G75*
G02*
X100649000Y-68415500I0J160500D01*
G01*
G37*
G36*
G01*
X101669000Y-67375500D02*
X101669000Y-66954500D01*
G75*
G02*
X101829500Y-66794000I160500J0D01*
G01*
X102150500Y-66794000D01*
G75*
G02*
X102311000Y-66954500I0J-160500D01*
G01*
X102311000Y-67375500D01*
G75*
G02*
X102150500Y-67536000I-160500J0D01*
G01*
X101829500Y-67536000D01*
G75*
G02*
X101669000Y-67375500I0J160500D01*
G01*
G37*
G36*
G01*
X100649000Y-67375500D02*
X100649000Y-66954500D01*
G75*
G02*
X100809500Y-66794000I160500J0D01*
G01*
X101130500Y-66794000D01*
G75*
G02*
X101291000Y-66954500I0J-160500D01*
G01*
X101291000Y-67375500D01*
G75*
G02*
X101130500Y-67536000I-160500J0D01*
G01*
X100809500Y-67536000D01*
G75*
G02*
X100649000Y-67375500I0J160500D01*
G01*
G37*
G36*
G01*
X97674000Y-95925000D02*
X97674000Y-94775000D01*
G75*
G02*
X97725000Y-94724000I51000J0D01*
G01*
X99125000Y-94724000D01*
G75*
G02*
X99176000Y-94775000I0J-51000D01*
G01*
X99176000Y-95925000D01*
G75*
G02*
X99125000Y-95976000I-51000J0D01*
G01*
X97725000Y-95976000D01*
G75*
G02*
X97674000Y-95925000I0J51000D01*
G01*
G37*
G36*
G01*
X99874000Y-95925000D02*
X99874000Y-94775000D01*
G75*
G02*
X99925000Y-94724000I51000J0D01*
G01*
X101325000Y-94724000D01*
G75*
G02*
X101376000Y-94775000I0J-51000D01*
G01*
X101376000Y-95925000D01*
G75*
G02*
X101325000Y-95976000I-51000J0D01*
G01*
X99925000Y-95976000D01*
G75*
G02*
X99874000Y-95925000I0J51000D01*
G01*
G37*
G36*
G01*
X99874000Y-97525000D02*
X99874000Y-96375000D01*
G75*
G02*
X99925000Y-96324000I51000J0D01*
G01*
X101325000Y-96324000D01*
G75*
G02*
X101376000Y-96375000I0J-51000D01*
G01*
X101376000Y-97525000D01*
G75*
G02*
X101325000Y-97576000I-51000J0D01*
G01*
X99925000Y-97576000D01*
G75*
G02*
X99874000Y-97525000I0J51000D01*
G01*
G37*
G36*
G01*
X97674000Y-97525000D02*
X97674000Y-96375000D01*
G75*
G02*
X97725000Y-96324000I51000J0D01*
G01*
X99125000Y-96324000D01*
G75*
G02*
X99176000Y-96375000I0J-51000D01*
G01*
X99176000Y-97525000D01*
G75*
G02*
X99125000Y-97576000I-51000J0D01*
G01*
X97725000Y-97576000D01*
G75*
G02*
X97674000Y-97525000I0J51000D01*
G01*
G37*
G36*
G01*
X97741000Y-87389500D02*
X97741000Y-87780500D01*
G75*
G02*
X97575500Y-87946000I-165500J0D01*
G01*
X97244500Y-87946000D01*
G75*
G02*
X97079000Y-87780500I0J165500D01*
G01*
X97079000Y-87389500D01*
G75*
G02*
X97244500Y-87224000I165500J0D01*
G01*
X97575500Y-87224000D01*
G75*
G02*
X97741000Y-87389500I0J-165500D01*
G01*
G37*
G36*
G01*
X98701000Y-87389500D02*
X98701000Y-87780500D01*
G75*
G02*
X98535500Y-87946000I-165500J0D01*
G01*
X98204500Y-87946000D01*
G75*
G02*
X98039000Y-87780500I0J165500D01*
G01*
X98039000Y-87389500D01*
G75*
G02*
X98204500Y-87224000I165500J0D01*
G01*
X98535500Y-87224000D01*
G75*
G02*
X98701000Y-87389500I0J-165500D01*
G01*
G37*
G36*
G01*
X98899000Y-94095500D02*
X98899000Y-93704500D01*
G75*
G02*
X99064500Y-93539000I165500J0D01*
G01*
X99395500Y-93539000D01*
G75*
G02*
X99561000Y-93704500I0J-165500D01*
G01*
X99561000Y-94095500D01*
G75*
G02*
X99395500Y-94261000I-165500J0D01*
G01*
X99064500Y-94261000D01*
G75*
G02*
X98899000Y-94095500I0J165500D01*
G01*
G37*
G36*
G01*
X97939000Y-94095500D02*
X97939000Y-93704500D01*
G75*
G02*
X98104500Y-93539000I165500J0D01*
G01*
X98435500Y-93539000D01*
G75*
G02*
X98601000Y-93704500I0J-165500D01*
G01*
X98601000Y-94095500D01*
G75*
G02*
X98435500Y-94261000I-165500J0D01*
G01*
X98104500Y-94261000D01*
G75*
G02*
X97939000Y-94095500I0J165500D01*
G01*
G37*
G36*
G01*
X108428500Y-79648000D02*
X108037500Y-79648000D01*
G75*
G02*
X107872000Y-79482500I0J165500D01*
G01*
X107872000Y-79151500D01*
G75*
G02*
X108037500Y-78986000I165500J0D01*
G01*
X108428500Y-78986000D01*
G75*
G02*
X108594000Y-79151500I0J-165500D01*
G01*
X108594000Y-79482500D01*
G75*
G02*
X108428500Y-79648000I-165500J0D01*
G01*
G37*
G36*
G01*
X108428500Y-80608000D02*
X108037500Y-80608000D01*
G75*
G02*
X107872000Y-80442500I0J165500D01*
G01*
X107872000Y-80111500D01*
G75*
G02*
X108037500Y-79946000I165500J0D01*
G01*
X108428500Y-79946000D01*
G75*
G02*
X108594000Y-80111500I0J-165500D01*
G01*
X108594000Y-80442500D01*
G75*
G02*
X108428500Y-80608000I-165500J0D01*
G01*
G37*
G36*
G01*
X103554500Y-92324000D02*
X103945500Y-92324000D01*
G75*
G02*
X104111000Y-92489500I0J-165500D01*
G01*
X104111000Y-92820500D01*
G75*
G02*
X103945500Y-92986000I-165500J0D01*
G01*
X103554500Y-92986000D01*
G75*
G02*
X103389000Y-92820500I0J165500D01*
G01*
X103389000Y-92489500D01*
G75*
G02*
X103554500Y-92324000I165500J0D01*
G01*
G37*
G36*
G01*
X103554500Y-91364000D02*
X103945500Y-91364000D01*
G75*
G02*
X104111000Y-91529500I0J-165500D01*
G01*
X104111000Y-91860500D01*
G75*
G02*
X103945500Y-92026000I-165500J0D01*
G01*
X103554500Y-92026000D01*
G75*
G02*
X103389000Y-91860500I0J165500D01*
G01*
X103389000Y-91529500D01*
G75*
G02*
X103554500Y-91364000I165500J0D01*
G01*
G37*
G36*
G01*
X108949000Y-87220500D02*
X108949000Y-86829500D01*
G75*
G02*
X109114500Y-86664000I165500J0D01*
G01*
X109445500Y-86664000D01*
G75*
G02*
X109611000Y-86829500I0J-165500D01*
G01*
X109611000Y-87220500D01*
G75*
G02*
X109445500Y-87386000I-165500J0D01*
G01*
X109114500Y-87386000D01*
G75*
G02*
X108949000Y-87220500I0J165500D01*
G01*
G37*
G36*
G01*
X107989000Y-87220500D02*
X107989000Y-86829500D01*
G75*
G02*
X108154500Y-86664000I165500J0D01*
G01*
X108485500Y-86664000D01*
G75*
G02*
X108651000Y-86829500I0J-165500D01*
G01*
X108651000Y-87220500D01*
G75*
G02*
X108485500Y-87386000I-165500J0D01*
G01*
X108154500Y-87386000D01*
G75*
G02*
X107989000Y-87220500I0J165500D01*
G01*
G37*
G36*
G01*
X104204500Y-79949000D02*
X104595500Y-79949000D01*
G75*
G02*
X104761000Y-80114500I0J-165500D01*
G01*
X104761000Y-80445500D01*
G75*
G02*
X104595500Y-80611000I-165500J0D01*
G01*
X104204500Y-80611000D01*
G75*
G02*
X104039000Y-80445500I0J165500D01*
G01*
X104039000Y-80114500D01*
G75*
G02*
X104204500Y-79949000I165500J0D01*
G01*
G37*
G36*
G01*
X104204500Y-78989000D02*
X104595500Y-78989000D01*
G75*
G02*
X104761000Y-79154500I0J-165500D01*
G01*
X104761000Y-79485500D01*
G75*
G02*
X104595500Y-79651000I-165500J0D01*
G01*
X104204500Y-79651000D01*
G75*
G02*
X104039000Y-79485500I0J165500D01*
G01*
X104039000Y-79154500D01*
G75*
G02*
X104204500Y-78989000I165500J0D01*
G01*
G37*
G36*
G01*
X97971000Y-71034500D02*
X97971000Y-71425500D01*
G75*
G02*
X97805500Y-71591000I-165500J0D01*
G01*
X97474500Y-71591000D01*
G75*
G02*
X97309000Y-71425500I0J165500D01*
G01*
X97309000Y-71034500D01*
G75*
G02*
X97474500Y-70869000I165500J0D01*
G01*
X97805500Y-70869000D01*
G75*
G02*
X97971000Y-71034500I0J-165500D01*
G01*
G37*
G36*
G01*
X98931000Y-71034500D02*
X98931000Y-71425500D01*
G75*
G02*
X98765500Y-71591000I-165500J0D01*
G01*
X98434500Y-71591000D01*
G75*
G02*
X98269000Y-71425500I0J165500D01*
G01*
X98269000Y-71034500D01*
G75*
G02*
X98434500Y-70869000I165500J0D01*
G01*
X98765500Y-70869000D01*
G75*
G02*
X98931000Y-71034500I0J-165500D01*
G01*
G37*
G36*
G01*
X98451000Y-82454500D02*
X98451000Y-82845500D01*
G75*
G02*
X98285500Y-83011000I-165500J0D01*
G01*
X97954500Y-83011000D01*
G75*
G02*
X97789000Y-82845500I0J165500D01*
G01*
X97789000Y-82454500D01*
G75*
G02*
X97954500Y-82289000I165500J0D01*
G01*
X98285500Y-82289000D01*
G75*
G02*
X98451000Y-82454500I0J-165500D01*
G01*
G37*
G36*
G01*
X99411000Y-82454500D02*
X99411000Y-82845500D01*
G75*
G02*
X99245500Y-83011000I-165500J0D01*
G01*
X98914500Y-83011000D01*
G75*
G02*
X98749000Y-82845500I0J165500D01*
G01*
X98749000Y-82454500D01*
G75*
G02*
X98914500Y-82289000I165500J0D01*
G01*
X99245500Y-82289000D01*
G75*
G02*
X99411000Y-82454500I0J-165500D01*
G01*
G37*
G36*
G01*
X104804500Y-92324000D02*
X105195500Y-92324000D01*
G75*
G02*
X105361000Y-92489500I0J-165500D01*
G01*
X105361000Y-92820500D01*
G75*
G02*
X105195500Y-92986000I-165500J0D01*
G01*
X104804500Y-92986000D01*
G75*
G02*
X104639000Y-92820500I0J165500D01*
G01*
X104639000Y-92489500D01*
G75*
G02*
X104804500Y-92324000I165500J0D01*
G01*
G37*
G36*
G01*
X104804500Y-91364000D02*
X105195500Y-91364000D01*
G75*
G02*
X105361000Y-91529500I0J-165500D01*
G01*
X105361000Y-91860500D01*
G75*
G02*
X105195500Y-92026000I-165500J0D01*
G01*
X104804500Y-92026000D01*
G75*
G02*
X104639000Y-91860500I0J165500D01*
G01*
X104639000Y-91529500D01*
G75*
G02*
X104804500Y-91364000I165500J0D01*
G01*
G37*
G36*
G01*
X100751000Y-93704500D02*
X100751000Y-94095500D01*
G75*
G02*
X100585500Y-94261000I-165500J0D01*
G01*
X100254500Y-94261000D01*
G75*
G02*
X100089000Y-94095500I0J165500D01*
G01*
X100089000Y-93704500D01*
G75*
G02*
X100254500Y-93539000I165500J0D01*
G01*
X100585500Y-93539000D01*
G75*
G02*
X100751000Y-93704500I0J-165500D01*
G01*
G37*
G36*
G01*
X101711000Y-93704500D02*
X101711000Y-94095500D01*
G75*
G02*
X101545500Y-94261000I-165500J0D01*
G01*
X101214500Y-94261000D01*
G75*
G02*
X101049000Y-94095500I0J165500D01*
G01*
X101049000Y-93704500D01*
G75*
G02*
X101214500Y-93539000I165500J0D01*
G01*
X101545500Y-93539000D01*
G75*
G02*
X101711000Y-93704500I0J-165500D01*
G01*
G37*
G36*
G01*
X110395500Y-65296000D02*
X110004500Y-65296000D01*
G75*
G02*
X109839000Y-65130500I0J165500D01*
G01*
X109839000Y-64799500D01*
G75*
G02*
X110004500Y-64634000I165500J0D01*
G01*
X110395500Y-64634000D01*
G75*
G02*
X110561000Y-64799500I0J-165500D01*
G01*
X110561000Y-65130500D01*
G75*
G02*
X110395500Y-65296000I-165500J0D01*
G01*
G37*
G36*
G01*
X110395500Y-66256000D02*
X110004500Y-66256000D01*
G75*
G02*
X109839000Y-66090500I0J165500D01*
G01*
X109839000Y-65759500D01*
G75*
G02*
X110004500Y-65594000I165500J0D01*
G01*
X110395500Y-65594000D01*
G75*
G02*
X110561000Y-65759500I0J-165500D01*
G01*
X110561000Y-66090500D01*
G75*
G02*
X110395500Y-66256000I-165500J0D01*
G01*
G37*
G36*
G01*
X109011000Y-85214500D02*
X109011000Y-85635500D01*
G75*
G02*
X108850500Y-85796000I-160500J0D01*
G01*
X108529500Y-85796000D01*
G75*
G02*
X108369000Y-85635500I0J160500D01*
G01*
X108369000Y-85214500D01*
G75*
G02*
X108529500Y-85054000I160500J0D01*
G01*
X108850500Y-85054000D01*
G75*
G02*
X109011000Y-85214500I0J-160500D01*
G01*
G37*
G36*
G01*
X110031000Y-85214500D02*
X110031000Y-85635500D01*
G75*
G02*
X109870500Y-85796000I-160500J0D01*
G01*
X109549500Y-85796000D01*
G75*
G02*
X109389000Y-85635500I0J160500D01*
G01*
X109389000Y-85214500D01*
G75*
G02*
X109549500Y-85054000I160500J0D01*
G01*
X109870500Y-85054000D01*
G75*
G02*
X110031000Y-85214500I0J-160500D01*
G01*
G37*
G36*
G01*
X97702000Y-63189000D02*
X98098000Y-63189000D01*
G75*
G02*
X98271000Y-63362000I0J-173000D01*
G01*
X98271000Y-63708000D01*
G75*
G02*
X98098000Y-63881000I-173000J0D01*
G01*
X97702000Y-63881000D01*
G75*
G02*
X97529000Y-63708000I0J173000D01*
G01*
X97529000Y-63362000D01*
G75*
G02*
X97702000Y-63189000I173000J0D01*
G01*
G37*
G36*
G01*
X97702000Y-62219000D02*
X98098000Y-62219000D01*
G75*
G02*
X98271000Y-62392000I0J-173000D01*
G01*
X98271000Y-62738000D01*
G75*
G02*
X98098000Y-62911000I-173000J0D01*
G01*
X97702000Y-62911000D01*
G75*
G02*
X97529000Y-62738000I0J173000D01*
G01*
X97529000Y-62392000D01*
G75*
G02*
X97702000Y-62219000I173000J0D01*
G01*
G37*
G36*
G01*
X100939000Y-83000500D02*
X100939000Y-82174500D01*
G75*
G02*
X101014500Y-82099000I75500J0D01*
G01*
X101165500Y-82099000D01*
G75*
G02*
X101241000Y-82174500I0J-75500D01*
G01*
X101241000Y-83000500D01*
G75*
G02*
X101165500Y-83076000I-75500J0D01*
G01*
X101014500Y-83076000D01*
G75*
G02*
X100939000Y-83000500I0J75500D01*
G01*
G37*
G36*
G01*
X101339000Y-83000500D02*
X101339000Y-82174500D01*
G75*
G02*
X101414500Y-82099000I75500J0D01*
G01*
X101565500Y-82099000D01*
G75*
G02*
X101641000Y-82174500I0J-75500D01*
G01*
X101641000Y-83000500D01*
G75*
G02*
X101565500Y-83076000I-75500J0D01*
G01*
X101414500Y-83076000D01*
G75*
G02*
X101339000Y-83000500I0J75500D01*
G01*
G37*
G36*
G01*
X101739000Y-83000500D02*
X101739000Y-82174500D01*
G75*
G02*
X101814500Y-82099000I75500J0D01*
G01*
X101965500Y-82099000D01*
G75*
G02*
X102041000Y-82174500I0J-75500D01*
G01*
X102041000Y-83000500D01*
G75*
G02*
X101965500Y-83076000I-75500J0D01*
G01*
X101814500Y-83076000D01*
G75*
G02*
X101739000Y-83000500I0J75500D01*
G01*
G37*
G36*
G01*
X102139000Y-83000500D02*
X102139000Y-82174500D01*
G75*
G02*
X102214500Y-82099000I75500J0D01*
G01*
X102365500Y-82099000D01*
G75*
G02*
X102441000Y-82174500I0J-75500D01*
G01*
X102441000Y-83000500D01*
G75*
G02*
X102365500Y-83076000I-75500J0D01*
G01*
X102214500Y-83076000D01*
G75*
G02*
X102139000Y-83000500I0J75500D01*
G01*
G37*
G36*
G01*
X102539000Y-83000500D02*
X102539000Y-82174500D01*
G75*
G02*
X102614500Y-82099000I75500J0D01*
G01*
X102765500Y-82099000D01*
G75*
G02*
X102841000Y-82174500I0J-75500D01*
G01*
X102841000Y-83000500D01*
G75*
G02*
X102765500Y-83076000I-75500J0D01*
G01*
X102614500Y-83076000D01*
G75*
G02*
X102539000Y-83000500I0J75500D01*
G01*
G37*
G36*
G01*
X102939000Y-83000500D02*
X102939000Y-82174500D01*
G75*
G02*
X103014500Y-82099000I75500J0D01*
G01*
X103165500Y-82099000D01*
G75*
G02*
X103241000Y-82174500I0J-75500D01*
G01*
X103241000Y-83000500D01*
G75*
G02*
X103165500Y-83076000I-75500J0D01*
G01*
X103014500Y-83076000D01*
G75*
G02*
X102939000Y-83000500I0J75500D01*
G01*
G37*
G36*
G01*
X103339000Y-83000500D02*
X103339000Y-82174500D01*
G75*
G02*
X103414500Y-82099000I75500J0D01*
G01*
X103565500Y-82099000D01*
G75*
G02*
X103641000Y-82174500I0J-75500D01*
G01*
X103641000Y-83000500D01*
G75*
G02*
X103565500Y-83076000I-75500J0D01*
G01*
X103414500Y-83076000D01*
G75*
G02*
X103339000Y-83000500I0J75500D01*
G01*
G37*
G36*
G01*
X103739000Y-83000500D02*
X103739000Y-82174500D01*
G75*
G02*
X103814500Y-82099000I75500J0D01*
G01*
X103965500Y-82099000D01*
G75*
G02*
X104041000Y-82174500I0J-75500D01*
G01*
X104041000Y-83000500D01*
G75*
G02*
X103965500Y-83076000I-75500J0D01*
G01*
X103814500Y-83076000D01*
G75*
G02*
X103739000Y-83000500I0J75500D01*
G01*
G37*
G36*
G01*
X104139000Y-83000500D02*
X104139000Y-82174500D01*
G75*
G02*
X104214500Y-82099000I75500J0D01*
G01*
X104365500Y-82099000D01*
G75*
G02*
X104441000Y-82174500I0J-75500D01*
G01*
X104441000Y-83000500D01*
G75*
G02*
X104365500Y-83076000I-75500J0D01*
G01*
X104214500Y-83076000D01*
G75*
G02*
X104139000Y-83000500I0J75500D01*
G01*
G37*
G36*
G01*
X104539000Y-83000500D02*
X104539000Y-82174500D01*
G75*
G02*
X104614500Y-82099000I75500J0D01*
G01*
X104765500Y-82099000D01*
G75*
G02*
X104841000Y-82174500I0J-75500D01*
G01*
X104841000Y-83000500D01*
G75*
G02*
X104765500Y-83076000I-75500J0D01*
G01*
X104614500Y-83076000D01*
G75*
G02*
X104539000Y-83000500I0J75500D01*
G01*
G37*
G36*
G01*
X104939000Y-83000500D02*
X104939000Y-82174500D01*
G75*
G02*
X105014500Y-82099000I75500J0D01*
G01*
X105165500Y-82099000D01*
G75*
G02*
X105241000Y-82174500I0J-75500D01*
G01*
X105241000Y-83000500D01*
G75*
G02*
X105165500Y-83076000I-75500J0D01*
G01*
X105014500Y-83076000D01*
G75*
G02*
X104939000Y-83000500I0J75500D01*
G01*
G37*
G36*
G01*
X105339000Y-83000500D02*
X105339000Y-82174500D01*
G75*
G02*
X105414500Y-82099000I75500J0D01*
G01*
X105565500Y-82099000D01*
G75*
G02*
X105641000Y-82174500I0J-75500D01*
G01*
X105641000Y-83000500D01*
G75*
G02*
X105565500Y-83076000I-75500J0D01*
G01*
X105414500Y-83076000D01*
G75*
G02*
X105339000Y-83000500I0J75500D01*
G01*
G37*
G36*
G01*
X105739000Y-83000500D02*
X105739000Y-82174500D01*
G75*
G02*
X105814500Y-82099000I75500J0D01*
G01*
X105965500Y-82099000D01*
G75*
G02*
X106041000Y-82174500I0J-75500D01*
G01*
X106041000Y-83000500D01*
G75*
G02*
X105965500Y-83076000I-75500J0D01*
G01*
X105814500Y-83076000D01*
G75*
G02*
X105739000Y-83000500I0J75500D01*
G01*
G37*
G36*
G01*
X106139000Y-83000500D02*
X106139000Y-82174500D01*
G75*
G02*
X106214500Y-82099000I75500J0D01*
G01*
X106365500Y-82099000D01*
G75*
G02*
X106441000Y-82174500I0J-75500D01*
G01*
X106441000Y-83000500D01*
G75*
G02*
X106365500Y-83076000I-75500J0D01*
G01*
X106214500Y-83076000D01*
G75*
G02*
X106139000Y-83000500I0J75500D01*
G01*
G37*
G36*
G01*
X106639000Y-83500500D02*
X106639000Y-83349500D01*
G75*
G02*
X106714500Y-83274000I75500J0D01*
G01*
X107540500Y-83274000D01*
G75*
G02*
X107616000Y-83349500I0J-75500D01*
G01*
X107616000Y-83500500D01*
G75*
G02*
X107540500Y-83576000I-75500J0D01*
G01*
X106714500Y-83576000D01*
G75*
G02*
X106639000Y-83500500I0J75500D01*
G01*
G37*
G36*
G01*
X106639000Y-83900500D02*
X106639000Y-83749500D01*
G75*
G02*
X106714500Y-83674000I75500J0D01*
G01*
X107540500Y-83674000D01*
G75*
G02*
X107616000Y-83749500I0J-75500D01*
G01*
X107616000Y-83900500D01*
G75*
G02*
X107540500Y-83976000I-75500J0D01*
G01*
X106714500Y-83976000D01*
G75*
G02*
X106639000Y-83900500I0J75500D01*
G01*
G37*
G36*
G01*
X106639000Y-84300500D02*
X106639000Y-84149500D01*
G75*
G02*
X106714500Y-84074000I75500J0D01*
G01*
X107540500Y-84074000D01*
G75*
G02*
X107616000Y-84149500I0J-75500D01*
G01*
X107616000Y-84300500D01*
G75*
G02*
X107540500Y-84376000I-75500J0D01*
G01*
X106714500Y-84376000D01*
G75*
G02*
X106639000Y-84300500I0J75500D01*
G01*
G37*
G36*
G01*
X106639000Y-84700500D02*
X106639000Y-84549500D01*
G75*
G02*
X106714500Y-84474000I75500J0D01*
G01*
X107540500Y-84474000D01*
G75*
G02*
X107616000Y-84549500I0J-75500D01*
G01*
X107616000Y-84700500D01*
G75*
G02*
X107540500Y-84776000I-75500J0D01*
G01*
X106714500Y-84776000D01*
G75*
G02*
X106639000Y-84700500I0J75500D01*
G01*
G37*
G36*
G01*
X106639000Y-85100500D02*
X106639000Y-84949500D01*
G75*
G02*
X106714500Y-84874000I75500J0D01*
G01*
X107540500Y-84874000D01*
G75*
G02*
X107616000Y-84949500I0J-75500D01*
G01*
X107616000Y-85100500D01*
G75*
G02*
X107540500Y-85176000I-75500J0D01*
G01*
X106714500Y-85176000D01*
G75*
G02*
X106639000Y-85100500I0J75500D01*
G01*
G37*
G36*
G01*
X106639000Y-85500500D02*
X106639000Y-85349500D01*
G75*
G02*
X106714500Y-85274000I75500J0D01*
G01*
X107540500Y-85274000D01*
G75*
G02*
X107616000Y-85349500I0J-75500D01*
G01*
X107616000Y-85500500D01*
G75*
G02*
X107540500Y-85576000I-75500J0D01*
G01*
X106714500Y-85576000D01*
G75*
G02*
X106639000Y-85500500I0J75500D01*
G01*
G37*
G36*
G01*
X106639000Y-85900500D02*
X106639000Y-85749500D01*
G75*
G02*
X106714500Y-85674000I75500J0D01*
G01*
X107540500Y-85674000D01*
G75*
G02*
X107616000Y-85749500I0J-75500D01*
G01*
X107616000Y-85900500D01*
G75*
G02*
X107540500Y-85976000I-75500J0D01*
G01*
X106714500Y-85976000D01*
G75*
G02*
X106639000Y-85900500I0J75500D01*
G01*
G37*
G36*
G01*
X106639000Y-86300500D02*
X106639000Y-86149500D01*
G75*
G02*
X106714500Y-86074000I75500J0D01*
G01*
X107540500Y-86074000D01*
G75*
G02*
X107616000Y-86149500I0J-75500D01*
G01*
X107616000Y-86300500D01*
G75*
G02*
X107540500Y-86376000I-75500J0D01*
G01*
X106714500Y-86376000D01*
G75*
G02*
X106639000Y-86300500I0J75500D01*
G01*
G37*
G36*
G01*
X106639000Y-86700500D02*
X106639000Y-86549500D01*
G75*
G02*
X106714500Y-86474000I75500J0D01*
G01*
X107540500Y-86474000D01*
G75*
G02*
X107616000Y-86549500I0J-75500D01*
G01*
X107616000Y-86700500D01*
G75*
G02*
X107540500Y-86776000I-75500J0D01*
G01*
X106714500Y-86776000D01*
G75*
G02*
X106639000Y-86700500I0J75500D01*
G01*
G37*
G36*
G01*
X106639000Y-87100500D02*
X106639000Y-86949500D01*
G75*
G02*
X106714500Y-86874000I75500J0D01*
G01*
X107540500Y-86874000D01*
G75*
G02*
X107616000Y-86949500I0J-75500D01*
G01*
X107616000Y-87100500D01*
G75*
G02*
X107540500Y-87176000I-75500J0D01*
G01*
X106714500Y-87176000D01*
G75*
G02*
X106639000Y-87100500I0J75500D01*
G01*
G37*
G36*
G01*
X106639000Y-87500500D02*
X106639000Y-87349500D01*
G75*
G02*
X106714500Y-87274000I75500J0D01*
G01*
X107540500Y-87274000D01*
G75*
G02*
X107616000Y-87349500I0J-75500D01*
G01*
X107616000Y-87500500D01*
G75*
G02*
X107540500Y-87576000I-75500J0D01*
G01*
X106714500Y-87576000D01*
G75*
G02*
X106639000Y-87500500I0J75500D01*
G01*
G37*
G36*
G01*
X106639000Y-87900500D02*
X106639000Y-87749500D01*
G75*
G02*
X106714500Y-87674000I75500J0D01*
G01*
X107540500Y-87674000D01*
G75*
G02*
X107616000Y-87749500I0J-75500D01*
G01*
X107616000Y-87900500D01*
G75*
G02*
X107540500Y-87976000I-75500J0D01*
G01*
X106714500Y-87976000D01*
G75*
G02*
X106639000Y-87900500I0J75500D01*
G01*
G37*
G36*
G01*
X106639000Y-88300500D02*
X106639000Y-88149500D01*
G75*
G02*
X106714500Y-88074000I75500J0D01*
G01*
X107540500Y-88074000D01*
G75*
G02*
X107616000Y-88149500I0J-75500D01*
G01*
X107616000Y-88300500D01*
G75*
G02*
X107540500Y-88376000I-75500J0D01*
G01*
X106714500Y-88376000D01*
G75*
G02*
X106639000Y-88300500I0J75500D01*
G01*
G37*
G36*
G01*
X106639000Y-88700500D02*
X106639000Y-88549500D01*
G75*
G02*
X106714500Y-88474000I75500J0D01*
G01*
X107540500Y-88474000D01*
G75*
G02*
X107616000Y-88549500I0J-75500D01*
G01*
X107616000Y-88700500D01*
G75*
G02*
X107540500Y-88776000I-75500J0D01*
G01*
X106714500Y-88776000D01*
G75*
G02*
X106639000Y-88700500I0J75500D01*
G01*
G37*
G36*
G01*
X106139000Y-89875500D02*
X106139000Y-89049500D01*
G75*
G02*
X106214500Y-88974000I75500J0D01*
G01*
X106365500Y-88974000D01*
G75*
G02*
X106441000Y-89049500I0J-75500D01*
G01*
X106441000Y-89875500D01*
G75*
G02*
X106365500Y-89951000I-75500J0D01*
G01*
X106214500Y-89951000D01*
G75*
G02*
X106139000Y-89875500I0J75500D01*
G01*
G37*
G36*
G01*
X105739000Y-89875500D02*
X105739000Y-89049500D01*
G75*
G02*
X105814500Y-88974000I75500J0D01*
G01*
X105965500Y-88974000D01*
G75*
G02*
X106041000Y-89049500I0J-75500D01*
G01*
X106041000Y-89875500D01*
G75*
G02*
X105965500Y-89951000I-75500J0D01*
G01*
X105814500Y-89951000D01*
G75*
G02*
X105739000Y-89875500I0J75500D01*
G01*
G37*
G36*
G01*
X105339000Y-89875500D02*
X105339000Y-89049500D01*
G75*
G02*
X105414500Y-88974000I75500J0D01*
G01*
X105565500Y-88974000D01*
G75*
G02*
X105641000Y-89049500I0J-75500D01*
G01*
X105641000Y-89875500D01*
G75*
G02*
X105565500Y-89951000I-75500J0D01*
G01*
X105414500Y-89951000D01*
G75*
G02*
X105339000Y-89875500I0J75500D01*
G01*
G37*
G36*
G01*
X104939000Y-89875500D02*
X104939000Y-89049500D01*
G75*
G02*
X105014500Y-88974000I75500J0D01*
G01*
X105165500Y-88974000D01*
G75*
G02*
X105241000Y-89049500I0J-75500D01*
G01*
X105241000Y-89875500D01*
G75*
G02*
X105165500Y-89951000I-75500J0D01*
G01*
X105014500Y-89951000D01*
G75*
G02*
X104939000Y-89875500I0J75500D01*
G01*
G37*
G36*
G01*
X104539000Y-89875500D02*
X104539000Y-89049500D01*
G75*
G02*
X104614500Y-88974000I75500J0D01*
G01*
X104765500Y-88974000D01*
G75*
G02*
X104841000Y-89049500I0J-75500D01*
G01*
X104841000Y-89875500D01*
G75*
G02*
X104765500Y-89951000I-75500J0D01*
G01*
X104614500Y-89951000D01*
G75*
G02*
X104539000Y-89875500I0J75500D01*
G01*
G37*
G36*
G01*
X104139000Y-89875500D02*
X104139000Y-89049500D01*
G75*
G02*
X104214500Y-88974000I75500J0D01*
G01*
X104365500Y-88974000D01*
G75*
G02*
X104441000Y-89049500I0J-75500D01*
G01*
X104441000Y-89875500D01*
G75*
G02*
X104365500Y-89951000I-75500J0D01*
G01*
X104214500Y-89951000D01*
G75*
G02*
X104139000Y-89875500I0J75500D01*
G01*
G37*
G36*
G01*
X103739000Y-89875500D02*
X103739000Y-89049500D01*
G75*
G02*
X103814500Y-88974000I75500J0D01*
G01*
X103965500Y-88974000D01*
G75*
G02*
X104041000Y-89049500I0J-75500D01*
G01*
X104041000Y-89875500D01*
G75*
G02*
X103965500Y-89951000I-75500J0D01*
G01*
X103814500Y-89951000D01*
G75*
G02*
X103739000Y-89875500I0J75500D01*
G01*
G37*
G36*
G01*
X103339000Y-89875500D02*
X103339000Y-89049500D01*
G75*
G02*
X103414500Y-88974000I75500J0D01*
G01*
X103565500Y-88974000D01*
G75*
G02*
X103641000Y-89049500I0J-75500D01*
G01*
X103641000Y-89875500D01*
G75*
G02*
X103565500Y-89951000I-75500J0D01*
G01*
X103414500Y-89951000D01*
G75*
G02*
X103339000Y-89875500I0J75500D01*
G01*
G37*
G36*
G01*
X102939000Y-89875500D02*
X102939000Y-89049500D01*
G75*
G02*
X103014500Y-88974000I75500J0D01*
G01*
X103165500Y-88974000D01*
G75*
G02*
X103241000Y-89049500I0J-75500D01*
G01*
X103241000Y-89875500D01*
G75*
G02*
X103165500Y-89951000I-75500J0D01*
G01*
X103014500Y-89951000D01*
G75*
G02*
X102939000Y-89875500I0J75500D01*
G01*
G37*
G36*
G01*
X102539000Y-89875500D02*
X102539000Y-89049500D01*
G75*
G02*
X102614500Y-88974000I75500J0D01*
G01*
X102765500Y-88974000D01*
G75*
G02*
X102841000Y-89049500I0J-75500D01*
G01*
X102841000Y-89875500D01*
G75*
G02*
X102765500Y-89951000I-75500J0D01*
G01*
X102614500Y-89951000D01*
G75*
G02*
X102539000Y-89875500I0J75500D01*
G01*
G37*
G36*
G01*
X102139000Y-89875500D02*
X102139000Y-89049500D01*
G75*
G02*
X102214500Y-88974000I75500J0D01*
G01*
X102365500Y-88974000D01*
G75*
G02*
X102441000Y-89049500I0J-75500D01*
G01*
X102441000Y-89875500D01*
G75*
G02*
X102365500Y-89951000I-75500J0D01*
G01*
X102214500Y-89951000D01*
G75*
G02*
X102139000Y-89875500I0J75500D01*
G01*
G37*
G36*
G01*
X101739000Y-89875500D02*
X101739000Y-89049500D01*
G75*
G02*
X101814500Y-88974000I75500J0D01*
G01*
X101965500Y-88974000D01*
G75*
G02*
X102041000Y-89049500I0J-75500D01*
G01*
X102041000Y-89875500D01*
G75*
G02*
X101965500Y-89951000I-75500J0D01*
G01*
X101814500Y-89951000D01*
G75*
G02*
X101739000Y-89875500I0J75500D01*
G01*
G37*
G36*
G01*
X101339000Y-89875500D02*
X101339000Y-89049500D01*
G75*
G02*
X101414500Y-88974000I75500J0D01*
G01*
X101565500Y-88974000D01*
G75*
G02*
X101641000Y-89049500I0J-75500D01*
G01*
X101641000Y-89875500D01*
G75*
G02*
X101565500Y-89951000I-75500J0D01*
G01*
X101414500Y-89951000D01*
G75*
G02*
X101339000Y-89875500I0J75500D01*
G01*
G37*
G36*
G01*
X100939000Y-89875500D02*
X100939000Y-89049500D01*
G75*
G02*
X101014500Y-88974000I75500J0D01*
G01*
X101165500Y-88974000D01*
G75*
G02*
X101241000Y-89049500I0J-75500D01*
G01*
X101241000Y-89875500D01*
G75*
G02*
X101165500Y-89951000I-75500J0D01*
G01*
X101014500Y-89951000D01*
G75*
G02*
X100939000Y-89875500I0J75500D01*
G01*
G37*
G36*
G01*
X99764000Y-88700500D02*
X99764000Y-88549500D01*
G75*
G02*
X99839500Y-88474000I75500J0D01*
G01*
X100665500Y-88474000D01*
G75*
G02*
X100741000Y-88549500I0J-75500D01*
G01*
X100741000Y-88700500D01*
G75*
G02*
X100665500Y-88776000I-75500J0D01*
G01*
X99839500Y-88776000D01*
G75*
G02*
X99764000Y-88700500I0J75500D01*
G01*
G37*
G36*
G01*
X99764000Y-88300500D02*
X99764000Y-88149500D01*
G75*
G02*
X99839500Y-88074000I75500J0D01*
G01*
X100665500Y-88074000D01*
G75*
G02*
X100741000Y-88149500I0J-75500D01*
G01*
X100741000Y-88300500D01*
G75*
G02*
X100665500Y-88376000I-75500J0D01*
G01*
X99839500Y-88376000D01*
G75*
G02*
X99764000Y-88300500I0J75500D01*
G01*
G37*
G36*
G01*
X99764000Y-87900500D02*
X99764000Y-87749500D01*
G75*
G02*
X99839500Y-87674000I75500J0D01*
G01*
X100665500Y-87674000D01*
G75*
G02*
X100741000Y-87749500I0J-75500D01*
G01*
X100741000Y-87900500D01*
G75*
G02*
X100665500Y-87976000I-75500J0D01*
G01*
X99839500Y-87976000D01*
G75*
G02*
X99764000Y-87900500I0J75500D01*
G01*
G37*
G36*
G01*
X99764000Y-87500500D02*
X99764000Y-87349500D01*
G75*
G02*
X99839500Y-87274000I75500J0D01*
G01*
X100665500Y-87274000D01*
G75*
G02*
X100741000Y-87349500I0J-75500D01*
G01*
X100741000Y-87500500D01*
G75*
G02*
X100665500Y-87576000I-75500J0D01*
G01*
X99839500Y-87576000D01*
G75*
G02*
X99764000Y-87500500I0J75500D01*
G01*
G37*
G36*
G01*
X99764000Y-87100500D02*
X99764000Y-86949500D01*
G75*
G02*
X99839500Y-86874000I75500J0D01*
G01*
X100665500Y-86874000D01*
G75*
G02*
X100741000Y-86949500I0J-75500D01*
G01*
X100741000Y-87100500D01*
G75*
G02*
X100665500Y-87176000I-75500J0D01*
G01*
X99839500Y-87176000D01*
G75*
G02*
X99764000Y-87100500I0J75500D01*
G01*
G37*
G36*
G01*
X99764000Y-86700500D02*
X99764000Y-86549500D01*
G75*
G02*
X99839500Y-86474000I75500J0D01*
G01*
X100665500Y-86474000D01*
G75*
G02*
X100741000Y-86549500I0J-75500D01*
G01*
X100741000Y-86700500D01*
G75*
G02*
X100665500Y-86776000I-75500J0D01*
G01*
X99839500Y-86776000D01*
G75*
G02*
X99764000Y-86700500I0J75500D01*
G01*
G37*
G36*
G01*
X99764000Y-86300500D02*
X99764000Y-86149500D01*
G75*
G02*
X99839500Y-86074000I75500J0D01*
G01*
X100665500Y-86074000D01*
G75*
G02*
X100741000Y-86149500I0J-75500D01*
G01*
X100741000Y-86300500D01*
G75*
G02*
X100665500Y-86376000I-75500J0D01*
G01*
X99839500Y-86376000D01*
G75*
G02*
X99764000Y-86300500I0J75500D01*
G01*
G37*
G36*
G01*
X99764000Y-85900500D02*
X99764000Y-85749500D01*
G75*
G02*
X99839500Y-85674000I75500J0D01*
G01*
X100665500Y-85674000D01*
G75*
G02*
X100741000Y-85749500I0J-75500D01*
G01*
X100741000Y-85900500D01*
G75*
G02*
X100665500Y-85976000I-75500J0D01*
G01*
X99839500Y-85976000D01*
G75*
G02*
X99764000Y-85900500I0J75500D01*
G01*
G37*
G36*
G01*
X99764000Y-85500500D02*
X99764000Y-85349500D01*
G75*
G02*
X99839500Y-85274000I75500J0D01*
G01*
X100665500Y-85274000D01*
G75*
G02*
X100741000Y-85349500I0J-75500D01*
G01*
X100741000Y-85500500D01*
G75*
G02*
X100665500Y-85576000I-75500J0D01*
G01*
X99839500Y-85576000D01*
G75*
G02*
X99764000Y-85500500I0J75500D01*
G01*
G37*
G36*
G01*
X99764000Y-85100500D02*
X99764000Y-84949500D01*
G75*
G02*
X99839500Y-84874000I75500J0D01*
G01*
X100665500Y-84874000D01*
G75*
G02*
X100741000Y-84949500I0J-75500D01*
G01*
X100741000Y-85100500D01*
G75*
G02*
X100665500Y-85176000I-75500J0D01*
G01*
X99839500Y-85176000D01*
G75*
G02*
X99764000Y-85100500I0J75500D01*
G01*
G37*
G36*
G01*
X99764000Y-84700500D02*
X99764000Y-84549500D01*
G75*
G02*
X99839500Y-84474000I75500J0D01*
G01*
X100665500Y-84474000D01*
G75*
G02*
X100741000Y-84549500I0J-75500D01*
G01*
X100741000Y-84700500D01*
G75*
G02*
X100665500Y-84776000I-75500J0D01*
G01*
X99839500Y-84776000D01*
G75*
G02*
X99764000Y-84700500I0J75500D01*
G01*
G37*
G36*
G01*
X99764000Y-84300500D02*
X99764000Y-84149500D01*
G75*
G02*
X99839500Y-84074000I75500J0D01*
G01*
X100665500Y-84074000D01*
G75*
G02*
X100741000Y-84149500I0J-75500D01*
G01*
X100741000Y-84300500D01*
G75*
G02*
X100665500Y-84376000I-75500J0D01*
G01*
X99839500Y-84376000D01*
G75*
G02*
X99764000Y-84300500I0J75500D01*
G01*
G37*
G36*
G01*
X99764000Y-83900500D02*
X99764000Y-83749500D01*
G75*
G02*
X99839500Y-83674000I75500J0D01*
G01*
X100665500Y-83674000D01*
G75*
G02*
X100741000Y-83749500I0J-75500D01*
G01*
X100741000Y-83900500D01*
G75*
G02*
X100665500Y-83976000I-75500J0D01*
G01*
X99839500Y-83976000D01*
G75*
G02*
X99764000Y-83900500I0J75500D01*
G01*
G37*
G36*
G01*
X99764000Y-83500500D02*
X99764000Y-83349500D01*
G75*
G02*
X99839500Y-83274000I75500J0D01*
G01*
X100665500Y-83274000D01*
G75*
G02*
X100741000Y-83349500I0J-75500D01*
G01*
X100741000Y-83500500D01*
G75*
G02*
X100665500Y-83576000I-75500J0D01*
G01*
X99839500Y-83576000D01*
G75*
G02*
X99764000Y-83500500I0J75500D01*
G01*
G37*
G36*
G01*
X102039000Y-87527410D02*
X102039000Y-84522590D01*
G75*
G02*
X102187590Y-84374000I148590J0D01*
G01*
X105192410Y-84374000D01*
G75*
G02*
X105341000Y-84522590I0J-148590D01*
G01*
X105341000Y-87527410D01*
G75*
G02*
X105192410Y-87676000I-148590J0D01*
G01*
X102187590Y-87676000D01*
G75*
G02*
X102039000Y-87527410I0J148590D01*
G01*
G37*
D15*
X106230000Y-106925000D03*
X103690000Y-106925000D03*
G36*
G01*
X102000000Y-107826000D02*
X100300000Y-107826000D01*
G75*
G02*
X100249000Y-107775000I0J51000D01*
G01*
X100249000Y-106075000D01*
G75*
G02*
X100300000Y-106024000I51000J0D01*
G01*
X102000000Y-106024000D01*
G75*
G02*
X102051000Y-106075000I0J-51000D01*
G01*
X102051000Y-107775000D01*
G75*
G02*
X102000000Y-107826000I-51000J0D01*
G01*
G37*
M02*
