G04 #@! TF.GenerationSoftware,KiCad,Pcbnew,(5.1.9)-1*
G04 #@! TF.CreationDate,2021-05-14T16:57:38+01:00*
G04 #@! TF.ProjectId,EnvOpenPico,456e764f-7065-46e5-9069-636f2e6b6963,REV1*
G04 #@! TF.SameCoordinates,Original*
G04 #@! TF.FileFunction,Other,Fab,Top*
%FSLAX46Y46*%
G04 Gerber Fmt 4.6, Leading zero omitted, Abs format (unit mm)*
G04 Created by KiCad (PCBNEW (5.1.9)-1) date 2021-05-14 16:57:38*
%MOMM*%
%LPD*%
G01*
G04 APERTURE LIST*
%ADD10C,0.100000*%
%ADD11C,0.200000*%
%ADD12C,0.120000*%
%ADD13C,0.150000*%
%ADD14C,0.060000*%
%ADD15C,0.040000*%
%ADD16C,0.015000*%
%ADD17C,0.075000*%
%ADD18C,0.105000*%
G04 APERTURE END LIST*
D10*
X109690000Y-74360000D02*
X109690000Y-73060000D01*
X109690000Y-73060000D02*
X109390000Y-72760000D01*
X109390000Y-72760000D02*
X108890000Y-72760000D01*
X108890000Y-72760000D02*
X108890000Y-74360000D01*
X108890000Y-74360000D02*
X109690000Y-74360000D01*
X106050000Y-67075000D02*
X106590000Y-67075000D01*
X106590000Y-67075000D02*
X106590000Y-68125000D01*
X106590000Y-68125000D02*
X106050000Y-68125000D01*
X106050000Y-68125000D02*
X106050000Y-67075000D01*
X101115000Y-66870000D02*
X101115000Y-66330000D01*
X101115000Y-66330000D02*
X102165000Y-66330000D01*
X102165000Y-66330000D02*
X102165000Y-66870000D01*
X102165000Y-66870000D02*
X101115000Y-66870000D01*
X101935000Y-67880000D02*
X101935000Y-67340000D01*
X101935000Y-67340000D02*
X102985000Y-67340000D01*
X102985000Y-67340000D02*
X102985000Y-67880000D01*
X102985000Y-67880000D02*
X101935000Y-67880000D01*
X99580000Y-68290000D02*
G75*
G03*
X99580000Y-68290000I-750000J0D01*
G01*
X100080000Y-69790000D02*
X97580000Y-69790000D01*
X100080000Y-66790000D02*
X100080000Y-69790000D01*
X97580000Y-66790000D02*
X100080000Y-66790000D01*
X97580000Y-69790000D02*
X97580000Y-66790000D01*
X100850000Y-69750000D02*
X101350000Y-69750000D01*
X101350000Y-69750000D02*
X101350000Y-70750000D01*
X101350000Y-70750000D02*
X100850000Y-70750000D01*
X100850000Y-70750000D02*
X100850000Y-69750000D01*
D11*
X102600000Y-80500000D02*
X96600000Y-80500000D01*
X102600000Y-72500000D02*
X102600000Y-80500000D01*
X96600000Y-72500000D02*
X102600000Y-72500000D01*
X96600000Y-80500000D02*
X96600000Y-72500000D01*
D10*
X110550000Y-69700000D02*
X107450000Y-69700000D01*
X107450000Y-69700000D02*
X107450000Y-67900000D01*
X109900000Y-67900000D02*
X107450000Y-67900000D01*
X110550000Y-69700000D02*
X110550000Y-68550000D01*
X109900000Y-67900000D02*
X110550000Y-68550000D01*
X106300000Y-71150000D02*
X106300000Y-70150000D01*
X106800000Y-71150000D02*
X106300000Y-71150000D01*
X106800000Y-70150000D02*
X106800000Y-71150000D01*
X106300000Y-70150000D02*
X106800000Y-70150000D01*
X110225000Y-71250000D02*
X110225000Y-71750000D01*
X110225000Y-71750000D02*
X109225000Y-71750000D01*
X109225000Y-71750000D02*
X109225000Y-71250000D01*
X109225000Y-71250000D02*
X110225000Y-71250000D01*
D12*
X97525000Y-97725000D02*
X101525000Y-97725000D01*
X97525000Y-94575000D02*
X97525000Y-97725000D01*
D10*
X97925000Y-96400000D02*
X98925000Y-97400000D01*
X97925000Y-95000000D02*
X98025000Y-94900000D01*
X97925000Y-97300000D02*
X97925000Y-95000000D01*
X98025000Y-97400000D02*
X97925000Y-97300000D01*
X101025000Y-97400000D02*
X98025000Y-97400000D01*
X101125000Y-97300000D02*
X101025000Y-97400000D01*
X101125000Y-95000000D02*
X101125000Y-97300000D01*
X101025000Y-94900000D02*
X101125000Y-95000000D01*
X98025000Y-94900000D02*
X101025000Y-94900000D01*
D13*
X108070000Y-64225000D02*
X99130000Y-64225000D01*
X99130000Y-56925000D02*
X99130000Y-64225000D01*
X108070000Y-56925000D02*
X108070000Y-64225000D01*
X108070000Y-56925000D02*
X99130000Y-56925000D01*
D10*
X104325000Y-80600000D02*
X103825000Y-80600000D01*
X103825000Y-80600000D02*
X103825000Y-79600000D01*
X103825000Y-79600000D02*
X104325000Y-79600000D01*
X104325000Y-79600000D02*
X104325000Y-80600000D01*
X98390000Y-87335000D02*
X98390000Y-87835000D01*
X98390000Y-87835000D02*
X97390000Y-87835000D01*
X97390000Y-87835000D02*
X97390000Y-87335000D01*
X97390000Y-87335000D02*
X98390000Y-87335000D01*
X98250000Y-94150000D02*
X98250000Y-93650000D01*
X98250000Y-93650000D02*
X99250000Y-93650000D01*
X99250000Y-93650000D02*
X99250000Y-94150000D01*
X99250000Y-94150000D02*
X98250000Y-94150000D01*
X109850000Y-82375000D02*
X109350000Y-82375000D01*
X109350000Y-82375000D02*
X109350000Y-81375000D01*
X109350000Y-81375000D02*
X109850000Y-81375000D01*
X109850000Y-81375000D02*
X109850000Y-82375000D01*
X103500000Y-91675000D02*
X104000000Y-91675000D01*
X104000000Y-91675000D02*
X104000000Y-92675000D01*
X104000000Y-92675000D02*
X103500000Y-92675000D01*
X103500000Y-92675000D02*
X103500000Y-91675000D01*
X108300000Y-87275000D02*
X108300000Y-86775000D01*
X108300000Y-86775000D02*
X109300000Y-86775000D01*
X109300000Y-86775000D02*
X109300000Y-87275000D01*
X109300000Y-87275000D02*
X108300000Y-87275000D01*
X105980000Y-79425000D02*
X106480000Y-79425000D01*
X106480000Y-79425000D02*
X106480000Y-80425000D01*
X106480000Y-80425000D02*
X105980000Y-80425000D01*
X105980000Y-80425000D02*
X105980000Y-79425000D01*
X105000000Y-79425000D02*
X105500000Y-79425000D01*
X105500000Y-79425000D02*
X105500000Y-80425000D01*
X105500000Y-80425000D02*
X105000000Y-80425000D01*
X105000000Y-80425000D02*
X105000000Y-79425000D01*
X98620000Y-70980000D02*
X98620000Y-71480000D01*
X98620000Y-71480000D02*
X97620000Y-71480000D01*
X97620000Y-71480000D02*
X97620000Y-70980000D01*
X97620000Y-70980000D02*
X98620000Y-70980000D01*
X99100000Y-82400000D02*
X99100000Y-82900000D01*
X99100000Y-82900000D02*
X98100000Y-82900000D01*
X98100000Y-82900000D02*
X98100000Y-82400000D01*
X98100000Y-82400000D02*
X99100000Y-82400000D01*
X107975000Y-81375000D02*
X107475000Y-81375000D01*
X107475000Y-81375000D02*
X107475000Y-80375000D01*
X107475000Y-80375000D02*
X107975000Y-80375000D01*
X107975000Y-80375000D02*
X107975000Y-81375000D01*
X104750000Y-91675000D02*
X105250000Y-91675000D01*
X105250000Y-91675000D02*
X105250000Y-92675000D01*
X105250000Y-92675000D02*
X104750000Y-92675000D01*
X104750000Y-92675000D02*
X104750000Y-91675000D01*
X104375000Y-76775000D02*
X103875000Y-76775000D01*
X103875000Y-76775000D02*
X103875000Y-75775000D01*
X103875000Y-75775000D02*
X104375000Y-75775000D01*
X104375000Y-75775000D02*
X104375000Y-76775000D01*
X101400000Y-93650000D02*
X101400000Y-94150000D01*
X101400000Y-94150000D02*
X100400000Y-94150000D01*
X100400000Y-94150000D02*
X100400000Y-93650000D01*
X100400000Y-93650000D02*
X101400000Y-93650000D01*
X110450000Y-65945000D02*
X109950000Y-65945000D01*
X109950000Y-65945000D02*
X109950000Y-64945000D01*
X109950000Y-64945000D02*
X110450000Y-64945000D01*
X110450000Y-64945000D02*
X110450000Y-65945000D01*
X110075000Y-85155000D02*
X110075000Y-85695000D01*
X110075000Y-85695000D02*
X109025000Y-85695000D01*
X109025000Y-85695000D02*
X109025000Y-85155000D01*
X109025000Y-85155000D02*
X110075000Y-85155000D01*
D12*
X109703641Y-85805000D02*
X109396359Y-85805000D01*
X109703641Y-85045000D02*
X109396359Y-85045000D01*
D10*
X97950000Y-61960000D02*
G75*
G03*
X97950000Y-61960000I-50000J0D01*
G01*
X97650000Y-62550000D02*
X98150000Y-62550000D01*
X98150000Y-62550000D02*
X98150000Y-63550000D01*
X98150000Y-63550000D02*
X97650000Y-63550000D01*
X97650000Y-63550000D02*
X97650000Y-62550000D01*
X97650000Y-62650000D02*
X98150000Y-62650000D01*
X97650000Y-62750000D02*
X98150000Y-62750000D01*
D12*
X106650000Y-82415000D02*
X107300000Y-82415000D01*
X107300000Y-82415000D02*
X107300000Y-83065000D01*
X100730000Y-89635000D02*
X100080000Y-89635000D01*
X100080000Y-89635000D02*
X100080000Y-88985000D01*
X106650000Y-89635000D02*
X107300000Y-89635000D01*
X107300000Y-89635000D02*
X107300000Y-88985000D01*
X100730000Y-82415000D02*
X100080000Y-82415000D01*
D10*
X101190000Y-82525000D02*
X107190000Y-82525000D01*
X107190000Y-82525000D02*
X107190000Y-89525000D01*
X107190000Y-89525000D02*
X100190000Y-89525000D01*
X100190000Y-89525000D02*
X100190000Y-83525000D01*
X100190000Y-83525000D02*
X101190000Y-82525000D01*
X99880000Y-107560000D02*
X99880000Y-105655000D01*
X99880000Y-105655000D02*
X107500000Y-105655000D01*
X107500000Y-105655000D02*
X107500000Y-108195000D01*
X107500000Y-108195000D02*
X100515000Y-108195000D01*
X100515000Y-108195000D02*
X99880000Y-107560000D01*
D12*
X107560000Y-108255000D02*
X107560000Y-105595000D01*
X102420000Y-108255000D02*
X107560000Y-108255000D01*
X102420000Y-105595000D02*
X107560000Y-105595000D01*
X102420000Y-108255000D02*
X102420000Y-105595000D01*
X101150000Y-108255000D02*
X99820000Y-108255000D01*
X99820000Y-108255000D02*
X99820000Y-106925000D01*
D13*
X111172380Y-74298095D02*
X110172380Y-74298095D01*
X110172380Y-74060000D01*
X110220000Y-73917142D01*
X110315238Y-73821904D01*
X110410476Y-73774285D01*
X110600952Y-73726666D01*
X110743809Y-73726666D01*
X110934285Y-73774285D01*
X111029523Y-73821904D01*
X111124761Y-73917142D01*
X111172380Y-74060000D01*
X111172380Y-74298095D01*
X110267619Y-73345714D02*
X110220000Y-73298095D01*
X110172380Y-73202857D01*
X110172380Y-72964761D01*
X110220000Y-72869523D01*
X110267619Y-72821904D01*
X110362857Y-72774285D01*
X110458095Y-72774285D01*
X110600952Y-72821904D01*
X111172380Y-73393333D01*
X111172380Y-72774285D01*
X108312380Y-77369523D02*
X107312380Y-77369523D01*
X107312380Y-77131428D01*
X107360000Y-76988571D01*
X107455238Y-76893333D01*
X107550476Y-76845714D01*
X107740952Y-76798095D01*
X107883809Y-76798095D01*
X108074285Y-76845714D01*
X108169523Y-76893333D01*
X108264761Y-76988571D01*
X108312380Y-77131428D01*
X108312380Y-77369523D01*
X108407619Y-76607619D02*
X108407619Y-75845714D01*
X108264761Y-75655238D02*
X108312380Y-75512380D01*
X108312380Y-75274285D01*
X108264761Y-75179047D01*
X108217142Y-75131428D01*
X108121904Y-75083809D01*
X108026666Y-75083809D01*
X107931428Y-75131428D01*
X107883809Y-75179047D01*
X107836190Y-75274285D01*
X107788571Y-75464761D01*
X107740952Y-75560000D01*
X107693333Y-75607619D01*
X107598095Y-75655238D01*
X107502857Y-75655238D01*
X107407619Y-75607619D01*
X107360000Y-75560000D01*
X107312380Y-75464761D01*
X107312380Y-75226666D01*
X107360000Y-75083809D01*
X108264761Y-74226666D02*
X108312380Y-74321904D01*
X108312380Y-74512380D01*
X108264761Y-74607619D01*
X108217142Y-74655238D01*
X108121904Y-74702857D01*
X107836190Y-74702857D01*
X107740952Y-74655238D01*
X107693333Y-74607619D01*
X107645714Y-74512380D01*
X107645714Y-74321904D01*
X107693333Y-74226666D01*
X108312380Y-73798095D02*
X107312380Y-73798095D01*
X108312380Y-73369523D02*
X107788571Y-73369523D01*
X107693333Y-73417142D01*
X107645714Y-73512380D01*
X107645714Y-73655238D01*
X107693333Y-73750476D01*
X107740952Y-73798095D01*
X108312380Y-72750476D02*
X108264761Y-72845714D01*
X108217142Y-72893333D01*
X108121904Y-72940952D01*
X107836190Y-72940952D01*
X107740952Y-72893333D01*
X107693333Y-72845714D01*
X107645714Y-72750476D01*
X107645714Y-72607619D01*
X107693333Y-72512380D01*
X107740952Y-72464761D01*
X107836190Y-72417142D01*
X108121904Y-72417142D01*
X108217142Y-72464761D01*
X108264761Y-72512380D01*
X108312380Y-72607619D01*
X108312380Y-72750476D01*
X107645714Y-72131428D02*
X107645714Y-71750476D01*
X107312380Y-71988571D02*
X108169523Y-71988571D01*
X108264761Y-71940952D01*
X108312380Y-71845714D01*
X108312380Y-71750476D01*
X107645714Y-71560000D02*
X107645714Y-71179047D01*
X107312380Y-71417142D02*
X108169523Y-71417142D01*
X108264761Y-71369523D01*
X108312380Y-71274285D01*
X108312380Y-71179047D01*
X108312380Y-70845714D02*
X107312380Y-70845714D01*
X107931428Y-70750476D02*
X108312380Y-70464761D01*
X107645714Y-70464761D02*
X108026666Y-70845714D01*
X107645714Y-70131428D02*
X108312380Y-69893333D01*
X107645714Y-69655238D02*
X108312380Y-69893333D01*
X108550476Y-69988571D01*
X108598095Y-70036190D01*
X108645714Y-70131428D01*
D14*
X109470952Y-73855238D02*
X109070952Y-73855238D01*
X109070952Y-73760000D01*
X109090000Y-73702857D01*
X109128095Y-73664761D01*
X109166190Y-73645714D01*
X109242380Y-73626666D01*
X109299523Y-73626666D01*
X109375714Y-73645714D01*
X109413809Y-73664761D01*
X109451904Y-73702857D01*
X109470952Y-73760000D01*
X109470952Y-73855238D01*
X109109047Y-73474285D02*
X109090000Y-73455238D01*
X109070952Y-73417142D01*
X109070952Y-73321904D01*
X109090000Y-73283809D01*
X109109047Y-73264761D01*
X109147142Y-73245714D01*
X109185238Y-73245714D01*
X109242380Y-73264761D01*
X109470952Y-73493333D01*
X109470952Y-73245714D01*
D13*
X107942380Y-67766666D02*
X107466190Y-68100000D01*
X107942380Y-68338095D02*
X106942380Y-68338095D01*
X106942380Y-67957142D01*
X106990000Y-67861904D01*
X107037619Y-67814285D01*
X107132857Y-67766666D01*
X107275714Y-67766666D01*
X107370952Y-67814285D01*
X107418571Y-67861904D01*
X107466190Y-67957142D01*
X107466190Y-68338095D01*
X106942380Y-67433333D02*
X106942380Y-66766666D01*
X107942380Y-67195238D01*
X105602380Y-69219047D02*
X105126190Y-69552380D01*
X105602380Y-69790476D02*
X104602380Y-69790476D01*
X104602380Y-69409523D01*
X104650000Y-69314285D01*
X104697619Y-69266666D01*
X104792857Y-69219047D01*
X104935714Y-69219047D01*
X105030952Y-69266666D01*
X105078571Y-69314285D01*
X105126190Y-69409523D01*
X105126190Y-69790476D01*
X105602380Y-68266666D02*
X105602380Y-68838095D01*
X105602380Y-68552380D02*
X104602380Y-68552380D01*
X104745238Y-68647619D01*
X104840476Y-68742857D01*
X104888095Y-68838095D01*
X104602380Y-67647619D02*
X104602380Y-67552380D01*
X104650000Y-67457142D01*
X104697619Y-67409523D01*
X104792857Y-67361904D01*
X104983333Y-67314285D01*
X105221428Y-67314285D01*
X105411904Y-67361904D01*
X105507142Y-67409523D01*
X105554761Y-67457142D01*
X105602380Y-67552380D01*
X105602380Y-67647619D01*
X105554761Y-67742857D01*
X105507142Y-67790476D01*
X105411904Y-67838095D01*
X105221428Y-67885714D01*
X104983333Y-67885714D01*
X104792857Y-67838095D01*
X104697619Y-67790476D01*
X104650000Y-67742857D01*
X104602380Y-67647619D01*
X104602380Y-66695238D02*
X104602380Y-66600000D01*
X104650000Y-66504761D01*
X104697619Y-66457142D01*
X104792857Y-66409523D01*
X104983333Y-66361904D01*
X105221428Y-66361904D01*
X105411904Y-66409523D01*
X105507142Y-66457142D01*
X105554761Y-66504761D01*
X105602380Y-66600000D01*
X105602380Y-66695238D01*
X105554761Y-66790476D01*
X105507142Y-66838095D01*
X105411904Y-66885714D01*
X105221428Y-66933333D01*
X104983333Y-66933333D01*
X104792857Y-66885714D01*
X104697619Y-66838095D01*
X104650000Y-66790476D01*
X104602380Y-66695238D01*
X105602380Y-65933333D02*
X104602380Y-65933333D01*
X105602380Y-65361904D02*
X105030952Y-65790476D01*
X104602380Y-65361904D02*
X105173809Y-65933333D01*
D15*
X106437619Y-67643333D02*
X106313809Y-67730000D01*
X106437619Y-67791904D02*
X106177619Y-67791904D01*
X106177619Y-67692857D01*
X106190000Y-67668095D01*
X106202380Y-67655714D01*
X106227142Y-67643333D01*
X106264285Y-67643333D01*
X106289047Y-67655714D01*
X106301428Y-67668095D01*
X106313809Y-67692857D01*
X106313809Y-67791904D01*
X106177619Y-67556666D02*
X106177619Y-67383333D01*
X106437619Y-67494761D01*
D13*
X101473333Y-65882380D02*
X101140000Y-65406190D01*
X100901904Y-65882380D02*
X100901904Y-64882380D01*
X101282857Y-64882380D01*
X101378095Y-64930000D01*
X101425714Y-64977619D01*
X101473333Y-65072857D01*
X101473333Y-65215714D01*
X101425714Y-65310952D01*
X101378095Y-65358571D01*
X101282857Y-65406190D01*
X100901904Y-65406190D01*
X102330476Y-64882380D02*
X102140000Y-64882380D01*
X102044761Y-64930000D01*
X101997142Y-64977619D01*
X101901904Y-65120476D01*
X101854285Y-65310952D01*
X101854285Y-65691904D01*
X101901904Y-65787142D01*
X101949523Y-65834761D01*
X102044761Y-65882380D01*
X102235238Y-65882380D01*
X102330476Y-65834761D01*
X102378095Y-65787142D01*
X102425714Y-65691904D01*
X102425714Y-65453809D01*
X102378095Y-65358571D01*
X102330476Y-65310952D01*
X102235238Y-65263333D01*
X102044761Y-65263333D01*
X101949523Y-65310952D01*
X101901904Y-65358571D01*
X101854285Y-65453809D01*
X100663809Y-67222380D02*
X100187619Y-67222380D01*
X100140000Y-67698571D01*
X100187619Y-67650952D01*
X100282857Y-67603333D01*
X100520952Y-67603333D01*
X100616190Y-67650952D01*
X100663809Y-67698571D01*
X100711428Y-67793809D01*
X100711428Y-68031904D01*
X100663809Y-68127142D01*
X100616190Y-68174761D01*
X100520952Y-68222380D01*
X100282857Y-68222380D01*
X100187619Y-68174761D01*
X100140000Y-68127142D01*
X101140000Y-68127142D02*
X101187619Y-68174761D01*
X101140000Y-68222380D01*
X101092380Y-68174761D01*
X101140000Y-68127142D01*
X101140000Y-68222380D01*
X102140000Y-68222380D02*
X101568571Y-68222380D01*
X101854285Y-68222380D02*
X101854285Y-67222380D01*
X101759047Y-67365238D01*
X101663809Y-67460476D01*
X101568571Y-67508095D01*
X102568571Y-68222380D02*
X102568571Y-67222380D01*
X103140000Y-68222380D02*
X102711428Y-67650952D01*
X103140000Y-67222380D02*
X102568571Y-67793809D01*
D15*
X101596666Y-66717619D02*
X101510000Y-66593809D01*
X101448095Y-66717619D02*
X101448095Y-66457619D01*
X101547142Y-66457619D01*
X101571904Y-66470000D01*
X101584285Y-66482380D01*
X101596666Y-66507142D01*
X101596666Y-66544285D01*
X101584285Y-66569047D01*
X101571904Y-66581428D01*
X101547142Y-66593809D01*
X101448095Y-66593809D01*
X101819523Y-66457619D02*
X101770000Y-66457619D01*
X101745238Y-66470000D01*
X101732857Y-66482380D01*
X101708095Y-66519523D01*
X101695714Y-66569047D01*
X101695714Y-66668095D01*
X101708095Y-66692857D01*
X101720476Y-66705238D01*
X101745238Y-66717619D01*
X101794761Y-66717619D01*
X101819523Y-66705238D01*
X101831904Y-66692857D01*
X101844285Y-66668095D01*
X101844285Y-66606190D01*
X101831904Y-66581428D01*
X101819523Y-66569047D01*
X101794761Y-66556666D01*
X101745238Y-66556666D01*
X101720476Y-66569047D01*
X101708095Y-66581428D01*
X101695714Y-66606190D01*
D13*
X102293333Y-66892380D02*
X101960000Y-66416190D01*
X101721904Y-66892380D02*
X101721904Y-65892380D01*
X102102857Y-65892380D01*
X102198095Y-65940000D01*
X102245714Y-65987619D01*
X102293333Y-66082857D01*
X102293333Y-66225714D01*
X102245714Y-66320952D01*
X102198095Y-66368571D01*
X102102857Y-66416190D01*
X101721904Y-66416190D01*
X103198095Y-65892380D02*
X102721904Y-65892380D01*
X102674285Y-66368571D01*
X102721904Y-66320952D01*
X102817142Y-66273333D01*
X103055238Y-66273333D01*
X103150476Y-66320952D01*
X103198095Y-66368571D01*
X103245714Y-66463809D01*
X103245714Y-66701904D01*
X103198095Y-66797142D01*
X103150476Y-66844761D01*
X103055238Y-66892380D01*
X102817142Y-66892380D01*
X102721904Y-66844761D01*
X102674285Y-66797142D01*
X101483809Y-68232380D02*
X101007619Y-68232380D01*
X100960000Y-68708571D01*
X101007619Y-68660952D01*
X101102857Y-68613333D01*
X101340952Y-68613333D01*
X101436190Y-68660952D01*
X101483809Y-68708571D01*
X101531428Y-68803809D01*
X101531428Y-69041904D01*
X101483809Y-69137142D01*
X101436190Y-69184761D01*
X101340952Y-69232380D01*
X101102857Y-69232380D01*
X101007619Y-69184761D01*
X100960000Y-69137142D01*
X101960000Y-69137142D02*
X102007619Y-69184761D01*
X101960000Y-69232380D01*
X101912380Y-69184761D01*
X101960000Y-69137142D01*
X101960000Y-69232380D01*
X102960000Y-69232380D02*
X102388571Y-69232380D01*
X102674285Y-69232380D02*
X102674285Y-68232380D01*
X102579047Y-68375238D01*
X102483809Y-68470476D01*
X102388571Y-68518095D01*
X103388571Y-69232380D02*
X103388571Y-68232380D01*
X103960000Y-69232380D02*
X103531428Y-68660952D01*
X103960000Y-68232380D02*
X103388571Y-68803809D01*
D15*
X102416666Y-67727619D02*
X102330000Y-67603809D01*
X102268095Y-67727619D02*
X102268095Y-67467619D01*
X102367142Y-67467619D01*
X102391904Y-67480000D01*
X102404285Y-67492380D01*
X102416666Y-67517142D01*
X102416666Y-67554285D01*
X102404285Y-67579047D01*
X102391904Y-67591428D01*
X102367142Y-67603809D01*
X102268095Y-67603809D01*
X102651904Y-67467619D02*
X102528095Y-67467619D01*
X102515714Y-67591428D01*
X102528095Y-67579047D01*
X102552857Y-67566666D01*
X102614761Y-67566666D01*
X102639523Y-67579047D01*
X102651904Y-67591428D01*
X102664285Y-67616190D01*
X102664285Y-67678095D01*
X102651904Y-67702857D01*
X102639523Y-67715238D01*
X102614761Y-67727619D01*
X102552857Y-67727619D01*
X102528095Y-67715238D01*
X102515714Y-67702857D01*
D13*
X95782380Y-68623333D02*
X96496666Y-68623333D01*
X96639523Y-68670952D01*
X96734761Y-68766190D01*
X96782380Y-68909047D01*
X96782380Y-69004285D01*
X95877619Y-68194761D02*
X95830000Y-68147142D01*
X95782380Y-68051904D01*
X95782380Y-67813809D01*
X95830000Y-67718571D01*
X95877619Y-67670952D01*
X95972857Y-67623333D01*
X96068095Y-67623333D01*
X96210952Y-67670952D01*
X96782380Y-68242380D01*
X96782380Y-67623333D01*
X101687142Y-72028095D02*
X101734761Y-72075714D01*
X101782380Y-72218571D01*
X101782380Y-72313809D01*
X101734761Y-72456666D01*
X101639523Y-72551904D01*
X101544285Y-72599523D01*
X101353809Y-72647142D01*
X101210952Y-72647142D01*
X101020476Y-72599523D01*
X100925238Y-72551904D01*
X100830000Y-72456666D01*
X100782380Y-72313809D01*
X100782380Y-72218571D01*
X100830000Y-72075714D01*
X100877619Y-72028095D01*
X101782380Y-71456666D02*
X101734761Y-71551904D01*
X101687142Y-71599523D01*
X101591904Y-71647142D01*
X101306190Y-71647142D01*
X101210952Y-71599523D01*
X101163333Y-71551904D01*
X101115714Y-71456666D01*
X101115714Y-71313809D01*
X101163333Y-71218571D01*
X101210952Y-71170952D01*
X101306190Y-71123333D01*
X101591904Y-71123333D01*
X101687142Y-71170952D01*
X101734761Y-71218571D01*
X101782380Y-71313809D01*
X101782380Y-71456666D01*
X101115714Y-70694761D02*
X101782380Y-70694761D01*
X101210952Y-70694761D02*
X101163333Y-70647142D01*
X101115714Y-70551904D01*
X101115714Y-70409047D01*
X101163333Y-70313809D01*
X101258571Y-70266190D01*
X101782380Y-70266190D01*
X101115714Y-69790000D02*
X101782380Y-69790000D01*
X101210952Y-69790000D02*
X101163333Y-69742380D01*
X101115714Y-69647142D01*
X101115714Y-69504285D01*
X101163333Y-69409047D01*
X101258571Y-69361428D01*
X101782380Y-69361428D01*
X101877619Y-69123333D02*
X101877619Y-68361428D01*
X100782380Y-67932857D02*
X100782380Y-67837619D01*
X100830000Y-67742380D01*
X100877619Y-67694761D01*
X100972857Y-67647142D01*
X101163333Y-67599523D01*
X101401428Y-67599523D01*
X101591904Y-67647142D01*
X101687142Y-67694761D01*
X101734761Y-67742380D01*
X101782380Y-67837619D01*
X101782380Y-67932857D01*
X101734761Y-68028095D01*
X101687142Y-68075714D01*
X101591904Y-68123333D01*
X101401428Y-68170952D01*
X101163333Y-68170952D01*
X100972857Y-68123333D01*
X100877619Y-68075714D01*
X100830000Y-68028095D01*
X100782380Y-67932857D01*
X101782380Y-66647142D02*
X101782380Y-67218571D01*
X101782380Y-66932857D02*
X100782380Y-66932857D01*
X100925238Y-67028095D01*
X101020476Y-67123333D01*
X101068095Y-67218571D01*
X101782380Y-66313809D02*
X101115714Y-65790000D01*
X101115714Y-66313809D02*
X101782380Y-65790000D01*
X100782380Y-65218571D02*
X100782380Y-65123333D01*
X100830000Y-65028095D01*
X100877619Y-64980476D01*
X100972857Y-64932857D01*
X101163333Y-64885238D01*
X101401428Y-64885238D01*
X101591904Y-64932857D01*
X101687142Y-64980476D01*
X101734761Y-65028095D01*
X101782380Y-65123333D01*
X101782380Y-65218571D01*
X101734761Y-65313809D01*
X101687142Y-65361428D01*
X101591904Y-65409047D01*
X101401428Y-65456666D01*
X101163333Y-65456666D01*
X100972857Y-65409047D01*
X100877619Y-65361428D01*
X100830000Y-65313809D01*
X100782380Y-65218571D01*
X100877619Y-64504285D02*
X100830000Y-64456666D01*
X100782380Y-64361428D01*
X100782380Y-64123333D01*
X100830000Y-64028095D01*
X100877619Y-63980476D01*
X100972857Y-63932857D01*
X101068095Y-63932857D01*
X101210952Y-63980476D01*
X101782380Y-64551904D01*
X101782380Y-63932857D01*
X95782380Y-68623333D02*
X96496666Y-68623333D01*
X96639523Y-68670952D01*
X96734761Y-68766190D01*
X96782380Y-68909047D01*
X96782380Y-69004285D01*
X95877619Y-68194761D02*
X95830000Y-68147142D01*
X95782380Y-68051904D01*
X95782380Y-67813809D01*
X95830000Y-67718571D01*
X95877619Y-67670952D01*
X95972857Y-67623333D01*
X96068095Y-67623333D01*
X96210952Y-67670952D01*
X96782380Y-68242380D01*
X96782380Y-67623333D01*
X102712380Y-70416666D02*
X102236190Y-70750000D01*
X102712380Y-70988095D02*
X101712380Y-70988095D01*
X101712380Y-70607142D01*
X101760000Y-70511904D01*
X101807619Y-70464285D01*
X101902857Y-70416666D01*
X102045714Y-70416666D01*
X102140952Y-70464285D01*
X102188571Y-70511904D01*
X102236190Y-70607142D01*
X102236190Y-70988095D01*
X101807619Y-70035714D02*
X101760000Y-69988095D01*
X101712380Y-69892857D01*
X101712380Y-69654761D01*
X101760000Y-69559523D01*
X101807619Y-69511904D01*
X101902857Y-69464285D01*
X101998095Y-69464285D01*
X102140952Y-69511904D01*
X102712380Y-70083333D01*
X102712380Y-69464285D01*
X100392380Y-71464285D02*
X99392380Y-71464285D01*
X99392380Y-71226190D01*
X99440000Y-71083333D01*
X99535238Y-70988095D01*
X99630476Y-70940476D01*
X99820952Y-70892857D01*
X99963809Y-70892857D01*
X100154285Y-70940476D01*
X100249523Y-70988095D01*
X100344761Y-71083333D01*
X100392380Y-71226190D01*
X100392380Y-71464285D01*
X100392380Y-70464285D02*
X99392380Y-70464285D01*
X100392380Y-69892857D01*
X99392380Y-69892857D01*
X99868571Y-69083333D02*
X99868571Y-69416666D01*
X100392380Y-69416666D02*
X99392380Y-69416666D01*
X99392380Y-68940476D01*
D15*
X101213095Y-70291666D02*
X101094047Y-70375000D01*
X101213095Y-70434523D02*
X100963095Y-70434523D01*
X100963095Y-70339285D01*
X100975000Y-70315476D01*
X100986904Y-70303571D01*
X101010714Y-70291666D01*
X101046428Y-70291666D01*
X101070238Y-70303571D01*
X101082142Y-70315476D01*
X101094047Y-70339285D01*
X101094047Y-70434523D01*
X100986904Y-70196428D02*
X100975000Y-70184523D01*
X100963095Y-70160714D01*
X100963095Y-70101190D01*
X100975000Y-70077380D01*
X100986904Y-70065476D01*
X101010714Y-70053571D01*
X101034523Y-70053571D01*
X101070238Y-70065476D01*
X101213095Y-70208333D01*
X101213095Y-70053571D01*
D16*
X95159457Y-78841081D02*
X95970427Y-78841081D01*
X96065836Y-78793377D01*
X96113540Y-78745673D01*
X96161244Y-78650264D01*
X96161244Y-78459448D01*
X96113540Y-78364039D01*
X96065836Y-78316335D01*
X95970427Y-78268631D01*
X95159457Y-78268631D01*
X95254865Y-77839294D02*
X95207161Y-77791590D01*
X95159457Y-77696181D01*
X95159457Y-77457661D01*
X95207161Y-77362252D01*
X95254865Y-77314548D01*
X95350273Y-77266844D01*
X95445682Y-77266844D01*
X95588794Y-77314548D01*
X96161244Y-77886998D01*
X96161244Y-77266844D01*
X102920893Y-75167613D02*
X103921956Y-74929265D01*
X103206911Y-74738586D01*
X103921956Y-74547908D01*
X102920893Y-74309559D01*
X103016233Y-73975872D02*
X102968563Y-73928202D01*
X102920893Y-73832863D01*
X102920893Y-73594514D01*
X102968563Y-73499175D01*
X103016233Y-73451505D01*
X103111572Y-73403836D01*
X103206911Y-73403836D01*
X103349920Y-73451505D01*
X103921956Y-74023541D01*
X103921956Y-73403836D01*
X102920893Y-72498112D02*
X102920893Y-72974809D01*
X103397590Y-73022478D01*
X103349920Y-72974809D01*
X103302251Y-72879469D01*
X103302251Y-72641121D01*
X103349920Y-72545782D01*
X103397590Y-72498112D01*
X103492929Y-72450442D01*
X103731278Y-72450442D01*
X103826617Y-72498112D01*
X103874287Y-72545782D01*
X103921956Y-72641121D01*
X103921956Y-72879469D01*
X103874287Y-72974809D01*
X103826617Y-73022478D01*
X104017296Y-71354040D02*
X103969626Y-71449379D01*
X103874287Y-71544719D01*
X103731278Y-71687728D01*
X103683608Y-71783067D01*
X103683608Y-71878406D01*
X103921956Y-71830737D02*
X103874287Y-71926076D01*
X103778947Y-72021415D01*
X103588269Y-72069085D01*
X103254581Y-72069085D01*
X103063902Y-72021415D01*
X102968563Y-71926076D01*
X102920893Y-71830737D01*
X102920893Y-71640058D01*
X102968563Y-71544719D01*
X103063902Y-71449379D01*
X103254581Y-71401710D01*
X103588269Y-71401710D01*
X103778947Y-71449379D01*
X103874287Y-71544719D01*
X103921956Y-71640058D01*
X103921956Y-71830737D01*
X103016233Y-71020352D02*
X102968563Y-70972683D01*
X102920893Y-70877343D01*
X102920893Y-70638995D01*
X102968563Y-70543656D01*
X103016233Y-70495986D01*
X103111572Y-70448316D01*
X103206911Y-70448316D01*
X103349920Y-70495986D01*
X103921956Y-71068022D01*
X103921956Y-70448316D01*
X102920893Y-69542593D02*
X102920893Y-70019289D01*
X103397590Y-70066959D01*
X103349920Y-70019289D01*
X103302251Y-69923950D01*
X103302251Y-69685602D01*
X103349920Y-69590262D01*
X103397590Y-69542593D01*
X103492929Y-69494923D01*
X103731278Y-69494923D01*
X103826617Y-69542593D01*
X103874287Y-69590262D01*
X103921956Y-69685602D01*
X103921956Y-69923950D01*
X103874287Y-70019289D01*
X103826617Y-70066959D01*
X102920893Y-68636869D02*
X102920893Y-68827548D01*
X102968563Y-68922887D01*
X103016233Y-68970557D01*
X103159242Y-69065896D01*
X103349920Y-69113566D01*
X103731278Y-69113566D01*
X103826617Y-69065896D01*
X103874287Y-69018226D01*
X103921956Y-68922887D01*
X103921956Y-68732208D01*
X103874287Y-68636869D01*
X103826617Y-68589199D01*
X103731278Y-68541530D01*
X103492929Y-68541530D01*
X103397590Y-68589199D01*
X103349920Y-68636869D01*
X103302251Y-68732208D01*
X103302251Y-68922887D01*
X103349920Y-69018226D01*
X103397590Y-69065896D01*
X103492929Y-69113566D01*
X102920893Y-67826485D02*
X103635938Y-67826485D01*
X103778947Y-67874154D01*
X103874287Y-67969494D01*
X103921956Y-68112503D01*
X103921956Y-68207842D01*
X102920893Y-67492797D02*
X103921956Y-67159109D01*
X102920893Y-66825422D01*
X103397590Y-66491734D02*
X103397590Y-66158046D01*
X103921956Y-66015037D02*
X103921956Y-66491734D01*
X102920893Y-66491734D01*
X102920893Y-66015037D01*
X103921956Y-65586010D02*
X102920893Y-65586010D01*
X104017296Y-64441938D02*
X103969626Y-64537278D01*
X103874287Y-64632617D01*
X103731278Y-64775626D01*
X103683608Y-64870965D01*
X103683608Y-64966305D01*
X103921956Y-64918635D02*
X103874287Y-65013974D01*
X103778947Y-65109314D01*
X103588269Y-65156983D01*
X103254581Y-65156983D01*
X103063902Y-65109314D01*
X102968563Y-65013974D01*
X102920893Y-64918635D01*
X102920893Y-64727956D01*
X102968563Y-64632617D01*
X103063902Y-64537278D01*
X103254581Y-64489608D01*
X103588269Y-64489608D01*
X103778947Y-64537278D01*
X103874287Y-64632617D01*
X103921956Y-64727956D01*
X103921956Y-64918635D01*
X104017296Y-64298929D02*
X104017296Y-63536215D01*
X102920893Y-63440875D02*
X102920893Y-62868839D01*
X103921956Y-63154857D02*
X102920893Y-63154857D01*
X103921956Y-61963116D02*
X103445260Y-62296803D01*
X103921956Y-62535152D02*
X102920893Y-62535152D01*
X102920893Y-62153794D01*
X102968563Y-62058455D01*
X103016233Y-62010785D01*
X103111572Y-61963116D01*
X103254581Y-61963116D01*
X103349920Y-62010785D01*
X103397590Y-62058455D01*
X103445260Y-62153794D01*
X103445260Y-62535152D01*
D13*
X111352380Y-69561904D02*
X112161904Y-69561904D01*
X112257142Y-69514285D01*
X112304761Y-69466666D01*
X112352380Y-69371428D01*
X112352380Y-69180952D01*
X112304761Y-69085714D01*
X112257142Y-69038095D01*
X112161904Y-68990476D01*
X111352380Y-68990476D01*
X112352380Y-67990476D02*
X112352380Y-68561904D01*
X112352380Y-68276190D02*
X111352380Y-68276190D01*
X111495238Y-68371428D01*
X111590476Y-68466666D01*
X111638095Y-68561904D01*
X106504761Y-76228571D02*
X106552380Y-76085714D01*
X106552380Y-75847619D01*
X106504761Y-75752380D01*
X106457142Y-75704761D01*
X106361904Y-75657142D01*
X106266666Y-75657142D01*
X106171428Y-75704761D01*
X106123809Y-75752380D01*
X106076190Y-75847619D01*
X106028571Y-76038095D01*
X105980952Y-76133333D01*
X105933333Y-76180952D01*
X105838095Y-76228571D01*
X105742857Y-76228571D01*
X105647619Y-76180952D01*
X105600000Y-76133333D01*
X105552380Y-76038095D01*
X105552380Y-75800000D01*
X105600000Y-75657142D01*
X106552380Y-75228571D02*
X105552380Y-75228571D01*
X105552380Y-74847619D01*
X105600000Y-74752380D01*
X105647619Y-74704761D01*
X105742857Y-74657142D01*
X105885714Y-74657142D01*
X105980952Y-74704761D01*
X106028571Y-74752380D01*
X106076190Y-74847619D01*
X106076190Y-75228571D01*
X105552380Y-74323809D02*
X106552380Y-73657142D01*
X105552380Y-73657142D02*
X106552380Y-74323809D01*
X105552380Y-73371428D02*
X105552380Y-72752380D01*
X105933333Y-73085714D01*
X105933333Y-72942857D01*
X105980952Y-72847619D01*
X106028571Y-72800000D01*
X106123809Y-72752380D01*
X106361904Y-72752380D01*
X106457142Y-72800000D01*
X106504761Y-72847619D01*
X106552380Y-72942857D01*
X106552380Y-73228571D01*
X106504761Y-73323809D01*
X106457142Y-73371428D01*
X105980952Y-72180952D02*
X105933333Y-72276190D01*
X105885714Y-72323809D01*
X105790476Y-72371428D01*
X105742857Y-72371428D01*
X105647619Y-72323809D01*
X105600000Y-72276190D01*
X105552380Y-72180952D01*
X105552380Y-71990476D01*
X105600000Y-71895238D01*
X105647619Y-71847619D01*
X105742857Y-71800000D01*
X105790476Y-71800000D01*
X105885714Y-71847619D01*
X105933333Y-71895238D01*
X105980952Y-71990476D01*
X105980952Y-72180952D01*
X106028571Y-72276190D01*
X106076190Y-72323809D01*
X106171428Y-72371428D01*
X106361904Y-72371428D01*
X106457142Y-72323809D01*
X106504761Y-72276190D01*
X106552380Y-72180952D01*
X106552380Y-71990476D01*
X106504761Y-71895238D01*
X106457142Y-71847619D01*
X106361904Y-71800000D01*
X106171428Y-71800000D01*
X106076190Y-71847619D01*
X106028571Y-71895238D01*
X105980952Y-71990476D01*
X106552380Y-70847619D02*
X106552380Y-71419047D01*
X106552380Y-71133333D02*
X105552380Y-71133333D01*
X105695238Y-71228571D01*
X105790476Y-71323809D01*
X105838095Y-71419047D01*
X106552380Y-70371428D02*
X106552380Y-70180952D01*
X106504761Y-70085714D01*
X106457142Y-70038095D01*
X106314285Y-69942857D01*
X106123809Y-69895238D01*
X105742857Y-69895238D01*
X105647619Y-69942857D01*
X105600000Y-69990476D01*
X105552380Y-70085714D01*
X105552380Y-70276190D01*
X105600000Y-70371428D01*
X105647619Y-70419047D01*
X105742857Y-70466666D01*
X105980952Y-70466666D01*
X106076190Y-70419047D01*
X106123809Y-70371428D01*
X106171428Y-70276190D01*
X106171428Y-70085714D01*
X106123809Y-69990476D01*
X106076190Y-69942857D01*
X105980952Y-69895238D01*
X106552380Y-69466666D02*
X105552380Y-69466666D01*
X106266666Y-69133333D01*
X105552380Y-68800000D01*
X106552380Y-68800000D01*
X105552380Y-67847619D02*
X105552380Y-68323809D01*
X106028571Y-68371428D01*
X105980952Y-68323809D01*
X105933333Y-68228571D01*
X105933333Y-67990476D01*
X105980952Y-67895238D01*
X106028571Y-67847619D01*
X106123809Y-67800000D01*
X106361904Y-67800000D01*
X106457142Y-67847619D01*
X106504761Y-67895238D01*
X106552380Y-67990476D01*
X106552380Y-68228571D01*
X106504761Y-68323809D01*
X106457142Y-68371428D01*
X106171428Y-67371428D02*
X106171428Y-66609523D01*
X106552380Y-65657142D02*
X106552380Y-66133333D01*
X105552380Y-66133333D01*
X106171428Y-65323809D02*
X106171428Y-64561904D01*
X105552380Y-64180952D02*
X105552380Y-63561904D01*
X105933333Y-63895238D01*
X105933333Y-63752380D01*
X105980952Y-63657142D01*
X106028571Y-63609523D01*
X106123809Y-63561904D01*
X106361904Y-63561904D01*
X106457142Y-63609523D01*
X106504761Y-63657142D01*
X106552380Y-63752380D01*
X106552380Y-64038095D01*
X106504761Y-64133333D01*
X106457142Y-64180952D01*
X106171428Y-63133333D02*
X106171428Y-62371428D01*
X105552380Y-61990476D02*
X105552380Y-61371428D01*
X105933333Y-61704761D01*
X105933333Y-61561904D01*
X105980952Y-61466666D01*
X106028571Y-61419047D01*
X106123809Y-61371428D01*
X106361904Y-61371428D01*
X106457142Y-61419047D01*
X106504761Y-61466666D01*
X106552380Y-61561904D01*
X106552380Y-61847619D01*
X106504761Y-61942857D01*
X106457142Y-61990476D01*
D17*
X108619047Y-68526190D02*
X108619047Y-68930952D01*
X108642857Y-68978571D01*
X108666666Y-69002380D01*
X108714285Y-69026190D01*
X108809523Y-69026190D01*
X108857142Y-69002380D01*
X108880952Y-68978571D01*
X108904761Y-68930952D01*
X108904761Y-68526190D01*
X109404761Y-69026190D02*
X109119047Y-69026190D01*
X109261904Y-69026190D02*
X109261904Y-68526190D01*
X109214285Y-68597619D01*
X109166666Y-68645238D01*
X109119047Y-68669047D01*
D13*
X108067142Y-70816666D02*
X108114761Y-70864285D01*
X108162380Y-71007142D01*
X108162380Y-71102380D01*
X108114761Y-71245238D01*
X108019523Y-71340476D01*
X107924285Y-71388095D01*
X107733809Y-71435714D01*
X107590952Y-71435714D01*
X107400476Y-71388095D01*
X107305238Y-71340476D01*
X107210000Y-71245238D01*
X107162380Y-71102380D01*
X107162380Y-71007142D01*
X107210000Y-70864285D01*
X107257619Y-70816666D01*
X107590952Y-70245238D02*
X107543333Y-70340476D01*
X107495714Y-70388095D01*
X107400476Y-70435714D01*
X107352857Y-70435714D01*
X107257619Y-70388095D01*
X107210000Y-70340476D01*
X107162380Y-70245238D01*
X107162380Y-70054761D01*
X107210000Y-69959523D01*
X107257619Y-69911904D01*
X107352857Y-69864285D01*
X107400476Y-69864285D01*
X107495714Y-69911904D01*
X107543333Y-69959523D01*
X107590952Y-70054761D01*
X107590952Y-70245238D01*
X107638571Y-70340476D01*
X107686190Y-70388095D01*
X107781428Y-70435714D01*
X107971904Y-70435714D01*
X108067142Y-70388095D01*
X108114761Y-70340476D01*
X108162380Y-70245238D01*
X108162380Y-70054761D01*
X108114761Y-69959523D01*
X108067142Y-69911904D01*
X107971904Y-69864285D01*
X107781428Y-69864285D01*
X107686190Y-69911904D01*
X107638571Y-69959523D01*
X107590952Y-70054761D01*
X105842380Y-71769047D02*
X105842380Y-72340476D01*
X105842380Y-72054761D02*
X104842380Y-72054761D01*
X104985238Y-72150000D01*
X105080476Y-72245238D01*
X105128095Y-72340476D01*
X104842380Y-71150000D02*
X104842380Y-71054761D01*
X104890000Y-70959523D01*
X104937619Y-70911904D01*
X105032857Y-70864285D01*
X105223333Y-70816666D01*
X105461428Y-70816666D01*
X105651904Y-70864285D01*
X105747142Y-70911904D01*
X105794761Y-70959523D01*
X105842380Y-71054761D01*
X105842380Y-71150000D01*
X105794761Y-71245238D01*
X105747142Y-71292857D01*
X105651904Y-71340476D01*
X105461428Y-71388095D01*
X105223333Y-71388095D01*
X105032857Y-71340476D01*
X104937619Y-71292857D01*
X104890000Y-71245238D01*
X104842380Y-71150000D01*
X104842380Y-70197619D02*
X104842380Y-70102380D01*
X104890000Y-70007142D01*
X104937619Y-69959523D01*
X105032857Y-69911904D01*
X105223333Y-69864285D01*
X105461428Y-69864285D01*
X105651904Y-69911904D01*
X105747142Y-69959523D01*
X105794761Y-70007142D01*
X105842380Y-70102380D01*
X105842380Y-70197619D01*
X105794761Y-70292857D01*
X105747142Y-70340476D01*
X105651904Y-70388095D01*
X105461428Y-70435714D01*
X105223333Y-70435714D01*
X105032857Y-70388095D01*
X104937619Y-70340476D01*
X104890000Y-70292857D01*
X104842380Y-70197619D01*
X105175714Y-69435714D02*
X105842380Y-69435714D01*
X105270952Y-69435714D02*
X105223333Y-69388095D01*
X105175714Y-69292857D01*
X105175714Y-69150000D01*
X105223333Y-69054761D01*
X105318571Y-69007142D01*
X105842380Y-69007142D01*
D15*
X106639285Y-70691666D02*
X106651190Y-70703571D01*
X106663095Y-70739285D01*
X106663095Y-70763095D01*
X106651190Y-70798809D01*
X106627380Y-70822619D01*
X106603571Y-70834523D01*
X106555952Y-70846428D01*
X106520238Y-70846428D01*
X106472619Y-70834523D01*
X106448809Y-70822619D01*
X106425000Y-70798809D01*
X106413095Y-70763095D01*
X106413095Y-70739285D01*
X106425000Y-70703571D01*
X106436904Y-70691666D01*
X106520238Y-70548809D02*
X106508333Y-70572619D01*
X106496428Y-70584523D01*
X106472619Y-70596428D01*
X106460714Y-70596428D01*
X106436904Y-70584523D01*
X106425000Y-70572619D01*
X106413095Y-70548809D01*
X106413095Y-70501190D01*
X106425000Y-70477380D01*
X106436904Y-70465476D01*
X106460714Y-70453571D01*
X106472619Y-70453571D01*
X106496428Y-70465476D01*
X106508333Y-70477380D01*
X106520238Y-70501190D01*
X106520238Y-70548809D01*
X106532142Y-70572619D01*
X106544047Y-70584523D01*
X106567857Y-70596428D01*
X106615476Y-70596428D01*
X106639285Y-70584523D01*
X106651190Y-70572619D01*
X106663095Y-70548809D01*
X106663095Y-70501190D01*
X106651190Y-70477380D01*
X106639285Y-70465476D01*
X106615476Y-70453571D01*
X106567857Y-70453571D01*
X106544047Y-70465476D01*
X106532142Y-70477380D01*
X106520238Y-70501190D01*
D13*
X109558333Y-73017142D02*
X109510714Y-73064761D01*
X109367857Y-73112380D01*
X109272619Y-73112380D01*
X109129761Y-73064761D01*
X109034523Y-72969523D01*
X108986904Y-72874285D01*
X108939285Y-72683809D01*
X108939285Y-72540952D01*
X108986904Y-72350476D01*
X109034523Y-72255238D01*
X109129761Y-72160000D01*
X109272619Y-72112380D01*
X109367857Y-72112380D01*
X109510714Y-72160000D01*
X109558333Y-72207619D01*
X110415476Y-72445714D02*
X110415476Y-73112380D01*
X110177380Y-72064761D02*
X109939285Y-72779047D01*
X110558333Y-72779047D01*
X109082142Y-70792380D02*
X108510714Y-70792380D01*
X108796428Y-70792380D02*
X108796428Y-69792380D01*
X108701190Y-69935238D01*
X108605952Y-70030476D01*
X108510714Y-70078095D01*
X109701190Y-69792380D02*
X109796428Y-69792380D01*
X109891666Y-69840000D01*
X109939285Y-69887619D01*
X109986904Y-69982857D01*
X110034523Y-70173333D01*
X110034523Y-70411428D01*
X109986904Y-70601904D01*
X109939285Y-70697142D01*
X109891666Y-70744761D01*
X109796428Y-70792380D01*
X109701190Y-70792380D01*
X109605952Y-70744761D01*
X109558333Y-70697142D01*
X109510714Y-70601904D01*
X109463095Y-70411428D01*
X109463095Y-70173333D01*
X109510714Y-69982857D01*
X109558333Y-69887619D01*
X109605952Y-69840000D01*
X109701190Y-69792380D01*
X110891666Y-70125714D02*
X110891666Y-70792380D01*
X110463095Y-70125714D02*
X110463095Y-70649523D01*
X110510714Y-70744761D01*
X110605952Y-70792380D01*
X110748809Y-70792380D01*
X110844047Y-70744761D01*
X110891666Y-70697142D01*
D15*
X109683333Y-71589285D02*
X109671428Y-71601190D01*
X109635714Y-71613095D01*
X109611904Y-71613095D01*
X109576190Y-71601190D01*
X109552380Y-71577380D01*
X109540476Y-71553571D01*
X109528571Y-71505952D01*
X109528571Y-71470238D01*
X109540476Y-71422619D01*
X109552380Y-71398809D01*
X109576190Y-71375000D01*
X109611904Y-71363095D01*
X109635714Y-71363095D01*
X109671428Y-71375000D01*
X109683333Y-71386904D01*
X109897619Y-71446428D02*
X109897619Y-71613095D01*
X109838095Y-71351190D02*
X109778571Y-71529761D01*
X109933333Y-71529761D01*
D13*
X98715476Y-93152380D02*
X99382142Y-94152380D01*
X99382142Y-93152380D02*
X98715476Y-94152380D01*
X100286904Y-94152380D02*
X99715476Y-94152380D01*
X100001190Y-94152380D02*
X100001190Y-93152380D01*
X99905952Y-93295238D01*
X99810714Y-93390476D01*
X99715476Y-93438095D01*
X97715476Y-98052380D02*
X98382142Y-99052380D01*
X98382142Y-98052380D02*
X97715476Y-99052380D01*
X98953571Y-98052380D02*
X99144047Y-98052380D01*
X99239285Y-98100000D01*
X99334523Y-98195238D01*
X99382142Y-98385714D01*
X99382142Y-98719047D01*
X99334523Y-98909523D01*
X99239285Y-99004761D01*
X99144047Y-99052380D01*
X98953571Y-99052380D01*
X98858333Y-99004761D01*
X98763095Y-98909523D01*
X98715476Y-98719047D01*
X98715476Y-98385714D01*
X98763095Y-98195238D01*
X98858333Y-98100000D01*
X98953571Y-98052380D01*
X99715476Y-98052380D02*
X100334523Y-98052380D01*
X100001190Y-98433333D01*
X100144047Y-98433333D01*
X100239285Y-98480952D01*
X100286904Y-98528571D01*
X100334523Y-98623809D01*
X100334523Y-98861904D01*
X100286904Y-98957142D01*
X100239285Y-99004761D01*
X100144047Y-99052380D01*
X99858333Y-99052380D01*
X99763095Y-99004761D01*
X99715476Y-98957142D01*
X100715476Y-98147619D02*
X100763095Y-98100000D01*
X100858333Y-98052380D01*
X101096428Y-98052380D01*
X101191666Y-98100000D01*
X101239285Y-98147619D01*
X101286904Y-98242857D01*
X101286904Y-98338095D01*
X101239285Y-98480952D01*
X100667857Y-99052380D01*
X101286904Y-99052380D01*
D18*
X98958333Y-95766666D02*
X99425000Y-96466666D01*
X99425000Y-95766666D02*
X98958333Y-96466666D01*
X100058333Y-96466666D02*
X99658333Y-96466666D01*
X99858333Y-96466666D02*
X99858333Y-95766666D01*
X99791666Y-95866666D01*
X99725000Y-95933333D01*
X99658333Y-95966666D01*
D13*
X109338095Y-55677380D02*
X109338095Y-54677380D01*
X109338095Y-55153571D02*
X109909523Y-55153571D01*
X109909523Y-55677380D02*
X109909523Y-54677380D01*
X110909523Y-55677380D02*
X110338095Y-55677380D01*
X110623809Y-55677380D02*
X110623809Y-54677380D01*
X110528571Y-54820238D01*
X110433333Y-54915476D01*
X110338095Y-54963095D01*
X105314285Y-63077380D02*
X105314285Y-62077380D01*
X105647619Y-62791666D01*
X105980952Y-62077380D01*
X105980952Y-63077380D01*
X106600000Y-63077380D02*
X106504761Y-63029761D01*
X106457142Y-62982142D01*
X106409523Y-62886904D01*
X106409523Y-62601190D01*
X106457142Y-62505952D01*
X106504761Y-62458333D01*
X106600000Y-62410714D01*
X106742857Y-62410714D01*
X106838095Y-62458333D01*
X106885714Y-62505952D01*
X106933333Y-62601190D01*
X106933333Y-62886904D01*
X106885714Y-62982142D01*
X106838095Y-63029761D01*
X106742857Y-63077380D01*
X106600000Y-63077380D01*
X107790476Y-62410714D02*
X107790476Y-63077380D01*
X107361904Y-62410714D02*
X107361904Y-62934523D01*
X107409523Y-63029761D01*
X107504761Y-63077380D01*
X107647619Y-63077380D01*
X107742857Y-63029761D01*
X107790476Y-62982142D01*
X108266666Y-62410714D02*
X108266666Y-63077380D01*
X108266666Y-62505952D02*
X108314285Y-62458333D01*
X108409523Y-62410714D01*
X108552380Y-62410714D01*
X108647619Y-62458333D01*
X108695238Y-62553571D01*
X108695238Y-63077380D01*
X109028571Y-62410714D02*
X109409523Y-62410714D01*
X109171428Y-62077380D02*
X109171428Y-62934523D01*
X109219047Y-63029761D01*
X109314285Y-63077380D01*
X109409523Y-63077380D01*
X109742857Y-63077380D02*
X109742857Y-62410714D01*
X109742857Y-62077380D02*
X109695238Y-62125000D01*
X109742857Y-62172619D01*
X109790476Y-62125000D01*
X109742857Y-62077380D01*
X109742857Y-62172619D01*
X110219047Y-62410714D02*
X110219047Y-63077380D01*
X110219047Y-62505952D02*
X110266666Y-62458333D01*
X110361904Y-62410714D01*
X110504761Y-62410714D01*
X110600000Y-62458333D01*
X110647619Y-62553571D01*
X110647619Y-63077380D01*
X111552380Y-62410714D02*
X111552380Y-63220238D01*
X111504761Y-63315476D01*
X111457142Y-63363095D01*
X111361904Y-63410714D01*
X111219047Y-63410714D01*
X111123809Y-63363095D01*
X111552380Y-63029761D02*
X111457142Y-63077380D01*
X111266666Y-63077380D01*
X111171428Y-63029761D01*
X111123809Y-62982142D01*
X111076190Y-62886904D01*
X111076190Y-62601190D01*
X111123809Y-62505952D01*
X111171428Y-62458333D01*
X111266666Y-62410714D01*
X111457142Y-62410714D01*
X111552380Y-62458333D01*
X112028571Y-63077380D02*
X112028571Y-62077380D01*
X112028571Y-62553571D02*
X112600000Y-62553571D01*
X112600000Y-63077380D02*
X112600000Y-62077380D01*
X113219047Y-63077380D02*
X113123809Y-63029761D01*
X113076190Y-62982142D01*
X113028571Y-62886904D01*
X113028571Y-62601190D01*
X113076190Y-62505952D01*
X113123809Y-62458333D01*
X113219047Y-62410714D01*
X113361904Y-62410714D01*
X113457142Y-62458333D01*
X113504761Y-62505952D01*
X113552380Y-62601190D01*
X113552380Y-62886904D01*
X113504761Y-62982142D01*
X113457142Y-63029761D01*
X113361904Y-63077380D01*
X113219047Y-63077380D01*
X114123809Y-63077380D02*
X114028571Y-63029761D01*
X113980952Y-62934523D01*
X113980952Y-62077380D01*
X114885714Y-63029761D02*
X114790476Y-63077380D01*
X114600000Y-63077380D01*
X114504761Y-63029761D01*
X114457142Y-62934523D01*
X114457142Y-62553571D01*
X114504761Y-62458333D01*
X114600000Y-62410714D01*
X114790476Y-62410714D01*
X114885714Y-62458333D01*
X114933333Y-62553571D01*
X114933333Y-62648809D01*
X114457142Y-62744047D01*
X109638095Y-59377380D02*
X109638095Y-58377380D01*
X109638095Y-58853571D02*
X110209523Y-58853571D01*
X110209523Y-59377380D02*
X110209523Y-58377380D01*
X111209523Y-59377380D02*
X110638095Y-59377380D01*
X110923809Y-59377380D02*
X110923809Y-58377380D01*
X110828571Y-58520238D01*
X110733333Y-58615476D01*
X110638095Y-58663095D01*
X96588095Y-55677380D02*
X96588095Y-54677380D01*
X96588095Y-55153571D02*
X97159523Y-55153571D01*
X97159523Y-55677380D02*
X97159523Y-54677380D01*
X98064285Y-55010714D02*
X98064285Y-55677380D01*
X97826190Y-54629761D02*
X97588095Y-55344047D01*
X98207142Y-55344047D01*
X92564285Y-63077380D02*
X92564285Y-62077380D01*
X92897619Y-62791666D01*
X93230952Y-62077380D01*
X93230952Y-63077380D01*
X93850000Y-63077380D02*
X93754761Y-63029761D01*
X93707142Y-62982142D01*
X93659523Y-62886904D01*
X93659523Y-62601190D01*
X93707142Y-62505952D01*
X93754761Y-62458333D01*
X93850000Y-62410714D01*
X93992857Y-62410714D01*
X94088095Y-62458333D01*
X94135714Y-62505952D01*
X94183333Y-62601190D01*
X94183333Y-62886904D01*
X94135714Y-62982142D01*
X94088095Y-63029761D01*
X93992857Y-63077380D01*
X93850000Y-63077380D01*
X95040476Y-62410714D02*
X95040476Y-63077380D01*
X94611904Y-62410714D02*
X94611904Y-62934523D01*
X94659523Y-63029761D01*
X94754761Y-63077380D01*
X94897619Y-63077380D01*
X94992857Y-63029761D01*
X95040476Y-62982142D01*
X95516666Y-62410714D02*
X95516666Y-63077380D01*
X95516666Y-62505952D02*
X95564285Y-62458333D01*
X95659523Y-62410714D01*
X95802380Y-62410714D01*
X95897619Y-62458333D01*
X95945238Y-62553571D01*
X95945238Y-63077380D01*
X96278571Y-62410714D02*
X96659523Y-62410714D01*
X96421428Y-62077380D02*
X96421428Y-62934523D01*
X96469047Y-63029761D01*
X96564285Y-63077380D01*
X96659523Y-63077380D01*
X96992857Y-63077380D02*
X96992857Y-62410714D01*
X96992857Y-62077380D02*
X96945238Y-62125000D01*
X96992857Y-62172619D01*
X97040476Y-62125000D01*
X96992857Y-62077380D01*
X96992857Y-62172619D01*
X97469047Y-62410714D02*
X97469047Y-63077380D01*
X97469047Y-62505952D02*
X97516666Y-62458333D01*
X97611904Y-62410714D01*
X97754761Y-62410714D01*
X97850000Y-62458333D01*
X97897619Y-62553571D01*
X97897619Y-63077380D01*
X98802380Y-62410714D02*
X98802380Y-63220238D01*
X98754761Y-63315476D01*
X98707142Y-63363095D01*
X98611904Y-63410714D01*
X98469047Y-63410714D01*
X98373809Y-63363095D01*
X98802380Y-63029761D02*
X98707142Y-63077380D01*
X98516666Y-63077380D01*
X98421428Y-63029761D01*
X98373809Y-62982142D01*
X98326190Y-62886904D01*
X98326190Y-62601190D01*
X98373809Y-62505952D01*
X98421428Y-62458333D01*
X98516666Y-62410714D01*
X98707142Y-62410714D01*
X98802380Y-62458333D01*
X99278571Y-63077380D02*
X99278571Y-62077380D01*
X99278571Y-62553571D02*
X99850000Y-62553571D01*
X99850000Y-63077380D02*
X99850000Y-62077380D01*
X100469047Y-63077380D02*
X100373809Y-63029761D01*
X100326190Y-62982142D01*
X100278571Y-62886904D01*
X100278571Y-62601190D01*
X100326190Y-62505952D01*
X100373809Y-62458333D01*
X100469047Y-62410714D01*
X100611904Y-62410714D01*
X100707142Y-62458333D01*
X100754761Y-62505952D01*
X100802380Y-62601190D01*
X100802380Y-62886904D01*
X100754761Y-62982142D01*
X100707142Y-63029761D01*
X100611904Y-63077380D01*
X100469047Y-63077380D01*
X101373809Y-63077380D02*
X101278571Y-63029761D01*
X101230952Y-62934523D01*
X101230952Y-62077380D01*
X102135714Y-63029761D02*
X102040476Y-63077380D01*
X101850000Y-63077380D01*
X101754761Y-63029761D01*
X101707142Y-62934523D01*
X101707142Y-62553571D01*
X101754761Y-62458333D01*
X101850000Y-62410714D01*
X102040476Y-62410714D01*
X102135714Y-62458333D01*
X102183333Y-62553571D01*
X102183333Y-62648809D01*
X101707142Y-62744047D01*
X96888095Y-59377380D02*
X96888095Y-58377380D01*
X96888095Y-58853571D02*
X97459523Y-58853571D01*
X97459523Y-59377380D02*
X97459523Y-58377380D01*
X98364285Y-58710714D02*
X98364285Y-59377380D01*
X98126190Y-58329761D02*
X97888095Y-59044047D01*
X98507142Y-59044047D01*
X108638095Y-103577380D02*
X108638095Y-102577380D01*
X108638095Y-103053571D02*
X109209523Y-103053571D01*
X109209523Y-103577380D02*
X109209523Y-102577380D01*
X109590476Y-102577380D02*
X110209523Y-102577380D01*
X109876190Y-102958333D01*
X110019047Y-102958333D01*
X110114285Y-103005952D01*
X110161904Y-103053571D01*
X110209523Y-103148809D01*
X110209523Y-103386904D01*
X110161904Y-103482142D01*
X110114285Y-103529761D01*
X110019047Y-103577380D01*
X109733333Y-103577380D01*
X109638095Y-103529761D01*
X109590476Y-103482142D01*
X104614285Y-110977380D02*
X104614285Y-109977380D01*
X104947619Y-110691666D01*
X105280952Y-109977380D01*
X105280952Y-110977380D01*
X105900000Y-110977380D02*
X105804761Y-110929761D01*
X105757142Y-110882142D01*
X105709523Y-110786904D01*
X105709523Y-110501190D01*
X105757142Y-110405952D01*
X105804761Y-110358333D01*
X105900000Y-110310714D01*
X106042857Y-110310714D01*
X106138095Y-110358333D01*
X106185714Y-110405952D01*
X106233333Y-110501190D01*
X106233333Y-110786904D01*
X106185714Y-110882142D01*
X106138095Y-110929761D01*
X106042857Y-110977380D01*
X105900000Y-110977380D01*
X107090476Y-110310714D02*
X107090476Y-110977380D01*
X106661904Y-110310714D02*
X106661904Y-110834523D01*
X106709523Y-110929761D01*
X106804761Y-110977380D01*
X106947619Y-110977380D01*
X107042857Y-110929761D01*
X107090476Y-110882142D01*
X107566666Y-110310714D02*
X107566666Y-110977380D01*
X107566666Y-110405952D02*
X107614285Y-110358333D01*
X107709523Y-110310714D01*
X107852380Y-110310714D01*
X107947619Y-110358333D01*
X107995238Y-110453571D01*
X107995238Y-110977380D01*
X108328571Y-110310714D02*
X108709523Y-110310714D01*
X108471428Y-109977380D02*
X108471428Y-110834523D01*
X108519047Y-110929761D01*
X108614285Y-110977380D01*
X108709523Y-110977380D01*
X109042857Y-110977380D02*
X109042857Y-110310714D01*
X109042857Y-109977380D02*
X108995238Y-110025000D01*
X109042857Y-110072619D01*
X109090476Y-110025000D01*
X109042857Y-109977380D01*
X109042857Y-110072619D01*
X109519047Y-110310714D02*
X109519047Y-110977380D01*
X109519047Y-110405952D02*
X109566666Y-110358333D01*
X109661904Y-110310714D01*
X109804761Y-110310714D01*
X109900000Y-110358333D01*
X109947619Y-110453571D01*
X109947619Y-110977380D01*
X110852380Y-110310714D02*
X110852380Y-111120238D01*
X110804761Y-111215476D01*
X110757142Y-111263095D01*
X110661904Y-111310714D01*
X110519047Y-111310714D01*
X110423809Y-111263095D01*
X110852380Y-110929761D02*
X110757142Y-110977380D01*
X110566666Y-110977380D01*
X110471428Y-110929761D01*
X110423809Y-110882142D01*
X110376190Y-110786904D01*
X110376190Y-110501190D01*
X110423809Y-110405952D01*
X110471428Y-110358333D01*
X110566666Y-110310714D01*
X110757142Y-110310714D01*
X110852380Y-110358333D01*
X111328571Y-110977380D02*
X111328571Y-109977380D01*
X111328571Y-110453571D02*
X111900000Y-110453571D01*
X111900000Y-110977380D02*
X111900000Y-109977380D01*
X112519047Y-110977380D02*
X112423809Y-110929761D01*
X112376190Y-110882142D01*
X112328571Y-110786904D01*
X112328571Y-110501190D01*
X112376190Y-110405952D01*
X112423809Y-110358333D01*
X112519047Y-110310714D01*
X112661904Y-110310714D01*
X112757142Y-110358333D01*
X112804761Y-110405952D01*
X112852380Y-110501190D01*
X112852380Y-110786904D01*
X112804761Y-110882142D01*
X112757142Y-110929761D01*
X112661904Y-110977380D01*
X112519047Y-110977380D01*
X113423809Y-110977380D02*
X113328571Y-110929761D01*
X113280952Y-110834523D01*
X113280952Y-109977380D01*
X114185714Y-110929761D02*
X114090476Y-110977380D01*
X113900000Y-110977380D01*
X113804761Y-110929761D01*
X113757142Y-110834523D01*
X113757142Y-110453571D01*
X113804761Y-110358333D01*
X113900000Y-110310714D01*
X114090476Y-110310714D01*
X114185714Y-110358333D01*
X114233333Y-110453571D01*
X114233333Y-110548809D01*
X113757142Y-110644047D01*
X108938095Y-107277380D02*
X108938095Y-106277380D01*
X108938095Y-106753571D02*
X109509523Y-106753571D01*
X109509523Y-107277380D02*
X109509523Y-106277380D01*
X109890476Y-106277380D02*
X110509523Y-106277380D01*
X110176190Y-106658333D01*
X110319047Y-106658333D01*
X110414285Y-106705952D01*
X110461904Y-106753571D01*
X110509523Y-106848809D01*
X110509523Y-107086904D01*
X110461904Y-107182142D01*
X110414285Y-107229761D01*
X110319047Y-107277380D01*
X110033333Y-107277380D01*
X109938095Y-107229761D01*
X109890476Y-107182142D01*
X97238095Y-103577380D02*
X97238095Y-102577380D01*
X97238095Y-103053571D02*
X97809523Y-103053571D01*
X97809523Y-103577380D02*
X97809523Y-102577380D01*
X98238095Y-102672619D02*
X98285714Y-102625000D01*
X98380952Y-102577380D01*
X98619047Y-102577380D01*
X98714285Y-102625000D01*
X98761904Y-102672619D01*
X98809523Y-102767857D01*
X98809523Y-102863095D01*
X98761904Y-103005952D01*
X98190476Y-103577380D01*
X98809523Y-103577380D01*
X93214285Y-110977380D02*
X93214285Y-109977380D01*
X93547619Y-110691666D01*
X93880952Y-109977380D01*
X93880952Y-110977380D01*
X94500000Y-110977380D02*
X94404761Y-110929761D01*
X94357142Y-110882142D01*
X94309523Y-110786904D01*
X94309523Y-110501190D01*
X94357142Y-110405952D01*
X94404761Y-110358333D01*
X94500000Y-110310714D01*
X94642857Y-110310714D01*
X94738095Y-110358333D01*
X94785714Y-110405952D01*
X94833333Y-110501190D01*
X94833333Y-110786904D01*
X94785714Y-110882142D01*
X94738095Y-110929761D01*
X94642857Y-110977380D01*
X94500000Y-110977380D01*
X95690476Y-110310714D02*
X95690476Y-110977380D01*
X95261904Y-110310714D02*
X95261904Y-110834523D01*
X95309523Y-110929761D01*
X95404761Y-110977380D01*
X95547619Y-110977380D01*
X95642857Y-110929761D01*
X95690476Y-110882142D01*
X96166666Y-110310714D02*
X96166666Y-110977380D01*
X96166666Y-110405952D02*
X96214285Y-110358333D01*
X96309523Y-110310714D01*
X96452380Y-110310714D01*
X96547619Y-110358333D01*
X96595238Y-110453571D01*
X96595238Y-110977380D01*
X96928571Y-110310714D02*
X97309523Y-110310714D01*
X97071428Y-109977380D02*
X97071428Y-110834523D01*
X97119047Y-110929761D01*
X97214285Y-110977380D01*
X97309523Y-110977380D01*
X97642857Y-110977380D02*
X97642857Y-110310714D01*
X97642857Y-109977380D02*
X97595238Y-110025000D01*
X97642857Y-110072619D01*
X97690476Y-110025000D01*
X97642857Y-109977380D01*
X97642857Y-110072619D01*
X98119047Y-110310714D02*
X98119047Y-110977380D01*
X98119047Y-110405952D02*
X98166666Y-110358333D01*
X98261904Y-110310714D01*
X98404761Y-110310714D01*
X98500000Y-110358333D01*
X98547619Y-110453571D01*
X98547619Y-110977380D01*
X99452380Y-110310714D02*
X99452380Y-111120238D01*
X99404761Y-111215476D01*
X99357142Y-111263095D01*
X99261904Y-111310714D01*
X99119047Y-111310714D01*
X99023809Y-111263095D01*
X99452380Y-110929761D02*
X99357142Y-110977380D01*
X99166666Y-110977380D01*
X99071428Y-110929761D01*
X99023809Y-110882142D01*
X98976190Y-110786904D01*
X98976190Y-110501190D01*
X99023809Y-110405952D01*
X99071428Y-110358333D01*
X99166666Y-110310714D01*
X99357142Y-110310714D01*
X99452380Y-110358333D01*
X99928571Y-110977380D02*
X99928571Y-109977380D01*
X99928571Y-110453571D02*
X100500000Y-110453571D01*
X100500000Y-110977380D02*
X100500000Y-109977380D01*
X101119047Y-110977380D02*
X101023809Y-110929761D01*
X100976190Y-110882142D01*
X100928571Y-110786904D01*
X100928571Y-110501190D01*
X100976190Y-110405952D01*
X101023809Y-110358333D01*
X101119047Y-110310714D01*
X101261904Y-110310714D01*
X101357142Y-110358333D01*
X101404761Y-110405952D01*
X101452380Y-110501190D01*
X101452380Y-110786904D01*
X101404761Y-110882142D01*
X101357142Y-110929761D01*
X101261904Y-110977380D01*
X101119047Y-110977380D01*
X102023809Y-110977380D02*
X101928571Y-110929761D01*
X101880952Y-110834523D01*
X101880952Y-109977380D01*
X102785714Y-110929761D02*
X102690476Y-110977380D01*
X102500000Y-110977380D01*
X102404761Y-110929761D01*
X102357142Y-110834523D01*
X102357142Y-110453571D01*
X102404761Y-110358333D01*
X102500000Y-110310714D01*
X102690476Y-110310714D01*
X102785714Y-110358333D01*
X102833333Y-110453571D01*
X102833333Y-110548809D01*
X102357142Y-110644047D01*
X97538095Y-107277380D02*
X97538095Y-106277380D01*
X97538095Y-106753571D02*
X98109523Y-106753571D01*
X98109523Y-107277380D02*
X98109523Y-106277380D01*
X98538095Y-106372619D02*
X98585714Y-106325000D01*
X98680952Y-106277380D01*
X98919047Y-106277380D01*
X99014285Y-106325000D01*
X99061904Y-106372619D01*
X99109523Y-106467857D01*
X99109523Y-106563095D01*
X99061904Y-106705952D01*
X98490476Y-107277380D01*
X99109523Y-107277380D01*
X103314285Y-62974761D02*
X103219047Y-63022380D01*
X103028571Y-63022380D01*
X102933333Y-62974761D01*
X102885714Y-62879523D01*
X102885714Y-62498571D01*
X102933333Y-62403333D01*
X103028571Y-62355714D01*
X103219047Y-62355714D01*
X103314285Y-62403333D01*
X103361904Y-62498571D01*
X103361904Y-62593809D01*
X102885714Y-62689047D01*
X104314285Y-63022380D02*
X103742857Y-63022380D01*
X104028571Y-63022380D02*
X104028571Y-62022380D01*
X103933333Y-62165238D01*
X103838095Y-62260476D01*
X103742857Y-62308095D01*
X101457142Y-51277380D02*
X101457142Y-52086904D01*
X101504761Y-52182142D01*
X101552380Y-52229761D01*
X101647619Y-52277380D01*
X101838095Y-52277380D01*
X101933333Y-52229761D01*
X101980952Y-52182142D01*
X102028571Y-52086904D01*
X102028571Y-51277380D01*
X102457142Y-52229761D02*
X102600000Y-52277380D01*
X102838095Y-52277380D01*
X102933333Y-52229761D01*
X102980952Y-52182142D01*
X103028571Y-52086904D01*
X103028571Y-51991666D01*
X102980952Y-51896428D01*
X102933333Y-51848809D01*
X102838095Y-51801190D01*
X102647619Y-51753571D01*
X102552380Y-51705952D01*
X102504761Y-51658333D01*
X102457142Y-51563095D01*
X102457142Y-51467857D01*
X102504761Y-51372619D01*
X102552380Y-51325000D01*
X102647619Y-51277380D01*
X102885714Y-51277380D01*
X103028571Y-51325000D01*
X103790476Y-51753571D02*
X103933333Y-51801190D01*
X103980952Y-51848809D01*
X104028571Y-51944047D01*
X104028571Y-52086904D01*
X103980952Y-52182142D01*
X103933333Y-52229761D01*
X103838095Y-52277380D01*
X103457142Y-52277380D01*
X103457142Y-51277380D01*
X103790476Y-51277380D01*
X103885714Y-51325000D01*
X103933333Y-51372619D01*
X103980952Y-51467857D01*
X103980952Y-51563095D01*
X103933333Y-51658333D01*
X103885714Y-51705952D01*
X103790476Y-51753571D01*
X103457142Y-51753571D01*
X104219047Y-52372619D02*
X104980952Y-52372619D01*
X105790476Y-52182142D02*
X105742857Y-52229761D01*
X105600000Y-52277380D01*
X105504761Y-52277380D01*
X105361904Y-52229761D01*
X105266666Y-52134523D01*
X105219047Y-52039285D01*
X105171428Y-51848809D01*
X105171428Y-51705952D01*
X105219047Y-51515476D01*
X105266666Y-51420238D01*
X105361904Y-51325000D01*
X105504761Y-51277380D01*
X105600000Y-51277380D01*
X105742857Y-51325000D01*
X105790476Y-51372619D01*
X103314285Y-57329761D02*
X103219047Y-57377380D01*
X103028571Y-57377380D01*
X102933333Y-57329761D01*
X102885714Y-57234523D01*
X102885714Y-56853571D01*
X102933333Y-56758333D01*
X103028571Y-56710714D01*
X103219047Y-56710714D01*
X103314285Y-56758333D01*
X103361904Y-56853571D01*
X103361904Y-56948809D01*
X102885714Y-57044047D01*
X104314285Y-57377380D02*
X103742857Y-57377380D01*
X104028571Y-57377380D02*
X104028571Y-56377380D01*
X103933333Y-56520238D01*
X103838095Y-56615476D01*
X103742857Y-56663095D01*
X103272142Y-80266666D02*
X103319761Y-80314285D01*
X103367380Y-80457142D01*
X103367380Y-80552380D01*
X103319761Y-80695238D01*
X103224523Y-80790476D01*
X103129285Y-80838095D01*
X102938809Y-80885714D01*
X102795952Y-80885714D01*
X102605476Y-80838095D01*
X102510238Y-80790476D01*
X102415000Y-80695238D01*
X102367380Y-80552380D01*
X102367380Y-80457142D01*
X102415000Y-80314285D01*
X102462619Y-80266666D01*
X102367380Y-79933333D02*
X102367380Y-79314285D01*
X102748333Y-79647619D01*
X102748333Y-79504761D01*
X102795952Y-79409523D01*
X102843571Y-79361904D01*
X102938809Y-79314285D01*
X103176904Y-79314285D01*
X103272142Y-79361904D01*
X103319761Y-79409523D01*
X103367380Y-79504761D01*
X103367380Y-79790476D01*
X103319761Y-79885714D01*
X103272142Y-79933333D01*
X105687380Y-80266666D02*
X105687380Y-80838095D01*
X105687380Y-80552380D02*
X104687380Y-80552380D01*
X104830238Y-80647619D01*
X104925476Y-80742857D01*
X104973095Y-80838095D01*
X105020714Y-79409523D02*
X105687380Y-79409523D01*
X105020714Y-79838095D02*
X105544523Y-79838095D01*
X105639761Y-79790476D01*
X105687380Y-79695238D01*
X105687380Y-79552380D01*
X105639761Y-79457142D01*
X105592142Y-79409523D01*
D15*
X104164285Y-80141666D02*
X104176190Y-80153571D01*
X104188095Y-80189285D01*
X104188095Y-80213095D01*
X104176190Y-80248809D01*
X104152380Y-80272619D01*
X104128571Y-80284523D01*
X104080952Y-80296428D01*
X104045238Y-80296428D01*
X103997619Y-80284523D01*
X103973809Y-80272619D01*
X103950000Y-80248809D01*
X103938095Y-80213095D01*
X103938095Y-80189285D01*
X103950000Y-80153571D01*
X103961904Y-80141666D01*
X103938095Y-80058333D02*
X103938095Y-79903571D01*
X104033333Y-79986904D01*
X104033333Y-79951190D01*
X104045238Y-79927380D01*
X104057142Y-79915476D01*
X104080952Y-79903571D01*
X104140476Y-79903571D01*
X104164285Y-79915476D01*
X104176190Y-79927380D01*
X104188095Y-79951190D01*
X104188095Y-80022619D01*
X104176190Y-80046428D01*
X104164285Y-80058333D01*
D13*
X97247142Y-88992142D02*
X97199523Y-89039761D01*
X97056666Y-89087380D01*
X96961428Y-89087380D01*
X96818571Y-89039761D01*
X96723333Y-88944523D01*
X96675714Y-88849285D01*
X96628095Y-88658809D01*
X96628095Y-88515952D01*
X96675714Y-88325476D01*
X96723333Y-88230238D01*
X96818571Y-88135000D01*
X96961428Y-88087380D01*
X97056666Y-88087380D01*
X97199523Y-88135000D01*
X97247142Y-88182619D01*
X98199523Y-89087380D02*
X97628095Y-89087380D01*
X97913809Y-89087380D02*
X97913809Y-88087380D01*
X97818571Y-88230238D01*
X97723333Y-88325476D01*
X97628095Y-88373095D01*
X98532857Y-88087380D02*
X99199523Y-88087380D01*
X98770952Y-89087380D01*
X97247142Y-86987380D02*
X96675714Y-86987380D01*
X96961428Y-86987380D02*
X96961428Y-85987380D01*
X96866190Y-86130238D01*
X96770952Y-86225476D01*
X96675714Y-86273095D01*
X97866190Y-85987380D02*
X97961428Y-85987380D01*
X98056666Y-86035000D01*
X98104285Y-86082619D01*
X98151904Y-86177857D01*
X98199523Y-86368333D01*
X98199523Y-86606428D01*
X98151904Y-86796904D01*
X98104285Y-86892142D01*
X98056666Y-86939761D01*
X97961428Y-86987380D01*
X97866190Y-86987380D01*
X97770952Y-86939761D01*
X97723333Y-86892142D01*
X97675714Y-86796904D01*
X97628095Y-86606428D01*
X97628095Y-86368333D01*
X97675714Y-86177857D01*
X97723333Y-86082619D01*
X97770952Y-86035000D01*
X97866190Y-85987380D01*
X99056666Y-86320714D02*
X99056666Y-86987380D01*
X98628095Y-86320714D02*
X98628095Y-86844523D01*
X98675714Y-86939761D01*
X98770952Y-86987380D01*
X98913809Y-86987380D01*
X99009047Y-86939761D01*
X99056666Y-86892142D01*
D15*
X97729285Y-88354285D02*
X97717380Y-88366190D01*
X97681666Y-88378095D01*
X97657857Y-88378095D01*
X97622142Y-88366190D01*
X97598333Y-88342380D01*
X97586428Y-88318571D01*
X97574523Y-88270952D01*
X97574523Y-88235238D01*
X97586428Y-88187619D01*
X97598333Y-88163809D01*
X97622142Y-88140000D01*
X97657857Y-88128095D01*
X97681666Y-88128095D01*
X97717380Y-88140000D01*
X97729285Y-88151904D01*
X97967380Y-88378095D02*
X97824523Y-88378095D01*
X97895952Y-88378095D02*
X97895952Y-88128095D01*
X97872142Y-88163809D01*
X97848333Y-88187619D01*
X97824523Y-88199523D01*
X98050714Y-88128095D02*
X98217380Y-88128095D01*
X98110238Y-88378095D01*
D13*
X98107142Y-93097142D02*
X98059523Y-93144761D01*
X97916666Y-93192380D01*
X97821428Y-93192380D01*
X97678571Y-93144761D01*
X97583333Y-93049523D01*
X97535714Y-92954285D01*
X97488095Y-92763809D01*
X97488095Y-92620952D01*
X97535714Y-92430476D01*
X97583333Y-92335238D01*
X97678571Y-92240000D01*
X97821428Y-92192380D01*
X97916666Y-92192380D01*
X98059523Y-92240000D01*
X98107142Y-92287619D01*
X99059523Y-93192380D02*
X98488095Y-93192380D01*
X98773809Y-93192380D02*
X98773809Y-92192380D01*
X98678571Y-92335238D01*
X98583333Y-92430476D01*
X98488095Y-92478095D01*
X99964285Y-92192380D02*
X99488095Y-92192380D01*
X99440476Y-92668571D01*
X99488095Y-92620952D01*
X99583333Y-92573333D01*
X99821428Y-92573333D01*
X99916666Y-92620952D01*
X99964285Y-92668571D01*
X100011904Y-92763809D01*
X100011904Y-93001904D01*
X99964285Y-93097142D01*
X99916666Y-93144761D01*
X99821428Y-93192380D01*
X99583333Y-93192380D01*
X99488095Y-93144761D01*
X99440476Y-93097142D01*
X97630952Y-95512380D02*
X97059523Y-95512380D01*
X97345238Y-95512380D02*
X97345238Y-94512380D01*
X97250000Y-94655238D01*
X97154761Y-94750476D01*
X97059523Y-94798095D01*
X98250000Y-94512380D02*
X98345238Y-94512380D01*
X98440476Y-94560000D01*
X98488095Y-94607619D01*
X98535714Y-94702857D01*
X98583333Y-94893333D01*
X98583333Y-95131428D01*
X98535714Y-95321904D01*
X98488095Y-95417142D01*
X98440476Y-95464761D01*
X98345238Y-95512380D01*
X98250000Y-95512380D01*
X98154761Y-95464761D01*
X98107142Y-95417142D01*
X98059523Y-95321904D01*
X98011904Y-95131428D01*
X98011904Y-94893333D01*
X98059523Y-94702857D01*
X98107142Y-94607619D01*
X98154761Y-94560000D01*
X98250000Y-94512380D01*
X99202380Y-94512380D02*
X99297619Y-94512380D01*
X99392857Y-94560000D01*
X99440476Y-94607619D01*
X99488095Y-94702857D01*
X99535714Y-94893333D01*
X99535714Y-95131428D01*
X99488095Y-95321904D01*
X99440476Y-95417142D01*
X99392857Y-95464761D01*
X99297619Y-95512380D01*
X99202380Y-95512380D01*
X99107142Y-95464761D01*
X99059523Y-95417142D01*
X99011904Y-95321904D01*
X98964285Y-95131428D01*
X98964285Y-94893333D01*
X99011904Y-94702857D01*
X99059523Y-94607619D01*
X99107142Y-94560000D01*
X99202380Y-94512380D01*
X99964285Y-94845714D02*
X99964285Y-95512380D01*
X99964285Y-94940952D02*
X100011904Y-94893333D01*
X100107142Y-94845714D01*
X100250000Y-94845714D01*
X100345238Y-94893333D01*
X100392857Y-94988571D01*
X100392857Y-95512380D01*
D15*
X98589285Y-93989285D02*
X98577380Y-94001190D01*
X98541666Y-94013095D01*
X98517857Y-94013095D01*
X98482142Y-94001190D01*
X98458333Y-93977380D01*
X98446428Y-93953571D01*
X98434523Y-93905952D01*
X98434523Y-93870238D01*
X98446428Y-93822619D01*
X98458333Y-93798809D01*
X98482142Y-93775000D01*
X98517857Y-93763095D01*
X98541666Y-93763095D01*
X98577380Y-93775000D01*
X98589285Y-93786904D01*
X98827380Y-94013095D02*
X98684523Y-94013095D01*
X98755952Y-94013095D02*
X98755952Y-93763095D01*
X98732142Y-93798809D01*
X98708333Y-93822619D01*
X98684523Y-93834523D01*
X99053571Y-93763095D02*
X98934523Y-93763095D01*
X98922619Y-93882142D01*
X98934523Y-93870238D01*
X98958333Y-93858333D01*
X99017857Y-93858333D01*
X99041666Y-93870238D01*
X99053571Y-93882142D01*
X99065476Y-93905952D01*
X99065476Y-93965476D01*
X99053571Y-93989285D01*
X99041666Y-94001190D01*
X99017857Y-94013095D01*
X98958333Y-94013095D01*
X98934523Y-94001190D01*
X98922619Y-93989285D01*
D13*
X108797142Y-82517857D02*
X108844761Y-82565476D01*
X108892380Y-82708333D01*
X108892380Y-82803571D01*
X108844761Y-82946428D01*
X108749523Y-83041666D01*
X108654285Y-83089285D01*
X108463809Y-83136904D01*
X108320952Y-83136904D01*
X108130476Y-83089285D01*
X108035238Y-83041666D01*
X107940000Y-82946428D01*
X107892380Y-82803571D01*
X107892380Y-82708333D01*
X107940000Y-82565476D01*
X107987619Y-82517857D01*
X108892380Y-81565476D02*
X108892380Y-82136904D01*
X108892380Y-81851190D02*
X107892380Y-81851190D01*
X108035238Y-81946428D01*
X108130476Y-82041666D01*
X108178095Y-82136904D01*
X107892380Y-80946428D02*
X107892380Y-80851190D01*
X107940000Y-80755952D01*
X107987619Y-80708333D01*
X108082857Y-80660714D01*
X108273333Y-80613095D01*
X108511428Y-80613095D01*
X108701904Y-80660714D01*
X108797142Y-80708333D01*
X108844761Y-80755952D01*
X108892380Y-80851190D01*
X108892380Y-80946428D01*
X108844761Y-81041666D01*
X108797142Y-81089285D01*
X108701904Y-81136904D01*
X108511428Y-81184523D01*
X108273333Y-81184523D01*
X108082857Y-81136904D01*
X107987619Y-81089285D01*
X107940000Y-81041666D01*
X107892380Y-80946428D01*
X111212380Y-82041666D02*
X111212380Y-82613095D01*
X111212380Y-82327380D02*
X110212380Y-82327380D01*
X110355238Y-82422619D01*
X110450476Y-82517857D01*
X110498095Y-82613095D01*
X110545714Y-81184523D02*
X111212380Y-81184523D01*
X110545714Y-81613095D02*
X111069523Y-81613095D01*
X111164761Y-81565476D01*
X111212380Y-81470238D01*
X111212380Y-81327380D01*
X111164761Y-81232142D01*
X111117142Y-81184523D01*
D15*
X109689285Y-82035714D02*
X109701190Y-82047619D01*
X109713095Y-82083333D01*
X109713095Y-82107142D01*
X109701190Y-82142857D01*
X109677380Y-82166666D01*
X109653571Y-82178571D01*
X109605952Y-82190476D01*
X109570238Y-82190476D01*
X109522619Y-82178571D01*
X109498809Y-82166666D01*
X109475000Y-82142857D01*
X109463095Y-82107142D01*
X109463095Y-82083333D01*
X109475000Y-82047619D01*
X109486904Y-82035714D01*
X109713095Y-81797619D02*
X109713095Y-81940476D01*
X109713095Y-81869047D02*
X109463095Y-81869047D01*
X109498809Y-81892857D01*
X109522619Y-81916666D01*
X109534523Y-81940476D01*
X109463095Y-81642857D02*
X109463095Y-81619047D01*
X109475000Y-81595238D01*
X109486904Y-81583333D01*
X109510714Y-81571428D01*
X109558333Y-81559523D01*
X109617857Y-81559523D01*
X109665476Y-81571428D01*
X109689285Y-81583333D01*
X109701190Y-81595238D01*
X109713095Y-81619047D01*
X109713095Y-81642857D01*
X109701190Y-81666666D01*
X109689285Y-81678571D01*
X109665476Y-81690476D01*
X109617857Y-81702380D01*
X109558333Y-81702380D01*
X109510714Y-81690476D01*
X109486904Y-81678571D01*
X109475000Y-81666666D01*
X109463095Y-81642857D01*
D13*
X105267142Y-92817857D02*
X105314761Y-92865476D01*
X105362380Y-93008333D01*
X105362380Y-93103571D01*
X105314761Y-93246428D01*
X105219523Y-93341666D01*
X105124285Y-93389285D01*
X104933809Y-93436904D01*
X104790952Y-93436904D01*
X104600476Y-93389285D01*
X104505238Y-93341666D01*
X104410000Y-93246428D01*
X104362380Y-93103571D01*
X104362380Y-93008333D01*
X104410000Y-92865476D01*
X104457619Y-92817857D01*
X105362380Y-91865476D02*
X105362380Y-92436904D01*
X105362380Y-92151190D02*
X104362380Y-92151190D01*
X104505238Y-92246428D01*
X104600476Y-92341666D01*
X104648095Y-92436904D01*
X104695714Y-91008333D02*
X105362380Y-91008333D01*
X104314761Y-91246428D02*
X105029047Y-91484523D01*
X105029047Y-90865476D01*
X103042380Y-93294047D02*
X103042380Y-93865476D01*
X103042380Y-93579761D02*
X102042380Y-93579761D01*
X102185238Y-93675000D01*
X102280476Y-93770238D01*
X102328095Y-93865476D01*
X102042380Y-92675000D02*
X102042380Y-92579761D01*
X102090000Y-92484523D01*
X102137619Y-92436904D01*
X102232857Y-92389285D01*
X102423333Y-92341666D01*
X102661428Y-92341666D01*
X102851904Y-92389285D01*
X102947142Y-92436904D01*
X102994761Y-92484523D01*
X103042380Y-92579761D01*
X103042380Y-92675000D01*
X102994761Y-92770238D01*
X102947142Y-92817857D01*
X102851904Y-92865476D01*
X102661428Y-92913095D01*
X102423333Y-92913095D01*
X102232857Y-92865476D01*
X102137619Y-92817857D01*
X102090000Y-92770238D01*
X102042380Y-92675000D01*
X102042380Y-91722619D02*
X102042380Y-91627380D01*
X102090000Y-91532142D01*
X102137619Y-91484523D01*
X102232857Y-91436904D01*
X102423333Y-91389285D01*
X102661428Y-91389285D01*
X102851904Y-91436904D01*
X102947142Y-91484523D01*
X102994761Y-91532142D01*
X103042380Y-91627380D01*
X103042380Y-91722619D01*
X102994761Y-91817857D01*
X102947142Y-91865476D01*
X102851904Y-91913095D01*
X102661428Y-91960714D01*
X102423333Y-91960714D01*
X102232857Y-91913095D01*
X102137619Y-91865476D01*
X102090000Y-91817857D01*
X102042380Y-91722619D01*
X102375714Y-90960714D02*
X103042380Y-90960714D01*
X102470952Y-90960714D02*
X102423333Y-90913095D01*
X102375714Y-90817857D01*
X102375714Y-90675000D01*
X102423333Y-90579761D01*
X102518571Y-90532142D01*
X103042380Y-90532142D01*
D15*
X103839285Y-92335714D02*
X103851190Y-92347619D01*
X103863095Y-92383333D01*
X103863095Y-92407142D01*
X103851190Y-92442857D01*
X103827380Y-92466666D01*
X103803571Y-92478571D01*
X103755952Y-92490476D01*
X103720238Y-92490476D01*
X103672619Y-92478571D01*
X103648809Y-92466666D01*
X103625000Y-92442857D01*
X103613095Y-92407142D01*
X103613095Y-92383333D01*
X103625000Y-92347619D01*
X103636904Y-92335714D01*
X103863095Y-92097619D02*
X103863095Y-92240476D01*
X103863095Y-92169047D02*
X103613095Y-92169047D01*
X103648809Y-92192857D01*
X103672619Y-92216666D01*
X103684523Y-92240476D01*
X103696428Y-91883333D02*
X103863095Y-91883333D01*
X103601190Y-91942857D02*
X103779761Y-92002380D01*
X103779761Y-91847619D01*
D13*
X108157142Y-86222142D02*
X108109523Y-86269761D01*
X107966666Y-86317380D01*
X107871428Y-86317380D01*
X107728571Y-86269761D01*
X107633333Y-86174523D01*
X107585714Y-86079285D01*
X107538095Y-85888809D01*
X107538095Y-85745952D01*
X107585714Y-85555476D01*
X107633333Y-85460238D01*
X107728571Y-85365000D01*
X107871428Y-85317380D01*
X107966666Y-85317380D01*
X108109523Y-85365000D01*
X108157142Y-85412619D01*
X109109523Y-86317380D02*
X108538095Y-86317380D01*
X108823809Y-86317380D02*
X108823809Y-85317380D01*
X108728571Y-85460238D01*
X108633333Y-85555476D01*
X108538095Y-85603095D01*
X109442857Y-85317380D02*
X110061904Y-85317380D01*
X109728571Y-85698333D01*
X109871428Y-85698333D01*
X109966666Y-85745952D01*
X110014285Y-85793571D01*
X110061904Y-85888809D01*
X110061904Y-86126904D01*
X110014285Y-86222142D01*
X109966666Y-86269761D01*
X109871428Y-86317380D01*
X109585714Y-86317380D01*
X109490476Y-86269761D01*
X109442857Y-86222142D01*
X107680952Y-88637380D02*
X107109523Y-88637380D01*
X107395238Y-88637380D02*
X107395238Y-87637380D01*
X107300000Y-87780238D01*
X107204761Y-87875476D01*
X107109523Y-87923095D01*
X108300000Y-87637380D02*
X108395238Y-87637380D01*
X108490476Y-87685000D01*
X108538095Y-87732619D01*
X108585714Y-87827857D01*
X108633333Y-88018333D01*
X108633333Y-88256428D01*
X108585714Y-88446904D01*
X108538095Y-88542142D01*
X108490476Y-88589761D01*
X108395238Y-88637380D01*
X108300000Y-88637380D01*
X108204761Y-88589761D01*
X108157142Y-88542142D01*
X108109523Y-88446904D01*
X108061904Y-88256428D01*
X108061904Y-88018333D01*
X108109523Y-87827857D01*
X108157142Y-87732619D01*
X108204761Y-87685000D01*
X108300000Y-87637380D01*
X109252380Y-87637380D02*
X109347619Y-87637380D01*
X109442857Y-87685000D01*
X109490476Y-87732619D01*
X109538095Y-87827857D01*
X109585714Y-88018333D01*
X109585714Y-88256428D01*
X109538095Y-88446904D01*
X109490476Y-88542142D01*
X109442857Y-88589761D01*
X109347619Y-88637380D01*
X109252380Y-88637380D01*
X109157142Y-88589761D01*
X109109523Y-88542142D01*
X109061904Y-88446904D01*
X109014285Y-88256428D01*
X109014285Y-88018333D01*
X109061904Y-87827857D01*
X109109523Y-87732619D01*
X109157142Y-87685000D01*
X109252380Y-87637380D01*
X110014285Y-87970714D02*
X110014285Y-88637380D01*
X110014285Y-88065952D02*
X110061904Y-88018333D01*
X110157142Y-87970714D01*
X110300000Y-87970714D01*
X110395238Y-88018333D01*
X110442857Y-88113571D01*
X110442857Y-88637380D01*
D15*
X108639285Y-87114285D02*
X108627380Y-87126190D01*
X108591666Y-87138095D01*
X108567857Y-87138095D01*
X108532142Y-87126190D01*
X108508333Y-87102380D01*
X108496428Y-87078571D01*
X108484523Y-87030952D01*
X108484523Y-86995238D01*
X108496428Y-86947619D01*
X108508333Y-86923809D01*
X108532142Y-86900000D01*
X108567857Y-86888095D01*
X108591666Y-86888095D01*
X108627380Y-86900000D01*
X108639285Y-86911904D01*
X108877380Y-87138095D02*
X108734523Y-87138095D01*
X108805952Y-87138095D02*
X108805952Y-86888095D01*
X108782142Y-86923809D01*
X108758333Y-86947619D01*
X108734523Y-86959523D01*
X108960714Y-86888095D02*
X109115476Y-86888095D01*
X109032142Y-86983333D01*
X109067857Y-86983333D01*
X109091666Y-86995238D01*
X109103571Y-87007142D01*
X109115476Y-87030952D01*
X109115476Y-87090476D01*
X109103571Y-87114285D01*
X109091666Y-87126190D01*
X109067857Y-87138095D01*
X108996428Y-87138095D01*
X108972619Y-87126190D01*
X108960714Y-87114285D01*
D13*
X107842380Y-80091666D02*
X107366190Y-80425000D01*
X107842380Y-80663095D02*
X106842380Y-80663095D01*
X106842380Y-80282142D01*
X106890000Y-80186904D01*
X106937619Y-80139285D01*
X107032857Y-80091666D01*
X107175714Y-80091666D01*
X107270952Y-80139285D01*
X107318571Y-80186904D01*
X107366190Y-80282142D01*
X107366190Y-80663095D01*
X107175714Y-79234523D02*
X107842380Y-79234523D01*
X106794761Y-79472619D02*
X107509047Y-79710714D01*
X107509047Y-79091666D01*
X104617619Y-80686904D02*
X104570000Y-80639285D01*
X104522380Y-80544047D01*
X104522380Y-80305952D01*
X104570000Y-80210714D01*
X104617619Y-80163095D01*
X104712857Y-80115476D01*
X104808095Y-80115476D01*
X104950952Y-80163095D01*
X105522380Y-80734523D01*
X105522380Y-80115476D01*
X104522380Y-79782142D02*
X104522380Y-79115476D01*
X105522380Y-79544047D01*
D15*
X106343095Y-79966666D02*
X106224047Y-80050000D01*
X106343095Y-80109523D02*
X106093095Y-80109523D01*
X106093095Y-80014285D01*
X106105000Y-79990476D01*
X106116904Y-79978571D01*
X106140714Y-79966666D01*
X106176428Y-79966666D01*
X106200238Y-79978571D01*
X106212142Y-79990476D01*
X106224047Y-80014285D01*
X106224047Y-80109523D01*
X106176428Y-79752380D02*
X106343095Y-79752380D01*
X106081190Y-79811904D02*
X106259761Y-79871428D01*
X106259761Y-79716666D01*
D13*
X106862380Y-80091666D02*
X106386190Y-80425000D01*
X106862380Y-80663095D02*
X105862380Y-80663095D01*
X105862380Y-80282142D01*
X105910000Y-80186904D01*
X105957619Y-80139285D01*
X106052857Y-80091666D01*
X106195714Y-80091666D01*
X106290952Y-80139285D01*
X106338571Y-80186904D01*
X106386190Y-80282142D01*
X106386190Y-80663095D01*
X105862380Y-79758333D02*
X105862380Y-79139285D01*
X106243333Y-79472619D01*
X106243333Y-79329761D01*
X106290952Y-79234523D01*
X106338571Y-79186904D01*
X106433809Y-79139285D01*
X106671904Y-79139285D01*
X106767142Y-79186904D01*
X106814761Y-79234523D01*
X106862380Y-79329761D01*
X106862380Y-79615476D01*
X106814761Y-79710714D01*
X106767142Y-79758333D01*
X103637619Y-80686904D02*
X103590000Y-80639285D01*
X103542380Y-80544047D01*
X103542380Y-80305952D01*
X103590000Y-80210714D01*
X103637619Y-80163095D01*
X103732857Y-80115476D01*
X103828095Y-80115476D01*
X103970952Y-80163095D01*
X104542380Y-80734523D01*
X104542380Y-80115476D01*
X103542380Y-79782142D02*
X103542380Y-79115476D01*
X104542380Y-79544047D01*
D15*
X105363095Y-79966666D02*
X105244047Y-80050000D01*
X105363095Y-80109523D02*
X105113095Y-80109523D01*
X105113095Y-80014285D01*
X105125000Y-79990476D01*
X105136904Y-79978571D01*
X105160714Y-79966666D01*
X105196428Y-79966666D01*
X105220238Y-79978571D01*
X105232142Y-79990476D01*
X105244047Y-80014285D01*
X105244047Y-80109523D01*
X105113095Y-79883333D02*
X105113095Y-79728571D01*
X105208333Y-79811904D01*
X105208333Y-79776190D01*
X105220238Y-79752380D01*
X105232142Y-79740476D01*
X105255952Y-79728571D01*
X105315476Y-79728571D01*
X105339285Y-79740476D01*
X105351190Y-79752380D01*
X105363095Y-79776190D01*
X105363095Y-79847619D01*
X105351190Y-79871428D01*
X105339285Y-79883333D01*
D13*
X97953333Y-72842380D02*
X97620000Y-72366190D01*
X97381904Y-72842380D02*
X97381904Y-71842380D01*
X97762857Y-71842380D01*
X97858095Y-71890000D01*
X97905714Y-71937619D01*
X97953333Y-72032857D01*
X97953333Y-72175714D01*
X97905714Y-72270952D01*
X97858095Y-72318571D01*
X97762857Y-72366190D01*
X97381904Y-72366190D01*
X98905714Y-72842380D02*
X98334285Y-72842380D01*
X98620000Y-72842380D02*
X98620000Y-71842380D01*
X98524761Y-71985238D01*
X98429523Y-72080476D01*
X98334285Y-72128095D01*
X98000952Y-70522380D02*
X97429523Y-70522380D01*
X97715238Y-70522380D02*
X97715238Y-69522380D01*
X97620000Y-69665238D01*
X97524761Y-69760476D01*
X97429523Y-69808095D01*
X98429523Y-70522380D02*
X98429523Y-69522380D01*
X98524761Y-70141428D02*
X98810476Y-70522380D01*
X98810476Y-69855714D02*
X98429523Y-70236666D01*
D15*
X98078333Y-71343095D02*
X97995000Y-71224047D01*
X97935476Y-71343095D02*
X97935476Y-71093095D01*
X98030714Y-71093095D01*
X98054523Y-71105000D01*
X98066428Y-71116904D01*
X98078333Y-71140714D01*
X98078333Y-71176428D01*
X98066428Y-71200238D01*
X98054523Y-71212142D01*
X98030714Y-71224047D01*
X97935476Y-71224047D01*
X98316428Y-71343095D02*
X98173571Y-71343095D01*
X98245000Y-71343095D02*
X98245000Y-71093095D01*
X98221190Y-71128809D01*
X98197380Y-71152619D01*
X98173571Y-71164523D01*
D13*
X97957142Y-84167142D02*
X97909523Y-84214761D01*
X97766666Y-84262380D01*
X97671428Y-84262380D01*
X97528571Y-84214761D01*
X97433333Y-84119523D01*
X97385714Y-84024285D01*
X97338095Y-83833809D01*
X97338095Y-83690952D01*
X97385714Y-83500476D01*
X97433333Y-83405238D01*
X97528571Y-83310000D01*
X97671428Y-83262380D01*
X97766666Y-83262380D01*
X97909523Y-83310000D01*
X97957142Y-83357619D01*
X98909523Y-84262380D02*
X98338095Y-84262380D01*
X98623809Y-84262380D02*
X98623809Y-83262380D01*
X98528571Y-83405238D01*
X98433333Y-83500476D01*
X98338095Y-83548095D01*
X99861904Y-84262380D02*
X99290476Y-84262380D01*
X99576190Y-84262380D02*
X99576190Y-83262380D01*
X99480952Y-83405238D01*
X99385714Y-83500476D01*
X99290476Y-83548095D01*
X97480952Y-81942380D02*
X96909523Y-81942380D01*
X97195238Y-81942380D02*
X97195238Y-80942380D01*
X97100000Y-81085238D01*
X97004761Y-81180476D01*
X96909523Y-81228095D01*
X98100000Y-80942380D02*
X98195238Y-80942380D01*
X98290476Y-80990000D01*
X98338095Y-81037619D01*
X98385714Y-81132857D01*
X98433333Y-81323333D01*
X98433333Y-81561428D01*
X98385714Y-81751904D01*
X98338095Y-81847142D01*
X98290476Y-81894761D01*
X98195238Y-81942380D01*
X98100000Y-81942380D01*
X98004761Y-81894761D01*
X97957142Y-81847142D01*
X97909523Y-81751904D01*
X97861904Y-81561428D01*
X97861904Y-81323333D01*
X97909523Y-81132857D01*
X97957142Y-81037619D01*
X98004761Y-80990000D01*
X98100000Y-80942380D01*
X99052380Y-80942380D02*
X99147619Y-80942380D01*
X99242857Y-80990000D01*
X99290476Y-81037619D01*
X99338095Y-81132857D01*
X99385714Y-81323333D01*
X99385714Y-81561428D01*
X99338095Y-81751904D01*
X99290476Y-81847142D01*
X99242857Y-81894761D01*
X99147619Y-81942380D01*
X99052380Y-81942380D01*
X98957142Y-81894761D01*
X98909523Y-81847142D01*
X98861904Y-81751904D01*
X98814285Y-81561428D01*
X98814285Y-81323333D01*
X98861904Y-81132857D01*
X98909523Y-81037619D01*
X98957142Y-80990000D01*
X99052380Y-80942380D01*
X99814285Y-81275714D02*
X99814285Y-81942380D01*
X99814285Y-81370952D02*
X99861904Y-81323333D01*
X99957142Y-81275714D01*
X100100000Y-81275714D01*
X100195238Y-81323333D01*
X100242857Y-81418571D01*
X100242857Y-81942380D01*
D15*
X98439285Y-82739285D02*
X98427380Y-82751190D01*
X98391666Y-82763095D01*
X98367857Y-82763095D01*
X98332142Y-82751190D01*
X98308333Y-82727380D01*
X98296428Y-82703571D01*
X98284523Y-82655952D01*
X98284523Y-82620238D01*
X98296428Y-82572619D01*
X98308333Y-82548809D01*
X98332142Y-82525000D01*
X98367857Y-82513095D01*
X98391666Y-82513095D01*
X98427380Y-82525000D01*
X98439285Y-82536904D01*
X98677380Y-82763095D02*
X98534523Y-82763095D01*
X98605952Y-82763095D02*
X98605952Y-82513095D01*
X98582142Y-82548809D01*
X98558333Y-82572619D01*
X98534523Y-82584523D01*
X98915476Y-82763095D02*
X98772619Y-82763095D01*
X98844047Y-82763095D02*
X98844047Y-82513095D01*
X98820238Y-82548809D01*
X98796428Y-82572619D01*
X98772619Y-82584523D01*
D13*
X106922142Y-81041666D02*
X106969761Y-81089285D01*
X107017380Y-81232142D01*
X107017380Y-81327380D01*
X106969761Y-81470238D01*
X106874523Y-81565476D01*
X106779285Y-81613095D01*
X106588809Y-81660714D01*
X106445952Y-81660714D01*
X106255476Y-81613095D01*
X106160238Y-81565476D01*
X106065000Y-81470238D01*
X106017380Y-81327380D01*
X106017380Y-81232142D01*
X106065000Y-81089285D01*
X106112619Y-81041666D01*
X106017380Y-80708333D02*
X106017380Y-80041666D01*
X107017380Y-80470238D01*
X109337380Y-81994047D02*
X109337380Y-82565476D01*
X109337380Y-82279761D02*
X108337380Y-82279761D01*
X108480238Y-82375000D01*
X108575476Y-82470238D01*
X108623095Y-82565476D01*
X108337380Y-81375000D02*
X108337380Y-81279761D01*
X108385000Y-81184523D01*
X108432619Y-81136904D01*
X108527857Y-81089285D01*
X108718333Y-81041666D01*
X108956428Y-81041666D01*
X109146904Y-81089285D01*
X109242142Y-81136904D01*
X109289761Y-81184523D01*
X109337380Y-81279761D01*
X109337380Y-81375000D01*
X109289761Y-81470238D01*
X109242142Y-81517857D01*
X109146904Y-81565476D01*
X108956428Y-81613095D01*
X108718333Y-81613095D01*
X108527857Y-81565476D01*
X108432619Y-81517857D01*
X108385000Y-81470238D01*
X108337380Y-81375000D01*
X108337380Y-80422619D02*
X108337380Y-80327380D01*
X108385000Y-80232142D01*
X108432619Y-80184523D01*
X108527857Y-80136904D01*
X108718333Y-80089285D01*
X108956428Y-80089285D01*
X109146904Y-80136904D01*
X109242142Y-80184523D01*
X109289761Y-80232142D01*
X109337380Y-80327380D01*
X109337380Y-80422619D01*
X109289761Y-80517857D01*
X109242142Y-80565476D01*
X109146904Y-80613095D01*
X108956428Y-80660714D01*
X108718333Y-80660714D01*
X108527857Y-80613095D01*
X108432619Y-80565476D01*
X108385000Y-80517857D01*
X108337380Y-80422619D01*
X108670714Y-79660714D02*
X109337380Y-79660714D01*
X108765952Y-79660714D02*
X108718333Y-79613095D01*
X108670714Y-79517857D01*
X108670714Y-79375000D01*
X108718333Y-79279761D01*
X108813571Y-79232142D01*
X109337380Y-79232142D01*
D15*
X107814285Y-80916666D02*
X107826190Y-80928571D01*
X107838095Y-80964285D01*
X107838095Y-80988095D01*
X107826190Y-81023809D01*
X107802380Y-81047619D01*
X107778571Y-81059523D01*
X107730952Y-81071428D01*
X107695238Y-81071428D01*
X107647619Y-81059523D01*
X107623809Y-81047619D01*
X107600000Y-81023809D01*
X107588095Y-80988095D01*
X107588095Y-80964285D01*
X107600000Y-80928571D01*
X107611904Y-80916666D01*
X107588095Y-80833333D02*
X107588095Y-80666666D01*
X107838095Y-80773809D01*
D13*
X106517142Y-92341666D02*
X106564761Y-92389285D01*
X106612380Y-92532142D01*
X106612380Y-92627380D01*
X106564761Y-92770238D01*
X106469523Y-92865476D01*
X106374285Y-92913095D01*
X106183809Y-92960714D01*
X106040952Y-92960714D01*
X105850476Y-92913095D01*
X105755238Y-92865476D01*
X105660000Y-92770238D01*
X105612380Y-92627380D01*
X105612380Y-92532142D01*
X105660000Y-92389285D01*
X105707619Y-92341666D01*
X105612380Y-91484523D02*
X105612380Y-91675000D01*
X105660000Y-91770238D01*
X105707619Y-91817857D01*
X105850476Y-91913095D01*
X106040952Y-91960714D01*
X106421904Y-91960714D01*
X106517142Y-91913095D01*
X106564761Y-91865476D01*
X106612380Y-91770238D01*
X106612380Y-91579761D01*
X106564761Y-91484523D01*
X106517142Y-91436904D01*
X106421904Y-91389285D01*
X106183809Y-91389285D01*
X106088571Y-91436904D01*
X106040952Y-91484523D01*
X105993333Y-91579761D01*
X105993333Y-91770238D01*
X106040952Y-91865476D01*
X106088571Y-91913095D01*
X106183809Y-91960714D01*
X104292380Y-93294047D02*
X104292380Y-93865476D01*
X104292380Y-93579761D02*
X103292380Y-93579761D01*
X103435238Y-93675000D01*
X103530476Y-93770238D01*
X103578095Y-93865476D01*
X103292380Y-92675000D02*
X103292380Y-92579761D01*
X103340000Y-92484523D01*
X103387619Y-92436904D01*
X103482857Y-92389285D01*
X103673333Y-92341666D01*
X103911428Y-92341666D01*
X104101904Y-92389285D01*
X104197142Y-92436904D01*
X104244761Y-92484523D01*
X104292380Y-92579761D01*
X104292380Y-92675000D01*
X104244761Y-92770238D01*
X104197142Y-92817857D01*
X104101904Y-92865476D01*
X103911428Y-92913095D01*
X103673333Y-92913095D01*
X103482857Y-92865476D01*
X103387619Y-92817857D01*
X103340000Y-92770238D01*
X103292380Y-92675000D01*
X103292380Y-91722619D02*
X103292380Y-91627380D01*
X103340000Y-91532142D01*
X103387619Y-91484523D01*
X103482857Y-91436904D01*
X103673333Y-91389285D01*
X103911428Y-91389285D01*
X104101904Y-91436904D01*
X104197142Y-91484523D01*
X104244761Y-91532142D01*
X104292380Y-91627380D01*
X104292380Y-91722619D01*
X104244761Y-91817857D01*
X104197142Y-91865476D01*
X104101904Y-91913095D01*
X103911428Y-91960714D01*
X103673333Y-91960714D01*
X103482857Y-91913095D01*
X103387619Y-91865476D01*
X103340000Y-91817857D01*
X103292380Y-91722619D01*
X103625714Y-90960714D02*
X104292380Y-90960714D01*
X103720952Y-90960714D02*
X103673333Y-90913095D01*
X103625714Y-90817857D01*
X103625714Y-90675000D01*
X103673333Y-90579761D01*
X103768571Y-90532142D01*
X104292380Y-90532142D01*
D15*
X105089285Y-92216666D02*
X105101190Y-92228571D01*
X105113095Y-92264285D01*
X105113095Y-92288095D01*
X105101190Y-92323809D01*
X105077380Y-92347619D01*
X105053571Y-92359523D01*
X105005952Y-92371428D01*
X104970238Y-92371428D01*
X104922619Y-92359523D01*
X104898809Y-92347619D01*
X104875000Y-92323809D01*
X104863095Y-92288095D01*
X104863095Y-92264285D01*
X104875000Y-92228571D01*
X104886904Y-92216666D01*
X104863095Y-92002380D02*
X104863095Y-92050000D01*
X104875000Y-92073809D01*
X104886904Y-92085714D01*
X104922619Y-92109523D01*
X104970238Y-92121428D01*
X105065476Y-92121428D01*
X105089285Y-92109523D01*
X105101190Y-92097619D01*
X105113095Y-92073809D01*
X105113095Y-92026190D01*
X105101190Y-92002380D01*
X105089285Y-91990476D01*
X105065476Y-91978571D01*
X105005952Y-91978571D01*
X104982142Y-91990476D01*
X104970238Y-92002380D01*
X104958333Y-92026190D01*
X104958333Y-92073809D01*
X104970238Y-92097619D01*
X104982142Y-92109523D01*
X105005952Y-92121428D01*
D13*
X103322142Y-76441666D02*
X103369761Y-76489285D01*
X103417380Y-76632142D01*
X103417380Y-76727380D01*
X103369761Y-76870238D01*
X103274523Y-76965476D01*
X103179285Y-77013095D01*
X102988809Y-77060714D01*
X102845952Y-77060714D01*
X102655476Y-77013095D01*
X102560238Y-76965476D01*
X102465000Y-76870238D01*
X102417380Y-76727380D01*
X102417380Y-76632142D01*
X102465000Y-76489285D01*
X102512619Y-76441666D01*
X102417380Y-75536904D02*
X102417380Y-76013095D01*
X102893571Y-76060714D01*
X102845952Y-76013095D01*
X102798333Y-75917857D01*
X102798333Y-75679761D01*
X102845952Y-75584523D01*
X102893571Y-75536904D01*
X102988809Y-75489285D01*
X103226904Y-75489285D01*
X103322142Y-75536904D01*
X103369761Y-75584523D01*
X103417380Y-75679761D01*
X103417380Y-75917857D01*
X103369761Y-76013095D01*
X103322142Y-76060714D01*
X105737380Y-77394047D02*
X105737380Y-77965476D01*
X105737380Y-77679761D02*
X104737380Y-77679761D01*
X104880238Y-77775000D01*
X104975476Y-77870238D01*
X105023095Y-77965476D01*
X104737380Y-76775000D02*
X104737380Y-76679761D01*
X104785000Y-76584523D01*
X104832619Y-76536904D01*
X104927857Y-76489285D01*
X105118333Y-76441666D01*
X105356428Y-76441666D01*
X105546904Y-76489285D01*
X105642142Y-76536904D01*
X105689761Y-76584523D01*
X105737380Y-76679761D01*
X105737380Y-76775000D01*
X105689761Y-76870238D01*
X105642142Y-76917857D01*
X105546904Y-76965476D01*
X105356428Y-77013095D01*
X105118333Y-77013095D01*
X104927857Y-76965476D01*
X104832619Y-76917857D01*
X104785000Y-76870238D01*
X104737380Y-76775000D01*
X104737380Y-75822619D02*
X104737380Y-75727380D01*
X104785000Y-75632142D01*
X104832619Y-75584523D01*
X104927857Y-75536904D01*
X105118333Y-75489285D01*
X105356428Y-75489285D01*
X105546904Y-75536904D01*
X105642142Y-75584523D01*
X105689761Y-75632142D01*
X105737380Y-75727380D01*
X105737380Y-75822619D01*
X105689761Y-75917857D01*
X105642142Y-75965476D01*
X105546904Y-76013095D01*
X105356428Y-76060714D01*
X105118333Y-76060714D01*
X104927857Y-76013095D01*
X104832619Y-75965476D01*
X104785000Y-75917857D01*
X104737380Y-75822619D01*
X105070714Y-75060714D02*
X105737380Y-75060714D01*
X105165952Y-75060714D02*
X105118333Y-75013095D01*
X105070714Y-74917857D01*
X105070714Y-74775000D01*
X105118333Y-74679761D01*
X105213571Y-74632142D01*
X105737380Y-74632142D01*
D15*
X104214285Y-76316666D02*
X104226190Y-76328571D01*
X104238095Y-76364285D01*
X104238095Y-76388095D01*
X104226190Y-76423809D01*
X104202380Y-76447619D01*
X104178571Y-76459523D01*
X104130952Y-76471428D01*
X104095238Y-76471428D01*
X104047619Y-76459523D01*
X104023809Y-76447619D01*
X104000000Y-76423809D01*
X103988095Y-76388095D01*
X103988095Y-76364285D01*
X104000000Y-76328571D01*
X104011904Y-76316666D01*
X103988095Y-76090476D02*
X103988095Y-76209523D01*
X104107142Y-76221428D01*
X104095238Y-76209523D01*
X104083333Y-76185714D01*
X104083333Y-76126190D01*
X104095238Y-76102380D01*
X104107142Y-76090476D01*
X104130952Y-76078571D01*
X104190476Y-76078571D01*
X104214285Y-76090476D01*
X104226190Y-76102380D01*
X104238095Y-76126190D01*
X104238095Y-76185714D01*
X104226190Y-76209523D01*
X104214285Y-76221428D01*
D13*
X100733333Y-95417142D02*
X100685714Y-95464761D01*
X100542857Y-95512380D01*
X100447619Y-95512380D01*
X100304761Y-95464761D01*
X100209523Y-95369523D01*
X100161904Y-95274285D01*
X100114285Y-95083809D01*
X100114285Y-94940952D01*
X100161904Y-94750476D01*
X100209523Y-94655238D01*
X100304761Y-94560000D01*
X100447619Y-94512380D01*
X100542857Y-94512380D01*
X100685714Y-94560000D01*
X100733333Y-94607619D01*
X101114285Y-94607619D02*
X101161904Y-94560000D01*
X101257142Y-94512380D01*
X101495238Y-94512380D01*
X101590476Y-94560000D01*
X101638095Y-94607619D01*
X101685714Y-94702857D01*
X101685714Y-94798095D01*
X101638095Y-94940952D01*
X101066666Y-95512380D01*
X101685714Y-95512380D01*
X100257142Y-93192380D02*
X99685714Y-93192380D01*
X99971428Y-93192380D02*
X99971428Y-92192380D01*
X99876190Y-92335238D01*
X99780952Y-92430476D01*
X99685714Y-92478095D01*
X101161904Y-92192380D02*
X100685714Y-92192380D01*
X100638095Y-92668571D01*
X100685714Y-92620952D01*
X100780952Y-92573333D01*
X101019047Y-92573333D01*
X101114285Y-92620952D01*
X101161904Y-92668571D01*
X101209523Y-92763809D01*
X101209523Y-93001904D01*
X101161904Y-93097142D01*
X101114285Y-93144761D01*
X101019047Y-93192380D01*
X100780952Y-93192380D01*
X100685714Y-93144761D01*
X100638095Y-93097142D01*
X101638095Y-92525714D02*
X101638095Y-93525714D01*
X101638095Y-92573333D02*
X101733333Y-92525714D01*
X101923809Y-92525714D01*
X102019047Y-92573333D01*
X102066666Y-92620952D01*
X102114285Y-92716190D01*
X102114285Y-93001904D01*
X102066666Y-93097142D01*
X102019047Y-93144761D01*
X101923809Y-93192380D01*
X101733333Y-93192380D01*
X101638095Y-93144761D01*
D15*
X100858333Y-93989285D02*
X100846428Y-94001190D01*
X100810714Y-94013095D01*
X100786904Y-94013095D01*
X100751190Y-94001190D01*
X100727380Y-93977380D01*
X100715476Y-93953571D01*
X100703571Y-93905952D01*
X100703571Y-93870238D01*
X100715476Y-93822619D01*
X100727380Y-93798809D01*
X100751190Y-93775000D01*
X100786904Y-93763095D01*
X100810714Y-93763095D01*
X100846428Y-93775000D01*
X100858333Y-93786904D01*
X100953571Y-93786904D02*
X100965476Y-93775000D01*
X100989285Y-93763095D01*
X101048809Y-93763095D01*
X101072619Y-93775000D01*
X101084523Y-93786904D01*
X101096428Y-93810714D01*
X101096428Y-93834523D01*
X101084523Y-93870238D01*
X100941666Y-94013095D01*
X101096428Y-94013095D01*
D13*
X109397142Y-65611666D02*
X109444761Y-65659285D01*
X109492380Y-65802142D01*
X109492380Y-65897380D01*
X109444761Y-66040238D01*
X109349523Y-66135476D01*
X109254285Y-66183095D01*
X109063809Y-66230714D01*
X108920952Y-66230714D01*
X108730476Y-66183095D01*
X108635238Y-66135476D01*
X108540000Y-66040238D01*
X108492380Y-65897380D01*
X108492380Y-65802142D01*
X108540000Y-65659285D01*
X108587619Y-65611666D01*
X109492380Y-64659285D02*
X109492380Y-65230714D01*
X109492380Y-64945000D02*
X108492380Y-64945000D01*
X108635238Y-65040238D01*
X108730476Y-65135476D01*
X108778095Y-65230714D01*
X111812380Y-66087857D02*
X111812380Y-66659285D01*
X111812380Y-66373571D02*
X110812380Y-66373571D01*
X110955238Y-66468809D01*
X111050476Y-66564047D01*
X111098095Y-66659285D01*
X110812380Y-65468809D02*
X110812380Y-65373571D01*
X110860000Y-65278333D01*
X110907619Y-65230714D01*
X111002857Y-65183095D01*
X111193333Y-65135476D01*
X111431428Y-65135476D01*
X111621904Y-65183095D01*
X111717142Y-65230714D01*
X111764761Y-65278333D01*
X111812380Y-65373571D01*
X111812380Y-65468809D01*
X111764761Y-65564047D01*
X111717142Y-65611666D01*
X111621904Y-65659285D01*
X111431428Y-65706904D01*
X111193333Y-65706904D01*
X111002857Y-65659285D01*
X110907619Y-65611666D01*
X110860000Y-65564047D01*
X110812380Y-65468809D01*
X111145714Y-64278333D02*
X111812380Y-64278333D01*
X111145714Y-64706904D02*
X111669523Y-64706904D01*
X111764761Y-64659285D01*
X111812380Y-64564047D01*
X111812380Y-64421190D01*
X111764761Y-64325952D01*
X111717142Y-64278333D01*
D15*
X110289285Y-65486666D02*
X110301190Y-65498571D01*
X110313095Y-65534285D01*
X110313095Y-65558095D01*
X110301190Y-65593809D01*
X110277380Y-65617619D01*
X110253571Y-65629523D01*
X110205952Y-65641428D01*
X110170238Y-65641428D01*
X110122619Y-65629523D01*
X110098809Y-65617619D01*
X110075000Y-65593809D01*
X110063095Y-65558095D01*
X110063095Y-65534285D01*
X110075000Y-65498571D01*
X110086904Y-65486666D01*
X110313095Y-65248571D02*
X110313095Y-65391428D01*
X110313095Y-65320000D02*
X110063095Y-65320000D01*
X110098809Y-65343809D01*
X110122619Y-65367619D01*
X110134523Y-65391428D01*
D13*
X109383333Y-87047380D02*
X109050000Y-86571190D01*
X108811904Y-87047380D02*
X108811904Y-86047380D01*
X109192857Y-86047380D01*
X109288095Y-86095000D01*
X109335714Y-86142619D01*
X109383333Y-86237857D01*
X109383333Y-86380714D01*
X109335714Y-86475952D01*
X109288095Y-86523571D01*
X109192857Y-86571190D01*
X108811904Y-86571190D01*
X109954761Y-86475952D02*
X109859523Y-86428333D01*
X109811904Y-86380714D01*
X109764285Y-86285476D01*
X109764285Y-86237857D01*
X109811904Y-86142619D01*
X109859523Y-86095000D01*
X109954761Y-86047380D01*
X110145238Y-86047380D01*
X110240476Y-86095000D01*
X110288095Y-86142619D01*
X110335714Y-86237857D01*
X110335714Y-86285476D01*
X110288095Y-86380714D01*
X110240476Y-86428333D01*
X110145238Y-86475952D01*
X109954761Y-86475952D01*
X109859523Y-86523571D01*
X109811904Y-86571190D01*
X109764285Y-86666428D01*
X109764285Y-86856904D01*
X109811904Y-86952142D01*
X109859523Y-86999761D01*
X109954761Y-87047380D01*
X110145238Y-87047380D01*
X110240476Y-86999761D01*
X110288095Y-86952142D01*
X110335714Y-86856904D01*
X110335714Y-86666428D01*
X110288095Y-86571190D01*
X110240476Y-86523571D01*
X110145238Y-86475952D01*
X108430952Y-84707380D02*
X108097619Y-84231190D01*
X107859523Y-84707380D02*
X107859523Y-83707380D01*
X108240476Y-83707380D01*
X108335714Y-83755000D01*
X108383333Y-83802619D01*
X108430952Y-83897857D01*
X108430952Y-84040714D01*
X108383333Y-84135952D01*
X108335714Y-84183571D01*
X108240476Y-84231190D01*
X107859523Y-84231190D01*
X109288095Y-84040714D02*
X109288095Y-84707380D01*
X109050000Y-83659761D02*
X108811904Y-84374047D01*
X109430952Y-84374047D01*
X109716666Y-83707380D02*
X110383333Y-83707380D01*
X109954761Y-84707380D01*
X110954761Y-83707380D02*
X111050000Y-83707380D01*
X111145238Y-83755000D01*
X111192857Y-83802619D01*
X111240476Y-83897857D01*
X111288095Y-84088333D01*
X111288095Y-84326428D01*
X111240476Y-84516904D01*
X111192857Y-84612142D01*
X111145238Y-84659761D01*
X111050000Y-84707380D01*
X110954761Y-84707380D01*
X110859523Y-84659761D01*
X110811904Y-84612142D01*
X110764285Y-84516904D01*
X110716666Y-84326428D01*
X110716666Y-84088333D01*
X110764285Y-83897857D01*
X110811904Y-83802619D01*
X110859523Y-83755000D01*
X110954761Y-83707380D01*
D15*
X109506666Y-85542619D02*
X109420000Y-85418809D01*
X109358095Y-85542619D02*
X109358095Y-85282619D01*
X109457142Y-85282619D01*
X109481904Y-85295000D01*
X109494285Y-85307380D01*
X109506666Y-85332142D01*
X109506666Y-85369285D01*
X109494285Y-85394047D01*
X109481904Y-85406428D01*
X109457142Y-85418809D01*
X109358095Y-85418809D01*
X109655238Y-85394047D02*
X109630476Y-85381666D01*
X109618095Y-85369285D01*
X109605714Y-85344523D01*
X109605714Y-85332142D01*
X109618095Y-85307380D01*
X109630476Y-85295000D01*
X109655238Y-85282619D01*
X109704761Y-85282619D01*
X109729523Y-85295000D01*
X109741904Y-85307380D01*
X109754285Y-85332142D01*
X109754285Y-85344523D01*
X109741904Y-85369285D01*
X109729523Y-85381666D01*
X109704761Y-85394047D01*
X109655238Y-85394047D01*
X109630476Y-85406428D01*
X109618095Y-85418809D01*
X109605714Y-85443571D01*
X109605714Y-85493095D01*
X109618095Y-85517857D01*
X109630476Y-85530238D01*
X109655238Y-85542619D01*
X109704761Y-85542619D01*
X109729523Y-85530238D01*
X109741904Y-85517857D01*
X109754285Y-85493095D01*
X109754285Y-85443571D01*
X109741904Y-85418809D01*
X109729523Y-85406428D01*
X109704761Y-85394047D01*
D13*
X99522380Y-63788095D02*
X98522380Y-63788095D01*
X98522380Y-63550000D01*
X98570000Y-63407142D01*
X98665238Y-63311904D01*
X98760476Y-63264285D01*
X98950952Y-63216666D01*
X99093809Y-63216666D01*
X99284285Y-63264285D01*
X99379523Y-63311904D01*
X99474761Y-63407142D01*
X99522380Y-63550000D01*
X99522380Y-63788095D01*
X98522380Y-62883333D02*
X98522380Y-62264285D01*
X98903333Y-62597619D01*
X98903333Y-62454761D01*
X98950952Y-62359523D01*
X98998571Y-62311904D01*
X99093809Y-62264285D01*
X99331904Y-62264285D01*
X99427142Y-62311904D01*
X99474761Y-62359523D01*
X99522380Y-62454761D01*
X99522380Y-62740476D01*
X99474761Y-62835714D01*
X99427142Y-62883333D01*
X96230000Y-66740476D02*
X96182380Y-66835714D01*
X96182380Y-66978571D01*
X96230000Y-67121428D01*
X96325238Y-67216666D01*
X96420476Y-67264285D01*
X96610952Y-67311904D01*
X96753809Y-67311904D01*
X96944285Y-67264285D01*
X97039523Y-67216666D01*
X97134761Y-67121428D01*
X97182380Y-66978571D01*
X97182380Y-66883333D01*
X97134761Y-66740476D01*
X97087142Y-66692857D01*
X96753809Y-66692857D01*
X96753809Y-66883333D01*
X97182380Y-66264285D02*
X96182380Y-66264285D01*
X96182380Y-65883333D01*
X96230000Y-65788095D01*
X96277619Y-65740476D01*
X96372857Y-65692857D01*
X96515714Y-65692857D01*
X96610952Y-65740476D01*
X96658571Y-65788095D01*
X96706190Y-65883333D01*
X96706190Y-66264285D01*
X97182380Y-65264285D02*
X96182380Y-65264285D01*
X96182380Y-64597619D02*
X96182380Y-64407142D01*
X96230000Y-64311904D01*
X96325238Y-64216666D01*
X96515714Y-64169047D01*
X96849047Y-64169047D01*
X97039523Y-64216666D01*
X97134761Y-64311904D01*
X97182380Y-64407142D01*
X97182380Y-64597619D01*
X97134761Y-64692857D01*
X97039523Y-64788095D01*
X96849047Y-64835714D01*
X96515714Y-64835714D01*
X96325238Y-64788095D01*
X96230000Y-64692857D01*
X96182380Y-64597619D01*
X96277619Y-63788095D02*
X96230000Y-63740476D01*
X96182380Y-63645238D01*
X96182380Y-63407142D01*
X96230000Y-63311904D01*
X96277619Y-63264285D01*
X96372857Y-63216666D01*
X96468095Y-63216666D01*
X96610952Y-63264285D01*
X97182380Y-63835714D01*
X97182380Y-63216666D01*
X96182380Y-62311904D02*
X96182380Y-62788095D01*
X96658571Y-62835714D01*
X96610952Y-62788095D01*
X96563333Y-62692857D01*
X96563333Y-62454761D01*
X96610952Y-62359523D01*
X96658571Y-62311904D01*
X96753809Y-62264285D01*
X96991904Y-62264285D01*
X97087142Y-62311904D01*
X97134761Y-62359523D01*
X97182380Y-62454761D01*
X97182380Y-62692857D01*
X97134761Y-62788095D01*
X97087142Y-62835714D01*
X97182380Y-60597619D02*
X97182380Y-61073809D01*
X96182380Y-61073809D01*
X96658571Y-60264285D02*
X96658571Y-59930952D01*
X97182380Y-59788095D02*
X97182380Y-60264285D01*
X96182380Y-60264285D01*
X96182380Y-59788095D01*
X97182380Y-59359523D02*
X96182380Y-59359523D01*
X96182380Y-59121428D01*
X96230000Y-58978571D01*
X96325238Y-58883333D01*
X96420476Y-58835714D01*
X96610952Y-58788095D01*
X96753809Y-58788095D01*
X96944285Y-58835714D01*
X97039523Y-58883333D01*
X97134761Y-58978571D01*
X97182380Y-59121428D01*
X97182380Y-59359523D01*
D15*
X98013095Y-63234523D02*
X97763095Y-63234523D01*
X97763095Y-63175000D01*
X97775000Y-63139285D01*
X97798809Y-63115476D01*
X97822619Y-63103571D01*
X97870238Y-63091666D01*
X97905952Y-63091666D01*
X97953571Y-63103571D01*
X97977380Y-63115476D01*
X98001190Y-63139285D01*
X98013095Y-63175000D01*
X98013095Y-63234523D01*
X97763095Y-63008333D02*
X97763095Y-62853571D01*
X97858333Y-62936904D01*
X97858333Y-62901190D01*
X97870238Y-62877380D01*
X97882142Y-62865476D01*
X97905952Y-62853571D01*
X97965476Y-62853571D01*
X97989285Y-62865476D01*
X98001190Y-62877380D01*
X98013095Y-62901190D01*
X98013095Y-62972619D01*
X98001190Y-62996428D01*
X97989285Y-63008333D01*
D13*
X102928095Y-80657380D02*
X102928095Y-81466904D01*
X102975714Y-81562142D01*
X103023333Y-81609761D01*
X103118571Y-81657380D01*
X103309047Y-81657380D01*
X103404285Y-81609761D01*
X103451904Y-81562142D01*
X103499523Y-81466904D01*
X103499523Y-80657380D01*
X103880476Y-80657380D02*
X104499523Y-80657380D01*
X104166190Y-81038333D01*
X104309047Y-81038333D01*
X104404285Y-81085952D01*
X104451904Y-81133571D01*
X104499523Y-81228809D01*
X104499523Y-81466904D01*
X104451904Y-81562142D01*
X104404285Y-81609761D01*
X104309047Y-81657380D01*
X104023333Y-81657380D01*
X103928095Y-81609761D01*
X103880476Y-81562142D01*
X101594761Y-86477380D02*
X101261428Y-86001190D01*
X101023333Y-86477380D02*
X101023333Y-85477380D01*
X101404285Y-85477380D01*
X101499523Y-85525000D01*
X101547142Y-85572619D01*
X101594761Y-85667857D01*
X101594761Y-85810714D01*
X101547142Y-85905952D01*
X101499523Y-85953571D01*
X101404285Y-86001190D01*
X101023333Y-86001190D01*
X102023333Y-86477380D02*
X102023333Y-85477380D01*
X102404285Y-85477380D01*
X102499523Y-85525000D01*
X102547142Y-85572619D01*
X102594761Y-85667857D01*
X102594761Y-85810714D01*
X102547142Y-85905952D01*
X102499523Y-85953571D01*
X102404285Y-86001190D01*
X102023333Y-86001190D01*
X102975714Y-85572619D02*
X103023333Y-85525000D01*
X103118571Y-85477380D01*
X103356666Y-85477380D01*
X103451904Y-85525000D01*
X103499523Y-85572619D01*
X103547142Y-85667857D01*
X103547142Y-85763095D01*
X103499523Y-85905952D01*
X102928095Y-86477380D01*
X103547142Y-86477380D01*
X104166190Y-85477380D02*
X104261428Y-85477380D01*
X104356666Y-85525000D01*
X104404285Y-85572619D01*
X104451904Y-85667857D01*
X104499523Y-85858333D01*
X104499523Y-86096428D01*
X104451904Y-86286904D01*
X104404285Y-86382142D01*
X104356666Y-86429761D01*
X104261428Y-86477380D01*
X104166190Y-86477380D01*
X104070952Y-86429761D01*
X104023333Y-86382142D01*
X103975714Y-86286904D01*
X103928095Y-86096428D01*
X103928095Y-85858333D01*
X103975714Y-85667857D01*
X104023333Y-85572619D01*
X104070952Y-85525000D01*
X104166190Y-85477380D01*
X105356666Y-85810714D02*
X105356666Y-86477380D01*
X105118571Y-85429761D02*
X104880476Y-86144047D01*
X105499523Y-86144047D01*
X106070952Y-85477380D02*
X106166190Y-85477380D01*
X106261428Y-85525000D01*
X106309047Y-85572619D01*
X106356666Y-85667857D01*
X106404285Y-85858333D01*
X106404285Y-86096428D01*
X106356666Y-86286904D01*
X106309047Y-86382142D01*
X106261428Y-86429761D01*
X106166190Y-86477380D01*
X106070952Y-86477380D01*
X105975714Y-86429761D01*
X105928095Y-86382142D01*
X105880476Y-86286904D01*
X105832857Y-86096428D01*
X105832857Y-85858333D01*
X105880476Y-85667857D01*
X105928095Y-85572619D01*
X105975714Y-85525000D01*
X106070952Y-85477380D01*
X102928095Y-85477380D02*
X102928095Y-86286904D01*
X102975714Y-86382142D01*
X103023333Y-86429761D01*
X103118571Y-86477380D01*
X103309047Y-86477380D01*
X103404285Y-86429761D01*
X103451904Y-86382142D01*
X103499523Y-86286904D01*
X103499523Y-85477380D01*
X103880476Y-85477380D02*
X104499523Y-85477380D01*
X104166190Y-85858333D01*
X104309047Y-85858333D01*
X104404285Y-85905952D01*
X104451904Y-85953571D01*
X104499523Y-86048809D01*
X104499523Y-86286904D01*
X104451904Y-86382142D01*
X104404285Y-86429761D01*
X104309047Y-86477380D01*
X104023333Y-86477380D01*
X103928095Y-86429761D01*
X103880476Y-86382142D01*
X98272380Y-107258333D02*
X98986666Y-107258333D01*
X99129523Y-107305952D01*
X99224761Y-107401190D01*
X99272380Y-107544047D01*
X99272380Y-107639285D01*
X98272380Y-106305952D02*
X98272380Y-106782142D01*
X98748571Y-106829761D01*
X98700952Y-106782142D01*
X98653333Y-106686904D01*
X98653333Y-106448809D01*
X98700952Y-106353571D01*
X98748571Y-106305952D01*
X98843809Y-106258333D01*
X99081904Y-106258333D01*
X99177142Y-106305952D01*
X99224761Y-106353571D01*
X99272380Y-106448809D01*
X99272380Y-106686904D01*
X99224761Y-106782142D01*
X99177142Y-106829761D01*
X115547142Y-100358333D02*
X115594761Y-100405952D01*
X115642380Y-100548809D01*
X115642380Y-100644047D01*
X115594761Y-100786904D01*
X115499523Y-100882142D01*
X115404285Y-100929761D01*
X115213809Y-100977380D01*
X115070952Y-100977380D01*
X114880476Y-100929761D01*
X114785238Y-100882142D01*
X114690000Y-100786904D01*
X114642380Y-100644047D01*
X114642380Y-100548809D01*
X114690000Y-100405952D01*
X114737619Y-100358333D01*
X115642380Y-99786904D02*
X115594761Y-99882142D01*
X115547142Y-99929761D01*
X115451904Y-99977380D01*
X115166190Y-99977380D01*
X115070952Y-99929761D01*
X115023333Y-99882142D01*
X114975714Y-99786904D01*
X114975714Y-99644047D01*
X115023333Y-99548809D01*
X115070952Y-99501190D01*
X115166190Y-99453571D01*
X115451904Y-99453571D01*
X115547142Y-99501190D01*
X115594761Y-99548809D01*
X115642380Y-99644047D01*
X115642380Y-99786904D01*
X114975714Y-99025000D02*
X115642380Y-99025000D01*
X115070952Y-99025000D02*
X115023333Y-98977380D01*
X114975714Y-98882142D01*
X114975714Y-98739285D01*
X115023333Y-98644047D01*
X115118571Y-98596428D01*
X115642380Y-98596428D01*
X114975714Y-98120238D02*
X115642380Y-98120238D01*
X115070952Y-98120238D02*
X115023333Y-98072619D01*
X114975714Y-97977380D01*
X114975714Y-97834523D01*
X115023333Y-97739285D01*
X115118571Y-97691666D01*
X115642380Y-97691666D01*
X115737619Y-97453571D02*
X115737619Y-96691666D01*
X114642380Y-96263095D02*
X114642380Y-96167857D01*
X114690000Y-96072619D01*
X114737619Y-96025000D01*
X114832857Y-95977380D01*
X115023333Y-95929761D01*
X115261428Y-95929761D01*
X115451904Y-95977380D01*
X115547142Y-96025000D01*
X115594761Y-96072619D01*
X115642380Y-96167857D01*
X115642380Y-96263095D01*
X115594761Y-96358333D01*
X115547142Y-96405952D01*
X115451904Y-96453571D01*
X115261428Y-96501190D01*
X115023333Y-96501190D01*
X114832857Y-96453571D01*
X114737619Y-96405952D01*
X114690000Y-96358333D01*
X114642380Y-96263095D01*
X115642380Y-94977380D02*
X115642380Y-95548809D01*
X115642380Y-95263095D02*
X114642380Y-95263095D01*
X114785238Y-95358333D01*
X114880476Y-95453571D01*
X114928095Y-95548809D01*
X115642380Y-94644047D02*
X114975714Y-94120238D01*
X114975714Y-94644047D02*
X115642380Y-94120238D01*
X114642380Y-93548809D02*
X114642380Y-93453571D01*
X114690000Y-93358333D01*
X114737619Y-93310714D01*
X114832857Y-93263095D01*
X115023333Y-93215476D01*
X115261428Y-93215476D01*
X115451904Y-93263095D01*
X115547142Y-93310714D01*
X115594761Y-93358333D01*
X115642380Y-93453571D01*
X115642380Y-93548809D01*
X115594761Y-93644047D01*
X115547142Y-93691666D01*
X115451904Y-93739285D01*
X115261428Y-93786904D01*
X115023333Y-93786904D01*
X114832857Y-93739285D01*
X114737619Y-93691666D01*
X114690000Y-93644047D01*
X114642380Y-93548809D01*
X114642380Y-92882142D02*
X114642380Y-92263095D01*
X115023333Y-92596428D01*
X115023333Y-92453571D01*
X115070952Y-92358333D01*
X115118571Y-92310714D01*
X115213809Y-92263095D01*
X115451904Y-92263095D01*
X115547142Y-92310714D01*
X115594761Y-92358333D01*
X115642380Y-92453571D01*
X115642380Y-92739285D01*
X115594761Y-92834523D01*
X115547142Y-92882142D01*
X115737619Y-92072619D02*
X115737619Y-91310714D01*
X115642380Y-91072619D02*
X114642380Y-91072619D01*
X115356666Y-90739285D01*
X114642380Y-90405952D01*
X115642380Y-90405952D01*
X115642380Y-89501190D02*
X115118571Y-89501190D01*
X115023333Y-89548809D01*
X114975714Y-89644047D01*
X114975714Y-89834523D01*
X115023333Y-89929761D01*
X115594761Y-89501190D02*
X115642380Y-89596428D01*
X115642380Y-89834523D01*
X115594761Y-89929761D01*
X115499523Y-89977380D01*
X115404285Y-89977380D01*
X115309047Y-89929761D01*
X115261428Y-89834523D01*
X115261428Y-89596428D01*
X115213809Y-89501190D01*
X115642380Y-88882142D02*
X115594761Y-88977380D01*
X115499523Y-89025000D01*
X114642380Y-89025000D01*
X115594761Y-88120238D02*
X115642380Y-88215476D01*
X115642380Y-88405952D01*
X115594761Y-88501190D01*
X115499523Y-88548809D01*
X115118571Y-88548809D01*
X115023333Y-88501190D01*
X114975714Y-88405952D01*
X114975714Y-88215476D01*
X115023333Y-88120238D01*
X115118571Y-88072619D01*
X115213809Y-88072619D01*
X115309047Y-88548809D01*
X103356666Y-106377380D02*
X103356666Y-107091666D01*
X103309047Y-107234523D01*
X103213809Y-107329761D01*
X103070952Y-107377380D01*
X102975714Y-107377380D01*
X104309047Y-106377380D02*
X103832857Y-106377380D01*
X103785238Y-106853571D01*
X103832857Y-106805952D01*
X103928095Y-106758333D01*
X104166190Y-106758333D01*
X104261428Y-106805952D01*
X104309047Y-106853571D01*
X104356666Y-106948809D01*
X104356666Y-107186904D01*
X104309047Y-107282142D01*
X104261428Y-107329761D01*
X104166190Y-107377380D01*
X103928095Y-107377380D01*
X103832857Y-107329761D01*
X103785238Y-107282142D01*
X112196666Y-55847380D02*
X112196666Y-56561666D01*
X112149047Y-56704523D01*
X112053809Y-56799761D01*
X111910952Y-56847380D01*
X111815714Y-56847380D01*
X113101428Y-56180714D02*
X113101428Y-56847380D01*
X112863333Y-55799761D02*
X112625238Y-56514047D01*
X113244285Y-56514047D01*
X104887142Y-109672142D02*
X104839523Y-109719761D01*
X104696666Y-109767380D01*
X104601428Y-109767380D01*
X104458571Y-109719761D01*
X104363333Y-109624523D01*
X104315714Y-109529285D01*
X104268095Y-109338809D01*
X104268095Y-109195952D01*
X104315714Y-109005476D01*
X104363333Y-108910238D01*
X104458571Y-108815000D01*
X104601428Y-108767380D01*
X104696666Y-108767380D01*
X104839523Y-108815000D01*
X104887142Y-108862619D01*
X105458571Y-109767380D02*
X105363333Y-109719761D01*
X105315714Y-109672142D01*
X105268095Y-109576904D01*
X105268095Y-109291190D01*
X105315714Y-109195952D01*
X105363333Y-109148333D01*
X105458571Y-109100714D01*
X105601428Y-109100714D01*
X105696666Y-109148333D01*
X105744285Y-109195952D01*
X105791904Y-109291190D01*
X105791904Y-109576904D01*
X105744285Y-109672142D01*
X105696666Y-109719761D01*
X105601428Y-109767380D01*
X105458571Y-109767380D01*
X106220476Y-109100714D02*
X106220476Y-109767380D01*
X106220476Y-109195952D02*
X106268095Y-109148333D01*
X106363333Y-109100714D01*
X106506190Y-109100714D01*
X106601428Y-109148333D01*
X106649047Y-109243571D01*
X106649047Y-109767380D01*
X107125238Y-109100714D02*
X107125238Y-109767380D01*
X107125238Y-109195952D02*
X107172857Y-109148333D01*
X107268095Y-109100714D01*
X107410952Y-109100714D01*
X107506190Y-109148333D01*
X107553809Y-109243571D01*
X107553809Y-109767380D01*
X107791904Y-109862619D02*
X108553809Y-109862619D01*
X108982380Y-108767380D02*
X109077619Y-108767380D01*
X109172857Y-108815000D01*
X109220476Y-108862619D01*
X109268095Y-108957857D01*
X109315714Y-109148333D01*
X109315714Y-109386428D01*
X109268095Y-109576904D01*
X109220476Y-109672142D01*
X109172857Y-109719761D01*
X109077619Y-109767380D01*
X108982380Y-109767380D01*
X108887142Y-109719761D01*
X108839523Y-109672142D01*
X108791904Y-109576904D01*
X108744285Y-109386428D01*
X108744285Y-109148333D01*
X108791904Y-108957857D01*
X108839523Y-108862619D01*
X108887142Y-108815000D01*
X108982380Y-108767380D01*
X109696666Y-108862619D02*
X109744285Y-108815000D01*
X109839523Y-108767380D01*
X110077619Y-108767380D01*
X110172857Y-108815000D01*
X110220476Y-108862619D01*
X110268095Y-108957857D01*
X110268095Y-109053095D01*
X110220476Y-109195952D01*
X109649047Y-109767380D01*
X110268095Y-109767380D01*
X110601428Y-109767380D02*
X111125238Y-109100714D01*
X110601428Y-109100714D02*
X111125238Y-109767380D01*
X112030000Y-109767380D02*
X111458571Y-109767380D01*
X111744285Y-109767380D02*
X111744285Y-108767380D01*
X111649047Y-108910238D01*
X111553809Y-109005476D01*
X111458571Y-109053095D01*
X112601428Y-109195952D02*
X112506190Y-109148333D01*
X112458571Y-109100714D01*
X112410952Y-109005476D01*
X112410952Y-108957857D01*
X112458571Y-108862619D01*
X112506190Y-108815000D01*
X112601428Y-108767380D01*
X112791904Y-108767380D01*
X112887142Y-108815000D01*
X112934761Y-108862619D01*
X112982380Y-108957857D01*
X112982380Y-109005476D01*
X112934761Y-109100714D01*
X112887142Y-109148333D01*
X112791904Y-109195952D01*
X112601428Y-109195952D01*
X112506190Y-109243571D01*
X112458571Y-109291190D01*
X112410952Y-109386428D01*
X112410952Y-109576904D01*
X112458571Y-109672142D01*
X112506190Y-109719761D01*
X112601428Y-109767380D01*
X112791904Y-109767380D01*
X112887142Y-109719761D01*
X112934761Y-109672142D01*
X112982380Y-109576904D01*
X112982380Y-109386428D01*
X112934761Y-109291190D01*
X112887142Y-109243571D01*
X112791904Y-109195952D01*
X113172857Y-109862619D02*
X113934761Y-109862619D01*
X114363333Y-108767380D02*
X114553809Y-108767380D01*
X114649047Y-108815000D01*
X114744285Y-108910238D01*
X114791904Y-109100714D01*
X114791904Y-109434047D01*
X114744285Y-109624523D01*
X114649047Y-109719761D01*
X114553809Y-109767380D01*
X114363333Y-109767380D01*
X114268095Y-109719761D01*
X114172857Y-109624523D01*
X114125238Y-109434047D01*
X114125238Y-109100714D01*
X114172857Y-108910238D01*
X114268095Y-108815000D01*
X114363333Y-108767380D01*
X115649047Y-109767380D02*
X115649047Y-108767380D01*
X115649047Y-109719761D02*
X115553809Y-109767380D01*
X115363333Y-109767380D01*
X115268095Y-109719761D01*
X115220476Y-109672142D01*
X115172857Y-109576904D01*
X115172857Y-109291190D01*
X115220476Y-109195952D01*
X115268095Y-109148333D01*
X115363333Y-109100714D01*
X115553809Y-109100714D01*
X115649047Y-109148333D01*
X116553809Y-109767380D02*
X116553809Y-108767380D01*
X116553809Y-109719761D02*
X116458571Y-109767380D01*
X116268095Y-109767380D01*
X116172857Y-109719761D01*
X116125238Y-109672142D01*
X116077619Y-109576904D01*
X116077619Y-109291190D01*
X116125238Y-109195952D01*
X116172857Y-109148333D01*
X116268095Y-109100714D01*
X116458571Y-109100714D01*
X116553809Y-109148333D01*
X116791904Y-109862619D02*
X117553809Y-109862619D01*
X117791904Y-109243571D02*
X118125238Y-109243571D01*
X118268095Y-109767380D02*
X117791904Y-109767380D01*
X117791904Y-108767380D01*
X118268095Y-108767380D01*
X118601428Y-109100714D02*
X118839523Y-109767380D01*
X119077619Y-109100714D01*
X119839523Y-109719761D02*
X119744285Y-109767380D01*
X119553809Y-109767380D01*
X119458571Y-109719761D01*
X119410952Y-109624523D01*
X119410952Y-109243571D01*
X119458571Y-109148333D01*
X119553809Y-109100714D01*
X119744285Y-109100714D01*
X119839523Y-109148333D01*
X119887142Y-109243571D01*
X119887142Y-109338809D01*
X119410952Y-109434047D01*
X120315714Y-109100714D02*
X120315714Y-109767380D01*
X120315714Y-109195952D02*
X120363333Y-109148333D01*
X120458571Y-109100714D01*
X120601428Y-109100714D01*
X120696666Y-109148333D01*
X120744285Y-109243571D01*
X120744285Y-109767380D01*
X90892857Y-61842142D02*
X90845238Y-61794523D01*
X90797619Y-61651666D01*
X90797619Y-61556428D01*
X90845238Y-61413571D01*
X90940476Y-61318333D01*
X91035714Y-61270714D01*
X91226190Y-61223095D01*
X91369047Y-61223095D01*
X91559523Y-61270714D01*
X91654761Y-61318333D01*
X91750000Y-61413571D01*
X91797619Y-61556428D01*
X91797619Y-61651666D01*
X91750000Y-61794523D01*
X91702380Y-61842142D01*
X90797619Y-62413571D02*
X90845238Y-62318333D01*
X90892857Y-62270714D01*
X90988095Y-62223095D01*
X91273809Y-62223095D01*
X91369047Y-62270714D01*
X91416666Y-62318333D01*
X91464285Y-62413571D01*
X91464285Y-62556428D01*
X91416666Y-62651666D01*
X91369047Y-62699285D01*
X91273809Y-62746904D01*
X90988095Y-62746904D01*
X90892857Y-62699285D01*
X90845238Y-62651666D01*
X90797619Y-62556428D01*
X90797619Y-62413571D01*
X91464285Y-63175476D02*
X90797619Y-63175476D01*
X91369047Y-63175476D02*
X91416666Y-63223095D01*
X91464285Y-63318333D01*
X91464285Y-63461190D01*
X91416666Y-63556428D01*
X91321428Y-63604047D01*
X90797619Y-63604047D01*
X91464285Y-64080238D02*
X90797619Y-64080238D01*
X91369047Y-64080238D02*
X91416666Y-64127857D01*
X91464285Y-64223095D01*
X91464285Y-64365952D01*
X91416666Y-64461190D01*
X91321428Y-64508809D01*
X90797619Y-64508809D01*
X90702380Y-64746904D02*
X90702380Y-65508809D01*
X91797619Y-65937380D02*
X91797619Y-66032619D01*
X91750000Y-66127857D01*
X91702380Y-66175476D01*
X91607142Y-66223095D01*
X91416666Y-66270714D01*
X91178571Y-66270714D01*
X90988095Y-66223095D01*
X90892857Y-66175476D01*
X90845238Y-66127857D01*
X90797619Y-66032619D01*
X90797619Y-65937380D01*
X90845238Y-65842142D01*
X90892857Y-65794523D01*
X90988095Y-65746904D01*
X91178571Y-65699285D01*
X91416666Y-65699285D01*
X91607142Y-65746904D01*
X91702380Y-65794523D01*
X91750000Y-65842142D01*
X91797619Y-65937380D01*
X91702380Y-66651666D02*
X91750000Y-66699285D01*
X91797619Y-66794523D01*
X91797619Y-67032619D01*
X91750000Y-67127857D01*
X91702380Y-67175476D01*
X91607142Y-67223095D01*
X91511904Y-67223095D01*
X91369047Y-67175476D01*
X90797619Y-66604047D01*
X90797619Y-67223095D01*
X90797619Y-67556428D02*
X91464285Y-68080238D01*
X91464285Y-67556428D02*
X90797619Y-68080238D01*
X90797619Y-68985000D02*
X90797619Y-68413571D01*
X90797619Y-68699285D02*
X91797619Y-68699285D01*
X91654761Y-68604047D01*
X91559523Y-68508809D01*
X91511904Y-68413571D01*
X91369047Y-69556428D02*
X91416666Y-69461190D01*
X91464285Y-69413571D01*
X91559523Y-69365952D01*
X91607142Y-69365952D01*
X91702380Y-69413571D01*
X91750000Y-69461190D01*
X91797619Y-69556428D01*
X91797619Y-69746904D01*
X91750000Y-69842142D01*
X91702380Y-69889761D01*
X91607142Y-69937380D01*
X91559523Y-69937380D01*
X91464285Y-69889761D01*
X91416666Y-69842142D01*
X91369047Y-69746904D01*
X91369047Y-69556428D01*
X91321428Y-69461190D01*
X91273809Y-69413571D01*
X91178571Y-69365952D01*
X90988095Y-69365952D01*
X90892857Y-69413571D01*
X90845238Y-69461190D01*
X90797619Y-69556428D01*
X90797619Y-69746904D01*
X90845238Y-69842142D01*
X90892857Y-69889761D01*
X90988095Y-69937380D01*
X91178571Y-69937380D01*
X91273809Y-69889761D01*
X91321428Y-69842142D01*
X91369047Y-69746904D01*
X90702380Y-70127857D02*
X90702380Y-70889761D01*
X91797619Y-71318333D02*
X91797619Y-71508809D01*
X91750000Y-71604047D01*
X91654761Y-71699285D01*
X91464285Y-71746904D01*
X91130952Y-71746904D01*
X90940476Y-71699285D01*
X90845238Y-71604047D01*
X90797619Y-71508809D01*
X90797619Y-71318333D01*
X90845238Y-71223095D01*
X90940476Y-71127857D01*
X91130952Y-71080238D01*
X91464285Y-71080238D01*
X91654761Y-71127857D01*
X91750000Y-71223095D01*
X91797619Y-71318333D01*
X90797619Y-72604047D02*
X91797619Y-72604047D01*
X90845238Y-72604047D02*
X90797619Y-72508809D01*
X90797619Y-72318333D01*
X90845238Y-72223095D01*
X90892857Y-72175476D01*
X90988095Y-72127857D01*
X91273809Y-72127857D01*
X91369047Y-72175476D01*
X91416666Y-72223095D01*
X91464285Y-72318333D01*
X91464285Y-72508809D01*
X91416666Y-72604047D01*
X90797619Y-73508809D02*
X91797619Y-73508809D01*
X90845238Y-73508809D02*
X90797619Y-73413571D01*
X90797619Y-73223095D01*
X90845238Y-73127857D01*
X90892857Y-73080238D01*
X90988095Y-73032619D01*
X91273809Y-73032619D01*
X91369047Y-73080238D01*
X91416666Y-73127857D01*
X91464285Y-73223095D01*
X91464285Y-73413571D01*
X91416666Y-73508809D01*
X90702380Y-73746904D02*
X90702380Y-74508809D01*
X91321428Y-74746904D02*
X91321428Y-75080238D01*
X90797619Y-75223095D02*
X90797619Y-74746904D01*
X91797619Y-74746904D01*
X91797619Y-75223095D01*
X91464285Y-75556428D02*
X90797619Y-75794523D01*
X91464285Y-76032619D01*
X90845238Y-76794523D02*
X90797619Y-76699285D01*
X90797619Y-76508809D01*
X90845238Y-76413571D01*
X90940476Y-76365952D01*
X91321428Y-76365952D01*
X91416666Y-76413571D01*
X91464285Y-76508809D01*
X91464285Y-76699285D01*
X91416666Y-76794523D01*
X91321428Y-76842142D01*
X91226190Y-76842142D01*
X91130952Y-76365952D01*
X91464285Y-77270714D02*
X90797619Y-77270714D01*
X91369047Y-77270714D02*
X91416666Y-77318333D01*
X91464285Y-77413571D01*
X91464285Y-77556428D01*
X91416666Y-77651666D01*
X91321428Y-77699285D01*
X90797619Y-77699285D01*
M02*
