G04 #@! TF.GenerationSoftware,KiCad,Pcbnew,(5.1.9)-1*
G04 #@! TF.CreationDate,2021-06-11T11:43:51+01:00*
G04 #@! TF.ProjectId,EnvOpenPico,456e764f-7065-46e5-9069-636f2e6b6963,REV1*
G04 #@! TF.SameCoordinates,Original*
G04 #@! TF.FileFunction,Paste,Top*
G04 #@! TF.FilePolarity,Positive*
%FSLAX46Y46*%
G04 Gerber Fmt 4.6, Leading zero omitted, Abs format (unit mm)*
G04 Created by KiCad (PCBNEW (5.1.9)-1) date 2021-06-11 11:43:51*
%MOMM*%
%LPD*%
G01*
G04 APERTURE LIST*
%ADD10C,0.010000*%
%ADD11R,0.810000X0.270000*%
%ADD12R,0.600000X1.450000*%
%ADD13R,0.300000X1.450000*%
%ADD14R,1.700000X0.900000*%
%ADD15R,1.400000X1.150000*%
G04 APERTURE END LIST*
D10*
G36*
X107881160Y-71155000D02*
G01*
X107120000Y-71155000D01*
X107120000Y-69893075D01*
X107881160Y-69893075D01*
X107881160Y-71155000D01*
G37*
X107881160Y-71155000D02*
X107120000Y-71155000D01*
X107120000Y-69893075D01*
X107881160Y-69893075D01*
X107881160Y-71155000D01*
G36*
G01*
X105180000Y-80000000D02*
X105520000Y-80000000D01*
G75*
G02*
X105660000Y-80140000I0J-140000D01*
G01*
X105660000Y-80420000D01*
G75*
G02*
X105520000Y-80560000I-140000J0D01*
G01*
X105180000Y-80560000D01*
G75*
G02*
X105040000Y-80420000I0J140000D01*
G01*
X105040000Y-80140000D01*
G75*
G02*
X105180000Y-80000000I140000J0D01*
G01*
G37*
G36*
G01*
X105180000Y-79040000D02*
X105520000Y-79040000D01*
G75*
G02*
X105660000Y-79180000I0J-140000D01*
G01*
X105660000Y-79460000D01*
G75*
G02*
X105520000Y-79600000I-140000J0D01*
G01*
X105180000Y-79600000D01*
G75*
G02*
X105040000Y-79460000I0J140000D01*
G01*
X105040000Y-79180000D01*
G75*
G02*
X105180000Y-79040000I140000J0D01*
G01*
G37*
D11*
X108705000Y-71525000D03*
X108705000Y-71025000D03*
X108705000Y-70525000D03*
X108705000Y-70025000D03*
X108705000Y-69525000D03*
X106295000Y-69525000D03*
X106295000Y-70025000D03*
X106295000Y-70525000D03*
X106295000Y-71025000D03*
X106295000Y-71525000D03*
G36*
G01*
X109080000Y-68280000D02*
X109080000Y-68650000D01*
G75*
G02*
X108945000Y-68785000I-135000J0D01*
G01*
X108675000Y-68785000D01*
G75*
G02*
X108540000Y-68650000I0J135000D01*
G01*
X108540000Y-68280000D01*
G75*
G02*
X108675000Y-68145000I135000J0D01*
G01*
X108945000Y-68145000D01*
G75*
G02*
X109080000Y-68280000I0J-135000D01*
G01*
G37*
G36*
G01*
X108060000Y-68280000D02*
X108060000Y-68650000D01*
G75*
G02*
X107925000Y-68785000I-135000J0D01*
G01*
X107655000Y-68785000D01*
G75*
G02*
X107520000Y-68650000I0J135000D01*
G01*
X107520000Y-68280000D01*
G75*
G02*
X107655000Y-68145000I135000J0D01*
G01*
X107925000Y-68145000D01*
G75*
G02*
X108060000Y-68280000I0J-135000D01*
G01*
G37*
G36*
G01*
X110706250Y-72050000D02*
X109943750Y-72050000D01*
G75*
G02*
X109725000Y-71831250I0J218750D01*
G01*
X109725000Y-71393750D01*
G75*
G02*
X109943750Y-71175000I218750J0D01*
G01*
X110706250Y-71175000D01*
G75*
G02*
X110925000Y-71393750I0J-218750D01*
G01*
X110925000Y-71831250D01*
G75*
G02*
X110706250Y-72050000I-218750J0D01*
G01*
G37*
G36*
G01*
X110706250Y-69925000D02*
X109943750Y-69925000D01*
G75*
G02*
X109725000Y-69706250I0J218750D01*
G01*
X109725000Y-69268750D01*
G75*
G02*
X109943750Y-69050000I218750J0D01*
G01*
X110706250Y-69050000D01*
G75*
G02*
X110925000Y-69268750I0J-218750D01*
G01*
X110925000Y-69706250D01*
G75*
G02*
X110706250Y-69925000I-218750J0D01*
G01*
G37*
G36*
G01*
X103580000Y-80565000D02*
X103240000Y-80565000D01*
G75*
G02*
X103100000Y-80425000I0J140000D01*
G01*
X103100000Y-80145000D01*
G75*
G02*
X103240000Y-80005000I140000J0D01*
G01*
X103580000Y-80005000D01*
G75*
G02*
X103720000Y-80145000I0J-140000D01*
G01*
X103720000Y-80425000D01*
G75*
G02*
X103580000Y-80565000I-140000J0D01*
G01*
G37*
G36*
G01*
X103580000Y-79605000D02*
X103240000Y-79605000D01*
G75*
G02*
X103100000Y-79465000I0J140000D01*
G01*
X103100000Y-79185000D01*
G75*
G02*
X103240000Y-79045000I140000J0D01*
G01*
X103580000Y-79045000D01*
G75*
G02*
X103720000Y-79185000I0J-140000D01*
G01*
X103720000Y-79465000D01*
G75*
G02*
X103580000Y-79605000I-140000J0D01*
G01*
G37*
G36*
G01*
X99830000Y-73895000D02*
X99830000Y-74235000D01*
G75*
G02*
X99690000Y-74375000I-140000J0D01*
G01*
X99410000Y-74375000D01*
G75*
G02*
X99270000Y-74235000I0J140000D01*
G01*
X99270000Y-73895000D01*
G75*
G02*
X99410000Y-73755000I140000J0D01*
G01*
X99690000Y-73755000D01*
G75*
G02*
X99830000Y-73895000I0J-140000D01*
G01*
G37*
G36*
G01*
X98870000Y-73895000D02*
X98870000Y-74235000D01*
G75*
G02*
X98730000Y-74375000I-140000J0D01*
G01*
X98450000Y-74375000D01*
G75*
G02*
X98310000Y-74235000I0J140000D01*
G01*
X98310000Y-73895000D01*
G75*
G02*
X98450000Y-73755000I140000J0D01*
G01*
X98730000Y-73755000D01*
G75*
G02*
X98870000Y-73895000I0J-140000D01*
G01*
G37*
G36*
G01*
X107560000Y-73865000D02*
X107560000Y-74205000D01*
G75*
G02*
X107420000Y-74345000I-140000J0D01*
G01*
X107140000Y-74345000D01*
G75*
G02*
X107000000Y-74205000I0J140000D01*
G01*
X107000000Y-73865000D01*
G75*
G02*
X107140000Y-73725000I140000J0D01*
G01*
X107420000Y-73725000D01*
G75*
G02*
X107560000Y-73865000I0J-140000D01*
G01*
G37*
G36*
G01*
X106600000Y-73865000D02*
X106600000Y-74205000D01*
G75*
G02*
X106460000Y-74345000I-140000J0D01*
G01*
X106180000Y-74345000D01*
G75*
G02*
X106040000Y-74205000I0J140000D01*
G01*
X106040000Y-73865000D01*
G75*
G02*
X106180000Y-73725000I140000J0D01*
G01*
X106460000Y-73725000D01*
G75*
G02*
X106600000Y-73865000I0J-140000D01*
G01*
G37*
G36*
G01*
X102600000Y-79600000D02*
X102260000Y-79600000D01*
G75*
G02*
X102120000Y-79460000I0J140000D01*
G01*
X102120000Y-79180000D01*
G75*
G02*
X102260000Y-79040000I140000J0D01*
G01*
X102600000Y-79040000D01*
G75*
G02*
X102740000Y-79180000I0J-140000D01*
G01*
X102740000Y-79460000D01*
G75*
G02*
X102600000Y-79600000I-140000J0D01*
G01*
G37*
G36*
G01*
X102600000Y-80560000D02*
X102260000Y-80560000D01*
G75*
G02*
X102120000Y-80420000I0J140000D01*
G01*
X102120000Y-80140000D01*
G75*
G02*
X102260000Y-80000000I140000J0D01*
G01*
X102600000Y-80000000D01*
G75*
G02*
X102740000Y-80140000I0J-140000D01*
G01*
X102740000Y-80420000D01*
G75*
G02*
X102600000Y-80560000I-140000J0D01*
G01*
G37*
G36*
G01*
X107420000Y-79595000D02*
X107080000Y-79595000D01*
G75*
G02*
X106940000Y-79455000I0J140000D01*
G01*
X106940000Y-79175000D01*
G75*
G02*
X107080000Y-79035000I140000J0D01*
G01*
X107420000Y-79035000D01*
G75*
G02*
X107560000Y-79175000I0J-140000D01*
G01*
X107560000Y-79455000D01*
G75*
G02*
X107420000Y-79595000I-140000J0D01*
G01*
G37*
G36*
G01*
X107420000Y-80555000D02*
X107080000Y-80555000D01*
G75*
G02*
X106940000Y-80415000I0J140000D01*
G01*
X106940000Y-80135000D01*
G75*
G02*
X107080000Y-79995000I140000J0D01*
G01*
X107420000Y-79995000D01*
G75*
G02*
X107560000Y-80135000I0J-140000D01*
G01*
X107560000Y-80415000D01*
G75*
G02*
X107420000Y-80555000I-140000J0D01*
G01*
G37*
G36*
G01*
X109856250Y-62635000D02*
X109343750Y-62635000D01*
G75*
G02*
X109125000Y-62416250I0J218750D01*
G01*
X109125000Y-61978750D01*
G75*
G02*
X109343750Y-61760000I218750J0D01*
G01*
X109856250Y-61760000D01*
G75*
G02*
X110075000Y-61978750I0J-218750D01*
G01*
X110075000Y-62416250D01*
G75*
G02*
X109856250Y-62635000I-218750J0D01*
G01*
G37*
G36*
G01*
X109856250Y-64210000D02*
X109343750Y-64210000D01*
G75*
G02*
X109125000Y-63991250I0J218750D01*
G01*
X109125000Y-63553750D01*
G75*
G02*
X109343750Y-63335000I218750J0D01*
G01*
X109856250Y-63335000D01*
G75*
G02*
X110075000Y-63553750I0J-218750D01*
G01*
X110075000Y-63991250D01*
G75*
G02*
X109856250Y-64210000I-218750J0D01*
G01*
G37*
G36*
G01*
X98387500Y-76200000D02*
X98212500Y-76200000D01*
G75*
G02*
X98125000Y-76112500I0J87500D01*
G01*
X98125000Y-75762500D01*
G75*
G02*
X98212500Y-75675000I87500J0D01*
G01*
X98387500Y-75675000D01*
G75*
G02*
X98475000Y-75762500I0J-87500D01*
G01*
X98475000Y-76112500D01*
G75*
G02*
X98387500Y-76200000I-87500J0D01*
G01*
G37*
G36*
G01*
X98887500Y-76200000D02*
X98712500Y-76200000D01*
G75*
G02*
X98625000Y-76112500I0J87500D01*
G01*
X98625000Y-75762500D01*
G75*
G02*
X98712500Y-75675000I87500J0D01*
G01*
X98887500Y-75675000D01*
G75*
G02*
X98975000Y-75762500I0J-87500D01*
G01*
X98975000Y-76112500D01*
G75*
G02*
X98887500Y-76200000I-87500J0D01*
G01*
G37*
G36*
G01*
X99387500Y-76200000D02*
X99212500Y-76200000D01*
G75*
G02*
X99125000Y-76112500I0J87500D01*
G01*
X99125000Y-75762500D01*
G75*
G02*
X99212500Y-75675000I87500J0D01*
G01*
X99387500Y-75675000D01*
G75*
G02*
X99475000Y-75762500I0J-87500D01*
G01*
X99475000Y-76112500D01*
G75*
G02*
X99387500Y-76200000I-87500J0D01*
G01*
G37*
G36*
G01*
X99887500Y-76200000D02*
X99712500Y-76200000D01*
G75*
G02*
X99625000Y-76112500I0J87500D01*
G01*
X99625000Y-75762500D01*
G75*
G02*
X99712500Y-75675000I87500J0D01*
G01*
X99887500Y-75675000D01*
G75*
G02*
X99975000Y-75762500I0J-87500D01*
G01*
X99975000Y-76112500D01*
G75*
G02*
X99887500Y-76200000I-87500J0D01*
G01*
G37*
G36*
G01*
X99887500Y-78775000D02*
X99712500Y-78775000D01*
G75*
G02*
X99625000Y-78687500I0J87500D01*
G01*
X99625000Y-78337500D01*
G75*
G02*
X99712500Y-78250000I87500J0D01*
G01*
X99887500Y-78250000D01*
G75*
G02*
X99975000Y-78337500I0J-87500D01*
G01*
X99975000Y-78687500D01*
G75*
G02*
X99887500Y-78775000I-87500J0D01*
G01*
G37*
G36*
G01*
X99387500Y-78775000D02*
X99212500Y-78775000D01*
G75*
G02*
X99125000Y-78687500I0J87500D01*
G01*
X99125000Y-78337500D01*
G75*
G02*
X99212500Y-78250000I87500J0D01*
G01*
X99387500Y-78250000D01*
G75*
G02*
X99475000Y-78337500I0J-87500D01*
G01*
X99475000Y-78687500D01*
G75*
G02*
X99387500Y-78775000I-87500J0D01*
G01*
G37*
G36*
G01*
X98887500Y-78775000D02*
X98712500Y-78775000D01*
G75*
G02*
X98625000Y-78687500I0J87500D01*
G01*
X98625000Y-78337500D01*
G75*
G02*
X98712500Y-78250000I87500J0D01*
G01*
X98887500Y-78250000D01*
G75*
G02*
X98975000Y-78337500I0J-87500D01*
G01*
X98975000Y-78687500D01*
G75*
G02*
X98887500Y-78775000I-87500J0D01*
G01*
G37*
G36*
G01*
X98387500Y-78775000D02*
X98212500Y-78775000D01*
G75*
G02*
X98125000Y-78687500I0J87500D01*
G01*
X98125000Y-78337500D01*
G75*
G02*
X98212500Y-78250000I87500J0D01*
G01*
X98387500Y-78250000D01*
G75*
G02*
X98475000Y-78337500I0J-87500D01*
G01*
X98475000Y-78687500D01*
G75*
G02*
X98387500Y-78775000I-87500J0D01*
G01*
G37*
D12*
X100375000Y-64620000D03*
X106825000Y-64620000D03*
X101150000Y-64620000D03*
X106050000Y-64620000D03*
D13*
X105350000Y-64620000D03*
X101850000Y-64620000D03*
X104850000Y-64620000D03*
X102350000Y-64620000D03*
X104350000Y-64620000D03*
X102850000Y-64620000D03*
X103350000Y-64620000D03*
X103850000Y-64620000D03*
G36*
G01*
X101720000Y-68390000D02*
X101720000Y-68020000D01*
G75*
G02*
X101855000Y-67885000I135000J0D01*
G01*
X102125000Y-67885000D01*
G75*
G02*
X102260000Y-68020000I0J-135000D01*
G01*
X102260000Y-68390000D01*
G75*
G02*
X102125000Y-68525000I-135000J0D01*
G01*
X101855000Y-68525000D01*
G75*
G02*
X101720000Y-68390000I0J135000D01*
G01*
G37*
G36*
G01*
X100700000Y-68390000D02*
X100700000Y-68020000D01*
G75*
G02*
X100835000Y-67885000I135000J0D01*
G01*
X101105000Y-67885000D01*
G75*
G02*
X101240000Y-68020000I0J-135000D01*
G01*
X101240000Y-68390000D01*
G75*
G02*
X101105000Y-68525000I-135000J0D01*
G01*
X100835000Y-68525000D01*
G75*
G02*
X100700000Y-68390000I0J135000D01*
G01*
G37*
G36*
G01*
X101720000Y-67350000D02*
X101720000Y-66980000D01*
G75*
G02*
X101855000Y-66845000I135000J0D01*
G01*
X102125000Y-66845000D01*
G75*
G02*
X102260000Y-66980000I0J-135000D01*
G01*
X102260000Y-67350000D01*
G75*
G02*
X102125000Y-67485000I-135000J0D01*
G01*
X101855000Y-67485000D01*
G75*
G02*
X101720000Y-67350000I0J135000D01*
G01*
G37*
G36*
G01*
X100700000Y-67350000D02*
X100700000Y-66980000D01*
G75*
G02*
X100835000Y-66845000I135000J0D01*
G01*
X101105000Y-66845000D01*
G75*
G02*
X101240000Y-66980000I0J-135000D01*
G01*
X101240000Y-67350000D01*
G75*
G02*
X101105000Y-67485000I-135000J0D01*
G01*
X100835000Y-67485000D01*
G75*
G02*
X100700000Y-67350000I0J135000D01*
G01*
G37*
D14*
X98830000Y-66590000D03*
X98830000Y-69990000D03*
G36*
G01*
X98975000Y-72030000D02*
X98975000Y-72370000D01*
G75*
G02*
X98835000Y-72510000I-140000J0D01*
G01*
X98555000Y-72510000D01*
G75*
G02*
X98415000Y-72370000I0J140000D01*
G01*
X98415000Y-72030000D01*
G75*
G02*
X98555000Y-71890000I140000J0D01*
G01*
X98835000Y-71890000D01*
G75*
G02*
X98975000Y-72030000I0J-140000D01*
G01*
G37*
G36*
G01*
X99935000Y-72030000D02*
X99935000Y-72370000D01*
G75*
G02*
X99795000Y-72510000I-140000J0D01*
G01*
X99515000Y-72510000D01*
G75*
G02*
X99375000Y-72370000I0J140000D01*
G01*
X99375000Y-72030000D01*
G75*
G02*
X99515000Y-71890000I140000J0D01*
G01*
X99795000Y-71890000D01*
G75*
G02*
X99935000Y-72030000I0J-140000D01*
G01*
G37*
D15*
X98425000Y-95350000D03*
X100625000Y-95350000D03*
X100625000Y-96950000D03*
X98425000Y-96950000D03*
G36*
G01*
X97690000Y-87415000D02*
X97690000Y-87755000D01*
G75*
G02*
X97550000Y-87895000I-140000J0D01*
G01*
X97270000Y-87895000D01*
G75*
G02*
X97130000Y-87755000I0J140000D01*
G01*
X97130000Y-87415000D01*
G75*
G02*
X97270000Y-87275000I140000J0D01*
G01*
X97550000Y-87275000D01*
G75*
G02*
X97690000Y-87415000I0J-140000D01*
G01*
G37*
G36*
G01*
X98650000Y-87415000D02*
X98650000Y-87755000D01*
G75*
G02*
X98510000Y-87895000I-140000J0D01*
G01*
X98230000Y-87895000D01*
G75*
G02*
X98090000Y-87755000I0J140000D01*
G01*
X98090000Y-87415000D01*
G75*
G02*
X98230000Y-87275000I140000J0D01*
G01*
X98510000Y-87275000D01*
G75*
G02*
X98650000Y-87415000I0J-140000D01*
G01*
G37*
G36*
G01*
X98950000Y-94070000D02*
X98950000Y-93730000D01*
G75*
G02*
X99090000Y-93590000I140000J0D01*
G01*
X99370000Y-93590000D01*
G75*
G02*
X99510000Y-93730000I0J-140000D01*
G01*
X99510000Y-94070000D01*
G75*
G02*
X99370000Y-94210000I-140000J0D01*
G01*
X99090000Y-94210000D01*
G75*
G02*
X98950000Y-94070000I0J140000D01*
G01*
G37*
G36*
G01*
X97990000Y-94070000D02*
X97990000Y-93730000D01*
G75*
G02*
X98130000Y-93590000I140000J0D01*
G01*
X98410000Y-93590000D01*
G75*
G02*
X98550000Y-93730000I0J-140000D01*
G01*
X98550000Y-94070000D01*
G75*
G02*
X98410000Y-94210000I-140000J0D01*
G01*
X98130000Y-94210000D01*
G75*
G02*
X97990000Y-94070000I0J140000D01*
G01*
G37*
G36*
G01*
X108403000Y-79597000D02*
X108063000Y-79597000D01*
G75*
G02*
X107923000Y-79457000I0J140000D01*
G01*
X107923000Y-79177000D01*
G75*
G02*
X108063000Y-79037000I140000J0D01*
G01*
X108403000Y-79037000D01*
G75*
G02*
X108543000Y-79177000I0J-140000D01*
G01*
X108543000Y-79457000D01*
G75*
G02*
X108403000Y-79597000I-140000J0D01*
G01*
G37*
G36*
G01*
X108403000Y-80557000D02*
X108063000Y-80557000D01*
G75*
G02*
X107923000Y-80417000I0J140000D01*
G01*
X107923000Y-80137000D01*
G75*
G02*
X108063000Y-79997000I140000J0D01*
G01*
X108403000Y-79997000D01*
G75*
G02*
X108543000Y-80137000I0J-140000D01*
G01*
X108543000Y-80417000D01*
G75*
G02*
X108403000Y-80557000I-140000J0D01*
G01*
G37*
G36*
G01*
X103580000Y-92375000D02*
X103920000Y-92375000D01*
G75*
G02*
X104060000Y-92515000I0J-140000D01*
G01*
X104060000Y-92795000D01*
G75*
G02*
X103920000Y-92935000I-140000J0D01*
G01*
X103580000Y-92935000D01*
G75*
G02*
X103440000Y-92795000I0J140000D01*
G01*
X103440000Y-92515000D01*
G75*
G02*
X103580000Y-92375000I140000J0D01*
G01*
G37*
G36*
G01*
X103580000Y-91415000D02*
X103920000Y-91415000D01*
G75*
G02*
X104060000Y-91555000I0J-140000D01*
G01*
X104060000Y-91835000D01*
G75*
G02*
X103920000Y-91975000I-140000J0D01*
G01*
X103580000Y-91975000D01*
G75*
G02*
X103440000Y-91835000I0J140000D01*
G01*
X103440000Y-91555000D01*
G75*
G02*
X103580000Y-91415000I140000J0D01*
G01*
G37*
G36*
G01*
X109000000Y-87195000D02*
X109000000Y-86855000D01*
G75*
G02*
X109140000Y-86715000I140000J0D01*
G01*
X109420000Y-86715000D01*
G75*
G02*
X109560000Y-86855000I0J-140000D01*
G01*
X109560000Y-87195000D01*
G75*
G02*
X109420000Y-87335000I-140000J0D01*
G01*
X109140000Y-87335000D01*
G75*
G02*
X109000000Y-87195000I0J140000D01*
G01*
G37*
G36*
G01*
X108040000Y-87195000D02*
X108040000Y-86855000D01*
G75*
G02*
X108180000Y-86715000I140000J0D01*
G01*
X108460000Y-86715000D01*
G75*
G02*
X108600000Y-86855000I0J-140000D01*
G01*
X108600000Y-87195000D01*
G75*
G02*
X108460000Y-87335000I-140000J0D01*
G01*
X108180000Y-87335000D01*
G75*
G02*
X108040000Y-87195000I0J140000D01*
G01*
G37*
G36*
G01*
X104230000Y-80000000D02*
X104570000Y-80000000D01*
G75*
G02*
X104710000Y-80140000I0J-140000D01*
G01*
X104710000Y-80420000D01*
G75*
G02*
X104570000Y-80560000I-140000J0D01*
G01*
X104230000Y-80560000D01*
G75*
G02*
X104090000Y-80420000I0J140000D01*
G01*
X104090000Y-80140000D01*
G75*
G02*
X104230000Y-80000000I140000J0D01*
G01*
G37*
G36*
G01*
X104230000Y-79040000D02*
X104570000Y-79040000D01*
G75*
G02*
X104710000Y-79180000I0J-140000D01*
G01*
X104710000Y-79460000D01*
G75*
G02*
X104570000Y-79600000I-140000J0D01*
G01*
X104230000Y-79600000D01*
G75*
G02*
X104090000Y-79460000I0J140000D01*
G01*
X104090000Y-79180000D01*
G75*
G02*
X104230000Y-79040000I140000J0D01*
G01*
G37*
G36*
G01*
X97920000Y-71060000D02*
X97920000Y-71400000D01*
G75*
G02*
X97780000Y-71540000I-140000J0D01*
G01*
X97500000Y-71540000D01*
G75*
G02*
X97360000Y-71400000I0J140000D01*
G01*
X97360000Y-71060000D01*
G75*
G02*
X97500000Y-70920000I140000J0D01*
G01*
X97780000Y-70920000D01*
G75*
G02*
X97920000Y-71060000I0J-140000D01*
G01*
G37*
G36*
G01*
X98880000Y-71060000D02*
X98880000Y-71400000D01*
G75*
G02*
X98740000Y-71540000I-140000J0D01*
G01*
X98460000Y-71540000D01*
G75*
G02*
X98320000Y-71400000I0J140000D01*
G01*
X98320000Y-71060000D01*
G75*
G02*
X98460000Y-70920000I140000J0D01*
G01*
X98740000Y-70920000D01*
G75*
G02*
X98880000Y-71060000I0J-140000D01*
G01*
G37*
G36*
G01*
X98400000Y-82480000D02*
X98400000Y-82820000D01*
G75*
G02*
X98260000Y-82960000I-140000J0D01*
G01*
X97980000Y-82960000D01*
G75*
G02*
X97840000Y-82820000I0J140000D01*
G01*
X97840000Y-82480000D01*
G75*
G02*
X97980000Y-82340000I140000J0D01*
G01*
X98260000Y-82340000D01*
G75*
G02*
X98400000Y-82480000I0J-140000D01*
G01*
G37*
G36*
G01*
X99360000Y-82480000D02*
X99360000Y-82820000D01*
G75*
G02*
X99220000Y-82960000I-140000J0D01*
G01*
X98940000Y-82960000D01*
G75*
G02*
X98800000Y-82820000I0J140000D01*
G01*
X98800000Y-82480000D01*
G75*
G02*
X98940000Y-82340000I140000J0D01*
G01*
X99220000Y-82340000D01*
G75*
G02*
X99360000Y-82480000I0J-140000D01*
G01*
G37*
G36*
G01*
X104830000Y-92375000D02*
X105170000Y-92375000D01*
G75*
G02*
X105310000Y-92515000I0J-140000D01*
G01*
X105310000Y-92795000D01*
G75*
G02*
X105170000Y-92935000I-140000J0D01*
G01*
X104830000Y-92935000D01*
G75*
G02*
X104690000Y-92795000I0J140000D01*
G01*
X104690000Y-92515000D01*
G75*
G02*
X104830000Y-92375000I140000J0D01*
G01*
G37*
G36*
G01*
X104830000Y-91415000D02*
X105170000Y-91415000D01*
G75*
G02*
X105310000Y-91555000I0J-140000D01*
G01*
X105310000Y-91835000D01*
G75*
G02*
X105170000Y-91975000I-140000J0D01*
G01*
X104830000Y-91975000D01*
G75*
G02*
X104690000Y-91835000I0J140000D01*
G01*
X104690000Y-91555000D01*
G75*
G02*
X104830000Y-91415000I140000J0D01*
G01*
G37*
G36*
G01*
X100700000Y-93730000D02*
X100700000Y-94070000D01*
G75*
G02*
X100560000Y-94210000I-140000J0D01*
G01*
X100280000Y-94210000D01*
G75*
G02*
X100140000Y-94070000I0J140000D01*
G01*
X100140000Y-93730000D01*
G75*
G02*
X100280000Y-93590000I140000J0D01*
G01*
X100560000Y-93590000D01*
G75*
G02*
X100700000Y-93730000I0J-140000D01*
G01*
G37*
G36*
G01*
X101660000Y-93730000D02*
X101660000Y-94070000D01*
G75*
G02*
X101520000Y-94210000I-140000J0D01*
G01*
X101240000Y-94210000D01*
G75*
G02*
X101100000Y-94070000I0J140000D01*
G01*
X101100000Y-93730000D01*
G75*
G02*
X101240000Y-93590000I140000J0D01*
G01*
X101520000Y-93590000D01*
G75*
G02*
X101660000Y-93730000I0J-140000D01*
G01*
G37*
G36*
G01*
X110370000Y-65245000D02*
X110030000Y-65245000D01*
G75*
G02*
X109890000Y-65105000I0J140000D01*
G01*
X109890000Y-64825000D01*
G75*
G02*
X110030000Y-64685000I140000J0D01*
G01*
X110370000Y-64685000D01*
G75*
G02*
X110510000Y-64825000I0J-140000D01*
G01*
X110510000Y-65105000D01*
G75*
G02*
X110370000Y-65245000I-140000J0D01*
G01*
G37*
G36*
G01*
X110370000Y-66205000D02*
X110030000Y-66205000D01*
G75*
G02*
X109890000Y-66065000I0J140000D01*
G01*
X109890000Y-65785000D01*
G75*
G02*
X110030000Y-65645000I140000J0D01*
G01*
X110370000Y-65645000D01*
G75*
G02*
X110510000Y-65785000I0J-140000D01*
G01*
X110510000Y-66065000D01*
G75*
G02*
X110370000Y-66205000I-140000J0D01*
G01*
G37*
G36*
G01*
X108960000Y-85240000D02*
X108960000Y-85610000D01*
G75*
G02*
X108825000Y-85745000I-135000J0D01*
G01*
X108555000Y-85745000D01*
G75*
G02*
X108420000Y-85610000I0J135000D01*
G01*
X108420000Y-85240000D01*
G75*
G02*
X108555000Y-85105000I135000J0D01*
G01*
X108825000Y-85105000D01*
G75*
G02*
X108960000Y-85240000I0J-135000D01*
G01*
G37*
G36*
G01*
X109980000Y-85240000D02*
X109980000Y-85610000D01*
G75*
G02*
X109845000Y-85745000I-135000J0D01*
G01*
X109575000Y-85745000D01*
G75*
G02*
X109440000Y-85610000I0J135000D01*
G01*
X109440000Y-85240000D01*
G75*
G02*
X109575000Y-85105000I135000J0D01*
G01*
X109845000Y-85105000D01*
G75*
G02*
X109980000Y-85240000I0J-135000D01*
G01*
G37*
G36*
G01*
X97727500Y-63240000D02*
X98072500Y-63240000D01*
G75*
G02*
X98220000Y-63387500I0J-147500D01*
G01*
X98220000Y-63682500D01*
G75*
G02*
X98072500Y-63830000I-147500J0D01*
G01*
X97727500Y-63830000D01*
G75*
G02*
X97580000Y-63682500I0J147500D01*
G01*
X97580000Y-63387500D01*
G75*
G02*
X97727500Y-63240000I147500J0D01*
G01*
G37*
G36*
G01*
X97727500Y-62270000D02*
X98072500Y-62270000D01*
G75*
G02*
X98220000Y-62417500I0J-147500D01*
G01*
X98220000Y-62712500D01*
G75*
G02*
X98072500Y-62860000I-147500J0D01*
G01*
X97727500Y-62860000D01*
G75*
G02*
X97580000Y-62712500I0J147500D01*
G01*
X97580000Y-62417500D01*
G75*
G02*
X97727500Y-62270000I147500J0D01*
G01*
G37*
G36*
G01*
X100990000Y-82975000D02*
X100990000Y-82200000D01*
G75*
G02*
X101040000Y-82150000I50000J0D01*
G01*
X101140000Y-82150000D01*
G75*
G02*
X101190000Y-82200000I0J-50000D01*
G01*
X101190000Y-82975000D01*
G75*
G02*
X101140000Y-83025000I-50000J0D01*
G01*
X101040000Y-83025000D01*
G75*
G02*
X100990000Y-82975000I0J50000D01*
G01*
G37*
G36*
G01*
X101390000Y-82975000D02*
X101390000Y-82200000D01*
G75*
G02*
X101440000Y-82150000I50000J0D01*
G01*
X101540000Y-82150000D01*
G75*
G02*
X101590000Y-82200000I0J-50000D01*
G01*
X101590000Y-82975000D01*
G75*
G02*
X101540000Y-83025000I-50000J0D01*
G01*
X101440000Y-83025000D01*
G75*
G02*
X101390000Y-82975000I0J50000D01*
G01*
G37*
G36*
G01*
X101790000Y-82975000D02*
X101790000Y-82200000D01*
G75*
G02*
X101840000Y-82150000I50000J0D01*
G01*
X101940000Y-82150000D01*
G75*
G02*
X101990000Y-82200000I0J-50000D01*
G01*
X101990000Y-82975000D01*
G75*
G02*
X101940000Y-83025000I-50000J0D01*
G01*
X101840000Y-83025000D01*
G75*
G02*
X101790000Y-82975000I0J50000D01*
G01*
G37*
G36*
G01*
X102190000Y-82975000D02*
X102190000Y-82200000D01*
G75*
G02*
X102240000Y-82150000I50000J0D01*
G01*
X102340000Y-82150000D01*
G75*
G02*
X102390000Y-82200000I0J-50000D01*
G01*
X102390000Y-82975000D01*
G75*
G02*
X102340000Y-83025000I-50000J0D01*
G01*
X102240000Y-83025000D01*
G75*
G02*
X102190000Y-82975000I0J50000D01*
G01*
G37*
G36*
G01*
X102590000Y-82975000D02*
X102590000Y-82200000D01*
G75*
G02*
X102640000Y-82150000I50000J0D01*
G01*
X102740000Y-82150000D01*
G75*
G02*
X102790000Y-82200000I0J-50000D01*
G01*
X102790000Y-82975000D01*
G75*
G02*
X102740000Y-83025000I-50000J0D01*
G01*
X102640000Y-83025000D01*
G75*
G02*
X102590000Y-82975000I0J50000D01*
G01*
G37*
G36*
G01*
X102990000Y-82975000D02*
X102990000Y-82200000D01*
G75*
G02*
X103040000Y-82150000I50000J0D01*
G01*
X103140000Y-82150000D01*
G75*
G02*
X103190000Y-82200000I0J-50000D01*
G01*
X103190000Y-82975000D01*
G75*
G02*
X103140000Y-83025000I-50000J0D01*
G01*
X103040000Y-83025000D01*
G75*
G02*
X102990000Y-82975000I0J50000D01*
G01*
G37*
G36*
G01*
X103390000Y-82975000D02*
X103390000Y-82200000D01*
G75*
G02*
X103440000Y-82150000I50000J0D01*
G01*
X103540000Y-82150000D01*
G75*
G02*
X103590000Y-82200000I0J-50000D01*
G01*
X103590000Y-82975000D01*
G75*
G02*
X103540000Y-83025000I-50000J0D01*
G01*
X103440000Y-83025000D01*
G75*
G02*
X103390000Y-82975000I0J50000D01*
G01*
G37*
G36*
G01*
X103790000Y-82975000D02*
X103790000Y-82200000D01*
G75*
G02*
X103840000Y-82150000I50000J0D01*
G01*
X103940000Y-82150000D01*
G75*
G02*
X103990000Y-82200000I0J-50000D01*
G01*
X103990000Y-82975000D01*
G75*
G02*
X103940000Y-83025000I-50000J0D01*
G01*
X103840000Y-83025000D01*
G75*
G02*
X103790000Y-82975000I0J50000D01*
G01*
G37*
G36*
G01*
X104190000Y-82975000D02*
X104190000Y-82200000D01*
G75*
G02*
X104240000Y-82150000I50000J0D01*
G01*
X104340000Y-82150000D01*
G75*
G02*
X104390000Y-82200000I0J-50000D01*
G01*
X104390000Y-82975000D01*
G75*
G02*
X104340000Y-83025000I-50000J0D01*
G01*
X104240000Y-83025000D01*
G75*
G02*
X104190000Y-82975000I0J50000D01*
G01*
G37*
G36*
G01*
X104590000Y-82975000D02*
X104590000Y-82200000D01*
G75*
G02*
X104640000Y-82150000I50000J0D01*
G01*
X104740000Y-82150000D01*
G75*
G02*
X104790000Y-82200000I0J-50000D01*
G01*
X104790000Y-82975000D01*
G75*
G02*
X104740000Y-83025000I-50000J0D01*
G01*
X104640000Y-83025000D01*
G75*
G02*
X104590000Y-82975000I0J50000D01*
G01*
G37*
G36*
G01*
X104990000Y-82975000D02*
X104990000Y-82200000D01*
G75*
G02*
X105040000Y-82150000I50000J0D01*
G01*
X105140000Y-82150000D01*
G75*
G02*
X105190000Y-82200000I0J-50000D01*
G01*
X105190000Y-82975000D01*
G75*
G02*
X105140000Y-83025000I-50000J0D01*
G01*
X105040000Y-83025000D01*
G75*
G02*
X104990000Y-82975000I0J50000D01*
G01*
G37*
G36*
G01*
X105390000Y-82975000D02*
X105390000Y-82200000D01*
G75*
G02*
X105440000Y-82150000I50000J0D01*
G01*
X105540000Y-82150000D01*
G75*
G02*
X105590000Y-82200000I0J-50000D01*
G01*
X105590000Y-82975000D01*
G75*
G02*
X105540000Y-83025000I-50000J0D01*
G01*
X105440000Y-83025000D01*
G75*
G02*
X105390000Y-82975000I0J50000D01*
G01*
G37*
G36*
G01*
X105790000Y-82975000D02*
X105790000Y-82200000D01*
G75*
G02*
X105840000Y-82150000I50000J0D01*
G01*
X105940000Y-82150000D01*
G75*
G02*
X105990000Y-82200000I0J-50000D01*
G01*
X105990000Y-82975000D01*
G75*
G02*
X105940000Y-83025000I-50000J0D01*
G01*
X105840000Y-83025000D01*
G75*
G02*
X105790000Y-82975000I0J50000D01*
G01*
G37*
G36*
G01*
X106190000Y-82975000D02*
X106190000Y-82200000D01*
G75*
G02*
X106240000Y-82150000I50000J0D01*
G01*
X106340000Y-82150000D01*
G75*
G02*
X106390000Y-82200000I0J-50000D01*
G01*
X106390000Y-82975000D01*
G75*
G02*
X106340000Y-83025000I-50000J0D01*
G01*
X106240000Y-83025000D01*
G75*
G02*
X106190000Y-82975000I0J50000D01*
G01*
G37*
G36*
G01*
X106690000Y-83475000D02*
X106690000Y-83375000D01*
G75*
G02*
X106740000Y-83325000I50000J0D01*
G01*
X107515000Y-83325000D01*
G75*
G02*
X107565000Y-83375000I0J-50000D01*
G01*
X107565000Y-83475000D01*
G75*
G02*
X107515000Y-83525000I-50000J0D01*
G01*
X106740000Y-83525000D01*
G75*
G02*
X106690000Y-83475000I0J50000D01*
G01*
G37*
G36*
G01*
X106690000Y-83875000D02*
X106690000Y-83775000D01*
G75*
G02*
X106740000Y-83725000I50000J0D01*
G01*
X107515000Y-83725000D01*
G75*
G02*
X107565000Y-83775000I0J-50000D01*
G01*
X107565000Y-83875000D01*
G75*
G02*
X107515000Y-83925000I-50000J0D01*
G01*
X106740000Y-83925000D01*
G75*
G02*
X106690000Y-83875000I0J50000D01*
G01*
G37*
G36*
G01*
X106690000Y-84275000D02*
X106690000Y-84175000D01*
G75*
G02*
X106740000Y-84125000I50000J0D01*
G01*
X107515000Y-84125000D01*
G75*
G02*
X107565000Y-84175000I0J-50000D01*
G01*
X107565000Y-84275000D01*
G75*
G02*
X107515000Y-84325000I-50000J0D01*
G01*
X106740000Y-84325000D01*
G75*
G02*
X106690000Y-84275000I0J50000D01*
G01*
G37*
G36*
G01*
X106690000Y-84675000D02*
X106690000Y-84575000D01*
G75*
G02*
X106740000Y-84525000I50000J0D01*
G01*
X107515000Y-84525000D01*
G75*
G02*
X107565000Y-84575000I0J-50000D01*
G01*
X107565000Y-84675000D01*
G75*
G02*
X107515000Y-84725000I-50000J0D01*
G01*
X106740000Y-84725000D01*
G75*
G02*
X106690000Y-84675000I0J50000D01*
G01*
G37*
G36*
G01*
X106690000Y-85075000D02*
X106690000Y-84975000D01*
G75*
G02*
X106740000Y-84925000I50000J0D01*
G01*
X107515000Y-84925000D01*
G75*
G02*
X107565000Y-84975000I0J-50000D01*
G01*
X107565000Y-85075000D01*
G75*
G02*
X107515000Y-85125000I-50000J0D01*
G01*
X106740000Y-85125000D01*
G75*
G02*
X106690000Y-85075000I0J50000D01*
G01*
G37*
G36*
G01*
X106690000Y-85475000D02*
X106690000Y-85375000D01*
G75*
G02*
X106740000Y-85325000I50000J0D01*
G01*
X107515000Y-85325000D01*
G75*
G02*
X107565000Y-85375000I0J-50000D01*
G01*
X107565000Y-85475000D01*
G75*
G02*
X107515000Y-85525000I-50000J0D01*
G01*
X106740000Y-85525000D01*
G75*
G02*
X106690000Y-85475000I0J50000D01*
G01*
G37*
G36*
G01*
X106690000Y-85875000D02*
X106690000Y-85775000D01*
G75*
G02*
X106740000Y-85725000I50000J0D01*
G01*
X107515000Y-85725000D01*
G75*
G02*
X107565000Y-85775000I0J-50000D01*
G01*
X107565000Y-85875000D01*
G75*
G02*
X107515000Y-85925000I-50000J0D01*
G01*
X106740000Y-85925000D01*
G75*
G02*
X106690000Y-85875000I0J50000D01*
G01*
G37*
G36*
G01*
X106690000Y-86275000D02*
X106690000Y-86175000D01*
G75*
G02*
X106740000Y-86125000I50000J0D01*
G01*
X107515000Y-86125000D01*
G75*
G02*
X107565000Y-86175000I0J-50000D01*
G01*
X107565000Y-86275000D01*
G75*
G02*
X107515000Y-86325000I-50000J0D01*
G01*
X106740000Y-86325000D01*
G75*
G02*
X106690000Y-86275000I0J50000D01*
G01*
G37*
G36*
G01*
X106690000Y-86675000D02*
X106690000Y-86575000D01*
G75*
G02*
X106740000Y-86525000I50000J0D01*
G01*
X107515000Y-86525000D01*
G75*
G02*
X107565000Y-86575000I0J-50000D01*
G01*
X107565000Y-86675000D01*
G75*
G02*
X107515000Y-86725000I-50000J0D01*
G01*
X106740000Y-86725000D01*
G75*
G02*
X106690000Y-86675000I0J50000D01*
G01*
G37*
G36*
G01*
X106690000Y-87075000D02*
X106690000Y-86975000D01*
G75*
G02*
X106740000Y-86925000I50000J0D01*
G01*
X107515000Y-86925000D01*
G75*
G02*
X107565000Y-86975000I0J-50000D01*
G01*
X107565000Y-87075000D01*
G75*
G02*
X107515000Y-87125000I-50000J0D01*
G01*
X106740000Y-87125000D01*
G75*
G02*
X106690000Y-87075000I0J50000D01*
G01*
G37*
G36*
G01*
X106690000Y-87475000D02*
X106690000Y-87375000D01*
G75*
G02*
X106740000Y-87325000I50000J0D01*
G01*
X107515000Y-87325000D01*
G75*
G02*
X107565000Y-87375000I0J-50000D01*
G01*
X107565000Y-87475000D01*
G75*
G02*
X107515000Y-87525000I-50000J0D01*
G01*
X106740000Y-87525000D01*
G75*
G02*
X106690000Y-87475000I0J50000D01*
G01*
G37*
G36*
G01*
X106690000Y-87875000D02*
X106690000Y-87775000D01*
G75*
G02*
X106740000Y-87725000I50000J0D01*
G01*
X107515000Y-87725000D01*
G75*
G02*
X107565000Y-87775000I0J-50000D01*
G01*
X107565000Y-87875000D01*
G75*
G02*
X107515000Y-87925000I-50000J0D01*
G01*
X106740000Y-87925000D01*
G75*
G02*
X106690000Y-87875000I0J50000D01*
G01*
G37*
G36*
G01*
X106690000Y-88275000D02*
X106690000Y-88175000D01*
G75*
G02*
X106740000Y-88125000I50000J0D01*
G01*
X107515000Y-88125000D01*
G75*
G02*
X107565000Y-88175000I0J-50000D01*
G01*
X107565000Y-88275000D01*
G75*
G02*
X107515000Y-88325000I-50000J0D01*
G01*
X106740000Y-88325000D01*
G75*
G02*
X106690000Y-88275000I0J50000D01*
G01*
G37*
G36*
G01*
X106690000Y-88675000D02*
X106690000Y-88575000D01*
G75*
G02*
X106740000Y-88525000I50000J0D01*
G01*
X107515000Y-88525000D01*
G75*
G02*
X107565000Y-88575000I0J-50000D01*
G01*
X107565000Y-88675000D01*
G75*
G02*
X107515000Y-88725000I-50000J0D01*
G01*
X106740000Y-88725000D01*
G75*
G02*
X106690000Y-88675000I0J50000D01*
G01*
G37*
G36*
G01*
X106190000Y-89850000D02*
X106190000Y-89075000D01*
G75*
G02*
X106240000Y-89025000I50000J0D01*
G01*
X106340000Y-89025000D01*
G75*
G02*
X106390000Y-89075000I0J-50000D01*
G01*
X106390000Y-89850000D01*
G75*
G02*
X106340000Y-89900000I-50000J0D01*
G01*
X106240000Y-89900000D01*
G75*
G02*
X106190000Y-89850000I0J50000D01*
G01*
G37*
G36*
G01*
X105790000Y-89850000D02*
X105790000Y-89075000D01*
G75*
G02*
X105840000Y-89025000I50000J0D01*
G01*
X105940000Y-89025000D01*
G75*
G02*
X105990000Y-89075000I0J-50000D01*
G01*
X105990000Y-89850000D01*
G75*
G02*
X105940000Y-89900000I-50000J0D01*
G01*
X105840000Y-89900000D01*
G75*
G02*
X105790000Y-89850000I0J50000D01*
G01*
G37*
G36*
G01*
X105390000Y-89850000D02*
X105390000Y-89075000D01*
G75*
G02*
X105440000Y-89025000I50000J0D01*
G01*
X105540000Y-89025000D01*
G75*
G02*
X105590000Y-89075000I0J-50000D01*
G01*
X105590000Y-89850000D01*
G75*
G02*
X105540000Y-89900000I-50000J0D01*
G01*
X105440000Y-89900000D01*
G75*
G02*
X105390000Y-89850000I0J50000D01*
G01*
G37*
G36*
G01*
X104990000Y-89850000D02*
X104990000Y-89075000D01*
G75*
G02*
X105040000Y-89025000I50000J0D01*
G01*
X105140000Y-89025000D01*
G75*
G02*
X105190000Y-89075000I0J-50000D01*
G01*
X105190000Y-89850000D01*
G75*
G02*
X105140000Y-89900000I-50000J0D01*
G01*
X105040000Y-89900000D01*
G75*
G02*
X104990000Y-89850000I0J50000D01*
G01*
G37*
G36*
G01*
X104590000Y-89850000D02*
X104590000Y-89075000D01*
G75*
G02*
X104640000Y-89025000I50000J0D01*
G01*
X104740000Y-89025000D01*
G75*
G02*
X104790000Y-89075000I0J-50000D01*
G01*
X104790000Y-89850000D01*
G75*
G02*
X104740000Y-89900000I-50000J0D01*
G01*
X104640000Y-89900000D01*
G75*
G02*
X104590000Y-89850000I0J50000D01*
G01*
G37*
G36*
G01*
X104190000Y-89850000D02*
X104190000Y-89075000D01*
G75*
G02*
X104240000Y-89025000I50000J0D01*
G01*
X104340000Y-89025000D01*
G75*
G02*
X104390000Y-89075000I0J-50000D01*
G01*
X104390000Y-89850000D01*
G75*
G02*
X104340000Y-89900000I-50000J0D01*
G01*
X104240000Y-89900000D01*
G75*
G02*
X104190000Y-89850000I0J50000D01*
G01*
G37*
G36*
G01*
X103790000Y-89850000D02*
X103790000Y-89075000D01*
G75*
G02*
X103840000Y-89025000I50000J0D01*
G01*
X103940000Y-89025000D01*
G75*
G02*
X103990000Y-89075000I0J-50000D01*
G01*
X103990000Y-89850000D01*
G75*
G02*
X103940000Y-89900000I-50000J0D01*
G01*
X103840000Y-89900000D01*
G75*
G02*
X103790000Y-89850000I0J50000D01*
G01*
G37*
G36*
G01*
X103390000Y-89850000D02*
X103390000Y-89075000D01*
G75*
G02*
X103440000Y-89025000I50000J0D01*
G01*
X103540000Y-89025000D01*
G75*
G02*
X103590000Y-89075000I0J-50000D01*
G01*
X103590000Y-89850000D01*
G75*
G02*
X103540000Y-89900000I-50000J0D01*
G01*
X103440000Y-89900000D01*
G75*
G02*
X103390000Y-89850000I0J50000D01*
G01*
G37*
G36*
G01*
X102990000Y-89850000D02*
X102990000Y-89075000D01*
G75*
G02*
X103040000Y-89025000I50000J0D01*
G01*
X103140000Y-89025000D01*
G75*
G02*
X103190000Y-89075000I0J-50000D01*
G01*
X103190000Y-89850000D01*
G75*
G02*
X103140000Y-89900000I-50000J0D01*
G01*
X103040000Y-89900000D01*
G75*
G02*
X102990000Y-89850000I0J50000D01*
G01*
G37*
G36*
G01*
X102590000Y-89850000D02*
X102590000Y-89075000D01*
G75*
G02*
X102640000Y-89025000I50000J0D01*
G01*
X102740000Y-89025000D01*
G75*
G02*
X102790000Y-89075000I0J-50000D01*
G01*
X102790000Y-89850000D01*
G75*
G02*
X102740000Y-89900000I-50000J0D01*
G01*
X102640000Y-89900000D01*
G75*
G02*
X102590000Y-89850000I0J50000D01*
G01*
G37*
G36*
G01*
X102190000Y-89850000D02*
X102190000Y-89075000D01*
G75*
G02*
X102240000Y-89025000I50000J0D01*
G01*
X102340000Y-89025000D01*
G75*
G02*
X102390000Y-89075000I0J-50000D01*
G01*
X102390000Y-89850000D01*
G75*
G02*
X102340000Y-89900000I-50000J0D01*
G01*
X102240000Y-89900000D01*
G75*
G02*
X102190000Y-89850000I0J50000D01*
G01*
G37*
G36*
G01*
X101790000Y-89850000D02*
X101790000Y-89075000D01*
G75*
G02*
X101840000Y-89025000I50000J0D01*
G01*
X101940000Y-89025000D01*
G75*
G02*
X101990000Y-89075000I0J-50000D01*
G01*
X101990000Y-89850000D01*
G75*
G02*
X101940000Y-89900000I-50000J0D01*
G01*
X101840000Y-89900000D01*
G75*
G02*
X101790000Y-89850000I0J50000D01*
G01*
G37*
G36*
G01*
X101390000Y-89850000D02*
X101390000Y-89075000D01*
G75*
G02*
X101440000Y-89025000I50000J0D01*
G01*
X101540000Y-89025000D01*
G75*
G02*
X101590000Y-89075000I0J-50000D01*
G01*
X101590000Y-89850000D01*
G75*
G02*
X101540000Y-89900000I-50000J0D01*
G01*
X101440000Y-89900000D01*
G75*
G02*
X101390000Y-89850000I0J50000D01*
G01*
G37*
G36*
G01*
X100990000Y-89850000D02*
X100990000Y-89075000D01*
G75*
G02*
X101040000Y-89025000I50000J0D01*
G01*
X101140000Y-89025000D01*
G75*
G02*
X101190000Y-89075000I0J-50000D01*
G01*
X101190000Y-89850000D01*
G75*
G02*
X101140000Y-89900000I-50000J0D01*
G01*
X101040000Y-89900000D01*
G75*
G02*
X100990000Y-89850000I0J50000D01*
G01*
G37*
G36*
G01*
X99815000Y-88675000D02*
X99815000Y-88575000D01*
G75*
G02*
X99865000Y-88525000I50000J0D01*
G01*
X100640000Y-88525000D01*
G75*
G02*
X100690000Y-88575000I0J-50000D01*
G01*
X100690000Y-88675000D01*
G75*
G02*
X100640000Y-88725000I-50000J0D01*
G01*
X99865000Y-88725000D01*
G75*
G02*
X99815000Y-88675000I0J50000D01*
G01*
G37*
G36*
G01*
X99815000Y-88275000D02*
X99815000Y-88175000D01*
G75*
G02*
X99865000Y-88125000I50000J0D01*
G01*
X100640000Y-88125000D01*
G75*
G02*
X100690000Y-88175000I0J-50000D01*
G01*
X100690000Y-88275000D01*
G75*
G02*
X100640000Y-88325000I-50000J0D01*
G01*
X99865000Y-88325000D01*
G75*
G02*
X99815000Y-88275000I0J50000D01*
G01*
G37*
G36*
G01*
X99815000Y-87875000D02*
X99815000Y-87775000D01*
G75*
G02*
X99865000Y-87725000I50000J0D01*
G01*
X100640000Y-87725000D01*
G75*
G02*
X100690000Y-87775000I0J-50000D01*
G01*
X100690000Y-87875000D01*
G75*
G02*
X100640000Y-87925000I-50000J0D01*
G01*
X99865000Y-87925000D01*
G75*
G02*
X99815000Y-87875000I0J50000D01*
G01*
G37*
G36*
G01*
X99815000Y-87475000D02*
X99815000Y-87375000D01*
G75*
G02*
X99865000Y-87325000I50000J0D01*
G01*
X100640000Y-87325000D01*
G75*
G02*
X100690000Y-87375000I0J-50000D01*
G01*
X100690000Y-87475000D01*
G75*
G02*
X100640000Y-87525000I-50000J0D01*
G01*
X99865000Y-87525000D01*
G75*
G02*
X99815000Y-87475000I0J50000D01*
G01*
G37*
G36*
G01*
X99815000Y-87075000D02*
X99815000Y-86975000D01*
G75*
G02*
X99865000Y-86925000I50000J0D01*
G01*
X100640000Y-86925000D01*
G75*
G02*
X100690000Y-86975000I0J-50000D01*
G01*
X100690000Y-87075000D01*
G75*
G02*
X100640000Y-87125000I-50000J0D01*
G01*
X99865000Y-87125000D01*
G75*
G02*
X99815000Y-87075000I0J50000D01*
G01*
G37*
G36*
G01*
X99815000Y-86675000D02*
X99815000Y-86575000D01*
G75*
G02*
X99865000Y-86525000I50000J0D01*
G01*
X100640000Y-86525000D01*
G75*
G02*
X100690000Y-86575000I0J-50000D01*
G01*
X100690000Y-86675000D01*
G75*
G02*
X100640000Y-86725000I-50000J0D01*
G01*
X99865000Y-86725000D01*
G75*
G02*
X99815000Y-86675000I0J50000D01*
G01*
G37*
G36*
G01*
X99815000Y-86275000D02*
X99815000Y-86175000D01*
G75*
G02*
X99865000Y-86125000I50000J0D01*
G01*
X100640000Y-86125000D01*
G75*
G02*
X100690000Y-86175000I0J-50000D01*
G01*
X100690000Y-86275000D01*
G75*
G02*
X100640000Y-86325000I-50000J0D01*
G01*
X99865000Y-86325000D01*
G75*
G02*
X99815000Y-86275000I0J50000D01*
G01*
G37*
G36*
G01*
X99815000Y-85875000D02*
X99815000Y-85775000D01*
G75*
G02*
X99865000Y-85725000I50000J0D01*
G01*
X100640000Y-85725000D01*
G75*
G02*
X100690000Y-85775000I0J-50000D01*
G01*
X100690000Y-85875000D01*
G75*
G02*
X100640000Y-85925000I-50000J0D01*
G01*
X99865000Y-85925000D01*
G75*
G02*
X99815000Y-85875000I0J50000D01*
G01*
G37*
G36*
G01*
X99815000Y-85475000D02*
X99815000Y-85375000D01*
G75*
G02*
X99865000Y-85325000I50000J0D01*
G01*
X100640000Y-85325000D01*
G75*
G02*
X100690000Y-85375000I0J-50000D01*
G01*
X100690000Y-85475000D01*
G75*
G02*
X100640000Y-85525000I-50000J0D01*
G01*
X99865000Y-85525000D01*
G75*
G02*
X99815000Y-85475000I0J50000D01*
G01*
G37*
G36*
G01*
X99815000Y-85075000D02*
X99815000Y-84975000D01*
G75*
G02*
X99865000Y-84925000I50000J0D01*
G01*
X100640000Y-84925000D01*
G75*
G02*
X100690000Y-84975000I0J-50000D01*
G01*
X100690000Y-85075000D01*
G75*
G02*
X100640000Y-85125000I-50000J0D01*
G01*
X99865000Y-85125000D01*
G75*
G02*
X99815000Y-85075000I0J50000D01*
G01*
G37*
G36*
G01*
X99815000Y-84675000D02*
X99815000Y-84575000D01*
G75*
G02*
X99865000Y-84525000I50000J0D01*
G01*
X100640000Y-84525000D01*
G75*
G02*
X100690000Y-84575000I0J-50000D01*
G01*
X100690000Y-84675000D01*
G75*
G02*
X100640000Y-84725000I-50000J0D01*
G01*
X99865000Y-84725000D01*
G75*
G02*
X99815000Y-84675000I0J50000D01*
G01*
G37*
G36*
G01*
X99815000Y-84275000D02*
X99815000Y-84175000D01*
G75*
G02*
X99865000Y-84125000I50000J0D01*
G01*
X100640000Y-84125000D01*
G75*
G02*
X100690000Y-84175000I0J-50000D01*
G01*
X100690000Y-84275000D01*
G75*
G02*
X100640000Y-84325000I-50000J0D01*
G01*
X99865000Y-84325000D01*
G75*
G02*
X99815000Y-84275000I0J50000D01*
G01*
G37*
G36*
G01*
X99815000Y-83875000D02*
X99815000Y-83775000D01*
G75*
G02*
X99865000Y-83725000I50000J0D01*
G01*
X100640000Y-83725000D01*
G75*
G02*
X100690000Y-83775000I0J-50000D01*
G01*
X100690000Y-83875000D01*
G75*
G02*
X100640000Y-83925000I-50000J0D01*
G01*
X99865000Y-83925000D01*
G75*
G02*
X99815000Y-83875000I0J50000D01*
G01*
G37*
G36*
G01*
X99815000Y-83475000D02*
X99815000Y-83375000D01*
G75*
G02*
X99865000Y-83325000I50000J0D01*
G01*
X100640000Y-83325000D01*
G75*
G02*
X100690000Y-83375000I0J-50000D01*
G01*
X100690000Y-83475000D01*
G75*
G02*
X100640000Y-83525000I-50000J0D01*
G01*
X99865000Y-83525000D01*
G75*
G02*
X99815000Y-83475000I0J50000D01*
G01*
G37*
G36*
G01*
X103785283Y-86954717D02*
X103785283Y-86370283D01*
G75*
G02*
X104035283Y-86120283I250000J0D01*
G01*
X104619717Y-86120283D01*
G75*
G02*
X104869717Y-86370283I0J-250000D01*
G01*
X104869717Y-86954717D01*
G75*
G02*
X104619717Y-87204717I-250000J0D01*
G01*
X104035283Y-87204717D01*
G75*
G02*
X103785283Y-86954717I0J250000D01*
G01*
G37*
G36*
G01*
X103785283Y-85679717D02*
X103785283Y-85095283D01*
G75*
G02*
X104035283Y-84845283I250000J0D01*
G01*
X104619717Y-84845283D01*
G75*
G02*
X104869717Y-85095283I0J-250000D01*
G01*
X104869717Y-85679717D01*
G75*
G02*
X104619717Y-85929717I-250000J0D01*
G01*
X104035283Y-85929717D01*
G75*
G02*
X103785283Y-85679717I0J250000D01*
G01*
G37*
G36*
G01*
X102510283Y-86954717D02*
X102510283Y-86370283D01*
G75*
G02*
X102760283Y-86120283I250000J0D01*
G01*
X103344717Y-86120283D01*
G75*
G02*
X103594717Y-86370283I0J-250000D01*
G01*
X103594717Y-86954717D01*
G75*
G02*
X103344717Y-87204717I-250000J0D01*
G01*
X102760283Y-87204717D01*
G75*
G02*
X102510283Y-86954717I0J250000D01*
G01*
G37*
G36*
G01*
X102510283Y-85679717D02*
X102510283Y-85095283D01*
G75*
G02*
X102760283Y-84845283I250000J0D01*
G01*
X103344717Y-84845283D01*
G75*
G02*
X103594717Y-85095283I0J-250000D01*
G01*
X103594717Y-85679717D01*
G75*
G02*
X103344717Y-85929717I-250000J0D01*
G01*
X102760283Y-85929717D01*
G75*
G02*
X102510283Y-85679717I0J250000D01*
G01*
G37*
M02*
