G04 #@! TF.GenerationSoftware,KiCad,Pcbnew,(5.99.0-11630-gc5e195bdff)*
G04 #@! TF.CreationDate,2021-08-23T20:37:24+01:00*
G04 #@! TF.ProjectId,EnvPicoLiPo,456e7650-6963-46f4-9c69-506f2e6b6963,REV1*
G04 #@! TF.SameCoordinates,Original*
G04 #@! TF.FileFunction,Legend,Bot*
G04 #@! TF.FilePolarity,Positive*
%FSLAX46Y46*%
G04 Gerber Fmt 4.6, Leading zero omitted, Abs format (unit mm)*
G04 Created by KiCad (PCBNEW (5.99.0-11630-gc5e195bdff)) date 2021-08-23 20:37:24*
%MOMM*%
%LPD*%
G01*
G04 APERTURE LIST*
G04 Aperture macros list*
%AMRoundRect*
0 Rectangle with rounded corners*
0 $1 Rounding radius*
0 $2 $3 $4 $5 $6 $7 $8 $9 X,Y pos of 4 corners*
0 Add a 4 corners polygon primitive as box body*
4,1,4,$2,$3,$4,$5,$6,$7,$8,$9,$2,$3,0*
0 Add four circle primitives for the rounded corners*
1,1,$1+$1,$2,$3*
1,1,$1+$1,$4,$5*
1,1,$1+$1,$6,$7*
1,1,$1+$1,$8,$9*
0 Add four rect primitives between the rounded corners*
20,1,$1+$1,$2,$3,$4,$5,0*
20,1,$1+$1,$4,$5,$6,$7,0*
20,1,$1+$1,$6,$7,$8,$9,0*
20,1,$1+$1,$8,$9,$2,$3,0*%
G04 Aperture macros list end*
%ADD10C,0.120000*%
%ADD11C,0.150000*%
%ADD12C,0.153000*%
%ADD13C,0.650000*%
%ADD14O,1.000000X2.100000*%
%ADD15O,1.000000X1.600000*%
%ADD16R,1.700000X1.700000*%
%ADD17O,1.700000X1.700000*%
%ADD18RoundRect,0.375000X-0.375000X-0.375000X0.375000X-0.375000X0.375000X0.375000X-0.375000X0.375000X0*%
%ADD19R,3.500000X1.700000*%
%ADD20C,1.700000*%
%ADD21C,1.000000*%
%ADD22RoundRect,0.140000X-0.170000X0.140000X-0.170000X-0.140000X0.170000X-0.140000X0.170000X0.140000X0*%
%ADD23RoundRect,0.162500X-0.162500X-0.162500X0.162500X-0.162500X0.162500X0.162500X-0.162500X0.162500X0*%
%ADD24RoundRect,0.125000X-0.125000X-0.125000X0.125000X-0.125000X0.125000X0.125000X-0.125000X0.125000X0*%
G04 APERTURE END LIST*
D10*
X100690000Y-101525000D02*
X105465000Y-101525000D01*
X105465000Y-101525000D02*
X105465000Y-103350000D01*
X105465000Y-103350000D02*
X100690000Y-103350000D01*
X100690000Y-103350000D02*
X100690000Y-101525000D01*
D11*
X104401904Y-59125000D02*
X104497142Y-59077380D01*
X104640000Y-59077380D01*
X104782857Y-59125000D01*
X104878095Y-59220238D01*
X104925714Y-59315476D01*
X104973333Y-59505952D01*
X104973333Y-59648809D01*
X104925714Y-59839285D01*
X104878095Y-59934523D01*
X104782857Y-60029761D01*
X104640000Y-60077380D01*
X104544761Y-60077380D01*
X104401904Y-60029761D01*
X104354285Y-59982142D01*
X104354285Y-59648809D01*
X104544761Y-59648809D01*
X103925714Y-60077380D02*
X103925714Y-59077380D01*
X103354285Y-60077380D01*
X103354285Y-59077380D01*
X102878095Y-60077380D02*
X102878095Y-59077380D01*
X102640000Y-59077380D01*
X102497142Y-59125000D01*
X102401904Y-59220238D01*
X102354285Y-59315476D01*
X102306666Y-59505952D01*
X102306666Y-59648809D01*
X102354285Y-59839285D01*
X102401904Y-59934523D01*
X102497142Y-60029761D01*
X102640000Y-60077380D01*
X102878095Y-60077380D01*
X110192380Y-58475000D02*
X109192380Y-58475000D01*
X110192380Y-58903571D02*
X109668571Y-58903571D01*
X109573333Y-58855952D01*
X109525714Y-58760714D01*
X109525714Y-58617857D01*
X109573333Y-58522619D01*
X109620952Y-58475000D01*
X109525714Y-59236904D02*
X109525714Y-59617857D01*
X109192380Y-59379761D02*
X110049523Y-59379761D01*
X110144761Y-59427380D01*
X110192380Y-59522619D01*
X110192380Y-59617857D01*
X109525714Y-59808333D02*
X109525714Y-60189285D01*
X109192380Y-59951190D02*
X110049523Y-59951190D01*
X110144761Y-59998809D01*
X110192380Y-60094047D01*
X110192380Y-60189285D01*
X109525714Y-60522619D02*
X110525714Y-60522619D01*
X109573333Y-60522619D02*
X109525714Y-60617857D01*
X109525714Y-60808333D01*
X109573333Y-60903571D01*
X109620952Y-60951190D01*
X109716190Y-60998809D01*
X110001904Y-60998809D01*
X110097142Y-60951190D01*
X110144761Y-60903571D01*
X110192380Y-60808333D01*
X110192380Y-60617857D01*
X110144761Y-60522619D01*
X110144761Y-61379761D02*
X110192380Y-61475000D01*
X110192380Y-61665476D01*
X110144761Y-61760714D01*
X110049523Y-61808333D01*
X110001904Y-61808333D01*
X109906666Y-61760714D01*
X109859047Y-61665476D01*
X109859047Y-61522619D01*
X109811428Y-61427380D01*
X109716190Y-61379761D01*
X109668571Y-61379761D01*
X109573333Y-61427380D01*
X109525714Y-61522619D01*
X109525714Y-61665476D01*
X109573333Y-61760714D01*
X110097142Y-62236904D02*
X110144761Y-62284523D01*
X110192380Y-62236904D01*
X110144761Y-62189285D01*
X110097142Y-62236904D01*
X110192380Y-62236904D01*
X109573333Y-62236904D02*
X109620952Y-62284523D01*
X109668571Y-62236904D01*
X109620952Y-62189285D01*
X109573333Y-62236904D01*
X109668571Y-62236904D01*
X109144761Y-63427380D02*
X110430476Y-62570238D01*
X109144761Y-64475000D02*
X110430476Y-63617857D01*
X109525714Y-65236904D02*
X110335238Y-65236904D01*
X110430476Y-65189285D01*
X110478095Y-65141666D01*
X110525714Y-65046428D01*
X110525714Y-64903571D01*
X110478095Y-64808333D01*
X110144761Y-65236904D02*
X110192380Y-65141666D01*
X110192380Y-64951190D01*
X110144761Y-64855952D01*
X110097142Y-64808333D01*
X110001904Y-64760714D01*
X109716190Y-64760714D01*
X109620952Y-64808333D01*
X109573333Y-64855952D01*
X109525714Y-64951190D01*
X109525714Y-65141666D01*
X109573333Y-65236904D01*
X110192380Y-65713095D02*
X109525714Y-65713095D01*
X109192380Y-65713095D02*
X109240000Y-65665476D01*
X109287619Y-65713095D01*
X109240000Y-65760714D01*
X109192380Y-65713095D01*
X109287619Y-65713095D01*
X109525714Y-66046428D02*
X109525714Y-66427380D01*
X109192380Y-66189285D02*
X110049523Y-66189285D01*
X110144761Y-66236904D01*
X110192380Y-66332142D01*
X110192380Y-66427380D01*
X110192380Y-66760714D02*
X109192380Y-66760714D01*
X110192380Y-67189285D02*
X109668571Y-67189285D01*
X109573333Y-67141666D01*
X109525714Y-67046428D01*
X109525714Y-66903571D01*
X109573333Y-66808333D01*
X109620952Y-66760714D01*
X109525714Y-68094047D02*
X110192380Y-68094047D01*
X109525714Y-67665476D02*
X110049523Y-67665476D01*
X110144761Y-67713095D01*
X110192380Y-67808333D01*
X110192380Y-67951190D01*
X110144761Y-68046428D01*
X110097142Y-68094047D01*
X110192380Y-68570238D02*
X109192380Y-68570238D01*
X109573333Y-68570238D02*
X109525714Y-68665476D01*
X109525714Y-68855952D01*
X109573333Y-68951190D01*
X109620952Y-68998809D01*
X109716190Y-69046428D01*
X110001904Y-69046428D01*
X110097142Y-68998809D01*
X110144761Y-68951190D01*
X110192380Y-68855952D01*
X110192380Y-68665476D01*
X110144761Y-68570238D01*
X110097142Y-69475000D02*
X110144761Y-69522619D01*
X110192380Y-69475000D01*
X110144761Y-69427380D01*
X110097142Y-69475000D01*
X110192380Y-69475000D01*
X110144761Y-70379761D02*
X110192380Y-70284523D01*
X110192380Y-70094047D01*
X110144761Y-69998809D01*
X110097142Y-69951190D01*
X110001904Y-69903571D01*
X109716190Y-69903571D01*
X109620952Y-69951190D01*
X109573333Y-69998809D01*
X109525714Y-70094047D01*
X109525714Y-70284523D01*
X109573333Y-70379761D01*
X110192380Y-70951190D02*
X110144761Y-70855952D01*
X110097142Y-70808333D01*
X110001904Y-70760714D01*
X109716190Y-70760714D01*
X109620952Y-70808333D01*
X109573333Y-70855952D01*
X109525714Y-70951190D01*
X109525714Y-71094047D01*
X109573333Y-71189285D01*
X109620952Y-71236904D01*
X109716190Y-71284523D01*
X110001904Y-71284523D01*
X110097142Y-71236904D01*
X110144761Y-71189285D01*
X110192380Y-71094047D01*
X110192380Y-70951190D01*
X110192380Y-71713095D02*
X109525714Y-71713095D01*
X109620952Y-71713095D02*
X109573333Y-71760714D01*
X109525714Y-71855952D01*
X109525714Y-71998809D01*
X109573333Y-72094047D01*
X109668571Y-72141666D01*
X110192380Y-72141666D01*
X109668571Y-72141666D02*
X109573333Y-72189285D01*
X109525714Y-72284523D01*
X109525714Y-72427380D01*
X109573333Y-72522619D01*
X109668571Y-72570238D01*
X110192380Y-72570238D01*
X109144761Y-73760714D02*
X110430476Y-72903571D01*
X109668571Y-74094047D02*
X109668571Y-74427380D01*
X110192380Y-74570238D02*
X110192380Y-74094047D01*
X109192380Y-74094047D01*
X109192380Y-74570238D01*
X109525714Y-74998809D02*
X110192380Y-74998809D01*
X109620952Y-74998809D02*
X109573333Y-75046428D01*
X109525714Y-75141666D01*
X109525714Y-75284523D01*
X109573333Y-75379761D01*
X109668571Y-75427380D01*
X110192380Y-75427380D01*
X109525714Y-75808333D02*
X110192380Y-76046428D01*
X109525714Y-76284523D01*
X110192380Y-76665476D02*
X109525714Y-76665476D01*
X109192380Y-76665476D02*
X109240000Y-76617857D01*
X109287619Y-76665476D01*
X109240000Y-76713095D01*
X109192380Y-76665476D01*
X109287619Y-76665476D01*
X110192380Y-77284523D02*
X110144761Y-77189285D01*
X110097142Y-77141666D01*
X110001904Y-77094047D01*
X109716190Y-77094047D01*
X109620952Y-77141666D01*
X109573333Y-77189285D01*
X109525714Y-77284523D01*
X109525714Y-77427380D01*
X109573333Y-77522619D01*
X109620952Y-77570238D01*
X109716190Y-77617857D01*
X110001904Y-77617857D01*
X110097142Y-77570238D01*
X110144761Y-77522619D01*
X110192380Y-77427380D01*
X110192380Y-77284523D01*
X109525714Y-78475000D02*
X110192380Y-78475000D01*
X109525714Y-78046428D02*
X110049523Y-78046428D01*
X110144761Y-78094047D01*
X110192380Y-78189285D01*
X110192380Y-78332142D01*
X110144761Y-78427380D01*
X110097142Y-78475000D01*
X110144761Y-78903571D02*
X110192380Y-78998809D01*
X110192380Y-79189285D01*
X110144761Y-79284523D01*
X110049523Y-79332142D01*
X110001904Y-79332142D01*
X109906666Y-79284523D01*
X109859047Y-79189285D01*
X109859047Y-79046428D01*
X109811428Y-78951190D01*
X109716190Y-78903571D01*
X109668571Y-78903571D01*
X109573333Y-78951190D01*
X109525714Y-79046428D01*
X109525714Y-79189285D01*
X109573333Y-79284523D01*
X109811428Y-79760714D02*
X109811428Y-80522619D01*
X110192380Y-80998809D02*
X109192380Y-80998809D01*
X109192380Y-81236904D01*
X109240000Y-81379761D01*
X109335238Y-81475000D01*
X109430476Y-81522619D01*
X109620952Y-81570238D01*
X109763809Y-81570238D01*
X109954285Y-81522619D01*
X110049523Y-81475000D01*
X110144761Y-81379761D01*
X110192380Y-81236904D01*
X110192380Y-80998809D01*
X110192380Y-82427380D02*
X109668571Y-82427380D01*
X109573333Y-82379761D01*
X109525714Y-82284523D01*
X109525714Y-82094047D01*
X109573333Y-81998809D01*
X110144761Y-82427380D02*
X110192380Y-82332142D01*
X110192380Y-82094047D01*
X110144761Y-81998809D01*
X110049523Y-81951190D01*
X109954285Y-81951190D01*
X109859047Y-81998809D01*
X109811428Y-82094047D01*
X109811428Y-82332142D01*
X109763809Y-82427380D01*
X109525714Y-82760714D02*
X109525714Y-83141666D01*
X109192380Y-82903571D02*
X110049523Y-82903571D01*
X110144761Y-82951190D01*
X110192380Y-83046428D01*
X110192380Y-83141666D01*
X110192380Y-83903571D02*
X109668571Y-83903571D01*
X109573333Y-83855952D01*
X109525714Y-83760714D01*
X109525714Y-83570238D01*
X109573333Y-83475000D01*
X110144761Y-83903571D02*
X110192380Y-83808333D01*
X110192380Y-83570238D01*
X110144761Y-83475000D01*
X110049523Y-83427380D01*
X109954285Y-83427380D01*
X109859047Y-83475000D01*
X109811428Y-83570238D01*
X109811428Y-83808333D01*
X109763809Y-83903571D01*
X109144761Y-85094047D02*
X110430476Y-84236904D01*
X109668571Y-85427380D02*
X109668571Y-85760714D01*
X110192380Y-85903571D02*
X110192380Y-85427380D01*
X109192380Y-85427380D01*
X109192380Y-85903571D01*
X109525714Y-86332142D02*
X110192380Y-86332142D01*
X109620952Y-86332142D02*
X109573333Y-86379761D01*
X109525714Y-86475000D01*
X109525714Y-86617857D01*
X109573333Y-86713095D01*
X109668571Y-86760714D01*
X110192380Y-86760714D01*
X109525714Y-87141666D02*
X110192380Y-87379761D01*
X109525714Y-87617857D01*
X109192380Y-88189285D02*
X109192380Y-88379761D01*
X109240000Y-88475000D01*
X109335238Y-88570238D01*
X109525714Y-88617857D01*
X109859047Y-88617857D01*
X110049523Y-88570238D01*
X110144761Y-88475000D01*
X110192380Y-88379761D01*
X110192380Y-88189285D01*
X110144761Y-88094047D01*
X110049523Y-87998809D01*
X109859047Y-87951190D01*
X109525714Y-87951190D01*
X109335238Y-87998809D01*
X109240000Y-88094047D01*
X109192380Y-88189285D01*
X109525714Y-89046428D02*
X110525714Y-89046428D01*
X109573333Y-89046428D02*
X109525714Y-89141666D01*
X109525714Y-89332142D01*
X109573333Y-89427380D01*
X109620952Y-89475000D01*
X109716190Y-89522619D01*
X110001904Y-89522619D01*
X110097142Y-89475000D01*
X110144761Y-89427380D01*
X110192380Y-89332142D01*
X110192380Y-89141666D01*
X110144761Y-89046428D01*
X110144761Y-90332142D02*
X110192380Y-90236904D01*
X110192380Y-90046428D01*
X110144761Y-89951190D01*
X110049523Y-89903571D01*
X109668571Y-89903571D01*
X109573333Y-89951190D01*
X109525714Y-90046428D01*
X109525714Y-90236904D01*
X109573333Y-90332142D01*
X109668571Y-90379761D01*
X109763809Y-90379761D01*
X109859047Y-89903571D01*
X109525714Y-90808333D02*
X110192380Y-90808333D01*
X109620952Y-90808333D02*
X109573333Y-90855952D01*
X109525714Y-90951190D01*
X109525714Y-91094047D01*
X109573333Y-91189285D01*
X109668571Y-91236904D01*
X110192380Y-91236904D01*
X110192380Y-91713095D02*
X109192380Y-91713095D01*
X109192380Y-92094047D01*
X109240000Y-92189285D01*
X109287619Y-92236904D01*
X109382857Y-92284523D01*
X109525714Y-92284523D01*
X109620952Y-92236904D01*
X109668571Y-92189285D01*
X109716190Y-92094047D01*
X109716190Y-91713095D01*
X110192380Y-92713095D02*
X109525714Y-92713095D01*
X109192380Y-92713095D02*
X109240000Y-92665476D01*
X109287619Y-92713095D01*
X109240000Y-92760714D01*
X109192380Y-92713095D01*
X109287619Y-92713095D01*
X110144761Y-93617857D02*
X110192380Y-93522619D01*
X110192380Y-93332142D01*
X110144761Y-93236904D01*
X110097142Y-93189285D01*
X110001904Y-93141666D01*
X109716190Y-93141666D01*
X109620952Y-93189285D01*
X109573333Y-93236904D01*
X109525714Y-93332142D01*
X109525714Y-93522619D01*
X109573333Y-93617857D01*
X110192380Y-94189285D02*
X110144761Y-94094047D01*
X110097142Y-94046428D01*
X110001904Y-93998809D01*
X109716190Y-93998809D01*
X109620952Y-94046428D01*
X109573333Y-94094047D01*
X109525714Y-94189285D01*
X109525714Y-94332142D01*
X109573333Y-94427380D01*
X109620952Y-94475000D01*
X109716190Y-94522619D01*
X110001904Y-94522619D01*
X110097142Y-94475000D01*
X110144761Y-94427380D01*
X110192380Y-94332142D01*
X110192380Y-94189285D01*
X108125714Y-84186904D02*
X108582857Y-84186904D01*
X108354285Y-84186904D02*
X108354285Y-83386904D01*
X108430476Y-83501190D01*
X108506666Y-83577380D01*
X108582857Y-83615476D01*
X107782857Y-84110714D02*
X107744761Y-84148809D01*
X107782857Y-84186904D01*
X107820952Y-84148809D01*
X107782857Y-84110714D01*
X107782857Y-84186904D01*
X106982857Y-84186904D02*
X107440000Y-84186904D01*
X107211428Y-84186904D02*
X107211428Y-83386904D01*
X107287619Y-83501190D01*
X107363809Y-83577380D01*
X107440000Y-83615476D01*
X106754285Y-83386904D02*
X106487619Y-84186904D01*
X106220952Y-83386904D01*
X104676904Y-101950000D02*
X104772142Y-101902380D01*
X104915000Y-101902380D01*
X105057857Y-101950000D01*
X105153095Y-102045238D01*
X105200714Y-102140476D01*
X105248333Y-102330952D01*
X105248333Y-102473809D01*
X105200714Y-102664285D01*
X105153095Y-102759523D01*
X105057857Y-102854761D01*
X104915000Y-102902380D01*
X104819761Y-102902380D01*
X104676904Y-102854761D01*
X104629285Y-102807142D01*
X104629285Y-102473809D01*
X104819761Y-102473809D01*
X104200714Y-102902380D02*
X104200714Y-101902380D01*
X103629285Y-102902380D01*
X103629285Y-101902380D01*
X103153095Y-102902380D02*
X103153095Y-101902380D01*
X102915000Y-101902380D01*
X102772142Y-101950000D01*
X102676904Y-102045238D01*
X102629285Y-102140476D01*
X102581666Y-102330952D01*
X102581666Y-102473809D01*
X102629285Y-102664285D01*
X102676904Y-102759523D01*
X102772142Y-102854761D01*
X102915000Y-102902380D01*
X103153095Y-102902380D01*
D12*
X102147704Y-76540171D02*
X101347704Y-76540171D01*
X101347704Y-76730647D01*
X101385800Y-76844933D01*
X101461990Y-76921123D01*
X101538180Y-76959219D01*
X101690561Y-76997314D01*
X101804847Y-76997314D01*
X101957228Y-76959219D01*
X102033419Y-76921123D01*
X102109609Y-76844933D01*
X102147704Y-76730647D01*
X102147704Y-76540171D01*
X102147704Y-77340171D02*
X101347704Y-77340171D01*
X102147704Y-77797314D01*
X101347704Y-77797314D01*
X101728657Y-78444933D02*
X101728657Y-78178266D01*
X102147704Y-78178266D02*
X101347704Y-78178266D01*
X101347704Y-78559219D01*
D11*
X101820952Y-84586904D02*
X101325714Y-84586904D01*
X101592380Y-84891666D01*
X101478095Y-84891666D01*
X101401904Y-84929761D01*
X101363809Y-84967857D01*
X101325714Y-85044047D01*
X101325714Y-85234523D01*
X101363809Y-85310714D01*
X101401904Y-85348809D01*
X101478095Y-85386904D01*
X101706666Y-85386904D01*
X101782857Y-85348809D01*
X101820952Y-85310714D01*
X100982857Y-85310714D02*
X100944761Y-85348809D01*
X100982857Y-85386904D01*
X101020952Y-85348809D01*
X100982857Y-85310714D01*
X100982857Y-85386904D01*
X100678095Y-84586904D02*
X100182857Y-84586904D01*
X100449523Y-84891666D01*
X100335238Y-84891666D01*
X100259047Y-84929761D01*
X100220952Y-84967857D01*
X100182857Y-85044047D01*
X100182857Y-85234523D01*
X100220952Y-85310714D01*
X100259047Y-85348809D01*
X100335238Y-85386904D01*
X100563809Y-85386904D01*
X100640000Y-85348809D01*
X100678095Y-85310714D01*
X99954285Y-84586904D02*
X99687619Y-85386904D01*
X99420952Y-84586904D01*
D10*
X113860000Y-108315000D02*
X111200000Y-108315000D01*
X111200000Y-59995000D02*
X111200000Y-108315000D01*
X113860000Y-59995000D02*
X113860000Y-108315000D01*
X113860000Y-59995000D02*
X111200000Y-59995000D01*
X113860000Y-57395000D02*
X112530000Y-57395000D01*
X113860000Y-58725000D02*
X113860000Y-57395000D01*
X93420000Y-106985000D02*
X93420000Y-108315000D01*
X93420000Y-105715000D02*
X93420000Y-57395000D01*
X93420000Y-57395000D02*
X96080000Y-57395000D01*
X93420000Y-105715000D02*
X93420000Y-57395000D01*
X93420000Y-108315000D02*
X94750000Y-108315000D01*
X93420000Y-105715000D02*
X96080000Y-105715000D01*
X103391800Y-67639000D02*
G75*
G03*
X103391800Y-67639000I-700000J0D01*
G01*
X105169800Y-67664400D02*
G75*
G03*
X105169800Y-67664400I-700000J0D01*
G01*
X104340000Y-61225000D02*
G75*
G03*
X104340000Y-61225000I-700000J0D01*
G01*
X101104400Y-77413164D02*
X101104400Y-77628836D01*
X100384400Y-77413164D02*
X100384400Y-77628836D01*
X105790000Y-83725000D02*
G75*
G03*
X105790000Y-83725000I-700000J0D01*
G01*
X102090000Y-83425000D02*
G75*
G03*
X102090000Y-83425000I-700000J0D01*
G01*
%LPC*%
D13*
X100710000Y-63175000D03*
X106490000Y-63175000D03*
D14*
X107920000Y-63705000D03*
D15*
X107920000Y-59525000D03*
D14*
X99280000Y-63705000D03*
D15*
X99280000Y-59525000D03*
D16*
X108740000Y-101675000D03*
D17*
X108740000Y-104215000D03*
X108740000Y-106755000D03*
D18*
X99590000Y-102425000D03*
X101590000Y-102425000D03*
D19*
X114250000Y-58725000D03*
D16*
X112550000Y-58725000D03*
D17*
X112550000Y-61265000D03*
D19*
X114250000Y-61265000D03*
X114250000Y-63805000D03*
D16*
X112550000Y-63805000D03*
D19*
X114250000Y-66345000D03*
D17*
X112550000Y-66345000D03*
D19*
X114250000Y-68885000D03*
D17*
X112550000Y-68885000D03*
D19*
X114250000Y-71425000D03*
D17*
X112550000Y-71425000D03*
D19*
X114250000Y-73965000D03*
D17*
X112550000Y-73965000D03*
D19*
X114250000Y-76505000D03*
D16*
X112550000Y-76505000D03*
D17*
X112550000Y-79045000D03*
D19*
X114250000Y-79045000D03*
D17*
X112550000Y-81585000D03*
D19*
X114250000Y-81585000D03*
D17*
X112550000Y-84125000D03*
D19*
X114250000Y-84125000D03*
X114250000Y-86665000D03*
D17*
X112550000Y-86665000D03*
D16*
X112550000Y-89205000D03*
D19*
X114250000Y-89205000D03*
X114250000Y-91745000D03*
D17*
X112550000Y-91745000D03*
X112550000Y-94285000D03*
D19*
X114250000Y-94285000D03*
X114250000Y-96825000D03*
D17*
X112550000Y-96825000D03*
X112550000Y-99365000D03*
D19*
X114250000Y-99365000D03*
D16*
X112550000Y-101905000D03*
D19*
X114250000Y-101905000D03*
D17*
X112550000Y-104445000D03*
D19*
X114250000Y-104445000D03*
X114250000Y-106985000D03*
D17*
X112550000Y-106985000D03*
D20*
X94750000Y-106985000D03*
D19*
X93050000Y-106985000D03*
D17*
X94750000Y-104445000D03*
D19*
X93050000Y-104445000D03*
X93050000Y-101905000D03*
D16*
X94750000Y-101905000D03*
D17*
X94750000Y-99365000D03*
D19*
X93050000Y-99365000D03*
X93050000Y-96825000D03*
D17*
X94750000Y-96825000D03*
X94750000Y-94285000D03*
D19*
X93050000Y-94285000D03*
X93040000Y-91745000D03*
D17*
X94750000Y-91745000D03*
D16*
X94750000Y-89205000D03*
D19*
X93050000Y-89205000D03*
X93050000Y-86665000D03*
D17*
X94750000Y-86665000D03*
D19*
X93050000Y-84125000D03*
D17*
X94750000Y-84125000D03*
X94750000Y-81585000D03*
D19*
X93050000Y-81585000D03*
X93060000Y-79045000D03*
D17*
X94750000Y-79045000D03*
D19*
X93050000Y-76505000D03*
D16*
X94750000Y-76505000D03*
D19*
X93050000Y-73965000D03*
D17*
X94750000Y-73965000D03*
D19*
X93050000Y-71425000D03*
D17*
X94750000Y-71425000D03*
X94750000Y-68885000D03*
D19*
X93050000Y-68885000D03*
D17*
X94750000Y-66345000D03*
D19*
X93050000Y-66335000D03*
X93050000Y-63805000D03*
D16*
X94750000Y-63805000D03*
D19*
X93050000Y-61255000D03*
D17*
X94750000Y-61265000D03*
X94750000Y-58725000D03*
D19*
X93050000Y-58725000D03*
D21*
X102691800Y-67639000D03*
X104469800Y-67664400D03*
X103640000Y-61225000D03*
D22*
X100744400Y-77041000D03*
X100744400Y-78001000D03*
D23*
X105090000Y-83725000D03*
D24*
X101390000Y-83425000D03*
M02*
