M48
; DRILL file {KiCad (5.99.0-11630-gc5e195bdff)} date Mon Aug 23 20:37:22 2021
; FORMAT={-:-/ absolute / metric / decimal}
; #@! TF.CreationDate,2021-08-23T20:37:22+01:00
; #@! TF.GenerationSoftware,Kicad,Pcbnew,(5.99.0-11630-gc5e195bdff)
; #@! TF.FileFunction,Plated,1,2,PTH
FMAT,2
METRIC
; #@! TA.AperFunction,Plated,PTH,ViaDrill
T1C0.200
; #@! TA.AperFunction,Plated,PTH,ViaDrill
T2C0.350
; #@! TA.AperFunction,Plated,PTH,ComponentDrill
T3C0.350
; #@! TA.AperFunction,Plated,PTH,ComponentDrill
T4C0.600
; #@! TA.AperFunction,Plated,PTH,ComponentDrill
T5C0.750
; #@! TA.AperFunction,Plated,PTH,ComponentDrill
T6C1.000
%
G90
G05
T1
X95.73Y-100.465
X97.265Y-84.7
X99.99Y-70.075
X100.89Y-71.275
X101.39Y-83.425
X101.786Y-81.347
X102.53Y-93.165
X102.853Y-63.135
X103.361Y-63.491
X103.361Y-80.82
X103.869Y-63.135
X104.351Y-63.491
X104.351Y-71.314
X104.364Y-77.986
X105.335Y-77.984
X105.588Y-69.595
X105.733Y-81.397
X106.04Y-75.425
X106.434Y-72.94
X107.069Y-68.393
X107.911Y-72.313
X109.57Y-96.305
X110.041Y-81.626
X110.08Y-82.605
X110.22Y-91.415
X110.373Y-73.742
X110.676Y-84.776
X111.415Y-67.9
T2
X96.45Y-61.925
X96.477Y-87.265
X96.7Y-85.335
X97.725Y-81.875
X97.817Y-85.72
X98.411Y-85.262
X98.66Y-84.525
X100.059Y-82.261
X100.2Y-89.575
X100.375Y-64.62
X100.596Y-67.55
X101.17Y-76.206
X101.85Y-92.1
X104.284Y-90.88
X104.34Y-88.125
X105.065Y-83.725
X105.103Y-93.64
X106.459Y-78.426
X106.718Y-66.217
X106.825Y-64.62
X108.473Y-76.061
X108.5Y-90.125
X108.796Y-71.309
X109.1Y-92.189
X110.498Y-79.239
T3
X102.415Y-84.75
X102.415Y-86.025
X102.415Y-87.3
X103.69Y-84.75
X103.69Y-86.025
X103.69Y-87.3
X104.965Y-84.75
X104.965Y-86.025
X104.965Y-87.3
T5
X99.59Y-102.425
X101.59Y-102.425
T6
X93.04Y-91.745
X93.05Y-58.725
X93.05Y-61.255
X93.05Y-63.805
X93.05Y-66.335
X93.05Y-68.885
X93.05Y-71.425
X93.05Y-73.965
X93.05Y-76.505
X93.05Y-81.585
X93.05Y-84.125
X93.05Y-86.665
X93.05Y-89.205
X93.05Y-94.285
X93.05Y-96.825
X93.05Y-99.365
X93.05Y-101.905
X93.05Y-104.445
X93.05Y-106.985
X93.06Y-79.045
X94.75Y-58.725
X94.75Y-61.265
X94.75Y-63.805
X94.75Y-66.345
X94.75Y-68.885
X94.75Y-71.425
X94.75Y-73.965
X94.75Y-76.505
X94.75Y-79.045
X94.75Y-81.585
X94.75Y-84.125
X94.75Y-86.665
X94.75Y-89.205
X94.75Y-91.745
X94.75Y-94.285
X94.75Y-96.825
X94.75Y-99.365
X94.75Y-101.905
X94.75Y-104.445
X94.75Y-106.985
X108.74Y-101.675
X108.74Y-104.215
X108.74Y-106.755
X112.55Y-58.725
X112.55Y-61.265
X112.55Y-63.805
X112.55Y-66.345
X112.55Y-68.885
X112.55Y-71.425
X112.55Y-73.965
X112.55Y-76.505
X112.55Y-79.045
X112.55Y-81.585
X112.55Y-84.125
X112.55Y-86.665
X112.55Y-89.205
X112.55Y-91.745
X112.55Y-94.285
X112.55Y-96.825
X112.55Y-99.365
X112.55Y-101.905
X112.55Y-104.445
X112.55Y-106.985
X114.25Y-58.725
X114.25Y-61.265
X114.25Y-63.805
X114.25Y-66.345
X114.25Y-68.885
X114.25Y-71.425
X114.25Y-73.965
X114.25Y-76.505
X114.25Y-79.045
X114.25Y-81.585
X114.25Y-84.125
X114.25Y-86.665
X114.25Y-89.205
X114.25Y-91.745
X114.25Y-94.285
X114.25Y-96.825
X114.25Y-99.365
X114.25Y-101.905
X114.25Y-104.445
X114.25Y-106.985
T4
X99.28Y-59.825G85X99.28Y-59.225
G05
X99.28Y-64.255G85X99.28Y-63.155
G05
X107.92Y-59.825G85X107.92Y-59.225
G05
X107.92Y-64.255G85X107.92Y-63.155
G05
T0
M30
