%FSLAX45Y45*%
G04 Gerber Fmt 4.5, Leading zero omitted, Abs format (unit mm)*
G04 Created by KiCad (PCBNEW (5.99.0-11630-gc5e195bdff)) date 2021-08-23 20:37:22*
%MOMM*%
%LPD*%
G01*
G04 APERTURE LIST*
%TA.AperFunction,Profile*%
%ADD10C,0.050000*%
%TD*%
%ADD11C,0.200000*%
%ADD12C,0.065000*%
G04 APERTURE END LIST*
D10*
X11424000Y-10827500D02*
G75*
G02*
X11374000Y-10877500I-50000J0D01*
G01*
X9354000Y-5722500D02*
X11374000Y-5722500D01*
X11374000Y-5722500D02*
G75*
G02*
X11424000Y-5772500I0J-50000D01*
G01*
X9304000Y-10827500D02*
X9304000Y-5772500D01*
X9304000Y-5772500D02*
G75*
G02*
X9354000Y-5722500I50000J0D01*
G01*
X9354000Y-10877500D02*
G75*
G02*
X9304000Y-10827500I0J50000D01*
G01*
X9354000Y-10877500D02*
X11374000Y-10877500D01*
X11424000Y-10827500D02*
X11424000Y-5772500D01*
D11*
D12*
X10038500Y-6285000D02*
X10103500Y-6350000D01*
X10103500Y-6285000D02*
X10038500Y-6350000D01*
X10616500Y-6285000D02*
X10681500Y-6350000D01*
X10681500Y-6285000D02*
X10616500Y-6350000D01*
D11*
X9554119Y-11195476D02*
X9554119Y-10995476D01*
X9601738Y-10995476D01*
X9630310Y-11005000D01*
X9649357Y-11024048D01*
X9658881Y-11043095D01*
X9668405Y-11081190D01*
X9668405Y-11109762D01*
X9658881Y-11147857D01*
X9649357Y-11166905D01*
X9630310Y-11185952D01*
X9601738Y-11195476D01*
X9554119Y-11195476D01*
X9754119Y-11195476D02*
X9754119Y-11062143D01*
X9754119Y-11100238D02*
X9763643Y-11081190D01*
X9773167Y-11071667D01*
X9792214Y-11062143D01*
X9811262Y-11062143D01*
X9877929Y-11195476D02*
X9877929Y-11062143D01*
X9877929Y-10995476D02*
X9868405Y-11005000D01*
X9877929Y-11014524D01*
X9887452Y-11005000D01*
X9877929Y-10995476D01*
X9877929Y-11014524D01*
X10001738Y-11195476D02*
X9982690Y-11185952D01*
X9973167Y-11166905D01*
X9973167Y-10995476D01*
X10106500Y-11195476D02*
X10087452Y-11185952D01*
X10077929Y-11166905D01*
X10077929Y-10995476D01*
X10335071Y-11195476D02*
X10335071Y-10995476D01*
X10401738Y-11138333D01*
X10468405Y-10995476D01*
X10468405Y-11195476D01*
X10649357Y-11195476D02*
X10649357Y-11090714D01*
X10639833Y-11071667D01*
X10620786Y-11062143D01*
X10582690Y-11062143D01*
X10563643Y-11071667D01*
X10649357Y-11185952D02*
X10630310Y-11195476D01*
X10582690Y-11195476D01*
X10563643Y-11185952D01*
X10554119Y-11166905D01*
X10554119Y-11147857D01*
X10563643Y-11128810D01*
X10582690Y-11119286D01*
X10630310Y-11119286D01*
X10649357Y-11109762D01*
X10744595Y-11062143D02*
X10744595Y-11262143D01*
X10744595Y-11071667D02*
X10763643Y-11062143D01*
X10801738Y-11062143D01*
X10820786Y-11071667D01*
X10830310Y-11081190D01*
X10839833Y-11100238D01*
X10839833Y-11157381D01*
X10830310Y-11176429D01*
X10820786Y-11185952D01*
X10801738Y-11195476D01*
X10763643Y-11195476D01*
X10744595Y-11185952D01*
X10925548Y-11176429D02*
X10935071Y-11185952D01*
X10925548Y-11195476D01*
X10916024Y-11185952D01*
X10925548Y-11176429D01*
X10925548Y-11195476D01*
X10925548Y-11071667D02*
X10935071Y-11081190D01*
X10925548Y-11090714D01*
X10916024Y-11081190D01*
X10925548Y-11071667D01*
X10925548Y-11090714D01*
D12*
X9231500Y-11492500D02*
X9296500Y-11557500D01*
X9296500Y-11492500D02*
X9231500Y-11557500D01*
D11*
X9592214Y-11415476D02*
X9611262Y-11415476D01*
X9630310Y-11425000D01*
X9639833Y-11434524D01*
X9649357Y-11453571D01*
X9658881Y-11491667D01*
X9658881Y-11539286D01*
X9649357Y-11577381D01*
X9639833Y-11596428D01*
X9630310Y-11605952D01*
X9611262Y-11615476D01*
X9592214Y-11615476D01*
X9573167Y-11605952D01*
X9563643Y-11596428D01*
X9554119Y-11577381D01*
X9544595Y-11539286D01*
X9544595Y-11491667D01*
X9554119Y-11453571D01*
X9563643Y-11434524D01*
X9573167Y-11425000D01*
X9592214Y-11415476D01*
X9744595Y-11596428D02*
X9754119Y-11605952D01*
X9744595Y-11615476D01*
X9735071Y-11605952D01*
X9744595Y-11596428D01*
X9744595Y-11615476D01*
X9925548Y-11415476D02*
X9887452Y-11415476D01*
X9868405Y-11425000D01*
X9858881Y-11434524D01*
X9839833Y-11463095D01*
X9830310Y-11501190D01*
X9830310Y-11577381D01*
X9839833Y-11596428D01*
X9849357Y-11605952D01*
X9868405Y-11615476D01*
X9906500Y-11615476D01*
X9925548Y-11605952D01*
X9935071Y-11596428D01*
X9944595Y-11577381D01*
X9944595Y-11529762D01*
X9935071Y-11510714D01*
X9925548Y-11501190D01*
X9906500Y-11491667D01*
X9868405Y-11491667D01*
X9849357Y-11501190D01*
X9839833Y-11510714D01*
X9830310Y-11529762D01*
X10125548Y-11415476D02*
X10030310Y-11415476D01*
X10020786Y-11510714D01*
X10030310Y-11501190D01*
X10049357Y-11491667D01*
X10096976Y-11491667D01*
X10116024Y-11501190D01*
X10125548Y-11510714D01*
X10135071Y-11529762D01*
X10135071Y-11577381D01*
X10125548Y-11596428D01*
X10116024Y-11605952D01*
X10096976Y-11615476D01*
X10049357Y-11615476D01*
X10030310Y-11605952D01*
X10020786Y-11596428D01*
X10258881Y-11415476D02*
X10277929Y-11415476D01*
X10296976Y-11425000D01*
X10306500Y-11434524D01*
X10316024Y-11453571D01*
X10325548Y-11491667D01*
X10325548Y-11539286D01*
X10316024Y-11577381D01*
X10306500Y-11596428D01*
X10296976Y-11605952D01*
X10277929Y-11615476D01*
X10258881Y-11615476D01*
X10239833Y-11605952D01*
X10230310Y-11596428D01*
X10220786Y-11577381D01*
X10211262Y-11539286D01*
X10211262Y-11491667D01*
X10220786Y-11453571D01*
X10230310Y-11434524D01*
X10239833Y-11425000D01*
X10258881Y-11415476D01*
X10411262Y-11615476D02*
X10411262Y-11482143D01*
X10411262Y-11501190D02*
X10420786Y-11491667D01*
X10439833Y-11482143D01*
X10468405Y-11482143D01*
X10487452Y-11491667D01*
X10496976Y-11510714D01*
X10496976Y-11615476D01*
X10496976Y-11510714D02*
X10506500Y-11491667D01*
X10525548Y-11482143D01*
X10554119Y-11482143D01*
X10573167Y-11491667D01*
X10582690Y-11510714D01*
X10582690Y-11615476D01*
X10677929Y-11615476D02*
X10677929Y-11482143D01*
X10677929Y-11501190D02*
X10687452Y-11491667D01*
X10706500Y-11482143D01*
X10735071Y-11482143D01*
X10754119Y-11491667D01*
X10763643Y-11510714D01*
X10763643Y-11615476D01*
X10763643Y-11510714D02*
X10773167Y-11491667D01*
X10792214Y-11482143D01*
X10820786Y-11482143D01*
X10839833Y-11491667D01*
X10849357Y-11510714D01*
X10849357Y-11615476D01*
X11239833Y-11405952D02*
X11068405Y-11663095D01*
X11496976Y-11415476D02*
X11516024Y-11415476D01*
X11535071Y-11425000D01*
X11544595Y-11434524D01*
X11554119Y-11453571D01*
X11563643Y-11491667D01*
X11563643Y-11539286D01*
X11554119Y-11577381D01*
X11544595Y-11596428D01*
X11535071Y-11605952D01*
X11516024Y-11615476D01*
X11496976Y-11615476D01*
X11477928Y-11605952D01*
X11468405Y-11596428D01*
X11458881Y-11577381D01*
X11449357Y-11539286D01*
X11449357Y-11491667D01*
X11458881Y-11453571D01*
X11468405Y-11434524D01*
X11477928Y-11425000D01*
X11496976Y-11415476D01*
X11649357Y-11596428D02*
X11658881Y-11605952D01*
X11649357Y-11615476D01*
X11639833Y-11605952D01*
X11649357Y-11596428D01*
X11649357Y-11615476D01*
X11782690Y-11415476D02*
X11801738Y-11415476D01*
X11820786Y-11425000D01*
X11830309Y-11434524D01*
X11839833Y-11453571D01*
X11849357Y-11491667D01*
X11849357Y-11539286D01*
X11839833Y-11577381D01*
X11830309Y-11596428D01*
X11820786Y-11605952D01*
X11801738Y-11615476D01*
X11782690Y-11615476D01*
X11763643Y-11605952D01*
X11754119Y-11596428D01*
X11744595Y-11577381D01*
X11735071Y-11539286D01*
X11735071Y-11491667D01*
X11744595Y-11453571D01*
X11754119Y-11434524D01*
X11763643Y-11425000D01*
X11782690Y-11415476D01*
X11925548Y-11434524D02*
X11935071Y-11425000D01*
X11954119Y-11415476D01*
X12001738Y-11415476D01*
X12020786Y-11425000D01*
X12030309Y-11434524D01*
X12039833Y-11453571D01*
X12039833Y-11472619D01*
X12030309Y-11501190D01*
X11916024Y-11615476D01*
X12039833Y-11615476D01*
X12220786Y-11415476D02*
X12125548Y-11415476D01*
X12116024Y-11510714D01*
X12125548Y-11501190D01*
X12144595Y-11491667D01*
X12192214Y-11491667D01*
X12211262Y-11501190D01*
X12220786Y-11510714D01*
X12230309Y-11529762D01*
X12230309Y-11577381D01*
X12220786Y-11596428D01*
X12211262Y-11605952D01*
X12192214Y-11615476D01*
X12144595Y-11615476D01*
X12125548Y-11605952D01*
X12116024Y-11596428D01*
X12401738Y-11415476D02*
X12363643Y-11415476D01*
X12344595Y-11425000D01*
X12335071Y-11434524D01*
X12316024Y-11463095D01*
X12306500Y-11501190D01*
X12306500Y-11577381D01*
X12316024Y-11596428D01*
X12325548Y-11605952D01*
X12344595Y-11615476D01*
X12382690Y-11615476D01*
X12401738Y-11605952D01*
X12411262Y-11596428D01*
X12420786Y-11577381D01*
X12420786Y-11529762D01*
X12411262Y-11510714D01*
X12401738Y-11501190D01*
X12382690Y-11491667D01*
X12344595Y-11491667D01*
X12325548Y-11501190D01*
X12316024Y-11510714D01*
X12306500Y-11529762D01*
X12496976Y-11415476D02*
X12496976Y-11453571D01*
X12573167Y-11415476D02*
X12573167Y-11453571D01*
X12868405Y-11691667D02*
X12858881Y-11682143D01*
X12839833Y-11653571D01*
X12830309Y-11634524D01*
X12820786Y-11605952D01*
X12811262Y-11558333D01*
X12811262Y-11520238D01*
X12820786Y-11472619D01*
X12830309Y-11444048D01*
X12839833Y-11425000D01*
X12858881Y-11396428D01*
X12868405Y-11386905D01*
X12935071Y-11434524D02*
X12944595Y-11425000D01*
X12963643Y-11415476D01*
X13011262Y-11415476D01*
X13030309Y-11425000D01*
X13039833Y-11434524D01*
X13049357Y-11453571D01*
X13049357Y-11472619D01*
X13039833Y-11501190D01*
X12925548Y-11615476D01*
X13049357Y-11615476D01*
X13287452Y-11615476D02*
X13287452Y-11415476D01*
X13373167Y-11615476D02*
X13373167Y-11510714D01*
X13363643Y-11491667D01*
X13344595Y-11482143D01*
X13316024Y-11482143D01*
X13296976Y-11491667D01*
X13287452Y-11501190D01*
X13496976Y-11615476D02*
X13477928Y-11605952D01*
X13468405Y-11596428D01*
X13458881Y-11577381D01*
X13458881Y-11520238D01*
X13468405Y-11501190D01*
X13477928Y-11491667D01*
X13496976Y-11482143D01*
X13525548Y-11482143D01*
X13544595Y-11491667D01*
X13554119Y-11501190D01*
X13563643Y-11520238D01*
X13563643Y-11577381D01*
X13554119Y-11596428D01*
X13544595Y-11605952D01*
X13525548Y-11615476D01*
X13496976Y-11615476D01*
X13677928Y-11615476D02*
X13658881Y-11605952D01*
X13649357Y-11586905D01*
X13649357Y-11415476D01*
X13830309Y-11605952D02*
X13811262Y-11615476D01*
X13773167Y-11615476D01*
X13754119Y-11605952D01*
X13744595Y-11586905D01*
X13744595Y-11510714D01*
X13754119Y-11491667D01*
X13773167Y-11482143D01*
X13811262Y-11482143D01*
X13830309Y-11491667D01*
X13839833Y-11510714D01*
X13839833Y-11529762D01*
X13744595Y-11548809D01*
X13916024Y-11605952D02*
X13935071Y-11615476D01*
X13973167Y-11615476D01*
X13992214Y-11605952D01*
X14001738Y-11586905D01*
X14001738Y-11577381D01*
X13992214Y-11558333D01*
X13973167Y-11548809D01*
X13944595Y-11548809D01*
X13925548Y-11539286D01*
X13916024Y-11520238D01*
X13916024Y-11510714D01*
X13925548Y-11491667D01*
X13944595Y-11482143D01*
X13973167Y-11482143D01*
X13992214Y-11491667D01*
X14068405Y-11691667D02*
X14077928Y-11682143D01*
X14096976Y-11653571D01*
X14106500Y-11634524D01*
X14116024Y-11605952D01*
X14125548Y-11558333D01*
X14125548Y-11520238D01*
X14116024Y-11472619D01*
X14106500Y-11444048D01*
X14096976Y-11425000D01*
X14077928Y-11396428D01*
X14068405Y-11386905D01*
X14430309Y-11691667D02*
X14420786Y-11682143D01*
X14401738Y-11653571D01*
X14392214Y-11634524D01*
X14382690Y-11605952D01*
X14373167Y-11558333D01*
X14373167Y-11520238D01*
X14382690Y-11472619D01*
X14392214Y-11444048D01*
X14401738Y-11425000D01*
X14420786Y-11396428D01*
X14430309Y-11386905D01*
X14506500Y-11482143D02*
X14506500Y-11615476D01*
X14506500Y-11501190D02*
X14516024Y-11491667D01*
X14535071Y-11482143D01*
X14563643Y-11482143D01*
X14582690Y-11491667D01*
X14592214Y-11510714D01*
X14592214Y-11615476D01*
X14716024Y-11615476D02*
X14696976Y-11605952D01*
X14687452Y-11596428D01*
X14677928Y-11577381D01*
X14677928Y-11520238D01*
X14687452Y-11501190D01*
X14696976Y-11491667D01*
X14716024Y-11482143D01*
X14744595Y-11482143D01*
X14763643Y-11491667D01*
X14773167Y-11501190D01*
X14782690Y-11520238D01*
X14782690Y-11577381D01*
X14773167Y-11596428D01*
X14763643Y-11605952D01*
X14744595Y-11615476D01*
X14716024Y-11615476D01*
X14839833Y-11482143D02*
X14916024Y-11482143D01*
X14868405Y-11415476D02*
X14868405Y-11586905D01*
X14877928Y-11605952D01*
X14896976Y-11615476D01*
X14916024Y-11615476D01*
X15135071Y-11482143D02*
X15135071Y-11682143D01*
X15135071Y-11491667D02*
X15154119Y-11482143D01*
X15192214Y-11482143D01*
X15211262Y-11491667D01*
X15220786Y-11501190D01*
X15230309Y-11520238D01*
X15230309Y-11577381D01*
X15220786Y-11596428D01*
X15211262Y-11605952D01*
X15192214Y-11615476D01*
X15154119Y-11615476D01*
X15135071Y-11605952D01*
X15344595Y-11615476D02*
X15325548Y-11605952D01*
X15316024Y-11586905D01*
X15316024Y-11415476D01*
X15506500Y-11615476D02*
X15506500Y-11510714D01*
X15496976Y-11491667D01*
X15477928Y-11482143D01*
X15439833Y-11482143D01*
X15420786Y-11491667D01*
X15506500Y-11605952D02*
X15487452Y-11615476D01*
X15439833Y-11615476D01*
X15420786Y-11605952D01*
X15411262Y-11586905D01*
X15411262Y-11567857D01*
X15420786Y-11548809D01*
X15439833Y-11539286D01*
X15487452Y-11539286D01*
X15506500Y-11529762D01*
X15573167Y-11482143D02*
X15649357Y-11482143D01*
X15601738Y-11415476D02*
X15601738Y-11586905D01*
X15611262Y-11605952D01*
X15630309Y-11615476D01*
X15649357Y-11615476D01*
X15792214Y-11605952D02*
X15773167Y-11615476D01*
X15735071Y-11615476D01*
X15716024Y-11605952D01*
X15706500Y-11586905D01*
X15706500Y-11510714D01*
X15716024Y-11491667D01*
X15735071Y-11482143D01*
X15773167Y-11482143D01*
X15792214Y-11491667D01*
X15801738Y-11510714D01*
X15801738Y-11529762D01*
X15706500Y-11548809D01*
X15973167Y-11615476D02*
X15973167Y-11415476D01*
X15973167Y-11605952D02*
X15954119Y-11615476D01*
X15916024Y-11615476D01*
X15896976Y-11605952D01*
X15887452Y-11596428D01*
X15877928Y-11577381D01*
X15877928Y-11520238D01*
X15887452Y-11501190D01*
X15896976Y-11491667D01*
X15916024Y-11482143D01*
X15954119Y-11482143D01*
X15973167Y-11491667D01*
X16049357Y-11691667D02*
X16058881Y-11682143D01*
X16077928Y-11653571D01*
X16087452Y-11634524D01*
X16096976Y-11605952D01*
X16106500Y-11558333D01*
X16106500Y-11520238D01*
X16096976Y-11472619D01*
X16087452Y-11444048D01*
X16077928Y-11425000D01*
X16058881Y-11396428D01*
X16049357Y-11386905D01*
M02*
