G04 #@! TF.GenerationSoftware,KiCad,Pcbnew,(5.99.0-11630-gc5e195bdff)*
G04 #@! TF.CreationDate,2021-08-23T20:37:24+01:00*
G04 #@! TF.ProjectId,EnvPicoLiPo,456e7650-6963-46f4-9c69-506f2e6b6963,REV1*
G04 #@! TF.SameCoordinates,Original*
G04 #@! TF.FileFunction,Soldermask,Top*
G04 #@! TF.FilePolarity,Negative*
%FSLAX46Y46*%
G04 Gerber Fmt 4.6, Leading zero omitted, Abs format (unit mm)*
G04 Created by KiCad (PCBNEW (5.99.0-11630-gc5e195bdff)) date 2021-08-23 20:37:24*
%MOMM*%
%LPD*%
G01*
G04 APERTURE LIST*
G04 Aperture macros list*
%AMRoundRect*
0 Rectangle with rounded corners*
0 $1 Rounding radius*
0 $2 $3 $4 $5 $6 $7 $8 $9 X,Y pos of 4 corners*
0 Add a 4 corners polygon primitive as box body*
4,1,4,$2,$3,$4,$5,$6,$7,$8,$9,$2,$3,0*
0 Add four circle primitives for the rounded corners*
1,1,$1+$1,$2,$3*
1,1,$1+$1,$4,$5*
1,1,$1+$1,$6,$7*
1,1,$1+$1,$8,$9*
0 Add four rect primitives between the rounded corners*
20,1,$1+$1,$2,$3,$4,$5,0*
20,1,$1+$1,$4,$5,$6,$7,0*
20,1,$1+$1,$6,$7,$8,$9,0*
20,1,$1+$1,$8,$9,$2,$3,0*%
G04 Aperture macros list end*
%ADD10RoundRect,0.050000X-0.387500X-0.050000X0.387500X-0.050000X0.387500X0.050000X-0.387500X0.050000X0*%
%ADD11RoundRect,0.050000X-0.050000X-0.387500X0.050000X-0.387500X0.050000X0.387500X-0.050000X0.387500X0*%
%ADD12RoundRect,0.144000X-1.456000X-1.456000X1.456000X-1.456000X1.456000X1.456000X-1.456000X1.456000X0*%
%ADD13RoundRect,0.140000X-0.170000X0.140000X-0.170000X-0.140000X0.170000X-0.140000X0.170000X0.140000X0*%
%ADD14RoundRect,0.140000X0.170000X-0.140000X0.170000X0.140000X-0.170000X0.140000X-0.170000X-0.140000X0*%
%ADD15RoundRect,0.140000X0.140000X0.170000X-0.140000X0.170000X-0.140000X-0.170000X0.140000X-0.170000X0*%
%ADD16RoundRect,0.140000X-0.140000X-0.170000X0.140000X-0.170000X0.140000X0.170000X-0.140000X0.170000X0*%
%ADD17R,1.400000X1.150000*%
%ADD18C,0.650000*%
%ADD19R,0.600000X1.450000*%
%ADD20R,0.300000X1.450000*%
%ADD21RoundRect,0.135000X0.135000X0.185000X-0.135000X0.185000X-0.135000X-0.185000X0.135000X-0.185000X0*%
%ADD22RoundRect,0.087500X0.087500X-0.175000X0.087500X0.175000X-0.087500X0.175000X-0.087500X-0.175000X0*%
%ADD23R,1.600000X1.400000*%
%ADD24RoundRect,0.200000X-0.200000X-0.800000X0.200000X-0.800000X0.200000X0.800000X-0.200000X0.800000X0*%
%ADD25RoundRect,0.147500X-0.172500X0.147500X-0.172500X-0.147500X0.172500X-0.147500X0.172500X0.147500X0*%
%ADD26RoundRect,0.200000X-0.200000X-0.275000X0.200000X-0.275000X0.200000X0.275000X-0.200000X0.275000X0*%
%ADD27RoundRect,0.135000X0.185000X-0.135000X0.185000X0.135000X-0.185000X0.135000X-0.185000X-0.135000X0*%
%ADD28RoundRect,0.225000X0.225000X0.250000X-0.225000X0.250000X-0.225000X-0.250000X0.225000X-0.250000X0*%
%ADD29RoundRect,0.062500X-0.375000X-0.062500X0.375000X-0.062500X0.375000X0.062500X-0.375000X0.062500X0*%
%ADD30RoundRect,0.062500X-0.062500X-0.375000X0.062500X-0.375000X0.062500X0.375000X-0.062500X0.375000X0*%
%ADD31R,1.600000X1.600000*%
%ADD32RoundRect,0.218750X0.218750X0.381250X-0.218750X0.381250X-0.218750X-0.381250X0.218750X-0.381250X0*%
%ADD33R,0.650000X1.220000*%
%ADD34RoundRect,0.218750X0.256250X-0.218750X0.256250X0.218750X-0.256250X0.218750X-0.256250X-0.218750X0*%
%ADD35RoundRect,0.135000X-0.185000X0.135000X-0.185000X-0.135000X0.185000X-0.135000X0.185000X0.135000X0*%
%ADD36RoundRect,0.147500X0.147500X0.172500X-0.147500X0.172500X-0.147500X-0.172500X0.147500X-0.172500X0*%
%ADD37RoundRect,0.135000X-0.135000X-0.185000X0.135000X-0.185000X0.135000X0.185000X-0.135000X0.185000X0*%
%ADD38R,1.700000X1.700000*%
%ADD39O,1.700000X1.700000*%
%ADD40RoundRect,0.375000X-0.375000X-0.375000X0.375000X-0.375000X0.375000X0.375000X-0.375000X0.375000X0*%
%ADD41R,3.500000X1.700000*%
%ADD42C,1.700000*%
G04 APERTURE END LIST*
D10*
X100252500Y-83425000D03*
X100252500Y-83825000D03*
X100252500Y-84225000D03*
X100252500Y-84625000D03*
X100252500Y-85025000D03*
X100252500Y-85425000D03*
X100252500Y-85825000D03*
X100252500Y-86225000D03*
X100252500Y-86625000D03*
X100252500Y-87025000D03*
X100252500Y-87425000D03*
X100252500Y-87825000D03*
X100252500Y-88225000D03*
X100252500Y-88625000D03*
D11*
X101090000Y-89462500D03*
X101490000Y-89462500D03*
X101890000Y-89462500D03*
X102290000Y-89462500D03*
X102690000Y-89462500D03*
X103090000Y-89462500D03*
X103490000Y-89462500D03*
X103890000Y-89462500D03*
X104290000Y-89462500D03*
X104690000Y-89462500D03*
X105090000Y-89462500D03*
X105490000Y-89462500D03*
X105890000Y-89462500D03*
X106290000Y-89462500D03*
D10*
X107127500Y-88625000D03*
X107127500Y-88225000D03*
X107127500Y-87825000D03*
X107127500Y-87425000D03*
X107127500Y-87025000D03*
X107127500Y-86625000D03*
X107127500Y-86225000D03*
X107127500Y-85825000D03*
X107127500Y-85425000D03*
X107127500Y-85025000D03*
X107127500Y-84625000D03*
X107127500Y-84225000D03*
X107127500Y-83825000D03*
X107127500Y-83425000D03*
D11*
X106290000Y-82587500D03*
X105890000Y-82587500D03*
X105490000Y-82587500D03*
X105090000Y-82587500D03*
X104690000Y-82587500D03*
X104290000Y-82587500D03*
X103890000Y-82587500D03*
X103490000Y-82587500D03*
X103090000Y-82587500D03*
X102690000Y-82587500D03*
X102290000Y-82587500D03*
X101890000Y-82587500D03*
X101490000Y-82587500D03*
X101090000Y-82587500D03*
D12*
X103690000Y-86025000D03*
D13*
X105000000Y-91695000D03*
X105000000Y-92655000D03*
D14*
X103335200Y-80820400D03*
X103335200Y-79860400D03*
D15*
X99080000Y-82650000D03*
X98120000Y-82650000D03*
D14*
X98687000Y-77150100D03*
X98687000Y-76190100D03*
D13*
X105334760Y-77983960D03*
X105334760Y-78943960D03*
D16*
X109654840Y-87025680D03*
X110614840Y-87025680D03*
D13*
X103335200Y-91087200D03*
X103335200Y-92047200D03*
D15*
X98318640Y-87254280D03*
X97358640Y-87254280D03*
D14*
X105732960Y-81396980D03*
X105732960Y-80436980D03*
D13*
X104384760Y-77983960D03*
X104384760Y-78943960D03*
D15*
X100869560Y-93172600D03*
X99909560Y-93172600D03*
D17*
X102673200Y-94607800D03*
X100473200Y-94607800D03*
X100473200Y-96207800D03*
X102673200Y-96207800D03*
D18*
X100710000Y-63175000D03*
X106490000Y-63175000D03*
D19*
X106825000Y-64620000D03*
X106050000Y-64620000D03*
D20*
X105350000Y-64620000D03*
X104850000Y-64620000D03*
X104350000Y-64620000D03*
X103850000Y-64620000D03*
X103350000Y-64620000D03*
X102850000Y-64620000D03*
X102350000Y-64620000D03*
X101850000Y-64620000D03*
D19*
X101150000Y-64620000D03*
X100375000Y-64620000D03*
D21*
X109692280Y-85430560D03*
X108672280Y-85430560D03*
X103625000Y-66075000D03*
X102605000Y-66075000D03*
D22*
X99750560Y-80736360D03*
X100250560Y-80736360D03*
X100750560Y-80736360D03*
X101250560Y-80736360D03*
X101250560Y-78161360D03*
X100750560Y-78161360D03*
X100250560Y-78161360D03*
X99750560Y-78161360D03*
D23*
X100500560Y-79448860D03*
D14*
X104300400Y-80836400D03*
X104300400Y-79876400D03*
X99720780Y-77147560D03*
X99720780Y-76187560D03*
D24*
X97871000Y-74006000D03*
X102071000Y-74006000D03*
D25*
X110655480Y-84788080D03*
X110655480Y-85758080D03*
D26*
X108815000Y-79325000D03*
X110465000Y-79325000D03*
D21*
X110097900Y-80593000D03*
X109077900Y-80593000D03*
D14*
X106726100Y-81394440D03*
X106726100Y-80434440D03*
D16*
X109120600Y-82612300D03*
X110080600Y-82612300D03*
X109120600Y-81621700D03*
X110080600Y-81621700D03*
D15*
X103488300Y-93185300D03*
X102528300Y-93185300D03*
D27*
X105062400Y-67109000D03*
X105062400Y-66089000D03*
D28*
X110350200Y-71296600D03*
X108800200Y-71296600D03*
D29*
X104378500Y-69073400D03*
X104378500Y-69573400D03*
X104378500Y-70073400D03*
X104378500Y-70573400D03*
D30*
X105066000Y-71260900D03*
X105566000Y-71260900D03*
X106066000Y-71260900D03*
X106566000Y-71260900D03*
D29*
X107253500Y-70573400D03*
X107253500Y-70073400D03*
X107253500Y-69573400D03*
X107253500Y-69073400D03*
D30*
X106566000Y-68385900D03*
X106066000Y-68385900D03*
X105566000Y-68385900D03*
X105066000Y-68385900D03*
D31*
X105816000Y-69823400D03*
D32*
X110002500Y-77675000D03*
X107877500Y-77675000D03*
D21*
X106050000Y-75425000D03*
X105030000Y-75425000D03*
D33*
X110372800Y-73441000D03*
X109422800Y-73441000D03*
X108472800Y-73441000D03*
X108472800Y-76061000D03*
X110372800Y-76061000D03*
D34*
X110134000Y-61416100D03*
X110134000Y-59841100D03*
D14*
X108490000Y-68339600D03*
X108490000Y-67379600D03*
D35*
X110515000Y-67890000D03*
X110515000Y-68910000D03*
D16*
X102211800Y-69201100D03*
X103171800Y-69201100D03*
D36*
X106392300Y-74116000D03*
X105422300Y-74116000D03*
D21*
X104116200Y-67169100D03*
X103096200Y-67169100D03*
D37*
X102169100Y-68197800D03*
X103189100Y-68197800D03*
X103464500Y-74116000D03*
X104484500Y-74116000D03*
D15*
X107650600Y-79492800D03*
X106690600Y-79492800D03*
D38*
X108740000Y-101675000D03*
D39*
X108740000Y-104215000D03*
X108740000Y-106755000D03*
D40*
X99590000Y-102425000D03*
X101590000Y-102425000D03*
D41*
X114250000Y-58725000D03*
D38*
X112550000Y-58725000D03*
D39*
X112550000Y-61265000D03*
D41*
X114250000Y-61265000D03*
X114250000Y-63805000D03*
D38*
X112550000Y-63805000D03*
D41*
X114250000Y-66345000D03*
D39*
X112550000Y-66345000D03*
D41*
X114250000Y-68885000D03*
D39*
X112550000Y-68885000D03*
D41*
X114250000Y-71425000D03*
D39*
X112550000Y-71425000D03*
D41*
X114250000Y-73965000D03*
D39*
X112550000Y-73965000D03*
D41*
X114250000Y-76505000D03*
D38*
X112550000Y-76505000D03*
D39*
X112550000Y-79045000D03*
D41*
X114250000Y-79045000D03*
D39*
X112550000Y-81585000D03*
D41*
X114250000Y-81585000D03*
D39*
X112550000Y-84125000D03*
D41*
X114250000Y-84125000D03*
X114250000Y-86665000D03*
D39*
X112550000Y-86665000D03*
D38*
X112550000Y-89205000D03*
D41*
X114250000Y-89205000D03*
X114250000Y-91745000D03*
D39*
X112550000Y-91745000D03*
X112550000Y-94285000D03*
D41*
X114250000Y-94285000D03*
X114250000Y-96825000D03*
D39*
X112550000Y-96825000D03*
X112550000Y-99365000D03*
D41*
X114250000Y-99365000D03*
D38*
X112550000Y-101905000D03*
D41*
X114250000Y-101905000D03*
D39*
X112550000Y-104445000D03*
D41*
X114250000Y-104445000D03*
X114250000Y-106985000D03*
D39*
X112550000Y-106985000D03*
D42*
X94750000Y-106985000D03*
D41*
X93050000Y-106985000D03*
D39*
X94750000Y-104445000D03*
D41*
X93050000Y-104445000D03*
X93050000Y-101905000D03*
D38*
X94750000Y-101905000D03*
D39*
X94750000Y-99365000D03*
D41*
X93050000Y-99365000D03*
X93050000Y-96825000D03*
D39*
X94750000Y-96825000D03*
X94750000Y-94285000D03*
D41*
X93050000Y-94285000D03*
X93040000Y-91745000D03*
D39*
X94750000Y-91745000D03*
D38*
X94750000Y-89205000D03*
D41*
X93050000Y-89205000D03*
X93050000Y-86665000D03*
D39*
X94750000Y-86665000D03*
D41*
X93050000Y-84125000D03*
D39*
X94750000Y-84125000D03*
X94750000Y-81585000D03*
D41*
X93050000Y-81585000D03*
X93060000Y-79045000D03*
D39*
X94750000Y-79045000D03*
D41*
X93050000Y-76505000D03*
D38*
X94750000Y-76505000D03*
D41*
X93050000Y-73965000D03*
D39*
X94750000Y-73965000D03*
D41*
X93050000Y-71425000D03*
D39*
X94750000Y-71425000D03*
X94750000Y-68885000D03*
D41*
X93050000Y-68885000D03*
D39*
X94750000Y-66345000D03*
D41*
X93050000Y-66335000D03*
X93050000Y-63805000D03*
D38*
X94750000Y-63805000D03*
D41*
X93050000Y-61255000D03*
D39*
X94750000Y-61265000D03*
X94750000Y-58725000D03*
D41*
X93050000Y-58725000D03*
M02*
