%FSLAX45Y45*%
G04 Gerber Fmt 4.5, Leading zero omitted, Abs format (unit mm)*
G04 Created by KiCad (PCBNEW (5.99.0-11630-gc5e195bdff)) date 2021-08-23 20:37:22*
%MOMM*%
%LPD*%
G01*
G04 APERTURE LIST*
%TA.AperFunction,Profile*%
%ADD10C,0.050000*%
%TD*%
%ADD11C,0.200000*%
%ADD12C,0.020000*%
%ADD13C,0.035000*%
%ADD14C,0.060000*%
%ADD15C,0.075000*%
%ADD16C,0.100000*%
G04 APERTURE END LIST*
D10*
X11424000Y-10827500D02*
G75*
G02*
X11374000Y-10877500I-50000J0D01*
G01*
X9354000Y-5722500D02*
X11374000Y-5722500D01*
X11374000Y-5722500D02*
G75*
G02*
X11424000Y-5772500I0J-50000D01*
G01*
X9304000Y-10827500D02*
X9304000Y-5772500D01*
X9304000Y-5772500D02*
G75*
G02*
X9354000Y-5722500I50000J0D01*
G01*
X9354000Y-10877500D02*
G75*
G02*
X9304000Y-10827500I0J50000D01*
G01*
X9354000Y-10877500D02*
X11374000Y-10877500D01*
X11424000Y-10827500D02*
X11424000Y-5772500D01*
D11*
D12*
X9563000Y-10036500D02*
X9583000Y-10056500D01*
X9583000Y-10036500D02*
X9563000Y-10056500D01*
X9716500Y-8460000D02*
X9736500Y-8480000D01*
X9736500Y-8460000D02*
X9716500Y-8480000D01*
X9989000Y-6997500D02*
X10009000Y-7017500D01*
X10009000Y-6997500D02*
X9989000Y-7017500D01*
X10079000Y-7117500D02*
X10099000Y-7137500D01*
X10099000Y-7117500D02*
X10079000Y-7137500D01*
X10129000Y-8332500D02*
X10149000Y-8352500D01*
X10149000Y-8332500D02*
X10129000Y-8352500D01*
X10168580Y-8124700D02*
X10188580Y-8144700D01*
X10188580Y-8124700D02*
X10168580Y-8144700D01*
X10243000Y-9306500D02*
X10263000Y-9326500D01*
X10263000Y-9306500D02*
X10243000Y-9326500D01*
X10275260Y-6303520D02*
X10295260Y-6323520D01*
X10295260Y-6303520D02*
X10275260Y-6323520D01*
X10326060Y-6339080D02*
X10346060Y-6359080D01*
X10346060Y-6339080D02*
X10326060Y-6359080D01*
X10326060Y-8072044D02*
X10346060Y-8092044D01*
X10346060Y-8072044D02*
X10326060Y-8092044D01*
X10376860Y-6303520D02*
X10396860Y-6323520D01*
X10396860Y-6303520D02*
X10376860Y-6323520D01*
X10425120Y-6339080D02*
X10445120Y-6359080D01*
X10445120Y-6339080D02*
X10425120Y-6359080D01*
X10425120Y-7121400D02*
X10445120Y-7141400D01*
X10445120Y-7121400D02*
X10425120Y-7141400D01*
X10426390Y-7788582D02*
X10446390Y-7808582D01*
X10446390Y-7788582D02*
X10426390Y-7808582D01*
X10523473Y-7788396D02*
X10543473Y-7808396D01*
X10543473Y-7788396D02*
X10523473Y-7808396D01*
X10548760Y-6949500D02*
X10568760Y-6969500D01*
X10568760Y-6949500D02*
X10548760Y-6969500D01*
X10563296Y-8129699D02*
X10583296Y-8149699D01*
X10583296Y-8129699D02*
X10563296Y-8149699D01*
X10594000Y-7532500D02*
X10614000Y-7552500D01*
X10614000Y-7532500D02*
X10594000Y-7552500D01*
X10633400Y-7283960D02*
X10653400Y-7303960D01*
X10653400Y-7283960D02*
X10633400Y-7303960D01*
X10696900Y-6829300D02*
X10716900Y-6849300D01*
X10716900Y-6829300D02*
X10696900Y-6849300D01*
X10781150Y-7221260D02*
X10801150Y-7241260D01*
X10801150Y-7221260D02*
X10781150Y-7241260D01*
X10947000Y-9620500D02*
X10967000Y-9640500D01*
X10967000Y-9620500D02*
X10947000Y-9640500D01*
X10994080Y-8152640D02*
X11014080Y-8172640D01*
X11014080Y-8152640D02*
X10994080Y-8172640D01*
X10998000Y-8250500D02*
X11018000Y-8270500D01*
X11018000Y-8250500D02*
X10998000Y-8270500D01*
X11012000Y-9131500D02*
X11032000Y-9151500D01*
X11032000Y-9131500D02*
X11012000Y-9151500D01*
X11027280Y-7364220D02*
X11047280Y-7384220D01*
X11047280Y-7364220D02*
X11027280Y-7384220D01*
X11057580Y-8467600D02*
X11077580Y-8487600D01*
X11077580Y-8467600D02*
X11057580Y-8487600D01*
X11131500Y-6780000D02*
X11151500Y-6800000D01*
X11151500Y-6780000D02*
X11131500Y-6800000D01*
D13*
X9662500Y-6192500D02*
G75*
G03*
X9662500Y-6192500I-17500J0D01*
G01*
X9665220Y-8726520D02*
G75*
G03*
X9665220Y-8726520I-17500J0D01*
G01*
X9687500Y-8533500D02*
G75*
G03*
X9687500Y-8533500I-17500J0D01*
G01*
X9790000Y-8187500D02*
G75*
G03*
X9790000Y-8187500I-17500J0D01*
G01*
X9799194Y-8571999D02*
G75*
G03*
X9799194Y-8571999I-17500J0D01*
G01*
X9858593Y-8526207D02*
G75*
G03*
X9858593Y-8526207I-17500J0D01*
G01*
X9883500Y-8452500D02*
G75*
G03*
X9883500Y-8452500I-17500J0D01*
G01*
X10023360Y-8226140D02*
G75*
G03*
X10023360Y-8226140I-17500J0D01*
G01*
X10037500Y-8957500D02*
G75*
G03*
X10037500Y-8957500I-17500J0D01*
G01*
X10055000Y-6462000D02*
G75*
G03*
X10055000Y-6462000I-17500J0D01*
G01*
X10077130Y-6755010D02*
G75*
G03*
X10077130Y-6755010I-17500J0D01*
G01*
X10134500Y-7620640D02*
G75*
G03*
X10134500Y-7620640I-17500J0D01*
G01*
X10202500Y-9210000D02*
G75*
G03*
X10202500Y-9210000I-17500J0D01*
G01*
X10445927Y-9088028D02*
G75*
G03*
X10445927Y-9088028I-17500J0D01*
G01*
X10451500Y-8812500D02*
G75*
G03*
X10451500Y-8812500I-17500J0D01*
G01*
X10524000Y-8372500D02*
G75*
G03*
X10524000Y-8372500I-17500J0D01*
G01*
X10527804Y-9363984D02*
G75*
G03*
X10527804Y-9363984I-17500J0D01*
G01*
X10663440Y-7842600D02*
G75*
G03*
X10663440Y-7842600I-17500J0D01*
G01*
X10689270Y-6621660D02*
G75*
G03*
X10689270Y-6621660I-17500J0D01*
G01*
X10700000Y-6462000D02*
G75*
G03*
X10700000Y-6462000I-17500J0D01*
G01*
X10864780Y-7606101D02*
G75*
G03*
X10864780Y-7606101I-17500J0D01*
G01*
X10867500Y-9012500D02*
G75*
G03*
X10867500Y-9012500I-17500J0D01*
G01*
X10897120Y-7130930D02*
G75*
G03*
X10897120Y-7130930I-17500J0D01*
G01*
X10927500Y-9218900D02*
G75*
G03*
X10927500Y-9218900I-17500J0D01*
G01*
X11067300Y-7923880D02*
G75*
G03*
X11067300Y-7923880I-17500J0D01*
G01*
X10241500Y-8457500D02*
X10241500Y-8492500D01*
X10224000Y-8475000D02*
X10259000Y-8475000D01*
X10241500Y-8585000D02*
X10241500Y-8620000D01*
X10224000Y-8602500D02*
X10259000Y-8602500D01*
X10241500Y-8712500D02*
X10241500Y-8747500D01*
X10224000Y-8730000D02*
X10259000Y-8730000D01*
X10369000Y-8457500D02*
X10369000Y-8492500D01*
X10351500Y-8475000D02*
X10386500Y-8475000D01*
X10369000Y-8585000D02*
X10369000Y-8620000D01*
X10351500Y-8602500D02*
X10386500Y-8602500D01*
X10369000Y-8712500D02*
X10369000Y-8747500D01*
X10351500Y-8730000D02*
X10386500Y-8730000D01*
X10496500Y-8457500D02*
X10496500Y-8492500D01*
X10479000Y-8475000D02*
X10514000Y-8475000D01*
X10496500Y-8585000D02*
X10496500Y-8620000D01*
X10479000Y-8602500D02*
X10514000Y-8602500D01*
X10496500Y-8712500D02*
X10496500Y-8747500D01*
X10479000Y-8730000D02*
X10514000Y-8730000D01*
D14*
X9949213Y-5973713D02*
X9949213Y-5931287D01*
X9906787Y-5931287D01*
X9906787Y-5973713D01*
X9949213Y-5973713D01*
D11*
X9948000Y-5982500D02*
X9948000Y-5922500D01*
X9908000Y-5982500D02*
X9908000Y-5922500D01*
X9948000Y-5922500D02*
G75*
G03*
X9908000Y-5922500I-20000J0D01*
G01*
X9908000Y-5982500D02*
G75*
G03*
X9948000Y-5982500I20000J0D01*
G01*
D14*
X9949213Y-6391713D02*
X9949213Y-6349287D01*
X9906787Y-6349287D01*
X9906787Y-6391713D01*
X9949213Y-6391713D01*
D11*
X9948000Y-6425500D02*
X9948000Y-6315500D01*
X9908000Y-6425500D02*
X9908000Y-6315500D01*
X9948000Y-6315500D02*
G75*
G03*
X9908000Y-6315500I-20000J0D01*
G01*
X9908000Y-6425500D02*
G75*
G03*
X9948000Y-6425500I20000J0D01*
G01*
D14*
X10813213Y-5973713D02*
X10813213Y-5931287D01*
X10770787Y-5931287D01*
X10770787Y-5973713D01*
X10813213Y-5973713D01*
D11*
X10812000Y-5982500D02*
X10812000Y-5922500D01*
X10772000Y-5982500D02*
X10772000Y-5922500D01*
X10812000Y-5922500D02*
G75*
G03*
X10772000Y-5922500I-20000J0D01*
G01*
X10772000Y-5982500D02*
G75*
G03*
X10812000Y-5982500I20000J0D01*
G01*
D14*
X10813213Y-6391713D02*
X10813213Y-6349287D01*
X10770787Y-6349287D01*
X10770787Y-6391713D01*
X10813213Y-6391713D01*
D11*
X10812000Y-6425500D02*
X10812000Y-6315500D01*
X10772000Y-6425500D02*
X10772000Y-6315500D01*
X10812000Y-6315500D02*
G75*
G03*
X10772000Y-6315500I-20000J0D01*
G01*
X10772000Y-6425500D02*
G75*
G03*
X10812000Y-6425500I20000J0D01*
G01*
D15*
X9959000Y-10280000D02*
X9996500Y-10242500D01*
X9959000Y-10205000D01*
X9921500Y-10242500D01*
X9959000Y-10280000D01*
X10159000Y-10280000D02*
X10196500Y-10242500D01*
X10159000Y-10205000D01*
X10121500Y-10242500D01*
X10159000Y-10280000D01*
D16*
X9254000Y-9124500D02*
X9354000Y-9224500D01*
X9354000Y-9124500D02*
X9254000Y-9224500D01*
X9354000Y-9174500D02*
G75*
G03*
X9354000Y-9174500I-50000J0D01*
G01*
X9255000Y-5822500D02*
X9355000Y-5922500D01*
X9355000Y-5822500D02*
X9255000Y-5922500D01*
X9355000Y-5872500D02*
G75*
G03*
X9355000Y-5872500I-50000J0D01*
G01*
X9255000Y-6075500D02*
X9355000Y-6175500D01*
X9355000Y-6075500D02*
X9255000Y-6175500D01*
X9355000Y-6125500D02*
G75*
G03*
X9355000Y-6125500I-50000J0D01*
G01*
X9255000Y-6330500D02*
X9355000Y-6430500D01*
X9355000Y-6330500D02*
X9255000Y-6430500D01*
X9355000Y-6380500D02*
G75*
G03*
X9355000Y-6380500I-50000J0D01*
G01*
X9255000Y-6583500D02*
X9355000Y-6683500D01*
X9355000Y-6583500D02*
X9255000Y-6683500D01*
X9355000Y-6633500D02*
G75*
G03*
X9355000Y-6633500I-50000J0D01*
G01*
X9255000Y-6838500D02*
X9355000Y-6938500D01*
X9355000Y-6838500D02*
X9255000Y-6938500D01*
X9355000Y-6888500D02*
G75*
G03*
X9355000Y-6888500I-50000J0D01*
G01*
X9255000Y-7092500D02*
X9355000Y-7192500D01*
X9355000Y-7092500D02*
X9255000Y-7192500D01*
X9355000Y-7142500D02*
G75*
G03*
X9355000Y-7142500I-50000J0D01*
G01*
X9255000Y-7346500D02*
X9355000Y-7446500D01*
X9355000Y-7346500D02*
X9255000Y-7446500D01*
X9355000Y-7396500D02*
G75*
G03*
X9355000Y-7396500I-50000J0D01*
G01*
X9255000Y-7600500D02*
X9355000Y-7700500D01*
X9355000Y-7600500D02*
X9255000Y-7700500D01*
X9355000Y-7650500D02*
G75*
G03*
X9355000Y-7650500I-50000J0D01*
G01*
X9255000Y-8108500D02*
X9355000Y-8208500D01*
X9355000Y-8108500D02*
X9255000Y-8208500D01*
X9355000Y-8158500D02*
G75*
G03*
X9355000Y-8158500I-50000J0D01*
G01*
X9255000Y-8362500D02*
X9355000Y-8462500D01*
X9355000Y-8362500D02*
X9255000Y-8462500D01*
X9355000Y-8412500D02*
G75*
G03*
X9355000Y-8412500I-50000J0D01*
G01*
X9255000Y-8616500D02*
X9355000Y-8716500D01*
X9355000Y-8616500D02*
X9255000Y-8716500D01*
X9355000Y-8666500D02*
G75*
G03*
X9355000Y-8666500I-50000J0D01*
G01*
X9255000Y-8870500D02*
X9355000Y-8970500D01*
X9355000Y-8870500D02*
X9255000Y-8970500D01*
X9355000Y-8920500D02*
G75*
G03*
X9355000Y-8920500I-50000J0D01*
G01*
X9255000Y-9378500D02*
X9355000Y-9478500D01*
X9355000Y-9378500D02*
X9255000Y-9478500D01*
X9355000Y-9428500D02*
G75*
G03*
X9355000Y-9428500I-50000J0D01*
G01*
X9255000Y-9632500D02*
X9355000Y-9732500D01*
X9355000Y-9632500D02*
X9255000Y-9732500D01*
X9355000Y-9682500D02*
G75*
G03*
X9355000Y-9682500I-50000J0D01*
G01*
X9255000Y-9886500D02*
X9355000Y-9986500D01*
X9355000Y-9886500D02*
X9255000Y-9986500D01*
X9355000Y-9936500D02*
G75*
G03*
X9355000Y-9936500I-50000J0D01*
G01*
X9255000Y-10140500D02*
X9355000Y-10240500D01*
X9355000Y-10140500D02*
X9255000Y-10240500D01*
X9355000Y-10190500D02*
G75*
G03*
X9355000Y-10190500I-50000J0D01*
G01*
X9255000Y-10394500D02*
X9355000Y-10494500D01*
X9355000Y-10394500D02*
X9255000Y-10494500D01*
X9355000Y-10444500D02*
G75*
G03*
X9355000Y-10444500I-50000J0D01*
G01*
X9255000Y-10648500D02*
X9355000Y-10748500D01*
X9355000Y-10648500D02*
X9255000Y-10748500D01*
X9355000Y-10698500D02*
G75*
G03*
X9355000Y-10698500I-50000J0D01*
G01*
X9256000Y-7854500D02*
X9356000Y-7954500D01*
X9356000Y-7854500D02*
X9256000Y-7954500D01*
X9356000Y-7904500D02*
G75*
G03*
X9356000Y-7904500I-50000J0D01*
G01*
X9425000Y-5822500D02*
X9525000Y-5922500D01*
X9525000Y-5822500D02*
X9425000Y-5922500D01*
X9525000Y-5872500D02*
G75*
G03*
X9525000Y-5872500I-50000J0D01*
G01*
X9425000Y-6076500D02*
X9525000Y-6176500D01*
X9525000Y-6076500D02*
X9425000Y-6176500D01*
X9525000Y-6126500D02*
G75*
G03*
X9525000Y-6126500I-50000J0D01*
G01*
X9425000Y-6330500D02*
X9525000Y-6430500D01*
X9525000Y-6330500D02*
X9425000Y-6430500D01*
X9525000Y-6380500D02*
G75*
G03*
X9525000Y-6380500I-50000J0D01*
G01*
X9425000Y-6584500D02*
X9525000Y-6684500D01*
X9525000Y-6584500D02*
X9425000Y-6684500D01*
X9525000Y-6634500D02*
G75*
G03*
X9525000Y-6634500I-50000J0D01*
G01*
X9425000Y-6838500D02*
X9525000Y-6938500D01*
X9525000Y-6838500D02*
X9425000Y-6938500D01*
X9525000Y-6888500D02*
G75*
G03*
X9525000Y-6888500I-50000J0D01*
G01*
X9425000Y-7092500D02*
X9525000Y-7192500D01*
X9525000Y-7092500D02*
X9425000Y-7192500D01*
X9525000Y-7142500D02*
G75*
G03*
X9525000Y-7142500I-50000J0D01*
G01*
X9425000Y-7346500D02*
X9525000Y-7446500D01*
X9525000Y-7346500D02*
X9425000Y-7446500D01*
X9525000Y-7396500D02*
G75*
G03*
X9525000Y-7396500I-50000J0D01*
G01*
X9425000Y-7600500D02*
X9525000Y-7700500D01*
X9525000Y-7600500D02*
X9425000Y-7700500D01*
X9525000Y-7650500D02*
G75*
G03*
X9525000Y-7650500I-50000J0D01*
G01*
X9425000Y-7854500D02*
X9525000Y-7954500D01*
X9525000Y-7854500D02*
X9425000Y-7954500D01*
X9525000Y-7904500D02*
G75*
G03*
X9525000Y-7904500I-50000J0D01*
G01*
X9425000Y-8108500D02*
X9525000Y-8208500D01*
X9525000Y-8108500D02*
X9425000Y-8208500D01*
X9525000Y-8158500D02*
G75*
G03*
X9525000Y-8158500I-50000J0D01*
G01*
X9425000Y-8362500D02*
X9525000Y-8462500D01*
X9525000Y-8362500D02*
X9425000Y-8462500D01*
X9525000Y-8412500D02*
G75*
G03*
X9525000Y-8412500I-50000J0D01*
G01*
X9425000Y-8616500D02*
X9525000Y-8716500D01*
X9525000Y-8616500D02*
X9425000Y-8716500D01*
X9525000Y-8666500D02*
G75*
G03*
X9525000Y-8666500I-50000J0D01*
G01*
X9425000Y-8870500D02*
X9525000Y-8970500D01*
X9525000Y-8870500D02*
X9425000Y-8970500D01*
X9525000Y-8920500D02*
G75*
G03*
X9525000Y-8920500I-50000J0D01*
G01*
X9425000Y-9124500D02*
X9525000Y-9224500D01*
X9525000Y-9124500D02*
X9425000Y-9224500D01*
X9525000Y-9174500D02*
G75*
G03*
X9525000Y-9174500I-50000J0D01*
G01*
X9425000Y-9378500D02*
X9525000Y-9478500D01*
X9525000Y-9378500D02*
X9425000Y-9478500D01*
X9525000Y-9428500D02*
G75*
G03*
X9525000Y-9428500I-50000J0D01*
G01*
X9425000Y-9632500D02*
X9525000Y-9732500D01*
X9525000Y-9632500D02*
X9425000Y-9732500D01*
X9525000Y-9682500D02*
G75*
G03*
X9525000Y-9682500I-50000J0D01*
G01*
X9425000Y-9886500D02*
X9525000Y-9986500D01*
X9525000Y-9886500D02*
X9425000Y-9986500D01*
X9525000Y-9936500D02*
G75*
G03*
X9525000Y-9936500I-50000J0D01*
G01*
X9425000Y-10140500D02*
X9525000Y-10240500D01*
X9525000Y-10140500D02*
X9425000Y-10240500D01*
X9525000Y-10190500D02*
G75*
G03*
X9525000Y-10190500I-50000J0D01*
G01*
X9425000Y-10394500D02*
X9525000Y-10494500D01*
X9525000Y-10394500D02*
X9425000Y-10494500D01*
X9525000Y-10444500D02*
G75*
G03*
X9525000Y-10444500I-50000J0D01*
G01*
X9425000Y-10648500D02*
X9525000Y-10748500D01*
X9525000Y-10648500D02*
X9425000Y-10748500D01*
X9525000Y-10698500D02*
G75*
G03*
X9525000Y-10698500I-50000J0D01*
G01*
X10824000Y-10117500D02*
X10924000Y-10217500D01*
X10924000Y-10117500D02*
X10824000Y-10217500D01*
X10924000Y-10167500D02*
G75*
G03*
X10924000Y-10167500I-50000J0D01*
G01*
X10824000Y-10371500D02*
X10924000Y-10471500D01*
X10924000Y-10371500D02*
X10824000Y-10471500D01*
X10924000Y-10421500D02*
G75*
G03*
X10924000Y-10421500I-50000J0D01*
G01*
X10824000Y-10625500D02*
X10924000Y-10725500D01*
X10924000Y-10625500D02*
X10824000Y-10725500D01*
X10924000Y-10675500D02*
G75*
G03*
X10924000Y-10675500I-50000J0D01*
G01*
X11205000Y-5822500D02*
X11305000Y-5922500D01*
X11305000Y-5822500D02*
X11205000Y-5922500D01*
X11305000Y-5872500D02*
G75*
G03*
X11305000Y-5872500I-50000J0D01*
G01*
X11205000Y-6076500D02*
X11305000Y-6176500D01*
X11305000Y-6076500D02*
X11205000Y-6176500D01*
X11305000Y-6126500D02*
G75*
G03*
X11305000Y-6126500I-50000J0D01*
G01*
X11205000Y-6330500D02*
X11305000Y-6430500D01*
X11305000Y-6330500D02*
X11205000Y-6430500D01*
X11305000Y-6380500D02*
G75*
G03*
X11305000Y-6380500I-50000J0D01*
G01*
X11205000Y-6584500D02*
X11305000Y-6684500D01*
X11305000Y-6584500D02*
X11205000Y-6684500D01*
X11305000Y-6634500D02*
G75*
G03*
X11305000Y-6634500I-50000J0D01*
G01*
X11205000Y-6838500D02*
X11305000Y-6938500D01*
X11305000Y-6838500D02*
X11205000Y-6938500D01*
X11305000Y-6888500D02*
G75*
G03*
X11305000Y-6888500I-50000J0D01*
G01*
X11205000Y-7092500D02*
X11305000Y-7192500D01*
X11305000Y-7092500D02*
X11205000Y-7192500D01*
X11305000Y-7142500D02*
G75*
G03*
X11305000Y-7142500I-50000J0D01*
G01*
X11205000Y-7346500D02*
X11305000Y-7446500D01*
X11305000Y-7346500D02*
X11205000Y-7446500D01*
X11305000Y-7396500D02*
G75*
G03*
X11305000Y-7396500I-50000J0D01*
G01*
X11205000Y-7600500D02*
X11305000Y-7700500D01*
X11305000Y-7600500D02*
X11205000Y-7700500D01*
X11305000Y-7650500D02*
G75*
G03*
X11305000Y-7650500I-50000J0D01*
G01*
X11205000Y-7854500D02*
X11305000Y-7954500D01*
X11305000Y-7854500D02*
X11205000Y-7954500D01*
X11305000Y-7904500D02*
G75*
G03*
X11305000Y-7904500I-50000J0D01*
G01*
X11205000Y-8108500D02*
X11305000Y-8208500D01*
X11305000Y-8108500D02*
X11205000Y-8208500D01*
X11305000Y-8158500D02*
G75*
G03*
X11305000Y-8158500I-50000J0D01*
G01*
X11205000Y-8362500D02*
X11305000Y-8462500D01*
X11305000Y-8362500D02*
X11205000Y-8462500D01*
X11305000Y-8412500D02*
G75*
G03*
X11305000Y-8412500I-50000J0D01*
G01*
X11205000Y-8616500D02*
X11305000Y-8716500D01*
X11305000Y-8616500D02*
X11205000Y-8716500D01*
X11305000Y-8666500D02*
G75*
G03*
X11305000Y-8666500I-50000J0D01*
G01*
X11205000Y-8870500D02*
X11305000Y-8970500D01*
X11305000Y-8870500D02*
X11205000Y-8970500D01*
X11305000Y-8920500D02*
G75*
G03*
X11305000Y-8920500I-50000J0D01*
G01*
X11205000Y-9124500D02*
X11305000Y-9224500D01*
X11305000Y-9124500D02*
X11205000Y-9224500D01*
X11305000Y-9174500D02*
G75*
G03*
X11305000Y-9174500I-50000J0D01*
G01*
X11205000Y-9378500D02*
X11305000Y-9478500D01*
X11305000Y-9378500D02*
X11205000Y-9478500D01*
X11305000Y-9428500D02*
G75*
G03*
X11305000Y-9428500I-50000J0D01*
G01*
X11205000Y-9632500D02*
X11305000Y-9732500D01*
X11305000Y-9632500D02*
X11205000Y-9732500D01*
X11305000Y-9682500D02*
G75*
G03*
X11305000Y-9682500I-50000J0D01*
G01*
X11205000Y-9886500D02*
X11305000Y-9986500D01*
X11305000Y-9886500D02*
X11205000Y-9986500D01*
X11305000Y-9936500D02*
G75*
G03*
X11305000Y-9936500I-50000J0D01*
G01*
X11205000Y-10140500D02*
X11305000Y-10240500D01*
X11305000Y-10140500D02*
X11205000Y-10240500D01*
X11305000Y-10190500D02*
G75*
G03*
X11305000Y-10190500I-50000J0D01*
G01*
X11205000Y-10394500D02*
X11305000Y-10494500D01*
X11305000Y-10394500D02*
X11205000Y-10494500D01*
X11305000Y-10444500D02*
G75*
G03*
X11305000Y-10444500I-50000J0D01*
G01*
X11205000Y-10648500D02*
X11305000Y-10748500D01*
X11305000Y-10648500D02*
X11205000Y-10748500D01*
X11305000Y-10698500D02*
G75*
G03*
X11305000Y-10698500I-50000J0D01*
G01*
X11375000Y-5822500D02*
X11475000Y-5922500D01*
X11475000Y-5822500D02*
X11375000Y-5922500D01*
X11475000Y-5872500D02*
G75*
G03*
X11475000Y-5872500I-50000J0D01*
G01*
X11375000Y-6076500D02*
X11475000Y-6176500D01*
X11475000Y-6076500D02*
X11375000Y-6176500D01*
X11475000Y-6126500D02*
G75*
G03*
X11475000Y-6126500I-50000J0D01*
G01*
X11375000Y-6330500D02*
X11475000Y-6430500D01*
X11475000Y-6330500D02*
X11375000Y-6430500D01*
X11475000Y-6380500D02*
G75*
G03*
X11475000Y-6380500I-50000J0D01*
G01*
X11375000Y-6584500D02*
X11475000Y-6684500D01*
X11475000Y-6584500D02*
X11375000Y-6684500D01*
X11475000Y-6634500D02*
G75*
G03*
X11475000Y-6634500I-50000J0D01*
G01*
X11375000Y-6838500D02*
X11475000Y-6938500D01*
X11475000Y-6838500D02*
X11375000Y-6938500D01*
X11475000Y-6888500D02*
G75*
G03*
X11475000Y-6888500I-50000J0D01*
G01*
X11375000Y-7092500D02*
X11475000Y-7192500D01*
X11475000Y-7092500D02*
X11375000Y-7192500D01*
X11475000Y-7142500D02*
G75*
G03*
X11475000Y-7142500I-50000J0D01*
G01*
X11375000Y-7346500D02*
X11475000Y-7446500D01*
X11475000Y-7346500D02*
X11375000Y-7446500D01*
X11475000Y-7396500D02*
G75*
G03*
X11475000Y-7396500I-50000J0D01*
G01*
X11375000Y-7600500D02*
X11475000Y-7700500D01*
X11475000Y-7600500D02*
X11375000Y-7700500D01*
X11475000Y-7650500D02*
G75*
G03*
X11475000Y-7650500I-50000J0D01*
G01*
X11375000Y-7854500D02*
X11475000Y-7954500D01*
X11475000Y-7854500D02*
X11375000Y-7954500D01*
X11475000Y-7904500D02*
G75*
G03*
X11475000Y-7904500I-50000J0D01*
G01*
X11375000Y-8108500D02*
X11475000Y-8208500D01*
X11475000Y-8108500D02*
X11375000Y-8208500D01*
X11475000Y-8158500D02*
G75*
G03*
X11475000Y-8158500I-50000J0D01*
G01*
X11375000Y-8362500D02*
X11475000Y-8462500D01*
X11475000Y-8362500D02*
X11375000Y-8462500D01*
X11475000Y-8412500D02*
G75*
G03*
X11475000Y-8412500I-50000J0D01*
G01*
X11375000Y-8616500D02*
X11475000Y-8716500D01*
X11475000Y-8616500D02*
X11375000Y-8716500D01*
X11475000Y-8666500D02*
G75*
G03*
X11475000Y-8666500I-50000J0D01*
G01*
X11375000Y-8870500D02*
X11475000Y-8970500D01*
X11475000Y-8870500D02*
X11375000Y-8970500D01*
X11475000Y-8920500D02*
G75*
G03*
X11475000Y-8920500I-50000J0D01*
G01*
X11375000Y-9124500D02*
X11475000Y-9224500D01*
X11475000Y-9124500D02*
X11375000Y-9224500D01*
X11475000Y-9174500D02*
G75*
G03*
X11475000Y-9174500I-50000J0D01*
G01*
X11375000Y-9378500D02*
X11475000Y-9478500D01*
X11475000Y-9378500D02*
X11375000Y-9478500D01*
X11475000Y-9428500D02*
G75*
G03*
X11475000Y-9428500I-50000J0D01*
G01*
X11375000Y-9632500D02*
X11475000Y-9732500D01*
X11475000Y-9632500D02*
X11375000Y-9732500D01*
X11475000Y-9682500D02*
G75*
G03*
X11475000Y-9682500I-50000J0D01*
G01*
X11375000Y-9886500D02*
X11475000Y-9986500D01*
X11475000Y-9886500D02*
X11375000Y-9986500D01*
X11475000Y-9936500D02*
G75*
G03*
X11475000Y-9936500I-50000J0D01*
G01*
X11375000Y-10140500D02*
X11475000Y-10240500D01*
X11475000Y-10140500D02*
X11375000Y-10240500D01*
X11475000Y-10190500D02*
G75*
G03*
X11475000Y-10190500I-50000J0D01*
G01*
X11375000Y-10394500D02*
X11475000Y-10494500D01*
X11475000Y-10394500D02*
X11375000Y-10494500D01*
X11475000Y-10444500D02*
G75*
G03*
X11475000Y-10444500I-50000J0D01*
G01*
X11375000Y-10648500D02*
X11475000Y-10748500D01*
X11475000Y-10648500D02*
X11375000Y-10748500D01*
X11475000Y-10698500D02*
G75*
G03*
X11475000Y-10698500I-50000J0D01*
G01*
D11*
X9554119Y-11195476D02*
X9554119Y-10995476D01*
X9601738Y-10995476D01*
X9630310Y-11005000D01*
X9649357Y-11024048D01*
X9658881Y-11043095D01*
X9668405Y-11081190D01*
X9668405Y-11109762D01*
X9658881Y-11147857D01*
X9649357Y-11166905D01*
X9630310Y-11185952D01*
X9601738Y-11195476D01*
X9554119Y-11195476D01*
X9754119Y-11195476D02*
X9754119Y-11062143D01*
X9754119Y-11100238D02*
X9763643Y-11081190D01*
X9773167Y-11071667D01*
X9792214Y-11062143D01*
X9811262Y-11062143D01*
X9877929Y-11195476D02*
X9877929Y-11062143D01*
X9877929Y-10995476D02*
X9868405Y-11005000D01*
X9877929Y-11014524D01*
X9887452Y-11005000D01*
X9877929Y-10995476D01*
X9877929Y-11014524D01*
X10001738Y-11195476D02*
X9982690Y-11185952D01*
X9973167Y-11166905D01*
X9973167Y-10995476D01*
X10106500Y-11195476D02*
X10087452Y-11185952D01*
X10077929Y-11166905D01*
X10077929Y-10995476D01*
X10335071Y-11195476D02*
X10335071Y-10995476D01*
X10401738Y-11138333D01*
X10468405Y-10995476D01*
X10468405Y-11195476D01*
X10649357Y-11195476D02*
X10649357Y-11090714D01*
X10639833Y-11071667D01*
X10620786Y-11062143D01*
X10582690Y-11062143D01*
X10563643Y-11071667D01*
X10649357Y-11185952D02*
X10630310Y-11195476D01*
X10582690Y-11195476D01*
X10563643Y-11185952D01*
X10554119Y-11166905D01*
X10554119Y-11147857D01*
X10563643Y-11128810D01*
X10582690Y-11119286D01*
X10630310Y-11119286D01*
X10649357Y-11109762D01*
X10744595Y-11062143D02*
X10744595Y-11262143D01*
X10744595Y-11071667D02*
X10763643Y-11062143D01*
X10801738Y-11062143D01*
X10820786Y-11071667D01*
X10830310Y-11081190D01*
X10839833Y-11100238D01*
X10839833Y-11157381D01*
X10830310Y-11176429D01*
X10820786Y-11185952D01*
X10801738Y-11195476D01*
X10763643Y-11195476D01*
X10744595Y-11185952D01*
X10925548Y-11176429D02*
X10935071Y-11185952D01*
X10925548Y-11195476D01*
X10916024Y-11185952D01*
X10925548Y-11176429D01*
X10925548Y-11195476D01*
X10925548Y-11071667D02*
X10935071Y-11081190D01*
X10925548Y-11090714D01*
X10916024Y-11081190D01*
X10925548Y-11071667D01*
X10925548Y-11090714D01*
D12*
X9276500Y-11515000D02*
X9296500Y-11535000D01*
X9296500Y-11515000D02*
X9276500Y-11535000D01*
D11*
X9592214Y-11415476D02*
X9611262Y-11415476D01*
X9630310Y-11425000D01*
X9639833Y-11434524D01*
X9649357Y-11453571D01*
X9658881Y-11491667D01*
X9658881Y-11539286D01*
X9649357Y-11577381D01*
X9639833Y-11596428D01*
X9630310Y-11605952D01*
X9611262Y-11615476D01*
X9592214Y-11615476D01*
X9573167Y-11605952D01*
X9563643Y-11596428D01*
X9554119Y-11577381D01*
X9544595Y-11539286D01*
X9544595Y-11491667D01*
X9554119Y-11453571D01*
X9563643Y-11434524D01*
X9573167Y-11425000D01*
X9592214Y-11415476D01*
X9744595Y-11596428D02*
X9754119Y-11605952D01*
X9744595Y-11615476D01*
X9735071Y-11605952D01*
X9744595Y-11596428D01*
X9744595Y-11615476D01*
X9830310Y-11434524D02*
X9839833Y-11425000D01*
X9858881Y-11415476D01*
X9906500Y-11415476D01*
X9925548Y-11425000D01*
X9935071Y-11434524D01*
X9944595Y-11453571D01*
X9944595Y-11472619D01*
X9935071Y-11501190D01*
X9820786Y-11615476D01*
X9944595Y-11615476D01*
X10068405Y-11415476D02*
X10087452Y-11415476D01*
X10106500Y-11425000D01*
X10116024Y-11434524D01*
X10125548Y-11453571D01*
X10135071Y-11491667D01*
X10135071Y-11539286D01*
X10125548Y-11577381D01*
X10116024Y-11596428D01*
X10106500Y-11605952D01*
X10087452Y-11615476D01*
X10068405Y-11615476D01*
X10049357Y-11605952D01*
X10039833Y-11596428D01*
X10030310Y-11577381D01*
X10020786Y-11539286D01*
X10020786Y-11491667D01*
X10030310Y-11453571D01*
X10039833Y-11434524D01*
X10049357Y-11425000D01*
X10068405Y-11415476D01*
X10258881Y-11415476D02*
X10277929Y-11415476D01*
X10296976Y-11425000D01*
X10306500Y-11434524D01*
X10316024Y-11453571D01*
X10325548Y-11491667D01*
X10325548Y-11539286D01*
X10316024Y-11577381D01*
X10306500Y-11596428D01*
X10296976Y-11605952D01*
X10277929Y-11615476D01*
X10258881Y-11615476D01*
X10239833Y-11605952D01*
X10230310Y-11596428D01*
X10220786Y-11577381D01*
X10211262Y-11539286D01*
X10211262Y-11491667D01*
X10220786Y-11453571D01*
X10230310Y-11434524D01*
X10239833Y-11425000D01*
X10258881Y-11415476D01*
X10411262Y-11615476D02*
X10411262Y-11482143D01*
X10411262Y-11501190D02*
X10420786Y-11491667D01*
X10439833Y-11482143D01*
X10468405Y-11482143D01*
X10487452Y-11491667D01*
X10496976Y-11510714D01*
X10496976Y-11615476D01*
X10496976Y-11510714D02*
X10506500Y-11491667D01*
X10525548Y-11482143D01*
X10554119Y-11482143D01*
X10573167Y-11491667D01*
X10582690Y-11510714D01*
X10582690Y-11615476D01*
X10677929Y-11615476D02*
X10677929Y-11482143D01*
X10677929Y-11501190D02*
X10687452Y-11491667D01*
X10706500Y-11482143D01*
X10735071Y-11482143D01*
X10754119Y-11491667D01*
X10763643Y-11510714D01*
X10763643Y-11615476D01*
X10763643Y-11510714D02*
X10773167Y-11491667D01*
X10792214Y-11482143D01*
X10820786Y-11482143D01*
X10839833Y-11491667D01*
X10849357Y-11510714D01*
X10849357Y-11615476D01*
X11239833Y-11405952D02*
X11068405Y-11663095D01*
X11496976Y-11415476D02*
X11516024Y-11415476D01*
X11535071Y-11425000D01*
X11544595Y-11434524D01*
X11554119Y-11453571D01*
X11563643Y-11491667D01*
X11563643Y-11539286D01*
X11554119Y-11577381D01*
X11544595Y-11596428D01*
X11535071Y-11605952D01*
X11516024Y-11615476D01*
X11496976Y-11615476D01*
X11477928Y-11605952D01*
X11468405Y-11596428D01*
X11458881Y-11577381D01*
X11449357Y-11539286D01*
X11449357Y-11491667D01*
X11458881Y-11453571D01*
X11468405Y-11434524D01*
X11477928Y-11425000D01*
X11496976Y-11415476D01*
X11649357Y-11596428D02*
X11658881Y-11605952D01*
X11649357Y-11615476D01*
X11639833Y-11605952D01*
X11649357Y-11596428D01*
X11649357Y-11615476D01*
X11782690Y-11415476D02*
X11801738Y-11415476D01*
X11820786Y-11425000D01*
X11830309Y-11434524D01*
X11839833Y-11453571D01*
X11849357Y-11491667D01*
X11849357Y-11539286D01*
X11839833Y-11577381D01*
X11830309Y-11596428D01*
X11820786Y-11605952D01*
X11801738Y-11615476D01*
X11782690Y-11615476D01*
X11763643Y-11605952D01*
X11754119Y-11596428D01*
X11744595Y-11577381D01*
X11735071Y-11539286D01*
X11735071Y-11491667D01*
X11744595Y-11453571D01*
X11754119Y-11434524D01*
X11763643Y-11425000D01*
X11782690Y-11415476D01*
X11973167Y-11415476D02*
X11992214Y-11415476D01*
X12011262Y-11425000D01*
X12020786Y-11434524D01*
X12030309Y-11453571D01*
X12039833Y-11491667D01*
X12039833Y-11539286D01*
X12030309Y-11577381D01*
X12020786Y-11596428D01*
X12011262Y-11605952D01*
X11992214Y-11615476D01*
X11973167Y-11615476D01*
X11954119Y-11605952D01*
X11944595Y-11596428D01*
X11935071Y-11577381D01*
X11925548Y-11539286D01*
X11925548Y-11491667D01*
X11935071Y-11453571D01*
X11944595Y-11434524D01*
X11954119Y-11425000D01*
X11973167Y-11415476D01*
X12106500Y-11415476D02*
X12239833Y-11415476D01*
X12154119Y-11615476D01*
X12325548Y-11615476D02*
X12363643Y-11615476D01*
X12382690Y-11605952D01*
X12392214Y-11596428D01*
X12411262Y-11567857D01*
X12420786Y-11529762D01*
X12420786Y-11453571D01*
X12411262Y-11434524D01*
X12401738Y-11425000D01*
X12382690Y-11415476D01*
X12344595Y-11415476D01*
X12325548Y-11425000D01*
X12316024Y-11434524D01*
X12306500Y-11453571D01*
X12306500Y-11501190D01*
X12316024Y-11520238D01*
X12325548Y-11529762D01*
X12344595Y-11539286D01*
X12382690Y-11539286D01*
X12401738Y-11529762D01*
X12411262Y-11520238D01*
X12420786Y-11501190D01*
X12496976Y-11415476D02*
X12496976Y-11453571D01*
X12573167Y-11415476D02*
X12573167Y-11453571D01*
X12868405Y-11691667D02*
X12858881Y-11682143D01*
X12839833Y-11653571D01*
X12830309Y-11634524D01*
X12820786Y-11605952D01*
X12811262Y-11558333D01*
X12811262Y-11520238D01*
X12820786Y-11472619D01*
X12830309Y-11444048D01*
X12839833Y-11425000D01*
X12858881Y-11396428D01*
X12868405Y-11386905D01*
X12935071Y-11434524D02*
X12944595Y-11425000D01*
X12963643Y-11415476D01*
X13011262Y-11415476D01*
X13030309Y-11425000D01*
X13039833Y-11434524D01*
X13049357Y-11453571D01*
X13049357Y-11472619D01*
X13039833Y-11501190D01*
X12925548Y-11615476D01*
X13049357Y-11615476D01*
X13163643Y-11501190D02*
X13144595Y-11491667D01*
X13135071Y-11482143D01*
X13125548Y-11463095D01*
X13125548Y-11453571D01*
X13135071Y-11434524D01*
X13144595Y-11425000D01*
X13163643Y-11415476D01*
X13201738Y-11415476D01*
X13220786Y-11425000D01*
X13230309Y-11434524D01*
X13239833Y-11453571D01*
X13239833Y-11463095D01*
X13230309Y-11482143D01*
X13220786Y-11491667D01*
X13201738Y-11501190D01*
X13163643Y-11501190D01*
X13144595Y-11510714D01*
X13135071Y-11520238D01*
X13125548Y-11539286D01*
X13125548Y-11577381D01*
X13135071Y-11596428D01*
X13144595Y-11605952D01*
X13163643Y-11615476D01*
X13201738Y-11615476D01*
X13220786Y-11605952D01*
X13230309Y-11596428D01*
X13239833Y-11577381D01*
X13239833Y-11539286D01*
X13230309Y-11520238D01*
X13220786Y-11510714D01*
X13201738Y-11501190D01*
X13477928Y-11615476D02*
X13477928Y-11415476D01*
X13563643Y-11615476D02*
X13563643Y-11510714D01*
X13554119Y-11491667D01*
X13535071Y-11482143D01*
X13506500Y-11482143D01*
X13487452Y-11491667D01*
X13477928Y-11501190D01*
X13687452Y-11615476D02*
X13668405Y-11605952D01*
X13658881Y-11596428D01*
X13649357Y-11577381D01*
X13649357Y-11520238D01*
X13658881Y-11501190D01*
X13668405Y-11491667D01*
X13687452Y-11482143D01*
X13716024Y-11482143D01*
X13735071Y-11491667D01*
X13744595Y-11501190D01*
X13754119Y-11520238D01*
X13754119Y-11577381D01*
X13744595Y-11596428D01*
X13735071Y-11605952D01*
X13716024Y-11615476D01*
X13687452Y-11615476D01*
X13868405Y-11615476D02*
X13849357Y-11605952D01*
X13839833Y-11586905D01*
X13839833Y-11415476D01*
X14020786Y-11605952D02*
X14001738Y-11615476D01*
X13963643Y-11615476D01*
X13944595Y-11605952D01*
X13935071Y-11586905D01*
X13935071Y-11510714D01*
X13944595Y-11491667D01*
X13963643Y-11482143D01*
X14001738Y-11482143D01*
X14020786Y-11491667D01*
X14030309Y-11510714D01*
X14030309Y-11529762D01*
X13935071Y-11548809D01*
X14106500Y-11605952D02*
X14125548Y-11615476D01*
X14163643Y-11615476D01*
X14182690Y-11605952D01*
X14192214Y-11586905D01*
X14192214Y-11577381D01*
X14182690Y-11558333D01*
X14163643Y-11548809D01*
X14135071Y-11548809D01*
X14116024Y-11539286D01*
X14106500Y-11520238D01*
X14106500Y-11510714D01*
X14116024Y-11491667D01*
X14135071Y-11482143D01*
X14163643Y-11482143D01*
X14182690Y-11491667D01*
X14258881Y-11691667D02*
X14268405Y-11682143D01*
X14287452Y-11653571D01*
X14296976Y-11634524D01*
X14306500Y-11605952D01*
X14316024Y-11558333D01*
X14316024Y-11520238D01*
X14306500Y-11472619D01*
X14296976Y-11444048D01*
X14287452Y-11425000D01*
X14268405Y-11396428D01*
X14258881Y-11386905D01*
D13*
X9296500Y-11789000D02*
G75*
G03*
X9296500Y-11789000I-17500J0D01*
G01*
D11*
X9592214Y-11679476D02*
X9611262Y-11679476D01*
X9630310Y-11689000D01*
X9639833Y-11698524D01*
X9649357Y-11717571D01*
X9658881Y-11755667D01*
X9658881Y-11803286D01*
X9649357Y-11841381D01*
X9639833Y-11860428D01*
X9630310Y-11869952D01*
X9611262Y-11879476D01*
X9592214Y-11879476D01*
X9573167Y-11869952D01*
X9563643Y-11860428D01*
X9554119Y-11841381D01*
X9544595Y-11803286D01*
X9544595Y-11755667D01*
X9554119Y-11717571D01*
X9563643Y-11698524D01*
X9573167Y-11689000D01*
X9592214Y-11679476D01*
X9744595Y-11860428D02*
X9754119Y-11869952D01*
X9744595Y-11879476D01*
X9735071Y-11869952D01*
X9744595Y-11860428D01*
X9744595Y-11879476D01*
X9820786Y-11679476D02*
X9944595Y-11679476D01*
X9877929Y-11755667D01*
X9906500Y-11755667D01*
X9925548Y-11765190D01*
X9935071Y-11774714D01*
X9944595Y-11793762D01*
X9944595Y-11841381D01*
X9935071Y-11860428D01*
X9925548Y-11869952D01*
X9906500Y-11879476D01*
X9849357Y-11879476D01*
X9830310Y-11869952D01*
X9820786Y-11860428D01*
X10125548Y-11679476D02*
X10030310Y-11679476D01*
X10020786Y-11774714D01*
X10030310Y-11765190D01*
X10049357Y-11755667D01*
X10096976Y-11755667D01*
X10116024Y-11765190D01*
X10125548Y-11774714D01*
X10135071Y-11793762D01*
X10135071Y-11841381D01*
X10125548Y-11860428D01*
X10116024Y-11869952D01*
X10096976Y-11879476D01*
X10049357Y-11879476D01*
X10030310Y-11869952D01*
X10020786Y-11860428D01*
X10258881Y-11679476D02*
X10277929Y-11679476D01*
X10296976Y-11689000D01*
X10306500Y-11698524D01*
X10316024Y-11717571D01*
X10325548Y-11755667D01*
X10325548Y-11803286D01*
X10316024Y-11841381D01*
X10306500Y-11860428D01*
X10296976Y-11869952D01*
X10277929Y-11879476D01*
X10258881Y-11879476D01*
X10239833Y-11869952D01*
X10230310Y-11860428D01*
X10220786Y-11841381D01*
X10211262Y-11803286D01*
X10211262Y-11755667D01*
X10220786Y-11717571D01*
X10230310Y-11698524D01*
X10239833Y-11689000D01*
X10258881Y-11679476D01*
X10411262Y-11879476D02*
X10411262Y-11746143D01*
X10411262Y-11765190D02*
X10420786Y-11755667D01*
X10439833Y-11746143D01*
X10468405Y-11746143D01*
X10487452Y-11755667D01*
X10496976Y-11774714D01*
X10496976Y-11879476D01*
X10496976Y-11774714D02*
X10506500Y-11755667D01*
X10525548Y-11746143D01*
X10554119Y-11746143D01*
X10573167Y-11755667D01*
X10582690Y-11774714D01*
X10582690Y-11879476D01*
X10677929Y-11879476D02*
X10677929Y-11746143D01*
X10677929Y-11765190D02*
X10687452Y-11755667D01*
X10706500Y-11746143D01*
X10735071Y-11746143D01*
X10754119Y-11755667D01*
X10763643Y-11774714D01*
X10763643Y-11879476D01*
X10763643Y-11774714D02*
X10773167Y-11755667D01*
X10792214Y-11746143D01*
X10820786Y-11746143D01*
X10839833Y-11755667D01*
X10849357Y-11774714D01*
X10849357Y-11879476D01*
X11239833Y-11669952D02*
X11068405Y-11927095D01*
X11496976Y-11679476D02*
X11516024Y-11679476D01*
X11535071Y-11689000D01*
X11544595Y-11698524D01*
X11554119Y-11717571D01*
X11563643Y-11755667D01*
X11563643Y-11803286D01*
X11554119Y-11841381D01*
X11544595Y-11860428D01*
X11535071Y-11869952D01*
X11516024Y-11879476D01*
X11496976Y-11879476D01*
X11477928Y-11869952D01*
X11468405Y-11860428D01*
X11458881Y-11841381D01*
X11449357Y-11803286D01*
X11449357Y-11755667D01*
X11458881Y-11717571D01*
X11468405Y-11698524D01*
X11477928Y-11689000D01*
X11496976Y-11679476D01*
X11649357Y-11860428D02*
X11658881Y-11869952D01*
X11649357Y-11879476D01*
X11639833Y-11869952D01*
X11649357Y-11860428D01*
X11649357Y-11879476D01*
X11782690Y-11679476D02*
X11801738Y-11679476D01*
X11820786Y-11689000D01*
X11830309Y-11698524D01*
X11839833Y-11717571D01*
X11849357Y-11755667D01*
X11849357Y-11803286D01*
X11839833Y-11841381D01*
X11830309Y-11860428D01*
X11820786Y-11869952D01*
X11801738Y-11879476D01*
X11782690Y-11879476D01*
X11763643Y-11869952D01*
X11754119Y-11860428D01*
X11744595Y-11841381D01*
X11735071Y-11803286D01*
X11735071Y-11755667D01*
X11744595Y-11717571D01*
X11754119Y-11698524D01*
X11763643Y-11689000D01*
X11782690Y-11679476D01*
X12039833Y-11879476D02*
X11925548Y-11879476D01*
X11982690Y-11879476D02*
X11982690Y-11679476D01*
X11963643Y-11708048D01*
X11944595Y-11727095D01*
X11925548Y-11736619D01*
X12106500Y-11679476D02*
X12230309Y-11679476D01*
X12163643Y-11755667D01*
X12192214Y-11755667D01*
X12211262Y-11765190D01*
X12220786Y-11774714D01*
X12230309Y-11793762D01*
X12230309Y-11841381D01*
X12220786Y-11860428D01*
X12211262Y-11869952D01*
X12192214Y-11879476D01*
X12135071Y-11879476D01*
X12116024Y-11869952D01*
X12106500Y-11860428D01*
X12344595Y-11765190D02*
X12325548Y-11755667D01*
X12316024Y-11746143D01*
X12306500Y-11727095D01*
X12306500Y-11717571D01*
X12316024Y-11698524D01*
X12325548Y-11689000D01*
X12344595Y-11679476D01*
X12382690Y-11679476D01*
X12401738Y-11689000D01*
X12411262Y-11698524D01*
X12420786Y-11717571D01*
X12420786Y-11727095D01*
X12411262Y-11746143D01*
X12401738Y-11755667D01*
X12382690Y-11765190D01*
X12344595Y-11765190D01*
X12325548Y-11774714D01*
X12316024Y-11784238D01*
X12306500Y-11803286D01*
X12306500Y-11841381D01*
X12316024Y-11860428D01*
X12325548Y-11869952D01*
X12344595Y-11879476D01*
X12382690Y-11879476D01*
X12401738Y-11869952D01*
X12411262Y-11860428D01*
X12420786Y-11841381D01*
X12420786Y-11803286D01*
X12411262Y-11784238D01*
X12401738Y-11774714D01*
X12382690Y-11765190D01*
X12496976Y-11679476D02*
X12496976Y-11717571D01*
X12573167Y-11679476D02*
X12573167Y-11717571D01*
X12868405Y-11955667D02*
X12858881Y-11946143D01*
X12839833Y-11917571D01*
X12830309Y-11898524D01*
X12820786Y-11869952D01*
X12811262Y-11822333D01*
X12811262Y-11784238D01*
X12820786Y-11736619D01*
X12830309Y-11708048D01*
X12839833Y-11689000D01*
X12858881Y-11660428D01*
X12868405Y-11650905D01*
X12935071Y-11698524D02*
X12944595Y-11689000D01*
X12963643Y-11679476D01*
X13011262Y-11679476D01*
X13030309Y-11689000D01*
X13039833Y-11698524D01*
X13049357Y-11717571D01*
X13049357Y-11736619D01*
X13039833Y-11765190D01*
X12925548Y-11879476D01*
X13049357Y-11879476D01*
X13230309Y-11679476D02*
X13135071Y-11679476D01*
X13125548Y-11774714D01*
X13135071Y-11765190D01*
X13154119Y-11755667D01*
X13201738Y-11755667D01*
X13220786Y-11765190D01*
X13230309Y-11774714D01*
X13239833Y-11793762D01*
X13239833Y-11841381D01*
X13230309Y-11860428D01*
X13220786Y-11869952D01*
X13201738Y-11879476D01*
X13154119Y-11879476D01*
X13135071Y-11869952D01*
X13125548Y-11860428D01*
X13477928Y-11879476D02*
X13477928Y-11679476D01*
X13563643Y-11879476D02*
X13563643Y-11774714D01*
X13554119Y-11755667D01*
X13535071Y-11746143D01*
X13506500Y-11746143D01*
X13487452Y-11755667D01*
X13477928Y-11765190D01*
X13687452Y-11879476D02*
X13668405Y-11869952D01*
X13658881Y-11860428D01*
X13649357Y-11841381D01*
X13649357Y-11784238D01*
X13658881Y-11765190D01*
X13668405Y-11755667D01*
X13687452Y-11746143D01*
X13716024Y-11746143D01*
X13735071Y-11755667D01*
X13744595Y-11765190D01*
X13754119Y-11784238D01*
X13754119Y-11841381D01*
X13744595Y-11860428D01*
X13735071Y-11869952D01*
X13716024Y-11879476D01*
X13687452Y-11879476D01*
X13868405Y-11879476D02*
X13849357Y-11869952D01*
X13839833Y-11850905D01*
X13839833Y-11679476D01*
X14020786Y-11869952D02*
X14001738Y-11879476D01*
X13963643Y-11879476D01*
X13944595Y-11869952D01*
X13935071Y-11850905D01*
X13935071Y-11774714D01*
X13944595Y-11755667D01*
X13963643Y-11746143D01*
X14001738Y-11746143D01*
X14020786Y-11755667D01*
X14030309Y-11774714D01*
X14030309Y-11793762D01*
X13935071Y-11812809D01*
X14106500Y-11869952D02*
X14125548Y-11879476D01*
X14163643Y-11879476D01*
X14182690Y-11869952D01*
X14192214Y-11850905D01*
X14192214Y-11841381D01*
X14182690Y-11822333D01*
X14163643Y-11812809D01*
X14135071Y-11812809D01*
X14116024Y-11803286D01*
X14106500Y-11784238D01*
X14106500Y-11774714D01*
X14116024Y-11755667D01*
X14135071Y-11746143D01*
X14163643Y-11746143D01*
X14182690Y-11755667D01*
X14258881Y-11955667D02*
X14268405Y-11946143D01*
X14287452Y-11917571D01*
X14296976Y-11898524D01*
X14306500Y-11869952D01*
X14316024Y-11822333D01*
X14316024Y-11784238D01*
X14306500Y-11736619D01*
X14296976Y-11708048D01*
X14287452Y-11689000D01*
X14268405Y-11660428D01*
X14258881Y-11650905D01*
D13*
X9279000Y-12035500D02*
X9279000Y-12070500D01*
X9261500Y-12053000D02*
X9296500Y-12053000D01*
D11*
X9592214Y-11943476D02*
X9611262Y-11943476D01*
X9630310Y-11953000D01*
X9639833Y-11962524D01*
X9649357Y-11981571D01*
X9658881Y-12019667D01*
X9658881Y-12067286D01*
X9649357Y-12105381D01*
X9639833Y-12124428D01*
X9630310Y-12133952D01*
X9611262Y-12143476D01*
X9592214Y-12143476D01*
X9573167Y-12133952D01*
X9563643Y-12124428D01*
X9554119Y-12105381D01*
X9544595Y-12067286D01*
X9544595Y-12019667D01*
X9554119Y-11981571D01*
X9563643Y-11962524D01*
X9573167Y-11953000D01*
X9592214Y-11943476D01*
X9744595Y-12124428D02*
X9754119Y-12133952D01*
X9744595Y-12143476D01*
X9735071Y-12133952D01*
X9744595Y-12124428D01*
X9744595Y-12143476D01*
X9820786Y-11943476D02*
X9944595Y-11943476D01*
X9877929Y-12019667D01*
X9906500Y-12019667D01*
X9925548Y-12029190D01*
X9935071Y-12038714D01*
X9944595Y-12057762D01*
X9944595Y-12105381D01*
X9935071Y-12124428D01*
X9925548Y-12133952D01*
X9906500Y-12143476D01*
X9849357Y-12143476D01*
X9830310Y-12133952D01*
X9820786Y-12124428D01*
X10125548Y-11943476D02*
X10030310Y-11943476D01*
X10020786Y-12038714D01*
X10030310Y-12029190D01*
X10049357Y-12019667D01*
X10096976Y-12019667D01*
X10116024Y-12029190D01*
X10125548Y-12038714D01*
X10135071Y-12057762D01*
X10135071Y-12105381D01*
X10125548Y-12124428D01*
X10116024Y-12133952D01*
X10096976Y-12143476D01*
X10049357Y-12143476D01*
X10030310Y-12133952D01*
X10020786Y-12124428D01*
X10258881Y-11943476D02*
X10277929Y-11943476D01*
X10296976Y-11953000D01*
X10306500Y-11962524D01*
X10316024Y-11981571D01*
X10325548Y-12019667D01*
X10325548Y-12067286D01*
X10316024Y-12105381D01*
X10306500Y-12124428D01*
X10296976Y-12133952D01*
X10277929Y-12143476D01*
X10258881Y-12143476D01*
X10239833Y-12133952D01*
X10230310Y-12124428D01*
X10220786Y-12105381D01*
X10211262Y-12067286D01*
X10211262Y-12019667D01*
X10220786Y-11981571D01*
X10230310Y-11962524D01*
X10239833Y-11953000D01*
X10258881Y-11943476D01*
X10411262Y-12143476D02*
X10411262Y-12010143D01*
X10411262Y-12029190D02*
X10420786Y-12019667D01*
X10439833Y-12010143D01*
X10468405Y-12010143D01*
X10487452Y-12019667D01*
X10496976Y-12038714D01*
X10496976Y-12143476D01*
X10496976Y-12038714D02*
X10506500Y-12019667D01*
X10525548Y-12010143D01*
X10554119Y-12010143D01*
X10573167Y-12019667D01*
X10582690Y-12038714D01*
X10582690Y-12143476D01*
X10677929Y-12143476D02*
X10677929Y-12010143D01*
X10677929Y-12029190D02*
X10687452Y-12019667D01*
X10706500Y-12010143D01*
X10735071Y-12010143D01*
X10754119Y-12019667D01*
X10763643Y-12038714D01*
X10763643Y-12143476D01*
X10763643Y-12038714D02*
X10773167Y-12019667D01*
X10792214Y-12010143D01*
X10820786Y-12010143D01*
X10839833Y-12019667D01*
X10849357Y-12038714D01*
X10849357Y-12143476D01*
X11239833Y-11933952D02*
X11068405Y-12191095D01*
X11496976Y-11943476D02*
X11516024Y-11943476D01*
X11535071Y-11953000D01*
X11544595Y-11962524D01*
X11554119Y-11981571D01*
X11563643Y-12019667D01*
X11563643Y-12067286D01*
X11554119Y-12105381D01*
X11544595Y-12124428D01*
X11535071Y-12133952D01*
X11516024Y-12143476D01*
X11496976Y-12143476D01*
X11477928Y-12133952D01*
X11468405Y-12124428D01*
X11458881Y-12105381D01*
X11449357Y-12067286D01*
X11449357Y-12019667D01*
X11458881Y-11981571D01*
X11468405Y-11962524D01*
X11477928Y-11953000D01*
X11496976Y-11943476D01*
X11649357Y-12124428D02*
X11658881Y-12133952D01*
X11649357Y-12143476D01*
X11639833Y-12133952D01*
X11649357Y-12124428D01*
X11649357Y-12143476D01*
X11782690Y-11943476D02*
X11801738Y-11943476D01*
X11820786Y-11953000D01*
X11830309Y-11962524D01*
X11839833Y-11981571D01*
X11849357Y-12019667D01*
X11849357Y-12067286D01*
X11839833Y-12105381D01*
X11830309Y-12124428D01*
X11820786Y-12133952D01*
X11801738Y-12143476D01*
X11782690Y-12143476D01*
X11763643Y-12133952D01*
X11754119Y-12124428D01*
X11744595Y-12105381D01*
X11735071Y-12067286D01*
X11735071Y-12019667D01*
X11744595Y-11981571D01*
X11754119Y-11962524D01*
X11763643Y-11953000D01*
X11782690Y-11943476D01*
X12039833Y-12143476D02*
X11925548Y-12143476D01*
X11982690Y-12143476D02*
X11982690Y-11943476D01*
X11963643Y-11972048D01*
X11944595Y-11991095D01*
X11925548Y-12000619D01*
X12106500Y-11943476D02*
X12230309Y-11943476D01*
X12163643Y-12019667D01*
X12192214Y-12019667D01*
X12211262Y-12029190D01*
X12220786Y-12038714D01*
X12230309Y-12057762D01*
X12230309Y-12105381D01*
X12220786Y-12124428D01*
X12211262Y-12133952D01*
X12192214Y-12143476D01*
X12135071Y-12143476D01*
X12116024Y-12133952D01*
X12106500Y-12124428D01*
X12344595Y-12029190D02*
X12325548Y-12019667D01*
X12316024Y-12010143D01*
X12306500Y-11991095D01*
X12306500Y-11981571D01*
X12316024Y-11962524D01*
X12325548Y-11953000D01*
X12344595Y-11943476D01*
X12382690Y-11943476D01*
X12401738Y-11953000D01*
X12411262Y-11962524D01*
X12420786Y-11981571D01*
X12420786Y-11991095D01*
X12411262Y-12010143D01*
X12401738Y-12019667D01*
X12382690Y-12029190D01*
X12344595Y-12029190D01*
X12325548Y-12038714D01*
X12316024Y-12048238D01*
X12306500Y-12067286D01*
X12306500Y-12105381D01*
X12316024Y-12124428D01*
X12325548Y-12133952D01*
X12344595Y-12143476D01*
X12382690Y-12143476D01*
X12401738Y-12133952D01*
X12411262Y-12124428D01*
X12420786Y-12105381D01*
X12420786Y-12067286D01*
X12411262Y-12048238D01*
X12401738Y-12038714D01*
X12382690Y-12029190D01*
X12496976Y-11943476D02*
X12496976Y-11981571D01*
X12573167Y-11943476D02*
X12573167Y-11981571D01*
X12868405Y-12219667D02*
X12858881Y-12210143D01*
X12839833Y-12181571D01*
X12830309Y-12162524D01*
X12820786Y-12133952D01*
X12811262Y-12086333D01*
X12811262Y-12048238D01*
X12820786Y-12000619D01*
X12830309Y-11972048D01*
X12839833Y-11953000D01*
X12858881Y-11924428D01*
X12868405Y-11914905D01*
X12954119Y-12143476D02*
X12992214Y-12143476D01*
X13011262Y-12133952D01*
X13020786Y-12124428D01*
X13039833Y-12095857D01*
X13049357Y-12057762D01*
X13049357Y-11981571D01*
X13039833Y-11962524D01*
X13030309Y-11953000D01*
X13011262Y-11943476D01*
X12973167Y-11943476D01*
X12954119Y-11953000D01*
X12944595Y-11962524D01*
X12935071Y-11981571D01*
X12935071Y-12029190D01*
X12944595Y-12048238D01*
X12954119Y-12057762D01*
X12973167Y-12067286D01*
X13011262Y-12067286D01*
X13030309Y-12057762D01*
X13039833Y-12048238D01*
X13049357Y-12029190D01*
X13287452Y-12143476D02*
X13287452Y-11943476D01*
X13373167Y-12143476D02*
X13373167Y-12038714D01*
X13363643Y-12019667D01*
X13344595Y-12010143D01*
X13316024Y-12010143D01*
X13296976Y-12019667D01*
X13287452Y-12029190D01*
X13496976Y-12143476D02*
X13477928Y-12133952D01*
X13468405Y-12124428D01*
X13458881Y-12105381D01*
X13458881Y-12048238D01*
X13468405Y-12029190D01*
X13477928Y-12019667D01*
X13496976Y-12010143D01*
X13525548Y-12010143D01*
X13544595Y-12019667D01*
X13554119Y-12029190D01*
X13563643Y-12048238D01*
X13563643Y-12105381D01*
X13554119Y-12124428D01*
X13544595Y-12133952D01*
X13525548Y-12143476D01*
X13496976Y-12143476D01*
X13677928Y-12143476D02*
X13658881Y-12133952D01*
X13649357Y-12114905D01*
X13649357Y-11943476D01*
X13830309Y-12133952D02*
X13811262Y-12143476D01*
X13773167Y-12143476D01*
X13754119Y-12133952D01*
X13744595Y-12114905D01*
X13744595Y-12038714D01*
X13754119Y-12019667D01*
X13773167Y-12010143D01*
X13811262Y-12010143D01*
X13830309Y-12019667D01*
X13839833Y-12038714D01*
X13839833Y-12057762D01*
X13744595Y-12076809D01*
X13916024Y-12133952D02*
X13935071Y-12143476D01*
X13973167Y-12143476D01*
X13992214Y-12133952D01*
X14001738Y-12114905D01*
X14001738Y-12105381D01*
X13992214Y-12086333D01*
X13973167Y-12076809D01*
X13944595Y-12076809D01*
X13925548Y-12067286D01*
X13916024Y-12048238D01*
X13916024Y-12038714D01*
X13925548Y-12019667D01*
X13944595Y-12010143D01*
X13973167Y-12010143D01*
X13992214Y-12019667D01*
X14068405Y-12219667D02*
X14077928Y-12210143D01*
X14096976Y-12181571D01*
X14106500Y-12162524D01*
X14116024Y-12133952D01*
X14125548Y-12086333D01*
X14125548Y-12048238D01*
X14116024Y-12000619D01*
X14106500Y-11972048D01*
X14096976Y-11953000D01*
X14077928Y-11924428D01*
X14068405Y-11914905D01*
D14*
X9287713Y-12338213D02*
X9287713Y-12295787D01*
X9245287Y-12295787D01*
X9245287Y-12338213D01*
X9287713Y-12338213D01*
D11*
X9592214Y-12207476D02*
X9611262Y-12207476D01*
X9630310Y-12217000D01*
X9639833Y-12226524D01*
X9649357Y-12245571D01*
X9658881Y-12283667D01*
X9658881Y-12331286D01*
X9649357Y-12369381D01*
X9639833Y-12388428D01*
X9630310Y-12397952D01*
X9611262Y-12407476D01*
X9592214Y-12407476D01*
X9573167Y-12397952D01*
X9563643Y-12388428D01*
X9554119Y-12369381D01*
X9544595Y-12331286D01*
X9544595Y-12283667D01*
X9554119Y-12245571D01*
X9563643Y-12226524D01*
X9573167Y-12217000D01*
X9592214Y-12207476D01*
X9744595Y-12388428D02*
X9754119Y-12397952D01*
X9744595Y-12407476D01*
X9735071Y-12397952D01*
X9744595Y-12388428D01*
X9744595Y-12407476D01*
X9925548Y-12207476D02*
X9887452Y-12207476D01*
X9868405Y-12217000D01*
X9858881Y-12226524D01*
X9839833Y-12255095D01*
X9830310Y-12293190D01*
X9830310Y-12369381D01*
X9839833Y-12388428D01*
X9849357Y-12397952D01*
X9868405Y-12407476D01*
X9906500Y-12407476D01*
X9925548Y-12397952D01*
X9935071Y-12388428D01*
X9944595Y-12369381D01*
X9944595Y-12321762D01*
X9935071Y-12302714D01*
X9925548Y-12293190D01*
X9906500Y-12283667D01*
X9868405Y-12283667D01*
X9849357Y-12293190D01*
X9839833Y-12302714D01*
X9830310Y-12321762D01*
X10068405Y-12207476D02*
X10087452Y-12207476D01*
X10106500Y-12217000D01*
X10116024Y-12226524D01*
X10125548Y-12245571D01*
X10135071Y-12283667D01*
X10135071Y-12331286D01*
X10125548Y-12369381D01*
X10116024Y-12388428D01*
X10106500Y-12397952D01*
X10087452Y-12407476D01*
X10068405Y-12407476D01*
X10049357Y-12397952D01*
X10039833Y-12388428D01*
X10030310Y-12369381D01*
X10020786Y-12331286D01*
X10020786Y-12283667D01*
X10030310Y-12245571D01*
X10039833Y-12226524D01*
X10049357Y-12217000D01*
X10068405Y-12207476D01*
X10258881Y-12207476D02*
X10277929Y-12207476D01*
X10296976Y-12217000D01*
X10306500Y-12226524D01*
X10316024Y-12245571D01*
X10325548Y-12283667D01*
X10325548Y-12331286D01*
X10316024Y-12369381D01*
X10306500Y-12388428D01*
X10296976Y-12397952D01*
X10277929Y-12407476D01*
X10258881Y-12407476D01*
X10239833Y-12397952D01*
X10230310Y-12388428D01*
X10220786Y-12369381D01*
X10211262Y-12331286D01*
X10211262Y-12283667D01*
X10220786Y-12245571D01*
X10230310Y-12226524D01*
X10239833Y-12217000D01*
X10258881Y-12207476D01*
X10411262Y-12407476D02*
X10411262Y-12274143D01*
X10411262Y-12293190D02*
X10420786Y-12283667D01*
X10439833Y-12274143D01*
X10468405Y-12274143D01*
X10487452Y-12283667D01*
X10496976Y-12302714D01*
X10496976Y-12407476D01*
X10496976Y-12302714D02*
X10506500Y-12283667D01*
X10525548Y-12274143D01*
X10554119Y-12274143D01*
X10573167Y-12283667D01*
X10582690Y-12302714D01*
X10582690Y-12407476D01*
X10677929Y-12407476D02*
X10677929Y-12274143D01*
X10677929Y-12293190D02*
X10687452Y-12283667D01*
X10706500Y-12274143D01*
X10735071Y-12274143D01*
X10754119Y-12283667D01*
X10763643Y-12302714D01*
X10763643Y-12407476D01*
X10763643Y-12302714D02*
X10773167Y-12283667D01*
X10792214Y-12274143D01*
X10820786Y-12274143D01*
X10839833Y-12283667D01*
X10849357Y-12302714D01*
X10849357Y-12407476D01*
X11239833Y-12197952D02*
X11068405Y-12455095D01*
X11496976Y-12207476D02*
X11516024Y-12207476D01*
X11535071Y-12217000D01*
X11544595Y-12226524D01*
X11554119Y-12245571D01*
X11563643Y-12283667D01*
X11563643Y-12331286D01*
X11554119Y-12369381D01*
X11544595Y-12388428D01*
X11535071Y-12397952D01*
X11516024Y-12407476D01*
X11496976Y-12407476D01*
X11477928Y-12397952D01*
X11468405Y-12388428D01*
X11458881Y-12369381D01*
X11449357Y-12331286D01*
X11449357Y-12283667D01*
X11458881Y-12245571D01*
X11468405Y-12226524D01*
X11477928Y-12217000D01*
X11496976Y-12207476D01*
X11649357Y-12388428D02*
X11658881Y-12397952D01*
X11649357Y-12407476D01*
X11639833Y-12397952D01*
X11649357Y-12388428D01*
X11649357Y-12407476D01*
X11782690Y-12207476D02*
X11801738Y-12207476D01*
X11820786Y-12217000D01*
X11830309Y-12226524D01*
X11839833Y-12245571D01*
X11849357Y-12283667D01*
X11849357Y-12331286D01*
X11839833Y-12369381D01*
X11830309Y-12388428D01*
X11820786Y-12397952D01*
X11801738Y-12407476D01*
X11782690Y-12407476D01*
X11763643Y-12397952D01*
X11754119Y-12388428D01*
X11744595Y-12369381D01*
X11735071Y-12331286D01*
X11735071Y-12283667D01*
X11744595Y-12245571D01*
X11754119Y-12226524D01*
X11763643Y-12217000D01*
X11782690Y-12207476D01*
X11925548Y-12226524D02*
X11935071Y-12217000D01*
X11954119Y-12207476D01*
X12001738Y-12207476D01*
X12020786Y-12217000D01*
X12030309Y-12226524D01*
X12039833Y-12245571D01*
X12039833Y-12264619D01*
X12030309Y-12293190D01*
X11916024Y-12407476D01*
X12039833Y-12407476D01*
X12106500Y-12207476D02*
X12230309Y-12207476D01*
X12163643Y-12283667D01*
X12192214Y-12283667D01*
X12211262Y-12293190D01*
X12220786Y-12302714D01*
X12230309Y-12321762D01*
X12230309Y-12369381D01*
X12220786Y-12388428D01*
X12211262Y-12397952D01*
X12192214Y-12407476D01*
X12135071Y-12407476D01*
X12116024Y-12397952D01*
X12106500Y-12388428D01*
X12401738Y-12207476D02*
X12363643Y-12207476D01*
X12344595Y-12217000D01*
X12335071Y-12226524D01*
X12316024Y-12255095D01*
X12306500Y-12293190D01*
X12306500Y-12369381D01*
X12316024Y-12388428D01*
X12325548Y-12397952D01*
X12344595Y-12407476D01*
X12382690Y-12407476D01*
X12401738Y-12397952D01*
X12411262Y-12388428D01*
X12420786Y-12369381D01*
X12420786Y-12321762D01*
X12411262Y-12302714D01*
X12401738Y-12293190D01*
X12382690Y-12283667D01*
X12344595Y-12283667D01*
X12325548Y-12293190D01*
X12316024Y-12302714D01*
X12306500Y-12321762D01*
X12496976Y-12207476D02*
X12496976Y-12245571D01*
X12573167Y-12207476D02*
X12573167Y-12245571D01*
X12868405Y-12483667D02*
X12858881Y-12474143D01*
X12839833Y-12445571D01*
X12830309Y-12426524D01*
X12820786Y-12397952D01*
X12811262Y-12350333D01*
X12811262Y-12312238D01*
X12820786Y-12264619D01*
X12830309Y-12236048D01*
X12839833Y-12217000D01*
X12858881Y-12188428D01*
X12868405Y-12178905D01*
X12982690Y-12207476D02*
X13001738Y-12207476D01*
X13020786Y-12217000D01*
X13030309Y-12226524D01*
X13039833Y-12245571D01*
X13049357Y-12283667D01*
X13049357Y-12331286D01*
X13039833Y-12369381D01*
X13030309Y-12388428D01*
X13020786Y-12397952D01*
X13001738Y-12407476D01*
X12982690Y-12407476D01*
X12963643Y-12397952D01*
X12954119Y-12388428D01*
X12944595Y-12369381D01*
X12935071Y-12331286D01*
X12935071Y-12283667D01*
X12944595Y-12245571D01*
X12954119Y-12226524D01*
X12963643Y-12217000D01*
X12982690Y-12207476D01*
X13287452Y-12407476D02*
X13287452Y-12207476D01*
X13373167Y-12407476D02*
X13373167Y-12302714D01*
X13363643Y-12283667D01*
X13344595Y-12274143D01*
X13316024Y-12274143D01*
X13296976Y-12283667D01*
X13287452Y-12293190D01*
X13496976Y-12407476D02*
X13477928Y-12397952D01*
X13468405Y-12388428D01*
X13458881Y-12369381D01*
X13458881Y-12312238D01*
X13468405Y-12293190D01*
X13477928Y-12283667D01*
X13496976Y-12274143D01*
X13525548Y-12274143D01*
X13544595Y-12283667D01*
X13554119Y-12293190D01*
X13563643Y-12312238D01*
X13563643Y-12369381D01*
X13554119Y-12388428D01*
X13544595Y-12397952D01*
X13525548Y-12407476D01*
X13496976Y-12407476D01*
X13677928Y-12407476D02*
X13658881Y-12397952D01*
X13649357Y-12378905D01*
X13649357Y-12207476D01*
X13830309Y-12397952D02*
X13811262Y-12407476D01*
X13773167Y-12407476D01*
X13754119Y-12397952D01*
X13744595Y-12378905D01*
X13744595Y-12302714D01*
X13754119Y-12283667D01*
X13773167Y-12274143D01*
X13811262Y-12274143D01*
X13830309Y-12283667D01*
X13839833Y-12302714D01*
X13839833Y-12321762D01*
X13744595Y-12340809D01*
X13916024Y-12397952D02*
X13935071Y-12407476D01*
X13973167Y-12407476D01*
X13992214Y-12397952D01*
X14001738Y-12378905D01*
X14001738Y-12369381D01*
X13992214Y-12350333D01*
X13973167Y-12340809D01*
X13944595Y-12340809D01*
X13925548Y-12331286D01*
X13916024Y-12312238D01*
X13916024Y-12302714D01*
X13925548Y-12283667D01*
X13944595Y-12274143D01*
X13973167Y-12274143D01*
X13992214Y-12283667D01*
X14239833Y-12331286D02*
X14392214Y-12331286D01*
X14316024Y-12407476D02*
X14316024Y-12255095D01*
X14725548Y-12274143D02*
X14725548Y-12407476D01*
X14677928Y-12197952D02*
X14630309Y-12340809D01*
X14754119Y-12340809D01*
X14973167Y-12397952D02*
X14992214Y-12407476D01*
X15030309Y-12407476D01*
X15049357Y-12397952D01*
X15058881Y-12378905D01*
X15058881Y-12369381D01*
X15049357Y-12350333D01*
X15030309Y-12340809D01*
X15001738Y-12340809D01*
X14982690Y-12331286D01*
X14973167Y-12312238D01*
X14973167Y-12302714D01*
X14982690Y-12283667D01*
X15001738Y-12274143D01*
X15030309Y-12274143D01*
X15049357Y-12283667D01*
X15173167Y-12407476D02*
X15154119Y-12397952D01*
X15144595Y-12378905D01*
X15144595Y-12207476D01*
X15277928Y-12407476D02*
X15258881Y-12397952D01*
X15249357Y-12388428D01*
X15239833Y-12369381D01*
X15239833Y-12312238D01*
X15249357Y-12293190D01*
X15258881Y-12283667D01*
X15277928Y-12274143D01*
X15306500Y-12274143D01*
X15325548Y-12283667D01*
X15335071Y-12293190D01*
X15344595Y-12312238D01*
X15344595Y-12369381D01*
X15335071Y-12388428D01*
X15325548Y-12397952D01*
X15306500Y-12407476D01*
X15277928Y-12407476D01*
X15401738Y-12274143D02*
X15477928Y-12274143D01*
X15430309Y-12207476D02*
X15430309Y-12378905D01*
X15439833Y-12397952D01*
X15458881Y-12407476D01*
X15477928Y-12407476D01*
X15535071Y-12397952D02*
X15554119Y-12407476D01*
X15592214Y-12407476D01*
X15611262Y-12397952D01*
X15620786Y-12378905D01*
X15620786Y-12369381D01*
X15611262Y-12350333D01*
X15592214Y-12340809D01*
X15563643Y-12340809D01*
X15544595Y-12331286D01*
X15535071Y-12312238D01*
X15535071Y-12302714D01*
X15544595Y-12283667D01*
X15563643Y-12274143D01*
X15592214Y-12274143D01*
X15611262Y-12283667D01*
X15687452Y-12483667D02*
X15696976Y-12474143D01*
X15716024Y-12445571D01*
X15725548Y-12426524D01*
X15735071Y-12397952D01*
X15744595Y-12350333D01*
X15744595Y-12312238D01*
X15735071Y-12264619D01*
X15725548Y-12236048D01*
X15716024Y-12217000D01*
X15696976Y-12188428D01*
X15687452Y-12178905D01*
D15*
X9259000Y-12618500D02*
X9296500Y-12581000D01*
X9259000Y-12543500D01*
X9221500Y-12581000D01*
X9259000Y-12618500D01*
D11*
X9592214Y-12471476D02*
X9611262Y-12471476D01*
X9630310Y-12481000D01*
X9639833Y-12490524D01*
X9649357Y-12509571D01*
X9658881Y-12547667D01*
X9658881Y-12595286D01*
X9649357Y-12633381D01*
X9639833Y-12652428D01*
X9630310Y-12661952D01*
X9611262Y-12671476D01*
X9592214Y-12671476D01*
X9573167Y-12661952D01*
X9563643Y-12652428D01*
X9554119Y-12633381D01*
X9544595Y-12595286D01*
X9544595Y-12547667D01*
X9554119Y-12509571D01*
X9563643Y-12490524D01*
X9573167Y-12481000D01*
X9592214Y-12471476D01*
X9744595Y-12652428D02*
X9754119Y-12661952D01*
X9744595Y-12671476D01*
X9735071Y-12661952D01*
X9744595Y-12652428D01*
X9744595Y-12671476D01*
X9820786Y-12471476D02*
X9954119Y-12471476D01*
X9868405Y-12671476D01*
X10125548Y-12471476D02*
X10030310Y-12471476D01*
X10020786Y-12566714D01*
X10030310Y-12557190D01*
X10049357Y-12547667D01*
X10096976Y-12547667D01*
X10116024Y-12557190D01*
X10125548Y-12566714D01*
X10135071Y-12585762D01*
X10135071Y-12633381D01*
X10125548Y-12652428D01*
X10116024Y-12661952D01*
X10096976Y-12671476D01*
X10049357Y-12671476D01*
X10030310Y-12661952D01*
X10020786Y-12652428D01*
X10258881Y-12471476D02*
X10277929Y-12471476D01*
X10296976Y-12481000D01*
X10306500Y-12490524D01*
X10316024Y-12509571D01*
X10325548Y-12547667D01*
X10325548Y-12595286D01*
X10316024Y-12633381D01*
X10306500Y-12652428D01*
X10296976Y-12661952D01*
X10277929Y-12671476D01*
X10258881Y-12671476D01*
X10239833Y-12661952D01*
X10230310Y-12652428D01*
X10220786Y-12633381D01*
X10211262Y-12595286D01*
X10211262Y-12547667D01*
X10220786Y-12509571D01*
X10230310Y-12490524D01*
X10239833Y-12481000D01*
X10258881Y-12471476D01*
X10411262Y-12671476D02*
X10411262Y-12538143D01*
X10411262Y-12557190D02*
X10420786Y-12547667D01*
X10439833Y-12538143D01*
X10468405Y-12538143D01*
X10487452Y-12547667D01*
X10496976Y-12566714D01*
X10496976Y-12671476D01*
X10496976Y-12566714D02*
X10506500Y-12547667D01*
X10525548Y-12538143D01*
X10554119Y-12538143D01*
X10573167Y-12547667D01*
X10582690Y-12566714D01*
X10582690Y-12671476D01*
X10677929Y-12671476D02*
X10677929Y-12538143D01*
X10677929Y-12557190D02*
X10687452Y-12547667D01*
X10706500Y-12538143D01*
X10735071Y-12538143D01*
X10754119Y-12547667D01*
X10763643Y-12566714D01*
X10763643Y-12671476D01*
X10763643Y-12566714D02*
X10773167Y-12547667D01*
X10792214Y-12538143D01*
X10820786Y-12538143D01*
X10839833Y-12547667D01*
X10849357Y-12566714D01*
X10849357Y-12671476D01*
X11239833Y-12461952D02*
X11068405Y-12719095D01*
X11496976Y-12471476D02*
X11516024Y-12471476D01*
X11535071Y-12481000D01*
X11544595Y-12490524D01*
X11554119Y-12509571D01*
X11563643Y-12547667D01*
X11563643Y-12595286D01*
X11554119Y-12633381D01*
X11544595Y-12652428D01*
X11535071Y-12661952D01*
X11516024Y-12671476D01*
X11496976Y-12671476D01*
X11477928Y-12661952D01*
X11468405Y-12652428D01*
X11458881Y-12633381D01*
X11449357Y-12595286D01*
X11449357Y-12547667D01*
X11458881Y-12509571D01*
X11468405Y-12490524D01*
X11477928Y-12481000D01*
X11496976Y-12471476D01*
X11649357Y-12652428D02*
X11658881Y-12661952D01*
X11649357Y-12671476D01*
X11639833Y-12661952D01*
X11649357Y-12652428D01*
X11649357Y-12671476D01*
X11782690Y-12471476D02*
X11801738Y-12471476D01*
X11820786Y-12481000D01*
X11830309Y-12490524D01*
X11839833Y-12509571D01*
X11849357Y-12547667D01*
X11849357Y-12595286D01*
X11839833Y-12633381D01*
X11830309Y-12652428D01*
X11820786Y-12661952D01*
X11801738Y-12671476D01*
X11782690Y-12671476D01*
X11763643Y-12661952D01*
X11754119Y-12652428D01*
X11744595Y-12633381D01*
X11735071Y-12595286D01*
X11735071Y-12547667D01*
X11744595Y-12509571D01*
X11754119Y-12490524D01*
X11763643Y-12481000D01*
X11782690Y-12471476D01*
X11925548Y-12490524D02*
X11935071Y-12481000D01*
X11954119Y-12471476D01*
X12001738Y-12471476D01*
X12020786Y-12481000D01*
X12030309Y-12490524D01*
X12039833Y-12509571D01*
X12039833Y-12528619D01*
X12030309Y-12557190D01*
X11916024Y-12671476D01*
X12039833Y-12671476D01*
X12135071Y-12671476D02*
X12173167Y-12671476D01*
X12192214Y-12661952D01*
X12201738Y-12652428D01*
X12220786Y-12623857D01*
X12230309Y-12585762D01*
X12230309Y-12509571D01*
X12220786Y-12490524D01*
X12211262Y-12481000D01*
X12192214Y-12471476D01*
X12154119Y-12471476D01*
X12135071Y-12481000D01*
X12125548Y-12490524D01*
X12116024Y-12509571D01*
X12116024Y-12557190D01*
X12125548Y-12576238D01*
X12135071Y-12585762D01*
X12154119Y-12595286D01*
X12192214Y-12595286D01*
X12211262Y-12585762D01*
X12220786Y-12576238D01*
X12230309Y-12557190D01*
X12411262Y-12471476D02*
X12316024Y-12471476D01*
X12306500Y-12566714D01*
X12316024Y-12557190D01*
X12335071Y-12547667D01*
X12382690Y-12547667D01*
X12401738Y-12557190D01*
X12411262Y-12566714D01*
X12420786Y-12585762D01*
X12420786Y-12633381D01*
X12411262Y-12652428D01*
X12401738Y-12661952D01*
X12382690Y-12671476D01*
X12335071Y-12671476D01*
X12316024Y-12661952D01*
X12306500Y-12652428D01*
X12496976Y-12471476D02*
X12496976Y-12509571D01*
X12573167Y-12471476D02*
X12573167Y-12509571D01*
X12868405Y-12747667D02*
X12858881Y-12738143D01*
X12839833Y-12709571D01*
X12830309Y-12690524D01*
X12820786Y-12661952D01*
X12811262Y-12614333D01*
X12811262Y-12576238D01*
X12820786Y-12528619D01*
X12830309Y-12500048D01*
X12839833Y-12481000D01*
X12858881Y-12452428D01*
X12868405Y-12442905D01*
X12935071Y-12490524D02*
X12944595Y-12481000D01*
X12963643Y-12471476D01*
X13011262Y-12471476D01*
X13030309Y-12481000D01*
X13039833Y-12490524D01*
X13049357Y-12509571D01*
X13049357Y-12528619D01*
X13039833Y-12557190D01*
X12925548Y-12671476D01*
X13049357Y-12671476D01*
X13287452Y-12671476D02*
X13287452Y-12471476D01*
X13373167Y-12671476D02*
X13373167Y-12566714D01*
X13363643Y-12547667D01*
X13344595Y-12538143D01*
X13316024Y-12538143D01*
X13296976Y-12547667D01*
X13287452Y-12557190D01*
X13496976Y-12671476D02*
X13477928Y-12661952D01*
X13468405Y-12652428D01*
X13458881Y-12633381D01*
X13458881Y-12576238D01*
X13468405Y-12557190D01*
X13477928Y-12547667D01*
X13496976Y-12538143D01*
X13525548Y-12538143D01*
X13544595Y-12547667D01*
X13554119Y-12557190D01*
X13563643Y-12576238D01*
X13563643Y-12633381D01*
X13554119Y-12652428D01*
X13544595Y-12661952D01*
X13525548Y-12671476D01*
X13496976Y-12671476D01*
X13677928Y-12671476D02*
X13658881Y-12661952D01*
X13649357Y-12642905D01*
X13649357Y-12471476D01*
X13830309Y-12661952D02*
X13811262Y-12671476D01*
X13773167Y-12671476D01*
X13754119Y-12661952D01*
X13744595Y-12642905D01*
X13744595Y-12566714D01*
X13754119Y-12547667D01*
X13773167Y-12538143D01*
X13811262Y-12538143D01*
X13830309Y-12547667D01*
X13839833Y-12566714D01*
X13839833Y-12585762D01*
X13744595Y-12604809D01*
X13916024Y-12661952D02*
X13935071Y-12671476D01*
X13973167Y-12671476D01*
X13992214Y-12661952D01*
X14001738Y-12642905D01*
X14001738Y-12633381D01*
X13992214Y-12614333D01*
X13973167Y-12604809D01*
X13944595Y-12604809D01*
X13925548Y-12595286D01*
X13916024Y-12576238D01*
X13916024Y-12566714D01*
X13925548Y-12547667D01*
X13944595Y-12538143D01*
X13973167Y-12538143D01*
X13992214Y-12547667D01*
X14068405Y-12747667D02*
X14077928Y-12738143D01*
X14096976Y-12709571D01*
X14106500Y-12690524D01*
X14116024Y-12661952D01*
X14125548Y-12614333D01*
X14125548Y-12576238D01*
X14116024Y-12528619D01*
X14106500Y-12500048D01*
X14096976Y-12481000D01*
X14077928Y-12452428D01*
X14068405Y-12442905D01*
D16*
X9196500Y-12795000D02*
X9296500Y-12895000D01*
X9296500Y-12795000D02*
X9196500Y-12895000D01*
X9296500Y-12845000D02*
G75*
G03*
X9296500Y-12845000I-50000J0D01*
G01*
D11*
X9658881Y-12935476D02*
X9544595Y-12935476D01*
X9601738Y-12935476D02*
X9601738Y-12735476D01*
X9582690Y-12764048D01*
X9563643Y-12783095D01*
X9544595Y-12792619D01*
X9744595Y-12916428D02*
X9754119Y-12925952D01*
X9744595Y-12935476D01*
X9735071Y-12925952D01*
X9744595Y-12916428D01*
X9744595Y-12935476D01*
X9877929Y-12735476D02*
X9896976Y-12735476D01*
X9916024Y-12745000D01*
X9925548Y-12754524D01*
X9935071Y-12773571D01*
X9944595Y-12811667D01*
X9944595Y-12859286D01*
X9935071Y-12897381D01*
X9925548Y-12916428D01*
X9916024Y-12925952D01*
X9896976Y-12935476D01*
X9877929Y-12935476D01*
X9858881Y-12925952D01*
X9849357Y-12916428D01*
X9839833Y-12897381D01*
X9830310Y-12859286D01*
X9830310Y-12811667D01*
X9839833Y-12773571D01*
X9849357Y-12754524D01*
X9858881Y-12745000D01*
X9877929Y-12735476D01*
X10068405Y-12735476D02*
X10087452Y-12735476D01*
X10106500Y-12745000D01*
X10116024Y-12754524D01*
X10125548Y-12773571D01*
X10135071Y-12811667D01*
X10135071Y-12859286D01*
X10125548Y-12897381D01*
X10116024Y-12916428D01*
X10106500Y-12925952D01*
X10087452Y-12935476D01*
X10068405Y-12935476D01*
X10049357Y-12925952D01*
X10039833Y-12916428D01*
X10030310Y-12897381D01*
X10020786Y-12859286D01*
X10020786Y-12811667D01*
X10030310Y-12773571D01*
X10039833Y-12754524D01*
X10049357Y-12745000D01*
X10068405Y-12735476D01*
X10258881Y-12735476D02*
X10277929Y-12735476D01*
X10296976Y-12745000D01*
X10306500Y-12754524D01*
X10316024Y-12773571D01*
X10325548Y-12811667D01*
X10325548Y-12859286D01*
X10316024Y-12897381D01*
X10306500Y-12916428D01*
X10296976Y-12925952D01*
X10277929Y-12935476D01*
X10258881Y-12935476D01*
X10239833Y-12925952D01*
X10230310Y-12916428D01*
X10220786Y-12897381D01*
X10211262Y-12859286D01*
X10211262Y-12811667D01*
X10220786Y-12773571D01*
X10230310Y-12754524D01*
X10239833Y-12745000D01*
X10258881Y-12735476D01*
X10411262Y-12935476D02*
X10411262Y-12802143D01*
X10411262Y-12821190D02*
X10420786Y-12811667D01*
X10439833Y-12802143D01*
X10468405Y-12802143D01*
X10487452Y-12811667D01*
X10496976Y-12830714D01*
X10496976Y-12935476D01*
X10496976Y-12830714D02*
X10506500Y-12811667D01*
X10525548Y-12802143D01*
X10554119Y-12802143D01*
X10573167Y-12811667D01*
X10582690Y-12830714D01*
X10582690Y-12935476D01*
X10677929Y-12935476D02*
X10677929Y-12802143D01*
X10677929Y-12821190D02*
X10687452Y-12811667D01*
X10706500Y-12802143D01*
X10735071Y-12802143D01*
X10754119Y-12811667D01*
X10763643Y-12830714D01*
X10763643Y-12935476D01*
X10763643Y-12830714D02*
X10773167Y-12811667D01*
X10792214Y-12802143D01*
X10820786Y-12802143D01*
X10839833Y-12811667D01*
X10849357Y-12830714D01*
X10849357Y-12935476D01*
X11239833Y-12725952D02*
X11068405Y-12983095D01*
X11496976Y-12735476D02*
X11516024Y-12735476D01*
X11535071Y-12745000D01*
X11544595Y-12754524D01*
X11554119Y-12773571D01*
X11563643Y-12811667D01*
X11563643Y-12859286D01*
X11554119Y-12897381D01*
X11544595Y-12916428D01*
X11535071Y-12925952D01*
X11516024Y-12935476D01*
X11496976Y-12935476D01*
X11477928Y-12925952D01*
X11468405Y-12916428D01*
X11458881Y-12897381D01*
X11449357Y-12859286D01*
X11449357Y-12811667D01*
X11458881Y-12773571D01*
X11468405Y-12754524D01*
X11477928Y-12745000D01*
X11496976Y-12735476D01*
X11649357Y-12916428D02*
X11658881Y-12925952D01*
X11649357Y-12935476D01*
X11639833Y-12925952D01*
X11649357Y-12916428D01*
X11649357Y-12935476D01*
X11782690Y-12735476D02*
X11801738Y-12735476D01*
X11820786Y-12745000D01*
X11830309Y-12754524D01*
X11839833Y-12773571D01*
X11849357Y-12811667D01*
X11849357Y-12859286D01*
X11839833Y-12897381D01*
X11830309Y-12916428D01*
X11820786Y-12925952D01*
X11801738Y-12935476D01*
X11782690Y-12935476D01*
X11763643Y-12925952D01*
X11754119Y-12916428D01*
X11744595Y-12897381D01*
X11735071Y-12859286D01*
X11735071Y-12811667D01*
X11744595Y-12773571D01*
X11754119Y-12754524D01*
X11763643Y-12745000D01*
X11782690Y-12735476D01*
X11916024Y-12735476D02*
X12039833Y-12735476D01*
X11973167Y-12811667D01*
X12001738Y-12811667D01*
X12020786Y-12821190D01*
X12030309Y-12830714D01*
X12039833Y-12849762D01*
X12039833Y-12897381D01*
X12030309Y-12916428D01*
X12020786Y-12925952D01*
X12001738Y-12935476D01*
X11944595Y-12935476D01*
X11925548Y-12925952D01*
X11916024Y-12916428D01*
X12135071Y-12935476D02*
X12173167Y-12935476D01*
X12192214Y-12925952D01*
X12201738Y-12916428D01*
X12220786Y-12887857D01*
X12230309Y-12849762D01*
X12230309Y-12773571D01*
X12220786Y-12754524D01*
X12211262Y-12745000D01*
X12192214Y-12735476D01*
X12154119Y-12735476D01*
X12135071Y-12745000D01*
X12125548Y-12754524D01*
X12116024Y-12773571D01*
X12116024Y-12821190D01*
X12125548Y-12840238D01*
X12135071Y-12849762D01*
X12154119Y-12859286D01*
X12192214Y-12859286D01*
X12211262Y-12849762D01*
X12220786Y-12840238D01*
X12230309Y-12821190D01*
X12401738Y-12802143D02*
X12401738Y-12935476D01*
X12354119Y-12725952D02*
X12306500Y-12868809D01*
X12430309Y-12868809D01*
X12496976Y-12735476D02*
X12496976Y-12773571D01*
X12573167Y-12735476D02*
X12573167Y-12773571D01*
X12868405Y-13011667D02*
X12858881Y-13002143D01*
X12839833Y-12973571D01*
X12830309Y-12954524D01*
X12820786Y-12925952D01*
X12811262Y-12878333D01*
X12811262Y-12840238D01*
X12820786Y-12792619D01*
X12830309Y-12764048D01*
X12839833Y-12745000D01*
X12858881Y-12716428D01*
X12868405Y-12706905D01*
X12973167Y-12821190D02*
X12954119Y-12811667D01*
X12944595Y-12802143D01*
X12935071Y-12783095D01*
X12935071Y-12773571D01*
X12944595Y-12754524D01*
X12954119Y-12745000D01*
X12973167Y-12735476D01*
X13011262Y-12735476D01*
X13030309Y-12745000D01*
X13039833Y-12754524D01*
X13049357Y-12773571D01*
X13049357Y-12783095D01*
X13039833Y-12802143D01*
X13030309Y-12811667D01*
X13011262Y-12821190D01*
X12973167Y-12821190D01*
X12954119Y-12830714D01*
X12944595Y-12840238D01*
X12935071Y-12859286D01*
X12935071Y-12897381D01*
X12944595Y-12916428D01*
X12954119Y-12925952D01*
X12973167Y-12935476D01*
X13011262Y-12935476D01*
X13030309Y-12925952D01*
X13039833Y-12916428D01*
X13049357Y-12897381D01*
X13049357Y-12859286D01*
X13039833Y-12840238D01*
X13030309Y-12830714D01*
X13011262Y-12821190D01*
X13116024Y-12735476D02*
X13239833Y-12735476D01*
X13173167Y-12811667D01*
X13201738Y-12811667D01*
X13220786Y-12821190D01*
X13230309Y-12830714D01*
X13239833Y-12849762D01*
X13239833Y-12897381D01*
X13230309Y-12916428D01*
X13220786Y-12925952D01*
X13201738Y-12935476D01*
X13144595Y-12935476D01*
X13125548Y-12925952D01*
X13116024Y-12916428D01*
X13477928Y-12935476D02*
X13477928Y-12735476D01*
X13563643Y-12935476D02*
X13563643Y-12830714D01*
X13554119Y-12811667D01*
X13535071Y-12802143D01*
X13506500Y-12802143D01*
X13487452Y-12811667D01*
X13477928Y-12821190D01*
X13687452Y-12935476D02*
X13668405Y-12925952D01*
X13658881Y-12916428D01*
X13649357Y-12897381D01*
X13649357Y-12840238D01*
X13658881Y-12821190D01*
X13668405Y-12811667D01*
X13687452Y-12802143D01*
X13716024Y-12802143D01*
X13735071Y-12811667D01*
X13744595Y-12821190D01*
X13754119Y-12840238D01*
X13754119Y-12897381D01*
X13744595Y-12916428D01*
X13735071Y-12925952D01*
X13716024Y-12935476D01*
X13687452Y-12935476D01*
X13868405Y-12935476D02*
X13849357Y-12925952D01*
X13839833Y-12906905D01*
X13839833Y-12735476D01*
X14020786Y-12925952D02*
X14001738Y-12935476D01*
X13963643Y-12935476D01*
X13944595Y-12925952D01*
X13935071Y-12906905D01*
X13935071Y-12830714D01*
X13944595Y-12811667D01*
X13963643Y-12802143D01*
X14001738Y-12802143D01*
X14020786Y-12811667D01*
X14030309Y-12830714D01*
X14030309Y-12849762D01*
X13935071Y-12868809D01*
X14106500Y-12925952D02*
X14125548Y-12935476D01*
X14163643Y-12935476D01*
X14182690Y-12925952D01*
X14192214Y-12906905D01*
X14192214Y-12897381D01*
X14182690Y-12878333D01*
X14163643Y-12868809D01*
X14135071Y-12868809D01*
X14116024Y-12859286D01*
X14106500Y-12840238D01*
X14106500Y-12830714D01*
X14116024Y-12811667D01*
X14135071Y-12802143D01*
X14163643Y-12802143D01*
X14182690Y-12811667D01*
X14258881Y-13011667D02*
X14268405Y-13002143D01*
X14287452Y-12973571D01*
X14296976Y-12954524D01*
X14306500Y-12925952D01*
X14316024Y-12878333D01*
X14316024Y-12840238D01*
X14306500Y-12792619D01*
X14296976Y-12764048D01*
X14287452Y-12745000D01*
X14268405Y-12716428D01*
X14258881Y-12706905D01*
M02*
